<?xml version="1.0" standalone="no"?>
<!DOCTYPE svg PUBLIC "-//W3C//DTD SVG 1.1//EN" "http://www.w3.org/Graphics/SVG/1.1/DTD/svg11.dtd" >
<svg xmlns="http://www.w3.org/2000/svg" xmlns:xlink="http://www.w3.org/1999/xlink" version="1.1">
<metadata>
Created by FontForge 20170731 at Mon May 11 15:12:35 2020
 By Aleksey,,,
Copyright (c) 2019 by Mans Greback. All rights reserved.
</metadata>
<defs>
<font id="Quache-Light" horiz-adv-x="0" >
  <font-face 
    font-family="Quache Light"
    font-weight="300"
    font-stretch="normal"
    units-per-em="1000"
    panose-1="0 0 4 0 0 0 0 0 0 0"
    ascent="800"
    descent="-200"
    x-height="653"
    cap-height="895"
    bbox="-514 -348.038 1639 1310"
    underline-thickness="50"
    underline-position="-200"
    unicode-range="U+000D-2265"
  />
<missing-glyph horiz-adv-x="859" 
d="M0 -3v949h859v-949h-859zM20 17h819v909h-819v-909zM377 280q-8 49 9.5 90t49.5 68t71.5 55.5t75 52.5t59 58.5t23.5 73.5q0 68 -59 111.5t-165 43.5q-81 0 -155.5 -33t-122.5 -85l-19 21q55 57 134 91t164 34q122 0 189 -51t67 -130q0 -44 -24.5 -82t-60 -63
t-76.5 -53.5t-74.5 -54t-52 -64t-11.5 -83.5h-22zM388 87q-10 0 -17 7.5t-7 17.5t7 17.5t17 7.5q9 0 16 -7.5t7 -17.5t-7 -17.5t-16 -7.5z" />
    <glyph glyph-name="f_i.liga" unicode="fi" horiz-adv-x="623" 
d="M180 0v621h-173v32h173q11 285 195 285q33 0 77 -15q4 -19 -5 -32q-35 15 -67 15q-154 -3 -162 -253h311v-653h-37v621h-275v-621h-37zM510 826q-12 0 -20.5 9t-8.5 22t8.5 22.5t20.5 9.5t20.5 -9.5t8.5 -22.5t-8.5 -22t-20.5 -9z" />
    <glyph glyph-name="f_l.liga" unicode="fl" horiz-adv-x="710" 
d="M605 -18q-57 0 -84 44t-27 142v717q-59 23 -109 23q-159 -3 -167 -255h199v-32h-200v-621h-37v621h-173v32h173q11 285 203 285q69 0 148 -30v-731q0 -88 20 -125.5t63 -37.5q23 0 74 17q7 -16 2 -30q-48 -18 -85 -19z" />
    <glyph glyph-name=".notdef" horiz-adv-x="859" 
d="M0 -3v949h859v-949h-859zM20 17h819v909h-819v-909zM377 280q-8 49 9.5 90t49.5 68t71.5 55.5t75 52.5t59 58.5t23.5 73.5q0 68 -59 111.5t-165 43.5q-81 0 -155.5 -33t-122.5 -85l-19 21q55 57 134 91t164 34q122 0 189 -51t67 -130q0 -44 -24.5 -82t-60 -63
t-76.5 -53.5t-74.5 -54t-52 -64t-11.5 -83.5h-22zM388 87q-10 0 -17 7.5t-7 17.5t7 17.5t17 7.5q9 0 16 -7.5t7 -17.5t-7 -17.5t-16 -7.5z" />
    <glyph glyph-name=".null" 
 />
    <glyph glyph-name="nonmarkingreturn" horiz-adv-x="333" 
 />
    <glyph glyph-name="CR" unicode="&#xd;" horiz-adv-x="600" 
 />
    <glyph glyph-name="space" unicode=" " horiz-adv-x="365" 
 />
    <glyph glyph-name="exclam" unicode="!" horiz-adv-x="349" 
d="M160 273l-3 640h35l-2 -640h-30zM175 0q-11 0 -19 9t-8 21q0 11 8 20t19 9q10 0 18.5 -9t8.5 -20q0 -12 -8 -21t-19 -9z" />
    <glyph glyph-name="quotedbl" unicode="&#x22;" horiz-adv-x="436" 
d="M111 657l46 291h36l-53 -291h-29zM243 657l47 291h35l-52 -291h-30z" />
    <glyph glyph-name="numbersign" unicode="#" horiz-adv-x="794" 
d="M683 590h-123l-25 -280h120v-30h-123l-15 -166l-31 1l15 165h-248l-15 -165h-31l15 165h-111v30h114l25 280h-110v31h113l13 150h32l-14 -150h248l13 150h31l-13 -150h120v-31zM504 310l25 280h-248l-25 -280h248z" />
    <glyph glyph-name="dollar" unicode="$" horiz-adv-x="885" 
d="M774 235q0 -93 -81 -159.5t-223 -74.5v-131h-29v130h-4q-218 0 -326 129l16 29q99 -125 316 -125q136 0 214.5 60t78.5 143q0 54 -33 94.5t-85 64.5t-115.5 43t-127 38.5t-115.5 43t-85 62.5t-33 92q0 77 72.5 134.5t225.5 60.5v125h29v-125q96 -3 170.5 -33.5
t114.5 -76.5l-12 -29q-102 107 -292 107q-139 0 -205 -49t-66 -112q0 -47 33 -81t85.5 -55t115.5 -39t126.5 -39t116 -47.5t85.5 -72.5t33 -107z" />
    <glyph glyph-name="percent" unicode="%" horiz-adv-x="1014" 
d="M134 0l704 890h42l-703 -890h-43zM323 493q-93 0 -152.5 50.5t-59.5 138.5q0 86 58 138t154 52t154.5 -51.5t58.5 -138.5q0 -86 -61 -137.5t-152 -51.5zM323 520q75 0 125.5 45t50.5 117q0 74 -48.5 118t-127.5 44q-78 0 -126.5 -45t-48.5 -117q0 -73 48.5 -117.5
t126.5 -44.5zM675 -2q-93 0 -152.5 50.5t-59.5 138.5q0 85 58.5 137t153.5 52q96 0 154.5 -51.5t58.5 -137.5q0 -87 -61 -138t-152 -51zM675 26q76 0 126.5 44.5t50.5 116.5q0 73 -49 117t-128 44t-127.5 -44.5t-48.5 -116.5q0 -73 48.5 -117t127.5 -44z" />
    <glyph glyph-name="ampersand" unicode="&#x26;" horiz-adv-x="984" 
d="M873 26l-23 -26l-142 124q-116 -142 -298 -142q-134 0 -216.5 58.5t-82.5 159.5q0 83 57 145t157 113q-87 77 -132.5 136.5t-45.5 122.5q0 81 74.5 138.5t223.5 57.5q136 0 212 -57.5t76 -127.5q0 -30 -11 -57t-38 -52t-49 -42t-69 -40.5t-71 -34.5t-79 -35l-32 -15
q58 -49 94 -80l223 -195q82 120 84 247h34q0 -144 -90 -272zM185 716q0 -55 44.5 -112t128.5 -129q6 3 18 8t18 8q159 70 211 106q90 60 90 130q0 58 -67.5 105.5t-183.5 47.5q-127 0 -193 -47.5t-66 -116.5zM412 15q162 0 268 134l-229 201q-19 17 -54 46.5t-46 39.5
q-95 -47 -148.5 -103t-53.5 -131q0 -85 72 -136t191 -51z" />
    <glyph glyph-name="quotesingle" unicode="'" horiz-adv-x="305" 
d="M111 657l48 291h35l-54 -291h-29z" />
    <glyph glyph-name="parenleft" unicode="(" horiz-adv-x="619" 
d="M485 -244q-303 175 -303 607q0 78 18 160t56 169t108 166.5t164 134.5l12 -20l-2 -7q-70 -42 -126 -101t-92 -120.5t-59.5 -130.5t-33.5 -130.5t-10 -120.5q0 -195 64 -341.5t214 -238.5l2 -6z" />
    <glyph glyph-name="parenright" unicode=")" horiz-adv-x="622" 
d="M120 -244l-12 21l2 6q278 172 278 580q0 59 -10 120.5t-33.5 130.5t-59.5 130.5t-92 120.5t-126 101l-2 7l11 20q94 -55 164.5 -134.5t108.5 -166.5t56 -169t18 -160q0 -431 -303 -607z" />
    <glyph glyph-name="asterisk" unicode="*" horiz-adv-x="532" 
d="M421 752l-137 -55l92 -140l-26 -20l-84 144l-85 -144l-26 20l93 140l-137 55l11 29l131 -59l-4 175h33l-4 -176l132 60z" />
    <glyph glyph-name="plus" unicode="+" horiz-adv-x="721" 
d="M610 453v-33h-233v-280h-33v280h-233v33h233v282h33v-282h233z" />
    <glyph glyph-name="comma" unicode="," horiz-adv-x="254" 
d="M52 -172l51 323h33l-52 -323h-32z" />
    <glyph glyph-name="hyphen" unicode="-" horiz-adv-x="946" 
d="M212 343v31h522v-31h-522z" />
    <glyph glyph-name="period" unicode="." horiz-adv-x="353" 
d="M176 0q-11 0 -19.5 9t-8.5 21q0 13 8.5 23t19.5 10q12 0 20.5 -9.5t8.5 -23.5q0 -12 -8.5 -21t-20.5 -9z" />
    <glyph glyph-name="slash" unicode="/" horiz-adv-x="752" 
d="M-19 -130l751 1124h39l-751 -1124h-39z" />
    <glyph glyph-name="zero" unicode="0" horiz-adv-x="767" 
d="M382 -18q-154 0 -244.5 128t-90.5 333q0 218 90.5 344t244.5 126q157 0 248 -125.5t91 -344.5q0 -128 -40 -231.5t-118 -166.5t-181 -63zM382 15q135 0 218 120.5t83 307.5q0 205 -80.5 321t-220.5 116q-138 0 -217.5 -117.5t-79.5 -319.5q0 -192 81 -310t216 -118z" />
    <glyph glyph-name="one" unicode="1" horiz-adv-x="571" 
d="M524 29q4 -12 0 -29h-477q-3 14 0 29l223 6v819l-194 -57q-4 11 -2 29l211 64h23v-856z" />
    <glyph glyph-name="two" unicode="2" horiz-adv-x="755" 
d="M48 0v28q24 64 71 120.5t102 98t116.5 80t117.5 74.5t101.5 73.5t73 85t27.5 100.5q0 102 -74 161t-210 59q-98 0 -170.5 -28.5t-110.5 -71.5q-15 15 -18 26q99 107 304 107q154 0 236 -69.5t82 -182.5q0 -56 -26.5 -105.5t-71.5 -88.5t-100 -76t-115 -75.5t-114.5 -78.5
t-101.5 -93t-72 -112h611q5 -16 0 -32h-658z" />
    <glyph glyph-name="three" unicode="3" horiz-adv-x="759" 
d="M445 482q136 -32 202 -93.5t66 -159.5q0 -106 -88 -176.5t-246 -70.5q-219 0 -332 118q1 15 16 30q46 -53 127 -84t187 -31q131 0 214 58.5t83 155.5q0 205 -351 240q-3 17 0 34q150 0 240 54t90 149q0 82 -77 130t-206 48q-86 0 -171.5 -31.5t-120.5 -68.5q-12 9 -15 27
q43 43 131 74.5t179 31.5q150 0 234.5 -58.5t84.5 -150.5q0 -84 -63.5 -143.5t-183.5 -82.5z" />
    <glyph glyph-name="four" unicode="4" horiz-adv-x="759" 
d="M710 267q5 -15 0 -32h-90v-235h-38v235h-535v28l541 627h32v-623h90zM94 267h490l2 573z" />
    <glyph glyph-name="five" unicode="5" horiz-adv-x="770" 
d="M364 590q172 1 265.5 -82t93.5 -221q0 -126 -91 -215.5t-250 -89.5q-116 0 -202 37t-133 94q0 19 15 30q48 -59 129 -93.5t187 -34.5q74 0 134 23t96.5 62t56 87t19.5 100q0 124 -87.5 198t-247.5 74q-119 -2 -252 -37l35 368h565q2 -19 -2 -32h-527l-29 -298
q120 30 225 30z" />
    <glyph glyph-name="six" unicode="6" horiz-adv-x="761" 
d="M389 507q163 0 244.5 -71.5t81.5 -174.5q0 -51 -22 -99.5t-62.5 -89t-106 -65.5t-145.5 -25q-157 0 -244.5 87t-87.5 236q0 180 127.5 331t376.5 260q16 -12 18 -29q-386 -176 -464 -433q48 30 124 51.5t160 21.5zM379 15q132 0 214 73t82 172q0 92 -73 153.5t-221 61.5
q-87 0 -164 -23t-121 -55q-10 -43 -10 -95q0 -130 74.5 -208.5t218.5 -78.5z" />
    <glyph glyph-name="seven" unicode="7" horiz-adv-x="744" 
d="M42 890h657v-33q-157 -106 -264 -342t-108 -515h-40q1 275 103.5 506t261.5 352h-610q-4 10 0 32z" />
    <glyph glyph-name="eight" unicode="8" horiz-adv-x="761" 
d="M449 502q117 -32 191 -103t74 -170q0 -107 -83.5 -177t-250.5 -70q-166 0 -249.5 70t-83.5 177q0 58 23.5 105.5t64 79.5t84.5 53t95 35q-245 54 -245 194q0 38 17.5 75t52.5 69.5t97.5 52.5t143.5 20q156 0 233 -62t77 -146q0 -74 -66 -126.5t-175 -76.5zM106 693
q0 -39 21 -69t60.5 -50.5t85 -33.5t105.5 -24q274 49 274 186q0 71 -67 124.5t-205 53.5t-206 -57t-68 -130zM380 15q148 0 221.5 62t73.5 154q0 100 -82 166.5t-211 91.5q-127 -23 -211.5 -87.5t-84.5 -170.5q0 -91 73 -153.5t221 -62.5z" />
    <glyph glyph-name="nine" unicode="9" horiz-adv-x="759" 
d="M379 913q157 0 245.5 -84.5t88.5 -229.5q0 -188 -127 -345t-378 -271q-16 12 -18 28q388 183 469 454q-48 -28 -126.5 -49t-163.5 -21q-162 0 -242.5 71.5t-80.5 175.5q0 108 89.5 189.5t243.5 81.5zM85 642q0 -92 73 -153.5t221 -61.5q88 0 167 21t121 50q8 53 8 103
q0 126 -76 202.5t-220 76.5q-130 0 -212 -70.5t-82 -167.5z" />
    <glyph glyph-name="colon" unicode=":" horiz-adv-x="353" 
d="M176 594q-11 0 -19.5 9.5t-8.5 21.5q0 13 8.5 22.5t19.5 9.5q12 0 20.5 -9.5t8.5 -22.5q0 -12 -8.5 -21.5t-20.5 -9.5zM176 0q-11 0 -19.5 9t-8.5 21q0 13 8.5 23t19.5 10q12 0 20.5 -9.5t8.5 -23.5q0 -12 -8.5 -21t-20.5 -9z" />
    <glyph glyph-name="semicolon" unicode=";" horiz-adv-x="257" 
d="M103 594q-11 0 -19.5 9.5t-8.5 21.5q0 13 8.5 22.5t19.5 9.5q12 0 21 -9.5t9 -22.5q0 -12 -9 -21.5t-21 -9.5zM52 -172l51 323h33l-52 -323h-32z" />
    <glyph glyph-name="less" unicode="&#x3c;" horiz-adv-x="723" 
d="M612 703l-456 -270l455 -269l-15 -27l-485 283v25l487 285z" />
    <glyph glyph-name="equal" unicode="=" horiz-adv-x="721" 
d="M111 507v32h499v-32h-499zM111 334v33h499v-33h-499z" />
    <glyph glyph-name="greater" unicode="&#x3e;" horiz-adv-x="723" 
d="M125 730l487 -285v-25l-485 -283l-15 27l455 269l-456 270z" />
    <glyph glyph-name="question" unicode="?" horiz-adv-x="775" 
d="M323 245q-11 66 19 119t80.5 90t103 71.5t90.5 79.5t38 97q0 79 -67.5 129t-190.5 50q-93 0 -180.5 -38.5t-138.5 -97.5l-22 24q64 66 154 105t188 39q141 0 218.5 -58.5t77.5 -150.5q0 -44 -21 -82t-53.5 -65.5t-72 -54t-77.5 -52.5t-67.5 -54.5t-44.5 -67t-8 -83.5h-26
zM336 0q-11 0 -19.5 9t-8.5 21q0 11 8.5 20t19.5 9q10 0 18.5 -9t8.5 -20q0 -12 -8 -21t-19 -9z" />
    <glyph glyph-name="at" unicode="@" horiz-adv-x="1191" 
d="M609 -190q-220 0 -359 133t-139 367q0 240 137 377.5t359 137.5q212 0 343 -124t131 -355q0 -120 -48.5 -193.5t-125.5 -73.5q-108 0 -123 105q-21 -39 -71.5 -72t-116.5 -33q-113 0 -170 69.5t-57 170.5q0 102 57 171.5t170 69.5q109 0 183 -68l1 53h26v-319
q0 -57 27 -85.5t75 -28.5q62 0 100.5 63.5t38.5 170.5q0 220 -120.5 334.5t-319.5 114.5q-208 0 -335 -130t-127 -355q0 -219 129 -344t335 -125q70 0 133.5 20.5t98.5 51.5l18 -25q-39 -33 -106.5 -55.5t-143.5 -22.5zM601 109q58 0 107.5 31t68.5 77v242q-66 71 -176 71
q-97 0 -147.5 -60.5t-50.5 -150.5q0 -91 50 -150.5t148 -59.5z" />
    <glyph glyph-name="A" unicode="A" horiz-adv-x="900" 
d="M476 892q108 -239 409 -887l-2 -5q-29 0 -40 3q-28 58 -109 237h-566l-112 -240h-42l424 892q6 3 19 3t19 -3zM184 273h535q-85 186 -262 584z" />
    <glyph glyph-name="B" unicode="B" horiz-adv-x="845" 
d="M802 284q1 -143 -100.5 -222t-273.5 -80q-121 0 -191 9t-153 34v855q129 33 307 33q96 0 165.5 -21t104.5 -56t50.5 -70t15.5 -72q0 -57 -39.5 -103.5t-110.5 -67.5q225 -44 225 -239zM392 882q-165 0 -270 -27v-368q54 22 142 35t171 13q42 0 81 -3q82 12 127.5 56.5
t45.5 102.5q0 33 -14 64t-45.5 61t-92.5 48t-145 18zM426 14q163 0 251.5 73t88.5 195q0 221 -335 221q-182 0 -309 -49v-404q118 -36 304 -36z" />
    <glyph glyph-name="C" unicode="C" horiz-adv-x="810" 
d="M449 -19q-174 0 -290.5 126t-116.5 340q0 193 118.5 329t297.5 137q136 1 224.5 -88t82.5 -220q-21 -8 -38 -3q5 118 -73 198.5t-196 79.5q-108 -1 -195 -60.5t-134.5 -158t-47.5 -215.5q0 -199 105.5 -315t262.5 -116q69 0 144 25t135 75q7 -4 12.5 -13.5t5.5 -14.5
q-64 -52 -145 -79t-152 -27z" />
    <glyph glyph-name="D" unicode="D" horiz-adv-x="881" 
d="M382 913q210 0 333.5 -126t123.5 -330q0 -214 -117.5 -344.5t-319.5 -130.5q-104 0 -166 9t-152 34v855q128 33 298 33zM402 14q186 0 291.5 122t106.5 321q1 119 -46 214t-144 152.5t-229 57.5q-156 0 -259 -26v-804q125 -37 280 -37z" />
    <glyph glyph-name="E" unicode="E" horiz-adv-x="790" 
d="M744 32q4 -4 4 -15t-4 -17h-660v887l5 5h631q5 -18 -6 -32h-592v-414h511q2 -7 0 -17.5t-6 -14.5h-505v-382h622z" />
    <glyph glyph-name="F" unicode="F" horiz-adv-x="765" 
d="M715 859h-593v-466h510q2 -8 -0.5 -18.5t-5.5 -13.5h-504v-361h-38v885l6 6h632q5 -16 -7 -32z" />
    <glyph glyph-name="G" unicode="G" horiz-adv-x="858" 
d="M813 617q-20 -9 -38 -3q1 119 -89 192.5t-227 73.5q-113 0 -200.5 -60t-132.5 -158.5t-45 -215.5q0 -197 110.5 -314t284.5 -117q76 0 156.5 22t143.5 65v281h-342q-2 18 8 32h364l7 -8v-320q-65 -51 -157 -78t-180 -27q-189 0 -311.5 125.5t-122.5 339.5q0 91 29 175
t81 149t132 103.5t175 38.5q152 0 255 -83t99 -213z" />
    <glyph glyph-name="H" unicode="H" horiz-adv-x="863" 
d="M740 892q7 3 20 3t18 -3v-892h-38v388h-618v-388h-38v892q18 9 38 0v-471h618v471z" />
    <glyph glyph-name="I" unicode="I" horiz-adv-x="205" 
d="M84 0v892q7 3 19.5 3t17.5 -3v-892h-37z" />
    <glyph glyph-name="J" unicode="J" horiz-adv-x="844" 
d="M407 -18q-96 0 -193 56t-169 145q5 21 22 28q66 -85 156 -140.5t181 -55.5q142 0 226 101.5t84 262.5v513q8 2 21 2t17 -2v-520q0 -165 -92 -277.5t-253 -112.5z" />
    <glyph glyph-name="K" unicode="K" horiz-adv-x="910" 
d="M450 469q171 -199 274.5 -308.5t167.5 -150.5l-1 -6q-15 -6 -39 -6q-110 67 -432 453q-139 -79 -298 -152v-299h-38v892q7 3 20.5 2.5t17.5 -2.5v-557q284 138 411 225q266 183 258 331q16 7 35 2q15 -160 -265 -354q-51 -35 -111 -70z" />
    <glyph glyph-name="L" unicode="L" horiz-adv-x="783" 
d="M94 0l-10 10v882q6 3 19.5 2.5t18.5 -2.5v-860h620q4 -6 4 -16t-4 -16h-648z" />
    <glyph glyph-name="M" unicode="M" horiz-adv-x="1063" 
d="M1021 0h-38l-78 820l-360 -660h-27l-361 663l-77 -823h-38l84 886q5 5 17.5 7t16.5 -1l372 -687l371 687q5 2 17 -0.5t16 -6.5z" />
    <glyph glyph-name="N" unicode="N" horiz-adv-x="946" 
d="M824 892q7 3 19.5 3t18.5 -3v-892h-29l-711 828v-828h-38v883q4 5 14 8.5t15 1.5l711 -832v831z" />
    <glyph glyph-name="O" unicode="O" horiz-adv-x="903" 
d="M411 -18q-85 0 -155 33.5t-116.5 91.5t-71.5 134.5t-26 163.5q0 138 57 254.5t160.5 185t230.5 68.5q107 0 193.5 -62.5t132.5 -165.5t45 -222q-1 -126 -59.5 -236t-162.5 -177.5t-228 -67.5zM413 15q109 0 203 60.5t149.5 164t56.5 224.5q2 174 -94 294.5t-241 120.5
q-174 0 -290.5 -137.5t-115.5 -336.5q0 -78 22 -147.5t62.5 -124t104.5 -86.5t143 -32z" />
    <glyph glyph-name="P" unicode="P" horiz-adv-x="844" 
d="M423 913q173 0 275.5 -87.5t103.5 -240.5q0 -134 -107 -218t-284 -84q-156 0 -289 45v-328h-38v871q142 42 339 42zM409 315q156 0 254.5 72.5t99.5 197.5q0 138 -91.5 217t-250.5 79q-187 0 -299 -36v-481q121 -49 287 -49z" />
    <glyph glyph-name="Q" unicode="Q" horiz-adv-x="903" 
d="M861 463q-1 -119 -53.5 -224.5t-146.5 -174.5t-209 -80q84 -104 234 -104q72 1 159 31q10 -14 6 -34q-83 -24 -156 -25q-185 -3 -280 130h-4q-85 0 -155 33.5t-116.5 91.5t-71.5 134.5t-26 163.5q0 138 57 254.5t160.5 185t230.5 68.5q107 0 193.5 -62.5t132.5 -165.5
t45 -222zM413 15q109 0 203 60.5t149.5 164t56.5 224.5q2 174 -94 294.5t-241 120.5q-174 0 -290.5 -137.5t-115.5 -336.5q0 -78 22 -147.5t62.5 -124t104.5 -86.5t143 -32z" />
    <glyph glyph-name="R" unicode="R" horiz-adv-x="903" 
d="M546 315q118 -132 188.5 -203.5t121.5 -102.5v-6q-12 -5 -39 -5q-78 38 -313 309q-43 -6 -91 -6q-74 1 -156.5 14.5t-134.5 30.5v-346h-38v871q143 42 343 42q173 0 273.5 -83t100.5 -230q0 -107 -69 -182.5t-186 -102.5zM413 333q150 -2 249.5 70t99.5 198
q0 125 -87.5 202.5t-250.5 77.5q-186 0 -302 -34v-468q143 -44 291 -46z" />
    <glyph glyph-name="S" unicode="S" horiz-adv-x="847" 
d="M449 -18q-111 0 -218 36t-189 103q1 7 7 17t13 13q81 -66 182 -101.5t205 -35.5q150 0 233 62t83 164q0 53 -25 91t-73 60.5t-104.5 33.5t-133.5 16q-139 8 -219 63.5t-80 165.5q0 58 28.5 106t75 77t100 44.5t106.5 15.5q166 0 261 -72.5t95 -183.5q-22 -7 -37 -4
q-2 107 -89.5 167.5t-229.5 60.5q-110 0 -190.5 -60t-80.5 -152q0 -65 37.5 -109t94.5 -63.5t134 -23.5q190 -10 279.5 -67.5t89.5 -164.5q0 -114 -91.5 -186.5t-263.5 -72.5z" />
    <glyph glyph-name="T" unicode="T" horiz-adv-x="817" 
d="M795 892q5 -18 -7 -32h-375v-860h-39v860h-352q-4 17 6 32h767z" />
    <glyph glyph-name="U" unicode="U" horiz-adv-x="945" 
d="M460 -19q-177 0 -276.5 103t-99.5 302v506q7 3 20.5 2.5t18.5 -2.5v-508q0 -182 90 -276t247 -94q164 0 263 106.5t99 275.5v496q16 7 38 0v-498q0 -114 -45 -206.5t-137.5 -149.5t-217.5 -57z" />
    <glyph glyph-name="V" unicode="V" horiz-adv-x="856" 
d="M428 0l-12 8q-73 218 -211 510.5t-191 366.5l3 7q18 5 36 0q76 -123 202 -386t191 -473h4q67 94 129.5 199t119.5 224t85 234t14 199q14 9 36 3q27 -157 -74 -393.5t-284 -490.5l-13 -8h-35z" />
    <glyph glyph-name="W" unicode="W" horiz-adv-x="1247" 
d="M438 0l-13 8q-76 231 -196 477t-215 400l3 7q17 5 36 0q109 -181 221.5 -415.5t179.5 -443.5h4q63 98 136 237.5t95 222.5q-18 51 -91 231q8 17 34 15q46 -104 134.5 -338.5t131.5 -367.5h3q151 209 231 440t55 417q11 8 36 2q28 -185 -52.5 -425.5t-241.5 -456.5
l-15 -10h-37l-9 6q-99 285 -161 434q-22 -76 -101 -224.5t-123 -209.5l-11 -6h-34z" />
    <glyph glyph-name="X" unicode="X" horiz-adv-x="889" 
d="M471 438q25 -26 194 -208t209 -223l-2 -7h-40q-26 25 -107 111t-178 191t-109 117q-19 -14 -67 -50.5t-71.5 -55.5t-64.5 -53.5t-64.5 -60t-50.5 -59.5t-43 -69t-24 -71h-39q8 35 23 69.5t31 61.5t45 59t49 52.5t59 53t60 49t67 51.5t66 50q-68 73 -193.5 218.5
t-181.5 219.5l2 7q20 7 41 1q87 -118 364 -428q94 76 146 121.5t106 103t76 105.5t19 96q13 9 37 2q5 -93 -72.5 -189.5t-286.5 -264.5z" />
    <glyph glyph-name="Y" unicode="Y" horiz-adv-x="819" 
d="M803 892q15 -271 -344 -601v-291h-38v293q-48 76 -202 303.5t-204 288.5l3 7q20 6 40 0q39 -46 181.5 -257t205.5 -309q146 132 236.5 282t84.5 282q13 7 37 2z" />
    <glyph glyph-name="Z" unicode="Z" horiz-adv-x="824" 
d="M778 32q4 -4 4 -15t-4 -17h-727q-9 6 -9 26q144 248 322.5 482.5t333.5 351.5h-624q-4 4 -4 14.5t4 17.5h675q5 -3 8 -13t2 -17q-165 -120 -345.5 -354t-321.5 -476h686z" />
    <glyph glyph-name="bracketleft" unicode="[" horiz-adv-x="491" 
d="M111 -234v1228h270v-31h-239v-1166h239v-31h-270z" />
    <glyph glyph-name="backslash" unicode="\" horiz-adv-x="750" 
d="M770 -130h-39l-751 1124h39z" />
    <glyph glyph-name="bracketright" unicode="]" horiz-adv-x="491" 
d="M381 -234h-270v31h238v1166h-238v31h270v-1228z" />
    <glyph glyph-name="asciicircum" unicode="^" horiz-adv-x="848" 
d="M729 510h-44l-259 342l-264 -342h-42l298 382h18z" />
    <glyph glyph-name="underscore" unicode="_" horiz-adv-x="674" 
d="M111 -29v29h452v-29h-452z" />
    <glyph glyph-name="grave" unicode="`" horiz-adv-x="335" 
d="M238 736l-170 245h40l158 -245h-28z" />
    <glyph glyph-name="a" unicode="a" horiz-adv-x="677" 
d="M607 141q0 -65 6.5 -91t21.5 -44l-1 -6h-33q-30 27 -30 121l-1 110q-40 -102 -133 -175.5t-203 -73.5q-90 0 -140 45t-50 118q1 112 110.5 180.5t303.5 69.5q50 0 108 -5q-5 128 -61 203t-152 75q-108 2 -244 -93q-13 5 -13 28q138 97 259 97q116 0 183.5 -90t67.5 -258z
M568 349v13q-54 6 -109 6q-187 0 -282.5 -62t-95.5 -157q0 -62 41 -99t119 -37q88 0 165 52.5t119 129.5t43 154z" />
    <glyph glyph-name="b" unicode="b" horiz-adv-x="722" 
d="M411 700q122 0 197.5 -94t75.5 -237q0 -159 -88.5 -273t-222.5 -114q-91 0 -157.5 57t-97.5 141v-38q0 -80 -17 -142h-33v10q12 54 12 145v777q7 2 20 2t18 -2v-493q31 110 114 185.5t179 75.5zM368 15q121 0 200 106.5t78 247.5q-1 130 -67.5 214.5t-170.5 84.5
q-76 0 -143.5 -53.5t-107 -137.5t-39.5 -172q0 -113 72 -201.5t178 -88.5z" />
    <glyph glyph-name="c" unicode="c" horiz-adv-x="669" 
d="M340 -18q-125 0 -213.5 94.5t-88.5 244.5q0 159 96.5 269t233.5 110q121 0 194.5 -93t68.5 -232q-22 -7 -37 -2q1 129 -60.5 212t-167.5 83q-121 0 -205.5 -102t-84.5 -245q0 -134 77 -220t189 -86q129 0 238 103q10 -3 15.5 -12t5.5 -13q-122 -111 -261 -111z" />
    <glyph glyph-name="d" unicode="d" horiz-adv-x="728" 
d="M648 155q0 -91 12 -145v-10h-31q-19 45 -19 143v71q-34 -96 -108.5 -164t-176.5 -68q-126 0 -206.5 93.5t-80.5 238.5q0 156 92 271t231 115q87 0 155 -60t94 -155v447q5 2 18 2t20 -2v-777zM330 15q80 0 145.5 52t99.5 131t34 163q0 131 -70 219t-173 88
q-121 0 -205 -104t-85 -248q-1 -130 70 -215.5t184 -85.5z" />
    <glyph glyph-name="e" unicode="e" horiz-adv-x="665" 
d="M359 700q126 0 202 -91.5t69 -248.5l-9 -11l-545 -72q12 -121 85 -191.5t175 -70.5q122 0 236 107q9 -4 19 -24q-120 -114 -258 -116q-122 -1 -206.5 87t-88.5 236q-3 104 37.5 194.5t116 145.5t167.5 55zM593 372q4 140 -61.5 218.5t-172.5 78.5q-82 0 -149 -51.5
t-102.5 -135t-33.5 -176.5z" />
    <glyph glyph-name="f" unicode="f" horiz-adv-x="353" 
d="M375 905q-155 -1 -163 -252h226v-32h-226v-621h-38v621h-167v32h167q9 285 195 285q51 0 117 -22q2 -21 -7 -32q-51 21 -104 21z" />
    <glyph glyph-name="g" unicode="g" horiz-adv-x="728" 
d="M627 658q16 1 33 -3v-7q-13 -104 -13 -140v-428q0 -169 -84.5 -265.5t-214.5 -96.5q-144 0 -283 114q2 22 16 29q136 -111 265 -111q116 1 191 88.5t75 241.5v145q-31 -106 -107.5 -174.5t-174.5 -68.5q-124 0 -208.5 90t-83.5 241q0 99 39 187t114.5 144t169.5 56
q90 0 157.5 -63t94.5 -159v82zM332 15q113 0 194 100t83 258q-3 113 -70.5 204t-172.5 91q-128 0 -209 -108t-81 -244q0 -128 69.5 -214.5t186.5 -86.5z" />
    <glyph glyph-name="h" unicode="h" horiz-adv-x="715" 
d="M416 700q119 0 183 -91t64 -255v-354h-37v352q0 144 -55 229t-161 85q-78 0 -149.5 -56.5t-113 -141.5t-41.5 -169v-299h-38v932q24 7 38 0v-489q39 107 124.5 182t185.5 75z" />
    <glyph glyph-name="i" unicode="i" horiz-adv-x="225" 
d="M112 826q-11 0 -20 9t-9 21q0 13 9 22.5t20 9.5q12 0 20.5 -9.5t8.5 -22.5q0 -12 -8.5 -21t-20.5 -9zM94 0v653q7 2 19.5 2t17.5 -2v-653h-37z" />
    <glyph glyph-name="j" unicode="j" horiz-adv-x="234" 
d="M120 826q-11 0 -20 9t-9 21q0 13 9 22.5t20 9.5q12 0 20.5 -9.5t8.5 -22.5q0 -12 -8.5 -21t-20.5 -9zM25 -225q-34 0 -82 17q-7 19 6 34q46 -16 72 -16q45 0 63 46t18 155v642q6 2 19 2t18 -2v-657q0 -108 -24.5 -164t-89.5 -57z" />
    <glyph glyph-name="k" unicode="k" horiz-adv-x="753" 
d="M393 332q140 -155 216 -232t109 -90v-7q-10 -6 -43 -6q-57 21 -313 315q-124 -82 -256 -142v-170h-38v932q19 9 38 0v-725q164 80 314 185q106 76 147 131.5t37 127.5q15 6 40 2q9 -74 -35.5 -138.5t-157.5 -142.5q-4 -3 -25 -17.5t-33 -22.5z" />
    <glyph glyph-name="l" unicode="l" horiz-adv-x="299" 
d="M194 -18q-57 0 -84 44.5t-27 141.5v764q18 8 38 0v-755q0 -88 20 -125.5t63 -37.5q24 0 73 17q8 -14 3 -30q-48 -17 -86 -19z" />
    <glyph glyph-name="m" unicode="m" horiz-adv-x="1037" 
d="M790 700q86 0 132 -79.5t46 -222.5v-398h-37v397q0 124 -38 197.5t-111 73.5q-68 0 -124.5 -53.5t-86 -132t-29.5 -160.5v-322h-37v394q0 274 -145 274q-66 0 -122.5 -56.5t-87 -140t-30.5 -169.5v-302h-38v526q0 71 -14 119v7q22 5 35 3q14 -39 14 -87v-118
q30 104 98 177t151 73q151 0 172 -233q32 100 99 166.5t153 66.5z" />
    <glyph glyph-name="n" unicode="n" horiz-adv-x="745" 
d="M429 700q119 0 183.5 -91t64.5 -255v-354h-38v351q0 145 -55 230.5t-161 85.5q-78 0 -149.5 -56.5t-112.5 -141.5t-41 -169v-300h-38v526q0 71 -14 119v7q22 5 35 3q15 -38 15 -87v-129q37 107 124 184t187 77z" />
    <glyph glyph-name="o" unicode="o" horiz-adv-x="729" 
d="M337 -18q-140 0 -219.5 94t-79.5 232q0 161 103 276.5t254 115.5q132 0 213.5 -96.5t82.5 -238.5q1 -161 -99.5 -272t-254.5 -111zM338 15q138 0 226.5 102t88.5 245q0 130 -72.5 218t-187.5 88q-136 0 -226.5 -107t-90.5 -253q0 -123 68.5 -208t193.5 -85z" />
    <glyph glyph-name="p" unicode="p" horiz-adv-x="721" 
d="M410 700q123 0 198 -93t75 -243q0 -154 -89 -268t-221 -114q-88 0 -156.5 57t-99.5 145v-420q-6 -2 -19.5 -2t-18.5 2v753q0 64 -11 128v7q17 6 34 3l15 -79v-123q37 107 118.5 177t174.5 70zM367 15q121 0 199.5 107t78.5 241q0 139 -67 222t-171 83q-77 0 -144 -52.5
t-106.5 -138t-39.5 -179.5q0 -110 73.5 -196.5t176.5 -86.5z" />
    <glyph glyph-name="q" unicode="q" horiz-adv-x="727" 
d="M624 655q18 3 35 -3v-8q-12 -69 -12 -125v-755q-5 -2 -18 -2t-19 2v451q-33 -97 -110.5 -165t-168.5 -68q-128 0 -210.5 92t-82.5 236q0 172 94.5 281t228.5 109q88 0 155.5 -61t95.5 -156v100zM336 15q109 0 191 105.5t82 237.5q0 125 -68 217.5t-174 92.5
q-118 0 -204.5 -99t-86.5 -258q0 -128 71.5 -212t188.5 -84z" />
    <glyph glyph-name="r" unicode="r" horiz-adv-x="542" 
d="M508 676q5 -17 -10 -34q-56 23 -108 23q-121 -1 -195.5 -111t-74.5 -256v-298h-38v526q0 71 -14 119v7q22 5 34 3q14 -39 14 -87v-132q27 113 101.5 188.5t174.5 75.5q54 0 116 -24z" />
    <glyph glyph-name="s" unicode="s" horiz-adv-x="679" 
d="M356 -18q-81 0 -166 28.5t-146 82.5q6 21 17 28q57 -51 135 -78.5t157 -27.5q105 0 174 43.5t69 111.5q0 79 -60 118t-205 46q-258 15 -258 176q0 78 75 134t194 56q160 0 278 -81q-1 -7 -12 -30q-115 79 -263 79q-109 0 -171.5 -48t-62.5 -109q0 -136 229 -147
q161 -8 227.5 -54.5t66.5 -138.5q0 -86 -81.5 -137.5t-196.5 -51.5z" />
    <glyph glyph-name="t" unicode="t" horiz-adv-x="488" 
d="M465 621h-329v-326q0 -133 52.5 -207t147.5 -73q47 0 110 22q4 -4 6 -14.5t0 -17.5q-66 -23 -120 -23q-107 0 -170 80.5t-63 230.5v328h-88v32h88v182q16 11 37 7v-189h329v-32z" />
    <glyph glyph-name="u" unicode="u" horiz-adv-x="735" 
d="M661 136q0 -59 4.5 -84t17.5 -44v-8h-31q-15 16 -20.5 39t-5.5 79v92q-32 -101 -115.5 -164.5t-194.5 -63.5q-115 0 -181.5 72t-66.5 218v381q15 5 38 0v-376q0 -135 58 -198.5t158 -63.5q132 0 216.5 98t84.5 243v297q6 2 19.5 2t18.5 -2v-517z" />
    <glyph glyph-name="v" unicode="v" horiz-adv-x="655" 
d="M333 0l-9 7q-18 54 -37 106t-40 100t-39 87t-41 82t-37 69t-37 64t-31 51t-29.5 46t-22.5 35l3 6q23 5 36 0q196 -279 306 -620h5q118 165 190 337.5t54 279.5q13 8 37 3q21 -112 -58 -299.5t-200 -347.5l-9 -6h-41z" />
    <glyph glyph-name="w" unicode="w" horiz-adv-x="886" 
d="M295 0l-10 7q-15 54 -32.5 107.5t-36.5 101.5t-36 90t-36.5 84t-34 72t-32.5 63.5t-27.5 50.5t-23.5 42t-16 28l3 7q21 4 35 0q177 -300 267 -619h4q43 78 88 183.5t68 185.5l-64 165q3 6 14 10.5t20 3.5q65 -161 102.5 -271.5t78.5 -276.5h5q91 144 152 312.5t53 304.5
q13 7 37 2q13 -120 -53 -310.5t-166 -335.5l-9 -7h-37l-9 7q-52 206 -105 342q-17 -63 -65 -171.5t-87 -170.5l-9 -7h-38z" />
    <glyph glyph-name="x" unicode="x" horiz-adv-x="659" 
d="M355 329q213 -226 293 -321l-2 -8h-42q-48 58 -142 160.5t-142 150.5q-156 -129 -205.5 -188t-50.5 -123h-36q-2 26 3 49t23 50.5t34 47.5t55 56t66.5 59.5t86.5 73.5q-57 68 -285 308l2 7q25 5 39 1q238 -254 276 -299q141 120 177 157q73 77 69 142q15 6 37 1
q4 -46 -26 -95.5t-78 -95t-152 -133.5z" />
    <glyph glyph-name="y" unicode="y" horiz-adv-x="687" 
d="M673 653q10 -111 -15.5 -244t-99.5 -282.5t-186 -255.5q-65 -61 -138.5 -93.5t-140.5 -32.5q-44 0 -76 16q-7 16 -1 29l7 4q29 -17 71 -17q62 0 132 34.5t129 92.5q55 55 95 112q-72 44 -146.5 132.5t-130 185t-94 177.5t-55.5 134l2 7q16 5 35 1q20 -65 74.5 -175.5
t149 -243t185.5 -190.5q91 137 132 297.5t35 308.5q15 10 36 3z" />
    <glyph glyph-name="z" unicode="z" horiz-adv-x="640" 
d="M625 33q3 -5 3.5 -15.5t-3.5 -17.5h-607q-9 9 -7 27q134 212 266 364t275 229h-510q-9 15 0 33h574q4 -3 6.5 -14.5t0.5 -19.5q-256 -116 -560 -586h562z" />
    <glyph glyph-name="braceleft" unicode="{" horiz-adv-x="532" 
d="M180 386q36 -7 61 -24.5t37.5 -39.5t20.5 -57.5t10.5 -64.5t6 -75.5t7.5 -77.5q12 -88 40.5 -148t82.5 -116l-19 -19q-60 59 -91.5 120.5t-43.5 149.5q-5 35 -9 85t-6 81t-11.5 67t-25.5 56t-48.5 33t-80.5 13v33q52 0 85.5 16t48.5 41.5t23.5 67t11 82.5t11.5 98.5
t25 105.5q30 95 117 181l18 -20q-75 -78 -104 -172q-16 -51 -25 -116t-13.5 -110.5t-15.5 -88.5t-38 -68.5t-75 -32.5z" />
    <glyph glyph-name="bar" unicode="|" horiz-adv-x="253" 
d="M111 -231v1243h31v-1243h-31z" />
    <glyph glyph-name="braceright" unicode="}" horiz-adv-x="532" 
d="M224 813q15 -48 24 -105.5t11.5 -98.5t11.5 -82.5t24 -67t48 -41.5t86 -16v-33q-48 0 -80.5 -13t-49 -33t-26 -56t-11.5 -67t-6 -81t-9 -85q-13 -89 -44 -150t-91 -120l-19 19q55 56 83.5 116t40.5 148q4 28 6.5 66.5t4.5 65.5t6.5 59t13 53.5t22 42.5t36.5 33.5t54 18.5
q-40 6 -66 26.5t-37.5 48t-19 69t-10.5 81t-11.5 93.5t-22.5 98q-29 95 -105 172l19 20q85 -84 117 -181z" />
    <glyph glyph-name="asciitilde" unicode="~" horiz-adv-x="691" 
d="M111 310q0 68 28 109.5t71 41.5q32 0 70 -18.5t66.5 -40.5t64.5 -40.5t65 -18.5q34 0 53.5 33t19.5 85h32q0 -66 -27 -108.5t-73 -42.5q-39 0 -88 29.5t-96 59t-82 29.5q-32 0 -52.5 -32.5t-20.5 -85.5h-31z" />
    <glyph glyph-name="exclamdown" unicode="&#xa1;" horiz-adv-x="349" 
d="M174 723q-10 0 -18 9t-8 21t7.5 20.5t18.5 8.5t19.5 -8.5t8.5 -20.5t-8.5 -21t-19.5 -9zM158 -130l1 639h30l3 -639h-34z" />
    <glyph glyph-name="cent" unicode="&#xa2;" horiz-adv-x="854" 
d="M726 186l17 -25q-33 -32 -101 -61.5t-157 -34.5v-195h-28v194h-4q-153 0 -247.5 98t-94.5 280q0 183 97.5 280.5t244.5 97.5h4v176h28v-177q159 -8 259 -97l-19 -25q-108 90 -271 90q-131 0 -218 -88t-87 -257t85 -257.5t219 -88.5q93 0 164 28t109 62z" />
    <glyph glyph-name="sterling" unicode="&#xa3;" horiz-adv-x="904" 
d="M205 32h588v-32h-669v32h9q78 0 76 134q0 27 -3 58.5t-9 81t-9 74.5h-77v32h74q-8 74 -8 150q0 138 79 223t224 85q192 0 294 -110l-21 -25q-92 102 -269 102q-130 0 -200 -77t-70 -203q0 -66 7 -145h412v-32h-408q3 -26 8.5 -73t8.5 -79.5t3 -60.5q0 -94 -40 -135z" />
    <glyph glyph-name="currency" unicode="&#xa4;" horiz-adv-x="570" 
d="M461 254l-21 -23l-84 96q-31 -25 -72 -25q-42 0 -72 24l-80 -94l-21 23l79 93q-28 36 -28 94q0 54 26 91l-77 87l22 22l76 -86q32 27 75 27q46 0 77 -26l76 88l22 -22l-76 -89q25 -38 25 -92t-29 -93zM188 442q0 -51 26 -83t70 -32q42 0 70 33t28 82q0 52 -26 84t-72 32
q-44 0 -70 -34t-26 -82z" />
    <glyph glyph-name="yen" unicode="&#xa5;" horiz-adv-x="930" 
d="M484 387v-21h230v-28h-230v-136h230v-29h-230v-173h-38v173h-232v29h232v136h-232v28h232v21l-335 482h48l306 -443l305 443h49z" />
    <glyph glyph-name="brokenbar" unicode="&#xa6;" horiz-adv-x="253" 
d="M111 481v531h31v-531h-31zM111 -231v534h31v-534h-31z" />
    <glyph glyph-name="section" unicode="&#xa7;" horiz-adv-x="631" 
d="M407 168q95 -72 95 -151q0 -74 -54 -115t-145 -41q-37 0 -84 12t-80 31v35q30 -21 78 -33.5t86 -12.5q74 0 118 32t44 95q0 44 -36.5 83.5t-88.5 72t-104 67t-88.5 82.5t-36.5 103q0 47 31 94.5t80 75.5q-95 72 -95 160q0 74 55 114.5t146 40.5q90 0 162 -36v-35
q-29 17 -76.5 27.5t-85.5 10.5q-75 0 -119.5 -31t-44.5 -91q0 -50 36.5 -91.5t89 -72.5t105 -63t89 -79.5t36.5 -106.5q0 -55 -31 -103t-82 -74zM148 428q0 -32 12 -59.5t41.5 -54t50.5 -42.5t66 -44.5t62 -39.5q46 23 74.5 66t28.5 90q0 33 -13 60.5t-41 52t-51 41
t-65.5 42t-62.5 38.5q-46 -23 -74 -66t-28 -84z" />
    <glyph glyph-name="dieresis" unicode="&#xa8;" horiz-adv-x="484" 
d="M97 781q-11 0 -20 9t-9 21q0 13 9 22.5t20 9.5q12 0 20.5 -9.5t8.5 -22.5q0 -12 -8.5 -21t-20.5 -9zM387 781q-12 0 -20.5 9t-8.5 21q0 13 8.5 22.5t20.5 9.5t20.5 -9.5t8.5 -22.5q0 -12 -8.5 -21t-20.5 -9z" />
    <glyph glyph-name="copyright" unicode="&#xa9;" horiz-adv-x="1168" 
d="M584 -19q-207 0 -340 126.5t-133 336.5q0 133 66 241.5t174 168t233 59.5q134 0 241 -56.5t169.5 -164.5t62.5 -248q0 -211 -132.5 -337t-340.5 -126zM584 8q89 0 168 28t141.5 81t98.5 137.5t36 189.5t-36 190t-97.5 139.5t-141.5 83.5t-169 29q-117 0 -218.5 -56
t-163.5 -158.5t-62 -227.5q0 -201 125.5 -318.5t318.5 -117.5zM587 206q-104 0 -175.5 66.5t-71.5 170.5q0 108 72 176t177 68q115 0 183 -70l-17 -23q-63 62 -163 62q-89 0 -153 -58.5t-64 -154.5q0 -93 63.5 -149.5t150.5 -56.5q113 0 171 64l19 -20q-61 -75 -192 -75z
" />
    <glyph glyph-name="ordfeminine" unicode="&#xaa;" horiz-adv-x="542" 
d="M407 1074h24v-404h-23v24q-44 -29 -115 -29q-86 0 -134 57t-48 142q0 82 51.5 145t135.5 63q65 0 109 -36v38zM295 688q67 0 113 33l-1 281q-39 45 -107 45q-74 0 -119 -55t-45 -128q0 -78 42.5 -127t116.5 -49z" />
    <glyph glyph-name="guillemotleft" unicode="&#xab;" horiz-adv-x="1116" 
d="M612 703l-459 -270l460 -271l-13 -26l-489 285v24l487 283zM545 433l460 -271l-13 -26l-490 285v24l488 283l13 -25z" />
    <glyph glyph-name="logicalnot" unicode="&#xac;" horiz-adv-x="722" 
d="M578 240v181h-467v32h501v-213h-34z" />
    <glyph glyph-name="uni00AD" unicode="&#xad;" horiz-adv-x="1103" 
d="M212 343v31h679v-31h-679z" />
    <glyph glyph-name="registered" unicode="&#xae;" horiz-adv-x="889" 
d="M445 913q138 0 235.5 -88.5t97.5 -240.5q0 -153 -97 -238.5t-236 -85.5q-150 0 -242 89t-92 235q0 137 97.5 233t236.5 96zM445 281q131 0 220.5 78.5t89.5 224.5t-89.5 227t-220.5 81q-130 0 -221 -89.5t-91 -218.5q0 -137 85.5 -220t226.5 -83zM618 673
q0 -46 -32.5 -78.5t-81.5 -41.5l93 -185h-24l-92 182h-12h-136v-182h-22v428h158q66 0 107.5 -34.5t41.5 -88.5zM467 569q52 0 90 29.5t38 74.5q0 46 -36 75t-92 29h-134v-208h134z" />
    <glyph glyph-name="macron" unicode="&#xaf;" horiz-adv-x="583" 
d="M68 817v33h447v-33h-447z" />
    <glyph glyph-name="degree" unicode="&#xb0;" horiz-adv-x="580" 
d="M291 547q-78 0 -129 49t-51 133q0 80 50.5 132t129.5 52q76 0 127.5 -52t51.5 -132q0 -81 -53.5 -131.5t-125.5 -50.5zM290 570q61 0 107 43.5t46 115.5q1 69 -43 115t-110 46q-67 0 -110 -45.5t-44 -115.5q0 -73 44.5 -116t109.5 -43z" />
    <glyph glyph-name="plusminus" unicode="&#xb1;" horiz-adv-x="721" 
d="M378 516h233v-33h-233v-274h-34v274h-233v33h233v279h34v-279zM111 79v33h500v-33h-500z" />
    <glyph glyph-name="uni00B2" unicode="&#xb2;" horiz-adv-x="824" 
d="M156 291h557v-31h-600v25q23 57 66.5 107.5t94 86.5t106.5 70t107 65t92.5 63.5t66.5 72.5t25 86q0 85 -67 133.5t-192 48.5q-177 0 -259 -88l-18 23q91 95 280 95q141 0 216 -58t75 -153q0 -50 -24 -93t-64.5 -76.5t-90.5 -65t-105 -64.5t-105 -67t-93.5 -81t-67.5 -99z
" />
    <glyph glyph-name="uni00B3" unicode="&#xb3;" horiz-adv-x="831" 
d="M720 466q1 -88 -79.5 -149.5t-224.5 -61.5q-201 0 -305 106l15 27q98 -102 290 -102q121 0 196 50t75 131q0 63 -43 105.5t-111.5 63t-171.5 30.5v28q139 0 223.5 46.5t84.5 125.5q0 70 -72.5 110t-191.5 40q-80 0 -157.5 -28.5t-107.5 -62.5l-15 26q40 39 120 67t164 28
q140 0 217 -50t77 -128q0 -74 -63 -124.5t-178 -66.5q133 -23 195.5 -74.5t62.5 -136.5z" />
    <glyph glyph-name="acute" unicode="&#xb4;" horiz-adv-x="329" 
d="M68 736l153 245h39l-166 -245h-26z" />
    <glyph glyph-name="uni00B5" unicode="&#xb5;" horiz-adv-x="735" 
d="M661 139q0 -61 4.5 -86t17.5 -45v-8h-31q-14 15 -19.5 36t-5.5 73v123q-25 -109 -109.5 -179.5t-199.5 -70.5q-80 0 -136.5 38.5t-79.5 116.5v-406h-34v922q14 4 38 0v-376q0 -135 58 -198.5t158 -63.5q132 0 216.5 98t84.5 243v297q13 5 38 0v-514z" />
    <glyph glyph-name="paragraph" unicode="&#xb6;" horiz-adv-x="706" 
d="M269 -130v701q-70 0 -114 46t-44 112q0 68 41.5 114.5t116.5 46.5h326v-28h-126v-992h-30v992h-140v-992h-30z" />
    <glyph glyph-name="periodcentered" unicode="&#xb7;" horiz-adv-x="422" 
d="M211 366q-12 0 -20.5 9.5t-8.5 21.5q0 13 8.5 22.5t20.5 9.5t20.5 -9.5t8.5 -22.5q0 -12 -8.5 -21.5t-20.5 -9.5z" />
    <glyph glyph-name="cedilla" unicode="&#xb8;" horiz-adv-x="323" 
d="M166 -319q-51 -2 -98 53l21 21q35 -44 74 -44q26 1 43 22.5t17 53.5q0 45 -38 94q-36 44 -45 66t-9 61h31q0 -36 8.5 -56t43.5 -64q40 -50 40 -104q1 -43 -24.5 -73t-63.5 -30z" />
    <glyph glyph-name="uni00B9" unicode="&#xb9;" horiz-adv-x="665" 
d="M353 291h201v-31h-441v31h206v720l-193 -45l-6 27l214 50h19v-752z" />
    <glyph glyph-name="ordmasculine" unicode="&#xba;" horiz-adv-x="566" 
d="M284 668q-74 0 -130 50.5t-56 144.5q0 96 52 151t134 55t133 -55t51 -151q0 -94 -55.5 -144.5t-128.5 -50.5zM284 691q64 0 111 44t47 128q0 86 -43.5 134t-114.5 48q-72 0 -116 -48t-44 -134q0 -84 47.5 -128t112.5 -44z" />
    <glyph glyph-name="guillemotright" unicode="&#xbb;" horiz-adv-x="1116" 
d="M613 445v-24l-489 -285l-13 26l460 271l-459 270l14 25zM518 728l487 -283v-24l-489 -285l-14 26l461 271l-459 270z" />
    <glyph glyph-name="onequarter" unicode="&#xbc;" horiz-adv-x="1161" 
d="M111 434v31h148v541l-135 -47l-2 32l148 52h22v-578h138v-31h-319zM1016 1043h35l-784 -1173h-34zM949 479v-410h54v-31h-54v-168h-31v168h-249v23l250 418h30zM923 69l1 369l-220 -369h219z" />
    <glyph glyph-name="onehalf" unicode="&#xbd;" horiz-adv-x="1163" 
d="M111 436v31h148v541l-135 -48l-2 32l148 52h22v-577h138v-31h-319zM995 1043h34l-783 -1173h-34zM773 -98h282v-32h-320v26q26 43 78 105.5t92.5 109t72.5 104t32 103.5q0 56 -35 92.5t-88 36.5q-68 0 -138 -73v34q69 70 145 70q67 0 108.5 -45t41.5 -109q0 -49 -30 -107
t-68 -103t-91.5 -108.5t-81.5 -103.5z" />
    <glyph glyph-name="threequarters" unicode="&#xbe;" horiz-adv-x="1124" 
d="M432 604q0 -63 -44 -114t-117 -51q-90 0 -159 83v31q73 -84 156 -84q56 0 95 41.5t39 98.5q0 126 -179 153v23q72 1 115.5 32t43.5 91q0 45 -33.5 78t-85.5 33q-71 0 -138 -64v29q65 62 141 62q67 0 105.5 -40.5t38.5 -93.5q0 -57 -34 -93t-92 -49q78 -22 113 -67t35 -99
zM979 1041h34l-783 -1173h-35zM943 479v-410h54v-31h-54v-168h-31v168h-249v23l250 418h30zM917 69v367l-219 -367h219z" />
    <glyph glyph-name="questiondown" unicode="&#xbf;" horiz-adv-x="775" 
d="M439 657q11 0 19.5 -9t8.5 -21t-8.5 -21t-19.5 -9t-19 9t-8 21t8 21t19 9zM452 411q8 -48 -5.5 -89.5t-42.5 -71.5t-65.5 -57.5t-74.5 -53t-70 -52t-52.5 -60.5t-20.5 -73q0 -79 67.5 -128.5t190.5 -49.5q93 0 180 38t139 98l22 -24q-64 -66 -154 -105t-188 -39
q-141 0 -218.5 58.5t-77.5 149.5q0 44 21 82t53.5 65.5t72 54t77.5 52.5t67.5 54.5t44.5 67t8 83.5h26z" />
    <glyph glyph-name="Agrave" unicode="&#xc0;" horiz-adv-x="900" 
d="M489 957h-29l-188 192h37zM476 892q108 -239 409 -887l-2 -5q-29 0 -40 3q-28 58 -109 237h-566l-112 -240h-42l424 892q6 3 19 3t19 -3zM184 273h535q-85 186 -262 584z" />
    <glyph glyph-name="Aacute" unicode="&#xc1;" horiz-adv-x="900" 
d="M647 1139l-184 -202h-29l176 202h37zM476 892q108 -239 409 -887l-2 -5q-29 0 -40 3q-28 58 -109 237h-566l-112 -240h-42l424 892q6 3 19 3t19 -3zM184 273h535q-85 186 -262 584z" />
    <glyph glyph-name="Acircumflex" unicode="&#xc2;" horiz-adv-x="900" 
d="M457 1130l-178 -195h-34l203 222h18l203 -222h-34zM476 892q108 -239 409 -887l-2 -5q-29 0 -40 3q-28 58 -109 237h-566l-112 -240h-42l424 892q6 3 19 3t19 -3zM184 273h535q-85 186 -262 584z" />
    <glyph glyph-name="Atilde" unicode="&#xc3;" horiz-adv-x="900" 
d="M336 1078q-29 0 -47.5 -32.5t-18.5 -86.5h-26q0 67 25.5 107t64.5 40q29 0 63.5 -19.5t61.5 -42.5t60 -42.5t60 -19.5q31 0 49 33.5t18 86.5l26 -1q0 -65 -24 -106t-65 -41q-36 0 -81.5 31t-89 62t-76.5 31zM476 892q108 -239 409 -887l-2 -5q-29 0 -40 3
q-28 58 -109 237h-566l-112 -240h-42l424 892q6 3 19 3t19 -3zM184 273h535q-85 186 -262 584z" />
    <glyph glyph-name="Adieresis" unicode="&#xc4;" horiz-adv-x="900" 
d="M321 983q-10 0 -17.5 8t-7.5 19q0 12 7.5 20.5t17.5 8.5t17.5 -8.5t7.5 -20.5q0 -11 -7.5 -19t-17.5 -8zM596 983q-10 0 -17.5 8t-7.5 19q0 12 7.5 20.5t17.5 8.5q11 0 18.5 -8.5t7.5 -20.5q0 -11 -8 -19t-18 -8zM476 892q108 -239 409 -887l-2 -5q-29 0 -40 3
q-28 58 -109 237h-566l-112 -240h-42l424 892q6 3 19 3t19 -3zM184 273h535q-85 186 -262 584z" />
    <glyph glyph-name="Aring" unicode="&#xc5;" horiz-adv-x="900" 
d="M478 887q81 -179 407 -882l-2 -5q-29 0 -40 3q-28 58 -109 237h-566l-112 -240h-42l422 887q-67 6 -110 42.5t-43 92.5q0 59 49 98t127 39q74 0 125 -39t51 -98q0 -55 -46.5 -92t-110.5 -43zM308 1022q0 -49 41 -82t110 -33q62 0 106.5 34t44.5 81q0 49 -44.5 82.5
t-106.5 33.5q-67 0 -109 -33.5t-42 -82.5zM184 273h535q-85 186 -262 584z" />
    <glyph glyph-name="AE" unicode="&#xc6;" horiz-adv-x="1440" 
d="M1395 32q4 -4 4 -15t-4 -17h-655v240h-486l-192 -240h-48l723 892h634q5 -18 -6 -32h-587v-414h506q5 -18 -6 -32h-500v-382h617zM281 273l459 -1v574z" />
    <glyph glyph-name="Ccedilla" unicode="&#xc7;" horiz-adv-x="810" 
d="M765 605q-21 -8 -38 -3q5 118 -73 198.5t-196 79.5q-108 -1 -195 -60.5t-134.5 -158t-47.5 -215.5q0 -199 105.5 -315t262.5 -116q69 0 144 25t135 75q7 -4 12.5 -13.5t5.5 -14.5q-64 -52 -145 -79t-152 -27q-19 0 -28 1q1 -29 10.5 -47.5t44.5 -63.5q40 -50 40 -104
q1 -43 -24.5 -73t-63.5 -30q-51 -2 -98 53l19 20q38 -45 78 -45q27 0 44.5 21.5t16.5 54.5q0 46 -42 97q-33 40 -42 62t-10 58q-154 19 -253 142.5t-99 319.5q0 193 118.5 329t297.5 137q136 1 224.5 -88t82.5 -220z" />
    <glyph glyph-name="Egrave" unicode="&#xc8;" horiz-adv-x="790" 
d="M445 956h-29l-188 192h37zM744 32q4 -4 4 -15t-4 -17h-660v887l5 5h631q5 -18 -6 -32h-592v-414h511q2 -7 0 -17.5t-6 -14.5h-505v-382h622z" />
    <glyph glyph-name="Eacute" unicode="&#xc9;" horiz-adv-x="790" 
d="M603 1139l-184 -202h-29l176 202h37zM744 32q4 -4 4 -15t-4 -17h-660v887l5 5h631q5 -18 -6 -32h-592v-414h511q2 -7 0 -17.5t-6 -14.5h-505v-382h622z" />
    <glyph glyph-name="Ecircumflex" unicode="&#xca;" horiz-adv-x="790" 
d="M413 1130l-178 -195h-34l203 222h18l203 -222h-34zM744 32q4 -4 4 -15t-4 -17h-660v887l5 5h631q5 -18 -6 -32h-592v-414h511q2 -7 0 -17.5t-6 -14.5h-505v-382h622z" />
    <glyph glyph-name="Edieresis" unicode="&#xcb;" horiz-adv-x="790" 
d="M277 983q-10 0 -17.5 8t-7.5 19q0 12 7.5 20.5t17.5 8.5t17.5 -8.5t7.5 -20.5q0 -11 -7.5 -19t-17.5 -8zM552 983q-10 0 -17.5 8t-7.5 19q0 12 7.5 20.5t17.5 8.5q11 0 18.5 -8.5t7.5 -20.5q0 -11 -8 -19t-18 -8zM744 32q4 -4 4 -15t-4 -17h-660v887l5 5h631
q5 -18 -6 -32h-592v-414h511q2 -7 0 -17.5t-6 -14.5h-505v-382h622z" />
    <glyph glyph-name="Igrave" unicode="&#xcc;" horiz-adv-x="205" 
d="M104 956l-188 192h37l180 -192h-29zM84 0v892q7 3 19.5 3t17.5 -3v-892h-37z" />
    <glyph glyph-name="Iacute" unicode="&#xcd;" horiz-adv-x="205" 
d="M78 937l176 202h37l-184 -202h-29zM84 0v892q7 3 19.5 3t17.5 -3v-892h-37z" />
    <glyph glyph-name="Icircumflex" unicode="&#xce;" horiz-adv-x="205" 
d="M111 1157l203 -222h-34l-178 195l-178 -195h-34l203 222h18zM84 892q7 3 19.5 3t17.5 -3v-892h-37v892z" />
    <glyph glyph-name="Idieresis" unicode="&#xcf;" horiz-adv-x="205" 
d="M-35 983q-10 0 -17.5 8t-7.5 19q0 12 7.5 20.5t17.5 8.5t17.5 -8.5t7.5 -20.5q0 -11 -7.5 -19t-17.5 -8zM240 983q-10 0 -17.5 8t-7.5 19q0 12 7.5 20.5t17.5 8.5q11 0 18.5 -8.5t7.5 -20.5q0 -11 -8 -19t-18 -8zM84 0v892q7 3 19.5 3t17.5 -3v-892h-37z" />
    <glyph glyph-name="Eth" unicode="&#xd0;" horiz-adv-x="964" 
d="M464 913q211 0 334.5 -126t123.5 -330q0 -214 -117.5 -344.5t-319.5 -130.5q-105 0 -166.5 9t-151.5 34v428h-110v32h110v395q128 33 297 33zM485 14q185 0 290.5 122t107.5 321q1 183 -110.5 303.5t-309.5 120.5q-155 0 -258 -26v-370h320v-32h-320v-403
q125 -36 280 -36z" />
    <glyph glyph-name="Ntilde" unicode="&#xd1;" horiz-adv-x="946" 
d="M351 1078q-29 0 -47.5 -32.5t-18.5 -86.5h-26q0 67 25.5 107t64.5 40q29 0 63.5 -19.5t61.5 -42.5t60 -42.5t60 -19.5q31 0 49 33.5t18 86.5l26 -1q0 -65 -24 -106t-65 -41q-36 0 -81.5 31t-89 62t-76.5 31zM824 892q7 3 19.5 3t18.5 -3v-892h-29l-711 828v-828h-38v883
q4 5 14 8.5t15 1.5l711 -832v831z" />
    <glyph glyph-name="Ograve" unicode="&#xd2;" horiz-adv-x="903" 
d="M473 967l-188 192h37l180 -192h-29zM411 -18q-85 0 -155 33.5t-116.5 91.5t-71.5 134.5t-26 163.5q0 138 57 254.5t160.5 185t230.5 68.5q107 0 193.5 -62.5t132.5 -165.5t45 -222q-1 -126 -59.5 -236t-162.5 -177.5t-228 -67.5zM413 15q109 0 203 60.5t149.5 164
t56.5 224.5q2 174 -94 294.5t-241 120.5q-174 0 -290.5 -137.5t-115.5 -336.5q0 -78 22 -147.5t62.5 -124t104.5 -86.5t143 -32z" />
    <glyph glyph-name="Oacute" unicode="&#xd3;" horiz-adv-x="903" 
d="M447 948l176 202h37l-184 -202h-29zM411 -18q-85 0 -155 33.5t-116.5 91.5t-71.5 134.5t-26 163.5q0 138 57 254.5t160.5 185t230.5 68.5q107 0 193.5 -62.5t132.5 -165.5t45 -222q-1 -126 -59.5 -236t-162.5 -177.5t-228 -67.5zM413 15q109 0 203 60.5t149.5 164
t56.5 224.5q2 174 -94 294.5t-241 120.5q-174 0 -290.5 -137.5t-115.5 -336.5q0 -78 22 -147.5t62.5 -124t104.5 -86.5t143 -32z" />
    <glyph glyph-name="Ocircumflex" unicode="&#xd4;" horiz-adv-x="903" 
d="M470 1141l-178 -195h-34l203 222h18l203 -222h-34zM490 913q107 0 193.5 -62.5t132.5 -165.5t45 -222q-1 -126 -59.5 -236t-162.5 -177.5t-228 -67.5q-85 0 -155 33.5t-116.5 91.5t-71.5 134.5t-26 163.5q0 138 57 254.5t160.5 185t230.5 68.5zM822 464q2 174 -94 294.5
t-241 120.5q-174 0 -290.5 -137.5t-115.5 -336.5q0 -78 22 -147.5t62.5 -124t104.5 -86.5t143 -32q109 0 203 60.5t149.5 164t56.5 224.5z" />
    <glyph glyph-name="Otilde" unicode="&#xd5;" horiz-adv-x="903" 
d="M595 965q-36 0 -81.5 31t-89 62t-76.5 31q-29 0 -47.5 -32.5t-18.5 -86.5h-26q0 67 25.5 107t64.5 40q29 0 63.5 -19.5t61.5 -42.5t60 -42.5t60 -19.5q31 0 49 33.5t18 86.5l26 -1q0 -65 -24 -106t-65 -41zM411 -18q-85 0 -155 33.5t-116.5 91.5t-71.5 134.5t-26 163.5
q0 138 57 254.5t160.5 185t230.5 68.5q107 0 193.5 -62.5t132.5 -165.5t45 -222q-1 -126 -59.5 -236t-162.5 -177.5t-228 -67.5zM413 15q109 0 203 60.5t149.5 164t56.5 224.5q2 174 -94 294.5t-241 120.5q-174 0 -290.5 -137.5t-115.5 -336.5q0 -78 22 -147.5t62.5 -124
t104.5 -86.5t143 -32z" />
    <glyph glyph-name="Odieresis" unicode="&#xd6;" horiz-adv-x="903" 
d="M333 994q-10 0 -17.5 8t-7.5 19q0 12 7.5 20.5t17.5 8.5t17.5 -8.5t7.5 -20.5q0 -11 -7.5 -19t-17.5 -8zM608 994q-10 0 -17.5 8t-7.5 19q0 12 7.5 20.5t17.5 8.5q11 0 18.5 -8.5t7.5 -20.5q0 -11 -8 -19t-18 -8zM411 -18q-85 0 -155 33.5t-116.5 91.5t-71.5 134.5
t-26 163.5q0 138 57 254.5t160.5 185t230.5 68.5q107 0 193.5 -62.5t132.5 -165.5t45 -222q-1 -126 -59.5 -236t-162.5 -177.5t-228 -67.5zM413 15q109 0 203 60.5t149.5 164t56.5 224.5q2 174 -94 294.5t-241 120.5q-174 0 -290.5 -137.5t-115.5 -336.5q0 -78 22 -147.5
t62.5 -124t104.5 -86.5t143 -32z" />
    <glyph glyph-name="multiply" unicode="&#xd7;" horiz-adv-x="703" 
d="M593 590l-216 -183l216 -184h-50l-191 162l-192 -162h-49l216 184l-216 183h49l192 -162l191 162h50z" />
    <glyph glyph-name="Oslash" unicode="&#xd8;" horiz-adv-x="921" 
d="M745 804q60 -63 93 -152.5t32 -188.5q-1 -126 -60 -236t-162.5 -177.5t-227.5 -67.5q-142 0 -238 90l-56 -72h-37l72 93q-108 119 -110 312q0 138 57 254.5t160.5 185t230.5 68.5q129 0 225 -88l53 68h37zM90 405q2 -174 93 -282l519 673q-88 83 -206 83
q-174 0 -290.5 -137.5t-115.5 -336.5zM831 464q1 92 -27.5 172.5t-80.5 138.5l-519 -674q88 -86 218 -86q109 0 203 60.5t149.5 164t56.5 224.5z" />
    <glyph glyph-name="Ugrave" unicode="&#xd9;" horiz-adv-x="945" 
d="M474 972l-188 192h37l180 -192h-29zM460 -19q-177 0 -276.5 103t-99.5 302v506q7 3 20.5 2.5t18.5 -2.5v-508q0 -182 90 -276t247 -94q164 0 263 106.5t99 275.5v496q16 7 38 0v-498q0 -114 -45 -206.5t-137.5 -149.5t-217.5 -57z" />
    <glyph glyph-name="Uacute" unicode="&#xda;" horiz-adv-x="945" 
d="M448 953l176 202h37l-184 -202h-29zM460 -19q-177 0 -276.5 103t-99.5 302v506q7 3 20.5 2.5t18.5 -2.5v-508q0 -182 90 -276t247 -94q164 0 263 106.5t99 275.5v496q16 7 38 0v-498q0 -114 -45 -206.5t-137.5 -149.5t-217.5 -57z" />
    <glyph glyph-name="Ucircumflex" unicode="&#xdb;" horiz-adv-x="945" 
d="M472 1146l-178 -195h-34l203 222h18l203 -222h-34zM822 892q16 7 38 0v-498q0 -114 -45 -206.5t-137.5 -149.5t-217.5 -57q-177 0 -276.5 103t-99.5 302v506q7 3 20.5 2.5t18.5 -2.5v-508q0 -182 90 -276t247 -94q164 0 263 106.5t99 275.5v496z" />
    <glyph glyph-name="Udieresis" unicode="&#xdc;" horiz-adv-x="945" 
d="M335 999q-10 0 -17.5 8t-7.5 19q0 12 7.5 20.5t17.5 8.5t17.5 -8.5t7.5 -20.5q0 -11 -7.5 -19t-17.5 -8zM610 999q-10 0 -17.5 8t-7.5 19q0 12 7.5 20.5t17.5 8.5q11 0 18.5 -8.5t7.5 -20.5q0 -11 -8 -19t-18 -8zM460 -19q-177 0 -276.5 103t-99.5 302v506q7 3 20.5 2.5
t18.5 -2.5v-508q0 -182 90 -276t247 -94q164 0 263 106.5t99 275.5v496q16 7 38 0v-498q0 -114 -45 -206.5t-137.5 -149.5t-217.5 -57z" />
    <glyph glyph-name="Yacute" unicode="&#xdd;" horiz-adv-x="819" 
d="M599 1139l-184 -202h-29l176 202h37zM803 892q15 -271 -344 -601v-291h-38v293q-48 76 -202 303.5t-204 288.5l3 7q20 6 40 0q39 -46 181.5 -257t205.5 -309q146 132 236.5 282t84.5 282q13 7 37 2z" />
    <glyph glyph-name="Thorn" unicode="&#xde;" horiz-adv-x="822" 
d="M407 781q169 0 271 -83t102 -233t-106.5 -234t-279.5 -84q-152 0 -271 46v-193h-39v886q7 3 20.5 2.5t18.5 -2.5v-139q117 34 284 34zM396 179q155 0 250 75t95 212q0 133 -88.5 208t-246.5 75q-176 0 -283 -36v-486q123 -48 273 -48z" />
    <glyph glyph-name="germandbls" unicode="&#xdf;" horiz-adv-x="763" 
d="M725 287q8 -138 -70.5 -221.5t-197.5 -83.5q-106 0 -202 72q-2 22 12 29q88 -68 183 -68q106 0 175 75.5t62 197.5q-5 88 -71 143t-172 54q-79 -2 -160 -38q-4 4 -4.5 17t2.5 17q55 24 112 32q94 24 144 73.5t50 114.5q0 76 -58.5 129t-172.5 53q-107 0 -173 -73.5
t-66 -191.5v-618h-37v618q0 142 80 219.5t196 77.5q134 -1 201.5 -62.5t67.5 -147.5q0 -65 -43 -116t-120 -79q110 -2 183 -62t79 -161z" />
    <glyph glyph-name="agrave" unicode="&#xe0;" horiz-adv-x="677" 
d="M400 781h-28l-170 245h40zM607 141q0 -65 6.5 -91t21.5 -44l-1 -6h-33q-30 27 -30 121l-1 110q-40 -102 -133 -175.5t-203 -73.5q-90 0 -140 45t-50 118q1 112 110.5 180.5t303.5 69.5q50 0 108 -5q-5 128 -61 203t-152 75q-108 2 -244 -93q-13 5 -13 28q138 97 259 97
q116 0 183.5 -90t67.5 -258zM568 349v13q-54 6 -109 6q-187 0 -282.5 -62t-95.5 -157q0 -62 41 -99t119 -37q88 0 165 52.5t119 129.5t43 154z" />
    <glyph glyph-name="aacute" unicode="&#xe1;" horiz-adv-x="677" 
d="M521 1026l-164 -245h-28l153 245h39zM607 141q0 -65 6.5 -91t21.5 -44l-1 -6h-33q-30 27 -30 121l-1 110q-40 -102 -133 -175.5t-203 -73.5q-90 0 -140 45t-50 118q1 112 110.5 180.5t303.5 69.5q50 0 108 -5q-5 128 -61 203t-152 75q-108 2 -244 -93q-13 5 -13 28
q138 97 259 97q116 0 183.5 -90t67.5 -258zM568 349v13q-54 6 -109 6q-187 0 -282.5 -62t-95.5 -157q0 -62 41 -99t119 -37q88 0 165 52.5t119 129.5t43 154z" />
    <glyph glyph-name="acircumflex" unicode="&#xe2;" horiz-adv-x="677" 
d="M358 965l-178 -194h-35l205 224h17l204 -224h-35zM607 141q0 -65 6.5 -91t21.5 -44l-1 -6h-33q-30 27 -30 121l-1 110q-40 -102 -133 -175.5t-203 -73.5q-90 0 -140 45t-50 118q1 112 110.5 180.5t303.5 69.5q50 0 108 -5q-5 128 -61 203t-152 75q-108 2 -244 -93
q-13 5 -13 28q138 97 259 97q116 0 183.5 -90t67.5 -258zM568 349v13q-54 6 -109 6q-187 0 -282.5 -62t-95.5 -157q0 -62 41 -99t119 -37q88 0 165 52.5t119 129.5t43 154z" />
    <glyph glyph-name="atilde" unicode="&#xe3;" horiz-adv-x="677" 
d="M236 935q-30 0 -48 -32.5t-18 -86.5h-26q0 69 25.5 110t64.5 41q36 0 81 -31t88 -62t76 -31q31 -1 49 33t18 86h26q0 -66 -24 -108.5t-65 -42.5q-36 0 -81.5 31t-89 62t-76.5 31zM607 141q0 -65 6.5 -91t21.5 -44l-1 -6h-33q-30 27 -30 121l-1 110q-40 -102 -133 -175.5
t-203 -73.5q-90 0 -140 45t-50 118q1 112 110.5 180.5t303.5 69.5q50 0 108 -5q-5 128 -61 203t-152 75q-108 2 -244 -93q-13 5 -13 28q138 97 259 97q116 0 183.5 -90t67.5 -258zM568 349v13q-54 6 -109 6q-187 0 -282.5 -62t-95.5 -157q0 -62 41 -99t119 -37
q88 0 165 52.5t119 129.5t43 154z" />
    <glyph glyph-name="adieresis" unicode="&#xe4;" horiz-adv-x="677" 
d="M218 826q-11 0 -19.5 9t-8.5 21q0 13 8.5 22.5t19.5 9.5q12 0 21 -9.5t9 -22.5q0 -12 -9 -21t-21 -9zM502 826q-11 0 -20 9t-9 21q0 13 9 22.5t20 9.5q12 0 20.5 -9.5t8.5 -22.5q0 -12 -8.5 -21t-20.5 -9zM607 141q0 -65 6.5 -91t21.5 -44l-1 -6h-33q-30 27 -30 121
l-1 110q-40 -102 -133 -175.5t-203 -73.5q-90 0 -140 45t-50 118q1 112 110.5 180.5t303.5 69.5q50 0 108 -5q-5 128 -61 203t-152 75q-108 2 -244 -93q-13 5 -13 28q138 97 259 97q116 0 183.5 -90t67.5 -258zM568 349v13q-54 6 -109 6q-187 0 -282.5 -62t-95.5 -157
q0 -62 41 -99t119 -37q88 0 165 52.5t119 129.5t43 154z" />
    <glyph glyph-name="aring" unicode="&#xe5;" horiz-adv-x="677" 
d="M358 773q-75 0 -125.5 37t-50.5 99q0 59 49 98t127 39q74 0 125 -39t51 -98t-54 -97.5t-122 -38.5zM358 1025q-67 0 -109 -33.5t-42 -82.5t41 -82t110 -33q62 0 106.5 34t44.5 81q0 49 -44.5 82.5t-106.5 33.5zM607 141q0 -65 6.5 -91t21.5 -44l-1 -6h-33q-30 27 -30 121
l-1 110q-40 -102 -133 -175.5t-203 -73.5q-90 0 -140 45t-50 118q1 112 110.5 180.5t303.5 69.5q50 0 108 -5q-5 128 -61 203t-152 75q-108 2 -244 -93q-13 5 -13 28q138 97 259 97q116 0 183.5 -90t67.5 -258zM568 349v13q-54 6 -109 6q-187 0 -282.5 -62t-95.5 -157
q0 -62 41 -99t119 -37q88 0 165 52.5t119 129.5t43 154z" />
    <glyph glyph-name="ae" unicode="&#xe6;" horiz-adv-x="1195" 
d="M889 700q126 0 202 -91.5t69 -248.5l-9 -11l-545 -72q12 -121 85 -191.5t175 -70.5q122 0 236 107q9 -4 19 -24q-120 -114 -258 -116q-103 -1 -182.5 64.5t-103.5 178.5q-42 -109 -137.5 -176.5t-205.5 -66.5q-91 1 -140.5 45.5t-49.5 117.5q1 112 110.5 180.5
t303.5 69.5q50 0 108 -5q-6 128 -61.5 202.5t-151.5 75.5q-106 2 -244 -93q-13 5 -13 28q138 97 259 97q93 0 155.5 -60.5t83.5 -170.5q37 103 116 167t179 64zM1123 371q4 141 -61.5 219.5t-172.5 78.5q-82 0 -149.5 -52t-103 -135.5t-32.5 -176.5zM566 349l1 13
q-54 6 -108 6q-187 0 -282.5 -62t-95.5 -157q0 -62 41 -99t119 -37q132 0 227.5 102t97.5 234z" />
    <glyph glyph-name="ccedilla" unicode="&#xe7;" horiz-adv-x="669" 
d="M368 700q121 0 194.5 -93t68.5 -232q-22 -7 -37 -2q1 129 -60.5 212t-167.5 83q-121 0 -205.5 -102t-84.5 -245q0 -134 77 -220t189 -86q129 0 238 103q10 -3 15.5 -12t5.5 -13q-122 -111 -261 -111h-8q1 -29 10.5 -47t44.5 -63q40 -50 40 -104q1 -43 -24.5 -73
t-63.5 -30q-50 -2 -98 52l19 21q38 -45 78 -45q27 0 44.5 21.5t16.5 54.5q0 44 -42 97q-33 40 -42 61.5t-10 56.5q-114 14 -190.5 106t-76.5 231q0 159 96.5 269t233.5 110z" />
    <glyph glyph-name="egrave" unicode="&#xe8;" horiz-adv-x="665" 
d="M402 781h-28l-170 245h40zM359 700q126 0 202 -91.5t69 -248.5l-9 -11l-545 -72q12 -121 85 -191.5t175 -70.5q122 0 236 107q9 -4 19 -24q-120 -114 -258 -116q-122 -1 -206.5 87t-88.5 236q-3 104 37.5 194.5t116 145.5t167.5 55zM593 372q4 140 -61.5 218.5
t-172.5 78.5q-82 0 -149 -51.5t-102.5 -135t-33.5 -176.5z" />
    <glyph glyph-name="eacute" unicode="&#xe9;" horiz-adv-x="665" 
d="M523 1026l-164 -245h-28l153 245h39zM359 700q126 0 202 -91.5t69 -248.5l-9 -11l-545 -72q12 -121 85 -191.5t175 -70.5q122 0 236 107q9 -4 19 -24q-120 -114 -258 -116q-122 -1 -206.5 87t-88.5 236q-3 104 37.5 194.5t116 145.5t167.5 55zM593 372q4 140 -61.5 218.5
t-172.5 78.5q-82 0 -149 -51.5t-102.5 -135t-33.5 -176.5z" />
    <glyph glyph-name="ecircumflex" unicode="&#xea;" horiz-adv-x="665" 
d="M360 965l-178 -194h-35l205 224h17l204 -224h-35zM359 700q126 0 202 -91.5t69 -248.5l-9 -11l-545 -72q12 -121 85 -191.5t175 -70.5q122 0 236 107q9 -4 19 -24q-120 -114 -258 -116q-122 -1 -206.5 87t-88.5 236q-3 104 37.5 194.5t116 145.5t167.5 55zM593 372
q4 140 -61.5 218.5t-172.5 78.5q-82 0 -149 -51.5t-102.5 -135t-33.5 -176.5z" />
    <glyph glyph-name="edieresis" unicode="&#xeb;" horiz-adv-x="665" 
d="M219 826q-11 0 -19.5 9t-8.5 21q0 13 8.5 22.5t19.5 9.5q12 0 21 -9.5t9 -22.5q0 -12 -9 -21t-21 -9zM503 826q-11 0 -20 9t-9 21q0 13 9 22.5t20 9.5q12 0 20.5 -9.5t8.5 -22.5q0 -12 -8.5 -21t-20.5 -9zM359 700q126 0 202 -91.5t69 -248.5l-9 -11l-545 -72
q12 -121 85 -191.5t175 -70.5q122 0 236 107q9 -4 19 -24q-120 -114 -258 -116q-122 -1 -206.5 87t-88.5 236q-3 104 37.5 194.5t116 145.5t167.5 55zM593 372q4 140 -61.5 218.5t-172.5 78.5q-82 0 -149 -51.5t-102.5 -135t-33.5 -176.5z" />
    <glyph glyph-name="igrave" unicode="&#xec;" horiz-adv-x="225" 
d="M127 781l-170 245h40l158 -245h-28zM94 0v653q7 2 19.5 2t17.5 -2v-653h-37z" />
    <glyph glyph-name="iacute" unicode="&#xed;" horiz-adv-x="225" 
d="M84 781l153 245h39l-164 -245h-28zM94 0v653q7 2 19.5 2t17.5 -2v-653h-37z" />
    <glyph glyph-name="icircumflex" unicode="&#xee;" horiz-adv-x="225" 
d="M121 995l204 -224h-35l-178 194l-178 -194h-35l205 224h17zM94 653q7 2 19.5 2t17.5 -2v-653h-37v653z" />
    <glyph glyph-name="idieresis" unicode="&#xef;" horiz-adv-x="225" 
d="M-28 826q-11 0 -19.5 9t-8.5 21q0 13 8.5 22.5t19.5 9.5q12 0 21 -9.5t9 -22.5q0 -12 -9 -21t-21 -9zM256 826q-11 0 -20 9t-9 21q0 13 9 22.5t20 9.5q12 0 20.5 -9.5t8.5 -22.5q0 -12 -8.5 -21t-20.5 -9zM94 0v653q7 2 19.5 2t17.5 -2v-653h-37z" />
    <glyph glyph-name="eth" unicode="&#xf0;" horiz-adv-x="676" 
d="M409 752q105 -94 167.5 -203.5t62.5 -221.5q0 -61 -20 -120t-57.5 -110.5t-102.5 -83.5t-147 -32q-127 0 -200.5 82.5t-73.5 211.5q0 145 88.5 236.5t221.5 91.5q140 0 218 -108q-55 123 -187 241q-56 -30 -223 -106q-12 6 -16 23q16 8 94.5 43.5t122.5 58.5
q-87 72 -178 119q2 18 17 25q98 -50 191 -128q129 72 132 122q18 6 35 -5q-4 -60 -145 -136zM314 13q128 0 207.5 93t78.5 223q-1 101 -68.5 173t-175.5 72q-123 0 -201.5 -83.5t-78.5 -215.5q0 -114 62.5 -188t175.5 -74z" />
    <glyph glyph-name="ntilde" unicode="&#xf1;" horiz-adv-x="745" 
d="M294 935q-30 0 -48 -32.5t-18 -86.5h-26q0 69 25.5 110t64.5 41q36 0 81 -31t88 -62t76 -31q31 -1 49 33t18 86h26q0 -66 -24 -108.5t-65 -42.5q-36 0 -81.5 31t-89 62t-76.5 31zM429 700q119 0 183.5 -91t64.5 -255v-354h-38v351q0 145 -55 230.5t-161 85.5
q-78 0 -149.5 -56.5t-112.5 -141.5t-41 -169v-300h-38v526q0 71 -14 119v7q22 5 35 3q15 -38 15 -87v-129q37 107 124 184t187 77z" />
    <glyph glyph-name="ograve" unicode="&#xf2;" horiz-adv-x="729" 
d="M406 781l-170 245h40l158 -245h-28zM337 -18q-140 0 -219.5 94t-79.5 232q0 161 103 276.5t254 115.5q132 0 213.5 -96.5t82.5 -238.5q1 -161 -99.5 -272t-254.5 -111zM338 15q138 0 226.5 102t88.5 245q0 130 -72.5 218t-187.5 88q-136 0 -226.5 -107t-90.5 -253
q0 -123 68.5 -208t193.5 -85z" />
    <glyph glyph-name="oacute" unicode="&#xf3;" horiz-adv-x="729" 
d="M363 781l153 245h39l-164 -245h-28zM337 -18q-140 0 -219.5 94t-79.5 232q0 161 103 276.5t254 115.5q132 0 213.5 -96.5t82.5 -238.5q1 -161 -99.5 -272t-254.5 -111zM338 15q138 0 226.5 102t88.5 245q0 130 -72.5 218t-187.5 88q-136 0 -226.5 -107t-90.5 -253
q0 -123 68.5 -208t193.5 -85z" />
    <glyph glyph-name="ocircumflex" unicode="&#xf4;" horiz-adv-x="729" 
d="M392 965l-178 -194h-35l205 224h17l204 -224h-35zM691 365q1 -161 -99.5 -272t-254.5 -111q-140 0 -219.5 94t-79.5 232q0 161 103 276.5t254 115.5q132 0 213.5 -96.5t82.5 -238.5zM338 15q138 0 226.5 102t88.5 245q0 130 -72.5 218t-187.5 88q-136 0 -226.5 -107
t-90.5 -253q0 -123 68.5 -208t193.5 -85z" />
    <glyph glyph-name="otilde" unicode="&#xf5;" horiz-adv-x="729" 
d="M516 811q-36 0 -81.5 31t-89 62t-76.5 31q-30 0 -48 -32.5t-18 -86.5h-26q0 69 25.5 110t64.5 41q36 0 81 -31t88 -62t76 -31q31 -1 49 33t18 86h26q0 -66 -24 -108.5t-65 -42.5zM337 -18q-140 0 -219.5 94t-79.5 232q0 161 103 276.5t254 115.5q132 0 213.5 -96.5
t82.5 -238.5q1 -161 -99.5 -272t-254.5 -111zM338 15q138 0 226.5 102t88.5 245q0 130 -72.5 218t-187.5 88q-136 0 -226.5 -107t-90.5 -253q0 -123 68.5 -208t193.5 -85z" />
    <glyph glyph-name="odieresis" unicode="&#xf6;" horiz-adv-x="729" 
d="M251 826q-11 0 -19.5 9t-8.5 21q0 13 8.5 22.5t19.5 9.5q12 0 21 -9.5t9 -22.5q0 -12 -9 -21t-21 -9zM535 826q-11 0 -20 9t-9 21q0 13 9 22.5t20 9.5q12 0 20.5 -9.5t8.5 -22.5q0 -12 -8.5 -21t-20.5 -9zM337 -18q-140 0 -219.5 94t-79.5 232q0 161 103 276.5t254 115.5
q132 0 213.5 -96.5t82.5 -238.5q1 -161 -99.5 -272t-254.5 -111zM338 15q138 0 226.5 102t88.5 245q0 130 -72.5 218t-187.5 88q-136 0 -226.5 -107t-90.5 -253q0 -123 68.5 -208t193.5 -85z" />
    <glyph glyph-name="divide" unicode="&#xf7;" horiz-adv-x="722" 
d="M360 607q-11 0 -19.5 9.5t-8.5 22.5t8.5 22.5t19.5 9.5q12 0 20.5 -9.5t8.5 -22.5t-8.5 -22.5t-20.5 -9.5zM111 412v32h500v-32h-500zM360 179q-11 0 -19.5 9.5t-8.5 22.5t8.5 22.5t19.5 9.5q12 0 20.5 -9.5t8.5 -22.5t-8.5 -22.5t-20.5 -9.5z" />
    <glyph glyph-name="oslash" unicode="&#xf8;" horiz-adv-x="733" 
d="M693 365q1 -161 -99.5 -272t-254.5 -111q-122 0 -200 75l-52 -57h-27v5l62 68q-82 93 -82 235q0 161 103 276.5t254 115.5q126 0 211 -93l41 46h30v-4l-56 -62q70 -92 70 -222zM78 308q0 -126 69 -208l118 130l31 32l114 124l173 193q-73 89 -188 89q-136 0 -226.5 -107
t-90.5 -253zM341 15q137 0 225.5 102t88.5 245q0 115 -57 197l-130 -145l-146 -155l-29 -33l-130 -143q70 -68 178 -68z" />
    <glyph glyph-name="ugrave" unicode="&#xf9;" horiz-adv-x="735" 
d="M409 781h-28l-170 245h40zM661 136q0 -59 4.5 -84t17.5 -44v-8h-31q-15 16 -20.5 39t-5.5 79v92q-32 -101 -115.5 -164.5t-194.5 -63.5q-115 0 -181.5 72t-66.5 218v381q15 5 38 0v-376q0 -135 58 -198.5t158 -63.5q132 0 216.5 98t84.5 243v297q6 2 19.5 2t18.5 -2v-517
z" />
    <glyph glyph-name="uacute" unicode="&#xfa;" horiz-adv-x="735" 
d="M530 1026l-164 -245h-28l153 245h39zM661 136q0 -59 4.5 -84t17.5 -44v-8h-31q-15 16 -20.5 39t-5.5 79v92q-32 -101 -115.5 -164.5t-194.5 -63.5q-115 0 -181.5 72t-66.5 218v381q15 5 38 0v-376q0 -135 58 -198.5t158 -63.5q132 0 216.5 98t84.5 243v297q6 2 19.5 2
t18.5 -2v-517z" />
    <glyph glyph-name="ucircumflex" unicode="&#xfb;" horiz-adv-x="735" 
d="M367 965l-178 -194h-35l205 224h17l204 -224h-35zM661 136q0 -59 4.5 -84t17.5 -44v-8h-31q-15 16 -20.5 39t-5.5 79v92q-32 -101 -115.5 -164.5t-194.5 -63.5q-115 0 -181.5 72t-66.5 218v381q15 5 38 0v-376q0 -135 58 -198.5t158 -63.5q132 0 216.5 98t84.5 243v297
q6 2 19.5 2t18.5 -2v-517z" />
    <glyph glyph-name="udieresis" unicode="&#xfc;" horiz-adv-x="735" 
d="M226 826q-11 0 -19.5 9t-8.5 21q0 13 8.5 22.5t19.5 9.5q12 0 21 -9.5t9 -22.5q0 -12 -9 -21t-21 -9zM510 826q-11 0 -20 9t-9 21q0 13 9 22.5t20 9.5q12 0 20.5 -9.5t8.5 -22.5q0 -12 -8.5 -21t-20.5 -9zM661 136q0 -59 4.5 -84t17.5 -44v-8h-31q-15 16 -20.5 39
t-5.5 79v92q-32 -101 -115.5 -164.5t-194.5 -63.5q-115 0 -181.5 72t-66.5 218v381q15 5 38 0v-376q0 -135 58 -198.5t158 -63.5q132 0 216.5 98t84.5 243v297q6 2 19.5 2t18.5 -2v-517z" />
    <glyph glyph-name="yacute" unicode="&#xfd;" horiz-adv-x="687" 
d="M513 1028l-164 -245h-28l153 245h39zM673 653q10 -111 -15.5 -244t-99.5 -282.5t-186 -255.5q-65 -61 -138.5 -93.5t-140.5 -32.5q-44 0 -76 16q-7 16 -1 29l7 4q29 -17 71 -17q62 0 132 34.5t129 92.5q55 55 95 112q-72 44 -146.5 132.5t-130 185t-94 177.5t-55.5 134
l2 7q16 5 35 1q20 -65 74.5 -175.5t149 -243t185.5 -190.5q91 137 132 297.5t35 308.5q15 10 36 3z" />
    <glyph glyph-name="thorn" unicode="&#xfe;" horiz-adv-x="710" 
d="M399 700q122 0 197.5 -94t75.5 -237q0 -159 -88.5 -273t-222.5 -114q-91 0 -157.5 57t-97.5 141v-414q-18 -5 -38 0v1166q7 2 20 2t18 -2v-493q31 110 114 185.5t179 75.5zM356 15q121 0 200 106.5t78 247.5q-1 130 -67.5 214.5t-170.5 84.5q-76 0 -143.5 -53.5
t-107 -137.5t-39.5 -172q0 -113 72 -201.5t178 -88.5z" />
    <glyph glyph-name="ydieresis" unicode="&#xff;" horiz-adv-x="687" 
d="M209 828q-11 0 -19.5 9t-8.5 21q0 13 8.5 22.5t19.5 9.5q12 0 21 -9.5t9 -22.5q0 -12 -9 -21t-21 -9zM493 828q-11 0 -20 9t-9 21q0 13 9 22.5t20 9.5q12 0 20.5 -9.5t8.5 -22.5q0 -12 -8.5 -21t-20.5 -9zM673 653q10 -111 -15.5 -244t-99.5 -282.5t-186 -255.5
q-65 -61 -138.5 -93.5t-140.5 -32.5q-44 0 -76 16q-7 16 -1 29l7 4q29 -17 71 -17q62 0 132 34.5t129 92.5q55 55 95 112q-72 44 -146.5 132.5t-130 185t-94 177.5t-55.5 134l2 7q16 5 35 1q20 -65 74.5 -175.5t149 -243t185.5 -190.5q91 137 132 297.5t35 308.5q15 10 36 3
z" />
    <glyph glyph-name="Amacron" unicode="&#x100;" horiz-adv-x="900" 
d="M671 1011v-28h-426v28h426zM476 892q108 -239 409 -887l-2 -5q-29 0 -40 3q-28 58 -109 237h-566l-112 -240h-42l424 892q6 3 19 3t19 -3zM184 273h535q-85 186 -262 584z" />
    <glyph glyph-name="amacron" unicode="&#x101;" horiz-adv-x="677" 
d="M579 892v-29h-441v29h441zM607 141q0 -65 6.5 -91t21.5 -44l-1 -6h-33q-30 27 -30 121l-1 110q-40 -102 -133 -175.5t-203 -73.5q-90 0 -140 45t-50 118q1 112 110.5 180.5t303.5 69.5q50 0 108 -5q-5 128 -61 203t-152 75q-108 2 -244 -93q-13 5 -13 28q138 97 259 97
q116 0 183.5 -90t67.5 -258zM568 349v13q-54 6 -109 6q-187 0 -282.5 -62t-95.5 -157q0 -62 41 -99t119 -37q88 0 165 52.5t119 129.5t43 154z" />
    <glyph glyph-name="Abreve" unicode="&#x102;" horiz-adv-x="900" 
d="M459 957q-85 0 -141 43t-56 119h28q0 -61 47 -99t122 -38q72 0 120.5 38t48.5 99h28q0 -75 -57 -118.5t-140 -43.5zM476 892q108 -239 409 -887l-2 -5q-29 0 -40 3q-28 58 -109 237h-566l-112 -240h-42l424 892q6 3 19 3t19 -3zM184 273h535q-85 186 -262 584z" />
    <glyph glyph-name="abreve" unicode="&#x103;" horiz-adv-x="677" 
d="M357 773q-89 0 -148 51t-59 142h30q0 -74 49 -119.5t128 -45.5q77 0 128 46t51 119h30q0 -88 -60.5 -140.5t-148.5 -52.5zM607 141q0 -65 6.5 -91t21.5 -44l-1 -6h-33q-30 27 -30 121l-1 110q-40 -102 -133 -175.5t-203 -73.5q-90 0 -140 45t-50 118q1 112 110.5 180.5
t303.5 69.5q50 0 108 -5q-5 128 -61 203t-152 75q-108 2 -244 -93q-13 5 -13 28q138 97 259 97q116 0 183.5 -90t67.5 -258zM568 349v13q-54 6 -109 6q-187 0 -282.5 -62t-95.5 -157q0 -62 41 -99t119 -37q88 0 165 52.5t119 129.5t43 154z" />
    <glyph glyph-name="Aogonek" unicode="&#x104;" horiz-adv-x="900" 
d="M912 -238l19 -16q-20 -32 -55 -53t-68 -21q-44 -1 -73 24t-29 74q0 54 34.5 120.5t98.5 120.5q-22 44 -105 229h-566l-112 -240h-42l424 892q6 3 19 3t19 -3q108 -239 409 -887l-2 -5q-14 0 -22 1q-61 -54 -93 -115t-32 -111q0 -37 22 -55.5t55 -17.5q26 0 54 17t45 43z
M184 273h535q-85 186 -262 584z" />
    <glyph glyph-name="aogonek" unicode="&#x105;" horiz-adv-x="677" 
d="M668 -241l19 -16q-20 -32 -55 -53t-68 -21q-44 -1 -73 24t-29 74q0 54 34.5 120t97.5 120q-23 28 -23 114l-1 110q-40 -102 -133 -175.5t-203 -73.5q-90 0 -140 45t-50 118q1 112 110.5 180.5t303.5 69.5q50 0 108 -5q-5 128 -61 203t-152 75q-108 2 -244 -93
q-13 5 -13 28q138 97 259 97q116 0 183.5 -90t67.5 -258l1 -211q0 -65 6.5 -91t21.5 -44l-1 -6h-14q-62 -54 -95 -115.5t-33 -112.5q0 -36 22 -55t55 -18q26 0 54 17t45 43zM568 349v13q-54 6 -109 6q-187 0 -282.5 -62t-95.5 -157q0 -62 41 -99t119 -37q88 0 165 52.5
t119 129.5t43 154z" />
    <glyph glyph-name="Cacute" unicode="&#x106;" horiz-adv-x="810" 
d="M433 958l176 202h37l-184 -202h-29zM449 -19q-174 0 -290.5 126t-116.5 340q0 193 118.5 329t297.5 137q136 1 224.5 -88t82.5 -220q-21 -8 -38 -3q5 118 -73 198.5t-196 79.5q-108 -1 -195 -60.5t-134.5 -158t-47.5 -215.5q0 -199 105.5 -315t262.5 -116q69 0 144 25
t135 75q7 -4 12.5 -13.5t5.5 -14.5q-64 -52 -145 -79t-152 -27z" />
    <glyph glyph-name="cacute" unicode="&#x107;" horiz-adv-x="669" 
d="M339 781l153 245h39l-164 -245h-28zM340 -18q-125 0 -213.5 94.5t-88.5 244.5q0 159 96.5 269t233.5 110q121 0 194.5 -93t68.5 -232q-22 -7 -37 -2q1 129 -60.5 212t-167.5 83q-121 0 -205.5 -102t-84.5 -245q0 -134 77 -220t189 -86q129 0 238 103q10 -3 15.5 -12
t5.5 -13q-122 -111 -261 -111z" />
    <glyph glyph-name="Cdotaccent" unicode="&#x10a;" horiz-adv-x="810" 
d="M457 1002q-10 0 -17.5 8t-7.5 19q0 12 7.5 20.5t17.5 8.5t17.5 -8.5t7.5 -20.5q0 -11 -7.5 -19t-17.5 -8zM449 -19q-174 0 -290.5 126t-116.5 340q0 193 118.5 329t297.5 137q136 1 224.5 -88t82.5 -220q-21 -8 -38 -3q5 118 -73 198.5t-196 79.5q-108 -1 -195 -60.5
t-134.5 -158t-47.5 -215.5q0 -199 105.5 -315t262.5 -116q69 0 144 25t135 75q7 -4 12.5 -13.5t5.5 -14.5q-64 -52 -145 -79t-152 -27z" />
    <glyph glyph-name="cdotaccent" unicode="&#x10b;" horiz-adv-x="669" 
d="M367 826q-11 0 -20 9t-9 21q0 13 9 22.5t20 9.5q12 0 20.5 -9.5t8.5 -22.5q0 -12 -8.5 -21t-20.5 -9zM340 -18q-125 0 -213.5 94.5t-88.5 244.5q0 159 96.5 269t233.5 110q121 0 194.5 -93t68.5 -232q-22 -7 -37 -2q1 129 -60.5 212t-167.5 83q-121 0 -205.5 -102
t-84.5 -245q0 -134 77 -220t189 -86q129 0 238 103q10 -3 15.5 -12t5.5 -13q-122 -111 -261 -111z" />
    <glyph glyph-name="Ccaron" unicode="&#x10c;" horiz-adv-x="810" 
d="M466 960h-17l-205 215h35l179 -186l178 186h34zM765 605q-21 -8 -38 -3q5 118 -73 198.5t-196 79.5q-108 -1 -195 -60.5t-134.5 -158t-47.5 -215.5q0 -199 105.5 -315t262.5 -116q69 0 144 25t135 75q7 -4 12.5 -13.5t5.5 -14.5q-64 -52 -145 -79t-152 -27
q-174 0 -290.5 126t-116.5 340q0 193 118.5 329t297.5 137q136 1 224.5 -88t82.5 -220z" />
    <glyph glyph-name="ccaron" unicode="&#x10d;" horiz-adv-x="669" 
d="M377 781h-17l-205 224h35l178 -195l178 195h35zM368 700q121 0 194.5 -93t68.5 -232q-22 -7 -37 -2q1 129 -60.5 212t-167.5 83q-121 0 -205.5 -102t-84.5 -245q0 -134 77 -220t189 -86q129 0 238 103q10 -3 15.5 -12t5.5 -13q-122 -111 -261 -111q-125 0 -213.5 94.5
t-88.5 244.5q0 159 96.5 269t233.5 110z" />
    <glyph glyph-name="Dcaron" unicode="&#x10e;" horiz-adv-x="881" 
d="M390 960h-17l-205 215h35l179 -186l178 186h34zM382 913q210 0 333.5 -126t123.5 -330q0 -214 -117.5 -344.5t-319.5 -130.5q-104 0 -166 9t-152 34v855q128 33 298 33zM402 14q186 0 291.5 122t106.5 321q1 119 -46 214t-144 152.5t-229 57.5q-156 0 -259 -26v-804
q125 -37 280 -37z" />
    <glyph glyph-name="dcaron" unicode="&#x10f;" horiz-adv-x="825" 
d="M852 1053h36l-22 -333h-30zM655 932v-777q0 -85 12 -145v-10h-31q-18 49 -18 143v72q-34 -96 -108.5 -164.5t-176.5 -68.5q-126 0 -207 93.5t-81 238.5q0 101 40.5 189t115.5 142.5t168 54.5q87 0 155 -60t94 -155v447q5 2 18 2t19 -2zM338 15q80 0 145.5 52t99.5 131
t34 163q0 131 -70.5 219t-172.5 88q-122 0 -206 -104t-84 -248q-1 -130 70 -215.5t184 -85.5z" />
    <glyph glyph-name="Dcroat" unicode="&#x110;" horiz-adv-x="964" 
d="M464 913q211 0 334.5 -126t123.5 -330q0 -214 -117.5 -344.5t-319.5 -130.5q-105 0 -166.5 9t-151.5 34v428h-110v32h110v395q128 33 297 33zM485 14q185 0 290.5 122t107.5 321q1 183 -110.5 303.5t-309.5 120.5q-155 0 -258 -26v-370h320v-32h-320v-403
q125 -36 280 -36z" />
    <glyph glyph-name="dcroat" unicode="&#x111;" horiz-adv-x="724" 
d="M749 793h-101v-638q0 -91 12 -145v-10h-31q-19 45 -19 143v71q-34 -96 -108.5 -164t-176.5 -68q-126 0 -206.5 93.5t-80.5 238.5q0 156 92 271t231 115q87 0 155 -60t94 -155v308h-259v22h259v117q5 2 18 2t20 -2v-117h101v-22zM330 15q80 0 145.5 52t99.5 131t34 163
q0 131 -70 219t-173 88q-121 0 -205 -104t-85 -248q-1 -130 70 -215.5t184 -85.5z" />
    <glyph glyph-name="Emacron" unicode="&#x112;" horiz-adv-x="790" 
d="M627 1011v-28h-426v28h426zM744 32q4 -4 4 -15t-4 -17h-660v887l5 5h631q5 -18 -6 -32h-592v-414h511q2 -7 0 -17.5t-6 -14.5h-505v-382h622z" />
    <glyph glyph-name="emacron" unicode="&#x113;" horiz-adv-x="665" 
d="M580 892v-29h-441v29h441zM359 700q126 0 202 -91.5t69 -248.5l-9 -11l-545 -72q12 -121 85 -191.5t175 -70.5q122 0 236 107q9 -4 19 -24q-120 -114 -258 -116q-122 -1 -206.5 87t-88.5 236q-3 104 37.5 194.5t116 145.5t167.5 55zM593 372q4 140 -61.5 218.5
t-172.5 78.5q-82 0 -149 -51.5t-102.5 -135t-33.5 -176.5z" />
    <glyph glyph-name="Ebreve" unicode="&#x114;" horiz-adv-x="790" 
d="M414 957q-85 0 -141 43t-56 119h29q0 -61 46.5 -99t121.5 -38q73 0 121 38t48 99h29q0 -74 -57.5 -118t-140.5 -44zM744 32q4 -4 4 -15t-4 -17h-660v887l5 5h631q5 -18 -6 -32h-592v-414h511q2 -7 0 -17.5t-6 -14.5h-505v-382h622z" />
    <glyph glyph-name="ebreve" unicode="&#x115;" horiz-adv-x="665" 
d="M358 773q-89 0 -148 51t-59 142h30q0 -74 49 -119.5t128 -45.5q77 0 128 46t51 119h30q0 -88 -60.5 -140.5t-148.5 -52.5zM359 700q126 0 202 -91.5t69 -248.5l-9 -11l-545 -72q12 -121 85 -191.5t175 -70.5q122 0 236 107q9 -4 19 -24q-120 -114 -258 -116
q-122 -1 -206.5 87t-88.5 236q-3 104 37.5 194.5t116 145.5t167.5 55zM593 372q4 140 -61.5 218.5t-172.5 78.5q-82 0 -149 -51.5t-102.5 -135t-33.5 -176.5z" />
    <glyph glyph-name="Edotaccent" unicode="&#x116;" horiz-adv-x="790" 
d="M414 981q-10 0 -17.5 8t-7.5 19q0 12 7.5 20.5t17.5 8.5t17.5 -8.5t7.5 -20.5q0 -11 -7.5 -19t-17.5 -8zM744 32q4 -4 4 -15t-4 -17h-660v887l5 5h631q5 -18 -6 -32h-592v-414h511q2 -7 0 -17.5t-6 -14.5h-505v-382h622z" />
    <glyph glyph-name="edotaccent" unicode="&#x117;" horiz-adv-x="665" 
d="M359 826q-11 0 -20 9t-9 21q0 13 9 22.5t20 9.5q12 0 20.5 -9.5t8.5 -22.5q0 -12 -8.5 -21t-20.5 -9zM359 700q126 0 202 -91.5t69 -248.5l-9 -11l-545 -72q12 -121 85 -191.5t175 -70.5q122 0 236 107q9 -4 19 -24q-120 -114 -258 -116q-122 -1 -206.5 87t-88.5 236
q-3 104 37.5 194.5t116 145.5t167.5 55zM593 372q4 140 -61.5 218.5t-172.5 78.5q-82 0 -149 -51.5t-102.5 -135t-33.5 -176.5z" />
    <glyph glyph-name="Eogonek" unicode="&#x118;" horiz-adv-x="790" 
d="M462 0q-60 -54 -92 -114.5t-32 -110.5q0 -37 22 -55.5t55 -17.5q26 0 54 17t45 43l19 -16q-20 -32 -55 -53t-68 -21q-44 -1 -73 24t-29 74q0 51 31.5 114t89.5 116h-345v887l5 5h631q5 -18 -6 -32h-592v-414h511q2 -7 0 -17.5t-6 -14.5h-505v-382h622q4 -4 4 -15t-4 -17
h-282z" />
    <glyph glyph-name="eogonek" unicode="&#x119;" horiz-adv-x="665" 
d="M359 700q126 0 202 -91.5t69 -248.5l-9 -11l-545 -72q12 -121 85 -191.5t175 -70.5q122 0 236 107q9 -4 19 -24q-111 -105 -239 -115q-62 -54 -94.5 -115.5t-32.5 -112.5q0 -37 22 -55.5t55 -17.5q26 0 54 17t45 43l19 -16q-20 -32 -55 -53t-68 -21q-44 -1 -73 24t-29 74
q0 51 32 115t91 117q-117 5 -196.5 92.5t-83.5 230.5q-3 104 37.5 194.5t116 145.5t167.5 55zM593 372q4 140 -61.5 218.5t-172.5 78.5q-82 0 -149 -51.5t-102.5 -135t-33.5 -176.5z" />
    <glyph glyph-name="Ecaron" unicode="&#x11a;" horiz-adv-x="790" 
d="M423 939h-17l-205 215h35l179 -186l178 186h34zM744 32q4 -4 4 -15t-4 -17h-660v887l5 5h631q5 -18 -6 -32h-592v-414h511q2 -7 0 -17.5t-6 -14.5h-505v-382h622z" />
    <glyph glyph-name="ecaron" unicode="&#x11b;" horiz-adv-x="665" 
d="M369 781h-17l-205 224h35l178 -195l178 195h35zM359 700q126 0 202 -91.5t69 -248.5l-9 -11l-545 -72q12 -121 85 -191.5t175 -70.5q122 0 236 107q9 -4 19 -24q-120 -114 -258 -116q-122 -1 -206.5 87t-88.5 236q-3 104 37.5 194.5t116 145.5t167.5 55zM593 372
q4 140 -61.5 218.5t-172.5 78.5q-82 0 -149 -51.5t-102.5 -135t-33.5 -176.5z" />
    <glyph glyph-name="Gbreve" unicode="&#x11e;" horiz-adv-x="858" 
d="M459 978q-85 0 -141 43t-56 119h28q0 -61 47 -99t122 -38q72 0 120.5 38t48.5 99h28q0 -75 -57 -118.5t-140 -43.5zM813 617q-20 -9 -38 -3q1 119 -89 192.5t-227 73.5q-113 0 -200.5 -60t-132.5 -158.5t-45 -215.5q0 -197 110.5 -314t284.5 -117q76 0 156.5 22t143.5 65
v281h-342q-2 18 8 32h364l7 -8v-320q-65 -51 -157 -78t-180 -27q-189 0 -311.5 125.5t-122.5 339.5q0 91 29 175t81 149t132 103.5t175 38.5q152 0 255 -83t99 -213z" />
    <glyph glyph-name="gbreve" unicode="&#x11f;" horiz-adv-x="728" 
d="M361 763q-89 0 -148 51t-59 142h30q0 -74 49 -119.5t128 -45.5q77 0 128 46t51 119h30q0 -88 -60.5 -140.5t-148.5 -52.5zM627 658q16 1 33 -3v-7q-13 -104 -13 -140v-428q0 -169 -84.5 -265.5t-214.5 -96.5q-144 0 -283 114q2 22 16 29q136 -111 265 -111
q116 1 191 88.5t75 241.5v145q-31 -106 -107.5 -174.5t-174.5 -68.5q-124 0 -208.5 90t-83.5 241q0 99 39 187t114.5 144t169.5 56q90 0 157.5 -63t94.5 -159v82zM332 15q113 0 194 100t83 258q-3 113 -70.5 204t-172.5 91q-128 0 -209 -108t-81 -244q0 -128 69.5 -214.5
t186.5 -86.5z" />
    <glyph glyph-name="Gdotaccent" unicode="&#x120;" horiz-adv-x="858" 
d="M459 1002q-10 0 -17.5 8t-7.5 19q0 12 7.5 20.5t17.5 8.5t17.5 -8.5t7.5 -20.5q0 -11 -7.5 -19t-17.5 -8zM813 617q-20 -9 -38 -3q1 119 -89 192.5t-227 73.5q-113 0 -200.5 -60t-132.5 -158.5t-45 -215.5q0 -197 110.5 -314t284.5 -117q76 0 156.5 22t143.5 65v281h-342
q-2 18 8 32h364l7 -8v-320q-65 -51 -157 -78t-180 -27q-189 0 -311.5 125.5t-122.5 339.5q0 91 29 175t81 149t132 103.5t175 38.5q152 0 255 -83t99 -213z" />
    <glyph glyph-name="gdotaccent" unicode="&#x121;" horiz-adv-x="728" 
d="M361 816q-11 0 -20 9t-9 21q0 13 9 22.5t20 9.5q12 0 20.5 -9.5t8.5 -22.5q0 -12 -8.5 -21t-20.5 -9zM627 658q16 1 33 -3v-7q-13 -104 -13 -140v-428q0 -169 -84.5 -265.5t-214.5 -96.5q-144 0 -283 114q2 22 16 29q136 -111 265 -111q116 1 191 88.5t75 241.5v145
q-31 -106 -107.5 -174.5t-174.5 -68.5q-124 0 -208.5 90t-83.5 241q0 99 39 187t114.5 144t169.5 56q90 0 157.5 -63t94.5 -159v82zM332 15q113 0 194 100t83 258q-3 113 -70.5 204t-172.5 91q-128 0 -209 -108t-81 -244q0 -128 69.5 -214.5t186.5 -86.5z" />
    <glyph glyph-name="uni0122" unicode="&#x122;" horiz-adv-x="858" 
d="M813 617q-20 -9 -38 -3q1 119 -89 192.5t-227 73.5q-113 0 -200.5 -60t-132.5 -158.5t-45 -215.5q0 -197 110.5 -314t284.5 -117q76 0 156.5 22t143.5 65v281h-342q-2 18 8 32h364l7 -8v-320q-65 -51 -157 -78t-180 -27q-189 0 -311.5 125.5t-122.5 339.5q0 91 29 175
t81 149t132 103.5t175 38.5q152 0 255 -83t99 -213zM390 -301l44 210h31l-47 -210h-28z" />
    <glyph glyph-name="uni0123" unicode="&#x123;" horiz-adv-x="728" 
d="M414 1005l-47 -214h-31l51 214h27zM627 658q16 1 33 -3v-7q-13 -104 -13 -140v-428q0 -169 -84.5 -265.5t-214.5 -96.5q-144 0 -283 114q2 22 16 29q136 -111 265 -111q116 1 191 88.5t75 241.5v145q-31 -106 -107.5 -174.5t-174.5 -68.5q-124 0 -208.5 90t-83.5 241
q0 99 39 187t114.5 144t169.5 56q90 0 157.5 -63t94.5 -159v82zM332 15q113 0 194 100t83 258q-3 113 -70.5 204t-172.5 91q-128 0 -209 -108t-81 -244q0 -128 69.5 -214.5t186.5 -86.5z" />
    <glyph glyph-name="Hcircumflex" unicode="&#x124;" horiz-adv-x="863" 
d="M431 1130l-178 -195h-34l203 222h18l203 -222h-34zM740 892q7 3 20 3t18 -3v-892h-38v388h-618v-388h-38v892q18 9 38 0v-471h618v471z" />
    <glyph glyph-name="hcircumflex" unicode="&#x125;" horiz-adv-x="715" 
d="M376 1160l-178 -194h-35l205 224h17l204 -224h-35zM416 700q119 0 183 -91t64 -255v-354h-37v352q0 144 -55 229t-161 85q-78 0 -149.5 -56.5t-113 -141.5t-41.5 -169v-299h-38v932q24 7 38 0v-489q39 107 124.5 182t185.5 75z" />
    <glyph glyph-name="Hbar" unicode="&#x126;" horiz-adv-x="916" 
d="M847 645v-31h-45v-614h-38v388h-618v-388h-38v614h-39v31h39v247q18 9 38 0v-247h618v247q7 3 20 3t18 -3v-247h45zM764 421v193h-618v-193h618z" />
    <glyph glyph-name="hbar" unicode="&#x127;" horiz-adv-x="694" 
d="M395 700q119 0 183 -91t64 -255v-354h-37v352q0 144 -55 229t-161 85q-78 0 -149.5 -56.5t-113 -141.5t-41.5 -169v-299h-38v821h-88v23h88v88q24 7 38 0v-88h320v-23h-320v-378q39 107 124.5 182t185.5 75z" />
    <glyph glyph-name="Imacron" unicode="&#x12a;" horiz-adv-x="205" 
d="M-29 983v28h263v-28h-263zM84 0v892q7 3 19.5 3t17.5 -3v-892h-37z" />
    <glyph glyph-name="imacron" unicode="&#x12b;" horiz-adv-x="225" 
d="M-67 863v29h360v-29h-360zM94 0v653q7 2 19.5 2t17.5 -2v-653h-37z" />
    <glyph glyph-name="Iogonek" unicode="&#x12e;" horiz-adv-x="205" 
d="M161 -237l19 -16q-20 -32 -55 -53t-68 -21q-44 -1 -73 24t-29 74q0 53 33.5 118t95.5 119v884q7 3 19.5 3t17.5 -3v-892h-13q-60 -53 -91.5 -113.5t-31.5 -110.5q0 -36 22 -55t55 -18q26 0 54 17t45 43z" />
    <glyph glyph-name="iogonek" unicode="&#x12f;" horiz-adv-x="225" 
d="M112 826q-11 0 -20 9t-9 21q0 13 9 22.5t20 9.5q12 0 20.5 -9.5t8.5 -22.5q0 -12 -8.5 -21t-20.5 -9zM176 -242l19 -16q-20 -32 -55 -53t-68 -21q-44 -1 -73 24t-29 74q0 52 32.5 116t92.5 118h-1v653q7 2 19.5 2t17.5 -2v-653h-2q-63 -54 -96 -116t-33 -113
q0 -37 22 -55.5t55 -17.5q26 0 54 17t45 43z" />
    <glyph glyph-name="Idotaccent" unicode="&#x130;" horiz-adv-x="205" 
d="M102 981q-10 0 -17.5 8t-7.5 19q0 12 7.5 20.5t17.5 8.5t17.5 -8.5t7.5 -20.5q0 -11 -7.5 -19t-17.5 -8zM84 0v892q7 3 19.5 3t17.5 -3v-892h-37z" />
    <glyph glyph-name="dotlessi" unicode="&#x131;" horiz-adv-x="225" 
d="M94 0v653q7 2 19.5 2t17.5 -2v-653h-37z" />
    <glyph glyph-name="IJ" unicode="&#x132;" horiz-adv-x="972" 
d="M84 0v892q7 3 19.5 3t17.5 -3v-892h-37zM536 -18q-96 0 -193 56t-170 145q6 21 22 28q67 -86 157 -141t181 -55q142 0 226 101.5t84 262.5v513q7 2 20 2t18 -2v-520q0 -165 -92 -277.5t-253 -112.5z" />
    <glyph glyph-name="ij" unicode="&#x133;" horiz-adv-x="459" 
d="M345 826q-12 0 -20.5 9t-8.5 22t8.5 22.5t20.5 9.5q11 0 20 -9.5t9 -22.5t-9 -22t-20 -9zM112 826q-11 0 -20 9t-9 21q0 13 9 22.5t20 9.5q12 0 20.5 -9.5t8.5 -22.5q0 -12 -8.5 -21t-20.5 -9zM94 0v653q7 2 19.5 2t17.5 -2v-653h-37zM250 -225q-34 0 -82 17q-7 19 6 34
q46 -16 72 -16q45 0 63 46t18 155v642q6 2 19 2t18 -2v-657q0 -108 -24.5 -164t-89.5 -57z" />
    <glyph glyph-name="Jcircumflex" unicode="&#x134;" horiz-adv-x="844" 
d="M743 1158l203 -222h-34l-178 195l-178 -195h-34l203 222h18zM714 892q8 2 21 2t17 -2v-520q0 -165 -92 -277.5t-253 -112.5q-96 0 -193 56t-169 145q5 21 22 28q66 -85 156 -140.5t181 -55.5q142 0 226 101.5t84 262.5v513z" />
    <glyph glyph-name="jcircumflex" unicode="&#x135;" horiz-adv-x="234" 
d="M129 995l204 -224h-35l-178 194l-178 -194h-35l205 224h17zM102 653q6 2 19 2t18 -2v-657q0 -108 -24.5 -164t-89.5 -57q-34 0 -82 17q-7 19 6 34q46 -16 72 -16q45 0 63 46t18 155v642z" />
    <glyph glyph-name="uni0136" unicode="&#x136;" horiz-adv-x="910" 
d="M450 469q171 -199 274.5 -308.5t167.5 -150.5l-1 -6q-15 -6 -39 -6q-110 67 -432 453q-139 -79 -298 -152v-299h-38v892q7 3 20.5 2.5t17.5 -2.5v-557q284 138 411 225q266 183 258 331q16 7 35 2q15 -160 -265 -354q-51 -35 -111 -70zM367 -291l44 210h31l-47 -210h-28z
" />
    <glyph glyph-name="uni0137" unicode="&#x137;" horiz-adv-x="753" 
d="M393 332q140 -155 216 -232t109 -90v-7q-10 -6 -43 -6q-57 21 -313 315q-124 -82 -256 -142v-170h-38v932q19 9 38 0v-725q164 80 314 185q106 76 147 131.5t37 127.5q15 6 40 2q9 -74 -35.5 -138.5t-157.5 -142.5q-4 -3 -25 -17.5t-33 -22.5zM300 -291l44 210h31
l-47 -210h-28z" />
    <glyph glyph-name="kgreenlandic" unicode="&#x138;" horiz-adv-x="753" 
d="M393 332q140 -155 216 -232t109 -90v-7q-10 -6 -43 -6q-57 21 -313 315q-124 -82 -256 -142v-170h-38v653q18 7 38 0v-446q164 80 314 185q106 75 147 131.5t37 127.5q16 7 40 2q9 -74 -35.5 -138.5t-157.5 -142.5q-4 -3 -25 -17.5t-33 -22.5z" />
    <glyph glyph-name="Lacute" unicode="&#x139;" horiz-adv-x="783" 
d="M97 937l176 202h37l-184 -202h-29zM94 0l-10 10v882q6 3 19.5 2.5t18.5 -2.5v-860h620q4 -6 4 -16t-4 -16h-648z" />
    <glyph glyph-name="lacute" unicode="&#x13a;" horiz-adv-x="299" 
d="M82 977l176 202h37l-184 -202h-29zM194 -18q-57 0 -84 44.5t-27 141.5v764q18 8 38 0v-755q0 -88 20 -125.5t63 -37.5q24 0 73 17q8 -14 3 -30q-48 -17 -86 -19z" />
    <glyph glyph-name="uni013B" unicode="&#x13b;" horiz-adv-x="783" 
d="M94 0l-10 10v882q6 3 19.5 2.5t18.5 -2.5v-860h620q4 -6 4 -16t-4 -16h-648zM346 -291l44 210h31l-47 -210h-28z" />
    <glyph glyph-name="uni013C" unicode="&#x13c;" horiz-adv-x="299" 
d="M194 -18q-57 0 -84 44.5t-27 141.5v764q18 8 38 0v-755q0 -88 20 -125.5t63 -37.5q24 0 73 17q8 -14 3 -30q-48 -17 -86 -19zM140 -301l44 210h31l-47 -210h-28z" />
    <glyph glyph-name="Lcaron" unicode="&#x13d;" horiz-adv-x="783" 
d="M488 861l16 333h36l-23 -333h-29zM94 0l-10 10v882q6 3 19.5 2.5t18.5 -2.5v-860h620q4 -6 4 -16t-4 -16h-648z" />
    <glyph glyph-name="lcaron" unicode="&#x13e;" horiz-adv-x="299" 
d="M276 847l16 333h36l-23 -333h-29zM194 -18q-57 0 -84 44.5t-27 141.5v764q18 8 38 0v-755q0 -88 20 -125.5t63 -37.5q24 0 73 17q8 -14 3 -30q-48 -17 -86 -19z" />
    <glyph glyph-name="Lslash" unicode="&#x141;" horiz-adv-x="873" 
d="M832 32q4 -5 4 -15.5t-4 -16.5h-649l-9 10v326l-110 -45v36l110 45v520q6 3 19 2.5t19 -2.5v-505l287 116v-36l-287 -116v-319h620z" />
    <glyph glyph-name="lslash" unicode="&#x142;" horiz-adv-x="318" 
d="M294 31q7 -16 2 -30q-48 -18 -85 -19q-57 0 -84 44t-27 142v366l-114 -59v33l114 59v365q18 8 37 0v-345l129 67v-33l-129 -67v-377q0 -88 20 -125.5t63 -37.5q23 0 74 17z" />
    <glyph glyph-name="Nacute" unicode="&#x143;" horiz-adv-x="946" 
d="M662 1139l-184 -202h-29l176 202h37zM824 892q7 3 19.5 3t18.5 -3v-892h-29l-711 828v-828h-38v883q4 5 14 8.5t15 1.5l711 -832v831z" />
    <glyph glyph-name="nacute" unicode="&#x144;" horiz-adv-x="745" 
d="M579 1026l-164 -245h-28l153 245h39zM429 700q119 0 183.5 -91t64.5 -255v-354h-38v351q0 145 -55 230.5t-161 85.5q-78 0 -149.5 -56.5t-112.5 -141.5t-41 -169v-300h-38v526q0 71 -14 119v7q22 5 35 3q15 -38 15 -87v-129q37 107 124 184t187 77z" />
    <glyph glyph-name="uni0145" unicode="&#x145;" horiz-adv-x="946" 
d="M824 892q7 3 19.5 3t18.5 -3v-892h-29l-711 828v-828h-38v883q4 5 14 8.5t15 1.5l711 -832v831zM417 -291l44 210h31l-47 -210h-28z" />
    <glyph glyph-name="uni0146" unicode="&#x146;" horiz-adv-x="745" 
d="M429 700q119 0 183.5 -91t64.5 -255v-354h-38v351q0 145 -55 230.5t-161 85.5q-78 0 -149.5 -56.5t-112.5 -141.5t-41 -169v-300h-38v526q0 71 -14 119v7q22 5 35 3q15 -38 15 -87v-129q37 107 124 184t187 77zM324 -291l44 210h31l-47 -210h-28z" />
    <glyph glyph-name="Ncaron" unicode="&#x147;" horiz-adv-x="946" 
d="M482 939h-17l-205 215h35l179 -186l178 186h34zM824 892q7 3 19.5 3t18.5 -3v-892h-29l-711 828v-828h-38v883q4 5 14 8.5t15 1.5l711 -832v831z" />
    <glyph glyph-name="ncaron" unicode="&#x148;" horiz-adv-x="745" 
d="M425 781h-17l-205 224h35l178 -195l178 195h35zM429 700q119 0 183.5 -91t64.5 -255v-354h-38v351q0 145 -55 230.5t-161 85.5q-78 0 -149.5 -56.5t-112.5 -141.5t-41 -169v-300h-38v526q0 71 -14 119v7q22 5 35 3q15 -38 15 -87v-129q37 107 124 184t187 77z" />
    <glyph glyph-name="Eng" unicode="&#x14a;" horiz-adv-x="923" 
d="M494 -346q-96 0 -193 48.5t-170 125.5q6 20 22 27q68 -74 158.5 -121t182.5 -47q136 0 223 90t87 231l-682 810v-818h-38v872q4 5 14 8.5t15 1.5l687 -819v818q17 9 38 0v-878q0 -151 -96.5 -250t-247.5 -99z" />
    <glyph glyph-name="eng" unicode="&#x14b;" horiz-adv-x="750" 
d="M429 700q119 0 183.5 -91t64.5 -255v-358q0 -107 -25 -163.5t-89 -57.5q-34 0 -83 17q-5 19 7 34q46 -16 71 -16q46 0 63.5 45.5t17.5 154.5v341q0 143 -55 228t-161 85q-78 0 -149.5 -56t-112.5 -140.5t-41 -167.5v-300h-38v526q0 71 -14 119v7q22 5 35 3q16 -42 16 -94
v-126q37 109 123.5 187t186.5 78z" />
    <glyph glyph-name="Omacron" unicode="&#x14c;" horiz-adv-x="903" 
d="M258 994v28h426v-28h-426zM411 -18q-85 0 -155 33.5t-116.5 91.5t-71.5 134.5t-26 163.5q0 138 57 254.5t160.5 185t230.5 68.5q107 0 193.5 -62.5t132.5 -165.5t45 -222q-1 -126 -59.5 -236t-162.5 -177.5t-228 -67.5zM413 15q109 0 203 60.5t149.5 164t56.5 224.5
q2 174 -94 294.5t-241 120.5q-174 0 -290.5 -137.5t-115.5 -336.5q0 -78 22 -147.5t62.5 -124t104.5 -86.5t143 -32z" />
    <glyph glyph-name="omacron" unicode="&#x14d;" horiz-adv-x="729" 
d="M171 863v29h441v-29h-441zM337 -18q-140 0 -219.5 94t-79.5 232q0 161 103 276.5t254 115.5q132 0 213.5 -96.5t82.5 -238.5q1 -161 -99.5 -272t-254.5 -111zM338 15q138 0 226.5 102t88.5 245q0 130 -72.5 218t-187.5 88q-136 0 -226.5 -107t-90.5 -253
q0 -123 68.5 -208t193.5 -85z" />
    <glyph glyph-name="Ohungarumlaut" unicode="&#x150;" horiz-adv-x="903" 
d="M338 972l130 169h35l-139 -169h-26zM511 972l133 169h39l-146 -169h-26zM411 -18q-85 0 -155 33.5t-116.5 91.5t-71.5 134.5t-26 163.5q0 138 57 254.5t160.5 185t230.5 68.5q107 0 193.5 -62.5t132.5 -165.5t45 -222q-1 -126 -59.5 -236t-162.5 -177.5t-228 -67.5z
M413 15q109 0 203 60.5t149.5 164t56.5 224.5q2 174 -94 294.5t-241 120.5q-174 0 -290.5 -137.5t-115.5 -336.5q0 -78 22 -147.5t62.5 -124t104.5 -86.5t143 -32z" />
    <glyph glyph-name="ohungarumlaut" unicode="&#x151;" horiz-adv-x="729" 
d="M248 781l151 245h37l-161 -245h-27zM444 781l153 245h39l-165 -245h-27zM337 -18q-140 0 -219.5 94t-79.5 232q0 161 103 276.5t254 115.5q132 0 213.5 -96.5t82.5 -238.5q1 -161 -99.5 -272t-254.5 -111zM338 15q138 0 226.5 102t88.5 245q0 130 -72.5 218t-187.5 88
q-136 0 -226.5 -107t-90.5 -253q0 -123 68.5 -208t193.5 -85z" />
    <glyph glyph-name="OE" unicode="&#x152;" horiz-adv-x="1530" 
d="M1485 32q4 -4 4 -15t-4 -17h-660v276q-53 -130 -164 -212t-248 -82q-169 0 -269 121t-102 302q0 138 57.5 254.5t161 185t229.5 68.5q114 0 202 -67.5t133 -178.5v209l5 5h631q5 -18 -6 -32h-592v-377v-9v-18h511q5 -18 -6 -32h-505v-381h622zM824 464q2 173 -93.5 294
t-241.5 121q-115 0 -209 -63.5t-146.5 -172t-52.5 -238.5q1 -105 37.5 -192t114 -142.5t182.5 -55.5q109 0 203 60.5t149.5 164t56.5 224.5z" />
    <glyph glyph-name="oe" unicode="&#x153;" horiz-adv-x="1282" 
d="M977 700q126 0 202 -91.5t69 -248.5l-9 -11l-545 -72q12 -121 85 -191.5t175 -70.5q122 0 236 107q5 -2 9.5 -8t6.5 -10t2 -6q-120 -114 -257 -116q-103 -1 -181 62.5t-104 174.5q-38 -107 -126 -172t-203 -65q-140 0 -219.5 94t-79.5 232q0 161 103 276.5t254 115.5
q107 0 182.5 -66t101.5 -172q36 106 116 172t182 66zM1211 373q4 140 -61.5 218t-172.5 78q-123 0 -206 -109t-79 -253zM338 15q138 0 226.5 102t88.5 245q0 130 -72.5 218t-187.5 88q-136 0 -226.5 -107t-90.5 -253q0 -123 68.5 -208t193.5 -85z" />
    <glyph glyph-name="Racute" unicode="&#x154;" horiz-adv-x="903" 
d="M615 1150l-184 -202h-29l176 202h37zM546 315q118 -132 188.5 -203.5t121.5 -102.5v-6q-12 -5 -39 -5q-78 38 -313 309q-43 -6 -91 -6q-74 1 -156.5 14.5t-134.5 30.5v-346h-38v871q143 42 343 42q173 0 273.5 -83t100.5 -230q0 -107 -69 -182.5t-186 -102.5zM413 333
q150 -2 249.5 70t99.5 198q0 125 -87.5 202.5t-250.5 77.5q-186 0 -302 -34v-468q143 -44 291 -46z" />
    <glyph glyph-name="racute" unicode="&#x155;" horiz-adv-x="542" 
d="M445 1054l-164 -245h-28l153 245h39zM508 676q5 -17 -10 -34q-56 23 -108 23q-121 -1 -195.5 -111t-74.5 -256v-298h-38v526q0 71 -14 119v7q22 5 34 3q14 -39 14 -87v-132q27 113 101.5 188.5t174.5 75.5q54 0 116 -24z" />
    <glyph glyph-name="uni0156" unicode="&#x156;" horiz-adv-x="903" 
d="M546 315q118 -132 188.5 -203.5t121.5 -102.5v-6q-12 -5 -39 -5q-78 38 -313 309q-43 -6 -91 -6q-74 1 -156.5 14.5t-134.5 30.5v-346h-38v871q143 42 343 42q173 0 273.5 -83t100.5 -230q0 -107 -69 -182.5t-186 -102.5zM413 333q150 -2 249.5 70t99.5 198
q0 125 -87.5 202.5t-250.5 77.5q-186 0 -302 -34v-468q143 -44 291 -46zM399 -291l44 210h31l-47 -210h-28z" />
    <glyph glyph-name="uni0157" unicode="&#x157;" horiz-adv-x="542" 
d="M508 676q5 -17 -10 -34q-56 23 -108 23q-121 -1 -195.5 -111t-74.5 -256v-298h-38v526q0 71 -14 119v7q22 5 34 3q14 -39 14 -87v-132q27 113 101.5 188.5t174.5 75.5q54 0 116 -24zM45 -291l44 210h31l-47 -210h-28z" />
    <glyph glyph-name="Rcaron" unicode="&#x158;" horiz-adv-x="903" 
d="M435 950h-17l-205 215h35l179 -186l178 186h34zM546 315q118 -132 188.5 -203.5t121.5 -102.5v-6q-12 -5 -39 -5q-78 38 -313 309q-43 -6 -91 -6q-74 1 -156.5 14.5t-134.5 30.5v-346h-38v871q143 42 343 42q173 0 273.5 -83t100.5 -230q0 -107 -69 -182.5t-186 -102.5z
M413 333q150 -2 249.5 70t99.5 198q0 125 -87.5 202.5t-250.5 77.5q-186 0 -302 -34v-468q143 -44 291 -46z" />
    <glyph glyph-name="rcaron" unicode="&#x159;" horiz-adv-x="542" 
d="M291 809h-17l-205 224h35l178 -195l178 195h35zM508 676q5 -17 -10 -34q-56 23 -108 23q-121 -1 -195.5 -111t-74.5 -256v-298h-38v526q0 71 -14 119v7q22 5 34 3q14 -39 14 -87v-132q27 113 101.5 188.5t174.5 75.5q54 0 116 -24z" />
    <glyph glyph-name="Sacute" unicode="&#x15a;" horiz-adv-x="847" 
d="M416 958l176 202h37l-184 -202h-29zM449 -18q-111 0 -218 36t-189 103q1 7 7 17t13 13q81 -66 182 -101.5t205 -35.5q150 0 233 62t83 164q0 53 -25 91t-73 60.5t-104.5 33.5t-133.5 16q-139 8 -219 63.5t-80 165.5q0 58 28.5 106t75 77t100 44.5t106.5 15.5
q166 0 261 -72.5t95 -183.5q-22 -7 -37 -4q-2 107 -89.5 167.5t-229.5 60.5q-110 0 -190.5 -60t-80.5 -152q0 -65 37.5 -109t94.5 -63.5t134 -23.5q190 -10 279.5 -67.5t89.5 -164.5q0 -114 -91.5 -186.5t-263.5 -72.5z" />
    <glyph glyph-name="sacute" unicode="&#x15b;" horiz-adv-x="679" 
d="M313 781l153 245h39l-164 -245h-28zM356 -18q-81 0 -166 28.5t-146 82.5q6 21 17 28q57 -51 135 -78.5t157 -27.5q105 0 174 43.5t69 111.5q0 79 -60 118t-205 46q-258 15 -258 176q0 78 75 134t194 56q160 0 278 -81q-1 -7 -12 -30q-115 79 -263 79q-109 0 -171.5 -48
t-62.5 -109q0 -136 229 -147q161 -8 227.5 -54.5t66.5 -138.5q0 -86 -81.5 -137.5t-196.5 -51.5z" />
    <glyph glyph-name="Scedilla" unicode="&#x15e;" horiz-adv-x="847" 
d="M804 241q0 -112 -88.5 -184t-255.5 -75q1 -29 10.5 -47.5t44.5 -63.5q40 -50 40 -104q1 -43 -24.5 -73t-63.5 -30q-51 -2 -98 53l19 20q38 -45 78 -45q27 0 44.5 21.5t16.5 54.5q0 46 -42 97q-33 41 -42 62t-10 55q-108 3 -210.5 39t-180.5 100q1 7 7 17t13 13
q81 -66 182 -101.5t205 -35.5q150 0 233 62t83 164q0 53 -25 91t-73 60.5t-104.5 33.5t-133.5 16q-139 8 -219 63.5t-80 165.5q0 58 28.5 106t75 77t100 44.5t106.5 15.5q166 0 261 -72.5t95 -183.5q-22 -7 -37 -4q-2 107 -89.5 167.5t-229.5 60.5q-110 0 -190.5 -60
t-80.5 -152q0 -65 37.5 -109t94.5 -63.5t134 -23.5q190 -10 279.5 -67.5t89.5 -164.5z" />
    <glyph glyph-name="scedilla" unicode="&#x15f;" horiz-adv-x="679" 
d="M634 171q0 -86 -81.5 -137.5t-196.5 -51.5h-3q1 -30 10.5 -48t44.5 -64q40 -50 40 -104q1 -43 -24.5 -73t-63.5 -30q-50 -2 -98 52l19 21q38 -45 78 -45q27 0 44.5 21.5t16.5 54.5q0 44 -42 97q-33 40 -42 61.5t-10 57.5q-76 5 -151.5 33t-130.5 77q6 21 17 28
q57 -51 135 -78.5t157 -27.5q105 0 174 43.5t69 111.5q0 79 -60 118t-205 46q-258 15 -258 176q0 78 75 134t194 56q160 0 278 -81q-1 -7 -12 -30q-115 79 -263 79q-109 0 -171.5 -48t-62.5 -109q0 -136 229 -147q161 -8 227.5 -54.5t66.5 -138.5z" />
    <glyph glyph-name="Scaron" unicode="&#x160;" horiz-adv-x="847" 
d="M449 960h-17l-205 215h35l179 -186l178 186h34zM435 473q190 -10 279.5 -67.5t89.5 -164.5q0 -114 -91.5 -186.5t-263.5 -72.5q-111 0 -218 36t-189 103q1 7 7 17t13 13q81 -66 182 -101.5t205 -35.5q150 0 233 62t83 164q0 53 -25 91t-73 60.5t-104.5 33.5t-133.5 16
q-139 8 -219 63.5t-80 165.5q0 58 28.5 106t75 77t100 44.5t106.5 15.5q166 0 261 -72.5t95 -183.5q-22 -7 -37 -4q-2 107 -89.5 167.5t-229.5 60.5q-110 0 -190.5 -60t-80.5 -152q0 -65 37.5 -109t94.5 -63.5t134 -23.5z" />
    <glyph glyph-name="scaron" unicode="&#x161;" horiz-adv-x="679" 
d="M351 781h-17l-205 224h35l178 -195l178 195h35zM340 364q161 -8 227.5 -54.5t66.5 -138.5q0 -86 -81.5 -137.5t-196.5 -51.5q-81 0 -166 28.5t-146 82.5q6 21 17 28q57 -51 135 -78.5t157 -27.5q105 0 174 43.5t69 111.5q0 79 -60 118t-205 46q-258 15 -258 176
q0 78 75 134t194 56q160 0 278 -81q-1 -7 -12 -30q-115 79 -263 79q-109 0 -171.5 -48t-62.5 -109q0 -136 229 -147z" />
    <glyph glyph-name="uni0162" unicode="&#x162;" horiz-adv-x="817" 
d="M413 860v-860h-8q0 -35 9 -54t46 -66q40 -50 40 -104q1 -43 -24.5 -73t-63.5 -30q-51 -2 -98 53l19 20q38 -45 78 -45q27 0 44.5 21.5t16.5 54.5q0 46 -42 97q-34 42 -43 64.5t-9 61.5h-4v860h-352q-4 17 6 32h767q5 -18 -7 -32h-375z" />
    <glyph glyph-name="uni0163" unicode="&#x163;" horiz-adv-x="488" 
d="M465 621h-329v-326q0 -133 52.5 -207t147.5 -73q47 0 110 22q4 -4 6 -14.5t0 -17.5q-66 -23 -120 -23q-24 0 -52 5q1 -29 10.5 -47.5t44.5 -63.5q40 -50 40 -104q1 -43 -24.5 -73t-63.5 -30q-50 -2 -98 52l19 21q38 -45 78 -45q27 0 44.5 21.5t16.5 54.5q0 44 -42 97
q-35 43 -43.5 64.5t-8.5 60.5q-73 26 -113.5 102t-40.5 196v328h-88v32h88v182q16 11 37 7v-189h329v-32z" />
    <glyph glyph-name="Tcaron" unicode="&#x164;" horiz-adv-x="817" 
d="M403 939h-17l-205 215h35l179 -186l178 186h34zM795 892q5 -18 -7 -32h-375v-860h-39v860h-352q-4 17 6 32h767z" />
    <glyph glyph-name="tcaron" unicode="&#x165;" horiz-adv-x="488" 
d="M426 1081l-23 -333h-29l16 333h36zM465 621h-329v-326q0 -133 52.5 -207t147.5 -73q47 0 110 22q4 -4 6 -14.5t0 -17.5q-66 -23 -120 -23q-107 0 -170 80.5t-63 230.5v328h-88v32h88v182q16 11 37 7v-189h329v-32z" />
    <glyph glyph-name="Tbar" unicode="&#x166;" horiz-adv-x="860" 
d="M816 860h-376v-386h213v-30h-213v-444h-39v444h-204v30h204v386h-352q-4 17 6 32h767q4 -17 -6 -32z" />
    <glyph glyph-name="tbar" unicode="&#x167;" horiz-adv-x="479" 
d="M457 626h-330v-184h330v-29h-330v-118q0 -133 52.5 -207t147.5 -73q47 0 111 22q4 -4 5.5 -14.5t-0.5 -17.5q-66 -23 -120 -23q-107 0 -170 80.5t-63 230.5v120h-88v29h88v184h-88v29h88v180q16 11 37 7v-187h330v-29z" />
    <glyph glyph-name="Umacron" unicode="&#x16a;" horiz-adv-x="945" 
d="M260 999v28h426v-28h-426zM460 -19q-177 0 -276.5 103t-99.5 302v506q7 3 20.5 2.5t18.5 -2.5v-508q0 -182 90 -276t247 -94q164 0 263 106.5t99 275.5v496q16 7 38 0v-498q0 -114 -45 -206.5t-137.5 -149.5t-217.5 -57z" />
    <glyph glyph-name="umacron" unicode="&#x16b;" horiz-adv-x="735" 
d="M587 892v-29h-441v29h441zM661 136q0 -59 4.5 -84t17.5 -44v-8h-31q-15 16 -20.5 39t-5.5 79v92q-32 -101 -115.5 -164.5t-194.5 -63.5q-115 0 -181.5 72t-66.5 218v381q15 5 38 0v-376q0 -135 58 -198.5t158 -63.5q132 0 216.5 98t84.5 243v297q6 2 19.5 2t18.5 -2v-517
z" />
    <glyph glyph-name="Uring" unicode="&#x16e;" horiz-adv-x="945" 
d="M473 902q-75 0 -125.5 37t-50.5 99q0 59 49 98t127 39q74 0 125 -39t51 -98q0 -60 -54 -98t-122 -38zM473 923q62 0 106.5 34t44.5 81q0 49 -44.5 82.5t-106.5 33.5q-67 0 -109 -33.5t-42 -82.5t41 -82t110 -33zM460 -19q-177 0 -276.5 103t-99.5 302v506q7 3 20.5 2.5
t18.5 -2.5v-508q0 -182 90 -276t247 -94q164 0 263 106.5t99 275.5v496q16 7 38 0v-498q0 -114 -45 -206.5t-137.5 -149.5t-217.5 -57z" />
    <glyph glyph-name="uring" unicode="&#x16f;" horiz-adv-x="735" 
d="M366 773q-75 0 -125.5 37t-50.5 99q0 59 49 98t127 39q74 0 125 -39t51 -98t-54 -97.5t-122 -38.5zM366 1025q-67 0 -109 -33.5t-42 -82.5t41 -82t110 -33q62 0 106.5 34t44.5 81q0 49 -44.5 82.5t-106.5 33.5zM661 136q0 -59 4.5 -84t17.5 -44v-8h-31q-15 16 -20.5 39
t-5.5 79v92q-32 -101 -115.5 -164.5t-194.5 -63.5q-115 0 -181.5 72t-66.5 218v381q15 5 38 0v-376q0 -135 58 -198.5t158 -63.5q132 0 216.5 98t84.5 243v297q6 2 19.5 2t18.5 -2v-517z" />
    <glyph glyph-name="Uhungarumlaut" unicode="&#x170;" horiz-adv-x="945" 
d="M340 977l130 169h35l-139 -169h-26zM513 977l133 169h39l-146 -169h-26zM460 -19q-177 0 -276.5 103t-99.5 302v506q7 3 20.5 2.5t18.5 -2.5v-508q0 -182 90 -276t247 -94q164 0 263 106.5t99 275.5v496q16 7 38 0v-498q0 -114 -45 -206.5t-137.5 -149.5t-217.5 -57z" />
    <glyph glyph-name="uhungarumlaut" unicode="&#x171;" horiz-adv-x="735" 
d="M411 1026l-161 -245h-27l151 245h37zM611 1026l-165 -245h-27l153 245h39zM661 136q0 -59 4.5 -84t17.5 -44v-8h-31q-15 16 -20.5 39t-5.5 79v92q-32 -101 -115.5 -164.5t-194.5 -63.5q-115 0 -181.5 72t-66.5 218v381q15 5 38 0v-376q0 -135 58 -198.5t158 -63.5
q132 0 216.5 98t84.5 243v297q6 2 19.5 2t18.5 -2v-517z" />
    <glyph glyph-name="Uogonek" unicode="&#x172;" horiz-adv-x="945" 
d="M822 892q16 7 38 0v-498q0 -174 -104.5 -291.5t-286.5 -121.5q-61 -54 -93 -114.5t-32 -111.5q0 -37 22 -55.5t55 -17.5q26 0 54 17t45 43l19 -16q-20 -32 -55 -53t-68 -21q-44 -1 -73 24t-29 74q0 51 32 114.5t90 116.5q-166 7 -259 109.5t-93 295.5v506q7 3 20.5 2.5
t18.5 -2.5v-508q0 -182 90 -276t247 -94q164 0 263 106.5t99 275.5v496z" />
    <glyph glyph-name="uogonek" unicode="&#x173;" horiz-adv-x="735" 
d="M719 -241l19 -16q-20 -32 -55 -53t-68 -21q-44 -1 -73 24t-29 74q0 54 34.5 120.5t98.5 120.5q-20 24 -20 110v92q-32 -101 -115.5 -164.5t-194.5 -63.5q-115 0 -181.5 72t-66.5 218v381q15 5 38 0v-376q0 -135 58 -198.5t158 -63.5q132 0 216.5 98t84.5 243v297
q6 2 19.5 2t18.5 -2v-517q0 -59 4.5 -84t17.5 -44v-8h-12q-62 -54 -95 -115.5t-33 -112.5q0 -36 22 -55t55 -18q26 0 54 17t45 43z" />
    <glyph glyph-name="Wcircumflex" unicode="&#x174;" horiz-adv-x="1247" 
d="M623 1130l-178 -195h-34l203 222h18l203 -222h-34zM1223 892q28 -185 -52.5 -425.5t-241.5 -456.5l-15 -10h-37l-9 6q-99 285 -161 434q-22 -76 -101 -224.5t-123 -209.5l-11 -6h-34l-13 8q-76 231 -196 477t-215 400l3 7q17 5 36 0q109 -181 221.5 -415.5t179.5 -443.5
h4q63 98 136 237.5t95 222.5q-18 51 -91 231q8 17 34 15q46 -104 134.5 -338.5t131.5 -367.5h3q151 209 231 440t55 417q11 8 36 2z" />
    <glyph glyph-name="wcircumflex" unicode="&#x175;" horiz-adv-x="886" 
d="M444 930l-178 -194h-35l205 224h17l204 -224h-35zM873 653q13 -120 -53 -310.5t-166 -335.5l-9 -7h-37l-9 7q-52 206 -105 342q-17 -63 -65 -171.5t-87 -170.5l-9 -7h-38l-10 7q-15 54 -32.5 107.5t-36.5 101.5t-36 90t-36.5 84t-34 72t-32.5 63.5t-27.5 50.5t-23.5 42
t-16 28l3 7q21 4 35 0q177 -300 267 -619h4q43 78 88 183.5t68 185.5l-64 165q3 6 14 10.5t20 3.5q65 -161 102.5 -271.5t78.5 -276.5h5q91 144 152 312.5t53 304.5q13 7 37 2z" />
    <glyph glyph-name="Ycircumflex" unicode="&#x176;" horiz-adv-x="819" 
d="M409 1130l-178 -195h-34l203 222h18l203 -222h-34zM803 892q15 -271 -344 -601v-291h-38v293q-48 76 -202 303.5t-204 288.5l3 7q20 6 40 0q39 -46 181.5 -257t205.5 -309q146 132 236.5 282t84.5 282q13 7 37 2z" />
    <glyph glyph-name="ycircumflex" unicode="&#x177;" horiz-adv-x="687" 
d="M350 967l-178 -194h-35l205 224h17l204 -224h-35zM673 653q10 -111 -15.5 -244t-99.5 -282.5t-186 -255.5q-65 -61 -138.5 -93.5t-140.5 -32.5q-44 0 -76 16q-7 16 -1 29l7 4q29 -17 71 -17q62 0 132 34.5t129 92.5q55 55 95 112q-72 44 -146.5 132.5t-130 185t-94 177.5
t-55.5 134l2 7q16 5 35 1q20 -65 74.5 -175.5t149 -243t185.5 -190.5q91 137 132 297.5t35 308.5q15 10 36 3z" />
    <glyph glyph-name="Ydieresis" unicode="&#x178;" horiz-adv-x="819" 
d="M272 983q-10 0 -17.5 8t-7.5 19q0 12 7.5 20.5t17.5 8.5t17.5 -8.5t7.5 -20.5q0 -11 -7.5 -19t-17.5 -8zM547 983q-10 0 -17.5 8t-7.5 19q0 12 7.5 20.5t17.5 8.5q11 0 18.5 -8.5t7.5 -20.5q0 -11 -8 -19t-18 -8zM803 892q15 -271 -344 -601v-291h-38v293
q-48 76 -202 303.5t-204 288.5l3 7q20 6 40 0q39 -46 181.5 -257t205.5 -309q146 132 236.5 282t84.5 282q13 7 37 2z" />
    <glyph glyph-name="Zacute" unicode="&#x179;" horiz-adv-x="824" 
d="M601 1139l-184 -202h-29l176 202h37zM778 32q4 -4 4 -15t-4 -17h-727q-9 6 -9 26q144 248 322.5 482.5t333.5 351.5h-624q-4 4 -4 14.5t4 17.5h675q5 -3 8 -13t2 -17q-165 -120 -345.5 -354t-321.5 -476h686z" />
    <glyph glyph-name="zacute" unicode="&#x17a;" horiz-adv-x="640" 
d="M483 1026l-164 -245h-28l153 245h39zM625 33q3 -5 3.5 -15.5t-3.5 -17.5h-607q-9 9 -7 27q134 212 266 364t275 229h-510q-9 15 0 33h574q4 -3 6.5 -14.5t0.5 -19.5q-256 -116 -560 -586h562z" />
    <glyph glyph-name="Zdotaccent" unicode="&#x17b;" horiz-adv-x="824" 
d="M412 981q-10 0 -17.5 8t-7.5 19q0 12 7.5 20.5t17.5 8.5t17.5 -8.5t7.5 -20.5q0 -11 -7.5 -19t-17.5 -8zM778 32q4 -4 4 -15t-4 -17h-727q-9 6 -9 26q144 248 322.5 482.5t333.5 351.5h-624q-4 4 -4 14.5t4 17.5h675q5 -3 8 -13t2 -17q-165 -120 -345.5 -354t-321.5 -476
h686z" />
    <glyph glyph-name="zdotaccent" unicode="&#x17c;" horiz-adv-x="640" 
d="M320 826q-11 0 -20 9t-9 21q0 13 9 22.5t20 9.5q12 0 20.5 -9.5t8.5 -22.5q0 -12 -8.5 -21t-20.5 -9zM625 33q3 -5 3.5 -15.5t-3.5 -17.5h-607q-9 9 -7 27q134 212 266 364t275 229h-510q-9 15 0 33h574q4 -3 6.5 -14.5t0.5 -19.5q-256 -116 -560 -586h562z" />
    <glyph glyph-name="Zcaron" unicode="&#x17d;" horiz-adv-x="824" 
d="M421 939h-17l-205 215h35l179 -186l178 186h34zM778 32q4 -4 4 -15t-4 -17h-727q-9 6 -9 26q144 248 322.5 482.5t333.5 351.5h-624q-4 4 -4 14.5t4 17.5h675q5 -3 8 -13t2 -17q-165 -120 -345.5 -354t-321.5 -476h686z" />
    <glyph glyph-name="zcaron" unicode="&#x17e;" horiz-adv-x="640" 
d="M329 781h-17l-205 224h35l178 -195l178 195h35zM625 33q3 -5 3.5 -15.5t-3.5 -17.5h-607q-9 9 -7 27q134 212 266 364t275 229h-510q-9 15 0 33h574q4 -3 6.5 -14.5t0.5 -19.5q-256 -116 -560 -586h562z" />
    <glyph glyph-name="longs" unicode="&#x17f;" horiz-adv-x="299" 
d="M100 0v625q0 313 195 313q51 0 117 -22q2 -21 -7 -32q-51 21 -105 21q-163 -1 -163 -279v-626h-37z" />
    <glyph glyph-name="florin" unicode="&#x192;" horiz-adv-x="485" 
d="M374 384v-32h-115q15 -199 15 -327q0 -228 -122 -228v33q88 0 88 197q0 87 -15 325h-114v32h112q-10 168 -10 259q0 226 122 226v-32q-88 0 -88 -197q0 -86 10 -256h117z" />
    <glyph glyph-name="uni01C7" unicode="&#x1c7;" horiz-adv-x="1589" 
d="M94 0l-10 10v882q6 3 19.5 2.5t18.5 -2.5v-860h620q4 -6 4 -16t-4 -16h-648zM1153 -18q-96 0 -193 56t-169 145q5 21 21 28q67 -86 157 -141t181 -55q142 0 226 101.5t84 262.5v513q8 2 20.5 2t17.5 -2v-520q0 -165 -92 -277.5t-253 -112.5z" />
    <glyph glyph-name="uni01C8" unicode="&#x1c8;" horiz-adv-x="980" 
d="M94 0l-10 10v882q6 3 19.5 2.5t18.5 -2.5v-860h620q4 -6 4 -16t-4 -16h-648zM865 826q-11 0 -19.5 9t-8.5 22t8.5 22.5t19.5 9.5q12 0 20.5 -9.5t8.5 -22.5t-8.5 -22t-20.5 -9zM770 -225q-33 0 -82 17q-5 19 7 34q45 -16 71 -16q46 0 63.5 46t17.5 155v642q7 2 20 2
t18 -2v-657q0 -108 -25 -164t-90 -57z" />
    <glyph glyph-name="uni01C9" unicode="&#x1c9;" horiz-adv-x="533" 
d="M194 -18q-57 0 -84 44.5t-27 141.5v764q18 8 38 0v-755q0 -88 20 -125.5t63 -37.5q24 0 73 17q8 -14 3 -30q-48 -17 -86 -19zM419 826q-11 0 -20 9t-9 21q0 13 9 22.5t20 9.5q12 0 20.5 -9.5t8.5 -22.5q0 -12 -8.5 -21t-20.5 -9zM324 -225q-34 0 -82 17q-7 19 6 34
q46 -16 72 -16q45 0 63 46t18 155v642q6 2 19 2t18 -2v-657q0 -108 -24.5 -164t-89.5 -57z" />
    <glyph glyph-name="uni01CA" unicode="&#x1ca;" horiz-adv-x="1730" 
d="M824 892q7 3 19.5 3t18.5 -3v-892h-29l-711 828v-828h-38v883q4 5 14 8.5t15 1.5l711 -832v831zM1601 892q7 2 20 2t18 -2v-520q0 -165 -92 -277.5t-253 -112.5q-96 0 -193 56t-169 145q5 21 21 28q67 -86 157 -141t181 -55q142 0 226 101.5t84 262.5v513z" />
    <glyph glyph-name="uni01CB" unicode="&#x1cb;" horiz-adv-x="1123" 
d="M833 0l-711 828v-828h-38v883q4 5 14 8.5t15 1.5l711 -832v831q7 3 19.5 3t18.5 -3v-892h-29zM1009 889q12 0 20.5 -9.5t8.5 -22.5t-8.5 -22t-20.5 -9q-11 0 -20 9t-9 22t9 22.5t20 9.5zM991 653q7 2 20 2t17 -2v-657q0 -108 -24.5 -164t-89.5 -57q-33 0 -82 17
q-6 21 7 34q45 -16 71 -16q45 0 63 46t18 155v642z" />
    <glyph glyph-name="uni01CC" unicode="&#x1cc;" horiz-adv-x="1088" 
d="M862 888q12 0 20.5 -9.5t8.5 -22.5q0 -12 -8.5 -21t-20.5 -9t-20.5 9t-8.5 21q0 13 8.5 22.5t20.5 9.5zM429 700q119 0 183.5 -91t64.5 -255v-354h-38v351q0 145 -55 230.5t-161 85.5q-78 0 -149.5 -56.5t-112.5 -141.5t-41 -169v-300h-38v526q0 71 -14 119v7q22 5 35 3
q15 -38 15 -87v-129q37 107 124 184t187 77zM843 653q7 2 20 2t18 -2v-657q0 -107 -25 -163.5t-89 -57.5q-34 0 -83 17q-5 19 7 34q46 -16 71 -16q46 0 63.5 46t17.5 155v642z" />
    <glyph glyph-name="uni01CD" unicode="&#x1cd;" horiz-adv-x="900" 
d="M467 939h-18l-204 215h35l178 -186l178 186h35zM476 892q108 -239 409 -887l-2 -5q-29 0 -40 3q-28 58 -109 237h-566l-112 -240h-42l424 892q6 3 19 3t19 -3zM184 273h535q-85 186 -262 584z" />
    <glyph glyph-name="uni01CE" unicode="&#x1ce;" horiz-adv-x="677" 
d="M367 781h-17l-205 224h35l178 -195l178 195h35zM607 141q0 -65 6.5 -91t21.5 -44l-1 -6h-33q-30 27 -30 121l-1 110q-40 -102 -133 -175.5t-203 -73.5q-90 0 -140 45t-50 118q1 112 110.5 180.5t303.5 69.5q50 0 108 -5q-5 128 -61 203t-152 75q-108 2 -244 -93
q-13 5 -13 28q138 97 259 97q116 0 183.5 -90t67.5 -258zM568 349v13q-54 6 -109 6q-187 0 -282.5 -62t-95.5 -157q0 -62 41 -99t119 -37q88 0 165 52.5t119 129.5t43 154z" />
    <glyph glyph-name="uni01CF" unicode="&#x1cf;" horiz-adv-x="205" 
d="M111 939h-17l-205 215h35l179 -186l178 186h34zM84 892q7 3 19.5 3t17.5 -3v-892h-37v892z" />
    <glyph glyph-name="uni01D0" unicode="&#x1d0;" horiz-adv-x="225" 
d="M121 781h-17l-205 224h35l178 -195l178 195h35zM94 653q7 2 19.5 2t17.5 -2v-653h-37v653z" />
    <glyph glyph-name="uni01D2" unicode="&#x1d2;" horiz-adv-x="729" 
d="M401 781h-18l-204 224h35l178 -196l178 196h35zM691 365q1 -161 -99.5 -272t-254.5 -111q-140 0 -219.5 94t-79.5 232q0 161 103 276.5t254 115.5q132 0 213.5 -96.5t82.5 -238.5zM338 15q138 0 226.5 102t88.5 245q0 130 -72.5 218t-187.5 88q-136 0 -226.5 -107
t-90.5 -253q0 -123 68.5 -208t193.5 -85z" />
    <glyph glyph-name="uni01D3" unicode="&#x1d3;" horiz-adv-x="945" 
d="M482 955h-18l-204 214h34l179 -185l178 185h34zM822 892q16 7 38 0v-498q0 -114 -45 -206.5t-137.5 -149.5t-217.5 -57q-177 0 -276.5 103t-99.5 302v506q7 3 20.5 2.5t18.5 -2.5v-508q0 -182 90 -276t247 -94q164 0 263 106.5t99 275.5v496z" />
    <glyph glyph-name="uni01D4" unicode="&#x1d4;" horiz-adv-x="735" 
d="M376 781h-17l-205 224h35l178 -195l178 195h35zM661 136q0 -59 4.5 -84t17.5 -44v-8h-31q-15 16 -20.5 39t-5.5 79v92q-32 -101 -115.5 -164.5t-194.5 -63.5q-115 0 -181.5 72t-66.5 218v381q15 5 38 0v-376q0 -135 58 -198.5t158 -63.5q132 0 216.5 98t84.5 243v297
q6 2 19.5 2t18.5 -2v-517z" />
    <glyph glyph-name="uni01E2" unicode="&#x1e2;" horiz-adv-x="1440" 
d="M1171 1008v-28h-426v28h426zM1395 32q4 -4 4 -15t-4 -17h-655v240h-486l-192 -240h-48l723 892h634q5 -18 -6 -32h-587v-414h506q5 -18 -6 -32h-500v-382h617zM281 273l459 -1v574z" />
    <glyph glyph-name="uni01E3" unicode="&#x1e3;" horiz-adv-x="1195" 
d="M809 892v-29h-441v29h441zM889 700q126 0 202 -91.5t69 -248.5l-9 -11l-545 -72q12 -121 85 -191.5t175 -70.5q122 0 236 107q9 -4 19 -24q-120 -114 -258 -116q-103 -1 -182.5 64.5t-103.5 178.5q-42 -109 -137.5 -176.5t-205.5 -66.5q-91 1 -140.5 45.5t-49.5 117.5
q1 112 110.5 180.5t303.5 69.5q50 0 108 -5q-6 128 -61.5 202.5t-151.5 75.5q-106 2 -244 -93q-13 5 -13 28q138 97 259 97q93 0 155.5 -60.5t83.5 -170.5q37 103 116 167t179 64zM1123 371q4 141 -61.5 219.5t-172.5 78.5q-82 0 -149.5 -52t-103 -135.5t-32.5 -176.5z
M566 349l1 13q-54 6 -108 6q-187 0 -282.5 -62t-95.5 -157q0 -62 41 -99t119 -37q132 0 227.5 102t97.5 234z" />
    <glyph glyph-name="Gcaron" unicode="&#x1e6;" horiz-adv-x="965" 
d="M512 959h-17l-205 215h35l178 -185l178 185h35zM504 880q-170 0 -274 -126.5t-104 -307.5q0 -197 110 -314t284 -117q76 0 156.5 22t143.5 65v281h-341q-3 17 7 32h365l6 -8v-320q-64 -51 -156.5 -78t-180.5 -27q-189 0 -311 125.5t-122 339.5q0 123 48.5 228t145 171.5
t222.5 66.5q153 0 256 -83t99 -213q-21 -9 -38 -3q0 119 -90 192.5t-226 73.5z" />
    <glyph glyph-name="gcaron" unicode="&#x1e7;" horiz-adv-x="728" 
d="M371 771h-17l-205 224h35l178 -195l178 195h35zM627 658q16 1 33 -3v-7q-13 -104 -13 -140v-428q0 -169 -84.5 -265.5t-214.5 -96.5q-144 0 -283 114q2 22 16 29q136 -111 265 -111q116 1 191 88.5t75 241.5v145q-31 -106 -107.5 -174.5t-174.5 -68.5q-124 0 -208.5 90
t-83.5 241q0 99 39 187t114.5 144t169.5 56q90 0 157.5 -63t94.5 -159v82zM332 15q113 0 194 100t83 258q-3 113 -70.5 204t-172.5 91q-128 0 -209 -108t-81 -244q0 -128 69.5 -214.5t186.5 -86.5z" />
    <glyph glyph-name="uni01E8" unicode="&#x1e8;" horiz-adv-x="910" 
d="M479 939h-17l-205 214h35l179 -185l178 185h34zM450 469q171 -199 274.5 -308.5t167.5 -150.5l-1 -6q-15 -6 -39 -6q-110 67 -432 453q-139 -79 -298 -152v-299h-38v892q7 3 20.5 2.5t17.5 -2.5v-557q284 138 411 225q266 183 258 331q16 7 35 2q15 -160 -265 -354
q-51 -35 -111 -70z" />
    <glyph glyph-name="uni01E9" unicode="&#x1e9;" horiz-adv-x="753" 
d="M393 1011h-17l-205 224h35l178 -195l178 195h35zM393 332q140 -155 216 -232t109 -90v-7q-10 -6 -43 -6q-57 21 -313 315q-124 -82 -256 -142v-170h-38v932q19 9 38 0v-725q164 80 314 185q106 76 147 131.5t37 127.5q15 6 40 2q9 -74 -35.5 -138.5t-157.5 -142.5
q-4 -3 -25 -17.5t-33 -22.5z" />
    <glyph glyph-name="uni01EB" unicode="&#x1eb;" horiz-adv-x="729" 
d="M389 -14q-61 -55 -93.5 -116t-32.5 -111q0 -37 22 -56t55 -18q25 0 53.5 17t45.5 43l19 -16q-21 -31 -55 -52t-67 -21q-44 -2 -73 23.5t-29 74.5q0 51 31 113.5t88 114.5h-16q-140 0 -219.5 94t-79.5 232q0 161 103 276.5t254 115.5q132 0 213.5 -96.5t82.5 -238.5
q1 -146 -83.5 -253t-218.5 -126zM76 308q0 -123 68.5 -208t193.5 -85q138 0 226.5 102t88.5 245q0 130 -72.5 218t-187.5 88q-136 0 -226.5 -107t-90.5 -253z" />
    <glyph glyph-name="uni01F0" unicode="&#x1f0;" horiz-adv-x="234" 
d="M129 781h-17l-205 224h35l178 -195l178 195h35zM102 653q6 2 19 2t18 -2v-657q0 -108 -24.5 -164t-89.5 -57q-34 0 -82 17q-7 19 6 34q46 -16 72 -16q45 0 63 46t18 155v642z" />
    <glyph glyph-name="uni01F4" unicode="&#x1f4;" horiz-adv-x="858" 
d="M648 1160l-184 -202h-29l175 202h38zM813 617q-20 -9 -38 -3q1 119 -89 192.5t-227 73.5q-113 0 -200.5 -60t-132.5 -158.5t-45 -215.5q0 -197 110.5 -314t284.5 -117q76 0 156.5 22t143.5 65v281h-342q-2 18 8 32h364l7 -8v-320q-65 -51 -157 -78t-180 -27
q-189 0 -311.5 125.5t-122.5 339.5q0 91 29 175t81 149t132 103.5t175 38.5q152 0 255 -83t99 -213z" />
    <glyph glyph-name="uni01F4" unicode="&#x1f5;" horiz-adv-x="858" 
d="M648 1160l-184 -202h-29l175 202h38zM813 617q-20 -9 -38 -3q1 119 -89 192.5t-227 73.5q-113 0 -200.5 -60t-132.5 -158.5t-45 -215.5q0 -197 110.5 -314t284.5 -117q76 0 156.5 22t143.5 65v281h-342q-2 18 8 32h364l7 -8v-320q-65 -51 -157 -78t-180 -27
q-189 0 -311.5 125.5t-122.5 339.5q0 91 29 175t81 149t132 103.5t175 38.5q152 0 255 -83t99 -213z" />
    <glyph glyph-name="uni01F8" unicode="&#x1f8;" horiz-adv-x="946" 
d="M504 957h-29l-188 191h37zM824 892q7 3 19.5 3t18.5 -3v-892h-29l-711 828v-828h-38v883q4 5 14 8.5t15 1.5l711 -832v831z" />
    <glyph glyph-name="uni01F9" unicode="&#x1f9;" horiz-adv-x="754" 
d="M502 781h-28l-170 246h40zM472 700q120 0 184 -91t64 -255v-354h-37v351q0 145 -55 230.5t-161 85.5q-78 0 -149.5 -56.5t-113 -141.5t-41.5 -169v-300h-37v526q0 71 -14 119v7q22 5 35 3q14 -39 14 -87v-132q36 108 123 186t188 78z" />
    <glyph glyph-name="Aringacute" unicode="&#x1fa;" horiz-adv-x="900" 
d="M572 1310l-111 -161h-24l98 161h37zM456 915q-61 0 -100.5 29.5t-39.5 75.5q0 45 39.5 75.5t100.5 30.5q60 0 100.5 -30.5t40.5 -75.5q0 -44 -40.5 -74.5t-100.5 -30.5zM456 1107q-50 0 -82.5 -24.5t-32.5 -62.5t32.5 -62t82.5 -24q49 0 82.5 25t33.5 61t-33.5 61.5
t-82.5 25.5zM476 892q108 -239 409 -887l-2 -5q-29 0 -40 3q-28 58 -109 237h-566l-112 -240h-42l424 892q6 3 19 3t19 -3zM184 273h535q-85 186 -262 584z" />
    <glyph glyph-name="aringacute" unicode="&#x1fb;" horiz-adv-x="677" 
d="M493 1124l-110 -162h-24l97 162h37zM378 729q-62 0 -101 29.5t-39 74.5t39.5 75.5t100.5 30.5q60 0 100.5 -30.5t40.5 -75.5q0 -44 -41 -74t-100 -30zM377 921q-50 0 -82 -25t-32 -63t32 -62t82 -24q49 0 83 25t34 61q0 37 -33.5 62.5t-83.5 25.5zM607 141q0 -65 6.5 -91
t21.5 -44l-1 -6h-33q-30 27 -30 121l-1 110q-40 -102 -133 -175.5t-203 -73.5q-90 0 -140 45t-50 118q1 112 110.5 180.5t303.5 69.5q50 0 108 -5q-5 128 -61 203t-152 75q-108 2 -244 -93q-13 5 -13 28q138 97 259 97q116 0 183.5 -90t67.5 -258zM568 349v13q-54 6 -109 6
q-187 0 -282.5 -62t-95.5 -157q0 -62 41 -99t119 -37q88 0 165 52.5t119 129.5t43 154z" />
    <glyph glyph-name="AEacute" unicode="&#x1fc;" horiz-adv-x="1440" 
d="M1148 1137l-185 -202h-28l175 202h38zM1395 32q4 -4 4 -15t-4 -17h-655v240h-486l-192 -240h-48l723 892h634q5 -18 -6 -32h-587v-414h506q5 -18 -6 -32h-500v-382h617zM281 273l459 -1v574z" />
    <glyph glyph-name="aeacute" unicode="&#x1fd;" horiz-adv-x="1195" 
d="M752 1026l-164 -245h-28l153 245h39zM889 700q126 0 202 -91.5t69 -248.5l-9 -11l-545 -72q12 -121 85 -191.5t175 -70.5q122 0 236 107q9 -4 19 -24q-120 -114 -258 -116q-103 -1 -182.5 64.5t-103.5 178.5q-42 -109 -137.5 -176.5t-205.5 -66.5q-91 1 -140.5 45.5
t-49.5 117.5q1 112 110.5 180.5t303.5 69.5q50 0 108 -5q-6 128 -61.5 202.5t-151.5 75.5q-106 2 -244 -93q-13 5 -13 28q138 97 259 97q93 0 155.5 -60.5t83.5 -170.5q37 103 116 167t179 64zM1123 371q4 141 -61.5 219.5t-172.5 78.5q-82 0 -149.5 -52t-103 -135.5
t-32.5 -176.5zM566 349l1 13q-54 6 -108 6q-187 0 -282.5 -62t-95.5 -157q0 -62 41 -99t119 -37q132 0 227.5 102t97.5 234z" />
    <glyph glyph-name="Oslashacute" unicode="&#x1fe;" horiz-adv-x="921" 
d="M668 1150l-184 -202h-29l176 202h37zM745 804q60 -63 93 -152.5t32 -188.5q-1 -126 -60 -236t-162.5 -177.5t-227.5 -67.5q-142 0 -238 90l-56 -72h-37l72 93q-108 119 -110 312q0 138 57 254.5t160.5 185t230.5 68.5q129 0 225 -88l53 68h37zM90 405q2 -174 93 -282
l519 673q-88 83 -206 83q-174 0 -290.5 -137.5t-115.5 -336.5zM831 464q1 92 -27.5 172.5t-80.5 138.5l-519 -674q88 -86 218 -86q109 0 203 60.5t149.5 164t56.5 224.5z" />
    <glyph glyph-name="oslashacute" unicode="&#x1ff;" horiz-adv-x="733" 
d="M557 1026l-164 -245h-28l153 245h39zM693 365q1 -161 -99.5 -272t-254.5 -111q-122 0 -200 75l-52 -57h-27v5l62 68q-82 93 -82 235q0 161 103 276.5t254 115.5q126 0 211 -93l41 46h30v-4l-56 -62q70 -92 70 -222zM78 308q0 -126 69 -208l118 130l31 32l114 124l173 193
q-73 89 -188 89q-136 0 -226.5 -107t-90.5 -253zM341 15q137 0 225.5 102t88.5 245q0 115 -57 197l-130 -145l-146 -155l-29 -33l-130 -143q70 -68 178 -68z" />
    <glyph glyph-name="uni0202" unicode="&#x202;" horiz-adv-x="900" 
d="M458 1133q-77 0 -127.5 -46t-50.5 -118h-30q0 88 60.5 140.5t147.5 52.5q90 0 148.5 -51t58.5 -142h-29q0 75 -50 119.5t-128 44.5zM476 892q108 -239 409 -887l-2 -5q-29 0 -40 3q-28 58 -109 237h-566l-112 -240h-42l424 892q6 3 19 3t19 -3zM184 273h535
q-85 186 -262 584z" />
    <glyph glyph-name="uni0203" unicode="&#x203;" horiz-adv-x="677" 
d="M359 945q-77 0 -128 -46t-51 -118h-30q0 88 60.5 140t148.5 52q89 0 147.5 -51t58.5 -141h-29q0 74 -49.5 119t-127.5 45zM607 141q0 -65 6.5 -91t21.5 -44l-1 -6h-33q-30 27 -30 121l-1 110q-40 -102 -133 -175.5t-203 -73.5q-90 0 -140 45t-50 118q1 112 110.5 180.5
t303.5 69.5q50 0 108 -5q-5 128 -61 203t-152 75q-108 2 -244 -93q-13 5 -13 28q138 97 259 97q116 0 183.5 -90t67.5 -258zM568 349v13q-54 6 -109 6q-187 0 -282.5 -62t-95.5 -157q0 -62 41 -99t119 -37q88 0 165 52.5t119 129.5t43 154z" />
    <glyph glyph-name="uni0206" unicode="&#x206;" horiz-adv-x="790" 
d="M414 1133q-77 0 -127.5 -46t-50.5 -118h-30q0 88 60.5 140.5t147.5 52.5q90 0 148.5 -51t58.5 -142h-29q0 74 -50 119t-128 45zM744 32q4 -4 4 -15t-4 -17h-660v887l5 5h631q5 -18 -6 -32h-592v-414h511q2 -7 0 -17.5t-6 -14.5h-505v-382h622z" />
    <glyph glyph-name="uni0207" unicode="&#x207;" horiz-adv-x="665" 
d="M361 945q-77 0 -128 -46t-51 -118h-30q0 88 60.5 140t148.5 52q89 0 147.5 -51t58.5 -141h-29q0 74 -49.5 119t-127.5 45zM359 700q126 0 202 -91.5t69 -248.5l-9 -11l-545 -72q12 -121 85 -191.5t175 -70.5q122 0 236 107q9 -4 19 -24q-120 -114 -258 -116
q-122 -1 -206.5 87t-88.5 236q-3 104 37.5 194.5t116 145.5t167.5 55zM593 372q4 140 -61.5 218.5t-172.5 78.5q-82 0 -149 -51.5t-102.5 -135t-33.5 -176.5z" />
    <glyph glyph-name="uni020A" unicode="&#x20a;" horiz-adv-x="7" 
d="M-230 969q0 88 60.5 140.5t147.5 52.5q90 0 148.5 -51t58.5 -142h-30q0 74 -49.5 119t-127.5 45q-77 0 -128 -46t-51 -118h-29zM-40 0v892q7 3 19 3t17 -3v-892h-36z" />
    <glyph glyph-name="uni020B" unicode="&#x20b;" horiz-adv-x="225" 
d="M-94 781q0 88 60 140t147 52q89 0 147.5 -51t58.5 -141h-29q0 74 -49.5 119t-127.5 45q-76 0 -127 -46.5t-51 -117.5h-29zM94 0v653q7 2 19.5 2t17.5 -2v-653h-37z" />
    <glyph glyph-name="uni020E" unicode="&#x20e;" horiz-adv-x="903" 
d="M263 980q0 88 60.5 140.5t147.5 52.5q90 0 148.5 -51t58.5 -142h-30q0 74 -49.5 119t-127.5 45q-77 0 -128 -46t-51 -118h-29zM411 -18q-85 0 -155 33.5t-116.5 91.5t-71.5 134.5t-26 163.5q0 138 57 254.5t160.5 185t230.5 68.5q107 0 193.5 -62.5t132.5 -165.5t45 -222
q-1 -126 -59.5 -236t-162.5 -177.5t-228 -67.5zM413 15q109 0 203 60.5t149.5 164t56.5 224.5q2 174 -94 294.5t-241 120.5q-174 0 -290.5 -137.5t-115.5 -336.5q0 -78 22 -147.5t62.5 -124t104.5 -86.5t143 -32z" />
    <glyph glyph-name="uni020F" unicode="&#x20f;" horiz-adv-x="729" 
d="M184 781q0 88 60.5 140t147.5 52q90 0 148.5 -51t58.5 -141h-30q0 74 -49.5 119t-127.5 45q-77 0 -128 -46t-51 -118h-29zM337 -18q-140 0 -219.5 94t-79.5 232q0 161 103 276.5t254 115.5q132 0 213.5 -96.5t82.5 -238.5q1 -161 -99.5 -272t-254.5 -111zM338 15
q138 0 226.5 102t88.5 245q0 130 -72.5 218t-187.5 88q-136 0 -226.5 -107t-90.5 -253q0 -123 68.5 -208t193.5 -85z" />
    <glyph glyph-name="uni0212" unicode="&#x212;" horiz-adv-x="903" 
d="M427 1144q-77 0 -128 -46t-51 -118h-30q0 88 60.5 140t148.5 52q89 0 147.5 -51t58.5 -141h-29q0 74 -49.5 119t-127.5 45zM546 315q118 -132 188.5 -203.5t121.5 -102.5v-6q-12 -5 -39 -5q-78 38 -313 309q-43 -6 -91 -6q-74 1 -156.5 14.5t-134.5 30.5v-346h-38v871
q143 42 343 42q173 0 273.5 -83t100.5 -230q0 -107 -69 -182.5t-186 -102.5zM413 333q150 -2 249.5 70t99.5 198q0 125 -87.5 202.5t-250.5 77.5q-186 0 -302 -34v-468q143 -44 291 -46z" />
    <glyph glyph-name="uni0213" unicode="&#x213;" horiz-adv-x="544" 
d="M283 972q-77 0 -127.5 -46t-50.5 -118h-29q0 88 60 140.5t147 52.5q90 0 148.5 -51t58.5 -142h-30q0 75 -49.5 119.5t-127.5 44.5zM509 676q5 -17 -10 -34q-56 23 -108 23q-121 -1 -195.5 -111t-74.5 -256v-298h-38v526q0 71 -14 119v7q22 5 34 3q14 -39 14 -87v-132
q27 113 101.5 188.5t174.5 75.5q55 0 116 -24z" />
    <glyph glyph-name="uni0218" unicode="&#x218;" horiz-adv-x="847" 
d="M449 -18q-111 0 -218 36t-189 103q1 7 7 17t13 13q81 -66 182 -101.5t205 -35.5q150 0 233 62t83 164q0 53 -25 91t-73 60.5t-104.5 33.5t-133.5 16q-139 8 -219 63.5t-80 165.5q0 58 28.5 106t75 77t100 44.5t106.5 15.5q166 0 261 -72.5t95 -183.5q-22 -7 -37 -4
q-2 107 -89.5 167.5t-229.5 60.5q-110 0 -190.5 -60t-80.5 -152q0 -65 37.5 -109t94.5 -63.5t134 -23.5q190 -10 279.5 -67.5t89.5 -164.5q0 -114 -91.5 -186.5t-263.5 -72.5zM387 -291l44 210h31l-47 -210h-28z" />
    <glyph glyph-name="uni0219" unicode="&#x219;" horiz-adv-x="679" 
d="M356 -18q-81 0 -166 28.5t-146 82.5q6 21 17 28q57 -51 135 -78.5t157 -27.5q105 0 174 43.5t69 111.5q0 79 -60 118t-205 46q-258 15 -258 176q0 78 75 134t194 56q160 0 278 -81q-1 -7 -12 -30q-115 79 -263 79q-109 0 -171.5 -48t-62.5 -109q0 -136 229 -147
q161 -8 227.5 -54.5t66.5 -138.5q0 -86 -81.5 -137.5t-196.5 -51.5zM299 -307l44 210h31l-47 -210h-28z" />
    <glyph glyph-name="uni021A" unicode="&#x21a;" horiz-adv-x="817" 
d="M795 892q5 -18 -7 -32h-375v-860h-39v860h-352q-4 17 6 32h767zM333 -282l44 210h31l-47 -210h-28z" />
    <glyph glyph-name="uni021B" unicode="&#x21b;" horiz-adv-x="488" 
d="M465 621h-329v-326q0 -133 52.5 -207t147.5 -73q47 0 110 22q4 -4 6 -14.5t0 -17.5q-66 -23 -120 -23q-107 0 -170 80.5t-63 230.5v328h-88v32h88v182q16 11 37 7v-189h329v-32zM226 -301l44 210h31l-47 -210h-28z" />
    <glyph glyph-name="uni0237" unicode="&#x237;" horiz-adv-x="234" 
d="M25 -225q-34 0 -82 17q-7 19 6 34q46 -16 72 -16q45 0 63 46t18 155v642q6 2 19 2t18 -2v-657q0 -108 -24.5 -164t-89.5 -57z" />
    <glyph glyph-name="circumflex" unicode="&#x2c6;" horiz-adv-x="562" 
d="M494 736h-35l-178 195l-178 -195h-35l205 224h17z" />
    <glyph glyph-name="caron" unicode="&#x2c7;" horiz-adv-x="562" 
d="M459 960h35l-204 -224h-17l-205 224h35l178 -195z" />
    <glyph glyph-name="breve" unicode="&#x2d8;" horiz-adv-x="552" 
d="M275 728q-89 0 -148 51t-59 142h30q0 -74 49 -119.5t128 -45.5q77 0 128 46t51 119h30q0 -88 -60.5 -140.5t-148.5 -52.5z" />
    <glyph glyph-name="dotaccent" unicode="&#x2d9;" horiz-adv-x="195" 
d="M97 781q-11 0 -20 9t-9 21q0 13 9 22.5t20 9.5q12 0 20.5 -9.5t8.5 -22.5q0 -12 -8.5 -21t-20.5 -9z" />
    <glyph glyph-name="ring" unicode="&#x2da;" horiz-adv-x="488" 
d="M244 723q-76 0 -126 37t-50 99q0 59 49 98t127 39q74 0 125 -39t51 -98q0 -60 -54 -98t-122 -38zM244 744q62 0 106.5 34t44.5 81q0 49 -44.5 82t-106.5 33q-67 0 -109 -33.5t-42 -81.5q0 -49 41 -82t110 -33z" />
    <glyph glyph-name="ogonek" unicode="&#x2db;" horiz-adv-x="362" 
d="M170 -327q-44 -1 -73 24t-29 74q0 55 36 123t102 122l23 -9q-64 -54 -97.5 -116.5t-33.5 -114.5q0 -36 22 -55t55 -18q26 0 54 17t45 43l19 -16q-20 -32 -55 -53t-68 -21z" />
    <glyph glyph-name="tilde" unicode="&#x2dc;" horiz-adv-x="565" 
d="M407 766q-36 0 -81.5 31t-89 62t-76.5 31q-30 0 -48 -32.5t-18 -86.5h-26q0 69 25.5 110t64.5 41q36 0 81 -31t88 -62t76 -31q31 -1 49 33t18 86h26q0 -66 -24 -108.5t-65 -42.5z" />
    <glyph glyph-name="hungarumlaut" unicode="&#x2dd;" horiz-adv-x="530" 
d="M73 736l151 245h37l-161 -245h-27zM269 736l153 245h39l-165 -245h-27z" />
    <glyph glyph-name="gravecomb" unicode="&#x300;" 
d="M-97 736l-170 245h40l158 -245h-28z" />
    <glyph glyph-name="acutecomb" unicode="&#x301;" 
d="M-261 736l153 245h39l-164 -245h-28z" />
    <glyph glyph-name="uni0302" unicode="&#x302;" 
d="M-68 736h-35l-178 194l-178 -194h-35l205 224h17z" />
    <glyph glyph-name="tildecomb" unicode="&#x303;" 
d="M-158 766q-36 0 -81.5 31t-89 62t-76.5 31q-30 0 -48 -32.5t-18 -86.5h-26q0 69 25.5 110t64.5 41q36 0 81 -31t88 -62t76 -31q31 -1 49 33t18 86h26q0 -66 -24 -108.5t-65 -42.5z" />
    <glyph glyph-name="uni0304" unicode="&#x304;" 
d="M-514 818v29h441v-29h-441z" />
    <glyph glyph-name="uni0306" unicode="&#x306;" 
d="M-277 728q-89 0 -148 51t-59 142h30q0 -74 49 -119.5t128 -45.5q77 0 128 46t51 119h30q0 -88 -60.5 -140.5t-148.5 -52.5z" />
    <glyph glyph-name="uni0307" unicode="&#x307;" 
d="M-98 781q-11 0 -20 9t-9 21q0 13 9 22.5t20 9.5q12 0 20.5 -9.5t8.5 -22.5q0 -12 -8.5 -21t-20.5 -9z" />
    <glyph glyph-name="uni0308" unicode="&#x308;" 
d="M-386 781q-11 0 -19.5 9t-8.5 21q0 13 8.5 22.5t19.5 9.5q12 0 21 -9.5t9 -22.5q0 -12 -9 -21t-21 -9zM-102 781q-11 0 -20 9t-9 21q0 13 9 22.5t20 9.5q12 0 20.5 -9.5t8.5 -22.5q0 -12 -8.5 -21t-20.5 -9z" />
    <glyph glyph-name="uni030A" unicode="&#x30a;" 
d="M-244 728q-75 0 -125.5 37t-50.5 99q0 59 49 98t127 39q74 0 125 -39t51 -98t-54 -97.5t-122 -38.5zM-244 749q62 0 106.5 34t44.5 81q0 49 -44.5 82.5t-106.5 33.5q-67 0 -109 -33.5t-42 -82.5t41 -82t110 -33z" />
    <glyph glyph-name="uni030B" unicode="&#x30b;" 
d="M-457 736l151 245h37l-161 -245h-27zM-261 736l153 245h39l-165 -245h-27z" />
    <glyph glyph-name="uni030C" unicode="&#x30c;" 
d="M-103 960h35l-204 -224h-17l-205 224h35l178 -195z" />
    <glyph glyph-name="uni0311" unicode="&#x311;" 
d="M-484 736q0 88 60.5 140t148.5 52q89 0 147.5 -51t58.5 -141h-29q0 74 -49.5 119t-127.5 45q-77 0 -128 -46t-51 -118h-30z" />
    <glyph glyph-name="uni0312" unicode="&#x312;" 
d="M-193 779l51 214h27l-47 -214h-31z" />
    <glyph glyph-name="uni0326" unicode="&#x326;" 
d="M-201 -291l44 210h31l-47 -210h-28z" />
    <glyph glyph-name="uni0327" unicode="&#x327;" 
d="M-157 -321q-50 -2 -98 52l19 21q38 -45 78 -45q27 0 44.5 21.5t16.5 54.5q0 44 -42 97q-35 43 -43.5 64.5t-8.5 61.5h27q0 -35 9 -54t46 -66q40 -50 40 -104q1 -43 -24.5 -73t-63.5 -30z" />
    <glyph glyph-name="uni0328" unicode="&#x328;" 
d="M-192 -327q-44 -1 -73 24t-29 74q0 55 36 123t102 122l23 -9q-64 -54 -97.5 -116.5t-33.5 -114.5q0 -36 22 -55t55 -18q26 0 54 17t45 43l19 -16q-20 -32 -55 -53t-68 -21z" />
    <glyph glyph-name="uni03BC" unicode="&#x3bc;" horiz-adv-x="774" 
d="M704 139q0 -61 4.5 -86t18.5 -45v-8h-32q-14 16 -19.5 37t-5.5 72v123q-25 -109 -109 -179.5t-199 -70.5q-79 0 -135.5 38t-80.5 114v-403h-34v922q14 4 38 0v-376q0 -135 58 -198.5t158 -63.5q132 0 216.5 98t84.5 243v297q15 6 37 0v-514z" />
    <glyph glyph-name="uni1E02" unicode="&#x1e02;" horiz-adv-x="845" 
d="M391 991q-10 0 -17.5 8t-7.5 19q0 12 7.5 20.5t17.5 8.5t17.5 -8.5t7.5 -20.5q0 -11 -7.5 -19t-17.5 -8zM802 284q1 -143 -100.5 -222t-273.5 -80q-121 0 -191 9t-153 34v855q129 33 307 33q96 0 165.5 -21t104.5 -56t50.5 -70t15.5 -72q0 -57 -39.5 -103.5t-110.5 -67.5
q225 -44 225 -239zM392 882q-165 0 -270 -27v-368q54 22 142 35t171 13q42 0 81 -3q82 12 127.5 56.5t45.5 102.5q0 33 -14 64t-45.5 61t-92.5 48t-145 18zM426 14q163 0 251.5 73t88.5 195q0 221 -335 221q-182 0 -309 -49v-404q118 -36 304 -36z" />
    <glyph glyph-name="uni1E03" unicode="&#x1e03;" horiz-adv-x="722" 
d="M367 1037q-11 0 -20 9t-9 21q0 13 9 22.5t20 9.5q12 0 20.5 -9.5t8.5 -22.5q0 -12 -8.5 -21t-20.5 -9zM411 700q122 0 197.5 -94t75.5 -237q0 -159 -88.5 -273t-222.5 -114q-91 0 -157.5 57t-97.5 141v-38q0 -80 -17 -142h-33v10q12 54 12 145v777q7 2 20 2t18 -2v-493
q31 110 114 185.5t179 75.5zM368 15q121 0 200 106.5t78 247.5q-1 130 -67.5 214.5t-170.5 84.5q-76 0 -143.5 -53.5t-107 -137.5t-39.5 -172q0 -113 72 -201.5t178 -88.5z" />
    <glyph glyph-name="uni1E0A" unicode="&#x1e0a;" horiz-adv-x="881" 
d="M381 1002q-10 0 -17.5 8t-7.5 19q0 12 7.5 20.5t17.5 8.5t17.5 -8.5t7.5 -20.5q0 -11 -7.5 -19t-17.5 -8zM382 913q210 0 333.5 -126t123.5 -330q0 -214 -117.5 -344.5t-319.5 -130.5q-104 0 -166 9t-152 34v855q128 33 298 33zM402 14q186 0 291.5 122t106.5 321
q1 119 -46 214t-144 152.5t-229 57.5q-156 0 -259 -26v-804q125 -37 280 -37z" />
    <glyph glyph-name="uni1E0B" unicode="&#x1e0b;" horiz-adv-x="728" 
d="M354 1055q-11 0 -20 9t-9 21q0 13 9 22.5t20 9.5q12 0 20.5 -9.5t8.5 -22.5q0 -12 -8.5 -21t-20.5 -9zM648 155q0 -91 12 -145v-10h-31q-19 45 -19 143v71q-34 -96 -108.5 -164t-176.5 -68q-126 0 -206.5 93.5t-80.5 238.5q0 156 92 271t231 115q87 0 155 -60t94 -155
v447q5 2 18 2t20 -2v-777zM330 15q80 0 145.5 52t99.5 131t34 163q0 131 -70 219t-173 88q-121 0 -205 -104t-85 -248q-1 -130 70 -215.5t184 -85.5z" />
    <glyph glyph-name="uni1E1E" unicode="&#x1e1e;" horiz-adv-x="765" 
d="M392 981q-10 0 -17.5 8t-7.5 19q0 12 7.5 20.5t17.5 8.5t17.5 -8.5t7.5 -20.5q0 -11 -7.5 -19t-17.5 -8zM715 859h-593v-466h510q2 -8 -0.5 -18.5t-5.5 -13.5h-504v-361h-38v885l6 6h632q5 -16 -7 -32z" />
    <glyph glyph-name="uni1E1F" unicode="&#x1e1f;" horiz-adv-x="353" 
d="M293 1067q-11 0 -20 9t-9 21q0 13 9 22.5t20 9.5q12 0 20.5 -9.5t8.5 -22.5q0 -12 -8.5 -21t-20.5 -9zM375 905q-155 -1 -163 -252h226v-32h-226v-621h-38v621h-167v32h167q9 285 195 285q51 0 117 -22q2 -21 -7 -32q-51 21 -104 21z" />
    <glyph glyph-name="uni1E40" unicode="&#x1e40;" horiz-adv-x="1063" 
d="M532 981q-10 0 -17.5 8t-7.5 19q0 12 7.5 20.5t17.5 8.5t17.5 -8.5t7.5 -20.5q0 -11 -7.5 -19t-17.5 -8zM1021 0h-38l-78 820l-360 -660h-27l-361 663l-77 -823h-38l84 886q5 5 17.5 7t16.5 -1l372 -687l371 687q5 2 17 -0.5t16 -6.5z" />
    <glyph glyph-name="uni1E41" unicode="&#x1e41;" horiz-adv-x="1037" 
d="M547 826q-11 0 -20 9t-9 21q0 13 9 22.5t20 9.5q12 0 20.5 -9.5t8.5 -22.5q0 -12 -8.5 -21t-20.5 -9zM790 700q86 0 132 -79.5t46 -222.5v-398h-37v397q0 124 -38 197.5t-111 73.5q-68 0 -124.5 -53.5t-86 -132t-29.5 -160.5v-322h-37v394q0 274 -145 274
q-66 0 -122.5 -56.5t-87 -140t-30.5 -169.5v-302h-38v526q0 71 -14 119v7q22 5 35 3q14 -39 14 -87v-118q30 104 98 177t151 73q151 0 172 -233q32 100 99 166.5t153 66.5z" />
    <glyph glyph-name="uni1E56" unicode="&#x1e56;" horiz-adv-x="844" 
d="M423 1002q-10 0 -17.5 8t-7.5 19q0 12 7.5 20.5t17.5 8.5t17.5 -8.5t7.5 -20.5q0 -11 -7.5 -19t-17.5 -8zM423 913q173 0 275.5 -87.5t103.5 -240.5q0 -134 -107 -218t-284 -84q-156 0 -289 45v-328h-38v871q142 42 339 42zM409 315q156 0 254.5 72.5t99.5 197.5
q0 138 -91.5 217t-250.5 79q-187 0 -299 -36v-481q121 -49 287 -49z" />
    <glyph glyph-name="uni1E57" unicode="&#x1e57;" horiz-adv-x="721" 
d="M385 826q-11 0 -20 9t-9 21q0 13 9 22.5t20 9.5q12 0 20.5 -9.5t8.5 -22.5q0 -12 -8.5 -21t-20.5 -9zM410 700q123 0 198 -93t75 -243q0 -154 -89 -268t-221 -114q-88 0 -156.5 57t-99.5 145v-420q-6 -2 -19.5 -2t-18.5 2v753q0 64 -11 128v7q17 6 34 3l15 -79v-123
q37 107 118.5 177t174.5 70zM367 15q121 0 199.5 107t78.5 241q0 139 -67 222t-171 83q-77 0 -144 -52.5t-106.5 -138t-39.5 -179.5q0 -110 73.5 -196.5t176.5 -86.5z" />
    <glyph glyph-name="uni1E60" unicode="&#x1e60;" horiz-adv-x="847" 
d="M440 1002q-10 0 -17.5 8t-7.5 19q0 12 7.5 20.5t17.5 8.5t17.5 -8.5t7.5 -20.5q0 -11 -7.5 -19t-17.5 -8zM449 -18q-111 0 -218 36t-189 103q1 7 7 17t13 13q81 -66 182 -101.5t205 -35.5q150 0 233 62t83 164q0 53 -25 91t-73 60.5t-104.5 33.5t-133.5 16
q-139 8 -219 63.5t-80 165.5q0 58 28.5 106t75 77t100 44.5t106.5 15.5q166 0 261 -72.5t95 -183.5q-22 -7 -37 -4q-2 107 -89.5 167.5t-229.5 60.5q-110 0 -190.5 -60t-80.5 -152q0 -65 37.5 -109t94.5 -63.5t134 -23.5q190 -10 279.5 -67.5t89.5 -164.5
q0 -114 -91.5 -186.5t-263.5 -72.5z" />
    <glyph glyph-name="uni1E61" unicode="&#x1e61;" horiz-adv-x="679" 
d="M341 826q-11 0 -20 9t-9 21q0 13 9 22.5t20 9.5q12 0 20.5 -9.5t8.5 -22.5q0 -12 -8.5 -21t-20.5 -9zM356 -18q-81 0 -166 28.5t-146 82.5q6 21 17 28q57 -51 135 -78.5t157 -27.5q105 0 174 43.5t69 111.5q0 79 -60 118t-205 46q-258 15 -258 176q0 78 75 134t194 56
q160 0 278 -81q-1 -7 -12 -30q-115 79 -263 79q-109 0 -171.5 -48t-62.5 -109q0 -136 229 -147q161 -8 227.5 -54.5t66.5 -138.5q0 -86 -81.5 -137.5t-196.5 -51.5z" />
    <glyph glyph-name="uni1E6A" unicode="&#x1e6a;" horiz-adv-x="817" 
d="M394 981q-10 0 -17.5 8t-7.5 19q0 12 7.5 20.5t17.5 8.5t17.5 -8.5t7.5 -20.5q0 -11 -7.5 -19t-17.5 -8zM795 892q5 -18 -7 -32h-375v-860h-39v860h-352q-4 17 6 32h767z" />
    <glyph glyph-name="uni1E6B" unicode="&#x1e6b;" horiz-adv-x="488" 
d="M119 969q-11 0 -20 9t-9 21q0 13 9 22.5t20 9.5q12 0 20.5 -9.5t8.5 -22.5q0 -12 -8.5 -21t-20.5 -9zM465 621h-329v-326q0 -133 52.5 -207t147.5 -73q47 0 110 22q4 -4 6 -14.5t0 -17.5q-66 -23 -120 -23q-107 0 -170 80.5t-63 230.5v328h-88v32h88v182q16 11 37 7v-189
h329v-32z" />
    <glyph glyph-name="Wgrave" unicode="&#x1e80;" horiz-adv-x="1247" 
d="M626 956l-188 192h37l180 -192h-29zM438 0l-13 8q-76 231 -196 477t-215 400l3 7q17 5 36 0q109 -181 221.5 -415.5t179.5 -443.5h4q63 98 136 237.5t95 222.5q-18 51 -91 231q8 17 34 15q46 -104 134.5 -338.5t131.5 -367.5h3q151 209 231 440t55 417q11 8 36 2
q28 -185 -52.5 -425.5t-241.5 -456.5l-15 -10h-37l-9 6q-99 285 -161 434q-22 -76 -101 -224.5t-123 -209.5l-11 -6h-34z" />
    <glyph glyph-name="wgrave" unicode="&#x1e81;" horiz-adv-x="886" 
d="M458 746l-170 245h40l158 -245h-28zM295 0l-10 7q-15 54 -32.5 107.5t-36.5 101.5t-36 90t-36.5 84t-34 72t-32.5 63.5t-27.5 50.5t-23.5 42t-16 28l3 7q21 4 35 0q177 -300 267 -619h4q43 78 88 183.5t68 185.5l-64 165q3 6 14 10.5t20 3.5q65 -161 102.5 -271.5
t78.5 -276.5h5q91 144 152 312.5t53 304.5q13 7 37 2q13 -120 -53 -310.5t-166 -335.5l-9 -7h-37l-9 7q-52 206 -105 342q-17 -63 -65 -171.5t-87 -170.5l-9 -7h-38z" />
    <glyph glyph-name="Wacute" unicode="&#x1e82;" horiz-adv-x="1247" 
d="M600 937l176 202h37l-184 -202h-29zM438 0l-13 8q-76 231 -196 477t-215 400l3 7q17 5 36 0q109 -181 221.5 -415.5t179.5 -443.5h4q63 98 136 237.5t95 222.5q-18 51 -91 231q8 17 34 15q46 -104 134.5 -338.5t131.5 -367.5h3q151 209 231 440t55 417q11 8 36 2
q28 -185 -52.5 -425.5t-241.5 -456.5l-15 -10h-37l-9 6q-99 285 -161 434q-22 -76 -101 -224.5t-123 -209.5l-11 -6h-34z" />
    <glyph glyph-name="wacute" unicode="&#x1e83;" horiz-adv-x="886" 
d="M415 746l153 245h39l-164 -245h-28zM295 0l-10 7q-15 54 -32.5 107.5t-36.5 101.5t-36 90t-36.5 84t-34 72t-32.5 63.5t-27.5 50.5t-23.5 42t-16 28l3 7q21 4 35 0q177 -300 267 -619h4q43 78 88 183.5t68 185.5l-64 165q3 6 14 10.5t20 3.5q65 -161 102.5 -271.5
t78.5 -276.5h5q91 144 152 312.5t53 304.5q13 7 37 2q13 -120 -53 -310.5t-166 -335.5l-9 -7h-37l-9 7q-52 206 -105 342q-17 -63 -65 -171.5t-87 -170.5l-9 -7h-38z" />
    <glyph glyph-name="Wdieresis" unicode="&#x1e84;" horiz-adv-x="1247" 
d="M487 983q-10 0 -17.5 8t-7.5 19q0 12 7.5 20.5t17.5 8.5t17.5 -8.5t7.5 -20.5q0 -11 -7.5 -19t-17.5 -8zM762 983q-10 0 -17.5 8t-7.5 19q0 12 7.5 20.5t17.5 8.5q11 0 18.5 -8.5t7.5 -20.5q0 -11 -8 -19t-18 -8zM438 0l-13 8q-76 231 -196 477t-215 400l3 7q17 5 36 0
q109 -181 221.5 -415.5t179.5 -443.5h4q63 98 136 237.5t95 222.5q-18 51 -91 231q8 17 34 15q46 -104 134.5 -338.5t131.5 -367.5h3q151 209 231 440t55 417q11 8 36 2q28 -185 -52.5 -425.5t-241.5 -456.5l-15 -10h-37l-9 6q-99 285 -161 434q-22 -76 -101 -224.5
t-123 -209.5l-11 -6h-34z" />
    <glyph glyph-name="wdieresis" unicode="&#x1e85;" horiz-adv-x="886" 
d="M304 791q-11 0 -19.5 9t-8.5 21q0 13 8.5 22.5t19.5 9.5q12 0 21 -9.5t9 -22.5q0 -12 -9 -21t-21 -9zM588 791q-11 0 -20 9t-9 21q0 13 9 22.5t20 9.5q12 0 20.5 -9.5t8.5 -22.5q0 -12 -8.5 -21t-20.5 -9zM295 0l-10 7q-15 54 -32.5 107.5t-36.5 101.5t-36 90t-36.5 84
t-34 72t-32.5 63.5t-27.5 50.5t-23.5 42t-16 28l3 7q21 4 35 0q177 -300 267 -619h4q43 78 88 183.5t68 185.5l-64 165q3 6 14 10.5t20 3.5q65 -161 102.5 -271.5t78.5 -276.5h5q91 144 152 312.5t53 304.5q13 7 37 2q13 -120 -53 -310.5t-166 -335.5l-9 -7h-37l-9 7
q-52 206 -105 342q-17 -63 -65 -171.5t-87 -170.5l-9 -7h-38z" />
    <glyph glyph-name="uni1E9E" unicode="&#x1e9e;" horiz-adv-x="892" 
d="M341 511q58 -2 118.5 -10.5t131 -29.5t125 -51t90.5 -80.5t36 -113.5q0 -112 -97.5 -178t-233.5 -66q-96 0 -167 26.5t-131 86.5q3 17 19 27q100 -106 278 -106q125 0 209 58.5t84 152.5q0 59 -39 106t-96.5 74.5t-130 46t-132 25t-109.5 6.5l-7 17l416 357h-370
q-75 0 -124 -37.5t-68.5 -95t-19.5 -134.5v-592h-37v594q0 136 59.5 217t187.5 81h422q9 -16 -3 -30z" />
    <glyph glyph-name="Ygrave" unicode="&#x1ef2;" horiz-adv-x="819" 
d="M441 956h-29l-188 192h37zM803 892q15 -271 -344 -601v-291h-38v293q-48 76 -202 303.5t-204 288.5l3 7q20 6 40 0q39 -46 181.5 -257t205.5 -309q146 132 236.5 282t84.5 282q13 7 37 2z" />
    <glyph glyph-name="ygrave" unicode="&#x1ef3;" horiz-adv-x="687" 
d="M392 783h-28l-170 245h40zM673 653q10 -111 -15.5 -244t-99.5 -282.5t-186 -255.5q-65 -61 -138.5 -93.5t-140.5 -32.5q-44 0 -76 16q-7 16 -1 29l7 4q29 -17 71 -17q62 0 132 34.5t129 92.5q55 55 95 112q-72 44 -146.5 132.5t-130 185t-94 177.5t-55.5 134l2 7
q16 5 35 1q20 -65 74.5 -175.5t149 -243t185.5 -190.5q91 137 132 297.5t35 308.5q15 10 36 3z" />
    <glyph glyph-name="endash" unicode="&#x2013;" horiz-adv-x="1051" 
d="M212 343v31h627v-31h-627z" />
    <glyph glyph-name="emdash" unicode="&#x2014;" horiz-adv-x="1155" 
d="M212 343v31h731v-31h-731z" />
    <glyph glyph-name="quoteleft" unicode="&#x2018;" horiz-adv-x="302" 
d="M111 656l52 291h29l-48 -291h-33z" />
    <glyph glyph-name="quoteright" unicode="&#x2019;" horiz-adv-x="305" 
d="M111 656l48 291h35l-54 -291h-29z" />
    <glyph glyph-name="quotesinglbase" unicode="&#x201a;" horiz-adv-x="305" 
d="M111 -125l48 290h35l-54 -290h-29z" />
    <glyph glyph-name="quotedblleft" unicode="&#x201c;" horiz-adv-x="435" 
d="M111 656l52 291h29l-46 -291h-35zM243 656l53 291h29l-47 -291h-35z" />
    <glyph glyph-name="quotedblright" unicode="&#x201d;" horiz-adv-x="435" 
d="M111 656l46 291h35l-52 -291h-29zM243 656l46 291h35l-52 -291h-29z" />
    <glyph glyph-name="quotedblbase" unicode="&#x201e;" horiz-adv-x="437" 
d="M111 -125l48 290h35l-54 -290h-29zM243 -125l48 290h35l-54 -290h-29z" />
    <glyph glyph-name="dagger" unicode="&#x2020;" horiz-adv-x="740" 
d="M619 817v-33h-233v-913h-33v913h-233v33h233v178h33v-178h233z" />
    <glyph glyph-name="daggerdbl" unicode="&#x2021;" horiz-adv-x="749" 
d="M623 82v-33h-237v-178h-33v178h-229v33h229v702h-233v33h233v178h33v-178h233v-33h-233v-702h237z" />
    <glyph glyph-name="bullet" unicode="&#x2022;" horiz-adv-x="673" 
d="M337 305q-37 0 -64 31t-27 74q0 42 27 74t64 32q35 0 62.5 -32.5t27.5 -73.5q0 -42 -27 -73.5t-63 -31.5z" />
    <glyph glyph-name="ellipsis" unicode="&#x2026;" horiz-adv-x="678" 
d="M139 0q-11 0 -19.5 9t-8.5 21q0 13 8.5 23t19.5 10q12 0 20.5 -9.5t8.5 -23.5q0 -12 -8.5 -21t-20.5 -9zM339 0q-11 0 -19.5 9t-8.5 21q0 13 8.5 23t19.5 10t20 -10t9 -23q0 -12 -9 -21t-20 -9zM538 0q-11 0 -19.5 9t-8.5 21q0 13 8.5 23t19.5 10q13 0 21.5 -9.5
t8.5 -23.5q0 -12 -8.5 -21t-21.5 -9z" />
    <glyph glyph-name="perthousand" unicode="&#x2030;" horiz-adv-x="1488" 
d="M134 0l704 890h42l-703 -890h-43zM323 493q-93 0 -152.5 50.5t-59.5 138.5q0 86 58 138t154 52q97 0 155 -51.5t58 -138.5q0 -86 -61.5 -137.5t-151.5 -51.5zM323 520q75 0 125.5 45t50.5 117q0 74 -49 118.5t-127 44.5t-126.5 -45.5t-48.5 -117.5t48.5 -117t126.5 -45z
M675 -3q-93 0 -152.5 50.5t-59.5 139.5q0 85 58.5 137t153.5 52q96 0 154.5 -51.5t58.5 -137.5q0 -87 -61 -138.5t-152 -51.5zM1164 -3q-93 0 -153 51t-60 139q0 85 58.5 137t154.5 52q95 0 154 -51.5t59 -137.5q0 -87 -61.5 -138.5t-151.5 -51.5zM675 25q76 0 126 45
t50 117q0 74 -48.5 117.5t-127.5 43.5t-127 -44.5t-48 -116.5q0 -73 48.5 -117.5t126.5 -44.5zM1164 25q75 0 125.5 45t50.5 117q0 74 -48.5 117.5t-127.5 43.5t-127.5 -44.5t-48.5 -116.5q0 -73 49 -117.5t127 -44.5z" />
    <glyph glyph-name="guilsinglleft" unicode="&#x2039;" horiz-adv-x="724" 
d="M157 433l456 -271l-13 -27l-489 285v25l487 283l14 -25z" />
    <glyph glyph-name="guilsinglright" unicode="&#x203a;" horiz-adv-x="724" 
d="M126 728l487 -283v-25l-489 -285l-13 27l456 271l-455 270z" />
    <glyph glyph-name="fraction" unicode="&#x2044;" horiz-adv-x="1039" 
d="M111 -130l783 1173h34l-783 -1173h-34z" />
    <glyph glyph-name="Euro" unicode="&#x20ac;" horiz-adv-x="879" 
d="M750 132l18 -25q-35 -41 -110.5 -74t-177.5 -33q-119 0 -216.5 91t-122.5 252h-69v27h66q-4 31 -4 72q0 31 3 61h-65v28h68q23 161 121 249.5t219 88.5q90 0 166 -31t120 -74l-20 -23q-42 41 -112 68.5t-152 27.5q-108 0 -194.5 -79t-108.5 -227h362v-28h-365
q-3 -29 -3 -61q0 -41 4 -72h332v-27h-328q24 -145 111 -227.5t192 -82.5q94 0 161.5 30t104.5 69z" />
    <glyph glyph-name="uni2116" unicode="&#x2116;" horiz-adv-x="1621" 
d="M1229 305q-121 0 -193 78.5t-72 206.5q0 135 82.5 227.5t201.5 92.5q116 0 187.5 -76t74.5 -199q4 -144 -76.5 -237t-204.5 -93zM850 890q19 8 38 0v-890h-29l-710 828v-828h-38v881q3 5 13.5 8.5t14.5 1.5l711 -830v829zM1247 878q-102 0 -174 -83t-72 -204
q0 -115 62.5 -184.5t165.5 -69.5q108 0 178 83.5t67 212.5q-3 109 -65 177t-162 68zM1008 138v30h455v-30h-455z" />
    <glyph glyph-name="trademark" unicode="&#x2122;" horiz-adv-x="915" 
d="M402 890v-30h-130v-442h-31v442h-130v30h291zM805 890v-472h-32v409l-133 -351h-20l-139 349v-407h-31v472h36l144 -367l139 367h36z" />
    <glyph glyph-name="estimated" unicode="&#x212e;" horiz-adv-x="970" 
d="M488 895q163 0 268.5 -135t102.5 -354h-641v-259q104 -146 270 -146q74 0 154 44t129 110q12 -3 13 -14q-50 -68 -134 -113.5t-162 -45.5q-163 0 -270 128t-107 326q0 200 107 329.5t270 129.5zM757 425v294q-100 157 -269 157q-82 0 -154.5 -39.5t-116.5 -110.5l1 -301
h539z" />
    <glyph glyph-name="partialdiff" unicode="&#x2202;" horiz-adv-x="911" 
d="M426 910q96 0 171 -46.5t118 -122.5t64.5 -163.5t21.5 -178.5q0 -206 -99.5 -311.5t-259.5 -105.5q-82 0 -147 25t-104 66t-59.5 89.5t-20.5 99.5q0 103 82 174t247 71q96 0 183 -23.5t139 -57.5q-2 67 -15.5 130.5t-40.5 122.5t-65.5 102.5t-94 69.5t-121.5 26
q-67 0 -136.5 -35t-113.5 -86q-10 14 -9 31q40 52 116 87.5t144 35.5zM442 15q146 0 232.5 96.5t87.5 283.5q-46 32 -132.5 56t-181.5 24q-149 0 -223.5 -61t-74.5 -154q0 -99 78 -172t214 -73z" />
    <glyph glyph-name="minus" unicode="&#x2212;" horiz-adv-x="736" 
d="M118 421v33h500v-33h-500z" />
    <glyph glyph-name="radical" unicode="&#x221a;" horiz-adv-x="1064" 
d="M1064 890v-33h-178l-387 -857h-31l-357 482h43l325 -439l379 847h206z" />
    <glyph glyph-name="infinity" unicode="&#x221e;" horiz-adv-x="1076" 
d="M756 689q91 0 150 -59.5t59 -177.5q0 -116 -59.5 -175.5t-149.5 -59.5q-47 0 -83.5 15t-61.5 44t-40.5 59t-31.5 73q-16 -43 -32 -73t-41 -59t-62 -44t-85 -15q-90 0 -149 59.5t-59 175.5q0 118 59 177.5t149 59.5q49 0 85.5 -16t62 -49t40 -63t31.5 -78q17 48 31.5 78
t39.5 63t61.5 49t85.5 16zM320 243q46 0 80.5 15.5t58 47.5t36.5 61t30 77q-12 33 -17 47t-17.5 42.5t-22 42.5t-25.5 33.5t-33 28.5t-40 16t-50 7q-74 0 -126 -52t-52 -157q0 -106 51.5 -157.5t126.5 -51.5zM756 244q75 0 126.5 51.5t51.5 156.5t-51.5 157t-126.5 52
q-27 0 -50.5 -7t-40 -16t-32.5 -28.5t-25.5 -33t-21.5 -41.5t-17.5 -43t-16.5 -47q17 -48 30.5 -77t37 -61t57.5 -47.5t79 -15.5z" />
    <glyph glyph-name="approxequal" unicode="&#x2248;" horiz-adv-x="691" 
d="M111 458q0 68 28 109.5t71 41.5q32 0 70 -18.5t66.5 -41t64.5 -41t65 -18.5q34 0 53.5 33.5t19.5 85.5h32q0 -67 -27 -109t-73 -42q-39 0 -88 29.5t-96 59t-82 29.5q-32 0 -52.5 -32.5t-20.5 -85.5h-31zM111 301q0 68 28 109.5t71 41.5q32 0 70 -18.5t66.5 -40.5
t64.5 -40.5t65 -18.5q34 0 53.5 33t19.5 85h32q0 -66 -27 -108.5t-73 -42.5q-31 0 -69 18.5t-67.5 41t-65.5 41t-64 18.5q-32 0 -52.5 -32.5t-20.5 -86.5h-31z" />
    <glyph glyph-name="notequal" unicode="&#x2260;" horiz-adv-x="732" 
d="M618 886l-176 -347h172v-32h-188l-71 -140h259v-33h-276l-153 -303h-38l153 303h-186v33h203l71 140h-274v32h290l175 347h39z" />
    <glyph glyph-name="lessequal" unicode="&#x2264;" horiz-adv-x="723" 
d="M612 714l-456 -270l455 -269l-15 -27l-485 283v25l487 285zM147 64v29h453v-29h-453z" />
    <glyph glyph-name="greaterequal" unicode="&#x2265;" horiz-adv-x="723" 
d="M125 739l487 -285v-26l-485 -283l-15 28l455 268l-456 270zM114 60v29h452v-29h-452z" />
    <glyph glyph-name="i.loclTRK" horiz-adv-x="225" 
d="M112 826q-11 0 -20 9t-9 21q0 13 9 22.5t20 9.5q12 0 20.5 -9.5t8.5 -22.5q0 -12 -8.5 -21t-20.5 -9zM94 0v653q7 2 19.5 2t17.5 -2v-653h-37z" />
    <glyph glyph-name="uni00A0.001" horiz-adv-x="365" 
 />
    <glyph glyph-name="uni030C.alt" 
d="M-129 628l16 333h36l-23 -333h-29z" />
    <glyph glyph-name="uni0308.case" 
d="M-373 981q-10 0 -17.5 8t-7.5 19q0 12 7.5 20.5t17.5 8.5t17.5 -8.5t7.5 -20.5q0 -11 -7.5 -19t-17.5 -8zM-98 981q-10 0 -17.5 8t-7.5 19q0 12 7.5 20.5t17.5 8.5q11 0 18.5 -8.5t7.5 -20.5q0 -11 -8 -19t-18 -8z" />
    <glyph glyph-name="uni0307.case" 
d="M-101 979q-10 0 -17.5 8t-7.5 19q0 12 7.5 20.5t17.5 8.5t17.5 -8.5t7.5 -20.5q0 -11 -7.5 -19t-17.5 -8z" />
    <glyph glyph-name="gravecomb.case" 
d="M-102 961l-188 192h37l180 -192h-29z" />
    <glyph glyph-name="acutecomb.case" 
d="M-234 935l176 202h37l-184 -202h-29z" />
    <glyph glyph-name="uni030B.case" 
d="M-415 959l130 169h35l-139 -169h-26zM-242 959l133 169h39l-146 -169h-26z" />
    <glyph glyph-name="uni0302.case" 
d="M-73 933h-34l-178 195l-178 -195h-34l203 222h18z" />
    <glyph glyph-name="uni030C.case" 
d="M-102 1153h34l-204 -215h-17l-205 215h35l179 -186z" />
    <glyph glyph-name="uni0306.case" 
d="M-270 765q-85 0 -141 43t-56 119h28q0 -61 47 -99t122 -38q72 0 120.5 38t48.5 99h28q0 -75 -57 -118.5t-140 -43.5z" />
    <glyph glyph-name="uni030A.case" 
d="M-244 884q-75 0 -125.5 37t-50.5 99q0 59 49 98t127 39q74 0 125 -39t51 -98q0 -60 -54 -98t-122 -38zM-244 905q62 0 106.5 34t44.5 81q0 49 -44.5 82.5t-106.5 33.5q-67 0 -109 -33.5t-42 -82.5t41 -82t110 -33z" />
    <glyph glyph-name="tildecomb.case" 
d="M-157 952q-36 0 -81.5 31t-89 62t-76.5 31q-29 0 -47.5 -32.5t-18.5 -86.5h-26q0 67 25.5 107t64.5 40q29 0 63.5 -19.5t61.5 -42.5t60 -42.5t60 -19.5q31 0 49 33.5t18 86.5l26 -1q0 -65 -24 -106t-65 -41z" />
    <glyph glyph-name="uni0304.case" 
d="M-498 822v28h426v-28h-426z" />
    <glyph glyph-name="uni0327.case" 
d="M-157 -327q-51 -2 -98 53l19 20q38 -45 78 -45q27 0 44.5 21.5t16.5 54.5q0 46 -42 97q-34 42 -43 64.5t-9 61.5h27q0 -35 9 -54t46 -66q40 -50 40 -104q1 -43 -24.5 -73t-63.5 -30z" />
    <glyph glyph-name="uni0328.case" 
d="M-192 -327q-44 -1 -73 24t-29 74q0 55 36 123t102 122l23 -9q-64 -54 -97.5 -116.5t-33.5 -114.5q0 -36 22 -55t55 -18q26 0 54 17t45 43l19 -16q-20 -32 -55 -53t-68 -21z" />
    </font>
</defs>
</svg>
