<?xml version="1.0" standalone="no"?>
<!DOCTYPE svg PUBLIC "-//W3C//DTD SVG 1.1//EN" "http://www.w3.org/Graphics/SVG/1.1/DTD/svg11.dtd" >
<svg xmlns="http://www.w3.org/2000/svg" xmlns:xlink="http://www.w3.org/1999/xlink" version="1.1">
<metadata>
Created by FontForge 20170731 at Mon May 11 15:12:39 2020
 By Aleksey,,,
Copyright (c) 2019 by Mans Greback. All rights reserved.
</metadata>
<defs>
<font id="Quache-LightExpanded" horiz-adv-x="0" >
  <font-face 
    font-family="Quache Light Expanded"
    font-weight="300"
    font-stretch="expanded"
    units-per-em="1000"
    panose-1="0 0 4 5 0 0 0 0 0 0"
    ascent="800"
    descent="-200"
    x-height="653"
    cap-height="895"
    bbox="-558 -348.038 1803 1311"
    underline-thickness="50"
    underline-position="-200"
    unicode-range="U+000D-2265"
  />
<missing-glyph horiz-adv-x="863" 
d="M0 -3v949h863v-949h-863zM20 17h823v909h-823v-909zM374 275q-9 49 10.5 90.5t55.5 69t80 56.5t83 53t65.5 58.5t26.5 73.5q0 69 -66.5 112.5t-185.5 43.5q-89 0 -171.5 -33.5t-136.5 -85.5l-18 22q62 57 147.5 91t179.5 34q135 0 209.5 -51t74.5 -131q0 -39 -20 -72
t-51.5 -57.5t-69.5 -47.5t-74.5 -46t-65 -48t-43 -58.5t-7.5 -73.5h-23zM385 84q-10 0 -18 7.5t-8 17.5t8 17.5t18 7.5t17.5 -7.5t7.5 -17.5t-7.5 -17.5t-17.5 -7.5z" />
    <glyph glyph-name="f_i.liga" unicode="fi" horiz-adv-x="671" 
d="M198 0v622h-191v32h192q11 285 212 285q39 0 88 -15q2 -21 -6 -31q-38 13 -76 13q-172 -1 -180 -252h340v-654h-38v622h-303v-622h-38zM558 826q-13 0 -22 9t-9 22t9 22.5t22 9.5t22 -9.5t9 -22.5t-9 -22t-22 -9z" />
    <glyph glyph-name="f_l.liga" unicode="fl" horiz-adv-x="783" 
d="M669 -18q-62 0 -91 44.5t-29 142.5v713q-65 25 -128 25q-176 -1 -185 -254h230v-32h-230v-621h-38v621h-191v32h191q12 285 222 285q78 0 166 -35v-726q0 -87 22.5 -125t70.5 -38q27 0 81 17q10 -12 4 -30q-54 -18 -95 -19z" />
    <glyph glyph-name=".notdef" horiz-adv-x="863" 
d="M0 -3v949h863v-949h-863zM20 17h823v909h-823v-909zM374 275q-9 49 10.5 90.5t55.5 69t80 56.5t83 53t65.5 58.5t26.5 73.5q0 69 -66.5 112.5t-185.5 43.5q-89 0 -171.5 -33.5t-136.5 -85.5l-18 22q62 57 147.5 91t179.5 34q135 0 209.5 -51t74.5 -131q0 -39 -20 -72
t-51.5 -57.5t-69.5 -47.5t-74.5 -46t-65 -48t-43 -58.5t-7.5 -73.5h-23zM385 84q-10 0 -18 7.5t-8 17.5t8 17.5t18 7.5t17.5 -7.5t7.5 -17.5t-7.5 -17.5t-17.5 -7.5z" />
    <glyph glyph-name=".null" 
 />
    <glyph glyph-name="nonmarkingreturn" horiz-adv-x="333" 
 />
    <glyph glyph-name="CR" unicode="&#xd;" horiz-adv-x="600" 
 />
    <glyph glyph-name="space" unicode=" " horiz-adv-x="402" 
 />
    <glyph glyph-name="exclam" unicode="!" horiz-adv-x="354" 
d="M161 273l-3 640h37l-2 -640h-32zM177 0q-12 0 -20.5 9t-8.5 21t8.5 20.5t20.5 8.5q11 0 20 -8.5t9 -20.5t-9 -21t-20 -9z" />
    <glyph glyph-name="quotedbl" unicode="&#x22;" horiz-adv-x="455" 
d="M111 657l52 291h36l-58 -291h-30zM255 657l52 291h37l-59 -291h-30z" />
    <glyph glyph-name="numbersign" unicode="#" horiz-adv-x="851" 
d="M740 590h-136l-28 -280h133v-30h-136l-16 -165h-33l16 165h-273l-17 -165h-33l17 165h-123v30h126l28 280h-122v31h125l15 150h33l-15 -150h273l15 150h33l-15 -150h133v-31zM543 310l28 280h-273l-28 -280h273z" />
    <glyph glyph-name="dollar" unicode="$" horiz-adv-x="950" 
d="M840 235q0 -93 -89.5 -160t-246.5 -74v-131h-29v130h-5q-240 0 -359 129l18 28q108 -124 348 -124q150 0 237.5 60t87.5 143q0 54 -36 94t-94 63.5t-128 42.5l-140 38t-128 42.5t-94 62.5t-36 92q0 35 16.5 67.5t52.5 62.5t103 48.5t157 19.5v125h29v-125
q106 -3 188 -33.5t127 -76.5l-13 -29q-51 48 -134 77.5t-188 29.5q-80 0 -141 -15t-94.5 -40t-49.5 -52.5t-16 -56.5q0 -46 36 -80t94 -54.5t128 -38t140.5 -38.5t128.5 -47.5t94 -72.5t36 -107z" />
    <glyph glyph-name="percent" unicode="%" horiz-adv-x="1085" 
d="M134 0l773 890h44l-772 -890h-45zM343 493q-102 0 -167 50.5t-65 138.5q0 86 63.5 138t168.5 52t169 -51.5t64 -138.5q0 -86 -67 -137.5t-166 -51.5zM343 520q83 0 139.5 45t56.5 117q0 74 -54 118t-142 44q-87 0 -141 -45t-54 -117t54 -117t141 -45zM726 -2
q-102 0 -167 50.5t-65 138.5q0 85 64 137t168 52q105 0 169.5 -51.5t64.5 -137.5q0 -87 -67 -138t-167 -51zM726 25q84 0 140.5 44.5t56.5 117.5t-54.5 117.5t-142.5 44.5q-87 0 -141 -45t-54 -117q0 -73 54.5 -117.5t140.5 -44.5z" />
    <glyph glyph-name="ampersand" unicode="&#x26;" horiz-adv-x="1058" 
d="M947 26l-23 -26l-156 124q-126 -142 -324 -142q-147 0 -240 59.5t-93 159.5q0 82 63 142.5t173 112.5q-63 49 -100.5 84.5t-67 82.5t-29.5 91q0 82 81.5 140.5t245.5 58.5q150 0 233.5 -58t83.5 -130q0 -25 -11.5 -48.5t-26.5 -42.5t-45.5 -39.5t-53.5 -34.5t-66.5 -33.5
t-67.5 -29.5t-73 -30q-7 -3 -20 -8t-19 -8q95 -73 103 -79l247 -198q44 59 67.5 126t24.5 125h34q0 -66 -25 -139t-72 -135zM188 713q0 -55 50 -111.5t145 -129.5q15 7 45 19q48 19 72.5 29t65.5 28.5t63 31t50.5 31t42 35t24 36.5t10.5 41q0 59 -75 108t-204 49
q-142 0 -215.5 -48t-73.5 -119zM448 15q175 0 291 132l-253 202q-37 30 -111 86q-107 -49 -166.5 -103.5t-59.5 -128.5q0 -84 82.5 -136t216.5 -52z" />
    <glyph glyph-name="quotesingle" unicode="'" horiz-adv-x="311" 
d="M111 657l53 291h36l-59 -291h-30z" />
    <glyph glyph-name="parenleft" unicode="(" horiz-adv-x="652" 
d="M509 -244q-91 45 -157 114t-102 152t-52 168.5t-16 179.5q0 79 19.5 162t61 170t118.5 164.5t179 126.5l14 -21l-3 -7q-94 -47 -165.5 -120.5t-110.5 -156t-57.5 -162.5t-18.5 -156q0 -427 302 -586l2 -7z" />
    <glyph glyph-name="parenright" unicode=")" horiz-adv-x="654" 
d="M135 -244l-14 21l2 7q302 159 302 586q0 77 -18.5 156.5t-57.5 162t-110 156t-166 120.5l-2 7l13 21q102 -49 179 -126.5t118.5 -164.5t61 -170t19.5 -162q0 -94 -16 -179.5t-52 -168.5t-102 -152t-157 -114z" />
    <glyph glyph-name="asterisk" unicode="*" horiz-adv-x="560" 
d="M450 752l-149 -55l100 -140l-28 -20l-93 145l-93 -145l-27 20l100 140l-149 55l12 29l144 -60l-4 176h34l-4 -176l145 60z" />
    <glyph glyph-name="plus" unicode="+" horiz-adv-x="769" 
d="M659 453v-33h-258v-280h-33v280h-257v33h257v282h33v-282h258z" />
    <glyph glyph-name="comma" unicode="," horiz-adv-x="261" 
d="M52 -172l56 323h36l-58 -323h-34z" />
    <glyph glyph-name="hyphen" unicode="-" horiz-adv-x="999" 
d="M212 343v31h575v-31h-575z" />
    <glyph glyph-name="period" unicode="." horiz-adv-x="357" 
d="M178 0q-12 0 -21 9t-9 22t9 22.5t21 9.5q13 0 22.5 -9.5t9.5 -22.5t-9.5 -22t-22.5 -9z" />
    <glyph glyph-name="slash" unicode="/" horiz-adv-x="831" 
d="M-18 -130l826 1124h41l-827 -1124h-40z" />
    <glyph glyph-name="zero" unicode="0" horiz-adv-x="835" 
d="M416 -18q-169 0 -269 130.5t-100 330.5q0 219 99.5 344.5t269.5 125.5q173 0 272.5 -125t99.5 -345q0 -195 -101 -328t-271 -133zM416 15q150 0 242 121t92 307q0 205 -89 321t-245 116q-153 0 -242 -117.5t-89 -319.5q0 -188 90.5 -308t240.5 -120z" />
    <glyph glyph-name="one" unicode="1" horiz-adv-x="619" 
d="M572 29q2 -10 0 -29h-525q-4 12 0 29l246 6v819l-214 -57q-5 14 -2 29l232 64h23v-855z" />
    <glyph glyph-name="two" unicode="2" horiz-adv-x="822" 
d="M48 0v28q26 64 78 120.5t113 98t129 80.5t130 75t112.5 73.5t81 84.5t30.5 100q0 102 -81.5 161t-233.5 59q-211 0 -311 -100q-15 13 -19 26q109 107 333 107q170 0 260.5 -69t90.5 -183q0 -57 -29.5 -106.5t-78.5 -89t-110 -76.5t-127.5 -75t-127 -77.5t-112.5 -92.5
t-80 -112h677q3 -16 0 -32h-725z" />
    <glyph glyph-name="three" unicode="3" horiz-adv-x="826" 
d="M487 482q149 -32 221 -93.5t72 -159.5q0 -106 -97 -176.5t-270 -70.5q-117 0 -212 31t-154 87q1 14 17 30q51 -51 141.5 -83t206.5 -32q145 0 237 58.5t92 155.5q0 58 -28.5 101t-83 70.5t-122 44t-155.5 24.5q-4 20 0 34q168 0 267 55t99 152q0 83 -85.5 132t-230.5 49
q-93 0 -186.5 -31.5t-134.5 -69.5q-12 9 -16 27q47 43 144.5 75t195.5 32q165 0 258.5 -59t93.5 -153q0 -85 -69.5 -145.5t-200.5 -84.5z" />
    <glyph glyph-name="four" unicode="4" horiz-adv-x="847" 
d="M798 267q5 -14 0 -32h-99v-235h-38v235h-614v29l621 626h31v-623h99zM99 267h564l2 575z" />
    <glyph glyph-name="five" unicode="5" horiz-adv-x="838" 
d="M393 589q192 1 295 -81.5t103 -220.5q0 -127 -99 -216t-275 -89q-128 0 -223.5 38.5t-146.5 98.5q0 18 16 29q52 -61 142.5 -96.5t206.5 -35.5q164 0 252 80t88 191q0 124 -97 198t-275 73q-129 -2 -278 -36l39 368h622q2 -17 -3 -32h-584l-32 -299q133 30 249 30z" />
    <glyph glyph-name="six" unicode="6" horiz-adv-x="826" 
d="M422 507q179 0 268 -71t89 -175q0 -109 -98 -194t-269 -85q-173 0 -269 87.5t-96 238.5q0 179 140 328.5t414 259.5q18 -12 20 -29q-430 -172 -515 -434q53 31 138 52.5t178 21.5zM412 15q148 0 238 73.5t90 172.5q0 92 -81.5 152.5t-244.5 60.5q-98 0 -183.5 -23
t-134.5 -55q-10 -41 -10 -91q0 -132 83 -211t243 -79z" />
    <glyph glyph-name="seven" unicode="7" horiz-adv-x="810" 
d="M42 890h724v-33q-174 -107 -291.5 -342t-118.5 -515h-41q1 273 114 505.5t287 352.5h-674q-4 10 0 32z" />
    <glyph glyph-name="eight" unicode="8" horiz-adv-x="827" 
d="M487 501q129 -31 211 -101t82 -171q0 -107 -91.5 -177t-275.5 -70q-182 0 -274 70t-92 177q0 58 25.5 105.5t70 79.5t92.5 52.5t104 34.5q-267 53 -267 194q0 38 19 75t57.5 70t107 53t157.5 20t157 -18.5t107 -49.5t58 -66.5t19 -74.5q0 -75 -72.5 -126.5t-194.5 -76.5z
M110 692q0 -39 23.5 -69t68 -50.5t94 -33.5t115.5 -24q305 53 305 186q0 72 -75 125.5t-228 53.5q-80 0 -141 -17.5t-95 -46t-50.5 -60t-16.5 -64.5zM413 15q165 0 246.5 62t81.5 153q0 70 -46.5 124.5t-118 86.5t-164.5 48q-90 -15 -160 -45t-118 -85.5t-48 -127.5
q0 -91 81 -153.5t246 -62.5z" />
    <glyph glyph-name="nine" unicode="9" horiz-adv-x="826" 
d="M412 913q174 0 270.5 -84t96.5 -230q0 -188 -140.5 -345.5t-415.5 -270.5q-17 12 -19 28q198 83 335 197.5t183 258.5q-51 -29 -138 -50.5t-182 -21.5q-179 0 -267.5 71.5t-88.5 175.5q0 50 23.5 97.5t68 86.5t116 63t158.5 24zM85 642q0 -92 81.5 -153.5t244.5 -61.5
q98 0 185 21t134 50q10 47 10 104q0 125 -84 201t-244 76q-145 0 -236 -70t-91 -167z" />
    <glyph glyph-name="colon" unicode=":" horiz-adv-x="357" 
d="M178 594q-12 0 -21 9.5t-9 21.5q0 13 9 22.5t21 9.5q13 0 22.5 -9.5t9.5 -22.5q0 -12 -9.5 -21.5t-22.5 -9.5zM178 0q-12 0 -21 9t-9 22t9 22.5t21 9.5q13 0 22.5 -9.5t9.5 -22.5t-9.5 -22t-22.5 -9z" />
    <glyph glyph-name="semicolon" unicode=";" horiz-adv-x="264" 
d="M108 594q-13 0 -22 9.5t-9 21.5q0 13 9 22.5t22 9.5t22 -9.5t9 -22.5q0 -12 -9 -21.5t-22 -9.5zM52 -172l56 323h36l-58 -323h-34z" />
    <glyph glyph-name="less" unicode="&#x3c;" horiz-adv-x="772" 
d="M661 703l-502 -270l500 -269l-14 -27l-534 283v25l536 285z" />
    <glyph glyph-name="equal" unicode="=" horiz-adv-x="770" 
d="M111 507v32h548v-32h-548zM111 334v33h548v-33h-548z" />
    <glyph glyph-name="greater" unicode="&#x3e;" horiz-adv-x="772" 
d="M125 730l536 -285v-25l-534 -283l-15 27l501 269l-502 270z" />
    <glyph glyph-name="question" unicode="?" horiz-adv-x="835" 
d="M349 245q-9 48 6 89.5t47 72t72.5 58t82.5 53t77.5 52t58 60.5t22.5 72q0 79 -76 129t-212 50q-101 0 -197.5 -39t-153.5 -97l-21 24q71 65 169 104.5t205 39.5q154 0 239 -59t85 -150q0 -44 -23 -82t-59 -66t-79 -54t-84.5 -52t-74.5 -54.5t-49.5 -67t-8.5 -83.5h-26z
M362 0q-11 0 -20.5 9t-9.5 21t9 20.5t21 8.5t21 -8.5t9 -20.5t-9 -21t-21 -9z" />
    <glyph glyph-name="at" unicode="@" horiz-adv-x="1278" 
d="M647 -190q-237 0 -386.5 133t-149.5 367q0 240 149 377.5t390 137.5q151 0 266.5 -55.5t183 -168t67.5 -267.5q0 -118 -51.5 -186.5t-132.5 -68.5q-120 0 -136 105q-23 -39 -79 -72t-128 -33q-124 0 -186.5 69.5t-62.5 170.5t62.5 171t186.5 70q121 0 202 -68v53h29v-319
q0 -114 113 -114q66 0 107.5 58.5t41.5 163.5q0 222 -132.5 341.5t-350.5 119.5q-228 0 -366 -130.5t-138 -354.5q0 -218 139.5 -343.5t361.5 -125.5q79 0 151.5 20.5t112.5 51.5l18 -25q-44 -33 -120.5 -55.5t-161.5 -22.5zM644 109q65 0 119 31t76 77v242q-73 71 -195 71
q-107 0 -162.5 -60.5t-55.5 -150.5q0 -91 55 -150.5t163 -59.5z" />
    <glyph glyph-name="A" unicode="A" horiz-adv-x="987" 
d="M521 892q63 -125 248.5 -488t203.5 -398l-2 -6q-33 0 -42 3q-36 67 -120 237h-628l-124 -240h-43l467 892q7 3 20.5 3t19.5 -3zM198 272h595q-85 170 -291 587z" />
    <glyph glyph-name="B" unicode="B" horiz-adv-x="917" 
d="M629 523q245 -45 245 -236q0 -145 -111 -224.5t-301 -80.5q-131 -1 -208 8.5t-170 34.5v855q82 19 153 26t184 7q85 0 152 -14.5t106.5 -37t65.5 -52.5t35.5 -58t9.5 -56q0 -58 -42 -104.5t-119 -67.5zM422 882q-191 0 -300 -27v-369q60 22 158.5 35.5t190.5 13.5
q52 0 89 -4q91 12 141.5 57t50.5 104q0 33 -15.5 63.5t-50.5 60.5t-103 48t-161 18zM460 14q181 0 279 73.5t98 197.5q0 218 -371 218q-202 0 -344 -50v-402q129 -37 338 -37z" />
    <glyph glyph-name="C" unicode="C" horiz-adv-x="882" 
d="M490 -18q-125 0 -225.5 54t-161.5 161t-61 250q0 129 60 235t164 168t231 63q150 2 248 -87t92 -221q-21 -8 -38 -3q4 119 -83 199.5t-219 78.5q-178 -3 -297 -128t-119 -306q0 -199 117 -315t292 -116q75 0 158 25t148 74q9 -3 14.5 -12.5t5.5 -14.5q-70 -52 -159 -78.5
t-167 -26.5z" />
    <glyph glyph-name="D" unicode="D" horiz-adv-x="957" 
d="M416 913q226 0 362.5 -126.5t136.5 -329.5q0 -213 -129.5 -343.5t-346.5 -131.5q-121 0 -187.5 9t-167.5 34v855q140 33 332 33zM438 14q201 0 319 122.5t119 320.5q0 183 -123.5 303.5t-337.5 120.5q-188 0 -293 -26v-803q135 -38 316 -38z" />
    <glyph glyph-name="E" unicode="E" horiz-adv-x="856" 
d="M810 32q4 -4 4 -15t-4 -17h-726v887l6 5h694q5 -18 -6 -32h-656v-414h566q2 -8 -0.5 -18.5t-6.5 -13.5h-559v-382h688z" />
    <glyph glyph-name="F" unicode="F" horiz-adv-x="829" 
d="M779 859h-657v-466h564q3 -7 0.5 -17.5t-6.5 -14.5h-558v-361h-38v885l6 6h696q4 -13 -7 -32z" />
    <glyph glyph-name="G" unicode="G" horiz-adv-x="935" 
d="M502 880q-189 0 -305 -126.5t-116 -307.5q0 -197 122 -314t316 -117q193 0 334 88v279h-379q-3 17 8 33h401l7 -8v-320q-72 -51 -172.5 -78t-198.5 -27q-208 0 -342.5 125.5t-134.5 339.5q0 91 32 175t89.5 149t145.5 103.5t192 38.5q167 0 281 -83t109 -213
q-22 -9 -39 -3q0 119 -99.5 192.5t-250.5 73.5z" />
    <glyph glyph-name="H" unicode="H" horiz-adv-x="931" 
d="M808 892q7 3 20 3t18 -3v-892h-38v388h-686v-388h-38v892q18 9 38 0v-471h686v471z" />
    <glyph glyph-name="I" unicode="I" horiz-adv-x="206" 
d="M84 0v892q7 3 19.5 3t17.5 -3v-892h-37z" />
    <glyph glyph-name="J" unicode="J" horiz-adv-x="929" 
d="M447 -18q-105 0 -211 56.5t-187 144.5q5 21 23 28q75 -84 174.5 -140t198.5 -56q155 0 249 102.5t94 262.5v512q21 8 38 0v-520q0 -106 -43.5 -193.5t-131 -142t-204.5 -54.5z" />
    <glyph glyph-name="K" unicode="K" horiz-adv-x="991" 
d="M486 469q184 -195 299.5 -305.5t187.5 -152.5v-7q-21 -6 -42 -6q-124 71 -477 454q-156 -81 -332 -154v-298h-38v892q7 3 20 2.5t18 -2.5v-558q315 137 456 226q296 183 286 331q18 7 37 1q15 -159 -292 -353q-58 -36 -123 -70z" />
    <glyph glyph-name="L" unicode="L" horiz-adv-x="841" 
d="M94 0l-10 10v882q6 3 19.5 2.5t18.5 -2.5v-860h686q4 -6 4 -16t-4 -16h-714z" />
    <glyph glyph-name="M" unicode="M" horiz-adv-x="1162" 
d="M1120 0h-39l-86 829l-400 -669h-29l-400 669l-86 -829h-38l93 886q5 5 17.5 7t17.5 -1l411 -687l410 687q6 2 18.5 -0.5t16.5 -6.5z" />
    <glyph glyph-name="N" unicode="N" horiz-adv-x="1024" 
d="M902 892q15 9 38 0v-892h-31l-787 834v-834h-38v883q4 4 14.5 8t15.5 2l788 -835v834z" />
    <glyph glyph-name="O" unicode="O" horiz-adv-x="985" 
d="M449 -18q-184 0 -295 121t-112 300q0 106 38.5 200.5t104.5 162.5t158.5 107.5t196.5 39.5q173 0 289 -131.5t114 -313.5q0 -97 -39.5 -187t-106 -155.5t-157.5 -104.5t-191 -39zM451 15q121 0 225 61t165.5 166t62.5 228q2 172 -104.5 290.5t-263.5 118.5
q-193 0 -324.5 -137.5t-130.5 -337.5q1 -162 100.5 -275.5t269.5 -113.5z" />
    <glyph glyph-name="P" unicode="P" horiz-adv-x="916" 
d="M874 591q1 -142 -120.5 -225.5t-309.5 -83.5q-175 0 -322 47v-329h-38v871q156 42 373 42q189 0 303 -86t114 -236zM835 591q1 134 -101.5 212t-278.5 78q-210 0 -333 -37v-479q133 -50 320 -50q171 0 281.5 72.5t111.5 203.5z" />
    <glyph glyph-name="Q" unicode="Q" horiz-adv-x="985" 
d="M943 468q-1 -188 -132.5 -328.5t-320.5 -155.5q92 -106 256 -104q77 0 175 31q13 -14 7 -34q-97 -25 -173 -26q-202 -3 -305 131h-1q-184 0 -295 121t-112 300q0 106 38.5 200.5t104.5 162.5t158.5 107.5t196.5 39.5q173 0 289 -131.5t114 -313.5zM451 15q121 0 225 61
t165.5 166t62.5 228q2 172 -104.5 290.5t-263.5 118.5q-193 0 -324.5 -137.5t-130.5 -337.5q1 -162 100.5 -275.5t269.5 -113.5z" />
    <glyph glyph-name="R" unicode="R" horiz-adv-x="981" 
d="M594 316q125 -130 204 -202.5t136 -104.5v-6q-15 -5 -41 -5q-95 43 -344 310q-46 -7 -103 -7q-83 1 -174 15t-150 30v-346h-38v871q157 42 378 42q189 0 300 -83t111 -229q0 -109 -76.5 -183.5t-202.5 -101.5zM446 333q105 -2 192 27.5t141.5 92t54.5 148.5
q-1 125 -98 202.5t-277 77.5q-207 0 -337 -34v-467q155 -45 324 -47z" />
    <glyph glyph-name="S" unicode="S" horiz-adv-x="923" 
d="M490 -18q-123 0 -240 36t-208 103q4 23 21 30q185 -137 426 -137q166 0 259.5 62t93.5 162q0 55 -29 94t-84 61t-116.5 32.5t-144.5 15.5q-149 8 -238.5 63t-89.5 165q0 78 54.5 135.5t130 83t155.5 25.5q184 0 288 -72.5t104 -183.5q-24 -7 -39 -4q-2 107 -98.5 167.5
t-254.5 60.5q-121 0 -211 -59t-90 -154q0 -66 43.5 -110t106.5 -62.5t145 -22.5q200 -10 303.5 -66t103.5 -167q0 -112 -101.5 -185t-289.5 -73z" />
    <glyph glyph-name="T" unicode="T" horiz-adv-x="913" 
d="M882 892q3 -20 -7 -32h-417v-860h-39v860h-388q-4 20 6 32h845z" />
    <glyph glyph-name="U" unicode="U" horiz-adv-x="1023" 
d="M498 -19q-195 0 -304.5 103t-109.5 302v506q7 3 20 2.5t19 -2.5v-508q0 -182 100 -276t275 -94q181 0 291 106.5t110 275.5v496q16 6 39 0v-498q0 -176 -117.5 -294.5t-322.5 -118.5z" />
    <glyph glyph-name="V" unicode="V" horiz-adv-x="938" 
d="M470 0l-12 8q-80 218 -233 510.5t-211 366.5l3 7q18 5 36 0q83 -121 223.5 -386.5t211.5 -472.5h6q58 73 113.5 152.5t111.5 177t95.5 187t59 180t7.5 159.5q12 9 36 3q28 -158 -84 -394.5t-314 -489.5l-13 -8h-36z" />
    <glyph glyph-name="W" unicode="W" horiz-adv-x="1370" 
d="M483 0l-13 8q-83 229 -215.5 474t-240.5 403l3 7q18 5 36 0q122 -183 246.5 -416t199.5 -443h5q70 96 151 236t106 222q-14 34 -101 234q8 16 34 14q51 -105 149 -339.5t145 -366.5h4q168 209 256.5 439.5t60.5 417.5q12 8 37 2q30 -187 -59 -427t-267 -455l-16 -10h-38
l-9 6q-105 273 -178 434q-24 -76 -111.5 -224t-136.5 -210l-13 -6h-35z" />
    <glyph glyph-name="X" unicode="X" horiz-adv-x="976" 
d="M516 438q18 -17 208.5 -202t237.5 -229l-3 -7h-42q-39 33 -232.5 221t-202.5 197q-16 -11 -58 -39.5t-59 -40t-54 -38t-54 -40.5t-47.5 -39t-46 -41.5t-37 -41t-33.5 -45t-23 -45t-16 -48.5h-40q14 60 47.5 113.5t94 107.5t109.5 90t140 99q34 23 51 35
q-71 70 -212.5 219.5t-201.5 219.5l2 7q22 7 44 1q46 -57 183.5 -202t217.5 -225q101 73 162.5 121.5t119 104t82 104t21.5 95.5q10 7 37 2q6 -93 -80 -191t-315 -263z" />
    <glyph glyph-name="Y" unicode="Y" horiz-adv-x="897" 
d="M882 892q15 -271 -383 -602v-290h-38v292q-53 78 -221 304.5t-225 288.5l3 7q20 6 41 0q44 -46 197.5 -253t228.5 -314q164 132 265 282.5t93 282.5q14 7 39 2z" />
    <glyph glyph-name="Z" unicode="Z" horiz-adv-x="898" 
d="M852 32q4 -4 4 -15t-4 -17h-801q-11 8 -9 26q101 158 218.5 313t253.5 299t249 222h-686q-4 5 -4 15t4 17h743q5 -3 8.5 -13t2.5 -17q-178 -117 -379 -351.5t-359 -478.5h759z" />
    <glyph glyph-name="bracketleft" unicode="[" horiz-adv-x="515" 
d="M111 -233v1227h293v-31h-260v-1165h260v-31h-293z" />
    <glyph glyph-name="backslash" unicode="\" horiz-adv-x="827" 
d="M847 -130h-40l-827 1124h41z" />
    <glyph glyph-name="bracketright" unicode="]" horiz-adv-x="515" 
d="M404 -233h-293v31h260v1165h-260v31h293v-1227z" />
    <glyph glyph-name="asciicircum" unicode="^" horiz-adv-x="892" 
d="M773 509h-47l-278 349l-282 -349h-46l317 387h22z" />
    <glyph glyph-name="underscore" unicode="_" horiz-adv-x="719" 
d="M111 -29v29h498v-29h-498z" />
    <glyph glyph-name="grave" unicode="`" horiz-adv-x="352" 
d="M254 736l-186 245h41l175 -245h-30z" />
    <glyph glyph-name="a" unicode="a" horiz-adv-x="736" 
d="M664 139q0 -63 7 -88t23 -45l-1 -6h-34q-16 16 -24 40.5t-8 80.5l-1 116q-42 -107 -145 -181t-227 -74q-99 0 -154.5 45t-55.5 118q0 118 127.5 184t331.5 66q69 0 119 -5q-6 130 -69.5 204.5t-169.5 74.5q-118 2 -267 -94q-12 6 -14 28q150 97 282 97q129 0 203.5 -90
t75.5 -258zM623 350l1 13q-63 6 -121 6q-194 0 -307 -59.5t-113 -160.5q0 -62 46 -99t131 -37q76 0 145 31.5t115 81t74 109t29 115.5z" />
    <glyph glyph-name="b" unicode="b" horiz-adv-x="782" 
d="M444 700q133 0 216.5 -94.5t83.5 -241.5q0 -154 -98 -268t-244 -114q-99 0 -172.5 57t-109.5 144v-41q0 -80 -17 -142h-35v9q14 59 14 157v766q7 2 19.5 2t17.5 -2v-501q33 118 125.5 193.5t199.5 75.5zM397 15q134 0 222 106t87 243q0 135 -74.5 219.5t-189.5 84.5
q-83 0 -157.5 -51t-119.5 -135.5t-45 -177.5q0 -112 80 -200.5t197 -88.5z" />
    <glyph glyph-name="c" unicode="c" horiz-adv-x="725" 
d="M365 -18q-134 0 -230.5 94.5t-96.5 246.5q0 159 108 268t253 109q136 0 214.5 -92t73.5 -233q-23 -8 -38 -2q2 129 -64.5 211.5t-187.5 83.5q-130 0 -225.5 -101t-95.5 -244q0 -137 84.5 -222.5t205.5 -85.5q154 0 269 103q10 -3 15.5 -12t5.5 -13q-125 -111 -291 -111z
" />
    <glyph glyph-name="d" unicode="d" horiz-adv-x="786" 
d="M705 166q0 -102 13 -157v-9h-32q-18 45 -18 144v80q-35 -101 -119.5 -171.5t-198.5 -70.5q-137 0 -224.5 93t-87.5 241q0 158 100.5 271t253.5 113q96 0 171.5 -61.5t103.5 -158.5v452q5 2 18 2t20 -2v-766zM354 15q134 0 222.5 106.5t88.5 241.5q0 130 -77.5 217
t-190.5 87q-135 0 -228 -102.5t-93 -247.5q0 -132 77 -217t201 -85z" />
    <glyph glyph-name="e" unicode="e" horiz-adv-x="722" 
d="M390 700q140 0 222.5 -91t75.5 -249l-10 -11l-601 -71q11 -122 91 -192.5t195 -70.5q139 0 263 107q9 -4 19 -24q-135 -116 -285 -116q-136 -1 -228 86.5t-94 236.5q-2 163 100 279t252 116zM649 373q4 141 -67 218.5t-192 77.5q-133 0 -224.5 -107.5t-89.5 -254.5z" />
    <glyph glyph-name="f" unicode="f" horiz-adv-x="392" 
d="M402 906q-172 -1 -181 -253h251v-32h-251v-621h-38v621h-176v32h176q11 285 214 285q54 0 128 -22q2 -22 -8 -32q-63 22 -115 22z" />
    <glyph glyph-name="g" unicode="g" horiz-adv-x="785" 
d="M683 658q17 1 34 -3v-7q-13 -79 -13 -140v-428q0 -169 -92.5 -265.5t-236.5 -96.5q-159 0 -310 114q2 22 15 29q149 -111 292 -111q129 1 212.5 89t84.5 241v156q-31 -111 -118 -182.5t-201 -71.5q-133 0 -223 90.5t-89 242.5q0 157 100 271t252 114q101 0 176 -64
t104 -159l-1 87zM352 15q129 0 220.5 100t92.5 257q-2 110 -77 203t-192 93q-139 0 -229 -105.5t-91 -245.5q-1 -129 75 -215.5t201 -86.5z" />
    <glyph glyph-name="h" unicode="h" horiz-adv-x="772" 
d="M447 700q131 0 202.5 -91t71.5 -255v-354h-38v352q0 143 -62 228.5t-180 85.5q-87 0 -165.5 -56.5t-124 -142t-45.5 -171.5v-296h-38v932q24 7 38 0v-495q41 108 136 185.5t205 77.5z" />
    <glyph glyph-name="i" unicode="i" horiz-adv-x="225" 
d="M112 826q-12 0 -21.5 9t-9.5 21q0 13 9.5 22.5t21.5 9.5q13 0 22.5 -9.5t9.5 -22.5q0 -12 -9.5 -21t-22.5 -9zM94 0v653q7 2 19.5 2t17.5 -2v-653h-37z" />
    <glyph glyph-name="j" unicode="j" horiz-adv-x="238" 
d="M122 826q-12 0 -21.5 9t-9.5 21q0 13 9.5 22.5t21.5 9.5q13 0 22.5 -9.5t9.5 -22.5q0 -12 -9.5 -21t-22.5 -9zM17 -225q-36 0 -90 17q-2 8 0.5 18.5t7.5 15.5q50 -16 78 -16q51 0 71 46t20 157v640q6 2 19 2t18 -2v-657q0 -109 -26.5 -165t-97.5 -56z" />
    <glyph glyph-name="k" unicode="k" horiz-adv-x="817" 
d="M424 332q148 -147 236 -228t123 -94v-7q-12 -6 -45 -6q-61 21 -347 315q-137 -81 -285 -143v-169h-38v932q20 8 38 0v-727q185 82 349 188q118 75 163.5 130.5t40.5 127.5q16 6 41 2q10 -74 -39 -138.5t-173 -142.5z" />
    <glyph glyph-name="l" unicode="l" horiz-adv-x="318" 
d="M204 -18q-62 0 -91.5 45t-29.5 142v763q17 8 38 0v-755q0 -87 22 -125t70 -38q28 0 82 17q9 -13 3 -30q-54 -18 -94 -19z" />
    <glyph glyph-name="m" unicode="m" horiz-adv-x="1132" 
d="M862 700q97 0 149.5 -79.5t52.5 -222.5v-398h-38v397q0 124 -43.5 197t-127.5 73q-76 0 -139 -53t-96 -132t-33 -161v-321h-37v391q0 276 -162 276q-74 0 -137 -56t-97 -140t-34 -170v-301h-38v526q0 71 -14 119v7q22 5 35 3q14 -39 14 -87v-123q33 106 107.5 180.5
t167.5 74.5q169 0 189 -243q33 104 108.5 173.5t172.5 69.5z" />
    <glyph glyph-name="n" unicode="n" horiz-adv-x="803" 
d="M458 700q133 0 204.5 -91t71.5 -255v-354h-37v351q0 145 -62 230.5t-181 85.5q-86 0 -164.5 -57t-124 -142.5t-45.5 -170.5v-297h-38v526q0 71 -14 119v7q22 5 36 3q14 -39 14 -87v-135q39 109 134.5 188t205.5 79z" />
    <glyph glyph-name="o" unicode="o" horiz-adv-x="792" 
d="M369 -18q-155 0 -243 94.5t-88 231.5q0 161 112 276.5t277 115.5q146 0 236.5 -96.5t90.5 -238.5q1 -161 -108.5 -272t-276.5 -111zM370 15q151 0 248.5 102t97.5 245q0 130 -81 218t-210 88q-150 0 -249.5 -107t-99.5 -253q0 -123 77 -208t217 -85z" />
    <glyph glyph-name="p" unicode="p" horiz-adv-x="780" 
d="M440 700q136 0 219 -93t83 -243q0 -100 -43 -187t-122 -141t-174 -54q-98 0 -174.5 58t-111.5 148v-424q-6 -2 -19.5 -2t-18.5 2v753q0 64 -11 129v7q17 6 34 3l15 -79v-129q40 109 130 180.5t193 71.5zM398 15q133 0 219.5 107t86.5 241q0 138 -75 221.5t-191 83.5
q-129 0 -225 -113t-96 -257q0 -110 82.5 -196.5t198.5 -86.5z" />
    <glyph glyph-name="q" unicode="q" horiz-adv-x="783" 
d="M680 655q17 3 34 -3v-8q-11 -69 -11 -125v-755q-5 -2 -18.5 -2t-19.5 2v454q-36 -99 -121.5 -167.5t-186.5 -68.5q-140 0 -229.5 92t-89.5 236q0 172 102 281t247 109q100 0 175 -61t105 -155v100zM360 15q123 0 213.5 104t90.5 242q0 126 -76 216t-196 90
q-129 0 -222.5 -98.5t-93.5 -257.5q0 -128 78.5 -212t205.5 -84z" />
    <glyph glyph-name="r" unicode="r" horiz-adv-x="578" 
d="M543 676q5 -17 -10 -34q-56 23 -110 23q-136 -1 -219.5 -111.5t-83.5 -257.5v-296h-38v526q0 71 -14 119v7q22 5 34 3q14 -39 14 -87v-137q29 115 112 192t197 77q57 0 118 -24z" />
    <glyph glyph-name="s" unicode="s" horiz-adv-x="746" 
d="M391 -18q-90 0 -184.5 28t-162.5 84q6 19 18 28q63 -52 150.5 -79.5t177.5 -27.5q122 0 197.5 45t75.5 113q0 79 -67.5 116.5t-229.5 44.5q-290 15 -290 177q0 79 81 134t219 55q73 0 156.5 -20t153.5 -65q-3 -17 -13 -30q-130 83 -294 83q-129 0 -197 -47.5t-68 -109.5
q0 -134 259 -147q179 -8 253.5 -53t74.5 -137q0 -87 -89 -139.5t-221 -52.5z" />
    <glyph glyph-name="t" unicode="t" horiz-adv-x="534" 
d="M511 621h-366v-326q0 -132 58 -206t164 -74q52 0 123 22q4 -4 6 -14.5t0 -17.5q-72 -23 -132 -23q-119 -1 -188 80t-69 231v328h-96v32h96v182q18 10 38 7v-189h366v-32z" />
    <glyph glyph-name="u" unicode="u" horiz-adv-x="791" 
d="M717 136q0 -59 4.5 -84t18.5 -44v-8h-32q-15 16 -20.5 39t-5.5 79v94q-35 -101 -128.5 -165.5t-217.5 -64.5t-196 72t-72 218v381q15 5 38 0v-376q0 -135 64 -198.5t172 -63.5q146 0 241.5 97t95.5 240v301q6 2 19.5 2t18.5 -2v-517z" />
    <glyph glyph-name="v" unicode="v" horiz-adv-x="719" 
d="M369 0l-9 7q-24 69 -52 134t-58.5 123.5t-55 103t-57.5 95t-48.5 73.5t-46 65.5t-32.5 45.5l3 6q23 5 36 0q229 -298 341 -620h7q131 165 211 338t60 279q13 8 37 3q23 -111 -64 -299t-221 -348l-10 -6h-41z" />
    <glyph glyph-name="w" unicode="w" horiz-adv-x="1043" 
d="M346 0l-10 7q-16 49 -35 99t-37 91.5t-39.5 85.5t-38.5 77t-39 70.5t-36 60.5t-34 53.5t-28 43t-23.5 35t-16.5 23.5l3 7q23 4 36 0q1 -2 22.5 -33t33 -48t37.5 -58.5t44 -74t45 -83.5t48 -97.5t44.5 -106t43.5 -118.5h6q52 77 108.5 184t84.5 185l-76 164q3 6 14 11
t21 4q52 -112 81 -176.5t67 -166t68 -205.5h6q109 146 183 314.5t66 302.5q13 6 36 2q14 -124 -64.5 -310.5t-196.5 -335.5l-10 -7h-37l-10 7q-52 175 -128 347q-20 -60 -81.5 -172.5t-107.5 -174.5l-10 -7h-40z" />
    <glyph glyph-name="x" unicode="x" horiz-adv-x="738" 
d="M395 330l67.5 -63t90 -84.5t88 -85.5t85.5 -89l-2 -8h-42q-106 116 -322 312q-176 -130 -234.5 -189.5t-59.5 -122.5h-36q-3 31 10.5 62t32.5 56.5t66 65.5t83.5 68t112.5 84q-30 32 -80.5 80t-125 117t-118.5 111l2 7q25 5 41 1q43 -42 161.5 -153t152.5 -146
q22 17 68 52t64 49.5t50 41.5t44.5 42t29 36.5t21 40t3.5 37.5q15 6 38 1q2 -23 -3.5 -45t-26.5 -49t-37.5 -45.5t-61.5 -55.5t-71 -57.5t-91 -70.5z" />
    <glyph glyph-name="y" unicode="y" horiz-adv-x="743" 
d="M729 653q10 -108 -18 -239t-106.5 -278.5t-195.5 -256.5q-147 -136 -308 -136q-50 0 -85 16q-7 16 -1 29l7 4q32 -17 80 -17q75 1 150.5 38t138.5 99q55 53 94 105q-63 35 -129 100.5t-118.5 137.5t-99 150t-75.5 138t-45 102l2 7q16 5 36 1q17 -48 57.5 -125.5
t99 -171.5t138 -181t155.5 -131q100 139 147.5 300t39.5 306q15 10 36 3z" />
    <glyph glyph-name="z" unicode="z" horiz-adv-x="700" 
d="M685 33q4 -4 4 -15t-4 -18h-667q-9 9 -7 27q322 464 597 593h-566q-10 12 0 33h633q4 -3 6.5 -14.5t1.5 -19.5q-149 -58 -309.5 -218t-306.5 -368h618z" />
    <glyph glyph-name="braceleft" unicode="{" horiz-adv-x="564" 
d="M339 49q13 -88 44 -148t90 -116l-20 -21q-65 60 -98 121.5t-48 151.5q-5 28 -8.5 63.5t-5.5 61t-6.5 55t-11 50t-19.5 40.5t-31.5 32.5t-47 19.5t-66.5 7v34q55 0 90.5 16t51.5 41t26.5 66.5t14 82t14 98t26.5 104.5q34 97 130 186l19 -21q-85 -80 -117 -175
q-17 -52 -27.5 -117.5t-16 -109.5t-18 -86.5t-41.5 -68t-79 -33.5q37 -7 63.5 -24.5t40.5 -39t23 -56.5t11.5 -63.5t7 -74.5t9.5 -76z" />
    <glyph glyph-name="bar" unicode="|" horiz-adv-x="253" 
d="M111 -231v1243h31v-1243h-31z" />
    <glyph glyph-name="braceright" unicode="}" horiz-adv-x="564" 
d="M247 808q16 -47 26.5 -104.5t14.5 -98t14 -82t26.5 -66.5t52 -41t90.5 -16v-34q-50 0 -84.5 -13t-52.5 -32.5t-28.5 -55t-13 -65.5t-7 -80t-10.5 -83q-15 -90 -48.5 -151.5t-98.5 -121.5l-19 21q59 56 90 116t44 148q4 29 8.5 76t7.5 75t12 63.5t23 56.5t40 38.5t64 24.5
q-50 8 -79 33.5t-41.5 68t-18 86.5t-16 109.5t-27.5 117.5q-31 93 -117 175l18 21q96 -87 130 -186z" />
    <glyph glyph-name="asciitilde" unicode="~" horiz-adv-x="737" 
d="M111 310q0 68 30.5 109.5t78.5 41.5q44 0 96.5 -29.5t104 -59t91.5 -29.5q38 0 60 33t22 85h33q0 -67 -29.5 -109t-80.5 -42q-43 0 -96.5 29.5t-105.5 59t-91 29.5q-36 0 -58.5 -32.5t-22.5 -85.5h-32z" />
    <glyph glyph-name="exclamdown" unicode="&#xa1;" horiz-adv-x="354" 
d="M177 723q-12 0 -20.5 9t-8.5 21t8.5 20.5t20.5 8.5t20.5 -8.5t8.5 -20.5t-8.5 -21t-20.5 -9zM159 -130l1 639h33l2 -639h-36z" />
    <glyph glyph-name="cent" unicode="&#xa2;" horiz-adv-x="916" 
d="M787 186l17 -25q-36 -32 -110.5 -61.5t-172.5 -34.5v-195h-29v194h-6q-167 0 -271 98t-104 280q0 183 106.5 280.5t268.5 97.5h6v176h29v-177q175 -8 285 -97l-19 -25q-119 90 -300 90q-146 0 -242 -88t-96 -257q0 -168 94 -256.5t243 -88.5q103 0 181.5 27.5t119.5 61.5
z" />
    <glyph glyph-name="sterling" unicode="&#xa3;" horiz-adv-x="972" 
d="M213 32h648v-32h-736v32h10q82 0 80 136q0 27 -3 58.5t-9 80t-9 73.5h-83v32h80q-7 77 -7 145q0 140 87 226t246 86q211 0 322 -109l-21 -24q-41 42 -115.5 71.5t-180.5 29.5q-145 0 -222.5 -78.5t-77.5 -204.5q0 -65 7 -142h456v-32h-453q19 -172 20 -213
q0 -96 -39 -135z" />
    <glyph glyph-name="currency" unicode="&#xa4;" horiz-adv-x="603" 
d="M493 253l-21 -23l-92 97q-36 -25 -80 -25q-46 0 -79 24l-89 -95l-21 23l86 94q-30 36 -30 94q0 52 27 90l-83 88l21 22l84 -87q34 29 84 29q51 0 87 -28l83 90l21 -23l-82 -89q27 -38 27 -92q0 -57 -33 -93zM194 442q0 -51 28.5 -83t77.5 -32q47 0 77.5 33t30.5 82
q0 52 -28.5 84t-79.5 32q-48 0 -77 -33.5t-29 -82.5z" />
    <glyph glyph-name="yen" unicode="&#xa5;" horiz-adv-x="998" 
d="M518 388v-22h257v-28h-257v-136h257v-29h-257v-173h-38v173h-258v29h258v136h-258v28h258v22l-369 481h51l337 -444l337 444h51z" />
    <glyph glyph-name="brokenbar" unicode="&#xa6;" horiz-adv-x="253" 
d="M111 481v531h31v-531h-31zM111 -231v534h31v-534h-31z" />
    <glyph glyph-name="section" unicode="&#xa7;" horiz-adv-x="667" 
d="M435 174q104 -72 104 -154q0 -73 -59.5 -116t-160.5 -43q-41 0 -92.5 11t-87.5 29v34q33 -19 86 -30.5t94 -11.5q81 0 130 33.5t49 96.5q0 45 -40 85t-97 72.5t-113.5 66t-96.5 79.5t-40 100q0 48 32 95t86 74q-102 72 -102 166q0 70 60.5 111t159.5 41q41 0 92.5 -10
t87.5 -26v-35q-33 17 -85.5 27.5t-94.5 10.5q-83 0 -132.5 -31.5t-49.5 -89.5q0 -45 29 -83.5t72.5 -63.5t94.5 -54t94.5 -56t72.5 -69t29 -92q0 -51 -34 -97t-88 -70zM149 427q0 -31 14 -58t45 -52t56 -41.5t73 -43t69 -39.5q51 20 82 61t31 86q0 33 -15 61t-45.5 52
t-58 41t-73 41.5t-69.5 39.5q-50 -22 -79.5 -64t-29.5 -84z" />
    <glyph glyph-name="dieresis" unicode="&#xa8;" horiz-adv-x="512" 
d="M99 781q-12 0 -21.5 9t-9.5 21q0 13 9.5 22.5t21.5 9.5q13 0 22.5 -9.5t9.5 -22.5q0 -12 -9.5 -21t-22.5 -9zM413 781q-13 0 -22 9t-9 21q0 13 9 22.5t22 9.5t22 -9.5t9 -22.5q0 -12 -9 -21t-22 -9z" />
    <glyph glyph-name="copyright" unicode="&#xa9;" horiz-adv-x="1247" 
d="M624 -19q-224 0 -368.5 126.5t-144.5 336.5q0 133 71.5 241.5t188.5 168t253 59.5q145 0 261 -57t184 -164.5t68 -247.5q0 -210 -144 -336.5t-369 -126.5zM624 8q97 0 183 28t153.5 80.5t106.5 137t39 189.5t-39 190.5t-106 140t-153.5 83.5t-183.5 29q-128 0 -238 -56.5
t-177.5 -159t-67.5 -227.5q0 -200 136.5 -317.5t346.5 -117.5zM626 206q-115 0 -193.5 66.5t-78.5 170.5q0 108 79 176t195 68q129 0 207 -70l-17 -23q-72 62 -187 62q-99 0 -169.5 -58.5t-70.5 -154.5q0 -93 70 -149.5t167 -56.5q129 0 195 64l19 -20q-67 -75 -216 -75z
" />
    <glyph glyph-name="ordfeminine" unicode="&#xaa;" horiz-adv-x="574" 
d="M439 1074h25v-404h-25v24q-56 -29 -130 -29q-94 0 -146 57t-52 142q0 82 56 145t148 63q71 0 124 -37v39zM311 688q73 0 128 32v284q-48 43 -123 43q-81 0 -130.5 -55t-49.5 -128q0 -78 47 -127t128 -49z" />
    <glyph glyph-name="guillemotleft" unicode="&#xab;" horiz-adv-x="1204" 
d="M662 703l-502 -270l504 -270l-14 -27l-539 285v24l536 283zM589 433l504 -270l-14 -27l-539 285v24l536 283l15 -25z" />
    <glyph glyph-name="logicalnot" unicode="&#xac;" horiz-adv-x="772" 
d="M628 240v181h-517v33h550v-214h-33z" />
    <glyph glyph-name="uni00AD" unicode="&#xad;" horiz-adv-x="1171" 
d="M212 343v31h747v-31h-747z" />
    <glyph glyph-name="registered" unicode="&#xae;" horiz-adv-x="949" 
d="M475 913q97 0 178.5 -37.5t133 -113.5t51.5 -178q0 -153 -105.5 -238.5t-257.5 -85.5q-163 0 -263.5 89t-100.5 235q0 137 106 233t258 96zM475 281q69 0 129.5 19t108 55t75.5 95t28 134q0 145 -98.5 226.5t-242.5 81.5q-142 0 -242 -89.5t-100 -218.5q0 -137 93.5 -220
t248.5 -83zM661 673q0 -47 -34.5 -79t-86.5 -41l102 -185h-24l-101 182h-12h-155v-182h-22v428h177q70 0 113 -34.5t43 -88.5zM504 569q55 0 94.5 29.5t39.5 74.5q0 46 -37.5 75t-96.5 29h-154v-208h154z" />
    <glyph glyph-name="macron" unicode="&#xaf;" horiz-adv-x="628" 
d="M68 817v33h491v-33h-491z" />
    <glyph glyph-name="degree" unicode="&#xb0;" horiz-adv-x="615" 
d="M308 547q-87 0 -142 49.5t-55 133.5q0 79 55.5 131t141.5 52q84 0 140.5 -51.5t56.5 -131.5q0 -81 -58 -132t-139 -51zM308 570q68 0 118.5 44t51.5 115q0 70 -49 115.5t-121 45.5q-73 0 -121.5 -45.5t-49.5 -115.5q0 -73 49 -116t122 -43z" />
    <glyph glyph-name="plusminus" unicode="&#xb1;" horiz-adv-x="770" 
d="M401 517h258v-33h-258v-274h-33v274h-257v33h257v278h33v-278zM111 80v32h548v-32h-548z" />
    <glyph glyph-name="uni00B2" unicode="&#xb2;" horiz-adv-x="880" 
d="M157 291h612v-31h-656v25q25 57 72.5 107.5t103.5 87.5t118 71t118.5 65t102.5 63t73.5 72.5t27.5 85.5q0 84 -74.5 132.5t-211.5 48.5q-194 0 -288 -88l-17 24q102 94 307 94q154 0 236.5 -58.5t82.5 -152.5q0 -67 -50.5 -123.5t-128 -100.5t-159.5 -87t-158.5 -104
t-110.5 -131z" />
    <glyph glyph-name="uni00B3" unicode="&#xb3;" horiz-adv-x="892" 
d="M499 677q145 -22 213.5 -73.5t68.5 -137.5q0 -89 -88 -150t-247 -61q-221 0 -335 106l16 26q105 -101 317 -101q135 0 218.5 50t83.5 131q0 93 -91.5 138.5t-267.5 60.5v28q152 0 245.5 46.5t93.5 125.5q0 69 -80 108.5t-212 39.5q-88 0 -173 -28t-119 -62l-16 26
q43 39 131 67t182 28q154 0 238 -49.5t84 -127.5q0 -74 -68 -124.5t-194 -66.5z" />
    <glyph glyph-name="acute" unicode="&#xb4;" horiz-adv-x="346" 
d="M68 736l168 245h42l-183 -245h-27z" />
    <glyph glyph-name="uni00B5" unicode="&#xb5;" horiz-adv-x="791" 
d="M717 144q0 -65 4.5 -90.5t18.5 -45.5l-1 -8h-31q-14 16 -19.5 37t-5.5 72v124q-27 -108 -121.5 -179.5t-222.5 -71.5q-181 0 -236 151v-388h-34l-1 908q15 4 38 0v-376q0 -135 63.5 -198.5t172.5 -63.5q146 0 241.5 97t95.5 240v301q6 2 20 2t18 -2v-509z" />
    <glyph glyph-name="paragraph" unicode="&#xb6;" horiz-adv-x="768" 
d="M292 -130v701q-84 0 -132.5 45.5t-48.5 112.5q0 69 45.5 115t135.5 46h366v-28h-126v-992h-30v992h-180v-992h-30z" />
    <glyph glyph-name="periodcentered" unicode="&#xb7;" horiz-adv-x="427" 
d="M213 366q-13 0 -22 9.5t-9 21.5q0 13 9 22.5t22 9.5t22 -9.5t9 -22.5q0 -12 -9 -21.5t-22 -9.5z" />
    <glyph glyph-name="cedilla" unicode="&#xb8;" horiz-adv-x="340" 
d="M175 -319q-54 -2 -107 53l22 20q40 -43 82 -43q29 1 48.5 22.5t18.5 53.5q0 45 -43 94q-39 43 -49 65.5t-10 61.5h33q0 -37 9 -56.5t47 -62.5q46 -50 46 -105q0 -44 -27.5 -73t-69.5 -30z" />
    <glyph glyph-name="uni00B9" unicode="&#xb9;" horiz-adv-x="709" 
d="M375 291h223v-31h-484v31h227v720l-214 -45l-6 27l235 50h19v-752z" />
    <glyph glyph-name="ordmasculine" unicode="&#xba;" horiz-adv-x="561" 
d="M281 668q-79 0 -140 50.5t-61 144.5q0 96 56 151t145 55t144.5 -55t55.5 -151q0 -94 -60.5 -144.5t-139.5 -50.5zM281 691q71 0 123 44t52 128q0 86 -48.5 134t-126.5 48q-79 0 -127.5 -48t-48.5 -134q0 -84 52.5 -128t123.5 -44z" />
    <glyph glyph-name="guillemotright" unicode="&#xbb;" horiz-adv-x="1204" 
d="M664 445v-24l-539 -285l-14 27l504 270l-503 270l15 25zM556 728l537 -283v-24l-539 -285l-14 27l504 270l-502 270z" />
    <glyph glyph-name="onequarter" unicode="&#xbc;" horiz-adv-x="1243" 
d="M111 434v31h165v543l-151 -49l-1 32l163 52h22v-578h153v-31h-351zM1096 1043h36l-862 -1173h-36zM1030 479v-409h61v-31h-61v-169h-33v169h-271v22l273 418h31zM1002 70v368l-240 -368h240z" />
    <glyph glyph-name="onehalf" unicode="&#xbd;" horiz-adv-x="1262" 
d="M111 438v31h165v542l-151 -48l-1 31l163 52h22v-577h153v-31h-351zM1082 1043h36l-863 -1173h-36zM839 -99h311v-31h-352v26q25 36 67.5 82.5t81 86.5t75 82.5t58.5 85t22 79.5q0 59 -38.5 97t-98.5 38q-74 0 -152 -72v33q76 70 159 70q74 0 120 -46.5t46 -113.5
q0 -48 -33 -105t-74.5 -101.5t-101 -107.5t-90.5 -103z" />
    <glyph glyph-name="threequarters" unicode="&#xbe;" horiz-adv-x="1211" 
d="M465 607q0 -65 -48 -116t-128 -51q-96 0 -175 82v32q84 -84 173 -84q62 0 105 42t43 100q0 122 -199 151v23q79 1 128 31t49 90q0 46 -38.5 79t-96.5 33q-77 0 -150 -65v29q71 64 152 64q74 0 117.5 -41.5t43.5 -94.5q0 -57 -37.5 -92.5t-100.5 -47.5q85 -22 123.5 -66
t38.5 -98zM1064 1038h35l-862 -1174h-36zM1016 479v-409h61v-31h-61v-169h-33v169h-271v22l273 418h31zM988 70v367l-240 -367h240z" />
    <glyph glyph-name="questiondown" unicode="&#xbf;" horiz-adv-x="835" 
d="M473 657q12 0 21 -9t9 -21q0 -11 -9 -20t-21 -9q-11 0 -20.5 9t-9.5 20q0 12 9.5 21t20.5 9zM487 412q9 -48 -6.5 -89.5t-47 -72t-72 -58t-82.5 -53t-77.5 -52t-58 -60.5t-22.5 -72q0 -79 75.5 -129t211.5 -50q101 0 197.5 39t153.5 97l22 -24q-71 -66 -169.5 -105
t-205.5 -39q-154 0 -239 59t-85 150q0 60 43 109t102 84t117 70.5t92.5 85t23.5 110.5h27z" />
    <glyph glyph-name="Agrave" unicode="&#xc0;" horiz-adv-x="987" 
d="M544 961h-29l-192 189h38zM521 892q63 -125 248.5 -488t203.5 -398l-2 -6q-33 0 -42 3q-36 67 -120 237h-628l-124 -240h-43l467 892q7 3 20.5 3t19.5 -3zM198 272h595q-85 170 -291 587z" />
    <glyph glyph-name="Aacute" unicode="&#xc1;" horiz-adv-x="987" 
d="M704 1136l-191 -198h-29l180 198h40zM521 892q63 -125 248.5 -488t203.5 -398l-2 -6q-33 0 -42 3q-36 67 -120 237h-628l-124 -240h-43l467 892q7 3 20.5 3t19.5 -3zM198 272h595q-85 170 -291 587z" />
    <glyph glyph-name="Acircumflex" unicode="&#xc2;" horiz-adv-x="987" 
d="M504 1131l-195 -195h-38l223 222h19l223 -222h-38zM521 892q63 -125 248.5 -488t203.5 -398l-2 -6q-33 0 -42 3q-36 67 -120 237h-628l-124 -240h-43l467 892q7 3 20.5 3t19.5 -3zM198 272h595q-85 170 -291 587z" />
    <glyph glyph-name="Atilde" unicode="&#xc3;" horiz-adv-x="987" 
d="M368 1079q-33 0 -53.5 -32.5t-20.5 -86.5h-27q0 67 28 107.5t70 40.5q40 0 89.5 -31t97 -62.5t83.5 -31.5q34 0 54.5 34t20.5 86h27q0 -66 -26.5 -107t-71.5 -41q-40 0 -89.5 31t-97.5 62t-84 31zM521 892q63 -125 248.5 -488t203.5 -398l-2 -6q-33 0 -42 3
q-36 67 -120 237h-628l-124 -240h-43l467 892q7 3 20.5 3t19.5 -3zM198 272h595q-85 170 -291 587z" />
    <glyph glyph-name="Adieresis" unicode="&#xc4;" horiz-adv-x="987" 
d="M353 984q-11 0 -19 8t-8 19q0 12 8 20.5t19 8.5t19.5 -8.5t8.5 -20.5q0 -11 -8.5 -19t-19.5 -8zM654 984q-11 0 -19 8t-8 19q0 12 8 20.5t19 8.5t19.5 -8.5t8.5 -20.5q0 -11 -8.5 -19t-19.5 -8zM521 892q63 -125 248.5 -488t203.5 -398l-2 -6q-33 0 -42 3
q-36 67 -120 237h-628l-124 -240h-43l467 892q7 3 20.5 3t19.5 -3zM198 272h595q-85 170 -291 587z" />
    <glyph glyph-name="Aring" unicode="&#xc5;" horiz-adv-x="987" 
d="M523 888q61 -123 240 -471.5t210 -410.5l-2 -6q-33 0 -42 3q-36 67 -120 237h-628l-124 -240h-43l465 888q-75 5 -122 41t-47 94q0 59 54 98t141 39q80 0 136 -39t56 -98q0 -56 -52 -93t-122 -42zM336 1023q0 -50 45.5 -82.5t122.5 -32.5q67 0 117.5 34t50.5 81
q0 49 -49.5 82t-118.5 33q-75 0 -121.5 -33.5t-46.5 -81.5zM198 272h595q-85 170 -291 587z" />
    <glyph glyph-name="AE" unicode="&#xc6;" horiz-adv-x="1580" 
d="M1534 32q4 -4 4 -15t-4 -17h-724v240h-535l-211 -240h-50l793 892h701q5 -18 -6 -32h-654v-414h564q2 -7 -0.5 -17.5t-6.5 -14.5h-557v-382h686zM303 272h507v576z" />
    <glyph glyph-name="Ccedilla" unicode="&#xc7;" horiz-adv-x="882" 
d="M837 605q-21 -8 -38 -3q4 119 -83 199.5t-219 78.5q-178 -3 -297 -128t-119 -306q0 -199 117 -315t292 -116q75 0 158 25t148 74q9 -3 14.5 -12.5t5.5 -14.5q-70 -52 -159 -78.5t-167 -26.5q-22 0 -33 1q1 -30 11 -48.5t49 -62.5q46 -50 46 -105q0 -44 -27.5 -73.5
t-69.5 -29.5q-54 -2 -107 53l20 19q44 -45 87 -45q29 1 48.5 22.5t19.5 54.5q-1 44 -47 97q-38 42 -48 63.5t-10 57.5q-169 19 -278 142t-109 319q0 129 60 235t164 168t231 63q150 2 248 -87t92 -221z" />
    <glyph glyph-name="Egrave" unicode="&#xc8;" horiz-adv-x="856" 
d="M484 960h-29l-192 189h38zM810 32q4 -4 4 -15t-4 -17h-726v887l6 5h694q5 -18 -6 -32h-656v-414h566q2 -8 -0.5 -18.5t-6.5 -13.5h-559v-382h688z" />
    <glyph glyph-name="Eacute" unicode="&#xc9;" horiz-adv-x="856" 
d="M644 1135l-191 -198h-29l180 198h40zM810 32q4 -4 4 -15t-4 -17h-726v887l6 5h694q5 -18 -6 -32h-656v-414h566q2 -8 -0.5 -18.5t-6.5 -13.5h-559v-382h688z" />
    <glyph glyph-name="Ecircumflex" unicode="&#xca;" horiz-adv-x="856" 
d="M444 1130l-195 -195h-38l223 222h19l223 -222h-38zM810 32q4 -4 4 -15t-4 -17h-726v887l6 5h694q5 -18 -6 -32h-656v-414h566q2 -8 -0.5 -18.5t-6.5 -13.5h-559v-382h688z" />
    <glyph glyph-name="Edieresis" unicode="&#xcb;" horiz-adv-x="856" 
d="M292 983q-11 0 -19 8t-8 19q0 12 8 20.5t19 8.5t19.5 -8.5t8.5 -20.5q0 -11 -8.5 -19t-19.5 -8zM593 983q-11 0 -19 8t-8 19q0 12 8 20.5t19 8.5t19.5 -8.5t8.5 -20.5q0 -11 -8.5 -19t-19.5 -8zM810 32q4 -4 4 -15t-4 -17h-726v887l6 5h694q5 -18 -6 -32h-656v-414h566
q2 -8 -0.5 -18.5t-6.5 -13.5h-559v-382h688z" />
    <glyph glyph-name="Igrave" unicode="&#xcc;" horiz-adv-x="206" 
d="M115 960l-192 189h38l183 -189h-29zM84 0v892q7 3 19.5 3t17.5 -3v-892h-37z" />
    <glyph glyph-name="Iacute" unicode="&#xcd;" horiz-adv-x="206" 
d="M84 937l180 198h40l-191 -198h-29zM84 0v892q7 3 19.5 3t17.5 -3v-892h-37z" />
    <glyph glyph-name="Icircumflex" unicode="&#xce;" horiz-adv-x="206" 
d="M112 1157l223 -222h-38l-194 195l-195 -195h-38l223 222h19zM84 892q7 3 19.5 3t17.5 -3v-892h-37v892z" />
    <glyph glyph-name="Idieresis" unicode="&#xcf;" horiz-adv-x="206" 
d="M-48 983q-11 0 -19 8t-8 19q0 12 8 20.5t19 8.5t19.5 -8.5t8.5 -20.5q0 -11 -8.5 -19t-19.5 -8zM253 983q-11 0 -19 8t-8 19q0 12 8 20.5t19 8.5t19.5 -8.5t8.5 -20.5q0 -11 -8.5 -19t-19.5 -8zM84 0v892q7 3 19.5 3t17.5 -3v-892h-37z" />
    <glyph glyph-name="Eth" unicode="&#xd0;" horiz-adv-x="1034" 
d="M493 913q226 0 362 -126.5t136 -329.5q0 -213 -129.5 -343.5t-346.5 -131.5q-121 0 -187.5 9t-166.5 34v429h-104v31h104v395q140 33 332 33zM514 14q201 0 319 122.5t119 320.5q1 183 -123 303.5t-338 120.5q-188 0 -292 -26v-370h374v-31h-374v-403q137 -37 315 -37z
" />
    <glyph glyph-name="Ntilde" unicode="&#xd1;" horiz-adv-x="1024" 
d="M377 1078q-33 0 -53.5 -32.5t-20.5 -86.5h-27q0 67 28 107.5t70 40.5q40 0 89.5 -31t97 -62.5t83.5 -31.5q34 0 54.5 34t20.5 86h27q0 -66 -26.5 -107t-71.5 -41q-40 0 -89.5 31t-97.5 62t-84 31zM902 892q15 9 38 0v-892h-31l-787 834v-834h-38v883q4 4 14.5 8t15.5 2
l788 -835v834z" />
    <glyph glyph-name="Ograve" unicode="&#xd2;" horiz-adv-x="985" 
d="M532 972l-192 189h38l183 -189h-29zM449 -18q-184 0 -295 121t-112 300q0 106 38.5 200.5t104.5 162.5t158.5 107.5t196.5 39.5q173 0 289 -131.5t114 -313.5q0 -97 -39.5 -187t-106 -155.5t-157.5 -104.5t-191 -39zM451 15q121 0 225 61t165.5 166t62.5 228
q2 172 -104.5 290.5t-263.5 118.5q-193 0 -324.5 -137.5t-130.5 -337.5q1 -162 100.5 -275.5t269.5 -113.5z" />
    <glyph glyph-name="Oacute" unicode="&#xd3;" horiz-adv-x="985" 
d="M501 949l180 198h40l-191 -198h-29zM449 -18q-184 0 -295 121t-112 300q0 106 38.5 200.5t104.5 162.5t158.5 107.5t196.5 39.5q173 0 289 -131.5t114 -313.5q0 -97 -39.5 -187t-106 -155.5t-157.5 -104.5t-191 -39zM451 15q121 0 225 61t165.5 166t62.5 228
q2 172 -104.5 290.5t-263.5 118.5q-193 0 -324.5 -137.5t-130.5 -337.5q1 -162 100.5 -275.5t269.5 -113.5z" />
    <glyph glyph-name="Ocircumflex" unicode="&#xd4;" horiz-adv-x="985" 
d="M521 1142l-195 -195h-38l223 222h19l223 -222h-38zM540 913q173 0 289 -131.5t114 -313.5q0 -97 -39.5 -187t-106 -155.5t-157.5 -104.5t-191 -39q-184 0 -295 121t-112 300q0 106 38.5 200.5t104.5 162.5t158.5 107.5t196.5 39.5zM904 470q2 172 -104.5 290.5
t-263.5 118.5q-193 0 -324.5 -137.5t-130.5 -337.5q1 -162 100.5 -275.5t269.5 -113.5q121 0 225 61t165.5 166t62.5 228z" />
    <glyph glyph-name="Otilde" unicode="&#xd5;" horiz-adv-x="985" 
d="M656 966q-40 0 -89.5 31t-97.5 62t-84 31q-33 0 -53.5 -32.5t-20.5 -86.5h-27q0 67 28 107.5t70 40.5q40 0 89.5 -31t97 -62.5t83.5 -31.5q34 0 54.5 34t20.5 86h27q0 -66 -26.5 -107t-71.5 -41zM449 -18q-184 0 -295 121t-112 300q0 106 38.5 200.5t104.5 162.5
t158.5 107.5t196.5 39.5q173 0 289 -131.5t114 -313.5q0 -97 -39.5 -187t-106 -155.5t-157.5 -104.5t-191 -39zM451 15q121 0 225 61t165.5 166t62.5 228q2 172 -104.5 290.5t-263.5 118.5q-193 0 -324.5 -137.5t-130.5 -337.5q1 -162 100.5 -275.5t269.5 -113.5z" />
    <glyph glyph-name="Odieresis" unicode="&#xd6;" horiz-adv-x="985" 
d="M369 995q-11 0 -19 8t-8 19q0 12 8 20.5t19 8.5t19.5 -8.5t8.5 -20.5q0 -11 -8.5 -19t-19.5 -8zM670 995q-11 0 -19 8t-8 19q0 12 8 20.5t19 8.5t19.5 -8.5t8.5 -20.5q0 -11 -8.5 -19t-19.5 -8zM449 -18q-184 0 -295 121t-112 300q0 106 38.5 200.5t104.5 162.5
t158.5 107.5t196.5 39.5q173 0 289 -131.5t114 -313.5q0 -97 -39.5 -187t-106 -155.5t-157.5 -104.5t-191 -39zM451 15q121 0 225 61t165.5 166t62.5 228q2 172 -104.5 290.5t-263.5 118.5q-193 0 -324.5 -137.5t-130.5 -337.5q1 -162 100.5 -275.5t269.5 -113.5z" />
    <glyph glyph-name="multiply" unicode="&#xd7;" horiz-adv-x="750" 
d="M639 590l-238 -183l238 -184h-53l-211 163l-212 -163h-52l238 184l-238 183h52l212 -163l211 163h53z" />
    <glyph glyph-name="Oslash" unicode="&#xd8;" horiz-adv-x="1003" 
d="M823 797q62 -63 96 -148.5t33 -180.5q0 -97 -39.5 -187t-106 -155.5t-157.5 -104.5t-191 -39q-153 0 -260 88l-61 -70h-40l78 91q-122 119 -124 312q0 106 38.5 200.5t104.5 162.5t158.5 107.5t195.5 39.5q144 0 253 -95l65 75h40zM90 404q2 -176 109 -285l579 671
q-100 89 -233 89q-193 0 -324.5 -137.5t-130.5 -337.5zM913 470q1 88 -29 165.5t-84 133.5l-579 -671q99 -83 239 -83q121 0 225 61t165.5 166t62.5 228z" />
    <glyph glyph-name="Ugrave" unicode="&#xd9;" horiz-adv-x="1023" 
d="M523 973l-192 189h38l183 -189h-29zM498 -19q-195 0 -304.5 103t-109.5 302v506q7 3 20 2.5t19 -2.5v-508q0 -182 100 -276t275 -94q181 0 291 106.5t110 275.5v496q16 6 39 0v-498q0 -176 -117.5 -294.5t-322.5 -118.5z" />
    <glyph glyph-name="Uacute" unicode="&#xda;" horiz-adv-x="1023" 
d="M493 950l180 198h40l-191 -198h-29zM498 -19q-195 0 -304.5 103t-109.5 302v506q7 3 20 2.5t19 -2.5v-508q0 -182 100 -276t275 -94q181 0 291 106.5t110 275.5v496q16 6 39 0v-498q0 -176 -117.5 -294.5t-322.5 -118.5z" />
    <glyph glyph-name="Ucircumflex" unicode="&#xdb;" horiz-adv-x="1023" 
d="M512 1143l-195 -195h-38l223 222h19l223 -222h-38zM899 892q16 6 39 0v-498q0 -176 -117.5 -294.5t-322.5 -118.5q-195 0 -304.5 103t-109.5 302v506q7 3 20 2.5t19 -2.5v-508q0 -182 100 -276t275 -94q181 0 291 106.5t110 275.5v496z" />
    <glyph glyph-name="Udieresis" unicode="&#xdc;" horiz-adv-x="1023" 
d="M361 996q-11 0 -19 8t-8 19q0 12 8 20.5t19 8.5t19.5 -8.5t8.5 -20.5q0 -11 -8.5 -19t-19.5 -8zM662 996q-11 0 -19 8t-8 19q0 12 8 20.5t19 8.5t19.5 -8.5t8.5 -20.5q0 -11 -8.5 -19t-19.5 -8zM498 -19q-195 0 -304.5 103t-109.5 302v506q7 3 20 2.5t19 -2.5v-508
q0 -182 100 -276t275 -94q181 0 291 106.5t110 275.5v496q16 6 39 0v-498q0 -176 -117.5 -294.5t-322.5 -118.5z" />
    <glyph glyph-name="Yacute" unicode="&#xdd;" horiz-adv-x="897" 
d="M650 1135l-191 -198h-29l180 198h40zM882 892q15 -271 -383 -602v-290h-38v292q-53 78 -221 304.5t-225 288.5l3 7q20 6 41 0q44 -46 197.5 -253t228.5 -314q164 132 265 282.5t93 282.5q14 7 39 2z" />
    <glyph glyph-name="Thorn" unicode="&#xde;" horiz-adv-x="892" 
d="M439 782q187 0 299 -83.5t112 -234.5q0 -102 -56.5 -175t-151.5 -108t-216 -35q-161 0 -302 47v-193h-40v885q7 3 21 2.5t19 -2.5v-138q133 35 315 35zM427 179q170 0 277 74t107 211q0 134 -98.5 209.5t-274.5 75.5q-196 0 -314 -36v-486q130 -48 303 -48z" />
    <glyph glyph-name="germandbls" unicode="&#xdf;" horiz-adv-x="845" 
d="M807 280q5 -136 -82 -217t-217 -81q-121 0 -219 72q-2 22 12 31q94 -70 200 -70q119 0 195.5 72.5t72.5 193.5q-2 91 -79.5 148.5t-199.5 56.5q-79 -2 -165 -39q-4 4 -4.5 17t3.5 17q53 24 112 32q110 23 167 71.5t57 116.5q0 76 -64.5 129t-191.5 53
q-118 0 -192.5 -74.5t-74.5 -193.5v-615h-37v618q0 142 88 219.5t216 77.5q149 -1 222 -62.5t73 -147.5q0 -67 -48 -117.5t-135 -77.5q122 -2 204.5 -65t86.5 -165z" />
    <glyph glyph-name="agrave" unicode="&#xe0;" horiz-adv-x="736" 
d="M450 781h-30l-186 245h41zM664 139q0 -63 7 -88t23 -45l-1 -6h-34q-16 16 -24 40.5t-8 80.5l-1 116q-42 -107 -145 -181t-227 -74q-99 0 -154.5 45t-55.5 118q0 118 127.5 184t331.5 66q69 0 119 -5q-6 130 -69.5 204.5t-169.5 74.5q-118 2 -267 -94q-12 6 -14 28
q150 97 282 97q129 0 203.5 -90t75.5 -258zM623 350l1 13q-63 6 -121 6q-194 0 -307 -59.5t-113 -160.5q0 -62 46 -99t131 -37q76 0 145 31.5t115 81t74 109t29 115.5z" />
    <glyph glyph-name="aacute" unicode="&#xe1;" horiz-adv-x="736" 
d="M568 1026l-181 -245h-29l168 245h42zM664 139q0 -63 7 -88t23 -45l-1 -6h-34q-16 16 -24 40.5t-8 80.5l-1 116q-42 -107 -145 -181t-227 -74q-99 0 -154.5 45t-55.5 118q0 118 127.5 184t331.5 66q69 0 119 -5q-6 130 -69.5 204.5t-169.5 74.5q-118 2 -267 -94
q-12 6 -14 28q150 97 282 97q129 0 203.5 -90t75.5 -258zM623 350l1 13q-63 6 -121 6q-194 0 -307 -59.5t-113 -160.5q0 -62 46 -99t131 -37q76 0 145 31.5t115 81t74 109t29 115.5z" />
    <glyph glyph-name="acircumflex" unicode="&#xe2;" horiz-adv-x="736" 
d="M387 950l-195 -194h-40l226 224h18l225 -224h-39zM664 139q0 -63 7 -88t23 -45l-1 -6h-34q-16 16 -24 40.5t-8 80.5l-1 116q-42 -107 -145 -181t-227 -74q-99 0 -154.5 45t-55.5 118q0 118 127.5 184t331.5 66q69 0 119 -5q-6 130 -69.5 204.5t-169.5 74.5
q-118 2 -267 -94q-12 6 -14 28q150 97 282 97q129 0 203.5 -90t75.5 -258zM623 350l1 13q-63 6 -121 6q-194 0 -307 -59.5t-113 -160.5q0 -62 46 -99t131 -37q76 0 145 31.5t115 81t74 109t29 115.5z" />
    <glyph glyph-name="atilde" unicode="&#xe3;" horiz-adv-x="736" 
d="M252 935q-33 0 -53.5 -32.5t-20.5 -86.5h-27q0 68 28 109.5t70 41.5q32 0 70.5 -19.5t68.5 -42.5t66.5 -42.5t65.5 -19.5q34 -1 54.5 33t20.5 86h27q0 -67 -26.5 -109t-71.5 -42q-40 0 -89.5 31t-98 62t-84.5 31zM664 139q0 -63 7 -88t23 -45l-1 -6h-34q-16 16 -24 40.5
t-8 80.5l-1 116q-42 -107 -145 -181t-227 -74q-99 0 -154.5 45t-55.5 118q0 118 127.5 184t331.5 66q69 0 119 -5q-6 130 -69.5 204.5t-169.5 74.5q-118 2 -267 -94q-12 6 -14 28q150 97 282 97q129 0 203.5 -90t75.5 -258zM623 350l1 13q-63 6 -121 6q-194 0 -307 -59.5
t-113 -160.5q0 -62 46 -99t131 -37q76 0 145 31.5t115 81t74 109t29 115.5z" />
    <glyph glyph-name="adieresis" unicode="&#xe4;" horiz-adv-x="736" 
d="M234 826q-13 0 -22 9t-9 21q0 13 9 22.5t22 9.5t22 -9.5t9 -22.5q0 -12 -9 -21t-22 -9zM544 826q-13 0 -22 9t-9 21q0 13 9 22.5t22 9.5t22 -9.5t9 -22.5q0 -12 -9 -21t-22 -9zM664 139q0 -63 7 -88t23 -45l-1 -6h-34q-16 16 -24 40.5t-8 80.5l-1 116q-42 -107 -145 -181
t-227 -74q-99 0 -154.5 45t-55.5 118q0 118 127.5 184t331.5 66q69 0 119 -5q-6 130 -69.5 204.5t-169.5 74.5q-118 2 -267 -94q-12 6 -14 28q150 97 282 97q129 0 203.5 -90t75.5 -258zM623 350l1 13q-63 6 -121 6q-194 0 -307 -59.5t-113 -160.5q0 -62 46 -99t131 -37
q76 0 145 31.5t115 81t74 109t29 115.5z" />
    <glyph glyph-name="aring" unicode="&#xe5;" horiz-adv-x="736" 
d="M387 773q-85 0 -140 37t-55 99q0 60 54 98.5t141 38.5q80 0 136 -38.5t56 -98.5q0 -59 -59 -97.5t-133 -38.5zM386 1025q-75 0 -121.5 -33.5t-46.5 -82.5q0 -50 45.5 -82.5t122.5 -32.5q67 0 117.5 34t50.5 81q0 49 -49.5 82.5t-118.5 33.5zM664 139q0 -63 7 -88t23 -45
l-1 -6h-34q-16 16 -24 40.5t-8 80.5l-1 116q-42 -107 -145 -181t-227 -74q-99 0 -154.5 45t-55.5 118q0 118 127.5 184t331.5 66q69 0 119 -5q-6 130 -69.5 204.5t-169.5 74.5q-118 2 -267 -94q-12 6 -14 28q150 97 282 97q129 0 203.5 -90t75.5 -258zM623 350l1 13
q-63 6 -121 6q-194 0 -307 -59.5t-113 -160.5q0 -62 46 -99t131 -37q76 0 145 31.5t115 81t74 109t29 115.5z" />
    <glyph glyph-name="ae" unicode="&#xe6;" horiz-adv-x="1307" 
d="M975 700q140 0 222.5 -91t75.5 -249l-10 -11l-601 -71q11 -122 91 -192.5t195 -70.5q139 0 263 107q9 -4 19 -24q-135 -116 -285 -116q-116 -1 -202.5 64.5t-110.5 180.5q-47 -109 -152 -177.5t-226 -67.5q-99 0 -154.5 45t-55.5 118q0 118 127 184t332 66q68 0 118 -5
q-7 129 -70 203.5t-168 74.5q-115 2 -267 -93q-12 6 -14 28q150 97 282 97q104 0 174.5 -61.5t92.5 -173.5q40 105 127 170t197 65zM1234 371q4 142 -67.5 220t-191.5 78q-134 0 -225 -108t-89 -256zM621 350l1 13q-62 6 -119 6q-194 0 -307 -59.5t-113 -160.5q0 -62 46 -99
t131 -37q98 0 182 50t130.5 127t48.5 160z" />
    <glyph glyph-name="ccedilla" unicode="&#xe7;" horiz-adv-x="725" 
d="M399 700q136 0 214.5 -92t73.5 -233q-23 -8 -38 -2q2 129 -64.5 211.5t-187.5 83.5q-130 0 -225.5 -101t-95.5 -244q0 -137 84.5 -222.5t205.5 -85.5q154 0 269 103q10 -3 15.5 -12t5.5 -13q-125 -111 -291 -111h-7q2 -26 13 -44t47 -59q46 -52 46 -105
q0 -44 -27.5 -73.5t-69.5 -30.5q-55 0 -107 53l20 20q42 -45 87 -45q29 0 48.5 22t19.5 55q-1 44 -47 96q-36 39 -46.5 60.5t-11.5 52.5q-123 13 -207.5 105t-84.5 234q0 159 108 268t253 109z" />
    <glyph glyph-name="egrave" unicode="&#xe8;" horiz-adv-x="722" 
d="M453 781h-30l-186 245h41zM390 700q140 0 222.5 -91t75.5 -249l-10 -11l-601 -71q11 -122 91 -192.5t195 -70.5q139 0 263 107q9 -4 19 -24q-135 -116 -285 -116q-136 -1 -228 86.5t-94 236.5q-2 163 100 279t252 116zM649 373q4 141 -67 218.5t-192 77.5
q-133 0 -224.5 -107.5t-89.5 -254.5z" />
    <glyph glyph-name="eacute" unicode="&#xe9;" horiz-adv-x="722" 
d="M571 1026l-181 -245h-29l168 245h42zM390 700q140 0 222.5 -91t75.5 -249l-10 -11l-601 -71q11 -122 91 -192.5t195 -70.5q139 0 263 107q9 -4 19 -24q-135 -116 -285 -116q-136 -1 -228 86.5t-94 236.5q-2 163 100 279t252 116zM649 373q4 141 -67 218.5t-192 77.5
q-133 0 -224.5 -107.5t-89.5 -254.5z" />
    <glyph glyph-name="ecircumflex" unicode="&#xea;" horiz-adv-x="722" 
d="M389 950l-195 -194h-40l226 224h18l225 -224h-39zM390 700q140 0 222.5 -91t75.5 -249l-10 -11l-601 -71q11 -122 91 -192.5t195 -70.5q139 0 263 107q9 -4 19 -24q-135 -116 -285 -116q-136 -1 -228 86.5t-94 236.5q-2 163 100 279t252 116zM649 373q4 141 -67 218.5
t-192 77.5q-133 0 -224.5 -107.5t-89.5 -254.5z" />
    <glyph glyph-name="edieresis" unicode="&#xeb;" horiz-adv-x="722" 
d="M236 826q-13 0 -22 9t-9 21q0 13 9 22.5t22 9.5t22 -9.5t9 -22.5q0 -12 -9 -21t-22 -9zM546 826q-13 0 -22 9t-9 21q0 13 9 22.5t22 9.5t22 -9.5t9 -22.5q0 -12 -9 -21t-22 -9zM390 700q140 0 222.5 -91t75.5 -249l-10 -11l-601 -71q11 -122 91 -192.5t195 -70.5
q139 0 263 107q9 -4 19 -24q-135 -116 -285 -116q-136 -1 -228 86.5t-94 236.5q-2 163 100 279t252 116zM649 373q4 141 -67 218.5t-192 77.5q-133 0 -224.5 -107.5t-89.5 -254.5z" />
    <glyph glyph-name="igrave" unicode="&#xec;" horiz-adv-x="225" 
d="M146 781l-186 245h41l175 -245h-30zM94 0v653q7 2 19.5 2t17.5 -2v-653h-37z" />
    <glyph glyph-name="iacute" unicode="&#xed;" horiz-adv-x="225" 
d="M84 781l168 245h42l-181 -245h-29zM94 0v653q7 2 19.5 2t17.5 -2v-653h-37z" />
    <glyph glyph-name="icircumflex" unicode="&#xee;" horiz-adv-x="225" 
d="M122 980l225 -224h-39l-195 194l-195 -194h-40l226 224h18zM94 653q7 2 19.5 2t17.5 -2v-653h-37v653z" />
    <glyph glyph-name="idieresis" unicode="&#xef;" horiz-adv-x="225" 
d="M-40 826q-13 0 -22 9t-9 21q0 13 9 22.5t22 9.5t22 -9.5t9 -22.5q0 -12 -9 -21t-22 -9zM270 826q-13 0 -22 9t-9 21q0 13 9 22.5t22 9.5t22 -9.5t9 -22.5q0 -12 -9 -21t-22 -9zM94 0v653q7 2 19.5 2t17.5 -2v-653h-37z" />
    <glyph glyph-name="eth" unicode="&#xf0;" horiz-adv-x="733" 
d="M445 752q115 -93 182.5 -202t67.5 -222q0 -62 -21 -121.5t-62 -111t-111 -83t-159 -31.5q-142 0 -223 82.5t-81 211.5q0 146 96 237t241 91q164 0 249 -118q-56 127 -211 252q-83 -39 -248 -107q-12 7 -16 23q16 7 103.5 43t136.5 59q-94 72 -196 119q0 17 17 26
q111 -53 211 -129q141 71 145 123q20 6 37 -6q-5 -58 -158 -136zM343 13q141 0 227.5 91.5t86.5 222.5q-1 102 -77 174.5t-197 72.5q-134 0 -220.5 -83.5t-86.5 -215.5q0 -114 70 -188t197 -74z" />
    <glyph glyph-name="ntilde" unicode="&#xf1;" horiz-adv-x="803" 
d="M316 935q-33 0 -53.5 -32.5t-20.5 -86.5h-27q0 68 28 109.5t70 41.5q32 0 70.5 -19.5t68.5 -42.5t66.5 -42.5t65.5 -19.5q34 -1 54.5 33t20.5 86h27q0 -67 -26.5 -109t-71.5 -42q-40 0 -89.5 31t-98 62t-84.5 31zM458 700q133 0 204.5 -91t71.5 -255v-354h-37v351
q0 145 -62 230.5t-181 85.5q-86 0 -164.5 -57t-124 -142.5t-45.5 -170.5v-297h-38v526q0 71 -14 119v7q22 5 36 3q14 -39 14 -87v-135q39 109 134.5 188t205.5 79z" />
    <glyph glyph-name="ograve" unicode="&#xf2;" horiz-adv-x="792" 
d="M457 781l-186 245h41l175 -245h-30zM369 -18q-155 0 -243 94.5t-88 231.5q0 161 112 276.5t277 115.5q146 0 236.5 -96.5t90.5 -238.5q1 -161 -108.5 -272t-276.5 -111zM370 15q151 0 248.5 102t97.5 245q0 130 -81 218t-210 88q-150 0 -249.5 -107t-99.5 -253
q0 -123 77 -208t217 -85z" />
    <glyph glyph-name="oacute" unicode="&#xf3;" horiz-adv-x="792" 
d="M395 781l168 245h42l-181 -245h-29zM369 -18q-155 0 -243 94.5t-88 231.5q0 161 112 276.5t277 115.5q146 0 236.5 -96.5t90.5 -238.5q1 -161 -108.5 -272t-276.5 -111zM370 15q151 0 248.5 102t97.5 245q0 130 -81 218t-210 88q-150 0 -249.5 -107t-99.5 -253
q0 -123 77 -208t217 -85z" />
    <glyph glyph-name="ocircumflex" unicode="&#xf4;" horiz-adv-x="792" 
d="M424 950l-195 -194h-40l226 224h18l225 -224h-39zM754 365q1 -161 -108.5 -272t-276.5 -111q-155 0 -243 94.5t-88 231.5q0 161 112 276.5t277 115.5q146 0 236.5 -96.5t90.5 -238.5zM370 15q151 0 248.5 102t97.5 245q0 130 -81 218t-210 88q-150 0 -249.5 -107
t-99.5 -253q0 -123 77 -208t217 -85z" />
    <glyph glyph-name="otilde" unicode="&#xf5;" horiz-adv-x="792" 
d="M561 811q-40 0 -89.5 31t-98 62t-84.5 31q-33 0 -53.5 -32.5t-20.5 -86.5h-27q0 68 28 109.5t70 41.5q32 0 70.5 -19.5t68.5 -42.5t66.5 -42.5t65.5 -19.5q34 -1 54.5 33t20.5 86h27q0 -67 -26.5 -109t-71.5 -42zM369 -18q-155 0 -243 94.5t-88 231.5q0 161 112 276.5
t277 115.5q146 0 236.5 -96.5t90.5 -238.5q1 -161 -108.5 -272t-276.5 -111zM370 15q151 0 248.5 102t97.5 245q0 130 -81 218t-210 88q-150 0 -249.5 -107t-99.5 -253q0 -123 77 -208t217 -85z" />
    <glyph glyph-name="odieresis" unicode="&#xf6;" horiz-adv-x="792" 
d="M271 826q-13 0 -22 9t-9 21q0 13 9 22.5t22 9.5t22 -9.5t9 -22.5q0 -12 -9 -21t-22 -9zM581 826q-13 0 -22 9t-9 21q0 13 9 22.5t22 9.5t22 -9.5t9 -22.5q0 -12 -9 -21t-22 -9zM369 -18q-155 0 -243 94.5t-88 231.5q0 161 112 276.5t277 115.5q146 0 236.5 -96.5
t90.5 -238.5q1 -161 -108.5 -272t-276.5 -111zM370 15q151 0 248.5 102t97.5 245q0 130 -81 218t-210 88q-150 0 -249.5 -107t-99.5 -253q0 -123 77 -208t217 -85z" />
    <glyph glyph-name="divide" unicode="&#xf7;" horiz-adv-x="771" 
d="M384 607q-12 0 -21.5 9.5t-9.5 22.5t9.5 22.5t21.5 9.5q14 0 23 -9.5t9 -22.5t-9.5 -22.5t-22.5 -9.5zM111 412v32h549v-32h-549zM384 179q-12 0 -21.5 9.5t-9.5 22.5t9.5 22.5t21.5 9.5q14 0 23 -9.5t9 -22.5t-9.5 -22.5t-22.5 -9.5z" />
    <glyph glyph-name="oslash" unicode="&#xf8;" horiz-adv-x="798" 
d="M680 587q77 -93 77 -222q0 -161 -109 -272t-277 -111q-133 0 -223 75l-57 -57h-31v6l69 69q-89 91 -89 233q0 161 112 276.5t277 115.5q141 0 233 -92l44 45h34v-5zM78 308q0 -127 77 -207l135 136l38 35l128 126l34 35l146 148q-82 87 -209 87q-150 0 -249.5 -107
t-99.5 -253zM373 15q151 0 248 102t97 245q0 115 -64 198l-128 -129l-41 -39l-129 -126l-35 -36l-147 -147q78 -68 199 -68z" />
    <glyph glyph-name="ugrave" unicode="&#xf9;" horiz-adv-x="791" 
d="M454 781h-30l-186 245h41zM717 136q0 -59 4.5 -84t18.5 -44v-8h-32q-15 16 -20.5 39t-5.5 79v94q-35 -101 -128.5 -165.5t-217.5 -64.5t-196 72t-72 218v381q15 5 38 0v-376q0 -135 64 -198.5t172 -63.5q146 0 241.5 97t95.5 240v301q6 2 19.5 2t18.5 -2v-517z" />
    <glyph glyph-name="uacute" unicode="&#xfa;" horiz-adv-x="791" 
d="M572 1026l-181 -245h-29l168 245h42zM717 136q0 -59 4.5 -84t18.5 -44v-8h-32q-15 16 -20.5 39t-5.5 79v94q-35 -101 -128.5 -165.5t-217.5 -64.5t-196 72t-72 218v381q15 5 38 0v-376q0 -135 64 -198.5t172 -63.5q146 0 241.5 97t95.5 240v301q6 2 19.5 2t18.5 -2v-517z
" />
    <glyph glyph-name="ucircumflex" unicode="&#xfb;" horiz-adv-x="791" 
d="M390 950l-195 -194h-40l226 224h18l225 -224h-39zM717 136q0 -59 4.5 -84t18.5 -44v-8h-32q-15 16 -20.5 39t-5.5 79v94q-35 -101 -128.5 -165.5t-217.5 -64.5t-196 72t-72 218v381q15 5 38 0v-376q0 -135 64 -198.5t172 -63.5q146 0 241.5 97t95.5 240v301q6 2 19.5 2
t18.5 -2v-517z" />
    <glyph glyph-name="udieresis" unicode="&#xfc;" horiz-adv-x="791" 
d="M237 826q-13 0 -22 9t-9 21q0 13 9 22.5t22 9.5t22 -9.5t9 -22.5q0 -12 -9 -21t-22 -9zM547 826q-13 0 -22 9t-9 21q0 13 9 22.5t22 9.5t22 -9.5t9 -22.5q0 -12 -9 -21t-22 -9zM717 136q0 -59 4.5 -84t18.5 -44v-8h-32q-15 16 -20.5 39t-5.5 79v94
q-35 -101 -128.5 -165.5t-217.5 -64.5t-196 72t-72 218v381q15 5 38 0v-376q0 -135 64 -198.5t172 -63.5q146 0 241.5 97t95.5 240v301q6 2 19.5 2t18.5 -2v-517z" />
    <glyph glyph-name="yacute" unicode="&#xfd;" horiz-adv-x="743" 
d="M557 1027l-181 -245h-29l168 245h42zM729 653q10 -108 -18 -239t-106.5 -278.5t-195.5 -256.5q-147 -136 -308 -136q-50 0 -85 16q-7 16 -1 29l7 4q32 -17 80 -17q75 1 150.5 38t138.5 99q55 53 94 105q-63 35 -129 100.5t-118.5 137.5t-99 150t-75.5 138t-45 102l2 7
q16 5 36 1q17 -48 57.5 -125.5t99 -171.5t138 -181t155.5 -131q100 139 147.5 300t39.5 306q15 10 36 3z" />
    <glyph glyph-name="thorn" unicode="&#xfe;" horiz-adv-x="769" 
d="M431 700q133 0 216.5 -94.5t83.5 -241.5q0 -154 -98 -268t-244 -114q-99 0 -172.5 57t-109.5 143v-415q-19 -5 -39 0v1165q7 2 20 2t18 -2v-501q33 118 125.5 193.5t199.5 75.5zM384 15q134 0 221.5 106t87.5 243q0 135 -74.5 219.5t-189.5 84.5q-83 0 -157.5 -51
t-119.5 -135.5t-45 -177.5q0 -112 80 -200.5t197 -88.5z" />
    <glyph glyph-name="ydieresis" unicode="&#xff;" horiz-adv-x="743" 
d="M222 827q-13 0 -22 9t-9 21q0 13 9 22.5t22 9.5t22 -9.5t9 -22.5q0 -12 -9 -21t-22 -9zM532 827q-13 0 -22 9t-9 21q0 13 9 22.5t22 9.5t22 -9.5t9 -22.5q0 -12 -9 -21t-22 -9zM729 653q10 -108 -18 -239t-106.5 -278.5t-195.5 -256.5q-147 -136 -308 -136q-50 0 -85 16
q-7 16 -1 29l7 4q32 -17 80 -17q75 1 150.5 38t138.5 99q55 53 94 105q-63 35 -129 100.5t-118.5 137.5t-99 150t-75.5 138t-45 102l2 7q16 5 36 1q17 -48 57.5 -125.5t99 -171.5t138 -181t155.5 -131q100 139 147.5 300t39.5 306q15 10 36 3z" />
    <glyph glyph-name="Amacron" unicode="&#x100;" horiz-adv-x="987" 
d="M729 1011v-28h-452v28h452zM521 892q63 -125 248.5 -488t203.5 -398l-2 -6q-33 0 -42 3q-36 67 -120 237h-628l-124 -240h-43l467 892q7 3 20.5 3t19.5 -3zM198 272h595q-85 170 -291 587z" />
    <glyph glyph-name="amacron" unicode="&#x101;" horiz-adv-x="736" 
d="M630 893v-30h-485v30h485zM664 139q0 -63 7 -88t23 -45l-1 -6h-34q-16 16 -24 40.5t-8 80.5l-1 116q-42 -107 -145 -181t-227 -74q-99 0 -154.5 45t-55.5 118q0 118 127.5 184t331.5 66q69 0 119 -5q-6 130 -69.5 204.5t-169.5 74.5q-118 2 -267 -94q-12 6 -14 28
q150 97 282 97q129 0 203.5 -90t75.5 -258zM623 350l1 13q-63 6 -121 6q-194 0 -307 -59.5t-113 -160.5q0 -62 46 -99t131 -37q76 0 145 31.5t115 81t74 109t29 115.5z" />
    <glyph glyph-name="Abreve" unicode="&#x102;" horiz-adv-x="987" 
d="M504 956q-94 0 -155 43t-61 120h28q0 -61 52 -99t136 -38q81 0 134.5 38t53.5 99h29q0 -75 -63 -119t-154 -44zM521 892q63 -125 248.5 -488t203.5 -398l-2 -6q-33 0 -42 3q-36 67 -120 237h-628l-124 -240h-43l467 892q7 3 20.5 3t19.5 -3zM198 272h595
q-85 170 -291 587z" />
    <glyph glyph-name="abreve" unicode="&#x103;" horiz-adv-x="736" 
d="M386 773q-99 0 -164 51t-65 142h31q0 -74 55 -119t143 -45q86 0 142.5 45.5t56.5 118.5h30q0 -88 -66.5 -140.5t-162.5 -52.5zM664 139q0 -63 7 -88t23 -45l-1 -6h-34q-16 16 -24 40.5t-8 80.5l-1 116q-42 -107 -145 -181t-227 -74q-99 0 -154.5 45t-55.5 118
q0 118 127.5 184t331.5 66q69 0 119 -5q-6 130 -69.5 204.5t-169.5 74.5q-118 2 -267 -94q-12 6 -14 28q150 97 282 97q129 0 203.5 -90t75.5 -258zM623 350l1 13q-63 6 -121 6q-194 0 -307 -59.5t-113 -160.5q0 -62 46 -99t131 -37q76 0 145 31.5t115 81t74 109t29 115.5z
" />
    <glyph glyph-name="Aogonek" unicode="&#x104;" horiz-adv-x="987" 
d="M1012 -240l20 -16q-23 -32 -62.5 -53t-76.5 -21q-48 -1 -79 24.5t-31 75.5q0 53 37.5 119t105.5 120q-28 54 -117 231h-628l-124 -240h-43l467 892q7 3 20.5 3t19.5 -3q63 -125 248.5 -488t203.5 -398l-2 -6h-23q-66 -54 -100.5 -114.5t-34.5 -110.5q0 -38 24 -57t61 -18
q30 0 62.5 17t51.5 43zM198 272h595q-85 170 -291 587z" />
    <glyph glyph-name="aogonek" unicode="&#x105;" horiz-adv-x="736" 
d="M741 -241l20 -16q-23 -32 -62.5 -53t-76.5 -21q-48 -1 -79 24.5t-31 75.5q0 52 37 118t103 120q-25 28 -25 114l-1 116q-42 -107 -145 -181t-227 -74q-99 0 -154.5 45t-55.5 118q0 118 127.5 184t331.5 66q69 0 119 -5q-6 130 -69.5 204.5t-169.5 74.5q-118 2 -267 -94
q-12 6 -14 28q150 97 282 97q129 0 203.5 -90t75.5 -258l1 -213q0 -63 7 -88t23 -45l-1 -6h-15q-66 -54 -101 -115t-35 -111q0 -38 24 -57t61 -18q30 0 62.5 17t51.5 43zM623 350l1 13q-63 6 -121 6q-194 0 -307 -59.5t-113 -160.5q0 -62 46 -99t131 -37q76 0 145 31.5
t115 81t74 109t29 115.5z" />
    <glyph glyph-name="Cacute" unicode="&#x106;" horiz-adv-x="882" 
d="M478 958l180 198h40l-191 -198h-29zM490 -18q-125 0 -225.5 54t-161.5 161t-61 250q0 129 60 235t164 168t231 63q150 2 248 -87t92 -221q-21 -8 -38 -3q4 119 -83 199.5t-219 78.5q-178 -3 -297 -128t-119 -306q0 -199 117 -315t292 -116q75 0 158 25t148 74
q9 -3 14.5 -12.5t5.5 -14.5q-70 -52 -159 -78.5t-167 -26.5z" />
    <glyph glyph-name="cacute" unicode="&#x107;" horiz-adv-x="725" 
d="M369 781l168 245h42l-181 -245h-29zM365 -18q-134 0 -230.5 94.5t-96.5 246.5q0 159 108 268t253 109q136 0 214.5 -92t73.5 -233q-23 -8 -38 -2q2 129 -64.5 211.5t-187.5 83.5q-130 0 -225.5 -101t-95.5 -244q0 -137 84.5 -222.5t205.5 -85.5q154 0 269 103
q10 -3 15.5 -12t5.5 -13q-125 -111 -291 -111z" />
    <glyph glyph-name="Cdotaccent" unicode="&#x10a;" horiz-adv-x="882" 
d="M497 999q-11 0 -19 8t-8 19q0 12 8 20.5t19 8.5t19.5 -8.5t8.5 -20.5q0 -11 -8.5 -19t-19.5 -8zM490 -18q-125 0 -225.5 54t-161.5 161t-61 250q0 129 60 235t164 168t231 63q150 2 248 -87t92 -221q-21 -8 -38 -3q4 119 -83 199.5t-219 78.5q-178 -3 -297 -128
t-119 -306q0 -199 117 -315t292 -116q75 0 158 25t148 74q9 -3 14.5 -12.5t5.5 -14.5q-70 -52 -159 -78.5t-167 -26.5z" />
    <glyph glyph-name="cdotaccent" unicode="&#x10b;" horiz-adv-x="725" 
d="M396 826q-12 0 -21.5 9t-9.5 21q0 13 9.5 22.5t21.5 9.5q13 0 22.5 -9.5t9.5 -22.5q0 -12 -9.5 -21t-22.5 -9zM365 -18q-134 0 -230.5 94.5t-96.5 246.5q0 159 108 268t253 109q136 0 214.5 -92t73.5 -233q-23 -8 -38 -2q2 129 -64.5 211.5t-187.5 83.5
q-130 0 -225.5 -101t-95.5 -244q0 -137 84.5 -222.5t205.5 -85.5q154 0 269 103q10 -3 15.5 -12t5.5 -13q-125 -111 -291 -111z" />
    <glyph glyph-name="Ccaron" unicode="&#x10c;" horiz-adv-x="882" 
d="M506 960h-18l-226 216h40l195 -187l195 187h39zM837 605q-21 -8 -38 -3q4 119 -83 199.5t-219 78.5q-178 -3 -297 -128t-119 -306q0 -199 117 -315t292 -116q75 0 158 25t148 74q9 -3 14.5 -12.5t5.5 -14.5q-70 -52 -159 -78.5t-167 -26.5q-125 0 -225.5 54t-161.5 161
t-61 250q0 129 60 235t164 168t231 63q150 2 248 -87t92 -221z" />
    <glyph glyph-name="ccaron" unicode="&#x10d;" horiz-adv-x="725" 
d="M406 781h-18l-226 224h40l195 -196l195 196h39zM399 700q136 0 214.5 -92t73.5 -233q-23 -8 -38 -2q2 129 -64.5 211.5t-187.5 83.5q-130 0 -225.5 -101t-95.5 -244q0 -137 84.5 -222.5t205.5 -85.5q154 0 269 103q10 -3 15.5 -12t5.5 -13q-125 -111 -291 -111
q-134 0 -230.5 94.5t-96.5 246.5q0 159 108 268t253 109z" />
    <glyph glyph-name="Dcaron" unicode="&#x10e;" horiz-adv-x="957" 
d="M425 960h-18l-226 216h40l195 -187l195 187h39zM416 913q226 0 362.5 -126.5t136.5 -329.5q0 -213 -129.5 -343.5t-346.5 -131.5q-121 0 -187.5 9t-167.5 34v855q140 33 332 33zM438 14q201 0 319 122.5t119 320.5q0 183 -123.5 303.5t-337.5 120.5q-188 0 -293 -26v-803
q135 -38 316 -38z" />
    <glyph glyph-name="dcaron" unicode="&#x10f;" horiz-adv-x="896" 
d="M923 1054h37l-23 -333h-30zM724 932v-766q0 -102 13 -157v-9h-31q-19 48 -19 144v80q-35 -101 -119 -171.5t-198 -70.5q-138 0 -225.5 93t-87.5 241q0 157 100.5 270.5t253.5 113.5q97 0 172.5 -61.5t103.5 -159.5v453q5 2 17.5 2t19.5 -2zM373 15q134 0 222.5 106.5
t88.5 241.5q0 130 -77.5 217t-190.5 87q-135 0 -227.5 -102.5t-93.5 -247.5q0 -132 77 -217t201 -85z" />
    <glyph glyph-name="Dcroat" unicode="&#x110;" horiz-adv-x="1034" 
d="M493 913q226 0 362 -126.5t136 -329.5q0 -213 -129.5 -343.5t-346.5 -131.5q-121 0 -187.5 9t-166.5 34v429h-104v31h104v395q140 33 332 33zM514 14q201 0 319 122.5t119 320.5q1 183 -123 303.5t-338 120.5q-188 0 -292 -26v-370h374v-31h-374v-403q137 -37 315 -37z
" />
    <glyph glyph-name="dcroat" unicode="&#x111;" horiz-adv-x="787" 
d="M812 792h-107v-626q0 -102 13 -157v-9h-32q-18 45 -18 144v80q-35 -101 -119.5 -171.5t-198.5 -70.5q-137 0 -224.5 93t-87.5 241q0 158 100.5 271t253.5 113q96 0 171.5 -61.5t103.5 -158.5v312h-293v22h293v118q5 2 18 2t20 -2v-118h107v-22zM354 15q134 0 222.5 106.5
t88.5 241.5q0 130 -77.5 217t-190.5 87q-135 0 -228 -102.5t-93 -247.5q0 -132 77 -217t201 -85z" />
    <glyph glyph-name="Emacron" unicode="&#x112;" horiz-adv-x="856" 
d="M669 1011v-28h-452v28h452zM810 32q4 -4 4 -15t-4 -17h-726v887l6 5h694q5 -18 -6 -32h-656v-414h566q2 -8 -0.5 -18.5t-6.5 -13.5h-559v-382h688z" />
    <glyph glyph-name="emacron" unicode="&#x113;" horiz-adv-x="722" 
d="M632 893v-30h-485v30h485zM390 700q140 0 222.5 -91t75.5 -249l-10 -11l-601 -71q11 -122 91 -192.5t195 -70.5q139 0 263 107q9 -4 19 -24q-135 -116 -285 -116q-136 -1 -228 86.5t-94 236.5q-2 163 100 279t252 116zM649 373q4 141 -67 218.5t-192 77.5
q-133 0 -224.5 -107.5t-89.5 -254.5z" />
    <glyph glyph-name="Ebreve" unicode="&#x114;" horiz-adv-x="856" 
d="M444 956q-94 0 -155 43t-61 120h28q0 -61 52 -99t136 -38q81 0 134.5 38t53.5 99h28q0 -75 -62.5 -119t-153.5 -44zM810 32q4 -4 4 -15t-4 -17h-726v887l6 5h694q5 -18 -6 -32h-656v-414h566q2 -8 -0.5 -18.5t-6.5 -13.5h-559v-382h688z" />
    <glyph glyph-name="ebreve" unicode="&#x115;" horiz-adv-x="722" 
d="M389 773q-99 0 -164 51t-65 142h31q0 -74 55 -119t143 -45q86 0 142.5 45.5t56.5 118.5h30q0 -88 -66.5 -140.5t-162.5 -52.5zM390 700q140 0 222.5 -91t75.5 -249l-10 -11l-601 -71q11 -122 91 -192.5t195 -70.5q139 0 263 107q9 -4 19 -24q-135 -116 -285 -116
q-136 -1 -228 86.5t-94 236.5q-2 163 100 279t252 116zM649 373q4 141 -67 218.5t-192 77.5q-133 0 -224.5 -107.5t-89.5 -254.5z" />
    <glyph glyph-name="Edotaccent" unicode="&#x116;" horiz-adv-x="856" 
d="M443 978q-11 0 -19 8t-8 19q0 12 8 20.5t19 8.5t19.5 -8.5t8.5 -20.5q0 -11 -8.5 -19t-19.5 -8zM810 32q4 -4 4 -15t-4 -17h-726v887l6 5h694q5 -18 -6 -32h-656v-414h566q2 -8 -0.5 -18.5t-6.5 -13.5h-559v-382h688z" />
    <glyph glyph-name="edotaccent" unicode="&#x117;" horiz-adv-x="722" 
d="M389 826q-12 0 -21.5 9t-9.5 21q0 13 9.5 22.5t21.5 9.5q13 0 22.5 -9.5t9.5 -22.5q0 -12 -9.5 -21t-22.5 -9zM390 700q140 0 222.5 -91t75.5 -249l-10 -11l-601 -71q11 -122 91 -192.5t195 -70.5q139 0 263 107q9 -4 19 -24q-135 -116 -285 -116q-136 -1 -228 86.5
t-94 236.5q-2 163 100 279t252 116zM649 373q4 141 -67 218.5t-192 77.5q-133 0 -224.5 -107.5t-89.5 -254.5z" />
    <glyph glyph-name="Eogonek" unicode="&#x118;" horiz-adv-x="856" 
d="M494 0q-66 -54 -100.5 -114.5t-34.5 -110.5q0 -38 24 -57t61 -18q30 0 62.5 17t51.5 43l20 -16q-23 -32 -62.5 -53t-76.5 -21q-48 -1 -79 24.5t-31 75.5t34.5 113.5t96.5 116.5h-376v887l6 5h694q5 -18 -6 -32h-656v-414h566q2 -8 -0.5 -18.5t-6.5 -13.5h-559v-382h688
q4 -4 4 -15t-4 -17h-316z" />
    <glyph glyph-name="eogonek" unicode="&#x119;" horiz-adv-x="722" 
d="M390 700q140 0 222.5 -91t75.5 -249l-10 -11l-601 -71q11 -122 91 -192.5t195 -70.5q139 0 263 107q9 -4 19 -24q-125 -107 -263 -115q-66 -54 -100.5 -114.5t-34.5 -110.5q0 -38 24 -57t61 -18q30 0 62.5 17t51.5 43l20 -16q-23 -32 -62.5 -53t-76.5 -21
q-48 -1 -79 24.5t-31 75.5t34 113t96 116q-131 4 -219 90.5t-90 232.5q-2 163 100 279t252 116zM649 373q4 141 -67 218.5t-192 77.5q-133 0 -224.5 -107.5t-89.5 -254.5z" />
    <glyph glyph-name="Ecaron" unicode="&#x11a;" horiz-adv-x="856" 
d="M452 939h-18l-226 216h40l195 -187l195 187h39zM810 32q4 -4 4 -15t-4 -17h-726v887l6 5h694q5 -18 -6 -32h-656v-414h566q2 -8 -0.5 -18.5t-6.5 -13.5h-559v-382h688z" />
    <glyph glyph-name="ecaron" unicode="&#x11b;" horiz-adv-x="722" 
d="M398 781h-18l-226 224h40l195 -196l195 196h39zM390 700q140 0 222.5 -91t75.5 -249l-10 -11l-601 -71q11 -122 91 -192.5t195 -70.5q139 0 263 107q9 -4 19 -24q-135 -116 -285 -116q-136 -1 -228 86.5t-94 236.5q-2 163 100 279t252 116zM649 373q4 141 -67 218.5
t-192 77.5q-133 0 -224.5 -107.5t-89.5 -254.5z" />
    <glyph glyph-name="Gbreve" unicode="&#x11e;" horiz-adv-x="935" 
d="M501 977q-94 0 -155 43t-61 120h28q0 -61 52 -99t136 -38q81 0 134.5 38t53.5 99h29q0 -75 -63 -119t-154 -44zM502 880q-189 0 -305 -126.5t-116 -307.5q0 -197 122 -314t316 -117q193 0 334 88v279h-379q-3 17 8 33h401l7 -8v-320q-72 -51 -172.5 -78t-198.5 -27
q-208 0 -342.5 125.5t-134.5 339.5q0 91 32 175t89.5 149t145.5 103.5t192 38.5q167 0 281 -83t109 -213q-22 -9 -39 -3q0 119 -99.5 192.5t-250.5 73.5z" />
    <glyph glyph-name="gbreve" unicode="&#x11f;" horiz-adv-x="785" 
d="M388 748q-99 0 -164 51t-65 142h31q0 -74 55 -119t143 -45q86 0 142.5 45.5t56.5 118.5h30q0 -88 -66.5 -140.5t-162.5 -52.5zM683 658q17 1 34 -3v-7q-13 -79 -13 -140v-428q0 -169 -92.5 -265.5t-236.5 -96.5q-159 0 -310 114q2 22 15 29q149 -111 292 -111
q129 1 212.5 89t84.5 241v156q-31 -111 -118 -182.5t-201 -71.5q-133 0 -223 90.5t-89 242.5q0 157 100 271t252 114q101 0 176 -64t104 -159l-1 87zM352 15q129 0 220.5 100t92.5 257q-2 110 -77 203t-192 93q-139 0 -229 -105.5t-91 -245.5q-1 -129 75 -215.5t201 -86.5z
" />
    <glyph glyph-name="Gdotaccent" unicode="&#x120;" horiz-adv-x="935" 
d="M501 999q-11 0 -19 8t-8 19q0 12 8 20.5t19 8.5t19.5 -8.5t8.5 -20.5q0 -11 -8.5 -19t-19.5 -8zM502 880q-189 0 -305 -126.5t-116 -307.5q0 -197 122 -314t316 -117q193 0 334 88v279h-379q-3 17 8 33h401l7 -8v-320q-72 -51 -172.5 -78t-198.5 -27q-208 0 -342.5 125.5
t-134.5 339.5q0 91 32 175t89.5 149t145.5 103.5t192 38.5q167 0 281 -83t109 -213q-22 -9 -39 -3q0 119 -99.5 192.5t-250.5 73.5z" />
    <glyph glyph-name="gdotaccent" unicode="&#x121;" horiz-adv-x="785" 
d="M388 801q-12 0 -21.5 9t-9.5 21q0 13 9.5 22.5t21.5 9.5q13 0 22.5 -9.5t9.5 -22.5q0 -12 -9.5 -21t-22.5 -9zM683 658q17 1 34 -3v-7q-13 -79 -13 -140v-428q0 -169 -92.5 -265.5t-236.5 -96.5q-159 0 -310 114q2 22 15 29q149 -111 292 -111q129 1 212.5 89t84.5 241
v156q-31 -111 -118 -182.5t-201 -71.5q-133 0 -223 90.5t-89 242.5q0 157 100 271t252 114q101 0 176 -64t104 -159l-1 87zM352 15q129 0 220.5 100t92.5 257q-2 110 -77 203t-192 93q-139 0 -229 -105.5t-91 -245.5q-1 -129 75 -215.5t201 -86.5z" />
    <glyph glyph-name="uni0122" unicode="&#x122;" horiz-adv-x="935" 
d="M502 880q-189 0 -305 -126.5t-116 -307.5q0 -197 122 -314t316 -117q193 0 334 88v279h-379q-3 17 8 33h401l7 -8v-320q-72 -51 -172.5 -78t-198.5 -27q-208 0 -342.5 125.5t-134.5 339.5q0 91 32 175t89.5 149t145.5 103.5t192 38.5q167 0 281 -83t109 -213
q-22 -9 -39 -3q0 119 -99.5 192.5t-250.5 73.5zM441 -301l44 210h31l-47 -210h-28z" />
    <glyph glyph-name="uni0123" unicode="&#x123;" horiz-adv-x="785" 
d="M442 1010l-47 -213h-32l51 213h28zM683 658q17 1 34 -3v-7q-13 -79 -13 -140v-428q0 -169 -92.5 -265.5t-236.5 -96.5q-159 0 -310 114q2 22 15 29q149 -111 292 -111q129 1 212.5 89t84.5 241v156q-31 -111 -118 -182.5t-201 -71.5q-133 0 -223 90.5t-89 242.5
q0 157 100 271t252 114q101 0 176 -64t104 -159l-1 87zM352 15q129 0 220.5 100t92.5 257q-2 110 -77 203t-192 93q-139 0 -229 -105.5t-91 -245.5q-1 -129 75 -215.5t201 -86.5z" />
    <glyph glyph-name="Hcircumflex" unicode="&#x124;" horiz-adv-x="931" 
d="M466 1130l-195 -195h-38l223 222h19l223 -222h-38zM808 892q7 3 20 3t18 -3v-892h-38v388h-686v-388h-38v892q18 9 38 0v-471h686v471z" />
    <glyph glyph-name="hcircumflex" unicode="&#x125;" horiz-adv-x="772" 
d="M398 1151l-195 -194h-40l226 224h18l225 -224h-39zM447 700q131 0 202.5 -91t71.5 -255v-354h-38v352q0 143 -62 228.5t-180 85.5q-87 0 -165.5 -56.5t-124 -142t-45.5 -171.5v-296h-38v932q24 7 38 0v-495q41 108 136 185.5t205 77.5z" />
    <glyph glyph-name="Hbar" unicode="&#x126;" horiz-adv-x="984" 
d="M916 644v-31h-41v-613h-38v388h-686v-388h-38v613h-45v31h45v248q15 9 38 0v-248h686v248q6 3 19 3t19 -3v-248h41zM837 421v192h-686v-192h686z" />
    <glyph glyph-name="hbar" unicode="&#x127;" horiz-adv-x="743" 
d="M418 700q131 0 202 -91t71 -255v-354h-37v352q0 144 -62 229t-181 85q-87 0 -165.5 -56.5t-123.5 -142t-45 -171.5v-296h-38v821h-91v23h91v88q23 8 38 0v-88h361v-23h-361v-384q41 108 136 185.5t205 77.5z" />
    <glyph glyph-name="Imacron" unicode="&#x12a;" horiz-adv-x="206" 
d="M-36 983v28h276v-28h-276zM84 0v892q7 3 19.5 3t17.5 -3v-892h-37z" />
    <glyph glyph-name="imacron" unicode="&#x12b;" horiz-adv-x="225" 
d="M-83 863v30h393v-30h-393zM94 0v653q7 2 19.5 2t17.5 -2v-653h-37z" />
    <glyph glyph-name="Iogonek" unicode="&#x12e;" horiz-adv-x="206" 
d="M174 -238l20 -16q-23 -32 -62.5 -53t-76.5 -21q-48 -1 -79 24.5t-31 75.5q0 52 36.5 118t102.5 119v883q7 3 19.5 3t17.5 -3v-892h-13q-64 -54 -98.5 -114t-34.5 -109q0 -38 24 -57t61 -18q30 0 62.5 17t51.5 43z" />
    <glyph glyph-name="iogonek" unicode="&#x12f;" horiz-adv-x="225" 
d="M112 826q-12 0 -21.5 9t-9.5 21q0 13 9.5 22.5t21.5 9.5q13 0 22.5 -9.5t9.5 -22.5q0 -12 -9.5 -21t-22.5 -9zM190 -243l20 -16q-23 -32 -62.5 -53t-76.5 -21q-48 -1 -79 24.5t-31 75.5q0 51 35.5 115t99.5 118h-2v653q7 2 19.5 2t17.5 -2v-653h-1q-67 -54 -103 -116
t-36 -112q0 -38 24 -57t61 -18q30 0 62.5 17t51.5 43z" />
    <glyph glyph-name="Idotaccent" unicode="&#x130;" horiz-adv-x="206" 
d="M103 978q-11 0 -19 8t-8 19q0 12 8 20.5t19 8.5t19.5 -8.5t8.5 -20.5q0 -11 -8.5 -19t-19.5 -8zM84 0v892q7 3 19.5 3t17.5 -3v-892h-37z" />
    <glyph glyph-name="dotlessi" unicode="&#x131;" horiz-adv-x="225" 
d="M94 0v653q7 2 19.5 2t17.5 -2v-653h-37z" />
    <glyph glyph-name="IJ" unicode="&#x132;" horiz-adv-x="1058" 
d="M84 0v892q7 3 19.5 3t17.5 -3v-892h-37zM577 -18q-105 0 -211 56.5t-187 144.5q5 20 22 28q76 -85 175.5 -140.5t197.5 -55.5q155 0 249.5 102.5t94.5 262.5v512q21 8 38 0v-520q0 -106 -43.5 -193.5t-131 -142t-204.5 -54.5z" />
    <glyph glyph-name="ij" unicode="&#x133;" horiz-adv-x="463" 
d="M347 826q-13 0 -22 9t-9 22t9 22.5t22 9.5t22 -9.5t9 -22.5t-9 -22t-22 -9zM112 826q-12 0 -21.5 9t-9.5 21q0 13 9.5 22.5t21.5 9.5q13 0 22.5 -9.5t9.5 -22.5q0 -12 -9.5 -21t-22.5 -9zM94 0v653q7 2 19.5 2t17.5 -2v-653h-37zM242 -225q-36 0 -90 17q-2 8 0.5 18.5
t7.5 15.5q50 -16 78 -16q51 0 71 46t20 157v640q6 2 19 2t18 -2v-657q0 -109 -26.5 -165t-97.5 -56z" />
    <glyph glyph-name="Jcircumflex" unicode="&#x134;" horiz-adv-x="929" 
d="M818 1158l223 -222h-38l-194 195l-195 -195h-38l223 222h19zM788 892q21 8 38 0v-520q0 -106 -43.5 -193.5t-131 -142t-204.5 -54.5q-105 0 -211 56.5t-187 144.5q5 21 23 28q75 -84 174.5 -140t198.5 -56q155 0 249 102.5t94 262.5v512z" />
    <glyph glyph-name="jcircumflex" unicode="&#x135;" horiz-adv-x="238" 
d="M131 980l225 -224h-39l-195 194l-195 -194h-40l226 224h18zM104 653q6 2 19 2t18 -2v-657q0 -109 -26.5 -165t-97.5 -56q-36 0 -90 17q-2 8 0.5 18.5t7.5 15.5q50 -16 78 -16q51 0 71 46t20 157v640z" />
    <glyph glyph-name="uni0136" unicode="&#x136;" horiz-adv-x="991" 
d="M486 469q184 -195 299.5 -305.5t187.5 -152.5v-7q-21 -6 -42 -6q-124 71 -477 454q-156 -81 -332 -154v-298h-38v892q7 3 20 2.5t18 -2.5v-558q315 137 456 226q296 183 286 331q18 7 37 1q15 -159 -292 -353q-58 -36 -123 -70zM418 -291l44 210h31l-47 -210h-28z" />
    <glyph glyph-name="uni0137" unicode="&#x137;" horiz-adv-x="817" 
d="M424 332q148 -147 236 -228t123 -94v-7q-12 -6 -45 -6q-61 21 -347 315q-137 -81 -285 -143v-169h-38v932q20 8 38 0v-727q185 82 349 188q118 75 163.5 130.5t40.5 127.5q16 6 41 2q10 -74 -39 -138.5t-173 -142.5zM335 -291l44 210h31l-47 -210h-28z" />
    <glyph glyph-name="kgreenlandic" unicode="&#x138;" horiz-adv-x="817" 
d="M424 332q148 -147 236 -228t123 -94v-7q-12 -6 -45 -6q-61 21 -347 315q-137 -81 -285 -143v-169h-38v653q19 6 38 0v-448q185 82 349 188q117 75 163 131t41 128q16 7 41 2q10 -74 -39 -139t-173 -143z" />
    <glyph glyph-name="Lacute" unicode="&#x139;" horiz-adv-x="841" 
d="M93 936l180 198h40l-191 -198h-29zM94 0l-10 10v882q6 3 19.5 2.5t18.5 -2.5v-860h686q4 -6 4 -16t-4 -16h-714z" />
    <glyph glyph-name="lacute" unicode="&#x13a;" horiz-adv-x="318" 
d="M88 977l180 198h40l-191 -198h-29zM204 -18q-62 0 -91.5 45t-29.5 142v763q17 8 38 0v-755q0 -87 22 -125t70 -38q28 0 82 17q9 -13 3 -30q-54 -18 -94 -19z" />
    <glyph glyph-name="uni013B" unicode="&#x13b;" horiz-adv-x="841" 
d="M94 0l-10 10v882q6 3 19.5 2.5t18.5 -2.5v-860h686q4 -6 4 -16t-4 -16h-714zM377 -291l44 210h31l-47 -210h-28z" />
    <glyph glyph-name="uni013C" unicode="&#x13c;" horiz-adv-x="318" 
d="M204 -18q-62 0 -91.5 45t-29.5 142v763q17 8 38 0v-755q0 -87 22 -125t70 -38q28 0 82 17q9 -13 3 -30q-54 -18 -94 -19zM159 -304l44 210h31l-47 -210h-28z" />
    <glyph glyph-name="Lcaron" unicode="&#x13d;" horiz-adv-x="841" 
d="M547 857l16 333h36l-23 -333h-29zM94 0l-10 10v882q6 3 19.5 2.5t18.5 -2.5v-860h686q4 -6 4 -16t-4 -16h-714z" />
    <glyph glyph-name="lcaron" unicode="&#x13e;" horiz-adv-x="318" 
d="M293 844l16 333h36l-23 -333h-29zM204 -18q-62 0 -91.5 45t-29.5 142v763q17 8 38 0v-755q0 -87 22 -125t70 -38q28 0 82 17q9 -13 3 -30q-54 -18 -94 -19z" />
    <glyph glyph-name="Lslash" unicode="&#x141;" horiz-adv-x="933" 
d="M900 32q4 -6 4 -16t-4 -16h-714l-10 10v325l-112 -43v35l112 43v522q6 3 19.5 2.5t18.5 -2.5v-507l362 140v-35l-362 -140v-318h686z" />
    <glyph glyph-name="lslash" unicode="&#x142;" horiz-adv-x="325" 
d="M300 31q10 -12 4 -30q-54 -18 -95 -19q-62 0 -91 44.5t-29 142.5v361l-113 -55v33l113 55v369q18 8 37 0v-351l149 73v-33l-149 -73v-371q0 -87 22.5 -125t70.5 -38q27 0 81 17z" />
    <glyph glyph-name="Nacute" unicode="&#x143;" horiz-adv-x="1024" 
d="M713 1135l-191 -198h-29l180 198h40zM902 892q15 9 38 0v-892h-31l-787 834v-834h-38v883q4 4 14.5 8t15.5 2l788 -835v834z" />
    <glyph glyph-name="nacute" unicode="&#x144;" horiz-adv-x="803" 
d="M632 1026l-181 -245h-29l168 245h42zM458 700q133 0 204.5 -91t71.5 -255v-354h-37v351q0 145 -62 230.5t-181 85.5q-86 0 -164.5 -57t-124 -142.5t-45.5 -170.5v-297h-38v526q0 71 -14 119v7q22 5 36 3q14 -39 14 -87v-135q39 109 134.5 188t205.5 79z" />
    <glyph glyph-name="uni0145" unicode="&#x145;" horiz-adv-x="1024" 
d="M902 892q15 9 38 0v-892h-31l-787 834v-834h-38v883q4 4 14.5 8t15.5 2l788 -835v834zM456 -291l44 210h31l-47 -210h-28z" />
    <glyph glyph-name="uni0146" unicode="&#x146;" horiz-adv-x="803" 
d="M458 700q133 0 204.5 -91t71.5 -255v-354h-37v351q0 145 -62 230.5t-181 85.5q-86 0 -164.5 -57t-124 -142.5t-45.5 -170.5v-297h-38v526q0 71 -14 119v7q22 5 36 3q14 -39 14 -87v-135q39 109 134.5 188t205.5 79zM364 -291l44 210h31l-47 -210h-28z" />
    <glyph glyph-name="Ncaron" unicode="&#x147;" horiz-adv-x="1024" 
d="M521 939h-18l-226 216h40l195 -187l195 187h39zM902 892q15 9 38 0v-892h-31l-787 834v-834h-38v883q4 4 14.5 8t15.5 2l788 -835v834z" />
    <glyph glyph-name="ncaron" unicode="&#x148;" horiz-adv-x="803" 
d="M459 781h-18l-226 224h40l195 -196l195 196h39zM458 700q133 0 204.5 -91t71.5 -255v-354h-37v351q0 145 -62 230.5t-181 85.5q-86 0 -164.5 -57t-124 -142.5t-45.5 -170.5v-297h-38v526q0 71 -14 119v7q22 5 36 3q14 -39 14 -87v-135q39 109 134.5 188t205.5 79z" />
    <glyph glyph-name="Eng" unicode="&#x14a;" horiz-adv-x="1011" 
d="M548 -347q-105 0 -211 49t-187 126q5 22 22 27q76 -73 176 -120.5t200 -47.5q150 0 246.5 90t96.5 229l-769 817v-823h-38v872q4 5 14.5 8.5t15.5 1.5l774 -823v822q18 9 38 0v-880q0 -148 -105 -248t-273 -100z" />
    <glyph glyph-name="eng" unicode="&#x14b;" horiz-adv-x="807" 
d="M458 700q133 0 204.5 -91t71.5 -255v-358q0 -109 -26.5 -165t-97.5 -56q-36 0 -90 17q-2 8 0.5 18.5t7.5 15.5q50 -16 78 -16q50 0 70.5 45.5t20.5 153.5v342q0 144 -62 229t-181 85q-86 0 -164.5 -56.5t-124 -141.5t-45.5 -170v-297h-38v526q0 71 -14 119v7q22 5 36 3
q15 -43 15 -95v-133q38 112 133.5 192.5t205.5 80.5z" />
    <glyph glyph-name="Omacron" unicode="&#x14c;" horiz-adv-x="985" 
d="M294 994v28h452v-28h-452zM449 -18q-184 0 -295 121t-112 300q0 106 38.5 200.5t104.5 162.5t158.5 107.5t196.5 39.5q173 0 289 -131.5t114 -313.5q0 -97 -39.5 -187t-106 -155.5t-157.5 -104.5t-191 -39zM451 15q121 0 225 61t165.5 166t62.5 228q2 172 -104.5 290.5
t-263.5 118.5q-193 0 -324.5 -137.5t-130.5 -337.5q1 -162 100.5 -275.5t269.5 -113.5z" />
    <glyph glyph-name="omacron" unicode="&#x14d;" horiz-adv-x="792" 
d="M182 863v30h485v-30h-485zM369 -18q-155 0 -243 94.5t-88 231.5q0 161 112 276.5t277 115.5q146 0 236.5 -96.5t90.5 -238.5q1 -161 -108.5 -272t-276.5 -111zM370 15q151 0 248.5 102t97.5 245q0 130 -81 218t-210 88q-150 0 -249.5 -107t-99.5 -253q0 -123 77 -208
t217 -85z" />
    <glyph glyph-name="Ohungarumlaut" unicode="&#x150;" horiz-adv-x="985" 
d="M369 973l148 173h38l-159 -173h-27zM570 973l152 173h41l-165 -173h-28zM449 -18q-184 0 -295 121t-112 300q0 106 38.5 200.5t104.5 162.5t158.5 107.5t196.5 39.5q173 0 289 -131.5t114 -313.5q0 -97 -39.5 -187t-106 -155.5t-157.5 -104.5t-191 -39zM451 15
q121 0 225 61t165.5 166t62.5 228q2 172 -104.5 290.5t-263.5 118.5q-193 0 -324.5 -137.5t-130.5 -337.5q1 -162 100.5 -275.5t269.5 -113.5z" />
    <glyph glyph-name="ohungarumlaut" unicode="&#x151;" horiz-adv-x="792" 
d="M265 781l167 245h39l-177 -245h-29zM480 781l170 245h41l-182 -245h-29zM369 -18q-155 0 -243 94.5t-88 231.5q0 161 112 276.5t277 115.5q146 0 236.5 -96.5t90.5 -238.5q1 -161 -108.5 -272t-276.5 -111zM370 15q151 0 248.5 102t97.5 245q0 130 -81 218t-210 88
q-150 0 -249.5 -107t-99.5 -253q0 -123 77 -208t217 -85z" />
    <glyph glyph-name="OE" unicode="&#x152;" horiz-adv-x="1678" 
d="M1632 32q4 -4 4 -15t-4 -17h-725v287q-56 -135 -181 -220t-277 -85q-183 0 -294.5 121t-112.5 300q0 141 65.5 258.5t180 184.5t252.5 67q124 0 221.5 -70t145.5 -184v217l5 5h694q5 -18 -6 -32h-655v-404h565q2 -7 -0.5 -17.5t-6.5 -14.5h-558v-381h687zM905 470
q2 172 -104 290.5t-264 118.5q-193 0 -325 -137.5t-131 -337.5q1 -162 100.5 -275.5t270.5 -113.5q185 0 318.5 133.5t134.5 321.5z" />
    <glyph glyph-name="oe" unicode="&#x153;" horiz-adv-x="1402" 
d="M1069 700q140 0 222.5 -90.5t75.5 -249.5l-9 -11l-601 -72q11 -122 91 -192t195 -70q138 0 262 107q6 -2 10.5 -8t6.5 -10t2 -6q-134 -116 -284 -116q-115 -1 -200.5 62t-112.5 175q-41 -107 -136.5 -172t-221.5 -65q-155 0 -243 94.5t-88 231.5q0 161 112 276.5
t277 115.5q120 0 204 -67t112 -175q39 108 127 175t199 67zM1329 373q4 141 -67.5 218.5t-192.5 77.5q-133 0 -224.5 -107.5t-89.5 -254.5zM370 15q151 0 248.5 102t97.5 245q0 130 -81 218t-210 88q-150 0 -249.5 -107t-99.5 -253q0 -123 77 -208t217 -85z" />
    <glyph glyph-name="Racute" unicode="&#x154;" horiz-adv-x="981" 
d="M662 1146l-191 -198h-29l180 198h40zM594 316q125 -130 204 -202.5t136 -104.5v-6q-15 -5 -41 -5q-95 43 -344 310q-46 -7 -103 -7q-83 1 -174 15t-150 30v-346h-38v871q157 42 378 42q189 0 300 -83t111 -229q0 -109 -76.5 -183.5t-202.5 -101.5zM446 333
q105 -2 192 27.5t141.5 92t54.5 148.5q-1 125 -98 202.5t-277 77.5q-207 0 -337 -34v-467q155 -45 324 -47z" />
    <glyph glyph-name="racute" unicode="&#x155;" horiz-adv-x="578" 
d="M484 1054l-181 -245h-29l168 245h42zM543 676q5 -17 -10 -34q-56 23 -110 23q-136 -1 -219.5 -111.5t-83.5 -257.5v-296h-38v526q0 71 -14 119v7q22 5 34 3q14 -39 14 -87v-137q29 115 112 192t197 77q57 0 118 -24z" />
    <glyph glyph-name="uni0156" unicode="&#x156;" horiz-adv-x="981" 
d="M594 316q125 -130 204 -202.5t136 -104.5v-6q-15 -5 -41 -5q-95 43 -344 310q-46 -7 -103 -7q-83 1 -174 15t-150 30v-346h-38v871q157 42 378 42q189 0 300 -83t111 -229q0 -109 -76.5 -183.5t-202.5 -101.5zM446 333q105 -2 192 27.5t141.5 92t54.5 148.5
q-1 125 -98 202.5t-277 77.5q-207 0 -337 -34v-467q155 -45 324 -47zM431 -291l44 210h31l-47 -210h-28z" />
    <glyph glyph-name="uni0157" unicode="&#x157;" horiz-adv-x="578" 
d="M543 676q5 -17 -10 -34q-56 23 -110 23q-136 -1 -219.5 -111.5t-83.5 -257.5v-296h-38v526q0 71 -14 119v7q22 5 34 3q14 -39 14 -87v-137q29 115 112 192t197 77q57 0 118 -24zM60 -291l44 210h31l-47 -210h-28z" />
    <glyph glyph-name="Rcaron" unicode="&#x158;" horiz-adv-x="981" 
d="M470 950h-18l-226 216h40l195 -187l195 187h39zM594 316q125 -130 204 -202.5t136 -104.5v-6q-15 -5 -41 -5q-95 43 -344 310q-46 -7 -103 -7q-83 1 -174 15t-150 30v-346h-38v871q157 42 378 42q189 0 300 -83t111 -229q0 -109 -76.5 -183.5t-202.5 -101.5zM446 333
q105 -2 192 27.5t141.5 92t54.5 148.5q-1 125 -98 202.5t-277 77.5q-207 0 -337 -34v-467q155 -45 324 -47z" />
    <glyph glyph-name="rcaron" unicode="&#x159;" horiz-adv-x="578" 
d="M311 809h-18l-226 224h40l195 -196l195 196h39zM543 676q5 -17 -10 -34q-56 23 -110 23q-136 -1 -219.5 -111.5t-83.5 -257.5v-296h-38v526q0 71 -14 119v7q22 5 34 3q14 -39 14 -87v-137q29 115 112 192t197 77q57 0 118 -24z" />
    <glyph glyph-name="Sacute" unicode="&#x15a;" horiz-adv-x="923" 
d="M461 958l180 198h40l-191 -198h-29zM490 -18q-123 0 -240 36t-208 103q4 23 21 30q185 -137 426 -137q166 0 259.5 62t93.5 162q0 55 -29 94t-84 61t-116.5 32.5t-144.5 15.5q-149 8 -238.5 63t-89.5 165q0 78 54.5 135.5t130 83t155.5 25.5q184 0 288 -72.5t104 -183.5
q-24 -7 -39 -4q-2 107 -98.5 167.5t-254.5 60.5q-121 0 -211 -59t-90 -154q0 -66 43.5 -110t106.5 -62.5t145 -22.5q200 -10 303.5 -66t103.5 -167q0 -112 -101.5 -185t-289.5 -73z" />
    <glyph glyph-name="sacute" unicode="&#x15b;" horiz-adv-x="746" 
d="M348 781l168 245h42l-181 -245h-29zM391 -18q-90 0 -184.5 28t-162.5 84q6 19 18 28q63 -52 150.5 -79.5t177.5 -27.5q122 0 197.5 45t75.5 113q0 79 -67.5 116.5t-229.5 44.5q-290 15 -290 177q0 79 81 134t219 55q73 0 156.5 -20t153.5 -65q-3 -17 -13 -30
q-130 83 -294 83q-129 0 -197 -47.5t-68 -109.5q0 -134 259 -147q179 -8 253.5 -53t74.5 -137q0 -87 -89 -139.5t-221 -52.5z" />
    <glyph glyph-name="Scedilla" unicode="&#x15e;" horiz-adv-x="923" 
d="M881 240q0 -111 -98.5 -183.5t-281.5 -74.5q1 -30 11.5 -48.5t48.5 -61.5q46 -50 46 -105q0 -44 -27.5 -73.5t-69.5 -29.5q-54 -2 -107 53l20 19q44 -45 87 -45q29 1 48.5 22.5t19.5 54.5q-1 44 -47 97q-37 40 -47 61.5t-11 55.5q-118 2 -230.5 38t-200.5 101q4 23 21 30
q185 -137 426 -137q166 0 259.5 62t93.5 162q0 55 -29 94t-84 61t-116.5 32.5t-144.5 15.5q-149 8 -238.5 63t-89.5 165q0 78 54.5 135.5t130 83t155.5 25.5q184 0 288 -72.5t104 -183.5q-24 -7 -39 -4q-2 107 -98.5 167.5t-254.5 60.5q-121 0 -211 -59t-90 -154
q0 -66 43.5 -110t106.5 -62.5t145 -22.5q200 -10 303.5 -66t103.5 -167z" />
    <glyph glyph-name="scedilla" unicode="&#x15f;" horiz-adv-x="746" 
d="M701 174q0 -87 -89 -139.5t-221 -52.5h-5q1 -30 11 -48.5t49 -61.5q46 -52 46 -105q0 -44 -27.5 -73.5t-69.5 -30.5q-55 0 -107 53l20 20q42 -45 87 -45q29 0 48.5 22t19.5 55q-1 44 -47 96q-37 41 -47 62.5t-11 56.5q-192 11 -314 111q6 19 18 28q63 -52 150.5 -79.5
t177.5 -27.5q122 0 197.5 45t75.5 113q0 79 -67.5 116.5t-229.5 44.5q-290 15 -290 177q0 79 81 134t219 55q73 0 156.5 -20t153.5 -65q-3 -17 -13 -30q-130 83 -294 83q-129 0 -197 -47.5t-68 -109.5q0 -134 259 -147q179 -8 253.5 -53t74.5 -137z" />
    <glyph glyph-name="Scaron" unicode="&#x160;" horiz-adv-x="923" 
d="M489 960h-18l-226 216h40l195 -187l195 187h39zM474 473q200 -10 303.5 -66t103.5 -167q0 -112 -101.5 -185t-289.5 -73q-123 0 -240 36t-208 103q4 23 21 30q185 -137 426 -137q166 0 259.5 62t93.5 162q0 55 -29 94t-84 61t-116.5 32.5t-144.5 15.5q-149 8 -238.5 63
t-89.5 165q0 78 54.5 135.5t130 83t155.5 25.5q184 0 288 -72.5t104 -183.5q-24 -7 -39 -4q-2 107 -98.5 167.5t-254.5 60.5q-121 0 -211 -59t-90 -154q0 -66 43.5 -110t106.5 -62.5t145 -22.5z" />
    <glyph glyph-name="scaron" unicode="&#x161;" horiz-adv-x="746" 
d="M386 781h-18l-226 224h40l195 -196l195 196h39zM373 364q179 -8 253.5 -53t74.5 -137q0 -87 -89 -139.5t-221 -52.5q-90 0 -184.5 28t-162.5 84q6 19 18 28q63 -52 150.5 -79.5t177.5 -27.5q122 0 197.5 45t75.5 113q0 79 -67.5 116.5t-229.5 44.5q-290 15 -290 177
q0 79 81 134t219 55q73 0 156.5 -20t153.5 -65q-3 -17 -13 -30q-130 83 -294 83q-129 0 -197 -47.5t-68 -109.5q0 -134 259 -147z" />
    <glyph glyph-name="uni0162" unicode="&#x162;" horiz-adv-x="913" 
d="M458 860v-860h-7q0 -35 10 -54.5t50 -64.5q46 -50 46 -105q0 -44 -27.5 -73.5t-69.5 -29.5q-54 -2 -107 53l20 19q44 -45 87 -45q29 1 48.5 22.5t19.5 54.5q-1 44 -47 97q-39 43 -48.5 65t-9.5 61h-4v860h-388q-4 20 6 32h845q3 -20 -7 -32h-417z" />
    <glyph glyph-name="uni0163" unicode="&#x163;" horiz-adv-x="534" 
d="M511 621h-366v-326q0 -132 58 -206t164 -74q52 0 123 22q4 -4 6 -14.5t0 -17.5q-72 -23 -132 -23q-40 0 -75 9q1 -29 11 -47t49 -62q46 -52 46 -105q0 -44 -27.5 -73.5t-69.5 -30.5q-55 0 -107 53l20 20q42 -45 87 -45q29 0 48.5 22t19.5 55q-1 44 -47 96
q-39 43 -48.5 65t-9.5 61q-73 30 -113.5 104.5t-40.5 188.5v328h-96v32h96v182q18 10 38 7v-189h366v-32z" />
    <glyph glyph-name="Tcaron" unicode="&#x164;" horiz-adv-x="913" 
d="M450 939h-18l-226 216h40l195 -187l195 187h39zM882 892q3 -20 -7 -32h-417v-860h-39v860h-388q-4 20 6 32h845z" />
    <glyph glyph-name="tcaron" unicode="&#x165;" horiz-adv-x="534" 
d="M481 1077l-23 -333h-29l16 333h36zM511 621h-366v-326q0 -132 58 -206t164 -74q52 0 123 22q4 -4 6 -14.5t0 -17.5q-72 -23 -132 -23q-119 -1 -188 80t-69 231v328h-96v32h96v182q18 10 38 7v-189h366v-32z" />
    <glyph glyph-name="Tbar" unicode="&#x166;" horiz-adv-x="941" 
d="M891 860h-416v-386h225v-30h-225v-444h-40v444h-220v30h220v386h-387q-5 16 5 32h845q5 -18 -7 -32z" />
    <glyph glyph-name="tbar" unicode="&#x167;" horiz-adv-x="525" 
d="M502 626h-366v-184h366v-29h-366v-118q0 -132 58 -206t164 -74q52 0 123 22q4 -4 6 -14.5t0 -17.5q-72 -23 -132 -23q-119 -1 -188 80t-69 231v120h-96v29h96v184h-96v29h96v180q18 10 38 7v-187h366v-29z" />
    <glyph glyph-name="Umacron" unicode="&#x16a;" horiz-adv-x="1023" 
d="M285 996v28h452v-28h-452zM498 -19q-195 0 -304.5 103t-109.5 302v506q7 3 20 2.5t19 -2.5v-508q0 -182 100 -276t275 -94q181 0 291 106.5t110 275.5v496q16 6 39 0v-498q0 -176 -117.5 -294.5t-322.5 -118.5z" />
    <glyph glyph-name="umacron" unicode="&#x16b;" horiz-adv-x="791" 
d="M633 893v-30h-485v30h485zM717 136q0 -59 4.5 -84t18.5 -44v-8h-32q-15 16 -20.5 39t-5.5 79v94q-35 -101 -128.5 -165.5t-217.5 -64.5t-196 72t-72 218v381q15 5 38 0v-376q0 -135 64 -198.5t172 -63.5q146 0 241.5 97t95.5 240v301q6 2 19.5 2t18.5 -2v-517z" />
    <glyph glyph-name="Uring" unicode="&#x16e;" horiz-adv-x="1023" 
d="M513 899q-85 0 -140 36.5t-55 99.5q0 59 54 98t141 39q80 0 136 -39t56 -98t-59 -97.5t-133 -38.5zM512 920q67 0 117.5 34t50.5 81q0 49 -49.5 82t-118.5 33q-75 0 -121.5 -33.5t-46.5 -81.5q0 -50 45.5 -82.5t122.5 -32.5zM498 -19q-195 0 -304.5 103t-109.5 302v506
q7 3 20 2.5t19 -2.5v-508q0 -182 100 -276t275 -94q181 0 291 106.5t110 275.5v496q16 6 39 0v-498q0 -176 -117.5 -294.5t-322.5 -118.5z" />
    <glyph glyph-name="uring" unicode="&#x16f;" horiz-adv-x="791" 
d="M391 773q-85 0 -140 37t-55 99q0 60 54 98.5t141 38.5q80 0 136 -38.5t56 -98.5q0 -59 -59 -97.5t-133 -38.5zM390 1025q-75 0 -121.5 -33.5t-46.5 -82.5q0 -50 45.5 -82.5t122.5 -32.5q67 0 117.5 34t50.5 81q0 49 -49.5 82.5t-118.5 33.5zM717 136q0 -59 4.5 -84
t18.5 -44v-8h-32q-15 16 -20.5 39t-5.5 79v94q-35 -101 -128.5 -165.5t-217.5 -64.5t-196 72t-72 218v381q15 5 38 0v-376q0 -135 64 -198.5t172 -63.5q146 0 241.5 97t95.5 240v301q6 2 19.5 2t18.5 -2v-517z" />
    <glyph glyph-name="Uhungarumlaut" unicode="&#x170;" horiz-adv-x="1023" 
d="M361 974l148 173h38l-159 -173h-27zM562 974l152 173h41l-165 -173h-28zM498 -19q-195 0 -304.5 103t-109.5 302v506q7 3 20 2.5t19 -2.5v-508q0 -182 100 -276t275 -94q181 0 291 106.5t110 275.5v496q16 6 39 0v-498q0 -176 -117.5 -294.5t-322.5 -118.5z" />
    <glyph glyph-name="uhungarumlaut" unicode="&#x171;" horiz-adv-x="791" 
d="M438 1026l-177 -245h-29l167 245h39zM658 1026l-182 -245h-29l170 245h41zM717 136q0 -59 4.5 -84t18.5 -44v-8h-32q-15 16 -20.5 39t-5.5 79v94q-35 -101 -128.5 -165.5t-217.5 -64.5t-196 72t-72 218v381q15 5 38 0v-376q0 -135 64 -198.5t172 -63.5q146 0 241.5 97
t95.5 240v301q6 2 19.5 2t18.5 -2v-517z" />
    <glyph glyph-name="Uogonek" unicode="&#x172;" horiz-adv-x="1023" 
d="M899 892q16 6 39 0v-498q0 -174 -115 -292t-316 -121q-65 -54 -99.5 -114.5t-34.5 -109.5q0 -38 24 -57t61 -18q30 0 62.5 17t51.5 43l20 -16q-23 -32 -62.5 -53t-76.5 -21q-48 -1 -79 24.5t-31 75.5t34 113t96 116q-184 7 -286.5 109.5t-102.5 295.5v506q7 3 20 2.5
t19 -2.5v-508q0 -182 100 -276t275 -94q181 0 291 106.5t110 275.5v496z" />
    <glyph glyph-name="uogonek" unicode="&#x173;" horiz-adv-x="791" 
d="M789 -241l20 -16q-23 -32 -62.5 -53t-76.5 -21q-48 -1 -79 24.5t-31 75.5q0 53 37 119t105 120q-20 26 -20 110v94q-35 -101 -128.5 -165.5t-217.5 -64.5t-196 72t-72 218v381q15 5 38 0v-376q0 -135 64 -198.5t172 -63.5q146 0 241.5 97t95.5 240v301q6 2 19.5 2
t18.5 -2v-517q0 -59 4.5 -84t18.5 -44v-8h-14q-66 -54 -101 -115t-35 -111q0 -38 24 -57t61 -18q30 0 62.5 17t51.5 43z" />
    <glyph glyph-name="Wcircumflex" unicode="&#x174;" horiz-adv-x="1370" 
d="M686 1130l-195 -195h-38l223 222h19l223 -222h-38zM1346 892q30 -187 -59 -427t-267 -455l-16 -10h-38l-9 6q-105 273 -178 434q-24 -76 -111.5 -224t-136.5 -210l-13 -6h-35l-13 8q-83 229 -215.5 474t-240.5 403l3 7q18 5 36 0q122 -183 246.5 -416t199.5 -443h5
q70 96 151 236t106 222q-14 34 -101 234q8 16 34 14q51 -105 149 -339.5t145 -366.5h4q168 209 256.5 439.5t60.5 417.5q12 8 37 2z" />
    <glyph glyph-name="wcircumflex" unicode="&#x175;" horiz-adv-x="1043" 
d="M523 930l-195 -194h-40l226 224h18l225 -224h-39zM1031 653q14 -124 -64.5 -310.5t-196.5 -335.5l-10 -7h-37l-10 7q-52 175 -128 347q-20 -60 -81.5 -172.5t-107.5 -174.5l-10 -7h-40l-10 7q-16 49 -35 99t-37 91.5t-39.5 85.5t-38.5 77t-39 70.5t-36 60.5t-34 53.5
t-28 43t-23.5 35t-16.5 23.5l3 7q23 4 36 0q1 -2 22.5 -33t33 -48t37.5 -58.5t44 -74t45 -83.5t48 -97.5t44.5 -106t43.5 -118.5h6q52 77 108.5 184t84.5 185l-76 164q3 6 14 11t21 4q52 -112 81 -176.5t67 -166t68 -205.5h6q109 146 183 314.5t66 302.5q13 6 36 2z" />
    <glyph glyph-name="Ycircumflex" unicode="&#x176;" horiz-adv-x="897" 
d="M449 1130l-195 -195h-38l223 222h19l223 -222h-38zM882 892q15 -271 -383 -602v-290h-38v292q-53 78 -221 304.5t-225 288.5l3 7q20 6 41 0q44 -46 197.5 -253t228.5 -314q164 132 265 282.5t93 282.5q14 7 39 2z" />
    <glyph glyph-name="ycircumflex" unicode="&#x177;" horiz-adv-x="743" 
d="M376 951l-195 -194h-40l226 224h18l225 -224h-39zM729 653q10 -108 -18 -239t-106.5 -278.5t-195.5 -256.5q-147 -136 -308 -136q-50 0 -85 16q-7 16 -1 29l7 4q32 -17 80 -17q75 1 150.5 38t138.5 99q55 53 94 105q-63 35 -129 100.5t-118.5 137.5t-99 150t-75.5 138
t-45 102l2 7q16 5 36 1q17 -48 57.5 -125.5t99 -171.5t138 -181t155.5 -131q100 139 147.5 300t39.5 306q15 10 36 3z" />
    <glyph glyph-name="Ydieresis" unicode="&#x178;" horiz-adv-x="897" 
d="M298 983q-11 0 -19 8t-8 19q0 12 8 20.5t19 8.5t19.5 -8.5t8.5 -20.5q0 -11 -8.5 -19t-19.5 -8zM599 983q-11 0 -19 8t-8 19q0 12 8 20.5t19 8.5t19.5 -8.5t8.5 -20.5q0 -11 -8.5 -19t-19.5 -8zM882 892q15 -271 -383 -602v-290h-38v292q-53 78 -221 304.5t-225 288.5
l3 7q20 6 41 0q44 -46 197.5 -253t228.5 -314q164 132 265 282.5t93 282.5q14 7 39 2z" />
    <glyph glyph-name="Zacute" unicode="&#x179;" horiz-adv-x="898" 
d="M650 1135l-191 -198h-29l180 198h40zM852 32q4 -4 4 -15t-4 -17h-801q-11 8 -9 26q101 158 218.5 313t253.5 299t249 222h-686q-4 5 -4 15t4 17h743q5 -3 8.5 -13t2.5 -17q-178 -117 -379 -351.5t-359 -478.5h759z" />
    <glyph glyph-name="zacute" unicode="&#x17a;" horiz-adv-x="700" 
d="M532 1026l-181 -245h-29l168 245h42zM685 33q4 -4 4 -15t-4 -18h-667q-9 9 -7 27q322 464 597 593h-566q-10 12 0 33h633q4 -3 6.5 -14.5t1.5 -19.5q-149 -58 -309.5 -218t-306.5 -368h618z" />
    <glyph glyph-name="Zdotaccent" unicode="&#x17b;" horiz-adv-x="898" 
d="M449 978q-11 0 -19 8t-8 19q0 12 8 20.5t19 8.5t19.5 -8.5t8.5 -20.5q0 -11 -8.5 -19t-19.5 -8zM852 32q4 -4 4 -15t-4 -17h-801q-11 8 -9 26q101 158 218.5 313t253.5 299t249 222h-686q-4 5 -4 15t4 17h743q5 -3 8.5 -13t2.5 -17q-178 -117 -379 -351.5t-359 -478.5
h759z" />
    <glyph glyph-name="zdotaccent" unicode="&#x17c;" horiz-adv-x="700" 
d="M350 826q-12 0 -21.5 9t-9.5 21q0 13 9.5 22.5t21.5 9.5q13 0 22.5 -9.5t9.5 -22.5q0 -12 -9.5 -21t-22.5 -9zM685 33q4 -4 4 -15t-4 -18h-667q-9 9 -7 27q322 464 597 593h-566q-10 12 0 33h633q4 -3 6.5 -14.5t1.5 -19.5q-149 -58 -309.5 -218t-306.5 -368h618z" />
    <glyph glyph-name="Zcaron" unicode="&#x17d;" horiz-adv-x="898" 
d="M458 939h-18l-226 216h40l195 -187l195 187h39zM852 32q4 -4 4 -15t-4 -17h-801q-11 8 -9 26q101 158 218.5 313t253.5 299t249 222h-686q-4 5 -4 15t4 17h743q5 -3 8.5 -13t2.5 -17q-178 -117 -379 -351.5t-359 -478.5h759z" />
    <glyph glyph-name="zcaron" unicode="&#x17e;" horiz-adv-x="700" 
d="M359 781h-18l-226 224h40l195 -196l195 196h39zM685 33q4 -4 4 -15t-4 -18h-667q-9 9 -7 27q322 464 597 593h-566q-10 12 0 33h633q4 -3 6.5 -14.5t1.5 -19.5q-149 -58 -309.5 -218t-306.5 -368h618z" />
    <glyph glyph-name="longs" unicode="&#x17f;" horiz-adv-x="318" 
d="M99 0v625q0 313 214 313q54 0 128 -22q2 -22 -8 -32q-63 22 -114 22q-182 -1 -182 -279v-627h-38z" />
    <glyph glyph-name="florin" unicode="&#x192;" horiz-adv-x="511" 
d="M400 384v-32h-128q17 -225 17 -327q0 -228 -132 -228v33q97 0 97 197q0 93 -17 325h-126v32h123q-11 154 -11 259q0 226 134 226v-32q-99 0 -99 -197q0 -86 12 -256h130z" />
    <glyph glyph-name="uni01C7" unicode="&#x1c7;" horiz-adv-x="1750" 
d="M94 0l-10 10v882q6 3 19.5 2.5t18.5 -2.5v-860h686q4 -6 4 -16t-4 -16h-714zM1268 -18q-105 0 -211 56.5t-187 144.5q7 21 23 28q76 -85 175 -140.5t198 -55.5q155 0 249.5 102.5t94.5 262.5v512q19 8 38 0v-520q0 -163 -102.5 -276.5t-277.5 -113.5z" />
    <glyph glyph-name="uni01C8" unicode="&#x1c8;" horiz-adv-x="1059" 
d="M94 0l-10 10v882q6 3 19.5 2.5t18.5 -2.5v-860h686q4 -6 4 -16t-4 -16h-714zM943 826q-12 0 -21.5 9t-9.5 22t9.5 22.5t21.5 9.5q13 0 22 -9.5t9 -22.5t-9 -22t-22 -9zM838 -225q-36 0 -90 17q-2 8 0.5 18.5t7.5 15.5q50 -16 78 -16q51 0 71 46t20 157v640q6 2 19.5 2
t17.5 -2v-657q0 -109 -26.5 -165t-97.5 -56z" />
    <glyph glyph-name="uni01C9" unicode="&#x1c9;" horiz-adv-x="555" 
d="M204 -18q-62 0 -91.5 45t-29.5 142v763q17 8 38 0v-755q0 -87 22 -125t70 -38q28 0 82 17q9 -13 3 -30q-54 -18 -94 -19zM440 826q-12 0 -21.5 9t-9.5 21q0 13 9.5 22.5t21.5 9.5q13 0 22.5 -9.5t9.5 -22.5q0 -12 -9.5 -21t-22.5 -9zM335 -225q-36 0 -90 17
q-2 8 0.5 18.5t7.5 15.5q50 -16 78 -16q51 0 71 46t20 157v640q6 2 19 2t18 -2v-657q0 -109 -26.5 -165t-97.5 -56z" />
    <glyph glyph-name="uni01CA" unicode="&#x1ca;" horiz-adv-x="1905" 
d="M902 892q15 9 38 0v-892h-31l-787 834v-834h-38v883q4 4 14.5 8t15.5 2l788 -835v834zM1765 892q19 8 38 0v-520q0 -163 -102.5 -276.5t-277.5 -113.5q-105 0 -211 56.5t-187 144.5q7 21 23 28q76 -85 175 -140.5t198 -55.5q155 0 249.5 102.5t94.5 262.5v512z" />
    <glyph glyph-name="uni01CB" unicode="&#x1cb;" horiz-adv-x="1216" 
d="M909 0l-787 834v-834h-38v883q4 4 14.5 8t15.5 2l788 -835v834q15 9 38 0v-892h-31zM1100 889q13 0 22 -9.5t9 -22.5t-9 -22t-22 -9t-22 9t-9 22t9 22.5t22 9.5zM1081 653q7 2 20 2t18 -2v-657q0 -109 -26.5 -165t-97.5 -56q-36 0 -90 17q-5 19 7 34q50 -16 78 -16
q51 0 71 46t20 157v640z" />
    <glyph glyph-name="uni01CC" unicode="&#x1cc;" horiz-adv-x="1312" 
d="M916 888q13 0 22 -9.5t9 -22.5q0 -12 -9 -21t-22 -9t-22 9t-9 21q0 13 9 22.5t22 9.5zM734 0h-37v351q0 145 -62 230.5t-181 85.5q-86 0 -164.5 -57t-124 -142.5t-45.5 -170.5v-297h-38v526q0 71 -14 119v7q22 5 36 3q14 -39 14 -87v-135q39 109 134.5 188t205.5 79
q133 0 204.5 -91t71.5 -255v-354zM897 653q7 2 20 2t18 -2v-657q0 -53 -5.5 -90.5t-18.5 -68.5t-38.5 -46.5t-62.5 -15.5q-35 0 -89 17q-7 20 7 34q50 -16 78 -16q51 0 71 46t20 157v640z" />
    <glyph glyph-name="uni01CD" unicode="&#x1cd;" horiz-adv-x="987" 
d="M512 940h-18l-225 216h39l196 -187l195 187h39zM521 892q63 -125 248.5 -488t203.5 -398l-2 -6q-33 0 -42 3q-36 67 -120 237h-628l-124 -240h-43l467 892q7 3 20.5 3t19.5 -3zM198 272h595q-85 170 -291 587z" />
    <glyph glyph-name="uni01CE" unicode="&#x1ce;" horiz-adv-x="736" 
d="M396 781h-18l-226 224h40l195 -196l195 196h39zM664 139q0 -63 7 -88t23 -45l-1 -6h-34q-16 16 -24 40.5t-8 80.5l-1 116q-42 -107 -145 -181t-227 -74q-99 0 -154.5 45t-55.5 118q0 118 127.5 184t331.5 66q69 0 119 -5q-6 130 -69.5 204.5t-169.5 74.5q-118 2 -267 -94
q-12 6 -14 28q150 97 282 97q129 0 203.5 -90t75.5 -258zM623 350l1 13q-63 6 -121 6q-194 0 -307 -59.5t-113 -160.5q0 -62 46 -99t131 -37q76 0 145 31.5t115 81t74 109t29 115.5z" />
    <glyph glyph-name="uni01CF" unicode="&#x1cf;" horiz-adv-x="206" 
d="M112 939h-18l-226 216h40l195 -187l195 187h39zM84 892q7 3 19.5 3t17.5 -3v-892h-37v892z" />
    <glyph glyph-name="uni01D0" unicode="&#x1d0;" horiz-adv-x="225" 
d="M122 781h-18l-226 224h40l195 -196l195 196h39zM94 653q7 2 19.5 2t17.5 -2v-653h-37v653z" />
    <glyph glyph-name="uni01D2" unicode="&#x1d2;" horiz-adv-x="792" 
d="M433 781h-18l-226 225h40l195 -196l194 196h40zM754 365q1 -161 -108.5 -272t-276.5 -111q-155 0 -243 94.5t-88 231.5q0 161 112 276.5t277 115.5q146 0 236.5 -96.5t90.5 -238.5zM370 15q151 0 248.5 102t97.5 245q0 130 -81 218t-210 88q-150 0 -249.5 -107
t-99.5 -253q0 -123 77 -208t217 -85z" />
    <glyph glyph-name="uni01D3" unicode="&#x1d3;" horiz-adv-x="1023" 
d="M521 952h-19l-225 216h39l196 -187l195 187h39zM899 892q16 6 39 0v-498q0 -176 -117.5 -294.5t-322.5 -118.5q-195 0 -304.5 103t-109.5 302v506q7 3 20 2.5t19 -2.5v-508q0 -182 100 -276t275 -94q181 0 291 106.5t110 275.5v496z" />
    <glyph glyph-name="uni01D4" unicode="&#x1d4;" horiz-adv-x="791" 
d="M399 781h-18l-225 225h39l195 -197l195 197h40zM717 136q0 -59 4.5 -84t18.5 -44v-8h-32q-15 16 -20.5 39t-5.5 79v94q-35 -101 -128.5 -165.5t-217.5 -64.5t-196 72t-72 218v381q15 5 38 0v-376q0 -135 64 -198.5t172 -63.5q146 0 241.5 97t95.5 240v301q6 2 19.5 2
t18.5 -2v-517z" />
    <glyph glyph-name="uni01E2" unicode="&#x1e2;" horiz-adv-x="1580" 
d="M1257 1008v-28h-452v28h452zM1534 32q4 -4 4 -15t-4 -17h-724v240h-535l-211 -240h-50l793 892h701q5 -18 -6 -32h-654v-414h564q2 -7 -0.5 -17.5t-6.5 -14.5h-557v-382h686zM303 272h507v576z" />
    <glyph glyph-name="uni01E3" unicode="&#x1e3;" horiz-adv-x="1307" 
d="M889 893v-30h-485v30h485zM975 700q140 0 222.5 -91t75.5 -249l-10 -11l-601 -71q11 -122 91 -192.5t195 -70.5q139 0 263 107q9 -4 19 -24q-135 -116 -285 -116q-116 -1 -202.5 64.5t-110.5 180.5q-47 -109 -152 -177.5t-226 -67.5q-99 0 -154.5 45t-55.5 118
q0 118 127 184t332 66q68 0 118 -5q-7 129 -70 203.5t-168 74.5q-115 2 -267 -93q-12 6 -14 28q150 97 282 97q104 0 174.5 -61.5t92.5 -173.5q40 105 127 170t197 65zM1234 371q4 142 -67.5 220t-191.5 78q-134 0 -225 -108t-89 -256zM621 350l1 13q-62 6 -119 6
q-194 0 -307 -59.5t-113 -160.5q0 -62 46 -99t131 -37q98 0 182 50t130.5 127t48.5 160z" />
    <glyph glyph-name="Gcaron" unicode="&#x1e6;" horiz-adv-x="1113" 
d="M570 960h-18l-226 216h39l196 -187l195 187h39zM951 617q-22 -9 -40 -3q1 119 -98.5 192.5t-251.5 73.5q-126 0 -223 -60t-147 -158.5t-50 -215.5q0 -197 122 -314t316 -117q85 0 174.5 22t158.5 66v279h-378q-4 20 8 33h401l7 -8v-320q-72 -51 -173 -78t-198 -27
q-209 0 -343 125.5t-134 339.5q0 91 32 175t89.5 149t145.5 103.5t192 38.5q167 0 280.5 -83t109.5 -213z" />
    <glyph glyph-name="gcaron" unicode="&#x1e7;" horiz-adv-x="785" 
d="M398 756h-18l-226 224h40l195 -196l195 196h39zM683 658q17 1 34 -3v-7q-13 -79 -13 -140v-428q0 -169 -92.5 -265.5t-236.5 -96.5q-159 0 -310 114q2 22 15 29q149 -111 292 -111q129 1 212.5 89t84.5 241v156q-31 -111 -118 -182.5t-201 -71.5q-133 0 -223 90.5
t-89 242.5q0 157 100 271t252 114q101 0 176 -64t104 -159l-1 87zM352 15q129 0 220.5 100t92.5 257q-2 110 -77 203t-192 93q-139 0 -229 -105.5t-91 -245.5q-1 -129 75 -215.5t201 -86.5z" />
    <glyph glyph-name="uni01E8" unicode="&#x1e8;" horiz-adv-x="991" 
d="M520 940h-18l-226 215h40l195 -187l195 187h39zM486 469q184 -195 299.5 -305.5t187.5 -152.5v-7q-21 -6 -42 -6q-124 71 -477 454q-156 -81 -332 -154v-298h-38v892q7 3 20 2.5t18 -2.5v-558q315 137 456 226q296 183 286 331q18 7 37 1q15 -159 -292 -353
q-58 -36 -123 -70z" />
    <glyph glyph-name="uni01E9" unicode="&#x1e9;" horiz-adv-x="817" 
d="M426 1011h-18l-226 224h40l195 -196l195 196h39zM424 332q148 -147 236 -228t123 -94v-7q-12 -6 -45 -6q-61 21 -347 315q-137 -81 -285 -143v-169h-38v932q20 8 38 0v-727q185 82 349 188q118 75 163.5 130.5t40.5 127.5q16 6 41 2q10 -74 -39 -138.5t-173 -142.5z" />
    <glyph glyph-name="uni01EB" unicode="&#x1eb;" horiz-adv-x="792" 
d="M422 -15q-65 -54 -100 -115t-35 -110q0 -38 24 -57t60 -18q30 0 62.5 17t52.5 43l20 -16q-23 -32 -62.5 -53t-76.5 -21q-48 -1 -79 25t-31 76q0 49 33.5 111.5t94.5 114.5h-16q-155 0 -243 94.5t-88 231.5q0 161 112 276.5t277 115.5q146 0 236.5 -96.5t90.5 -238.5
q1 -147 -92 -254t-240 -126zM76 308q0 -123 77 -208t217 -85q151 0 248.5 102t97.5 245q0 130 -81 218t-210 88q-150 0 -249.5 -107t-99.5 -253z" />
    <glyph glyph-name="uni01F0" unicode="&#x1f0;" horiz-adv-x="238" 
d="M131 781h-18l-226 224h40l195 -196l195 196h39zM104 653q6 2 19 2t18 -2v-657q0 -109 -26.5 -165t-97.5 -56q-36 0 -90 17q-2 8 0.5 18.5t7.5 15.5q50 -16 78 -16q51 0 71 46t20 157v640z" />
    <glyph glyph-name="uni01F4" unicode="&#x1f4;" horiz-adv-x="935" 
d="M702 1156l-191 -198h-29l180 198h40zM502 880q-189 0 -305 -126.5t-116 -307.5q0 -197 122 -314t316 -117q193 0 334 88v279h-379q-3 17 8 33h401l7 -8v-320q-72 -51 -172.5 -78t-198.5 -27q-208 0 -342.5 125.5t-134.5 339.5q0 91 32 175t89.5 149t145.5 103.5t192 38.5
q167 0 281 -83t109 -213q-22 -9 -39 -3q0 119 -99.5 192.5t-250.5 73.5z" />
    <glyph glyph-name="uni01F4" unicode="&#x1f5;" horiz-adv-x="935" 
d="M702 1156l-191 -198h-29l180 198h40zM502 880q-189 0 -305 -126.5t-116 -307.5q0 -197 122 -314t316 -117q193 0 334 88v279h-379q-3 17 8 33h401l7 -8v-320q-72 -51 -172.5 -78t-198.5 -27q-208 0 -342.5 125.5t-134.5 339.5q0 91 32 175t89.5 149t145.5 103.5t192 38.5
q167 0 281 -83t109 -213q-22 -9 -39 -3q0 119 -99.5 192.5t-250.5 73.5z" />
    <glyph glyph-name="uni01F8" unicode="&#x1f8;" horiz-adv-x="1024" 
d="M553 960h-29l-192 190h37zM902 892q15 9 38 0v-892h-31l-787 834v-834h-38v883q4 4 14.5 8t15.5 2l788 -835v834z" />
    <glyph glyph-name="uni01F9" unicode="&#x1f9;" horiz-adv-x="808" 
d="M539 781h-30l-186 246h41zM483 700q133 0 204.5 -91t71.5 -255v-354h-37v351q0 145 -62 230.5t-181 85.5q-86 0 -164.5 -57t-124 -142.5t-45.5 -170.5v-297h-38v526q0 71 -14 119v7q22 5 36 3q14 -39 14 -87v-135q39 109 134.5 188t205.5 79z" />
    <glyph glyph-name="Aringacute" unicode="&#x1fa;" horiz-adv-x="987" 
d="M617 1311l-110 -162h-24l97 162h37zM502 916q-69 0 -113.5 29.5t-44.5 74.5t44.5 75.5t113.5 30.5q68 0 113 -30.5t45 -75.5q0 -44 -45.5 -74t-112.5 -30zM501 1108q-57 0 -94.5 -25t-37.5 -63t37 -62t95 -24q57 0 95.5 25t38.5 61q0 37 -38.5 62.5t-95.5 25.5zM521 892
q63 -125 248.5 -488t203.5 -398l-2 -6q-33 0 -42 3q-36 67 -120 237h-628l-124 -240h-43l467 892q7 3 20.5 3t19.5 -3zM198 272h595q-85 170 -291 587z" />
    <glyph glyph-name="aringacute" unicode="&#x1fb;" horiz-adv-x="736" 
d="M522 1127l-111 -162h-24l97 162h38zM406 732q-69 0 -113 29.5t-44 74.5t44 75.5t113 30.5q68 0 113 -30.5t45 -75.5q0 -44 -45.5 -74t-112.5 -30zM406 924q-58 0 -95.5 -25t-37.5 -63t37.5 -62t95.5 -24q56 0 95 25t39 61q0 37 -38.5 62.5t-95.5 25.5zM664 139
q0 -63 7 -88t23 -45l-1 -6h-34q-16 16 -24 40.5t-8 80.5l-1 116q-42 -107 -145 -181t-227 -74q-99 0 -154.5 45t-55.5 118q0 118 127.5 184t331.5 66q69 0 119 -5q-6 130 -69.5 204.5t-169.5 74.5q-118 2 -267 -94q-12 6 -14 28q150 97 282 97q129 0 203.5 -90t75.5 -258z
M623 350l1 13q-63 6 -121 6q-194 0 -307 -59.5t-113 -160.5q0 -62 46 -99t131 -37q76 0 145 31.5t115 81t74 109t29 115.5z" />
    <glyph glyph-name="AEacute" unicode="&#x1fc;" horiz-adv-x="1580" 
d="M1232 1133l-190 -198h-30l181 198h39zM1534 32q4 -4 4 -15t-4 -17h-724v240h-535l-211 -240h-50l793 892h701q5 -18 -6 -32h-654v-414h564q2 -7 -0.5 -17.5t-6.5 -14.5h-557v-382h686zM303 272h507v576z" />
    <glyph glyph-name="aeacute" unicode="&#x1fd;" horiz-adv-x="1307" 
d="M828 1026l-181 -245h-29l168 245h42zM975 700q140 0 222.5 -91t75.5 -249l-10 -11l-601 -71q11 -122 91 -192.5t195 -70.5q139 0 263 107q9 -4 19 -24q-135 -116 -285 -116q-116 -1 -202.5 64.5t-110.5 180.5q-47 -109 -152 -177.5t-226 -67.5q-99 0 -154.5 45t-55.5 118
q0 118 127 184t332 66q68 0 118 -5q-7 129 -70 203.5t-168 74.5q-115 2 -267 -93q-12 6 -14 28q150 97 282 97q104 0 174.5 -61.5t92.5 -173.5q40 105 127 170t197 65zM1234 371q4 142 -67.5 220t-191.5 78q-134 0 -225 -108t-89 -256zM621 350l1 13q-62 6 -119 6
q-194 0 -307 -59.5t-113 -160.5q0 -62 46 -99t131 -37q98 0 182 50t130.5 127t48.5 160z" />
    <glyph glyph-name="Oslashacute" unicode="&#x1fe;" horiz-adv-x="1003" 
d="M730 1147l-191 -198h-29l180 198h40zM823 797q62 -63 96 -148.5t33 -180.5q0 -97 -39.5 -187t-106 -155.5t-157.5 -104.5t-191 -39q-153 0 -260 88l-61 -70h-40l78 91q-122 119 -124 312q0 106 38.5 200.5t104.5 162.5t158.5 107.5t195.5 39.5q144 0 253 -95l65 75h40z
M90 404q2 -176 109 -285l579 671q-100 89 -233 89q-193 0 -324.5 -137.5t-130.5 -337.5zM913 470q1 88 -29 165.5t-84 133.5l-579 -671q99 -83 239 -83q121 0 225 61t165.5 166t62.5 228z" />
    <glyph glyph-name="oslashacute" unicode="&#x1ff;" horiz-adv-x="798" 
d="M608 1026l-181 -245h-29l168 245h42zM680 587q77 -93 77 -222q0 -161 -109 -272t-277 -111q-133 0 -223 75l-57 -57h-31v6l69 69q-89 91 -89 233q0 161 112 276.5t277 115.5q141 0 233 -92l44 45h34v-5zM78 308q0 -127 77 -207l135 136l38 35l128 126l34 35l146 148
q-82 87 -209 87q-150 0 -249.5 -107t-99.5 -253zM373 15q151 0 248 102t97 245q0 115 -64 198l-128 -129l-41 -39l-129 -126l-35 -36l-147 -147q78 -68 199 -68z" />
    <glyph glyph-name="uni0202" unicode="&#x202;" horiz-adv-x="987" 
d="M504 1133q-86 0 -142.5 -46.5t-56.5 -116.5h-30q0 88 66.5 140t162.5 52q98 0 162.5 -51t64.5 -141h-30q0 73 -55 118t-142 45zM521 892q63 -125 248.5 -488t203.5 -398l-2 -6q-33 0 -42 3q-36 67 -120 237h-628l-124 -240h-43l467 892q7 3 20.5 3t19.5 -3zM198 272h595
q-85 170 -291 587z" />
    <glyph glyph-name="uni0203" unicode="&#x203;" horiz-adv-x="736" 
d="M388 944q-86 0 -142.5 -46.5t-56.5 -116.5h-31q0 88 67 140t163 52q98 0 162.5 -51t64.5 -141h-31q0 73 -54.5 118t-141.5 45zM664 139q0 -63 7 -88t23 -45l-1 -6h-34q-16 16 -24 40.5t-8 80.5l-1 116q-42 -107 -145 -181t-227 -74q-99 0 -154.5 45t-55.5 118
q0 118 127.5 184t331.5 66q69 0 119 -5q-6 130 -69.5 204.5t-169.5 74.5q-118 2 -267 -94q-12 6 -14 28q150 97 282 97q129 0 203.5 -90t75.5 -258zM623 350l1 13q-63 6 -121 6q-194 0 -307 -59.5t-113 -160.5q0 -62 46 -99t131 -37q76 0 145 31.5t115 81t74 109t29 115.5z
" />
    <glyph glyph-name="uni0206" unicode="&#x206;" horiz-adv-x="856" 
d="M444 1133q-86 0 -142.5 -46.5t-56.5 -117.5h-31q0 88 67 140t163 52q98 0 162.5 -51t64.5 -141h-31q0 73 -55 118.5t-141 45.5zM810 32q4 -4 4 -15t-4 -17h-726v887l6 5h694q5 -18 -6 -32h-656v-414h566q2 -8 -0.5 -18.5t-6.5 -13.5h-559v-382h688z" />
    <glyph glyph-name="uni0207" unicode="&#x207;" horiz-adv-x="722" 
d="M390 944q-86 0 -142.5 -46.5t-56.5 -116.5h-31q0 88 67 140t163 52q98 0 162.5 -51t64.5 -141h-31q0 73 -54.5 118t-141.5 45zM390 700q140 0 222.5 -91t75.5 -249l-10 -11l-601 -71q11 -122 91 -192.5t195 -70.5q139 0 263 107q9 -4 19 -24q-135 -116 -285 -116
q-136 -1 -228 86.5t-94 236.5q-2 163 100 279t252 116zM649 373q4 141 -67 218.5t-192 77.5q-133 0 -224.5 -107.5t-89.5 -254.5z" />
    <glyph glyph-name="uni020A" unicode="&#x20a;" horiz-adv-x="13" 
d="M-325 969q0 88 66.5 140t162.5 52q98 0 162.5 -51t64.5 -141h-30q0 73 -55 118.5t-142 45.5q-86 0 -142.5 -46.5t-56.5 -117.5h-30zM-115 0v892q15 9 37 0v-892h-37z" />
    <glyph glyph-name="uni020B" unicode="&#x20b;" horiz-adv-x="225" 
d="M-113 781q0 88 65.5 140t160.5 52q97 0 161 -51t64 -141h-31q0 73 -54 118t-140 45q-84 0 -140 -46.5t-56 -116.5h-30zM94 0v653q7 2 19.5 2t17.5 -2v-653h-37z" />
    <glyph glyph-name="uni020E" unicode="&#x20e;" horiz-adv-x="985" 
d="M292 981q0 88 66.5 140t162.5 52q98 0 162.5 -51t64.5 -141h-31q0 73 -54.5 118t-141.5 45q-86 0 -142.5 -46t-56.5 -117h-30zM449 -18q-184 0 -295 121t-112 300q0 106 38.5 200.5t104.5 162.5t158.5 107.5t196.5 39.5q173 0 289 -131.5t114 -313.5q0 -97 -39.5 -187
t-106 -155.5t-157.5 -104.5t-191 -39zM451 15q121 0 225 61t165.5 166t62.5 228q2 172 -104.5 290.5t-263.5 118.5q-193 0 -324.5 -137.5t-130.5 -337.5q1 -162 100.5 -275.5t269.5 -113.5z" />
    <glyph glyph-name="uni020F" unicode="&#x20f;" horiz-adv-x="792" 
d="M195 781q0 88 66.5 140t162.5 52q98 0 163 -51t65 -141h-31q0 73 -55 118t-142 45q-86 0 -142.5 -46t-56.5 -117h-30zM369 -18q-155 0 -243 94.5t-88 231.5q0 161 112 276.5t277 115.5q146 0 236.5 -96.5t90.5 -238.5q1 -161 -108.5 -272t-276.5 -111zM370 15
q151 0 248.5 102t97.5 245q0 130 -81 218t-210 88q-150 0 -249.5 -107t-99.5 -253q0 -123 77 -208t217 -85z" />
    <glyph glyph-name="uni0212" unicode="&#x212;" horiz-adv-x="981" 
d="M461 1143q-85 0 -141.5 -46t-56.5 -117h-31q0 88 66.5 140t162.5 52q98 0 163 -51t65 -141h-31q0 73 -55 118t-142 45zM594 316q125 -130 204 -202.5t136 -104.5v-6q-15 -5 -41 -5q-95 43 -344 310q-46 -7 -103 -7q-83 1 -174 15t-150 30v-346h-38v871q157 42 378 42
q189 0 300 -83t111 -229q0 -109 -76.5 -183.5t-202.5 -101.5zM446 333q105 -2 192 27.5t141.5 92t54.5 148.5q-1 125 -98 202.5t-277 77.5q-207 0 -337 -34v-467q155 -45 324 -47z" />
    <glyph glyph-name="uni0213" unicode="&#x213;" horiz-adv-x="578" 
d="M304 972q-85 0 -141 -46.5t-56 -117.5h-31q0 88 66.5 140.5t161.5 52.5q98 0 162 -51t64 -142h-30q0 73 -55 118.5t-141 45.5zM543 676q6 -17 -9 -34q-57 23 -110 23q-136 -1 -219.5 -111.5t-83.5 -257.5v-296h-38v526q0 71 -14 119v7q20 5 33 3q15 -38 15 -87v-136
q29 115 112 191.5t197 76.5q56 0 117 -24z" />
    <glyph glyph-name="uni0218" unicode="&#x218;" horiz-adv-x="923" 
d="M490 -18q-123 0 -240 36t-208 103q4 23 21 30q185 -137 426 -137q166 0 259.5 62t93.5 162q0 55 -29 94t-84 61t-116.5 32.5t-144.5 15.5q-149 8 -238.5 63t-89.5 165q0 78 54.5 135.5t130 83t155.5 25.5q184 0 288 -72.5t104 -183.5q-24 -7 -39 -4q-2 107 -98.5 167.5
t-254.5 60.5q-121 0 -211 -59t-90 -154q0 -66 43.5 -110t106.5 -62.5t145 -22.5q200 -10 303.5 -66t103.5 -167q0 -112 -101.5 -185t-289.5 -73zM428 -291l44 210h31l-47 -210h-28z" />
    <glyph glyph-name="uni0219" unicode="&#x219;" horiz-adv-x="746" 
d="M391 -18q-90 0 -184.5 28t-162.5 84q6 19 18 28q63 -52 150.5 -79.5t177.5 -27.5q122 0 197.5 45t75.5 113q0 79 -67.5 116.5t-229.5 44.5q-290 15 -290 177q0 79 81 134t219 55q73 0 156.5 -20t153.5 -65q-3 -17 -13 -30q-130 83 -294 83q-129 0 -197 -47.5t-68 -109.5
q0 -134 259 -147q179 -8 253.5 -53t74.5 -137q0 -87 -89 -139.5t-221 -52.5zM335 -307l44 210h31l-47 -210h-28z" />
    <glyph glyph-name="uni021A" unicode="&#x21a;" horiz-adv-x="913" 
d="M882 892q3 -20 -7 -32h-417v-860h-39v860h-388q-4 20 6 32h845zM378 -282l44 210h31l-47 -210h-28z" />
    <glyph glyph-name="uni021B" unicode="&#x21b;" horiz-adv-x="534" 
d="M511 621h-366v-326q0 -132 58 -206t164 -74q52 0 123 22q4 -4 6 -14.5t0 -17.5q-72 -23 -132 -23q-119 -1 -188 80t-69 231v328h-96v32h96v182q18 10 38 7v-189h366v-32zM238 -297l44 210h31l-47 -210h-28z" />
    <glyph glyph-name="uni0237" unicode="&#x237;" horiz-adv-x="238" 
d="M17 -225q-36 0 -90 17q-2 8 0.5 18.5t7.5 15.5q50 -16 78 -16q51 0 71 46t20 157v640q6 2 19 2t18 -2v-657q0 -109 -26.5 -165t-97.5 -56z" />
    <glyph glyph-name="circumflex" unicode="&#x2c6;" horiz-adv-x="606" 
d="M537 736h-39l-195 196l-195 -196h-40l226 224h18z" />
    <glyph glyph-name="caron" unicode="&#x2c7;" horiz-adv-x="606" 
d="M498 960h39l-225 -224h-18l-226 224h40l195 -196z" />
    <glyph glyph-name="breve" unicode="&#x2d8;" horiz-adv-x="595" 
d="M297 728q-99 0 -164 51t-65 142h31q0 -74 55 -119t143 -45q86 0 142.5 45.5t56.5 118.5h30q0 -88 -66.5 -140.5t-162.5 -52.5z" />
    <glyph glyph-name="dotaccent" unicode="&#x2d9;" horiz-adv-x="199" 
d="M99 781q-12 0 -21.5 9t-9.5 21q0 13 9.5 22.5t21.5 9.5q13 0 22.5 -9.5t9.5 -22.5q0 -12 -9.5 -21t-22.5 -9z" />
    <glyph glyph-name="ring" unicode="&#x2da;" horiz-adv-x="523" 
d="M263 723q-85 0 -140 36.5t-55 99.5q0 59 54 98t141 39q80 0 136 -39t56 -98t-59 -97.5t-133 -38.5zM262 744q67 0 117.5 34t50.5 81q0 49 -49.5 82t-118.5 33q-75 0 -121.5 -33.5t-46.5 -81.5q0 -50 45.5 -82.5t122.5 -32.5z" />
    <glyph glyph-name="ogonek" unicode="&#x2db;" horiz-adv-x="385" 
d="M178 -327q-48 -1 -79 24.5t-31 75.5q0 54 38.5 121.5t108.5 121.5l23 -9q-68 -54 -104 -116.5t-36 -112.5q0 -38 24 -57t61 -18q30 0 62.5 17t51.5 43l20 -16q-23 -32 -62.5 -53t-76.5 -21z" />
    <glyph glyph-name="tilde" unicode="&#x2dc;" horiz-adv-x="607" 
d="M441 766q-40 0 -89.5 31t-98 62t-84.5 31q-33 0 -53.5 -32.5t-20.5 -86.5h-27q0 68 28 109.5t70 41.5q32 0 70.5 -19.5t68.5 -42.5t66.5 -42.5t65.5 -19.5q34 -1 54.5 33t20.5 86h27q0 -67 -26.5 -109t-71.5 -42z" />
    <glyph glyph-name="hungarumlaut" unicode="&#x2dd;" horiz-adv-x="568" 
d="M73 736l167 245h39l-177 -245h-29zM288 736l170 245h41l-182 -245h-29z" />
    <glyph glyph-name="gravecomb" unicode="&#x300;" 
d="M-98 736l-186 245h41l175 -245h-30z" />
    <glyph glyph-name="acutecomb" unicode="&#x301;" 
d="M-278 736l168 245h42l-181 -245h-29z" />
    <glyph glyph-name="uni0302" unicode="&#x302;" 
d="M-69 736h-39l-195 194l-195 -194h-40l226 224h18z" />
    <glyph glyph-name="tildecomb" unicode="&#x303;" 
d="M-166 766q-40 0 -89.5 31t-98 62t-84.5 31q-33 0 -53.5 -32.5t-20.5 -86.5h-27q0 68 28 109.5t70 41.5q32 0 70.5 -19.5t68.5 -42.5t66.5 -42.5t65.5 -19.5q34 -1 54.5 33t20.5 86h27q0 -67 -26.5 -109t-71.5 -42z" />
    <glyph glyph-name="uni0304" unicode="&#x304;" 
d="M-558 818v30h485v-30h-485z" />
    <glyph glyph-name="uni0306" unicode="&#x306;" 
d="M-298 728q-99 0 -164 51t-65 142h31q0 -74 55 -119t143 -45q86 0 142.5 45.5t56.5 118.5h30q0 -88 -66.5 -140.5t-162.5 -52.5z" />
    <glyph glyph-name="uni0307" unicode="&#x307;" 
d="M-100 781q-12 0 -21.5 9t-9.5 21q0 13 9.5 22.5t21.5 9.5q13 0 22.5 -9.5t9.5 -22.5q0 -12 -9.5 -21t-22.5 -9z" />
    <glyph glyph-name="uni0308" unicode="&#x308;" 
d="M-414 781q-13 0 -22 9t-9 21q0 13 9 22.5t22 9.5t22 -9.5t9 -22.5q0 -12 -9 -21t-22 -9zM-104 781q-13 0 -22 9t-9 21q0 13 9 22.5t22 9.5t22 -9.5t9 -22.5q0 -12 -9 -21t-22 -9z" />
    <glyph glyph-name="uni030A" unicode="&#x30a;" 
d="M-260 728q-85 0 -140 37t-55 99q0 60 54 98.5t141 38.5q80 0 136 -38.5t56 -98.5q0 -59 -59 -97.5t-133 -38.5zM-261 749q67 0 117.5 34t50.5 81q0 49 -49.5 82.5t-118.5 33.5q-75 0 -121.5 -33.5t-46.5 -82.5q0 -50 45.5 -82.5t122.5 -32.5z" />
    <glyph glyph-name="uni030B" unicode="&#x30b;" 
d="M-495 736l167 245h39l-177 -245h-29zM-280 736l170 245h41l-182 -245h-29z" />
    <glyph glyph-name="uni030C" unicode="&#x30c;" 
d="M-108 960h39l-225 -224h-18l-226 224h40l195 -196z" />
    <glyph glyph-name="uni0311" unicode="&#x311;" 
d="M-526 736q0 88 67 140t163 52q98 0 162.5 -51t64.5 -141h-31q0 73 -54.5 118t-141.5 45q-86 0 -142.5 -46.5t-56.5 -116.5h-31z" />
    <glyph glyph-name="uni0312" unicode="&#x312;" 
d="M-259 803l51 213h28l-47 -213h-32z" />
    <glyph glyph-name="uni0326" unicode="&#x326;" 
d="M-248 -291l44 210h31l-47 -210h-28z" />
    <glyph glyph-name="uni0327" unicode="&#x327;" 
d="M-165 -321q-55 0 -107 53l20 20q42 -45 87 -45q29 0 48.5 22t19.5 55q-1 44 -47 96q-39 43 -48.5 65t-9.5 62h28q0 -36 10 -54.5t50 -64.5q46 -52 46 -105q0 -44 -27.5 -73.5t-69.5 -30.5z" />
    <glyph glyph-name="uni0328" unicode="&#x328;" 
d="M-207 -327q-48 -1 -79 24.5t-31 75.5q0 54 38.5 121.5t108.5 121.5l23 -9q-68 -54 -104 -116.5t-36 -112.5q0 -38 24 -57t61 -18q30 0 62.5 17t51.5 43l20 -16q-23 -32 -62.5 -53t-76.5 -21z" />
    <glyph glyph-name="uni03BC" unicode="&#x3bc;" horiz-adv-x="870" 
d="M780 144q0 -65 4.5 -90.5t18.5 -45.5v-8h-32q-14 16 -19.5 37t-5.5 72v124q-27 -108 -121.5 -179.5t-222.5 -71.5q-181 0 -236 151v-388h-34v908q14 4 37 0v-376q0 -135 63.5 -198.5t172.5 -63.5q146 0 241.5 97t95.5 240v301q6 2 20 2t18 -2v-509z" />
    <glyph glyph-name="uni1E02" unicode="&#x1e02;" horiz-adv-x="917" 
d="M421 988q-11 0 -19 8t-8 19q0 12 8 20.5t19 8.5t19.5 -8.5t8.5 -20.5q0 -11 -8.5 -19t-19.5 -8zM629 523q245 -45 245 -236q0 -145 -111 -224.5t-301 -80.5q-131 -1 -208 8.5t-170 34.5v855q82 19 153 26t184 7q85 0 152 -14.5t106.5 -37t65.5 -52.5t35.5 -58t9.5 -56
q0 -58 -42 -104.5t-119 -67.5zM422 882q-191 0 -300 -27v-369q60 22 158.5 35.5t190.5 13.5q52 0 89 -4q91 12 141.5 57t50.5 104q0 33 -15.5 63.5t-50.5 60.5t-103 48t-161 18zM460 14q181 0 279 73.5t98 197.5q0 218 -371 218q-202 0 -344 -50v-402q129 -37 338 -37z" />
    <glyph glyph-name="uni1E03" unicode="&#x1e03;" horiz-adv-x="782" 
d="M396 1036q-12 0 -21.5 9t-9.5 21q0 13 9.5 22.5t21.5 9.5q13 0 22.5 -9.5t9.5 -22.5q0 -12 -9.5 -21t-22.5 -9zM444 700q133 0 216.5 -94.5t83.5 -241.5q0 -154 -98 -268t-244 -114q-99 0 -172.5 57t-109.5 144v-41q0 -80 -17 -142h-35v9q14 59 14 157v766q7 2 19.5 2
t17.5 -2v-501q33 118 125.5 193.5t199.5 75.5zM397 15q134 0 222 106t87 243q0 135 -74.5 219.5t-189.5 84.5q-83 0 -157.5 -51t-119.5 -135.5t-45 -177.5q0 -112 80 -200.5t197 -88.5z" />
    <glyph glyph-name="uni1E0A" unicode="&#x1e0a;" horiz-adv-x="957" 
d="M416 999q-11 0 -19 8t-8 19q0 12 8 20.5t19 8.5t19.5 -8.5t8.5 -20.5q0 -11 -8.5 -19t-19.5 -8zM416 913q226 0 362.5 -126.5t136.5 -329.5q0 -213 -129.5 -343.5t-346.5 -131.5q-121 0 -187.5 9t-167.5 34v855q140 33 332 33zM438 14q201 0 319 122.5t119 320.5
q0 183 -123.5 303.5t-337.5 120.5q-188 0 -293 -26v-803q135 -38 316 -38z" />
    <glyph glyph-name="uni1E0B" unicode="&#x1e0b;" horiz-adv-x="786" 
d="M382 1055q-12 0 -21.5 9t-9.5 21q0 13 9.5 22.5t21.5 9.5q13 0 22.5 -9.5t9.5 -22.5q0 -12 -9.5 -21t-22.5 -9zM705 166q0 -102 13 -157v-9h-32q-18 45 -18 144v80q-35 -101 -119.5 -171.5t-198.5 -70.5q-137 0 -224.5 93t-87.5 241q0 158 100.5 271t253.5 113
q96 0 171.5 -61.5t103.5 -158.5v452q5 2 18 2t20 -2v-766zM354 15q134 0 222.5 106.5t88.5 241.5q0 130 -77.5 217t-190.5 87q-135 0 -228 -102.5t-93 -247.5q0 -132 77 -217t201 -85z" />
    <glyph glyph-name="uni1E1E" unicode="&#x1e1e;" horiz-adv-x="829" 
d="M424 978q-11 0 -19 8t-8 19q0 12 8 20.5t19 8.5t19.5 -8.5t8.5 -20.5q0 -11 -8.5 -19t-19.5 -8zM779 859h-657v-466h564q3 -7 0.5 -17.5t-6.5 -14.5h-558v-361h-38v885l6 6h696q4 -13 -7 -32z" />
    <glyph glyph-name="uni1E1F" unicode="&#x1e1f;" horiz-adv-x="392" 
d="M326 1071q-12 0 -21.5 9t-9.5 21q0 13 9.5 22.5t21.5 9.5q13 0 22.5 -9.5t9.5 -22.5q0 -12 -9.5 -21t-22.5 -9zM402 906q-172 -1 -181 -253h251v-32h-251v-621h-38v621h-176v32h176q11 285 214 285q54 0 128 -22q2 -22 -8 -32q-63 22 -115 22z" />
    <glyph glyph-name="uni1E40" unicode="&#x1e40;" horiz-adv-x="1162" 
d="M581 978q-11 0 -19 8t-8 19q0 12 8 20.5t19 8.5t19.5 -8.5t8.5 -20.5q0 -11 -8.5 -19t-19.5 -8zM1120 0h-39l-86 829l-400 -669h-29l-400 669l-86 -829h-38l93 886q5 5 17.5 7t17.5 -1l411 -687l410 687q6 2 18.5 -0.5t16.5 -6.5z" />
    <glyph glyph-name="uni1E41" unicode="&#x1e41;" horiz-adv-x="1132" 
d="M588 826q-12 0 -21.5 9t-9.5 21q0 13 9.5 22.5t21.5 9.5q13 0 22.5 -9.5t9.5 -22.5q0 -12 -9.5 -21t-22.5 -9zM862 700q97 0 149.5 -79.5t52.5 -222.5v-398h-38v397q0 124 -43.5 197t-127.5 73q-76 0 -139 -53t-96 -132t-33 -161v-321h-37v391q0 276 -162 276
q-74 0 -137 -56t-97 -140t-34 -170v-301h-38v526q0 71 -14 119v7q22 5 35 3q14 -39 14 -87v-123q33 106 107.5 180.5t167.5 74.5q169 0 189 -243q33 104 108.5 173.5t172.5 69.5z" />
    <glyph glyph-name="uni1E56" unicode="&#x1e56;" horiz-adv-x="916" 
d="M457 998q-11 0 -19 8t-8 19q0 12 8 20.5t19 8.5t19.5 -8.5t8.5 -20.5q0 -11 -8.5 -19t-19.5 -8zM874 591q1 -142 -120.5 -225.5t-309.5 -83.5q-175 0 -322 47v-329h-38v871q156 42 373 42q189 0 303 -86t114 -236zM835 591q1 134 -101.5 212t-278.5 78q-210 0 -333 -37
v-479q133 -50 320 -50q171 0 281.5 72.5t111.5 203.5z" />
    <glyph glyph-name="uni1E57" unicode="&#x1e57;" horiz-adv-x="780" 
d="M413 826q-12 0 -21.5 9t-9.5 21q0 13 9.5 22.5t21.5 9.5q13 0 22.5 -9.5t9.5 -22.5q0 -12 -9.5 -21t-22.5 -9zM440 700q136 0 219 -93t83 -243q0 -100 -43 -187t-122 -141t-174 -54q-98 0 -174.5 58t-111.5 148v-424q-6 -2 -19.5 -2t-18.5 2v753q0 64 -11 129v7
q17 6 34 3l15 -79v-129q40 109 130 180.5t193 71.5zM398 15q133 0 219.5 107t86.5 241q0 138 -75 221.5t-191 83.5q-129 0 -225 -113t-96 -257q0 -110 82.5 -196.5t198.5 -86.5z" />
    <glyph glyph-name="uni1E60" unicode="&#x1e60;" horiz-adv-x="923" 
d="M480 999q-11 0 -19 8t-8 19q0 12 8 20.5t19 8.5t19.5 -8.5t8.5 -20.5q0 -11 -8.5 -19t-19.5 -8zM490 -18q-123 0 -240 36t-208 103q4 23 21 30q185 -137 426 -137q166 0 259.5 62t93.5 162q0 55 -29 94t-84 61t-116.5 32.5t-144.5 15.5q-149 8 -238.5 63t-89.5 165
q0 78 54.5 135.5t130 83t155.5 25.5q184 0 288 -72.5t104 -183.5q-24 -7 -39 -4q-2 107 -98.5 167.5t-254.5 60.5q-121 0 -211 -59t-90 -154q0 -66 43.5 -110t106.5 -62.5t145 -22.5q200 -10 303.5 -66t103.5 -167q0 -112 -101.5 -185t-289.5 -73z" />
    <glyph glyph-name="uni1E61" unicode="&#x1e61;" horiz-adv-x="746" 
d="M376 826q-12 0 -21.5 9t-9.5 21q0 13 9.5 22.5t21.5 9.5q13 0 22.5 -9.5t9.5 -22.5q0 -12 -9.5 -21t-22.5 -9zM391 -18q-90 0 -184.5 28t-162.5 84q6 19 18 28q63 -52 150.5 -79.5t177.5 -27.5q122 0 197.5 45t75.5 113q0 79 -67.5 116.5t-229.5 44.5q-290 15 -290 177
q0 79 81 134t219 55q73 0 156.5 -20t153.5 -65q-3 -17 -13 -30q-130 83 -294 83q-129 0 -197 -47.5t-68 -109.5q0 -134 259 -147q179 -8 253.5 -53t74.5 -137q0 -87 -89 -139.5t-221 -52.5z" />
    <glyph glyph-name="uni1E6A" unicode="&#x1e6a;" horiz-adv-x="913" 
d="M441 978q-11 0 -19 8t-8 19q0 12 8 20.5t19 8.5t19.5 -8.5t8.5 -20.5q0 -11 -8.5 -19t-19.5 -8zM882 892q3 -20 -7 -32h-417v-860h-39v860h-388q-4 20 6 32h845z" />
    <glyph glyph-name="uni1E6B" unicode="&#x1e6b;" horiz-adv-x="534" 
d="M128 969q-12 0 -21.5 9t-9.5 21q0 13 9.5 22.5t21.5 9.5q13 0 22.5 -9.5t9.5 -22.5q0 -12 -9.5 -21t-22.5 -9zM511 621h-366v-326q0 -132 58 -206t164 -74q52 0 123 22q4 -4 6 -14.5t0 -17.5q-72 -23 -132 -23q-119 -1 -188 80t-69 231v328h-96v32h96v182q18 10 38 7
v-189h366v-32z" />
    <glyph glyph-name="Wgrave" unicode="&#x1e80;" horiz-adv-x="1370" 
d="M697 960l-192 189h38l183 -189h-29zM483 0l-13 8q-83 229 -215.5 474t-240.5 403l3 7q18 5 36 0q122 -183 246.5 -416t199.5 -443h5q70 96 151 236t106 222q-14 34 -101 234q8 16 34 14q51 -105 149 -339.5t145 -366.5h4q168 209 256.5 439.5t60.5 417.5q12 8 37 2
q30 -187 -59 -427t-267 -455l-16 -10h-38l-9 6q-105 273 -178 434q-24 -76 -111.5 -224t-136.5 -210l-13 -6h-35z" />
    <glyph glyph-name="wgrave" unicode="&#x1e81;" horiz-adv-x="1043" 
d="M556 761l-186 245h41l175 -245h-30zM346 0l-10 7q-16 49 -35 99t-37 91.5t-39.5 85.5t-38.5 77t-39 70.5t-36 60.5t-34 53.5t-28 43t-23.5 35t-16.5 23.5l3 7q23 4 36 0q1 -2 22.5 -33t33 -48t37.5 -58.5t44 -74t45 -83.5t48 -97.5t44.5 -106t43.5 -118.5h6
q52 77 108.5 184t84.5 185l-76 164q3 6 14 11t21 4q52 -112 81 -176.5t67 -166t68 -205.5h6q109 146 183 314.5t66 302.5q13 6 36 2q14 -124 -64.5 -310.5t-196.5 -335.5l-10 -7h-37l-10 7q-52 175 -128 347q-20 -60 -81.5 -172.5t-107.5 -174.5l-10 -7h-40z" />
    <glyph glyph-name="Wacute" unicode="&#x1e82;" horiz-adv-x="1370" 
d="M666 937l180 198h40l-191 -198h-29zM483 0l-13 8q-83 229 -215.5 474t-240.5 403l3 7q18 5 36 0q122 -183 246.5 -416t199.5 -443h5q70 96 151 236t106 222q-14 34 -101 234q8 16 34 14q51 -105 149 -339.5t145 -366.5h4q168 209 256.5 439.5t60.5 417.5q12 8 37 2
q30 -187 -59 -427t-267 -455l-16 -10h-38l-9 6q-105 273 -178 434q-24 -76 -111.5 -224t-136.5 -210l-13 -6h-35z" />
    <glyph glyph-name="wacute" unicode="&#x1e83;" horiz-adv-x="1043" 
d="M494 761l168 245h42l-181 -245h-29zM346 0l-10 7q-16 49 -35 99t-37 91.5t-39.5 85.5t-38.5 77t-39 70.5t-36 60.5t-34 53.5t-28 43t-23.5 35t-16.5 23.5l3 7q23 4 36 0q1 -2 22.5 -33t33 -48t37.5 -58.5t44 -74t45 -83.5t48 -97.5t44.5 -106t43.5 -118.5h6
q52 77 108.5 184t84.5 185l-76 164q3 6 14 11t21 4q52 -112 81 -176.5t67 -166t68 -205.5h6q109 146 183 314.5t66 302.5q13 6 36 2q14 -124 -64.5 -310.5t-196.5 -335.5l-10 -7h-37l-10 7q-52 175 -128 347q-20 -60 -81.5 -172.5t-107.5 -174.5l-10 -7h-40z" />
    <glyph glyph-name="Wdieresis" unicode="&#x1e84;" horiz-adv-x="1370" 
d="M535 983q-11 0 -19 8t-8 19q0 12 8 20.5t19 8.5t19.5 -8.5t8.5 -20.5q0 -11 -8.5 -19t-19.5 -8zM836 983q-11 0 -19 8t-8 19q0 12 8 20.5t19 8.5t19.5 -8.5t8.5 -20.5q0 -11 -8.5 -19t-19.5 -8zM483 0l-13 8q-83 229 -215.5 474t-240.5 403l3 7q18 5 36 0
q122 -183 246.5 -416t199.5 -443h5q70 96 151 236t106 222q-14 34 -101 234q8 16 34 14q51 -105 149 -339.5t145 -366.5h4q168 209 256.5 439.5t60.5 417.5q12 8 37 2q30 -187 -59 -427t-267 -455l-16 -10h-38l-9 6q-105 273 -178 434q-24 -76 -111.5 -224t-136.5 -210
l-13 -6h-35z" />
    <glyph glyph-name="wdieresis" unicode="&#x1e85;" horiz-adv-x="1043" 
d="M370 806q-13 0 -22 9t-9 21q0 13 9 22.5t22 9.5t22 -9.5t9 -22.5q0 -12 -9 -21t-22 -9zM680 806q-13 0 -22 9t-9 21q0 13 9 22.5t22 9.5t22 -9.5t9 -22.5q0 -12 -9 -21t-22 -9zM346 0l-10 7q-16 49 -35 99t-37 91.5t-39.5 85.5t-38.5 77t-39 70.5t-36 60.5t-34 53.5
t-28 43t-23.5 35t-16.5 23.5l3 7q23 4 36 0q1 -2 22.5 -33t33 -48t37.5 -58.5t44 -74t45 -83.5t48 -97.5t44.5 -106t43.5 -118.5h6q52 77 108.5 184t84.5 185l-76 164q3 6 14 11t21 4q52 -112 81 -176.5t67 -166t68 -205.5h6q109 146 183 314.5t66 302.5q13 6 36 2
q14 -124 -64.5 -310.5t-196.5 -335.5l-10 -7h-37l-10 7q-52 175 -128 347q-20 -60 -81.5 -172.5t-107.5 -174.5l-10 -7h-40z" />
    <glyph glyph-name="uni1E9E" unicode="&#x1e9e;" horiz-adv-x="947" 
d="M353 517q63 -2 128.5 -10.5t142 -30t135.5 -52.5t98 -82.5t39 -115.5q0 -112 -102 -178t-245 -66q-208 0 -336 114q4 19 20 28q114 -108 314 -108q132 0 221.5 58.5t89.5 152.5q0 60 -43 108t-106 76.5t-142 47t-144.5 25.5t-120.5 7l-7 16l460 352h-420q-75 0 -124 -37
t-68.5 -94.5t-19.5 -134.5v-593h-37v595q0 137 59.5 217t187.5 80h478q7 -15 -3 -30z" />
    <glyph glyph-name="Ygrave" unicode="&#x1ef2;" horiz-adv-x="897" 
d="M490 960h-29l-192 189h38zM882 892q15 -271 -383 -602v-290h-38v292q-53 78 -221 304.5t-225 288.5l3 7q20 6 41 0q44 -46 197.5 -253t228.5 -314q164 132 265 282.5t93 282.5q14 7 39 2z" />
    <glyph glyph-name="ygrave" unicode="&#x1ef3;" horiz-adv-x="743" 
d="M439 782h-30l-186 245h41zM729 653q10 -108 -18 -239t-106.5 -278.5t-195.5 -256.5q-147 -136 -308 -136q-50 0 -85 16q-7 16 -1 29l7 4q32 -17 80 -17q75 1 150.5 38t138.5 99q55 53 94 105q-63 35 -129 100.5t-118.5 137.5t-99 150t-75.5 138t-45 102l2 7q16 5 36 1
q17 -48 57.5 -125.5t99 -171.5t138 -181t155.5 -131q100 139 147.5 300t39.5 306q15 10 36 3z" />
    <glyph glyph-name="endash" unicode="&#x2013;" horiz-adv-x="1114" 
d="M212 343v31h690v-31h-690z" />
    <glyph glyph-name="emdash" unicode="&#x2014;" horiz-adv-x="1229" 
d="M212 343v31h805v-31h-805z" />
    <glyph glyph-name="quoteleft" unicode="&#x2018;" horiz-adv-x="309" 
d="M111 656l58 291h30l-53 -291h-35z" />
    <glyph glyph-name="quoteright" unicode="&#x2019;" horiz-adv-x="311" 
d="M111 656l53 291h36l-59 -291h-30z" />
    <glyph glyph-name="quotesinglbase" unicode="&#x201a;" horiz-adv-x="311" 
d="M111 -125l53 290h36l-59 -290h-30z" />
    <glyph glyph-name="quotedblleft" unicode="&#x201c;" horiz-adv-x="453" 
d="M111 656l58 291h30l-52 -291h-36zM254 656l58 291h30l-51 -291h-37z" />
    <glyph glyph-name="quotedblright" unicode="&#x201d;" horiz-adv-x="453" 
d="M111 656l51 291h37l-58 -291h-30zM254 656l52 291h36l-58 -291h-30z" />
    <glyph glyph-name="quotedblbase" unicode="&#x201e;" horiz-adv-x="454" 
d="M111 -125l53 290h36l-59 -290h-30zM254 -125l53 290h37l-60 -290h-30z" />
    <glyph glyph-name="dagger" unicode="&#x2020;" horiz-adv-x="819" 
d="M684 817v-33h-260v-913h-33v913h-256v33h256v178h33v-178h260z" />
    <glyph glyph-name="daggerdbl" unicode="&#x2021;" horiz-adv-x="824" 
d="M686 85v-33h-262v-181h-33v181h-254v33h254v699h-256v33h256v178h33v-178h260v-33h-260v-699h262z" />
    <glyph glyph-name="bullet" unicode="&#x2022;" horiz-adv-x="690" 
d="M345 305q-40 0 -69.5 31t-29.5 74q0 42 29.5 74t69.5 32q39 0 69 -32.5t30 -73.5q0 -42 -30 -73.5t-69 -31.5z" />
    <glyph glyph-name="ellipsis" unicode="&#x2026;" horiz-adv-x="721" 
d="M141 0q-12 0 -21 9t-9 22t9 22.5t21 9.5q13 0 22.5 -9.5t9.5 -22.5t-9.5 -22t-22.5 -9zM360 0q-12 0 -21 9t-9 22t9 22.5t21 9.5q13 0 22 -9.5t9 -22.5t-9 -22t-22 -9zM579 0q-12 0 -21.5 9t-9.5 22t9.5 22.5t21.5 9.5q13 0 22.5 -9.5t9.5 -22.5t-9.5 -22t-22.5 -9z" />
    <glyph glyph-name="perthousand" unicode="&#x2030;" horiz-adv-x="1607" 
d="M134 0l773 890h44l-772 -890h-45zM343 493q-102 0 -167 50.5t-65 138.5q0 86 63.5 138t168.5 52q106 0 169.5 -51.5t63.5 -138.5t-67 -138t-166 -51zM343 520q83 0 139.5 45t56.5 117q0 74 -54 118.5t-142 44.5q-86 0 -140 -45.5t-54 -117.5q0 -73 54 -117.5t140 -44.5z
M726 -3q-102 0 -166.5 50.5t-64.5 139.5q0 85 63.5 137.5t167.5 52.5q105 0 169.5 -51.5t64.5 -138.5t-67.5 -138.5t-166.5 -51.5zM1263 -3q-102 0 -167 50.5t-65 139.5q0 85 64 137.5t168 52.5t168.5 -51.5t64.5 -138.5t-67 -138.5t-166 -51.5zM726 25q84 0 140.5 44.5
t56.5 117.5q0 74 -54.5 118t-142.5 44q-87 0 -140.5 -45t-53.5 -117q0 -74 54 -118t140 -44zM1263 25q84 0 140 44.5t56 117.5q0 74 -54 118t-142 44t-141.5 -45t-53.5 -117q0 -74 54 -118t141 -44z" />
    <glyph glyph-name="guilsinglleft" unicode="&#x2039;" horiz-adv-x="773" 
d="M662 703l-503 -270l503 -271l-13 -27l-538 285v25l536 283z" />
    <glyph glyph-name="guilsinglright" unicode="&#x203a;" horiz-adv-x="773" 
d="M126 728l537 -283v-25l-538 -285l-14 27l503 271l-503 270z" />
    <glyph glyph-name="fraction" unicode="&#x2044;" horiz-adv-x="1120" 
d="M111 -130l862 1173h36l-862 -1173h-36z" />
    <glyph glyph-name="Euro" unicode="&#x20ac;" horiz-adv-x="945" 
d="M816 131l19 -24q-39 -41 -120 -74t-191 -33q-133 0 -240.5 91t-134.5 252h-77v27h73q-4 31 -4 72q0 31 3 61h-72v28h76q17 109 75.5 187.5t136 114.5t164.5 36q98 0 180 -31t129 -74l-19 -24q-48 41 -123.5 69t-164.5 28q-124 0 -219.5 -79t-119.5 -227h401v-28h-405
q-3 -29 -3 -61q0 -26 4 -72h369v-27h-364q27 -146 123.5 -228t215.5 -82q101 0 175.5 30t112.5 68z" />
    <glyph glyph-name="uni2116" unicode="&#x2116;" horiz-adv-x="1739" 
d="M1326 305q-127 0 -203.5 78t-76.5 204q0 137 88 230t215 93q125 0 200.5 -75.5t78.5 -199.5q4 -144 -82.5 -237t-219.5 -93zM928 890q19 8 38 0v-890h-30l-787 833v-833h-38v881q3 5 14 8.5t16 1.5l787 -833v832zM1348 878q-110 0 -187.5 -83.5t-77.5 -206.5
q0 -113 66.5 -182t177.5 -69q116 0 192 83.5t72 212.5q-2 109 -68 177t-175 68zM1090 147v30h491v-30h-491z" />
    <glyph glyph-name="trademark" unicode="&#x2122;" horiz-adv-x="993" 
d="M431 890v-31h-144v-441h-33v441h-143v31h320zM883 890v-472h-33v411l-156 -353h-21l-162 353v-411h-33v472h37l168 -369l162 369h38z" />
    <glyph glyph-name="estimated" unicode="&#x212e;" horiz-adv-x="1002" 
d="M508 895q171 0 278 -131.5t105 -357.5h-667v-263q108 -142 281 -142q81 0 167.5 43.5t139.5 110.5q12 -3 13 -14q-53 -69 -144 -114t-175 -45q-170 0 -282.5 125.5t-112.5 328.5q0 205 112 332t285 127zM787 425v297q-102 154 -279 154q-86 0 -162.5 -38.5t-122.5 -105.5
l1 -307h563z" />
    <glyph glyph-name="partialdiff" unicode="&#x2202;" horiz-adv-x="966" 
d="M450 910q84 0 154 -32.5t115.5 -84.5t77 -120t45.5 -137t14 -137q0 -206 -107.5 -311.5t-282.5 -105.5q-87 0 -157 25t-112 66t-64 89.5t-22 99.5q0 104 89.5 174.5t269.5 70.5q104 0 199 -24.5t148 -59.5q-3 81 -26 158t-66 145t-114.5 109.5t-162.5 41.5
q-73 0 -148.5 -35t-123.5 -87q-12 14 -9 32q45 52 127 87.5t156 35.5zM466 15q159 0 254 96t97 281q-49 33 -142.5 57.5t-196.5 24.5q-164 0 -246 -60.5t-82 -152.5q0 -99 84.5 -172.5t231.5 -73.5z" />
    <glyph glyph-name="minus" unicode="&#x2212;" horiz-adv-x="784" 
d="M118 421v33h548v-33h-548z" />
    <glyph glyph-name="radical" unicode="&#x221a;" horiz-adv-x="1166" 
d="M1166 890v-33h-211l-431 -857h-32l-381 482h44l349 -439l425 847h237z" />
    <glyph glyph-name="infinity" unicode="&#x221e;" horiz-adv-x="1128" 
d="M796 689q96 0 159 -59.5t63 -177.5q0 -116 -63 -175.5t-159 -59.5q-50 0 -88.5 14.5t-65 44t-43 59t-34.5 72.5q-17 -43 -33.5 -72.5t-43 -58.5t-66 -44t-90.5 -15q-95 0 -158 59.5t-63 175.5q0 118 62.5 177.5t158.5 59.5q42 0 76 -12t56.5 -29.5t42.5 -47.5t31.5 -55
t25.5 -63q14 38 25.5 63t31.5 55t42 47.5t56.5 29.5t76.5 12zM333 243q49 0 85 15.5t61 47.5t39.5 61t31.5 77q-14 38 -21 55t-22.5 48.5t-29.5 47t-35.5 33.5t-48.5 25.5t-60 7.5q-80 0 -135.5 -52t-55.5 -157q0 -106 55.5 -157.5t135.5 -51.5zM796 244q80 0 135.5 51.5
t55.5 156.5t-55 157t-136 52q-33 0 -60.5 -7.5t-48.5 -25t-35.5 -33.5t-29.5 -46.5t-22.5 -49t-20.5 -55.5q18 -47 32.5 -76t39.5 -61t61 -47.5t84 -15.5z" />
    <glyph glyph-name="approxequal" unicode="&#x2248;" horiz-adv-x="737" 
d="M111 458q0 68 30.5 109.5t78.5 41.5q44 0 96.5 -29.5t104 -59t91.5 -29.5q38 0 60 33t22 85h33q0 -67 -29.5 -109t-80.5 -42q-43 0 -96.5 29.5t-105.5 59t-91 29.5q-36 0 -58.5 -32.5t-22.5 -85.5h-32zM111 301q0 68 30.5 109.5t78.5 41.5q44 0 96.5 -29.5t104 -59
t91.5 -29.5q38 0 60 33t22 85h33q0 -67 -29.5 -109t-80.5 -42q-43 0 -96.5 29.5t-105.5 59.5t-91 30q-36 0 -58.5 -33t-22.5 -86h-32z" />
    <glyph glyph-name="notequal" unicode="&#x2260;" horiz-adv-x="791" 
d="M679 886l-206 -347h191v-32h-210l-83 -140h293v-33h-312l-180 -303h-40l179 303h-195v33h214l83 140h-297v32h316l205 347h42z" />
    <glyph glyph-name="lessequal" unicode="&#x2264;" horiz-adv-x="772" 
d="M661 722l-502 -270l500 -268l-14 -27l-534 283v25l536 285zM144 62v29h498v-29h-498z" />
    <glyph glyph-name="greaterequal" unicode="&#x2265;" horiz-adv-x="772" 
d="M125 739l536 -285v-25l-534 -283l-15 27l502 269l-503 270zM115 56v29h498v-29h-498z" />
    <glyph glyph-name="i.loclTRK" horiz-adv-x="225" 
d="M112 826q-12 0 -21.5 9t-9.5 21q0 13 9.5 22.5t21.5 9.5q13 0 22.5 -9.5t9.5 -22.5q0 -12 -9.5 -21t-22.5 -9zM94 0v653q7 2 19.5 2t17.5 -2v-653h-37z" />
    <glyph glyph-name="uni00A0.001" horiz-adv-x="402" 
 />
    <glyph glyph-name="uni030C.alt" 
d="M-129 625l16 333h36l-23 -333h-29z" />
    <glyph glyph-name="uni0308.case" 
d="M-402 981q-11 0 -19 8t-8 19q0 12 8 20.5t19 8.5t19.5 -8.5t8.5 -20.5q0 -11 -8.5 -19t-19.5 -8zM-101 981q-11 0 -19 8t-8 19q0 12 8 20.5t19 8.5t19.5 -8.5t8.5 -20.5q0 -11 -8.5 -19t-19.5 -8z" />
    <glyph glyph-name="uni0307.case" 
d="M-103 976q-11 0 -19 8t-8 19q0 12 8 20.5t19 8.5t19.5 -8.5t8.5 -20.5q0 -11 -8.5 -19t-19.5 -8z" />
    <glyph glyph-name="gravecomb.case" 
d="M-102 962l-192 189h38l183 -189h-29z" />
    <glyph glyph-name="acutecomb.case" 
d="M-237 935l180 198h40l-191 -198h-29z" />
    <glyph glyph-name="uni030B.case" 
d="M-465 959l148 173h38l-159 -173h-27zM-264 959l152 173h41l-165 -173h-28z" />
    <glyph glyph-name="uni0302.case" 
d="M-73 933h-38l-194 195l-195 -195h-38l223 222h19z" />
    <glyph glyph-name="uni030C.case" 
d="M-108 1154h39l-225 -216h-18l-226 216h40l195 -187z" />
    <glyph glyph-name="uni0306.case" 
d="M-290 764q-94 0 -155 43t-61 120h28q0 -61 52 -99t136 -38q81 0 134.5 38t53.5 99h29q0 -75 -63 -119t-154 -44z" />
    <glyph glyph-name="uni030A.case" 
d="M-260 884q-85 0 -140 36.5t-55 99.5q0 59 54 98t141 39q80 0 136 -39t56 -98t-59 -97.5t-133 -38.5zM-261 905q67 0 117.5 34t50.5 81q0 49 -49.5 82t-118.5 33q-75 0 -121.5 -33.5t-46.5 -81.5q0 -50 45.5 -82.5t122.5 -32.5z" />
    <glyph glyph-name="tildecomb.case" 
d="M-166 952q-40 0 -89.5 31t-97.5 62t-84 31q-33 0 -53.5 -32.5t-20.5 -86.5h-27q0 67 28 107.5t70 40.5q40 0 89.5 -31t97 -62.5t83.5 -31.5q34 0 54.5 34t20.5 86h27q0 -66 -26.5 -107t-71.5 -41z" />
    <glyph glyph-name="uni0304.case" 
d="M-525 822v28h452v-28h-452z" />
    <glyph glyph-name="uni0327.case" 
d="M-165 -327q-54 -2 -107 53l20 19q44 -45 87 -45q29 1 48.5 22.5t19.5 54.5q-1 44 -47 97q-39 43 -48.5 65t-9.5 61h28q0 -35 10 -54.5t50 -64.5q46 -50 46 -105q0 -44 -27.5 -73.5t-69.5 -29.5z" />
    <glyph glyph-name="uni0328.case" 
d="M-207 -327q-48 -1 -79 24.5t-31 75.5q0 54 38.5 121.5t108.5 121.5l23 -9q-68 -54 -104 -116.5t-36 -112.5q0 -38 24 -57t61 -18q30 0 62.5 17t51.5 43l20 -16q-23 -32 -62.5 -53t-76.5 -21z" />
    </font>
</defs>
</svg>
