<?xml version="1.0" standalone="no"?>
<!DOCTYPE svg PUBLIC "-//W3C//DTD SVG 1.1//EN" "http://www.w3.org/Graphics/SVG/1.1/DTD/svg11.dtd" >
<svg xmlns="http://www.w3.org/2000/svg" xmlns:xlink="http://www.w3.org/1999/xlink" version="1.1">
<metadata>
Created by FontForge 20170731 at Mon May 11 15:12:46 2020
 By Aleksey,,,
Copyright (c) 2019 by Mans Greback. All rights reserved.
</metadata>
<defs>
<font id="Quache-Thin" horiz-adv-x="0" >
  <font-face 
    font-family="Quache Thin"
    font-weight="100"
    font-stretch="normal"
    units-per-em="1000"
    panose-1="0 0 2 0 0 0 0 0 0 0"
    ascent="800"
    descent="-200"
    x-height="647"
    cap-height="890"
    bbox="-501 -341.042 1627 1310"
    underline-thickness="50"
    underline-position="-200"
    unicode-range="U+000D-2265"
  />
<missing-glyph horiz-adv-x="847" 
d="M0 2v939h847v-939h-847zM10 12h827v919h-827v-919zM374 274q-7 48 12 89t53 68.5t75 57.5t77.5 55t61 62t24.5 78q0 75 -63.5 121.5t-176.5 46.5q-83 0 -160.5 -34.5t-125.5 -88.5l-7 8q54 57 131 91t162 34q119 0 184.5 -50t65.5 -128q0 -38 -18.5 -70.5t-47 -57
t-63.5 -48t-68 -47.5t-59.5 -50t-39.5 -61t-7 -76h-10zM378 87q-5 0 -9.5 4.5t-4.5 11.5q0 6 4.5 10.5t9.5 4.5q13 0 13 -15q0 -16 -13 -16z" />
    <glyph glyph-name="f_i.liga" unicode="fi" horiz-adv-x="594" 
d="M190 0v637h-181v10h181q8 287 184 287q29 0 71 -15q0 -7 -2 -10q-35 15 -69 15q-168 -3 -174 -277h294v-647h-10v637h-284v-637h-10zM489 834q-6 0 -10.5 5t-4.5 12q0 19 15 19q14 0 14 -19q0 -17 -14 -17z" />
    <glyph glyph-name="f_l.liga" unicode="fl" horiz-adv-x="684" 
d="M585 -18q-51 0 -74.5 42.5t-23.5 137.5v738q-58 24 -113 24q-168 -3 -174 -277h209v-10h-209v-637h-10v637h-181v10h181q8 287 184 287q57 0 123 -27v-745q0 -92 21 -131t67 -39q22 0 80 18q2 -5 1 -10q-46 -16 -81 -18z" />
    <glyph glyph-name=".notdef" horiz-adv-x="847" 
d="M0 2v939h847v-939h-847zM10 12h827v919h-827v-919zM374 274q-7 48 12 89t53 68.5t75 57.5t77.5 55t61 62t24.5 78q0 75 -63.5 121.5t-176.5 46.5q-83 0 -160.5 -34.5t-125.5 -88.5l-7 8q54 57 131 91t162 34q119 0 184.5 -50t65.5 -128q0 -38 -18.5 -70.5t-47 -57
t-63.5 -48t-68 -47.5t-59.5 -50t-39.5 -61t-7 -76h-10zM378 87q-5 0 -9.5 4.5t-4.5 11.5q0 6 4.5 10.5t9.5 4.5q13 0 13 -15q0 -16 -13 -16z" />
    <glyph glyph-name=".null" 
 />
    <glyph glyph-name="nonmarkingreturn" horiz-adv-x="333" 
 />
    <glyph glyph-name="CR" unicode="&#xd;" horiz-adv-x="600" 
 />
    <glyph glyph-name="space" unicode=" " horiz-adv-x="359" 
 />
    <glyph glyph-name="exclam" unicode="!" horiz-adv-x="331" 
d="M162 268v642h7l1 -642h-8zM166 0q-15 0 -15 18t15 18q14 0 14 -18t-14 -18z" />
    <glyph glyph-name="quotedbl" unicode="&#x22;" horiz-adv-x="410" 
d="M117 660l52 285h10l-52 -285h-10zM232 660l51 285h10l-51 -285h-10z" />
    <glyph glyph-name="numbersign" unicode="#" horiz-adv-x="787" 
d="M670 600h-129l-27 -302h128v-10h-129l-15 -172l-10 1l15 171h-261l-15 -171h-10l16 171h-116v10h116l28 302h-115v10h116l14 157h9l-14 -157h261l14 157h10l-14 -157h128v-10zM504 298l27 302h-261l-27 -302h261z" />
    <glyph glyph-name="dollar" unicode="$" horiz-adv-x="876" 
d="M759 232q0 -93 -83 -159.5t-222 -72.5v-130h-10v130h-11q-213 0 -316 125l6 10q93 -125 311 -125q145 0 230 66t85 156q0 59 -33.5 102.5t-86.5 68.5t-117.5 45t-129.5 39t-118 42t-86.5 61.5t-33.5 90.5q0 33 15.5 63.5t48 58.5t93 45.5t141.5 18.5v124h10v-124
q97 -1 172.5 -31.5t116.5 -77.5l-5 -8q-100 107 -289 107q-150 0 -222 -53t-72 -122q0 -51 33.5 -87.5t87 -59t118 -41t129 -39t118 -47t87 -71t33.5 -105.5z" />
    <glyph glyph-name="percent" unicode="%" horiz-adv-x="949" 
d="M117 0l703 890h12l-702 -890h-13zM315 494q-85 0 -141.5 50t-56.5 136q0 84 55.5 135.5t142.5 51.5q88 0 143.5 -51t55.5 -136q0 -84 -58.5 -135t-140.5 -51zM315 504q81 0 135 49.5t54 126.5q0 80 -52 128.5t-137 48.5q-84 0 -136 -49.5t-52 -127.5q0 -79 52.5 -127.5
t135.5 -48.5zM617 0q-85 0 -142 50t-57 136q0 84 55.5 135.5t143.5 51.5q87 0 143 -51.5t56 -135.5t-58.5 -135t-140.5 -51zM617 11q81 0 135 48.5t54 126.5q0 80 -52 128t-137 48q-86 0 -137.5 -48.5t-51.5 -127.5t52 -127t137 -48z" />
    <glyph glyph-name="ampersand" unicode="&#x26;" horiz-adv-x="970" 
d="M853 6l-8 -6l-150 136q-115 -154 -292 -154q-126 0 -206 58t-80 155q0 85 59 147.5t163 113.5q-62 54 -97.5 90.5t-63.5 84t-28 91.5q0 77 73 132.5t218 55.5q132 0 207 -55t75 -122q0 -54 -51 -103.5t-97.5 -73.5t-150.5 -70l-6 -3l-5 -2.5t-6 -2.5l-51 -24
q65 -55 103 -90l234 -213q46 63 71 136.5t27 133.5h10q-2 -65 -28 -139t-72 -138zM160 722q0 -60 48 -120t140 -141q18 9 54 25q158 70 210 104q101 66 101 143q0 63 -73.5 115t-198.5 52q-138 0 -209.5 -52t-71.5 -126zM403 -8q170 0 285 151l-236 214q-67 60 -106 93
q-103 -51 -161 -112t-58 -143q0 -92 76 -147.5t200 -55.5z" />
    <glyph glyph-name="quotesingle" unicode="'" horiz-adv-x="297" 
d="M117 660l53 285h10l-53 -285h-10z" />
    <glyph glyph-name="parenleft" unicode="(" horiz-adv-x="600" 
d="M468 -240q-157 98 -222.5 251.5t-65.5 354.5q0 75 17 155.5t53.5 166.5t104.5 166t159 136l5 -6l-1 -3q-72 -44 -129 -104.5t-93.5 -123.5t-61 -133t-34.5 -132.5t-10 -121.5q0 -200 64 -349.5t219 -248.5l1 -2z" />
    <glyph glyph-name="parenright" unicode=")" horiz-adv-x="600" 
d="M131 -240l-6 6l1 2q155 99 219.5 248.5t64.5 349.5q0 59 -10 121.5t-34.5 132.5t-61 133t-93.5 123.5t-129 104.5l-1 3l5 6q91 -56 159 -136t104.5 -166t53.5 -166.5t17 -155.5q0 -201 -65.5 -354.5t-223.5 -251.5z" />
    <glyph glyph-name="asterisk" unicode="*" horiz-adv-x="514" 
d="M397 756l-132 -58l85 -145l-8 -6l-85 144l-86 -144l-8 6l86 144l-132 59l4 9l130 -56l1 178h9l1 -180l131 58z" />
    <glyph glyph-name="plus" unicode="+" horiz-adv-x="716" 
d="M599 440v-10h-236v-286h-10v286h-236v10h236v288h10v-288h236z" />
    <glyph glyph-name="comma" unicode="," horiz-adv-x="232" 
d="M54 -169l52 316h9l-51 -316h-10z" />
    <glyph glyph-name="hyphen" unicode="-" horiz-adv-x="943" 
d="M216 352v10h511v-10h-511z" />
    <glyph glyph-name="period" unicode="." horiz-adv-x="331" 
d="M165 0q-14 0 -14 17q0 19 14 19q15 0 15 -19q0 -17 -15 -17z" />
    <glyph glyph-name="slash" unicode="/" horiz-adv-x="710" 
d="M-20 -130l737 1121h13l-738 -1121h-12z" />
    <glyph glyph-name="zero" unicode="0" horiz-adv-x="748" 
d="M373 -18q-152 0 -240 127.5t-88 331.5q0 218 88 343.5t240 125.5q153 0 241.5 -125t88.5 -344q0 -126 -38 -229.5t-114.5 -166.5t-177.5 -63zM373 -8q143 0 231.5 126t88.5 323q0 215 -85.5 337t-234.5 122q-148 0 -233 -123t-85 -336q0 -202 86.5 -325.5t231.5 -123.5z
" />
    <glyph glyph-name="one" unicode="1" horiz-adv-x="566" 
d="M520 10q2 -3 0 -10h-474q-2 3 0 10h235v870l-204 -62q-3 4 -1 10l208 62h7v-880h229z" />
    <glyph glyph-name="two" unicode="2" horiz-adv-x="742" 
d="M45 0v6q23 66 71 125t105 101.5t121 83t122.5 77.5t106.5 76.5t76.5 88.5t28.5 105q0 110 -80 173.5t-226 63.5q-101 0 -175.5 -28.5t-112.5 -71.5q-6 6 -6 10q98 100 294 100q154 0 235 -67.5t81 -179.5q0 -57 -28.5 -107.5t-76 -90t-106 -77t-122 -77.5t-120.5 -81.5
t-104.5 -98.5t-71.5 -121h639q2 -5 0 -10h-651z" />
    <glyph glyph-name="three" unicode="3" horiz-adv-x="746" 
d="M388 484q157 -27 235 -89.5t78 -171.5q0 -102 -86.5 -171.5t-239.5 -69.5q-215 0 -330 118q0 6 6 10q103 -118 325 -118q138 0 226.5 63.5t88.5 167.5q0 119 -93.5 178.5t-263.5 80.5v10q150 0 243.5 58.5t93.5 160.5q0 89 -83.5 141.5t-220.5 52.5q-87 0 -174 -33
t-124 -72q-7 3 -7 8q44 43 131 75t174 32q148 0 231 -57t83 -147q0 -93 -78 -154.5t-215 -72.5z" />
    <glyph glyph-name="four" unicode="4" horiz-adv-x="744" 
d="M698 255q2 -5 0 -10h-95v-245h-10v245h-548v6l549 639h9v-635h95zM61 255h532v619z" />
    <glyph glyph-name="five" unicode="5" horiz-adv-x="758" 
d="M351 584q174 0 268 -82t94 -218q0 -125 -89 -213.5t-247 -88.5q-116 0 -201 36t-131 94q0 8 6 9q47 -60 130.5 -94.5t195.5 -34.5q155 0 240.5 86.5t85.5 205.5q0 132 -92 211.5t-260 78.5q-113 0 -255 -37l35 353h561q0 -7 -1 -10h-551l-32 -329q131 33 243 33z" />
    <glyph glyph-name="six" unicode="6" horiz-adv-x="741" 
d="M370 497q86 0 151.5 -21t102 -56.5t54.5 -76.5t18 -88q0 -48 -21.5 -95.5t-60.5 -87.5t-102.5 -65t-140.5 -25q-155 0 -240.5 85t-85.5 232q0 181 129 331t375 260q5 -5 5 -9q-414 -186 -485 -467q45 33 127 58t174 25zM371 -8q139 0 227 79t88 184q0 99 -79 165.5
t-236 66.5q-94 0 -177.5 -26t-127.5 -62q-11 -50 -11 -100q0 -140 81 -223.5t235 -83.5z" />
    <glyph glyph-name="seven" unicode="7" horiz-adv-x="744" 
d="M46 890h653v-7q-162 -112 -274 -354t-112 -529h-10q0 281 107 520t268 360h-632q-2 3 0 10z" />
    <glyph glyph-name="eight" unicode="8" horiz-adv-x="740" 
d="M395 504q130 -26 215 -101t85 -181q0 -104 -82 -172t-244 -68q-160 0 -242 68t-82 172q0 51 19.5 94.5t49.5 73.5t71.5 53.5t80.5 37.5t82 23q-133 25 -207 69t-74 125q0 37 16.5 72.5t50.5 67.5t95 52t140 20q80 0 140.5 -18t94.5 -48.5t50.5 -64.5t16.5 -71
q0 -77 -74.5 -129t-201.5 -75zM77 698q0 -43 23 -76t66.5 -54.5t91 -35t110.5 -24.5q2 1 4 1q289 52 289 199q0 76 -72.5 134t-219.5 58q-77 0 -136 -19t-91.5 -50t-48.5 -64.5t-16 -68.5zM369 -8q160 0 238 66t78 164q0 109 -89 180.5t-224 97.5q-61 -11 -114 -32
t-100.5 -54t-75 -82.5t-27.5 -109.5q0 -97 78 -163.5t236 -66.5z" />
    <glyph glyph-name="nine" unicode="9" horiz-adv-x="741" 
d="M370 910q155 0 240.5 -82.5t85.5 -224.5q0 -190 -128.5 -348t-375.5 -273q-5 4 -5 8q408 195 483 484q-44 -27 -127 -49t-173 -22q-86 0 -151 21t-101.5 56.5t-54.5 76.5t-18 88q0 48 21.5 94.5t61 85t103 62t139.5 23.5zM55 645q0 -99 79 -165.5t236 -66.5
q93 0 176 22.5t128 53.5q12 63 12 114q0 136 -81.5 216.5t-234.5 80.5q-139 0 -227 -75.5t-88 -179.5z" />
    <glyph glyph-name="colon" unicode=":" horiz-adv-x="331" 
d="M165 611q-14 0 -14 17q0 19 14 19q15 0 15 -19q0 -17 -15 -17zM165 0q-14 0 -14 17q0 19 14 19q15 0 15 -19q0 -17 -15 -17z" />
    <glyph glyph-name="semicolon" unicode=";" horiz-adv-x="232" 
d="M92 611q-13 0 -13 17q0 19 13 19q16 0 16 -19q0 -7 -4.5 -12t-11.5 -5zM54 -169l52 316h9l-51 -316h-10z" />
    <glyph glyph-name="less" unicode="&#x3c;" horiz-adv-x="723" 
d="M606 711l-477 -279l475 -277l-6 -8l-481 280v9l483 283z" />
    <glyph glyph-name="equal" unicode="=" horiz-adv-x="717" 
d="M117 508v10h483v-10h-483zM117 353v10h483v-10h-483z" />
    <glyph glyph-name="greater" unicode="&#x3e;" horiz-adv-x="723" 
d="M123 719l483 -283v-9l-481 -280l-6 8l475 277l-477 279z" />
    <glyph glyph-name="question" unicode="?" horiz-adv-x="754" 
d="M316 239q-8 54 14 101t61 78.5t86 65.5t88.5 63t69.5 71t28 89q0 86 -73 139.5t-202 53.5q-96 0 -186.5 -40t-140.5 -102l-7 9q61 65 149 104t185 39q135 0 210 -57t75 -146q0 -43 -21 -80.5t-54 -65.5t-72.5 -55t-77.5 -54t-68.5 -57t-45.5 -70t-8 -86h-10zM320 0
q-6 0 -10.5 5.5t-4.5 12.5t4.5 12.5t10.5 5.5t10.5 -5.5t4.5 -12.5t-4.5 -12.5t-10.5 -5.5z" />
    <glyph glyph-name="at" unicode="@" horiz-adv-x="1181" 
d="M607 -181q-216 0 -353 131t-137 363q0 239 134 374t351 135q206 0 334 -122t128 -356q0 -117 -45.5 -188.5t-114.5 -71.5q-107 0 -119 111q-20 -41 -72.5 -76t-120.5 -35q-112 0 -168.5 69t-56.5 169q0 99 56.5 168.5t168.5 69.5q115 0 192 -73v58h10v-333
q0 -58 29.5 -88t80.5 -30q65 0 107.5 67.5t42.5 182.5q0 118 -34.5 208.5t-96.5 146.5t-143 84.5t-178 28.5q-213 0 -344 -132.5t-131 -366.5q0 -228 134.5 -356t345.5 -128q71 0 136.5 21t99.5 52l6 -8q-37 -32 -102.5 -53.5t-139.5 -21.5zM592 94q64 0 117.5 34.5
t74.5 84.5v260q-70 77 -192 77q-105 0 -160 -65t-55 -163q0 -99 54.5 -163.5t160.5 -64.5z" />
    <glyph glyph-name="A" unicode="A" horiz-adv-x="885" 
d="M459 890q50 -110 199 -429t212 -460v-1h-10q-6 14 -22.5 49t-43.5 93.5t-50 107.5h-597l-121 -250h-11l432 890q6 2 12 0zM152 260h587q-195 422 -286 620z" />
    <glyph glyph-name="B" unicode="B" horiz-adv-x="841" 
d="M552 518q244 -37 244 -240q0 -140 -100 -217.5t-268 -78.5q-120 0 -188 9t-150 34v854q123 31 302 31q76 0 135.5 -14.5t95 -37t58 -52.5t31 -57t8.5 -55q0 -62 -43.5 -110t-124.5 -66zM710 694q0 36 -15 69t-48.5 65.5t-99 52t-155.5 19.5q-184 0 -292 -29v-401
q52 24 147.5 40t183.5 16q45 0 93 -5q89 14 137.5 62.5t48.5 110.5zM428 -8q171 0 264.5 78.5t93.5 207.5q0 238 -355 238q-88 0 -179.5 -15t-151.5 -41v-427q121 -41 328 -41z" />
    <glyph glyph-name="C" unicode="C" horiz-adv-x="791" 
d="M439 -18q-169 0 -281.5 125.5t-112.5 338.5q0 125 51 230.5t144 169.5t209 64q129 1 215.5 -86.5t81.5 -214.5l-2 -1h-4h-4q4 124 -79.5 208.5t-207.5 83.5q-114 -1 -205 -63.5t-140 -165.5t-49 -225q0 -106 31 -193.5t84 -143.5t122 -86.5t147 -30.5q69 0 145.5 26
t136.5 78l5 -9q-61 -52 -139.5 -78.5t-147.5 -26.5z" />
    <glyph glyph-name="D" unicode="D" horiz-adv-x="877" 
d="M382 910q206 0 328 -125.5t122 -328.5q0 -213 -115.5 -343.5t-313.5 -130.5q-103 0 -162 9t-151 34v854q124 31 292 31zM403 -8q195 0 306.5 128t112.5 336q2 191 -115 317.5t-325 126.5q-178 0 -282 -29v-838q138 -41 303 -41z" />
    <glyph glyph-name="E" unicode="E" horiz-adv-x="787" 
d="M741 10q1 -2 1 -5t-1 -5h-651v887l2 3h624q2 -7 -1 -10h-615v-447h526q2 -5 -1 -10h-525v-413h641z" />
    <glyph glyph-name="F" unicode="F" horiz-adv-x="762" 
d="M715 879h-615v-501h522v-4v-4l-1 -2h-521v-368h-10v885l3 4h624q1 -2 -2 -10z" />
    <glyph glyph-name="G" unicode="G" horiz-adv-x="848" 
d="M803 618q-4 -3 -10 -1q2 126 -94.5 204.5t-244.5 78.5q-119 0 -211 -63t-140 -166t-48 -225q0 -208 117 -331t299 -123q83 0 169 25.5t153 74.5v301h-358q0 4 3 10h361l4 -5v-311q-65 -51 -155.5 -78t-176.5 -27q-186 0 -306 125.5t-120 338.5q0 122 48 226.5t143 171
t218 66.5q150 0 251.5 -81.5t97.5 -210.5z" />
    <glyph glyph-name="H" unicode="H" horiz-adv-x="863" 
d="M763 890q1 2 5 2t5 -2v-890h-10v398h-663v-398h-10v890q6 3 10 0v-482h663v482z" />
    <glyph glyph-name="I" unicode="I" horiz-adv-x="190" 
d="M90 0v890q6 4 10 0v-890h-10z" />
    <glyph glyph-name="J" unicode="J" horiz-adv-x="841" 
d="M407 -18q-95 0 -191.5 57.5t-167.5 147.5q2 6 6 9q71 -88 164.5 -146t188.5 -58q149 0 237.5 107t88.5 275v516q6 2 10 0v-518q0 -166 -89.5 -278t-246.5 -112z" />
    <glyph glyph-name="K" unicode="K" horiz-adv-x="899" 
d="M430 472q176 -205 285 -320.5t166 -147.5v-2q-2 -2 -10 -2q-117 70 -448 468q-145 -83 -323 -166v-302h-10v890q2 1 5.5 1t4.5 -1v-578q313 152 445 244q273 187 263 334q6 2 10 0q6 -82 -64 -166t-205 -177q-56 -38 -119 -75z" />
    <glyph glyph-name="L" unicode="L" horiz-adv-x="781" 
d="M94 0l-4 5v885q1 1 4.5 1t5.5 -1v-880h640q5 -5 0 -10h-646z" />
    <glyph glyph-name="M" unicode="M" horiz-adv-x="1052" 
d="M1007 0h-10l-82 872l-384 -706h-10l-385 707l-81 -873h-10l83 888q2 2 5.5 2.5t4.5 -0.5l388 -712l388 712q5 2 10 -3z" />
    <glyph glyph-name="N" unicode="N" horiz-adv-x="944" 
d="M844 890q6 4 10 0v-890h-9l-745 872v-872h-10v886q3 6 8 4l746 -874v874z" />
    <glyph glyph-name="O" unicode="O" horiz-adv-x="895" 
d="M407 -18q-166 0 -263 121.5t-99 300.5q-1 138 55.5 254t158.5 184t226 68q160 0 263.5 -133.5t101.5 -318.5q-1 -124 -59 -233t-160 -176t-224 -67zM407 -8q115 0 214.5 62.5t158.5 170t60 233.5q2 184 -100 313t-255 129q-184 0 -307.5 -144t-122.5 -352
q1 -110 39.5 -202t120 -151t192.5 -59z" />
    <glyph glyph-name="P" unicode="P" horiz-adv-x="840" 
d="M795 588q1 -130 -105 -212t-280 -82q-171 0 -310 54v-348h-10v869q136 41 333 41q168 0 270 -85t102 -237zM785 588q1 145 -97 228.5t-265 83.5q-204 0 -323 -40v-500q123 -56 310 -56q165 0 270 76.5t105 207.5z" />
    <glyph glyph-name="Q" unicode="Q" horiz-adv-x="895" 
d="M850 458q-1 -120 -55 -226t-149.5 -174t-211.5 -75q93 -119 260 -117q69 0 147 25q3 -5 2 -11q-82 -24 -149 -24q-176 -3 -272 126h-15q-166 0 -263 121.5t-99 300.5q-1 138 55.5 254t158.5 184t226 68q160 0 263.5 -133.5t101.5 -318.5zM407 -8q115 0 214.5 62.5
t158.5 170t60 233.5q2 184 -100 313t-255 129q-184 0 -307.5 -144t-122.5 -352q1 -110 39.5 -202t120 -151t192.5 -59z" />
    <glyph glyph-name="R" unicode="R" horiz-adv-x="894" 
d="M532 316q119 -136 194.5 -211.5t121.5 -100.5v-2q-2 -2 -9 -2q-38 18 -105 81.5t-213 232.5q-51 -9 -108 -9q-81 1 -172.5 17t-140.5 33v-355h-10v869q79 24 152.5 32.5t184.5 8.5q169 0 268 -82t99 -229q0 -109 -71 -183.5t-191 -99.5zM413 315q159 -2 265 74.5
t106 209.5q0 135 -92.5 218t-264.5 83q-201 0 -327 -38v-496q154 -49 313 -51z" />
    <glyph glyph-name="S" unicode="S" horiz-adv-x="839" 
d="M445 -18q-109 0 -214.5 36t-185.5 103q0 5 4 9q82 -67 185.5 -102.5t210.5 -35.5q160 0 249.5 66t89.5 177q0 47 -19 82.5t-50 58.5t-79 38.5t-97.5 23.5t-113.5 12q-289 19 -289 223q0 76 49.5 132t116.5 80.5t135 24.5q162 0 255.5 -70.5t93.5 -179.5q-6 -2 -10 -2
q-1 113 -95 177.5t-244 64.5q-117 0 -204 -64.5t-87 -164.5q0 -103 77 -153.5t204 -57.5q189 -10 278 -65t89 -160q0 -110 -88.5 -181.5t-260.5 -71.5z" />
    <glyph glyph-name="T" unicode="T" horiz-adv-x="801" 
d="M779 890q1 -5 -2 -10h-389v-880h-10v880h-356q-2 5 3 10h754z" />
    <glyph glyph-name="U" unicode="U" horiz-adv-x="943" 
d="M459 -18q-172 0 -270.5 102t-98.5 300v506q6 4 10 0v-507q0 -193 96 -292t263 -99q173 0 278.5 112.5t105.5 290.5v495q7 2 10 0v-497q0 -83 -26.5 -157.5t-75.5 -131t-124.5 -89.5t-167.5 -33z" />
    <glyph glyph-name="V" unicode="V" horiz-adv-x="842" 
d="M435 0l-5 4q-69 212 -212.5 506t-202.5 377l1 3q4 2 9 0q79 -123 214.5 -399.5t198.5 -480.5h3q69 96 132.5 199.5t127 228.5t95.5 244.5t18 206.5q1 1 4.5 1.5t4.5 -0.5q23 -157 -83 -391.5t-292 -495.5l-4 -3h-9z" />
    <glyph glyph-name="W" unicode="W" horiz-adv-x="1230" 
d="M451 0l-7 5q-75 226 -198.5 469t-230.5 413l1 3q5 2 9 0q121 -196 239 -431.5t188 -448.5h3q67 102 143.5 243.5t99.5 227.5q-32 86 -99 244q1 5 8 5q49 -112 142.5 -352t137.5 -368h2q160 220 248 453.5t63 426.5q3 3 10 0q25 -190 -62 -427t-251 -457l-7 -6h-6l-5 4
q-127 347 -175 461q-24 -80 -110 -240t-133 -222l-5 -3h-5z" />
    <glyph glyph-name="X" unicode="X" horiz-adv-x="878" 
d="M442 440q21 -21 201.5 -209.5t219.5 -226.5l-1 -4h-9q-41 39 -205.5 210.5t-212.5 223.5q-26 -21 -80.5 -62t-87 -66t-78.5 -66t-74.5 -74.5t-53.5 -77.5t-36 -88h-10q11 45 35.5 89t50 76.5t72 74t77 65.5t90 69t87.5 67q-80 85 -206.5 229t-180.5 216v3q3 3 10 1
q46 -64 175.5 -211t209.5 -232q187 154 244 210q128 127 128 223v10q6 4 10 0q1 -48 -17 -92t-69 -100.5t-113.5 -111t-175.5 -146.5z" />
    <glyph glyph-name="Y" unicode="Y" horiz-adv-x="804" 
d="M789 890q11 -269 -353 -603v-287h-10v287q-54 84 -209 314t-202 286l1 3q2 1 5 1t4 -1q39 -46 188 -266t219 -327q159 144 256 297t91 296q4 1 10 0z" />
    <glyph glyph-name="Z" unicode="Z" horiz-adv-x="816" 
d="M770 10q2 -2 2 -5t-2 -5h-721q-4 1 -4 7q147 259 334 505t347 368h-648q-3 4 0 10h664q5 -3 5 -8q-169 -125 -352 -366t-338 -506h713z" />
    <glyph glyph-name="bracketleft" unicode="[" horiz-adv-x="487" 
d="M117 -231v1222h253v-10h-243v-1202h243v-10h-253z" />
    <glyph glyph-name="backslash" unicode="\" horiz-adv-x="710" 
d="M730 -130h-13l-737 1121h12z" />
    <glyph glyph-name="bracketright" unicode="]" horiz-adv-x="487" 
d="M370 -231h-253v10h243v1202h-243v10h253v-1222z" />
    <glyph glyph-name="asciicircum" unicode="^" horiz-adv-x="830" 
d="M713 509h-13l-282 372l-288 -372h-13l297 384h7z" />
    <glyph glyph-name="underscore" unicode="_" horiz-adv-x="676" 
d="M117 -10v10h442v-10h-442z" />
    <glyph glyph-name="grave" unicode="`" horiz-adv-x="313" 
d="M230 729l-158 245h12l157 -245h-11z" />
    <glyph glyph-name="a" unicode="a" horiz-adv-x="663" 
d="M590 119q0 -56 6.5 -78.5t21.5 -36.5l-1 -4h-9q-28 26 -28 119v164q-23 -113 -123.5 -207t-227.5 -94q-89 0 -136.5 43.5t-47.5 115.5q0 113 108.5 179.5t307.5 66.5q59 0 118 -6q-5 141 -65 223.5t-164 83.5q-113 2 -250 -97q-4 3 -2 11q136 96 252 96q110 0 175 -91
t65 -260v-228zM229 -8q96 0 178.5 57t127.5 140.5t45 167.5v13q-68 7 -118 7q-203 0 -305.5 -67t-102.5 -169q0 -68 45.5 -108.5t129.5 -40.5z" />
    <glyph glyph-name="b" unicode="b" horiz-adv-x="709" 
d="M402 698q119 0 193 -94.5t74 -235.5q0 -102 -39 -190.5t-110 -142t-158 -53.5q-105 0 -176.5 76t-91.5 174v-90q0 -79 -15 -142h-7v7q12 61 12 142v783q5 2 10 0v-531q29 124 117 210.5t191 86.5zM362 -8q86 0 155.5 54.5t106 140t35.5 181.5q-1 140 -72.5 230t-184.5 90
q-80 0 -152 -55.5t-114 -142.5t-42 -179q0 -80 33.5 -153t96 -119.5t138.5 -46.5z" />
    <glyph glyph-name="c" unicode="c" horiz-adv-x="658" 
d="M334 -18q-122 0 -208 94t-86 242q0 159 94.5 269.5t227.5 110.5q117 0 188.5 -93t67.5 -232q-1 -1 -5 -1t-5 1q0 136 -66.5 225.5t-179.5 89.5q-130 0 -221 -109t-91 -261q0 -143 82.5 -234.5t201.5 -91.5q134 0 246 107q6 -4 6 -8q-116 -109 -252 -109z" />
    <glyph glyph-name="d" unicode="d" horiz-adv-x="715" 
d="M632 149q0 -86 11 -142v-7h-7q-14 40 -14 142v128q-9 -49 -33 -97.5t-60.5 -92t-90.5 -71t-115 -27.5q-124 0 -203.5 92.5t-79.5 237.5q0 100 40.5 188t114.5 143t164 55q96 0 169 -72t94 -182v488q2 2 10 0v-783zM323 -8q86 0 156.5 55t106.5 136t36 165
q0 146 -75.5 243t-187.5 97q-129 0 -218.5 -111.5t-90.5 -264.5q-1 -138 75 -229t198 -91z" />
    <glyph glyph-name="e" unicode="e" horiz-adv-x="651" 
d="M353 698q121 0 193.5 -91t68.5 -248l-7 -7l-557 -67q10 -134 87.5 -213.5t187.5 -79.5q128 2 241 112q4 -1 7 -7q-118 -113 -248 -115q-118 -2 -200 85.5t-86 233.5q-3 104 36.5 195t113 146.5t163.5 55.5zM605 362q4 155 -66.5 240.5t-185.5 85.5q-88 0 -159.5 -56
t-109 -144.5t-34.5 -186.5v-6z" />
    <glyph glyph-name="f" unicode="f" horiz-adv-x="334" 
d="M368 924q-169 -3 -175 -277h235v-10h-235v-12v-625h-10v625v12h-174v10h174q8 287 185 287q50 0 110 -23q0 -4 -3 -10q-53 23 -107 23z" />
    <glyph glyph-name="g" unicode="g" horiz-adv-x="716" 
d="M635 650q7 0 9 -1v-3q-12 -101 -12 -134v-433q0 -167 -82.5 -263t-208.5 -96q-140 0 -274 115q0 7 5 9q135 -114 269 -114q122 0 201.5 93.5t79.5 256.5v188q-25 -123 -106.5 -204.5t-190.5 -81.5q-121 0 -203 89.5t-82 240.5q0 96 38.5 184t113 145t167.5 57
q98 0 168.5 -73.5t94.5 -183.5v109zM325 -8q121 0 207.5 104t89.5 265q-3 80 -33 153.5t-91 123.5t-139 50q-91 0 -163.5 -57t-109 -142t-36.5 -177q0 -136 74.5 -228t200.5 -92z" />
    <glyph glyph-name="h" unicode="h" horiz-adv-x="704" 
d="M407 698q115 0 179 -92t64 -255v-351h-10v353q0 152 -59.5 243.5t-173.5 91.5q-84 0 -160.5 -60.5t-120.5 -149.5t-44 -176v-302h-10v932q8 2 10 0v-546q28 122 121.5 217t203.5 95z" />
    <glyph glyph-name="i" unicode="i" horiz-adv-x="210" 
d="M104 834q-14 0 -14 17q0 19 14 19q15 0 15 -19q0 -17 -15 -17zM100 0v647q6 4 10 0v-647h-10z" />
    <glyph glyph-name="j" unicode="j" horiz-adv-x="215" 
d="M110 834q-14 0 -14 17q0 19 14 19q15 0 15 -19q0 -17 -15 -17zM18 -219q-35 0 -79 17q-2 7 1 10q48 -17 78 -17q49 0 68 48t19 161v647q6 2 10 0v-648q0 -110 -19 -163.5t-78 -54.5z" />
    <glyph glyph-name="k" unicode="k" horiz-adv-x="734" 
d="M366 331q138 -153 219 -235t113 -93v-3q-2 -2 -10 -2q-54 18 -330 327q-143 -93 -276 -155v-170h-10v932q5 2 10 0v-751q197 96 349 205q108 77 147 132.5t35 128.5q4 1 10 0q6 -73 -35.5 -133t-151.5 -136q-46 -32 -70 -47z" />
    <glyph glyph-name="l" unicode="l" horiz-adv-x="283" 
d="M184 -18q-51 0 -74.5 42.5t-23.5 137.5v770q5 2 10 0v-770q0 -92 21 -131t67 -39q22 0 80 18q2 -5 1 -10q-47 -16 -81 -18z" />
    <glyph glyph-name="m" unicode="m" horiz-adv-x="1022" 
d="M780 698q81 0 125.5 -78.5t44.5 -218.5v-401h-10v403q0 130 -41 207.5t-119 77.5q-74 0 -135 -57.5t-92.5 -140t-31.5 -166.5v-324h-10v400q0 288 -156 288q-71 0 -132 -60.5t-94 -149t-33 -176.5v-302h-10v531q0 65 -14 111v4q6 3 9 1q15 -40 15 -88v-164
q24 122 95.5 212.5t163.5 90.5q159 0 166 -285q23 117 93 201t166 84z" />
    <glyph glyph-name="n" unicode="n" horiz-adv-x="736" 
d="M421 698q115 0 179 -92t64 -255v-351h-10v353q0 152 -59.5 243.5t-173.5 91.5q-84 0 -160.5 -60.5t-120.5 -149.5t-44 -176v-302h-10v531q0 65 -14 111v4q6 3 9 1q15 -40 15 -88v-173q28 122 121.5 217t203.5 95z" />
    <glyph glyph-name="o" unicode="o" horiz-adv-x="718" 
d="M331 -18q-136 0 -213.5 93.5t-77.5 229.5q0 161 101 277t249 116q127 0 207.5 -97.5t80.5 -237.5q0 -158 -98 -269.5t-249 -111.5zM331 -8q148 0 242.5 109t94.5 262q0 138 -77.5 231.5t-200.5 93.5q-146 0 -243 -114t-97 -269q0 -130 73.5 -221.5t207.5 -91.5z" />
    <glyph glyph-name="p" unicode="p" horiz-adv-x="708" 
d="M400 698q120 0 194 -93t74 -244q0 -97 -39 -183.5t-110.5 -141t-157.5 -54.5q-98 0 -171.5 70t-97.5 171v-455q-7 -2 -10 0v754q0 58 -10 120v4q2 1 9 1l11 -71v-180q26 126 115 214t193 88zM361 -8q86 0 155.5 56t105.5 139.5t36 173.5q0 149 -73 238t-185 89
q-82 0 -153.5 -55.5t-113 -144.5t-41.5 -186q0 -121 79 -215.5t190 -94.5z" />
    <glyph glyph-name="q" unicode="q" horiz-adv-x="713" 
d="M641 646v-4q-10 -62 -10 -120v-754q-3 -2 -10 0v492q-24 -112 -107.5 -195t-184.5 -83q-126 0 -207.5 91t-81.5 235q0 170 94.5 280t225.5 110q97 0 167.5 -72.5t93.5 -182.5v133l11 71q7 0 9 -1zM329 -8q76 0 144.5 51.5t108 133t39.5 168.5q0 138 -73 240.5t-188 102.5
q-125 0 -217.5 -105.5t-92.5 -274.5q0 -136 77 -226t202 -90z" />
    <glyph glyph-name="r" unicode="r" horiz-adv-x="536" 
d="M500 674q1 -7 -2 -10q-60 24 -112 24q-87 0 -155 -58.5t-101.5 -146.5t-33.5 -185v-298h-10v531q0 65 -14 111v4q6 3 9 1q15 -40 15 -88v-160q23 127 102 213t188 86q54 0 114 -24z" />
    <glyph glyph-name="s" unicode="s" horiz-adv-x="664" 
d="M350 -18q-77 0 -161 28.5t-143 82.5q0 7 5 9q56 -52 136.5 -81t162.5 -29q111 0 184.5 48t73.5 122q0 87 -62.5 130.5t-217.5 50.5q-254 14 -254 173q0 75 72.5 128.5t187.5 53.5q153 0 268 -82q0 -4 -4 -8q-114 80 -264 80q-117 0 -183.5 -52.5t-66.5 -119.5
q0 -151 245 -163q159 -8 224 -54t65 -136q0 -84 -79.5 -132.5t-188.5 -48.5z" />
    <glyph glyph-name="t" unicode="t" horiz-adv-x="474" 
d="M456 637h-348v-349q0 -140 56.5 -218.5t158.5 -77.5q51 0 115 23q2 -2 2 -10q-64 -23 -117 -23q-104 0 -164.5 79.5t-60.5 226.5v349h-88v10h88v183q3 3 10 3v-186h348v-10z" />
    <glyph glyph-name="u" unicode="u" horiz-adv-x="725" 
d="M649 116q0 -53 4 -73.5t18 -37.5v-5h-8q-14 16 -19 37.5t-5 78.5v138q-24 -118 -113 -195t-212 -77q-112 0 -177 71t-65 215v379q4 2 10 0v-379q0 -142 63 -209t169 -67q141 0 233 102t92 250v303q1 1 5 1t5 -1v-531z" />
    <glyph glyph-name="v" unicode="v" horiz-adv-x="632" 
d="M340 0l-5 4q-39 120 -86.5 227t-100 196t-75 124t-63.5 94l1 2q7 2 9 0q211 -291 323 -637h4q126 172 203.5 351.5t58.5 284.5q1 1 4.5 1.5t5.5 -0.5q20 -108 -62 -294.5t-204 -348.5l-5 -4h-8z" />
    <glyph glyph-name="w" unicode="w" horiz-adv-x="849" 
d="M303 0l-6 4q-94 327 -280 628q-5 8 -7 12l1 3q5 1 8 0q185 -288 286 -637h3q45 78 93.5 187.5t72.5 190.5l-71 180q1 2 4.5 3.5t4.5 0.5q49 -121 71.5 -181t54 -160t62.5 -221h3q97 143 164 320.5t61 316.5q4 1 9 0q12 -119 -57 -309t-169 -333l-6 -5h-9l-5 4
q-55 218 -112 369q-18 -67 -69.5 -183.5t-93.5 -184.5l-5 -5h-8z" />
    <glyph glyph-name="x" unicode="x" horiz-adv-x="631" 
d="M320 331q171 -171 301 -327l-2 -4h-7q-49 59 -149.5 167t-151.5 158q-169 -141 -221 -201.5t-54 -123.5h-9q-1 28 9.5 55t26.5 51.5t55 62t76.5 70.5t109.5 94q-62 73 -294 309v3q8 2 9 2q233 -237 293 -308q21 18 53 45t49 41.5t42 36t37.5 34.5t29.5 31t25 31t16.5 29
t11 30.5t1.5 29.5q4 1 10 0q1 -25 -8 -49.5t-23.5 -46.5t-46 -53t-60.5 -56.5t-82 -70.5q-10 -8 -15.5 -13t-14.5 -12.5t-17 -14.5z" />
    <glyph glyph-name="y" unicode="y" horiz-adv-x="667" 
d="M656 647q7 -110 -19.5 -241t-99 -278t-180.5 -253q-134 -129 -272 -129q-42 0 -74 16q-2 7 0 10l2 1q29 -17 72 -17q63 0 135 34t131 93q60 60 110 132q-67 41 -141.5 128.5t-132.5 184t-100.5 180t-60.5 135.5l1 3q2 1 9 1q15 -46 56.5 -129.5t99.5 -180t133 -185.5
t142 -128q95 143 140 309.5t39 313.5q8 3 10 0z" />
    <glyph glyph-name="z" unicode="z" horiz-adv-x="619" 
d="M608 10q1 -6 0 -10h-597q-2 4 -1 7q313 502 572 630h-543q-1 4 0 10h565q4 -4 2 -9q-150 -69 -293.5 -232.5t-288.5 -395.5h584z" />
    <glyph glyph-name="braceleft" unicode="{" horiz-adv-x="530" 
d="M163 388q38 -4 64 -20t39.5 -37t22 -57t11 -65.5t6.5 -77t8 -79.5q12 -92 42 -154.5t87 -121.5l-8 -7q-59 62 -89 125t-42 156q-5 33 -8.5 84.5t-6 81t-12.5 66t-27 55.5t-50.5 32.5t-82.5 13.5v10q54 0 88.5 16t50 42t24.5 68t12 84t13 101t26 108q30 92 111 179l7 -8
q-78 -81 -108 -173q-18 -54 -28 -121.5t-14.5 -114t-16.5 -90t-40.5 -67.5t-78.5 -29z" />
    <glyph glyph-name="bar" unicode="|" horiz-adv-x="244" 
d="M117 -231v1243h10v-1243h-10z" />
    <glyph glyph-name="braceright" unicode="}" horiz-adv-x="530" 
d="M207 812q16 -49 25.5 -108t12.5 -101t12.5 -84t25 -68t50 -42t88.5 -16v-10q-49 0 -82.5 -13.5t-50.5 -32.5t-27 -55.5t-12.5 -66t-6 -81t-8.5 -84.5q-12 -93 -42.5 -155.5t-89.5 -125.5l-8 7q57 59 87.5 121t42.5 155q4 32 8 79.5t6.5 77t11 65.5t22 57t39.5 37t64 20
q-50 5 -79 29t-40.5 67.5t-16 90t-14.5 114t-28 121.5q-29 90 -108 173l7 8q81 -87 111 -179z" />
    <glyph glyph-name="asciitilde" unicode="~" horiz-adv-x="677" 
d="M117 316q0 63 24.5 100t61.5 37q32 0 69.5 -20t67 -43.5t66.5 -43.5t68 -20q36 0 56 36t20 91h10q0 -61 -23.5 -99t-63.5 -38q-31 0 -68.5 20t-67.5 43.5t-67 43.5t-67 20q-34 0 -55 -35t-21 -92h-10z" />
    <glyph glyph-name="exclamdown" unicode="&#xa1;" horiz-adv-x="331" 
d="M165 744q-14 0 -14 18t14 18q15 0 15 -18t-15 -18zM162 -130l-1 642h8v-642h-7z" />
    <glyph glyph-name="cent" unicode="&#xa2;" horiz-adv-x="840" 
d="M440 76q97 0 169.5 29.5t107.5 64.5l6 -7q-31 -33 -97.5 -62.5t-158.5 -33.5v-197h-10v196h-17q-140 0 -231.5 95t-91.5 280q0 184 92 279t231 95h17v176h10v-177q158 -7 256 -95l-7 -6q-113 92 -276 92q-64 0 -119 -21.5t-99 -64.5t-69.5 -114t-25.5 -164
q0 -182 89 -273.5t224 -91.5z" />
    <glyph glyph-name="sterling" unicode="&#xa3;" horiz-adv-x="893" 
d="M776 10v-10h-634h-3h-9v10h9q76 0 74 132q0 30 -3.5 67t-10.5 91.5t-10 87.5h-72v10h71q-7 82 -7 155q0 141 77 227.5t219 86.5q98 0 168.5 -31t109.5 -77l-7 -7q-38 45 -106.5 75t-165.5 30q-136 0 -210.5 -84t-74.5 -220q0 -80 8 -155h422v-10h-421q3 -33 9.5 -86
t10 -90.5t3.5 -69.5q2 -103 -45 -132h598z" />
    <glyph glyph-name="currency" unicode="&#xa4;" horiz-adv-x="562" 
d="M447 244l-7 -7l-84 102q-33 -31 -76 -31q-46 0 -75 30l-81 -100l-7 7l81 100q-31 36 -31 96q0 55 28 92l-78 93l8 6l77 -91q31 34 78 34q50 0 81 -33l75 94l8 -6l-77 -96q28 -36 28 -93q0 -58 -32 -95zM280 318q45 0 75 35.5t30 87.5q0 56 -28 90t-77 34q-46 0 -74.5 -36
t-28.5 -88q0 -55 28 -89t75 -34z" />
    <glyph glyph-name="yen" unicode="&#xa5;" horiz-adv-x="898" 
d="M454 385v-36h230v-10h-230v-145h230v-10h-230v-184h-10v184h-231v10h231v145h-231v10h231v36l-327 482h12l320 -470l319 470h13z" />
    <glyph glyph-name="brokenbar" unicode="&#xa6;" horiz-adv-x="244" 
d="M117 481v531h10v-531h-10zM117 -231v534h10v-534h-10z" />
    <glyph glyph-name="section" unicode="&#xa7;" horiz-adv-x="618" 
d="M386 169q101 -74 101 -151q0 -71 -50.5 -109.5t-135.5 -38.5q-37 0 -83 12t-78 32v12q29 -21 76 -33.5t85 -12.5q80 0 128 34.5t48 103.5q0 35 -20 67t-51.5 57t-70 49.5t-77 50.5t-70 54t-51.5 64.5t-20 77.5q0 46 32 94t81 75q-99 72 -99 159q0 70 51 107t136 37
q88 0 160 -36v-12q-28 17 -75.5 27.5t-84.5 10.5q-80 0 -128.5 -34t-48.5 -100q0 -40 20 -74t51.5 -59t70 -48.5l77 -47t70 -50t51.5 -62.5t20 -79q0 -56 -32.5 -105t-82.5 -72zM127 438q0 -35 14 -66t44.5 -59t55.5 -46.5t70 -47.5t65 -43q52 22 84 69.5t32 100.5
q0 31 -12 58.5t-29 47.5t-45.5 42t-52 36t-58 35t-55.5 35q-51 -22 -82 -69.5t-31 -92.5z" />
    <glyph glyph-name="dieresis" unicode="&#xa8;" horiz-adv-x="446" 
d="M86 783q-14 0 -14 17q0 19 14 19q15 0 15 -19q0 -17 -15 -17zM359 783q-14 0 -14 17q0 19 14 19q15 0 15 -19q0 -17 -15 -17z" />
    <glyph glyph-name="copyright" unicode="&#xa9;" horiz-adv-x="1162" 
d="M581 -19q-203 0 -333.5 125t-130.5 337q0 133 66 241.5t171.5 167t226.5 58.5q131 0 236 -55.5t166.5 -162.5t61.5 -249q0 -213 -130 -337.5t-334 -124.5zM581 -9q91 0 171.5 28.5t144.5 83t101 142.5t37 198q0 109 -37 197.5t-100 144t-144.5 85.5t-172.5 30
q-119 0 -223 -58t-167.5 -164t-63.5 -235q0 -209 128 -330.5t326 -121.5zM584 205q-102 0 -172.5 66t-70.5 170q0 108 70.5 176.5t174.5 68.5q112 0 181 -71l-7 -6q-68 67 -174 67q-97 0 -166 -64t-69 -171q0 -102 68.5 -164t162.5 -62q120 0 183 70l8 -4q-58 -76 -189 -76z
" />
    <glyph glyph-name="ordfeminine" unicode="&#xaa;" horiz-adv-x="541" 
d="M416 1074h8v-404h-8v24q-46 -29 -117 -29q-86 0 -134 57.5t-48 141.5q0 81 51.5 144.5t135.5 63.5q69 0 112 -39v41zM298 675q75 0 118 31v312q-42 44 -112 44q-80 0 -128.5 -60t-48.5 -138q0 -83 45.5 -136t125.5 -53z" />
    <glyph glyph-name="guillemotleft" unicode="&#xab;" horiz-adv-x="1102" 
d="M605 708l-476 -277l478 -278l-6 -8l-484 282v9l482 280zM506 431l479 -278l-6 -8l-484 282v9l482 280l6 -8z" />
    <glyph glyph-name="logicalnot" unicode="&#xac;" horiz-adv-x="717" 
d="M590 244v187h-473v10h483v-197h-10z" />
    <glyph glyph-name="uni00AD" unicode="&#xad;" horiz-adv-x="1096" 
d="M216 352v10h664v-10h-664z" />
    <glyph glyph-name="registered" unicode="&#xae;" horiz-adv-x="891" 
d="M446 910q137 0 232.5 -87.5t95.5 -240.5t-95.5 -237.5t-232.5 -84.5q-148 0 -238.5 88.5t-90.5 233.5q0 136 96 232t233 96zM446 270q134 0 226 81t92 231q0 151 -92 234.5t-226 83.5q-132 0 -225.5 -93t-93.5 -225q0 -140 87.5 -226t231.5 -86zM620 676q0 -48 -34.5 -80
t-85.5 -40l98 -197h-11l-97 195q-7 -1 -21 -1h-145v-194h-10v440h155q68 0 109.5 -34.5t41.5 -88.5zM469 563q58 0 99.5 31.5t41.5 81.5t-39.5 81.5t-101.5 31.5h-145v-226h145z" />
    <glyph glyph-name="macron" unicode="&#xaf;" horiz-adv-x="573" 
d="M72 821v10h429v-10h-429z" />
    <glyph glyph-name="degree" unicode="&#xb0;" horiz-adv-x="581" 
d="M291 550q-74 0 -124 48.5t-50 130.5q0 78 50 129.5t124 51.5q72 0 122.5 -51t50.5 -130t-52.5 -129t-120.5 -50zM291 560q63 0 112.5 46.5t50.5 122.5q1 73 -46.5 122t-116.5 49q-71 0 -117 -49t-47 -122q-1 -77 47 -123t117 -46z" />
    <glyph glyph-name="plusminus" unicode="&#xb1;" horiz-adv-x="717" 
d="M364 500h236v-10h-236v-286h-10v286h-237v10h237v288h10v-288zM117 90v10h483v-10h-483z" />
    <glyph glyph-name="uni00B2" unicode="&#xb2;" horiz-adv-x="817" 
d="M129 270h571v-10h-583v6q22 59 65.5 111t94.5 89t108 72t109.5 67t95 65.5t68 76.5t25.5 92q0 92 -72 144t-202 52q-179 0 -260 -89l-4 9q86 90 264 90q139 0 211.5 -56t72.5 -150q0 -50 -25.5 -93.5t-68 -78t-94.5 -67.5t-109 -67.5t-108 -71t-94 -86t-65 -105.5z" />
    <glyph glyph-name="uni00B3" unicode="&#xb3;" horiz-adv-x="825" 
d="M430 678q140 -21 209 -73t69 -144q0 -87 -78 -146.5t-215 -59.5q-198 0 -298 106l5 9q98 -105 293 -105q124 0 203.5 54t79.5 142q0 52 -23.5 90.5t-68.5 63t-100.5 39t-128.5 22.5v9q134 0 218.5 50.5t84.5 135.5q0 76 -75.5 119.5t-198.5 43.5q-80 0 -157.5 -29.5
t-109.5 -65.5l-6 9q38 39 115.5 67.5t157.5 28.5q135 0 209.5 -48.5t74.5 -124.5q0 -79 -69.5 -131t-190.5 -62z" />
    <glyph glyph-name="acute" unicode="&#xb4;" horiz-adv-x="314" 
d="M72 729l158 245h12l-159 -245h-11z" />
    <glyph glyph-name="uni00B5" unicode="&#xb5;" horiz-adv-x="725" 
d="M649 116q0 -53 4 -73.5t18 -37.5v-5h-8q-14 16 -19 37.5t-5 78.5v138q-24 -117 -113 -194.5t-212 -77.5q-90 0 -150.5 46t-81.5 139v-436h-10v916q4 2 10 0v-379q0 -142 63 -209t169 -67q141 0 233 102t92 250v303q1 1 5 1t5 -1v-531z" />
    <glyph glyph-name="paragraph" unicode="&#xb6;" horiz-adv-x="688" 
d="M276 -130v702q-69 0 -114 45.5t-45 111.5q0 68 42 114.5t117 46.5h295v-10h-126v-1010h-10v1010h-149v-1010h-10z" />
    <glyph glyph-name="periodcentered" unicode="&#xb7;" horiz-adv-x="389" 
d="M194 379q-14 0 -14 17q0 19 14 19q15 0 15 -19q0 -17 -15 -17z" />
    <glyph glyph-name="cedilla" unicode="&#xb8;" horiz-adv-x="307" 
d="M159 -313q-44 -2 -87 49l6 8q40 -47 81 -47q29 0 47.5 23.5t18.5 59.5q-2 54 -38 98q-38 45 -46.5 66t-8.5 62h10q0 -38 7.5 -57.5t44.5 -63.5q41 -51 41 -105q0 -40 -21.5 -66.5t-54.5 -26.5z" />
    <glyph glyph-name="uni00B9" unicode="&#xb9;" horiz-adv-x="661" 
d="M336 270h208v-10h-427v10h209v758l-196 -45l-2 10l204 47h4v-770z" />
    <glyph glyph-name="ordmasculine" unicode="&#xba;" horiz-adv-x="568" 
d="M285 668q-72 0 -127 50.5t-55 144.5q0 96 50.5 151t131.5 55t130.5 -54.5t49.5 -151.5q0 -94 -54.5 -144.5t-125.5 -50.5zM285 678q69 0 119.5 47t50.5 138q0 93 -46.5 144.5t-123.5 51.5t-124.5 -52t-47.5 -144q0 -91 51 -138t121 -47z" />
    <glyph glyph-name="guillemotright" unicode="&#xbb;" horiz-adv-x="1102" 
d="M607 436v-9l-484 -282l-6 8l478 278l-476 277l6 8zM503 716l482 -280v-9l-484 -282l-6 8l478 278l-476 277z" />
    <glyph glyph-name="onequarter" unicode="&#xbc;" horiz-adv-x="1148" 
d="M117 433v10h157v585l-143 -50l-2 10l150 52h5v-597h147v-10h-314zM1019 1040h12l-769 -1170h-12zM931 478v-417h52v-10h-52v-181h-10v181h-254v5l256 422h8zM921 61v394l-239 -394h239z" />
    <glyph glyph-name="onehalf" unicode="&#xbd;" horiz-adv-x="1148" 
d="M117 435v10h157v585l-143 -50l-2 10l150 52h5v-597h147v-10h-314zM994 1040h12l-769 -1170h-12zM744 -120h301v-10h-315v6q27 43 82.5 108.5t98.5 115.5t77.5 112t34.5 112q0 63 -38.5 103t-97.5 40q-74 0 -143 -75v15q67 70 142 70q66 0 106.5 -44.5t40.5 -108.5
q0 -50 -32.5 -110.5t-73 -108.5t-97.5 -115t-86 -110z" />
    <glyph glyph-name="threequarters" unicode="&#xbe;" horiz-adv-x="1110" 
d="M431 601q0 -63 -44 -114t-114 -51q-89 0 -156 84v13q73 -87 157 -87q61 0 104 46t43 109q0 137 -190 167v10q76 0 122.5 33.5t46.5 99.5q0 50 -36.5 86t-94.5 36q-73 0 -139 -66v14q65 62 138 62q66 0 104 -41t38 -91q0 -61 -37.5 -96.5t-101.5 -44.5q160 -38 160 -169z
M982 1038h11l-769 -1170h-12zM925 478v-417h52v-10h-52v-181h-10v181h-254v5l256 422h8zM915 61v394l-239 -394h239z" />
    <glyph glyph-name="questiondown" unicode="&#xbf;" horiz-adv-x="754" 
d="M433 649q16 0 16 -18t-16 -18q-5 0 -10 5.5t-5 12.5t5 12.5t10 5.5zM438 410q8 -54 -14 -101t-61 -78.5t-86 -65.5t-88.5 -63t-69.5 -71t-28 -89q0 -86 73 -139.5t202 -53.5q96 0 186.5 40t140.5 102l7 -9q-61 -65 -149 -104t-185 -39q-136 0 -210.5 57t-74.5 146
q0 43 21 80.5t54 65.5t72.5 55t77.5 54t68 57t45 70t8 86h11z" />
    <glyph glyph-name="Agrave" unicode="&#xc0;" horiz-adv-x="885" 
d="M478 954h-13l-183 192h13zM459 890q50 -110 199 -429t212 -460v-1h-10q-6 14 -22.5 49t-43.5 93.5t-50 107.5h-597l-121 -250h-11l432 890q6 2 12 0zM152 260h587q-195 422 -286 620z" />
    <glyph glyph-name="Aacute" unicode="&#xc1;" horiz-adv-x="885" 
d="M629 1136l-177 -204h-13l177 204h13zM459 890q50 -110 199 -429t212 -460v-1h-10q-6 14 -22.5 49t-43.5 93.5t-50 107.5h-597l-121 -250h-11l432 890q6 2 12 0zM152 260h587q-195 422 -286 620z" />
    <glyph glyph-name="Acircumflex" unicode="&#xc2;" horiz-adv-x="885" 
d="M454 1140l-192 -210h-14l204 221h4l203 -221h-14zM459 890q50 -110 199 -429t212 -460v-1h-10q-6 14 -22.5 49t-43.5 93.5t-50 107.5h-597l-121 -250h-11l432 890q6 2 12 0zM152 260h587q-195 422 -286 620z" />
    <glyph glyph-name="Atilde" unicode="&#xc3;" horiz-adv-x="885" 
d="M324 1087q-31 0 -50.5 -35.5t-19.5 -92.5h-10q0 64 23 101t58 37q30 0 66 -21t64 -45.5t63.5 -45.5t63.5 -21q33 0 52 36.5t19 92.5l10 -1q0 -62 -22 -100t-59 -38q-29 0 -65.5 21t-65 45.5t-64 45.5t-63.5 21zM459 890q50 -110 199 -429t212 -460v-1h-10q-6 14 -22.5 49
t-43.5 93.5t-50 107.5h-597l-121 -250h-11l432 890q6 2 12 0zM152 260h587q-195 422 -286 620z" />
    <glyph glyph-name="Adieresis" unicode="&#xc4;" horiz-adv-x="885" 
d="M317 983q-14 0 -14 17q0 19 14 19q15 0 15 -19q0 -17 -15 -17zM590 983q-14 0 -14 17q0 19 14 19q15 0 15 -19q0 -17 -15 -17zM459 890q50 -110 199 -429t212 -460v-1h-10q-6 14 -22.5 49t-43.5 93.5t-50 107.5h-597l-121 -250h-11l432 890q6 2 12 0zM152 260h587
q-195 422 -286 620z" />
    <glyph glyph-name="Aring" unicode="&#xc5;" horiz-adv-x="885" 
d="M460 887q52 -115 200 -431t210 -455v-1h-10q-6 14 -22.5 49t-43.5 93.5t-50 107.5h-597l-121 -250h-11l431 887q-69 2 -115 38t-46 95q0 58 47.5 96t122.5 38q69 0 120 -38t51 -96q0 -57 -51 -94t-115 -39zM295 1020q0 -53 43.5 -88t116.5 -35q65 0 113 36.5t48 86.5
q0 52 -47.5 88t-113.5 36q-71 0 -115.5 -36.5t-44.5 -87.5zM152 260h587q-195 422 -286 620z" />
    <glyph glyph-name="AE" unicode="&#xc6;" horiz-adv-x="1440" 
d="M1394 10q2 -2 2 -5t-2 -5h-651v250h-510l-206 -250h-12l728 886v1l3 3h624q2 -7 -1 -10h-616v-447h527q2 -6 -2 -10h-525v-413h641zM241 260h502v611z" />
    <glyph glyph-name="Ccedilla" unicode="&#xc7;" horiz-adv-x="791" 
d="M449 910q129 1 215.5 -86.5t81.5 -214.5l-2 -1h-4h-4q4 124 -79.5 208.5t-207.5 83.5q-114 -1 -205 -63.5t-140 -165.5t-49 -225q0 -106 31 -193.5t84 -143.5t122 -86.5t147 -30.5q69 0 145.5 26t136.5 78l5 -9q-61 -52 -139.5 -78.5t-147.5 -26.5q-22 0 -33 1
q0 -33 8.5 -52t43.5 -62q41 -51 41 -105q0 -40 -21.5 -66.5t-54.5 -26.5q-44 -2 -87 49l6 8q40 -47 81 -47q29 0 47.5 23.5t18.5 59.5q-2 54 -38 98q-37 44 -46 65t-9 57q-153 16 -252 139.5t-99 322.5q0 125 51 230.5t144 169.5t209 64z" />
    <glyph glyph-name="Egrave" unicode="&#xc8;" horiz-adv-x="787" 
d="M438 954h-13l-183 192h13zM741 10q1 -2 1 -5t-1 -5h-651v887l2 3h624q2 -7 -1 -10h-615v-447h526q2 -5 -1 -10h-525v-413h641z" />
    <glyph glyph-name="Eacute" unicode="&#xc9;" horiz-adv-x="787" 
d="M589 1136l-177 -204h-13l177 204h13zM741 10q1 -2 1 -5t-1 -5h-651v887l2 3h624q2 -7 -1 -10h-615v-447h526q2 -5 -1 -10h-525v-413h641z" />
    <glyph glyph-name="Ecircumflex" unicode="&#xca;" horiz-adv-x="787" 
d="M414 1140l-192 -210h-14l204 221h4l203 -221h-14zM741 10q1 -2 1 -5t-1 -5h-651v887l2 3h624q2 -7 -1 -10h-615v-447h526q2 -5 -1 -10h-525v-413h641z" />
    <glyph glyph-name="Edieresis" unicode="&#xcb;" horiz-adv-x="787" 
d="M277 983q-14 0 -14 17q0 19 14 19q15 0 15 -19q0 -17 -15 -17zM550 983q-14 0 -14 17q0 19 14 19q15 0 15 -19q0 -17 -15 -17zM741 10q1 -2 1 -5t-1 -5h-651v887l2 3h624q2 -7 -1 -10h-615v-447h526q2 -5 -1 -10h-525v-413h641z" />
    <glyph glyph-name="Igrave" unicode="&#xcc;" horiz-adv-x="190" 
d="M106 954l-183 192h13l183 -192h-13zM90 0v890q6 4 10 0v-890h-10z" />
    <glyph glyph-name="Iacute" unicode="&#xcd;" horiz-adv-x="190" 
d="M80 932l177 204h13l-177 -204h-13zM90 0v890q6 4 10 0v-890h-10z" />
    <glyph glyph-name="Icircumflex" unicode="&#xce;" horiz-adv-x="190" 
d="M97 1151l203 -221h-14l-191 210l-192 -210h-14l204 221h4zM90 890q6 4 10 0v-890h-10v890z" />
    <glyph glyph-name="Idieresis" unicode="&#xcf;" horiz-adv-x="190" 
d="M-42 983q-14 0 -14 17q0 19 14 19q15 0 15 -19q0 -17 -15 -17zM231 983q-14 0 -14 17q0 19 14 19q15 0 15 -19q0 -17 -15 -17zM90 0v890q6 4 10 0v-890h-10z" />
    <glyph glyph-name="Eth" unicode="&#xd0;" horiz-adv-x="965" 
d="M469 910q206 0 328.5 -125.5t122.5 -328.5q0 -213 -116 -343.5t-314 -130.5q-103 0 -162 9t-151 34v439h-117v11h117v404q124 31 292 31zM490 -8q195 0 306.5 128t113.5 336q1 191 -116 317.5t-325 126.5q-178 0 -282 -29v-396h344v-11h-344v-431q138 -41 303 -41z" />
    <glyph glyph-name="Ntilde" unicode="&#xd1;" horiz-adv-x="944" 
d="M342 1087q-31 0 -50.5 -35.5t-19.5 -92.5h-10q0 64 23 101t58 37q30 0 66 -21t64 -45.5t63.5 -45.5t63.5 -21q33 0 52 36.5t19 92.5l10 -1q0 -62 -22 -100t-59 -38q-29 0 -65.5 21t-65 45.5t-64 45.5t-63.5 21zM844 890q6 4 10 0v-890h-9l-745 872v-872h-10v886q3 6 8 4
l746 -874v874z" />
    <glyph glyph-name="Ograve" unicode="&#xd2;" horiz-adv-x="895" 
d="M476 965l-183 192h13l183 -192h-13zM407 -18q-166 0 -263 121.5t-99 300.5q-1 138 55.5 254t158.5 184t226 68q160 0 263.5 -133.5t101.5 -318.5q-1 -124 -59 -233t-160 -176t-224 -67zM407 -8q115 0 214.5 62.5t158.5 170t60 233.5q2 184 -100 313t-255 129
q-184 0 -307.5 -144t-122.5 -352q1 -110 39.5 -202t120 -151t192.5 -59z" />
    <glyph glyph-name="Oacute" unicode="&#xd3;" horiz-adv-x="895" 
d="M450 943l177 204h13l-177 -204h-13zM407 -18q-166 0 -263 121.5t-99 300.5q-1 138 55.5 254t158.5 184t226 68q160 0 263.5 -133.5t101.5 -318.5q-1 -124 -59 -233t-160 -176t-224 -67zM407 -8q115 0 214.5 62.5t158.5 170t60 233.5q2 184 -100 313t-255 129
q-184 0 -307.5 -144t-122.5 -352q1 -110 39.5 -202t120 -151t192.5 -59z" />
    <glyph glyph-name="Ocircumflex" unicode="&#xd4;" horiz-adv-x="895" 
d="M465 1151l-192 -210h-14l204 221h4l203 -221h-14zM485 910q160 0 263.5 -133.5t101.5 -318.5q-1 -124 -59 -233t-160 -176t-224 -67q-166 0 -263 121.5t-99 300.5q-1 138 55.5 254t158.5 184t226 68zM840 458q2 184 -100 313t-255 129q-184 0 -307.5 -144t-122.5 -352
q1 -110 39.5 -202t120 -151t192.5 -59q115 0 214.5 62.5t158.5 170t60 233.5z" />
    <glyph glyph-name="Otilde" unicode="&#xd5;" horiz-adv-x="895" 
d="M593 965q-29 0 -65.5 21t-65 45.5t-64 45.5t-63.5 21q-31 0 -50.5 -35.5t-19.5 -92.5h-10q0 64 23 101t58 37q30 0 66 -21t64 -45.5t63.5 -45.5t63.5 -21q33 0 52 36.5t19 92.5l10 -1q0 -62 -22 -100t-59 -38zM407 -18q-166 0 -263 121.5t-99 300.5q-1 138 55.5 254
t158.5 184t226 68q160 0 263.5 -133.5t101.5 -318.5q-1 -124 -59 -233t-160 -176t-224 -67zM407 -8q115 0 214.5 62.5t158.5 170t60 233.5q2 184 -100 313t-255 129q-184 0 -307.5 -144t-122.5 -352q1 -110 39.5 -202t120 -151t192.5 -59z" />
    <glyph glyph-name="Odieresis" unicode="&#xd6;" horiz-adv-x="895" 
d="M328 994q-14 0 -14 17q0 19 14 19q15 0 15 -19q0 -17 -15 -17zM601 994q-14 0 -14 17q0 19 14 19q15 0 15 -19q0 -17 -15 -17zM407 -18q-166 0 -263 121.5t-99 300.5q-1 138 55.5 254t158.5 184t226 68q160 0 263.5 -133.5t101.5 -318.5q-1 -124 -59 -233t-160 -176
t-224 -67zM407 -8q115 0 214.5 62.5t158.5 170t60 233.5q2 184 -100 313t-255 129q-184 0 -307.5 -144t-122.5 -352q1 -110 39.5 -202t120 -151t192.5 -59z" />
    <glyph glyph-name="multiply" unicode="&#xd7;" horiz-adv-x="670" 
d="M553 586l-210 -180l210 -180h-16l-202 173l-202 -173h-16l210 180l-210 180h16l202 -173l202 173h16z" />
    <glyph glyph-name="Oslash" unicode="&#xd8;" horiz-adv-x="895" 
d="M717 812q64 -63 99 -156.5t34 -197.5q-1 -124 -59 -233t-160 -176t-224 -67q-144 0 -239 95l-58 -77h-13l63 85q-113 120 -115 319q-1 138 55.5 254t158.5 184t226 68q129 0 225 -91l55 74h12zM55 404q2 -196 111 -311l538 718q-95 89 -219 89q-184 0 -307.5 -144
t-122.5 -352zM840 458q1 103 -33 193.5t-96 152.5l-537 -719q93 -93 233 -93q115 0 214.5 62.5t158.5 170t60 233.5z" />
    <glyph glyph-name="Ugrave" unicode="&#xd9;" horiz-adv-x="943" 
d="M482 972l-183 192h13l183 -192h-13zM459 -18q-172 0 -270.5 102t-98.5 300v506q6 4 10 0v-507q0 -193 96 -292t263 -99q173 0 278.5 112.5t105.5 290.5v495q7 2 10 0v-497q0 -83 -26.5 -157.5t-75.5 -131t-124.5 -89.5t-167.5 -33z" />
    <glyph glyph-name="Uacute" unicode="&#xda;" horiz-adv-x="943" 
d="M457 950l177 204h13l-177 -204h-13zM459 -18q-172 0 -270.5 102t-98.5 300v506q6 4 10 0v-507q0 -193 96 -292t263 -99q173 0 278.5 112.5t105.5 290.5v495q7 2 10 0v-497q0 -83 -26.5 -157.5t-75.5 -131t-124.5 -89.5t-167.5 -33z" />
    <glyph glyph-name="Ucircumflex" unicode="&#xdb;" horiz-adv-x="943" 
d="M472 1158l-192 -210h-14l204 221h4l203 -221h-14zM843 890q7 2 10 0v-497q0 -83 -26.5 -157.5t-75.5 -131t-124.5 -89.5t-167.5 -33q-172 0 -270.5 102t-98.5 300v506q6 4 10 0v-507q0 -193 96 -292t263 -99q173 0 278.5 112.5t105.5 290.5v495z" />
    <glyph glyph-name="Udieresis" unicode="&#xdc;" horiz-adv-x="943" 
d="M335 1001q-14 0 -14 17q0 19 14 19q15 0 15 -19q0 -17 -15 -17zM608 1001q-14 0 -14 17q0 19 14 19q15 0 15 -19q0 -17 -15 -17zM459 -18q-172 0 -270.5 102t-98.5 300v506q6 4 10 0v-507q0 -193 96 -292t263 -99q173 0 278.5 112.5t105.5 290.5v495q7 2 10 0v-497
q0 -83 -26.5 -157.5t-75.5 -131t-124.5 -89.5t-167.5 -33z" />
    <glyph glyph-name="Yacute" unicode="&#xdd;" horiz-adv-x="804" 
d="M577 1136l-177 -204h-13l177 204h13zM789 890q11 -269 -353 -603v-287h-10v287q-54 84 -209 314t-202 286l1 3q2 1 5 1t4 -1q39 -46 188 -266t219 -327q159 144 256 297t91 296q4 1 10 0z" />
    <glyph glyph-name="Thorn" unicode="&#xde;" horiz-adv-x="817" 
d="M407 774q165 0 265 -81t100 -227q0 -147 -104.5 -228.5t-273.5 -81.5q-157 0 -294 54v-210h-10v879q2 1 5 1t5 -1v-145q74 23 138 31.5t169 8.5zM394 166q165 0 266.5 78t101.5 222q0 139 -94.5 218.5t-260.5 79.5q-102 0 -170.5 -8.5t-136.5 -33.5v-501q133 -55 294 -55
z" />
    <glyph glyph-name="germandbls" unicode="&#xdf;" horiz-adv-x="752" 
d="M712 286q9 -136 -69.5 -220t-196.5 -84q-108 0 -200 73q0 6 4 10q93 -73 196 -73q114 0 188.5 80.5t67.5 213.5q-5 95 -76 153.5t-184 57.5q-82 -2 -167 -40q-3 7 -1 10q63 28 122 36q100 25 154 78.5t54 122.5q0 82 -63.5 139.5t-187.5 57.5q-116 0 -186.5 -79
t-70.5 -206v-616h-10v616q0 96 39 164.5t98 99.5t130 31q131 -1 196 -62t65 -145q0 -67 -46.5 -118.5t-127.5 -79.5q113 3 189 -56.5t83 -163.5z" />
    <glyph glyph-name="agrave" unicode="&#xe0;" horiz-adv-x="663" 
d="M385 780h-11l-158 245h12zM590 119q0 -56 6.5 -78.5t21.5 -36.5l-1 -4h-9q-28 26 -28 119v164q-23 -113 -123.5 -207t-227.5 -94q-89 0 -136.5 43.5t-47.5 115.5q0 113 108.5 179.5t307.5 66.5q59 0 118 -6q-5 141 -65 223.5t-164 83.5q-113 2 -250 -97q-4 3 -2 11
q136 96 252 96q110 0 175 -91t65 -260v-228zM229 -8q96 0 178.5 57t127.5 140.5t45 167.5v13q-68 7 -118 7q-203 0 -305.5 -67t-102.5 -169q0 -68 45.5 -108.5t129.5 -40.5z" />
    <glyph glyph-name="aacute" unicode="&#xe1;" horiz-adv-x="663" 
d="M501 1025l-159 -245h-11l158 245h12zM590 119q0 -56 6.5 -78.5t21.5 -36.5l-1 -4h-9q-28 26 -28 119v164q-23 -113 -123.5 -207t-227.5 -94q-89 0 -136.5 43.5t-47.5 115.5q0 113 108.5 179.5t307.5 66.5q59 0 118 -6q-5 141 -65 223.5t-164 83.5q-113 2 -250 -97
q-4 3 -2 11q136 96 252 96q110 0 175 -91t65 -260v-228zM229 -8q96 0 178.5 57t127.5 140.5t45 167.5v13q-68 7 -118 7q-203 0 -305.5 -67t-102.5 -169q0 -68 45.5 -108.5t129.5 -40.5z" />
    <glyph glyph-name="acircumflex" unicode="&#xe2;" horiz-adv-x="663" 
d="M350 978l-192 -209h-14l204 221h4l203 -221h-14zM590 119q0 -56 6.5 -78.5t21.5 -36.5l-1 -4h-9q-28 26 -28 119v164q-23 -113 -123.5 -207t-227.5 -94q-89 0 -136.5 43.5t-47.5 115.5q0 113 108.5 179.5t307.5 66.5q59 0 118 -6q-5 141 -65 223.5t-164 83.5
q-113 2 -250 -97q-4 3 -2 11q136 96 252 96q110 0 175 -91t65 -260v-228zM229 -8q96 0 178.5 57t127.5 140.5t45 167.5v13q-68 7 -118 7q-203 0 -305.5 -67t-102.5 -169q0 -68 45.5 -108.5t129.5 -40.5z" />
    <glyph glyph-name="atilde" unicode="&#xe3;" horiz-adv-x="663" 
d="M220 948q-31 0 -50.5 -35.5t-19.5 -92.5h-10q0 64 23 101t58 37q30 0 66 -21t64 -45.5t63.5 -45.5t63.5 -21q33 0 52 36.5t19 92.5l10 -1q0 -62 -22 -100t-59 -38q-29 0 -65.5 21t-65 45.5t-64 45.5t-63.5 21zM590 119q0 -56 6.5 -78.5t21.5 -36.5l-1 -4h-9
q-28 26 -28 119v164q-23 -113 -123.5 -207t-227.5 -94q-89 0 -136.5 43.5t-47.5 115.5q0 113 108.5 179.5t307.5 66.5q59 0 118 -6q-5 141 -65 223.5t-164 83.5q-113 2 -250 -97q-4 3 -2 11q136 96 252 96q110 0 175 -91t65 -260v-228zM229 -8q96 0 178.5 57t127.5 140.5
t45 167.5v13q-68 7 -118 7q-203 0 -305.5 -67t-102.5 -169q0 -68 45.5 -108.5t129.5 -40.5z" />
    <glyph glyph-name="adieresis" unicode="&#xe4;" horiz-adv-x="663" 
d="M213 834q-14 0 -14 17q0 19 14 19q15 0 15 -19q0 -17 -15 -17zM486 834q-14 0 -14 17q0 19 14 19q15 0 15 -19q0 -17 -15 -17zM590 119q0 -56 6.5 -78.5t21.5 -36.5l-1 -4h-9q-28 26 -28 119v164q-23 -113 -123.5 -207t-227.5 -94q-89 0 -136.5 43.5t-47.5 115.5
q0 113 108.5 179.5t307.5 66.5q59 0 118 -6q-5 141 -65 223.5t-164 83.5q-113 2 -250 -97q-4 3 -2 11q136 96 252 96q110 0 175 -91t65 -260v-228zM229 -8q96 0 178.5 57t127.5 140.5t45 167.5v13q-68 7 -118 7q-203 0 -305.5 -67t-102.5 -169q0 -68 45.5 -108.5
t129.5 -40.5z" />
    <glyph glyph-name="aring" unicode="&#xe5;" horiz-adv-x="663" 
d="M349 775q-72 0 -121 36.5t-49 96.5q0 58 47.5 96t122.5 38q69 0 120 -38t51 -96t-53 -95.5t-118 -37.5zM349 1032q-72 0 -116 -36t-44 -88q0 -53 43.5 -88t116.5 -35q65 0 113 36.5t48 86.5q0 52 -47.5 88t-113.5 36zM590 119q0 -56 6.5 -78.5t21.5 -36.5l-1 -4h-9
q-28 26 -28 119v164q-23 -113 -123.5 -207t-227.5 -94q-89 0 -136.5 43.5t-47.5 115.5q0 113 108.5 179.5t307.5 66.5q59 0 118 -6q-5 141 -65 223.5t-164 83.5q-113 2 -250 -97q-4 3 -2 11q136 96 252 96q110 0 175 -91t65 -260v-228zM229 -8q96 0 178.5 57t127.5 140.5
t45 167.5v13q-68 7 -118 7q-203 0 -305.5 -67t-102.5 -169q0 -68 45.5 -108.5t129.5 -40.5z" />
    <glyph glyph-name="ae" unicode="&#xe6;" horiz-adv-x="1191" 
d="M893 698q121 0 193.5 -91t68.5 -248l-7 -7l-557 -67q10 -134 87.5 -213.5t187.5 -78.5q127 0 241 111q4 -1 7 -7q-118 -113 -248 -115q-113 -2 -194.5 80t-90.5 220q-27 -131 -129 -215.5t-223 -84.5q-89 0 -136.5 43.5t-47.5 115.5q0 113 108.5 179.5t307.5 66.5
q59 0 118 -6q-5 141 -65 223.5t-164 83.5q-113 2 -250 -97q-4 3 -2 11q136 96 252 96q102 0 166 -79.5t72 -217.5q24 127 108 212t197 85zM1145 362q4 155 -66.5 240.5t-185.5 85.5q-88 0 -159.5 -56t-109 -144.5t-34.5 -186.5v-6zM579 357v13q-68 7 -117 7
q-203 0 -305.5 -67t-102.5 -169q0 -68 45.5 -108.5t129.5 -40.5q95 0 176.5 52t127.5 136t46 177z" />
    <glyph glyph-name="ccedilla" unicode="&#xe7;" horiz-adv-x="658" 
d="M362 698q117 0 188.5 -93t67.5 -232q-1 -1 -5 -1t-5 1q0 136 -66.5 225.5t-179.5 89.5q-130 0 -221 -109t-91 -261q0 -143 82.5 -234.5t201.5 -91.5q134 0 246 107q6 -4 6 -8q-116 -109 -252 -109q-11 0 -17 1q0 -32 8.5 -51.5t43.5 -62.5q41 -51 41 -105
q0 -40 -21.5 -66.5t-54.5 -26.5q-44 -2 -87 49l6 8q40 -47 81 -47q29 0 47.5 23.5t18.5 59.5q-2 54 -38 98q-36 43 -45.5 64t-9.5 57q-113 12 -190 104t-77 231q0 159 94.5 269.5t227.5 110.5z" />
    <glyph glyph-name="egrave" unicode="&#xe8;" horiz-adv-x="651" 
d="M388 780h-11l-158 245h12zM353 698q121 0 193.5 -91t68.5 -248l-7 -7l-557 -67q10 -134 87.5 -213.5t187.5 -79.5q128 2 241 112q4 -1 7 -7q-118 -113 -248 -115q-118 -2 -200 85.5t-86 233.5q-3 104 36.5 195t113 146.5t163.5 55.5zM605 362q4 155 -66.5 240.5
t-185.5 85.5q-88 0 -159.5 -56t-109 -144.5t-34.5 -186.5v-6z" />
    <glyph glyph-name="eacute" unicode="&#xe9;" horiz-adv-x="651" 
d="M504 1025l-159 -245h-11l158 245h12zM353 698q121 0 193.5 -91t68.5 -248l-7 -7l-557 -67q10 -134 87.5 -213.5t187.5 -79.5q128 2 241 112q4 -1 7 -7q-118 -113 -248 -115q-118 -2 -200 85.5t-86 233.5q-3 104 36.5 195t113 146.5t163.5 55.5zM605 362
q4 155 -66.5 240.5t-185.5 85.5q-88 0 -159.5 -56t-109 -144.5t-34.5 -186.5v-6z" />
    <glyph glyph-name="ecircumflex" unicode="&#xea;" horiz-adv-x="651" 
d="M353 978l-192 -209h-14l204 221h4l203 -221h-14zM353 698q121 0 193.5 -91t68.5 -248l-7 -7l-557 -67q10 -134 87.5 -213.5t187.5 -79.5q128 2 241 112q4 -1 7 -7q-118 -113 -248 -115q-118 -2 -200 85.5t-86 233.5q-3 104 36.5 195t113 146.5t163.5 55.5zM605 362
q4 155 -66.5 240.5t-185.5 85.5q-88 0 -159.5 -56t-109 -144.5t-34.5 -186.5v-6z" />
    <glyph glyph-name="edieresis" unicode="&#xeb;" horiz-adv-x="651" 
d="M216 834q-14 0 -14 17q0 19 14 19q15 0 15 -19q0 -17 -15 -17zM489 834q-14 0 -14 17q0 19 14 19q15 0 15 -19q0 -17 -15 -17zM353 698q121 0 193.5 -91t68.5 -248l-7 -7l-557 -67q10 -134 87.5 -213.5t187.5 -79.5q128 2 241 112q4 -1 7 -7q-118 -113 -248 -115
q-118 -2 -200 85.5t-86 233.5q-3 104 36.5 195t113 146.5t163.5 55.5zM605 362q4 155 -66.5 240.5t-185.5 85.5q-88 0 -159.5 -56t-109 -144.5t-34.5 -186.5v-6z" />
    <glyph glyph-name="igrave" unicode="&#xec;" horiz-adv-x="210" 
d="M129 780l-158 245h12l157 -245h-11zM100 0v647q6 4 10 0v-647h-10z" />
    <glyph glyph-name="iacute" unicode="&#xed;" horiz-adv-x="210" 
d="M86 780l158 245h12l-159 -245h-11zM100 0v647q6 4 10 0v-647h-10z" />
    <glyph glyph-name="icircumflex" unicode="&#xee;" horiz-adv-x="210" 
d="M107 990l203 -221h-14l-191 209l-192 -209h-14l204 221h4zM100 647q6 4 10 0v-647h-10v647z" />
    <glyph glyph-name="idieresis" unicode="&#xef;" horiz-adv-x="210" 
d="M-32 834q-14 0 -14 17q0 19 14 19q15 0 15 -19q0 -17 -15 -17zM241 834q-14 0 -14 17q0 19 14 19q15 0 15 -19q0 -17 -15 -17zM100 0v647q6 4 10 0v-647h-10z" />
    <glyph glyph-name="eth" unicode="&#xf0;" horiz-adv-x="662" 
d="M388 748q107 -96 170.5 -206t63.5 -220q0 -46 -11 -93t-36.5 -91.5t-61 -79t-89 -55.5t-117.5 -21q-125 0 -196 81.5t-71 209.5q0 145 87 235t219 90q164 0 243 -144q-51 144 -211 289q-42 -24 -225 -112q-3 2 -5 8q15 8 96.5 47t126.5 63q-89 80 -184 131q0 7 3 10
q100 -56 191 -135q140 78 141 131q4 1 9 -2q-1 -32 -37.5 -64.5t-105.5 -71.5zM307 -8q137 0 221.5 96.5t83.5 233.5q-2 109 -75 187.5t-190 78.5q-131 0 -214 -87.5t-83 -227.5q0 -123 67.5 -202t189.5 -79z" />
    <glyph glyph-name="ntilde" unicode="&#xf1;" horiz-adv-x="736" 
d="M283 948q-31 0 -50.5 -35.5t-19.5 -92.5h-10q0 64 23 101t58 37q30 0 66 -21t64 -45.5t63.5 -45.5t63.5 -21q33 0 52 36.5t19 92.5l10 -1q0 -62 -22 -100t-59 -38q-29 0 -65.5 21t-65 45.5t-64 45.5t-63.5 21zM421 698q115 0 179 -92t64 -255v-351h-10v353
q0 152 -59.5 243.5t-173.5 91.5q-84 0 -160.5 -60.5t-120.5 -149.5t-44 -176v-302h-10v531q0 65 -14 111v4q6 3 9 1q15 -40 15 -88v-173q28 122 121.5 217t203.5 95z" />
    <glyph glyph-name="ograve" unicode="&#xf2;" horiz-adv-x="718" 
d="M414 780l-158 245h12l157 -245h-11zM331 -18q-136 0 -213.5 93.5t-77.5 229.5q0 161 101 277t249 116q127 0 207.5 -97.5t80.5 -237.5q0 -158 -98 -269.5t-249 -111.5zM331 -8q148 0 242.5 109t94.5 262q0 138 -77.5 231.5t-200.5 93.5q-146 0 -243 -114t-97 -269
q0 -130 73.5 -221.5t207.5 -91.5z" />
    <glyph glyph-name="oacute" unicode="&#xf3;" horiz-adv-x="718" 
d="M371 780l158 245h12l-159 -245h-11zM331 -18q-136 0 -213.5 93.5t-77.5 229.5q0 161 101 277t249 116q127 0 207.5 -97.5t80.5 -237.5q0 -158 -98 -269.5t-249 -111.5zM331 -8q148 0 242.5 109t94.5 262q0 138 -77.5 231.5t-200.5 93.5q-146 0 -243 -114t-97 -269
q0 -130 73.5 -221.5t207.5 -91.5z" />
    <glyph glyph-name="ocircumflex" unicode="&#xf4;" horiz-adv-x="718" 
d="M391 978l-192 -209h-14l204 221h4l203 -221h-14zM390 698q127 0 207.5 -97.5t80.5 -237.5q0 -158 -98 -269.5t-249 -111.5q-136 0 -213.5 93.5t-77.5 229.5q0 161 101 277t249 116zM331 -8q148 0 242.5 109t94.5 262q0 138 -77.5 231.5t-200.5 93.5q-146 0 -243 -114
t-97 -269q0 -130 73.5 -221.5t207.5 -91.5z" />
    <glyph glyph-name="otilde" unicode="&#xf5;" horiz-adv-x="718" 
d="M518 815q-29 0 -65.5 21t-65 45.5t-64 45.5t-63.5 21q-31 0 -50.5 -35.5t-19.5 -92.5h-10q0 64 23 101t58 37q30 0 66 -21t64 -45.5t63.5 -45.5t63.5 -21q33 0 52 36.5t19 92.5l10 -1q0 -62 -22 -100t-59 -38zM331 -18q-136 0 -213.5 93.5t-77.5 229.5q0 161 101 277
t249 116q127 0 207.5 -97.5t80.5 -237.5q0 -158 -98 -269.5t-249 -111.5zM331 -8q148 0 242.5 109t94.5 262q0 138 -77.5 231.5t-200.5 93.5q-146 0 -243 -114t-97 -269q0 -130 73.5 -221.5t207.5 -91.5z" />
    <glyph glyph-name="odieresis" unicode="&#xf6;" horiz-adv-x="718" 
d="M253 834q-14 0 -14 17q0 19 14 19q15 0 15 -19q0 -17 -15 -17zM526 834q-14 0 -14 17q0 19 14 19q15 0 15 -19q0 -17 -15 -17zM331 -18q-136 0 -213.5 93.5t-77.5 229.5q0 161 101 277t249 116q127 0 207.5 -97.5t80.5 -237.5q0 -158 -98 -269.5t-249 -111.5zM331 -8
q148 0 242.5 109t94.5 262q0 138 -77.5 231.5t-200.5 93.5q-146 0 -243 -114t-97 -269q0 -130 73.5 -221.5t207.5 -91.5z" />
    <glyph glyph-name="divide" unicode="&#xf7;" horiz-adv-x="717" 
d="M357 610q-6 0 -10.5 6t-4.5 13q0 19 15 19q14 0 14 -19q0 -7 -4 -13t-10 -6zM117 420v10h483v-10h-483zM357 195q-6 0 -10.5 6t-4.5 13q0 19 15 19q14 0 14 -19q0 -7 -4 -13t-10 -6z" />
    <glyph glyph-name="oslash" unicode="&#xf8;" horiz-adv-x="718" 
d="M608 588q70 -93 70 -225q0 -158 -98 -269.5t-249 -111.5q-121 0 -199 78l-54 -60h-13v2l60 66q-85 91 -85 237q0 161 101 277t249 116q129 0 212 -102l45 51h13v-1zM50 305q0 -141 81 -230l269 296l27 29l168 189q-80 99 -205 99q-146 0 -243 -114t-97 -269zM331 -8
q148 0 242.5 109t94.5 262q0 128 -67 217l-191 -214l-271 -299q75 -75 192 -75z" />
    <glyph glyph-name="ugrave" unicode="&#xf9;" horiz-adv-x="725" 
d="M398 780h-11l-158 245h12zM649 116q0 -53 4 -73.5t18 -37.5v-5h-8q-14 16 -19 37.5t-5 78.5v138q-24 -118 -113 -195t-212 -77q-112 0 -177 71t-65 215v379q4 2 10 0v-379q0 -142 63 -209t169 -67q141 0 233 102t92 250v303q1 1 5 1t5 -1v-531z" />
    <glyph glyph-name="uacute" unicode="&#xfa;" horiz-adv-x="725" 
d="M514 1025l-159 -245h-11l158 245h12zM649 116q0 -53 4 -73.5t18 -37.5v-5h-8q-14 16 -19 37.5t-5 78.5v138q-24 -118 -113 -195t-212 -77q-112 0 -177 71t-65 215v379q4 2 10 0v-379q0 -142 63 -209t169 -67q141 0 233 102t92 250v303q1 1 5 1t5 -1v-531z" />
    <glyph glyph-name="ucircumflex" unicode="&#xfb;" horiz-adv-x="725" 
d="M363 978l-192 -209h-14l204 221h4l203 -221h-14zM649 116q0 -53 4 -73.5t18 -37.5v-5h-8q-14 16 -19 37.5t-5 78.5v138q-24 -118 -113 -195t-212 -77q-112 0 -177 71t-65 215v379q4 2 10 0v-379q0 -142 63 -209t169 -67q141 0 233 102t92 250v303q1 1 5 1t5 -1v-531z" />
    <glyph glyph-name="udieresis" unicode="&#xfc;" horiz-adv-x="725" 
d="M226 834q-14 0 -14 17q0 19 14 19q15 0 15 -19q0 -17 -15 -17zM499 834q-14 0 -14 17q0 19 14 19q15 0 15 -19q0 -17 -15 -17zM649 116q0 -53 4 -73.5t18 -37.5v-5h-8q-14 16 -19 37.5t-5 78.5v138q-24 -118 -113 -195t-212 -77q-112 0 -177 71t-65 215v379q4 2 10 0
v-379q0 -142 63 -209t169 -67q141 0 233 102t92 250v303q1 1 5 1t5 -1v-531z" />
    <glyph glyph-name="yacute" unicode="&#xfd;" horiz-adv-x="667" 
d="M492 1027l-159 -245h-11l158 245h12zM656 647q7 -110 -19.5 -241t-99 -278t-180.5 -253q-134 -129 -272 -129q-42 0 -74 16q-2 7 0 10l2 1q29 -17 72 -17q63 0 135 34t131 93q60 60 110 132q-67 41 -141.5 128.5t-132.5 184t-100.5 180t-60.5 135.5l1 3q2 1 9 1
q15 -46 56.5 -129.5t99.5 -180t133 -185.5t142 -128q95 143 140 309.5t39 313.5q8 3 10 0z" />
    <glyph glyph-name="thorn" unicode="&#xfe;" horiz-adv-x="697" 
d="M391 698q119 0 192.5 -94.5t73.5 -235.5q0 -102 -39 -190.5t-110 -142t-158 -53.5q-105 0 -176.5 76t-91.5 174v-463q-4 -1 -10 0v1163q2 1 5.5 1t4.5 -1v-534q27 125 115.5 212.5t193.5 87.5zM350 -8q86 0 155.5 54.5t106 140t35.5 181.5q0 139 -72 229.5t-184 90.5
q-122 0 -215.5 -117.5t-93.5 -259.5q0 -80 33.5 -153t96 -119.5t138.5 -46.5z" />
    <glyph glyph-name="ydieresis" unicode="&#xff;" horiz-adv-x="667" 
d="M204 836q-14 0 -14 17q0 19 14 19q15 0 15 -19q0 -17 -15 -17zM477 836q-14 0 -14 17q0 19 14 19q15 0 15 -19q0 -17 -15 -17zM656 647q7 -110 -19.5 -241t-99 -278t-180.5 -253q-134 -129 -272 -129q-42 0 -74 16q-2 7 0 10l2 1q29 -17 72 -17q63 0 135 34t131 93
q60 60 110 132q-67 41 -141.5 128.5t-132.5 184t-100.5 180t-60.5 135.5l1 3q2 1 9 1q15 -46 56.5 -129.5t99.5 -180t133 -185.5t142 -128q95 143 140 309.5t39 313.5q8 3 10 0z" />
    <glyph glyph-name="Amacron" unicode="&#x100;" horiz-adv-x="885" 
d="M662 992v-10h-416v10h416zM459 890q50 -110 199 -429t212 -460v-1h-10q-6 14 -22.5 49t-43.5 93.5t-50 107.5h-597l-121 -250h-11l432 890q6 2 12 0zM152 260h587q-195 422 -286 620z" />
    <glyph glyph-name="amacron" unicode="&#x101;" horiz-adv-x="663" 
d="M564 882v-10h-429v10h429zM590 119q0 -56 6.5 -78.5t21.5 -36.5l-1 -4h-9q-28 26 -28 119v164q-23 -113 -123.5 -207t-227.5 -94q-89 0 -136.5 43.5t-47.5 115.5q0 113 108.5 179.5t307.5 66.5q59 0 118 -6q-5 141 -65 223.5t-164 83.5q-113 2 -250 -97q-4 3 -2 11
q136 96 252 96q110 0 175 -91t65 -260v-228zM229 -8q96 0 178.5 57t127.5 140.5t45 167.5v13q-68 7 -118 7q-203 0 -305.5 -67t-102.5 -169q0 -68 45.5 -108.5t129.5 -40.5z" />
    <glyph glyph-name="Abreve" unicode="&#x102;" horiz-adv-x="885" 
d="M454 959q-80 0 -134 41.5t-54 113.5h10q0 -65 49.5 -105t128.5 -40q77 0 128.5 40t51.5 105h10q0 -70 -55.5 -112.5t-134.5 -42.5zM459 890q50 -110 199 -429t212 -460v-1h-10q-6 14 -22.5 49t-43.5 93.5t-50 107.5h-597l-121 -250h-11l432 890q6 2 12 0zM152 260h587
q-195 422 -286 620z" />
    <glyph glyph-name="abreve" unicode="&#x103;" horiz-adv-x="663" 
d="M349 775q-85 0 -141.5 49.5t-56.5 135.5h10q0 -79 52.5 -127t135.5 -48q80 0 134.5 48.5t54.5 126.5h10q0 -84 -58 -134.5t-141 -50.5zM590 119q0 -56 6.5 -78.5t21.5 -36.5l-1 -4h-9q-28 26 -28 119v164q-23 -113 -123.5 -207t-227.5 -94q-89 0 -136.5 43.5t-47.5 115.5
q0 113 108.5 179.5t307.5 66.5q59 0 118 -6q-5 141 -65 223.5t-164 83.5q-113 2 -250 -97q-4 3 -2 11q136 96 252 96q110 0 175 -91t65 -260v-228zM229 -8q96 0 178.5 57t127.5 140.5t45 167.5v13q-68 7 -118 7q-203 0 -305.5 -67t-102.5 -169q0 -68 45.5 -108.5
t129.5 -40.5z" />
    <glyph glyph-name="Aogonek" unicode="&#x104;" horiz-adv-x="885" 
d="M916 -249l8 -6q-19 -29 -50 -48t-61 -19q-41 -1 -67 22t-26 67q0 54 35 119.5t101 121.5l-112 242h-597l-121 -250h-11l432 890q6 2 12 0q50 -110 199 -429t212 -460v-1h-8q-64 -53 -98 -117t-34 -116q0 -39 23.5 -59.5t59.5 -19.5q27 0 56 18t47 45zM152 260h587
q-195 422 -286 620z" />
    <glyph glyph-name="aogonek" unicode="&#x105;" horiz-adv-x="663" 
d="M663 -250l8 -6q-19 -29 -50 -48t-61 -19q-41 -1 -67 22t-26 67q0 54 35 119.5t100 120.5q-22 27 -22 113v164q-23 -113 -123.5 -207t-227.5 -94q-89 0 -136.5 43.5t-47.5 115.5q0 113 108.5 179.5t307.5 66.5q59 0 118 -6q-5 141 -65 223.5t-164 83.5q-113 2 -250 -97
q-4 3 -2 11q136 96 252 96q110 0 175 -91t65 -260v-228q0 -56 6.5 -78.5t21.5 -36.5l-1 -4h-6q-65 -54 -99.5 -118t-34.5 -116q0 -39 23.5 -59.5t59.5 -19.5q27 0 56 18t47 45zM229 -8q96 0 178.5 57t127.5 140.5t45 167.5v13q-68 7 -118 7q-203 0 -305.5 -67t-102.5 -169
q0 -68 45.5 -108.5t129.5 -40.5z" />
    <glyph glyph-name="Cacute" unicode="&#x106;" horiz-adv-x="791" 
d="M434 952l177 204h13l-177 -204h-13zM439 -18q-169 0 -281.5 125.5t-112.5 338.5q0 125 51 230.5t144 169.5t209 64q129 1 215.5 -86.5t81.5 -214.5l-2 -1h-4h-4q4 124 -79.5 208.5t-207.5 83.5q-114 -1 -205 -63.5t-140 -165.5t-49 -225q0 -106 31 -193.5t84 -143.5
t122 -86.5t147 -30.5q69 0 145.5 26t136.5 78l5 -9q-61 -52 -139.5 -78.5t-147.5 -26.5z" />
    <glyph glyph-name="cacute" unicode="&#x107;" horiz-adv-x="658" 
d="M343 780l158 245h12l-159 -245h-11zM334 -18q-122 0 -208 94t-86 242q0 159 94.5 269.5t227.5 110.5q117 0 188.5 -93t67.5 -232q-1 -1 -5 -1t-5 1q0 136 -66.5 225.5t-179.5 89.5q-130 0 -221 -109t-91 -261q0 -143 82.5 -234.5t201.5 -91.5q134 0 246 107q6 -4 6 -8
q-116 -109 -252 -109z" />
    <glyph glyph-name="Cdotaccent" unicode="&#x10a;" horiz-adv-x="791" 
d="M448 1001q-14 0 -14 17q0 19 14 19q15 0 15 -19q0 -17 -15 -17zM439 -18q-169 0 -281.5 125.5t-112.5 338.5q0 125 51 230.5t144 169.5t209 64q129 1 215.5 -86.5t81.5 -214.5l-2 -1h-4h-4q4 124 -79.5 208.5t-207.5 83.5q-114 -1 -205 -63.5t-140 -165.5t-49 -225
q0 -106 31 -193.5t84 -143.5t122 -86.5t147 -30.5q69 0 145.5 26t136.5 78l5 -9q-61 -52 -139.5 -78.5t-147.5 -26.5z" />
    <glyph glyph-name="cdotaccent" unicode="&#x10b;" horiz-adv-x="658" 
d="M361 834q-14 0 -14 17q0 19 14 19q15 0 15 -19q0 -17 -15 -17zM334 -18q-122 0 -208 94t-86 242q0 159 94.5 269.5t227.5 110.5q117 0 188.5 -93t67.5 -232q-1 -1 -5 -1t-5 1q0 136 -66.5 225.5t-179.5 89.5q-130 0 -221 -109t-91 -261q0 -143 82.5 -234.5t201.5 -91.5
q134 0 246 107q6 -4 6 -8q-116 -109 -252 -109z" />
    <glyph glyph-name="Ccaron" unicode="&#x10c;" horiz-adv-x="791" 
d="M451 955h-4l-204 211h13l193 -200l192 200h13zM449 910q129 1 215.5 -86.5t81.5 -214.5l-2 -1h-4h-4q4 124 -79.5 208.5t-207.5 83.5q-114 -1 -205 -63.5t-140 -165.5t-49 -225q0 -106 31 -193.5t84 -143.5t122 -86.5t147 -30.5q69 0 145.5 26t136.5 78l5 -9
q-61 -52 -139.5 -78.5t-147.5 -26.5q-169 0 -281.5 125.5t-112.5 338.5q0 125 51 230.5t144 169.5t209 64z" />
    <glyph glyph-name="ccaron" unicode="&#x10d;" horiz-adv-x="658" 
d="M364 780h-4l-204 221h14l192 -210l191 210h14zM362 698q117 0 188.5 -93t67.5 -232q-1 -1 -5 -1t-5 1q0 136 -66.5 225.5t-179.5 89.5q-130 0 -221 -109t-91 -261q0 -143 82.5 -234.5t201.5 -91.5q134 0 246 107q6 -4 6 -8q-116 -109 -252 -109q-122 0 -208 94t-86 242
q0 159 94.5 269.5t227.5 110.5z" />
    <glyph glyph-name="Dcaron" unicode="&#x10e;" horiz-adv-x="877" 
d="M385 955h-4l-204 211h13l193 -200l192 200h13zM382 910q206 0 328 -125.5t122 -328.5q0 -213 -115.5 -343.5t-313.5 -130.5q-103 0 -162 9t-151 34v854q124 31 292 31zM403 -8q195 0 306.5 128t112.5 336q2 191 -115 317.5t-325 126.5q-178 0 -282 -29v-838
q138 -41 303 -41z" />
    <glyph glyph-name="dcaron" unicode="&#x10f;" horiz-adv-x="804" 
d="M842 1046h10l-16 -333h-10zM640 932v-783q0 -81 12 -142v-7h-7q-15 42 -15 142v123q-10 -48 -34.5 -96.5t-61 -91t-90 -69t-113.5 -26.5q-123 0 -202.5 92.5t-79.5 237.5q0 154 91.5 270t227.5 116q95 0 167.5 -70.5t94.5 -178.5v483q5 2 10 0zM331 -8q86 0 156.5 55
t106.5 136t36 165q0 146 -75 243t-187 97q-129 0 -219 -111.5t-90 -264.5q-1 -137 75 -228.5t197 -91.5z" />
    <glyph glyph-name="Dcroat" unicode="&#x110;" horiz-adv-x="965" 
d="M469 910q206 0 328.5 -125.5t122.5 -328.5q0 -213 -116 -343.5t-314 -130.5q-103 0 -162 9t-151 34v439h-117v11h117v404q124 31 292 31zM490 -8q195 0 306.5 128t113.5 336q1 191 -116 317.5t-325 126.5q-178 0 -282 -29v-396h344v-11h-344v-431q138 -41 303 -41z" />
    <glyph glyph-name="dcroat" unicode="&#x111;" horiz-adv-x="707" 
d="M735 797h-103v-648q0 -86 11 -142v-7h-7q-14 40 -14 142v128q-9 -49 -33 -97.5t-60.5 -92t-90.5 -71t-115 -27.5q-124 0 -203.5 92.5t-79.5 237.5q0 100 40.5 188t114.5 143t164 55q96 0 169 -72t94 -182v353h-269v9h269v126q2 2 10 0v-126h103v-9zM323 -8q86 0 156.5 55
t106.5 136t36 165q0 146 -75.5 243t-187.5 97q-129 0 -218.5 -111.5t-90.5 -264.5q-1 -138 75 -229t198 -91z" />
    <glyph glyph-name="Emacron" unicode="&#x112;" horiz-adv-x="787" 
d="M622 992v-10h-416v10h416zM741 10q1 -2 1 -5t-1 -5h-651v887l2 3h624q2 -7 -1 -10h-615v-447h526q2 -5 -1 -10h-525v-413h641z" />
    <glyph glyph-name="emacron" unicode="&#x113;" horiz-adv-x="651" 
d="M567 882v-10h-429v10h429zM353 698q121 0 193.5 -91t68.5 -248l-7 -7l-557 -67q10 -134 87.5 -213.5t187.5 -79.5q128 2 241 112q4 -1 7 -7q-118 -113 -248 -115q-118 -2 -200 85.5t-86 233.5q-3 104 36.5 195t113 146.5t163.5 55.5zM605 362q4 155 -66.5 240.5
t-185.5 85.5q-88 0 -159.5 -56t-109 -144.5t-34.5 -186.5v-6z" />
    <glyph glyph-name="Ebreve" unicode="&#x114;" horiz-adv-x="787" 
d="M414 959q-80 0 -134 41.5t-54 113.5h10q0 -65 49.5 -105t128.5 -40q77 0 128.5 40t51.5 105h10q0 -70 -55 -112.5t-135 -42.5zM741 10q1 -2 1 -5t-1 -5h-651v887l2 3h624q2 -7 -1 -10h-615v-447h526q2 -5 -1 -10h-525v-413h641z" />
    <glyph glyph-name="ebreve" unicode="&#x115;" horiz-adv-x="651" 
d="M352 775q-85 0 -141.5 49.5t-56.5 135.5h10q0 -79 52.5 -127t135.5 -48q80 0 134.5 48.5t54.5 126.5h10q0 -84 -58 -134.5t-141 -50.5zM353 698q121 0 193.5 -91t68.5 -248l-7 -7l-557 -67q10 -134 87.5 -213.5t187.5 -79.5q128 2 241 112q4 -1 7 -7q-118 -113 -248 -115
q-118 -2 -200 85.5t-86 233.5q-3 104 36.5 195t113 146.5t163.5 55.5zM605 362q4 155 -66.5 240.5t-185.5 85.5q-88 0 -159.5 -56t-109 -144.5t-34.5 -186.5v-6z" />
    <glyph glyph-name="Edotaccent" unicode="&#x116;" horiz-adv-x="787" 
d="M413 981q-14 0 -14 17q0 19 14 19q15 0 15 -19q0 -17 -15 -17zM741 10q1 -2 1 -5t-1 -5h-651v887l2 3h624q2 -7 -1 -10h-615v-447h526q2 -5 -1 -10h-525v-413h641z" />
    <glyph glyph-name="edotaccent" unicode="&#x117;" horiz-adv-x="651" 
d="M352 834q-14 0 -14 17q0 19 14 19q15 0 15 -19q0 -17 -15 -17zM353 698q121 0 193.5 -91t68.5 -248l-7 -7l-557 -67q10 -134 87.5 -213.5t187.5 -79.5q128 2 241 112q4 -1 7 -7q-118 -113 -248 -115q-118 -2 -200 85.5t-86 233.5q-3 104 36.5 195t113 146.5t163.5 55.5z
M605 362q4 155 -66.5 240.5t-185.5 85.5q-88 0 -159.5 -56t-109 -144.5t-34.5 -186.5v-6z" />
    <glyph glyph-name="Eogonek" unicode="&#x118;" horiz-adv-x="787" 
d="M458 0q-64 -53 -98 -117t-34 -116q0 -39 23.5 -59.5t59.5 -19.5q27 0 56 18t47 45l8 -6q-19 -29 -50 -48t-61 -19q-41 -1 -67 22t-26 67q0 52 33 115.5t94 117.5h-353v887l2 3h624q2 -7 -1 -10h-615v-447h526q2 -5 -1 -10h-525v-413h355l1 1l1 -1h284q1 -2 1 -5t-1 -5
h-283z" />
    <glyph glyph-name="eogonek" unicode="&#x119;" horiz-adv-x="651" 
d="M353 698q121 0 193.5 -91t68.5 -248l-7 -7l-557 -67q10 -134 87.5 -213.5t187.5 -79.5q128 2 241 112q4 -1 7 -7q-110 -106 -232 -114q-65 -54 -99.5 -118t-34.5 -117q0 -39 23.5 -59.5t59.5 -19.5q27 0 56 18t47 45l8 -6q-19 -29 -50 -48t-61 -19q-41 -1 -67 22t-26 67
q0 52 33 116t95 118q-118 -2 -200 85.5t-86 233.5q-3 104 36.5 195t113 146.5t163.5 55.5zM605 362q4 155 -66.5 240.5t-185.5 85.5q-88 0 -159.5 -56t-109 -144.5t-34.5 -186.5v-6z" />
    <glyph glyph-name="Ecaron" unicode="&#x11a;" horiz-adv-x="787" 
d="M417 935h-4l-204 211h13l193 -200l192 200h13zM741 10q1 -2 1 -5t-1 -5h-651v887l2 3h624q2 -7 -1 -10h-615v-447h526q2 -5 -1 -10h-525v-413h641z" />
    <glyph glyph-name="ecaron" unicode="&#x11b;" horiz-adv-x="651" 
d="M355 780h-4l-204 221h14l192 -210l191 210h14zM353 698q121 0 193.5 -91t68.5 -248l-7 -7l-557 -67q10 -134 87.5 -213.5t187.5 -79.5q128 2 241 112q4 -1 7 -7q-118 -113 -248 -115q-118 -2 -200 85.5t-86 233.5q-3 104 36.5 195t113 146.5t163.5 55.5zM605 362
q4 155 -66.5 240.5t-185.5 85.5q-88 0 -159.5 -56t-109 -144.5t-34.5 -186.5v-6z" />
    <glyph glyph-name="Gbreve" unicode="&#x11e;" horiz-adv-x="848" 
d="M454 979q-80 0 -134 41.5t-54 113.5h10q0 -65 49.5 -105t128.5 -40q77 0 128.5 40t51.5 105h10q0 -70 -55.5 -112.5t-134.5 -42.5zM803 618q-4 -3 -10 -1q2 126 -94.5 204.5t-244.5 78.5q-119 0 -211 -63t-140 -166t-48 -225q0 -208 117 -331t299 -123q83 0 169 25.5
t153 74.5v301h-358q0 4 3 10h361l4 -5v-311q-65 -51 -155.5 -78t-176.5 -27q-186 0 -306 125.5t-120 338.5q0 122 48 226.5t143 171t218 66.5q150 0 251.5 -81.5t97.5 -210.5z" />
    <glyph glyph-name="gbreve" unicode="&#x11f;" horiz-adv-x="716" 
d="M355 764q-85 0 -141.5 49.5t-56.5 135.5h10q0 -79 52.5 -127t135.5 -48q80 0 134.5 48.5t54.5 126.5h10q0 -84 -58 -134.5t-141 -50.5zM635 650q7 0 9 -1v-3q-12 -101 -12 -134v-433q0 -167 -82.5 -263t-208.5 -96q-140 0 -274 115q0 7 5 9q135 -114 269 -114
q122 0 201.5 93.5t79.5 256.5v188q-25 -123 -106.5 -204.5t-190.5 -81.5q-121 0 -203 89.5t-82 240.5q0 96 38.5 184t113 145t167.5 57q98 0 168.5 -73.5t94.5 -183.5v109zM325 -8q121 0 207.5 104t89.5 265q-3 80 -33 153.5t-91 123.5t-139 50q-91 0 -163.5 -57t-109 -142
t-36.5 -177q0 -136 74.5 -228t200.5 -92z" />
    <glyph glyph-name="Gdotaccent" unicode="&#x120;" horiz-adv-x="848" 
d="M453 1001q-14 0 -14 17q0 19 14 19q15 0 15 -19q0 -17 -15 -17zM803 618q-4 -3 -10 -1q2 126 -94.5 204.5t-244.5 78.5q-119 0 -211 -63t-140 -166t-48 -225q0 -208 117 -331t299 -123q83 0 169 25.5t153 74.5v301h-358q0 4 3 10h361l4 -5v-311q-65 -51 -155.5 -78
t-176.5 -27q-186 0 -306 125.5t-120 338.5q0 122 48 226.5t143 171t218 66.5q150 0 251.5 -81.5t97.5 -210.5z" />
    <glyph glyph-name="gdotaccent" unicode="&#x121;" horiz-adv-x="716" 
d="M355 823q-14 0 -14 17q0 19 14 19q15 0 15 -19q0 -17 -15 -17zM635 650q7 0 9 -1v-3q-12 -101 -12 -134v-433q0 -167 -82.5 -263t-208.5 -96q-140 0 -274 115q0 7 5 9q135 -114 269 -114q122 0 201.5 93.5t79.5 256.5v188q-25 -123 -106.5 -204.5t-190.5 -81.5
q-121 0 -203 89.5t-82 240.5q0 96 38.5 184t113 145t167.5 57q98 0 168.5 -73.5t94.5 -183.5v109zM325 -8q121 0 207.5 104t89.5 265q-3 80 -33 153.5t-91 123.5t-139 50q-91 0 -163.5 -57t-109 -142t-36.5 -177q0 -136 74.5 -228t200.5 -92z" />
    <glyph glyph-name="uni0122" unicode="&#x122;" horiz-adv-x="848" 
d="M803 618q-4 -3 -10 -1q2 126 -94.5 204.5t-244.5 78.5q-119 0 -211 -63t-140 -166t-48 -225q0 -208 117 -331t299 -123q83 0 169 25.5t153 74.5v301h-358q0 4 3 10h361l4 -5v-311q-65 -51 -155.5 -78t-176.5 -27q-186 0 -306 125.5t-120 338.5q0 122 48 226.5t143 171
t218 66.5q150 0 251.5 -81.5t97.5 -210.5zM396 -299l45 206h10l-45 -206h-10z" />
    <glyph glyph-name="uni0123" unicode="&#x123;" horiz-adv-x="716" 
d="M396 997l-45 -206h-10l45 206h10zM635 650q7 0 9 -1v-3q-12 -101 -12 -134v-433q0 -167 -82.5 -263t-208.5 -96q-140 0 -274 115q0 7 5 9q135 -114 269 -114q122 0 201.5 93.5t79.5 256.5v188q-25 -123 -106.5 -204.5t-190.5 -81.5q-121 0 -203 89.5t-82 240.5
q0 96 38.5 184t113 145t167.5 57q98 0 168.5 -73.5t94.5 -183.5v109zM325 -8q121 0 207.5 104t89.5 265q-3 80 -33 153.5t-91 123.5t-139 50q-91 0 -163.5 -57t-109 -142t-36.5 -177q0 -136 74.5 -228t200.5 -92z" />
    <glyph glyph-name="Hcircumflex" unicode="&#x124;" horiz-adv-x="863" 
d="M432 1140l-192 -210h-14l204 221h4l203 -221h-14zM763 890q1 2 5 2t5 -2v-890h-10v398h-663v-398h-10v890q6 3 10 0v-482h663v482z" />
    <glyph glyph-name="hcircumflex" unicode="&#x125;" horiz-adv-x="704" 
d="M370 1174l-192 -209h-14l204 221h4l203 -221h-14zM407 698q115 0 179 -92t64 -255v-351h-10v353q0 152 -59.5 243.5t-173.5 91.5q-84 0 -160.5 -60.5t-120.5 -149.5t-44 -176v-302h-10v932q8 2 10 0v-546q28 122 121.5 217t203.5 95z" />
    <glyph glyph-name="Hbar" unicode="&#x126;" horiz-adv-x="914" 
d="M840 625v-10h-45v-615h-10v398h-663v-398h-10v615h-38v10h38v265q6 3 10 0v-265h663v265q1 2 5 2t5 -2v-265h45zM785 408v207h-663v-207h663z" />
    <glyph glyph-name="hbar" unicode="&#x127;" horiz-adv-x="680" 
d="M384 698q115 0 178.5 -92t63.5 -255v-351h-10v353q0 153 -59.5 244t-172.5 91q-84 0 -160.5 -60.5t-120.5 -149.5t-44 -176v-302h-10v828h-93v10h93v94q8 2 10 0v-94h326v-10h-326v-442q28 122 121.5 217t203.5 95z" />
    <glyph glyph-name="Imacron" unicode="&#x12a;" horiz-adv-x="190" 
d="M-30 982v10h250v-10h-250zM90 0v890q6 4 10 0v-890h-10z" />
    <glyph glyph-name="imacron" unicode="&#x12b;" horiz-adv-x="210" 
d="M-67 872v10h343v-10h-343zM100 0v647q6 4 10 0v-647h-10z" />
    <glyph glyph-name="Iogonek" unicode="&#x12e;" horiz-adv-x="190" 
d="M150 -250l8 -6q-19 -29 -50 -48t-61 -19q-41 -1 -67 22t-26 67q0 54 35 119.5t101 121.5v883q6 4 10 0v-890h-2q-65 -54 -99.5 -118t-34.5 -116q0 -39 23.5 -59.5t59.5 -19.5q27 0 56 18t47 45z" />
    <glyph glyph-name="iogonek" unicode="&#x12f;" horiz-adv-x="210" 
d="M104 834q-14 0 -14 17q0 19 14 19q15 0 15 -19q0 -17 -15 -17zM159 -250l8 -6q-19 -29 -50 -48t-61 -19q-41 -1 -67 22t-26 67q0 54 35.5 120t101.5 122v639q6 4 10 0v-647h-3q-65 -54 -99.5 -118t-34.5 -116q0 -39 23.5 -59.5t59.5 -19.5q27 0 56 18t47 45z" />
    <glyph glyph-name="Idotaccent" unicode="&#x130;" horiz-adv-x="190" 
d="M94 981q-14 0 -14 17q0 19 14 19q15 0 15 -19q0 -17 -15 -17zM90 0v890q6 4 10 0v-890h-10z" />
    <glyph glyph-name="dotlessi" unicode="&#x131;" horiz-adv-x="210" 
d="M100 0v647q6 4 10 0v-647h-10z" />
    <glyph glyph-name="IJ" unicode="&#x132;" horiz-adv-x="948" 
d="M90 0v890q6 4 10 0v-890h-10zM514 -18q-95 0 -191.5 57.5t-167.5 147.5q1 6 6 9q71 -88 164.5 -146t188.5 -58q149 0 237.5 107t88.5 275v516q6 2 10 0v-518q0 -107 -38 -194.5t-115.5 -141.5t-182.5 -54z" />
    <glyph glyph-name="ij" unicode="&#x133;" horiz-adv-x="425" 
d="M104 834q-14 0 -14 17q0 19 14 19q15 0 15 -19q0 -17 -15 -17zM320 834q-14 0 -14 17q0 19 14 19q15 0 15 -19q0 -7 -4.5 -12t-10.5 -5zM100 0v647q6 4 10 0v-647h-10zM228 -219q-35 0 -79 17q-2 7 1 10q48 -17 78 -17q49 0 68 48t19 161v647q6 2 10 0v-648
q0 -110 -19 -163.5t-78 -54.5z" />
    <glyph glyph-name="Jcircumflex" unicode="&#x134;" horiz-adv-x="841" 
d="M742 1152l203 -221h-14l-191 210l-192 -210h-14l204 221h4zM733 890q6 2 10 0v-518q0 -166 -89.5 -278t-246.5 -112q-95 0 -191.5 57.5t-167.5 147.5q2 6 6 9q71 -88 164.5 -146t188.5 -58q149 0 237.5 107t88.5 275v516z" />
    <glyph glyph-name="jcircumflex" unicode="&#x135;" horiz-adv-x="215" 
d="M113 990l203 -221h-14l-191 209l-192 -209h-14l204 221h4zM105 647q6 2 10 0v-648q0 -110 -19 -163.5t-78 -54.5q-35 0 -79 17q-2 7 1 10q48 -17 78 -17q49 0 68 48t19 161v647z" />
    <glyph glyph-name="uni0136" unicode="&#x136;" horiz-adv-x="899" 
d="M430 472q176 -205 285 -320.5t166 -147.5v-2q-2 -2 -10 -2q-117 70 -448 468q-145 -83 -323 -166v-302h-10v890q2 1 5.5 1t4.5 -1v-578q313 152 445 244q273 187 263 334q6 2 10 0q6 -82 -64 -166t-205 -177q-56 -38 -119 -75zM375 -289l45 206h10l-45 -206h-10z" />
    <glyph glyph-name="uni0137" unicode="&#x137;" horiz-adv-x="734" 
d="M366 331q138 -153 219 -235t113 -93v-3q-2 -2 -10 -2q-54 18 -330 327q-143 -93 -276 -155v-170h-10v932q5 2 10 0v-751q197 96 349 205q108 77 147 132.5t35 128.5q4 1 10 0q6 -73 -35.5 -133t-151.5 -136q-46 -32 -70 -47zM303 -289l45 206h10l-45 -206h-10z" />
    <glyph glyph-name="kgreenlandic" unicode="&#x138;" horiz-adv-x="734" 
d="M366 331q138 -153 219 -235t113 -93v-3q-2 -2 -10 -2q-54 18 -330 327q-143 -93 -276 -155v-170h-10v647q5 3 10 0v-466q197 96 349 205q108 77 147 132.5t35 128.5q4 1 10 0q6 -73 -35.5 -133t-151.5 -136q-46 -32 -70 -47z" />
    <glyph glyph-name="Lacute" unicode="&#x139;" horiz-adv-x="781" 
d="M101 932l177 204h13l-177 -204h-13zM94 0l-4 5v885q1 1 4.5 1t5.5 -1v-880h640q5 -5 0 -10h-646z" />
    <glyph glyph-name="lacute" unicode="&#x13a;" horiz-adv-x="283" 
d="M81 974l177 204h13l-177 -204h-13zM184 -18q-51 0 -74.5 42.5t-23.5 137.5v770q5 2 10 0v-770q0 -92 21 -131t67 -39q22 0 80 18q2 -5 1 -10q-47 -16 -81 -18z" />
    <glyph glyph-name="uni013B" unicode="&#x13b;" horiz-adv-x="781" 
d="M94 0l-4 5v885q1 1 4.5 1t5.5 -1v-880h640q5 -5 0 -10h-646zM355 -289l45 206h10l-45 -206h-10z" />
    <glyph glyph-name="uni013C" unicode="&#x13c;" horiz-adv-x="283" 
d="M184 -18q-51 0 -74.5 42.5t-23.5 137.5v770q5 2 10 0v-770q0 -92 21 -131t67 -39q22 0 80 18q2 -5 1 -10q-47 -16 -81 -18zM145 -299l45 206h10l-45 -206h-10z" />
    <glyph glyph-name="Lcaron" unicode="&#x13d;" horiz-adv-x="781" 
d="M484 871l16 333h10l-16 -333h-10zM94 0l-4 5v885q1 1 4.5 1t5.5 -1v-880h640q5 -5 0 -10h-646z" />
    <glyph glyph-name="lcaron" unicode="&#x13e;" horiz-adv-x="283" 
d="M258 846l16 333h10l-16 -333h-10zM184 -18q-51 0 -74.5 42.5t-23.5 137.5v770q5 2 10 0v-770q0 -92 21 -131t67 -39q22 0 80 18q2 -5 1 -10q-47 -16 -81 -18z" />
    <glyph glyph-name="Lslash" unicode="&#x141;" horiz-adv-x="871" 
d="M831 10q3 -4 0 -10h-646l-4 5v335l-111 -46v10l111 46v540q1 1 5 1t5 -1v-536l299 124v-10l-299 -124v-334h640z" />
    <glyph glyph-name="lslash" unicode="&#x142;" horiz-adv-x="299" 
d="M280 10q2 -5 1 -10q-47 -16 -81 -18q-51 0 -74.5 42.5t-23.5 137.5v398l-116 -63v11l116 63v361q5 2 10 0v-355l131 71v-11l-131 -71v-404q0 -92 21 -131t67 -39q22 0 80 18z" />
    <glyph glyph-name="Nacute" unicode="&#x143;" horiz-adv-x="944" 
d="M647 1136l-177 -204h-13l177 204h13zM844 890q6 4 10 0v-890h-9l-745 872v-872h-10v886q3 6 8 4l746 -874v874z" />
    <glyph glyph-name="nacute" unicode="&#x144;" horiz-adv-x="736" 
d="M564 1025l-159 -245h-11l158 245h12zM421 698q115 0 179 -92t64 -255v-351h-10v353q0 152 -59.5 243.5t-173.5 91.5q-84 0 -160.5 -60.5t-120.5 -149.5t-44 -176v-302h-10v531q0 65 -14 111v4q6 3 9 1q15 -40 15 -88v-173q28 122 121.5 217t203.5 95z" />
    <glyph glyph-name="uni0145" unicode="&#x145;" horiz-adv-x="944" 
d="M844 890q6 4 10 0v-890h-9l-745 872v-872h-10v886q3 6 8 4l746 -874v874zM426 -289l45 206h10l-45 -206h-10z" />
    <glyph glyph-name="uni0146" unicode="&#x146;" horiz-adv-x="736" 
d="M421 698q115 0 179 -92t64 -255v-351h-10v353q0 152 -59.5 243.5t-173.5 91.5q-84 0 -160.5 -60.5t-120.5 -149.5t-44 -176v-302h-10v531q0 65 -14 111v4q6 3 9 1q15 -40 15 -88v-173q28 122 121.5 217t203.5 95zM330 -289l45 206h10l-45 -206h-10z" />
    <glyph glyph-name="Ncaron" unicode="&#x147;" horiz-adv-x="944" 
d="M475 935h-4l-204 211h13l193 -200l192 200h13zM844 890q6 4 10 0v-890h-9l-745 872v-872h-10v886q3 6 8 4l746 -874v874z" />
    <glyph glyph-name="ncaron" unicode="&#x148;" horiz-adv-x="736" 
d="M416 780h-4l-204 221h14l192 -210l191 210h14zM421 698q115 0 179 -92t64 -255v-351h-10v353q0 152 -59.5 243.5t-173.5 91.5q-84 0 -160.5 -60.5t-120.5 -149.5t-44 -176v-302h-10v531q0 65 -14 111v4q6 3 9 1q15 -40 15 -88v-173q28 122 121.5 217t203.5 95z" />
    <glyph glyph-name="Eng" unicode="&#x14a;" horiz-adv-x="918" 
d="M492 -341q-95 0 -191.5 49t-167.5 126q1 5 6 8q70 -75 164 -124t189 -49q143 0 234.5 94t91.5 240l-718 859v-862h-10v876q3 6 8 4l720 -863v863q5 3 10 0v-877q0 -151 -95 -247.5t-241 -96.5z" />
    <glyph glyph-name="eng" unicode="&#x14b;" horiz-adv-x="736" 
d="M421 698q115 0 179 -92t64 -255v-352q0 -110 -19.5 -163.5t-78.5 -54.5q-35 0 -79 17q-2 7 1 10q48 -17 78 -17q49 0 68.5 48t19.5 161v353q0 152 -59.5 243.5t-173.5 91.5q-84 0 -160.5 -60.5t-120.5 -149.5t-44 -176v-302h-10v531q0 65 -14 111v4q6 3 9 1
q15 -40 15 -88v-173q28 122 121.5 217t203.5 95z" />
    <glyph glyph-name="Omacron" unicode="&#x14c;" horiz-adv-x="895" 
d="M257 993v10h416v-10h-416zM407 -18q-166 0 -263 121.5t-99 300.5q-1 138 55.5 254t158.5 184t226 68q160 0 263.5 -133.5t101.5 -318.5q-1 -124 -59 -233t-160 -176t-224 -67zM407 -8q115 0 214.5 62.5t158.5 170t60 233.5q2 184 -100 313t-255 129q-184 0 -307.5 -144
t-122.5 -352q1 -110 39.5 -202t120 -151t192.5 -59z" />
    <glyph glyph-name="omacron" unicode="&#x14d;" horiz-adv-x="718" 
d="M175 872v10h429v-10h-429zM331 -18q-136 0 -213.5 93.5t-77.5 229.5q0 161 101 277t249 116q127 0 207.5 -97.5t80.5 -237.5q0 -158 -98 -269.5t-249 -111.5zM331 -8q148 0 242.5 109t94.5 262q0 138 -77.5 231.5t-200.5 93.5q-146 0 -243 -114t-97 -269
q0 -130 73.5 -221.5t207.5 -91.5z" />
    <glyph glyph-name="Ohungarumlaut" unicode="&#x150;" horiz-adv-x="895" 
d="M345 970l130 167h12l-131 -167h-11zM510 970l129 167h13l-131 -167h-11zM407 -18q-166 0 -263 121.5t-99 300.5q-1 138 55.5 254t158.5 184t226 68q160 0 263.5 -133.5t101.5 -318.5q-1 -124 -59 -233t-160 -176t-224 -67zM407 -8q115 0 214.5 62.5t158.5 170t60 233.5
q2 184 -100 313t-255 129q-184 0 -307.5 -144t-122.5 -352q1 -110 39.5 -202t120 -151t192.5 -59z" />
    <glyph glyph-name="ohungarumlaut" unicode="&#x151;" horiz-adv-x="718" 
d="M253 780l157 245h13l-159 -245h-11zM441 780l158 245h12l-159 -245h-11zM331 -18q-136 0 -213.5 93.5t-77.5 229.5q0 161 101 277t249 116q127 0 207.5 -97.5t80.5 -237.5q0 -158 -98 -269.5t-249 -111.5zM331 -8q148 0 242.5 109t94.5 262q0 138 -77.5 231.5
t-200.5 93.5q-146 0 -243 -114t-97 -269q0 -130 73.5 -221.5t207.5 -91.5z" />
    <glyph glyph-name="OE" unicode="&#x152;" horiz-adv-x="1539" 
d="M1493 10q1 -2 1 -5t-1 -5h-651v364q-32 -162 -152.5 -272t-279.5 -110q-167 0 -265 120.5t-100 301.5q-2 210 125 358t314 148q136 0 232.5 -96t125.5 -243v306l2 3h624q2 -7 -1 -10h-615v-398v-14v-25h526q2 -5 -1 -10h-525v-413h641zM410 -8q115 0 214 62.5t158 170
t60 233.5v14q-1 118 -47 215.5t-127.5 155t-180.5 57.5q-122 0 -221.5 -66t-155 -180t-55.5 -250q1 -111 40 -202.5t121 -150.5t194 -59z" />
    <glyph glyph-name="oe" unicode="&#x153;" horiz-adv-x="1279" 
d="M981 698q122 0 194.5 -91t67.5 -248l-6 -7l-557 -67q10 -134 87.5 -213.5t187.5 -78.5q126 0 241 111q4 -1 7 -7q-118 -113 -248 -115q-113 -2 -194 79t-91 218q-25 -130 -117 -213.5t-222 -83.5q-136 0 -213.5 93.5t-77.5 229.5q0 161 101 277t249 116
q119 0 197.5 -85.5t89.5 -213.5q23 128 107 213.5t197 85.5zM331 -8q148 0 242.5 109t94.5 262q0 138 -77.5 231.5t-200.5 93.5q-146 0 -243 -114t-97 -269q0 -130 73.5 -221.5t207.5 -91.5zM1233 362q5 155 -65.5 240.5t-186.5 85.5q-87 0 -158.5 -56t-109 -144.5
t-34.5 -186.5v-6z" />
    <glyph glyph-name="Racute" unicode="&#x154;" horiz-adv-x="894" 
d="M602 1146l-177 -204h-13l177 204h13zM532 316q119 -136 194.5 -211.5t121.5 -100.5v-2q-2 -2 -9 -2q-38 18 -105 81.5t-213 232.5q-51 -9 -108 -9q-81 1 -172.5 17t-140.5 33v-355h-10v869q79 24 152.5 32.5t184.5 8.5q169 0 268 -82t99 -229q0 -109 -71 -183.5
t-191 -99.5zM413 315q159 -2 265 74.5t106 209.5q0 135 -92.5 218t-264.5 83q-201 0 -327 -38v-496q154 -49 313 -51z" />
    <glyph glyph-name="racute" unicode="&#x155;" horiz-adv-x="536" 
d="M430 1056l-159 -245h-11l158 245h12zM500 674q1 -7 -2 -10q-60 24 -112 24q-87 0 -155 -58.5t-101.5 -146.5t-33.5 -185v-298h-10v531q0 65 -14 111v4q6 3 9 1q15 -40 15 -88v-160q23 127 102 213t188 86q54 0 114 -24z" />
    <glyph glyph-name="uni0156" unicode="&#x156;" horiz-adv-x="894" 
d="M532 316q119 -136 194.5 -211.5t121.5 -100.5v-2q-2 -2 -9 -2q-38 18 -105 81.5t-213 232.5q-51 -9 -108 -9q-81 1 -172.5 17t-140.5 33v-355h-10v869q79 24 152.5 32.5t184.5 8.5q169 0 268 -82t99 -229q0 -109 -71 -183.5t-191 -99.5zM413 315q159 -2 265 74.5
t106 209.5q0 135 -92.5 218t-264.5 83q-201 0 -327 -38v-496q154 -49 313 -51zM405 -289l45 206h10l-45 -206h-10z" />
    <glyph glyph-name="uni0157" unicode="&#x157;" horiz-adv-x="536" 
d="M500 674q1 -7 -2 -10q-60 24 -112 24q-87 0 -155 -58.5t-101.5 -146.5t-33.5 -185v-298h-10v531q0 65 -14 111v4q6 3 9 1q15 -40 15 -88v-160q23 127 102 213t188 86q54 0 114 -24zM47 -289l45 206h10l-45 -206h-10z" />
    <glyph glyph-name="Rcaron" unicode="&#x158;" horiz-adv-x="894" 
d="M430 945h-4l-204 211h13l193 -200l192 200h13zM532 316q119 -136 194.5 -211.5t121.5 -100.5v-2q-2 -2 -9 -2q-38 18 -105 81.5t-213 232.5q-51 -9 -108 -9q-81 1 -172.5 17t-140.5 33v-355h-10v869q79 24 152.5 32.5t184.5 8.5q169 0 268 -82t99 -229q0 -109 -71 -183.5
t-191 -99.5zM413 315q159 -2 265 74.5t106 209.5q0 135 -92.5 218t-264.5 83q-201 0 -327 -38v-496q154 -49 313 -51z" />
    <glyph glyph-name="rcaron" unicode="&#x159;" horiz-adv-x="536" 
d="M282 811h-4l-204 221h14l192 -210l191 210h14zM500 674q1 -7 -2 -10q-60 24 -112 24q-87 0 -155 -58.5t-101.5 -146.5t-33.5 -185v-298h-10v531q0 65 -14 111v4q6 3 9 1q15 -40 15 -88v-160q23 127 102 213t188 86q54 0 114 -24z" />
    <glyph glyph-name="Sacute" unicode="&#x15a;" horiz-adv-x="839" 
d="M422 952l177 204h13l-177 -204h-13zM445 -18q-109 0 -214.5 36t-185.5 103q0 5 4 9q82 -67 185.5 -102.5t210.5 -35.5q160 0 249.5 66t89.5 177q0 47 -19 82.5t-50 58.5t-79 38.5t-97.5 23.5t-113.5 12q-289 19 -289 223q0 76 49.5 132t116.5 80.5t135 24.5
q162 0 255.5 -70.5t93.5 -179.5q-6 -2 -10 -2q-1 113 -95 177.5t-244 64.5q-117 0 -204 -64.5t-87 -164.5q0 -103 77 -153.5t204 -57.5q189 -10 278 -65t89 -160q0 -110 -88.5 -181.5t-260.5 -71.5z" />
    <glyph glyph-name="sacute" unicode="&#x15b;" horiz-adv-x="664" 
d="M315 780l158 245h12l-159 -245h-11zM350 -18q-77 0 -161 28.5t-143 82.5q0 7 5 9q56 -52 136.5 -81t162.5 -29q111 0 184.5 48t73.5 122q0 87 -62.5 130.5t-217.5 50.5q-254 14 -254 173q0 75 72.5 128.5t187.5 53.5q153 0 268 -82q0 -4 -4 -8q-114 80 -264 80
q-117 0 -183.5 -52.5t-66.5 -119.5q0 -151 245 -163q159 -8 224 -54t65 -136q0 -84 -79.5 -132.5t-188.5 -48.5z" />
    <glyph glyph-name="Scedilla" unicode="&#x15e;" horiz-adv-x="839" 
d="M794 235q0 -109 -87 -180.5t-255 -72.5q0 -32 8.5 -51.5t43.5 -61.5q41 -51 41 -105q0 -40 -21.5 -66.5t-54.5 -26.5q-44 -2 -87 49l6 8q40 -47 81 -47q29 0 47.5 23.5t18.5 59.5q-2 54 -38 98t-45.5 64.5t-9.5 55.5q-109 1 -213.5 37t-183.5 102q0 5 4 9
q82 -67 185.5 -102.5t210.5 -35.5q160 0 249.5 66t89.5 177q0 47 -19 82.5t-50 58.5t-79 38.5t-97.5 23.5t-113.5 12q-289 19 -289 223q0 76 49.5 132t116.5 80.5t135 24.5q162 0 255.5 -70.5t93.5 -179.5q-6 -2 -10 -2q-1 113 -95 177.5t-244 64.5q-117 0 -204 -64.5
t-87 -164.5q0 -103 77 -153.5t204 -57.5q189 -10 278 -65t89 -160z" />
    <glyph glyph-name="scedilla" unicode="&#x15f;" horiz-adv-x="664" 
d="M618 163q0 -84 -79.5 -132.5t-188.5 -48.5h-11q0 -34 8.5 -53t43.5 -62q41 -51 41 -105q0 -40 -21.5 -66.5t-54.5 -26.5q-44 -2 -87 49l6 8q40 -47 81 -47q29 0 47.5 23.5t18.5 59.5q-2 54 -38 98q-37 44 -46 65t-9 58q-74 3 -150.5 31t-132.5 79q0 7 5 9
q56 -52 136.5 -81t162.5 -29q111 0 184.5 48t73.5 122q0 87 -62.5 130.5t-217.5 50.5q-254 14 -254 173q0 75 72.5 128.5t187.5 53.5q153 0 268 -82q0 -4 -4 -8q-114 80 -264 80q-117 0 -183.5 -52.5t-66.5 -119.5q0 -151 245 -163q159 -8 224 -54t65 -136z" />
    <glyph glyph-name="Scaron" unicode="&#x160;" horiz-adv-x="839" 
d="M439 955h-4l-204 211h13l193 -200l192 200h13zM427 460q189 -10 278 -65t89 -160q0 -110 -88.5 -181.5t-260.5 -71.5q-109 0 -214.5 36t-185.5 103q0 5 4 9q82 -67 185.5 -102.5t210.5 -35.5q160 0 249.5 66t89.5 177q0 47 -19 82.5t-50 58.5t-79 38.5t-97.5 23.5
t-113.5 12q-289 19 -289 223q0 76 49.5 132t116.5 80.5t135 24.5q162 0 255.5 -70.5t93.5 -179.5q-6 -2 -10 -2q-1 113 -95 177.5t-244 64.5q-117 0 -204 -64.5t-87 -164.5q0 -103 77 -153.5t204 -57.5z" />
    <glyph glyph-name="scaron" unicode="&#x161;" horiz-adv-x="664" 
d="M337 780h-4l-204 221h14l192 -210l191 210h14zM329 353q159 -8 224 -54t65 -136q0 -84 -79.5 -132.5t-188.5 -48.5q-77 0 -161 28.5t-143 82.5q0 7 5 9q56 -52 136.5 -81t162.5 -29q111 0 184.5 48t73.5 122q0 87 -62.5 130.5t-217.5 50.5q-254 14 -254 173
q0 75 72.5 128.5t187.5 53.5q153 0 268 -82q0 -4 -4 -8q-114 80 -264 80q-117 0 -183.5 -52.5t-66.5 -119.5q0 -151 245 -163z" />
    <glyph glyph-name="uni0162" unicode="&#x162;" horiz-adv-x="801" 
d="M777 880h-389v-880q0 -38 7.5 -57.5t44.5 -63.5q41 -51 41 -105q0 -40 -21.5 -66.5t-54.5 -26.5q-44 -2 -87 49l6 8q40 -47 81 -47q29 0 47.5 23.5t18.5 59.5q-2 54 -38 98q-38 45 -46.5 66t-8.5 62v880h-356q-2 5 3 10h754q1 -5 -2 -10z" />
    <glyph glyph-name="uni0163" unicode="&#x163;" horiz-adv-x="474" 
d="M456 637h-348v-349q0 -140 56.5 -218.5t158.5 -77.5q51 0 115 23q2 -2 2 -10q-64 -23 -117 -23q-31 0 -61 8q0 -36 8 -55t44 -63q41 -51 41 -105q0 -40 -21.5 -66.5t-54.5 -26.5q-44 -2 -87 49l6 8q40 -47 81 -47q29 0 47.5 23.5t18.5 59.5q-2 54 -38 98q-38 45 -46.5 66
t-8.5 62q-73 24 -113.5 100t-40.5 195v349h-88v10h88v183q3 3 10 3v-186h348v-10z" />
    <glyph glyph-name="Tcaron" unicode="&#x164;" horiz-adv-x="801" 
d="M388 935h-4l-204 211h13l193 -200l192 200h13zM779 890q1 -5 -2 -10h-389v-880h-10v880h-356q-2 5 3 10h754z" />
    <glyph glyph-name="tcaron" unicode="&#x165;" horiz-adv-x="474" 
d="M390 1073l-16 -333h-10l16 333h10zM456 637h-348v-349q0 -140 56.5 -218.5t158.5 -77.5q51 0 115 23q2 -2 2 -10q-64 -23 -117 -23q-104 0 -164.5 79.5t-60.5 226.5v349h-88v10h88v183q3 3 10 3v-186h348v-10z" />
    <glyph glyph-name="Tbar" unicode="&#x166;" horiz-adv-x="850" 
d="M805 880h-389v-409h219v-10h-219v-461h-10v461h-209v10h209v409h-356q-2 5 3 10h754q1 -5 -2 -10z" />
    <glyph glyph-name="tbar" unicode="&#x167;" horiz-adv-x="464" 
d="M446 637h-348v-200h348v-10h-348v-139q0 -140 56.5 -218.5t158.5 -77.5q51 0 115 23q2 -2 2 -10q-64 -23 -117 -23q-104 0 -164.5 79.5t-60.5 226.5v139h-88v10h88v200h-88v10h88v183q3 3 10 3v-186h348v-10z" />
    <glyph glyph-name="Umacron" unicode="&#x16a;" horiz-adv-x="943" 
d="M264 1000v10h416v-10h-416zM459 -18q-172 0 -270.5 102t-98.5 300v506q6 4 10 0v-507q0 -193 96 -292t263 -99q173 0 278.5 112.5t105.5 290.5v495q7 2 10 0v-497q0 -83 -26.5 -157.5t-75.5 -131t-124.5 -89.5t-167.5 -33z" />
    <glyph glyph-name="umacron" unicode="&#x16b;" horiz-adv-x="725" 
d="M577 882v-10h-429v10h429zM649 116q0 -53 4 -73.5t18 -37.5v-5h-8q-14 16 -19 37.5t-5 78.5v138q-24 -118 -113 -195t-212 -77q-112 0 -177 71t-65 215v379q4 2 10 0v-379q0 -142 63 -209t169 -67q141 0 233 102t92 250v303q1 1 5 1t5 -1v-531z" />
    <glyph glyph-name="Uring" unicode="&#x16e;" horiz-adv-x="943" 
d="M472 905q-72 0 -121 36t-49 97q0 58 47.5 96t122.5 38q69 0 120 -38t51 -96t-53 -95.5t-118 -37.5zM472 915q65 0 113 36.5t48 86.5q0 52 -47.5 88t-113.5 36q-71 0 -115.5 -36.5t-44.5 -87.5q0 -53 43.5 -88t116.5 -35zM459 -18q-172 0 -270.5 102t-98.5 300v506
q6 4 10 0v-507q0 -193 96 -292t263 -99q173 0 278.5 112.5t105.5 290.5v495q7 2 10 0v-497q0 -83 -26.5 -157.5t-75.5 -131t-124.5 -89.5t-167.5 -33z" />
    <glyph glyph-name="uring" unicode="&#x16f;" horiz-adv-x="725" 
d="M362 775q-72 0 -121 36.5t-49 96.5q0 58 47.5 96t122.5 38q69 0 120 -38t51 -96t-53 -95.5t-118 -37.5zM362 1032q-72 0 -116 -36t-44 -88q0 -53 43.5 -88t116.5 -35q65 0 113 36.5t48 86.5q0 52 -47.5 88t-113.5 36zM649 116q0 -53 4 -73.5t18 -37.5v-5h-8
q-14 16 -19 37.5t-5 78.5v138q-24 -118 -113 -195t-212 -77q-112 0 -177 71t-65 215v379q4 2 10 0v-379q0 -142 63 -209t169 -67q141 0 233 102t92 250v303q1 1 5 1t5 -1v-531z" />
    <glyph glyph-name="Uhungarumlaut" unicode="&#x170;" horiz-adv-x="943" 
d="M352 977l130 167h12l-131 -167h-11zM517 977l129 167h13l-131 -167h-11zM459 -18q-172 0 -270.5 102t-98.5 300v506q6 4 10 0v-507q0 -193 96 -292t263 -99q173 0 278.5 112.5t105.5 290.5v495q7 2 10 0v-497q0 -83 -26.5 -157.5t-75.5 -131t-124.5 -89.5t-167.5 -33z
" />
    <glyph glyph-name="uhungarumlaut" unicode="&#x171;" horiz-adv-x="725" 
d="M396 1025l-159 -245h-11l157 245h13zM584 1025l-159 -245h-11l158 245h12zM649 116q0 -53 4 -73.5t18 -37.5v-5h-8q-14 16 -19 37.5t-5 78.5v138q-24 -118 -113 -195t-212 -77q-112 0 -177 71t-65 215v379q4 2 10 0v-379q0 -142 63 -209t169 -67q141 0 233 102t92 250
v303q1 1 5 1t5 -1v-531z" />
    <glyph glyph-name="Uogonek" unicode="&#x172;" horiz-adv-x="943" 
d="M843 890q7 2 10 0v-497q0 -112 -44 -203.5t-134 -149t-211 -58.5q-65 -54 -99.5 -118t-34.5 -116q0 -39 23.5 -59.5t59.5 -19.5q27 0 56 18t47 45l8 -6q-19 -29 -50 -48t-61 -19q-41 -1 -67 22t-26 67q0 52 33 116t95 118q-167 3 -262.5 105t-95.5 297v506q6 4 10 0v-507
q0 -193 96 -292t263 -99q173 0 278.5 112.5t105.5 290.5v495z" />
    <glyph glyph-name="uogonek" unicode="&#x173;" horiz-adv-x="725" 
d="M718 -250l8 -6q-19 -29 -50 -48t-61 -19q-41 -1 -67 22t-26 67q0 54 35 119.5t101 120.5q-19 26 -19 110v138q-24 -118 -113 -195t-212 -77q-112 0 -177 71t-65 215v379q4 2 10 0v-379q0 -142 63 -209t169 -67q141 0 233 102t92 250v303q1 1 5 1t5 -1v-531q0 -53 4 -73.5
t18 -37.5v-5h-5q-65 -54 -99.5 -118t-34.5 -116q0 -39 23.5 -59.5t59.5 -19.5q27 0 56 18t47 45z" />
    <glyph glyph-name="Wcircumflex" unicode="&#x174;" horiz-adv-x="1230" 
d="M615 1140l-192 -210h-14l204 221h4l203 -221h-14zM1210 890q25 -190 -62 -427t-251 -457l-7 -6h-6l-5 4q-127 347 -175 461q-24 -80 -110 -240t-133 -222l-5 -3h-5l-7 5q-75 226 -198.5 469t-230.5 413l1 3q5 2 9 0q121 -196 239 -431.5t188 -448.5h3q67 102 143.5 243.5
t99.5 227.5q-32 86 -99 244q1 5 8 5q49 -112 142.5 -352t137.5 -368h2q160 220 248 453.5t63 426.5q3 3 10 0z" />
    <glyph glyph-name="wcircumflex" unicode="&#x175;" horiz-adv-x="849" 
d="M425 938l-192 -209h-14l204 221h4l203 -221h-14zM837 647q12 -119 -57 -309t-169 -333l-6 -5h-9l-5 4q-55 218 -112 369q-18 -67 -69.5 -183.5t-93.5 -184.5l-5 -5h-8l-6 4q-94 327 -280 628q-5 8 -7 12l1 3q5 1 8 0q185 -288 286 -637h3q45 78 93.5 187.5t72.5 190.5
l-71 180q1 2 4.5 3.5t4.5 0.5q49 -121 71.5 -181t54 -160t62.5 -221h3q97 143 164 320.5t61 316.5q4 1 9 0z" />
    <glyph glyph-name="Ycircumflex" unicode="&#x176;" horiz-adv-x="804" 
d="M402 1140l-192 -210h-14l204 221h4l203 -221h-14zM789 890q11 -269 -353 -603v-287h-10v287q-54 84 -209 314t-202 286l1 3q2 1 5 1t4 -1q39 -46 188 -266t219 -327q159 144 256 297t91 296q4 1 10 0z" />
    <glyph glyph-name="ycircumflex" unicode="&#x177;" horiz-adv-x="667" 
d="M342 979l-192 -209h-14l204 221h4l203 -221h-14zM656 647q7 -110 -19.5 -241t-99 -278t-180.5 -253q-134 -129 -272 -129q-42 0 -74 16q-2 7 0 10l2 1q29 -17 72 -17q63 0 135 34t131 93q60 60 110 132q-67 41 -141.5 128.5t-132.5 184t-100.5 180t-60.5 135.5l1 3
q2 1 9 1q15 -46 56.5 -129.5t99.5 -180t133 -185.5t142 -128q95 143 140 309.5t39 313.5q8 3 10 0z" />
    <glyph glyph-name="Ydieresis" unicode="&#x178;" horiz-adv-x="804" 
d="M265 983q-14 0 -14 17q0 19 14 19q15 0 15 -19q0 -17 -15 -17zM538 983q-14 0 -14 17q0 19 14 19q15 0 15 -19q0 -17 -15 -17zM789 890q11 -269 -353 -603v-287h-10v287q-54 84 -209 314t-202 286l1 3q2 1 5 1t4 -1q39 -46 188 -266t219 -327q159 144 256 297t91 296
q4 1 10 0z" />
    <glyph glyph-name="Zacute" unicode="&#x179;" horiz-adv-x="816" 
d="M584 1136l-177 -204h-13l177 204h13zM770 10q2 -2 2 -5t-2 -5h-721q-4 1 -4 7q147 259 334 505t347 368h-648q-3 4 0 10h664q5 -3 5 -8q-169 -125 -352 -366t-338 -506h713z" />
    <glyph glyph-name="zacute" unicode="&#x17a;" horiz-adv-x="619" 
d="M461 1025l-159 -245h-11l158 245h12zM608 10q1 -6 0 -10h-597q-2 4 -1 7q313 502 572 630h-543q-1 4 0 10h565q4 -4 2 -9q-150 -69 -293.5 -232.5t-288.5 -395.5h584z" />
    <glyph glyph-name="Zdotaccent" unicode="&#x17b;" horiz-adv-x="816" 
d="M408 981q-14 0 -14 17q0 19 14 19q15 0 15 -19q0 -17 -15 -17zM770 10q2 -2 2 -5t-2 -5h-721q-4 1 -4 7q147 259 334 505t347 368h-648q-3 4 0 10h664q5 -3 5 -8q-169 -125 -352 -366t-338 -506h713z" />
    <glyph glyph-name="zdotaccent" unicode="&#x17c;" horiz-adv-x="619" 
d="M309 834q-14 0 -14 17q0 19 14 19q15 0 15 -19q0 -17 -15 -17zM608 10q1 -6 0 -10h-597q-2 4 -1 7q313 502 572 630h-543q-1 4 0 10h565q4 -4 2 -9q-150 -69 -293.5 -232.5t-288.5 -395.5h584z" />
    <glyph glyph-name="Zcaron" unicode="&#x17d;" horiz-adv-x="816" 
d="M411 935h-4l-204 211h13l193 -200l192 200h13zM770 10q2 -2 2 -5t-2 -5h-721q-4 1 -4 7q147 259 334 505t347 368h-648q-3 4 0 10h664q5 -3 5 -8q-169 -125 -352 -366t-338 -506h713z" />
    <glyph glyph-name="zcaron" unicode="&#x17e;" horiz-adv-x="619" 
d="M313 780h-4l-204 221h14l192 -210l191 210h14zM608 10q1 -6 0 -10h-597q-2 4 -1 7q313 502 572 630h-543q-1 4 0 10h565q4 -4 2 -9q-150 -69 -293.5 -232.5t-288.5 -395.5h584z" />
    <glyph glyph-name="longs" unicode="&#x17f;" horiz-adv-x="279" 
d="M100 0v625q0 153 47 231t137 78q50 0 111 -23q0 -4 -3 -10q-53 23 -108 23q-174 -3 -174 -299v-625h-10z" />
    <glyph glyph-name="florin" unicode="&#x192;" horiz-adv-x="483" 
d="M366 372v-10h-120q15 -234 15 -337q0 -111 -23.5 -169t-79.5 -58v10q52 0 72.5 56t20.5 161q0 111 -16 337h-118v10h118q-11 161 -11 269q0 109 23.5 167.5t80.5 58.5v-10q-52 0 -73 -56t-21 -160q0 -108 11 -269h121z" />
    <glyph glyph-name="uni01C7" unicode="&#x1c7;" horiz-adv-x="1584" 
d="M94 0l-4 5v885q1 1 4.5 1t5.5 -1v-880h640q5 -5 0 -10h-646zM1150 -18q-95 0 -191.5 57.5t-167.5 147.5q1 6 6 9q71 -88 164.5 -146t188.5 -58q149 0 237.5 107t88.5 275v516q6 2 10 0v-518q0 -107 -38 -194.5t-115.5 -141.5t-182.5 -54z" />
    <glyph glyph-name="uni01C8" unicode="&#x1c8;" horiz-adv-x="958" 
d="M94 0l-4 5v885q1 1 4.5 1t5.5 -1v-880h640q5 -5 0 -10h-646zM853 834q-14 0 -14 17q0 19 14 19q15 0 15 -19q0 -7 -4.5 -12t-10.5 -5zM760 -219q-34 0 -78 17q-2 7 1 10q48 -17 77 -17q49 0 68.5 48t19.5 161v647q6 2 10 0v-648q0 -110 -19.5 -163.5t-78.5 -54.5z" />
    <glyph glyph-name="uni01C9" unicode="&#x1c9;" horiz-adv-x="498" 
d="M184 -18q-51 0 -74.5 42.5t-23.5 137.5v770q5 2 10 0v-770q0 -92 21 -131t67 -39q22 0 80 18q2 -5 1 -10q-47 -16 -81 -18zM393 834q-14 0 -14 17q0 19 14 19q15 0 15 -19q0 -17 -15 -17zM301 -219q-35 0 -79 17q-2 7 1 10q48 -17 78 -17q49 0 68 48t19 161v647q6 2 10 0
v-648q0 -110 -19 -163.5t-78 -54.5z" />
    <glyph glyph-name="uni01CA" unicode="&#x1ca;" horiz-adv-x="1725" 
d="M844 890q6 4 10 0v-890h-9l-745 872v-872h-10v886q3 6 8 4l746 -874v874zM1617 890q6 2 10 0v-518q0 -107 -38 -194.5t-115.5 -141.5t-182.5 -54q-95 0 -191.5 57.5t-167.5 147.5q2 6 6 9q71 -88 164.5 -146t188.5 -58q149 0 237.5 107t88.5 275v516z" />
    <glyph glyph-name="uni01CB" unicode="&#x1cb;" horiz-adv-x="1099" 
d="M845 0l-745 872v-872h-10v886q3 6 8 4l746 -874v874q6 4 10 0v-890h-9zM994 870q15 0 15 -19q0 -7 -4.5 -12t-10.5 -5q-14 0 -14 17q0 19 14 19zM989 647q6 2 10 0v-648q0 -110 -19.5 -163.5t-78.5 -54.5q-34 0 -78 17q-2 7 1 10q48 -17 77 -17q49 0 68.5 48t19.5 161
v647z" />
    <glyph glyph-name="uni01CC" unicode="&#x1cc;" horiz-adv-x="1070" 
d="M841 870q14 0 14 -19q0 -17 -14 -17q-6 0 -10.5 5t-4.5 12q0 19 15 19zM421 698q115 0 179 -92t64 -255v-351h-10v353q0 152 -59.5 243.5t-173.5 91.5q-84 0 -160.5 -60.5t-120.5 -149.5t-44 -176v-302h-10v531q0 65 -14 111v4q6 3 9 1q15 -40 15 -88v-173
q28 122 121.5 217t203.5 95zM836 647q6 2 10 0v-648q0 -110 -19.5 -163.5t-78.5 -54.5q-35 0 -79 17q-2 6 2 10q46 -17 77 -17q49 0 68.5 48t19.5 161v647z" />
    <glyph glyph-name="uni01CD" unicode="&#x1cd;" horiz-adv-x="885" 
d="M456 935h-4l-203 212h13l192 -200l192 200h14zM459 890q50 -110 199 -429t212 -460v-1h-10q-6 14 -22.5 49t-43.5 93.5t-50 107.5h-597l-121 -250h-11l432 890q6 2 12 0zM152 260h587q-195 422 -286 620z" />
    <glyph glyph-name="uni01CE" unicode="&#x1ce;" horiz-adv-x="663" 
d="M352 780h-4l-204 221h14l192 -210l191 210h14zM590 119q0 -56 6.5 -78.5t21.5 -36.5l-1 -4h-9q-28 26 -28 119v164q-23 -113 -123.5 -207t-227.5 -94q-89 0 -136.5 43.5t-47.5 115.5q0 113 108.5 179.5t307.5 66.5q59 0 118 -6q-5 141 -65 223.5t-164 83.5
q-113 2 -250 -97q-4 3 -2 11q136 96 252 96q110 0 175 -91t65 -260v-228zM229 -8q96 0 178.5 57t127.5 140.5t45 167.5v13q-68 7 -118 7q-203 0 -305.5 -67t-102.5 -169q0 -68 45.5 -108.5t129.5 -40.5z" />
    <glyph glyph-name="uni01CF" unicode="&#x1cf;" horiz-adv-x="190" 
d="M97 935h-4l-204 211h13l193 -200l192 200h13zM90 890q6 4 10 0v-890h-10v890z" />
    <glyph glyph-name="uni01D0" unicode="&#x1d0;" horiz-adv-x="210" 
d="M107 780h-4l-204 221h14l192 -210l191 210h14zM100 647q6 4 10 0v-647h-10v647z" />
    <glyph glyph-name="uni01D2" unicode="&#x1d2;" horiz-adv-x="718" 
d="M392 780h-4l-203 221h13l192 -210l192 210h14zM390 698q127 0 207.5 -97.5t80.5 -237.5q0 -158 -98 -269.5t-249 -111.5q-136 0 -213.5 93.5t-77.5 229.5q0 161 101 277t249 116zM331 -8q148 0 242.5 109t94.5 262q0 138 -77.5 231.5t-200.5 93.5q-146 0 -243 -114
t-97 -269q0 -130 73.5 -221.5t207.5 -91.5z" />
    <glyph glyph-name="uni01D3" unicode="&#x1d3;" horiz-adv-x="943" 
d="M474 953h-4l-204 211h14l192 -200l192 200h13zM843 890q7 2 10 0v-497q0 -83 -26.5 -157.5t-75.5 -131t-124.5 -89.5t-167.5 -33q-172 0 -270.5 102t-98.5 300v506q6 4 10 0v-507q0 -193 96 -292t263 -99q173 0 278.5 112.5t105.5 290.5v495z" />
    <glyph glyph-name="uni01D4" unicode="&#x1d4;" horiz-adv-x="725" 
d="M365 780h-4l-204 221h14l192 -210l192 210h13zM649 116q0 -53 4 -73.5t18 -37.5v-5h-8q-14 16 -19 37.5t-5 78.5v138q-24 -118 -113 -195t-212 -77q-112 0 -177 71t-65 215v379q4 2 10 0v-379q0 -142 63 -209t169 -67q141 0 233 102t92 250v303q1 1 5 1t5 -1v-531z" />
    <glyph glyph-name="uni01E2" unicode="&#x1e2;" horiz-adv-x="1440" 
d="M1169 992v-10h-416v10h416zM1394 10q2 -2 2 -5t-2 -5h-651v250h-510l-206 -250h-12l728 886v1l3 3h624q2 -7 -1 -10h-616v-447h527q2 -6 -2 -10h-525v-413h641zM241 260h502v611z" />
    <glyph glyph-name="uni01E3" unicode="&#x1e3;" horiz-adv-x="1191" 
d="M799 882v-10h-429v10h429zM893 698q121 0 193.5 -91t68.5 -248l-7 -7l-557 -67q10 -134 87.5 -213.5t187.5 -78.5q127 0 241 111q4 -1 7 -7q-118 -113 -248 -115q-113 -2 -194.5 80t-90.5 220q-27 -131 -129 -215.5t-223 -84.5q-89 0 -136.5 43.5t-47.5 115.5
q0 113 108.5 179.5t307.5 66.5q59 0 118 -6q-5 141 -65 223.5t-164 83.5q-113 2 -250 -97q-4 3 -2 11q136 96 252 96q102 0 166 -79.5t72 -217.5q24 127 108 212t197 85zM1145 362q4 155 -66.5 240.5t-185.5 85.5q-88 0 -159.5 -56t-109 -144.5t-34.5 -186.5v-6zM579 357v13
q-68 7 -117 7q-203 0 -305.5 -67t-102.5 -169q0 -68 45.5 -108.5t129.5 -40.5q95 0 176.5 52t127.5 136t46 177z" />
    <glyph glyph-name="Gcaron" unicode="&#x1e6;" horiz-adv-x="975" 
d="M504 955h-4l-203 211h13l192 -200l192 200h14zM851 618q-4 -3 -10 -1q2 126 -94.5 204.5t-244.5 78.5q-119 0 -211 -63t-140 -166t-48 -225q0 -208 117 -331t299 -123q83 0 169 25.5t153 74.5v301h-358q0 4 3 10h361l4 -5v-311q-65 -51 -155.5 -78t-176.5 -27
q-186 0 -306 125.5t-120 338.5q0 122 48 226.5t143 171t218 66.5q150 0 251.5 -81.5t97.5 -210.5z" />
    <glyph glyph-name="gcaron" unicode="&#x1e7;" horiz-adv-x="716" 
d="M359 769h-4l-204 221h14l192 -210l191 210h14zM635 650q7 0 9 -1v-3q-12 -101 -12 -134v-433q0 -167 -82.5 -263t-208.5 -96q-140 0 -274 115q0 7 5 9q135 -114 269 -114q122 0 201.5 93.5t79.5 256.5v188q-25 -123 -106.5 -204.5t-190.5 -81.5q-121 0 -203 89.5
t-82 240.5q0 96 38.5 184t113 145t167.5 57q98 0 168.5 -73.5t94.5 -183.5v109zM325 -8q121 0 207.5 104t89.5 265q-3 80 -33 153.5t-91 123.5t-139 50q-91 0 -163.5 -57t-109 -142t-36.5 -177q0 -136 74.5 -228t200.5 -92z" />
    <glyph glyph-name="uni01E8" unicode="&#x1e8;" horiz-adv-x="899" 
d="M468 935h-4l-204 211h14l192 -200l192 200h14zM430 472q176 -205 285 -320.5t166 -147.5v-2q-2 -2 -10 -2q-117 70 -448 468q-145 -83 -323 -166v-302h-10v890q2 1 5.5 1t4.5 -1v-578q313 152 445 244q273 187 263 334q6 2 10 0q6 -82 -64 -166t-205 -177
q-56 -38 -119 -75z" />
    <glyph glyph-name="uni01E9" unicode="&#x1e9;" horiz-adv-x="734" 
d="M378 1014h-4l-204 221h14l192 -210l191 210h14zM366 331q138 -153 219 -235t113 -93v-3q-2 -2 -10 -2q-54 18 -330 327q-143 -93 -276 -155v-170h-10v932q5 2 10 0v-751q197 96 349 205q108 77 147 132.5t35 128.5q4 1 10 0q6 -73 -35.5 -133t-151.5 -136
q-46 -32 -70 -47z" />
    <glyph glyph-name="uni01EB" unicode="&#x1eb;" horiz-adv-x="718" 
d="M379 -15q-65 -53 -99.5 -117t-34.5 -117q0 -39 23.5 -59.5t59.5 -19.5q27 0 56 18t47 45l8 -6q-19 -29 -50 -48t-61 -19q-41 -1 -67 22t-26 67q0 52 32.5 115t93.5 117q-10 -1 -30 -1q-136 0 -213.5 93.5t-77.5 229.5q0 161 101 277t249 116q127 0 207.5 -97.5
t80.5 -237.5q0 -145 -83 -252t-216 -126zM331 -8q23 0 44 3q130 17 211.5 122t81.5 246q0 138 -77.5 231.5t-200.5 93.5q-146 0 -243 -114t-97 -269q0 -130 73.5 -221.5t207.5 -91.5z" />
    <glyph glyph-name="uni01F0" unicode="&#x1f0;" horiz-adv-x="215" 
d="M113 780h-4l-204 221h14l192 -210l191 210h14zM105 647q6 2 10 0v-648q0 -110 -19 -163.5t-78 -54.5q-35 0 -79 17q-2 7 1 10q48 -17 78 -17q49 0 68 48t19 161v647z" />
    <glyph glyph-name="uni01F4" unicode="&#x1f4;" horiz-adv-x="848" 
d="M629 1156l-177 -204h-13l177 204h13zM803 618q-4 -3 -10 -1q2 126 -94.5 204.5t-244.5 78.5q-119 0 -211 -63t-140 -166t-48 -225q0 -208 117 -331t299 -123q83 0 169 25.5t153 74.5v301h-358q0 4 3 10h361l4 -5v-311q-65 -51 -155.5 -78t-176.5 -27q-186 0 -306 125.5
t-120 338.5q0 122 48 226.5t143 171t218 66.5q150 0 251.5 -81.5t97.5 -210.5z" />
    <glyph glyph-name="uni01F4" unicode="&#x1f5;" horiz-adv-x="848" 
d="M629 1156l-177 -204h-13l177 204h13zM803 618q-4 -3 -10 -1q2 126 -94.5 204.5t-244.5 78.5q-119 0 -211 -63t-140 -166t-48 -225q0 -208 117 -331t299 -123q83 0 169 25.5t153 74.5v301h-358q0 4 3 10h361l4 -5v-311q-65 -51 -155.5 -78t-176.5 -27q-186 0 -306 125.5
t-120 338.5q0 122 48 226.5t143 171t218 66.5q150 0 251.5 -81.5t97.5 -210.5z" />
    <glyph glyph-name="uni01F8" unicode="&#x1f8;" horiz-adv-x="944" 
d="M495 954h-13l-182 192h13zM844 890q6 4 10 0v-890h-9l-745 872v-872h-10v886q3 6 8 4l746 -874v874z" />
    <glyph glyph-name="uni01F9" unicode="&#x1f9;" horiz-adv-x="746" 
d="M494 780h-11l-158 245h12zM466 698q115 0 179 -92t64 -255v-351h-10v353q0 152 -59.5 243.5t-173.5 91.5q-84 0 -160.5 -60.5t-120.5 -149.5t-44 -176v-302h-10v531q0 65 -14 111v4q5 3 9 1q15 -40 15 -88v-173q28 122 121.5 217t203.5 95z" />
    <glyph glyph-name="Aringacute" unicode="&#x1fa;" horiz-adv-x="885" 
d="M554 1310l-101 -167h-11l100 167h12zM452 914q-57 0 -94.5 29t-37.5 73t38 74t94 30t95 -30t39 -74q0 -43 -39 -72.5t-95 -29.5zM452 1110q-53 0 -87.5 -27t-34.5 -67t34.5 -66t87.5 -26q52 0 88 27t36 65q0 39 -36 66.5t-88 27.5zM459 890q50 -110 199 -429t212 -460v-1
h-10q-6 14 -22.5 49t-43.5 93.5t-50 107.5h-597l-121 -250h-11l432 890q6 2 12 0zM152 260h587q-195 422 -286 620z" />
    <glyph glyph-name="aringacute" unicode="&#x1fb;" horiz-adv-x="663" 
d="M477 1123l-101 -167h-11l100 167h12zM375 727q-58 0 -95 29t-37 73t37.5 74t94.5 30q56 0 95 -30.5t39 -73.5t-39 -72.5t-95 -29.5zM375 923q-53 0 -87.5 -26.5t-34.5 -67.5t34 -66.5t88 -25.5q52 0 88 27t36 65q0 39 -36 66.5t-88 27.5zM590 119q0 -56 6.5 -78.5
t21.5 -36.5l-1 -4h-9q-28 26 -28 119v164q-23 -113 -123.5 -207t-227.5 -94q-89 0 -136.5 43.5t-47.5 115.5q0 113 108.5 179.5t307.5 66.5q59 0 118 -6q-5 141 -65 223.5t-164 83.5q-113 2 -250 -97q-4 3 -2 11q136 96 252 96q110 0 175 -91t65 -260v-228zM229 -8
q96 0 178.5 57t127.5 140.5t45 167.5v13q-68 7 -118 7q-203 0 -305.5 -67t-102.5 -169q0 -68 45.5 -108.5t129.5 -40.5z" />
    <glyph glyph-name="AEacute" unicode="&#x1fc;" horiz-adv-x="1440" 
d="M1136 1136l-177 -204h-13l177 204h13zM1394 10q2 -2 2 -5t-2 -5h-651v250h-510l-206 -250h-12l728 886v1l3 3h624q2 -7 -1 -10h-616v-447h527q2 -6 -2 -10h-525v-413h641zM241 260h502v611z" />
    <glyph glyph-name="aeacute" unicode="&#x1fd;" horiz-adv-x="1191" 
d="M736 1025l-159 -245h-11l158 245h12zM893 698q121 0 193.5 -91t68.5 -248l-7 -7l-557 -67q10 -134 87.5 -213.5t187.5 -78.5q127 0 241 111q4 -1 7 -7q-118 -113 -248 -115q-113 -2 -194.5 80t-90.5 220q-27 -131 -129 -215.5t-223 -84.5q-89 0 -136.5 43.5t-47.5 115.5
q0 113 108.5 179.5t307.5 66.5q59 0 118 -6q-5 141 -65 223.5t-164 83.5q-113 2 -250 -97q-4 3 -2 11q136 96 252 96q102 0 166 -79.5t72 -217.5q24 127 108 212t197 85zM1145 362q4 155 -66.5 240.5t-185.5 85.5q-88 0 -159.5 -56t-109 -144.5t-34.5 -186.5v-6zM579 357v13
q-68 7 -117 7q-203 0 -305.5 -67t-102.5 -169q0 -68 45.5 -108.5t129.5 -40.5q95 0 176.5 52t127.5 136t46 177z" />
    <glyph glyph-name="Oslashacute" unicode="&#x1fe;" horiz-adv-x="895" 
d="M640 1147l-177 -204h-13l177 204h13zM717 812q64 -63 99 -156.5t34 -197.5q-1 -124 -59 -233t-160 -176t-224 -67q-144 0 -239 95l-58 -77h-13l63 85q-113 120 -115 319q-1 138 55.5 254t158.5 184t226 68q129 0 225 -91l55 74h12zM55 404q2 -196 111 -311l538 718
q-95 89 -219 89q-184 0 -307.5 -144t-122.5 -352zM840 458q1 103 -33 193.5t-96 152.5l-537 -719q93 -93 233 -93q115 0 214.5 62.5t158.5 170t60 233.5z" />
    <glyph glyph-name="oslashacute" unicode="&#x1ff;" horiz-adv-x="718" 
d="M541 1025l-159 -245h-11l158 245h12zM608 588q70 -93 70 -225q0 -158 -98 -269.5t-249 -111.5q-121 0 -199 78l-54 -60h-13v2l60 66q-85 91 -85 237q0 161 101 277t249 116q129 0 212 -102l45 51h13v-1zM50 305q0 -141 81 -230l269 296l27 29l168 189q-80 99 -205 99
q-146 0 -243 -114t-97 -269zM331 -8q148 0 242.5 109t94.5 262q0 128 -67 217l-191 -214l-271 -299q75 -75 192 -75z" />
    <glyph glyph-name="uni0202" unicode="&#x202;" horiz-adv-x="885" 
d="M454 1147q-80 0 -134.5 -49t-54.5 -126h-10q0 84 58 134.5t141 50.5q85 0 141.5 -49.5t56.5 -135.5h-10q0 80 -53 127.5t-135 47.5zM459 890q50 -110 199 -429t212 -460v-1h-10q-6 14 -22.5 49t-43.5 93.5t-50 107.5h-597l-121 -250h-11l432 890q6 2 12 0zM152 260h587
q-195 422 -286 620z" />
    <glyph glyph-name="uni0203" unicode="&#x203;" horiz-adv-x="663" 
d="M350 955q-80 0 -134.5 -49t-54.5 -126h-10q0 84 58 134.5t141 50.5q85 0 141.5 -49.5t56.5 -135.5h-10q0 80 -53 127.5t-135 47.5zM590 119q0 -56 6.5 -78.5t21.5 -36.5l-1 -4h-9q-28 26 -28 119v164q-23 -113 -123.5 -207t-227.5 -94q-89 0 -136.5 43.5t-47.5 115.5
q0 113 108.5 179.5t307.5 66.5q59 0 118 -6q-5 141 -65 223.5t-164 83.5q-113 2 -250 -97q-4 3 -2 11q136 96 252 96q110 0 175 -91t65 -260v-228zM229 -8q96 0 178.5 57t127.5 140.5t45 167.5v13q-68 7 -118 7q-203 0 -305.5 -67t-102.5 -169q0 -68 45.5 -108.5
t129.5 -40.5z" />
    <glyph glyph-name="uni0206" unicode="&#x206;" horiz-adv-x="787" 
d="M414 1147q-80 0 -134.5 -49t-54.5 -126h-10q0 84 58 134.5t141 50.5q85 0 141.5 -49.5t56.5 -135.5h-10q0 80 -53 127.5t-135 47.5zM741 10q1 -2 1 -5t-1 -5h-651v887l2 3h624q2 -7 -1 -10h-615v-447h526q2 -5 -1 -10h-525v-413h641z" />
    <glyph glyph-name="uni0207" unicode="&#x207;" horiz-adv-x="651" 
d="M353 955q-80 0 -134.5 -49t-54.5 -126h-10q0 84 58 134.5t141 50.5q85 0 141.5 -49.5t56.5 -135.5h-10q0 80 -53 127.5t-135 47.5zM353 698q121 0 193.5 -91t68.5 -248l-7 -7l-557 -67q10 -134 87.5 -213.5t187.5 -79.5q128 2 241 112q4 -1 7 -7q-118 -113 -248 -115
q-118 -2 -200 85.5t-86 233.5q-3 104 36.5 195t113 146.5t163.5 55.5zM605 362q4 155 -66.5 240.5t-185.5 85.5q-88 0 -159.5 -56t-109 -144.5t-34.5 -186.5v-6z" />
    <glyph glyph-name="uni020A" unicode="&#x20a;" 
d="M-232 972q0 84 58 134.5t141 50.5q85 0 141.5 -49.5t56.5 -135.5h-10q0 80 -53 127.5t-135 47.5q-80 0 -134.5 -49t-54.5 -126h-10zM-38 0v890q6 4 10 0v-890h-10z" />
    <glyph glyph-name="uni020B" unicode="&#x20b;" horiz-adv-x="210" 
d="M-94 780q0 84 58 134.5t141 50.5q85 0 141.5 -49.5t56.5 -135.5h-10q0 80 -53 127.5t-135 47.5q-80 0 -134.5 -49t-54.5 -126h-10zM100 0v647q6 4 10 0v-647h-10z" />
    <glyph glyph-name="uni020E" unicode="&#x20e;" horiz-adv-x="895" 
d="M266 983q0 84 58 134.5t141 50.5q85 0 141.5 -49.5t56.5 -135.5h-10q0 79 -53 126.5t-135 47.5q-80 0 -134.5 -48.5t-54.5 -125.5h-10zM407 -18q-166 0 -263 121.5t-99 300.5q-1 138 55.5 254t158.5 184t226 68q160 0 263.5 -133.5t101.5 -318.5q-1 -124 -59 -233
t-160 -176t-224 -67zM407 -8q115 0 214.5 62.5t158.5 170t60 233.5q2 184 -100 313t-255 129q-184 0 -307.5 -144t-122.5 -352q1 -110 39.5 -202t120 -151t192.5 -59z" />
    <glyph glyph-name="uni020F" unicode="&#x20f;" horiz-adv-x="718" 
d="M191 780q0 84 58 134.5t141 50.5q85 0 141.5 -49.5t56.5 -135.5h-10q0 80 -53 127.5t-135 47.5q-80 0 -134.5 -49t-54.5 -126h-10zM331 -18q-136 0 -213.5 93.5t-77.5 229.5q0 161 101 277t249 116q127 0 207.5 -97.5t80.5 -237.5q0 -158 -98 -269.5t-249 -111.5zM331 -8
q148 0 242.5 109t94.5 262q0 138 -77.5 231.5t-200.5 93.5q-146 0 -243 -114t-97 -269q0 -130 73.5 -221.5t207.5 -91.5z" />
    <glyph glyph-name="uni0212" unicode="&#x212;" horiz-adv-x="894" 
d="M427 1157q-80 0 -134.5 -49t-54.5 -126h-10q0 84 58 134.5t141 50.5q85 0 141.5 -49.5t56.5 -135.5h-10q0 80 -53 127.5t-135 47.5zM532 316q119 -136 194.5 -211.5t121.5 -100.5v-2q-2 -2 -9 -2q-38 18 -105 81.5t-213 232.5q-51 -9 -108 -9q-81 1 -172.5 17t-140.5 33
v-355h-10v869q79 24 152.5 32.5t184.5 8.5q169 0 268 -82t99 -229q0 -109 -71 -183.5t-191 -99.5zM413 315q159 -2 265 74.5t106 209.5q0 135 -92.5 218t-264.5 83q-201 0 -327 -38v-496q154 -49 313 -51z" />
    <glyph glyph-name="uni0213" unicode="&#x213;" horiz-adv-x="536" 
d="M280 986q-81 0 -135.5 -49t-54.5 -126h-10q0 84 58 134.5t142 50.5q85 0 141 -49.5t56 -135.5h-10q0 80 -52.5 127.5t-134.5 47.5zM500 674q1 -7 -2 -10q-60 24 -112 24q-87 0 -155 -58.5t-101.5 -146.5t-33.5 -185v-298h-10v531q0 65 -14 111v4q6 3 9 1q15 -40 15 -88
v-160q23 127 102 213t188 86q54 0 114 -24z" />
    <glyph glyph-name="uni0218" unicode="&#x218;" horiz-adv-x="839" 
d="M445 -18q-109 0 -214.5 36t-185.5 103q0 5 4 9q82 -67 185.5 -102.5t210.5 -35.5q160 0 249.5 66t89.5 177q0 47 -19 82.5t-50 58.5t-79 38.5t-97.5 23.5t-113.5 12q-289 19 -289 223q0 76 49.5 132t116.5 80.5t135 24.5q162 0 255.5 -70.5t93.5 -179.5q-6 -2 -10 -2
q-1 113 -95 177.5t-244 64.5q-117 0 -204 -64.5t-87 -164.5q0 -103 77 -153.5t204 -57.5q189 -10 278 -65t89 -160q0 -110 -88.5 -181.5t-260.5 -71.5zM395 -289l45 206h10l-45 -206h-10z" />
    <glyph glyph-name="uni0219" unicode="&#x219;" horiz-adv-x="664" 
d="M350 -18q-77 0 -161 28.5t-143 82.5q0 7 5 9q56 -52 136.5 -81t162.5 -29q111 0 184.5 48t73.5 122q0 87 -62.5 130.5t-217.5 50.5q-254 14 -254 173q0 75 72.5 128.5t187.5 53.5q153 0 268 -82q0 -4 -4 -8q-114 80 -264 80q-117 0 -183.5 -52.5t-66.5 -119.5
q0 -151 245 -163q159 -8 224 -54t65 -136q0 -84 -79.5 -132.5t-188.5 -48.5zM304 -307l45 206h10l-45 -206h-10z" />
    <glyph glyph-name="uni021A" unicode="&#x21a;" horiz-adv-x="801" 
d="M779 890q1 -5 -2 -10h-389v-880h-10v880h-356q-2 5 3 10h754zM332 -279l45 206h10l-45 -206h-10z" />
    <glyph glyph-name="uni021B" unicode="&#x21b;" horiz-adv-x="474" 
d="M456 637h-348v-349q0 -140 56.5 -218.5t158.5 -77.5q51 0 115 23q2 -2 2 -10q-64 -23 -117 -23q-104 0 -164.5 79.5t-60.5 226.5v349h-88v10h88v183q3 3 10 3v-186h348v-10zM227 -302l45 206h10l-45 -206h-10z" />
    <glyph glyph-name="uni0237" unicode="&#x237;" horiz-adv-x="215" 
d="M18 -219q-35 0 -79 17q-2 7 1 10q48 -17 78 -17q49 0 68 48t19 161v647q6 2 10 0v-648q0 -110 -19 -163.5t-78 -54.5z" />
    <glyph glyph-name="circumflex" unicode="&#x2c6;" horiz-adv-x="555" 
d="M483 729h-14l-191 210l-192 -210h-14l204 221h4z" />
    <glyph glyph-name="caron" unicode="&#x2c7;" horiz-adv-x="555" 
d="M469 950h14l-203 -221h-4l-204 221h14l192 -210z" />
    <glyph glyph-name="breve" unicode="&#x2d8;" horiz-adv-x="541" 
d="M270 724q-85 0 -141.5 49.5t-56.5 135.5h10q0 -79 52.5 -127t135.5 -48q80 0 134.5 48.5t54.5 126.5h10q0 -84 -58 -134.5t-141 -50.5z" />
    <glyph glyph-name="dotaccent" unicode="&#x2d9;" horiz-adv-x="173" 
d="M86 783q-14 0 -14 17q0 19 14 19q15 0 15 -19q0 -17 -15 -17z" />
    <glyph glyph-name="ring" unicode="&#x2da;" horiz-adv-x="485" 
d="M242 724q-72 0 -121 36.5t-49 96.5q0 58 47.5 96t122.5 38q69 0 120 -38t51 -96t-53 -95.5t-118 -37.5zM242 734q65 0 113 36.5t48 86.5q0 52 -47.5 88t-113.5 36q-72 0 -116 -36t-44 -88q0 -53 43.5 -88t116.5 -35z" />
    <glyph glyph-name="ogonek" unicode="&#x2db;" horiz-adv-x="348" 
d="M165 -318q-41 -1 -67 22t-26 67q0 55 36 121.5t104 122.5l6 -8q-66 -54 -101 -118.5t-35 -117.5q0 -39 23.5 -59.5t59.5 -19.5q27 0 56 18t47 45l8 -6q-19 -29 -50 -48t-61 -19z" />
    <glyph glyph-name="tilde" unicode="&#x2dc;" horiz-adv-x="563" 
d="M410 764q-29 0 -65.5 21t-65 45.5t-64 45.5t-63.5 21q-31 0 -50.5 -35.5t-19.5 -92.5h-10q0 64 23 101t58 37q30 0 66 -21t64 -45.5t63.5 -45.5t63.5 -21q33 0 52 36.5t19 92.5l10 -1q0 -62 -22 -100t-59 -38z" />
    <glyph glyph-name="hungarumlaut" unicode="&#x2dd;" horiz-adv-x="502" 
d="M72 729l157 245h13l-159 -245h-11zM260 729l158 245h12l-159 -245h-11z" />
    <glyph glyph-name="gravecomb" unicode="&#x300;" 
d="M-83 729l-158 245h12l157 -245h-11z" />
    <glyph glyph-name="acutecomb" unicode="&#x301;" 
d="M-242 729l158 245h12l-159 -245h-11z" />
    <glyph glyph-name="uni0302" unicode="&#x302;" 
d="M-72 729h-14l-191 209l-192 -209h-14l204 221h4z" />
    <glyph glyph-name="tildecomb" unicode="&#x303;" 
d="M-153 764q-29 0 -65.5 21t-65 45.5t-64 45.5t-63.5 21q-31 0 -50.5 -35.5t-19.5 -92.5h-10q0 64 23 101t58 37q30 0 66 -21t64 -45.5t63.5 -45.5t63.5 -21q33 0 52 36.5t19 92.5l10 -1q0 -62 -22 -100t-59 -38z" />
    <glyph glyph-name="uni0304" unicode="&#x304;" 
d="M-501 821v10h429v-10h-429z" />
    <glyph glyph-name="uni0306" unicode="&#x306;" 
d="M-271 724q-85 0 -141.5 49.5t-56.5 135.5h10q0 -79 52.5 -127t135.5 -48q80 0 134.5 48.5t54.5 126.5h10q0 -84 -58 -134.5t-141 -50.5z" />
    <glyph glyph-name="uni0307" unicode="&#x307;" 
d="M-87 783q-14 0 -14 17q0 19 14 19q15 0 15 -19q0 -17 -15 -17z" />
    <glyph glyph-name="uni0308" unicode="&#x308;" 
d="M-360 783q-14 0 -14 17q0 19 14 19q15 0 15 -19q0 -17 -15 -17zM-87 783q-14 0 -14 17q0 19 14 19q15 0 15 -19q0 -17 -15 -17z" />
    <glyph glyph-name="uni030A" unicode="&#x30a;" 
d="M-243 724q-72 0 -121 36.5t-49 96.5q0 58 47.5 96t122.5 38q69 0 120 -38t51 -96t-53 -95.5t-118 -37.5zM-243 734q65 0 113 36.5t48 86.5q0 52 -47.5 88t-113.5 36q-72 0 -116 -36t-44 -88q0 -53 43.5 -88t116.5 -35z" />
    <glyph glyph-name="uni030B" unicode="&#x30b;" 
d="M-430 729l157 245h13l-159 -245h-11zM-242 729l158 245h12l-159 -245h-11z" />
    <glyph glyph-name="uni030C" unicode="&#x30c;" 
d="M-86 950h14l-203 -221h-4l-204 221h14l192 -210z" />
    <glyph glyph-name="uni0311" unicode="&#x311;" 
d="M-469 729q0 84 58 134.5t141 50.5q85 0 141.5 -49.5t56.5 -135.5h-10q0 80 -53 127.5t-135 47.5q-80 0 -134.5 -49t-54.5 -126h-10z" />
    <glyph glyph-name="uni0312" unicode="&#x312;" 
d="M-181 777l45 206h10l-45 -206h-10z" />
    <glyph glyph-name="uni0326" unicode="&#x326;" 
d="M-184 -289l45 206h10l-45 -206h-10z" />
    <glyph glyph-name="uni0327" unicode="&#x327;" 
d="M-148 -313q-44 -2 -87 49l6 8q40 -47 81 -47q29 0 47.5 23.5t18.5 59.5q-2 54 -38 98q-38 45 -46.5 66t-8.5 62h10q0 -38 7.5 -57.5t44.5 -63.5q41 -51 41 -105q0 -40 -21.5 -66.5t-54.5 -26.5z" />
    <glyph glyph-name="uni0328" unicode="&#x328;" 
d="M-183 -318q-41 -1 -67 22t-26 67q0 55 36 121.5t104 122.5l6 -8q-66 -54 -101 -118.5t-35 -117.5q0 -39 23.5 -59.5t59.5 -19.5q27 0 56 18t47 45l8 -6q-19 -29 -50 -48t-61 -19z" />
    <glyph glyph-name="uni03BC" unicode="&#x3bc;" horiz-adv-x="770" 
d="M697 116q0 -53 4 -73.5t18 -37.5v-5h-8q-14 16 -19 37.5t-5 78.5v138q-24 -117 -113 -194.5t-212 -77.5q-90 0 -150.5 46t-81.5 139v-436h-10v916q4 2 10 0v-379q0 -142 63 -209t169 -67q141 0 233 102t92 250v303q1 1 5 1t5 -1v-531z" />
    <glyph glyph-name="uni1E02" unicode="&#x1e02;" horiz-adv-x="841" 
d="M391 991q-14 0 -14 17q0 19 14 19q15 0 15 -19q0 -17 -15 -17zM552 518q244 -37 244 -240q0 -140 -100 -217.5t-268 -78.5q-120 0 -188 9t-150 34v854q123 31 302 31q76 0 135.5 -14.5t95 -37t58 -52.5t31 -57t8.5 -55q0 -62 -43.5 -110t-124.5 -66zM710 694q0 36 -15 69
t-48.5 65.5t-99 52t-155.5 19.5q-184 0 -292 -29v-401q52 24 147.5 40t183.5 16q45 0 93 -5q89 14 137.5 62.5t48.5 110.5zM428 -8q171 0 264.5 78.5t93.5 207.5q0 238 -355 238q-88 0 -179.5 -15t-151.5 -41v-427q121 -41 328 -41z" />
    <glyph glyph-name="uni1E03" unicode="&#x1e03;" horiz-adv-x="709" 
d="M360 1046q-14 0 -14 17q0 19 14 19q15 0 15 -19q0 -17 -15 -17zM402 698q119 0 193 -94.5t74 -235.5q0 -102 -39 -190.5t-110 -142t-158 -53.5q-105 0 -176.5 76t-91.5 174v-90q0 -79 -15 -142h-7v7q12 61 12 142v783q5 2 10 0v-531q29 124 117 210.5t191 86.5zM362 -8
q86 0 155.5 54.5t106 140t35.5 181.5q-1 140 -72.5 230t-184.5 90q-80 0 -152 -55.5t-114 -142.5t-42 -179q0 -80 33.5 -153t96 -119.5t138.5 -46.5z" />
    <glyph glyph-name="uni1E0A" unicode="&#x1e0a;" horiz-adv-x="877" 
d="M381 1001q-14 0 -14 17q0 19 14 19q15 0 15 -19q0 -17 -15 -17zM382 910q206 0 328 -125.5t122 -328.5q0 -213 -115.5 -343.5t-313.5 -130.5q-103 0 -162 9t-151 34v854q124 31 292 31zM403 -8q195 0 306.5 128t112.5 336q2 191 -115 317.5t-325 126.5q-178 0 -282 -29
v-838q138 -41 303 -41z" />
    <glyph glyph-name="uni1E0B" unicode="&#x1e0b;" horiz-adv-x="715" 
d="M350 1068q-14 0 -14 17q0 19 14 19q15 0 15 -19q0 -17 -15 -17zM632 149q0 -86 11 -142v-7h-7q-14 40 -14 142v128q-9 -49 -33 -97.5t-60.5 -92t-90.5 -71t-115 -27.5q-124 0 -203.5 92.5t-79.5 237.5q0 100 40.5 188t114.5 143t164 55q96 0 169 -72t94 -182v488
q2 2 10 0v-783zM323 -8q86 0 156.5 55t106.5 136t36 165q0 146 -75.5 243t-187.5 97q-129 0 -218.5 -111.5t-90.5 -264.5q-1 -138 75 -229t198 -91z" />
    <glyph glyph-name="uni1E1E" unicode="&#x1e1e;" horiz-adv-x="762" 
d="M391 981q-14 0 -14 17q0 19 14 19q15 0 15 -19q0 -17 -15 -17zM715 879h-615v-501h522v-4v-4l-1 -2h-521v-368h-10v885l3 4h624q1 -2 -2 -10z" />
    <glyph glyph-name="uni1E1F" unicode="&#x1e1f;" horiz-adv-x="334" 
d="M289 1076q-14 0 -14 17q0 19 14 19q15 0 15 -19q0 -17 -15 -17zM368 924q-169 -3 -175 -277h235v-10h-235v-12v-625h-10v625v12h-174v10h174q8 287 185 287q50 0 110 -23q0 -4 -3 -10q-53 23 -107 23z" />
    <glyph glyph-name="uni1E40" unicode="&#x1e40;" horiz-adv-x="1052" 
d="M526 981q-14 0 -14 17q0 19 14 19q15 0 15 -19q0 -17 -15 -17zM1007 0h-10l-82 872l-384 -706h-10l-385 707l-81 -873h-10l83 888q2 2 5.5 2.5t4.5 -0.5l388 -712l388 712q5 2 10 -3z" />
    <glyph glyph-name="uni1E41" unicode="&#x1e41;" horiz-adv-x="1022" 
d="M537 834q-14 0 -14 17q0 19 14 19q15 0 15 -19q0 -17 -15 -17zM780 698q81 0 125.5 -78.5t44.5 -218.5v-401h-10v403q0 130 -41 207.5t-119 77.5q-74 0 -135 -57.5t-92.5 -140t-31.5 -166.5v-324h-10v400q0 288 -156 288q-71 0 -132 -60.5t-94 -149t-33 -176.5v-302h-10
v531q0 65 -14 111v4q6 3 9 1q15 -40 15 -88v-164q24 122 95.5 212.5t163.5 90.5q159 0 166 -285q23 117 93 201t166 84z" />
    <glyph glyph-name="uni1E56" unicode="&#x1e56;" horiz-adv-x="840" 
d="M422 1001q-14 0 -14 17q0 19 14 19q15 0 15 -19q0 -17 -15 -17zM795 588q1 -130 -105 -212t-280 -82q-171 0 -310 54v-348h-10v869q136 41 333 41q168 0 270 -85t102 -237zM785 588q1 145 -97 228.5t-265 83.5q-204 0 -323 -40v-500q123 -56 310 -56q165 0 270 76.5
t105 207.5z" />
    <glyph glyph-name="uni1E57" unicode="&#x1e57;" horiz-adv-x="708" 
d="M376 834q-14 0 -14 17q0 19 14 19q15 0 15 -19q0 -17 -15 -17zM400 698q120 0 194 -93t74 -244q0 -97 -39 -183.5t-110.5 -141t-157.5 -54.5q-98 0 -171.5 70t-97.5 171v-455q-7 -2 -10 0v754q0 58 -10 120v4q2 1 9 1l11 -71v-180q26 126 115 214t193 88zM361 -8
q86 0 155.5 56t105.5 139.5t36 173.5q0 149 -73 238t-185 89q-82 0 -153.5 -55.5t-113 -144.5t-41.5 -186q0 -121 79 -215.5t190 -94.5z" />
    <glyph glyph-name="uni1E60" unicode="&#x1e60;" horiz-adv-x="839" 
d="M436 1001q-14 0 -14 17q0 19 14 19q15 0 15 -19q0 -17 -15 -17zM445 -18q-109 0 -214.5 36t-185.5 103q0 5 4 9q82 -67 185.5 -102.5t210.5 -35.5q160 0 249.5 66t89.5 177q0 47 -19 82.5t-50 58.5t-79 38.5t-97.5 23.5t-113.5 12q-289 19 -289 223q0 76 49.5 132
t116.5 80.5t135 24.5q162 0 255.5 -70.5t93.5 -179.5q-6 -2 -10 -2q-1 113 -95 177.5t-244 64.5q-117 0 -204 -64.5t-87 -164.5q0 -103 77 -153.5t204 -57.5q189 -10 278 -65t89 -160q0 -110 -88.5 -181.5t-260.5 -71.5z" />
    <glyph glyph-name="uni1E61" unicode="&#x1e61;" horiz-adv-x="664" 
d="M334 834q-14 0 -14 17q0 19 14 19q15 0 15 -19q0 -17 -15 -17zM350 -18q-77 0 -161 28.5t-143 82.5q0 7 5 9q56 -52 136.5 -81t162.5 -29q111 0 184.5 48t73.5 122q0 87 -62.5 130.5t-217.5 50.5q-254 14 -254 173q0 75 72.5 128.5t187.5 53.5q153 0 268 -82q0 -4 -4 -8
q-114 80 -264 80q-117 0 -183.5 -52.5t-66.5 -119.5q0 -151 245 -163q159 -8 224 -54t65 -136q0 -84 -79.5 -132.5t-188.5 -48.5z" />
    <glyph glyph-name="uni1E6A" unicode="&#x1e6a;" horiz-adv-x="801" 
d="M384 981q-14 0 -14 17q0 19 14 19q15 0 15 -19q0 -17 -15 -17zM779 890q1 -5 -2 -10h-389v-880h-10v880h-356q-2 5 3 10h754z" />
    <glyph glyph-name="uni1E6B" unicode="&#x1e6b;" horiz-adv-x="474" 
d="M103 969q-14 0 -14 17q0 19 14 19q15 0 15 -19q0 -17 -15 -17zM456 637h-348v-349q0 -140 56.5 -218.5t158.5 -77.5q51 0 115 23q2 -2 2 -10q-64 -23 -117 -23q-104 0 -164.5 79.5t-60.5 226.5v349h-88v10h88v183q3 3 10 3v-186h348v-10z" />
    <glyph glyph-name="Wgrave" unicode="&#x1e80;" horiz-adv-x="1230" 
d="M626 954l-183 192h13l183 -192h-13zM451 0l-7 5q-75 226 -198.5 469t-230.5 413l1 3q5 2 9 0q121 -196 239 -431.5t188 -448.5h3q67 102 143.5 243.5t99.5 227.5q-32 86 -99 244q1 5 8 5q49 -112 142.5 -352t137.5 -368h2q160 220 248 453.5t63 426.5q3 3 10 0
q25 -190 -62 -427t-251 -457l-7 -6h-6l-5 4q-127 347 -175 461q-24 -80 -110 -240t-133 -222l-5 -3h-5z" />
    <glyph glyph-name="wgrave" unicode="&#x1e81;" horiz-adv-x="849" 
d="M449 740l-158 245h12l157 -245h-11zM303 0l-6 4q-94 327 -280 628q-5 8 -7 12l1 3q5 1 8 0q185 -288 286 -637h3q45 78 93.5 187.5t72.5 190.5l-71 180q1 2 4.5 3.5t4.5 0.5q49 -121 71.5 -181t54 -160t62.5 -221h3q97 143 164 320.5t61 316.5q4 1 9 0q12 -119 -57 -309
t-169 -333l-6 -5h-9l-5 4q-55 218 -112 369q-18 -67 -69.5 -183.5t-93.5 -184.5l-5 -5h-8z" />
    <glyph glyph-name="Wacute" unicode="&#x1e82;" horiz-adv-x="1230" 
d="M601 932l177 204h13l-177 -204h-13zM451 0l-7 5q-75 226 -198.5 469t-230.5 413l1 3q5 2 9 0q121 -196 239 -431.5t188 -448.5h3q67 102 143.5 243.5t99.5 227.5q-32 86 -99 244q1 5 8 5q49 -112 142.5 -352t137.5 -368h2q160 220 248 453.5t63 426.5q3 3 10 0
q25 -190 -62 -427t-251 -457l-7 -6h-6l-5 4q-127 347 -175 461q-24 -80 -110 -240t-133 -222l-5 -3h-5z" />
    <glyph glyph-name="wacute" unicode="&#x1e83;" horiz-adv-x="849" 
d="M406 740l158 245h12l-159 -245h-11zM303 0l-6 4q-94 327 -280 628q-5 8 -7 12l1 3q5 1 8 0q185 -288 286 -637h3q45 78 93.5 187.5t72.5 190.5l-71 180q1 2 4.5 3.5t4.5 0.5q49 -121 71.5 -181t54 -160t62.5 -221h3q97 143 164 320.5t61 316.5q4 1 9 0q12 -119 -57 -309
t-169 -333l-6 -5h-9l-5 4q-55 218 -112 369q-18 -67 -69.5 -183.5t-93.5 -184.5l-5 -5h-8z" />
    <glyph glyph-name="Wdieresis" unicode="&#x1e84;" horiz-adv-x="1230" 
d="M479 983q-14 0 -14 17q0 19 14 19q15 0 15 -19q0 -17 -15 -17zM752 983q-14 0 -14 17q0 19 14 19q15 0 15 -19q0 -17 -15 -17zM451 0l-7 5q-75 226 -198.5 469t-230.5 413l1 3q5 2 9 0q121 -196 239 -431.5t188 -448.5h3q67 102 143.5 243.5t99.5 227.5q-32 86 -99 244
q1 5 8 5q49 -112 142.5 -352t137.5 -368h2q160 220 248 453.5t63 426.5q3 3 10 0q25 -190 -62 -427t-251 -457l-7 -6h-6l-5 4q-127 347 -175 461q-24 -80 -110 -240t-133 -222l-5 -3h-5z" />
    <glyph glyph-name="wdieresis" unicode="&#x1e85;" horiz-adv-x="849" 
d="M288 794q-14 0 -14 17q0 19 14 19q15 0 15 -19q0 -17 -15 -17zM561 794q-14 0 -14 17q0 19 14 19q15 0 15 -19q0 -17 -15 -17zM303 0l-6 4q-94 327 -280 628q-5 8 -7 12l1 3q5 1 8 0q185 -288 286 -637h3q45 78 93.5 187.5t72.5 190.5l-71 180q1 2 4.5 3.5t4.5 0.5
q49 -121 71.5 -181t54 -160t62.5 -221h3q97 143 164 320.5t61 316.5q4 1 9 0q12 -119 -57 -309t-169 -333l-6 -5h-9l-5 4q-55 218 -112 369q-18 -67 -69.5 -183.5t-93.5 -184.5l-5 -5h-8z" />
    <glyph glyph-name="uni1E9E" unicode="&#x1e9e;" horiz-adv-x="879" 
d="M292 503q56 -1 119.5 -9t139.5 -28.5t135 -50.5t99 -81t40 -115q0 -107 -97.5 -172t-233.5 -65q-185 0 -297 112q1 4 7 8q103 -110 290 -110q136 0 228.5 63.5t92.5 164.5q0 63 -41 112.5t-101.5 79t-137 48.5t-139.5 26t-116 7l-5 9l444 378h-399q-115 0 -167.5 -75
t-52.5 -201v-604h-10v604q0 131 55.5 208.5t174.5 77.5h418q1 -3 0 -7z" />
    <glyph glyph-name="Ygrave" unicode="&#x1ef2;" horiz-adv-x="804" 
d="M426 954h-13l-183 192h13zM789 890q11 -269 -353 -603v-287h-10v287q-54 84 -209 314t-202 286l1 3q2 1 5 1t4 -1q39 -46 188 -266t219 -327q159 144 256 297t91 296q4 1 10 0z" />
    <glyph glyph-name="ygrave" unicode="&#x1ef3;" horiz-adv-x="667" 
d="M377 782h-11l-158 245h12zM656 647q7 -110 -19.5 -241t-99 -278t-180.5 -253q-134 -129 -272 -129q-42 0 -74 16q-2 7 0 10l2 1q29 -17 72 -17q63 0 135 34t131 93q60 60 110 132q-67 41 -141.5 128.5t-132.5 184t-100.5 180t-60.5 135.5l1 3q2 1 9 1q15 -46 56.5 -129.5
t99.5 -180t133 -185.5t142 -128q95 143 140 309.5t39 313.5q8 3 10 0z" />
    <glyph glyph-name="endash" unicode="&#x2013;" horiz-adv-x="1045" 
d="M216 352v10h613v-10h-613z" />
    <glyph glyph-name="emdash" unicode="&#x2014;" horiz-adv-x="1147" 
d="M216 352v10h715v-10h-715z" />
    <glyph glyph-name="quoteleft" unicode="&#x2018;" horiz-adv-x="295" 
d="M117 659l52 285h9l-53 -285h-8z" />
    <glyph glyph-name="quoteright" unicode="&#x2019;" horiz-adv-x="297" 
d="M117 659l53 285h10l-53 -285h-10z" />
    <glyph glyph-name="quotesinglbase" unicode="&#x201a;" horiz-adv-x="297" 
d="M117 -120l53 285h10l-53 -285h-10z" />
    <glyph glyph-name="quotedblleft" unicode="&#x201c;" horiz-adv-x="411" 
d="M117 659l52 285h10l-52 -285h-10zM233 659l51 285h10l-51 -285h-10z" />
    <glyph glyph-name="quotedblright" unicode="&#x201d;" horiz-adv-x="411" 
d="M117 659l52 285h10l-52 -285h-10zM233 659l51 285h10l-51 -285h-10z" />
    <glyph glyph-name="quotedblbase" unicode="&#x201e;" horiz-adv-x="413" 
d="M117 -120l53 285h10l-53 -285h-10zM233 -120l53 285h10l-53 -285h-10z" />
    <glyph glyph-name="dagger" unicode="&#x2020;" horiz-adv-x="738" 
d="M610 811v-10h-236v-930h-10v930h-236v10h236v181h10v-181h236z" />
    <glyph glyph-name="daggerdbl" unicode="&#x2021;" horiz-adv-x="749" 
d="M614 69v-10h-240v-188h-10v188h-232v10h232v732h-236v10h236v181h10v-181h236v-10h-236v-732h240z" />
    <glyph glyph-name="bullet" unicode="&#x2022;" horiz-adv-x="643" 
d="M322 323q-29 0 -49.5 25.5t-20.5 60.5q0 34 21 60.5t49 26.5q27 0 48 -26.5t21 -60.5q0 -35 -21 -60.5t-48 -25.5z" />
    <glyph glyph-name="ellipsis" unicode="&#x2026;" horiz-adv-x="622" 
d="M131 0q-14 0 -14 17q0 19 14 19q15 0 15 -19q0 -17 -15 -17zM311 0q-14 0 -14 17q0 19 14 19q5 0 9.5 -5.5t4.5 -13.5q0 -7 -4.5 -12t-9.5 -5zM489 0q-13 0 -13 17q0 19 13 19q16 0 16 -19q0 -17 -16 -17z" />
    <glyph glyph-name="perthousand" unicode="&#x2030;" horiz-adv-x="1394" 
d="M117 0l703 890h12l-702 -890h-13zM315 494q-85 0 -141.5 50t-56.5 136q0 84 55.5 135.5t142.5 51.5q88 0 143.5 -51t55.5 -136q0 -84 -58.5 -135t-140.5 -51zM315 504q81 0 135 49.5t54 126.5q0 80 -52 128.5t-137 48.5q-84 0 -136 -49.5t-52 -127.5q0 -79 52.5 -127.5
t135.5 -48.5zM617 0q-85 0 -142 50t-57 136q0 84 55.5 135.5t143.5 51.5q87 0 143 -51.5t56 -135.5t-58.5 -135t-140.5 -51zM1078 0q-85 0 -142 50t-57 136q0 84 55.5 135.5t143.5 51.5q87 0 143 -51.5t56 -135.5t-58.5 -135t-140.5 -51zM617 11q81 0 135 48.5t54 126.5
q0 80 -52 128t-137 48q-86 0 -137.5 -48.5t-51.5 -127.5t52 -127t137 -48zM1078 11q81 0 135 48.5t54 126.5q0 80 -52 128t-137 48q-86 0 -137.5 -48.5t-51.5 -127.5t52 -127t137 -48z" />
    <glyph glyph-name="guilsinglleft" unicode="&#x2039;" horiz-adv-x="724" 
d="M129 431l478 -279l-6 -8l-484 283v9l482 280l6 -8z" />
    <glyph glyph-name="guilsinglright" unicode="&#x203a;" horiz-adv-x="724" 
d="M125 716l482 -280v-9l-484 -283l-6 8l478 279l-476 277z" />
    <glyph glyph-name="fraction" unicode="&#x2044;" horiz-adv-x="1015" 
d="M117 -130l770 1170h11l-769 -1170h-12z" />
    <glyph glyph-name="Euro" unicode="&#x20ac;" horiz-adv-x="865" 
d="M470 10q96 0 166 31t106 72l6 -7q-33 -40 -104.5 -73t-172.5 -33q-111 0 -204.5 94.5t-114.5 258.5h-71v10h69q-4 50 -4 78q0 35 3 67h-68v10h69q20 166 113.5 257.5t207.5 91.5q87 0 161 -32t116 -75l-8 -5q-45 43 -116.5 72.5t-153.5 29.5q-109 0 -199.5 -88
t-110.5 -251h372v-10h-373q-3 -32 -3 -67q0 -28 4 -78h340v-10h-338q11 -82 42.5 -148.5t74.5 -108t92 -64t99 -22.5z" />
    <glyph glyph-name="uni2116" unicode="&#x2116;" horiz-adv-x="1608" 
d="M1215 304q-116 0 -186.5 78.5t-70.5 207.5q0 135 80 227.5t196 92.5q113 0 183.5 -76t73.5 -199q4 -144 -75.5 -237.5t-200.5 -93.5zM1234 900q-111 0 -188.5 -89.5t-77.5 -220.5q0 -125 67.5 -200.5t179.5 -75.5q117 0 193.5 90.5t72.5 230.5q-3 118 -70.5 191.5
t-176.5 73.5zM871 890q6 4 10 0v-890h-9l-745 872v-872h-10v886q3 6 8 4l746 -874v874zM1002 147v10h440v-10h-440z" />
    <glyph glyph-name="trademark" unicode="&#x2122;" horiz-adv-x="879" 
d="M394 890v-10h-133v-461h-10v461h-134v10h277zM762 890v-471h-10v447l-144 -384h-5l-149 385v-448h-10v471h12l149 -386l145 386h12z" />
    <glyph glyph-name="estimated" unicode="&#x212e;" horiz-adv-x="981" 
d="M864 408h-658v-258q109 -158 285 -158q75 0 157.5 45.5t130.5 113.5q7 0 8 -6q-48 -70 -133 -116.5t-163 -46.5q-159 0 -266.5 128t-107.5 326q0 201 107 330t269 129q161 0 266.5 -135.5t104.5 -351.5zM493 885q-87 0 -163.5 -42.5t-123.5 -119.5v-305h571v297
q-102 170 -284 170z" />
    <glyph glyph-name="partialdiff" unicode="&#x2202;" horiz-adv-x="910" 
d="M428 910q75 0 137.5 -31t103.5 -82t70 -118t41.5 -138t12.5 -144q0 -206 -97.5 -310.5t-253.5 -104.5q-81 0 -145 25t-102 66t-58 88t-20 96q0 46 18 87.5t55.5 76.5t103.5 55.5t153 20.5q103 0 195.5 -26.5t140.5 -61.5q-1 71 -14.5 139.5t-41.5 132.5t-68 112.5
t-99.5 77.5t-131.5 29q-70 0 -142.5 -38t-115.5 -91q-4 5 -2 12q42 53 117 90t143 37zM442 -8q154 0 247.5 102.5t93.5 302.5q-47 36 -140.5 63t-196.5 27q-158 0 -238.5 -65.5t-80.5 -164.5q0 -107 84 -186t231 -79z" />
    <glyph glyph-name="minus" unicode="&#x2212;" horiz-adv-x="717" 
d="M117 431v10h483v-10h-483z" />
    <glyph glyph-name="radical" unicode="&#x221a;" horiz-adv-x="1056" 
d="M1056 890v-10h-174l-393 -880h-12l-360 482h12l353 -472l393 880h181z" />
    <glyph glyph-name="infinity" unicode="&#x221e;" horiz-adv-x="1076" 
d="M759 677q86 0 143 -58t57 -172q0 -113 -57 -171t-143 -58q-50 0 -87 16t-62.5 49t-40 63t-31.5 78q-16 -48 -30.5 -78.5t-39.5 -63t-62.5 -48.5t-88.5 -16q-86 0 -143 58t-57 171q0 114 56.5 172t143.5 58q30 0 55.5 -7t44 -17t35.5 -29.5t27.5 -34.5t23 -42.5t18.5 -44
t17 -48.5q15 44 24 67.5t28.5 58t40 52.5t53.5 31.5t75 13.5zM317 227q40 0 72 12.5t52.5 30t39 49t28.5 56t24 64.5q-12 35 -17 49t-18 44.5t-22.5 44.5t-26.5 35t-35 30.5t-43 17t-54 7.5q-80 0 -135 -54.5t-55 -165.5t55 -165.5t135 -54.5zM759 228q79 0 134.5 54.5
t55.5 164.5q0 111 -55 165.5t-135 54.5q-26 0 -48 -4.5t-40.5 -16t-31.5 -21t-26.5 -31t-21 -32.5t-18.5 -40.5t-14.5 -39.5t-14.5 -43q14 -40 24 -64.5t28 -55.5t38.5 -48.5t52.5 -30t72 -12.5z" />
    <glyph glyph-name="approxequal" unicode="&#x2248;" horiz-adv-x="677" 
d="M117 453q0 63 24.5 100t61.5 37q32 0 69.5 -20t67 -43.5t66.5 -43.5t68 -20q36 0 56 36t20 91h10q0 -61 -23.5 -99t-63.5 -38q-31 0 -68.5 20t-67.5 43.5t-67 43.5t-67 20q-34 0 -55 -35t-21 -92h-10zM117 316q0 63 24.5 100t61.5 37q32 0 69.5 -20t67 -43.5t66.5 -43.5
t68 -20q36 0 56 36t20 91h10q0 -61 -23.5 -99t-63.5 -38q-31 0 -68.5 20t-67.5 43.5t-67 43.5t-67 20q-34 0 -55 -35t-21 -92h-10z" />
    <glyph glyph-name="notequal" unicode="&#x2260;" horiz-adv-x="722" 
d="M601 886l-186 -368h185v-10h-190l-74 -145h264v-10h-269l-163 -322h-10l163 322h-204v10h209l73 145h-282v10h287l186 368h11z" />
    <glyph glyph-name="lessequal" unicode="&#x2264;" horiz-adv-x="723" 
d="M606 716l-477 -279l475 -277l-6 -8l-481 280v9l483 283zM156 84v10h442v-10h-442z" />
    <glyph glyph-name="greaterequal" unicode="&#x2265;" horiz-adv-x="723" 
d="M123 719l483 -283v-9l-481 -280l-6 8l475 277l-477 279zM118 80v10h442v-10h-442z" />
    <glyph glyph-name="i.loclTRK" horiz-adv-x="210" 
d="M104 834q-14 0 -14 17q0 19 14 19q15 0 15 -19q0 -17 -15 -17zM100 0v647q6 4 10 0v-647h-10z" />
    <glyph glyph-name="uni00A0.001" horiz-adv-x="359" 
 />
    <glyph glyph-name="uni030C.alt" 
d="M-102 628l16 333h10l-16 -333h-10z" />
    <glyph glyph-name="uni0308.case" 
d="M-360 983q-14 0 -14 17q0 19 14 19q15 0 15 -19q0 -17 -15 -17zM-87 983q-14 0 -14 17q0 19 14 19q15 0 15 -19q0 -17 -15 -17z" />
    <glyph glyph-name="uni0307.case" 
d="M-87 981q-14 0 -14 17q0 19 14 19q15 0 15 -19q0 -17 -15 -17z" />
    <glyph glyph-name="gravecomb.case" 
d="M-85 962l-183 192h13l183 -192h-13z" />
    <glyph glyph-name="acutecomb.case" 
d="M-210 932l177 204h13l-177 -204h-13z" />
    <glyph glyph-name="uni030B.case" 
d="M-379 959l130 167h12l-131 -167h-11zM-214 959l129 167h13l-131 -167h-11z" />
    <glyph glyph-name="uni0302.case" 
d="M-72 930h-14l-191 210l-192 -210h-14l204 221h4z" />
    <glyph glyph-name="uni030C.case" 
d="M-85 1146h13l-203 -211h-4l-204 211h13l193 -200z" />
    <glyph glyph-name="uni0306.case" 
d="M-262 764q-80 0 -134 41.5t-54 113.5h10q0 -65 49.5 -105t128.5 -40q77 0 128.5 40t51.5 105h10q0 -70 -55.5 -112.5t-134.5 -42.5z" />
    <glyph glyph-name="uni030A.case" 
d="M-243 887q-72 0 -121 36t-49 97q0 58 47.5 96t122.5 38q69 0 120 -38t51 -96t-53 -95.5t-118 -37.5zM-243 897q65 0 113 36.5t48 86.5q0 52 -47.5 88t-113.5 36q-71 0 -115.5 -36.5t-44.5 -87.5q0 -53 43.5 -88t116.5 -35z" />
    <glyph glyph-name="tildecomb.case" 
d="M-153 954q-29 0 -65.5 21t-65 45.5t-64 45.5t-63.5 21q-31 0 -50.5 -35.5t-19.5 -92.5h-10q0 64 23 101t58 37q30 0 66 -21t64 -45.5t63.5 -45.5t63.5 -21q33 0 52 36.5t19 92.5l10 -1q0 -62 -22 -100t-59 -38z" />
    <glyph glyph-name="uni0304.case" 
d="M-488 821v10h416v-10h-416z" />
    <glyph glyph-name="uni0327.case" 
d="M-148 -319q-44 -2 -87 49l6 8q40 -47 81 -47q29 0 47.5 23.5t18.5 59.5q-2 54 -38 98q-38 45 -46.5 66t-8.5 62h10q0 -38 7.5 -57.5t44.5 -63.5q41 -51 41 -105q0 -40 -21.5 -66.5t-54.5 -26.5z" />
    <glyph glyph-name="uni0328.case" 
d="M-183 -318q-41 -1 -67 22t-26 67q0 55 36 121.5t104 122.5l6 -8q-66 -54 -101 -118.5t-35 -117.5q0 -39 23.5 -59.5t59.5 -19.5q27 0 56 18t47 45l8 -6q-19 -29 -50 -48t-61 -19z" />
    </font>
</defs>
</svg>
