<?xml version="1.0" standalone="no"?>
<!DOCTYPE svg PUBLIC "-//W3C//DTD SVG 1.1//EN" "http://www.w3.org/Graphics/SVG/1.1/DTD/svg11.dtd" >
<svg xmlns="http://www.w3.org/2000/svg" xmlns:xlink="http://www.w3.org/1999/xlink" version="1.1">
<metadata>
Created by FontForge 20170731 at Mon May 11 15:12:47 2020
 By Aleksey,,,
Copyright (c) 2019 by Mans Greback. All rights reserved.
</metadata>
<defs>
<font id="Quache-BoldCondensed" horiz-adv-x="0" >
  <font-face 
    font-family="Quache Bold Condensed"
    font-weight="700"
    font-stretch="condensed"
    units-per-em="1000"
    panose-1="0 0 8 6 0 0 0 0 0 0"
    ascent="800"
    descent="-200"
    x-height="679"
    cap-height="912"
    bbox="-572 -380.027 1734 1311"
    underline-thickness="50"
    underline-position="-200"
    unicode-range="U+000D-2265"
  />
<missing-glyph horiz-adv-x="902" 
d="M0 -26v995h902v-995h-902zM65 40h772v864h-772v-864zM389 308q-14 60 1 106t47 74t66 51t59.5 51t25.5 61q0 39 -34.5 67t-103.5 28q-119 0 -220 -91l-76 73q57 58 137.5 92.5t163.5 34.5q130 0 201 -55t71 -140q0 -54 -30 -95.5t-71.5 -68t-82 -51.5t-64.5 -59t-16 -78
h-74zM429 87q-26 0 -46.5 20.5t-20.5 47.5q0 26 20.5 46t46.5 20q25 0 45 -20t20 -46q0 -27 -19.5 -47.5t-45.5 -20.5z" />
    <glyph glyph-name="f_i.liga" unicode="fi" horiz-adv-x="718" 
d="M571 791q-36 0 -63 27t-27 64q0 36 27 63.5t63 27.5q35 0 62 -28t27 -63q0 -37 -27 -64t-62 -27zM122 0v547h-125v132h127q8 139 64 208t164 70q44 0 101 -15q7 -23 0 -69t-21 -61q-26 10 -50 10q-88 -1 -96 -143h366v-679h-162v547h-207v-547h-161z" />
    <glyph glyph-name="f_l.liga" unicode="fl" horiz-adv-x="772" 
d="M646 -18q-163 0 -163 209v633q-40 12 -77 12q-58 -1 -86.5 -40.5t-33.5 -116.5h126v-132h-129v-547h-161v547h-125v132h127q8 141 72.5 209.5t200.5 68.5q119 0 248 -32v-683q0 -128 52 -128q9 0 43 10q11 -24 12.5 -59t-6.5 -61q-63 -22 -100 -22z" />
    <glyph glyph-name=".notdef" horiz-adv-x="902" 
d="M0 -26v995h902v-995h-902zM65 40h772v864h-772v-864zM389 308q-14 60 1 106t47 74t66 51t59.5 51t25.5 61q0 39 -34.5 67t-103.5 28q-119 0 -220 -91l-76 73q57 58 137.5 92.5t163.5 34.5q130 0 201 -55t71 -140q0 -54 -30 -95.5t-71.5 -68t-82 -51.5t-64.5 -59t-16 -78
h-74zM429 87q-26 0 -46.5 20.5t-20.5 47.5q0 26 20.5 46t46.5 20q25 0 45 -20t20 -46q0 -27 -19.5 -47.5t-45.5 -20.5z" />
    <glyph glyph-name=".null" 
 />
    <glyph glyph-name="nonmarkingreturn" horiz-adv-x="333" 
 />
    <glyph glyph-name="CR" unicode="&#xd;" horiz-adv-x="600" 
 />
    <glyph glyph-name="space" unicode=" " horiz-adv-x="366" 
 />
    <glyph glyph-name="exclam" unicode="!" horiz-adv-x="426" 
d="M151 297l-13 627h148l-12 -627h-123zM213 0q-32 0 -56.5 25t-24.5 57t24.5 57t56.5 25q31 0 56 -25t25 -57t-24.5 -57t-56.5 -25z" />
    <glyph glyph-name="quotedbl" unicode="&#x22;" horiz-adv-x="534" 
d="M82 645l19 315h146l-53 -315h-112zM288 645l19 315h145l-53 -315h-111z" />
    <glyph glyph-name="numbersign" unicode="#" horiz-adv-x="780" 
d="M698 547h-87l-16 -184h73v-121h-83l-12 -136h-125l12 136h-171l-12 -136h-125l12 136h-82v121h93l16 184h-79v122h89l11 122h126l-11 -122h169l11 122h125l-11 -122h77v-122zM470 363l16 184h-170l-16 -184h170z" />
    <glyph glyph-name="dollar" unicode="$" horiz-adv-x="871" 
d="M789 247q0 -91 -67 -158.5t-208 -83.5v-137h-112v133q-94 6 -182.5 46.5t-137.5 98.5l64 113q54 -58 134.5 -91.5t172.5 -32.5q86 0 129 34t43 83q0 39 -37 69t-93 47.5t-120.5 41t-120.5 49.5t-93 74t-37 113q0 93 71.5 158t206.5 75v128h111v-131q84 -10 149 -42.5
t100 -71.5l-42 -120q-45 46 -122.5 75t-157.5 29t-118 -27.5t-38 -62.5q0 -31 28 -55t72.5 -40t98 -32t107.5 -38.5t98.5 -52t72.5 -78.5t28 -113z" />
    <glyph glyph-name="percent" unicode="%" horiz-adv-x="1246" 
d="M342 490q-124 0 -192 51t-68 149q0 96 67 149.5t193 53.5q128 0 194 -53t66 -150q0 -93 -68.5 -146.5t-191.5 -53.5zM213 0l653 889h172l-654 -889h-171zM342 594q43 0 73.5 26t30.5 70q0 45 -29.5 71.5t-74.5 26.5t-74.5 -27t-29.5 -71q0 -45 29 -70.5t75 -25.5z
M896 -13q-122 0 -190 52t-68 150q0 95 66.5 148t191.5 53q129 0 195 -52t66 -149q0 -94 -69 -148t-192 -54zM896 92q45 0 76 26t31 71t-30 70.5t-77 25.5q-44 0 -73.5 -26.5t-29.5 -69.5q0 -45 29.5 -71t73.5 -26z" />
    <glyph glyph-name="ampersand" unicode="&#x26;" horiz-adv-x="989" 
d="M906 111l-89 -111l-97 79q-117 -97 -303 -97q-162 0 -248.5 61t-86.5 173q0 146 176 251q-120 127 -120 231q0 94 76 161t226 67q74 0 132.5 -19.5t93 -51t52.5 -68.5t18 -76q0 -50 -18.5 -91.5t-55 -74.5t-74.5 -56t-92 -49l43 -34l145 -116q31 70 28 144h137
q16 -133 -41 -244zM434 792q-67 0 -101 -29t-34 -70q0 -65 91 -158q89 45 135 84t46 84q0 35 -36 62t-101 27zM425 120q99 0 173 58l-173 140q-41 34 -67 56q-55 -30 -84 -63t-28 -76q0 -53 48 -84t131 -31z" />
    <glyph glyph-name="quotesingle" unicode="'" horiz-adv-x="329" 
d="M82 645l20 315h145l-53 -315h-112z" />
    <glyph glyph-name="parenleft" unicode="(" horiz-adv-x="670" 
d="M533 -261q-113 52 -191 149t-114 214t-36 249q0 89 20.5 178t63 177.5t117.5 167t174 131.5l35 -81l-7 -24q-93 -63 -155 -162t-86.5 -195t-24.5 -192q0 -171 58 -303t174 -201l5 -25z" />
    <glyph glyph-name="parenright" unicode=")" horiz-adv-x="694" 
d="M39 -261l-33 83l5 25q116 69 174 201t58 303q0 96 -24.5 192t-86.5 195t-155 162l-7 24l35 81q100 -53 175 -131.5t117 -167t62.5 -177.5t20.5 -178q0 -132 -36 -249t-114 -214t-191 -149z" />
    <glyph glyph-name="asterisk" unicode="*" horiz-adv-x="590" 
d="M507 736l-138 -42l106 -119l-105 -82l-75 142l-75 -142l-106 82l106 118l-138 43l42 119l119 -65l-18 154h136l-17 -155l120 66z" />
    <glyph glyph-name="plus" unicode="+" horiz-adv-x="707" 
d="M625 510v-135h-202v-254h-139v254h-202v135h202v254h139v-254h202z" />
    <glyph glyph-name="comma" unicode="," horiz-adv-x="341" 
d="M45 -185l42 355h135l-53 -355h-124z" />
    <glyph glyph-name="hyphen" unicode="-" horiz-adv-x="921" 
d="M194 303v126h533v-126h-533z" />
    <glyph glyph-name="period" unicode="." horiz-adv-x="444" 
d="M222 0q-36 0 -63 27t-27 64q0 36 27 63.5t63 27.5q35 0 62.5 -27.5t27.5 -63.5q0 -37 -27 -64t-63 -27z" />
    <glyph glyph-name="slash" unicode="/" horiz-adv-x="869" 
d="M-20 -132l753 1139h156l-753 -1139h-156z" />
    <glyph glyph-name="zero" unicode="0" horiz-adv-x="799" 
d="M399 -18q-157 0 -251 130.5t-94 339.5q0 221 94.5 347.5t250.5 126.5q157 0 251.5 -125.5t94.5 -348.5q0 -203 -95.5 -336.5t-250.5 -133.5zM399 117q83 0 132.5 95t49.5 240q0 156 -48.5 247.5t-133.5 91.5q-83 0 -131.5 -93t-48.5 -246q0 -149 49 -242t131 -93z" />
    <glyph glyph-name="one" unicode="1" horiz-adv-x="559" 
d="M509 113q6 -56 0 -113h-457q-8 54 0 113l150 22v608l-133 -37q-11 47 -7 115l209 69h95v-756z" />
    <glyph glyph-name="two" unicode="2" horiz-adv-x="764" 
d="M65 0v128q30 68 89.5 128t120.5 102.5t118 85t93.5 94t36.5 110.5q0 64 -41 103.5t-121 39.5q-73 0 -135 -30t-92 -71q-42 36 -69 99q43 59 129 98t192 39q145 0 226.5 -76.5t81.5 -197.5q0 -68 -30.5 -127.5t-82.5 -107.5t-106.5 -90t-116.5 -94.5t-99 -100.5h444
q15 -66 0 -132h-638z" />
    <glyph glyph-name="three" unicode="3" horiz-adv-x="767" 
d="M538 484q174 -81 174 -230q0 -119 -88 -195.5t-253 -76.5q-93 0 -186 35.5t-131 84.5q6 55 62 120q33 -41 98.5 -73t141.5 -32q87 0 139 38t52 99q0 72 -81.5 115t-210.5 43q-18 76 0 141q131 -1 200.5 33.5t69.5 95.5q0 46 -43 76.5t-122 30.5q-77 0 -149.5 -27
t-96.5 -52q-35 39 -48 110q34 40 119.5 71.5t189.5 31.5q147 0 230 -65t83 -167q0 -134 -150 -207z" />
    <glyph glyph-name="four" unicode="4" horiz-adv-x="770" 
d="M709 323q13 -60 0 -132h-64v-191h-164v191h-427v128l458 571h133v-567h64zM232 323h258l8 355z" />
    <glyph glyph-name="five" unicode="5" horiz-adv-x="769" 
d="M402 620q149 0 231 -88.5t82 -230.5q0 -132 -90.5 -225.5t-243.5 -93.5q-110 0 -194 39.5t-133 96.5q6 71 56 124q106 -123 246 -123q88 0 138.5 53.5t50.5 129.5q0 85 -59.5 138t-169.5 53q-100 0 -217 -37l37 434h534q9 -74 -10 -132h-371l-15 -152q64 14 128 14z" />
    <glyph glyph-name="six" unicode="6" horiz-adv-x="809" 
d="M448 555q138 0 222 -75t84 -193q0 -130 -95.5 -217.5t-264.5 -87.5q-154 0 -247 95t-93 256q0 380 469 589q31 -23 52 -56t24 -63q-117 -62 -198 -126.5t-127 -153.5q83 32 174 32zM397 117q84 0 135.5 49t51.5 117q0 61 -45.5 100t-136.5 39q-97 0 -171 -34
q-6 -38 -6 -79q0 -82 43.5 -137t128.5 -55z" />
    <glyph glyph-name="seven" unicode="7" horiz-adv-x="692" 
d="M26 890h625v-151q-126 -77 -201 -283.5t-79 -455.5h-174q5 249 80 442.5t215 315.5h-466q-19 54 0 132z" />
    <glyph glyph-name="eight" unicode="8" horiz-adv-x="803" 
d="M587 496q162 -85 162 -232q0 -124 -85 -203t-264 -79q-175 0 -260.5 79t-85.5 203q0 152 159 232q-138 70 -138 191q0 98 82.5 168.5t242.5 70.5q83 0 147.5 -20t102.5 -53.5t57.5 -74.5t19.5 -87q0 -62 -39 -112t-101 -83zM400 792q-85 0 -125.5 -36t-40.5 -83
q0 -85 168 -121q165 36 165 125q0 47 -40 81t-127 34zM400 117q88 0 134 45t46 108q0 133 -180 174q-84 -19 -130 -64t-46 -110q0 -62 44.5 -107.5t131.5 -45.5z" />
    <glyph glyph-name="nine" unicode="9" horiz-adv-x="792" 
d="M395 926q156 0 249 -93.5t93 -252.5q0 -386 -469 -595q-32 23 -52.5 55.5t-24.5 63.5q130 65 222.5 140t144.5 174q-105 -60 -221 -60q-129 0 -207 75t-78 194q0 127 92 213t251 86zM216 632q0 -60 42.5 -101t135.5 -41q110 0 188 38q1 20 1 62q0 82 -48 141.5t-141 59.5
q-84 0 -131 -47.5t-47 -111.5z" />
    <glyph glyph-name="colon" unicode=":" horiz-adv-x="444" 
d="M222 520q-36 0 -63 27t-27 64q0 36 27 63.5t63 27.5q35 0 62.5 -27.5t27.5 -63.5q0 -37 -27 -64t-63 -27zM222 0q-36 0 -63 27t-27 64q0 36 27 63.5t63 27.5q35 0 62.5 -27.5t27.5 -63.5q0 -37 -27 -64t-63 -27z" />
    <glyph glyph-name="semicolon" unicode=";" horiz-adv-x="359" 
d="M147 520q-35 0 -62.5 27t-27.5 64q0 36 27.5 63.5t62.5 27.5q36 0 63 -27.5t27 -63.5q0 -37 -27 -64t-63 -27zM45 -185l42 355h135l-53 -355h-124z" />
    <glyph glyph-name="less" unicode="&#x3c;" horiz-adv-x="683" 
d="M601 665l-337 -227l337 -232l-54 -113l-465 296v98l469 294z" />
    <glyph glyph-name="equal" unicode="=" horiz-adv-x="706" 
d="M82 499v135h542v-135h-542zM82 249v135h542v-135h-542z" />
    <glyph glyph-name="greater" unicode="&#x3e;" horiz-adv-x="683" 
d="M132 781l469 -294v-98l-464 -296l-54 113l337 232l-337 227z" />
    <glyph glyph-name="question" unicode="?" horiz-adv-x="832" 
d="M339 274q-17 72 1 126.5t56 87.5t78.5 60.5t71 60.5t30.5 72q0 47 -41 80t-123 33q-142 0 -261 -109l-93 90q69 69 165 110t195 41q156 0 241.5 -66t85.5 -168q0 -64 -36 -113.5t-85.5 -81t-97.5 -61t-77 -70t-19 -92.5h-91zM388 0q-32 0 -57 25t-25 57t25 57t57 25
q31 0 55 -25t24 -57t-24 -57t-55 -25z" />
    <glyph glyph-name="at" unicode="@" horiz-adv-x="1182" 
d="M587 -232q-223 0 -364 143t-141 387q0 243 144 393t376 150q224 0 361 -134t137 -350q0 -135 -60.5 -218t-168.5 -83q-104 0 -135 77q-21 -32 -59.5 -54.5t-90.5 -22.5q-110 0 -165 72t-55 180t55 179t165 71q76 0 130 -45l2 30h96v-252q0 -100 61 -100q43 0 63 47
t20 119q0 173 -89 267.5t-267 94.5q-177 0 -278 -118t-101 -303q0 -179 99 -292t263 -113q114 0 201 68l75 -99q-118 -94 -274 -94zM613 177q30 0 56 16.5t39 42.5v159q-37 43 -95 43q-52 0 -79 -38t-27 -92q0 -58 26.5 -94.5t79.5 -36.5z" />
    <glyph glyph-name="A" unicode="A" horiz-adv-x="898" 
d="M516 902q28 -66 109 -272t151.5 -374t109.5 -232l-10 -24q-124 -5 -173 18q-18 26 -74 179h-377l-66 -197h-174l351 902q29 11 78 10.5t75 -10.5zM297 329h286q-28 79 -83 240t-62 180z" />
    <glyph glyph-name="B" unicode="B" horiz-adv-x="804" 
d="M774 308q1 -152 -97.5 -239t-274.5 -88q-122 0 -191.5 9.5t-151.5 35.5v860q133 40 305 40q98 0 168.5 -20.5t107.5 -55.5t53.5 -73.5t16.5 -82.5q0 -90 -100 -147q164 -65 164 -239zM371 800q-73 0 -148 -14v-226q90 18 199 18q23 0 34 -1q96 22 96 100q0 49 -42.5 86
t-138.5 37zM391 114q114 0 173 49t59 133q0 150 -218 150q-90 0 -182 -22v-295q78 -15 168 -15z" />
    <glyph glyph-name="C" unicode="C" horiz-adv-x="835" 
d="M464 -24q-186 0 -310 129.5t-124 348.5q0 197 123.5 334.5t311.5 137.5q159 0 248.5 -93.5t78.5 -247.5q-108 -24 -166 -10q9 91 -36.5 152t-123.5 61q-113 -1 -189.5 -101.5t-76.5 -242.5q0 -146 72 -237t192 -92q132 0 239 84q33 -13 53 -47t23 -64
q-67 -55 -153.5 -83.5t-161.5 -28.5z" />
    <glyph glyph-name="D" unicode="D" horiz-adv-x="841" 
d="M352 926q218 0 338.5 -126.5t120.5 -335.5q0 -222 -116.5 -352.5t-325.5 -130.5q-97 0 -163.5 9.5t-146.5 35.5v860q134 40 293 40zM641 460q1 150 -75.5 242t-215.5 92q-64 0 -127 -10v-656q64 -14 147 -14q132 0 201 93.5t70 252.5z" />
    <glyph glyph-name="E" unicode="E" horiz-adv-x="751" 
d="M707 132q15 -17 15 -62t-15 -70h-648v886l17 16h612q8 -29 -1.5 -71t-24.5 -61h-439v-263h399q7 -31 -2.5 -74.5t-24.5 -57.5h-372v-243h484z" />
    <glyph glyph-name="F" unicode="F" horiz-adv-x="728" 
d="M669 770h-446v-309h410q9 -31 -1 -74.5t-25 -57.5h-384v-329h-164v886l16 16h619q9 -30 0 -72t-25 -60z" />
    <glyph glyph-name="G" unicode="G" horiz-adv-x="840" 
d="M450 788q-116 0 -183 -97t-67 -244q0 -146 70.5 -236.5t192.5 -90.5q97 0 177 35v181h-237q-7 31 2.5 74.5t23.5 57.5h350l19 -21v-359q-58 -51 -152 -78.5t-183 -27.5q-188 0 -310.5 127.5t-122.5 344.5q0 125 48.5 231.5t145.5 173.5t223 67q154 0 255 -90.5t96 -225.5
q-33 -8 -79 -12.5t-79 1.5q-7 89 -60 139t-130 50z" />
    <glyph glyph-name="H" unicode="H" horiz-adv-x="811" 
d="M588 902q31 11 85 9t79 -9v-902h-164v345h-365v-345h-164v902q30 11 85.5 9t78.5 -9v-424h365v424z" />
    <glyph glyph-name="I" unicode="I" horiz-adv-x="271" 
d="M59 0v903q29 11 79.5 9t72.5 -9v-903h-152z" />
    <glyph glyph-name="J" unicode="J" horiz-adv-x="796" 
d="M379 -18q-98 0 -188.5 48.5t-160.5 134.5q11 39 36.5 71t52.5 41q48 -73 112.5 -115t130.5 -42q104 0 157.5 75t53.5 199v508q35 9 89 8t75 -8v-531q0 -104 -40 -191t-123 -142.5t-195 -55.5z" />
    <glyph glyph-name="K" unicode="K" horiz-adv-x="895" 
d="M507 457q168 -215 234 -287q68 -74 135 -131l-1 -24q-22 -8 -72 -17t-93 -9q-82 57 -330 386q-91 -53 -157 -84v-291h-164v902q30 11 86 9t78 -9v-458q136 69 227 136q217 160 206 313q47 32 153 12q17 -90 -45.5 -199t-190.5 -203q-22 -16 -66 -46z" />
    <glyph glyph-name="L" unicode="L" horiz-adv-x="745" 
d="M89 0l-30 31v871q31 11 84.5 9.5t79.5 -9.5v-770h477q15 -18 15.5 -62t-15.5 -70h-611z" />
    <glyph glyph-name="M" unicode="M" horiz-adv-x="1037" 
d="M1007 0h-165l-51 582l-224 -450h-101l-224 450l-48 -582h-164l80 876q18 18 68.5 25.5t70.5 0.5l268 -570l269 570q21 7 70 -0.5t67 -25.5z" />
    <glyph glyph-name="N" unicode="N" horiz-adv-x="893" 
d="M670 902q28 11 84.5 9t79.5 -9v-902h-115l-496 612v-612h-164v873q15 18 55.5 30t59.5 5l496 -624v618z" />
    <glyph glyph-name="O" unicode="O" horiz-adv-x="876" 
d="M403 -18q-111 0 -197 58.5t-131 155.5t-45 214q0 140 55 257.5t157.5 188t231.5 70.5q160 0 265.5 -131t106.5 -315q0 -97 -32.5 -187t-89.5 -159t-141 -110.5t-180 -41.5zM409 120q76 0 137.5 54t95 138t34.5 179q1 129 -57.5 212.5t-157.5 83.5q-116 0 -189 -110.5
t-72 -269.5q0 -122 54 -204.5t155 -82.5z" />
    <glyph glyph-name="P" unicode="P" horiz-adv-x="803" 
d="M397 926q182 0 279 -98t97 -261q0 -146 -101.5 -241t-282.5 -95q-86 0 -166 17v-248h-164v882q148 44 338 44zM603 571q2 105 -54 164t-163 59q-91 0 -163 -16v-394q69 -21 157 -21q103 0 163 55.5t60 152.5z" />
    <glyph glyph-name="Q" unicode="Q" horiz-adv-x="876" 
d="M609 -52q80 0 193 51q18 -22 25 -59.5t-2 -74.5q-97 -25 -174 -26q-220 -3 -302 147q-144 21 -231.5 140.5t-87.5 283.5q0 140 55 257.5t157.5 188t231.5 70.5q160 0 265.5 -131t106.5 -315q1 -174 -97 -313.5t-255 -174.5q40 -44 115 -44zM200 407q0 -122 54 -204.5
t155 -82.5q76 0 137.5 54t95 138t34.5 179q1 129 -57.5 212.5t-157.5 83.5q-116 0 -189 -110.5t-72 -269.5z" />
    <glyph glyph-name="R" unicode="R" horiz-adv-x="882" 
d="M570 314q149 -184 264 -280l-2 -26q-20 -7 -72 -14t-97 -6q-49 28 -267 294h-10q-78 0 -163 20v-302h-164v882q164 44 342 44q177 0 275.5 -84.5t98.5 -234.5q1 -103 -54 -179.5t-151 -113.5zM223 781v-346q81 -21 164 -21q98 -1 158 51t60 143q0 82 -56.5 134t-164.5 52
q-86 0 -161 -13z" />
    <glyph glyph-name="S" unicode="S" horiz-adv-x="821" 
d="M436 -18q-113 0 -219.5 37t-186.5 104q4 29 29.5 71.5t56.5 49.5q68 -60 153 -95t170 -35q86 0 134 42.5t48 105.5q0 65 -50.5 98.5t-155.5 40.5q-150 7 -235 72t-84 186q1 81 47.5 142.5t120.5 93t163 31.5q168 0 261 -83t93 -199q-31 -9 -76.5 -13.5t-77.5 2.5
q-5 73 -56.5 117t-145.5 44q-68 0 -114 -38.5t-46 -93.5q0 -62 48.5 -93.5t125.5 -36.5q352 -20 352 -261q0 -131 -98.5 -210t-256.5 -79z" />
    <glyph glyph-name="T" unicode="T" horiz-adv-x="823" 
d="M802 902q7 -30 -2 -72.5t-25 -59.5h-279v-770h-171v770h-303q-7 28 -2 68t18 64h764z" />
    <glyph glyph-name="U" unicode="U" horiz-adv-x="891" 
d="M438 -24q-187 0 -283 108t-96 313v505q28 10 86 8.5t78 -8.5v-512q0 -130 55.5 -202.5t159.5 -72.5q109 0 169.5 79t60.5 208v500q29 10 85 8.5t79 -8.5v-502q0 -189 -102.5 -306.5t-291.5 -117.5z" />
    <glyph glyph-name="V" unicode="V" horiz-adv-x="857" 
d="M366 0l-44 28q-85 261 -184.5 533t-125.5 316l7 25q84 17 156 0q48 -92 125 -299t153 -466h5q121 192 179 402.5t27 351.5q24 14 68 17t88 -6q47 -154 -19 -395t-233 -477l-52 -30h-150z" />
    <glyph glyph-name="W" unicode="W" horiz-adv-x="1232" 
d="M346 0l-40 21q-80 271 -163 513t-131 342l9 26q31 8 75 8t79 -8q58 -117 129 -336.5t125 -428.5h3q39 79 91 211t67 202q-9 45 -50 169q14 23 63 44t91 17q32 -75 93.5 -288t90.5 -355h6q104 166 143.5 384t10.5 370q52 31 152 11q20 -69 21.5 -170.5t-17.5 -219
t-69 -246.5t-126 -236l-50 -30h-165l-30 17q-34 132 -86 306q-16 -62 -55.5 -159.5t-65.5 -143.5l-38 -20h-163z" />
    <glyph glyph-name="X" unicode="X" horiz-adv-x="870" 
d="M557 426q21 -28 86 -117t123.5 -168t91.5 -122l-6 -19h-175q-25 24 -74.5 91.5t-107 149t-79.5 109.5q-103 -83 -166.5 -167t-73.5 -183h-164q6 78 33 146t74 125.5t94 100.5t116 96q-32 43 -145.5 200.5t-150.5 207.5l8 26q33 9 88 9.5t86 -9.5q52 -60 255 -359
q111 102 158 182t41 165q48 32 156 12q11 -44 4.5 -96t-30.5 -106t-84.5 -124t-157.5 -150z" />
    <glyph glyph-name="Y" unicode="Y" horiz-adv-x="828" 
d="M807 902q35 -290 -277 -592v-310h-164v325q-55 97 -174.5 286.5t-176.5 263.5l11 27q37 7 85.5 8t85.5 -8q40 -42 136.5 -202t137.5 -245q86 89 133.5 219.5t40.5 215.5q55 34 162 12z" />
    <glyph glyph-name="Z" unicode="Z" horiz-adv-x="803" 
d="M758 132q15 -17 15 -62t-15 -70h-698q-14 13 -23.5 50t-5.5 63q104 185 238.5 370.5t255.5 286.5h-469q-14 17 -15 61.5t15 70.5h673q14 -11 24 -55.5t7 -73.5q-130 -96 -280.5 -288.5t-238.5 -352.5h517z" />
    <glyph glyph-name="bracketleft" unicode="[" horiz-adv-x="499" 
d="M82 -251v1258h334v-123h-210v-1014h210v-121h-334z" />
    <glyph glyph-name="backslash" unicode="\" horiz-adv-x="869" 
d="M889 -132h-156l-753 1139h156z" />
    <glyph glyph-name="bracketright" unicode="]" horiz-adv-x="499" 
d="M416 -251h-334v121h210v1014h-210v123h334v-1258z" />
    <glyph glyph-name="asciicircum" unicode="^" horiz-adv-x="891" 
d="M760 513h-168l-148 205l-149 -205h-164l285 377h64z" />
    <glyph glyph-name="underscore" unicode="_" horiz-adv-x="627" 
d="M82 -116v116h463v-116h-463z" />
    <glyph glyph-name="grave" unicode="`" horiz-adv-x="414" 
d="M257 765l-205 249h155l154 -249h-104z" />
    <glyph glyph-name="a" unicode="a" horiz-adv-x="693" 
d="M635 238q0 -74 4.5 -119.5t9.5 -63t15 -38.5l-2 -17h-137q-33 26 -38 105q-103 -123 -249 -123q-86 0 -141.5 49.5t-54.5 126.5q1 108 102 184t263 85q31 1 60 0q-8 71 -40 110.5t-85 39.5q-82 0 -204 -78q-46 18 -57 107q149 104 280 104q125 1 198.5 -86t74.5 -248z
M471 314l2 12q-19 2 -59 2q-106 -3 -162 -45t-56 -95q0 -37 22.5 -59.5t62.5 -22.5q74 0 128.5 66t61.5 142z" />
    <glyph glyph-name="b" unicode="b" horiz-adv-x="737" 
d="M425 710q133 0 208.5 -92.5t75.5 -242.5q0 -166 -85.5 -279.5t-218.5 -113.5q-115 0 -190 93q-10 -48 -25 -75h-138v20q13 66 13 159v755q27 9 82.5 9t79.5 -9v-347q32 54 85 88.5t113 34.5zM372 119q76 0 124 75t48 186q-1 85 -38 140.5t-97 55.5q-77 0 -129.5 -92
t-52.5 -203q0 -59 43 -110.5t102 -51.5z" />
    <glyph glyph-name="c" unicode="c" horiz-adv-x="674" 
d="M347 -18q-134 -2 -226.5 94t-92.5 258q0 157 99.5 266.5t244.5 109.5q131 0 207.5 -91.5t64.5 -232.5q-105 -25 -155 -11q5 91 -30 146t-96 55q-73 0 -122 -70.5t-49 -174.5q0 -92 47 -152.5t119 -61.5q87 0 186 89q29 -10 49.5 -36.5t26.5 -44t6 -22.5
q-131 -119 -279 -121z" />
    <glyph glyph-name="d" unicode="d" horiz-adv-x="740" 
d="M674 179q0 -93 13 -159v-20h-137q-17 30 -28 87q-83 -105 -210 -105q-124 0 -204 98t-80 238q0 169 87.5 280.5t233.5 111.5q49 0 92.5 -24t71.5 -65v313q23 9 79 9t82 -9v-755zM349 119q71 0 117.5 85.5t46.5 214.5q0 67 -41.5 112t-97.5 45q-76 0 -128 -68t-52 -171
q-1 -96 42.5 -157t112.5 -61z" />
    <glyph glyph-name="e" unicode="e" horiz-adv-x="685" 
d="M367 710q141 0 223 -93.5t65 -250.5l-21 -29l-449 -89q19 -64 67 -98t110 -33q99 3 193 88q11 -5 20.5 -12.5t16 -16.5t12.5 -18.5t9.5 -18.5t6 -16t4.5 -11l1 -5q-129 -125 -279 -125q-132 -1 -224 91t-94 246q-2 164 93.5 277.5t245.5 113.5zM503 418q5 73 -33 119.5
t-103 46.5q-77 0 -131 -65.5t-62 -161.5z" />
    <glyph glyph-name="f" unicode="f" horiz-adv-x="410" 
d="M382 822q-88 -3 -97 -143h168v-132h-170v-547h-161v547h-125v132h126q8 138 64 207.5t165 70.5q63 0 139 -21q6 -23 -3.5 -68.5t-23.5 -61.5q-43 16 -82 16z" />
    <glyph glyph-name="g" unicode="g" horiz-adv-x="743" 
d="M549 692q61 6 141 -12v-21q-13 -97 -13 -168v-405q0 -175 -89.5 -275.5t-226.5 -102.5q-154 -2 -304 113q13 88 63 118q131 -99 231 -97q77 2 127 65t50 174v18q-76 -117 -193 -117q-134 0 -220.5 91t-86.5 245q0 169 89 280.5t232 111.5q55 0 103 -30t80 -78v1zM351 119
q69 0 115 82t47 227q-2 55 -43 101.5t-96 46.5q-84 0 -132 -72.5t-48 -169.5q0 -93 42 -154t115 -61z" />
    <glyph glyph-name="h" unicode="h" horiz-adv-x="723" 
d="M433 710q122 0 186.5 -89t64.5 -253v-368h-162v348q0 105 -30.5 162t-92.5 57q-73 0 -129 -83t-56 -192v-292h-162v934q28 9 82.5 9t79.5 -9v-321q89 97 219 97z" />
    <glyph glyph-name="i" unicode="i" horiz-adv-x="294" 
d="M146 791q-36 0 -63 27.5t-27 63.5q0 35 27.5 63t62.5 28q36 0 63 -27.5t27 -63.5q0 -37 -27 -64t-63 -27zM66 0v679q26 8 83 8t79 -8v-679h-162z" />
    <glyph glyph-name="j" unicode="j" horiz-adv-x="307" 
d="M157 791q-35 0 -62.5 27.5t-27.5 63.5q0 35 27.5 63t62.5 28q36 0 63 -27.5t27 -63.5q0 -37 -27 -64t-63 -27zM58 -251q-42 0 -92 18q-9 29 1.5 73.5t28.5 65.5q27 -10 40 -10q25 0 34 35.5t9 124.5v623q26 8 82.5 8t78.5 -8v-694q0 -107 -49 -172t-133 -64z" />
    <glyph glyph-name="k" unicode="k" horiz-adv-x="783" 
d="M483 341q78 -93 102.5 -122.5t67 -77.5t63.5 -67t41 -31v-26q-23 -9 -78 -16.5t-104 -6.5q-41 21 -223 254q-64 -41 -138 -76v-172h-162v934q33 11 83.5 11t78.5 -11v-605q65 39 133 89q90 68 135 125.5t42 123.5q64 29 172 12q36 -162 -207 -333z" />
    <glyph glyph-name="l" unicode="l" horiz-adv-x="358" 
d="M232 -18q-162 0 -162 209v743q27 9 78.5 9.5t83.5 -9.5v-692q0 -128 52 -128q9 0 43 10q10 -25 12 -59t-6 -61q-63 -22 -101 -22z" />
    <glyph glyph-name="m" unicode="m" horiz-adv-x="1032" 
d="M780 710q200 0 200 -323v-387h-162v368q0 208 -81 208q-58 0 -97 -75.5t-39 -187.5v-313h-156v368q0 208 -82 208q-57 0 -96.5 -78.5t-39.5 -193.5v-304h-161v505q0 84 -14 151v23q87 18 150 11q12 -38 12 -84q37 47 85 75.5t99 28.5q122 0 172 -120q39 56 94 88t116 32z
" />
    <glyph glyph-name="n" unicode="n" horiz-adv-x="748" 
d="M446 710q250 0 250 -342v-368h-162v348q0 228 -123 228q-71 0 -127.5 -84.5t-56.5 -187.5v-304h-161v505q0 84 -14 151v23q87 18 151 11q12 -44 12 -84v-10q42 52 102.5 83t128.5 31z" />
    <glyph glyph-name="o" unicode="o" horiz-adv-x="732" 
d="M340 -18q-145 0 -228.5 96.5t-83.5 243.5q0 160 106 274t260 114q143 0 225.5 -93t84.5 -241q4 -172 -99.5 -283t-264.5 -111zM349 117q81 0 135.5 73.5t54.5 169.5q0 91 -42.5 153.5t-112.5 62.5q-81 0 -136 -75.5t-55 -179.5q0 -87 40.5 -145.5t115.5 -58.5z" />
    <glyph glyph-name="p" unicode="p" horiz-adv-x="739" 
d="M436 710q125 0 200.5 -93t75.5 -237q0 -171 -86.5 -284.5t-219.5 -113.5q-106 0 -178 91v-325q-21 -8 -78 -8t-83 8v746q0 83 -15 163v22q78 22 143 11l26 -93q93 113 215 113zM374 119q76 0 124 76t48 181q0 91 -38 145.5t-96 54.5q-74 0 -129.5 -85t-55.5 -214
q0 -56 44 -107t103 -51z" />
    <glyph glyph-name="q" unicode="q" horiz-adv-x="749" 
d="M548 690q67 11 148 -11v-24q-18 -82 -18 -148v-759q-26 -8 -82.5 -8t-78.5 8v342q-86 -108 -197 -108q-130 0 -211 97t-81 238q0 177 91.5 285t220.5 108q56 0 104.5 -27.5t82.5 -72.5v5zM352 119q68 0 114.5 88.5t46.5 209.5q0 63 -40 111t-97 48q-80 0 -132 -70
t-50 -180q0 -91 44 -149t114 -58z" />
    <glyph glyph-name="r" unicode="r" horiz-adv-x="542" 
d="M512 684q9 -27 -7 -71.5t-38 -67.5q-44 19 -82 19q-72 -1 -114 -74t-42 -190v-300h-163v505q0 84 -14 151v23q82 18 144 11q12 -38 12 -84v-32q30 61 79.5 98.5t107.5 37.5q59 0 117 -26z" />
    <glyph glyph-name="s" unicode="s" horiz-adv-x="698" 
d="M364 -18q-204 0 -328 106q25 84 70 114q107 -85 233 -85q67 0 112 24.5t45 63.5q0 43 -42 63.5t-135 26.5q-254 22 -254 191q0 91 80.5 157.5t203.5 66.5q173 0 302 -80q-6 -58 -44 -125q-117 71 -236 71q-65 0 -103.5 -26.5t-38.5 -59.5q0 -35 32 -53.5t106 -22.5
q157 -8 225.5 -59.5t68.5 -148.5q0 -98 -85 -161t-212 -63z" />
    <glyph glyph-name="t" unicode="t" horiz-adv-x="514" 
d="M452 137q14 -16 21.5 -61.5t-0.5 -69.5q-67 -24 -127 -24q-116 -1 -182.5 82t-66.5 249v234h-81v132h81v179q27 14 73.5 22t87.5 0v-201h213v-132h-213v-223q0 -205 115 -205q34 0 79 18z" />
    <glyph glyph-name="u" unicode="u" horiz-adv-x="743" 
d="M677 225q0 -144 27 -206l-1 -19h-137q-32 28 -35 95q-40 -53 -99 -83t-124 -30q-116 0 -186 76t-70 233v388q66 18 162 0v-360q0 -106 32.5 -154t96.5 -48q82 0 127 79.5t45 210.5v272q31 8 88.5 6t73.5 -6v-454z" />
    <glyph glyph-name="v" unicode="v" horiz-adv-x="708" 
d="M275 0l-25 19q-80 290 -240 635l11 25q35 7 77.5 8t76.5 -8q36 -62 93.5 -211t111.5 -333h16q72 138 110.5 278.5t27.5 253.5q49 34 159 12q21 -130 -36 -319.5t-168 -343.5l-28 -16h-186z" />
    <glyph glyph-name="w" unicode="w" horiz-adv-x="955" 
d="M234 0l-27 18q-25 100 -58.5 213t-57 183.5t-51 151.5t-30.5 89l11 24q34 7 77.5 8t78.5 -8q32 -78 76.5 -226t78.5 -306h8q58 166 90 320l-34 102q14 25 59.5 46t89.5 15q72 -201 130 -483h10q50 145 74.5 270.5t14.5 250.5q57 31 164 11q19 -123 -26 -316.5
t-135 -347.5l-27 -15h-154l-27 19q-34 137 -62 212q-12 -41 -38.5 -110t-46.5 -107l-21 -14h-167z" />
    <glyph glyph-name="x" unicode="x" horiz-adv-x="734" 
d="M718 0h-197q-42 57 -189 246q-84 -75 -117 -129t-27 -117h-158q-10 47 0.5 92t42.5 88.5t59.5 72t73.5 72.5q7 7 11 10.5t10 9t11 10.5l-222 297l9 27q30 7 86.5 6.5t85.5 -9.5q27 -40 59.5 -86t69 -97.5t51.5 -73.5q77 69 110.5 128t29.5 126q62 26 158 6
q32 -177 -195 -370q17 -20 237 -281z" />
    <glyph glyph-name="y" unicode="y" horiz-adv-x="736" 
d="M713 679q11 -54 11 -120t-10 -139.5t-34.5 -151.5t-59.5 -152t-87 -144.5t-115 -124.5q-129 -111 -290 -111q-49 -1 -84 16q-24 62 -2 116l27 16q30 -14 60 -14q97 0 218 123l25 26q-73 52 -134 126.5t-97.5 143.5t-64.5 146.5t-39.5 126.5t-18.5 93l8 24q81 19 146 0
q8 -47 22.5 -98.5t46 -133t88 -164t129.5 -144.5q116 202 100 527q51 35 155 13z" />
    <glyph glyph-name="z" unicode="z" horiz-adv-x="682" 
d="M651 135q15 -11 15.5 -59.5t-15.5 -75.5h-600q-16 13 -26.5 51t-8.5 68q97 150 178 247.5t197 178.5h-335q-15 18 -15.5 62t15.5 72h564q16 -12 26 -61t7 -81q-200 -85 -419 -402h417z" />
    <glyph glyph-name="braceleft" unicode="{" horiz-adv-x="521" 
d="M347 15q8 -67 29 -115.5t63 -89.5l-73 -73q-110 86 -138 219q-11 44 -14.5 103.5t-5.5 99.5t-11.5 78t-37.5 57t-77 18v134q51 -1 78.5 18.5t36.5 58.5t11 81t7.5 104t19.5 111q32 114 132 188l74 -69q-66 -63 -84 -170q-10 -45 -15 -115.5t-8.5 -115t-25.5 -90.5
t-65 -69q33 -23 53.5 -54t28.5 -71t11 -73.5t5 -84t6 -80.5z" />
    <glyph glyph-name="bar" unicode="|" horiz-adv-x="289" 
d="M82 -231v1243h124v-1243h-124z" />
    <glyph glyph-name="braceright" unicode="}" horiz-adv-x="521" 
d="M287 819q14 -49 19.5 -111t7 -104t10.5 -81t36.5 -58.5t78.5 -18.5v-134q-49 1 -76.5 -18t-37 -57t-11.5 -78t-6 -99.5t-15 -103.5q-28 -133 -138 -219l-72 73q76 76 91 205q4 31 6 80.5t5 84t11.5 74t28.5 70.5t53 54q-43 23 -65 69t-25.5 90.5t-8.5 115t-15 115.5
q-18 107 -84 170l74 69q101 -75 133 -188z" />
    <glyph glyph-name="asciitilde" unicode="~" horiz-adv-x="718" 
d="M82 284q0 91 41 152t111 61q40 0 82.5 -19.5t78.5 -39.5t58 -20q24 0 41 20.5t17 58.5h125q0 -91 -40.5 -152t-111.5 -61q-41 0 -83.5 20t-79 39.5t-62.5 19.5q-24 0 -38.5 -21.5t-14.5 -57.5h-124z" />
    <glyph glyph-name="exclamdown" unicode="&#xa1;" horiz-adv-x="426" 
d="M212 629q-31 0 -55.5 25t-24.5 57t24.5 56.5t55.5 24.5q33 0 57.5 -24.5t24.5 -56.5t-24.5 -57t-57.5 -25zM140 -132l12 627h123l13 -627h-148z" />
    <glyph glyph-name="cent" unicode="&#xa2;" horiz-adv-x="872" 
d="M719 257l64 -104q-36 -28 -104 -56.5t-140 -38.5v-190h-112v189q-169 16 -257 123.5t-88 267.5q0 162 98 266t247 123v182h112v-181q154 -14 250 -104l-71 -108q-79 79 -228 79q-102 0 -173 -70t-71 -187q0 -116 61.5 -188t175.5 -72q116 0 236 69z" />
    <glyph glyph-name="sterling" unicode="&#xa3;" horiz-adv-x="896" 
d="M299 132h515v-132h-719v132h10q39 0 59.5 38.5t19.5 96.5q0 36 -6 78h-96v132h77q-10 72 -10 134q0 124 85 197t234 73q199 0 339 -114l-77 -108q-102 87 -241 87q-92 0 -138.5 -45.5t-46.5 -121.5q0 -36 6 -102h337v-132h-322q4 -42 4 -63q2 -89 -30 -150z" />
    <glyph glyph-name="currency" unicode="&#xa4;" horiz-adv-x="584" 
d="M502 298l-85 -94l-84 78q-19 -6 -42 -6q-26 0 -46 7l-78 -79l-85 95l70 74q-12 33 -12 75q0 43 13 75l-71 68l86 94l77 -71q20 7 46 7q27 0 47 -7l78 72l85 -94l-70 -69q12 -33 12 -75q0 -43 -14 -77zM229 448q0 -36 16.5 -58t45.5 -22q28 0 45.5 24t17.5 56
q0 34 -16.5 57t-46.5 23q-29 0 -45.5 -24.5t-16.5 -55.5z" />
    <glyph glyph-name="yen" unicode="&#xa5;" horiz-adv-x="1024" 
d="M942 880l-314 -435h172v-114h-209v-93h209v-114h-209v-124h-164v124h-217v114h217v93h-217v114h181l-309 435h207l223 -328l220 328h210z" />
    <glyph glyph-name="brokenbar" unicode="&#xa6;" horiz-adv-x="289" 
d="M82 481v531h124v-531h-124zM82 -231v534h124v-534h-124z" />
    <glyph glyph-name="section" unicode="&#xa7;" horiz-adv-x="667" 
d="M585 335q0 -115 -106 -175q66 -68 66 -151q0 -82 -66 -134.5t-176 -52.5q-36 0 -83.5 11t-79.5 29v136q29 -19 77.5 -31t85.5 -12q96 0 96 70q0 22 -23.5 46.5t-58.5 46.5t-76.5 51.5t-76.5 59.5t-58.5 72.5t-23.5 88.5q0 45 29 90.5t77 80.5q-73 73 -73 164t65.5 146
t176.5 55q94 0 162 -37v-136q-29 18 -76 28.5t-86 10.5q-41 0 -64 -18t-23 -49q0 -28 23.5 -55t58.5 -48.5t75.5 -50t75.5 -58.5t58.5 -76.5t23.5 -101.5zM240 384q-1 -20 7 -37.5t29.5 -36.5t35 -28.5t48.5 -32.5q8 -5 12 -8q53 44 53 96q0 19 -8 35.5t-28.5 35.5
t-33.5 28.5t-47 32.5q-6 5 -10 7q-55 -44 -58 -92z" />
    <glyph glyph-name="dieresis" unicode="&#xa8;" horiz-adv-x="643" 
d="M142 771q-36 0 -63 27.5t-27 63.5q0 35 27.5 63t62.5 28q36 0 63 -27.5t27 -63.5q0 -37 -27 -64t-63 -27zM501 771q-36 0 -63 27t-27 64q0 36 27 63.5t63 27.5q35 0 62.5 -28t27.5 -63q0 -36 -27.5 -63.5t-62.5 -27.5z" />
    <glyph glyph-name="copyright" unicode="&#xa9;" horiz-adv-x="1125" 
d="M563 -18q-210 0 -345.5 133.5t-135.5 334.5q0 131 63 240t173.5 172t244.5 63q209 0 344.5 -135t135.5 -340q0 -201 -135.5 -334.5t-344.5 -133.5zM563 86q154 0 259 98t105 264q0 170 -105 271.5t-259 101.5q-152 0 -258 -105.5t-106 -267.5q0 -164 103 -263t261 -99z
M567 211q-100 0 -169.5 69.5t-69.5 175.5t69 171.5t171 65.5q52 0 99.5 -19t74.5 -47l-59 -98q-37 39 -100 39q-49 0 -83.5 -33.5t-34.5 -84.5q0 -50 34.5 -83t87.5 -33q63 0 101 38l66 -92q-25 -28 -75.5 -48.5t-111.5 -20.5z" />
    <glyph glyph-name="ordfeminine" unicode="&#xaa;" horiz-adv-x="524" 
d="M350 1074h92v-404h-90v20q-43 -25 -99 -25q-75 0 -123 55t-48 143q0 90 50.5 149.5t125.5 59.5q53 0 92 -27v29zM273 747q47 0 78 38v153q-28 44 -76 44q-45 0 -71.5 -34t-26.5 -85q0 -53 27 -84.5t69 -31.5z" />
    <glyph glyph-name="guillemotleft" unicode="&#xab;" horiz-adv-x="1108" 
d="M601 678l-359 -240l359 -233l-42 -108l-477 294v96l472 297zM667 438l359 -233l-42 -108l-477 294v96l472 297l46 -106z" />
    <glyph glyph-name="logicalnot" unicode="&#xac;" horiz-adv-x="708" 
d="M487 223v152h-405v134h543v-286h-138z" />
    <glyph glyph-name="uni00AD" unicode="&#xad;" horiz-adv-x="1080" 
d="M194 303v126h692v-126h-692z" />
    <glyph glyph-name="registered" unicode="&#xae;" horiz-adv-x="836" 
d="M419 926q137 0 236 -93.5t99 -240.5q0 -148 -99 -240t-236 -92q-151 0 -244 92t-93 240q0 142 98 238t239 96zM419 329q109 0 183 68t74 195q0 125 -74.5 195t-182.5 70q-109 0 -183.5 -75t-74.5 -190q0 -119 70.5 -191t187.5 -72zM582 661q0 -40 -24.5 -69.5
t-62.5 -43.5l70 -137h-84l-65 127h-57v-127h-77v370h158q61 0 101.5 -34t40.5 -86zM430 597q29 0 49.5 17.5t20.5 46.5q0 27 -19.5 44t-50.5 17h-71v-125h71z" />
    <glyph glyph-name="macron" unicode="&#xaf;" horiz-adv-x="593" 
d="M52 801v132h489v-132h-489z" />
    <glyph glyph-name="degree" unicode="&#xb0;" horiz-adv-x="547" 
d="M274 533q-90 0 -141 52.5t-51 143.5q0 88 50 142.5t142 54.5t141.5 -54t49.5 -143q0 -88 -52.5 -142t-138.5 -54zM272 613q44 0 70 32t26 83q1 54 -24.5 85.5t-71.5 31.5q-45 0 -71.5 -31.5t-26.5 -85.5q0 -53 27.5 -84t70.5 -31z" />
    <glyph glyph-name="plusminus" unicode="&#xb1;" horiz-adv-x="708" 
d="M423 583h202v-135h-202v-216h-138v216h-203v135h203v242h138v-242zM82 30v135h543v-135h-543z" />
    <glyph glyph-name="uni00B2" unicode="&#xb2;" horiz-adv-x="808" 
d="M277 386h449v-126h-627v111q34 65 97 121.5t126 94.5t122.5 74.5t96.5 77t37 84.5q0 52 -43 84.5t-132 32.5q-148 0 -236 -83l-75 86q46 53 128.5 86t197.5 33q142 0 223 -67.5t81 -168.5q0 -66 -31 -117.5t-83 -89t-108 -69t-119.5 -75t-103.5 -89.5z" />
    <glyph glyph-name="uni00B3" unicode="&#xb3;" horiz-adv-x="812" 
d="M730 488q1 -96 -83 -164.5t-250 -68.5q-90 0 -173 30t-137 75l56 107q107 -86 259 -86q90 0 141 31t51 78q0 117 -322 130v111q304 0 304 111q0 43 -55 68.5t-144 25.5q-76 0 -144 -24t-91 -47l-54 102q50 36 135.5 63.5t175.5 27.5q153 0 233 -58t80 -147
q0 -120 -161 -177q179 -50 179 -188z" />
    <glyph glyph-name="acute" unicode="&#xb4;" horiz-adv-x="377" 
d="M52 765l115 249h157l-187 -249h-85z" />
    <glyph glyph-name="uni00B5" unicode="&#xb5;" horiz-adv-x="743" 
d="M677 225q0 -144 27 -206l-1 -19h-137q-31 23 -31 76v54q-30 -66 -87.5 -107t-127.5 -41q-80 0 -126 58v-310h-142v949q66 18 162 0v-360q0 -106 32.5 -154t96.5 -48q82 0 127 79.5t45 210.5v272q31 8 88.5 6t73.5 -6v-454z" />
    <glyph glyph-name="paragraph" unicode="&#xb6;" horiz-adv-x="746" 
d="M222 -132v699q-64 1 -102 47.5t-38 115.5q0 66 37.5 113t102.5 47h442v-110h-127v-912h-120v912h-75v-912h-120z" />
    <glyph glyph-name="periodcentered" unicode="&#xb7;" horiz-adv-x="564" 
d="M282 310q-36 0 -63 27t-27 64q0 36 27 63.5t63 27.5q35 0 62.5 -27.5t27.5 -63.5q0 -37 -27 -64t-63 -27z" />
    <glyph glyph-name="cedilla" unicode="&#xb8;" horiz-adv-x="379" 
d="M188 -346q-74 -2 -136 69l80 80q20 -27 41 -27q14 0 22.5 11.5t8.5 29.5q0 27 -33 76q-20 29 -28 42t-15 35t-7 48h125q0 -12 2 -23t4 -18t8 -18.5t9 -16.5t13.5 -20t14.5 -22q29 -47 29 -99q0 -60 -40.5 -103t-97.5 -44z" />
    <glyph glyph-name="uni00B9" unicode="&#xb9;" horiz-adv-x="648" 
d="M410 386h156v-126h-469v126h172v545l-157 -41l-26 105l238 62h86v-671z" />
    <glyph glyph-name="ordmasculine" unicode="&#xba;" horiz-adv-x="546" 
d="M274 666q-75 0 -133.5 52.5t-58.5 144.5q0 96 55 152t137 56q81 0 135.5 -56t54.5 -152q0 -92 -58 -144.5t-132 -52.5zM274 748q37 0 66 29t29 86q0 56 -26.5 87t-68.5 31q-43 0 -70 -31t-27 -87q0 -57 29.5 -86t67.5 -29z" />
    <glyph glyph-name="guillemotright" unicode="&#xbb;" horiz-adv-x="1108" 
d="M601 487v-96l-476 -294l-43 108l359 233l-358 240l46 106zM554 784l472 -297v-96l-476 -294l-43 108l359 233l-358 240z" />
    <glyph glyph-name="onequarter" unicode="&#xbc;" horiz-adv-x="1152" 
d="M82 440v126h98v341l-85 -37l-1 134l127 53h91v-491h91v-126h-321zM938 1057h132l-785 -1189h-132zM964 485v-382h54v-126h-54v-109h-120v109h-213v105l212 403h121zM870 103l6 255l-126 -255h120z" />
    <glyph glyph-name="onehalf" unicode="&#xbd;" horiz-adv-x="1155" 
d="M82 440v126h98v341l-85 -37l-1 134l127 53h91v-491h91v-126h-321zM934 1057h132l-785 -1189h-132zM1021 329q0 -61 -25.5 -113.5t-79.5 -121.5t-70 -94h183v-132h-321v122q26 49 74 113.5t76.5 110t28.5 79.5q0 27 -17 45t-43 18q-43 0 -105 -62v120q69 70 145 70
q66 0 110 -46.5t44 -108.5z" />
    <glyph glyph-name="threequarters" unicode="&#xbe;" horiz-adv-x="1117" 
d="M405 619q0 -64 -41.5 -115t-119.5 -51q-41 0 -85.5 21t-73.5 56v107q67 -64 133 -64q32 0 53.5 21.5t22.5 51.5q-1 36 -34.5 59.5t-88.5 30.5v9h-1v72q48 3 76.5 23t28.5 56q0 24 -16 41t-42 17q-55 0 -119 -49v97q64 59 146 59q64 0 102 -40.5t38 -102.5q0 -95 -90 -143
q111 -53 111 -156zM903 1057h132l-786 -1189h-131zM959 485v-382h55v-126h-55v-109h-120v109h-212v105l211 403h121zM865 103l6 249l-126 -249h120z" />
    <glyph glyph-name="questiondown" unicode="&#xbf;" horiz-adv-x="832" 
d="M444 689q32 0 56.5 -24.5t24.5 -56.5t-24.5 -57t-56.5 -25q-31 0 -55.5 25t-24.5 57t24 56.5t56 24.5zM493 415q17 -72 -1 -126.5t-56 -87.5t-78.5 -60.5t-71 -60.5t-30.5 -71q0 -47 40.5 -80t122.5 -33q142 0 262 108l93 -90q-69 -69 -165.5 -110t-195.5 -41
q-155 0 -240.5 66.5t-85.5 167.5q0 47 19 86.5t49.5 66t66.5 50.5t70.5 45.5t62 44.5t41 55t6.5 70h91z" />
    <glyph glyph-name="Agrave" unicode="&#xc0;" horiz-adv-x="898" 
d="M496 966h-98l-211 188h145zM516 902q28 -66 109 -272t151.5 -374t109.5 -232l-10 -24q-124 -5 -173 18q-18 26 -74 179h-377l-66 -197h-174l351 902q29 11 78 10.5t75 -10.5zM297 329h286q-28 79 -83 240t-62 180z" />
    <glyph glyph-name="Aacute" unicode="&#xc1;" horiz-adv-x="898" 
d="M684 1152l-208 -192h-98l161 192h145zM516 902q28 -66 109 -272t151.5 -374t109.5 -232l-10 -24q-124 -5 -173 18q-18 26 -74 179h-377l-66 -197h-174l351 902q29 11 78 10.5t75 -10.5zM297 329h286q-28 79 -83 240t-62 180z" />
    <glyph glyph-name="Acircumflex" unicode="&#xc2;" horiz-adv-x="898" 
d="M438 1078l-112 -119h-115l190 222h75l189 -222h-114zM516 902q28 -66 109 -272t151.5 -374t109.5 -232l-10 -24q-124 -5 -173 18q-18 26 -74 179h-377l-66 -197h-174l351 902q29 11 78 10.5t75 -10.5zM297 329h286q-28 79 -83 240t-62 180z" />
    <glyph glyph-name="Atilde" unicode="&#xc3;" horiz-adv-x="898" 
d="M362 1036q-20 0 -32 -20t-12 -58h-93q0 81 31.5 134.5t85.5 53.5q32 0 65.5 -21t62 -42t48.5 -21q19 0 32.5 21t13.5 59l93 -1q0 -80 -30.5 -134t-85.5 -54q-33 0 -67.5 20.5t-63.5 41.5t-48 21zM516 902q28 -66 109 -272t151.5 -374t109.5 -232l-10 -24q-124 -5 -173 18
q-18 26 -74 179h-377l-66 -197h-174l351 902q29 11 78 10.5t75 -10.5zM297 329h286q-28 79 -83 240t-62 180z" />
    <glyph glyph-name="Adieresis" unicode="&#xc4;" horiz-adv-x="898" 
d="M308 984q-28 0 -49 21.5t-21 49.5q0 29 21 50.5t49 21.5t49.5 -22t21.5 -50t-21.5 -49.5t-49.5 -21.5zM579 984q-29 0 -50 21t-21 50t21.5 50.5t49.5 21.5q27 0 48.5 -22t21.5 -50t-21.5 -49.5t-48.5 -21.5zM516 902q28 -66 109 -272t151.5 -374t109.5 -232l-10 -24
q-124 -5 -173 18q-18 26 -74 179h-377l-66 -197h-174l351 902q29 11 78 10.5t75 -10.5zM297 329h286q-28 79 -83 240t-62 180z" />
    <glyph glyph-name="Aring" unicode="&#xc5;" horiz-adv-x="898" 
d="M519 896q28 -66 109 -272t150 -371t108 -229l-10 -24q-124 -5 -173 18q-18 26 -74 179h-377l-66 -197h-174l349 897q-49 17 -76.5 53t-27.5 84q0 64 49.5 106.5t137.5 42.5q85 0 133.5 -42t48.5 -107q0 -47 -29 -83.5t-78 -54.5zM441 1112q-43 0 -68.5 -22.5t-25.5 -56.5
q0 -33 26.5 -55.5t67.5 -22.5t68.5 22.5t27.5 55.5q0 35 -26.5 57t-69.5 22zM297 329h286q-28 79 -83 240t-62 180z" />
    <glyph glyph-name="AE" unicode="&#xc6;" horiz-adv-x="1341" 
d="M1297 132q14 -17 14.5 -62t-14.5 -70h-617v197h-333l-131 -197h-204l648 902h618q8 -29 -1.5 -71t-24.5 -61h-408v-263h367q8 -31 -1.5 -74t-24.5 -58h-341v-243h453zM434 328l246 -1v371z" />
    <glyph glyph-name="Ccedilla" unicode="&#xc7;" horiz-adv-x="835" 
d="M792 585q-108 -24 -166 -10q9 91 -36.5 152t-123.5 61q-113 -1 -189.5 -101.5t-76.5 -242.5q0 -146 72 -237t192 -92q132 0 239 84q33 -13 53 -47t23 -64q-67 -55 -153.5 -83.5t-161.5 -28.5h-5q6 -20 33 -50.5t38 -47.5q29 -47 29 -99q0 -59 -40 -102.5t-98 -44.5
q-74 -2 -136 70l73 77q30 -37 61 -37q16 0 26.5 13.5t10.5 33.5q0 15 -8.5 29t-24.5 31.5t-24 29.5q-38 55 -39 109q-147 34 -238.5 157t-91.5 309q0 197 123.5 334.5t311.5 137.5q159 0 248.5 -93.5t78.5 -247.5z" />
    <glyph glyph-name="Egrave" unicode="&#xc8;" horiz-adv-x="751" 
d="M443 966h-98l-211 188h145zM707 132q15 -17 15 -62t-15 -70h-648v886l17 16h612q8 -29 -1.5 -71t-24.5 -61h-439v-263h399q7 -31 -2.5 -74.5t-24.5 -57.5h-372v-243h484z" />
    <glyph glyph-name="Eacute" unicode="&#xc9;" horiz-adv-x="751" 
d="M631 1152l-208 -192h-98l161 192h145zM707 132q15 -17 15 -62t-15 -70h-648v886l17 16h612q8 -29 -1.5 -71t-24.5 -61h-439v-263h399q7 -31 -2.5 -74.5t-24.5 -57.5h-372v-243h484z" />
    <glyph glyph-name="Ecircumflex" unicode="&#xca;" horiz-adv-x="751" 
d="M385 1078l-112 -119h-115l190 222h75l189 -222h-114zM707 132q15 -17 15 -62t-15 -70h-648v886l17 16h612q8 -29 -1.5 -71t-24.5 -61h-439v-263h399q7 -31 -2.5 -74.5t-24.5 -57.5h-372v-243h484z" />
    <glyph glyph-name="Edieresis" unicode="&#xcb;" horiz-adv-x="751" 
d="M255 984q-28 0 -49 21.5t-21 49.5q0 29 21 50.5t49 21.5t49.5 -22t21.5 -50t-21.5 -49.5t-49.5 -21.5zM526 984q-28 0 -49.5 21t-21.5 50t21.5 50.5t49.5 21.5q27 0 48.5 -22t21.5 -50t-21.5 -49.5t-48.5 -21.5zM707 132q15 -17 15 -62t-15 -70h-648v886l17 16h612
q8 -29 -1.5 -71t-24.5 -61h-439v-263h399q7 -31 -2.5 -74.5t-24.5 -57.5h-372v-243h484z" />
    <glyph glyph-name="Igrave" unicode="&#xcc;" horiz-adv-x="271" 
d="M92 966l-211 188h145l164 -188h-98zM59 0v903q29 11 79.5 9t72.5 -9v-903h-152z" />
    <glyph glyph-name="Iacute" unicode="&#xcd;" horiz-adv-x="271" 
d="M72 960l161 192h145l-208 -192h-98zM59 0v903q29 11 79.5 9t72.5 -9v-903h-152z" />
    <glyph glyph-name="Icircumflex" unicode="&#xce;" horiz-adv-x="271" 
d="M170 1181l189 -222h-114l-113 119l-112 -119h-115l190 222h75zM59 903q29 11 79.5 9t72.5 -9v-903h-152v903z" />
    <glyph glyph-name="Idieresis" unicode="&#xcf;" horiz-adv-x="271" 
d="M2 984q-28 0 -49 21.5t-21 49.5q0 29 21 50.5t49 21.5t49.5 -22t21.5 -50t-21.5 -49.5t-49.5 -21.5zM273 984q-29 0 -50 21t-21 50t21.5 50.5t49.5 21.5q27 0 48.5 -22t21.5 -50t-21.5 -49.5t-48.5 -21.5zM59 0v903q29 11 79.5 9t72.5 -9v-903h-152z" />
    <glyph glyph-name="Eth" unicode="&#xd0;" horiz-adv-x="903" 
d="M415 926q218 0 338.5 -126.5t120.5 -335.5q0 -222 -116.5 -352.5t-325.5 -130.5q-98 0 -164.5 9.5t-145.5 35.5v378h-80v126h80v356q132 40 293 40zM703 460q1 150 -75 242t-216 92q-58 0 -126 -9v-255h180v-126h-180v-276q64 -14 146 -14q133 0 202 93.5t69 252.5z" />
    <glyph glyph-name="Ntilde" unicode="&#xd1;" horiz-adv-x="893" 
d="M367 1036q-20 0 -32 -20t-12 -58h-93q0 81 31.5 134.5t85.5 53.5q32 0 65.5 -21t62 -42t48.5 -21q19 0 32.5 21t13.5 59l93 -1q0 -80 -30.5 -134t-85.5 -54q-33 0 -67.5 20.5t-63.5 41.5t-48 21zM670 902q28 11 84.5 9t79.5 -9v-902h-115l-496 612v-612h-164v873
q15 18 55.5 30t59.5 5l496 -624v618z" />
    <glyph glyph-name="Ograve" unicode="&#xd2;" horiz-adv-x="876" 
d="M417 980l-211 188h145l164 -188h-98zM403 -18q-111 0 -197 58.5t-131 155.5t-45 214q0 140 55 257.5t157.5 188t231.5 70.5q160 0 265.5 -131t106.5 -315q0 -97 -32.5 -187t-89.5 -159t-141 -110.5t-180 -41.5zM409 120q76 0 137.5 54t95 138t34.5 179q1 129 -57.5 212.5
t-157.5 83.5q-116 0 -189 -110.5t-72 -269.5q0 -122 54 -204.5t155 -82.5z" />
    <glyph glyph-name="Oacute" unicode="&#xd3;" horiz-adv-x="876" 
d="M397 974l161 192h145l-208 -192h-98zM403 -18q-111 0 -197 58.5t-131 155.5t-45 214q0 140 55 257.5t157.5 188t231.5 70.5q160 0 265.5 -131t106.5 -315q0 -97 -32.5 -187t-89.5 -159t-141 -110.5t-180 -41.5zM409 120q76 0 137.5 54t95 138t34.5 179q1 129 -57.5 212.5
t-157.5 83.5q-116 0 -189 -110.5t-72 -269.5q0 -122 54 -204.5t155 -82.5z" />
    <glyph glyph-name="Ocircumflex" unicode="&#xd4;" horiz-adv-x="876" 
d="M457 1092l-112 -119h-115l190 222h75l189 -222h-114zM846 480q0 -97 -32.5 -187t-89.5 -159t-141 -110.5t-180 -41.5q-111 0 -197 58.5t-131 155.5t-45 214q0 140 55 257.5t157.5 188t231.5 70.5q160 0 265.5 -131t106.5 -315zM676 491q1 129 -57.5 212.5t-157.5 83.5
q-116 0 -189 -110.5t-72 -269.5q0 -122 54 -204.5t155 -82.5q76 0 137.5 54t95 138t34.5 179z" />
    <glyph glyph-name="Otilde" unicode="&#xd5;" horiz-adv-x="876" 
d="M559 967q-33 0 -67.5 20.5t-63.5 41.5t-48 21q-20 0 -32 -20t-12 -58h-93q0 81 31.5 134.5t85.5 53.5q32 0 65.5 -21t62 -42t48.5 -21q19 0 32.5 21t13.5 59l93 -1q0 -80 -30.5 -134t-85.5 -54zM403 -18q-111 0 -197 58.5t-131 155.5t-45 214q0 140 55 257.5t157.5 188
t231.5 70.5q160 0 265.5 -131t106.5 -315q0 -97 -32.5 -187t-89.5 -159t-141 -110.5t-180 -41.5zM409 120q76 0 137.5 54t95 138t34.5 179q1 129 -57.5 212.5t-157.5 83.5q-116 0 -189 -110.5t-72 -269.5q0 -122 54 -204.5t155 -82.5z" />
    <glyph glyph-name="Odieresis" unicode="&#xd6;" horiz-adv-x="876" 
d="M327 998q-28 0 -49 21.5t-21 49.5q0 29 21 50.5t49 21.5t49.5 -22t21.5 -50t-21.5 -49.5t-49.5 -21.5zM598 998q-28 0 -49.5 21t-21.5 50t21.5 50.5t49.5 21.5q27 0 48.5 -22t21.5 -50t-21.5 -49.5t-48.5 -21.5zM403 -18q-111 0 -197 58.5t-131 155.5t-45 214
q0 140 55 257.5t157.5 188t231.5 70.5q160 0 265.5 -131t106.5 -315q0 -97 -32.5 -187t-89.5 -159t-141 -110.5t-180 -41.5zM409 120q76 0 137.5 54t95 138t34.5 179q1 129 -57.5 212.5t-157.5 83.5q-116 0 -189 -110.5t-72 -269.5q0 -122 54 -204.5t155 -82.5z" />
    <glyph glyph-name="multiply" unicode="&#xd7;" horiz-adv-x="811" 
d="M729 610l-227 -201l227 -201h-193l-131 116l-131 -116h-192l227 201l-227 201h192l131 -116l131 116h193z" />
    <glyph glyph-name="Oslash" unicode="&#xd8;" horiz-adv-x="973" 
d="M811 765q84 -124 84 -285q1 -130 -54.5 -243.5t-158.5 -184t-231 -70.5q-126 0 -217 74l-46 -56h-140l111 136q-80 115 -80 274q0 140 55 257.5t157.5 188t231.5 70.5q120 0 214 -78l35 43h141zM249 407q0 -72 20 -135l374 460q-55 55 -133 55q-116 0 -189 -110.5
t-72 -269.5zM725 491q0 80 -22 142l-375 -461q54 -52 130 -52t137.5 54t95 138t34.5 179z" />
    <glyph glyph-name="Ugrave" unicode="&#xd9;" horiz-adv-x="891" 
d="M403 974l-211 188h145l164 -188h-98zM438 -24q-187 0 -283 108t-96 313v505q28 10 86 8.5t78 -8.5v-512q0 -130 55.5 -202.5t159.5 -72.5q109 0 169.5 79t60.5 208v500q29 10 85 8.5t79 -8.5v-502q0 -189 -102.5 -306.5t-291.5 -117.5z" />
    <glyph glyph-name="Uacute" unicode="&#xda;" horiz-adv-x="891" 
d="M383 968l161 192h145l-208 -192h-98zM438 -24q-187 0 -283 108t-96 313v505q28 10 86 8.5t78 -8.5v-512q0 -130 55.5 -202.5t159.5 -72.5q109 0 169.5 79t60.5 208v500q29 10 85 8.5t79 -8.5v-502q0 -189 -102.5 -306.5t-291.5 -117.5z" />
    <glyph glyph-name="Ucircumflex" unicode="&#xdb;" horiz-adv-x="891" 
d="M443 1086l-112 -119h-115l190 222h75l189 -222h-114zM668 902q29 10 85 8.5t79 -8.5v-502q0 -189 -102.5 -306.5t-291.5 -117.5q-187 0 -283 108t-96 313v505q28 10 86 8.5t78 -8.5v-512q0 -130 55.5 -202.5t159.5 -72.5q109 0 169.5 79t60.5 208v500z" />
    <glyph glyph-name="Udieresis" unicode="&#xdc;" horiz-adv-x="891" 
d="M313 992q-28 0 -49 21.5t-21 49.5q0 29 21 50.5t49 21.5t49.5 -22t21.5 -50t-21.5 -49.5t-49.5 -21.5zM584 992q-28 0 -49.5 21t-21.5 50t21.5 50.5t49.5 21.5q27 0 48.5 -22t21.5 -50t-21.5 -49.5t-48.5 -21.5zM438 -24q-187 0 -283 108t-96 313v505q28 10 86 8.5
t78 -8.5v-512q0 -130 55.5 -202.5t159.5 -72.5q109 0 169.5 79t60.5 208v500q29 10 85 8.5t79 -8.5v-502q0 -189 -102.5 -306.5t-291.5 -117.5z" />
    <glyph glyph-name="Yacute" unicode="&#xdd;" horiz-adv-x="828" 
d="M657 1152l-208 -192h-98l161 192h145zM807 902q35 -290 -277 -592v-310h-164v325q-55 97 -174.5 286.5t-176.5 263.5l11 27q37 7 85.5 8t85.5 -8q40 -42 136.5 -202t137.5 -245q86 89 133.5 219.5t40.5 215.5q55 34 162 12z" />
    <glyph glyph-name="Thorn" unicode="&#xde;" horiz-adv-x="792" 
d="M380 815q176 0 279 -92.5t103 -258.5q0 -165 -107 -262.5t-283 -97.5q-76 0 -149 16v-120h-164v914q30 11 86 9.5t78 -9.5v-110q64 11 157 11zM380 236q100 0 157 61.5t55 168.5q-1 105 -55 161t-162 56q-82 0 -152 -14v-415q68 -18 157 -18z" />
    <glyph glyph-name="germandbls" unicode="&#xdf;" horiz-adv-x="759" 
d="M731 296q8 -145 -67.5 -229t-187.5 -86q-103 0 -193 68q-4 30 6 63.5t40 48.5q50 -41 101 -41q60 1 101 51t37 126q-3 58 -42 96.5t-107 38.5q-48 -1 -114 -29q-15 15 -15 67.5t11 71.5q34 11 68 16q104 40 104 129q0 50 -33 82.5t-93 32.5q-64 0 -98.5 -47.5
t-34.5 -118.5v-636h-162v626q0 145 80.5 228t212.5 83q138 -1 214 -67t76 -163q0 -122 -116 -183q92 -17 149.5 -78.5t62.5 -149.5z" />
    <glyph glyph-name="agrave" unicode="&#xe0;" horiz-adv-x="693" 
d="M439 785h-104l-205 249h155zM635 238q0 -74 4.5 -119.5t9.5 -63t15 -38.5l-2 -17h-137q-33 26 -38 105q-103 -123 -249 -123q-86 0 -141.5 49.5t-54.5 126.5q1 108 102 184t263 85q31 1 60 0q-8 71 -40 110.5t-85 39.5q-82 0 -204 -78q-46 18 -57 107q149 104 280 104
q125 1 198.5 -86t74.5 -248zM471 314l2 12q-19 2 -59 2q-106 -3 -162 -45t-56 -95q0 -37 22.5 -59.5t62.5 -22.5q74 0 128.5 66t61.5 142z" />
    <glyph glyph-name="aacute" unicode="&#xe1;" horiz-adv-x="693" 
d="M576 1034l-174 -249h-98l115 249h157zM635 238q0 -74 4.5 -119.5t9.5 -63t15 -38.5l-2 -17h-137q-33 26 -38 105q-103 -123 -249 -123q-86 0 -141.5 49.5t-54.5 126.5q1 108 102 184t263 85q31 1 60 0q-8 71 -40 110.5t-85 39.5q-82 0 -204 -78q-46 18 -57 107
q149 104 280 104q125 1 198.5 -86t74.5 -248zM471 314l2 12q-19 2 -59 2q-106 -3 -162 -45t-56 -95q0 -37 22.5 -59.5t62.5 -22.5q74 0 128.5 66t61.5 142z" />
    <glyph glyph-name="acircumflex" unicode="&#xe2;" horiz-adv-x="693" 
d="M379 911l-112 -126h-116l190 239h76l188 -239h-114zM635 238q0 -74 4.5 -119.5t9.5 -63t15 -38.5l-2 -17h-137q-33 26 -38 105q-103 -123 -249 -123q-86 0 -141.5 49.5t-54.5 126.5q1 108 102 184t263 85q31 1 60 0q-8 71 -40 110.5t-85 39.5q-82 0 -204 -78
q-46 18 -57 107q149 104 280 104q125 1 198.5 -86t74.5 -248zM471 314l2 12q-19 2 -59 2q-106 -3 -162 -45t-56 -95q0 -37 22.5 -59.5t62.5 -22.5q74 0 128.5 66t61.5 142z" />
    <glyph glyph-name="atilde" unicode="&#xe3;" horiz-adv-x="693" 
d="M299 879q-20 0 -32 -20t-12 -58h-93q0 89 31.5 148t85.5 59q32 0 65.5 -21t62 -42t48.5 -21q19 0 32.5 20.5t13.5 58.5h93q0 -88 -30.5 -147.5t-85.5 -59.5q-33 0 -67.5 21t-63.5 41.5t-48 20.5zM635 238q0 -74 4.5 -119.5t9.5 -63t15 -38.5l-2 -17h-137q-33 26 -38 105
q-103 -123 -249 -123q-86 0 -141.5 49.5t-54.5 126.5q1 108 102 184t263 85q31 1 60 0q-8 71 -40 110.5t-85 39.5q-82 0 -204 -78q-46 18 -57 107q149 104 280 104q125 1 198.5 -86t74.5 -248zM471 314l2 12q-19 2 -59 2q-106 -3 -162 -45t-56 -95q0 -37 22.5 -59.5
t62.5 -22.5q74 0 128.5 66t61.5 142z" />
    <glyph glyph-name="adieresis" unicode="&#xe4;" horiz-adv-x="693" 
d="M230 791q-36 0 -63 27t-27 64q0 36 27 63.5t63 27.5q35 0 62.5 -28t27.5 -63q0 -36 -27 -63.5t-63 -27.5zM545 791q-36 0 -63 27t-27 64q0 36 27 63.5t63 27.5t63 -27.5t27 -63.5q0 -37 -27 -64t-63 -27zM635 238q0 -74 4.5 -119.5t9.5 -63t15 -38.5l-2 -17h-137
q-33 26 -38 105q-103 -123 -249 -123q-86 0 -141.5 49.5t-54.5 126.5q1 108 102 184t263 85q31 1 60 0q-8 71 -40 110.5t-85 39.5q-82 0 -204 -78q-46 18 -57 107q149 104 280 104q125 1 198.5 -86t74.5 -248zM471 314l2 12q-19 2 -59 2q-106 -3 -162 -45t-56 -95
q0 -37 22.5 -59.5t62.5 -22.5q74 0 128.5 66t61.5 142z" />
    <glyph glyph-name="aring" unicode="&#xe5;" horiz-adv-x="693" 
d="M381 768q-85 0 -136 41t-51 108q0 64 49.5 107t137.5 43q85 0 133.5 -42.5t48.5 -107.5q0 -64 -52 -106.5t-130 -42.5zM378 996q-43 0 -68.5 -22.5t-25.5 -56.5q0 -33 26.5 -55.5t67.5 -22.5t68.5 22.5t27.5 55.5q0 35 -26.5 57t-69.5 22zM635 238q0 -74 4.5 -119.5
t9.5 -63t15 -38.5l-2 -17h-137q-33 26 -38 105q-103 -123 -249 -123q-86 0 -141.5 49.5t-54.5 126.5q1 108 102 184t263 85q31 1 60 0q-8 71 -40 110.5t-85 39.5q-82 0 -204 -78q-46 18 -57 107q149 104 280 104q125 1 198.5 -86t74.5 -248zM471 314l2 12q-19 2 -59 2
q-106 -3 -162 -45t-56 -95q0 -37 22.5 -59.5t62.5 -22.5q74 0 128.5 66t61.5 142z" />
    <glyph glyph-name="ae" unicode="&#xe6;" horiz-adv-x="1129" 
d="M811 710q142 0 223.5 -93.5t65.5 -250.5l-21 -29l-449 -89q19 -64 66.5 -98t109.5 -32q100 2 194 87q23 -10 40 -35t23 -42t6 -21q-128 -125 -279 -125q-80 -1 -149.5 36t-112.5 104q-53 -68 -129.5 -105t-160.5 -35q-87 2 -142 51t-54 125q1 108 102 184t263 85
q31 1 60 0q-8 71 -40 110.5t-85 39.5q-82 0 -204 -78q-46 18 -57 107q149 104 280 104q135 2 205 -113q97 113 245 113zM948 412q5 75 -33.5 123.5t-103.5 48.5q-78 0 -133 -67.5t-60 -164.5zM470 314l2 12q-18 2 -58 2q-106 -3 -162 -45t-56 -95q0 -37 22.5 -59.5
t62.5 -22.5q74 0 128.5 64t60.5 144z" />
    <glyph glyph-name="ccedilla" unicode="&#xe7;" horiz-adv-x="674" 
d="M644 386q-105 -25 -155 -11q5 91 -30 146t-96 55q-73 0 -122 -70.5t-49 -174.5q0 -92 47 -152.5t119 -61.5q87 0 186 89q29 -10 49.5 -36.5t26.5 -44t6 -22.5q-119 -107 -253 -120q2 -18 12.5 -33t29 -35.5t30.5 -38.5q29 -45 29 -99q0 -59 -40.5 -102t-97.5 -44
q-74 -2 -136 69l73 78q30 -38 61 -38q16 0 26.5 13.5t10.5 33.5q0 16 -8.5 29.5t-24.5 31t-24 29.5q-38 54 -39 112q-109 23 -178 115t-69 230q0 157 99.5 266.5t244.5 109.5q131 0 207.5 -91.5t64.5 -232.5z" />
    <glyph glyph-name="egrave" unicode="&#xe8;" horiz-adv-x="685" 
d="M432 785h-104l-205 249h155zM367 710q141 0 223 -93.5t65 -250.5l-21 -29l-449 -89q19 -64 67 -98t110 -33q99 3 193 88q11 -5 20.5 -12.5t16 -16.5t12.5 -18.5t9.5 -18.5t6 -16t4.5 -11l1 -5q-129 -125 -279 -125q-132 -1 -224 91t-94 246q-2 164 93.5 277.5
t245.5 113.5zM503 418q5 73 -33 119.5t-103 46.5q-77 0 -131 -65.5t-62 -161.5z" />
    <glyph glyph-name="eacute" unicode="&#xe9;" horiz-adv-x="685" 
d="M569 1034l-174 -249h-98l115 249h157zM367 710q141 0 223 -93.5t65 -250.5l-21 -29l-449 -89q19 -64 67 -98t110 -33q99 3 193 88q11 -5 20.5 -12.5t16 -16.5t12.5 -18.5t9.5 -18.5t6 -16t4.5 -11l1 -5q-129 -125 -279 -125q-132 -1 -224 91t-94 246q-2 164 93.5 277.5
t245.5 113.5zM503 418q5 73 -33 119.5t-103 46.5q-77 0 -131 -65.5t-62 -161.5z" />
    <glyph glyph-name="ecircumflex" unicode="&#xea;" horiz-adv-x="685" 
d="M372 911l-112 -126h-116l190 239h76l188 -239h-114zM367 710q141 0 223 -93.5t65 -250.5l-21 -29l-449 -89q19 -64 67 -98t110 -33q99 3 193 88q11 -5 20.5 -12.5t16 -16.5t12.5 -18.5t9.5 -18.5t6 -16t4.5 -11l1 -5q-129 -125 -279 -125q-132 -1 -224 91t-94 246
q-2 164 93.5 277.5t245.5 113.5zM503 418q5 73 -33 119.5t-103 46.5q-77 0 -131 -65.5t-62 -161.5z" />
    <glyph glyph-name="edieresis" unicode="&#xeb;" horiz-adv-x="685" 
d="M223 791q-36 0 -63 27t-27 64q0 36 27 63.5t63 27.5q35 0 62.5 -28t27.5 -63q0 -36 -27.5 -63.5t-62.5 -27.5zM538 791q-36 0 -63 27t-27 64q0 36 27 63.5t63 27.5t63 -27.5t27 -63.5q0 -37 -27 -64t-63 -27zM367 710q141 0 223 -93.5t65 -250.5l-21 -29l-449 -89
q19 -64 67 -98t110 -33q99 3 193 88q11 -5 20.5 -12.5t16 -16.5t12.5 -18.5t9.5 -18.5t6 -16t4.5 -11l1 -5q-129 -125 -279 -125q-132 -1 -224 91t-94 246q-2 164 93.5 277.5t245.5 113.5zM503 418q5 73 -33 119.5t-103 46.5q-77 0 -131 -65.5t-62 -161.5z" />
    <glyph glyph-name="igrave" unicode="&#xec;" horiz-adv-x="294" 
d="M104 785l-205 249h155l154 -249h-104zM66 0v679q26 8 83 8t79 -8v-679h-162z" />
    <glyph glyph-name="iacute" unicode="&#xed;" horiz-adv-x="294" 
d="M73 785l115 249h157l-174 -249h-98zM66 0v679q26 8 83 8t79 -8v-679h-162z" />
    <glyph glyph-name="icircumflex" unicode="&#xee;" horiz-adv-x="294" 
d="M186 1024l188 -239h-114l-112 126l-112 -126h-116l190 239h76zM66 679q26 8 83 8t79 -8v-679h-162v679z" />
    <glyph glyph-name="idieresis" unicode="&#xef;" horiz-adv-x="294" 
d="M-2 791q-36 0 -63 27t-27 64q0 36 27 63.5t63 27.5q35 0 62.5 -28t27.5 -63q0 -36 -27 -63.5t-63 -27.5zM313 791q-36 0 -63 27t-27 64q0 36 27 63.5t63 27.5t63 -27.5t27 -63.5q0 -37 -27 -64t-63 -27zM66 0v679q26 8 83 8t79 -8v-679h-162z" />
    <glyph glyph-name="eth" unicode="&#xf0;" horiz-adv-x="704" 
d="M478 766q92 -88 144.5 -195t53.5 -220q0 -71 -21.5 -136t-63 -120t-112.5 -87.5t-161 -32.5q-132 0 -211 87.5t-79 219.5q0 142 87 241.5t219 100.5q68 2 125 -33q-37 63 -96 116q-84 -39 -197 -80q-27 11 -44.5 37t-21.5 55q8 3 67 25t95 37q-55 33 -130 67q3 26 23 51
t52 39q97 -38 181 -98q80 45 90 85q34 11 76.5 4t68.5 -26q-11 -61 -145 -137zM327 108q80 0 132 80t52 177q-1 66 -36 108.5t-93 42.5q-83 0 -137 -70.5t-54 -166.5q0 -74 36 -122.5t100 -48.5z" />
    <glyph glyph-name="ntilde" unicode="&#xf1;" horiz-adv-x="748" 
d="M327 879q-20 0 -32 -20t-12 -58h-93q0 89 31.5 148t85.5 59q32 0 65.5 -21t62 -42t48.5 -21q19 0 32.5 20.5t13.5 58.5h93q0 -88 -30.5 -147.5t-85.5 -59.5q-33 0 -67.5 21t-63.5 41.5t-48 20.5zM446 710q250 0 250 -342v-368h-162v348q0 228 -123 228
q-71 0 -127.5 -84.5t-56.5 -187.5v-304h-161v505q0 84 -14 151v23q87 18 151 11q12 -44 12 -84v-10q42 52 102.5 83t128.5 31z" />
    <glyph glyph-name="ograve" unicode="&#xf2;" horiz-adv-x="732" 
d="M335 785l-205 249h155l154 -249h-104zM340 -18q-145 0 -228.5 96.5t-83.5 243.5q0 160 106 274t260 114q143 0 225.5 -93t84.5 -241q4 -172 -99.5 -283t-264.5 -111zM349 117q81 0 135.5 73.5t54.5 169.5q0 91 -42.5 153.5t-112.5 62.5q-81 0 -136 -75.5t-55 -179.5
q0 -87 40.5 -145.5t115.5 -58.5z" />
    <glyph glyph-name="oacute" unicode="&#xf3;" horiz-adv-x="732" 
d="M304 785l115 249h157l-174 -249h-98zM340 -18q-145 0 -228.5 96.5t-83.5 243.5q0 160 106 274t260 114q143 0 225.5 -93t84.5 -241q4 -172 -99.5 -283t-264.5 -111zM349 117q81 0 135.5 73.5t54.5 169.5q0 91 -42.5 153.5t-112.5 62.5q-81 0 -136 -75.5t-55 -179.5
q0 -87 40.5 -145.5t115.5 -58.5z" />
    <glyph glyph-name="ocircumflex" unicode="&#xf4;" horiz-adv-x="732" 
d="M379 911l-112 -126h-116l190 239h76l188 -239h-114zM704 376q4 -172 -99.5 -283t-264.5 -111q-145 0 -228.5 96.5t-83.5 243.5q0 160 106 274t260 114q143 0 225.5 -93t84.5 -241zM349 117q81 0 135.5 73.5t54.5 169.5q0 91 -42.5 153.5t-112.5 62.5q-81 0 -136 -75.5
t-55 -179.5q0 -87 40.5 -145.5t115.5 -58.5z" />
    <glyph glyph-name="otilde" unicode="&#xf5;" horiz-adv-x="732" 
d="M478 796q-33 0 -67.5 21t-63.5 41.5t-48 20.5q-20 0 -32 -20t-12 -58h-93q0 89 31.5 148t85.5 59q32 0 65.5 -21t62 -42t48.5 -21q19 0 32.5 20.5t13.5 58.5h93q0 -88 -30.5 -147.5t-85.5 -59.5zM340 -18q-145 0 -228.5 96.5t-83.5 243.5q0 160 106 274t260 114
q143 0 225.5 -93t84.5 -241q4 -172 -99.5 -283t-264.5 -111zM349 117q81 0 135.5 73.5t54.5 169.5q0 91 -42.5 153.5t-112.5 62.5q-81 0 -136 -75.5t-55 -179.5q0 -87 40.5 -145.5t115.5 -58.5z" />
    <glyph glyph-name="odieresis" unicode="&#xf6;" horiz-adv-x="732" 
d="M229 791q-36 0 -63 27t-27 64q0 36 27 63.5t63 27.5q35 0 62.5 -28t27.5 -63q0 -36 -27.5 -63.5t-62.5 -27.5zM544 791q-36 0 -63 27t-27 64q0 36 27 63.5t63 27.5t63 -27.5t27 -63.5q0 -37 -27 -64t-63 -27zM340 -18q-145 0 -228.5 96.5t-83.5 243.5q0 160 106 274
t260 114q143 0 225.5 -93t84.5 -241q4 -172 -99.5 -283t-264.5 -111zM349 117q81 0 135.5 73.5t54.5 169.5q0 91 -42.5 153.5t-112.5 62.5q-81 0 -136 -75.5t-55 -179.5q0 -87 40.5 -145.5t115.5 -58.5z" />
    <glyph glyph-name="divide" unicode="&#xf7;" horiz-adv-x="708" 
d="M358 590q-37 0 -63 27t-26 65t26 65t63 27q36 0 63 -27t27 -65t-27 -65t-63 -27zM82 374v135h543v-135h-543zM358 104q-37 0 -63 27t-26 65t26 64.5t63 26.5q36 0 63 -27t27 -64q0 -38 -26.5 -65t-63.5 -27z" />
    <glyph glyph-name="oslash" unicode="&#xf8;" horiz-adv-x="751" 
d="M718 376q3 -172 -100.5 -283t-264.5 -111q-115 0 -195 64l-41 -46h-79v16l71 81q-68 93 -68 225q0 160 106 274t261 114q114 0 191 -61l27 30h91v-15l-64 -72q62 -86 65 -216zM397 576q-81 0 -136 -75.5t-55 -179.5q0 -56 16 -98l20 19l184 205l19 26l51 58
q-40 45 -99 45zM363 117q81 0 135.5 73.5t54.5 169.5q0 54 -17 102l-10 -12l-34 -32l-180 -196l-20 -27l-32 -36q40 -42 103 -42z" />
    <glyph glyph-name="ugrave" unicode="&#xf9;" horiz-adv-x="743" 
d="M429 785h-104l-205 249h155zM677 225q0 -144 27 -206l-1 -19h-137q-32 28 -35 95q-40 -53 -99 -83t-124 -30q-116 0 -186 76t-70 233v388q66 18 162 0v-360q0 -106 32.5 -154t96.5 -48q82 0 127 79.5t45 210.5v272q31 8 88.5 6t73.5 -6v-454z" />
    <glyph glyph-name="uacute" unicode="&#xfa;" horiz-adv-x="743" 
d="M566 1034l-174 -249h-98l115 249h157zM677 225q0 -144 27 -206l-1 -19h-137q-32 28 -35 95q-40 -53 -99 -83t-124 -30q-116 0 -186 76t-70 233v388q66 18 162 0v-360q0 -106 32.5 -154t96.5 -48q82 0 127 79.5t45 210.5v272q31 8 88.5 6t73.5 -6v-454z" />
    <glyph glyph-name="ucircumflex" unicode="&#xfb;" horiz-adv-x="743" 
d="M370 911l-112 -126h-116l190 239h76l188 -239h-114zM677 225q0 -144 27 -206l-1 -19h-137q-32 28 -35 95q-40 -53 -99 -83t-124 -30q-116 0 -186 76t-70 233v388q66 18 162 0v-360q0 -106 32.5 -154t96.5 -48q82 0 127 79.5t45 210.5v272q31 8 88.5 6t73.5 -6v-454z" />
    <glyph glyph-name="udieresis" unicode="&#xfc;" horiz-adv-x="743" 
d="M220 791q-36 0 -63 27t-27 64q0 36 27 63.5t63 27.5q35 0 62.5 -28t27.5 -63q0 -36 -27 -63.5t-63 -27.5zM535 791q-36 0 -63 27t-27 64q0 36 27 63.5t63 27.5t63 -27.5t27 -63.5q0 -37 -27 -64t-63 -27zM677 225q0 -144 27 -206l-1 -19h-137q-32 28 -35 95
q-40 -53 -99 -83t-124 -30q-116 0 -186 76t-70 233v388q66 18 162 0v-360q0 -106 32.5 -154t96.5 -48q82 0 127 79.5t45 210.5v272q31 8 88.5 6t73.5 -6v-454z" />
    <glyph glyph-name="yacute" unicode="&#xfd;" horiz-adv-x="736" 
d="M569 1035l-174 -249h-98l115 249h157zM713 679q11 -54 11 -120t-10 -139.5t-34.5 -151.5t-59.5 -152t-87 -144.5t-115 -124.5q-129 -111 -290 -111q-49 -1 -84 16q-24 62 -2 116l27 16q30 -14 60 -14q97 0 218 123l25 26q-73 52 -134 126.5t-97.5 143.5t-64.5 146.5
t-39.5 126.5t-18.5 93l8 24q81 19 146 0q8 -47 22.5 -98.5t46 -133t88 -164t129.5 -144.5q116 202 100 527q51 35 155 13z" />
    <glyph glyph-name="thorn" unicode="&#xfe;" horiz-adv-x="724" 
d="M412 710q133 0 208.5 -92.5t75.5 -242.5q0 -166 -85.5 -279.5t-218.5 -113.5q-108 0 -180 82l1 -315q-84 -16 -161 0v1185q27 9 82.5 9t79.5 -9v-347q33 54 86 88.5t112 34.5zM359 119q77 0 124.5 75t47.5 186q-1 85 -38 140.5t-97 55.5q-77 0 -129.5 -92t-52.5 -203
q0 -59 43 -110.5t102 -51.5z" />
    <glyph glyph-name="ydieresis" unicode="&#xff;" horiz-adv-x="736" 
d="M223 792q-36 0 -63 27t-27 64q0 36 27 63.5t63 27.5q35 0 62.5 -28t27.5 -63q0 -37 -27.5 -64t-62.5 -27zM538 792q-36 0 -63 27t-27 64q0 36 27 63.5t63 27.5t63 -27.5t27 -63.5q0 -37 -27 -64t-63 -27zM713 679q11 -54 11 -120t-10 -139.5t-34.5 -151.5t-59.5 -152
t-87 -144.5t-115 -124.5q-129 -111 -290 -111q-49 -1 -84 16q-24 62 -2 116l27 16q30 -14 60 -14q97 0 218 123l25 26q-73 52 -134 126.5t-97.5 143.5t-64.5 146.5t-39.5 126.5t-18.5 93l8 24q81 19 146 0q8 -47 22.5 -98.5t46 -133t88 -164t129.5 -144.5q116 202 100 527
q51 35 155 13z" />
    <glyph glyph-name="Amacron" unicode="&#x100;" horiz-adv-x="898" 
d="M661 1093v-108h-439v108h439zM516 902q28 -66 109 -272t151.5 -374t109.5 -232l-10 -24q-124 -5 -173 18q-18 26 -74 179h-377l-66 -197h-174l351 902q29 11 78 10.5t75 -10.5zM297 329h286q-28 79 -83 240t-62 180z" />
    <glyph glyph-name="amacron" unicode="&#x101;" horiz-adv-x="693" 
d="M611 935v-114h-464v114h464zM635 238q0 -74 4.5 -119.5t9.5 -63t15 -38.5l-2 -17h-137q-33 26 -38 105q-103 -123 -249 -123q-86 0 -141.5 49.5t-54.5 126.5q1 108 102 184t263 85q31 1 60 0q-8 71 -40 110.5t-85 39.5q-82 0 -204 -78q-46 18 -57 107q149 104 280 104
q125 1 198.5 -86t74.5 -248zM471 314l2 12q-19 2 -59 2q-106 -3 -162 -45t-56 -95q0 -37 22.5 -59.5t62.5 -22.5q74 0 128.5 66t61.5 142z" />
    <glyph glyph-name="Abreve" unicode="&#x102;" horiz-adv-x="898" 
d="M441 944q-101 0 -162.5 49.5t-61.5 145.5h112q0 -45 30.5 -74.5t81.5 -29.5q53 0 83 30.5t30 73.5h113q0 -93 -64 -144t-162 -51zM516 902q28 -66 109 -272t151.5 -374t109.5 -232l-10 -24q-124 -5 -173 18q-18 26 -74 179h-377l-66 -197h-174l351 902q29 11 78 10.5
t75 -10.5zM297 329h286q-28 79 -83 240t-62 180z" />
    <glyph glyph-name="abreve" unicode="&#x103;" horiz-adv-x="693" 
d="M377 768q-102 0 -165 57.5t-63 168.5h113q0 -51 31 -84t84 -33q55 0 86.5 34t31.5 83h112q0 -108 -65 -167t-165 -59zM635 238q0 -74 4.5 -119.5t9.5 -63t15 -38.5l-2 -17h-137q-33 26 -38 105q-103 -123 -249 -123q-86 0 -141.5 49.5t-54.5 126.5q1 108 102 184t263 85
q31 1 60 0q-8 71 -40 110.5t-85 39.5q-82 0 -204 -78q-46 18 -57 107q149 104 280 104q125 1 198.5 -86t74.5 -248zM471 314l2 12q-19 2 -59 2q-106 -3 -162 -45t-56 -95q0 -37 22.5 -59.5t62.5 -22.5q74 0 128.5 66t61.5 142z" />
    <glyph glyph-name="Aogonek" unicode="&#x104;" horiz-adv-x="898" 
d="M814 -187l73 -61q-27 -45 -75 -75t-93 -30q-60 -1 -98.5 34.5t-38.5 102.5q0 54 31.5 123t84.5 118q-19 36 -69 172h-377l-66 -197h-174l351 902q29 11 78 10.5t75 -10.5q28 -66 109 -272t151.5 -374t109.5 -232l-10 -24q-43 -2 -86 1q-91 -110 -91 -189q0 -23 13 -35
t31 -11q19 0 39 13.5t32 33.5zM297 329h286q-28 79 -83 240t-62 180z" />
    <glyph glyph-name="aogonek" unicode="&#x105;" horiz-adv-x="693" 
d="M634 -202l73 -61q-27 -45 -75 -75t-93 -30q-60 -1 -98.5 34.5t-38.5 102.5q0 53 31 121.5t83 118.5q-25 34 -29 96q-103 -123 -249 -123q-86 0 -141.5 49.5t-54.5 126.5q1 108 102 184t263 85q31 1 60 0q-8 71 -40 110.5t-85 39.5q-82 0 -204 -78q-46 18 -57 107
q149 104 280 104q125 1 198.5 -86t74.5 -248l1 -138q0 -74 4.5 -119.5t9.5 -63t15 -38.5l-2 -17h-40q-103 -119 -103 -203q0 -23 13 -35t31 -11q19 0 39 13.5t32 33.5zM471 314l2 12q-19 2 -59 2q-106 -3 -162 -45t-56 -95q0 -37 22.5 -59.5t62.5 -22.5q74 0 128.5 66
t61.5 142z" />
    <glyph glyph-name="Cacute" unicode="&#x106;" horiz-adv-x="835" 
d="M402 984l161 192h145l-208 -192h-98zM464 -24q-186 0 -310 129.5t-124 348.5q0 197 123.5 334.5t311.5 137.5q159 0 248.5 -93.5t78.5 -247.5q-108 -24 -166 -10q9 91 -36.5 152t-123.5 61q-113 -1 -189.5 -101.5t-76.5 -242.5q0 -146 72 -237t192 -92q132 0 239 84
q33 -13 53 -47t23 -64q-67 -55 -153.5 -83.5t-161.5 -28.5z" />
    <glyph glyph-name="cacute" unicode="&#x107;" horiz-adv-x="674" 
d="M302 785l115 249h157l-174 -249h-98zM347 -18q-134 -2 -226.5 94t-92.5 258q0 157 99.5 266.5t244.5 109.5q131 0 207.5 -91.5t64.5 -232.5q-105 -25 -155 -11q5 91 -30 146t-96 55q-73 0 -122 -70.5t-49 -174.5q0 -92 47 -152.5t119 -61.5q87 0 186 89
q29 -10 49.5 -36.5t26.5 -44t6 -22.5q-131 -119 -279 -121z" />
    <glyph glyph-name="Cdotaccent" unicode="&#x10a;" horiz-adv-x="835" 
d="M465 1008q-28 0 -49 21t-21 50t21 50.5t49 21.5t49 -21.5t21 -50.5q0 -28 -21 -49.5t-49 -21.5zM464 -24q-186 0 -310 129.5t-124 348.5q0 197 123.5 334.5t311.5 137.5q159 0 248.5 -93.5t78.5 -247.5q-108 -24 -166 -10q9 91 -36.5 152t-123.5 61
q-113 -1 -189.5 -101.5t-76.5 -242.5q0 -146 72 -237t192 -92q132 0 239 84q33 -13 53 -47t23 -64q-67 -55 -153.5 -83.5t-161.5 -28.5z" />
    <glyph glyph-name="cdotaccent" unicode="&#x10b;" horiz-adv-x="674" 
d="M375 791q-35 0 -62.5 27.5t-27.5 63.5q0 35 27.5 63t62.5 28q36 0 63 -27.5t27 -63.5q0 -37 -27 -64t-63 -27zM347 -18q-134 -2 -226.5 94t-92.5 258q0 157 99.5 266.5t244.5 109.5q131 0 207.5 -91.5t64.5 -232.5q-105 -25 -155 -11q5 91 -30 146t-96 55
q-73 0 -122 -70.5t-49 -174.5q0 -92 47 -152.5t119 -61.5q87 0 186 89q29 -10 49.5 -36.5t26.5 -44t6 -22.5q-131 -119 -279 -121z" />
    <glyph glyph-name="Ccaron" unicode="&#x10c;" horiz-adv-x="835" 
d="M504 981h-76l-190 228h116l112 -122l112 122h114zM792 585q-108 -24 -166 -10q9 91 -36.5 152t-123.5 61q-113 -1 -189.5 -101.5t-76.5 -242.5q0 -146 72 -237t192 -92q132 0 239 84q33 -13 53 -47t23 -64q-67 -55 -153.5 -83.5t-161.5 -28.5q-186 0 -310 129.5
t-124 348.5q0 197 123.5 334.5t311.5 137.5q159 0 248.5 -93.5t78.5 -247.5z" />
    <glyph glyph-name="ccaron" unicode="&#x10d;" horiz-adv-x="674" 
d="M415 785h-76l-190 239h116l112 -131l112 131h114zM644 386q-105 -25 -155 -11q5 91 -30 146t-96 55q-73 0 -122 -70.5t-49 -174.5q0 -92 47 -152.5t119 -61.5q87 0 186 89q29 -10 49.5 -36.5t26.5 -44t6 -22.5q-131 -119 -279 -121q-134 -2 -226.5 94t-92.5 258
q0 157 99.5 266.5t244.5 109.5q131 0 207.5 -91.5t64.5 -232.5z" />
    <glyph glyph-name="Dcaron" unicode="&#x10e;" horiz-adv-x="841" 
d="M391 981h-76l-190 228h116l112 -122l112 122h114zM352 926q218 0 338.5 -126.5t120.5 -335.5q0 -222 -116.5 -352.5t-325.5 -130.5q-97 0 -163.5 9.5t-146.5 35.5v860q134 40 293 40zM641 460q1 150 -75.5 242t-215.5 92q-64 0 -127 -10v-656q64 -14 147 -14
q132 0 201 93.5t70 252.5z" />
    <glyph glyph-name="dcaron" unicode="&#x10f;" horiz-adv-x="868" 
d="M848 1087h154l-53 -333h-117zM674 934v-755q0 -93 13 -159v-20h-137q-17 30 -28 87q-83 -105 -210 -105q-124 0 -204 98t-80 238q0 169 87.5 280.5t233.5 111.5q49 0 92.5 -24t71.5 -65v313q23 9 79 9t82 -9zM349 119q71 0 117.5 85.5t46.5 214.5q0 67 -41.5 112
t-97.5 45q-76 0 -128 -68t-52 -171q-1 -96 42.5 -157t112.5 -61z" />
    <glyph glyph-name="Dcroat" unicode="&#x110;" horiz-adv-x="903" 
d="M415 926q218 0 338.5 -126.5t120.5 -335.5q0 -222 -116.5 -352.5t-325.5 -130.5q-98 0 -164.5 9.5t-145.5 35.5v378h-80v126h80v356q132 40 293 40zM703 460q1 150 -75 242t-216 92q-58 0 -126 -9v-255h180v-126h-180v-276q64 -14 146 -14q133 0 202 93.5t69 252.5z" />
    <glyph glyph-name="dcroat" unicode="&#x111;" horiz-adv-x="748" 
d="M759 775h-85v-596q0 -93 13 -159v-20h-137q-17 30 -28 87q-83 -105 -210 -105q-124 0 -204 98t-80 238q0 169 87.5 280.5t233.5 111.5q49 0 92.5 -24t71.5 -65v154h-192v84h192v75q23 9 79 9t82 -9v-75h85v-84zM349 119q71 0 117.5 85.5t46.5 214.5q0 67 -41.5 112
t-97.5 45q-76 0 -128 -68t-52 -171q-1 -96 42.5 -157t112.5 -61z" />
    <glyph glyph-name="Emacron" unicode="&#x112;" horiz-adv-x="751" 
d="M607 1093v-108h-439v108h439zM707 132q15 -17 15 -62t-15 -70h-648v886l17 16h612q8 -29 -1.5 -71t-24.5 -61h-439v-263h399q7 -31 -2.5 -74.5t-24.5 -57.5h-372v-243h484z" />
    <glyph glyph-name="emacron" unicode="&#x113;" horiz-adv-x="685" 
d="M603 935v-114h-464v114h464zM367 710q141 0 223 -93.5t65 -250.5l-21 -29l-449 -89q19 -64 67 -98t110 -33q99 3 193 88q11 -5 20.5 -12.5t16 -16.5t12.5 -18.5t9.5 -18.5t6 -16t4.5 -11l1 -5q-129 -125 -279 -125q-132 -1 -224 91t-94 246q-2 164 93.5 277.5
t245.5 113.5zM503 418q5 73 -33 119.5t-103 46.5q-77 0 -131 -65.5t-62 -161.5z" />
    <glyph glyph-name="Ebreve" unicode="&#x114;" horiz-adv-x="751" 
d="M387 944q-101 0 -162.5 49.5t-61.5 145.5h112q0 -45 30.5 -74.5t81.5 -29.5q53 0 83 30.5t30 73.5h113q0 -93 -64 -144t-162 -51zM707 132q15 -17 15 -62t-15 -70h-648v886l17 16h612q8 -29 -1.5 -71t-24.5 -61h-439v-263h399q7 -31 -2.5 -74.5t-24.5 -57.5h-372v-243
h484z" />
    <glyph glyph-name="ebreve" unicode="&#x115;" horiz-adv-x="685" 
d="M370 768q-102 0 -165 57.5t-63 168.5h113q0 -51 31 -84t84 -33q55 0 86.5 34t31.5 83h112q0 -108 -65 -167t-165 -59zM367 710q141 0 223 -93.5t65 -250.5l-21 -29l-449 -89q19 -64 67 -98t110 -33q99 3 193 88q11 -5 20.5 -12.5t16 -16.5t12.5 -18.5t9.5 -18.5t6 -16
t4.5 -11l1 -5q-129 -125 -279 -125q-132 -1 -224 91t-94 246q-2 164 93.5 277.5t245.5 113.5zM503 418q5 73 -33 119.5t-103 46.5q-77 0 -131 -65.5t-62 -161.5z" />
    <glyph glyph-name="Edotaccent" unicode="&#x116;" horiz-adv-x="751" 
d="M388 984q-28 0 -49 21t-21 50t21 50.5t49 21.5t49 -21.5t21 -50.5q0 -28 -21 -49.5t-49 -21.5zM707 132q15 -17 15 -62t-15 -70h-648v886l17 16h612q8 -29 -1.5 -71t-24.5 -61h-439v-263h399q7 -31 -2.5 -74.5t-24.5 -57.5h-372v-243h484z" />
    <glyph glyph-name="edotaccent" unicode="&#x117;" horiz-adv-x="685" 
d="M371 791q-35 0 -62.5 27.5t-27.5 63.5q0 35 27.5 63t62.5 28q36 0 63 -27.5t27 -63.5q0 -37 -27 -64t-63 -27zM367 710q141 0 223 -93.5t65 -250.5l-21 -29l-449 -89q19 -64 67 -98t110 -33q99 3 193 88q11 -5 20.5 -12.5t16 -16.5t12.5 -18.5t9.5 -18.5t6 -16t4.5 -11
l1 -5q-129 -125 -279 -125q-132 -1 -224 91t-94 246q-2 164 93.5 277.5t245.5 113.5zM503 418q5 73 -33 119.5t-103 46.5q-77 0 -131 -65.5t-62 -161.5z" />
    <glyph glyph-name="Eogonek" unicode="&#x118;" horiz-adv-x="751" 
d="M707 0h-247q-89 -108 -89 -187q0 -23 13 -35t31 -11q19 0 39 13.5t32 33.5l73 -61q-27 -45 -75 -75t-93 -30q-60 -1 -98.5 34.5t-38.5 102.5q0 47 24 106.5t67 108.5h-286v886l17 16h612q8 -29 -1.5 -71t-24.5 -61h-439v-263h399q7 -31 -2.5 -74.5t-24.5 -57.5h-372v-243
h484q15 -17 15 -62t-15 -70z" />
    <glyph glyph-name="eogonek" unicode="&#x119;" horiz-adv-x="685" 
d="M367 710q141 0 223 -93.5t65 -250.5l-21 -29l-449 -89q19 -64 67 -98t110 -33q99 3 193 88q11 -5 20.5 -12.5t16 -16.5t12.5 -18.5t9.5 -18.5t6 -16t4.5 -11l1 -5q-115 -110 -245 -123q-98 -116 -98 -198q0 -23 13 -35t31 -11q19 0 39 13.5t32 33.5l73 -61
q-27 -45 -75 -75t-93 -30q-60 -1 -98.5 34.5t-38.5 102.5q0 51 29 117t78 115q-106 24 -174 111.5t-70 217.5q-2 164 93.5 277.5t245.5 113.5zM503 418q5 73 -33 119.5t-103 46.5q-77 0 -131 -65.5t-62 -161.5z" />
    <glyph glyph-name="Ecaron" unicode="&#x11a;" horiz-adv-x="751" 
d="M427 957h-76l-190 228h116l112 -122l112 122h114zM707 132q15 -17 15 -62t-15 -70h-648v886l17 16h612q8 -29 -1.5 -71t-24.5 -61h-439v-263h399q7 -31 -2.5 -74.5t-24.5 -57.5h-372v-243h484z" />
    <glyph glyph-name="ecaron" unicode="&#x11b;" horiz-adv-x="685" 
d="M410 785h-76l-190 239h116l112 -131l112 131h114zM367 710q141 0 223 -93.5t65 -250.5l-21 -29l-449 -89q19 -64 67 -98t110 -33q99 3 193 88q11 -5 20.5 -12.5t16 -16.5t12.5 -18.5t9.5 -18.5t6 -16t4.5 -11l1 -5q-129 -125 -279 -125q-132 -1 -224 91t-94 246
q-2 164 93.5 277.5t245.5 113.5zM503 418q5 73 -33 119.5t-103 46.5q-77 0 -131 -65.5t-62 -161.5z" />
    <glyph glyph-name="Gbreve" unicode="&#x11e;" horiz-adv-x="840" 
d="M446 968q-101 0 -162.5 49.5t-61.5 145.5h112q0 -45 30.5 -74.5t81.5 -29.5q52 0 82.5 30.5t30.5 73.5h113q0 -93 -64 -144t-162 -51zM450 788q-116 0 -183 -97t-67 -244q0 -146 70.5 -236.5t192.5 -90.5q97 0 177 35v181h-237q-7 31 2.5 74.5t23.5 57.5h350l19 -21v-359
q-58 -51 -152 -78.5t-183 -27.5q-188 0 -310.5 127.5t-122.5 344.5q0 125 48.5 231.5t145.5 173.5t223 67q154 0 255 -90.5t96 -225.5q-33 -8 -79 -12.5t-79 1.5q-7 89 -60 139t-130 50z" />
    <glyph glyph-name="gbreve" unicode="&#x11f;" horiz-adv-x="743" 
d="M367 768q-102 0 -165 57.5t-63 168.5h113q0 -51 31 -84t84 -33q55 0 86.5 34t31.5 83h112q0 -108 -65 -167t-165 -59zM549 692q61 6 141 -12v-21q-13 -97 -13 -168v-405q0 -175 -89.5 -275.5t-226.5 -102.5q-154 -2 -304 113q13 88 63 118q131 -99 231 -97q77 2 127 65
t50 174v18q-76 -117 -193 -117q-134 0 -220.5 91t-86.5 245q0 169 89 280.5t232 111.5q55 0 103 -30t80 -78v1zM351 119q69 0 115 82t47 227q-2 55 -43 101.5t-96 46.5q-84 0 -132 -72.5t-48 -169.5q0 -93 42 -154t115 -61z" />
    <glyph glyph-name="Gdotaccent" unicode="&#x120;" horiz-adv-x="840" 
d="M447 1008q-28 0 -49 21t-21 50t21 50.5t49 21.5t49 -21.5t21 -50.5q0 -28 -21 -49.5t-49 -21.5zM450 788q-116 0 -183 -97t-67 -244q0 -146 70.5 -236.5t192.5 -90.5q97 0 177 35v181h-237q-7 31 2.5 74.5t23.5 57.5h350l19 -21v-359q-58 -51 -152 -78.5t-183 -27.5
q-188 0 -310.5 127.5t-122.5 344.5q0 125 48.5 231.5t145.5 173.5t223 67q154 0 255 -90.5t96 -225.5q-33 -8 -79 -12.5t-79 1.5q-7 89 -60 139t-130 50z" />
    <glyph glyph-name="gdotaccent" unicode="&#x121;" horiz-adv-x="743" 
d="M368 791q-36 0 -63 27.5t-27 63.5q0 35 27.5 63t62.5 28q36 0 63 -27.5t27 -63.5q0 -37 -27 -64t-63 -27zM549 692q61 6 141 -12v-21q-13 -97 -13 -168v-405q0 -175 -89.5 -275.5t-226.5 -102.5q-154 -2 -304 113q13 88 63 118q131 -99 231 -97q77 2 127 65t50 174v18
q-76 -117 -193 -117q-134 0 -220.5 91t-86.5 245q0 169 89 280.5t232 111.5q55 0 103 -30t80 -78v1zM351 119q69 0 115 82t47 227q-2 55 -43 101.5t-96 46.5q-84 0 -132 -72.5t-48 -169.5q0 -93 42 -154t115 -61z" />
    <glyph glyph-name="uni0122" unicode="&#x122;" horiz-adv-x="840" 
d="M450 788q-116 0 -183 -97t-67 -244q0 -146 70.5 -236.5t192.5 -90.5q97 0 177 35v181h-237q-7 31 2.5 74.5t23.5 57.5h350l19 -21v-359q-58 -51 -152 -78.5t-183 -27.5q-188 0 -310.5 127.5t-122.5 344.5q0 125 48.5 231.5t145.5 173.5t223 67q154 0 255 -90.5t96 -225.5
q-33 -8 -79 -12.5t-79 1.5q-7 89 -60 139t-130 50zM332 -309l40 227h124l-58 -227h-106z" />
    <glyph glyph-name="uni0123" unicode="&#x123;" horiz-adv-x="743" 
d="M479 1032l-58 -245h-124l76 245h106zM549 692q61 6 141 -12v-21q-13 -97 -13 -168v-405q0 -175 -89.5 -275.5t-226.5 -102.5q-154 -2 -304 113q13 88 63 118q131 -99 231 -97q77 2 127 65t50 174v18q-76 -117 -193 -117q-134 0 -220.5 91t-86.5 245q0 169 89 280.5
t232 111.5q55 0 103 -30t80 -78v1zM351 119q69 0 115 82t47 227q-2 55 -43 101.5t-96 46.5q-84 0 -132 -72.5t-48 -169.5q0 -93 42 -154t115 -61z" />
    <glyph glyph-name="Hcircumflex" unicode="&#x124;" horiz-adv-x="811" 
d="M403 1078l-112 -119h-115l190 222h75l189 -222h-114zM588 902q31 11 85 9t79 -9v-902h-164v345h-365v-345h-164v902q30 11 85.5 9t78.5 -9v-424h365v424z" />
    <glyph glyph-name="hcircumflex" unicode="&#x125;" horiz-adv-x="723" 
d="M388 1099l-112 -126h-116l190 239h76l188 -239h-114zM433 710q122 0 186.5 -89t64.5 -253v-368h-162v348q0 105 -30.5 162t-92.5 57q-73 0 -129 -83t-56 -192v-292h-162v934q28 9 82.5 9t79.5 -9v-321q89 97 219 97z" />
    <glyph glyph-name="Hbar" unicode="&#x126;" horiz-adv-x="865" 
d="M817 738v-126h-41v-612h-164v345h-364v-345h-164v612h-36v126h36v164q30 11 85 9t79 -9v-164h364v164q32 11 85.5 9t78.5 -9v-164h41zM612 478v134h-364v-134h364z" />
    <glyph glyph-name="hbar" unicode="&#x127;" horiz-adv-x="714" 
d="M425 710q121 0 185.5 -89t64.5 -253v-368h-161v348q0 104 -31 161.5t-93 57.5q-73 0 -128.5 -83t-55.5 -192v-292h-162v791h-70v81h70v62q28 9 82.5 9t79.5 -9v-62h260v-81h-260v-178q89 97 219 97z" />
    <glyph glyph-name="Imacron" unicode="&#x12a;" horiz-adv-x="271" 
d="M-23 985v108h317v-108h-317zM59 0v903q29 11 79.5 9t72.5 -9v-903h-152z" />
    <glyph glyph-name="imacron" unicode="&#x12b;" horiz-adv-x="294" 
d="M-67 821v114h428v-114h-428zM66 0v679q26 8 83 8t79 -8v-679h-162z" />
    <glyph glyph-name="Iogonek" unicode="&#x12e;" horiz-adv-x="271" 
d="M195 -175l73 -61q-27 -45 -75 -75t-93 -30q-60 -1 -98.5 34.5t-38.5 102.5q0 48 25.5 110t70.5 111v886q29 11 79.5 9t72.5 -9v-903h-51q-80 -102 -80 -176q0 -23 13 -35t31 -11q19 0 39 13.5t32 33.5z" />
    <glyph glyph-name="iogonek" unicode="&#x12f;" horiz-adv-x="294" 
d="M146 791q-36 0 -63 27.5t-27 63.5q0 35 27.5 63t62.5 28q36 0 63 -27.5t27 -63.5q0 -37 -27 -64t-63 -27zM236 -207l73 -61q-27 -45 -75 -75t-93 -30q-60 -1 -98.5 34.5t-38.5 102.5q0 52 30 119.5t81 116.5h-49v679q26 8 83 8t79 -8v-677h2q-109 -122 -109 -210
q0 -23 13 -35t31 -11q19 0 39 13.5t32 33.5z" />
    <glyph glyph-name="Idotaccent" unicode="&#x130;" horiz-adv-x="271" 
d="M135 984q-28 0 -49 21t-21 50t21 50.5t49 21.5t49 -21.5t21 -50.5q0 -28 -21 -49.5t-49 -21.5zM59 0v903q29 11 79.5 9t72.5 -9v-903h-152z" />
    <glyph glyph-name="dotlessi" unicode="&#x131;" horiz-adv-x="294" 
d="M66 0v679q26 8 83 8t79 -8v-679h-162z" />
    <glyph glyph-name="IJ" unicode="&#x132;" horiz-adv-x="1021" 
d="M59 0v903q29 11 79.5 9t72.5 -9v-903h-152zM604 -18q-98 0 -189 48.5t-161 134.5q11 39 36.5 71t52.5 41q48 -73 113 -115t131 -42q104 0 157 75t53 199v508q36 9 90 8t74 -8v-531q0 -104 -40 -191t-123 -142.5t-194 -55.5z" />
    <glyph glyph-name="ij" unicode="&#x133;" horiz-adv-x="601" 
d="M146 791q-36 0 -63 27.5t-27 63.5q0 35 27.5 63t62.5 28q36 0 63 -27.5t27 -63.5q0 -37 -27 -64t-63 -27zM452 791q-36 0 -63 27t-27 64q0 36 27 63.5t63 27.5q35 0 62.5 -28t27.5 -63q0 -36 -27 -63.5t-63 -27.5zM66 0v679q26 8 83 8t79 -8v-679h-162zM352 -251
q-42 0 -92 18q-9 29 1.5 73.5t28.5 65.5q27 -10 40 -10q25 0 34 35.5t9 124.5v623q26 8 82.5 8t78.5 -8v-694q0 -107 -49 -172t-133 -64z" />
    <glyph glyph-name="Jcircumflex" unicode="&#x134;" horiz-adv-x="796" 
d="M692 1182l189 -222h-114l-113 119l-112 -119h-115l190 222h75zM573 902q35 9 89 8t75 -8v-531q0 -104 -40 -191t-123 -142.5t-195 -55.5q-98 0 -188.5 48.5t-160.5 134.5q11 39 36.5 71t52.5 41q48 -73 112.5 -115t130.5 -42q104 0 157.5 75t53.5 199v508z" />
    <glyph glyph-name="jcircumflex" unicode="&#x135;" horiz-adv-x="307" 
d="M197 1024l188 -239h-114l-112 126l-112 -126h-116l190 239h76zM79 679q26 8 82.5 8t78.5 -8v-694q0 -107 -49 -172t-133 -64q-42 0 -92 18q-9 29 1.5 73.5t28.5 65.5q27 -10 40 -10q25 0 34 35.5t9 124.5v623z" />
    <glyph glyph-name="uni0136" unicode="&#x136;" horiz-adv-x="895" 
d="M507 457q168 -215 234 -287q68 -74 135 -131l-1 -24q-22 -8 -72 -17t-93 -9q-82 57 -330 386q-91 -53 -157 -84v-291h-164v902q30 11 86 9t78 -9v-458q136 69 227 136q217 160 206 313q47 32 153 12q17 -90 -45.5 -199t-190.5 -203q-22 -16 -66 -46zM307 -301l40 227h124
l-58 -227h-106z" />
    <glyph glyph-name="uni0137" unicode="&#x137;" horiz-adv-x="783" 
d="M483 341q78 -93 102.5 -122.5t67 -77.5t63.5 -67t41 -31v-26q-23 -9 -78 -16.5t-104 -6.5q-41 21 -223 254q-64 -41 -138 -76v-172h-162v934q33 11 83.5 11t78.5 -11v-605q65 39 133 89q90 68 135 125.5t42 123.5q64 29 172 12q36 -162 -207 -333zM273 -299l40 227h124
l-58 -227h-106z" />
    <glyph glyph-name="kgreenlandic" unicode="&#x138;" horiz-adv-x="783" 
d="M483 341q78 -93 102.5 -122.5t67 -77.5t63.5 -67t41 -31v-26q-23 -9 -78 -16.5t-104 -6.5q-41 21 -223 254q-64 -41 -138 -76v-172h-162v679q33 11 83.5 11t78.5 -11v-350q65 39 133 89q90 68 135 125.5t42 123.5q64 29 172 12q36 -162 -207 -333z" />
    <glyph glyph-name="Lacute" unicode="&#x139;" horiz-adv-x="745" 
d="M87 960l161 192h145l-208 -192h-98zM89 0l-30 31v871q31 11 84.5 9.5t79.5 -9.5v-770h477q15 -18 15.5 -62t-15.5 -70h-611z" />
    <glyph glyph-name="lacute" unicode="&#x13a;" horiz-adv-x="358" 
d="M86 992l161 192h145l-208 -192h-98zM232 -18q-162 0 -162 209v743q27 9 78.5 9.5t83.5 -9.5v-692q0 -128 52 -128q9 0 43 10q10 -25 12 -59t-6 -61q-63 -22 -101 -22z" />
    <glyph glyph-name="uni013B" unicode="&#x13b;" horiz-adv-x="745" 
d="M89 0l-30 31v871q31 11 84.5 9.5t79.5 -9.5v-770h477q15 -18 15.5 -62t-15.5 -70h-611zM283 -299l40 227h124l-58 -227h-106z" />
    <glyph glyph-name="uni013C" unicode="&#x13c;" horiz-adv-x="358" 
d="M232 -18q-162 0 -162 209v743q27 9 78.5 9.5t83.5 -9.5v-692q0 -128 52 -128q9 0 43 10q10 -25 12 -59t-6 -61q-63 -22 -101 -22zM117 -309l40 227h124l-58 -227h-106z" />
    <glyph glyph-name="Lcaron" unicode="&#x13d;" horiz-adv-x="745" 
d="M460 822l16 333h154l-54 -333h-116zM89 0l-30 31v871q31 11 84.5 9.5t79.5 -9.5v-770h477q15 -18 15.5 -62t-15.5 -70h-611z" />
    <glyph glyph-name="lcaron" unicode="&#x13e;" horiz-adv-x="358" 
d="M349 852l16 333h154l-54 -333h-116zM232 -18q-162 0 -162 209v743q27 9 78.5 9.5t83.5 -9.5v-692q0 -128 52 -128q9 0 43 10q10 -25 12 -59t-6 -61q-63 -22 -101 -22z" />
    <glyph glyph-name="Lslash" unicode="&#x141;" horiz-adv-x="823" 
d="M778 132q15 -18 15 -62t-15 -70h-611l-30 31v286l-98 -38v150l98 38v435q31 11 84.5 9.5t79.5 -9.5v-370l184 72v-150l-184 -72v-250h477z" />
    <glyph glyph-name="lslash" unicode="&#x142;" horiz-adv-x="399" 
d="M365 548l-112 -51v-255q0 -128 52 -128q11 0 43 10q10 -24 12.5 -59t-5.5 -61q-63 -22 -101 -22q-162 0 -162 209v232l-100 -46v131l100 46v380q26 9 77.5 9.5t83.5 -9.5v-306l112 52v-132z" />
    <glyph glyph-name="Nacute" unicode="&#x143;" horiz-adv-x="893" 
d="M690 1152l-208 -192h-98l161 192h145zM670 902q28 11 84.5 9t79.5 -9v-902h-115l-496 612v-612h-164v873q15 18 55.5 30t59.5 5l496 -624v618z" />
    <glyph glyph-name="nacute" unicode="&#x144;" horiz-adv-x="748" 
d="M604 1034l-174 -249h-98l115 249h157zM446 710q250 0 250 -342v-368h-162v348q0 228 -123 228q-71 0 -127.5 -84.5t-56.5 -187.5v-304h-161v505q0 84 -14 151v23q87 18 151 11q12 -44 12 -84v-10q42 52 102.5 83t128.5 31z" />
    <glyph glyph-name="uni0145" unicode="&#x145;" horiz-adv-x="893" 
d="M670 902q28 11 84.5 9t79.5 -9v-902h-115l-496 612v-612h-164v873q15 18 55.5 30t59.5 5l496 -624v618zM351 -299l40 227h124l-58 -227h-106z" />
    <glyph glyph-name="uni0146" unicode="&#x146;" horiz-adv-x="748" 
d="M446 710q250 0 250 -342v-368h-162v348q0 228 -123 228q-71 0 -127.5 -84.5t-56.5 -187.5v-304h-161v505q0 84 -14 151v23q87 18 151 11q12 -44 12 -84v-10q42 52 102.5 83t128.5 31zM278 -299l40 227h124l-58 -227h-106z" />
    <glyph glyph-name="Ncaron" unicode="&#x147;" horiz-adv-x="893" 
d="M486 957h-76l-190 228h116l112 -122l112 122h114zM670 902q28 11 84.5 9t79.5 -9v-902h-115l-496 612v-612h-164v873q15 18 55.5 30t59.5 5l496 -624v618z" />
    <glyph glyph-name="ncaron" unicode="&#x148;" horiz-adv-x="748" 
d="M445 785h-76l-190 239h116l112 -131l112 131h114zM446 710q250 0 250 -342v-368h-162v348q0 228 -123 228q-71 0 -127.5 -84.5t-56.5 -187.5v-304h-161v505q0 84 -14 151v23q87 18 151 11q12 -44 12 -84v-10q42 52 102.5 83t128.5 31z" />
    <glyph glyph-name="Eng" unicode="&#x14a;" horiz-adv-x="881" 
d="M465 -369q-98 0 -189.5 45.5t-160.5 125.5q11 39 36.5 71t52.5 41q52 -68 121 -106.5t140 -38.5q98 0 157 74t59 187l-458 579v-609h-164v856q15 18 55.5 30.5t59.5 5.5l483 -609v603q28 11 84.5 9t79.5 -9l1 -877q0 -159 -98 -268.5t-259 -109.5z" />
    <glyph glyph-name="eng" unicode="&#x14b;" horiz-adv-x="773" 
d="M446 710q250 0 250 -342v-383q0 -107 -49 -172t-133 -64q-44 0 -93 18q-9 29 2 73.5t29 65.5q27 -10 39 -10q25 0 34 35t9 125v292q0 206 -123 206q-71 0 -127.5 -78t-56.5 -172v-304h-161v505q0 84 -14 151v23q87 18 151 11q13 -42 16 -104q43 57 103 90.5t124 33.5z
" />
    <glyph glyph-name="Omacron" unicode="&#x14c;" horiz-adv-x="876" 
d="M240 999v108h439v-108h-439zM403 -18q-111 0 -197 58.5t-131 155.5t-45 214q0 140 55 257.5t157.5 188t231.5 70.5q160 0 265.5 -131t106.5 -315q0 -97 -32.5 -187t-89.5 -159t-141 -110.5t-180 -41.5zM409 120q76 0 137.5 54t95 138t34.5 179q1 129 -57.5 212.5
t-157.5 83.5q-116 0 -189 -110.5t-72 -269.5q0 -122 54 -204.5t155 -82.5z" />
    <glyph glyph-name="omacron" unicode="&#x14d;" horiz-adv-x="732" 
d="M146 821v114h464v-114h-464zM340 -18q-145 0 -228.5 96.5t-83.5 243.5q0 160 106 274t260 114q143 0 225.5 -93t84.5 -241q4 -172 -99.5 -283t-264.5 -111zM349 117q81 0 135.5 73.5t54.5 169.5q0 91 -42.5 153.5t-112.5 62.5q-81 0 -136 -75.5t-55 -179.5
q0 -87 40.5 -145.5t115.5 -58.5z" />
    <glyph glyph-name="Ohungarumlaut" unicode="&#x150;" horiz-adv-x="876" 
d="M277 984l125 176h127l-167 -176h-85zM474 984l139 176h146l-198 -176h-87zM403 -18q-111 0 -197 58.5t-131 155.5t-45 214q0 140 55 257.5t157.5 188t231.5 70.5q160 0 265.5 -131t106.5 -315q0 -97 -32.5 -187t-89.5 -159t-141 -110.5t-180 -41.5zM409 120
q76 0 137.5 54t95 138t34.5 179q1 129 -57.5 212.5t-157.5 83.5q-116 0 -189 -110.5t-72 -269.5q0 -122 54 -204.5t155 -82.5z" />
    <glyph glyph-name="ohungarumlaut" unicode="&#x151;" horiz-adv-x="732" 
d="M210 785l108 248h146l-156 -248h-98zM425 785l122 248h158l-181 -248h-99zM340 -18q-145 0 -228.5 96.5t-83.5 243.5q0 160 106 274t260 114q143 0 225.5 -93t84.5 -241q4 -172 -99.5 -283t-264.5 -111zM349 117q81 0 135.5 73.5t54.5 169.5q0 91 -42.5 153.5
t-112.5 62.5q-81 0 -136 -75.5t-55 -179.5q0 -87 40.5 -145.5t115.5 -58.5z" />
    <glyph glyph-name="OE" unicode="&#x152;" horiz-adv-x="1379" 
d="M1335 132q15 -17 15 -62t-15 -70h-648v100q-124 -118 -289 -118q-111 0 -196 58t-128.5 155t-43.5 215q0 140 56.5 257.5t160.5 188t233 70.5q114 0 207 -75v19l16 16h613q8 -30 -1.5 -71.5t-24.5 -60.5h-439v-253h398q8 -31 -1.5 -74.5t-24.5 -57.5h-372v-237h484z
M677 491q2 129 -57 212.5t-158 83.5q-77 0 -138 -52t-93 -138.5t-31 -189.5q0 -122 54 -204.5t156 -82.5q76 0 137.5 54t95 138t34.5 179z" />
    <glyph glyph-name="oe" unicode="&#x153;" horiz-adv-x="1215" 
d="M897 710q141 0 223 -95t65 -252l-21 -29l-448 -86q19 -64 66.5 -98t109.5 -32q99 2 193 87q11 -5 20.5 -12.5t16 -16.5t12.5 -18.5t9.5 -18.5t6 -16t4.5 -11l1 -5q-129 -125 -279 -125q-78 -1 -145 33t-111 97q-103 -130 -280 -130q-145 0 -228.5 96.5t-83.5 243.5
q0 160 106 274t260 114q165 0 249 -123q98 123 254 123zM1034 421q5 72 -33.5 117.5t-103.5 45.5q-75 0 -129 -63t-63 -155zM349 117q81 0 135.5 73.5t54.5 169.5q0 91 -42.5 153.5t-112.5 62.5q-81 0 -136 -75.5t-55 -179.5q0 -87 40.5 -145.5t115.5 -58.5z" />
    <glyph glyph-name="Racute" unicode="&#x154;" horiz-adv-x="882" 
d="M637 1166l-208 -192h-98l161 192h145zM570 314q149 -184 264 -280l-2 -26q-20 -7 -72 -14t-97 -6q-49 28 -267 294h-10q-78 0 -163 20v-302h-164v882q164 44 342 44q177 0 275.5 -84.5t98.5 -234.5q1 -103 -54 -179.5t-151 -113.5zM223 781v-346q81 -21 164 -21
q98 -1 158 51t60 143q0 82 -56.5 134t-164.5 52q-86 0 -161 -13z" />
    <glyph glyph-name="racute" unicode="&#x155;" horiz-adv-x="542" 
d="M475 1046l-174 -249h-98l115 249h157zM512 684q9 -27 -7 -71.5t-38 -67.5q-44 19 -82 19q-72 -1 -114 -74t-42 -190v-300h-163v505q0 84 -14 151v23q82 18 144 11q12 -38 12 -84v-32q30 61 79.5 98.5t107.5 37.5q59 0 117 -26z" />
    <glyph glyph-name="uni0156" unicode="&#x156;" horiz-adv-x="882" 
d="M570 314q149 -184 264 -280l-2 -26q-20 -7 -72 -14t-97 -6q-49 28 -267 294h-10q-78 0 -163 20v-302h-164v882q164 44 342 44q177 0 275.5 -84.5t98.5 -234.5q1 -103 -54 -179.5t-151 -113.5zM223 781v-346q81 -21 164 -21q98 -1 158 51t60 143q0 82 -56.5 134t-164.5 52
q-86 0 -161 -13zM347 -299l40 227h124l-58 -227h-106z" />
    <glyph glyph-name="uni0157" unicode="&#x157;" horiz-adv-x="542" 
d="M512 684q9 -27 -7 -71.5t-38 -67.5q-44 19 -82 19q-72 -1 -114 -74t-42 -190v-300h-163v505q0 84 -14 151v23q82 18 144 11q12 -38 12 -84v-32q30 61 79.5 98.5t107.5 37.5q59 0 117 -26zM28 -299l40 227h124l-58 -227h-106z" />
    <glyph glyph-name="Rcaron" unicode="&#x158;" horiz-adv-x="882" 
d="M433 971h-76l-190 228h116l112 -122l112 122h114zM570 314q149 -184 264 -280l-2 -26q-20 -7 -72 -14t-97 -6q-49 28 -267 294h-10q-78 0 -163 20v-302h-164v882q164 44 342 44q177 0 275.5 -84.5t98.5 -234.5q1 -103 -54 -179.5t-151 -113.5zM223 781v-346
q81 -21 164 -21q98 -1 158 51t60 143q0 82 -56.5 134t-164.5 52q-86 0 -161 -13z" />
    <glyph glyph-name="rcaron" unicode="&#x159;" horiz-adv-x="542" 
d="M316 797h-76l-190 239h116l112 -131l112 131h114zM512 684q9 -27 -7 -71.5t-38 -67.5q-44 19 -82 19q-72 -1 -114 -74t-42 -190v-300h-163v505q0 84 -14 151v23q82 18 144 11q12 -38 12 -84v-32q30 61 79.5 98.5t107.5 37.5q59 0 117 -26z" />
    <glyph glyph-name="Sacute" unicode="&#x15a;" horiz-adv-x="821" 
d="M364 984l161 192h145l-208 -192h-98zM436 -18q-113 0 -219.5 37t-186.5 104q4 29 29.5 71.5t56.5 49.5q68 -60 153 -95t170 -35q86 0 134 42.5t48 105.5q0 65 -50.5 98.5t-155.5 40.5q-150 7 -235 72t-84 186q1 81 47.5 142.5t120.5 93t163 31.5q168 0 261 -83t93 -199
q-31 -9 -76.5 -13.5t-77.5 2.5q-5 73 -56.5 117t-145.5 44q-68 0 -114 -38.5t-46 -93.5q0 -62 48.5 -93.5t125.5 -36.5q352 -20 352 -261q0 -131 -98.5 -210t-256.5 -79z" />
    <glyph glyph-name="sacute" unicode="&#x15b;" horiz-adv-x="698" 
d="M275 785l115 249h157l-174 -249h-98zM364 -18q-204 0 -328 106q25 84 70 114q107 -85 233 -85q67 0 112 24.5t45 63.5q0 43 -42 63.5t-135 26.5q-254 22 -254 191q0 91 80.5 157.5t203.5 66.5q173 0 302 -80q-6 -58 -44 -125q-117 71 -236 71q-65 0 -103.5 -26.5
t-38.5 -59.5q0 -35 32 -53.5t106 -22.5q157 -8 225.5 -59.5t68.5 -148.5q0 -98 -85 -161t-212 -63z" />
    <glyph glyph-name="Scedilla" unicode="&#x15e;" horiz-adv-x="821" 
d="M791 271q0 -125 -90.5 -203t-238.5 -85q4 -22 33.5 -56t38.5 -49q29 -47 29 -99q0 -59 -40 -102.5t-98 -44.5q-74 -2 -136 70l73 77q30 -37 61 -37q16 0 26.5 13.5t10.5 33.5q0 15 -8.5 29t-24.5 31.5t-24 29.5q-38 53 -39 107q-196 20 -334 137q4 29 29.5 71.5
t56.5 49.5q68 -60 153 -95t170 -35q86 0 134 42.5t48 105.5q0 65 -50.5 98.5t-155.5 40.5q-150 7 -235 72t-84 186q1 81 47.5 142.5t120.5 93t163 31.5q168 0 261 -83t93 -199q-31 -9 -76.5 -13.5t-77.5 2.5q-5 73 -56.5 117t-145.5 44q-68 0 -114 -38.5t-46 -93.5
q0 -62 48.5 -93.5t125.5 -36.5q352 -20 352 -261z" />
    <glyph glyph-name="scedilla" unicode="&#x15f;" horiz-adv-x="698" 
d="M661 206q0 -93 -76 -154.5t-194 -68.5q3 -17 13.5 -32t28.5 -35.5t30 -38.5q29 -45 29 -99q0 -59 -40.5 -102t-97.5 -44q-74 -2 -136 69l73 78q30 -38 61 -38q16 0 26.5 13.5t10.5 33.5q0 16 -8.5 29.5t-24.5 31t-24 29.5q-38 53 -39 108q-157 17 -257 102q25 84 70 114
q107 -85 233 -85q67 0 112 24.5t45 63.5q0 43 -42 63.5t-135 26.5q-254 22 -254 191q0 91 80.5 157.5t203.5 66.5q173 0 302 -80q-6 -58 -44 -125q-117 71 -236 71q-65 0 -103.5 -26.5t-38.5 -59.5q0 -35 32 -53.5t106 -22.5q157 -8 225.5 -59.5t68.5 -148.5z" />
    <glyph glyph-name="Scaron" unicode="&#x160;" horiz-adv-x="821" 
d="M466 981h-76l-190 228h116l112 -122l112 122h114zM439 532q352 -20 352 -261q0 -131 -98.5 -210t-256.5 -79q-113 0 -219.5 37t-186.5 104q4 29 29.5 71.5t56.5 49.5q68 -60 153 -95t170 -35q86 0 134 42.5t48 105.5q0 65 -50.5 98.5t-155.5 40.5q-150 7 -235 72t-84 186
q1 81 47.5 142.5t120.5 93t163 31.5q168 0 261 -83t93 -199q-31 -9 -76.5 -13.5t-77.5 2.5q-5 73 -56.5 117t-145.5 44q-68 0 -114 -38.5t-46 -93.5q0 -62 48.5 -93.5t125.5 -36.5z" />
    <glyph glyph-name="scaron" unicode="&#x161;" horiz-adv-x="698" 
d="M389 785h-76l-190 239h116l112 -131l112 131h114zM367 414q157 -8 225.5 -59.5t68.5 -148.5q0 -98 -85 -161t-212 -63q-204 0 -328 106q25 84 70 114q107 -85 233 -85q67 0 112 24.5t45 63.5q0 43 -42 63.5t-135 26.5q-254 22 -254 191q0 91 80.5 157.5t203.5 66.5
q173 0 302 -80q-6 -58 -44 -125q-117 71 -236 71q-65 0 -103.5 -26.5t-38.5 -59.5q0 -35 32 -53.5t106 -22.5z" />
    <glyph glyph-name="uni0162" unicode="&#x162;" horiz-adv-x="823" 
d="M496 770v-770h-48q0 -22 10 -38.5t30.5 -38.5t32.5 -41q29 -47 29 -99q0 -59 -40 -102.5t-98 -44.5q-74 -2 -136 70l73 77q30 -37 61 -37q16 0 26.5 13.5t10.5 33.5q0 15 -8.5 29t-24.5 31.5t-24 29.5q-22 31 -30.5 55.5t-8.5 61.5h-26v770h-303q-7 28 -2 68t18 64h764
q7 -30 -2 -72.5t-25 -59.5h-279z" />
    <glyph glyph-name="uni0163" unicode="&#x163;" horiz-adv-x="514" 
d="M346 -18h-9q6 -16 31.5 -44.5t37.5 -47.5q29 -45 29 -99q0 -59 -40.5 -102t-97.5 -44q-74 -2 -136 69l73 78q30 -38 61 -38q16 0 26.5 13.5t10.5 33.5q0 16 -8.5 29.5t-24.5 31t-24 29.5q-22 31 -30.5 55t-8.5 59q-139 68 -139 308v234h-81v132h81v179q27 14 73.5 22
t87.5 0v-201h213v-132h-213v-223q0 -205 115 -205q34 0 79 18q14 -16 21.5 -61.5t-0.5 -69.5q-67 -24 -127 -24z" />
    <glyph glyph-name="Tcaron" unicode="&#x164;" horiz-adv-x="823" 
d="M442 957h-76l-190 228h116l112 -122l112 122h114zM802 902q7 -30 -2 -72.5t-25 -59.5h-279v-770h-171v770h-303q-7 28 -2 68t18 64h764z" />
    <glyph glyph-name="tcaron" unicode="&#x165;" horiz-adv-x="514" 
d="M407 1121h154l-54 -333h-116zM373 119q34 0 79 18q14 -16 21.5 -61.5t-0.5 -69.5q-67 -24 -127 -24q-116 -1 -182.5 82t-66.5 249v234h-81v132h81v179q27 14 73.5 22t87.5 0v-201h213v-132h-213v-223q0 -205 115 -205z" />
    <glyph glyph-name="Tbar" unicode="&#x166;" horiz-adv-x="846" 
d="M802 770h-280v-281h177v-120h-177v-369h-170v369h-171v120h171v281h-304q-7 28 -2 68t18 64h765q6 -30 -3 -72.5t-24 -59.5z" />
    <glyph glyph-name="tbar" unicode="&#x167;" horiz-adv-x="510" 
d="M448 137q14 -16 21.5 -61.5t-0.5 -69.5q-67 -24 -126 -24q-117 -1 -183.5 82t-66.5 249v35h-81v114h81v115h-81v113h81v168q27 14 73.5 22t88.5 0v-190h213v-113h-213v-115h213v-114h-213v-24q0 -205 114 -205q34 0 79 18z" />
    <glyph glyph-name="Umacron" unicode="&#x16a;" horiz-adv-x="891" 
d="M226 993v108h439v-108h-439zM438 -24q-187 0 -283 108t-96 313v505q28 10 86 8.5t78 -8.5v-512q0 -130 55.5 -202.5t159.5 -72.5q109 0 169.5 79t60.5 208v500q29 10 85 8.5t79 -8.5v-502q0 -189 -102.5 -306.5t-291.5 -117.5z" />
    <glyph glyph-name="umacron" unicode="&#x16b;" horiz-adv-x="743" 
d="M601 935v-114h-464v114h464zM677 225q0 -144 27 -206l-1 -19h-137q-32 28 -35 95q-40 -53 -99 -83t-124 -30q-116 0 -186 76t-70 233v388q66 18 162 0v-360q0 -106 32.5 -154t96.5 -48q82 0 127 79.5t45 210.5v272q31 8 88.5 6t73.5 -6v-454z" />
    <glyph glyph-name="Uring" unicode="&#x16e;" horiz-adv-x="891" 
d="M449 892q-85 0 -136 41.5t-51 108.5q0 64 49.5 106.5t137.5 42.5q85 0 133.5 -42t48.5 -107q0 -64 -52 -107t-130 -43zM446 963q41 0 68.5 22.5t27.5 55.5q0 35 -26.5 57t-69.5 22t-68.5 -22.5t-25.5 -56.5q0 -33 26.5 -55.5t67.5 -22.5zM438 -24q-187 0 -283 108
t-96 313v505q28 10 86 8.5t78 -8.5v-512q0 -130 55.5 -202.5t159.5 -72.5q109 0 169.5 79t60.5 208v500q29 10 85 8.5t79 -8.5v-502q0 -189 -102.5 -306.5t-291.5 -117.5z" />
    <glyph glyph-name="uring" unicode="&#x16f;" horiz-adv-x="743" 
d="M371 768q-85 0 -136 41t-51 108q0 64 49.5 107t137.5 43q85 0 133.5 -42.5t48.5 -107.5q0 -64 -52 -106.5t-130 -42.5zM368 996q-43 0 -68.5 -22.5t-25.5 -56.5q0 -33 26.5 -55.5t67.5 -22.5t68.5 22.5t27.5 55.5q0 35 -26.5 57t-69.5 22zM677 225q0 -144 27 -206l-1 -19
h-137q-32 28 -35 95q-40 -53 -99 -83t-124 -30q-116 0 -186 76t-70 233v388q66 18 162 0v-360q0 -106 32.5 -154t96.5 -48q82 0 127 79.5t45 210.5v272q31 8 88.5 6t73.5 -6v-454z" />
    <glyph glyph-name="Uhungarumlaut" unicode="&#x170;" horiz-adv-x="891" 
d="M263 978l125 176h127l-167 -176h-85zM460 978l139 176h146l-198 -176h-87zM438 -24q-187 0 -283 108t-96 313v505q28 10 86 8.5t78 -8.5v-512q0 -130 55.5 -202.5t159.5 -72.5q109 0 169.5 79t60.5 208v500q29 10 85 8.5t79 -8.5v-502q0 -189 -102.5 -306.5
t-291.5 -117.5z" />
    <glyph glyph-name="uhungarumlaut" unicode="&#x171;" horiz-adv-x="743" 
d="M454 1033l-156 -248h-98l108 248h146zM514 785h-99l122 248h158zM677 225q0 -144 27 -206l-1 -19h-137q-32 28 -35 95q-40 -53 -99 -83t-124 -30q-116 0 -186 76t-70 233v388q66 18 162 0v-360q0 -106 32.5 -154t96.5 -48q82 0 127 79.5t45 210.5v272q31 8 88.5 6
t73.5 -6v-454z" />
    <glyph glyph-name="Uogonek" unicode="&#x172;" horiz-adv-x="891" 
d="M668 902q29 10 85 8.5t79 -8.5v-502q0 -179 -92.5 -295t-264.5 -128q-94 -112 -94 -192q0 -23 13 -35t31 -11q19 0 39 13.5t32 33.5l73 -61q-27 -45 -75 -75t-93 -30q-60 -1 -98.5 34.5t-38.5 102.5q0 49 26.5 111.5t72.5 112.5q-151 21 -227.5 127t-76.5 289v505
q28 10 86 8.5t78 -8.5v-512q0 -130 55.5 -202.5t159.5 -72.5q109 0 169.5 79t60.5 208v500z" />
    <glyph glyph-name="uogonek" unicode="&#x173;" horiz-adv-x="743" 
d="M673 -201l73 -61q-27 -45 -75 -75t-93 -30q-60 -1 -98.5 34.5t-38.5 102.5q0 54 31 122.5t84 117.5q-22 25 -25 85q-40 -53 -99 -83t-124 -30q-116 0 -186 76t-70 233v388q66 18 162 0v-360q0 -106 32.5 -154t96.5 -48q82 0 127 79.5t45 210.5v272q31 8 88.5 6t73.5 -6
v-454q0 -144 27 -206l-1 -19h-43q-102 -116 -102 -202q0 -23 13 -35t31 -11q19 0 39 13.5t32 33.5z" />
    <glyph glyph-name="Wcircumflex" unicode="&#x174;" horiz-adv-x="1232" 
d="M613 1078l-112 -119h-115l190 222h75l189 -222h-114zM1190 902q20 -69 21.5 -170.5t-17.5 -219t-69 -246.5t-126 -236l-50 -30h-165l-30 17q-34 132 -86 306q-16 -62 -55.5 -159.5t-65.5 -143.5l-38 -20h-163l-40 21q-80 271 -163 513t-131 342l9 26q31 8 75 8t79 -8
q58 -117 129 -336.5t125 -428.5h3q39 79 91 211t67 202q-9 45 -50 169q14 23 63 44t91 17q32 -75 93.5 -288t90.5 -355h6q104 166 143.5 384t10.5 370q52 31 152 11z" />
    <glyph glyph-name="wcircumflex" unicode="&#x175;" horiz-adv-x="955" 
d="M489 891l-112 -126h-116l190 239h76l188 -239h-114zM938 679q19 -123 -26 -316.5t-135 -347.5l-27 -15h-154l-27 19q-34 137 -62 212q-12 -41 -38.5 -110t-46.5 -107l-21 -14h-167l-27 18q-25 100 -58.5 213t-57 183.5t-51 151.5t-30.5 89l11 24q34 7 77.5 8t78.5 -8
q32 -78 76.5 -226t78.5 -306h8q58 166 90 320l-34 102q14 25 59.5 46t89.5 15q72 -201 130 -483h10q50 145 74.5 270.5t14.5 250.5q57 31 164 11z" />
    <glyph glyph-name="Ycircumflex" unicode="&#x176;" horiz-adv-x="828" 
d="M411 1078l-112 -119h-115l190 222h75l189 -222h-114zM807 902q35 -290 -277 -592v-310h-164v325q-55 97 -174.5 286.5t-176.5 263.5l11 27q37 7 85.5 8t85.5 -8q40 -42 136.5 -202t137.5 -245q86 89 133.5 219.5t40.5 215.5q55 34 162 12z" />
    <glyph glyph-name="ycircumflex" unicode="&#x177;" horiz-adv-x="736" 
d="M372 912l-112 -126h-116l190 239h76l188 -239h-114zM713 679q11 -54 11 -120t-10 -139.5t-34.5 -151.5t-59.5 -152t-87 -144.5t-115 -124.5q-129 -111 -290 -111q-49 -1 -84 16q-24 62 -2 116l27 16q30 -14 60 -14q97 0 218 123l25 26q-73 52 -134 126.5t-97.5 143.5
t-64.5 146.5t-39.5 126.5t-18.5 93l8 24q81 19 146 0q8 -47 22.5 -98.5t46 -133t88 -164t129.5 -144.5q116 202 100 527q51 35 155 13z" />
    <glyph glyph-name="Ydieresis" unicode="&#x178;" horiz-adv-x="828" 
d="M281 984q-28 0 -49 21.5t-21 49.5q0 29 21 50.5t49 21.5t49.5 -22t21.5 -50t-21.5 -49.5t-49.5 -21.5zM552 984q-28 0 -49.5 21t-21.5 50t21.5 50.5t49.5 21.5q27 0 48.5 -22t21.5 -50t-21.5 -49.5t-48.5 -21.5zM807 902q35 -290 -277 -592v-310h-164v325
q-55 97 -174.5 286.5t-176.5 263.5l11 27q37 7 85.5 8t85.5 -8q40 -42 136.5 -202t137.5 -245q86 89 133.5 219.5t40.5 215.5q55 34 162 12z" />
    <glyph glyph-name="Zacute" unicode="&#x179;" horiz-adv-x="803" 
d="M644 1152l-208 -192h-98l161 192h145zM758 132q15 -17 15 -62t-15 -70h-698q-14 13 -23.5 50t-5.5 63q104 185 238.5 370.5t255.5 286.5h-469q-14 17 -15 61.5t15 70.5h673q14 -11 24 -55.5t7 -73.5q-130 -96 -280.5 -288.5t-238.5 -352.5h517z" />
    <glyph glyph-name="zacute" unicode="&#x17a;" horiz-adv-x="682" 
d="M539 1034l-174 -249h-98l115 249h157zM651 135q15 -11 15.5 -59.5t-15.5 -75.5h-600q-16 13 -26.5 51t-8.5 68q97 150 178 247.5t197 178.5h-335q-15 18 -15.5 62t15.5 72h564q16 -12 26 -61t7 -81q-200 -85 -419 -402h417z" />
    <glyph glyph-name="Zdotaccent" unicode="&#x17b;" horiz-adv-x="803" 
d="M401 984q-28 0 -49 21t-21 50t21 50.5t49 21.5t49 -21.5t21 -50.5q0 -28 -21 -49.5t-49 -21.5zM758 132q15 -17 15 -62t-15 -70h-698q-14 13 -23.5 50t-5.5 63q104 185 238.5 370.5t255.5 286.5h-469q-14 17 -15 61.5t15 70.5h673q14 -11 24 -55.5t7 -73.5
q-130 -96 -280.5 -288.5t-238.5 -352.5h517z" />
    <glyph glyph-name="zdotaccent" unicode="&#x17c;" horiz-adv-x="682" 
d="M341 791q-35 0 -62.5 27.5t-27.5 63.5q0 35 27.5 63t62.5 28q36 0 63 -27.5t27 -63.5q0 -37 -27 -64t-63 -27zM651 135q15 -11 15.5 -59.5t-15.5 -75.5h-600q-16 13 -26.5 51t-8.5 68q97 150 178 247.5t197 178.5h-335q-15 18 -15.5 62t15.5 72h564q16 -12 26 -61t7 -81
q-200 -85 -419 -402h417z" />
    <glyph glyph-name="Zcaron" unicode="&#x17d;" horiz-adv-x="803" 
d="M440 957h-76l-190 228h116l112 -122l112 122h114zM758 132q15 -17 15 -62t-15 -70h-698q-14 13 -23.5 50t-5.5 63q104 185 238.5 370.5t255.5 286.5h-469q-14 17 -15 61.5t15 70.5h673q14 -11 24 -55.5t7 -73.5q-130 -96 -280.5 -288.5t-238.5 -352.5h517z" />
    <glyph glyph-name="zcaron" unicode="&#x17e;" horiz-adv-x="682" 
d="M380 785h-76l-190 239h116l112 -131l112 131h114zM651 135q15 -11 15.5 -59.5t-15.5 -75.5h-600q-16 13 -26.5 51t-8.5 68q97 150 178 247.5t197 178.5h-335q-15 18 -15.5 62t15.5 72h564q16 -12 26 -61t7 -81q-200 -85 -419 -402h417z" />
    <glyph glyph-name="longs" unicode="&#x17f;" horiz-adv-x="375" 
d="M100 0v627q0 165 56 247t175 83q61 0 138 -21q7 -22 -3 -68t-24 -62q-43 16 -81 16q-54 -1 -76.5 -48.5t-22.5 -141.5v-632h-162z" />
    <glyph glyph-name="florin" unicode="&#x192;" horiz-adv-x="469" 
d="M387 440v-134h-80q11 -165 11 -281q0 -107 -53 -168.5t-140 -61.5v133q26 0 41 29.5t15 80.5q0 80 -13 268h-86v134h78q-7 122 -7 211q0 110 51 169.5t144 59.5v-134q-27 0 -42 -29.5t-15 -81.5q0 -79 7 -195h89z" />
    <glyph glyph-name="uni01C7" unicode="&#x1c7;" horiz-adv-x="1496" 
d="M89 0l-30 31v871q31 11 84.5 9.5t79.5 -9.5v-770h477q15 -18 15.5 -62t-15.5 -70h-611zM1079 -18q-98 0 -188.5 48.5t-160.5 134.5q11 39 36.5 71t52.5 41q48 -73 112.5 -115t130.5 -42q104 0 157.5 75t53.5 199v508q35 9 89 8t75 -8v-531q0 -104 -40 -191t-123 -142.5
t-195 -55.5z" />
    <glyph glyph-name="uni01C8" unicode="&#x1c8;" horiz-adv-x="1007" 
d="M858 791q-36 0 -63 27t-27 64q0 36 27 63.5t63 27.5q35 0 62.5 -28t27.5 -63q0 -36 -27 -63.5t-63 -27.5zM89 0l-30 31v871q31 11 84.5 9.5t79.5 -9.5v-770h477q15 -18 15.5 -62t-15.5 -70h-611zM758 -251q-42 0 -92 18q-9 29 1.5 73.5t28.5 65.5q28 -10 40 -10
q25 0 34 35.5t9 124.5v623q26 8 83 8t78 -8v-694q0 -107 -49 -172t-133 -64z" />
    <glyph glyph-name="uni01C9" unicode="&#x1c9;" horiz-adv-x="665" 
d="M515 791q-35 0 -62.5 27.5t-27.5 63.5q0 35 27.5 63t62.5 28q36 0 63 -27.5t27 -63.5q0 -37 -27 -64t-63 -27zM232 -18q-162 0 -162 209v743q27 9 78.5 9.5t83.5 -9.5v-692q0 -128 52 -128q9 0 43 10q10 -25 12 -59t-6 -61q-63 -22 -101 -22zM416 -251q-42 0 -92 18
q-9 29 1.5 73.5t28.5 65.5q27 -10 40 -10q25 0 34 35.5t9 124.5v623q26 8 82.5 8t78.5 -8v-694q0 -107 -49 -172t-133 -64z" />
    <glyph glyph-name="uni01CA" unicode="&#x1ca;" horiz-adv-x="1628" 
d="M670 902q28 11 84.5 9t79.5 -9v-902h-115l-496 612v-612h-164v873q15 18 55.5 30t59.5 5l496 -624v618zM1404 902q36 9 90 8t74 -8v-531q0 -104 -40 -191t-123 -142.5t-194 -55.5q-98 0 -189 48.5t-161 134.5q11 39 36.5 71t52.5 41q48 -73 113 -115t131 -42
q104 0 157 75t53 199v508z" />
    <glyph glyph-name="uni01CB" unicode="&#x1cb;" horiz-adv-x="1157" 
d="M1008 791q-36 0 -63 27t-27 64q0 36 27 63.5t63 27.5q35 0 62.5 -28t27.5 -63q0 -36 -27 -63.5t-63 -27.5zM834 0h-115l-496 612v-612h-164v873q15 18 55.5 30t59.5 5l496 -624v618q28 11 84.5 9t79.5 -9v-902zM929 679q26 8 82.5 8t78.5 -8v-694q0 -107 -49 -172
t-133 -64q-44 0 -92 18q-9 29 1.5 73.5t28.5 65.5q27 -10 39 -10q26 0 35 35.5t9 124.5v623z" />
    <glyph glyph-name="uni01CC" unicode="&#x1cc;" horiz-adv-x="1055" 
d="M905 791q-35 0 -62.5 27.5t-27.5 63.5q0 35 27.5 63t62.5 28q36 0 63 -27.5t27 -63.5q0 -37 -27 -64t-63 -27zM446 710q250 0 250 -342v-368h-162v348q0 228 -123 228q-71 0 -127.5 -84.5t-56.5 -187.5v-304h-161v505q0 84 -14 151v23q87 18 151 11q12 -44 12 -84v-10
q42 52 102.5 83t128.5 31zM827 679q26 8 82.5 8t78.5 -8v-694q0 -107 -49 -172t-133 -64q-42 0 -92 18q-9 29 1.5 73.5t28.5 65.5q27 -10 40 -10q25 0 34 35.5t9 124.5v623z" />
    <glyph glyph-name="uni01CD" unicode="&#x1cd;" horiz-adv-x="898" 
d="M480 957h-75l-190 228h115l112 -122l113 122h113zM516 902q28 -66 109 -272t151.5 -374t109.5 -232l-10 -24q-124 -5 -173 18q-18 26 -74 179h-377l-66 -197h-174l351 902q29 11 78 10.5t75 -10.5zM297 329h286q-28 79 -83 240t-62 180z" />
    <glyph glyph-name="uni01CE" unicode="&#x1ce;" horiz-adv-x="693" 
d="M417 785h-76l-190 239h116l112 -131l112 131h114zM635 238q0 -74 4.5 -119.5t9.5 -63t15 -38.5l-2 -17h-137q-33 26 -38 105q-103 -123 -249 -123q-86 0 -141.5 49.5t-54.5 126.5q1 108 102 184t263 85q31 1 60 0q-8 71 -40 110.5t-85 39.5q-82 0 -204 -78
q-46 18 -57 107q149 104 280 104q125 1 198.5 -86t74.5 -248zM471 314l2 12q-19 2 -59 2q-106 -3 -162 -45t-56 -95q0 -37 22.5 -59.5t62.5 -22.5q74 0 128.5 66t61.5 142z" />
    <glyph glyph-name="uni01CF" unicode="&#x1cf;" horiz-adv-x="271" 
d="M174 957h-76l-190 228h116l112 -122l112 122h114zM59 903q29 11 79.5 9t72.5 -9v-903h-152v903z" />
    <glyph glyph-name="uni01D0" unicode="&#x1d0;" horiz-adv-x="294" 
d="M186 785h-76l-190 239h116l112 -131l112 131h114zM66 679q26 8 83 8t79 -8v-679h-162v679z" />
    <glyph glyph-name="uni01D2" unicode="&#x1d2;" horiz-adv-x="732" 
d="M417 785h-76l-190 239h115l113 -131l112 131h114zM704 376q4 -172 -99.5 -283t-264.5 -111q-145 0 -228.5 96.5t-83.5 243.5q0 160 106 274t260 114q143 0 225.5 -93t84.5 -241zM349 117q81 0 135.5 73.5t54.5 169.5q0 91 -42.5 153.5t-112.5 62.5q-81 0 -136 -75.5
t-55 -179.5q0 -87 40.5 -145.5t115.5 -58.5z" />
    <glyph glyph-name="uni01D3" unicode="&#x1d3;" horiz-adv-x="891" 
d="M484 964h-75l-190 229h115l112 -122l113 122h114zM668 902q29 10 85 8.5t79 -8.5v-502q0 -189 -102.5 -306.5t-291.5 -117.5q-187 0 -283 108t-96 313v505q28 10 86 8.5t78 -8.5v-512q0 -130 55.5 -202.5t159.5 -72.5q109 0 169.5 79t60.5 208v500z" />
    <glyph glyph-name="uni01D4" unicode="&#x1d4;" horiz-adv-x="743" 
d="M407 785h-75l-190 239h115l112 -131l113 131h114zM677 225q0 -144 27 -206l-1 -19h-137q-32 28 -35 95q-40 -53 -99 -83t-124 -30q-116 0 -186 76t-70 233v388q66 18 162 0v-360q0 -106 32.5 -154t96.5 -48q82 0 127 79.5t45 210.5v272q31 8 88.5 6t73.5 -6v-454z" />
    <glyph glyph-name="uni01E2" unicode="&#x1e2;" horiz-adv-x="1341" 
d="M1115 1081v-108h-440v108h440zM1297 132q14 -17 14.5 -62t-14.5 -70h-617v197h-333l-131 -197h-204l648 902h618q8 -29 -1.5 -71t-24.5 -61h-408v-263h367q8 -31 -1.5 -74t-24.5 -58h-341v-243h453zM434 328l246 -1v371z" />
    <glyph glyph-name="uni01E3" unicode="&#x1e3;" horiz-adv-x="1129" 
d="M796 935v-114h-464v114h464zM811 710q142 0 223.5 -93.5t65.5 -250.5l-21 -29l-449 -89q19 -64 66.5 -98t109.5 -32q100 2 194 87q23 -10 40 -35t23 -42t6 -21q-128 -125 -279 -125q-80 -1 -149.5 36t-112.5 104q-53 -68 -129.5 -105t-160.5 -35q-87 2 -142 51t-54 125
q1 108 102 184t263 85q31 1 60 0q-8 71 -40 110.5t-85 39.5q-82 0 -204 -78q-46 18 -57 107q149 104 280 104q135 2 205 -113q97 113 245 113zM948 412q5 75 -33.5 123.5t-103.5 48.5q-78 0 -133 -67.5t-60 -164.5zM470 314l2 12q-18 2 -58 2q-106 -3 -162 -45t-56 -95
q0 -37 22.5 -59.5t62.5 -22.5q74 0 128.5 64t60.5 144z" />
    <glyph glyph-name="Gcaron" unicode="&#x1e6;" horiz-adv-x="828" 
d="M512 980h-75l-190 229h115l112 -122l112 122h114zM476 788q-116 0 -183 -97t-67 -244q0 -146 70.5 -236.5t192.5 -90.5q100 0 177 35v181h-237q-7 31 2.5 74.5t23.5 57.5h351l18 -21v-359q-58 -51 -152 -78.5t-183 -27.5q-188 0 -310.5 127.5t-122.5 344.5
q0 125 48.5 231.5t145.5 173.5t223 67q154 0 255 -90.5t96 -225.5q-33 -8 -78.5 -12.5t-78.5 1.5q-7 89 -60.5 139t-130.5 50z" />
    <glyph glyph-name="gcaron" unicode="&#x1e7;" horiz-adv-x="743" 
d="M407 785h-76l-190 239h116l112 -131l112 131h114zM549 692q61 6 141 -12v-21q-13 -97 -13 -168v-405q0 -175 -89.5 -275.5t-226.5 -102.5q-154 -2 -304 113q13 88 63 118q131 -99 231 -97q77 2 127 65t50 174v18q-76 -117 -193 -117q-134 0 -220.5 91t-86.5 245
q0 169 89 280.5t232 111.5q55 0 103 -30t80 -78v1zM351 119q69 0 115 82t47 227q-2 55 -43 101.5t-96 46.5q-84 0 -132 -72.5t-48 -169.5q0 -93 42 -154t115 -61z" />
    <glyph glyph-name="uni01E8" unicode="&#x1e8;" horiz-adv-x="895" 
d="M496 957h-76l-190 228h115l113 -122l112 122h114zM507 457q168 -215 234 -287q68 -74 135 -131l-1 -24q-22 -8 -72 -17t-93 -9q-82 57 -330 386q-91 -53 -157 -84v-291h-164v902q30 11 86 9t78 -9v-458q136 69 227 136q217 160 206 313q47 32 153 12q17 -90 -45.5 -199
t-190.5 -203q-22 -16 -66 -46z" />
    <glyph glyph-name="uni01E9" unicode="&#x1e9;" horiz-adv-x="783" 
d="M437 998h-76l-190 239h116l112 -131l112 131h114zM483 341q78 -93 102.5 -122.5t67 -77.5t63.5 -67t41 -31v-26q-23 -9 -78 -16.5t-104 -6.5q-41 21 -223 254q-64 -41 -138 -76v-172h-162v934q33 11 83.5 11t78.5 -11v-605q65 39 133 89q90 68 135 125.5t42 123.5
q64 29 172 12q36 -162 -207 -333z" />
    <glyph glyph-name="uni01EB" unicode="&#x1eb;" horiz-adv-x="732" 
d="M704 376q3 -148 -75 -253t-207 -133q-98 -114 -98 -198q0 -23 12.5 -35t30.5 -11q19 0 39 13.5t32 34.5l73 -61q-27 -45 -74.5 -75t-93.5 -30q-59 -2 -97.5 33t-38.5 103q0 48 25 109.5t68 110.5q-128 14 -200 108t-72 230q0 160 106 274t260 114q143 0 225.5 -93
t84.5 -241zM193 321q0 -87 40.5 -145.5t115.5 -58.5q81 0 135.5 73.5t54.5 169.5q0 91 -42.5 153.5t-112.5 62.5q-81 0 -136 -75.5t-55 -179.5z" />
    <glyph glyph-name="uni01F0" unicode="&#x1f0;" horiz-adv-x="307" 
d="M197 785h-76l-190 239h116l112 -131l112 131h114zM79 679q26 8 82.5 8t78.5 -8v-694q0 -107 -49 -172t-133 -64q-42 0 -92 18q-9 29 1.5 73.5t28.5 65.5q27 -10 40 -10q25 0 34 35.5t9 124.5v623z" />
    <glyph glyph-name="uni01F4" unicode="&#x1f4;" horiz-adv-x="840" 
d="M690 1176l-208 -192h-98l161 192h145zM450 788q-116 0 -183 -97t-67 -244q0 -146 70.5 -236.5t192.5 -90.5q97 0 177 35v181h-237q-7 31 2.5 74.5t23.5 57.5h350l19 -21v-359q-58 -51 -152 -78.5t-183 -27.5q-188 0 -310.5 127.5t-122.5 344.5q0 125 48.5 231.5
t145.5 173.5t223 67q154 0 255 -90.5t96 -225.5q-33 -8 -79 -12.5t-79 1.5q-7 89 -60 139t-130 50z" />
    <glyph glyph-name="uni01F4" unicode="&#x1f5;" horiz-adv-x="840" 
d="M690 1176l-208 -192h-98l161 192h145zM450 788q-116 0 -183 -97t-67 -244q0 -146 70.5 -236.5t192.5 -90.5q97 0 177 35v181h-237q-7 31 2.5 74.5t23.5 57.5h350l19 -21v-359q-58 -51 -152 -78.5t-183 -27.5q-188 0 -310.5 127.5t-122.5 344.5q0 125 48.5 231.5
t145.5 173.5t223 67q154 0 255 -90.5t96 -225.5q-33 -8 -79 -12.5t-79 1.5q-7 89 -60 139t-130 50z" />
    <glyph glyph-name="uni01F8" unicode="&#x1f8;" horiz-adv-x="893" 
d="M502 967h-98l-211 188h145zM670 902q28 11 84.5 9t79.5 -9v-902h-115l-496 612v-612h-164v873q15 18 55.5 30t59.5 5l496 -624v618z" />
    <glyph glyph-name="uni01F9" unicode="&#x1f9;" horiz-adv-x="751" 
d="M514 785h-104l-205 249h155zM493 710q250 0 250 -342v-368h-162v348q0 228 -123 228q-71 0 -127.5 -84.5t-56.5 -187.5v-304h-161v505q0 84 -14 151v23q87 18 151 11q12 -44 12 -84v-10q42 52 102.5 83t128.5 31z" />
    <glyph glyph-name="Aringacute" unicode="&#x1fa;" horiz-adv-x="898" 
d="M614 1311l-153 -139h-81l84 139h150zM438 920q-74 0 -118 32t-44 83q0 50 43 83t119 33q75 0 116.5 -33t41.5 -83q0 -49 -44 -82t-114 -33zM435 1095q-31 0 -49.5 -17t-18.5 -43t19.5 -42.5t48.5 -16.5q30 0 49.5 17t19.5 42q0 26 -18.5 43t-50.5 17zM516 902
q28 -66 109 -272t151.5 -374t109.5 -232l-10 -24q-124 -5 -173 18q-18 26 -74 179h-377l-66 -197h-174l351 902q29 11 78 10.5t75 -10.5zM297 329h286q-28 79 -83 240t-62 180z" />
    <glyph glyph-name="aringacute" unicode="&#x1fb;" horiz-adv-x="693" 
d="M545 1125l-153 -138h-81l84 138h150zM369 735q-75 0 -118.5 32t-43.5 83q0 49 43 82t119 33q75 0 116 -32.5t41 -82.5q0 -49 -43.5 -82t-113.5 -33zM366 909q-31 0 -49.5 -16.5t-18.5 -42.5t19.5 -42.5t48.5 -16.5q31 0 50 16.5t19 42.5t-18.5 42.5t-50.5 16.5zM635 238
q0 -74 4.5 -119.5t9.5 -63t15 -38.5l-2 -17h-137q-33 26 -38 105q-103 -123 -249 -123q-86 0 -141.5 49.5t-54.5 126.5q1 108 102 184t263 85q31 1 60 0q-8 71 -40 110.5t-85 39.5q-82 0 -204 -78q-46 18 -57 107q149 104 280 104q125 1 198.5 -86t74.5 -248zM471 314l2 12
q-19 2 -59 2q-106 -3 -162 -45t-56 -95q0 -37 22.5 -59.5t62.5 -22.5q74 0 128.5 66t61.5 142z" />
    <glyph glyph-name="AEacute" unicode="&#x1fc;" horiz-adv-x="1341" 
d="M1138 1140l-208 -192h-98l161 192h145zM1297 132q14 -17 14.5 -62t-14.5 -70h-617v197h-333l-131 -197h-204l648 902h618q8 -29 -1.5 -71t-24.5 -61h-408v-263h367q8 -31 -1.5 -74t-24.5 -58h-341v-243h453zM434 328l246 -1v371z" />
    <glyph glyph-name="aeacute" unicode="&#x1fd;" horiz-adv-x="1129" 
d="M761 1034l-174 -249h-98l115 249h157zM811 710q142 0 223.5 -93.5t65.5 -250.5l-21 -29l-449 -89q19 -64 66.5 -98t109.5 -32q100 2 194 87q23 -10 40 -35t23 -42t6 -21q-128 -125 -279 -125q-80 -1 -149.5 36t-112.5 104q-53 -68 -129.5 -105t-160.5 -35q-87 2 -142 51
t-54 125q1 108 102 184t263 85q31 1 60 0q-8 71 -40 110.5t-85 39.5q-82 0 -204 -78q-46 18 -57 107q149 104 280 104q135 2 205 -113q97 113 245 113zM948 412q5 75 -33.5 123.5t-103.5 48.5q-78 0 -133 -67.5t-60 -164.5zM470 314l2 12q-18 2 -58 2q-106 -3 -162 -45
t-56 -95q0 -37 22.5 -59.5t62.5 -22.5q74 0 128.5 64t60.5 144z" />
    <glyph glyph-name="Oslashacute" unicode="&#x1fe;" horiz-adv-x="973" 
d="M752 1166l-208 -192h-98l161 192h145zM811 765q84 -124 84 -285q1 -130 -54.5 -243.5t-158.5 -184t-231 -70.5q-126 0 -217 74l-46 -56h-140l111 136q-80 115 -80 274q0 140 55 257.5t157.5 188t231.5 70.5q120 0 214 -78l35 43h141zM249 407q0 -72 20 -135l374 460
q-55 55 -133 55q-116 0 -189 -110.5t-72 -269.5zM725 491q0 80 -22 142l-375 -461q54 -52 130 -52t137.5 54t95 138t34.5 179z" />
    <glyph glyph-name="oslashacute" unicode="&#x1ff;" horiz-adv-x="751" 
d="M589 1034l-174 -249h-98l115 249h157zM718 376q3 -172 -100.5 -283t-264.5 -111q-115 0 -195 64l-41 -46h-79v16l71 81q-68 93 -68 225q0 160 106 274t261 114q114 0 191 -61l27 30h91v-15l-64 -72q62 -86 65 -216zM397 576q-81 0 -136 -75.5t-55 -179.5q0 -56 16 -98
l20 19l184 205l19 26l51 58q-40 45 -99 45zM363 117q81 0 135.5 73.5t54.5 169.5q0 54 -17 102l-10 -12l-34 -32l-180 -196l-20 -27l-32 -36q40 -42 103 -42z" />
    <glyph glyph-name="uni0202" unicode="&#x202;" horiz-adv-x="898" 
d="M442 1074q-54 0 -85.5 -34t-31.5 -83h-113q0 107 65.5 166.5t164.5 59.5q102 0 165 -57.5t63 -168.5h-112q0 52 -31.5 84.5t-84.5 32.5zM516 902q28 -66 109 -272t151.5 -374t109.5 -232l-10 -24q-124 -5 -173 18q-18 26 -74 179h-377l-66 -197h-174l351 902
q29 11 78 10.5t75 -10.5zM297 329h286q-28 79 -83 240t-62 180z" />
    <glyph glyph-name="uni0203" unicode="&#x203;" horiz-adv-x="693" 
d="M379 901q-54 0 -85.5 -33.5t-31.5 -82.5h-113q0 107 65.5 166.5t164.5 59.5q103 0 165.5 -57.5t62.5 -168.5h-112q0 51 -31.5 83.5t-84.5 32.5zM635 238q0 -74 4.5 -119.5t9.5 -63t15 -38.5l-2 -17h-137q-33 26 -38 105q-103 -123 -249 -123q-86 0 -141.5 49.5
t-54.5 126.5q1 108 102 184t263 85q31 1 60 0q-8 71 -40 110.5t-85 39.5q-82 0 -204 -78q-46 18 -57 107q149 104 280 104q125 1 198.5 -86t74.5 -248zM471 314l2 12q-19 2 -59 2q-106 -3 -162 -45t-56 -95q0 -37 22.5 -59.5t62.5 -22.5q74 0 128.5 66t61.5 142z" />
    <glyph glyph-name="uni0206" unicode="&#x206;" horiz-adv-x="751" 
d="M389 1074q-55 0 -86.5 -34t-31.5 -83h-112q0 108 65 167t165 59q102 0 164.5 -57.5t62.5 -168.5h-112q0 52 -31 84.5t-84 32.5zM707 132q15 -17 15 -62t-15 -70h-648v886l17 16h612q8 -29 -1.5 -71t-24.5 -61h-439v-263h399q7 -31 -2.5 -74.5t-24.5 -57.5h-372v-243h484z
" />
    <glyph glyph-name="uni0207" unicode="&#x207;" horiz-adv-x="685" 
d="M372 901q-54 0 -85.5 -33.5t-31.5 -82.5h-113q0 107 65.5 166.5t164.5 59.5q103 0 165.5 -57.5t62.5 -168.5h-112q0 51 -31.5 83.5t-84.5 32.5zM367 710q141 0 223 -93.5t65 -250.5l-21 -29l-449 -89q19 -64 67 -98t110 -33q99 3 193 88q11 -5 20.5 -12.5t16 -16.5
t12.5 -18.5t9.5 -18.5t6 -16t4.5 -11l1 -5q-129 -125 -279 -125q-132 -1 -224 91t-94 246q-2 164 93.5 277.5t245.5 113.5zM503 418q5 73 -33 119.5t-103 46.5q-77 0 -131 -65.5t-62 -161.5z" />
    <glyph glyph-name="uni020A" unicode="&#x20a;" horiz-adv-x="20" 
d="M-185 957q0 108 65 167t165 59q102 0 165 -57.5t63 -168.5h-113q0 52 -31 84.5t-84 32.5q-55 0 -86.5 -34t-31.5 -83h-112zM-32 0v903q29 11 79 9t73 -9v-903h-152z" />
    <glyph glyph-name="uni020B" unicode="&#x20b;" horiz-adv-x="294" 
d="M-83 785q0 107 65.5 166.5t164.5 59.5q103 0 165.5 -57.5t62.5 -168.5h-112q0 51 -31.5 83.5t-84.5 32.5q-54 0 -85.5 -33.5t-31.5 -82.5h-113zM66 0v679q26 8 83 8t79 -8v-679h-162z" />
    <glyph glyph-name="uni020E" unicode="&#x20e;" horiz-adv-x="876" 
d="M231 971q0 108 65 167t165 59q102 0 164.5 -57.5t62.5 -168.5h-112q0 51 -31.5 83.5t-83.5 32.5q-55 0 -86.5 -33.5t-31.5 -82.5h-112zM403 -18q-111 0 -197 58.5t-131 155.5t-45 214q0 140 55 257.5t157.5 188t231.5 70.5q160 0 265.5 -131t106.5 -315q0 -97 -32.5 -187
t-89.5 -159t-141 -110.5t-180 -41.5zM409 120q76 0 137.5 54t95 138t34.5 179q1 129 -57.5 212.5t-157.5 83.5q-116 0 -189 -110.5t-72 -269.5q0 -122 54 -204.5t155 -82.5z" />
    <glyph glyph-name="uni020F" unicode="&#x20f;" horiz-adv-x="732" 
d="M149 785q0 108 65 167t165 59q102 0 165 -57.5t63 -168.5h-112q0 51 -31.5 83.5t-84.5 32.5q-55 0 -86.5 -33.5t-31.5 -82.5h-112zM340 -18q-145 0 -228.5 96.5t-83.5 243.5q0 160 106 274t260 114q143 0 225.5 -93t84.5 -241q4 -172 -99.5 -283t-264.5 -111zM349 117
q81 0 135.5 73.5t54.5 169.5q0 91 -42.5 153.5t-112.5 62.5q-81 0 -136 -75.5t-55 -179.5q0 -87 40.5 -145.5t115.5 -58.5z" />
    <glyph glyph-name="uni0212" unicode="&#x212;" horiz-adv-x="882" 
d="M395 1087q-54 0 -85.5 -33.5t-31.5 -82.5h-113q0 107 65.5 166.5t164.5 59.5q102 0 165 -57.5t63 -168.5h-112q0 51 -31.5 83.5t-84.5 32.5zM570 314q149 -184 264 -280l-2 -26q-20 -7 -72 -14t-97 -6q-49 28 -267 294h-10q-78 0 -163 20v-302h-164v882q164 44 342 44
q177 0 275.5 -84.5t98.5 -234.5q1 -103 -54 -179.5t-151 -113.5zM223 781v-346q81 -21 164 -21q98 -1 158 51t60 143q0 82 -56.5 134t-164.5 52q-86 0 -161 -13z" />
    <glyph glyph-name="uni0213" unicode="&#x213;" horiz-adv-x="550" 
d="M286 913q-55 0 -86.5 -33.5t-31.5 -82.5h-112q0 108 65 167t165 59q102 0 164.5 -57.5t62.5 -168.5h-112q0 51 -31.5 83.5t-83.5 32.5zM520 684q9 -27 -7.5 -71.5t-38.5 -67.5q-42 19 -81 19q-73 -1 -115 -74t-42 -190v-300h-163v505q0 81 -13 151v23q81 18 143 11
q12 -38 12 -84v-33q30 62 79.5 99.5t108.5 37.5t117 -26z" />
    <glyph glyph-name="uni0218" unicode="&#x218;" horiz-adv-x="821" 
d="M436 -18q-113 0 -219.5 37t-186.5 104q4 29 29.5 71.5t56.5 49.5q68 -60 153 -95t170 -35q86 0 134 42.5t48 105.5q0 65 -50.5 98.5t-155.5 40.5q-150 7 -235 72t-84 186q1 81 47.5 142.5t120.5 93t163 31.5q168 0 261 -83t93 -199q-31 -9 -76.5 -13.5t-77.5 2.5
q-5 73 -56.5 117t-145.5 44q-68 0 -114 -38.5t-46 -93.5q0 -62 48.5 -93.5t125.5 -36.5q352 -20 352 -261q0 -131 -98.5 -210t-256.5 -79zM322 -299l40 227h124l-58 -227h-106z" />
    <glyph glyph-name="uni0219" unicode="&#x219;" horiz-adv-x="698" 
d="M364 -18q-204 0 -328 106q25 84 70 114q107 -85 233 -85q67 0 112 24.5t45 63.5q0 43 -42 63.5t-135 26.5q-254 22 -254 191q0 91 80.5 157.5t203.5 66.5q173 0 302 -80q-6 -58 -44 -125q-117 71 -236 71q-65 0 -103.5 -26.5t-38.5 -59.5q0 -35 32 -53.5t106 -22.5
q157 -8 225.5 -59.5t68.5 -148.5q0 -98 -85 -161t-212 -63zM260 -306l40 227h124l-58 -227h-106z" />
    <glyph glyph-name="uni021A" unicode="&#x21a;" horiz-adv-x="823" 
d="M802 902q7 -30 -2 -72.5t-25 -59.5h-279v-770h-171v770h-303q-7 28 -2 68t18 64h764zM310 -295l40 227h124l-58 -227h-106z" />
    <glyph glyph-name="uni021B" unicode="&#x21b;" horiz-adv-x="514" 
d="M452 137q14 -16 21.5 -61.5t-0.5 -69.5q-67 -24 -127 -24q-116 -1 -182.5 82t-66.5 249v234h-81v132h81v179q27 14 73.5 22t87.5 0v-201h213v-132h-213v-223q0 -205 115 -205q34 0 79 18zM202 -293l40 227h124l-58 -227h-106z" />
    <glyph glyph-name="uni0237" unicode="&#x237;" horiz-adv-x="307" 
d="M58 -251q-42 0 -92 18q-9 29 1.5 73.5t28.5 65.5q27 -10 40 -10q25 0 34 35.5t9 124.5v623q26 8 82.5 8t78.5 -8v-694q0 -107 -49 -172t-133 -64z" />
    <glyph glyph-name="circumflex" unicode="&#x2c6;" horiz-adv-x="559" 
d="M506 765h-114l-112 131l-112 -131h-116l190 239h76z" />
    <glyph glyph-name="caron" unicode="&#x2c7;" horiz-adv-x="559" 
d="M392 1004h114l-188 -239h-76l-190 239h116l112 -131z" />
    <glyph glyph-name="breve" unicode="&#x2d8;" horiz-adv-x="563" 
d="M280 748q-102 0 -165 57.5t-63 168.5h113q0 -51 31 -84t84 -33q55 0 86.5 34t31.5 83h112q0 -108 -65 -167t-165 -59z" />
    <glyph glyph-name="dotaccent" unicode="&#x2d9;" horiz-adv-x="285" 
d="M142 771q-36 0 -63 27.5t-27 63.5q0 35 27.5 63t62.5 28q36 0 63 -27.5t27 -63.5q0 -37 -27 -64t-63 -27z" />
    <glyph glyph-name="ring" unicode="&#x2da;" horiz-adv-x="473" 
d="M239 717q-85 0 -136 41.5t-51 108.5q0 64 49.5 106.5t137.5 42.5q85 0 133.5 -42t48.5 -107q0 -64 -52 -107t-130 -43zM236 788q41 0 68.5 22.5t27.5 55.5q0 35 -26.5 57t-69.5 22t-68.5 -22.5t-25.5 -56.5q0 -33 26.5 -55.5t67.5 -22.5z" />
    <glyph glyph-name="ogonek" unicode="&#x2db;" horiz-adv-x="410" 
d="M189 -368q-60 -1 -98.5 34.5t-38.5 102.5q0 56 34 128.5t92 121.5l100 -12q-109 -122 -109 -210q0 -23 13 -35t31 -11q19 0 39 13.5t32 33.5l73 -61q-27 -45 -75 -75t-93 -30z" />
    <glyph glyph-name="tilde" unicode="&#x2dc;" horiz-adv-x="537" 
d="M368 776q-33 0 -67.5 21t-63.5 41.5t-48 20.5q-20 0 -32 -20t-12 -58h-93q0 89 31.5 148t85.5 59q32 0 65.5 -21t62 -42t48.5 -21q19 0 32.5 20.5t13.5 58.5h93q0 -88 -30.5 -147.5t-85.5 -59.5z" />
    <glyph glyph-name="hungarumlaut" unicode="&#x2dd;" horiz-adv-x="624" 
d="M77 765l108 248h146l-156 -248h-98zM292 765l122 248h158l-181 -248h-99z" />
    <glyph glyph-name="gravecomb" unicode="&#x300;" 
d="M-157 765l-205 249h155l154 -249h-104z" />
    <glyph glyph-name="acutecomb" unicode="&#x301;" 
d="M-325 765l115 249h157l-174 -249h-98z" />
    <glyph glyph-name="uni0302" unicode="&#x302;" 
d="M-53 765h-114l-112 126l-112 -126h-116l190 239h76z" />
    <glyph glyph-name="tildecomb" unicode="&#x303;" 
d="M-169 776q-33 0 -67.5 21t-63.5 41.5t-48 20.5q-20 0 -32 -20t-12 -58h-93q0 89 31.5 148t85.5 59q32 0 65.5 -21t62 -42t48.5 -21q19 0 32.5 20.5t13.5 58.5h93q0 -88 -30.5 -147.5t-85.5 -59.5z" />
    <glyph glyph-name="uni0304" unicode="&#x304;" 
d="M-541 801v114h464v-114h-464z" />
    <glyph glyph-name="uni0306" unicode="&#x306;" 
d="M-283 748q-102 0 -165 57.5t-63 168.5h113q0 -51 31 -84t84 -33q55 0 86.5 34t31.5 83h112q0 -108 -65 -167t-165 -59z" />
    <glyph glyph-name="uni0307" unicode="&#x307;" 
d="M-143 771q-35 0 -62.5 27.5t-27.5 63.5q0 35 27.5 63t62.5 28q36 0 63 -27.5t27 -63.5q0 -37 -27 -64t-63 -27z" />
    <glyph glyph-name="uni0308" unicode="&#x308;" 
d="M-482 771q-36 0 -63 27t-27 64q0 36 27 63.5t63 27.5q35 0 62.5 -28t27.5 -63q0 -36 -27 -63.5t-63 -27.5zM-167 771q-36 0 -63 27t-27 64q0 36 27 63.5t63 27.5t63 -27.5t27 -63.5q0 -37 -27 -64t-63 -27z" />
    <glyph glyph-name="uni030A" unicode="&#x30a;" 
d="M-234 748q-85 0 -136 41t-51 108q0 64 49.5 107t137.5 43q85 0 133.5 -42.5t48.5 -107.5q0 -64 -52 -106.5t-130 -42.5zM-237 819q41 0 68.5 22.5t27.5 55.5q0 35 -26.5 57t-69.5 22t-68.5 -22.5t-25.5 -56.5q0 -33 26.5 -55.5t67.5 -22.5z" />
    <glyph glyph-name="uni030B" unicode="&#x30b;" 
d="M-547 765l108 248h146l-156 -248h-98zM-332 765l122 248h158l-181 -248h-99z" />
    <glyph glyph-name="uni030C" unicode="&#x30c;" 
d="M-167 1004h114l-188 -239h-76l-190 239h116l112 -131z" />
    <glyph glyph-name="uni0311" unicode="&#x311;" 
d="M-511 765q0 107 65.5 166.5t164.5 59.5q103 0 165.5 -57.5t62.5 -168.5h-112q0 51 -31.5 83.5t-84.5 32.5q-54 0 -85.5 -33.5t-31.5 -82.5h-113z" />
    <glyph glyph-name="uni0312" unicode="&#x312;" 
d="M-224 776l76 245h106l-58 -245h-124z" />
    <glyph glyph-name="uni0326" unicode="&#x326;" 
d="M-262 -299l40 227h124l-58 -227h-106z" />
    <glyph glyph-name="uni0327" unicode="&#x327;" 
d="M-191 -361q-74 -2 -136 69l73 78q30 -38 61 -38q16 0 26.5 13.5t10.5 33.5q0 16 -8.5 29.5t-24.5 31t-24 29.5q-22 31 -30.5 55.5t-8.5 61.5h97q0 -21 10 -37.5t30.5 -39t32.5 -41.5q29 -45 29 -99q0 -59 -40.5 -102t-97.5 -44z" />
    <glyph glyph-name="uni0328" unicode="&#x328;" 
d="M-221 -368q-60 -1 -98.5 34.5t-38.5 102.5q0 56 34 128.5t92 121.5l100 -12q-109 -122 -109 -210q0 -23 13 -35t31 -11q19 0 39 13.5t32 33.5l73 -61q-27 -45 -75 -75t-93 -30z" />
    <glyph glyph-name="uni03BC" unicode="&#x3bc;" horiz-adv-x="743" 
d="M702 225q0 -144 27 -206l-2 -19h-137q-30 24 -30 76v54q-30 -66 -87.5 -107t-127.5 -41q-80 0 -126 58v-310h-142v949q66 18 162 0v-360q0 -106 32.5 -154t95.5 -48q82 0 127.5 79.5t45.5 210.5v272q32 8 88.5 6t73.5 -6v-454z" />
    <glyph glyph-name="uni1E02" unicode="&#x1e02;" horiz-adv-x="804" 
d="M364 992q-28 0 -49 21t-21 50t21 50.5t49 21.5t49 -21.5t21 -50.5q0 -28 -21 -49.5t-49 -21.5zM774 308q1 -152 -97.5 -239t-274.5 -88q-122 0 -191.5 9.5t-151.5 35.5v860q133 40 305 40q98 0 168.5 -20.5t107.5 -55.5t53.5 -73.5t16.5 -82.5q0 -90 -100 -147
q164 -65 164 -239zM371 800q-73 0 -148 -14v-226q90 18 199 18q23 0 34 -1q96 22 96 100q0 49 -42.5 86t-138.5 37zM391 114q114 0 173 49t59 133q0 150 -218 150q-90 0 -182 -22v-295q78 -15 168 -15z" />
    <glyph glyph-name="uni1E03" unicode="&#x1e03;" horiz-adv-x="737" 
d="M374 996q-36 0 -63 27t-27 64q0 35 27.5 63t62.5 28q36 0 63 -27.5t27 -63.5q0 -37 -27 -64t-63 -27zM425 710q133 0 208.5 -92.5t75.5 -242.5q0 -166 -85.5 -279.5t-218.5 -113.5q-115 0 -190 93q-10 -48 -25 -75h-138v20q13 66 13 159v755q27 9 82.5 9t79.5 -9v-347
q32 54 85 88.5t113 34.5zM372 119q76 0 124 75t48 186q-1 85 -38 140.5t-97 55.5q-77 0 -129.5 -92t-52.5 -203q0 -59 43 -110.5t102 -51.5z" />
    <glyph glyph-name="uni1E0A" unicode="&#x1e0a;" horiz-adv-x="841" 
d="M352 1008q-28 0 -49 21t-21 50t21 50.5t49 21.5t49 -21.5t21 -50.5q0 -28 -21 -49.5t-49 -21.5zM352 926q218 0 338.5 -126.5t120.5 -335.5q0 -222 -116.5 -352.5t-325.5 -130.5q-97 0 -163.5 9.5t-146.5 35.5v860q134 40 293 40zM641 460q1 150 -75.5 242t-215.5 92
q-64 0 -127 -10v-656q64 -14 147 -14q132 0 201 93.5t70 252.5z" />
    <glyph glyph-name="uni1E0B" unicode="&#x1e0b;" horiz-adv-x="740" 
d="M352 997q-36 0 -63 27.5t-27 63.5q0 35 27.5 63t62.5 28q36 0 63 -27.5t27 -63.5q0 -37 -27 -64t-63 -27zM674 179q0 -93 13 -159v-20h-137q-17 30 -28 87q-83 -105 -210 -105q-124 0 -204 98t-80 238q0 169 87.5 280.5t233.5 111.5q49 0 92.5 -24t71.5 -65v313
q23 9 79 9t82 -9v-755zM349 119q71 0 117.5 85.5t46.5 214.5q0 67 -41.5 112t-97.5 45q-76 0 -128 -68t-52 -171q-1 -96 42.5 -157t112.5 -61z" />
    <glyph glyph-name="uni1E1E" unicode="&#x1e1e;" horiz-adv-x="728" 
d="M371 984q-28 0 -49 21t-21 50t21 50.5t49 21.5t49 -21.5t21 -50.5q0 -28 -21 -49.5t-49 -21.5zM669 770h-446v-309h410q9 -31 -1 -74.5t-25 -57.5h-384v-329h-164v886l16 16h619q9 -30 0 -72t-25 -60z" />
    <glyph glyph-name="uni1E1F" unicode="&#x1e1f;" horiz-adv-x="410" 
d="M285 1024q-35 0 -62.5 27t-27.5 64q0 35 27.5 63t62.5 28q36 0 63 -27.5t27 -63.5q0 -37 -27 -64t-63 -27zM382 822q-88 -3 -97 -143h168v-132h-170v-547h-161v547h-125v132h126q8 138 64 207.5t165 70.5q63 0 139 -21q6 -23 -3.5 -68.5t-23.5 -61.5q-43 16 -82 16z" />
    <glyph glyph-name="uni1E40" unicode="&#x1e40;" horiz-adv-x="1037" 
d="M517 984q-28 0 -49 21t-21 50t21 50.5t49 21.5t49 -21.5t21 -50.5q0 -28 -21 -49.5t-49 -21.5zM1007 0h-165l-51 582l-224 -450h-101l-224 450l-48 -582h-164l80 876q18 18 68.5 25.5t70.5 0.5l268 -570l269 570q21 7 70 -0.5t67 -25.5z" />
    <glyph glyph-name="uni1E41" unicode="&#x1e41;" horiz-adv-x="1032" 
d="M562 791q-36 0 -63 27.5t-27 63.5q0 35 27.5 63t62.5 28q36 0 63 -27.5t27 -63.5q0 -37 -27 -64t-63 -27zM780 710q200 0 200 -323v-387h-162v368q0 208 -81 208q-58 0 -97 -75.5t-39 -187.5v-313h-156v368q0 208 -82 208q-57 0 -96.5 -78.5t-39.5 -193.5v-304h-161v505
q0 84 -14 151v23q87 18 150 11q12 -38 12 -84q37 47 85 75.5t99 28.5q122 0 172 -120q39 56 94 88t116 32z" />
    <glyph glyph-name="uni1E56" unicode="&#x1e56;" horiz-adv-x="803" 
d="M397 1008q-28 0 -49 21t-21 50t21 50.5t49 21.5t49 -21.5t21 -50.5q0 -28 -21 -49.5t-49 -21.5zM397 926q182 0 279 -98t97 -261q0 -146 -101.5 -241t-282.5 -95q-86 0 -166 17v-248h-164v882q148 44 338 44zM603 571q2 105 -54 164t-163 59q-91 0 -163 -16v-394
q69 -21 157 -21q103 0 163 55.5t60 152.5z" />
    <glyph glyph-name="uni1E57" unicode="&#x1e57;" horiz-adv-x="739" 
d="M407 791q-35 0 -62.5 27.5t-27.5 63.5q0 35 27.5 63t62.5 28q36 0 63 -27.5t27 -63.5q0 -37 -27 -64t-63 -27zM436 710q125 0 200.5 -93t75.5 -237q0 -171 -86.5 -284.5t-219.5 -113.5q-106 0 -178 91v-325q-21 -8 -78 -8t-83 8v746q0 83 -15 163v22q78 22 143 11l26 -93
q93 113 215 113zM374 119q76 0 124 76t48 181q0 91 -38 145.5t-96 54.5q-74 0 -129.5 -85t-55.5 -214q0 -56 44 -107t103 -51z" />
    <glyph glyph-name="uni1E60" unicode="&#x1e60;" horiz-adv-x="821" 
d="M427 1008q-28 0 -49 21t-21 50t21 50.5t49 21.5t49 -21.5t21 -50.5q0 -28 -21 -49.5t-49 -21.5zM436 -18q-113 0 -219.5 37t-186.5 104q4 29 29.5 71.5t56.5 49.5q68 -60 153 -95t170 -35q86 0 134 42.5t48 105.5q0 65 -50.5 98.5t-155.5 40.5q-150 7 -235 72t-84 186
q1 81 47.5 142.5t120.5 93t163 31.5q168 0 261 -83t93 -199q-31 -9 -76.5 -13.5t-77.5 2.5q-5 73 -56.5 117t-145.5 44q-68 0 -114 -38.5t-46 -93.5q0 -62 48.5 -93.5t125.5 -36.5q352 -20 352 -261q0 -131 -98.5 -210t-256.5 -79z" />
    <glyph glyph-name="uni1E61" unicode="&#x1e61;" horiz-adv-x="698" 
d="M349 791q-35 0 -62.5 27.5t-27.5 63.5q0 35 27.5 63t62.5 28q36 0 63 -27.5t27 -63.5q0 -37 -27 -64t-63 -27zM364 -18q-204 0 -328 106q25 84 70 114q107 -85 233 -85q67 0 112 24.5t45 63.5q0 43 -42 63.5t-135 26.5q-254 22 -254 191q0 91 80.5 157.5t203.5 66.5
q173 0 302 -80q-6 -58 -44 -125q-117 71 -236 71q-65 0 -103.5 -26.5t-38.5 -59.5q0 -35 32 -53.5t106 -22.5q157 -8 225.5 -59.5t68.5 -148.5q0 -98 -85 -161t-212 -63z" />
    <glyph glyph-name="uni1E6A" unicode="&#x1e6a;" horiz-adv-x="823" 
d="M403 984q-28 0 -49 21t-21 50t21 50.5t49 21.5t49 -21.5t21 -50.5q0 -28 -21 -49.5t-49 -21.5zM802 902q7 -30 -2 -72.5t-25 -59.5h-279v-770h-171v770h-303q-7 28 -2 68t18 64h764z" />
    <glyph glyph-name="uni1E6B" unicode="&#x1e6b;" horiz-adv-x="514" 
d="M181 969q-35 0 -62.5 27.5t-27.5 63.5q0 35 27.5 63t62.5 28q36 0 63 -27.5t27 -63.5q0 -37 -27 -64t-63 -27zM452 137q14 -16 21.5 -61.5t-0.5 -69.5q-67 -24 -127 -24q-116 -1 -182.5 82t-66.5 249v234h-81v132h81v179q27 14 73.5 22t87.5 0v-201h213v-132h-213v-223
q0 -205 115 -205q34 0 79 18z" />
    <glyph glyph-name="Wgrave" unicode="&#x1e80;" horiz-adv-x="1232" 
d="M573 966l-211 188h145l164 -188h-98zM346 0l-40 21q-80 271 -163 513t-131 342l9 26q31 8 75 8t79 -8q58 -117 129 -336.5t125 -428.5h3q39 79 91 211t67 202q-9 45 -50 169q14 23 63 44t91 17q32 -75 93.5 -288t90.5 -355h6q104 166 143.5 384t10.5 370q52 31 152 11
q20 -69 21.5 -170.5t-17.5 -219t-69 -246.5t-126 -236l-50 -30h-165l-30 17q-34 132 -86 306q-16 -62 -55.5 -159.5t-65.5 -143.5l-38 -20h-163z" />
    <glyph glyph-name="wgrave" unicode="&#x1e81;" horiz-adv-x="955" 
d="M445 765l-205 249h155l154 -249h-104zM234 0l-27 18q-25 100 -58.5 213t-57 183.5t-51 151.5t-30.5 89l11 24q34 7 77.5 8t78.5 -8q32 -78 76.5 -226t78.5 -306h8q58 166 90 320l-34 102q14 25 59.5 46t89.5 15q72 -201 130 -483h10q50 145 74.5 270.5t14.5 250.5
q57 31 164 11q19 -123 -26 -316.5t-135 -347.5l-27 -15h-154l-27 19q-34 137 -62 212q-12 -41 -38.5 -110t-46.5 -107l-21 -14h-167z" />
    <glyph glyph-name="Wacute" unicode="&#x1e82;" horiz-adv-x="1232" 
d="M553 960l161 192h145l-208 -192h-98zM346 0l-40 21q-80 271 -163 513t-131 342l9 26q31 8 75 8t79 -8q58 -117 129 -336.5t125 -428.5h3q39 79 91 211t67 202q-9 45 -50 169q14 23 63 44t91 17q32 -75 93.5 -288t90.5 -355h6q104 166 143.5 384t10.5 370q52 31 152 11
q20 -69 21.5 -170.5t-17.5 -219t-69 -246.5t-126 -236l-50 -30h-165l-30 17q-34 132 -86 306q-16 -62 -55.5 -159.5t-65.5 -143.5l-38 -20h-163z" />
    <glyph glyph-name="wacute" unicode="&#x1e83;" horiz-adv-x="955" 
d="M414 765l115 249h157l-174 -249h-98zM234 0l-27 18q-25 100 -58.5 213t-57 183.5t-51 151.5t-30.5 89l11 24q34 7 77.5 8t78.5 -8q32 -78 76.5 -226t78.5 -306h8q58 166 90 320l-34 102q14 25 59.5 46t89.5 15q72 -201 130 -483h10q50 145 74.5 270.5t14.5 250.5
q57 31 164 11q19 -123 -26 -316.5t-135 -347.5l-27 -15h-154l-27 19q-34 137 -62 212q-12 -41 -38.5 -110t-46.5 -107l-21 -14h-167z" />
    <glyph glyph-name="Wdieresis" unicode="&#x1e84;" horiz-adv-x="1232" 
d="M483 984q-28 0 -49 21.5t-21 49.5q0 29 21 50.5t49 21.5t49.5 -22t21.5 -50t-21.5 -49.5t-49.5 -21.5zM754 984q-28 0 -49.5 21t-21.5 50t21.5 50.5t49.5 21.5q27 0 48.5 -22t21.5 -50t-21.5 -49.5t-48.5 -21.5zM346 0l-40 21q-80 271 -163 513t-131 342l9 26q31 8 75 8
t79 -8q58 -117 129 -336.5t125 -428.5h3q39 79 91 211t67 202q-9 45 -50 169q14 23 63 44t91 17q32 -75 93.5 -288t90.5 -355h6q104 166 143.5 384t10.5 370q52 31 152 11q20 -69 21.5 -170.5t-17.5 -219t-69 -246.5t-126 -236l-50 -30h-165l-30 17q-34 132 -86 306
q-16 -62 -55.5 -159.5t-65.5 -143.5l-38 -20h-163z" />
    <glyph glyph-name="wdieresis" unicode="&#x1e85;" horiz-adv-x="955" 
d="M340 771q-36 0 -63 27t-27 64q0 36 27 63.5t63 27.5q35 0 62.5 -28t27.5 -63q0 -36 -27 -63.5t-63 -27.5zM655 771q-36 0 -63 27t-27 64q0 36 27 63.5t63 27.5t63 -27.5t27 -63.5q0 -37 -27 -64t-63 -27zM234 0l-27 18q-25 100 -58.5 213t-57 183.5t-51 151.5t-30.5 89
l11 24q34 7 77.5 8t78.5 -8q32 -78 76.5 -226t78.5 -306h8q58 166 90 320l-34 102q14 25 59.5 46t89.5 15q72 -201 130 -483h10q50 145 74.5 270.5t14.5 250.5q57 31 164 11q19 -123 -26 -316.5t-135 -347.5l-27 -15h-154l-27 19q-34 137 -62 212q-12 -41 -38.5 -110
t-46.5 -107l-21 -14h-167z" />
    <glyph glyph-name="uni1E9E" unicode="&#x1e9e;" horiz-adv-x="910" 
d="M539 538q49 -5 93 -15.5t90.5 -32.5t79.5 -51.5t54 -77t21 -105.5q0 -132 -92.5 -203t-226.5 -71q-170 0 -273 112q15 67 72 115q77 -85 194 -85q71 0 116.5 36.5t45.5 95.5q0 52 -39.5 91.5t-98.5 60t-113 30t-98 9.5l-17 49l269 267h-212q-49 0 -85 -21.5t-55 -57
t-28 -74t-9 -79.5v-531h-161v543q0 77 18 140.5t55 113.5t101 77.5t150 27.5h400q15 -29 11 -69.5t-24 -61.5z" />
    <glyph glyph-name="Ygrave" unicode="&#x1ef2;" horiz-adv-x="828" 
d="M469 966h-98l-211 188h145zM807 902q35 -290 -277 -592v-310h-164v325q-55 97 -174.5 286.5t-176.5 263.5l11 27q37 7 85.5 8t85.5 -8q40 -42 136.5 -202t137.5 -245q86 89 133.5 219.5t40.5 215.5q55 34 162 12z" />
    <glyph glyph-name="ygrave" unicode="&#x1ef3;" horiz-adv-x="736" 
d="M432 786h-104l-205 249h155zM713 679q11 -54 11 -120t-10 -139.5t-34.5 -151.5t-59.5 -152t-87 -144.5t-115 -124.5q-129 -111 -290 -111q-49 -1 -84 16q-24 62 -2 116l27 16q30 -14 60 -14q97 0 218 123l25 26q-73 52 -134 126.5t-97.5 143.5t-64.5 146.5t-39.5 126.5
t-18.5 93l8 24q81 19 146 0q8 -47 22.5 -98.5t46 -133t88 -164t129.5 -144.5q116 202 100 527q51 35 155 13z" />
    <glyph glyph-name="endash" unicode="&#x2013;" horiz-adv-x="1028" 
d="M194 303v126h639v-126h-639z" />
    <glyph glyph-name="emdash" unicode="&#x2014;" horiz-adv-x="1134" 
d="M194 303v126h746v-126h-746z" />
    <glyph glyph-name="quoteleft" unicode="&#x2018;" horiz-adv-x="328" 
d="M82 645l53 314h111l-20 -314h-144z" />
    <glyph glyph-name="quoteright" unicode="&#x2019;" horiz-adv-x="329" 
d="M82 644l20 315h145l-53 -315h-112z" />
    <glyph glyph-name="quotesinglbase" unicode="&#x201a;" horiz-adv-x="329" 
d="M82 -147l20 314h145l-53 -314h-112z" />
    <glyph glyph-name="quotedblleft" unicode="&#x201c;" horiz-adv-x="529" 
d="M82 645l53 314h112l-20 -314h-145zM282 645l53 314h112l-19 -314h-146z" />
    <glyph glyph-name="quotedblright" unicode="&#x201d;" horiz-adv-x="528" 
d="M82 644l19 315h146l-53 -315h-112zM281 644l20 315h145l-53 -315h-112z" />
    <glyph glyph-name="quotedblbase" unicode="&#x201e;" horiz-adv-x="529" 
d="M82 -147l20 314h145l-53 -314h-112zM281 -147l20 314h145l-53 -314h-112z" />
    <glyph glyph-name="dagger" unicode="&#x2020;" horiz-adv-x="694" 
d="M612 843v-135h-197v-839h-135v839h-198v135h198v164h135v-164h197z" />
    <glyph glyph-name="daggerdbl" unicode="&#x2021;" horiz-adv-x="700" 
d="M614 133v-135h-199v-129h-135v129h-196v135h196v575h-198v135h198v164h135v-164h197v-135h-197v-575h199z" />
    <glyph glyph-name="bullet" unicode="&#x2022;" horiz-adv-x="788" 
d="M393 224q-71 0 -122 56t-51 135q0 77 51.5 135t121.5 58q68 0 121.5 -58.5t53.5 -134.5q0 -78 -53 -134.5t-122 -56.5z" />
    <glyph glyph-name="ellipsis" unicode="&#x2026;" horiz-adv-x="892" 
d="M173 0q-37 0 -64 27t-27 64q0 36 27 63.5t64 27.5q36 0 63 -27.5t27 -63.5q0 -37 -27 -64t-63 -27zM446 0q-36 0 -63 27t-27 64q0 36 27 63.5t63 27.5q35 0 63 -27.5t28 -63.5t-27.5 -63.5t-63.5 -27.5zM719 0q-35 0 -62.5 27t-27.5 64q0 36 27.5 63.5t62.5 27.5
q36 0 63.5 -27.5t27.5 -63.5q0 -37 -27.5 -64t-63.5 -27z" />
    <glyph glyph-name="perthousand" unicode="&#x2030;" horiz-adv-x="1816" 
d="M342 490q-124 0 -192 51t-68 149q0 96 67 149.5t193 53.5q128 0 194 -53t66 -150q0 -93 -68.5 -146.5t-191.5 -53.5zM213 0l653 889h172l-654 -889h-171zM342 594q43 0 73.5 26t30.5 70q0 45 -29.5 71.5t-74.5 26.5t-74.5 -27t-29.5 -71q0 -45 29 -70.5t75 -25.5z
M896 -13q-122 0 -190 52t-68 150q0 95 66.5 148t191.5 53q129 0 195 -52t66 -149q0 -94 -69 -148t-192 -54zM1473 -13q-123 0 -191 51.5t-68 150.5q0 95 67 148t192 53q129 0 195 -52t66 -149q0 -94 -69 -148t-192 -54zM896 92q45 0 76 26t31 71t-30 70.5t-77 25.5
q-44 0 -73.5 -26.5t-29.5 -69.5q0 -45 29.5 -71t73.5 -26zM1473 92q45 0 75.5 26t30.5 71t-29.5 70.5t-76.5 25.5q-44 0 -73.5 -26.5t-29.5 -69.5q0 -45 29.5 -71t73.5 -26z" />
    <glyph glyph-name="guilsinglleft" unicode="&#x2039;" horiz-adv-x="683" 
d="M601 678l-332 -240l332 -233l-42 -109l-477 295v96l472 297z" />
    <glyph glyph-name="guilsinglright" unicode="&#x203a;" horiz-adv-x="683" 
d="M129 784l472 -297v-96l-476 -295l-43 109l333 233l-332 240z" />
    <glyph glyph-name="fraction" unicode="&#x2044;" horiz-adv-x="1081" 
d="M82 -132l785 1189h132l-785 -1189h-132z" />
    <glyph glyph-name="Euro" unicode="&#x20ac;" horiz-adv-x="884" 
d="M729 216l73 -104q-44 -47 -130 -79.5t-187 -32.5q-142 0 -250 75t-146 222h-58v106h41q-1 15 -1 45q0 24 1 35h-41v107h58q39 140 148 215t248 75q185 0 302 -97l-72 -101q-77 64 -212 64q-182 0 -240 -156h279v-107h-300q-1 -11 -1 -35q0 -15 2 -45h267v-106h-241
q32 -77 96 -119.5t149 -42.5q126 0 215 81z" />
    <glyph glyph-name="uni2116" unicode="&#x2116;" horiz-adv-x="1597" 
d="M1219 309q-132 0 -208.5 79t-76.5 206q0 132 88 223.5t216 91.5q127 0 200 -74t77 -198q4 -146 -80.5 -237t-215.5 -91zM693 890q28 10 84.5 8.5t79.5 -8.5v-890h-115l-496 612v-612h-164v860q15 18 55.5 30.5t59.5 5.5l496 -614v608zM1234 778q-60 0 -102 -53t-42 -129
q0 -70 35 -112.5t96 -42.5q60 0 100.5 53t38.5 128q-2 68 -35.5 112t-90.5 44zM975 97v120h501v-120h-501z" />
    <glyph glyph-name="trademark" unicode="&#x2122;" horiz-adv-x="1023" 
d="M416 890v-122h-105v-356h-125v356h-104v122h334zM941 890v-478h-124v252l-77 -215h-82l-82 207v-244h-124v478h139l108 -280l102 280h140z" />
    <glyph glyph-name="estimated" unicode="&#x212e;" horiz-adv-x="885" 
d="M446 895q160 0 263 -133.5t93 -365.5h-540l3 -259q73 -94 189 -94q131 0 240 132q33 -16 39 -50q-54 -63 -129.5 -103t-146.5 -40q-173 0 -274 127.5t-101 326.5q0 197 104 328t260 131zM638 457v278q-79 99 -192 99q-56 0 -106 -25.5t-81 -68.5l3 -283h376z" />
    <glyph glyph-name="partialdiff" unicode="&#x2202;" horiz-adv-x="877" 
d="M403 910q83 0 151 -30.5t112 -80t73.5 -115.5t42.5 -134.5t13 -139.5q0 -204 -100.5 -316t-266.5 -112q-162 0 -254 88t-92 218q0 118 85 192.5t224 74.5q130 0 234 -53q-15 126 -72.5 199.5t-155.5 73.5q-52 0 -106.5 -22t-97.5 -62q-43 52 -43 113q32 45 108 75.5
t145 30.5zM428 117q92 0 144 69t57 198q-89 38 -192 38q-93 0 -139 -40.5t-46 -106.5t48 -112t128 -46z" />
    <glyph glyph-name="minus" unicode="&#x2212;" horiz-adv-x="787" 
d="M123 375v135h542v-135h-542z" />
    <glyph glyph-name="radical" unicode="&#x221a;" horiz-adv-x="1039" 
d="M1039 890v-138h-181l-333 -752h-118l-325 480h178l185 -281l291 691h303z" />
    <glyph glyph-name="infinity" unicode="&#x221e;" horiz-adv-x="1043" 
d="M720 741q105 0 173 -65.5t68 -199.5t-68 -199.5t-173 -65.5q-71 0 -117.5 37t-80.5 103q-33 -66 -79.5 -103t-119.5 -37q-105 0 -173 65.5t-68 199.5t68 199.5t173 65.5q73 0 119.5 -38t78.5 -105q32 68 77.5 105.5t121.5 37.5zM325 316q56 0 88 39t60 114
q-16 40 -27.5 64.5t-29.5 50.5t-40.5 38.5t-50.5 12.5q-47 0 -82 -40.5t-35 -118.5q0 -80 34.5 -120t82.5 -40zM719 316q49 0 82.5 40t33.5 120q0 78 -33.5 118.5t-82.5 40.5q-53 0 -83.5 -40.5t-62.5 -121.5q30 -77 61.5 -117t84.5 -40z" />
    <glyph glyph-name="approxequal" unicode="&#x2248;" horiz-adv-x="718" 
d="M82 478q0 92 41 152.5t111 60.5q40 0 82.5 -19.5t78.5 -39.5t58 -20q24 0 41 20.5t17 58.5h125q0 -91 -40.5 -152t-111.5 -61q-41 0 -83.5 20t-79 39.5t-62.5 19.5q-24 0 -38.5 -21.5t-14.5 -57.5h-124zM82 234q0 92 41 153t111 61q40 0 82.5 -20t78.5 -40t58 -20
q24 0 41 20.5t17 59.5h125q0 -91 -40.5 -152.5t-111.5 -61.5q-41 0 -83.5 20t-79 39.5t-62.5 19.5q-24 0 -38.5 -21.5t-14.5 -57.5h-124z" />
    <glyph glyph-name="notequal" unicode="&#x2260;" horiz-adv-x="731" 
d="M647 886l-113 -252h102v-135h-163l-51 -115h214v-135h-275l-98 -218h-161l98 218h-106v135h166l52 115h-218v135h278l113 252h162z" />
    <glyph glyph-name="lessequal" unicode="&#x2264;" horiz-adv-x="683" 
d="M601 694l-337 -227l337 -233l-54 -113l-465 297v97l469 295zM111 -32v116h463v-116h-463z" />
    <glyph glyph-name="greaterequal" unicode="&#x2265;" horiz-adv-x="683" 
d="M132 824l469 -294v-98l-464 -297l-54 114l337 232l-337 227zM96 -32v116h463v-116h-463z" />
    <glyph glyph-name="i.loclTRK" horiz-adv-x="294" 
d="M146 791q-36 0 -63 27.5t-27 63.5q0 35 27.5 63t62.5 28q36 0 63 -27.5t27 -63.5q0 -37 -27 -64t-63 -27zM66 0v679q26 8 83 8t79 -8v-679h-162z" />
    <glyph glyph-name="uni00A0.001" horiz-adv-x="366" 
 />
    <glyph glyph-name="uni030C.alt" 
d="M-249 630l16 333h154l-54 -333h-116z" />
    <glyph glyph-name="uni0308.case" 
d="M-418 972q-28 0 -49 21.5t-21 49.5q0 29 21 50.5t49 21.5t49.5 -22t21.5 -50t-21.5 -49.5t-49.5 -21.5zM-147 972q-29 0 -50 21t-21 50t21.5 50.5t49.5 21.5q27 0 48.5 -22t21.5 -50t-21.5 -49.5t-48.5 -21.5z" />
    <glyph glyph-name="uni0307.case" 
d="M-162 972q-28 0 -49 21t-21 50t21 50.5t49 21.5t49 -21.5t21 -50.5q0 -28 -21 -49.5t-49 -21.5z" />
    <glyph glyph-name="gravecomb.case" 
d="M-175 958l-211 188h145l164 -188h-98z" />
    <glyph glyph-name="acutecomb.case" 
d="M-327 948l161 192h145l-208 -192h-98z" />
    <glyph glyph-name="uni030B.case" 
d="M-546 958l125 176h127l-167 -176h-85zM-349 958l139 176h146l-198 -176h-87z" />
    <glyph glyph-name="uni0302.case" 
d="M-76 947h-114l-113 119l-112 -119h-115l190 222h75z" />
    <glyph glyph-name="uni030C.case" 
d="M-167 1182h114l-188 -228h-76l-190 228h116l112 -122z" />
    <glyph glyph-name="uni0306.case" 
d="M-303 770q-101 0 -162.5 49.5t-61.5 145.5h112q0 -45 30.5 -74.5t81.5 -29.5q53 0 83 30.5t30 73.5h113q0 -93 -64 -144t-162 -51z" />
    <glyph glyph-name="uni030A.case" 
d="M-234 872q-85 0 -136 41.5t-51 108.5q0 64 49.5 106.5t137.5 42.5q85 0 133.5 -42t48.5 -107q0 -64 -52 -107t-130 -43zM-237 943q41 0 68.5 22.5t27.5 55.5q0 35 -26.5 57t-69.5 22t-68.5 -22.5t-25.5 -56.5q0 -33 26.5 -55.5t67.5 -22.5z" />
    <glyph glyph-name="tildecomb.case" 
d="M-169 941q-33 0 -67.5 20.5t-63.5 41.5t-48 21q-20 0 -32 -20t-12 -58h-93q0 81 31.5 134.5t85.5 53.5q32 0 65.5 -21t62 -42t48.5 -21q19 0 32.5 21t13.5 59l93 -1q0 -80 -30.5 -134t-85.5 -54z" />
    <glyph glyph-name="uni0304.case" 
d="M-516 825v108h439v-108h-439z" />
    <glyph glyph-name="uni0327.case" 
d="M-191 -364q-74 -2 -136 70l73 77q30 -37 61 -37q16 0 26.5 13.5t10.5 33.5q0 15 -8.5 29t-24.5 31.5t-24 29.5q-22 31 -30.5 55.5t-8.5 61.5h97q0 -22 10 -38.5t30.5 -38.5t32.5 -41q29 -47 29 -99q0 -59 -40 -102.5t-98 -44.5z" />
    <glyph glyph-name="uni0328.case" 
d="M-221 -368q-60 -1 -98.5 34.5t-38.5 102.5q0 56 34 128.5t92 121.5l100 -12q-109 -122 -109 -210q0 -23 13 -35t31 -11q19 0 39 13.5t32 33.5l73 -61q-27 -45 -75 -75t-93 -30z" />
    </font>
</defs>
</svg>
