<?xml version="1.0" standalone="no"?>
<!DOCTYPE svg PUBLIC "-//W3C//DTD SVG 1.1//EN" "http://www.w3.org/Graphics/SVG/1.1/DTD/svg11.dtd" >
<svg xmlns="http://www.w3.org/2000/svg" xmlns:xlink="http://www.w3.org/1999/xlink" version="1.1">
<metadata>
Created by FontForge 20170731 at Mon May 11 15:12:36 2020
 By Aleksey,,,
Copyright (c) 2019 by Mans Greback. All rights reserved.
</metadata>
<defs>
<font id="Quache-Medium" horiz-adv-x="0" >
  <font-face 
    font-family="Quache Medium"
    font-weight="500"
    font-stretch="normal"
    units-per-em="1000"
    panose-1="0 0 6 0 0 0 0 0 0 0"
    ascent="800"
    descent="-200"
    x-height="671"
    cap-height="906"
    bbox="-554 -369.03 1676 1310"
    underline-thickness="50"
    underline-position="-200"
    unicode-range="U+000D-2265"
  />
<missing-glyph horiz-adv-x="897" 
d="M0 -18v979h897v-979h-897zM50 32h797v879h-797v-879zM386 298q-11 50 1.5 91.5t40 67t62 51t65.5 45t52.5 47.5t21.5 59q0 50 -45.5 83t-132.5 33q-144 0 -253 -100l-56 57q62 58 144 91.5t170 33.5q132 0 204 -54t72 -137q0 -54 -32.5 -96t-77.5 -69.5t-89 -54.5
t-70.5 -64t-17.5 -84h-59zM417 86q-21 0 -37.5 16t-16.5 38q0 20 16.5 36.5t37.5 16.5t37 -16.5t16 -36.5q0 -22 -16 -38t-37 -16z" />
    <glyph glyph-name="f_i.liga" unicode="fi" horiz-adv-x="709" 
d="M150 0v573h-149v99h151q17 279 225 279q40 0 96 -14q5 -19 -0.5 -52t-15.5 -45q-33 11 -58 11q-117 -1 -126 -179h361v-672h-120v573h-244v-573h-120zM573 802q-29 0 -50.5 21.5t-21.5 49.5q0 29 21.5 50.5t50.5 21.5t50.5 -21.5t21.5 -50.5q0 -28 -21.5 -49.5
t-50.5 -21.5z" />
    <glyph glyph-name="f_l.liga" unicode="fl" horiz-adv-x="787" 
d="M662 -18q-148 0 -148 203v656q-51 18 -98 18q-132 -3 -143 -188h165v-99h-168v-572h-120v572h-149v99h151q8 141 69.5 210t187.5 69q111 0 225 -39v-691q0 -74 16 -106.5t50 -32.5q16 0 56 11q9 -15 11.5 -42t-3.5 -47q-57 -20 -102 -21z" />
    <glyph glyph-name=".notdef" horiz-adv-x="897" 
d="M0 -18v979h897v-979h-897zM50 32h797v879h-797v-879zM386 298q-11 50 1.5 91.5t40 67t62 51t65.5 45t52.5 47.5t21.5 59q0 50 -45.5 83t-132.5 33q-144 0 -253 -100l-56 57q62 58 144 91.5t170 33.5q132 0 204 -54t72 -137q0 -54 -32.5 -96t-77.5 -69.5t-89 -54.5
t-70.5 -64t-17.5 -84h-59zM417 86q-21 0 -37.5 16t-16.5 38q0 20 16.5 36.5t37.5 16.5t37 -16.5t16 -36.5q0 -22 -16 -38t-37 -16z" />
    <glyph glyph-name=".null" 
 />
    <glyph glyph-name="nonmarkingreturn" horiz-adv-x="333" 
 />
    <glyph glyph-name="CR" unicode="&#xd;" horiz-adv-x="600" 
 />
    <glyph glyph-name="space" unicode=" " horiz-adv-x="385" 
 />
    <glyph glyph-name="exclam" unicode="!" horiz-adv-x="404" 
d="M154 289l-9 631h113l-9 -631h-95zM203 0q-27 0 -46.5 19t-19.5 45t19.5 45.5t46.5 19.5q25 0 44.5 -20t19.5 -45t-19.5 -44.5t-44.5 -19.5z" />
    <glyph glyph-name="quotedbl" unicode="&#x22;" horiz-adv-x="513" 
d="M92 649l30 307h112l-56 -307h-86zM279 649l31 307h111l-56 -307h-86z" />
    <glyph glyph-name="numbersign" unicode="#" horiz-adv-x="815" 
d="M723 562h-105l-20 -216h94v-91h-102l-14 -146h-96l13 146h-207l-14 -146h-97l14 146h-97v91h105l20 216h-94v91h103l12 131h97l-12 -131h207l12 131h97l-12 -131h96v-91zM502 346l20 216h-208l-20 -216h208z" />
    <glyph glyph-name="dollar" unicode="$" horiz-adv-x="909" 
d="M818 243q0 -91 -75 -159t-224 -81v-134h-85v131q-105 3 -197 41.5t-145 98.5l49 85q117 -125 329 -124q108 0 166.5 42.5t58.5 103.5q0 41 -31 71.5t-80.5 50.5t-109 37.5t-119 37.5t-109 45.5t-80.5 68t-31 97.5q0 89 75 152t224 69v127h84v-128q93 -8 165 -40.5
t110 -73.5l-32 -90q-48 47 -129.5 76t-170.5 29q-106 0 -156.5 -35t-50.5 -80q0 -36 31 -63t81 -44.5t110 -34t120 -38t110 -50t81 -77t31 -111.5z" />
    <glyph glyph-name="percent" unicode="%" horiz-adv-x="1207" 
d="M186 0l705 890h133l-706 -890h-132zM346 491q-118 0 -186 51t-68 146q0 92 66.5 145t187.5 53q123 0 189 -52t66 -146q0 -91 -69 -144t-186 -53zM346 570q58 0 98 32t40 86q0 55 -38.5 87t-99.5 32q-60 0 -98.5 -33t-38.5 -86q0 -54 38 -86t99 -32zM850 -9
q-118 0 -186 51.5t-68 145.5q0 92 67 144.5t187 52.5q123 0 189.5 -51.5t66.5 -145.5q0 -91 -69.5 -144t-186.5 -53zM850 70q60 0 100 32t40 86t-39 86t-101 32q-60 0 -98.5 -32.5t-38.5 -85.5q0 -54 38.5 -86t98.5 -32z" />
    <glyph glyph-name="ampersand" unicode="&#x26;" horiz-adv-x="1024" 
d="M932 84l-68 -84l-118 94q-122 -112 -315 -112q-159 0 -249 61t-90 170q0 143 194 250q-146 134 -146 240q0 90 79 154.5t237 64.5q149 0 228 -63t79 -144q0 -48 -23 -88.5t-69.5 -74t-89 -56t-108.5 -51.5q42 -34 65 -51l183 -144q50 87 48 183h104q11 -138 -59 -256z
M453 821q-95 0 -143.5 -35.5t-48.5 -86.5q0 -76 129 -187q49 22 79.5 36.5t67 35.5t56.5 38.5t34 40t14 46.5q0 43 -49.5 77.5t-138.5 34.5zM439 85q127 0 216 81l-205 162l-85 67q-73 -37 -112.5 -77.5t-38.5 -92.5q0 -63 59.5 -101.5t165.5 -38.5z" />
    <glyph glyph-name="quotesingle" unicode="'" horiz-adv-x="327" 
d="M92 649l31 307h112l-57 -307h-86z" />
    <glyph glyph-name="parenleft" unicode="(" horiz-adv-x="676" 
d="M534 -257q-119 55 -198.5 154t-113 213.5t-33.5 245.5q0 85 20.5 172.5t63.5 176t120 167t180 129.5l32 -63l-6 -18q-80 -47 -140.5 -116.5t-94.5 -146.5t-50.5 -152.5t-16.5 -148.5q0 -179 64.5 -316.5t199.5 -213.5l4 -19z" />
    <glyph glyph-name="parenright" unicode=")" horiz-adv-x="690" 
d="M87 -257l-31 64l4 19q135 76 199.5 213.5t64.5 316.5q0 73 -16.5 148.5t-50 152.5t-94.5 146.5t-141 116.5l-6 18l32 63q103 -51 180 -129.5t120 -167t63.5 -176t20.5 -172.5q0 -131 -33.5 -245.5t-113 -213.5t-198.5 -154z" />
    <glyph glyph-name="asterisk" unicode="*" horiz-adv-x="586" 
d="M494 742l-145 -47l107 -126l-81 -62l-82 145l-82 -145l-81 62l107 126l-145 47l33 88l130 -64l-15 162h104l-14 -163l130 65z" />
    <glyph glyph-name="plus" unicode="+" horiz-adv-x="736" 
d="M644 491v-101h-224v-263h-104v263h-224v101h224v263h104v-263h224z" />
    <glyph glyph-name="comma" unicode="," horiz-adv-x="318" 
d="M48 -181l46 345h105l-55 -345h-96z" />
    <glyph glyph-name="hyphen" unicode="-" horiz-adv-x="957" 
d="M200 316v95h557v-95h-557z" />
    <glyph glyph-name="period" unicode="." horiz-adv-x="418" 
d="M209 0q-29 0 -50.5 21.5t-21.5 49.5t21.5 49.5t50.5 21.5t50.5 -21.5t21.5 -49.5t-21.5 -49.5t-50.5 -21.5z" />
    <glyph glyph-name="slash" unicode="/" horiz-adv-x="877" 
d="M-17 -131l791 1134h121l-792 -1134h-120z" />
    <glyph glyph-name="zero" unicode="0" horiz-adv-x="824" 
d="M411 -18q-164 0 -261.5 130t-97.5 337q0 220 97.5 346t261.5 126q165 0 263 -125t98 -347q0 -200 -99 -333.5t-262 -133.5zM411 83q108 0 173.5 103.5t65.5 262.5q0 173 -63.5 272.5t-175.5 99.5q-109 0 -173 -101.5t-64 -270.5q0 -163 64.5 -264.5t172.5 -101.5z" />
    <glyph glyph-name="one" unicode="1" horiz-adv-x="586" 
d="M536 85q6 -42 0 -85h-485q-8 41 0 85l185 18v676l-163 -44q-10 37 -6 86l221 69h71v-787z" />
    <glyph glyph-name="two" unicode="2" horiz-adv-x="795" 
d="M59 0v95q29 64 83 121t112.5 95.5t121.5 80t112 76.5t81 82.5t32 100.5q0 78 -56 123.5t-163 45.5q-87 0 -154.5 -29t-104.5 -72q-37 32 -54 75q45 55 130.5 91t199.5 36q157 0 242.5 -73.5t85.5 -192.5q0 -53 -21 -100t-57 -85t-80.5 -72.5t-95.5 -69t-98.5 -68
t-92.5 -75.5t-74 -86h530q10 -49 0 -99h-679z" />
    <glyph glyph-name="three" unicode="3" horiz-adv-x="799" 
d="M544 482q203 -74 203 -237q0 -114 -92.5 -188.5t-263.5 -74.5q-103 0 -198 34t-141 86q5 42 48 89q40 -44 116.5 -76t166.5 -32q109 0 175 45t66 118q0 86 -91 132.5t-242 52.5q-14 55 0 106q151 -1 230.5 39.5t79.5 112.5q0 60 -58 96.5t-164 36.5q-84 0 -164 -28.5
t-110 -58.5q-29 29 -39 84q41 41 132 72.5t193 31.5q156 0 244.5 -63.5t88.5 -162.5q0 -145 -180 -215z" />
    <glyph glyph-name="four" unicode="4" horiz-adv-x="804" 
d="M747 305q11 -48 0 -99h-76v-206h-122v206h-497v95l519 589h100v-585h76zM194 305h361l7 433z" />
    <glyph glyph-name="five" unicode="5" horiz-adv-x="804" 
d="M402 608q169 1 260 -85t91 -227q0 -130 -95.5 -222t-258.5 -92q-118 0 -208 38.5t-139 96.5q5 55 43 93q111 -124 285 -124q118 0 182 61.5t64 149.5q0 97 -73.5 156.5t-208.5 59.5q-115 -2 -244 -36l38 413h574q7 -54 -7 -99h-453l-22 -203q90 20 172 20z" />
    <glyph glyph-name="six" unicode="6" horiz-adv-x="823" 
d="M445 539q153 0 239.5 -73.5t86.5 -187.5q0 -124 -97 -210t-269 -86q-163 0 -258 92t-95 250q0 177 122.5 328.5t381.5 261.5q54 -39 59 -90q-310 -141 -397 -332q106 47 227 47zM406 83q108 0 173.5 57t65.5 135q0 71 -58 117.5t-176 46.5q-129 0 -225 -49q-7 -36 -7 -81
q0 -99 57.5 -162.5t169.5 -63.5z" />
    <glyph glyph-name="seven" unicode="7" horiz-adv-x="744" 
d="M32 890h669v-112q-144 -89 -235 -304.5t-94 -473.5h-130q4 255 92.5 462.5t241.5 328.5h-544q-15 42 0 99z" />
    <glyph glyph-name="eight" unicode="8" horiz-adv-x="823" 
d="M574 497q89 -37 143.5 -99.5t54.5 -145.5q0 -118 -89 -194t-272 -76q-181 0 -270 76t-89 194q0 163 196 245q-172 64 -172 193q0 43 19.5 83t58 74t105 54.5t152.5 20.5q166 0 251 -66.5t85 -159.5q0 -66 -48 -117t-125 -82zM196 680q0 -101 215 -140q215 40 215 145
q0 56 -52.5 96.5t-162.5 40.5q-109 0 -162 -43.5t-53 -98.5zM645 256q1 77 -61.5 129t-174.5 74q-107 -21 -169 -72.5t-62 -129.5q0 -72 58.5 -123t174.5 -51t175 50.5t59 122.5z" />
    <glyph glyph-name="nine" unicode="9" horiz-adv-x="815" 
d="M407 922q166 0 261 -90.5t95 -244.5q0 -183 -122.5 -337t-384.5 -266q-52 36 -59 89q333 152 427 363q-117 -65 -260 -65q-148 0 -231 73.5t-83 187.5q0 121 95 205.5t262 84.5zM173 635q0 -71 57 -118.5t175 -47.5q70 0 134 15t102 35q3 37 3 76q0 97 -60.5 161
t-176.5 64q-106 0 -170 -54.5t-64 -130.5z" />
    <glyph glyph-name="colon" unicode=":" horiz-adv-x="418" 
d="M209 545q-29 0 -50.5 21.5t-21.5 49.5t22 49.5t50 21.5t50 -21.5t22 -49.5t-21.5 -49.5t-50.5 -21.5zM209 0q-29 0 -50.5 21.5t-21.5 49.5t21.5 49.5t50.5 21.5t50.5 -21.5t21.5 -49.5t-21.5 -49.5t-50.5 -21.5z" />
    <glyph glyph-name="semicolon" unicode=";" horiz-adv-x="331" 
d="M136 545q-29 0 -50.5 21.5t-21.5 49.5t22 49.5t50 21.5t50 -21.5t22 -49.5t-21.5 -49.5t-50.5 -21.5zM48 -181l46 345h105l-55 -345h-96z" />
    <glyph glyph-name="less" unicode="&#x3c;" horiz-adv-x="723" 
d="M631 678l-397 -242l396 -244l-41 -85l-497 292v74l501 291z" />
    <glyph glyph-name="equal" unicode="=" horiz-adv-x="735" 
d="M92 502v101h551v-101h-551zM92 278v101h551v-101h-551z" />
    <glyph glyph-name="greater" unicode="&#x3e;" horiz-adv-x="723" 
d="M130 764l501 -291v-74l-498 -292l-40 85l395 244l-396 242z" />
    <glyph glyph-name="question" unicode="?" horiz-adv-x="838" 
d="M344 264q-13 59 1.5 107.5t46.5 79t72.5 60.5t77 53t61.5 55.5t25 68.5q0 58 -53 96.5t-154 38.5q-88 0 -164 -33t-132 -85l-68 69q73 68 170 108t199 40q157 0 242 -64t85 -162q0 -46 -20.5 -85t-53 -66.5t-71 -52t-75.5 -47.5t-66.5 -48t-44 -58.5t-6.5 -74.5h-72z
M382 0q-26 0 -45.5 19.5t-19.5 44.5q0 26 19.5 45.5t45.5 19.5t45.5 -19.5t19.5 -45.5q0 -25 -19.5 -44.5t-45.5 -19.5z" />
    <glyph glyph-name="at" unicode="@" horiz-adv-x="1223" 
d="M614 -217q-233 0 -377.5 139t-144.5 380q0 243 146 388.5t384 145.5q229 0 369 -132t140 -353q0 -129 -58 -208t-157 -79q-109 0 -136 86q-22 -34 -67 -60t-104 -26q-117 0 -175.5 71t-58.5 177q0 105 59 176t175 71q93 0 155 -53l1 38h77v-274q0 -106 77 -106
q51 0 78.5 52t27.5 135q0 190 -103.5 291.5t-299.5 101.5q-197 0 -310 -122.5t-113 -319.5q0 -191 113 -308.5t300 -117.5q134 0 224 69l55 -74q-50 -39 -122 -63.5t-155 -24.5zM627 154q42 0 77.5 21.5t51.5 54.5v187q-49 51 -129 51q-71 0 -108 -45.5t-37 -110.5
q0 -69 36 -113.5t109 -44.5z" />
    <glyph glyph-name="A" unicode="A" horiz-adv-x="944" 
d="M527 899q28 -61 120 -270.5t167.5 -373.5t116.5 -237l-7 -18q-95 -3 -131 13q-24 38 -90 198h-472l-87 -211h-131l396 899q21 8 60 8t58 -8zM271 310h390q-65 157 -193 479z" />
    <glyph glyph-name="B" unicode="B" horiz-adv-x="855" 
d="M634 538q187 -59 187 -238q0 -149 -104.5 -233t-288.5 -85q-125 -1 -199.5 8t-160.5 35v858q141 39 321 39q82 0 146 -14t103 -37t64.5 -53.5t35 -61t9.5 -63.5q0 -47 -30.5 -88t-82.5 -67zM393 827q-106 0 -203 -19v-272q109 27 257 27q19 0 53 -2q62 12 94.5 44.5
t32.5 76.5q0 26 -11 49.5t-35.5 46t-73 36t-114.5 13.5zM420 80q139 0 212 57.5t73 154.5q0 172 -273 172q-126 0 -242 -30v-331q98 -23 230 -23z" />
    <glyph glyph-name="C" unicode="C" horiz-adv-x="865" 
d="M480 -21q-191 0 -318.5 128t-127.5 345q0 197 129.5 333t321.5 137q158 0 251.5 -92t84.5 -238q-81 -19 -123 -8q7 101 -54 168t-159 66q-139 -1 -232 -110t-93 -264q0 -163 89 -262t231 -100q67 0 138 23t129 66q25 -10 40.5 -36t17.5 -47q-69 -54 -158 -81.5
t-167 -27.5z" />
    <glyph glyph-name="D" unicode="D" horiz-adv-x="894" 
d="M380 922q224 0 352 -126t128 -334q0 -219 -122.5 -349.5t-337.5 -130.5q-110 0 -177.5 9t-154.5 34v859q141 38 312 38zM733 459q1 161 -93.5 262.5t-263.5 101.5q-96 0 -186 -15v-705q87 -23 208 -23q159 0 246.5 103.5t88.5 275.5z" />
    <glyph glyph-name="E" unicode="E" horiz-adv-x="799" 
d="M754 99q11 -13 11.5 -46.5t-11.5 -52.5h-686v886l13 13h651q6 -22 -1.5 -53t-18.5 -46h-522v-314h464q6 -23 -1.5 -55.5t-18.5 -43.5h-444v-288h564z" />
    <glyph glyph-name="F" unicode="F" horiz-adv-x="773" 
d="M717 799h-527v-361h472q6 -23 -1.5 -55t-18.5 -43h-452v-340h-122v886l13 12h656q6 -22 -1 -53.5t-19 -45.5z" />
    <glyph glyph-name="G" unicode="G" horiz-adv-x="886" 
d="M475 818q-144 0 -229.5 -106.5t-85.5 -265.5q0 -162 90 -261.5t239 -99.5q133 0 235 53v213h-290q-6 24 1.5 56t18.5 43h374l15 -17v-345q-64 -51 -162 -78.5t-192 -27.5q-197 0 -326 127t-129 343q0 124 51 230t153 173t235 67q161 0 268 -88.5t102 -221.5
q-26 -6 -60.5 -9.5t-60.5 1.5q-4 99 -73.5 156.5t-173.5 57.5z" />
    <glyph glyph-name="H" unicode="H" horiz-adv-x="861" 
d="M671 899q24 8 64 7t58 -7v-899h-122v360h-481v-360h-122v899q23 8 63.5 7t58.5 -7v-440h481v440z" />
    <glyph glyph-name="I" unicode="I" horiz-adv-x="251" 
d="M68 0v899q21 8 59.5 7t55.5 -7v-899h-115z" />
    <glyph glyph-name="J" unicode="J" horiz-adv-x="852" 
d="M408 -18q-102 0 -200 51t-172 138q8 29 27.5 53t40.5 31q58 -77 136 -123.5t156 -46.5q124 0 192.5 84.5t68.5 222.5v507q27 7 66.5 6t55.5 -6v-527q0 -78 -24.5 -148t-70.5 -124t-117.5 -86t-158.5 -32z" />
    <glyph glyph-name="K" unicode="K" horiz-adv-x="943" 
d="M510 461q204 -236 280 -312q72 -72 134 -119l-1 -19q-60 -19 -128 -19q-87 56 -385 410q-115 -63 -220 -110v-292h-122v899q23 8 64 7t58 -7v-494q197 93 307 168q251 171 241 320q44 23 115 7q14 -88 -54 -190t-203 -194q-79 -51 -86 -55z" />
    <glyph glyph-name="L" unicode="L" horiz-adv-x="790" 
d="M91 0l-23 24v875q23 8 62.5 7t59.5 -7v-800h558q12 -14 12 -47t-12 -52h-657z" />
    <glyph glyph-name="M" unicode="M" horiz-adv-x="1096" 
d="M1062 0h-122l-65 673l-289 -532h-78l-289 531l-63 -672h-122l86 880q14 13 53 19t52 0l322 -610l322 610q16 6 53.5 -0.5t51.5 -19.5z" />
    <glyph glyph-name="N" unicode="N" horiz-adv-x="951" 
d="M762 899q22 8 63 7t59 -7v-899h-89l-605 693v-693h-122v875q11 13 42.5 22.5t45.5 4.5l606 -702v699z" />
    <glyph glyph-name="O" unicode="O" horiz-adv-x="927" 
d="M424 -18q-175 0 -282.5 123t-107.5 303q0 141 60 258.5t168.5 186.5t242.5 69q111 0 201 -62t139 -164t49 -221q0 -130 -61 -243t-169.5 -181.5t-239.5 -68.5zM430 85q140 0 237.5 118.5t99.5 278.5q2 144 -74.5 240t-198.5 96q-144 0 -239 -119.5t-95 -291.5
q1 -135 71.5 -228.5t198.5 -93.5z" />
    <glyph glyph-name="P" unicode="P" horiz-adv-x="854" 
d="M820 575q1 -145 -110 -236t-297 -91q-115 0 -223 26v-274h-122v878q150 44 356 44q187 0 291.5 -94t104.5 -253zM694 577q1 115 -72 180.5t-207 65.5q-129 0 -225 -24v-420q98 -32 217 -32q129 0 208 61.5t79 168.5z" />
    <glyph glyph-name="Q" unicode="Q" horiz-adv-x="927" 
d="M664 -75q79 0 192 45q15 -17 21 -44.5t-2 -56.5q-96 -26 -178 -27q-216 -3 -307 141q-161 12 -258.5 133t-97.5 292q0 141 60 258.5t168.5 186.5t242.5 69q111 0 201 -62t139 -164t49 -221q0 -117 -49.5 -220.5t-139 -174.5t-200.5 -91q56 -64 159 -64zM160 407
q1 -135 71.5 -228.5t198.5 -93.5q140 0 237.5 118.5t99.5 278.5q2 144 -74.5 240t-198.5 96q-144 0 -239 -119.5t-95 -291.5z" />
    <glyph glyph-name="R" unicode="R" horiz-adv-x="930" 
d="M590 314q175 -201 292 -288l-2 -20q-45 -15 -129 -15q-60 32 -296 298q-14 -1 -43 -1q-106 0 -222 29v-317h-122v878q160 44 360 44q183 0 288 -84.5t105 -233.5q0 -104 -62 -179.5t-169 -110.5zM413 387q123 -1 202.5 57.5t78.5 161.5q0 97 -71.5 157t-207.5 60
q-128 0 -225 -21v-385q106 -29 223 -30z" />
    <glyph glyph-name="S" unicode="S" horiz-adv-x="869" 
d="M461 -18q-117 0 -228.5 36.5t-198.5 103.5q2 20 21 52t44 39q77 -62 171.5 -97t190.5 -35q118 0 183 48.5t65 124.5q0 79 -68 116t-201 44q-152 7 -239.5 68.5t-86.5 178.5q1 119 102 190t236 71q176 0 274.5 -80t98.5 -194q-24 -7 -59 -10t-59 2q-4 84 -71.5 133.5
t-184.5 49.5q-89 0 -150 -45.5t-61 -114.5q0 -73 60.5 -109t157.5 -42q194 -10 285.5 -73t91.5 -178q0 -126 -101 -202.5t-273 -76.5z" />
    <glyph glyph-name="T" unicode="T" horiz-adv-x="865" 
d="M842 899q5 -23 -1.5 -54.5t-18.5 -44.5h-335v-800h-126v800h-337q-5 21 -1.5 51.5t13.5 47.5h806z" />
    <glyph glyph-name="U" unicode="U" horiz-adv-x="949" 
d="M464 -22q-192 0 -294 106.5t-102 308.5v506q21 7 64 6t59 -6v-511q0 -148 71.5 -227.5t201.5 -79.5q138 0 216.5 88.5t78.5 230.5v499q23 7 64 6t59 -6v-501q0 -185 -110 -302.5t-308 -117.5z" />
    <glyph glyph-name="V" unicode="V" horiz-adv-x="898" 
d="M407 0l-34 21q-81 234 -202.5 518.5t-157.5 339.5l5 20q68 12 117 0q62 -106 162 -336t173 -460h9q136 193 218 416t55 371q42 24 116 9q38 -159 -46 -398.5t-262 -477.5l-40 -23h-113z" />
    <glyph glyph-name="W" unicode="W" horiz-adv-x="1299" 
d="M399 0l-31 17q-80 247 -184 494.5t-171 367.5l7 20q54 14 115 0q78 -139 170.5 -366t154.5 -430h5q52 83 115 216.5t83 209.5q-3 11 -69 193q11 17 46.5 32.5t67.5 12.5q39 -84 113 -303.5t111 -360.5h6q128 179 183.5 400t27.5 387q36 25 114 9q39 -173 -21 -420.5
t-218 -454.5l-39 -24h-126l-22 14q-66 210 -119 349q-19 -66 -75.5 -180t-91.5 -168l-31 -15h-121z" />
    <glyph glyph-name="X" unicode="X" horiz-adv-x="922" 
d="M556 431q24 -28 166 -196.5t187 -219.5l-4 -15h-135q-27 24 -89 96.5t-137.5 163t-94.5 113.5q-65 -46 -109 -82.5t-91 -84t-75 -99.5t-37 -107h-124q9 61 33.5 116.5t53.5 97t80 89t90.5 78.5t105.5 79q-40 48 -170 209t-170 209l7 20q24 7 67 7.5t67 -6.5
q38 -45 163.5 -203t142.5 -179q146 115 210.5 201.5t57.5 171.5q35 23 118 9q9 -68 -10.5 -129.5t-93 -147t-209.5 -191.5z" />
    <glyph glyph-name="Y" unicode="Y" horiz-adv-x="866" 
d="M847 899q29 -283 -320 -596v-303h-122v313q-72 112 -201.5 303.5t-188.5 262.5l8 20q75 15 131 0q42 -45 158.5 -220.5t170.5 -267.5q114 103 182 241t60 238q41 23 122 9z" />
    <glyph glyph-name="Z" unicode="Z" horiz-adv-x="848" 
d="M803 99q12 -13 12 -46.5t-12 -52.5h-745q-11 10 -18.5 37.5t-4.5 46.5q127 211 282 410.5t294 305.5h-547q-12 13 -12 46.5t12 52.5h709q11 -9 18.5 -42t5.5 -54q-149 -105 -318.5 -310t-284.5 -394h609z" />
    <glyph glyph-name="bracketleft" unicode="[" horiz-adv-x="505" 
d="M92 -242v1245h321v-92h-225v-1062h225v-91h-321z" />
    <glyph glyph-name="backslash" unicode="\" horiz-adv-x="872" 
d="M892 -131h-120l-792 1134h120z" />
    <glyph glyph-name="bracketright" unicode="]" horiz-adv-x="505" 
d="M413 -242h-321v91h225v1062h-225v92h321v-1245z" />
    <glyph glyph-name="asciicircum" unicode="^" horiz-adv-x="903" 
d="M776 511h-134l-190 255l-193 -255h-132l301 380h52z" />
    <glyph glyph-name="underscore" unicode="_" horiz-adv-x="667" 
d="M92 -87v87h483v-87h-483z" />
    <glyph glyph-name="grave" unicode="`" horiz-adv-x="399" 
d="M260 755l-202 248h120l163 -248h-81z" />
    <glyph glyph-name="a" unicode="a" horiz-adv-x="720" 
d="M656 206q1 -90 8 -127t22 -66l-1 -13h-105q-37 31 -37 125v18q-54 -75 -132 -118t-163 -43q-93 0 -149.5 48.5t-55.5 124.5q0 112 112.5 185t293.5 78q54 0 80 -2q-8 90 -51.5 141.5t-115.5 51.5q-95 2 -228 -83q-36 13 -43 81q149 100 281 100q131 1 207 -87t77 -252
v-162zM530 327l2 12q-54 4 -82 3q-138 -2 -213.5 -50.5t-75.5 -116.5q0 -45 30 -72t85 -27q100 0 174 79.5t80 171.5z" />
    <glyph glyph-name="b" unicode="b" horiz-adv-x="761" 
d="M438 707q133 0 212.5 -93.5t79.5 -241.5q0 -162 -91 -276t-232 -114q-136 0 -218 116q-6 -53 -25 -98h-106v17q13 65 13 156v761q20 6 61.5 6t58.5 -6v-397q36 75 103 122.5t144 47.5zM386 84q97 0 159.5 85.5t61.5 204.5q0 101 -50 166.5t-130 65.5q-96 0 -165.5 -98.5
t-69.5 -218.5q0 -77 56.5 -141t137.5 -64z" />
    <glyph glyph-name="c" unicode="c" horiz-adv-x="702" 
d="M359 -18q-137 -1 -232.5 94t-95.5 253q0 159 103.5 268.5t251.5 109.5q135 0 214 -92t70 -233q-77 -20 -118 -9q3 104 -43.5 168.5t-128.5 64.5q-95 0 -160.5 -80.5t-65.5 -197.5q0 -107 61 -176t151 -69q108 0 217 94q22 -8 37.5 -27.5t20.5 -33t5 -16.5
q-133 -116 -287 -118z" />
    <glyph glyph-name="d" unicode="d" horiz-adv-x="766" 
d="M695 173q0 -93 14 -156v-17h-102q-25 47 -29 124q-42 -65 -105.5 -103.5t-141.5 -38.5q-131 0 -215.5 96.5t-84.5 239.5q0 165 93.5 277t243.5 112q66 0 120.5 -35.5t86.5 -94.5v357q18 6 59 6t61 -6v-761zM353 84q94 0 156 92.5t62 222.5q0 87 -54.5 147t-129.5 60
q-99 0 -165.5 -80t-67.5 -197q0 -107 55.5 -176t143.5 -69z" />
    <glyph glyph-name="e" unicode="e" horiz-adv-x="706" 
d="M380 707q140 0 224 -92.5t72 -250.5l-18 -23l-506 -83q18 -83 76.5 -129.5t138.5 -45.5q112 2 220 93q11 -4 20.5 -13.5t15.5 -19t10 -18.5t6 -15l2 -7q-132 -119 -286 -121q-135 -1 -228.5 89.5t-95.5 243.5q-2 163 97.5 277.5t251.5 114.5zM558 404q4 95 -46 152
t-132 57q-95 0 -162.5 -79.5t-72.5 -191.5z" />
    <glyph glyph-name="f" unicode="f" horiz-adv-x="412" 
d="M395 850q-61 -1 -91.5 -46t-35.5 -133h199v-99h-200v-572h-120v572h-146v99h147q15 279 225 279q62 0 137 -21q5 -17 -2.5 -51t-18.5 -46q-50 18 -94 18z" />
    <glyph glyph-name="g" unicode="g" horiz-adv-x="765" 
d="M602 680q46 5 105 -8v-16q-13 -94 -13 -159v-413q0 -174 -91.5 -273t-234.5 -100q-158 0 -309 114q12 68 48 88q142 -103 252 -101q99 1 161.5 72.5t62.5 196.5v57q-38 -72 -100.5 -114t-138.5 -42q-136 0 -224.5 90.5t-88.5 244.5q0 164 93 276.5t241 112.5
q72 0 130 -39t91 -101v23zM354 84q91 0 153 87.5t63 236.5q-2 74 -55.5 136t-129.5 62q-104 0 -167 -83.5t-64 -195.5q0 -105 54 -174t146 -69z" />
    <glyph glyph-name="h" unicode="h" horiz-adv-x="747" 
d="M443 707q127 0 194 -90t67 -254v-363h-120v349q0 117 -42 184t-124 67q-95 0 -167.5 -96t-72.5 -215v-289h-120v934q20 6 60.5 6t59.5 -6v-374q47 67 116 107t149 40z" />
    <glyph glyph-name="i" unicode="i" horiz-adv-x="271" 
d="M136 802q-29 0 -50.5 21t-21.5 50t21.5 50.5t50.5 21.5q28 0 50 -21.5t22 -50.5q0 -28 -21.5 -49.5t-50.5 -21.5zM76 0v671q19 6 61 6t59 -6v-671h-120z" />
    <glyph glyph-name="j" unicode="j" horiz-adv-x="290" 
d="M149 802q-29 0 -50.5 21t-21.5 50t21.5 50.5t50.5 21.5t50.5 -21.5t21.5 -50.5q0 -28 -21.5 -49.5t-50.5 -21.5zM47 -243q-47 2 -93 18q-7 22 1 55.5t22 49.5q33 -12 53 -12q34 -1 47 39t13 138v626q21 6 62.5 5.5t57.5 -5.5v-682q0 -107 -41 -169.5t-122 -62.5z" />
    <glyph glyph-name="k" unicode="k" horiz-adv-x="808" 
d="M473 337q195 -214 247 -260q35 -33 59 -45v-20q-18 -7 -60.5 -12.5t-79.5 -4.5q-48 20 -268 275q-92 -56 -193 -101v-169h-120v934q24 8 61.5 8t58.5 -8v-650q97 48 210 127q100 70 147 127t43 124q51 20 131 9q31 -154 -212 -317z" />
    <glyph glyph-name="l" unicode="l" horiz-adv-x="348" 
d="M223 -18q-149 0 -149 203v749q21 7 59 7t62 -7v-714q0 -74 16 -106.5t50 -32.5q16 0 56 11q9 -15 11.5 -42t-3.5 -47q-57 -20 -102 -21z" />
    <glyph glyph-name="m" unicode="m" horiz-adv-x="1080" 
d="M818 707q102 0 153.5 -82t51.5 -234v-391h-121v377q0 108 -28 168.5t-85 60.5q-78 0 -131.5 -87t-53.5 -204v-315h-116v376q0 230 -112 230q-77 0 -130.5 -91t-53.5 -213v-302h-121v512q0 81 -13 140v18q65 14 111 9q13 -41 13 -86v-31q38 64 95.5 104.5t120.5 40.5
q140 0 183 -153q40 70 102.5 111.5t134.5 41.5z" />
    <glyph glyph-name="n" unicode="n" horiz-adv-x="774" 
d="M452 707q132 0 198 -89t66 -255v-363h-120v347q0 122 -42 190t-124 68q-93 0 -165.5 -97t-72.5 -212v-296h-121v512q0 81 -13 140v18q65 14 112 9q13 -41 13 -86v-46q46 70 117.5 115t151.5 45z" />
    <glyph glyph-name="o" unicode="o" horiz-adv-x="760" 
d="M354 -18q-151 0 -237 95.5t-86 239.5q0 161 109 275.5t269 114.5q146 0 231.5 -94t87.5 -240q3 -169 -103.5 -280t-270.5 -111zM360 83q106 0 176 83t70 195q0 103 -56.5 174t-147.5 71q-105 0 -176.5 -85.5t-71.5 -203.5q0 -99 54 -166.5t152 -67.5z" />
    <glyph glyph-name="p" unicode="p" horiz-adv-x="761" 
d="M441 707q130 0 209.5 -94t79.5 -239q0 -165 -92 -278.5t-230 -113.5q-135 0 -217 125v-353q-16 -6 -58.5 -6t-61.5 6v748q0 75 -13 153v17q57 16 106 8l26 -104v-17q46 69 111.5 108.5t139.5 39.5zM386 84q97 0 159 86t62 201q0 108 -51 171.5t-130 63.5
q-94 0 -164.5 -95t-70.5 -227q0 -74 58 -137t137 -63z" />
    <glyph glyph-name="q" unicode="q" horiz-adv-x="768" 
d="M600 679q55 7 110 -9v-18q-15 -80 -15 -141v-757q-19 -6 -61.5 -6t-59.5 6v371q-42 -64 -105 -103.5t-131 -39.5q-136 0 -221.5 95.5t-85.5 237.5q0 176 96.5 284t235.5 108q69 0 127 -36.5t92 -96.5v32zM357 84q89 0 151.5 93.5t62.5 219.5q0 83 -52.5 146t-130.5 63
q-100 0 -167.5 -79.5t-66.5 -205.5q1 -104 56.5 -170.5t146.5 -66.5z" />
    <glyph glyph-name="r" unicode="r" horiz-adv-x="561" 
d="M530 682q7 -20 -5 -54t-29 -51q-51 21 -94 21q-96 -1 -153 -87.5t-57 -214.5v-296h-121v512q0 81 -13 140v18q62 14 107 9q12 -43 12 -86v-64q32 79 93.5 128.5t138.5 49.5q55 0 121 -25z" />
    <glyph glyph-name="s" unicode="s" horiz-adv-x="722" 
d="M376 -18q-94 0 -183.5 28t-153.5 82q5 20 19.5 46t33.5 39q118 -94 271 -94q86 0 141.5 31t55.5 80q0 55 -50.5 81t-168.5 32q-272 18 -272 187q0 88 82 150.5t213 62.5q180 0 308 -81q-6 -45 -34 -93q-118 73 -260 73q-88 0 -137 -33t-49 -77q0 -91 180 -99
q168 -8 239 -57.5t71 -144.5t-88 -154t-218 -59z" />
    <glyph glyph-name="t" unicode="t" horiz-adv-x="529" 
d="M493 572h-271v-258q0 -110 39 -170t115 -60q39 0 96 19q11 -11 17 -45t0 -53q-71 -23 -130 -23q-119 -1 -188 81.5t-69 242.5v266h-88v99h88v179q19 11 54.5 17t65.5 0v-196h271v-99z" />
    <glyph glyph-name="u" unicode="u" horiz-adv-x="766" 
d="M697 195q0 -129 25 -180l-1 -15h-101q-18 18 -25.5 42t-7.5 80v3q-42 -66 -112 -104.5t-154 -38.5q-120 0 -191.5 75t-71.5 228v386q46 12 120 0v-366q0 -222 167 -222q105 0 168 85.5t63 220.5v282q22 5 64.5 4.5t56.5 -4.5v-476z" />
    <glyph glyph-name="v" unicode="v" horiz-adv-x="723" 
d="M312 0l-20 15q-24 75 -52.5 150.5t-49 125t-54 118t-45.5 92t-46 87t-35 64.5l8 19q71 13 115 0q51 -75 123.5 -229t132.5 -341h13q95 145 148.5 298t38.5 263q38 25 119 9q22 -123 -46.5 -313t-188.5 -346l-23 -12h-138z" />
    <glyph glyph-name="w" unicode="w" horiz-adv-x="996" 
d="M273 0l-21 14q-18 63 -39 127.5t-42.5 123.5t-40.5 107t-40.5 98.5t-33.5 77.5t-29 64.5t-18 39.5l9 19q69 13 115 0q135 -267 212 -563h7q85 176 128 338l-46 122q11 19 44.5 34.5t66.5 11.5q99 -249 161 -506h8q165 322 147 554q41 23 120 9q18 -124 -38 -316
t-159 -343l-21 -12h-117l-22 15q-43 158 -85 263q-15 -49 -53.5 -134.5t-67.5 -132.5l-18 -11h-127z" />
    <glyph glyph-name="x" unicode="x" horiz-adv-x="742" 
d="M458 320q20 -22 117.5 -129.5t150.5 -168.5l-1 -22h-146q-71 90 -234 269q-114 -93 -158 -149t-40 -120h-117q-7 38 2.5 75.5t27.5 67t53.5 66.5t64.5 62t77 64q11 9 16 13q-35 42 -257 302l7 19q27 6 65.5 6t64.5 -7q31 -37 112 -134.5t113 -137.5q103 85 148.5 145.5
t40.5 124.5q46 19 119 5q12 -76 -42 -160.5t-184 -190.5z" />
    <glyph glyph-name="y" unicode="y" horiz-adv-x="745" 
d="M726 671q8 -67 6 -143.5t-25 -167.5t-58 -177t-94.5 -171.5t-134.5 -150.5q-138 -118 -301 -120q-54 0 -86 17q-19 46 -1 86l20 12q31 -14 68 -14q118 0 245 125q28 28 48 52q-70 47 -133 118t-105 141.5t-76.5 147.5t-52 130.5t-27.5 95.5l6 18q59 15 112 1
q11 -44 34 -106.5t63.5 -147t105 -170t138.5 -142.5q148 230 132 556q37 25 116 10z" />
    <glyph glyph-name="z" unicode="z" horiz-adv-x="701" 
d="M675 101q11 -9 11.5 -44.5t-11.5 -56.5h-635q-12 10 -20 38t-6 50q115 169 219 285t237 197h-419q-11 13 -11.5 46.5t11.5 54.5h599q11 -10 19 -46.5t6 -60.5q-117 -50 -246 -174.5t-245 -288.5h491z" />
    <glyph glyph-name="braceleft" unicode="{" horiz-adv-x="540" 
d="M350 31q9 -75 33.5 -127.5t72.5 -98.5l-54 -57q-63 51 -97 107t-48 132q-8 37 -12 85.5t-5.5 82t-8.5 69.5t-21 57.5t-43.5 35t-74.5 13.5v101q48 0 78.5 15t43 39.5t19.5 64t8.5 78.5t9 92.5t21.5 97.5q34 108 133 185l55 -55q-72 -69 -94 -168q-11 -43 -17.5 -100.5
t-10 -99.5t-12.5 -83.5t-33 -71t-64 -45.5q31 -15 52 -38t32 -47.5t17.5 -59.5t8.5 -63.5t4.5 -70.5t6.5 -70z" />
    <glyph glyph-name="bar" unicode="|" horiz-adv-x="278" 
d="M92 -231v1243h94v-1243h-94z" />
    <glyph glyph-name="braceright" unicode="}" horiz-adv-x="540" 
d="M273 818q16 -51 23 -116t10.5 -108t14.5 -83.5t43 -60t89 -19.5v-101q-45 0 -75 -13.5t-43.5 -35t-21 -57.5t-8.5 -69.5t-5 -82t-12 -85.5q-15 -77 -48.5 -133t-96.5 -106l-54 57q47 46 71.5 98.5t34.5 127.5q4 30 7 83t6.5 85t14 70.5t33.5 66t60 44.5
q-41 16 -64.5 45.5t-33 71t-13 83.5t-9.5 99.5t-17 100.5q-22 99 -94 168l55 55q99 -77 133 -185z" />
    <glyph glyph-name="asciitilde" unicode="~" horiz-adv-x="735" 
d="M92 292q0 84 38 138.5t102 54.5q42 0 89 -23t88.5 -46t70.5 -23t48 24.5t19 67.5h96q0 -83 -37.5 -138t-102.5 -55q-34 0 -71.5 14.5t-64.5 32t-59.5 32t-56.5 14.5q-28 0 -45.5 -25t-17.5 -68h-96z" />
    <glyph glyph-name="exclamdown" unicode="&#xa1;" horiz-adv-x="404" 
d="M202 660q-26 0 -45.5 20t-19.5 45t19.5 44.5t45.5 19.5t45.5 -19t19.5 -45t-19.5 -45.5t-45.5 -19.5zM146 -131l9 631h95l10 -631h-114z" />
    <glyph glyph-name="cent" unicode="&#xa2;" horiz-adv-x="899" 
d="M753 233l49 -77q-37 -30 -108.5 -59t-152.5 -36v-192h-85v190q-173 10 -268.5 114.5t-95.5 272.5q0 170 103.5 272.5t260.5 113.5v179h85v-180q165 -12 266 -101l-55 -81q-92 84 -258 84q-119 0 -199.5 -76t-80.5 -211q0 -133 73 -210.5t203 -77.5q141 0 263 75z" />
    <glyph glyph-name="sterling" unicode="&#xa3;" horiz-adv-x="935" 
d="M276 99h567v-99h-737v99h9q42 0 62 38t20 100q0 44 -12 119h-93v99h80q-9 76 -9 135q0 131 86.5 209t241.5 78q209 0 339 -114l-59 -79q-101 92 -262 92q-113 0 -170.5 -56.5t-57.5 -150.5q0 -42 6 -114h383v-99h-371q9 -70 9 -113q0 -90 -32 -144z" />
    <glyph glyph-name="currency" unicode="&#xa4;" horiz-adv-x="595" 
d="M504 283l-63 -70l-85 83q-28 -12 -60 -12t-60 12l-80 -83l-64 71l74 79q-18 35 -18 83q0 45 17 81l-73 73l64 70l78 -74q26 13 62 13t64 -12l79 76l64 -71l-74 -74q17 -37 17 -82q0 -48 -20 -83zM220 446q0 -40 20.5 -65.5t55.5 -25.5q34 0 56 27t22 64q0 40 -20.5 65.5
t-57.5 25.5q-34 0 -55 -27t-21 -64z" />
    <glyph glyph-name="yen" unicode="&#xa5;" horiz-adv-x="1027" 
d="M936 877l-343 -458h211v-86h-231v-107h231v-86h-231v-140h-122v140h-236v86h236v107h-236v86h216l-339 458h158l264 -367l262 367h160z" />
    <glyph glyph-name="brokenbar" unicode="&#xa6;" horiz-adv-x="278" 
d="M92 481v531h94v-531h-94zM92 -231v534h94v-534h-94z" />
    <glyph glyph-name="section" unicode="&#xa7;" horiz-adv-x="668" 
d="M467 166q79 -69 79 -154q0 -79 -65 -128t-173 -49q-39 0 -88.5 11t-83.5 29v103q31 -19 82 -31t90 -12q57 0 89 22.5t32 66.5q0 27 -25 55t-62.5 51t-81 52.5t-81 59t-62.5 71t-25 87.5t29.5 92t78.5 79q-83 74 -83 166q0 84 65.5 134.5t173.5 50.5q97 0 171 -37v-102
q-31 17 -80.5 27.5t-90.5 10.5q-57 0 -89.5 -22.5t-32.5 -63.5q0 -33 25.5 -63.5t63.5 -52.5t82 -50.5t82 -57.5t63.5 -73.5t25.5 -96.5q0 -53 -28.5 -99.5t-80.5 -75.5zM211 400q0 -16 4 -30.5t15.5 -28.5t20.5 -24t30 -25t31.5 -22t37.5 -23.5t36 -22.5q70 48 70 114
q0 14 -4.5 27t-10 23t-18 23t-21 20.5t-27 20.5t-28 18.5t-32 20t-31.5 19.5q-31 -21 -51.5 -50.5t-21.5 -59.5z" />
    <glyph glyph-name="dieresis" unicode="&#xa8;" horiz-adv-x="599" 
d="M130 774q-29 0 -50.5 21t-21.5 50t21.5 50.5t50.5 21.5q28 0 50 -21.5t22 -50.5q0 -28 -21.5 -49.5t-50.5 -21.5zM469 774q-29 0 -50.5 21.5t-21.5 49.5q0 29 21.5 50.5t50.5 21.5t50.5 -21.5t21.5 -50.5q0 -28 -21.5 -49.5t-50.5 -21.5z" />
    <glyph glyph-name="copyright" unicode="&#xa9;" horiz-adv-x="1187" 
d="M593 -19q-219 0 -360 131t-141 335q0 132 67 241t182 171t252 62q218 0 360 -133.5t142 -340.5q0 -205 -141 -335.5t-361 -130.5zM593 60q113 0 205.5 43.5t150 133t57.5 209.5q0 122 -57 213.5t-149.5 137t-206.5 45.5q-170 0 -291 -112.5t-121 -283.5
q0 -176 116.5 -281t295.5 -105zM596 209q-108 0 -182.5 68.5t-74.5 173.5q0 106 74.5 173t183.5 67q118 0 189 -67l-45 -73q-52 47 -134 47q-66 0 -112.5 -42t-46.5 -109q0 -64 46.5 -104.5t115.5 -40.5q88 0 136 47l50 -68q-27 -30 -79.5 -51t-120.5 -21z" />
    <glyph glyph-name="ordfeminine" unicode="&#xaa;" horiz-adv-x="543" 
d="M380 1074h71v-404h-69v21q-46 -26 -109 -26q-83 0 -132 55.5t-49 143.5q0 87 52.5 147.5t134.5 60.5q56 0 101 -29v31zM286 727q55 0 96 36l-1 196q-35 45 -92 45t-91.5 -41t-34.5 -99q0 -62 34 -99.5t89 -37.5z" />
    <glyph glyph-name="guillemotleft" unicode="&#xab;" horiz-adv-x="1158" 
d="M631 686l-407 -250l408 -245l-34 -81l-506 291v72l502 292zM659 436l407 -245l-34 -81l-506 291v72l502 292l37 -79z" />
    <glyph glyph-name="logicalnot" unicode="&#xac;" horiz-adv-x="739" 
d="M544 228v162h-452v101h555v-263h-103z" />
    <glyph glyph-name="uni00AD" unicode="&#xad;" horiz-adv-x="1123" 
d="M200 316v95h724v-95h-724z" />
    <glyph glyph-name="registered" unicode="&#xae;" horiz-adv-x="881" 
d="M441 922q143 0 246 -92t103 -241q0 -151 -102 -240t-247 -89q-157 0 -253 91t-96 238q0 140 102 236.5t247 96.5zM441 313q58 0 109.5 17t92 50t64 87t23.5 122q0 131 -83.5 205t-205.5 74q-121 0 -205.5 -79.5t-84.5 -199.5q0 -125 79.5 -200.5t210.5 -75.5zM613 665
q0 -42 -28 -72.5t-71 -43.5l81 -152h-64l-77 145h-95v-145h-59v389h166q65 0 106 -34t41 -87zM459 587q38 0 65 22t27 56q0 33 -26 54t-66 21h-100v-153h100z" />
    <glyph glyph-name="macron" unicode="&#xaf;" horiz-adv-x="614" 
d="M58 806v99h498v-99h-498z" />
    <glyph glyph-name="degree" unicode="&#xb0;" horiz-adv-x="578" 
d="M290 537q-90 0 -144 52t-54 140q0 85 53 139t145 54q91 0 143.5 -53.5t52.5 -139.5t-55.5 -139t-140.5 -53zM288 599q53 0 88 35.5t35 93.5q1 60 -33 96t-90 36q-55 0 -89 -36.5t-35 -95.5q0 -59 35.5 -94t88.5 -35z" />
    <glyph glyph-name="plusminus" unicode="&#xb1;" horiz-adv-x="736" 
d="M420 563h224v-101h-224v-237h-104v237h-224v101h224v253h104v-253zM92 47v101h552v-101h-552z" />
    <glyph glyph-name="uni00B2" unicode="&#xb2;" horiz-adv-x="842" 
d="M238 354h513v-94h-648v82q34 70 102.5 130t140 100.5t138.5 79.5t110 83t43 93q0 63 -54 100.5t-161 37.5q-167 0 -259 -85l-56 67q109 109 324 109q149 0 231.5 -64.5t82.5 -163.5q0 -66 -38 -119t-100 -92.5t-127.5 -75t-134 -84.5t-107.5 -104z" />
    <glyph glyph-name="uni00B3" unicode="&#xb3;" horiz-adv-x="850" 
d="M546 676q113 -25 162.5 -73.5t50.5 -121.5q0 -95 -86.5 -160.5t-253.5 -65.5q-98 0 -184.5 29t-139.5 76l43 81q101 -91 280 -91q110 0 173 37.5t63 96.5q0 71 -84 106.5t-256 44.5v85q153 0 237 35t84 96q0 52 -63 81.5t-171 29.5q-81 0 -155 -25t-103 -52l-43 77
q46 36 134.5 64t183.5 28q155 0 238.5 -55.5t83.5 -140.5q0 -63 -48.5 -110t-145.5 -72z" />
    <glyph glyph-name="acute" unicode="&#xb4;" horiz-adv-x="372" 
d="M58 755l135 248h121l-189 -248h-67z" />
    <glyph glyph-name="uni00B5" unicode="&#xb5;" horiz-adv-x="765" 
d="M696 208q0 -85 6 -124t20 -69l-1 -15h-102q-28 26 -28 87v78q-30 -81 -100 -132t-161 -51q-112 0 -166 84v-334h-106v939q46 11 120 0v-366q0 -222 167 -222q106 0 168.5 85.5t62.5 220.5v282q23 5 65.5 4t54.5 -4v-463z" />
    <glyph glyph-name="paragraph" unicode="&#xb6;" horiz-adv-x="758" 
d="M248 -131v699q-71 1 -113.5 47t-42.5 114t41 114.5t115 46.5h419v-83h-127v-938h-90v938h-112v-938h-90z" />
    <glyph glyph-name="periodcentered" unicode="&#xb7;" horiz-adv-x="522" 
d="M261 329q-29 0 -50.5 21t-21.5 50q0 28 21.5 49.5t50.5 21.5q28 0 50 -21.5t22 -49.5t-21.5 -49.5t-50.5 -21.5z" />
    <glyph glyph-name="cedilla" unicode="&#xb8;" horiz-adv-x="371" 
d="M186 -337q-68 -2 -128 64l62 60q27 -33 55 -33q19 1 31 16t12 37q0 31 -38 82q-31 40 -41.5 64t-10.5 61h96q0 -33 9.5 -53t41.5 -63q38 -50 38 -103q0 -54 -36.5 -92.5t-90.5 -39.5z" />
    <glyph glyph-name="uni00B9" unicode="&#xb9;" horiz-adv-x="677" 
d="M402 354h183v-94h-482v94h194v604l-180 -43l-19 80l240 57h64v-698z" />
    <glyph glyph-name="ordmasculine" unicode="&#xba;" horiz-adv-x="558" 
d="M280 667q-77 0 -136.5 51.5t-59.5 144.5q0 96 55.5 151.5t140.5 55.5q84 0 139 -55.5t55 -151.5q0 -93 -58.5 -144.5t-135.5 -51.5zM280 729q49 0 86 34t37 100t-34.5 102.5t-88.5 36.5q-55 0 -89.5 -36.5t-34.5 -102.5t37.5 -100t86.5 -34z" />
    <glyph glyph-name="guillemotright" unicode="&#xbb;" horiz-adv-x="1158" 
d="M632 473v-72l-506 -291l-34 81l407 245l-406 250l36 79zM564 765l502 -292v-72l-506 -291l-34 81l408 245l-407 250z" />
    <glyph glyph-name="onequarter" unicode="&#xbc;" horiz-adv-x="1201" 
d="M92 438v95h122v409l-109 -41l-1 99l142 52h68v-519h114v-95h-336zM1008 1052h102l-826 -1183h-102zM1005 483v-390h57v-94h-57v-130h-94v130h-234v76l232 408h96zM929 93l3 292l-161 -292h158z" />
    <glyph glyph-name="onehalf" unicode="&#xbd;" horiz-adv-x="1206" 
d="M92 439v95h122v409l-109 -41l-1 98l142 53h68v-519h114v-95h-336zM998 1052h102l-826 -1183h-102zM1078 325q0 -60 -33 -118t-98.5 -134t-86.5 -106h227v-98h-338v89q25 41 67.5 94t74.5 90t56.5 80.5t24.5 76.5q0 38 -24 62.5t-61 24.5q-54 0 -123 -66v92q73 70 153 70
q70 0 115.5 -46.5t45.5 -110.5z" />
    <glyph glyph-name="threequarters" unicode="&#xbe;" horiz-adv-x="1166" 
d="M434 614q0 -64 -44 -115t-124 -51q-42 0 -89 21t-80 58v83q78 -72 152 -72q41 0 69.5 28t28.5 67q0 43 -38.5 72t-109.5 39v7h-1v55q59 3 94.5 26.5t35.5 66.5q0 32 -23.5 54t-60.5 22q-64 0 -133 -56v76q69 61 149 61q69 0 110 -41t41 -100q0 -99 -102 -143
q59 -24 92 -64.5t33 -93.5zM970 1049h102l-825 -1183h-102zM998 483v-390h57v-94h-57v-130h-94v130h-234v76l232 408h96zM922 93l4 288l-161 -288h157z" />
    <glyph glyph-name="questiondown" unicode="&#xbf;" horiz-adv-x="838" 
d="M456 679q26 0 46 -19.5t20 -45.5q0 -25 -20 -44.5t-46 -19.5q-25 0 -45 19.5t-20 44.5q0 26 19.5 45.5t45.5 19.5zM494 414q16 -70 -7.5 -124t-68 -88.5t-91.5 -64.5t-82 -66.5t-35 -79.5q0 -58 53 -96.5t155 -38.5q87 0 163.5 33t131.5 85l69 -70q-74 -68 -171 -107.5
t-199 -39.5q-157 0 -242 63.5t-85 161.5q0 46 20.5 85t53 66.5t71 52t75.5 47.5t66.5 48t44 58.5t6.5 74.5h72z" />
    <glyph glyph-name="Agrave" unicode="&#xc0;" horiz-adv-x="944" 
d="M523 965h-75l-205 190h110zM527 899q28 -61 120 -270.5t167.5 -373.5t116.5 -237l-7 -18q-95 -3 -131 13q-24 38 -90 198h-472l-87 -211h-131l396 899q21 8 60 8t58 -8zM271 310h390q-65 157 -193 479z" />
    <glyph glyph-name="Aacute" unicode="&#xc1;" horiz-adv-x="944" 
d="M702 1149l-205 -196h-77l169 196h113zM527 899q28 -61 120 -270.5t167.5 -373.5t116.5 -237l-7 -18q-95 -3 -131 13q-24 38 -90 198h-472l-87 -211h-131l396 899q21 8 60 8t58 -8zM271 310h390q-65 157 -193 479z" />
    <glyph glyph-name="Acircumflex" unicode="&#xc2;" horiz-adv-x="944" 
d="M470 1097l-137 -146h-95l202 222h60l201 -222h-95zM527 899q28 -61 120 -270.5t167.5 -373.5t116.5 -237l-7 -18q-95 -3 -131 13q-24 38 -90 198h-472l-87 -211h-131l396 899q21 8 60 8t58 -8zM271 310h390q-65 157 -193 479z" />
    <glyph glyph-name="Atilde" unicode="&#xc3;" horiz-adv-x="944" 
d="M370 1050q-24 0 -39 -24t-15 -68h-72q0 78 30.5 127.5t81.5 49.5q35 0 74.5 -24.5t74.5 -49t60 -24.5t41 25t16 68l72 -1q0 -76 -30 -126t-82 -50q-28 0 -59.5 15t-54.5 33.5t-50.5 33.5t-47.5 15zM527 899q28 -61 120 -270.5t167.5 -373.5t116.5 -237l-7 -18
q-95 -3 -131 13q-24 38 -90 198h-472l-87 -211h-131l396 899q21 8 60 8t58 -8zM271 310h390q-65 157 -193 479z" />
    <glyph glyph-name="Adieresis" unicode="&#xc4;" horiz-adv-x="944" 
d="M330 984q-23 0 -40 17t-17 40t17 40t40 17t40.5 -17t17.5 -40t-17.5 -40t-40.5 -17zM611 984q-23 0 -40 17t-17 40t17 40t40 17t40.5 -17t17.5 -40t-17.5 -40t-40.5 -17zM527 899q28 -61 120 -270.5t167.5 -373.5t116.5 -237l-7 -18q-95 -3 -131 13q-24 38 -90 198h-472
l-87 -211h-131l396 899q21 8 60 8t58 -8zM271 310h390q-65 157 -193 479z" />
    <glyph glyph-name="Aring" unicode="&#xc5;" horiz-adv-x="944" 
d="M530 892q30 -64 121 -271t165 -369t115 -234l-7 -18q-95 -3 -131 13q-24 38 -90 198h-472l-87 -211h-131l393 892q-59 14 -92.5 50t-33.5 88q0 63 51.5 104t140.5 41q86 0 138 -41t52 -104q0 -50 -37 -87.5t-95 -50.5zM349 1030q0 -39 33.5 -64.5t87.5 -25.5q52 0 87 26
t35 64q0 39 -35 65t-87 26q-54 0 -87.5 -26t-33.5 -65zM271 310h390q-65 157 -193 479z" />
    <glyph glyph-name="AE" unicode="&#xc6;" horiz-adv-x="1441" 
d="M1396 99q12 -13 12 -46.5t-12 -52.5h-668v211h-405l-156 -211h-154l698 899h663q7 -22 -0.5 -53.5t-19.5 -45.5h-504v-313h447q6 -24 -1.5 -56.5t-19.5 -42.5h-426v-289h546zM396 310l332 -1v449z" />
    <glyph glyph-name="Ccedilla" unicode="&#xc7;" horiz-adv-x="865" 
d="M821 592q-81 -19 -123 -8q7 101 -54 168t-159 66q-139 -1 -232 -110t-93 -264q0 -163 89 -262t231 -100q67 0 138 23t129 66q25 -10 40.5 -36t17.5 -47q-69 -54 -158 -81.5t-167 -27.5h-15q2 -17 9.5 -30t26.5 -35t30 -37q38 -49 38 -102q0 -54 -36.5 -93t-90.5 -40
q-70 0 -128 64l57 58q34 -40 70 -40q20 0 33.5 16t13.5 41q0 12 -5.5 24.5t-11.5 20.5t-19 24t-19 24q-26 33 -35 56.5t-10 57.5q-157 30 -255.5 152.5t-98.5 311.5q0 197 129.5 333t321.5 137q158 0 251.5 -92t84.5 -238z" />
    <glyph glyph-name="Egrave" unicode="&#xc8;" horiz-adv-x="799" 
d="M466 965h-75l-205 190h110zM754 99q11 -13 11.5 -46.5t-11.5 -52.5h-686v886l13 13h651q6 -22 -1.5 -53t-18.5 -46h-522v-314h464q6 -23 -1.5 -55.5t-18.5 -43.5h-444v-288h564z" />
    <glyph glyph-name="Eacute" unicode="&#xc9;" horiz-adv-x="799" 
d="M645 1149l-205 -196h-77l169 196h113zM754 99q11 -13 11.5 -46.5t-11.5 -52.5h-686v886l13 13h651q6 -22 -1.5 -53t-18.5 -46h-522v-314h464q6 -23 -1.5 -55.5t-18.5 -43.5h-444v-288h564z" />
    <glyph glyph-name="Ecircumflex" unicode="&#xca;" horiz-adv-x="799" 
d="M413 1097l-137 -146h-95l202 222h60l201 -222h-95zM754 99q11 -13 11.5 -46.5t-11.5 -52.5h-686v886l13 13h651q6 -22 -1.5 -53t-18.5 -46h-522v-314h464q6 -23 -1.5 -55.5t-18.5 -43.5h-444v-288h564z" />
    <glyph glyph-name="Edieresis" unicode="&#xcb;" horiz-adv-x="799" 
d="M274 984q-23 0 -40 17t-17 40t17 40t40 17t40.5 -17t17.5 -40t-17.5 -40t-40.5 -17zM555 984q-23 0 -40 17t-17 40t17 40t40 17t40.5 -17t17.5 -40t-17.5 -40t-40.5 -17zM754 99q11 -13 11.5 -46.5t-11.5 -52.5h-686v886l13 13h651q6 -22 -1.5 -53t-18.5 -46h-522v-314
h464q6 -23 -1.5 -55.5t-18.5 -43.5h-444v-288h564z" />
    <glyph glyph-name="Igrave" unicode="&#xcc;" horiz-adv-x="251" 
d="M103 965l-205 190h110l170 -190h-75zM68 0v899q21 8 59.5 7t55.5 -7v-899h-115z" />
    <glyph glyph-name="Iacute" unicode="&#xcd;" horiz-adv-x="251" 
d="M75 953l169 196h113l-205 -196h-77zM68 0v899q21 8 59.5 7t55.5 -7v-899h-115z" />
    <glyph glyph-name="Icircumflex" unicode="&#xce;" horiz-adv-x="251" 
d="M155 1173l201 -222h-95l-136 146l-137 -146h-95l202 222h60zM68 899q21 8 59.5 7t55.5 -7v-899h-115v899z" />
    <glyph glyph-name="Idieresis" unicode="&#xcf;" horiz-adv-x="251" 
d="M-14 984q-23 0 -40 17t-17 40t17 40t40 17t40.5 -17t17.5 -40t-17.5 -40t-40.5 -17zM267 984q-23 0 -40 17t-17 40t17 40t40 17t40.5 -17t17.5 -40t-17.5 -40t-40.5 -17zM68 0v899q21 8 59.5 7t55.5 -7v-899h-115z" />
    <glyph glyph-name="Eth" unicode="&#xd0;" horiz-adv-x="963" 
d="M449 922q224 0 352 -126t128 -334q0 -219 -122.5 -349.5t-337.5 -130.5q-110 0 -177.5 9t-154.5 34v395h-90v95h90v369q141 38 312 38zM802 459q1 161 -93.5 262.5t-263.5 101.5q-96 0 -186 -15v-293h251v-95h-251v-317q87 -23 208 -23q159 0 246.5 103.5t88.5 275.5z
" />
    <glyph glyph-name="Ntilde" unicode="&#xd1;" horiz-adv-x="951" 
d="M376 1050q-24 0 -39 -24t-15 -68h-72q0 78 30.5 127.5t81.5 49.5q35 0 74.5 -24.5t74.5 -49t60 -24.5t41 25t16 68l72 -1q0 -76 -30 -126t-82 -50q-28 0 -59.5 15t-54.5 33.5t-50.5 33.5t-47.5 15zM762 899q22 8 63 7t59 -7v-899h-89l-605 693v-693h-122v875
q11 13 42.5 22.5t45.5 4.5l606 -702v699z" />
    <glyph glyph-name="Ograve" unicode="&#xd2;" horiz-adv-x="927" 
d="M466 977l-205 190h110l170 -190h-75zM424 -18q-175 0 -282.5 123t-107.5 303q0 141 60 258.5t168.5 186.5t242.5 69q111 0 201 -62t139 -164t49 -221q0 -130 -61 -243t-169.5 -181.5t-239.5 -68.5zM430 85q140 0 237.5 118.5t99.5 278.5q2 144 -74.5 240t-198.5 96
q-144 0 -239 -119.5t-95 -291.5q1 -135 71.5 -228.5t198.5 -93.5z" />
    <glyph glyph-name="Oacute" unicode="&#xd3;" horiz-adv-x="927" 
d="M438 965l169 196h113l-205 -196h-77zM424 -18q-175 0 -282.5 123t-107.5 303q0 141 60 258.5t168.5 186.5t242.5 69q111 0 201 -62t139 -164t49 -221q0 -130 -61 -243t-169.5 -181.5t-239.5 -68.5zM430 85q140 0 237.5 118.5t99.5 278.5q2 144 -74.5 240t-198.5 96
q-144 0 -239 -119.5t-95 -291.5q1 -135 71.5 -228.5t198.5 -93.5z" />
    <glyph glyph-name="Ocircumflex" unicode="&#xd4;" horiz-adv-x="927" 
d="M488 1109l-137 -146h-95l202 222h60l201 -222h-95zM505 922q111 0 201 -62t139 -164t49 -221q0 -130 -61 -243t-169.5 -181.5t-239.5 -68.5q-175 0 -282.5 123t-107.5 303q0 141 60 258.5t168.5 186.5t242.5 69zM430 85q140 0 237.5 118.5t99.5 278.5q2 144 -74.5 240
t-198.5 96q-144 0 -239 -119.5t-95 -291.5q1 -135 71.5 -228.5t198.5 -93.5z" />
    <glyph glyph-name="Otilde" unicode="&#xd5;" horiz-adv-x="927" 
d="M600 965q-28 0 -59.5 15t-54.5 33.5t-50.5 33.5t-47.5 15q-24 0 -39 -24t-15 -68h-72q0 78 30.5 127.5t81.5 49.5q35 0 74.5 -24.5t74.5 -49t60 -24.5t41 25t16 68l72 -1q0 -76 -30 -126t-82 -50zM424 -18q-175 0 -282.5 123t-107.5 303q0 141 60 258.5t168.5 186.5
t242.5 69q111 0 201 -62t139 -164t49 -221q0 -130 -61 -243t-169.5 -181.5t-239.5 -68.5zM430 85q140 0 237.5 118.5t99.5 278.5q2 144 -74.5 240t-198.5 96q-144 0 -239 -119.5t-95 -291.5q1 -135 71.5 -228.5t198.5 -93.5z" />
    <glyph glyph-name="Odieresis" unicode="&#xd6;" horiz-adv-x="927" 
d="M349 996q-23 0 -40 17t-17 40t17 40t40 17t40.5 -17t17.5 -40t-17.5 -40t-40.5 -17zM630 996q-23 0 -40 17t-17 40t17.5 40t39.5 17q23 0 40.5 -17t17.5 -40t-17.5 -40t-40.5 -17zM424 -18q-175 0 -282.5 123t-107.5 303q0 141 60 258.5t168.5 186.5t242.5 69
q111 0 201 -62t139 -164t49 -221q0 -130 -61 -243t-169.5 -181.5t-239.5 -68.5zM430 85q140 0 237.5 118.5t99.5 278.5q2 144 -74.5 240t-198.5 96q-144 0 -239 -119.5t-95 -291.5q1 -135 71.5 -228.5t198.5 -93.5z" />
    <glyph glyph-name="multiply" unicode="&#xd7;" horiz-adv-x="804" 
d="M712 603l-235 -195l235 -195h-151l-159 132l-160 -132h-150l235 195l-235 195h150l160 -132l159 132h151z" />
    <glyph glyph-name="Oslash" unicode="&#xd8;" horiz-adv-x="999" 
d="M828 778q101 -128 101 -303q0 -130 -61 -243t-169.5 -181.5t-238.5 -68.5q-136 0 -235 78l-51 -60h-111l101 120q-95 118 -95 288q0 141 60 258.5t168.5 186.5t242.5 69q128 0 229 -83l44 53h111zM196 407q0 -110 47 -193l454 540q-70 64 -168 64q-144 0 -239 -119.5
t-94 -291.5zM466 85q140 0 237.5 118.5t99.5 278.5q0 118 -51 205l-455 -541q69 -61 169 -61z" />
    <glyph glyph-name="Ugrave" unicode="&#xd9;" horiz-adv-x="949" 
d="M453 974l-205 190h110l170 -190h-75zM464 -22q-192 0 -294 106.5t-102 308.5v506q21 7 64 6t59 -6v-511q0 -148 71.5 -227.5t201.5 -79.5q138 0 216.5 88.5t78.5 230.5v499q23 7 64 6t59 -6v-501q0 -185 -110 -302.5t-308 -117.5z" />
    <glyph glyph-name="Uacute" unicode="&#xda;" horiz-adv-x="949" 
d="M425 963l169 196h113l-205 -196h-77zM464 -22q-192 0 -294 106.5t-102 308.5v506q21 7 64 6t59 -6v-511q0 -148 71.5 -227.5t201.5 -79.5q138 0 216.5 88.5t78.5 230.5v499q23 7 64 6t59 -6v-501q0 -185 -110 -302.5t-308 -117.5z" />
    <glyph glyph-name="Ucircumflex" unicode="&#xdb;" horiz-adv-x="949" 
d="M475 1107l-137 -146h-95l202 222h60l201 -222h-95zM759 899q23 7 64 6t59 -6v-501q0 -185 -110 -302.5t-308 -117.5q-192 0 -294 106.5t-102 308.5v506q21 7 64 6t59 -6v-511q0 -148 71.5 -227.5t201.5 -79.5q138 0 216.5 88.5t78.5 230.5v499z" />
    <glyph glyph-name="Udieresis" unicode="&#xdc;" horiz-adv-x="949" 
d="M335 994q-23 0 -40 17t-17 40t17 40t40 17t40.5 -17t17.5 -40t-17.5 -40t-40.5 -17zM616 994q-23 0 -40 17t-17 40t17.5 40t39.5 17q23 0 40.5 -17t17.5 -40t-17.5 -40t-40.5 -17zM464 -22q-192 0 -294 106.5t-102 308.5v506q21 7 64 6t59 -6v-511q0 -148 71.5 -227.5
t201.5 -79.5q138 0 216.5 88.5t78.5 230.5v499q23 7 64 6t59 -6v-501q0 -185 -110 -302.5t-308 -117.5z" />
    <glyph glyph-name="Yacute" unicode="&#xdd;" horiz-adv-x="866" 
d="M665 1149l-205 -196h-77l169 196h113zM847 899q29 -283 -320 -596v-303h-122v313q-72 112 -201.5 303.5t-188.5 262.5l8 20q75 15 131 0q42 -45 158.5 -220.5t170.5 -267.5q114 103 182 241t60 238q41 23 122 9z" />
    <glyph glyph-name="Thorn" unicode="&#xde;" horiz-adv-x="838" 
d="M406 804q183 0 291 -89.5t107 -250.5q0 -162 -112.5 -254t-295.5 -92q-106 0 -203 26v-144h-125v905q23 8 65 7t60 -7v-119q86 18 213 18zM402 217q126 0 201.5 66t74.5 182q-1 115 -71.5 177.5t-204.5 62.5q-118 0 -209 -20v-441q91 -27 209 -27z" />
    <glyph glyph-name="germandbls" unicode="&#xdf;" horiz-adv-x="795" 
d="M764 290q7 -142 -73 -224.5t-200 -83.5q-110 -2 -208 69q-3 23 5.5 49.5t30.5 38.5q69 -54 142 -54q81 1 133.5 58.5t48.5 148.5q-3 69 -54.5 114t-136.5 44q-63 0 -141 -33q-14 14 -13 53t10 51q45 18 83 22q150 42 150 149q0 58 -44 97.5t-128 39.5q-83 0 -133 -58.5
t-50 -147.5v-623h-120v624q0 143 84.5 224.5t218.5 81.5q144 -1 219.5 -66.5t75.5 -157.5q0 -58 -34 -106.5t-102 -79.5q102 -12 167 -74t69 -156z" />
    <glyph glyph-name="agrave" unicode="&#xe0;" horiz-adv-x="720" 
d="M447 783h-81l-202 248h120zM656 206q1 -90 8 -127t22 -66l-1 -13h-105q-37 31 -37 125v18q-54 -75 -132 -118t-163 -43q-93 0 -149.5 48.5t-55.5 124.5q0 112 112.5 185t293.5 78q54 0 80 -2q-8 90 -51.5 141.5t-115.5 51.5q-95 2 -228 -83q-36 13 -43 81
q149 100 281 100q131 1 207 -87t77 -252v-162zM530 327l2 12q-54 4 -82 3q-138 -2 -213.5 -50.5t-75.5 -116.5q0 -45 30 -72t85 -27q100 0 174 79.5t80 171.5z" />
    <glyph glyph-name="aacute" unicode="&#xe1;" horiz-adv-x="720" 
d="M584 1031l-180 -248h-76l135 248h121zM656 206q1 -90 8 -127t22 -66l-1 -13h-105q-37 31 -37 125v18q-54 -75 -132 -118t-163 -43q-93 0 -149.5 48.5t-55.5 124.5q0 112 112.5 185t293.5 78q54 0 80 -2q-8 90 -51.5 141.5t-115.5 51.5q-95 2 -228 -83q-36 13 -43 81
q149 100 281 100q131 1 207 -87t77 -252v-162zM530 327l2 12q-54 4 -82 3q-138 -2 -213.5 -50.5t-75.5 -116.5q0 -45 30 -72t85 -27q100 0 174 79.5t80 171.5z" />
    <glyph glyph-name="acircumflex" unicode="&#xe2;" horiz-adv-x="720" 
d="M385 926l-137 -149h-98l206 234h58l205 -234h-98zM656 206q1 -90 8 -127t22 -66l-1 -13h-105q-37 31 -37 125v18q-54 -75 -132 -118t-163 -43q-93 0 -149.5 48.5t-55.5 124.5q0 112 112.5 185t293.5 78q54 0 80 -2q-8 90 -51.5 141.5t-115.5 51.5q-95 2 -228 -83
q-36 13 -43 81q149 100 281 100q131 1 207 -87t77 -252v-162zM530 327l2 12q-54 4 -82 3q-138 -2 -213.5 -50.5t-75.5 -116.5q0 -45 30 -72t85 -27q100 0 174 79.5t80 171.5z" />
    <glyph glyph-name="atilde" unicode="&#xe3;" horiz-adv-x="720" 
d="M284 898q-24 0 -39 -24.5t-15 -68.5h-72q0 83 30.5 136t81.5 53q44 0 113.5 -49t97.5 -49q25 0 41 25t16 68h72q0 -81 -30 -135t-82 -54q-36 0 -76 24.5t-76 49t-62 24.5zM656 206q1 -90 8 -127t22 -66l-1 -13h-105q-37 31 -37 125v18q-54 -75 -132 -118t-163 -43
q-93 0 -149.5 48.5t-55.5 124.5q0 112 112.5 185t293.5 78q54 0 80 -2q-8 90 -51.5 141.5t-115.5 51.5q-95 2 -228 -83q-36 13 -43 81q149 100 281 100q131 1 207 -87t77 -252v-162zM530 327l2 12q-54 4 -82 3q-138 -2 -213.5 -50.5t-75.5 -116.5q0 -45 30 -72t85 -27
q100 0 174 79.5t80 171.5z" />
    <glyph glyph-name="adieresis" unicode="&#xe4;" horiz-adv-x="720" 
d="M233 802q-29 0 -50 21t-21 50t21.5 50.5t49.5 21.5q29 0 50.5 -21.5t21.5 -50.5t-21.5 -50t-50.5 -21zM549 802q-29 0 -50.5 21.5t-21.5 49.5q0 29 21.5 50.5t50.5 21.5t50.5 -21.5t21.5 -50.5q0 -28 -21.5 -49.5t-50.5 -21.5zM656 206q1 -90 8 -127t22 -66l-1 -13h-105
q-37 31 -37 125v18q-54 -75 -132 -118t-163 -43q-93 0 -149.5 48.5t-55.5 124.5q0 112 112.5 185t293.5 78q54 0 80 -2q-8 90 -51.5 141.5t-115.5 51.5q-95 2 -228 -83q-36 13 -43 81q149 100 281 100q131 1 207 -87t77 -252v-162zM530 327l2 12q-54 4 -82 3
q-138 -2 -213.5 -50.5t-75.5 -116.5q0 -45 30 -72t85 -27q100 0 174 79.5t80 171.5z" />
    <glyph glyph-name="aring" unicode="&#xe5;" horiz-adv-x="720" 
d="M386 769q-86 0 -139 39.5t-53 105.5q0 63 51.5 104t140.5 41q86 0 138 -41t52 -104t-55.5 -104t-134.5 -41zM384 1005q-54 0 -87.5 -26t-33.5 -65t33.5 -64.5t87.5 -25.5q52 0 87 26t35 64q0 39 -35 65t-87 26zM656 206q1 -90 8 -127t22 -66l-1 -13h-105q-37 31 -37 125
v18q-54 -75 -132 -118t-163 -43q-93 0 -149.5 48.5t-55.5 124.5q0 112 112.5 185t293.5 78q54 0 80 -2q-8 90 -51.5 141.5t-115.5 51.5q-95 2 -228 -83q-36 13 -43 81q149 100 281 100q131 1 207 -87t77 -252v-162zM530 327l2 12q-54 4 -82 3q-138 -2 -213.5 -50.5
t-75.5 -116.5q0 -45 30 -72t85 -27q100 0 174 79.5t80 171.5z" />
    <glyph glyph-name="ae" unicode="&#xe6;" horiz-adv-x="1206" 
d="M880 707q140 0 224 -92.5t72 -250.5l-18 -23l-506 -83q18 -83 76.5 -129.5t138.5 -45.5q112 2 220 93q11 -4 20.5 -13.5t15.5 -19t10 -18.5t6 -15l2 -7q-132 -119 -286 -121q-91 -1 -166.5 43t-117.5 123q-55 -78 -141 -122.5t-182 -43.5q-93 1 -149.5 49.5t-55.5 123.5
q0 112 112 185t293 78q28 0 78 -2q-8 90 -50.5 141t-113.5 51q-94 0 -228 -82q-36 13 -43 81q149 100 281 100q80 1 140 -36t94 -106q48 66 119 104t155 38zM1058 399q3 97 -46.5 155.5t-131.5 58.5q-96 0 -163.5 -81t-71.5 -194zM528 327l2 12q-52 4 -80 3
q-138 -2 -213.5 -50.5t-75.5 -116.5q0 -45 30 -72t85 -27q99 0 172.5 76.5t79.5 174.5z" />
    <glyph glyph-name="ccedilla" unicode="&#xe7;" horiz-adv-x="702" 
d="M670 382q-77 -20 -118 -9q3 104 -43.5 168.5t-128.5 64.5q-95 0 -160.5 -80.5t-65.5 -197.5q0 -107 61 -176t151 -69q108 0 217 94q22 -8 37.5 -27.5t20.5 -33t5 -16.5q-125 -110 -271 -118q2 -18 9 -31t26.5 -36t30.5 -37q38 -50 38 -103q0 -54 -36.5 -92.5t-90.5 -39.5
q-69 -2 -128 64l57 58q34 -41 70 -41q20 0 33.5 16t13.5 41q0 12 -5.5 24.5t-11.5 20.5t-19.5 24.5t-18.5 23.5q-26 34 -35 57t-10 56q-116 20 -191.5 111.5t-75.5 230.5q0 159 103.5 268.5t251.5 109.5q135 0 214 -92t70 -233z" />
    <glyph glyph-name="egrave" unicode="&#xe8;" horiz-adv-x="706" 
d="M444 783h-81l-202 248h120zM380 707q140 0 224 -92.5t72 -250.5l-18 -23l-506 -83q18 -83 76.5 -129.5t138.5 -45.5q112 2 220 93q11 -4 20.5 -13.5t15.5 -19t10 -18.5t6 -15l2 -7q-132 -119 -286 -121q-135 -1 -228.5 89.5t-95.5 243.5q-2 163 97.5 277.5t251.5 114.5z
M558 404q4 95 -46 152t-132 57q-95 0 -162.5 -79.5t-72.5 -191.5z" />
    <glyph glyph-name="eacute" unicode="&#xe9;" horiz-adv-x="706" 
d="M580 1031l-180 -248h-76l135 248h121zM380 707q140 0 224 -92.5t72 -250.5l-18 -23l-506 -83q18 -83 76.5 -129.5t138.5 -45.5q112 2 220 93q11 -4 20.5 -13.5t15.5 -19t10 -18.5t6 -15l2 -7q-132 -119 -286 -121q-135 -1 -228.5 89.5t-95.5 243.5q-2 163 97.5 277.5
t251.5 114.5zM558 404q4 95 -46 152t-132 57q-95 0 -162.5 -79.5t-72.5 -191.5z" />
    <glyph glyph-name="ecircumflex" unicode="&#xea;" horiz-adv-x="706" 
d="M382 926l-137 -149h-98l206 234h58l205 -234h-98zM380 707q140 0 224 -92.5t72 -250.5l-18 -23l-506 -83q18 -83 76.5 -129.5t138.5 -45.5q112 2 220 93q11 -4 20.5 -13.5t15.5 -19t10 -18.5t6 -15l2 -7q-132 -119 -286 -121q-135 -1 -228.5 89.5t-95.5 243.5
q-2 163 97.5 277.5t251.5 114.5zM558 404q4 95 -46 152t-132 57q-95 0 -162.5 -79.5t-72.5 -191.5z" />
    <glyph glyph-name="edieresis" unicode="&#xeb;" horiz-adv-x="706" 
d="M230 802q-28 0 -49.5 21t-21.5 50t21.5 50.5t49.5 21.5q29 0 50.5 -21.5t21.5 -50.5t-21.5 -50t-50.5 -21zM546 802q-29 0 -50.5 21.5t-21.5 49.5q0 29 22 50.5t50 21.5t50 -21.5t22 -50.5q0 -28 -21.5 -49.5t-50.5 -21.5zM380 707q140 0 224 -92.5t72 -250.5l-18 -23
l-506 -83q18 -83 76.5 -129.5t138.5 -45.5q112 2 220 93q11 -4 20.5 -13.5t15.5 -19t10 -18.5t6 -15l2 -7q-132 -119 -286 -121q-135 -1 -228.5 89.5t-95.5 243.5q-2 163 97.5 277.5t251.5 114.5zM558 404q4 95 -46 152t-132 57q-95 0 -162.5 -79.5t-72.5 -191.5z" />
    <glyph glyph-name="igrave" unicode="&#xec;" horiz-adv-x="271" 
d="M117 783l-202 248h120l163 -248h-81zM76 0v671q19 6 61 6t59 -6v-671h-120z" />
    <glyph glyph-name="iacute" unicode="&#xed;" horiz-adv-x="271" 
d="M79 783l135 248h121l-180 -248h-76zM76 0v671q19 6 61 6t59 -6v-671h-120z" />
    <glyph glyph-name="icircumflex" unicode="&#xee;" horiz-adv-x="271" 
d="M165 1011l205 -234h-98l-136 149l-137 -149h-98l206 234h58zM76 671q19 6 61 6t59 -6v-671h-120v671z" />
    <glyph glyph-name="idieresis" unicode="&#xef;" horiz-adv-x="271" 
d="M-16 802q-28 0 -49.5 21t-21.5 50t21.5 50.5t49.5 21.5q29 0 50.5 -21.5t21.5 -50.5t-21.5 -50t-50.5 -21zM300 802q-29 0 -50.5 21.5t-21.5 49.5q0 29 22 50.5t50 21.5t50 -21.5t22 -50.5q0 -28 -21.5 -49.5t-50.5 -21.5zM76 0v671q19 6 61 6t59 -6v-671h-120z" />
    <glyph glyph-name="eth" unicode="&#xf0;" horiz-adv-x="720" 
d="M475 762q99 -89 156.5 -196.5t57.5 -221.5q0 -68 -22 -131.5t-64 -117t-113 -86t-162 -32.5q-136 0 -216.5 86t-80.5 217q0 144 92.5 240t229.5 98q96 0 163 -55q-47 81 -133 154q-87 -41 -217 -89q-42 17 -49 68q179 70 193 76q-69 46 -155 85q6 48 58 70
q103 -43 193 -109q98 53 106 97q26 8 59.5 2.5t53.5 -19.5q-10 -60 -150 -136zM335 76q101 0 166 82.5t65 190.5q-1 79 -50.5 132t-130.5 53q-100 0 -166 -74t-66 -181q-1 -88 47 -145.5t135 -57.5z" />
    <glyph glyph-name="ntilde" unicode="&#xf1;" horiz-adv-x="774" 
d="M326 898q-24 0 -39 -24.5t-15 -68.5h-72q0 83 30.5 136t81.5 53q44 0 113.5 -49t97.5 -49q25 0 41 25t16 68h72q0 -81 -30 -135t-82 -54q-36 0 -76 24.5t-76 49t-62 24.5zM452 707q132 0 198 -89t66 -255v-363h-120v347q0 122 -42 190t-124 68q-93 0 -165.5 -97
t-72.5 -212v-296h-121v512q0 81 -13 140v18q65 14 112 9q13 -41 13 -86v-46q46 70 117.5 115t151.5 45z" />
    <glyph glyph-name="ograve" unicode="&#xf2;" horiz-adv-x="760" 
d="M378 783l-202 248h120l163 -248h-81zM354 -18q-151 0 -237 95.5t-86 239.5q0 161 109 275.5t269 114.5q146 0 231.5 -94t87.5 -240q3 -169 -103.5 -280t-270.5 -111zM360 83q106 0 176 83t70 195q0 103 -56.5 174t-147.5 71q-105 0 -176.5 -85.5t-71.5 -203.5
q0 -99 54 -166.5t152 -67.5z" />
    <glyph glyph-name="oacute" unicode="&#xf3;" horiz-adv-x="760" 
d="M340 783l135 248h121l-180 -248h-76zM354 -18q-151 0 -237 95.5t-86 239.5q0 161 109 275.5t269 114.5q146 0 231.5 -94t87.5 -240q3 -169 -103.5 -280t-270.5 -111zM360 83q106 0 176 83t70 195q0 103 -56.5 174t-147.5 71q-105 0 -176.5 -85.5t-71.5 -203.5
q0 -99 54 -166.5t152 -67.5z" />
    <glyph glyph-name="ocircumflex" unicode="&#xf4;" horiz-adv-x="760" 
d="M398 926l-137 -149h-98l206 234h58l205 -234h-98zM728 373q3 -169 -103.5 -280t-270.5 -111q-151 0 -237 95.5t-86 239.5q0 161 109 275.5t269 114.5q146 0 231.5 -94t87.5 -240zM360 83q106 0 176 83t70 195q0 103 -56.5 174t-147.5 71q-105 0 -176.5 -85.5
t-71.5 -203.5q0 -99 54 -166.5t152 -67.5z" />
    <glyph glyph-name="otilde" unicode="&#xf5;" horiz-adv-x="760" 
d="M511 800q-36 0 -76 24.5t-76 49t-62 24.5q-24 0 -39 -24.5t-15 -68.5h-72q0 83 30.5 136t81.5 53q44 0 113.5 -49t97.5 -49q25 0 41 25t16 68h72q0 -81 -30 -135t-82 -54zM354 -18q-151 0 -237 95.5t-86 239.5q0 161 109 275.5t269 114.5q146 0 231.5 -94t87.5 -240
q3 -169 -103.5 -280t-270.5 -111zM360 83q106 0 176 83t70 195q0 103 -56.5 174t-147.5 71q-105 0 -176.5 -85.5t-71.5 -203.5q0 -99 54 -166.5t152 -67.5z" />
    <glyph glyph-name="odieresis" unicode="&#xf6;" horiz-adv-x="760" 
d="M246 802q-28 0 -49.5 21t-21.5 50t21.5 50.5t49.5 21.5q29 0 50.5 -21.5t21.5 -50.5t-21.5 -50t-50.5 -21zM562 802q-29 0 -50.5 21.5t-21.5 49.5q0 29 22 50.5t50 21.5t50 -21.5t22 -50.5q0 -28 -21.5 -49.5t-50.5 -21.5zM354 -18q-151 0 -237 95.5t-86 239.5
q0 161 109 275.5t269 114.5q146 0 231.5 -94t87.5 -240q3 -169 -103.5 -280t-270.5 -111zM360 83q106 0 176 83t70 195q0 103 -56.5 174t-147.5 71q-105 0 -176.5 -85.5t-71.5 -203.5q0 -99 54 -166.5t152 -67.5z" />
    <glyph glyph-name="divide" unicode="&#xf7;" horiz-adv-x="738" 
d="M371 596q-29 0 -50.5 21.5t-21.5 50.5t21.5 50.5t50.5 21.5t50 -21.5t21 -50.5t-21 -50.5t-50 -21.5zM92 387v100h554v-100h-554zM371 129q-29 0 -50.5 21.5t-21.5 50.5t21.5 50.5t50.5 21.5t50 -21.5t21 -50.5q0 -30 -20.5 -51t-50.5 -21z" />
    <glyph glyph-name="oslash" unicode="&#xf8;" horiz-adv-x="777" 
d="M738 373q2 -169 -104.5 -280t-270.5 -111q-122 0 -204 65l-44 -47h-70v15l70 76q-74 91 -74 226q0 161 109 275.5t269 114.5q124 0 206 -71l32 35h79v-13l-65 -70q65 -90 67 -215zM164 317q0 -79 34 -137l34 37l37 35l170 179l27 31l80 88q-54 56 -135 56
q-105 0 -176 -85.5t-71 -203.5zM370 83q106 0 175.5 83t69.5 195q0 75 -30 134l-44 -48l-38 -36l-173 -177l-25 -30l-68 -73q53 -48 133 -48z" />
    <glyph glyph-name="ugrave" unicode="&#xf9;" horiz-adv-x="766" 
d="M442 783h-81l-202 248h120zM697 195q0 -129 25 -180l-1 -15h-101q-18 18 -25.5 42t-7.5 80v3q-42 -66 -112 -104.5t-154 -38.5q-120 0 -191.5 75t-71.5 228v386q46 12 120 0v-366q0 -222 167 -222q105 0 168 85.5t63 220.5v282q22 5 64.5 4.5t56.5 -4.5v-476z" />
    <glyph glyph-name="uacute" unicode="&#xfa;" horiz-adv-x="766" 
d="M579 1031l-180 -248h-76l135 248h121zM697 195q0 -129 25 -180l-1 -15h-101q-18 18 -25.5 42t-7.5 80v3q-42 -66 -112 -104.5t-154 -38.5q-120 0 -191.5 75t-71.5 228v386q46 12 120 0v-366q0 -222 167 -222q105 0 168 85.5t63 220.5v282q22 5 64.5 4.5t56.5 -4.5v-476z
" />
    <glyph glyph-name="ucircumflex" unicode="&#xfb;" horiz-adv-x="766" 
d="M380 926l-137 -149h-98l206 234h58l205 -234h-98zM697 195q0 -129 25 -180l-1 -15h-101q-18 18 -25.5 42t-7.5 80v3q-42 -66 -112 -104.5t-154 -38.5q-120 0 -191.5 75t-71.5 228v386q46 12 120 0v-366q0 -222 167 -222q105 0 168 85.5t63 220.5v282q22 5 64.5 4.5
t56.5 -4.5v-476z" />
    <glyph glyph-name="udieresis" unicode="&#xfc;" horiz-adv-x="766" 
d="M229 802q-29 0 -50 21t-21 50t21.5 50.5t49.5 21.5q29 0 50.5 -21.5t21.5 -50.5t-21.5 -50t-50.5 -21zM545 802q-29 0 -50.5 21.5t-21.5 49.5q0 29 21.5 50.5t50.5 21.5t50.5 -21.5t21.5 -50.5q0 -28 -21.5 -49.5t-50.5 -21.5zM697 195q0 -129 25 -180l-1 -15h-101
q-18 18 -25.5 42t-7.5 80v3q-42 -66 -112 -104.5t-154 -38.5q-120 0 -191.5 75t-71.5 228v386q46 12 120 0v-366q0 -222 167 -222q105 0 168 85.5t63 220.5v282q22 5 64.5 4.5t56.5 -4.5v-476z" />
    <glyph glyph-name="yacute" unicode="&#xfd;" horiz-adv-x="745" 
d="M576 1032l-180 -248h-76l135 248h121zM726 671q8 -67 6 -143.5t-25 -167.5t-58 -177t-94.5 -171.5t-134.5 -150.5q-138 -118 -301 -120q-54 0 -86 17q-19 46 -1 86l20 12q31 -14 68 -14q118 0 245 125q28 28 48 52q-70 47 -133 118t-105 141.5t-76.5 147.5t-52 130.5
t-27.5 95.5l6 18q59 15 112 1q11 -44 34 -106.5t63.5 -147t105 -170t138.5 -142.5q148 230 132 556q37 25 116 10z" />
    <glyph glyph-name="thorn" unicode="&#xfe;" horiz-adv-x="748" 
d="M424 707q133 0 213 -93.5t80 -241.5q0 -162 -91 -276t-232 -114q-133 0 -216 112l1 -336q-60 -14 -121 0v1176q19 6 61 6t59 -6v-397q36 75 103 122.5t143 47.5zM373 84q97 0 159 85.5t62 204.5q-1 101 -50.5 166.5t-129.5 65.5q-96 0 -165.5 -98.5t-69.5 -218.5
q0 -77 56.5 -141t137.5 -64z" />
    <glyph glyph-name="ydieresis" unicode="&#xff;" horiz-adv-x="745" 
d="M225 803q-29 0 -50 21.5t-21 49.5q0 29 21.5 50.5t49.5 21.5q29 0 50.5 -21.5t21.5 -50.5t-21.5 -50t-50.5 -21zM541 803q-29 0 -50.5 21.5t-21.5 49.5t21.5 50t50.5 22t50.5 -22t21.5 -50t-21.5 -49.5t-50.5 -21.5zM726 671q8 -67 6 -143.5t-25 -167.5t-58 -177
t-94.5 -171.5t-134.5 -150.5q-138 -118 -301 -120q-54 0 -86 17q-19 46 -1 86l20 12q31 -14 68 -14q118 0 245 125q28 28 48 52q-70 47 -133 118t-105 141.5t-76.5 147.5t-52 130.5t-27.5 95.5l6 18q59 15 112 1q11 -44 34 -106.5t63.5 -147t105 -170t138.5 -142.5
q148 230 132 556q37 25 116 10z" />
    <glyph glyph-name="Amacron" unicode="&#x100;" horiz-adv-x="944" 
d="M698 1065v-81h-455v81h455zM527 899q28 -61 120 -270.5t167.5 -373.5t116.5 -237l-7 -18q-95 -3 -131 13q-24 38 -90 198h-472l-87 -211h-131l396 899q21 8 60 8t58 -8zM271 310h390q-65 157 -193 479z" />
    <glyph glyph-name="amacron" unicode="&#x101;" horiz-adv-x="720" 
d="M625 923v-88h-478v88h478zM656 206q1 -90 8 -127t22 -66l-1 -13h-105q-37 31 -37 125v18q-54 -75 -132 -118t-163 -43q-93 0 -149.5 48.5t-55.5 124.5q0 112 112.5 185t293.5 78q54 0 80 -2q-8 90 -51.5 141.5t-115.5 51.5q-95 2 -228 -83q-36 13 -43 81q149 100 281 100
q131 1 207 -87t77 -252v-162zM530 327l2 12q-54 4 -82 3q-138 -2 -213.5 -50.5t-75.5 -116.5q0 -45 30 -72t85 -27q100 0 174 79.5t80 171.5z" />
    <glyph glyph-name="Abreve" unicode="&#x102;" horiz-adv-x="944" 
d="M469 949q-98 0 -159.5 48t-61.5 139h84q0 -51 37.5 -83.5t99.5 -32.5t100.5 33.5t38.5 82.5h85q0 -88 -63.5 -137.5t-160.5 -49.5zM527 899q28 -61 120 -270.5t167.5 -373.5t116.5 -237l-7 -18q-95 -3 -131 13q-24 38 -90 198h-472l-87 -211h-131l396 899q21 8 60 8
t58 -8zM271 310h390q-65 157 -193 479z" />
    <glyph glyph-name="abreve" unicode="&#x103;" horiz-adv-x="720" 
d="M384 769q-104 0 -169 55.5t-65 159.5h87q0 -59 40 -95.5t107 -36.5t107.5 37.5t40.5 94.5h88q0 -101 -68 -158t-168 -57zM656 206q1 -90 8 -127t22 -66l-1 -13h-105q-37 31 -37 125v18q-54 -75 -132 -118t-163 -43q-93 0 -149.5 48.5t-55.5 124.5q0 112 112.5 185
t293.5 78q54 0 80 -2q-8 90 -51.5 141.5t-115.5 51.5q-95 2 -228 -83q-36 13 -43 81q149 100 281 100q131 1 207 -87t77 -252v-162zM530 327l2 12q-54 4 -82 3q-138 -2 -213.5 -50.5t-75.5 -116.5q0 -45 30 -72t85 -27q100 0 174 79.5t80 171.5z" />
    <glyph glyph-name="Aogonek" unicode="&#x104;" horiz-adv-x="944" 
d="M898 -205l55 -46q-26 -41 -70.5 -68t-87.5 -27q-57 -1 -93.5 31.5t-36.5 94.5q0 54 33 121.5t91 118.5q-24 42 -86 191h-472l-87 -211h-131l396 899q21 8 60 8t58 -8q28 -61 120 -270.5t167.5 -373.5t116.5 -237l-7 -18q-32 -2 -68 1q-103 -109 -103 -201q0 -29 17 -44
t42 -13q22 0 46.5 14.5t39.5 37.5zM271 310h390q-65 157 -193 479z" />
    <glyph glyph-name="aogonek" unicode="&#x105;" horiz-adv-x="720" 
d="M683 -215l55 -46q-26 -41 -70.5 -68t-87.5 -27q-57 -1 -93.5 31.5t-36.5 94.5q0 53 32.5 120t89.5 118q-29 31 -29 117v18q-54 -75 -132 -118t-163 -43q-93 0 -149.5 48.5t-55.5 124.5q0 112 112.5 185t293.5 78q54 0 80 -2q-8 90 -51.5 141.5t-115.5 51.5
q-95 2 -228 -83q-36 13 -43 81q149 100 281 100q131 1 207 -87t77 -252v-162q1 -90 8 -127t22 -66l-1 -13h-35q-112 -112 -112 -210q0 -29 17 -44t42 -13q22 0 46.5 14.5t39.5 37.5zM530 327l2 12q-54 4 -82 3q-138 -2 -213.5 -50.5t-75.5 -116.5q0 -45 30 -72t85 -27
q100 0 174 79.5t80 171.5z" />
    <glyph glyph-name="Cacute" unicode="&#x106;" horiz-adv-x="865" 
d="M435 976l169 196h113l-205 -196h-77zM480 -21q-191 0 -318.5 128t-127.5 345q0 197 129.5 333t321.5 137q158 0 251.5 -92t84.5 -238q-81 -19 -123 -8q7 101 -54 168t-159 66q-139 -1 -232 -110t-93 -264q0 -163 89 -262t231 -100q67 0 138 23t129 66q25 -10 40.5 -36
t17.5 -47q-69 -54 -158 -81.5t-167 -27.5z" />
    <glyph glyph-name="cacute" unicode="&#x107;" horiz-adv-x="702" 
d="M328 783l135 248h121l-180 -248h-76zM359 -18q-137 -1 -232.5 94t-95.5 253q0 159 103.5 268.5t251.5 109.5q135 0 214 -92t70 -233q-77 -20 -118 -9q3 104 -43.5 168.5t-128.5 64.5q-95 0 -160.5 -80.5t-65.5 -197.5q0 -107 61 -176t151 -69q108 0 217 94
q22 -8 37.5 -27.5t20.5 -33t5 -16.5q-133 -116 -287 -118z" />
    <glyph glyph-name="Cdotaccent" unicode="&#x10a;" horiz-adv-x="865" 
d="M484 1005q-23 0 -40.5 17t-17.5 40t17.5 40.5t40.5 17.5t40.5 -17.5t17.5 -40.5q0 -22 -17.5 -39.5t-40.5 -17.5zM480 -21q-191 0 -318.5 128t-127.5 345q0 197 129.5 333t321.5 137q158 0 251.5 -92t84.5 -238q-81 -19 -123 -8q7 101 -54 168t-159 66q-139 -1 -232 -110
t-93 -264q0 -163 89 -262t231 -100q67 0 138 23t129 66q25 -10 40.5 -36t17.5 -47q-69 -54 -158 -81.5t-167 -27.5z" />
    <glyph glyph-name="cdotaccent" unicode="&#x10b;" horiz-adv-x="702" 
d="M385 802q-29 0 -50.5 21t-21.5 50t21.5 50.5t50.5 21.5t50.5 -21.5t21.5 -50.5q0 -28 -21.5 -49.5t-50.5 -21.5zM359 -18q-137 -1 -232.5 94t-95.5 253q0 159 103.5 268.5t251.5 109.5q135 0 214 -92t70 -233q-77 -20 -118 -9q3 104 -43.5 168.5t-128.5 64.5
q-95 0 -160.5 -80.5t-65.5 -197.5q0 -107 61 -176t151 -69q108 0 217 94q22 -8 37.5 -27.5t20.5 -33t5 -16.5q-133 -116 -287 -118z" />
    <glyph glyph-name="Ccaron" unicode="&#x10c;" horiz-adv-x="865" 
d="M514 972h-58l-206 225h98l137 -144l136 144h98zM821 592q-81 -19 -123 -8q7 101 -54 168t-159 66q-139 -1 -232 -110t-93 -264q0 -163 89 -262t231 -100q67 0 138 23t129 66q25 -10 40.5 -36t17.5 -47q-69 -54 -158 -81.5t-167 -27.5q-191 0 -318.5 128t-127.5 345
q0 197 129.5 333t321.5 137q158 0 251.5 -92t84.5 -238z" />
    <glyph glyph-name="ccaron" unicode="&#x10d;" horiz-adv-x="702" 
d="M415 783h-58l-206 234h98l137 -153l136 153h98zM670 382q-77 -20 -118 -9q3 104 -43.5 168.5t-128.5 64.5q-95 0 -160.5 -80.5t-65.5 -197.5q0 -107 61 -176t151 -69q108 0 217 94q22 -8 37.5 -27.5t20.5 -33t5 -16.5q-133 -116 -287 -118q-137 -1 -232.5 94t-95.5 253
q0 159 103.5 268.5t251.5 109.5q135 0 214 -92t70 -233z" />
    <glyph glyph-name="Dcaron" unicode="&#x10e;" horiz-adv-x="894" 
d="M409 972h-58l-206 225h98l137 -144l136 144h98zM380 922q224 0 352 -126t128 -334q0 -219 -122.5 -349.5t-337.5 -130.5q-110 0 -177.5 9t-154.5 34v859q141 38 312 38zM733 459q1 161 -93.5 262.5t-263.5 101.5q-96 0 -186 -15v-705q87 -23 208 -23q159 0 246.5 103.5
t88.5 275.5z" />
    <glyph glyph-name="dcaron" unicode="&#x10f;" horiz-adv-x="886" 
d="M882 1074h115l-44 -333h-87zM700 934v-761q0 -91 13 -156v-17h-102q-24 45 -28 124q-42 -65 -105.5 -103.5t-141.5 -38.5q-131 0 -215.5 96.5t-84.5 239.5q0 165 93.5 277t243.5 112q65 0 120 -36t87 -95v358q17 6 58.5 6t61.5 -6zM358 84q94 0 156 92.5t62 222.5
q0 87 -54.5 147t-129.5 60q-99 0 -165.5 -80t-67.5 -197q0 -107 55 -176t144 -69z" />
    <glyph glyph-name="Dcroat" unicode="&#x110;" horiz-adv-x="963" 
d="M449 922q224 0 352 -126t128 -334q0 -219 -122.5 -349.5t-337.5 -130.5q-110 0 -177.5 9t-154.5 34v395h-90v95h90v369q141 38 312 38zM802 459q1 161 -93.5 262.5t-263.5 101.5q-96 0 -186 -15v-293h251v-95h-251v-317q87 -23 208 -23q159 0 246.5 103.5t88.5 275.5z
" />
    <glyph glyph-name="dcroat" unicode="&#x111;" horiz-adv-x="774" 
d="M790 779h-95v-606q0 -93 14 -156v-17h-102q-25 47 -29 124q-42 -65 -105.5 -103.5t-141.5 -38.5q-131 0 -215.5 96.5t-84.5 239.5q0 165 93.5 277t243.5 112q66 0 120.5 -35.5t86.5 -94.5v202h-231v63h231v92q18 6 59 6t61 -6v-92h95v-63zM353 84q94 0 156 92.5t62 222.5
q0 87 -54.5 147t-129.5 60q-99 0 -165.5 -80t-67.5 -197q0 -107 55.5 -176t143.5 -69z" />
    <glyph glyph-name="Emacron" unicode="&#x112;" horiz-adv-x="799" 
d="M641 1065v-81h-455v81h455zM754 99q11 -13 11.5 -46.5t-11.5 -52.5h-686v886l13 13h651q6 -22 -1.5 -53t-18.5 -46h-522v-314h464q6 -23 -1.5 -55.5t-18.5 -43.5h-444v-288h564z" />
    <glyph glyph-name="emacron" unicode="&#x113;" horiz-adv-x="706" 
d="M621 923v-88h-478v88h478zM380 707q140 0 224 -92.5t72 -250.5l-18 -23l-506 -83q18 -83 76.5 -129.5t138.5 -45.5q112 2 220 93q11 -4 20.5 -13.5t15.5 -19t10 -18.5t6 -15l2 -7q-132 -119 -286 -121q-135 -1 -228.5 89.5t-95.5 243.5q-2 163 97.5 277.5t251.5 114.5z
M558 404q4 95 -46 152t-132 57q-95 0 -162.5 -79.5t-72.5 -191.5z" />
    <glyph glyph-name="Ebreve" unicode="&#x114;" horiz-adv-x="799" 
d="M413 949q-99 0 -160.5 48t-61.5 138h84q0 -50 37.5 -82.5t100.5 -32.5q62 0 100 33t38 82h85q0 -87 -63.5 -136.5t-159.5 -49.5zM754 99q11 -13 11.5 -46.5t-11.5 -52.5h-686v886l13 13h651q6 -22 -1.5 -53t-18.5 -46h-522v-314h464q6 -23 -1.5 -55.5t-18.5 -43.5h-444
v-288h564z" />
    <glyph glyph-name="ebreve" unicode="&#x115;" horiz-adv-x="706" 
d="M380 769q-104 0 -169 55.5t-65 159.5h87q0 -59 40 -95.5t107 -36.5t107.5 37.5t40.5 94.5h88q0 -101 -68 -158t-168 -57zM380 707q140 0 224 -92.5t72 -250.5l-18 -23l-506 -83q18 -83 76.5 -129.5t138.5 -45.5q112 2 220 93q11 -4 20.5 -13.5t15.5 -19t10 -18.5t6 -15
l2 -7q-132 -119 -286 -121q-135 -1 -228.5 89.5t-95.5 243.5q-2 163 97.5 277.5t251.5 114.5zM558 404q4 95 -46 152t-132 57q-95 0 -162.5 -79.5t-72.5 -191.5z" />
    <glyph glyph-name="Edotaccent" unicode="&#x116;" horiz-adv-x="799" 
d="M413 982q-23 0 -40.5 17t-17.5 40t17.5 40.5t40.5 17.5t40.5 -17.5t17.5 -40.5q0 -22 -17.5 -39.5t-40.5 -17.5zM754 99q11 -13 11.5 -46.5t-11.5 -52.5h-686v886l13 13h651q6 -22 -1.5 -53t-18.5 -46h-522v-314h464q6 -23 -1.5 -55.5t-18.5 -43.5h-444v-288h564z" />
    <glyph glyph-name="edotaccent" unicode="&#x117;" horiz-adv-x="706" 
d="M381 802q-29 0 -50.5 21t-21.5 50t21.5 50.5t50.5 21.5t50.5 -21.5t21.5 -50.5q0 -28 -21.5 -49.5t-50.5 -21.5zM380 707q140 0 224 -92.5t72 -250.5l-18 -23l-506 -83q18 -83 76.5 -129.5t138.5 -45.5q112 2 220 93q11 -4 20.5 -13.5t15.5 -19t10 -18.5t6 -15l2 -7
q-132 -119 -286 -121q-135 -1 -228.5 89.5t-95.5 243.5q-2 163 97.5 277.5t251.5 114.5zM558 404q4 95 -46 152t-132 57q-95 0 -162.5 -79.5t-72.5 -191.5z" />
    <glyph glyph-name="Eogonek" unicode="&#x118;" horiz-adv-x="799" 
d="M754 0h-281q-101 -109 -101 -199q0 -29 17 -44t42 -13q22 0 46.5 14.5t39.5 37.5l55 -46q-26 -41 -70.5 -68t-87.5 -27q-57 -1 -93.5 31.5t-36.5 94.5q0 48 27 108.5t75 110.5h-318v886l13 13h651q6 -22 -1.5 -53t-18.5 -46h-522v-314h464q6 -23 -1.5 -55.5t-18.5 -43.5
h-444v-288h564q11 -13 11.5 -46.5t-11.5 -52.5z" />
    <glyph glyph-name="eogonek" unicode="&#x119;" horiz-adv-x="706" 
d="M380 707q140 0 224 -92.5t72 -250.5l-18 -23l-506 -83q18 -83 76.5 -129.5t138.5 -45.5q112 2 220 93q11 -4 20.5 -13.5t15.5 -19t10 -18.5t6 -15l2 -7q-119 -107 -258 -120q-107 -112 -107 -205q0 -29 17 -44t42 -13q22 0 46.5 14.5t39.5 37.5l55 -46q-26 -41 -70.5 -68
t-87.5 -27q-57 -1 -93.5 31.5t-36.5 94.5q0 50 29.5 114t81.5 114q-115 18 -190.5 105.5t-77.5 223.5q-2 163 97.5 277.5t251.5 114.5zM558 404q4 95 -46 152t-132 57q-95 0 -162.5 -79.5t-72.5 -191.5z" />
    <glyph glyph-name="Ecaron" unicode="&#x11a;" horiz-adv-x="799" 
d="M443 950h-58l-206 225h98l137 -144l136 144h98zM754 99q11 -13 11.5 -46.5t-11.5 -52.5h-686v886l13 13h651q6 -22 -1.5 -53t-18.5 -46h-522v-314h464q6 -23 -1.5 -55.5t-18.5 -43.5h-444v-288h564z" />
    <glyph glyph-name="ecaron" unicode="&#x11b;" horiz-adv-x="706" 
d="M411 783h-58l-206 234h98l137 -153l136 153h98zM380 707q140 0 224 -92.5t72 -250.5l-18 -23l-506 -83q18 -83 76.5 -129.5t138.5 -45.5q112 2 220 93q11 -4 20.5 -13.5t15.5 -19t10 -18.5t6 -15l2 -7q-132 -119 -286 -121q-135 -1 -228.5 89.5t-95.5 243.5
q-2 163 97.5 277.5t251.5 114.5zM558 404q4 95 -46 152t-132 57q-95 0 -162.5 -79.5t-72.5 -191.5z" />
    <glyph glyph-name="Gbreve" unicode="&#x11e;" horiz-adv-x="886" 
d="M472 971q-98 0 -159.5 48t-61.5 139h84q0 -51 37.5 -83.5t99.5 -32.5t100.5 33.5t38.5 82.5h85q0 -88 -63.5 -137.5t-160.5 -49.5zM475 818q-144 0 -229.5 -106.5t-85.5 -265.5q0 -162 90 -261.5t239 -99.5q133 0 235 53v213h-290q-6 24 1.5 56t18.5 43h374l15 -17v-345
q-64 -51 -162 -78.5t-192 -27.5q-197 0 -326 127t-129 343q0 124 51 230t153 173t235 67q161 0 268 -88.5t102 -221.5q-26 -6 -60.5 -9.5t-60.5 1.5q-4 99 -73.5 156.5t-173.5 57.5z" />
    <glyph glyph-name="gbreve" unicode="&#x11f;" horiz-adv-x="765" 
d="M378 763q-104 0 -169 55.5t-65 159.5h87q0 -59 40 -95.5t107 -36.5t107.5 37.5t40.5 94.5h88q0 -101 -68 -158t-168 -57zM602 680q46 5 105 -8v-16q-13 -94 -13 -159v-413q0 -174 -91.5 -273t-234.5 -100q-158 0 -309 114q12 68 48 88q142 -103 252 -101q99 1 161.5 72.5
t62.5 196.5v57q-38 -72 -100.5 -114t-138.5 -42q-136 0 -224.5 90.5t-88.5 244.5q0 164 93 276.5t241 112.5q72 0 130 -39t91 -101v23zM354 84q91 0 153 87.5t63 236.5q-2 74 -55.5 136t-129.5 62q-104 0 -167 -83.5t-64 -195.5q0 -105 54 -174t146 -69z" />
    <glyph glyph-name="Gdotaccent" unicode="&#x120;" horiz-adv-x="886" 
d="M472 1005q-23 0 -40.5 17t-17.5 40t17.5 40.5t40.5 17.5t40.5 -17.5t17.5 -40.5q0 -22 -17.5 -39.5t-40.5 -17.5zM475 818q-144 0 -229.5 -106.5t-85.5 -265.5q0 -162 90 -261.5t239 -99.5q133 0 235 53v213h-290q-6 24 1.5 56t18.5 43h374l15 -17v-345
q-64 -51 -162 -78.5t-192 -27.5q-197 0 -326 127t-129 343q0 124 51 230t153 173t235 67q161 0 268 -88.5t102 -221.5q-26 -6 -60.5 -9.5t-60.5 1.5q-4 99 -73.5 156.5t-173.5 57.5z" />
    <glyph glyph-name="gdotaccent" unicode="&#x121;" horiz-adv-x="765" 
d="M379 796q-29 0 -50.5 21t-21.5 50t21.5 50.5t50.5 21.5t50.5 -21.5t21.5 -50.5q0 -28 -21.5 -49.5t-50.5 -21.5zM602 680q46 5 105 -8v-16q-13 -94 -13 -159v-413q0 -174 -91.5 -273t-234.5 -100q-158 0 -309 114q12 68 48 88q142 -103 252 -101q99 1 161.5 72.5
t62.5 196.5v57q-38 -72 -100.5 -114t-138.5 -42q-136 0 -224.5 90.5t-88.5 244.5q0 164 93 276.5t241 112.5q72 0 130 -39t91 -101v23zM354 84q91 0 153 87.5t63 236.5q-2 74 -55.5 136t-129.5 62q-104 0 -167 -83.5t-64 -195.5q0 -105 54 -174t146 -69z" />
    <glyph glyph-name="uni0122" unicode="&#x122;" horiz-adv-x="886" 
d="M475 818q-144 0 -229.5 -106.5t-85.5 -265.5q0 -162 90 -261.5t239 -99.5q133 0 235 53v213h-290q-6 24 1.5 56t18.5 43h374l15 -17v-345q-64 -51 -162 -78.5t-192 -27.5q-197 0 -326 127t-129 343q0 124 51 230t153 173t235 67q161 0 268 -88.5t102 -221.5
q-26 -6 -60.5 -9.5t-60.5 1.5q-4 99 -73.5 156.5t-173.5 57.5zM373 -307l41 222h94l-54 -222h-81z" />
    <glyph glyph-name="uni0123" unicode="&#x123;" horiz-adv-x="765" 
d="M472 1031l-54 -236h-95l68 236h81zM602 680q46 5 105 -8v-16q-13 -94 -13 -159v-413q0 -174 -91.5 -273t-234.5 -100q-158 0 -309 114q12 68 48 88q142 -103 252 -101q99 1 161.5 72.5t62.5 196.5v57q-38 -72 -100.5 -114t-138.5 -42q-136 0 -224.5 90.5t-88.5 244.5
q0 164 93 276.5t241 112.5q72 0 130 -39t91 -101v23zM354 84q91 0 153 87.5t63 236.5q-2 74 -55.5 136t-129.5 62q-104 0 -167 -83.5t-64 -195.5q0 -105 54 -174t146 -69z" />
    <glyph glyph-name="Hcircumflex" unicode="&#x124;" horiz-adv-x="861" 
d="M431 1097l-137 -146h-95l202 222h60l201 -222h-95zM671 899q24 8 64 7t58 -7v-899h-122v360h-481v-360h-122v899q23 8 63.5 7t58.5 -7v-440h481v440z" />
    <glyph glyph-name="hcircumflex" unicode="&#x125;" horiz-adv-x="747" 
d="M394 1118l-137 -149h-98l206 234h58l205 -234h-98zM443 707q127 0 194 -90t67 -254v-363h-120v349q0 117 -42 184t-124 67q-95 0 -167.5 -96t-72.5 -215v-289h-120v934q20 6 60.5 6t59.5 -6v-374q47 67 116 107t149 40z" />
    <glyph glyph-name="Hbar" unicode="&#x126;" horiz-adv-x="923" 
d="M869 704v-93h-46v-611h-122v360h-481v-360h-122v611h-44v93h44v195q23 8 63.5 7t58.5 -7v-195h481v195q23 8 63.5 7t58.5 -7v-195h46zM701 459v152h-481v-152h481z" />
    <glyph glyph-name="hbar" unicode="&#x127;" horiz-adv-x="733" 
d="M430 707q127 0 193.5 -90t66.5 -254v-363h-120v349q0 117 -42 184t-124 67q-95 0 -167.5 -96t-72.5 -215v-289h-120v800h-77v62h77v72q21 6 61.5 6t58.5 -6v-72h302v-62h-302v-241q47 67 116.5 107.5t149.5 40.5z" />
    <glyph glyph-name="Imacron" unicode="&#x12a;" horiz-adv-x="251" 
d="M-27 984v81h304v-81h-304zM68 0v899q21 8 59.5 7t55.5 -7v-899h-115z" />
    <glyph glyph-name="imacron" unicode="&#x12b;" horiz-adv-x="271" 
d="M-71 835v88h416v-88h-416zM76 0v671q19 6 61 6t59 -6v-671h-120z" />
    <glyph glyph-name="Iogonek" unicode="&#x12e;" horiz-adv-x="251" 
d="M192 -197l55 -46q-26 -41 -70.5 -68t-87.5 -27q-57 -1 -93.5 31.5t-36.5 94.5q0 50 29 113t80 113v885q21 8 59.5 7t55.5 -7v-899h-41q-95 -104 -95 -192q0 -29 17 -44t42 -13q22 0 46.5 14.5t39.5 37.5z" />
    <glyph glyph-name="iogonek" unicode="&#x12f;" horiz-adv-x="271" 
d="M136 802q-29 0 -50.5 21t-21.5 50t21.5 50.5t50.5 21.5q28 0 50 -21.5t22 -50.5q0 -28 -21.5 -49.5t-50.5 -21.5zM226 -218l55 -46q-26 -41 -70.5 -68t-87.5 -27q-57 -1 -93.5 31.5t-36.5 94.5q0 52 31 117.5t85 115.5h-33v671q19 6 61 6t59 -6v-669h2l-2 -2
q-56 -55 -85.5 -111t-29.5 -102q0 -29 17 -44t42 -13q22 0 46.5 14.5t39.5 37.5z" />
    <glyph glyph-name="Idotaccent" unicode="&#x130;" horiz-adv-x="251" 
d="M125 982q-23 0 -40.5 17t-17.5 40t17.5 40.5t40.5 17.5t40.5 -17.5t17.5 -40.5q0 -22 -17.5 -39.5t-40.5 -17.5zM68 0v899q21 8 59.5 7t55.5 -7v-899h-115z" />
    <glyph glyph-name="dotlessi" unicode="&#x131;" horiz-adv-x="271" 
d="M76 0v671q19 6 61 6t59 -6v-671h-120z" />
    <glyph glyph-name="IJ" unicode="&#x132;" horiz-adv-x="1045" 
d="M68 0v899q21 8 59.5 7t55.5 -7v-899h-115zM601 -18q-102 0 -200 51t-172 138q8 29 27.5 53t40.5 31q58 -77 136 -123.5t157 -46.5q124 0 192.5 84.5t68.5 222.5v507q27 7 66.5 6t55.5 -6v-527q0 -105 -42 -192.5t-128 -142.5t-202 -55z" />
    <glyph glyph-name="ij" unicode="&#x133;" horiz-adv-x="561" 
d="M136 802q-29 0 -50.5 21t-21.5 50t21.5 50.5t50.5 21.5q28 0 50 -21.5t22 -50.5q0 -28 -21.5 -49.5t-50.5 -21.5zM420 802q-29 0 -50.5 21t-21.5 50t21.5 50.5t50.5 21.5q28 0 49.5 -21.5t21.5 -50.5t-21.5 -50t-49.5 -21zM76 0v671q19 6 61 6t59 -6v-671h-120zM318 -243
q-47 2 -93 18q-7 22 1 55.5t22 49.5q33 -12 53 -12q34 -1 47 39t13 138v626q21 6 62.5 5.5t57.5 -5.5v-682q0 -107 -41 -169.5t-122 -62.5z" />
    <glyph glyph-name="Jcircumflex" unicode="&#x134;" horiz-adv-x="852" 
d="M750 1173l201 -222h-95l-136 146l-137 -146h-95l202 222h60zM657 899q27 7 66.5 6t55.5 -6v-527q0 -78 -24.5 -148t-70.5 -124t-117.5 -86t-158.5 -32q-102 0 -200 51t-172 138q8 29 27.5 53t40.5 31q58 -77 136 -123.5t156 -46.5q124 0 192.5 84.5t68.5 222.5v507z" />
    <glyph glyph-name="jcircumflex" unicode="&#x135;" horiz-adv-x="290" 
d="M179 1011l205 -234h-98l-136 149l-137 -149h-98l206 234h58zM90 671q21 6 62.5 5.5t57.5 -5.5v-682q0 -107 -41 -169.5t-122 -62.5q-47 2 -93 18q-7 22 1 55.5t22 49.5q33 -12 53 -12q34 -1 47 39t13 138v626z" />
    <glyph glyph-name="uni0136" unicode="&#x136;" horiz-adv-x="943" 
d="M510 461q204 -236 280 -312q72 -72 134 -119l-1 -19q-60 -19 -128 -19q-87 56 -385 410q-115 -63 -220 -110v-292h-122v899q23 8 64 7t58 -7v-494q197 93 307 168q251 171 241 320q44 23 115 7q14 -88 -54 -190t-203 -194q-79 -51 -86 -55zM347 -298l41 222h94l-54 -222
h-81z" />
    <glyph glyph-name="uni0137" unicode="&#x137;" horiz-adv-x="808" 
d="M473 337q195 -214 247 -260q35 -33 59 -45v-20q-18 -7 -60.5 -12.5t-79.5 -4.5q-48 20 -268 275q-92 -56 -193 -101v-169h-120v934q24 8 61.5 8t58.5 -8v-650q97 48 210 127q100 70 147 127t43 124q51 20 131 9q31 -154 -212 -317zM296 -297l41 222h94l-54 -222h-81z" />
    <glyph glyph-name="kgreenlandic" unicode="&#x138;" horiz-adv-x="808" 
d="M473 337q195 -214 247 -260q35 -33 59 -45v-20q-18 -7 -60.5 -12.5t-79.5 -4.5q-48 20 -268 275q-92 -56 -193 -101v-169h-120v671q25 8 61.5 7.5t58.5 -7.5v-387q97 48 210 127q100 69 147 127t43 125q47 22 131 10q31 -156 -212 -319z" />
    <glyph glyph-name="Lacute" unicode="&#x139;" horiz-adv-x="790" 
d="M89 951l169 196h113l-205 -196h-77zM91 0l-23 24v875q23 8 62.5 7t59.5 -7v-800h558q12 -14 12 -47t-12 -52h-657z" />
    <glyph glyph-name="lacute" unicode="&#x13a;" horiz-adv-x="348" 
d="M86 988l169 196h113l-205 -196h-77zM223 -18q-149 0 -149 203v749q21 7 59 7t62 -7v-714q0 -74 16 -106.5t50 -32.5q16 0 56 11q9 -15 11.5 -42t-3.5 -47q-57 -20 -102 -21z" />
    <glyph glyph-name="uni013B" unicode="&#x13b;" horiz-adv-x="790" 
d="M91 0l-23 24v875q23 8 62.5 7t59.5 -7v-800h558q12 -14 12 -47t-12 -52h-657zM321 -297l41 222h94l-54 -222h-81z" />
    <glyph glyph-name="uni013C" unicode="&#x13c;" horiz-adv-x="348" 
d="M223 -18q-149 0 -149 203v749q21 7 59 7t62 -7v-714q0 -74 16 -106.5t50 -32.5q16 0 56 11q9 -15 11.5 -42t-3.5 -47q-57 -20 -102 -21zM129 -308l41 222h94l-54 -222h-81z" />
    <glyph glyph-name="Lcaron" unicode="&#x13d;" horiz-adv-x="790" 
d="M499 833l16 333h114l-43 -333h-87zM91 0l-23 24v875q23 8 62.5 7t59.5 -7v-800h558q12 -14 12 -47t-12 -52h-657z" />
    <glyph glyph-name="lcaron" unicode="&#x13e;" horiz-adv-x="348" 
d="M330 852l16 333h114l-43 -333h-87zM223 -18q-149 0 -149 203v749q21 7 59 7t62 -7v-714q0 -74 16 -106.5t50 -32.5q16 0 56 11q9 -15 11.5 -42t-3.5 -47q-57 -20 -102 -21z" />
    <glyph glyph-name="Lslash" unicode="&#x141;" horiz-adv-x="876" 
d="M834 99q11 -14 11.5 -47t-11.5 -52h-657l-23 24v301l-106 -41v111l106 41v463q23 8 62.5 7t59.5 -7v-417l249 96v-111l-249 -96v-272h558z" />
    <glyph glyph-name="lslash" unicode="&#x142;" horiz-adv-x="376" 
d="M335 92q8 -15 10.5 -42t-3.5 -47q-57 -20 -101 -21q-149 0 -149 203v273l-104 -49v99l104 49v377q20 7 58.5 7t61.5 -7v-321l124 58v-98l-124 -58v-295q0 -74 16.5 -106.5t50.5 -32.5q16 0 56 11z" />
    <glyph glyph-name="Nacute" unicode="&#x143;" horiz-adv-x="951" 
d="M708 1149l-205 -196h-77l169 196h113zM762 899q22 8 63 7t59 -7v-899h-89l-605 693v-693h-122v875q11 13 42.5 22.5t45.5 4.5l606 -702v699z" />
    <glyph glyph-name="nacute" unicode="&#x144;" horiz-adv-x="774" 
d="M625 1031l-180 -248h-76l135 248h121zM452 707q132 0 198 -89t66 -255v-363h-120v347q0 122 -42 190t-124 68q-93 0 -165.5 -97t-72.5 -212v-296h-121v512q0 81 -13 140v18q65 14 112 9q13 -41 13 -86v-46q46 70 117.5 115t151.5 45z" />
    <glyph glyph-name="uni0145" unicode="&#x145;" horiz-adv-x="951" 
d="M762 899q22 8 63 7t59 -7v-899h-89l-605 693v-693h-122v875q11 13 42.5 22.5t45.5 4.5l606 -702v699zM393 -297l41 222h94l-54 -222h-81z" />
    <glyph glyph-name="uni0146" unicode="&#x146;" horiz-adv-x="774" 
d="M452 707q132 0 198 -89t66 -255v-363h-120v347q0 122 -42 190t-124 68q-93 0 -165.5 -97t-72.5 -212v-296h-121v512q0 81 -13 140v18q65 14 112 9q13 -41 13 -86v-46q46 70 117.5 115t151.5 45zM309 -297l41 222h94l-54 -222h-81z" />
    <glyph glyph-name="Ncaron" unicode="&#x147;" horiz-adv-x="951" 
d="M506 950h-58l-206 225h98l137 -144l136 144h98zM762 899q22 8 63 7t59 -7v-899h-89l-605 693v-693h-122v875q11 13 42.5 22.5t45.5 4.5l606 -702v699z" />
    <glyph glyph-name="ncaron" unicode="&#x148;" horiz-adv-x="774" 
d="M456 783h-58l-206 234h98l137 -153l136 153h98zM452 707q132 0 198 -89t66 -255v-363h-120v347q0 122 -42 190t-124 68q-93 0 -165.5 -97t-72.5 -212v-296h-121v512q0 81 -13 140v18q65 14 112 9q13 -41 13 -86v-46q46 70 117.5 115t151.5 45z" />
    <glyph glyph-name="Eng" unicode="&#x14a;" horiz-adv-x="937" 
d="M498 -362q-102 0 -200 47t-172 126q8 29 27.5 52.5t41.5 30.5q60 -69 141 -111t163 -42q117 0 189.5 79t72.5 201l-571 666v-687h-122v862q11 13 42.5 22.5t45.5 4.5l591 -687v682q21 8 63 7t59 -7l1 -878q0 -156 -103 -262t-269 -106z" />
    <glyph glyph-name="eng" unicode="&#x14b;" horiz-adv-x="792" 
d="M452 707q132 0 198 -89t66 -255v-374q0 -108 -41 -170t-122 -62q-47 2 -93 18q-7 22 1 55.5t22 49.5q33 -12 53 -12q34 -1 47 37.5t13 133.5v308q0 116 -42 181t-124 65q-92 0 -165 -93.5t-73 -203.5v-296h-121v512q0 81 -13 140v18q65 14 112 9q16 -48 16 -114v-28
q44 76 116 123t150 47z" />
    <glyph glyph-name="Omacron" unicode="&#x14c;" horiz-adv-x="927" 
d="M261 996v81h455v-81h-455zM424 -18q-175 0 -282.5 123t-107.5 303q0 141 60 258.5t168.5 186.5t242.5 69q111 0 201 -62t139 -164t49 -221q0 -130 -61 -243t-169.5 -181.5t-239.5 -68.5zM430 85q140 0 237.5 118.5t99.5 278.5q2 144 -74.5 240t-198.5 96
q-144 0 -239 -119.5t-95 -291.5q1 -135 71.5 -228.5t198.5 -93.5z" />
    <glyph glyph-name="omacron" unicode="&#x14d;" horiz-adv-x="760" 
d="M159 835v88h478v-88h-478zM354 -18q-151 0 -237 95.5t-86 239.5q0 161 109 275.5t269 114.5q146 0 231.5 -94t87.5 -240q3 -169 -103.5 -280t-270.5 -111zM360 83q106 0 176 83t70 195q0 103 -56.5 174t-147.5 71q-105 0 -176.5 -85.5t-71.5 -203.5q0 -99 54 -166.5
t152 -67.5z" />
    <glyph glyph-name="Ohungarumlaut" unicode="&#x150;" horiz-adv-x="927" 
d="M314 980l132 175h103l-166 -175h-69zM512 980l146 175h114l-190 -175h-70zM424 -18q-175 0 -282.5 123t-107.5 303q0 141 60 258.5t168.5 186.5t242.5 69q111 0 201 -62t139 -164t49 -221q0 -130 -61 -243t-169.5 -181.5t-239.5 -68.5zM430 85q140 0 237.5 118.5
t99.5 278.5q2 144 -74.5 240t-198.5 96q-144 0 -239 -119.5t-95 -291.5q1 -135 71.5 -228.5t198.5 -93.5z" />
    <glyph glyph-name="ohungarumlaut" unicode="&#x151;" horiz-adv-x="760" 
d="M231 783l130 248h114l-168 -248h-76zM449 783l141 248h121l-185 -248h-77zM354 -18q-151 0 -237 95.5t-86 239.5q0 161 109 275.5t269 114.5q146 0 231.5 -94t87.5 -240q3 -169 -103.5 -280t-270.5 -111zM360 83q106 0 176 83t70 195q0 103 -56.5 174t-147.5 71
q-105 0 -176.5 -85.5t-71.5 -203.5q0 -99 54 -166.5t152 -67.5z" />
    <glyph glyph-name="OE" unicode="&#x152;" horiz-adv-x="1505" 
d="M1460 99q11 -13 11.5 -46.5t-11.5 -52.5h-685v150q-66 -79 -157.5 -123.5t-195.5 -44.5q-176 0 -282 122.5t-106 303.5q0 141 61 258.5t170.5 186.5t242.5 69q156 0 267 -121v71l13 12h650q7 -22 -0.5 -53t-19.5 -45h-521v-304h464q6 -23 -1.5 -55.5t-19.5 -43.5h-443
v-284h563zM768 482q2 144 -74.5 240t-198.5 96q-145 0 -240 -119.5t-95 -291.5q1 -135 72 -228.5t199 -93.5q140 0 238 118.5t99 278.5z" />
    <glyph glyph-name="oe" unicode="&#x153;" horiz-adv-x="1291" 
d="M965 707q140 0 224 -93.5t72 -251.5l-18 -24l-506 -82q18 -82 77 -128t138 -45q112 2 220 93q11 -4 20.5 -13.5t15.5 -19t10 -18.5t6 -15l2 -7q-132 -119 -286 -121q-89 -1 -163 40t-116 116q-50 -73 -130 -114.5t-177 -41.5q-151 0 -237 95.5t-86 239.5q0 161 109 275.5
t269 114.5q94 0 164.5 -41t109.5 -113q48 72 121 113t161 41zM1144 405q3 95 -47 151.5t-132 56.5q-95 0 -162 -78t-73 -189zM360 83q106 0 176 83t70 195q0 103 -56.5 174t-147.5 71q-105 0 -176.5 -85.5t-71.5 -203.5q0 -99 54 -166.5t152 -67.5z" />
    <glyph glyph-name="Racute" unicode="&#x154;" horiz-adv-x="930" 
d="M655 1162l-205 -196h-77l169 196h113zM590 314q175 -201 292 -288l-2 -20q-45 -15 -129 -15q-60 32 -296 298q-14 -1 -43 -1q-106 0 -222 29v-317h-122v878q160 44 360 44q183 0 288 -84.5t105 -233.5q0 -104 -62 -179.5t-169 -110.5zM413 387q123 -1 202.5 57.5
t78.5 161.5q0 97 -71.5 157t-207.5 60q-128 0 -225 -21v-385q106 -29 223 -30z" />
    <glyph glyph-name="racute" unicode="&#x155;" horiz-adv-x="561" 
d="M488 1049l-180 -248h-76l135 248h121zM530 682q7 -20 -5 -54t-29 -51q-51 21 -94 21q-96 -1 -153 -87.5t-57 -214.5v-296h-121v512q0 81 -13 140v18q62 14 107 9q12 -43 12 -86v-64q32 79 93.5 128.5t138.5 49.5q55 0 121 -25z" />
    <glyph glyph-name="uni0156" unicode="&#x156;" horiz-adv-x="930" 
d="M590 314q175 -201 292 -288l-2 -20q-45 -15 -129 -15q-60 32 -296 298q-14 -1 -43 -1q-106 0 -222 29v-317h-122v878q160 44 360 44q183 0 288 -84.5t105 -233.5q0 -104 -62 -179.5t-169 -110.5zM413 387q123 -1 202.5 57.5t78.5 161.5q0 97 -71.5 157t-207.5 60
q-128 0 -225 -21v-385q106 -29 223 -30zM383 -297l41 222h94l-54 -222h-81z" />
    <glyph glyph-name="uni0157" unicode="&#x157;" horiz-adv-x="561" 
d="M530 682q7 -20 -5 -54t-29 -51q-51 21 -94 21q-96 -1 -153 -87.5t-57 -214.5v-296h-121v512q0 81 -13 140v18q62 14 107 9q12 -43 12 -86v-64q32 79 93.5 128.5t138.5 49.5q55 0 121 -25zM39 -297l41 222h94l-54 -222h-81z" />
    <glyph glyph-name="Rcaron" unicode="&#x158;" horiz-adv-x="930" 
d="M453 963h-58l-206 225h98l137 -144l136 144h98zM590 314q175 -201 292 -288l-2 -20q-45 -15 -129 -15q-60 32 -296 298q-14 -1 -43 -1q-106 0 -222 29v-317h-122v878q160 44 360 44q183 0 288 -84.5t105 -233.5q0 -104 -62 -179.5t-169 -110.5zM413 387
q123 -1 202.5 57.5t78.5 161.5q0 97 -71.5 157t-207.5 60q-128 0 -225 -21v-385q106 -29 223 -30z" />
    <glyph glyph-name="rcaron" unicode="&#x159;" horiz-adv-x="561" 
d="M319 801h-58l-206 234h98l137 -153l136 153h98zM530 682q7 -20 -5 -54t-29 -51q-51 21 -94 21q-96 -1 -153 -87.5t-57 -214.5v-296h-121v512q0 81 -13 140v18q62 14 107 9q12 -43 12 -86v-64q32 79 93.5 128.5t138.5 49.5q55 0 121 -25z" />
    <glyph glyph-name="Sacute" unicode="&#x15a;" horiz-adv-x="869" 
d="M402 976l169 196h113l-205 -196h-77zM461 -18q-117 0 -228.5 36.5t-198.5 103.5q2 20 21 52t44 39q77 -62 171.5 -97t190.5 -35q118 0 183 48.5t65 124.5q0 79 -68 116t-201 44q-152 7 -239.5 68.5t-86.5 178.5q1 119 102 190t236 71q176 0 274.5 -80t98.5 -194
q-24 -7 -59 -10t-59 2q-4 84 -71.5 133.5t-184.5 49.5q-89 0 -150 -45.5t-61 -114.5q0 -73 60.5 -109t157.5 -42q194 -10 285.5 -73t91.5 -178q0 -126 -101 -202.5t-273 -76.5z" />
    <glyph glyph-name="sacute" unicode="&#x15b;" horiz-adv-x="722" 
d="M307 783l135 248h121l-180 -248h-76zM376 -18q-94 0 -183.5 28t-153.5 82q5 20 19.5 46t33.5 39q118 -94 271 -94q86 0 141.5 31t55.5 80q0 55 -50.5 81t-168.5 32q-272 18 -272 187q0 88 82 150.5t213 62.5q180 0 308 -81q-6 -45 -34 -93q-118 73 -260 73
q-88 0 -137 -33t-49 -77q0 -91 180 -99q168 -8 239 -57.5t71 -144.5t-88 -154t-218 -59z" />
    <glyph glyph-name="Scedilla" unicode="&#x15e;" horiz-adv-x="869" 
d="M835 261q0 -122 -95 -198t-258 -81q2 -18 9 -31t27 -36.5t30 -37.5q38 -49 38 -102q0 -54 -36.5 -93t-90.5 -40q-70 0 -128 64l57 58q34 -40 70 -40q20 0 33.5 16t13.5 41q0 12 -5.5 24.5t-11.5 20.5t-19 24t-19 24q-26 33 -35 56t-10 54q-215 17 -371 138q2 20 21 52
t44 39q77 -62 171.5 -97t190.5 -35q118 0 183 48.5t65 124.5q0 79 -68 116t-201 44q-152 7 -239.5 68.5t-86.5 178.5q1 119 102 190t236 71q176 0 274.5 -80t98.5 -194q-24 -7 -59 -10t-59 2q-4 84 -71.5 133.5t-184.5 49.5q-89 0 -150 -45.5t-61 -114.5q0 -73 60.5 -109
t157.5 -42q194 -10 285.5 -73t91.5 -178z" />
    <glyph glyph-name="scedilla" unicode="&#x15f;" horiz-adv-x="722" 
d="M682 195q0 -91 -82 -149.5t-205 -63.5q2 -17 9.5 -30.5t26.5 -35.5t30 -37q38 -50 38 -103q0 -54 -36.5 -92.5t-90.5 -39.5q-69 -2 -128 64l57 58q34 -41 70 -41q20 0 33.5 16t13.5 41q0 12 -5.5 24.5t-11.5 20.5t-19.5 24.5t-18.5 23.5q-26 34 -35 56.5t-10 53.5
q-171 15 -279 107q5 20 19.5 46t33.5 39q118 -94 271 -94q86 0 141.5 31t55.5 80q0 55 -50.5 81t-168.5 32q-272 18 -272 187q0 88 82 150.5t213 62.5q180 0 308 -81q-6 -45 -34 -93q-118 73 -260 73q-88 0 -137 -33t-49 -77q0 -91 180 -99q168 -8 239 -57.5t71 -144.5z" />
    <glyph glyph-name="Scaron" unicode="&#x160;" horiz-adv-x="869" 
d="M482 972h-58l-206 225h98l137 -144l136 144h98zM458 512q194 -10 285.5 -73t91.5 -178q0 -126 -101 -202.5t-273 -76.5q-117 0 -228.5 36.5t-198.5 103.5q2 20 21 52t44 39q77 -62 171.5 -97t190.5 -35q118 0 183 48.5t65 124.5q0 79 -68 116t-201 44q-152 7 -239.5 68.5
t-86.5 178.5q1 119 102 190t236 71q176 0 274.5 -80t98.5 -194q-24 -7 -59 -10t-59 2q-4 84 -71.5 133.5t-184.5 49.5q-89 0 -150 -45.5t-61 -114.5q0 -73 60.5 -109t157.5 -42z" />
    <glyph glyph-name="scaron" unicode="&#x161;" horiz-adv-x="722" 
d="M394 783h-58l-206 234h98l137 -153l136 153h98zM372 397q168 -8 239 -57.5t71 -144.5t-88 -154t-218 -59q-94 0 -183.5 28t-153.5 82q5 20 19.5 46t33.5 39q118 -94 271 -94q86 0 141.5 31t55.5 80q0 55 -50.5 81t-168.5 32q-272 18 -272 187q0 88 82 150.5t213 62.5
q180 0 308 -81q-6 -45 -34 -93q-118 73 -260 73q-88 0 -137 -33t-49 -77q0 -91 180 -99z" />
    <glyph glyph-name="uni0162" unicode="&#x162;" horiz-adv-x="865" 
d="M487 800v-800h-32q0 -17 5.5 -31.5t12.5 -24t22.5 -28t26.5 -33.5q38 -49 38 -102q0 -54 -36.5 -93t-90.5 -40q-70 0 -128 64l57 58q34 -40 70 -40q20 0 33.5 16t13.5 41q0 12 -5.5 24.5t-11.5 20.5t-19 24t-19 24q-27 35 -36 59t-9 61h-18v800h-337q-5 21 -1.5 51.5
t13.5 47.5h806q5 -23 -1.5 -54.5t-18.5 -44.5h-335z" />
    <glyph glyph-name="uni0163" unicode="&#x163;" horiz-adv-x="529" 
d="M493 572h-271v-258q0 -110 39 -170t115 -60q39 0 96 19q11 -11 17 -45t0 -53q-71 -23 -130 -23q-19 0 -28 1q3 -15 11 -27.5t26 -33t28 -34.5q38 -50 38 -103q0 -54 -36.5 -92.5t-90.5 -39.5q-69 -2 -128 64l57 58q34 -41 70 -41q20 0 33.5 16t13.5 41q0 12 -5.5 24.5
t-11.5 20.5t-19.5 24.5t-18.5 23.5q-27 35 -36 58.5t-9 59.5q-151 65 -151 304v266h-88v99h88v179q19 11 54.5 17t65.5 0v-196h271v-99z" />
    <glyph glyph-name="Tcaron" unicode="&#x164;" horiz-adv-x="865" 
d="M451 950h-58l-206 225h98l137 -144l136 144h98zM842 899q5 -23 -1.5 -54.5t-18.5 -44.5h-335v-800h-126v800h-337q-5 21 -1.5 51.5t13.5 47.5h806z" />
    <glyph glyph-name="tcaron" unicode="&#x165;" horiz-adv-x="529" 
d="M532 1107l-43 -333h-87l16 333h114zM222 867v-196h271v-99h-271v-258q0 -110 39 -170t115 -60q39 0 96 19q11 -11 17 -45t0 -53q-71 -23 -130 -23q-119 -1 -188 81.5t-69 242.5v266h-88v99h88v179q19 11 54.5 17t65.5 0z" />
    <glyph glyph-name="Tbar" unicode="&#x166;" horiz-adv-x="892" 
d="M846 800h-334v-316h197v-90h-197v-394h-127v394h-189v90h189v316h-337q-5 21 -1 51.5t14 47.5h806q4 -23 -2.5 -54.5t-18.5 -44.5z" />
    <glyph glyph-name="tbar" unicode="&#x167;" horiz-adv-x="523" 
d="M488 593h-271v-138h271v-85h-271v-56q0 -110 39 -170t114 -60q41 0 96 19q12 -11 18 -45t-1 -53q-69 -23 -129 -23q-120 -1 -189 81.5t-69 242.5v64h-87v85h87v138h-87v86h87v171q20 11 55.5 17t65.5 0v-188h271v-86z" />
    <glyph glyph-name="Umacron" unicode="&#x16a;" horiz-adv-x="949" 
d="M248 994v81h455v-81h-455zM464 -22q-192 0 -294 106.5t-102 308.5v506q21 7 64 6t59 -6v-511q0 -148 71.5 -227.5t201.5 -79.5q138 0 216.5 88.5t78.5 230.5v499q23 7 64 6t59 -6v-501q0 -185 -110 -302.5t-308 -117.5z" />
    <glyph glyph-name="umacron" unicode="&#x16b;" horiz-adv-x="766" 
d="M620 923v-88h-478v88h478zM697 195q0 -129 25 -180l-1 -15h-101q-18 18 -25.5 42t-7.5 80v3q-42 -66 -112 -104.5t-154 -38.5q-120 0 -191.5 75t-71.5 228v386q46 12 120 0v-366q0 -222 167 -222q105 0 168 85.5t63 220.5v282q22 5 64.5 4.5t56.5 -4.5v-476z" />
    <glyph glyph-name="Uring" unicode="&#x16e;" horiz-adv-x="949" 
d="M477 895q-86 0 -139 39.5t-53 105.5q0 63 51.5 104t140.5 41q86 0 138 -41t52 -104t-55.5 -104t-134.5 -41zM475 950q52 0 87 26t35 64q0 39 -35 65t-87 26q-54 0 -87.5 -26t-33.5 -65t33.5 -64.5t87.5 -25.5zM464 -22q-192 0 -294 106.5t-102 308.5v506q21 7 64 6t59 -6
v-511q0 -148 71.5 -227.5t201.5 -79.5q138 0 216.5 88.5t78.5 230.5v499q23 7 64 6t59 -6v-501q0 -185 -110 -302.5t-308 -117.5z" />
    <glyph glyph-name="uring" unicode="&#x16f;" horiz-adv-x="766" 
d="M381 769q-86 0 -139 39.5t-53 105.5q0 63 51.5 104t140.5 41q86 0 138 -41t52 -104t-55.5 -104t-134.5 -41zM379 1005q-54 0 -87.5 -26t-33.5 -65t33.5 -64.5t87.5 -25.5q52 0 87 26t35 64q0 39 -35 65t-87 26zM697 195q0 -129 25 -180l-1 -15h-101q-18 18 -25.5 42
t-7.5 80v3q-42 -66 -112 -104.5t-154 -38.5q-120 0 -191.5 75t-71.5 228v386q46 12 120 0v-366q0 -222 167 -222q105 0 168 85.5t63 220.5v282q22 5 64.5 4.5t56.5 -4.5v-476z" />
    <glyph glyph-name="Uhungarumlaut" unicode="&#x170;" horiz-adv-x="949" 
d="M301 978l132 175h103l-166 -175h-69zM499 978l146 175h114l-190 -175h-70zM464 -22q-192 0 -294 106.5t-102 308.5v506q21 7 64 6t59 -6v-511q0 -148 71.5 -227.5t201.5 -79.5q138 0 216.5 88.5t78.5 230.5v499q23 7 64 6t59 -6v-501q0 -185 -110 -302.5t-308 -117.5z
" />
    <glyph glyph-name="uhungarumlaut" unicode="&#x171;" horiz-adv-x="766" 
d="M458 1031l-168 -248h-76l130 248h114zM509 783h-77l141 248h121zM697 195q0 -129 25 -180l-1 -15h-101q-18 18 -25.5 42t-7.5 80v3q-42 -66 -112 -104.5t-154 -38.5q-120 0 -191.5 75t-71.5 228v386q46 12 120 0v-366q0 -222 167 -222q105 0 168 85.5t63 220.5v282
q22 5 64.5 4.5t56.5 -4.5v-476z" />
    <glyph glyph-name="Uogonek" unicode="&#x172;" horiz-adv-x="949" 
d="M759 899q23 7 64 6t59 -6v-501q0 -178 -102 -294t-288 -125q-104 -109 -104 -202q0 -29 17 -44t42 -13q22 0 46.5 14.5t39.5 37.5l55 -46q-26 -41 -70.5 -68t-87.5 -27q-57 -1 -93.5 31.5t-36.5 94.5q0 49 28 111.5t78 112.5q-165 15 -251.5 120.5t-86.5 291.5v506
q21 7 64 6t59 -6v-511q0 -148 71.5 -227.5t201.5 -79.5q138 0 216.5 88.5t78.5 230.5v499z" />
    <glyph glyph-name="uogonek" unicode="&#x173;" horiz-adv-x="766" 
d="M722 -215l55 -46q-26 -41 -70.5 -68t-87.5 -27q-57 -1 -93.5 31.5t-36.5 94.5q0 54 32.5 121t90.5 118q-25 28 -25 113v3q-42 -66 -112 -104.5t-154 -38.5q-120 0 -191.5 75t-71.5 228v386q46 12 120 0v-366q0 -222 167 -222q105 0 168 85.5t63 220.5v282q22 5 64.5 4.5
t56.5 -4.5v-476q0 -129 25 -180l-1 -15h-32q-112 -112 -112 -210q0 -29 17 -44t42 -13q22 0 46.5 14.5t39.5 37.5z" />
    <glyph glyph-name="Wcircumflex" unicode="&#x174;" horiz-adv-x="1299" 
d="M650 1097l-137 -146h-95l202 222h60l201 -222h-95zM1263 899q39 -173 -21 -420.5t-218 -454.5l-39 -24h-126l-22 14q-66 210 -119 349q-19 -66 -75.5 -180t-91.5 -168l-31 -15h-121l-31 17q-80 247 -184 494.5t-171 367.5l7 20q54 14 115 0q78 -139 170.5 -366
t154.5 -430h5q52 83 115 216.5t83 209.5q-3 11 -69 193q11 17 46.5 32.5t67.5 12.5q39 -84 113 -303.5t111 -360.5h6q128 179 183.5 400t27.5 387q36 25 114 9z" />
    <glyph glyph-name="wcircumflex" unicode="&#x175;" horiz-adv-x="996" 
d="M505 904l-137 -149h-98l206 234h58l205 -234h-98zM981 671q18 -124 -38 -316t-159 -343l-21 -12h-117l-22 15q-43 158 -85 263q-15 -49 -53.5 -134.5t-67.5 -132.5l-18 -11h-127l-21 14q-18 63 -39 127.5t-42.5 123.5t-40.5 107t-40.5 98.5t-33.5 77.5t-29 64.5t-18 39.5
l9 19q69 13 115 0q135 -267 212 -563h7q85 176 128 338l-46 122q11 19 44.5 34.5t66.5 11.5q99 -249 161 -506h8q165 322 147 554q41 23 120 9z" />
    <glyph glyph-name="Ycircumflex" unicode="&#x176;" horiz-adv-x="866" 
d="M433 1097l-137 -146h-95l202 222h60l201 -222h-95zM847 899q29 -283 -320 -596v-303h-122v313q-72 112 -201.5 303.5t-188.5 262.5l8 20q75 15 131 0q42 -45 158.5 -220.5t170.5 -267.5q114 103 182 241t60 238q41 23 122 9z" />
    <glyph glyph-name="ycircumflex" unicode="&#x177;" horiz-adv-x="745" 
d="M377 927l-137 -149h-98l206 234h58l205 -234h-98zM726 671q8 -67 6 -143.5t-25 -167.5t-58 -177t-94.5 -171.5t-134.5 -150.5q-138 -118 -301 -120q-54 0 -86 17q-19 46 -1 86l20 12q31 -14 68 -14q118 0 245 125q28 28 48 52q-70 47 -133 118t-105 141.5t-76.5 147.5
t-52 130.5t-27.5 95.5l6 18q59 15 112 1q11 -44 34 -106.5t63.5 -147t105 -170t138.5 -142.5q148 230 132 556q37 25 116 10z" />
    <glyph glyph-name="Ydieresis" unicode="&#x178;" horiz-adv-x="866" 
d="M293 984q-23 0 -40 17t-17 40t17 40t40 17t40.5 -17t17.5 -40t-17.5 -40t-40.5 -17zM574 984q-23 0 -40 17t-17 40t17.5 40t39.5 17q23 0 40.5 -17t17.5 -40t-17.5 -40t-40.5 -17zM847 899q29 -283 -320 -596v-303h-122v313q-72 112 -201.5 303.5t-188.5 262.5l8 20
q75 15 131 0q42 -45 158.5 -220.5t170.5 -267.5q114 103 182 241t60 238q41 23 122 9z" />
    <glyph glyph-name="Zacute" unicode="&#x179;" horiz-adv-x="848" 
d="M657 1149l-205 -196h-77l169 196h113zM803 99q12 -13 12 -46.5t-12 -52.5h-745q-11 10 -18.5 37.5t-4.5 46.5q127 211 282 410.5t294 305.5h-547q-12 13 -12 46.5t12 52.5h709q11 -9 18.5 -42t5.5 -54q-149 -105 -318.5 -310t-284.5 -394h609z" />
    <glyph glyph-name="zacute" unicode="&#x17a;" horiz-adv-x="701" 
d="M550 1031l-180 -248h-76l135 248h121zM675 101q11 -9 11.5 -44.5t-11.5 -56.5h-635q-12 10 -20 38t-6 50q115 169 219 285t237 197h-419q-11 13 -11.5 46.5t11.5 54.5h599q11 -10 19 -46.5t6 -60.5q-117 -50 -246 -174.5t-245 -288.5h491z" />
    <glyph glyph-name="Zdotaccent" unicode="&#x17b;" horiz-adv-x="848" 
d="M424 982q-23 0 -40.5 17t-17.5 40t17.5 40.5t40.5 17.5t40.5 -17.5t17.5 -40.5q0 -22 -17.5 -39.5t-40.5 -17.5zM803 99q12 -13 12 -46.5t-12 -52.5h-745q-11 10 -18.5 37.5t-4.5 46.5q127 211 282 410.5t294 305.5h-547q-12 13 -12 46.5t12 52.5h709q11 -9 18.5 -42
t5.5 -54q-149 -105 -318.5 -310t-284.5 -394h609z" />
    <glyph glyph-name="zdotaccent" unicode="&#x17c;" horiz-adv-x="701" 
d="M351 802q-29 0 -50.5 21t-21.5 50t21.5 50.5t50.5 21.5t50.5 -21.5t21.5 -50.5q0 -28 -21.5 -49.5t-50.5 -21.5zM675 101q11 -9 11.5 -44.5t-11.5 -56.5h-635q-12 10 -20 38t-6 50q115 169 219 285t237 197h-419q-11 13 -11.5 46.5t11.5 54.5h599q11 -10 19 -46.5
t6 -60.5q-117 -50 -246 -174.5t-245 -288.5h491z" />
    <glyph glyph-name="Zcaron" unicode="&#x17d;" horiz-adv-x="848" 
d="M454 950h-58l-206 225h98l137 -144l136 144h98zM803 99q12 -13 12 -46.5t-12 -52.5h-745q-11 10 -18.5 37.5t-4.5 46.5q127 211 282 410.5t294 305.5h-547q-12 13 -12 46.5t12 52.5h709q11 -9 18.5 -42t5.5 -54q-149 -105 -318.5 -310t-284.5 -394h609z" />
    <glyph glyph-name="zcaron" unicode="&#x17e;" horiz-adv-x="701" 
d="M381 783h-58l-206 234h98l137 -153l136 153h98zM675 101q11 -9 11.5 -44.5t-11.5 -56.5h-635q-12 10 -20 38t-6 50q115 169 219 285t237 197h-419q-11 13 -11.5 46.5t11.5 54.5h599q11 -10 19 -46.5t6 -60.5q-117 -50 -246 -174.5t-245 -288.5h491z" />
    <glyph glyph-name="longs" unicode="&#x17f;" horiz-adv-x="360" 
d="M99 0v627q0 323 226 323q61 0 138 -21q5 -17 -2.5 -51t-18.5 -46q-51 18 -94 18q-68 -1 -98.5 -56t-30.5 -163v-631h-120z" />
    <glyph glyph-name="florin" unicode="&#x192;" horiz-adv-x="489" 
d="M397 421v-100h-97q13 -176 13 -296q0 -107 -47 -168t-130 -61v100q71 0 71 139q0 80 -14 286h-101v100h94q-8 150 -8 228q0 108 45.5 168t132.5 60v-101q-72 0 -72 -139q0 -85 9 -216h104z" />
    <glyph glyph-name="uni01C7" unicode="&#x1c7;" horiz-adv-x="1605" 
d="M91 0l-23 24v875q23 8 62.5 7t59.5 -7v-800h558q12 -14 12 -47t-12 -52h-657zM1161 -18q-101 0 -199 51t-173 138q9 30 28.5 53.5t40.5 30.5q58 -77 135.5 -123.5t156.5 -46.5q124 0 192.5 84.5t68.5 222.5v507q27 7 66.5 6t55.5 -6v-527q0 -105 -42 -192.5t-128 -142.5
t-202 -55z" />
    <glyph glyph-name="uni01C8" unicode="&#x1c8;" horiz-adv-x="1044" 
d="M902 802q-29 0 -50.5 21.5t-21.5 49.5q0 29 22 50.5t50 21.5t50 -21.5t22 -50.5q0 -28 -21.5 -49.5t-50.5 -21.5zM91 0l-23 24v875q23 8 62.5 7t59.5 -7v-800h558q12 -14 12 -47t-12 -52h-657zM800 -243q-47 2 -93 18q-7 22 1.5 55.5t22.5 49.5q31 -12 53 -12
q34 -1 47 39t13 138v626q20 6 61.5 5.5t58.5 -5.5v-682q0 -107 -41.5 -169.5t-122.5 -62.5z" />
    <glyph glyph-name="uni01C9" unicode="&#x1c9;" horiz-adv-x="638" 
d="M497 802q-29 0 -50.5 21t-21.5 50t21.5 50.5t50.5 21.5t50.5 -21.5t21.5 -50.5q0 -28 -21.5 -49.5t-50.5 -21.5zM223 -18q-149 0 -149 203v749q21 7 59 7t62 -7v-714q0 -74 16 -106.5t50 -32.5q16 0 56 11q9 -15 11.5 -42t-3.5 -47q-57 -20 -102 -21zM395 -243
q-47 2 -93 18q-7 22 1 55.5t22 49.5q33 -12 53 -12q34 -1 47 39t13 138v626q21 6 62.5 5.5t57.5 -5.5v-682q0 -107 -41 -169.5t-122 -62.5z" />
    <glyph glyph-name="uni01CA" unicode="&#x1ca;" horiz-adv-x="1747" 
d="M762 899q22 8 63 7t59 -7v-899h-89l-605 693v-693h-122v875q11 13 42.5 22.5t45.5 4.5l606 -702v699zM1553 899q27 7 66.5 6t55.5 -6v-527q0 -105 -42 -192.5t-128 -142.5t-202 -55q-102 0 -199.5 51t-172.5 138q9 30 28.5 53.5t40.5 30.5q58 -77 135.5 -123.5
t156.5 -46.5q124 0 192.5 84.5t68.5 222.5v507z" />
    <glyph glyph-name="uni01CB" unicode="&#x1cb;" horiz-adv-x="1196" 
d="M1054 802q-29 0 -50.5 21.5t-21.5 49.5q0 29 22 50.5t50 21.5t50 -21.5t22 -50.5q0 -28 -21.5 -49.5t-50.5 -21.5zM884 0h-89l-605 693v-693h-122v875q11 13 42.5 22.5t45.5 4.5l606 -702v699q22 8 63 7t59 -7v-899zM996 671q20 6 62 5.5t58 -5.5v-682q0 -107 -41 -169.5
t-122 -62.5q-47 2 -94 18q-7 22 1.5 55.5t22.5 49.5q31 -12 53 -12q34 -1 47 39t13 138v626z" />
    <glyph glyph-name="uni01CC" unicode="&#x1cc;" horiz-adv-x="1144" 
d="M924 802q-29 0 -50.5 21.5t-21.5 49.5q0 29 22 50.5t50 21.5t50 -21.5t22 -50.5q0 -28 -21.5 -49.5t-50.5 -21.5zM452 707q132 0 198 -89t66 -255v-363h-120v347q0 122 -42 190t-124 68q-93 0 -165.5 -97t-72.5 -212v-296h-121v512q0 81 -13 140v18q65 14 112 9
q13 -41 13 -86v-46q46 70 117.5 115t151.5 45zM866 671q20 6 61.5 5.5t58.5 -5.5v-682q0 -107 -41.5 -169.5t-122.5 -62.5q-47 2 -93 18q-7 22 1 55.5t23 49.5q31 -12 53 -12q34 -1 47 39t13 138v626z" />
    <glyph glyph-name="uni01CD" unicode="&#x1cd;" horiz-adv-x="944" 
d="M500 950h-58l-206 225h98l137 -144l136 144h98zM527 899q28 -61 120 -270.5t167.5 -373.5t116.5 -237l-7 -18q-95 -3 -131 13q-24 38 -90 198h-472l-87 -211h-131l396 899q21 8 60 8t58 -8zM271 310h390q-65 157 -193 479z" />
    <glyph glyph-name="uni01CE" unicode="&#x1ce;" horiz-adv-x="720" 
d="M414 783h-58l-206 234h98l137 -153l136 153h98zM656 206q1 -90 8 -127t22 -66l-1 -13h-105q-37 31 -37 125v18q-54 -75 -132 -118t-163 -43q-93 0 -149.5 48.5t-55.5 124.5q0 112 112.5 185t293.5 78q54 0 80 -2q-8 90 -51.5 141.5t-115.5 51.5q-95 2 -228 -83
q-36 13 -43 81q149 100 281 100q131 1 207 -87t77 -252v-162zM530 327l2 12q-54 4 -82 3q-138 -2 -213.5 -50.5t-75.5 -116.5q0 -45 30 -72t85 -27q100 0 174 79.5t80 171.5z" />
    <glyph glyph-name="uni01CF" unicode="&#x1cf;" horiz-adv-x="251" 
d="M155 950h-58l-206 225h98l137 -144l136 144h98zM68 899q21 8 59.5 7t55.5 -7v-899h-115v899z" />
    <glyph glyph-name="uni01D0" unicode="&#x1d0;" horiz-adv-x="271" 
d="M165 783h-58l-206 234h98l137 -153l136 153h98zM76 671q19 6 61 6t59 -6v-671h-120v671z" />
    <glyph glyph-name="uni01D2" unicode="&#x1d2;" horiz-adv-x="760" 
d="M426 784h-57l-207 234h99l137 -153l136 153h97zM728 373q3 -169 -103.5 -280t-270.5 -111q-151 0 -237 95.5t-86 239.5q0 161 109 275.5t269 114.5q146 0 231.5 -94t87.5 -240zM360 83q106 0 176 83t70 195q0 103 -56.5 174t-147.5 71q-105 0 -176.5 -85.5t-71.5 -203.5
q0 -99 54 -166.5t152 -67.5z" />
    <glyph glyph-name="uni01D3" unicode="&#x1d3;" horiz-adv-x="949" 
d="M504 959h-57l-207 226h99l137 -145l136 145h97zM759 899q23 7 64 6t59 -6v-501q0 -185 -110 -302.5t-308 -117.5q-192 0 -294 106.5t-102 308.5v506q21 7 64 6t59 -6v-511q0 -148 71.5 -227.5t201.5 -79.5q138 0 216.5 88.5t78.5 230.5v499z" />
    <glyph glyph-name="uni01D4" unicode="&#x1d4;" horiz-adv-x="766" 
d="M409 784h-58l-206 234h99l137 -153l136 153h97zM697 195q0 -129 25 -180l-1 -15h-101q-18 18 -25.5 42t-7.5 80v3q-42 -66 -112 -104.5t-154 -38.5q-120 0 -191.5 75t-71.5 228v386q46 12 120 0v-366q0 -222 167 -222q105 0 168 85.5t63 220.5v282q22 5 64.5 4.5
t56.5 -4.5v-476z" />
    <glyph glyph-name="uni01E2" unicode="&#x1e2;" horiz-adv-x="1441" 
d="M1177 1057v-81h-455v81h455zM1396 99q12 -13 12 -46.5t-12 -52.5h-668v211h-405l-156 -211h-154l698 899h663q7 -22 -0.5 -53.5t-19.5 -45.5h-504v-313h447q6 -24 -1.5 -56.5t-19.5 -42.5h-426v-289h546zM396 310l332 -1v449z" />
    <glyph glyph-name="uni01E3" unicode="&#x1e3;" horiz-adv-x="1206" 
d="M841 923v-88h-478v88h478zM880 707q140 0 224 -92.5t72 -250.5l-18 -23l-506 -83q18 -83 76.5 -129.5t138.5 -45.5q112 2 220 93q11 -4 20.5 -13.5t15.5 -19t10 -18.5t6 -15l2 -7q-132 -119 -286 -121q-91 -1 -166.5 43t-117.5 123q-55 -78 -141 -122.5t-182 -43.5
q-93 1 -149.5 49.5t-55.5 123.5q0 112 112 185t293 78q28 0 78 -2q-8 90 -50.5 141t-113.5 51q-94 0 -228 -82q-36 13 -43 81q149 100 281 100q80 1 140 -36t94 -106q48 66 119 104t155 38zM1058 399q3 97 -46.5 155.5t-131.5 58.5q-96 0 -163.5 -81t-71.5 -194zM528 327
l2 12q-52 4 -80 3q-138 -2 -213.5 -50.5t-75.5 -116.5q0 -45 30 -72t85 -27q99 0 172.5 76.5t79.5 174.5z" />
    <glyph glyph-name="Gcaron" unicode="&#x1e6;" horiz-adv-x="933" 
d="M536 972h-58l-206 225h98l137 -144l136 144h98zM509 818q-144 0 -229.5 -106.5t-85.5 -265.5q0 -162 90 -261.5t239 -99.5q132 0 235 53v213h-291q-6 23 1.5 55t18.5 44h374l15 -17v-345q-63 -51 -161 -78.5t-192 -27.5q-198 0 -327 127t-129 343q0 92 30.5 176.5
t85.5 150t139 104.5t184 39q162 0 268.5 -88.5t102.5 -221.5q-26 -6 -61 -9.5t-60 1.5q-5 99 -74.5 156.5t-172.5 57.5z" />
    <glyph glyph-name="gcaron" unicode="&#x1e7;" horiz-adv-x="765" 
d="M409 777h-58l-206 234h98l137 -153l136 153h98zM602 680q46 5 105 -8v-16q-13 -94 -13 -159v-413q0 -174 -91.5 -273t-234.5 -100q-158 0 -309 114q12 68 48 88q142 -103 252 -101q99 1 161.5 72.5t62.5 196.5v57q-38 -72 -100.5 -114t-138.5 -42q-136 0 -224.5 90.5
t-88.5 244.5q0 164 93 276.5t241 112.5q72 0 130 -39t91 -101v23zM354 84q91 0 153 87.5t63 236.5q-2 74 -55.5 136t-129.5 62q-104 0 -167 -83.5t-64 -195.5q0 -105 54 -174t146 -69z" />
    <glyph glyph-name="uni01E8" unicode="&#x1e8;" horiz-adv-x="943" 
d="M512 950h-58l-206 225h98l137 -144l137 144h97zM510 461q204 -236 280 -312q72 -72 134 -119l-1 -19q-60 -19 -128 -19q-87 56 -385 410q-115 -63 -220 -110v-292h-122v899q23 8 64 7t58 -7v-494q197 93 307 168q251 171 241 320q44 23 115 7q14 -88 -54 -190t-203 -194
q-79 -51 -86 -55z" />
    <glyph glyph-name="uni01E9" unicode="&#x1e9;" horiz-adv-x="808" 
d="M441 1001h-58l-206 234h98l137 -153l136 153h98zM473 337q195 -214 247 -260q35 -33 59 -45v-20q-18 -7 -60.5 -12.5t-79.5 -4.5q-48 20 -268 275q-92 -56 -193 -101v-169h-120v934q24 8 61.5 8t58.5 -8v-650q97 48 210 127q100 70 147 127t43 124q51 20 131 9
q31 -154 -212 -317z" />
    <glyph glyph-name="uni01EB" unicode="&#x1eb;" horiz-adv-x="760" 
d="M728 373q3 -149 -81.5 -255t-221.5 -130q-109 -112 -109 -206q0 -29 17 -43.5t43 -13.5q22 0 46.5 14.5t39.5 37.5l55 -46q-26 -41 -70.5 -68t-87.5 -27q-57 -1 -93.5 31.5t-36.5 95.5q0 48 27 109.5t76 110.5q-141 7 -221 101.5t-80 232.5q0 161 109 275.5t269 114.5
q146 0 231.5 -94t87.5 -240zM154 317q0 -99 54 -166.5t152 -67.5q106 0 176 83t70 195q0 103 -56.5 174t-147.5 71q-105 0 -176.5 -85.5t-71.5 -203.5z" />
    <glyph glyph-name="uni01F0" unicode="&#x1f0;" horiz-adv-x="290" 
d="M179 783h-58l-206 234h98l137 -153l136 153h98zM90 671q21 6 62.5 5.5t57.5 -5.5v-682q0 -107 -41 -169.5t-122 -62.5q-47 2 -93 18q-7 22 1 55.5t22 49.5q33 -12 53 -12q34 -1 47 39t13 138v626z" />
    <glyph glyph-name="uni01F4" unicode="&#x1f4;" horiz-adv-x="886" 
d="M705 1171l-205 -196h-77l169 196h113zM475 818q-144 0 -229.5 -106.5t-85.5 -265.5q0 -162 90 -261.5t239 -99.5q133 0 235 53v213h-290q-6 24 1.5 56t18.5 43h374l15 -17v-345q-64 -51 -162 -78.5t-192 -27.5q-197 0 -326 127t-129 343q0 124 51 230t153 173t235 67
q161 0 268 -88.5t102 -221.5q-26 -6 -60.5 -9.5t-60.5 1.5q-4 99 -73.5 156.5t-173.5 57.5z" />
    <glyph glyph-name="uni01F4" unicode="&#x1f5;" horiz-adv-x="886" 
d="M705 1171l-205 -196h-77l169 196h113zM475 818q-144 0 -229.5 -106.5t-85.5 -265.5q0 -162 90 -261.5t239 -99.5q133 0 235 53v213h-290q-6 24 1.5 56t18.5 43h374l15 -17v-345q-64 -51 -162 -78.5t-192 -27.5q-197 0 -326 127t-129 343q0 124 51 230t153 173t235 67
q161 0 268 -88.5t102 -221.5q-26 -6 -60.5 -9.5t-60.5 1.5q-4 99 -73.5 156.5t-173.5 57.5z" />
    <glyph glyph-name="uni01F8" unicode="&#x1f8;" horiz-adv-x="951" 
d="M529 964h-76l-205 190h110zM762 899q22 8 63 7t59 -7v-899h-89l-605 693v-693h-122v875q11 13 42.5 22.5t45.5 4.5l606 -702v699z" />
    <glyph glyph-name="uni01F9" unicode="&#x1f9;" horiz-adv-x="778" 
d="M528 784h-82l-202 248h120zM491 707q132 0 198 -89t66 -255v-363h-120v347q0 122 -42 190t-124 68q-93 0 -166 -97t-73 -212v-296h-120v512q0 81 -13 140v18q65 14 112 9q13 -41 13 -86v-45q46 70 117.5 114.5t151.5 44.5z" />
    <glyph glyph-name="Aringacute" unicode="&#x1fa;" horiz-adv-x="944" 
d="M624 1310l-139 -146h-62l88 146h113zM468 918q-75 0 -119.5 31.5t-44.5 80.5q0 48 44.5 80t119.5 32q74 0 117.5 -32t43.5 -80q0 -47 -45.5 -79.5t-115.5 -32.5zM466 1099q-42 0 -67.5 -19.5t-25.5 -49.5t26 -49t67 -19t67.5 19.5t26.5 48.5q0 30 -26 49.5t-68 19.5z
M527 899q28 -61 120 -270.5t167.5 -373.5t116.5 -237l-7 -18q-95 -3 -131 13q-24 38 -90 198h-472l-87 -211h-131l396 899q21 8 60 8t58 -8zM271 310h390q-65 157 -193 479z" />
    <glyph glyph-name="aringacute" unicode="&#x1fb;" horiz-adv-x="720" 
d="M543 1125l-138 -146h-62l88 146h112zM387 733q-74 0 -119 31.5t-45 80.5q0 48 44.5 80t119.5 32t118.5 -32t43.5 -80q0 -47 -45.5 -79.5t-116.5 -32.5zM385 914q-41 0 -67 -19.5t-26 -49.5t26.5 -49t66.5 -19q41 0 67.5 19.5t26.5 48.5q0 30 -26 49.5t-68 19.5zM656 206
q1 -90 8 -127t22 -66l-1 -13h-105q-37 31 -37 125v18q-54 -75 -132 -118t-163 -43q-93 0 -149.5 48.5t-55.5 124.5q0 112 112.5 185t293.5 78q54 0 80 -2q-8 90 -51.5 141.5t-115.5 51.5q-95 2 -228 -83q-36 13 -43 81q149 100 281 100q131 1 207 -87t77 -252v-162zM530 327
l2 12q-54 4 -82 3q-138 -2 -213.5 -50.5t-75.5 -116.5q0 -45 30 -72t85 -27q100 0 174 79.5t80 171.5z" />
    <glyph glyph-name="AEacute" unicode="&#x1fc;" horiz-adv-x="1441" 
d="M1183 1140l-206 -196h-76l169 196h113zM1396 99q12 -13 12 -46.5t-12 -52.5h-668v211h-405l-156 -211h-154l698 899h663q7 -22 -0.5 -53.5t-19.5 -45.5h-504v-313h447q6 -24 -1.5 -56.5t-19.5 -42.5h-426v-289h546zM396 310l332 -1v449z" />
    <glyph glyph-name="aeacute" unicode="&#x1fd;" horiz-adv-x="1206" 
d="M800 1031l-180 -248h-76l135 248h121zM880 707q140 0 224 -92.5t72 -250.5l-18 -23l-506 -83q18 -83 76.5 -129.5t138.5 -45.5q112 2 220 93q11 -4 20.5 -13.5t15.5 -19t10 -18.5t6 -15l2 -7q-132 -119 -286 -121q-91 -1 -166.5 43t-117.5 123q-55 -78 -141 -122.5
t-182 -43.5q-93 1 -149.5 49.5t-55.5 123.5q0 112 112 185t293 78q28 0 78 -2q-8 90 -50.5 141t-113.5 51q-94 0 -228 -82q-36 13 -43 81q149 100 281 100q80 1 140 -36t94 -106q48 66 119 104t155 38zM1058 399q3 97 -46.5 155.5t-131.5 58.5q-96 0 -163.5 -81t-71.5 -194z
M528 327l2 12q-52 4 -80 3q-138 -2 -213.5 -50.5t-75.5 -116.5q0 -45 30 -72t85 -27q99 0 172.5 76.5t79.5 174.5z" />
    <glyph glyph-name="Oslashacute" unicode="&#x1fe;" horiz-adv-x="999" 
d="M756 1161l-205 -196h-77l169 196h113zM828 778q101 -128 101 -303q0 -130 -61 -243t-169.5 -181.5t-238.5 -68.5q-136 0 -235 78l-51 -60h-111l101 120q-95 118 -95 288q0 141 60 258.5t168.5 186.5t242.5 69q128 0 229 -83l44 53h111zM196 407q0 -110 47 -193l454 540
q-70 64 -168 64q-144 0 -239 -119.5t-94 -291.5zM466 85q140 0 237.5 118.5t99.5 278.5q0 118 -51 205l-455 -541q69 -61 169 -61z" />
    <glyph glyph-name="oslashacute" unicode="&#x1ff;" horiz-adv-x="777" 
d="M606 1031l-180 -248h-76l135 248h121zM738 373q2 -169 -104.5 -280t-270.5 -111q-122 0 -204 65l-44 -47h-70v15l70 76q-74 91 -74 226q0 161 109 275.5t269 114.5q124 0 206 -71l32 35h79v-13l-65 -70q65 -90 67 -215zM164 317q0 -79 34 -137l34 37l37 35l170 179l27 31
l80 88q-54 56 -135 56q-105 0 -176 -85.5t-71 -203.5zM370 83q106 0 175.5 83t69.5 195q0 75 -30 134l-44 -48l-38 -36l-173 -177l-25 -30l-68 -73q53 -48 133 -48z" />
    <glyph glyph-name="uni0202" unicode="&#x202;" horiz-adv-x="944" 
d="M471 1093q-67 0 -107.5 -38t-40.5 -94h-87q0 101 67.5 157.5t167.5 56.5q103 0 168 -55t65 -159h-87q0 59 -40 95.5t-106 36.5zM527 899q28 -61 120 -270.5t167.5 -373.5t116.5 -237l-7 -18q-95 -3 -131 13q-24 38 -90 198h-472l-87 -211h-131l396 899q21 8 60 8t58 -8z
M271 310h390q-65 157 -193 479z" />
    <glyph glyph-name="uni0203" unicode="&#x203;" horiz-adv-x="720" 
d="M386 915q-67 0 -107.5 -38t-40.5 -94h-87q0 101 67.5 157.5t167.5 56.5q103 0 168 -55t65 -159h-87q0 58 -40 95t-106 37zM656 206q1 -90 8 -127t22 -66l-1 -13h-105q-37 31 -37 125v18q-54 -75 -132 -118t-163 -43q-93 0 -149.5 48.5t-55.5 124.5q0 112 112.5 185
t293.5 78q54 0 80 -2q-8 90 -51.5 141.5t-115.5 51.5q-95 2 -228 -83q-36 13 -43 81q149 100 281 100q131 1 207 -87t77 -252v-162zM530 327l2 12q-54 4 -82 3q-138 -2 -213.5 -50.5t-75.5 -116.5q0 -45 30 -72t85 -27q100 0 174 79.5t80 171.5z" />
    <glyph glyph-name="uni0206" unicode="&#x206;" horiz-adv-x="799" 
d="M414 1093q-67 0 -107.5 -38t-40.5 -94h-87q0 101 67.5 157.5t167.5 56.5q103 0 168 -55t65 -159h-87q0 58 -40 95t-106 37zM754 99q11 -13 11.5 -46.5t-11.5 -52.5h-686v886l13 13h651q6 -22 -1.5 -53t-18.5 -46h-522v-314h464q6 -23 -1.5 -55.5t-18.5 -43.5h-444v-288
h564z" />
    <glyph glyph-name="uni0207" unicode="&#x207;" horiz-adv-x="706" 
d="M382 915q-67 0 -107.5 -38t-40.5 -94h-87q0 101 67.5 157.5t167.5 56.5q103 0 168 -55t65 -159h-87q0 58 -40 95t-106 37zM380 707q140 0 224 -92.5t72 -250.5l-18 -23l-506 -83q18 -83 76.5 -129.5t138.5 -45.5q112 2 220 93q11 -4 20.5 -13.5t15.5 -19t10 -18.5t6 -15
l2 -7q-132 -119 -286 -121q-135 -1 -228.5 89.5t-95.5 243.5q-2 163 97.5 277.5t251.5 114.5zM558 404q4 95 -46 152t-132 57q-95 0 -162.5 -79.5t-72.5 -191.5z" />
    <glyph glyph-name="uni020A" unicode="&#x20a;" horiz-adv-x="29" 
d="M-223 961q0 101 67.5 157.5t167.5 56.5q103 0 168 -55t65 -159h-87q0 58 -40 95t-106 37q-67 0 -107.5 -38t-40.5 -94h-87zM-46 0v899q21 8 59.5 7t55.5 -7v-899h-115z" />
    <glyph glyph-name="uni020B" unicode="&#x20b;" horiz-adv-x="271" 
d="M-94 783q0 101 66 157.5t164 56.5q101 0 164.5 -55t63.5 -159h-85q0 58 -39 95t-104 37t-105 -38t-40 -94h-85zM76 0v671q19 6 61 6t59 -6v-671h-120z" />
    <glyph glyph-name="uni020E" unicode="&#x20e;" horiz-adv-x="927" 
d="M254 973q0 101 67.5 157.5t167.5 56.5q103 0 168 -55t65 -159h-87q0 58 -40 95t-106 37q-67 0 -107.5 -38t-40.5 -94h-87zM424 -18q-175 0 -282.5 123t-107.5 303q0 141 60 258.5t168.5 186.5t242.5 69q111 0 201 -62t139 -164t49 -221q0 -130 -61 -243t-169.5 -181.5
t-239.5 -68.5zM430 85q140 0 237.5 118.5t99.5 278.5q2 144 -74.5 240t-198.5 96q-144 0 -239 -119.5t-95 -291.5q1 -135 71.5 -228.5t198.5 -93.5z" />
    <glyph glyph-name="uni020F" unicode="&#x20f;" horiz-adv-x="760" 
d="M163 784q0 100 67 157t168 57q102 0 167 -55.5t65 -158.5h-87q0 58 -39.5 94.5t-105.5 36.5q-67 0 -107.5 -37.5t-40.5 -93.5h-87zM354 -18q-151 0 -237 95.5t-86 239.5q0 161 109 275.5t269 114.5q146 0 231.5 -94t87.5 -240q3 -169 -103.5 -280t-270.5 -111zM360 83
q106 0 176 83t70 195q0 103 -56.5 174t-147.5 71q-105 0 -176.5 -85.5t-71.5 -203.5q0 -99 54 -166.5t152 -67.5z" />
    <glyph glyph-name="uni0212" unicode="&#x212;" horiz-adv-x="930" 
d="M424 1106q-67 0 -107.5 -38t-40.5 -94h-87q0 101 67.5 157.5t167.5 56.5q103 0 168 -55t65 -159h-87q0 58 -40 95t-106 37zM590 314q175 -201 292 -288l-2 -20q-45 -15 -129 -15q-60 32 -296 298q-14 -1 -43 -1q-106 0 -222 29v-317h-122v878q160 44 360 44
q183 0 288 -84.5t105 -233.5q0 -104 -62 -179.5t-169 -110.5zM413 387q123 -1 202.5 57.5t78.5 161.5q0 97 -71.5 157t-207.5 60q-128 0 -225 -21v-385q106 -29 223 -30z" />
    <glyph glyph-name="uni0213" unicode="&#x213;" horiz-adv-x="566" 
d="M295 932q-66 0 -106 -37.5t-40 -93.5h-87q0 100 67 157t166 57q102 0 166.5 -55t64.5 -159h-86q0 58 -39.5 94.5t-105.5 36.5zM534 682q7 -20 -5 -53.5t-28 -51.5q-53 21 -95 21q-64 -1 -112 -42t-72.5 -109t-24.5 -151v-296h-122v512q0 81 -13 140v18q62 14 107 9
q12 -38 12 -86v-64q33 79 94 128.5t138 49.5q57 0 121 -25z" />
    <glyph glyph-name="uni0218" unicode="&#x218;" horiz-adv-x="869" 
d="M461 -18q-117 0 -228.5 36.5t-198.5 103.5q2 20 21 52t44 39q77 -62 171.5 -97t190.5 -35q118 0 183 48.5t65 124.5q0 79 -68 116t-201 44q-152 7 -239.5 68.5t-86.5 178.5q1 119 102 190t236 71q176 0 274.5 -80t98.5 -194q-24 -7 -59 -10t-59 2q-4 84 -71.5 133.5
t-184.5 49.5q-89 0 -150 -45.5t-61 -114.5q0 -73 60.5 -109t157.5 -42q194 -10 285.5 -73t91.5 -178q0 -126 -101 -202.5t-273 -76.5zM364 -297l41 222h94l-54 -222h-81z" />
    <glyph glyph-name="uni0219" unicode="&#x219;" horiz-adv-x="722" 
d="M376 -18q-94 0 -183.5 28t-153.5 82q5 20 19.5 46t33.5 39q118 -94 271 -94q86 0 141.5 31t55.5 80q0 55 -50.5 81t-168.5 32q-272 18 -272 187q0 88 82 150.5t213 62.5q180 0 308 -81q-6 -45 -34 -93q-118 73 -260 73q-88 0 -137 -33t-49 -77q0 -91 180 -99
q168 -8 239 -57.5t71 -144.5t-88 -154t-218 -59zM288 -307l41 222h94l-54 -222h-81z" />
    <glyph glyph-name="uni021A" unicode="&#x21a;" horiz-adv-x="865" 
d="M842 899q5 -23 -1.5 -54.5t-18.5 -44.5h-335v-800h-126v800h-337q-5 21 -1.5 51.5t13.5 47.5h806zM338 -291l41 222h94l-54 -222h-81z" />
    <glyph glyph-name="uni021B" unicode="&#x21b;" horiz-adv-x="529" 
d="M493 572h-271v-258q0 -110 39 -170t115 -60q39 0 96 19q11 -11 17 -45t0 -53q-71 -23 -130 -23q-119 -1 -188 81.5t-69 242.5v266h-88v99h88v179q19 11 54.5 17t65.5 0v-196h271v-99zM224 -298l41 222h94l-54 -222h-81z" />
    <glyph glyph-name="uni0237" unicode="&#x237;" horiz-adv-x="290" 
d="M47 -243q-47 2 -93 18q-7 22 1 55.5t22 49.5q33 -12 53 -12q34 -1 47 39t13 138v626q21 6 62.5 5.5t57.5 -5.5v-682q0 -107 -41 -169.5t-122 -62.5z" />
    <glyph glyph-name="circumflex" unicode="&#x2c6;" horiz-adv-x="585" 
d="M527 755h-98l-136 153l-137 -153h-98l206 234h58z" />
    <glyph glyph-name="caron" unicode="&#x2c7;" horiz-adv-x="585" 
d="M429 989h98l-205 -234h-58l-206 234h98l137 -153z" />
    <glyph glyph-name="breve" unicode="&#x2d8;" horiz-adv-x="585" 
d="M292 741q-104 0 -169 55.5t-65 159.5h87q0 -59 40 -95.5t107 -36.5t107.5 37.5t40.5 94.5h88q0 -101 -68 -158t-168 -57z" />
    <glyph glyph-name="dotaccent" unicode="&#x2d9;" horiz-adv-x="259" 
d="M130 774q-29 0 -50.5 21t-21.5 50t21.5 50.5t50.5 21.5q28 0 50 -21.5t22 -50.5q0 -28 -21.5 -49.5t-50.5 -21.5z" />
    <glyph glyph-name="ring" unicode="&#x2da;" horiz-adv-x="498" 
d="M250 719q-86 0 -139 39.5t-53 105.5q0 63 51.5 104t140.5 41q86 0 138 -41t52 -104t-55.5 -104t-134.5 -41zM248 774q52 0 87 26t35 64q0 39 -35 65t-87 26q-54 0 -87.5 -26t-33.5 -65t33.5 -64.5t87.5 -25.5z" />
    <glyph glyph-name="ogonek" unicode="&#x2db;" horiz-adv-x="404" 
d="M188 -354q-57 -1 -93.5 31.5t-36.5 94.5q0 56 35 126t96 120l74 -11q-57 -56 -87 -112.5t-30 -102.5q0 -29 17 -44t42 -13q22 0 46.5 14.5t39.5 37.5l55 -46q-26 -41 -70.5 -68t-87.5 -27z" />
    <glyph glyph-name="tilde" unicode="&#x2dc;" horiz-adv-x="568" 
d="M398 772q-36 0 -76 24.5t-76 49t-62 24.5q-24 0 -39 -24.5t-15 -68.5h-72q0 83 30.5 136t81.5 53q44 0 113.5 -49t97.5 -49q25 0 41 25t16 68h72q0 -81 -30 -135t-82 -54z" />
    <glyph glyph-name="hungarumlaut" unicode="&#x2dd;" horiz-adv-x="614" 
d="M76 755l130 248h114l-168 -248h-76zM294 755l141 248h121l-185 -248h-77z" />
    <glyph glyph-name="gravecomb" unicode="&#x300;" 
d="M-139 755l-202 248h120l163 -248h-81z" />
    <glyph glyph-name="acutecomb" unicode="&#x301;" 
d="M-314 755l135 248h121l-180 -248h-76z" />
    <glyph glyph-name="uni0302" unicode="&#x302;" 
d="M-58 755h-98l-136 149l-137 -149h-98l206 234h58z" />
    <glyph glyph-name="tildecomb" unicode="&#x303;" 
d="M-170 772q-36 0 -76 24.5t-76 49t-62 24.5q-24 0 -39 -24.5t-15 -68.5h-72q0 83 30.5 136t81.5 53q44 0 113.5 -49t97.5 -49q25 0 41 25t16 68h72q0 -81 -30 -135t-82 -54z" />
    <glyph glyph-name="uni0304" unicode="&#x304;" 
d="M-554 807v88h478v-88h-478z" />
    <glyph glyph-name="uni0306" unicode="&#x306;" 
d="M-293 741q-104 0 -169 55.5t-65 159.5h87q0 -59 40 -95.5t107 -36.5t107.5 37.5t40.5 94.5h88q0 -101 -68 -158t-168 -57z" />
    <glyph glyph-name="uni0307" unicode="&#x307;" 
d="M-129 774q-29 0 -50.5 21t-21.5 50t21.5 50.5t50.5 21.5t50.5 -21.5t21.5 -50.5q0 -28 -21.5 -49.5t-50.5 -21.5z" />
    <glyph glyph-name="uni0308" unicode="&#x308;" 
d="M-463 774q-29 0 -50 21t-21 50t21.5 50.5t49.5 21.5q29 0 50.5 -21.5t21.5 -50.5t-21.5 -50t-50.5 -21zM-147 774q-29 0 -50.5 21.5t-21.5 49.5q0 29 21.5 50.5t50.5 21.5t50.5 -21.5t21.5 -50.5q0 -28 -21.5 -49.5t-50.5 -21.5z" />
    <glyph glyph-name="uni030A" unicode="&#x30a;" 
d="M-248 741q-86 0 -139 39.5t-53 105.5q0 63 51.5 104t140.5 41q86 0 138 -41t52 -104t-55.5 -104t-134.5 -41zM-250 796q52 0 87 26t35 64q0 39 -35 65t-87 26q-54 0 -87.5 -26t-33.5 -65t33.5 -64.5t87.5 -25.5z" />
    <glyph glyph-name="uni030B" unicode="&#x30b;" 
d="M-538 755l130 248h114l-168 -248h-76zM-320 755l141 248h121l-185 -248h-77z" />
    <glyph glyph-name="uni030C" unicode="&#x30c;" 
d="M-156 989h98l-205 -234h-58l-206 234h98l137 -153z" />
    <glyph glyph-name="uni0311" unicode="&#x311;" 
d="M-525 755q0 101 67.5 157.5t167.5 56.5q103 0 168 -55t65 -159h-87q0 58 -40 95t-106 37q-67 0 -107.5 -38t-40.5 -94h-87z" />
    <glyph glyph-name="uni0312" unicode="&#x312;" 
d="M-228 787l68 236h81l-54 -236h-95z" />
    <glyph glyph-name="uni0326" unicode="&#x326;" 
d="M-250 -297l41 222h94l-54 -222h-81z" />
    <glyph glyph-name="uni0327" unicode="&#x327;" 
d="M-185 -346q-69 -2 -128 64l57 58q34 -41 70 -41q20 0 33.5 16t13.5 41q0 12 -5.5 24.5t-11.5 20.5t-19.5 24.5t-18.5 23.5q-27 36 -36 59.5t-9 60.5h76q0 -17 5.5 -31.5t12.5 -23.5t22.5 -28t26.5 -33q38 -50 38 -103q0 -54 -36.5 -92.5t-90.5 -39.5z" />
    <glyph glyph-name="uni0328" unicode="&#x328;" 
d="M-216 -354q-57 -1 -93.5 31.5t-36.5 94.5q0 56 35 126t96 120l74 -11q-57 -56 -87 -112.5t-30 -102.5q0 -29 17 -44t42 -13q22 0 46.5 14.5t39.5 37.5l55 -46q-26 -41 -70.5 -68t-87.5 -27z" />
    <glyph glyph-name="uni03BC" unicode="&#x3bc;" horiz-adv-x="786" 
d="M727 208q0 -86 6 -125t20 -68l-1 -15h-102q-29 26 -29 87v78q-29 -81 -99 -132t-161 -51q-112 0 -167 84v-334h-106v939q47 11 121 0v-366q0 -222 167 -222q105 0 168 85.5t63 220.5v282q22 5 65 4t55 -4v-463z" />
    <glyph glyph-name="uni1E02" unicode="&#x1e02;" horiz-adv-x="855" 
d="M389 990q-23 0 -40.5 17t-17.5 40t17.5 40.5t40.5 17.5t40.5 -17.5t17.5 -40.5q0 -22 -17.5 -39.5t-40.5 -17.5zM634 538q187 -59 187 -238q0 -149 -104.5 -233t-288.5 -85q-125 -1 -199.5 8t-160.5 35v858q141 39 321 39q82 0 146 -14t103 -37t64.5 -53.5t35 -61
t9.5 -63.5q0 -47 -30.5 -88t-82.5 -67zM393 827q-106 0 -203 -19v-272q109 27 257 27q19 0 53 -2q62 12 94.5 44.5t32.5 76.5q0 26 -11 49.5t-35.5 46t-73 36t-114.5 13.5zM420 80q139 0 212 57.5t73 154.5q0 172 -273 172q-126 0 -242 -30v-331q98 -23 230 -23z" />
    <glyph glyph-name="uni1E03" unicode="&#x1e03;" horiz-adv-x="761" 
d="M387 1007q-29 0 -50.5 21t-21.5 50t21.5 50.5t50.5 21.5t50.5 -22t21.5 -50t-21.5 -49.5t-50.5 -21.5zM438 707q133 0 212.5 -93.5t79.5 -241.5q0 -162 -91 -276t-232 -114q-136 0 -218 116q-6 -53 -25 -98h-106v17q13 65 13 156v761q20 6 61.5 6t58.5 -6v-397
q36 75 103 122.5t144 47.5zM386 84q97 0 159.5 85.5t61.5 204.5q0 101 -50 166.5t-130 65.5q-96 0 -165.5 -98.5t-69.5 -218.5q0 -77 56.5 -141t137.5 -64z" />
    <glyph glyph-name="uni1E0A" unicode="&#x1e0a;" horiz-adv-x="894" 
d="M379 1005q-23 0 -40.5 17t-17.5 40t17.5 40.5t40.5 17.5t40.5 -17.5t17.5 -40.5q0 -22 -17.5 -39.5t-40.5 -17.5zM380 922q224 0 352 -126t128 -334q0 -219 -122.5 -349.5t-337.5 -130.5q-110 0 -177.5 9t-154.5 34v859q141 38 312 38zM733 459q1 161 -93.5 262.5
t-263.5 101.5q-96 0 -186 -15v-705q87 -23 208 -23q159 0 246.5 103.5t88.5 275.5z" />
    <glyph glyph-name="uni1E0B" unicode="&#x1e0b;" horiz-adv-x="766" 
d="M367 1015q-29 0 -50.5 21t-21.5 50t21.5 50.5t50.5 21.5t50.5 -22t21.5 -50t-21.5 -49.5t-50.5 -21.5zM695 173q0 -93 14 -156v-17h-102q-25 47 -29 124q-42 -65 -105.5 -103.5t-141.5 -38.5q-131 0 -215.5 96.5t-84.5 239.5q0 165 93.5 277t243.5 112q66 0 120.5 -35.5
t86.5 -94.5v357q18 6 59 6t61 -6v-761zM353 84q94 0 156 92.5t62 222.5q0 87 -54.5 147t-129.5 60q-99 0 -165.5 -80t-67.5 -197q0 -107 55.5 -176t143.5 -69z" />
    <glyph glyph-name="uni1E1E" unicode="&#x1e1e;" horiz-adv-x="773" 
d="M394 982q-23 0 -40.5 17t-17.5 40t17.5 40.5t40.5 17.5t40.5 -17.5t17.5 -40.5q0 -22 -17.5 -39.5t-40.5 -17.5zM717 799h-527v-361h472q6 -23 -1.5 -55t-18.5 -43h-452v-340h-122v886l13 12h656q6 -22 -1 -53.5t-19 -45.5z" />
    <glyph glyph-name="uni1E1F" unicode="&#x1e1f;" horiz-adv-x="412" 
d="M303 1039q-29 0 -50.5 21t-21.5 50t21.5 50.5t50.5 21.5t50.5 -22t21.5 -50t-21.5 -49.5t-50.5 -21.5zM395 850q-61 -1 -91.5 -46t-35.5 -133h199v-99h-200v-572h-120v572h-146v99h147q15 279 225 279q62 0 137 -21q5 -17 -2.5 -51t-18.5 -46q-50 18 -94 18z" />
    <glyph glyph-name="uni1E40" unicode="&#x1e40;" horiz-adv-x="1096" 
d="M548 982q-23 0 -40.5 17t-17.5 40t17.5 40.5t40.5 17.5t40.5 -17.5t17.5 -40.5q0 -22 -17.5 -39.5t-40.5 -17.5zM1062 0h-122l-65 673l-289 -532h-78l-289 531l-63 -672h-122l86 880q14 13 53 19t52 0l322 -610l322 610q16 6 53.5 -0.5t51.5 -19.5z" />
    <glyph glyph-name="uni1E41" unicode="&#x1e41;" horiz-adv-x="1080" 
d="M575 802q-29 0 -50.5 21t-21.5 50t21.5 50.5t50.5 21.5t50.5 -21.5t21.5 -50.5q0 -28 -21.5 -49.5t-50.5 -21.5zM818 707q102 0 153.5 -82t51.5 -234v-391h-121v377q0 108 -28 168.5t-85 60.5q-78 0 -131.5 -87t-53.5 -204v-315h-116v376q0 230 -112 230
q-77 0 -130.5 -91t-53.5 -213v-302h-121v512q0 81 -13 140v18q65 14 111 9q13 -41 13 -86v-31q38 64 95.5 104.5t120.5 40.5q140 0 183 -153q40 70 102.5 111.5t134.5 41.5z" />
    <glyph glyph-name="uni1E56" unicode="&#x1e56;" horiz-adv-x="854" 
d="M423 1004q-23 0 -40.5 17t-17.5 40t17.5 40.5t40.5 17.5t40.5 -17.5t17.5 -40.5q0 -22 -17.5 -39.5t-40.5 -17.5zM820 575q1 -145 -110 -236t-297 -91q-115 0 -223 26v-274h-122v878q150 44 356 44q187 0 291.5 -94t104.5 -253zM694 577q1 115 -72 180.5t-207 65.5
q-129 0 -225 -24v-420q98 -32 217 -32q129 0 208 61.5t79 168.5z" />
    <glyph glyph-name="uni1E57" unicode="&#x1e57;" horiz-adv-x="761" 
d="M410 802q-29 0 -50.5 21t-21.5 50t21.5 50.5t50.5 21.5q28 0 50 -21.5t22 -50.5q0 -28 -21.5 -49.5t-50.5 -21.5zM441 707q130 0 209.5 -94t79.5 -239q0 -165 -92 -278.5t-230 -113.5q-135 0 -217 125v-353q-16 -6 -58.5 -6t-61.5 6v748q0 75 -13 153v17q57 16 106 8
l26 -104v-17q46 69 111.5 108.5t139.5 39.5zM386 84q97 0 159 86t62 201q0 108 -51 171.5t-130 63.5q-94 0 -164.5 -95t-70.5 -227q0 -74 58 -137t137 -63z" />
    <glyph glyph-name="uni1E60" unicode="&#x1e60;" horiz-adv-x="869" 
d="M452 1005q-23 0 -40.5 17t-17.5 40t17.5 40.5t40.5 17.5t40.5 -17.5t17.5 -40.5q0 -22 -17.5 -39.5t-40.5 -17.5zM461 -18q-117 0 -228.5 36.5t-198.5 103.5q2 20 21 52t44 39q77 -62 171.5 -97t190.5 -35q118 0 183 48.5t65 124.5q0 79 -68 116t-201 44
q-152 7 -239.5 68.5t-86.5 178.5q1 119 102 190t236 71q176 0 274.5 -80t98.5 -194q-24 -7 -59 -10t-59 2q-4 84 -71.5 133.5t-184.5 49.5q-89 0 -150 -45.5t-61 -114.5q0 -73 60.5 -109t157.5 -42q194 -10 285.5 -73t91.5 -178q0 -126 -101 -202.5t-273 -76.5z" />
    <glyph glyph-name="uni1E61" unicode="&#x1e61;" horiz-adv-x="722" 
d="M364 802q-29 0 -50.5 21t-21.5 50t21.5 50.5t50.5 21.5q28 0 50 -21.5t22 -50.5q0 -28 -21.5 -49.5t-50.5 -21.5zM376 -18q-94 0 -183.5 28t-153.5 82q5 20 19.5 46t33.5 39q118 -94 271 -94q86 0 141.5 31t55.5 80q0 55 -50.5 81t-168.5 32q-272 18 -272 187
q0 88 82 150.5t213 62.5q180 0 308 -81q-6 -45 -34 -93q-118 73 -260 73q-88 0 -137 -33t-49 -77q0 -91 180 -99q168 -8 239 -57.5t71 -144.5t-88 -154t-218 -59z" />
    <glyph glyph-name="uni1E6A" unicode="&#x1e6a;" horiz-adv-x="865" 
d="M421 982q-23 0 -40.5 17t-17.5 40t17.5 40.5t40.5 17.5t40.5 -17.5t17.5 -40.5q0 -22 -17.5 -39.5t-40.5 -17.5zM842 899q5 -23 -1.5 -54.5t-18.5 -44.5h-335v-800h-126v800h-337q-5 21 -1.5 51.5t13.5 47.5h806z" />
    <glyph glyph-name="uni1E6B" unicode="&#x1e6b;" horiz-adv-x="529" 
d="M166 969q-29 0 -50.5 21t-21.5 50t21.5 50.5t50.5 21.5q28 0 50 -22t22 -50t-21.5 -49.5t-50.5 -21.5zM493 572h-271v-258q0 -110 39 -170t115 -60q39 0 96 19q11 -11 17 -45t0 -53q-71 -23 -130 -23q-119 -1 -188 81.5t-69 242.5v266h-88v99h88v179q19 11 54.5 17
t65.5 0v-196h271v-99z" />
    <glyph glyph-name="Wgrave" unicode="&#x1e80;" horiz-adv-x="1299" 
d="M627 965l-205 190h110l170 -190h-75zM399 0l-31 17q-80 247 -184 494.5t-171 367.5l7 20q54 14 115 0q78 -139 170.5 -366t154.5 -430h5q52 83 115 216.5t83 209.5q-3 11 -69 193q11 17 46.5 32.5t67.5 12.5q39 -84 113 -303.5t111 -360.5h6q128 179 183.5 400t27.5 387
q36 25 114 9q39 -173 -21 -420.5t-218 -454.5l-39 -24h-126l-22 14q-66 210 -119 349q-19 -66 -75.5 -180t-91.5 -168l-31 -15h-121z" />
    <glyph glyph-name="wgrave" unicode="&#x1e81;" horiz-adv-x="996" 
d="M486 761l-202 248h120l163 -248h-81zM273 0l-21 14q-18 63 -39 127.5t-42.5 123.5t-40.5 107t-40.5 98.5t-33.5 77.5t-29 64.5t-18 39.5l9 19q69 13 115 0q135 -267 212 -563h7q85 176 128 338l-46 122q11 19 44.5 34.5t66.5 11.5q99 -249 161 -506h8q165 322 147 554
q41 23 120 9q18 -124 -38 -316t-159 -343l-21 -12h-117l-22 15q-43 158 -85 263q-15 -49 -53.5 -134.5t-67.5 -132.5l-18 -11h-127z" />
    <glyph glyph-name="Wacute" unicode="&#x1e82;" horiz-adv-x="1299" 
d="M600 953l169 196h113l-205 -196h-77zM399 0l-31 17q-80 247 -184 494.5t-171 367.5l7 20q54 14 115 0q78 -139 170.5 -366t154.5 -430h5q52 83 115 216.5t83 209.5q-3 11 -69 193q11 17 46.5 32.5t67.5 12.5q39 -84 113 -303.5t111 -360.5h6q128 179 183.5 400t27.5 387
q36 25 114 9q39 -173 -21 -420.5t-218 -454.5l-39 -24h-126l-22 14q-66 210 -119 349q-19 -66 -75.5 -180t-91.5 -168l-31 -15h-121z" />
    <glyph glyph-name="wacute" unicode="&#x1e83;" horiz-adv-x="996" 
d="M447 761l135 248h121l-180 -248h-76zM273 0l-21 14q-18 63 -39 127.5t-42.5 123.5t-40.5 107t-40.5 98.5t-33.5 77.5t-29 64.5t-18 39.5l9 19q69 13 115 0q135 -267 212 -563h7q85 176 128 338l-46 122q11 19 44.5 34.5t66.5 11.5q99 -249 161 -506h8q165 322 147 554
q41 23 120 9q18 -124 -38 -316t-159 -343l-21 -12h-117l-22 15q-43 158 -85 263q-15 -49 -53.5 -134.5t-67.5 -132.5l-18 -11h-127z" />
    <glyph glyph-name="Wdieresis" unicode="&#x1e84;" horiz-adv-x="1299" 
d="M510 984q-23 0 -40 17t-17 40t17 40t40 17t40.5 -17t17.5 -40t-17.5 -40t-40.5 -17zM791 984q-23 0 -40 17t-17 40t17 40t40 17t40.5 -17t17.5 -40t-17.5 -40t-40.5 -17zM399 0l-31 17q-80 247 -184 494.5t-171 367.5l7 20q54 14 115 0q78 -139 170.5 -366t154.5 -430h5
q52 83 115 216.5t83 209.5q-3 11 -69 193q11 17 46.5 32.5t67.5 12.5q39 -84 113 -303.5t111 -360.5h6q128 179 183.5 400t27.5 387q36 25 114 9q39 -173 -21 -420.5t-218 -454.5l-39 -24h-126l-22 14q-66 210 -119 349q-19 -66 -75.5 -180t-91.5 -168l-31 -15h-121z" />
    <glyph glyph-name="wdieresis" unicode="&#x1e85;" horiz-adv-x="996" 
d="M353 780q-29 0 -50 21t-21 50t21.5 50.5t49.5 21.5q29 0 50.5 -21.5t21.5 -50.5t-21.5 -50t-50.5 -21zM669 780q-29 0 -50.5 21.5t-21.5 49.5q0 29 21.5 50.5t50.5 21.5t50.5 -21.5t21.5 -50.5q0 -28 -21.5 -49.5t-50.5 -21.5zM273 0l-21 14q-18 63 -39 127.5
t-42.5 123.5t-40.5 107t-40.5 98.5t-33.5 77.5t-29 64.5t-18 39.5l9 19q69 13 115 0q135 -267 212 -563h7q85 176 128 338l-46 122q11 19 44.5 34.5t66.5 11.5q99 -249 161 -506h8q165 322 147 554q41 23 120 9q18 -124 -38 -316t-159 -343l-21 -12h-117l-22 15
q-43 158 -85 263q-15 -49 -53.5 -134.5t-67.5 -132.5l-18 -11h-127z" />
    <glyph glyph-name="uni1E9E" unicode="&#x1e9e;" horiz-adv-x="931" 
d="M488 530q55 -4 106.5 -14t107.5 -31.5t97 -52t67.5 -78.5t26.5 -108q0 -125 -96.5 -194.5t-234.5 -69.5q-97 0 -169 27.5t-132 87.5q5 25 20.5 49t36.5 38q90 -96 238 -96q93 0 153.5 44t60.5 114q0 48 -33 86.5t-81.5 62t-109 39t-111.5 21.5t-93 6l-13 38l337 296h-285
q-68 0 -112 -37t-60.5 -88.5t-16.5 -114.5v-555h-120v564q0 152 72.5 243.5t226.5 91.5h436q11 -22 7.5 -53t-17.5 -46z" />
    <glyph glyph-name="Ygrave" unicode="&#x1ef2;" horiz-adv-x="866" 
d="M486 965h-75l-205 190h110zM847 899q29 -283 -320 -596v-303h-122v313q-72 112 -201.5 303.5t-188.5 262.5l8 20q75 15 131 0q42 -45 158.5 -220.5t170.5 -267.5q114 103 182 241t60 238q41 23 122 9z" />
    <glyph glyph-name="ygrave" unicode="&#x1ef3;" horiz-adv-x="745" 
d="M439 784h-81l-202 248h120zM726 671q8 -67 6 -143.5t-25 -167.5t-58 -177t-94.5 -171.5t-134.5 -150.5q-138 -118 -301 -120q-54 0 -86 17q-19 46 -1 86l20 12q31 -14 68 -14q118 0 245 125q28 28 48 52q-70 47 -133 118t-105 141.5t-76.5 147.5t-52 130.5t-27.5 95.5
l6 18q59 15 112 1q11 -44 34 -106.5t63.5 -147t105 -170t138.5 -142.5q148 230 132 556q37 25 116 10z" />
    <glyph glyph-name="endash" unicode="&#x2013;" horiz-adv-x="1068" 
d="M200 316v95h668v-95h-668z" />
    <glyph glyph-name="emdash" unicode="&#x2014;" horiz-adv-x="1179" 
d="M200 316v95h780v-95h-780z" />
    <glyph glyph-name="quoteleft" unicode="&#x2018;" horiz-adv-x="325" 
d="M92 649l55 306h86l-31 -306h-110z" />
    <glyph glyph-name="quoteright" unicode="&#x2019;" horiz-adv-x="327" 
d="M92 648l31 307h112l-57 -307h-86z" />
    <glyph glyph-name="quotesinglbase" unicode="&#x201a;" horiz-adv-x="327" 
d="M92 -140l31 307h112l-57 -307h-86z" />
    <glyph glyph-name="quotedblleft" unicode="&#x201c;" horiz-adv-x="508" 
d="M92 649l55 306h87l-31 -306h-111zM274 649l56 306h86l-30 -306h-112z" />
    <glyph glyph-name="quotedblright" unicode="&#x201d;" horiz-adv-x="507" 
d="M92 648l30 307h112l-56 -307h-86zM273 648l31 307h111l-55 -307h-87z" />
    <glyph glyph-name="quotedblbase" unicode="&#x201e;" horiz-adv-x="508" 
d="M92 -140l31 307h112l-57 -307h-86zM273 -140l32 307h111l-56 -307h-87z" />
    <glyph glyph-name="dagger" unicode="&#x2020;" horiz-adv-x="743" 
d="M645 834v-101h-223v-863h-101v863h-223v101h223v169h101v-169h223z" />
    <glyph glyph-name="daggerdbl" unicode="&#x2021;" horiz-adv-x="749" 
d="M647 122v-101h-225v-151h-101v151h-221v101h221v611h-223v101h223v169h101v-169h223v-101h-223v-611h225z" />
    <glyph glyph-name="bullet" unicode="&#x2022;" horiz-adv-x="763" 
d="M381 251q-63 0 -107.5 47.5t-44.5 114.5q0 65 45 114.5t107 49.5q60 0 106.5 -50t46.5 -114q0 -66 -46 -114t-107 -48z" />
    <glyph glyph-name="ellipsis" unicode="&#x2026;" horiz-adv-x="849" 
d="M164 0q-29 0 -50.5 21t-21.5 50t21.5 50t50.5 21t50.5 -21.5t21.5 -49.5t-21.5 -49.5t-50.5 -21.5zM424 0q-28 0 -49.5 21t-21.5 50t21.5 50t49.5 21q29 0 51 -21.5t22 -49.5t-22 -49.5t-51 -21.5zM685 0q-29 0 -50.5 21.5t-21.5 49.5t21.5 49.5t50.5 21.5t50.5 -21.5
t21.5 -49.5t-21.5 -49.5t-50.5 -21.5z" />
    <glyph glyph-name="perthousand" unicode="&#x2030;" horiz-adv-x="1769" 
d="M186 0l705 890h133l-706 -890h-132zM346 490q-118 0 -185.5 51t-67.5 147q0 92 66.5 145.5t186.5 53.5q122 0 188 -52.5t66 -146.5q0 -91 -69 -144.5t-185 -53.5zM346 569q58 0 97.5 32.5t39.5 86.5q0 55 -38.5 87.5t-98.5 32.5t-98 -33.5t-38 -86.5q0 -55 38 -87t98 -32
zM850 -10q-117 0 -185 51.5t-68 146.5q0 92 67 145t186 53q122 0 188.5 -52t66.5 -146q0 -92 -69 -145t-186 -53zM1421 -10q-118 0 -185.5 51.5t-67.5 146.5q0 92 67 145t186 53q122 0 188.5 -52t66.5 -146q0 -92 -69 -145t-186 -53zM850 69q59 0 99 32t40 87t-39 87
t-100 32q-59 0 -97.5 -33t-38.5 -86q0 -55 38.5 -87t97.5 -32zM1421 69q59 0 98.5 32t39.5 87t-38.5 87t-99.5 32q-60 0 -98 -33t-38 -86q0 -55 38.5 -87t97.5 -32z" />
    <glyph glyph-name="guilsinglleft" unicode="&#x2039;" horiz-adv-x="723" 
d="M631 686l-395 -250l395 -246l-33 -81l-506 292v72l502 292z" />
    <glyph glyph-name="guilsinglright" unicode="&#x203a;" horiz-adv-x="723" 
d="M129 765l503 -292v-72l-506 -292l-34 81l395 246l-394 250z" />
    <glyph glyph-name="fraction" unicode="&#x2044;" horiz-adv-x="1111" 
d="M92 -131l825 1183h102l-825 -1183h-102z" />
    <glyph glyph-name="Euro" unicode="&#x20ac;" horiz-adv-x="920" 
d="M774 188l55 -78q-43 -45 -129.5 -77.5t-192.5 -32.5q-91 0 -170.5 33t-140 105t-84.5 174h-67v80h54q-2 34 -2 54q0 16 2 44h-54v80h66q23 99 84.5 170t141 104t170.5 33q101 0 181 -29t131 -72l-54 -76q-38 32 -101.5 54t-143.5 22q-105 0 -179 -52.5t-102 -153.5h329
v-80h-343q-2 -28 -2 -44q0 -28 3 -54h309v-80h-292q32 -100 108 -155.5t177 -55.5q84 0 147 27t99 60z" />
    <glyph glyph-name="uni2116" unicode="&#x2116;" horiz-adv-x="1661" 
d="M1268 308q-131 0 -208 78.5t-77 205.5q0 133 88.5 225t217.5 92q128 0 202.5 -75t77.5 -198q4 -145 -82.5 -236.5t-218.5 -91.5zM785 890q23 8 64 7t58 -7v-890h-88l-605 693v-693h-122v867q11 14 42 23.5t46 4.5l605 -694v689zM1285 811q-77 0 -131 -63t-54 -154
q0 -85 46 -136.5t124 -51.5q79 0 131.5 63.5t50.5 156.5q-2 82 -47 133.5t-120 51.5zM1025 113v90h501v-90h-501z" />
    <glyph glyph-name="trademark" unicode="&#x2122;" horiz-adv-x="1026" 
d="M427 890v-92h-120v-384h-96v384h-119v92h335zM934 890v-476h-96v303l-103 -259h-63l-110 257v-301h-96v476h109l128 -310l123 310h108z" />
    <glyph glyph-name="estimated" unicode="&#x212e;" horiz-adv-x="936" 
d="M472 895q168 0 273.5 -134t98.5 -362h-592l2 -259q83 -111 225 -111q73 0 144.5 39t120.5 101q25 -13 30 -38q-52 -65 -134 -107t-159 -42q-176 0 -282.5 127t-106.5 327q0 199 108.5 329t271.5 130zM696 446v283q-88 119 -224 119q-66 0 -126 -30t-96 -82l2 -290h444z
" />
    <glyph glyph-name="partialdiff" unicode="&#x2202;" horiz-adv-x="917" 
d="M422 909q85 0 155 -31.5t115 -82t76 -117.5t44 -135t13 -137q0 -205 -103.5 -314.5t-276.5 -109.5q-167 0 -260 86.5t-93 209.5q0 114 87 187.5t241 73.5q160 0 278 -66q-13 146 -84 241t-197 95q-59 0 -120 -27t-107 -71q-33 40 -32 87q37 47 115 79t149 32zM445 83
q116 0 183 77t72 223q-102 56 -246 56q-119 0 -177.5 -47t-58.5 -121q0 -77 61.5 -132.5t165.5 -55.5z" />
    <glyph glyph-name="minus" unicode="&#x2212;" horiz-adv-x="794" 
d="M121 391v100h552v-100h-552z" />
    <glyph glyph-name="radical" unicode="&#x221a;" horiz-adv-x="1090" 
d="M1090 890v-103h-192l-369 -787h-89l-348 481h135l242 -337l340 746h281z" />
    <glyph glyph-name="infinity" unicode="&#x221e;" horiz-adv-x="1076" 
d="M749 724q102 0 168.5 -63.5t66.5 -192.5q0 -128 -66.5 -191.5t-168.5 -63.5q-79 0 -127.5 41t-82.5 114q-35 -73 -83 -114t-129 -41q-102 0 -168.5 63.5t-66.5 191.5q0 129 66.5 192.5t168.5 63.5q81 0 129 -42.5t82 -118.5q32 76 80 118.5t131 42.5zM328 291
q36 0 63.5 13t48 39.5t33 52t27.5 65.5q-18 45 -30 70.5t-33 55.5t-47.5 43.5t-61.5 13.5q-58 0 -100 -44.5t-42 -131.5q0 -88 41.5 -132.5t100.5 -44.5zM748 292q60 0 101 44t41 132q0 87 -41.5 131.5t-100.5 44.5q-35 0 -61.5 -13.5t-47 -42.5t-32.5 -54.5t-29 -69.5
q33 -85 69 -128.5t101 -43.5z" />
    <glyph glyph-name="approxequal" unicode="&#x2248;" horiz-adv-x="735" 
d="M92 472q0 84 38 138.5t102 54.5q42 0 89 -23.5t88.5 -46.5t70.5 -23t48 25t19 68h96q0 -83 -37.5 -138t-102.5 -55q-43 0 -90.5 23t-89.5 46t-72 23q-28 0 -45.5 -25t-17.5 -67h-96zM92 257q0 84 38 138.5t102 54.5q42 0 89 -23t88.5 -46.5t70.5 -23.5t48 25t19 68h96
q0 -83 -37.5 -138t-102.5 -55q-43 0 -90.5 23t-89.5 46t-72 23q-28 0 -45.5 -25t-17.5 -67h-96z" />
    <glyph glyph-name="notequal" unicode="&#x2260;" horiz-adv-x="764" 
d="M670 886l-143 -283h129v-101h-180l-63 -123h243v-101h-294l-125 -247h-123l125 247h-134v101h185l62 123h-247v101h298l143 283h124z" />
    <glyph glyph-name="lessequal" unicode="&#x2264;" horiz-adv-x="723" 
d="M631 706l-397 -242l396 -244l-41 -84l-497 292v73l501 291zM122 2v87h484v-87h-484z" />
    <glyph glyph-name="greaterequal" unicode="&#x2265;" horiz-adv-x="723" 
d="M130 798l501 -292v-73l-498 -292l-40 84l395 244l-396 242zM103 0v87h483v-87h-483z" />
    <glyph glyph-name="i.loclTRK" horiz-adv-x="271" 
d="M136 802q-29 0 -50.5 21t-21.5 50t21.5 50.5t50.5 21.5q28 0 50 -21.5t22 -50.5q0 -28 -21.5 -49.5t-50.5 -21.5zM76 0v671q19 6 61 6t59 -6v-671h-120z" />
    <glyph glyph-name="uni00A0.001" horiz-adv-x="385" 
 />
    <glyph glyph-name="uni030C.alt" 
d="M-208 629l16 333h114l-43 -333h-87z" />
    <glyph glyph-name="uni0308.case" 
d="M-415 975q-23 0 -40 17t-17 40t17 40t40 17t40.5 -17t17.5 -40t-17.5 -40t-40.5 -17zM-134 975q-23 0 -40 17t-17 40q0 22 17.5 39.5t39.5 17.5q23 0 40.5 -17t17.5 -40t-17.5 -40t-40.5 -17z" />
    <glyph glyph-name="uni0307.case" 
d="M-144 973q-23 0 -40.5 17t-17.5 40t17.5 40.5t40.5 17.5t40.5 -17.5t17.5 -40.5q0 -22 -17.5 -39.5t-40.5 -17.5z" />
    <glyph glyph-name="gravecomb.case" 
d="M-151 960l-205 190h110l170 -190h-75z" />
    <glyph glyph-name="acutecomb.case" 
d="M-302 944l169 196h113l-205 -196h-77z" />
    <glyph glyph-name="uni030B.case" 
d="M-525 959l132 175h103l-166 -175h-69zM-327 959l146 175h114l-190 -175h-70z" />
    <glyph glyph-name="uni0302.case" 
d="M-75 942h-95l-136 146l-137 -146h-95l202 222h60z" />
    <glyph glyph-name="uni030C.case" 
d="M-156 1171h98l-205 -225h-58l-206 225h98l137 -144z" />
    <glyph glyph-name="uni0306.case" 
d="M-299 766q-98 0 -159.5 48t-61.5 139h84q0 -51 37.5 -83.5t99.5 -32.5t100.5 33.5t38.5 82.5h85q0 -88 -63.5 -137.5t-160.5 -49.5z" />
    <glyph glyph-name="uni030A.case" 
d="M-248 876q-86 0 -139 39.5t-53 105.5q0 63 51.5 104t140.5 41q86 0 138 -41t52 -104t-55.5 -104t-134.5 -41zM-250 931q52 0 87 26t35 64q0 39 -35 65t-87 26q-54 0 -87.5 -26t-33.5 -65t33.5 -64.5t87.5 -25.5z" />
    <glyph glyph-name="tildecomb.case" 
d="M-170 944q-28 0 -59.5 15t-54.5 33.5t-50.5 33.5t-47.5 15q-24 0 -39 -24t-15 -68h-72q0 78 30.5 127.5t81.5 49.5q35 0 74.5 -24.5t74.5 -49t60 -24.5t41 25t16 68l72 -1q0 -76 -30 -126t-82 -50z" />
    <glyph glyph-name="uni0304.case" 
d="M-530 824v81h455v-81h-455z" />
    <glyph glyph-name="uni0327.case" 
d="M-185 -352q-70 0 -128 64l57 58q34 -40 70 -40q20 0 33.5 16t13.5 41q0 12 -5.5 24.5t-11.5 20.5t-19 24t-19 24q-27 35 -36 59t-9 61h76q0 -17 5.5 -31.5t12.5 -24t22.5 -28t26.5 -33.5q38 -49 38 -102q0 -54 -36.5 -93t-90.5 -40z" />
    <glyph glyph-name="uni0328.case" 
d="M-216 -354q-57 -1 -93.5 31.5t-36.5 94.5q0 56 35 126t96 120l74 -11q-57 -56 -87 -112.5t-30 -102.5q0 -29 17 -44t42 -13q22 0 46.5 14.5t39.5 37.5l55 -46q-26 -41 -70.5 -68t-87.5 -27z" />
    </font>
</defs>
</svg>
