<?xml version="1.0" standalone="no"?>
<!DOCTYPE svg PUBLIC "-//W3C//DTD SVG 1.1//EN" "http://www.w3.org/Graphics/SVG/1.1/DTD/svg11.dtd" >
<svg xmlns="http://www.w3.org/2000/svg" xmlns:xlink="http://www.w3.org/1999/xlink" version="1.1">
<metadata>
Created by FontForge 20170731 at Mon May 11 15:12:47 2020
 By Aleksey,,,
Copyright (c) 2019 by Mans Greback. All rights reserved.
</metadata>
<defs>
<font id="Quache-HeavyCondensed" horiz-adv-x="0" >
  <font-face 
    font-family="Quache Heavy Condensed"
    font-weight="900"
    font-stretch="condensed"
    units-per-em="1000"
    panose-1="0 0 10 6 0 0 0 0 0 0"
    ascent="800"
    descent="-200"
    x-height="700"
    cap-height="925"
    bbox="-711 -404.089 2074 1311"
    underline-thickness="50"
    underline-position="-200"
    unicode-range="U+000D-2265"
  />
<missing-glyph horiz-adv-x="937" 
d="M0 -43v1029h937v-1029h-937zM100 57h737v829h-737v-829zM396 328q-18 69 -10.5 109t33.5 68.5t53.5 44t49.5 35.5t22 43q0 18 -19.5 34t-66.5 16q-20 0 -37.5 -2t-33.5 -7t-27.5 -9t-26.5 -12.5t-22 -12.5t-23 -14.5t-20 -13.5l-121 115q63 58 148.5 93t171.5 35
q141 0 219.5 -58.5t78.5 -148.5q0 -55 -29 -96t-68.5 -64t-78.5 -43.5t-62 -48t-15 -63.5h-116zM459 86q-39 0 -70 30.5t-31 69.5q0 38 31 69t70 31t69 -30.5t30 -69.5q0 -40 -30 -70t-69 -30z" />
    <glyph glyph-name="f_i.liga" unicode="fi" horiz-adv-x="817" 
d="M643 763q-56 0 -97.5 41.5t-41.5 96.5q0 54 42 95.5t97 41.5q54 0 96 -42t42 -95q0 -55 -42 -96.5t-96 -41.5zM86 0v490h-96v210h99q12 136 75.5 203t189.5 68q58 0 124 -14q11 -36 0 -109.5t-33 -96.5q-22 6 -42 6q-45 -1 -55 -57h424v-700h-258v490h-170v-490h-258z
" />
    <glyph glyph-name="f_l.liga" unicode="fl" horiz-adv-x="858" 
d="M711 -18q-99 0 -153 56t-54 171v566q-32 5 -63 5q-43 -1 -64.5 -21.5t-28.5 -58.5h87v-210h-91v-490h-258v490h-96v210h99q12 139 89.5 205t248.5 66q169 0 335 -35v-643q0 -101 33 -101q7 0 23 4q17 -38 20 -93.5t-10 -96.5q-72 -24 -117 -24z" />
    <glyph glyph-name=".notdef" horiz-adv-x="937" 
d="M0 -43v1029h937v-1029h-937zM100 57h737v829h-737v-829zM396 328q-18 69 -10.5 109t33.5 68.5t53.5 44t49.5 35.5t22 43q0 18 -19.5 34t-66.5 16q-20 0 -37.5 -2t-33.5 -7t-27.5 -9t-26.5 -12.5t-22 -12.5t-23 -14.5t-20 -13.5l-121 115q63 58 148.5 93t171.5 35
q141 0 219.5 -58.5t78.5 -148.5q0 -55 -29 -96t-68.5 -64t-78.5 -43.5t-62 -48t-15 -63.5h-116zM459 86q-39 0 -70 30.5t-31 69.5q0 38 31 69t70 31t69 -30.5t30 -69.5q0 -40 -30 -70t-69 -30z" />
    <glyph glyph-name=".null" 
 />
    <glyph glyph-name="nonmarkingreturn" horiz-adv-x="333" 
 />
    <glyph glyph-name="CR" unicode="&#xd;" horiz-adv-x="600" 
 />
    <glyph glyph-name="space" unicode=" " horiz-adv-x="385" 
 />
    <glyph glyph-name="exclam" unicode="!" horiz-adv-x="487" 
d="M144 316l-21 617h238l-21 -617h-196zM244 0q-49 0 -86.5 37t-37.5 85t37.5 85.5t86.5 37.5q47 0 85 -38t38 -85q0 -48 -37.5 -85t-85.5 -37z" />
    <glyph glyph-name="quotedbl" unicode="&#x22;" horiz-adv-x="620" 
d="M60 636l1 333h231l-56 -333h-176zM328 636l1 333h231l-56 -333h-176z" />
    <glyph glyph-name="numbersign" unicode="#" horiz-adv-x="798" 
d="M738 514h-65l-10 -109h43v-192h-60l-10 -114h-198l10 114h-124l-10 -114h-199l10 114h-65v192h82l10 109h-60v192h77l9 100h200l-9 -100h122l9 100h199l-9 -100h48v-192zM465 405l9 109h-122l-10 -109h123z" />
    <glyph glyph-name="dollar" unicode="$" horiz-adv-x="895" 
d="M835 257q0 -43 -13 -80.5t-42.5 -72t-84 -60t-129.5 -36.5v-141h-176v136q-93 12 -187.5 56.5t-142.5 99.5l101 178q62 -58 149 -91t168 -32q95 1 95 50q0 21 -34 39.5t-85.5 31.5t-111 36.5t-111 52t-85.5 80t-34 118.5q0 104 73.5 176t204.5 87v132h176v-138
q80 -16 142 -48.5t93 -65.5l-65 -192q-46 43 -130 73t-156 30q-41 0 -61 -11.5t-20 -26.5q0 -19 25.5 -34t67 -27.5t91 -27t99 -37.5t91 -54.5t67 -83t25.5 -117.5z" />
    <glyph glyph-name="percent" unicode="%" horiz-adv-x="1464" 
d="M367 487q-307 0 -307 210q0 102 76.5 157t230.5 55q307 0 307 -212q0 -98 -77.5 -154t-229.5 -56zM274 0l650 889h274l-652 -889h-272zM367 652q24 0 41.5 11t17.5 34t-17 35t-42 12q-24 0 -41 -13t-17 -34q0 -45 58 -45zM1095 -21q-305 0 -305 212q0 101 76.5 155.5
t228.5 54.5q309 0 309 -210q0 -100 -77.5 -156t-231.5 -56zM1095 144q62 0 62 47q0 21 -18 33t-44 12q-21 0 -39 -12.5t-18 -32.5q0 -24 17 -35.5t40 -11.5z" />
    <glyph glyph-name="ampersand" unicode="&#x26;" horiz-adv-x="1031" 
d="M971 177l-142 -177l-74 53q-118 -71 -314 -71q-190 0 -285.5 63t-95.5 184q0 142 162 246q-91 112 -91 207q0 105 81.5 179.5t240.5 74.5q80 0 143 -21.5t99.5 -57t55 -77t18.5 -85.5q0 -89 -44.5 -150.5t-124.5 -109.5l5 -3l82 -57q6 30 3 67h218q21 -118 -10 -214z
M443 723q-28 0 -41.5 -15t-13.5 -35q0 -39 38 -87q80 52 80 97q0 17 -16 28.5t-47 11.5zM454 202q45 0 81 10l-113 81q-30 22 -45 34q-57 -32 -56 -67q0 -26 34.5 -42t98.5 -16z" />
    <glyph glyph-name="quotesingle" unicode="'" horiz-adv-x="352" 
d="M60 636l1 333h231l-56 -333h-176z" />
    <glyph glyph-name="parenleft" unicode="(" horiz-adv-x="727" 
d="M583 -274q-119 40 -207.5 138t-132 223t-43.5 259q0 97 23.5 192t71 185.5t129 166.5t189.5 124l54 -128l-11 -38q-120 -80 -179.5 -219t-59.5 -283q0 -153 56.5 -277.5t152.5 -171.5l7 -40z" />
    <glyph glyph-name="parenright" unicode=")" horiz-adv-x="767" 
d="M-16 -274l-50 131l7 40q96 47 152.5 171.5t56.5 277.5q0 144 -59.5 283t-179.5 219l-11 38l54 128q108 -48 189.5 -124t129 -166.5t71 -185.5t23.5 -192q0 -134 -43.5 -259t-132 -223t-207.5 -138z" />
    <glyph glyph-name="asterisk" unicode="*" horiz-adv-x="649" 
d="M589 724l-134 -34l109 -101l-167 -131l-72 139l-72 -139l-168 131l109 101l-134 34l66 188l111 -64l-23 132h217l-22 -132l112 64z" />
    <glyph glyph-name="plus" unicode="+" horiz-adv-x="722" 
d="M662 554v-214h-191v-234h-220v234h-191v214h191v233h220v-233h191z" />
    <glyph glyph-name="comma" unicode="," horiz-adv-x="413" 
d="M40 -195l36 380h217l-56 -380h-197z" />
    <glyph glyph-name="hyphen" unicode="-" horiz-adv-x="928" 
d="M180 272v200h568v-200h-568z" />
    <glyph glyph-name="period" unicode="." horiz-adv-x="517" 
d="M259 0q-56 0 -97.5 41.5t-41.5 96.5q0 54 42 95.5t97 41.5q54 0 96 -42t42 -95q0 -55 -42 -96.5t-96 -41.5z" />
    <glyph glyph-name="slash" unicode="/" horiz-adv-x="1002" 
d="M-20 -133l794 1150h248l-794 -1150h-248z" />
    <glyph glyph-name="zero" unicode="0" horiz-adv-x="859" 
d="M430 -18q-166 0 -268 133.5t-102 343.5q0 224 102.5 350.5t267.5 126.5q166 0 267.5 -125.5t101.5 -351.5q0 -208 -103 -342.5t-266 -134.5zM430 196q50 0 78.5 75t28.5 188q0 119 -28.5 191t-78.5 72q-49 0 -77.5 -74t-28.5 -189t28.5 -189t77.5 -74z" />
    <glyph glyph-name="one" unicode="1" horiz-adv-x="575" 
d="M521 179q10 -89 0 -179h-465q-12 92 0 179l106 24v454l-97 -22q-16 80 -11 181l219 74h151v-688z" />
    <glyph glyph-name="two" unicode="2" horiz-adv-x="806" 
d="M77 0v206q31 53 82 103t99.5 85.5t94 72.5t73 80t27.5 91q0 36 -20 59.5t-64 23.5q-61 0 -117 -30.5t-83 -70.5q-66 57 -109 155q46 71 141.5 116t207.5 45q148 0 232 -81.5t84 -209.5q0 -76 -27.5 -142t-81.5 -120.5t-104 -91t-124 -81.5h347q23 -105 0 -210h-658z" />
    <glyph glyph-name="three" unicode="3" horiz-adv-x="807" 
d="M601 487q146 -85 146 -214q0 -130 -93 -210.5t-271 -80.5q-87 0 -191.5 39.5t-131.5 82.5q9 83 97 189q27 -32 84.5 -64t115.5 -32q61 0 93.5 21.5t32.5 54.5q0 43 -78 74.5t-189 20.5q-29 120 0 224q125 -2 183.5 18.5t58.5 54.5q0 20 -21 36.5t-68 16.5
q-73 0 -139.5 -22.5t-85.5 -39.5q-53 61 -75 175q29 38 118 69.5t206 31.5q152 0 239 -71t87 -181q0 -118 -118 -193z" />
    <glyph glyph-name="four" unicode="4" horiz-adv-x="824" 
d="M753 367q21 -98 0 -210h-47v-157h-262v157h-384v206l434 527h212v-523h47zM339 367h119l9 176z" />
    <glyph glyph-name="five" unicode="5" horiz-adv-x="804" 
d="M446 643q142 0 220 -93t78 -239q0 -136 -94.5 -232.5t-251.5 -96.5q-111 0 -198.5 42t-139.5 100q5 53 29 106.5t58 90.5q115 -122 210 -122q52 0 83.5 32.5t31.5 81.5q0 55 -42.5 92t-123.5 37q-91 0 -204 -37l41 485h540q15 -113 -16 -210h-279l-6 -41q29 4 64 4z" />
    <glyph glyph-name="six" unicode="6" horiz-adv-x="879" 
d="M511 592q127 0 217.5 -77.5t90.5 -207.5q0 -147 -104 -236t-292 -89q-160 0 -261.5 101.5t-101.5 272.5q0 83 21.5 157t71.5 151t144.5 148.5t229.5 129.5q50 -35 83.5 -87.5t39.5 -101.5q-4 -2 -23.5 -13t-25 -14.5t-23.5 -14t-25.5 -15.5t-23.5 -15.5t-24.5 -17
t-22.5 -17.5t-23.5 -20t-20.5 -20.5t-20 -22.5q48 9 93 9zM427 196q55 0 87.5 30.5t32.5 74.5q0 36 -28 58t-84 22q-55 0 -100 -12q-2 -32 -2 -52q0 -46 23 -83.5t71 -37.5z" />
    <glyph glyph-name="seven" unicode="7" horiz-adv-x="687" 
d="M13 890h634v-243q-76 -39 -128 -145t-73.5 -230t-26.5 -272h-278q8 229 68.5 395.5t190.5 284.5h-387q-29 90 0 210z" />
    <glyph glyph-name="eight" unicode="8" horiz-adv-x="871" 
d="M688 495q123 -80 123 -204q0 -65 -20.5 -119t-63.5 -97.5t-118 -68t-176 -24.5q-191 0 -282 86t-91 223q0 128 120 206q-98 77 -98 182q0 109 90 183t261 74q173 0 264.5 -74t91.5 -183q0 -105 -101 -184zM433 724q-52 0 -75 -20t-23 -48q0 -50 102 -76q59 14 77.5 33
t18.5 43q0 68 -100 68zM540 301q1 39 -22.5 66t-83.5 43q-102 -29 -102 -109q0 -40 27 -72.5t74 -32.5q50 0 78.5 32.5t28.5 72.5z" />
    <glyph glyph-name="nine" unicode="9" horiz-adv-x="851" 
d="M425 936q164 0 265 -100.5t101 -269.5q0 -65 -12 -123t-44 -122t-83 -120t-135 -112t-195 -102q-50 35 -83 87.5t-39 101.5q99 49 167 91.5t120 101.5q-83 -39 -157 -39q-113 0 -193.5 77.5t-80.5 207.5q0 143 98 232t271 89zM318 624q0 -85 105 -85q62 0 122 16v27
q0 29 -10.5 59t-39.5 55.5t-72 25.5q-55 0 -80 -29.5t-25 -68.5z" />
    <glyph glyph-name="colon" unicode=":" horiz-adv-x="517" 
d="M259 462q-56 0 -97.5 41.5t-41.5 96.5q0 54 42 95.5t97 41.5q54 0 96 -42t42 -95q0 -55 -42 -96.5t-96 -41.5zM259 0q-56 0 -97.5 41.5t-41.5 96.5q0 54 42 95.5t97 41.5q54 0 96 -42t42 -95q0 -55 -42 -96.5t-96 -41.5z" />
    <glyph glyph-name="semicolon" unicode=";" horiz-adv-x="442" 
d="M184 462q-56 0 -97.5 41.5t-41.5 96.5q0 54 42 95.5t97 41.5q54 0 96 -42t42 -95q0 -55 -42 -96.5t-96 -41.5zM40 -195l36 380h217l-56 -380h-197z" />
    <glyph glyph-name="less" unicode="&#x3c;" horiz-adv-x="678" 
d="M344 441l274 -203l-84 -180l-474 307v154l480 302l77 -185z" />
    <glyph glyph-name="equal" unicode="=" horiz-adv-x="720" 
d="M60 494v214h600v-214h-600zM60 183v214h600v-214h-600z" />
    <glyph glyph-name="greater" unicode="&#x3e;" horiz-adv-x="678" 
d="M138 821l480 -302v-154l-474 -307l-84 180l274 203l-273 195z" />
    <glyph glyph-name="question" unicode="?" horiz-adv-x="907" 
d="M364 296q-22 85 -12 134t41.5 84t65.5 54t60.5 43.5t26.5 52.5q0 22 -23.5 42t-81.5 20q-33 0 -60.5 -4t-56.5 -17t-39.5 -18t-43 -26.5t-33.5 -21.5l-148 141q77 70 182 113t209 43q174 0 270 -72t96 -181q0 -50 -19 -90.5t-49 -66t-65.5 -47.5t-69.5 -40t-61 -37.5
t-40 -46t-6 -59.5h-143zM442 0q-48 0 -86 37t-38 85q0 47 38 85t86 38t84.5 -37.5t36.5 -85.5t-36.5 -85t-84.5 -37z" />
    <glyph glyph-name="at" unicode="@" horiz-adv-x="1220" 
d="M590 -264q-235 0 -382.5 150.5t-147.5 402.5q0 245 155.5 404.5t404.5 159.5q122 0 225 -40t171 -108t106 -157.5t38 -187.5q0 -145 -71.5 -233.5t-206.5 -88.5q-101 0 -150 56q-50 -56 -132 -56q-112 0 -168 73.5t-56 187.5q0 113 56 185.5t168 72.5q59 0 99 -28l3 13
h151v-200q0 -27 0.5 -39t4 -26.5t11 -19.5t20.5 -5q16 0 26 8.5t14 27t4.5 30t0.5 33.5v5v4q0 52 -8.5 94t-30.5 81t-57 66t-90.5 42.5t-127.5 15.5q-84 0 -149.5 -31t-105.5 -84t-60.5 -118t-20.5 -137q0 -149 80.5 -252t221.5 -103q98 0 194 64l118 -156
q-139 -106 -308 -106zM644 229q23 0 42 22v95q-18 20 -42 20q-22 0 -33 -20.5t-11 -46.5q0 -70 44 -70z" />
    <glyph glyph-name="A" unicode="A" horiz-adv-x="942" 
d="M570 910q17 -41 102 -267t159 -404.5t101 -200.5l-16 -38q-201 -7 -278 29q-19 19 -55 134h-254l-41 -163h-278l317 910q46 18 124 17t119 -17zM383 373h139q-46 167 -73 263z" />
    <glyph glyph-name="B" unicode="B" horiz-adv-x="810" 
d="M790 328q1 -160 -100.5 -253t-290.5 -94q-129 0 -202 9t-157 36v864q141 46 319 46q104 0 179 -20t115 -55.5t58 -76.5t18 -90q0 -75 -81 -131q141 -74 142 -235zM370 736q-26 0 -68 -4v-127q59 6 121 6q54 14 54 56q0 28 -25.5 48.5t-81.5 20.5zM381 191q85 0 126 31.5
t41 86.5q0 92 -145 92q-48 0 -101 -8v-198q48 -4 79 -4z" />
    <glyph glyph-name="C" unicode="C" horiz-adv-x="892" 
d="M496 -27q-99 0 -185.5 33.5t-151 94.5t-102 153.5t-37.5 204.5q0 132 60.5 241t168.5 172.5t242 63.5q184 0 278.5 -97t80.5 -269q-64 -13 -132.5 -19t-131.5 3q12 70 -13.5 116t-79.5 46q-82 0 -141.5 -80t-59.5 -194q0 -105 51.5 -176.5t152.5 -72.5q118 0 224 72
q52 -21 84 -74.5t37 -101.5q-74 -57 -169 -86.5t-176 -29.5z" />
    <glyph glyph-name="D" unicode="D" horiz-adv-x="848" 
d="M347 936q232 0 356.5 -127t124.5 -340q0 -227 -121.5 -357.5t-344.5 -130.5q-102 0 -173 9t-149 36v864q139 46 307 46zM363 191q193 0 193 271q0 124 -55.5 194t-157.5 70q-28 0 -41 -1v-531q28 -3 61 -3z" />
    <glyph glyph-name="E" unicode="E" horiz-adv-x="756" 
d="M713 210q22 -27 23 -98t-23 -112h-673v885l25 25h631q14 -47 -2 -113t-40 -97h-352v-146h339q12 -49 -3.5 -118.5t-39.5 -91.5h-296v-134h411z" />
    <glyph glyph-name="F" unicode="F" horiz-adv-x="732" 
d="M302 514h361q13 -50 -2.5 -119t-40.5 -91h-318v-304h-262v887l24 23h642q14 -48 -1 -115t-40 -95h-363v-186z" />
    <glyph glyph-name="G" unicode="G" horiz-adv-x="867" 
d="M465 716q-84 0 -128.5 -73.5t-44.5 -195.5q0 -108 46 -176.5t137 -68.5q53 0 99 10v87h-175q-12 49 3 118.5t37 91.5h359l28 -31v-389q-57 -51 -156.5 -79t-194.5 -28q-197 0 -326 129t-129 348q0 95 30.5 181t85.5 152t139 105t185 39q163 0 267.5 -96t99.5 -235
q-55 -13 -126 -20t-126 3q-12 65 -42.5 96.5t-67.5 31.5z" />
    <glyph glyph-name="H" unicode="H" horiz-adv-x="806" 
d="M504 910q52 16 137 13.5t125 -13.5v-910h-262v312h-202v-312h-262v910q48 17 136.5 14t125.5 -14v-388h202v388z" />
    <glyph glyph-name="I" unicode="I" horiz-adv-x="322" 
d="M40 0v911q46 17 125.5 14t116.5 -14v-911h-242z" />
    <glyph glyph-name="J" unicode="J" horiz-adv-x="803" 
d="M378 -18q-211 0 -358 169q18 62 58.5 113t83.5 65q38 -63 87.5 -95t100.5 -32q151 0 151 204v504q58 13 143.5 12t118.5 -12v-539q0 -102 -43.5 -189t-133 -143.5t-208.5 -56.5z" />
    <glyph glyph-name="K" unicode="K" horiz-adv-x="926" 
d="M569 447q72 -96 100 -132.5t95 -111t142 -141.5l-2 -39q-37 -13 -115.5 -27t-147.5 -14q-65 49 -276 334q-10 -5 -63 -32v-284h-262v910q49 17 137 14t125 -14v-384q60 34 107 69q192 143 180 300q37 25 109.5 29t134.5 -10q25 -95 -33.5 -218t-191.5 -221
q-22 -15 -39 -28z" />
    <glyph glyph-name="L" unicode="L" horiz-adv-x="746" 
d="M86 0l-46 47v863q50 17 134.5 14.5t127.5 -14.5v-700h399q24 -28 25 -98.5t-25 -111.5h-615z" />
    <glyph glyph-name="M" unicode="M" horiz-adv-x="1067" 
d="M1047 0h-263l-36 397l-138 -287h-160l-137 284l-30 -394h-263l83 868q27 27 108 40.5t112 1.5l209 -479l208 479q32 12 111 -1t108 -40z" />
    <glyph glyph-name="N" unicode="N" horiz-adv-x="893" 
d="M591 910q45 16 135 13.5t127 -13.5v-910h-182l-369 449v-449h-262v864q23 29 87.5 48t94.5 8l369 -467v457z" />
    <glyph glyph-name="O" unicode="O" horiz-adv-x="897" 
d="M415 -18q-172 0 -284 125.5t-111 305.5q1 143 58 262t165 190t244 71q165 0 276 -128.5t114 -310.5q2 -135 -54.5 -252.5t-164.5 -190t-243 -72.5zM426 202q82 0 130.5 96t48.5 217q0 94 -35.5 147t-103.5 53q-81 0 -127.5 -89t-46.5 -218q0 -90 33.5 -148t100.5 -58z
" />
    <glyph glyph-name="P" unicode="P" horiz-adv-x="809" 
d="M395 936q100 0 177 -29.5t123.5 -82t70 -120t23.5 -148.5q0 -159 -105 -262t-295 -103q-42 0 -87 5v-196h-262v890q155 46 355 46zM517 562q3 164 -140 164q-29 0 -75 -4v-316q35 -5 73 -5q69 0 105 41.5t37 119.5z" />
    <glyph glyph-name="Q" unicode="Q" horiz-adv-x="897" 
d="M580 0q87 0 228 68q29 -36 40.5 -95.5t-3.5 -116.5q-107 -26 -197 -27q-259 -5 -337 167q-131 36 -211.5 151.5t-79.5 265.5q1 143 58 262t165 190t244 71q165 0 276 -128.5t114 -310.5q2 -170 -87 -308t-239 -186q12 -3 29 -3zM466 715q-81 0 -127.5 -89t-46.5 -218
q0 -90 33.5 -148t100.5 -58q82 0 130.5 96t48.5 217q0 94 -35.5 147t-103.5 53z" />
    <glyph glyph-name="R" unicode="R" horiz-adv-x="907" 
d="M609 317q112 -143 248 -264l-3 -42q-32 -11 -116 -21.5t-155 -9.5q-36 23 -253 289l-28 3v-272h-262v890q191 46 358 46q189 0 291.5 -86t102.5 -238q1 -101 -47.5 -176.5t-135.5 -118.5zM520 614q0 49 -37.5 80.5t-112.5 31.5q-35 0 -68 -3v-241q42 -5 81 -5
q64 0 100.5 36t36.5 101z" />
    <glyph glyph-name="S" unicode="S" horiz-adv-x="841" 
d="M446 -18q-118 0 -230 37.5t-196 104.5q7 47 48 114t90 78q141 -124 294 -124q46 0 71.5 27.5t25.5 59.5q0 39 -26.5 63t-97.5 28q-164 5 -258.5 77t-92.5 203q2 128 103 207t260 79q92 0 165 -26.5t117 -70.5t66.5 -96.5t22.5 -109.5q-51 -14 -121.5 -20.5t-123.5 4.5
q-8 50 -36 79.5t-93 29.5q-42 0 -65.5 -21t-23.5 -50q-1 -35 33.5 -54.5t83.5 -22.5q183 -10 271 -84t88 -200q0 -96 -52.5 -168.5t-136.5 -108t-186 -35.5z" />
    <glyph glyph-name="T" unicode="T" horiz-adv-x="877" 
d="M853 910q10 -46 -4 -114.5t-39 -95.5h-227v-700h-272v700h-285q-11 45 -4 108t28 102h803z" />
    <glyph glyph-name="U" unicode="U" horiz-adv-x="890" 
d="M440 -27q-203 0 -301.5 112t-98.5 320v505q44 15 136 12.5t126 -12.5v-516q0 -92 33 -146.5t105 -54.5q148 0 148 213v504q46 16 136 13t126 -13v-505q0 -200 -105 -316t-305 -116z" />
    <glyph glyph-name="V" unicode="V" horiz-adv-x="901" 
d="M340 0l-69 43q-53 155 -115 357t-100 327.5t-46 142.5l11 40q57 10 126 10.5t124 -10.5q15 -33 34 -93t37.5 -124.5t59 -206.5t77.5 -268h7q60 98 95 198t43 186.5t2.5 156.5t-23.5 133q38 22 108 27t140 -9q31 -71 38 -167t-11 -208t-73.5 -240.5t-142.5 -247.5l-83 -47
h-239z" />
    <glyph glyph-name="W" unicode="W" horiz-adv-x="1284" 
d="M298 0l-62 31q-43 154 -94 351t-83 319.5t-49 167.5l14 41q49 12 119.5 12.5t127.5 -12.5q19 -47 42.5 -141t40 -171.5t43 -208.5t35.5 -171h4q27 65 65.5 189.5t49.5 186.5q-9 64 -24 121q23 37 102 70.5t145 26.5q23 -50 68 -246.5t67 -347.5h8q56 97 78.5 236.5
t16.5 250.5t-27 186q40 25 109.5 29t132.5 -10q20 -39 33 -108t13.5 -162.5t-14 -192t-55 -206t-103.5 -195.5l-77 -46h-267l-45 26q-8 40 -22.5 121t-15.5 86q-33 -153 -53 -202l-60 -31h-263z" />
    <glyph glyph-name="X" unicode="X" horiz-adv-x="900" 
d="M642 413q159 -261 248 -385l-8 -28h-282q-25 23 -57.5 75.5t-70.5 124.5t-52 95q-148 -128 -148 -295h-262q0 112 36 204t94.5 156.5t147.5 127.5h5q-182 277 -264 381l14 41q52 15 140.5 15.5t138.5 -15.5q64 -60 192 -300q67 73 87.5 136t13.5 144q38 25 110.5 29.5
t137.5 -9.5q12 -47 17 -78.5t-0.5 -84.5t-28.5 -99.5t-75.5 -108.5t-133.5 -126z" />
    <glyph glyph-name="Y" unicode="Y" horiz-adv-x="875" 
d="M850 910q59 -296 -243 -585v-325h-262v349q-209 363 -330 519l17 42q59 12 137 13t137 -13q40 -38 104.5 -151t102.5 -201q54 69 71 177.5t8 154.5q85 53 258 20z" />
    <glyph glyph-name="Z" unicode="Z" horiz-adv-x="824" 
d="M780 210q23 -27 24 -98.5t-24 -111.5h-713q-22 20 -36.5 80t-8.5 100q86 143 194.5 289.5t209.5 230.5h-382q-23 27 -24 98.5t24 111.5h706q22 -17 37.5 -89t9.5 -117q-104 -73 -235.5 -226t-202.5 -268h421z" />
    <glyph glyph-name="bracketleft" unicode="[" horiz-adv-x="516" 
d="M60 -264v1281h396v-194h-199v-895h199v-192h-396z" />
    <glyph glyph-name="backslash" unicode="\" horiz-adv-x="1002" 
d="M1022 -133h-248l-794 1150h248z" />
    <glyph glyph-name="bracketright" unicode="]" horiz-adv-x="516" 
d="M456 -264h-396v192h199v895h-199v194h396v-1281z" />
    <glyph glyph-name="asciicircum" unicode="^" horiz-adv-x="947" 
d="M807 515h-267l-70 100l-70 -100h-260l285 375h102z" />
    <glyph glyph-name="underscore" unicode="_" horiz-adv-x="615" 
d="M60 -184v184h495v-184h-495z" />
    <glyph glyph-name="grave" unicode="`" horiz-adv-x="484" 
d="M281 788l-241 252h246l158 -252h-163z" />
    <glyph glyph-name="a" unicode="a" horiz-adv-x="737" 
d="M686 312q1 -95 6 -156t10 -80.5t15 -50.5l-3 -25h-218q-19 15 -31 48q-36 -29 -76.5 -44.5t-68.5 -18.5t-69 -3q-87 0 -149.5 53t-61.5 133q1 107 104.5 188t246.5 97l28 3q-21 51 -70 50q-68 -2 -184 -65q-74 26 -92 167q163 108 307 110q138 2 220.5 -83t84.5 -240z
M424 287l3 11q-10 0 -26 -2q-47 -6 -81 -29.5t-34 -48.5q0 -17 10 -28t25 -11q39 0 65.5 33.5t37.5 74.5z" />
    <glyph glyph-name="b" unicode="b" horiz-adv-x="779" 
d="M453 718q146 0 226 -91.5t80 -249.5q0 -169 -87.5 -282t-227.5 -113q-98 0 -165 58q-9 -24 -19 -40h-220v28q14 68 14 175v733q43 14 131.5 14t126.5 -14v-260q62 42 141 42zM390 200q48 0 76.5 50.5t28.5 135.5q0 52 -18 85t-50 33q-53 0 -84 -74t-31 -169
q0 -17 25.5 -39t52.5 -22z" />
    <glyph glyph-name="c" unicode="c" horiz-adv-x="707" 
d="M366 -18q-147 -2 -246.5 95t-99.5 268q0 155 107 264t264 109q147 0 228.5 -90.5t64.5 -232.5q-164 -41 -248 -18q8 64 -8.5 95.5t-50.5 31.5q-40 0 -67 -45.5t-27 -117.5q0 -61 27 -102t74 -42q65 -2 160 77q47 -15 79.5 -56t42.5 -74l9 -33q-143 -126 -309 -129z" />
    <glyph glyph-name="d" unicode="d" horiz-adv-x="779" 
d="M725 203q0 -107 14 -175v-28h-220q-11 19 -21 45q-73 -63 -183 -63q-129 0 -212 101.5t-83 239.5q0 178 88.5 286.5t247.5 108.5q59 0 111 -30v248q38 14 126.5 14t131.5 -14v-733zM376 200q38 0 64.5 69t26.5 196q0 17 -23 28t-47 11q-49 0 -80.5 -39t-31.5 -112
q0 -70 25 -111.5t66 -41.5z" />
    <glyph glyph-name="e" unicode="e" horiz-adv-x="730" 
d="M705 371l-31 -44l-385 -93q37 -39 106 -37q86 3 175 72q36 -16 63.5 -55t36.5 -70l9 -31q-141 -131 -310 -131q-146 -1 -247.5 94.5t-101.5 254.5q0 167 102 277t266 110q160 0 250.5 -95t66.5 -252zM463 453q5 20 -15.5 42.5t-59.5 22.5q-46 0 -81 -31.5t-48 -85.5z" />
    <glyph glyph-name="f" unicode="f" horiz-adv-x="474" 
d="M403 757q-45 -1 -55 -57h135v-210h-139v-490h-258v490h-96v210h99q12 136 75.5 203t189.5 68q72 0 161 -19q10 -35 -5 -108.5t-38 -97.5q-40 11 -69 11z" />
    <glyph glyph-name="g" unicode="g" horiz-adv-x="783" 
d="M518 718q16 2 31.5 3t31 0.5t27 -0.5t27 -2t23.5 -3t23.5 -4t20.5 -3.5t21.5 -4t19.5 -4.5v-32q-14 -79 -14 -190v-388q0 -180 -97.5 -284t-246.5 -106q-171 -2 -335 112q10 60 36.5 112.5t64.5 75.5q134 -89 217 -86q45 2 76.5 32t41.5 84q-62 -48 -136 -48
q-146 0 -238 92.5t-92 248.5q0 181 92.5 287.5t243.5 106.5q73 0 150 -45zM376 200q42 0 66.5 68t24.5 202q0 12 -24.5 23t-45.5 11q-55 0 -83.5 -43t-28.5 -113q0 -65 24.5 -106.5t66.5 -41.5z" />
    <glyph glyph-name="h" unicode="h" horiz-adv-x="759" 
d="M463 718q131 0 198.5 -88t67.5 -252v-378h-258v345q0 145 -65 145q-43 0 -75.5 -57t-32.5 -148v-285h-258v936q44 13 131 13t127 -13v-250q65 32 165 32z" />
    <glyph glyph-name="i" unicode="i" horiz-adv-x="348" 
d="M174 763q-56 0 -97.5 41.5t-41.5 96.5q0 54 42 95.5t97 41.5q54 0 96 -42t42 -95q0 -55 -42 -96.5t-96 -41.5zM45 0v700q41 12 131.5 12.5t126.5 -12.5v-700h-258z" />
    <glyph glyph-name="j" unicode="j" horiz-adv-x="365" 
d="M189 763q-56 0 -97.5 41.5t-41.5 96.5q0 54 42 95.5t97 41.5q54 0 96 -42t42 -95q0 -55 -42 -96.5t-96 -41.5zM80 -272q-53 2 -104 19q-14 45 3 116t46 106q12 -6 18 -6q13 0 16 25.5t3 102.5v609q42 13 132.5 12.5t125.5 -12.5v-724q0 -111 -68.5 -180.5t-171.5 -67.5z
" />
    <glyph glyph-name="k" unicode="k" horiz-adv-x="841" 
d="M569 348q16 -20 42 -51t37.5 -45t30.5 -37t27.5 -32.5t22.5 -26t21 -24t18 -18.5t18.5 -17.5t16.5 -13.5l18 -14v-41q-38 -14 -126 -25.5t-166 -10.5q-5 3 -11.5 8t-14.5 13.5t-15 16t-18 21.5t-18.5 24t-21.5 28t-22.5 29.5t-24.5 33.5t-26 35q-31 -17 -59 -30v-171
h-258v936q51 17 131.5 16.5t126.5 -16.5v-505l11 8q84 62 134 120t47 120q104 48 275 21q24 -80 -30 -174t-166 -178z" />
    <glyph glyph-name="l" unicode="l" horiz-adv-x="414" 
d="M267 -18q-99 0 -153 56t-54 171v727q43 15 125.5 15.5t132.5 -15.5v-643q0 -101 33 -101q7 0 23 4q17 -38 20 -93.5t-10 -96.5q-72 -24 -117 -24z" />
    <glyph glyph-name="m" unicode="m" horiz-adv-x="1078" 
d="M810 718q228 0 228 -340v-378h-258v345q0 159 -40 159q-30 0 -50 -49.5t-20 -148.5l1 -306h-249v345q0 159 -42 159q-30 0 -49.5 -49.5t-19.5 -148.5v-306h-258v489q0 89 -13 176v35q31 6 39.5 7.5t39 6.5t50 6t50 1t60.5 -3q7 -38 8 -48q73 48 149 48q116 0 175 -84
q87 84 199 84z" />
    <glyph glyph-name="n" unicode="n" horiz-adv-x="780" 
d="M474 718q141 0 203.5 -85.5t62.5 -254.5v-378h-258v345q0 159 -64 159q-41 0 -74 -58.5t-33 -139.5v-306h-258v489q0 89 -13 176v35q31 6 39.5 7.5t39.5 6.5t50 6t50 1t61 -3q5 -18 8 -51q81 51 186 51z" />
    <glyph glyph-name="o" unicode="o" horiz-adv-x="768" 
d="M359 -18q-158 0 -248.5 98t-90.5 252q0 161 113 273.5t277 112.5q159 0 246 -90t92 -243q5 -182 -105.5 -292.5t-283.5 -110.5zM374 197q45 0 77.5 50.5t32.5 110.5q0 61 -24 103.5t-67 42.5q-44 0 -76.5 -51t-32.5 -122q0 -59 23.5 -96.5t66.5 -37.5z" />
    <glyph glyph-name="p" unicode="p" horiz-adv-x="784" 
d="M471 718q133 0 213 -93.5t80 -232.5q0 -184 -88.5 -297t-228.5 -113q-75 0 -132 38v-284q-33 -13 -124 -13t-134 13v740q0 104 -17 191v33q40 11 65.5 16t73.5 8.5t89 -6.5l20 -63q81 63 183 63zM395 200q48 0 76.5 52t28.5 134q0 55 -20 86.5t-48 31.5q-47 0 -83 -64
t-36 -179q0 -14 26 -37.5t56 -23.5z" />
    <glyph glyph-name="q" unicode="q" horiz-adv-x="794" 
d="M517 718q110 17 237 -18v-36q-23 -69 -23 -166v-762q-42 -12 -132.5 -12t-125.5 12v292q-71 -46 -148 -46q-137 0 -221 101t-84 240q0 182 93 288t225 106q88 0 162 -48zM376 200q43 0 67 73t24 192q0 16 -22 27.5t-48 11.5q-57 0 -86.5 -47t-25.5 -119q1 -63 26 -100.5
t65 -37.5z" />
    <glyph glyph-name="r" unicode="r" horiz-adv-x="559" 
d="M534 691q15 -41 -11.5 -112.5t-61.5 -109.5q-33 16 -62 16q-86 -3 -86 -184v-301h-260v489q0 89 -13 176v35q133 28 229 18q9 -48 10 -72q59 72 136 72q59 0 119 -27z" />
    <glyph glyph-name="s" unicode="s" horiz-adv-x="747" 
d="M388 -18q-227 0 -358 103q15 48 43.5 101t67.5 79q101 -68 206 -68q47 0 76.5 10.5t29.5 27.5q0 8 -5.5 12.5t-19 7.5t-25 4t-36 3t-39.5 3q-125 13 -196.5 59t-71.5 144q0 100 88 175t225 75q191 0 337 -81q-6 -53 -29 -111t-40 -88q-127 66 -233 66q-40 0 -62.5 -8.5
t-22.5 -21.5q0 -12 16.5 -16t65.5 -6q164 -7 238 -61t74 -156q0 -108 -91 -180.5t-238 -72.5z" />
    <glyph glyph-name="t" unicode="t" horiz-adv-x="558" 
d="M478 215q23 -25 34.5 -98t-1.5 -111q-72 -24 -137 -24q-129 -2 -201.5 83t-72.5 264v161h-80v210h80v175q42 23 117.5 36t140.5 -1v-210h141v-210h-141v-143q0 -77 12 -112t47 -35q25 0 61 15z" />
    <glyph glyph-name="u" unicode="u" horiz-adv-x="779" 
d="M719 294q0 -174 30 -266l-2 -28h-219q-25 20 -35 51q-80 -69 -181 -69q-121 0 -196.5 79.5t-75.5 244.5v394q59 12 130 11t128 -11v-349q0 -85 15 -119.5t56 -34.5q92 0 92 248v255q49 12 140.5 9t117.5 -9v-406z" />
    <glyph glyph-name="v" unicode="v" horiz-adv-x="783" 
d="M249 0l-39 29q-80 324 -200 631l17 40q57 11 123.5 12.5t122.5 -12.5q11 -20 23.5 -55t28 -88t28 -98.5t32.5 -122t33 -122.5h24q85 221 70 467q78 53 254 19q22 -148 -21.5 -336.5t-154.5 -340.5l-43 -23h-298z" />
    <glyph glyph-name="w" unicode="w" horiz-adv-x="1091" 
d="M213 0l-40 27q-26 106 -64.5 252t-65 247.5t-33.5 135.5l18 38q54 11 124 12.5t125 -12.5q47 -147 95 -466h11q30 123 59 284l-16 51q22 41 94.5 73.5t143.5 24.5q66 -186 109 -433h15q21 135 26 218.5t-6 228.5q50 27 111.5 31.5t151.5 -12.5q24 -129 -11 -322.5
t-127 -356.5l-41 -21h-247l-40 29q-15 47 -42 113q-29 -80 -50 -123l-32 -19h-268z" />
    <glyph glyph-name="x" unicode="x" horiz-adv-x="834" 
d="M814 0h-318q-20 29 -74.5 105.5t-62.5 87.5q-93 -89 -73 -193h-253q-45 161 171 359q2 3 3.5 4t3.5 3l4 4q-129 183 -195 289l14 41q49 11 140 10t136 -16q49 -100 126 -222q86 86 75 218q99 40 253 10q13 -40 9 -92t-20.5 -103t-56 -107t-98.5 -105q49 -62 213 -249z
" />
    <glyph glyph-name="y" unicode="y" horiz-adv-x="803" 
d="M772 700q19 -65 21 -150.5t-17 -183t-56 -192t-101 -185t-146 -156.5q-129 -103 -314 -105q-60 -2 -94 17q-37 96 -3 183l42 26q28 -12 57 -12q73 -1 162 86q-62 46 -111.5 100.5t-81 102.5t-55 106.5t-35 98.5t-19 93t-9 75.5t-2.5 58.5l12 37q53 13 118.5 13.5
t115.5 -13.5q0 -1 2 -37.5t5 -56.5t10.5 -62.5t22 -76.5t36.5 -78.5t56.5 -88t79.5 -85.5q33 65 48.5 140.5t14.5 152.5t-5 170q75 54 246 22z" />
    <glyph glyph-name="z" unicode="z" horiz-adv-x="747" 
d="M702 214q24 -17 25 -94t-25 -120h-626q-26 20 -42.5 81.5t-13.5 108.5q50 69 76 102t80 87.5t122 106.5h-232q-24 28 -25 99t25 115h589q24 -20 40 -98.5t12 -128.5q-76 -25 -163 -91.5t-171 -167.5h329z" />
    <glyph glyph-name="braceleft" unicode="{" horiz-adv-x="529" 
d="M374 -9q12 -105 72 -159l-113 -115q-108 63 -147 179q-15 46 -19.5 105t-4.5 102t-5.5 82.5t-28.5 60t-68 19.5v213q43 -1 66 17.5t29.5 54.5t7 75.5t3.5 96t15 99.5q33 127 152 196l116 -108q-64 -55 -74 -171q-3 -29 -5 -93t-5.5 -102t-20.5 -87.5t-49 -84.5
q31 -43 48 -97t20.5 -93.5t5.5 -100t5 -89.5z" />
    <glyph glyph-name="bar" unicode="|" horiz-adv-x="317" 
d="M60 -231v1243h197v-1243h-197z" />
    <glyph glyph-name="braceright" unicode="}" horiz-adv-x="529" 
d="M348 821q12 -43 15 -99.5t3.5 -96t7 -75.5t29.5 -54.5t66 -17.5v-213q-45 1 -68 -19.5t-28.5 -60t-5.5 -82.5t-4.5 -102t-19.5 -105q-39 -116 -147 -179l-113 115q60 54 72 159q3 29 5 89.5t5.5 100t20.5 93.5t48 97q-32 35 -49 84.5t-20.5 87.5t-5.5 102t-5 93
q-10 116 -74 171l116 108q119 -69 152 -196z" />
    <glyph glyph-name="asciitilde" unicode="~" horiz-adv-x="762" 
d="M60 263q0 110 52.5 186t145.5 76q55 0 120.5 -24.5t75.5 -24.5q51 0 51 49h197q0 -109 -52 -185.5t-144 -76.5q-58 0 -123 24.5t-85 24.5q-19 0 -30 -13t-11 -36h-197z" />
    <glyph glyph-name="exclamdown" unicode="&#xa1;" horiz-adv-x="487" 
d="M243 555q-47 0 -85 38t-38 85q0 48 37.5 85t85.5 37q49 0 86.5 -37t37.5 -85t-37.5 -85.5t-86.5 -37.5zM126 -133l21 617h196l21 -617h-238z" />
    <glyph glyph-name="cent" unicode="&#xa2;" horiz-adv-x="917" 
d="M745 312l102 -165q-38 -25 -108.5 -52.5t-139.5 -40.5v-187h-176v187q-95 13 -167.5 53t-114 96t-61.5 119t-20 131q0 148 103 256.5t260 137.5v189h176v-184q158 -15 258 -109l-112 -173q-27 31 -82 51.5t-128 20.5q-88 0 -150.5 -56t-62.5 -133q0 -33 9.5 -64t31 -61.5
t63 -49t97.5 -18.5q86 0 222 52z" />
    <glyph glyph-name="sterling" unicode="&#xa3;" horiz-adv-x="926" 
d="M397 317q-5 -58 -26 -107h495v-210h-792v210h11q35 0 55.5 30t25.5 77h-106v210h84q-13 76 -13 119q0 114 93 179t254 65q125 0 216 -31t172 -87l-121 -172q-37 23 -60 35t-72 26.5t-100 14.5q-134 0 -134 -81q0 -28 5 -68h301v-210h-288z" />
    <glyph glyph-name="currency" unicode="&#xa4;" horiz-adv-x="611" 
d="M485 453q0 -32 -7 -57l73 -64l-135 -150l-91 74q-7 -1 -21 -1q-10 0 -26 2l-83 -75l-135 150l69 67q-5 28 -5 54q0 28 6 55l-70 60l135 150l85 -68q8 1 24 1q10 0 26 -2l86 69l135 -150l-71 -62q5 -27 5 -53zM346 453q0 20 -11 35.5t-31 15.5t-30 -16.5t-10 -34.5
q0 -24 10.5 -38.5t29.5 -14.5t30.5 17t11.5 36z" />
    <glyph glyph-name="yen" unicode="&#xa5;" horiz-adv-x="1132" 
d="M1072 889l-298 -383h124v-180h-206v-60h206v-180h-206v-86h-262v86h-218v180h218v60h-218v180h138l-290 383h330l175 -242l172 242h335z" />
    <glyph glyph-name="brokenbar" unicode="&#xa6;" horiz-adv-x="317" 
d="M60 481v531h197v-531h-197zM60 -231v534h197v-534h-197z" />
    <glyph glyph-name="section" unicode="&#xa7;" horiz-adv-x="714" 
d="M654 326q0 -113 -107 -172q50 -63 50 -149q0 -88 -78 -151t-207 -63q-38 0 -87.5 10.5t-82.5 26.5v214q30 -17 81 -28t89 -11q52 0 52 28q0 12 -31.5 33t-76 48.5t-89 61.5t-76 83t-31.5 101q0 46 29 92t78 82q-61 73 -61 168q0 103 77 169.5t207 66.5q100 0 171 -37
v-215q-31 18 -80 28.5t-91 10.5q-19 0 -28.5 -7.5t-9.5 -15.5q0 -18 22.5 -38.5t56 -39t72.5 -47t72.5 -60t56 -81.5t22.5 -108zM312 349q-2 -18 13.5 -33t48.5 -35q25 21 25 48q0 25 -61 66q-24 -22 -26 -46z" />
    <glyph glyph-name="dieresis" unicode="&#xa8;" horiz-adv-x="781" 
d="M179 763q-56 0 -97.5 41.5t-41.5 96.5q0 54 42 95.5t97 41.5q54 0 96 -42t42 -95q0 -55 -42 -96.5t-96 -41.5zM603 763q-56 0 -97.5 41.5t-41.5 96.5q0 54 42 95.5t97 41.5q54 0 96 -42t42 -95q0 -55 -42 -96.5t-96 -41.5z" />
    <glyph glyph-name="copyright" unicode="&#xa9;" horiz-adv-x="1133" 
d="M566 -18q-109 0 -204.5 38.5t-161 103t-103 150.5t-37.5 180q0 130 63.5 239.5t180 175t262.5 65.5t263 -65.5t180.5 -175t63.5 -239.5q0 -94 -37.5 -180t-103 -150.5t-161 -103t-205.5 -38.5zM566 146q138 0 230.5 85.5t92.5 219.5q0 142 -92.5 230.5t-230.5 88.5
t-230 -88.5t-92 -230.5q0 -134 92 -219.5t230 -85.5zM572 215q-103 0 -174.5 72t-71.5 178q0 105 70.5 168.5t175.5 63.5q48 0 99.5 -17.5t79.5 -44.5l-91 -157q-24 22 -64 22q-23 0 -37.5 -14t-14.5 -31q0 -16 16 -30.5t46 -14.5q32 0 59 18l102 -148q-26 -26 -81.5 -45.5
t-113.5 -19.5z" />
    <glyph glyph-name="ordfeminine" unicode="&#xaa;" horiz-adv-x="527" 
d="M322 1074h145v-404h-142v18q-46 -23 -95 -23q-71 0 -120.5 53t-49.5 145q0 96 51.5 152.5t124.5 56.5q45 0 86 -22v24zM264 792q33 0 60 35l-1 67q-23 37 -59 37q-55 0 -55 -68q0 -35 17 -53t38 -18z" />
    <glyph glyph-name="guillemotleft" unicode="&#xab;" horiz-adv-x="1148" 
d="M618 659l-306 -216l306 -205l-66 -172l-492 302v152l486 307zM1088 659l-306 -216l306 -205l-66 -172l-492 302v152l486 307z" />
    <glyph glyph-name="logicalnot" unicode="&#xac;" horiz-adv-x="722" 
d="M442 209v130h-382v214h602v-344h-220z" />
    <glyph glyph-name="uni00AD" unicode="&#xad;" horiz-adv-x="1098" 
d="M180 272v200h738v-200h-738z" />
    <glyph glyph-name="registered" unicode="&#xae;" horiz-adv-x="827" 
d="M414 936q142 0 247.5 -97.5t105.5 -240.5q0 -145 -105.5 -241.5t-247.5 -96.5q-158 0 -256 94t-98 244q0 145 103 241.5t251 96.5zM414 367q98 0 164.5 60t66.5 172q0 108 -66.5 169t-164.5 61q-99 0 -165.5 -63.5t-66.5 -166.5q0 -105 63.5 -168.5t168.5 -63.5zM576 651
q0 -70 -69 -105l56 -102h-131l-44 80v-80h-120v325h169q58 0 98.5 -33.5t40.5 -84.5zM388 679v-61h32q12 0 20.5 9t8.5 24q0 12 -8 20t-21 8h-32z" />
    <glyph glyph-name="macron" unicode="&#xaf;" horiz-adv-x="624" 
d="M40 788v210h544v-210h-544z" />
    <glyph glyph-name="degree" unicode="&#xb0;" horiz-adv-x="539" 
d="M270 522q-103 0 -156.5 55t-53.5 152q0 94 52.5 150.5t157.5 56.5q107 0 158 -55.5t51 -151.5q0 -94 -54.5 -150.5t-154.5 -56.5zM267 648q61 0 61 80q0 43 -14 62.5t-47 19.5q-63 0 -63 -82q0 -38 17 -59t46 -21z" />
    <glyph glyph-name="plusminus" unicode="&#xb1;" horiz-adv-x="722" 
d="M471 636h191v-214h-191v-173h-220v173h-191v214h191v213h220v-213zM60 -8v214h602v-214h-602z" />
    <glyph glyph-name="uni00B2" unicode="&#xb2;" horiz-adv-x="825" 
d="M765 817q0 -64 -21.5 -111t-64.5 -80t-85 -55t-106 -53t-105 -58h382v-200h-677v177q38 55 99 105t119 84t111 65t85.5 61t32.5 60q0 67 -124 67q-135 0 -232 -78l-119 134q51 61 150.5 99t224.5 38q151 0 240.5 -74.5t89.5 -180.5z" />
    <glyph glyph-name="uni00B3" unicode="&#xb3;" horiz-adv-x="829" 
d="M769 505q0 -47 -20 -90t-61.5 -79.5t-116.5 -58.5t-173 -22q-90 0 -179 31t-151 73l88 170q40 -23 61 -34t75.5 -25.5t114.5 -14.5q73 0 109.5 16.5t36.5 37.5q0 75 -337 75v177q317 0 317 63q0 22 -45 35.5t-118 13.5q-76 0 -139 -19.5t-87 -35.5l-84 161
q61 34 154.5 61t192.5 27q169 0 256 -64.5t87 -161.5q0 -103 -130 -163q82 -29 115 -72.5t34 -100.5z" />
    <glyph glyph-name="acute" unicode="&#xb4;" horiz-adv-x="423" 
d="M40 788l94 252h249l-211 -252h-132z" />
    <glyph glyph-name="uni00B5" unicode="&#xb5;" horiz-adv-x="779" 
d="M719 294q0 -174 30 -266l-2 -28h-219q-15 8 -25 23.5t-10 26.5v1q-71 -69 -161 -69q-33 0 -66 14v-260h-226v964q59 12 130 11t128 -11v-349q0 -85 15 -119.5t56 -34.5q92 0 92 248v255q49 12 140.5 9t117.5 -9v-406z" />
    <glyph glyph-name="paragraph" unicode="&#xb6;" horiz-adv-x="810" 
d="M198 -133v696q-67 1 -102.5 48.5t-35.5 118.5q0 67 36 113.5t102 46.5h552v-174h-127v-849h-190v849h-45v-849h-190z" />
    <glyph glyph-name="periodcentered" unicode="&#xb7;" horiz-adv-x="677" 
d="M339 266q-56 0 -97.5 41.5t-41.5 96.5q0 54 42 95.5t97 41.5q54 0 96 -42t42 -95q0 -55 -42 -96.5t-96 -41.5z" />
    <glyph glyph-name="cedilla" unicode="&#xb8;" horiz-adv-x="431" 
d="M210 -367q-95 -2 -170 82l127 125q9 -14 18 -14q13 0 13 14q0 10 -4 19t-14.5 24.5t-13.5 19.5l-11 16.5t-11.5 18.5t-9.5 17.5t-9.5 21.5t-5 22t-2.5 26h197q0 -22 7.5 -40t23.5 -41.5t22 -34.5q24 -44 24 -95q0 -72 -53.5 -126t-127.5 -55z" />
    <glyph glyph-name="uni00B9" unicode="&#xb9;" horiz-adv-x="657" 
d="M466 460h131v-200h-512v200h156v408l-140 -37l-41 166l267 70h139v-607z" />
    <glyph glyph-name="ordmasculine" unicode="&#xba;" horiz-adv-x="528" 
d="M265 665q-80 0 -142.5 53.5t-62.5 144.5q0 96 59.5 152.5t145.5 56.5q85 0 144 -56.5t59 -152.5q0 -91 -62 -144.5t-141 -53.5zM265 792q20 0 37 18t17 53q0 33 -15.5 50.5t-38.5 17.5q-24 0 -40 -17.5t-16 -50.5q0 -35 17.5 -53t38.5 -18z" />
    <glyph glyph-name="guillemotright" unicode="&#xbb;" horiz-adv-x="1148" 
d="M618 520v-152l-492 -302l-66 172l306 205l-306 216l72 168zM602 827l486 -307v-152l-492 -302l-66 172l306 205l-306 216z" />
    <glyph glyph-name="onequarter" unicode="&#xbc;" horiz-adv-x="1187" 
d="M60 445v200h67v185l-55 -29v213l119 53h146v-422h61v-200h-338zM918 1067h209l-828 -1200h-208zM1018 490v-360h58v-200h-58v-63h-190v63h-197v168l194 392h193zM870 130l9 166l-63 -166h54z" />
    <glyph glyph-name="onehalf" unicode="&#xbd;" horiz-adv-x="1200" 
d="M60 445v200h67v185l-55 -29v213l119 53h146v-422h61v-200h-338zM931 1067h209l-828 -1200h-208zM1052 329q0 -44 -13 -84t-25 -59.5t-40.5 -57.5t-37.5 -51h121v-210h-338v195q25 47 56.5 95.5t47 74t15.5 38.5q0 15 -16 15q-29 0 -88 -54v187q72 71 154 71
q69 0 116.5 -48.5t47.5 -111.5z" />
    <glyph glyph-name="threequarters" unicode="&#xbe;" horiz-adv-x="1156" 
d="M232 463q-41 0 -89.5 21.5t-78.5 52.5v166q71 -49 125 -49q35 0 37 22q-1 21 -29.5 30.5t-59.5 9.5v14h-1v111q72 13 72 44q0 18 -19 18q-47 0 -111 -38v151q68 56 156 56q67 0 106.5 -40.5t39.5 -110.5q0 -85 -74 -138q96 -55 96 -150q0 -67 -42 -118.5t-128 -51.5z
M887 1067h209l-828 -1200h-208zM1010 490v-360h58v-200h-58v-63h-190v63h-197v168l194 392h193zM862 130l9 156l-63 -156h54z" />
    <glyph glyph-name="questiondown" unicode="&#xbf;" horiz-adv-x="907" 
d="M465 715q48 0 86 -37t38 -85q0 -47 -38 -85t-86 -38t-84.5 37.5t-36.5 85.5t36.5 85t84.5 37zM543 419q22 -85 12 -134t-41.5 -84t-65.5 -54t-60.5 -43.5t-26.5 -52.5q0 -22 23.5 -42t81.5 -20q33 0 60.5 4t56.5 17t39.5 18t43 26.5t33.5 21.5l148 -141
q-77 -70 -182 -113t-209 -43q-174 0 -270 72t-96 181q0 50 19 90.5t49 66t65.5 47.5t69.5 40t61 37.5t40 46t6 59.5h143z" />
    <glyph glyph-name="Agrave" unicode="&#xc0;" horiz-adv-x="942" 
d="M531 976h-152l-231 184h229zM570 910q17 -41 102 -267t159 -404.5t101 -200.5l-16 -38q-201 -7 -278 29q-19 19 -55 134h-254l-41 -163h-278l317 910q46 18 124 17t119 -17zM383 373h139q-46 167 -73 263z" />
    <glyph glyph-name="Aacute" unicode="&#xc1;" horiz-adv-x="942" 
d="M743 1160l-231 -182h-152l154 182h229zM570 910q17 -41 102 -267t159 -404.5t101 -200.5l-16 -38q-201 -7 -278 29q-19 19 -55 134h-254l-41 -163h-278l317 910q46 18 124 17t119 -17zM383 373h139q-46 167 -73 263z" />
    <glyph glyph-name="Acircumflex" unicode="&#xc2;" horiz-adv-x="942" 
d="M448 1042l-70 -65h-180l190 224h121l187 -224h-178zM570 910q17 -41 102 -267t159 -404.5t101 -200.5l-16 -38q-201 -7 -278 29q-19 19 -55 134h-254l-41 -163h-278l317 910q46 18 124 17t119 -17zM383 373h139q-46 167 -73 263z" />
    <glyph glyph-name="Atilde" unicode="&#xc3;" horiz-adv-x="942" 
d="M398 1004q-30 0 -30 -47h-145q0 93 37.5 157t104.5 64q29 0 56.5 -13t47.5 -26.5t31 -13.5q34 0 34 48h146q0 -92 -37 -156.5t-105 -64.5q-42 0 -86 26t-54 26zM570 910q17 -41 102 -267t159 -404.5t101 -200.5l-16 -38q-201 -7 -278 29q-19 19 -55 134h-254l-41 -163
h-278l317 910q46 18 124 17t119 -17zM383 373h139q-46 167 -73 263z" />
    <glyph glyph-name="Adieresis" unicode="&#xc4;" horiz-adv-x="942" 
d="M316 985q-43 0 -75 31.5t-32 74.5q0 41 32.5 73t74.5 32q41 0 73.5 -32t32.5 -73q0 -42 -32 -74t-74 -32zM596 985q-43 0 -75 31.5t-32 74.5q0 41 32.5 73t74.5 32q41 0 73.5 -32t32.5 -73q0 -42 -32 -74t-74 -32zM570 910q17 -41 102 -267t159 -404.5t101 -200.5
l-16 -38q-201 -7 -278 29q-19 19 -55 134h-254l-41 -163h-278l317 910q46 18 124 17t119 -17zM383 373h139q-46 167 -73 263z" />
    <glyph glyph-name="Aring" unicode="&#xc5;" horiz-adv-x="942" 
d="M570 910q17 -39 102 -266.5t158.5 -405.5t101.5 -200l-16 -38q-201 -7 -278 29q-19 19 -55 134h-254l-41 -163h-278l317 910h1l2 1q-78 44 -78 132q0 68 52.5 113.5t151.5 45.5q98 0 147 -44.5t49 -114.5q0 -90 -82 -133zM452 1092q-29 0 -44.5 -13.5t-15.5 -36.5
q0 -22 17 -35.5t43 -13.5q28 0 44 13.5t16 35.5q0 50 -60 50zM383 373h139q-46 167 -73 263z" />
    <glyph glyph-name="AE" unicode="&#xc6;" horiz-adv-x="1336" 
d="M1293 210q22 -27 23 -98t-23 -112h-623v163h-236l-98 -163h-326l627 910h639q14 -47 -2 -113t-40 -97h-302v-146h289q12 -49 -3.5 -118.5t-39.5 -91.5h-246v-134h361zM560 372l110 -1v184z" />
    <glyph glyph-name="Ccedilla" unicode="&#xc7;" horiz-adv-x="892" 
d="M850 570q-64 -13 -132.5 -19t-131.5 3q12 70 -13.5 116t-79.5 46q-82 0 -141.5 -80t-59.5 -194q0 -105 51.5 -176.5t152.5 -72.5q118 0 224 72q52 -21 84 -74.5t37 -101.5q-70 -54 -160.5 -84t-170.5 -32q8 -15 40 -42.5t42 -46.5q24 -44 24 -95q0 -72 -53.5 -126
t-127.5 -55q-95 -2 -170 82l115 122q26 -31 52 -31q10 0 16 6.5t6 17.5q0 21 -31.5 46.5t-39.5 38.5q-30 48 -32 103q-149 42 -240 164t-91 302q0 132 60.5 241t168.5 172.5t242 63.5q184 0 278.5 -97t80.5 -269z" />
    <glyph glyph-name="Egrave" unicode="&#xc8;" horiz-adv-x="756" 
d="M462 976h-152l-231 184h229zM713 210q22 -27 23 -98t-23 -112h-673v885l25 25h631q14 -47 -2 -113t-40 -97h-352v-146h339q12 -49 -3.5 -118.5t-39.5 -91.5h-296v-134h411z" />
    <glyph glyph-name="Eacute" unicode="&#xc9;" horiz-adv-x="756" 
d="M674 1160l-231 -182h-152l154 182h229zM713 210q22 -27 23 -98t-23 -112h-673v885l25 25h631q14 -47 -2 -113t-40 -97h-352v-146h339q12 -49 -3.5 -118.5t-39.5 -91.5h-296v-134h411z" />
    <glyph glyph-name="Ecircumflex" unicode="&#xca;" horiz-adv-x="756" 
d="M379 1042l-70 -65h-180l190 224h121l187 -224h-178zM713 210q22 -27 23 -98t-23 -112h-673v885l25 25h631q14 -47 -2 -113t-40 -97h-352v-146h339q12 -49 -3.5 -118.5t-39.5 -91.5h-296v-134h411z" />
    <glyph glyph-name="Edieresis" unicode="&#xcb;" horiz-adv-x="756" 
d="M247 985q-43 0 -75 31.5t-32 74.5q0 41 32.5 73t74.5 32q41 0 73.5 -32t32.5 -73q0 -42 -32 -74t-74 -32zM527 985q-43 0 -75 31.5t-32 74.5q0 41 32.5 73t74.5 32q41 0 73.5 -32t32.5 -73q0 -42 -32 -74t-74 -32zM713 210q22 -27 23 -98t-23 -112h-673v885l25 25h631
q14 -47 -2 -113t-40 -97h-352v-146h339q12 -49 -3.5 -118.5t-39.5 -91.5h-296v-134h411z" />
    <glyph glyph-name="Igrave" unicode="&#xcc;" horiz-adv-x="322" 
d="M88 976l-231 184h229l154 -184h-152zM40 0v911q46 17 125.5 14t116.5 -14v-911h-242z" />
    <glyph glyph-name="Iacute" unicode="&#xcd;" horiz-adv-x="322" 
d="M69 978l154 182h229l-231 -182h-152zM40 0v911q46 17 125.5 14t116.5 -14v-911h-242z" />
    <glyph glyph-name="Icircumflex" unicode="&#xce;" horiz-adv-x="322" 
d="M157 1042l-70 -65h-180l190 224h121l187 -224h-178zM40 911q46 17 125.5 14t116.5 -14v-911h-242v911z" />
    <glyph glyph-name="Idieresis" unicode="&#xcf;" horiz-adv-x="322" 
d="M25 985q-43 0 -75 31.5t-32 74.5q0 41 32.5 73t74.5 32q41 0 73.5 -32t32.5 -73q0 -42 -32 -74t-74 -32zM305 985q-43 0 -75 31.5t-32 74.5q0 41 32.5 73t74.5 32q41 0 73.5 -32t32.5 -73q0 -42 -32 -74t-74 -32zM40 0v911q46 17 125.5 14t116.5 -14v-911h-242z" />
    <glyph glyph-name="Eth" unicode="&#xd0;" horiz-adv-x="892" 
d="M391 936q232 0 356.5 -127t124.5 -340q0 -227 -121.5 -357.5t-344.5 -130.5q-102 0 -173 9t-149 36v339h-54v200h54v325q139 46 307 46zM407 191q193 0 193 271q0 124 -55.5 194t-157.5 70q-28 0 -41 -1v-160h98v-200h-98v-171q29 -3 61 -3z" />
    <glyph glyph-name="Ntilde" unicode="&#xd1;" horiz-adv-x="893" 
d="M393 1004q-30 0 -30 -47h-145q0 93 37.5 157t104.5 64q29 0 56.5 -13t47.5 -26.5t31 -13.5q34 0 34 48h146q0 -92 -37 -156.5t-105 -64.5q-42 0 -86 26t-54 26zM591 910q45 16 135 13.5t127 -13.5v-910h-182l-369 449v-449h-262v864q23 29 87.5 48t94.5 8l369 -467v457z
" />
    <glyph glyph-name="Ograve" unicode="&#xd2;" horiz-adv-x="897" 
d="M404 992l-231 184h229l154 -184h-152zM415 -18q-172 0 -284 125.5t-111 305.5q1 143 58 262t165 190t244 71q165 0 276 -128.5t114 -310.5q2 -135 -54.5 -252.5t-164.5 -190t-243 -72.5zM426 202q82 0 130.5 96t48.5 217q0 94 -35.5 147t-103.5 53q-81 0 -127.5 -89
t-46.5 -218q0 -90 33.5 -148t100.5 -58z" />
    <glyph glyph-name="Oacute" unicode="&#xd3;" horiz-adv-x="897" 
d="M385 994l154 182h229l-231 -182h-152zM415 -18q-172 0 -284 125.5t-111 305.5q1 143 58 262t165 190t244 71q165 0 276 -128.5t114 -310.5q2 -135 -54.5 -252.5t-164.5 -190t-243 -72.5zM426 202q82 0 130.5 96t48.5 217q0 94 -35.5 147t-103.5 53q-81 0 -127.5 -89
t-46.5 -218q0 -90 33.5 -148t100.5 -58z" />
    <glyph glyph-name="Ocircumflex" unicode="&#xd4;" horiz-adv-x="897" 
d="M473 1058l-70 -65h-180l190 224h121l187 -224h-178zM877 497q2 -135 -54.5 -252.5t-164.5 -190t-243 -72.5q-172 0 -284 125.5t-111 305.5q1 143 58 262t165 190t244 71q165 0 276 -128.5t114 -310.5zM426 202q82 0 130.5 96t48.5 217q0 94 -35.5 147t-103.5 53
q-81 0 -127.5 -89t-46.5 -218q0 -90 33.5 -148t100.5 -58z" />
    <glyph glyph-name="Otilde" unicode="&#xd5;" horiz-adv-x="897" 
d="M563 968q-42 0 -86 26t-54 26q-30 0 -30 -47h-145q0 93 37.5 157t104.5 64q29 0 56.5 -13t47.5 -26.5t31 -13.5q34 0 34 48h146q0 -92 -37 -156.5t-105 -64.5zM415 -18q-172 0 -284 125.5t-111 305.5q1 143 58 262t165 190t244 71q165 0 276 -128.5t114 -310.5
q2 -135 -54.5 -252.5t-164.5 -190t-243 -72.5zM426 202q82 0 130.5 96t48.5 217q0 94 -35.5 147t-103.5 53q-81 0 -127.5 -89t-46.5 -218q0 -90 33.5 -148t100.5 -58z" />
    <glyph glyph-name="Odieresis" unicode="&#xd6;" horiz-adv-x="897" 
d="M341 1001q-43 0 -75 31.5t-32 74.5q0 41 32.5 73t74.5 32q41 0 73.5 -32t32.5 -73q0 -42 -32 -74t-74 -32zM621 1001q-43 0 -75 31.5t-32 74.5q0 41 32.5 73t74.5 32q41 0 73.5 -32t32.5 -73q0 -42 -32 -74t-74 -32zM415 -18q-172 0 -284 125.5t-111 305.5q1 143 58 262
t165 190t244 71q165 0 276 -128.5t114 -310.5q2 -135 -54.5 -252.5t-164.5 -190t-243 -72.5zM426 202q82 0 130.5 96t48.5 217q0 94 -35.5 147t-103.5 53q-81 0 -127.5 -89t-46.5 -218q0 -90 33.5 -148t100.5 -58z" />
    <glyph glyph-name="multiply" unicode="&#xd7;" horiz-adv-x="918" 
d="M858 625l-246 -214l246 -215h-305l-94 82l-94 -82h-305l247 215l-247 214h305l94 -82l94 82h305z" />
    <glyph glyph-name="Oslash" unicode="&#xd8;" horiz-adv-x="1057" 
d="M896 732q60 -106 61 -235q2 -135 -54.5 -252.5t-164.5 -190t-243 -72.5q-119 0 -212 63l-41 -45h-222l148 165q-68 110 -68 248q1 143 58 262t165 190t244 71q123 0 221 -76l26 30h223zM372 408v-13l258 289q-33 31 -84 31q-81 0 -127.5 -89t-46.5 -218zM506 202
q53 0 94 44.5t61.5 110t23.5 139.5l-245 -274q28 -20 66 -20z" />
    <glyph glyph-name="Ugrave" unicode="&#xd9;" horiz-adv-x="890" 
d="M372 976l-231 184h229l154 -184h-152zM440 -27q-203 0 -301.5 112t-98.5 320v505q44 15 136 12.5t126 -12.5v-516q0 -92 33 -146.5t105 -54.5q148 0 148 213v504q46 16 136 13t126 -13v-505q0 -200 -105 -316t-305 -116z" />
    <glyph glyph-name="Uacute" unicode="&#xda;" horiz-adv-x="890" 
d="M353 978l154 182h229l-231 -182h-152zM440 -27q-203 0 -301.5 112t-98.5 320v505q44 15 136 12.5t126 -12.5v-516q0 -92 33 -146.5t105 -54.5q148 0 148 213v504q46 16 136 13t126 -13v-505q0 -200 -105 -316t-305 -116z" />
    <glyph glyph-name="Ucircumflex" unicode="&#xdb;" horiz-adv-x="890" 
d="M441 1042l-70 -65h-180l190 224h121l187 -224h-178zM588 910q46 16 136 13t126 -13v-505q0 -200 -105 -316t-305 -116q-203 0 -301.5 112t-98.5 320v505q44 15 136 12.5t126 -12.5v-516q0 -92 33 -146.5t105 -54.5q148 0 148 213v504z" />
    <glyph glyph-name="Udieresis" unicode="&#xdc;" horiz-adv-x="890" 
d="M309 985q-43 0 -75 31.5t-32 74.5q0 41 32.5 73t74.5 32q41 0 73.5 -32t32.5 -73q0 -42 -32 -74t-74 -32zM589 985q-43 0 -75 31.5t-32 74.5q0 41 32.5 73t74.5 32q41 0 73.5 -32t32.5 -73q0 -42 -32 -74t-74 -32zM440 -27q-203 0 -301.5 112t-98.5 320v505
q44 15 136 12.5t126 -12.5v-516q0 -92 33 -146.5t105 -54.5q148 0 148 213v504q46 16 136 13t126 -13v-505q0 -200 -105 -316t-305 -116z" />
    <glyph glyph-name="Yacute" unicode="&#xdd;" horiz-adv-x="875" 
d="M729 1160l-231 -182h-152l154 182h229zM850 910q59 -296 -243 -585v-325h-262v349q-209 363 -330 519l17 42q59 12 137 13t137 -13q40 -38 104.5 -151t102.5 -201q54 69 71 177.5t8 154.5q85 53 258 20z" />
    <glyph glyph-name="Thorn" unicode="&#xde;" horiz-adv-x="804" 
d="M376 841q191 0 300 -100t108 -279q0 -177 -114 -284t-299 -107q-41 0 -69 4v-75h-262v936q48 17 136 14.5t126 -14.5v-97q44 2 74 2zM384 281q65 0 97.5 50.5t30.5 133.5q-2 85 -34 125.5t-110 40.5q-38 0 -66 -4v-342q33 -4 82 -4z" />
    <glyph glyph-name="germandbls" unicode="&#xdf;" horiz-adv-x="798" 
d="M778 299q3 -77 -17.5 -138.5t-57.5 -99.5t-85 -58.5t-102 -21.5q-105 -2 -194 64q-6 48 9 100t63 77q23 -20 48 -20q31 1 53.5 29.5t22.5 68.5q0 36 -24 63t-70 27q-27 0 -81 -22q-25 29 -24 110.5t19 110.5q5 1 16 2t17 2q49 35 49 83q0 30 -15 46.5t-41 16.5
q-36 0 -51 -27.5t-15 -62.5v-649h-258v633q0 146 85.5 233t235.5 87q148 -1 233.5 -70t85.5 -174q0 -117 -97 -176q87 -25 140 -89t55 -145z" />
    <glyph glyph-name="agrave" unicode="&#xe0;" horiz-adv-x="737" 
d="M495 788h-163l-241 252h246zM686 312q1 -95 6 -156t10 -80.5t15 -50.5l-3 -25h-218q-19 15 -31 48q-36 -29 -76.5 -44.5t-68.5 -18.5t-69 -3q-87 0 -149.5 53t-61.5 133q1 107 104.5 188t246.5 97l28 3q-21 51 -70 50q-68 -2 -184 -65q-74 26 -92 167q163 108 307 110
q138 2 220.5 -83t84.5 -240zM424 287l3 11q-10 0 -26 -2q-47 -6 -81 -29.5t-34 -48.5q0 -17 10 -28t25 -11q39 0 65.5 33.5t37.5 74.5z" />
    <glyph glyph-name="aacute" unicode="&#xe1;" horiz-adv-x="737" 
d="M643 1040l-191 -252h-152l94 252h249zM686 312q1 -95 6 -156t10 -80.5t15 -50.5l-3 -25h-218q-19 15 -31 48q-36 -29 -76.5 -44.5t-68.5 -18.5t-69 -3q-87 0 -149.5 53t-61.5 133q1 107 104.5 188t246.5 97l28 3q-21 51 -70 50q-68 -2 -184 -65q-74 26 -92 167
q163 108 307 110q138 2 220.5 -83t84.5 -240zM424 287l3 11q-10 0 -26 -2q-47 -6 -81 -29.5t-34 -48.5q0 -17 10 -28t25 -11q39 0 65.5 33.5t37.5 74.5z" />
    <glyph glyph-name="acircumflex" unicode="&#xe2;" horiz-adv-x="737" 
d="M410 861l-70 -73h-180l190 250h121l187 -250h-178zM686 312q1 -95 6 -156t10 -80.5t15 -50.5l-3 -25h-218q-19 15 -31 48q-36 -29 -76.5 -44.5t-68.5 -18.5t-69 -3q-87 0 -149.5 53t-61.5 133q1 107 104.5 188t246.5 97l28 3q-21 51 -70 50q-68 -2 -184 -65
q-74 26 -92 167q163 108 307 110q138 2 220.5 -83t84.5 -240zM424 287l3 11q-10 0 -26 -2q-47 -6 -81 -29.5t-34 -48.5q0 -17 10 -28t25 -11q39 0 65.5 33.5t37.5 74.5z" />
    <glyph glyph-name="atilde" unicode="&#xe3;" horiz-adv-x="737" 
d="M355 835q-30 0 -30 -47h-145q0 105 37.5 178t104.5 73q29 0 56.5 -13t47.5 -26.5t31 -13.5q34 0 34 48h146q0 -105 -37 -178t-105 -73q-42 0 -86 26t-54 26zM686 312q1 -95 6 -156t10 -80.5t15 -50.5l-3 -25h-218q-19 15 -31 48q-36 -29 -76.5 -44.5t-68.5 -18.5t-69 -3
q-87 0 -149.5 53t-61.5 133q1 107 104.5 188t246.5 97l28 3q-21 51 -70 50q-68 -2 -184 -65q-74 26 -92 167q163 108 307 110q138 2 220.5 -83t84.5 -240zM424 287l3 11q-10 0 -26 -2q-47 -6 -81 -29.5t-34 -48.5q0 -17 10 -28t25 -11q39 0 65.5 33.5t37.5 74.5z" />
    <glyph glyph-name="adieresis" unicode="&#xe4;" horiz-adv-x="737" 
d="M247 763q-56 0 -97.5 41.5t-41.5 96.5q0 54 42 95.5t97 41.5q54 0 96 -42t42 -95q0 -55 -42 -96.5t-96 -41.5zM601 763q-56 0 -97.5 41.5t-41.5 96.5q0 54 42 95.5t97 41.5q54 0 96 -42t42 -95q0 -55 -42 -96.5t-96 -41.5zM685 395l1 -83q1 -95 6 -156t10 -80.5t15 -50.5
l-3 -25h-218q-19 15 -31 48q-36 -29 -76.5 -44.5t-68.5 -18.5t-69 -3q-87 0 -149.5 53t-61.5 133q1 107 104.5 188t246.5 97l28 3q-21 51 -70 50q-68 -2 -184 -65q-74 26 -92 167q163 108 307 110q138 2 220.5 -83t84.5 -240zM424 287l3 11q-10 0 -26 -2q-47 -6 -81 -29.5
t-34 -48.5q0 -17 10 -28t25 -11q39 0 65.5 33.5t37.5 74.5z" />
    <glyph glyph-name="aring" unicode="&#xe5;" horiz-adv-x="737" 
d="M413 763q-96 0 -150 44.5t-54 115.5q0 68 52.5 113.5t151.5 45.5q98 0 147 -44.5t49 -114.5q0 -68 -53.5 -114t-142.5 -46zM409 972q-29 0 -44.5 -13.5t-15.5 -36.5q0 -22 17 -35.5t43 -13.5q28 0 44 13.5t16 35.5q0 50 -60 50zM686 312q1 -95 6 -156t10 -80.5t15 -50.5
l-3 -25h-218q-19 15 -31 48q-36 -29 -76.5 -44.5t-68.5 -18.5t-69 -3q-87 0 -149.5 53t-61.5 133q1 107 104.5 188t246.5 97l28 3q-21 51 -70 50q-68 -2 -184 -65q-74 26 -92 167q163 108 307 110q138 2 220.5 -83t84.5 -240zM424 287l3 11q-10 0 -26 -2q-47 -6 -81 -29.5
t-34 -48.5q0 -17 10 -28t25 -11q39 0 65.5 33.5t37.5 74.5z" />
    <glyph glyph-name="ae" unicode="&#xe6;" horiz-adv-x="1137" 
d="M1112 371l-31 -44l-385 -93q37 -39 106 -37q86 3 175 72q36 -16 63.5 -55t36.5 -70l9 -31q-141 -131 -310 -131q-152 -2 -252 100q-117 -107 -273 -100q-88 4 -150 55.5t-61 130.5q1 107 104.5 188t246.5 97l28 3q-21 51 -70 50q-68 -2 -184 -65q-74 26 -92 167
q163 108 307 110q117 2 191 -72q96 72 224 72q160 0 250.5 -95t66.5 -252zM870 444q5 23 -15.5 48.5t-59.5 25.5q-47 0 -83 -34t-48 -92zM424 287l3 11q-10 0 -26 -2q-47 -6 -81 -29.5t-34 -48.5q0 -17 10 -28t25 -11q39 0 65.5 33.5t37.5 74.5z" />
    <glyph glyph-name="ccedilla" unicode="&#xe7;" horiz-adv-x="707" 
d="M684 395q-164 -41 -248 -18q8 64 -8.5 95.5t-50.5 31.5q-40 0 -67 -45.5t-27 -117.5q0 -61 27 -102t74 -42q65 -2 160 77q47 -15 79.5 -56t42.5 -74l9 -33q-117 -104 -257 -125q5 -21 41 -52t46 -50q24 -44 24 -95q0 -72 -53.5 -126t-127.5 -55q-95 -2 -170 82l115 122
q26 -31 52 -31q10 0 16 6.5t6 17.5q0 21 -31.5 46.5t-39.5 38.5q-31 50 -32 104q-109 29 -176.5 120.5t-67.5 230.5q0 155 107 264t264 109q147 0 228.5 -90.5t64.5 -232.5z" />
    <glyph glyph-name="egrave" unicode="&#xe8;" horiz-adv-x="730" 
d="M482 788h-163l-241 252h246zM705 371l-31 -44l-385 -93q37 -39 106 -37q86 3 175 72q36 -16 63.5 -55t36.5 -70l9 -31q-141 -131 -310 -131q-146 -1 -247.5 94.5t-101.5 254.5q0 167 102 277t266 110q160 0 250.5 -95t66.5 -252zM463 453q5 20 -15.5 42.5t-59.5 22.5
q-46 0 -81 -31.5t-48 -85.5z" />
    <glyph glyph-name="eacute" unicode="&#xe9;" horiz-adv-x="730" 
d="M630 1040l-191 -252h-152l94 252h249zM705 371l-31 -44l-385 -93q37 -39 106 -37q86 3 175 72q36 -16 63.5 -55t36.5 -70l9 -31q-141 -131 -310 -131q-146 -1 -247.5 94.5t-101.5 254.5q0 167 102 277t266 110q160 0 250.5 -95t66.5 -252zM463 453q5 20 -15.5 42.5
t-59.5 22.5q-46 0 -81 -31.5t-48 -85.5z" />
    <glyph glyph-name="ecircumflex" unicode="&#xea;" horiz-adv-x="730" 
d="M397 861l-70 -73h-180l190 250h121l187 -250h-178zM705 371l-31 -44l-385 -93q37 -39 106 -37q86 3 175 72q36 -16 63.5 -55t36.5 -70l9 -31q-141 -131 -310 -131q-146 -1 -247.5 94.5t-101.5 254.5q0 167 102 277t266 110q160 0 250.5 -95t66.5 -252zM463 453
q5 20 -15.5 42.5t-59.5 22.5q-46 0 -81 -31.5t-48 -85.5z" />
    <glyph glyph-name="edieresis" unicode="&#xeb;" horiz-adv-x="730" 
d="M234 763q-56 0 -97.5 41.5t-41.5 96.5q0 54 42 95.5t97 41.5q54 0 96 -42t42 -95q0 -55 -42 -96.5t-96 -41.5zM588 763q-56 0 -97.5 41.5t-41.5 96.5q0 54 42 95.5t97 41.5q54 0 96 -42t42 -95q0 -55 -42 -96.5t-96 -41.5zM388 718q160 0 250.5 -95t66.5 -252l-31 -44
l-385 -93q37 -39 106 -37q86 3 175 72q36 -16 63.5 -55t36.5 -70l9 -31q-141 -131 -310 -131q-146 -1 -247.5 94.5t-101.5 254.5q0 167 102 277t266 110zM463 453q5 20 -15.5 42.5t-59.5 22.5q-46 0 -81 -31.5t-48 -85.5z" />
    <glyph glyph-name="igrave" unicode="&#xec;" horiz-adv-x="348" 
d="M97 788l-241 252h246l158 -252h-163zM45 0v700q41 12 131.5 12.5t126.5 -12.5v-700h-258z" />
    <glyph glyph-name="iacute" unicode="&#xed;" horiz-adv-x="348" 
d="M65 788l94 252h249l-191 -252h-152zM45 0v700q41 12 131.5 12.5t126.5 -12.5v-700h-258z" />
    <glyph glyph-name="icircumflex" unicode="&#xee;" horiz-adv-x="348" 
d="M175 861l-70 -73h-180l190 250h121l187 -250h-178zM45 700q41 12 131.5 12.5t126.5 -12.5v-700h-258v700z" />
    <glyph glyph-name="idieresis" unicode="&#xef;" horiz-adv-x="348" 
d="M12 763q-56 0 -97.5 41.5t-41.5 96.5q0 54 42 95.5t97 41.5q54 0 96 -42t42 -95q0 -55 -42 -96.5t-96 -41.5zM366 763q-56 0 -97.5 41.5t-41.5 96.5q0 54 42 95.5t97 41.5q54 0 96 -42t42 -95q0 -55 -42 -96.5t-96 -41.5zM45 0v700q41 12 131.5 12.5t126.5 -12.5v-700
h-258z" />
    <glyph glyph-name="eth" unicode="&#xf0;" horiz-adv-x="755" 
d="M553 777q85 -85 133 -189.5t49 -218.5q0 -78 -23.5 -148t-70.5 -127t-125 -90t-179 -33q-142 0 -229.5 91.5t-87.5 225.5q0 140 90.5 245t226.5 108q41 2 83 -10q-20 30 -51 58q-112 -43 -190 -64q-43 17 -71 58t-34 87q35 8 102 28q-38 17 -73 30q5 40 37 80t84 61
q96 -28 183 -80q52 33 63 61q54 17 122.5 5.5t109.5 -40.5q-16 -60 -149 -138zM352 181q51 0 85 70t34 142q0 77 -56 77q-57 0 -96 -60t-39 -128q0 -43 19 -72t53 -29z" />
    <glyph glyph-name="ntilde" unicode="&#xf1;" horiz-adv-x="780" 
d="M362 835q-30 0 -30 -47h-145q0 105 37.5 178t104.5 73q29 0 56.5 -13t47.5 -26.5t31 -13.5q34 0 34 48h146q0 -105 -37 -178t-105 -73q-42 0 -86 26t-54 26zM474 718q141 0 203.5 -85.5t62.5 -254.5v-378h-258v345q0 159 -64 159q-41 0 -74 -58.5t-33 -139.5v-306h-258
v489q0 89 -13 176v35q31 6 39.5 7.5t39.5 6.5t50 6t50 1t61 -3q5 -18 8 -51q81 51 186 51z" />
    <glyph glyph-name="ograve" unicode="&#xf2;" horiz-adv-x="768" 
d="M307 788l-241 252h246l158 -252h-163zM359 -18q-158 0 -248.5 98t-90.5 252q0 161 113 273.5t277 112.5q159 0 246 -90t92 -243q5 -182 -105.5 -292.5t-283.5 -110.5zM374 197q45 0 77.5 50.5t32.5 110.5q0 61 -24 103.5t-67 42.5q-44 0 -76.5 -51t-32.5 -122
q0 -59 23.5 -96.5t66.5 -37.5z" />
    <glyph glyph-name="oacute" unicode="&#xf3;" horiz-adv-x="768" 
d="M275 788l94 252h249l-191 -252h-152zM359 -18q-158 0 -248.5 98t-90.5 252q0 161 113 273.5t277 112.5q159 0 246 -90t92 -243q5 -182 -105.5 -292.5t-283.5 -110.5zM374 197q45 0 77.5 50.5t32.5 110.5q0 61 -24 103.5t-67 42.5q-44 0 -76.5 -51t-32.5 -122
q0 -59 23.5 -96.5t66.5 -37.5z" />
    <glyph glyph-name="ocircumflex" unicode="&#xf4;" horiz-adv-x="768" 
d="M385 861l-70 -73h-180l190 250h121l187 -250h-178zM748 385q5 -182 -105.5 -292.5t-283.5 -110.5q-158 0 -248.5 98t-90.5 252q0 161 113 273.5t277 112.5q159 0 246 -90t92 -243zM374 197q45 0 77.5 50.5t32.5 110.5q0 61 -24 103.5t-67 42.5q-44 0 -76.5 -51
t-32.5 -122q0 -59 23.5 -96.5t66.5 -37.5z" />
    <glyph glyph-name="otilde" unicode="&#xf5;" horiz-adv-x="768" 
d="M470 783q-42 0 -86 26t-54 26q-30 0 -30 -47h-145q0 105 37.5 178t104.5 73q29 0 56.5 -13t47.5 -26.5t31 -13.5q34 0 34 48h146q0 -105 -37 -178t-105 -73zM359 -18q-158 0 -248.5 98t-90.5 252q0 161 113 273.5t277 112.5q159 0 246 -90t92 -243q5 -182 -105.5 -292.5
t-283.5 -110.5zM374 197q45 0 77.5 50.5t32.5 110.5q0 61 -24 103.5t-67 42.5q-44 0 -76.5 -51t-32.5 -122q0 -59 23.5 -96.5t66.5 -37.5z" />
    <glyph glyph-name="odieresis" unicode="&#xf6;" horiz-adv-x="768" 
d="M222 763q-56 0 -97.5 41.5t-41.5 96.5q0 54 42 95.5t97 41.5q54 0 96 -42t42 -95q0 -55 -42 -96.5t-96 -41.5zM576 763q-56 0 -97.5 41.5t-41.5 96.5q0 54 42 95.5t97 41.5q54 0 96 -42t42 -95q0 -55 -42 -96.5t-96 -41.5zM359 -18q-158 0 -248.5 98t-90.5 252
q0 161 113 273.5t277 112.5q159 0 246 -90t92 -243q5 -182 -105.5 -292.5t-283.5 -110.5zM374 197q45 0 77.5 50.5t32.5 110.5q0 61 -24 103.5t-67 42.5q-44 0 -76.5 -51t-32.5 -122q0 -59 23.5 -96.5t66.5 -37.5z" />
    <glyph glyph-name="divide" unicode="&#xf7;" horiz-adv-x="722" 
d="M369 578q-57 0 -97.5 40t-40.5 98q0 57 40.5 97.5t97.5 40.5q56 0 97 -40.5t41 -97.5q0 -58 -41 -98t-97 -40zM60 345v214h602v-214h-602zM369 46q-57 0 -97.5 40t-40.5 98q0 57 40.5 97.5t97.5 40.5q56 0 97 -40.5t41 -97.5q0 -58 -40 -98t-98 -40z" />
    <glyph glyph-name="oslash" unicode="&#xf8;" horiz-adv-x="798" 
d="M778 700v-25l-74 -78q61 -84 66 -212q5 -182 -105.5 -292.5t-283.5 -110.5q-117 0 -201 57l-37 -39h-123v25l83 91q-61 90 -61 216q0 161 113 273.5t277 112.5q108 0 183 -43l23 25h140zM415 504q-44 0 -76.5 -51t-32.5 -122v-2l149 163q-18 12 -40 12zM396 197
q45 0 77.5 50.5t32.5 110.5q0 11 -2 35l-162 -174q22 -22 54 -22z" />
    <glyph glyph-name="ugrave" unicode="&#xf9;" horiz-adv-x="779" 
d="M468 788h-163l-241 252h246zM719 294q0 -174 30 -266l-2 -28h-219q-25 20 -35 51q-80 -69 -181 -69q-121 0 -196.5 79.5t-75.5 244.5v394q59 12 130 11t128 -11v-349q0 -85 15 -119.5t56 -34.5q92 0 92 248v255q49 12 140.5 9t117.5 -9v-406z" />
    <glyph glyph-name="uacute" unicode="&#xfa;" horiz-adv-x="779" 
d="M616 1040l-191 -252h-152l94 252h249zM719 294q0 -174 30 -266l-2 -28h-219q-25 20 -35 51q-80 -69 -181 -69q-121 0 -196.5 79.5t-75.5 244.5v394q59 12 130 11t128 -11v-349q0 -85 15 -119.5t56 -34.5q92 0 92 248v255q49 12 140.5 9t117.5 -9v-406z" />
    <glyph glyph-name="ucircumflex" unicode="&#xfb;" horiz-adv-x="779" 
d="M383 861l-70 -73h-180l190 250h121l187 -250h-178zM719 294q0 -174 30 -266l-2 -28h-219q-25 20 -35 51q-80 -69 -181 -69q-121 0 -196.5 79.5t-75.5 244.5v394q59 12 130 11t128 -11v-349q0 -85 15 -119.5t56 -34.5q92 0 92 248v255q49 12 140.5 9t117.5 -9v-406z" />
    <glyph glyph-name="udieresis" unicode="&#xfc;" horiz-adv-x="779" 
d="M220 763q-56 0 -97.5 41.5t-41.5 96.5q0 54 42 95.5t97 41.5q54 0 96 -42t42 -95q0 -55 -42 -96.5t-96 -41.5zM574 763q-56 0 -97.5 41.5t-41.5 96.5q0 54 42 95.5t97 41.5q54 0 96 -42t42 -95q0 -55 -42 -96.5t-96 -41.5zM719 294q0 -174 30 -266l-2 -28h-219
q-25 20 -35 51q-80 -69 -181 -69q-121 0 -196.5 79.5t-75.5 244.5v394q59 12 130 11t128 -11v-349q0 -85 15 -119.5t56 -34.5q92 0 92 248v255q49 12 140.5 9t117.5 -9v-406z" />
    <glyph glyph-name="yacute" unicode="&#xfd;" horiz-adv-x="803" 
d="M635 1040l-191 -252h-152l94 252h249zM772 700q19 -65 21 -150.5t-17 -183t-56 -192t-101 -185t-146 -156.5q-129 -103 -314 -105q-60 -2 -94 17q-37 96 -3 183l42 26q28 -12 57 -12q73 -1 162 86q-62 46 -111.5 100.5t-81 102.5t-55 106.5t-35 98.5t-19 93t-9 75.5
t-2.5 58.5l12 37q53 13 118.5 13.5t115.5 -13.5q0 -1 2 -37.5t5 -56.5t10.5 -62.5t22 -76.5t36.5 -78.5t56.5 -88t79.5 -85.5q33 65 48.5 140.5t14.5 152.5t-5 170q75 54 246 22z" />
    <glyph glyph-name="thorn" unicode="&#xfe;" horiz-adv-x="765" 
d="M439 718q146 0 226 -91.5t80 -249.5q0 -169 -87.5 -282t-227.5 -113q-76 0 -136 36l2 -282q-132 -25 -256 0v1200q43 14 131.5 14t126.5 -14v-260q62 42 141 42zM376 200q48 0 76.5 50.5t28.5 135.5q0 52 -18 85t-50 33q-53 0 -84 -74t-31 -169q0 -17 25.5 -39t52.5 -22z
" />
    <glyph glyph-name="ydieresis" unicode="&#xff;" horiz-adv-x="803" 
d="M239 763q-56 0 -97.5 41.5t-41.5 96.5q0 54 42 95.5t97 41.5q54 0 96 -42t42 -95q0 -55 -42 -96.5t-96 -41.5zM593 763q-56 0 -97.5 41.5t-41.5 96.5q0 54 42 95.5t97 41.5q54 0 96 -42t42 -95q0 -55 -42 -96.5t-96 -41.5zM772 700q19 -65 21 -150.5t-17 -183t-56 -192
t-101 -185t-146 -156.5q-129 -103 -314 -105q-60 -2 -94 17q-37 96 -3 183l42 26q28 -12 57 -12q73 -1 162 86q-62 46 -111.5 100.5t-81 102.5t-55 106.5t-35 98.5t-19 93t-9 75.5t-2.5 58.5l12 37q53 13 118.5 13.5t115.5 -13.5q0 -1 2 -37.5t5 -56.5t10.5 -62.5t22 -76.5
t36.5 -78.5t56.5 -88t79.5 -85.5q33 65 48.5 140.5t14.5 152.5t-5 170q75 54 246 22z" />
    <glyph glyph-name="Amacron" unicode="&#x100;" horiz-adv-x="942" 
d="M684 1158v-170h-464v170h464zM570 910q17 -41 102 -267t159 -404.5t101 -200.5l-16 -38q-201 -7 -278 29q-19 19 -55 134h-254l-41 -163h-278l317 910q46 18 124 17t119 -17zM383 373h139q-46 167 -73 263z" />
    <glyph glyph-name="amacron" unicode="&#x101;" horiz-adv-x="737" 
d="M661 968v-180h-504v180h504zM686 312q1 -95 6 -156t10 -80.5t15 -50.5l-3 -25h-218q-19 15 -31 48q-36 -29 -76.5 -44.5t-68.5 -18.5t-69 -3q-87 0 -149.5 53t-61.5 133q1 107 104.5 188t246.5 97l28 3q-21 51 -70 50q-68 -2 -184 -65q-74 26 -92 167q163 108 307 110
q138 2 220.5 -83t84.5 -240zM424 287l3 11q-10 0 -26 -2q-47 -6 -81 -29.5t-34 -48.5q0 -17 10 -28t25 -11q39 0 65.5 33.5t37.5 74.5z" />
    <glyph glyph-name="Abreve" unicode="&#x102;" horiz-adv-x="942" 
d="M450 933q-117 0 -186 55t-69 167h177q0 -33 20.5 -56t57.5 -23q42 0 61 24t19 55h178q0 -108 -72 -165t-186 -57zM570 910q17 -41 102 -267t159 -404.5t101 -200.5l-16 -38q-201 -7 -278 29q-19 19 -55 134h-254l-41 -163h-278l317 910q46 18 124 17t119 -17zM383 373
h139q-46 167 -73 263z" />
    <glyph glyph-name="abreve" unicode="&#x103;" horiz-adv-x="737" 
d="M407 763q-117 0 -186 62.5t-69 189.5h177q0 -33 20.5 -56t57.5 -23q42 0 61 24t19 55h178q0 -122 -72 -187t-186 -65zM686 312q1 -95 6 -156t10 -80.5t15 -50.5l-3 -25h-218q-19 15 -31 48q-36 -29 -76.5 -44.5t-68.5 -18.5t-69 -3q-87 0 -149.5 53t-61.5 133
q1 107 104.5 188t246.5 97l28 3q-21 51 -70 50q-68 -2 -184 -65q-74 26 -92 167q163 108 307 110q138 2 220.5 -83t84.5 -240zM424 287l3 11q-10 0 -26 -2q-47 -6 -81 -29.5t-34 -48.5q0 -17 10 -28t25 -11q39 0 65.5 33.5t37.5 74.5z" />
    <glyph glyph-name="Aogonek" unicode="&#x104;" horiz-adv-x="942" 
d="M916 0q-71 -2 -132 2q-73 -105 -73 -162q0 -13 6.5 -20t15.5 -6q15 0 31 11t26 27l115 -96q-35 -55 -94.5 -92t-116.5 -37q-74 -2 -121 41t-47 126q0 53 29.5 124t77.5 117q-17 27 -50 128h-254l-41 -163h-278l317 910q46 18 124 17t119 -17q17 -41 102 -267t159 -404.5
t101 -200.5zM383 373h139q-46 167 -73 263z" />
    <glyph glyph-name="aogonek" unicode="&#x105;" horiz-adv-x="737" 
d="M646 -171l115 -96q-35 -55 -94.5 -92t-116.5 -37q-74 -2 -121 41t-47 126q0 53 28.5 122.5t75.5 116.5q-13 17 -21 38q-36 -29 -76.5 -44.5t-68.5 -18.5t-69 -3q-87 0 -149.5 53t-61.5 133q1 107 104.5 188t246.5 97l28 3q-21 51 -70 50q-68 -2 -184 -65q-74 26 -92 167
q163 108 307 110q138 2 220.5 -83t84.5 -240l1 -83q1 -95 6 -156t10 -80.5t15 -50.5l-3 -25h-59q-88 -124 -88 -183q0 -13 6.5 -20t15.5 -6q15 0 31 10.5t26 27.5zM424 287l3 11q-10 0 -26 -2q-47 -6 -81 -29.5t-34 -48.5q0 -17 10 -28t25 -11q39 0 65.5 33.5t37.5 74.5z
" />
    <glyph glyph-name="Cacute" unicode="&#x106;" horiz-adv-x="892" 
d="M399 1004l154 182h229l-231 -182h-152zM496 -27q-99 0 -185.5 33.5t-151 94.5t-102 153.5t-37.5 204.5q0 132 60.5 241t168.5 172.5t242 63.5q184 0 278.5 -97t80.5 -269q-64 -13 -132.5 -19t-131.5 3q12 70 -13.5 116t-79.5 46q-82 0 -141.5 -80t-59.5 -194
q0 -105 51.5 -176.5t152.5 -72.5q118 0 224 72q52 -21 84 -74.5t37 -101.5q-74 -57 -169 -86.5t-176 -29.5z" />
    <glyph glyph-name="cacute" unicode="&#x107;" horiz-adv-x="707" 
d="M289 788l94 252h249l-191 -252h-152zM366 -18q-147 -2 -246.5 95t-99.5 268q0 155 107 264t264 109q147 0 228.5 -90.5t64.5 -232.5q-164 -41 -248 -18q8 64 -8.5 95.5t-50.5 31.5q-40 0 -67 -45.5t-27 -117.5q0 -61 27 -102t74 -42q65 -2 160 77q47 -15 79.5 -56
t42.5 -74l9 -33q-143 -126 -309 -129z" />
    <glyph glyph-name="Cdotaccent" unicode="&#x10a;" horiz-adv-x="892" 
d="M491 1011q-43 0 -75 31.5t-32 74.5q0 41 32.5 73t74.5 32q41 0 73.5 -32t32.5 -73q0 -42 -32 -74t-74 -32zM496 -27q-99 0 -185.5 33.5t-151 94.5t-102 153.5t-37.5 204.5q0 132 60.5 241t168.5 172.5t242 63.5q184 0 278.5 -97t80.5 -269q-64 -13 -132.5 -19t-131.5 3
q12 70 -13.5 116t-79.5 46q-82 0 -141.5 -80t-59.5 -194q0 -105 51.5 -176.5t152.5 -72.5q118 0 224 72q52 -21 84 -74.5t37 -101.5q-74 -57 -169 -86.5t-176 -29.5z" />
    <glyph glyph-name="cdotaccent" unicode="&#x10b;" horiz-adv-x="707" 
d="M398 763q-56 0 -97.5 41.5t-41.5 96.5q0 54 42 95.5t97 41.5q54 0 96 -42t42 -95q0 -55 -42 -96.5t-96 -41.5zM366 -18q-147 -2 -246.5 95t-99.5 268q0 155 107 264t264 109q147 0 228.5 -90.5t64.5 -232.5q-164 -41 -248 -18q8 64 -8.5 95.5t-50.5 31.5q-40 0 -67 -45.5
t-27 -117.5q0 -61 27 -102t74 -42q65 -2 160 77q47 -15 79.5 -56t42.5 -74l9 -33q-143 -126 -309 -129z" />
    <glyph glyph-name="Ccaron" unicode="&#x10c;" horiz-adv-x="892" 
d="M553 997h-121l-190 240h180l70 -73l70 73h178zM850 570q-64 -13 -132.5 -19t-131.5 3q12 70 -13.5 116t-79.5 46q-82 0 -141.5 -80t-59.5 -194q0 -105 51.5 -176.5t152.5 -72.5q118 0 224 72q52 -21 84 -74.5t37 -101.5q-74 -57 -169 -86.5t-176 -29.5q-99 0 -185.5 33.5
t-151 94.5t-102 153.5t-37.5 204.5q0 132 60.5 241t168.5 172.5t242 63.5q184 0 278.5 -97t80.5 -269z" />
    <glyph glyph-name="ccaron" unicode="&#x10d;" horiz-adv-x="707" 
d="M460 788h-121l-190 250h180l70 -81l70 81h178zM684 395q-164 -41 -248 -18q8 64 -8.5 95.5t-50.5 31.5q-40 0 -67 -45.5t-27 -117.5q0 -61 27 -102t74 -42q65 -2 160 77q47 -15 79.5 -56t42.5 -74l9 -33q-143 -126 -309 -129q-147 -2 -246.5 95t-99.5 268q0 155 107 264
t264 109q147 0 228.5 -90.5t64.5 -232.5z" />
    <glyph glyph-name="Dcaron" unicode="&#x10e;" horiz-adv-x="848" 
d="M409 997h-121l-190 240h180l70 -73l70 73h178zM347 936q232 0 356.5 -127t124.5 -340q0 -227 -121.5 -357.5t-344.5 -130.5q-102 0 -173 9t-149 36v864q139 46 307 46zM363 191q193 0 193 271q0 124 -55.5 194t-157.5 70q-28 0 -41 -1v-531q28 -3 61 -3z" />
    <glyph glyph-name="dcaron" unicode="&#x10f;" horiz-adv-x="938" 
d="M882 1113h246l-78 -333h-184zM725 936v-733q0 -107 14 -175v-28h-220q-11 19 -21 45q-73 -63 -183 -63q-129 0 -212 101.5t-83 239.5q0 178 88.5 286.5t247.5 108.5q59 0 111 -30v248q38 14 126.5 14t131.5 -14zM376 200q38 0 64.5 69t26.5 196q0 17 -23 28t-47 11
q-49 0 -80.5 -39t-31.5 -112q0 -70 25 -111.5t66 -41.5z" />
    <glyph glyph-name="Dcroat" unicode="&#x110;" horiz-adv-x="892" 
d="M391 936q232 0 356.5 -127t124.5 -340q0 -227 -121.5 -357.5t-344.5 -130.5q-102 0 -173 9t-149 36v339h-54v200h54v325q139 46 307 46zM407 191q193 0 193 271q0 124 -55.5 194t-157.5 70q-28 0 -41 -1v-160h98v-200h-98v-171q29 -3 61 -3z" />
    <glyph glyph-name="dcroat" unicode="&#x111;" horiz-adv-x="800" 
d="M800 761h-75v-558q0 -107 14 -175v-28h-220q-11 19 -21 45q-73 -63 -183 -63q-129 0 -212 101.5t-83 239.5q0 178 88.5 286.5t247.5 108.5q59 0 111 -30v73h-157v131h157v44q38 14 126.5 14t131.5 -14v-44h75v-131zM376 200q38 0 64.5 69t26.5 196q0 17 -23 28t-47 11
q-49 0 -80.5 -39t-31.5 -112q0 -70 25 -111.5t66 -41.5z" />
    <glyph glyph-name="Emacron" unicode="&#x112;" horiz-adv-x="756" 
d="M615 1158v-170h-464v170h464zM713 210q22 -27 23 -98t-23 -112h-673v885l25 25h631q14 -47 -2 -113t-40 -97h-352v-146h339q12 -49 -3.5 -118.5t-39.5 -91.5h-296v-134h411z" />
    <glyph glyph-name="emacron" unicode="&#x113;" horiz-adv-x="730" 
d="M648 968v-180h-504v180h504zM705 371l-31 -44l-385 -93q37 -39 106 -37q86 3 175 72q36 -16 63.5 -55t36.5 -70l9 -31q-141 -131 -310 -131q-146 -1 -247.5 94.5t-101.5 254.5q0 167 102 277t266 110q160 0 250.5 -95t66.5 -252zM463 453q5 20 -15.5 42.5t-59.5 22.5
q-46 0 -81 -31.5t-48 -85.5z" />
    <glyph glyph-name="Ebreve" unicode="&#x114;" horiz-adv-x="756" 
d="M381 933q-117 0 -186 55t-69 167h177q0 -33 20.5 -56t57.5 -23q42 0 61 24t19 55h178q0 -108 -72 -165t-186 -57zM713 210q22 -27 23 -98t-23 -112h-673v885l25 25h631q14 -47 -2 -113t-40 -97h-352v-146h339q12 -49 -3.5 -118.5t-39.5 -91.5h-296v-134h411z" />
    <glyph glyph-name="ebreve" unicode="&#x115;" horiz-adv-x="730" 
d="M394 763q-117 0 -186 62.5t-69 189.5h177q0 -33 20.5 -56t57.5 -23q42 0 61 24t19 55h178q0 -122 -72 -187t-186 -65zM705 371l-31 -44l-385 -93q37 -39 106 -37q86 3 175 72q36 -16 63.5 -55t36.5 -70l9 -31q-141 -131 -310 -131q-146 -1 -247.5 94.5t-101.5 254.5
q0 167 102 277t266 110q160 0 250.5 -95t66.5 -252zM463 453q5 20 -15.5 42.5t-59.5 22.5q-46 0 -81 -31.5t-48 -85.5z" />
    <glyph glyph-name="Edotaccent" unicode="&#x116;" horiz-adv-x="756" 
d="M383 985q-43 0 -75 31.5t-32 74.5q0 41 32.5 73t74.5 32q41 0 73.5 -32t32.5 -73q0 -42 -32 -74t-74 -32zM713 210q22 -27 23 -98t-23 -112h-673v885l25 25h631q14 -47 -2 -113t-40 -97h-352v-146h339q12 -49 -3.5 -118.5t-39.5 -91.5h-296v-134h411z" />
    <glyph glyph-name="edotaccent" unicode="&#x117;" horiz-adv-x="730" 
d="M396 763q-56 0 -97.5 41.5t-41.5 96.5q0 54 42 95.5t97 41.5q54 0 96 -42t42 -95q0 -55 -42 -96.5t-96 -41.5zM705 371l-31 -44l-385 -93q37 -39 106 -37q86 3 175 72q36 -16 63.5 -55t36.5 -70l9 -31q-141 -131 -310 -131q-146 -1 -247.5 94.5t-101.5 254.5
q0 167 102 277t266 110q160 0 250.5 -95t66.5 -252zM463 453q5 20 -15.5 42.5t-59.5 22.5q-46 0 -81 -31.5t-48 -85.5z" />
    <glyph glyph-name="Eogonek" unicode="&#x118;" horiz-adv-x="756" 
d="M713 0h-235q-70 -102 -70 -158q0 -13 6.5 -20t15.5 -6q15 0 31 10.5t26 27.5l115 -96q-35 -55 -94.5 -92t-116.5 -37q-74 -2 -121 41t-47 126q0 43 20.5 100t54.5 104h-258v885l25 25h631q14 -47 -2 -113t-40 -97h-352v-146h339q12 -49 -3.5 -118.5t-39.5 -91.5h-296
v-134h411q22 -27 23 -98t-23 -112z" />
    <glyph glyph-name="eogonek" unicode="&#x119;" horiz-adv-x="730" 
d="M705 371l-31 -44l-385 -93q37 -39 106 -37q86 3 175 72q36 -16 63.5 -55t36.5 -70l9 -31q-118 -110 -258 -127q-82 -118 -82 -176q0 -13 6.5 -20t15.5 -6q15 0 31 11t26 27l115 -96q-35 -55 -94.5 -92t-116.5 -37q-74 -2 -121 41t-47 126q0 51 28 119.5t73 115.5
q-105 33 -170 120t-65 212q0 167 102 277t266 110q160 0 250.5 -95t66.5 -252zM463 453q5 20 -15.5 42.5t-59.5 22.5q-46 0 -81 -31.5t-48 -85.5z" />
    <glyph glyph-name="Ecaron" unicode="&#x11a;" horiz-adv-x="756" 
d="M445 971h-121l-190 240h180l70 -73l70 73h178zM713 210q22 -27 23 -98t-23 -112h-673v885l25 25h631q14 -47 -2 -113t-40 -97h-352v-146h339q12 -49 -3.5 -118.5t-39.5 -91.5h-296v-134h411z" />
    <glyph glyph-name="ecaron" unicode="&#x11b;" horiz-adv-x="730" 
d="M458 788h-121l-190 250h180l70 -81l70 81h178zM705 371l-31 -44l-385 -93q37 -39 106 -37q86 3 175 72q36 -16 63.5 -55t36.5 -70l9 -31q-141 -131 -310 -131q-146 -1 -247.5 94.5t-101.5 254.5q0 167 102 277t266 110q160 0 250.5 -95t66.5 -252zM463 453
q5 20 -15.5 42.5t-59.5 22.5q-46 0 -81 -31.5t-48 -85.5z" />
    <glyph glyph-name="Gbreve" unicode="&#x11e;" horiz-adv-x="867" 
d="M458 959q-117 0 -186 55t-69 167h177q0 -33 20.5 -56t57.5 -23q42 0 61 24t19 55h178q0 -108 -72 -165t-186 -57zM465 716q-84 0 -128.5 -73.5t-44.5 -195.5q0 -108 46 -176.5t137 -68.5q53 0 99 10v87h-175q-12 49 3 118.5t37 91.5h359l28 -31v-389q-57 -51 -156.5 -79
t-194.5 -28q-197 0 -326 129t-129 348q0 95 30.5 181t85.5 152t139 105t185 39q163 0 267.5 -96t99.5 -235q-55 -13 -126 -20t-126 3q-12 65 -42.5 96.5t-67.5 31.5z" />
    <glyph glyph-name="gbreve" unicode="&#x11f;" horiz-adv-x="783" 
d="M385 763q-117 0 -186 62.5t-69 189.5h177q0 -33 20.5 -56t57.5 -23q42 0 61 24t19 55h178q0 -122 -72 -187t-186 -65zM518 718q16 2 31.5 3t31 0.5t27 -0.5t27 -2t23.5 -3t23.5 -4t20.5 -3.5t21.5 -4t19.5 -4.5v-32q-14 -79 -14 -190v-388q0 -180 -97.5 -284t-246.5 -106
q-171 -2 -335 112q10 60 36.5 112.5t64.5 75.5q134 -89 217 -86q45 2 76.5 32t41.5 84q-62 -48 -136 -48q-146 0 -238 92.5t-92 248.5q0 181 92.5 287.5t243.5 106.5q73 0 150 -45zM376 200q42 0 66.5 68t24.5 202q0 12 -24.5 23t-45.5 11q-55 0 -83.5 -43t-28.5 -113
q0 -65 24.5 -106.5t66.5 -41.5z" />
    <glyph glyph-name="Gdotaccent" unicode="&#x120;" horiz-adv-x="867" 
d="M460 1011q-43 0 -75 31.5t-32 74.5q0 41 32.5 73t74.5 32q41 0 73.5 -32t32.5 -73q0 -42 -32 -74t-74 -32zM465 716q-84 0 -128.5 -73.5t-44.5 -195.5q0 -108 46 -176.5t137 -68.5q53 0 99 10v87h-175q-12 49 3 118.5t37 91.5h359l28 -31v-389q-57 -51 -156.5 -79
t-194.5 -28q-197 0 -326 129t-129 348q0 95 30.5 181t85.5 152t139 105t185 39q163 0 267.5 -96t99.5 -235q-55 -13 -126 -20t-126 3q-12 65 -42.5 96.5t-67.5 31.5z" />
    <glyph glyph-name="gdotaccent" unicode="&#x121;" horiz-adv-x="783" 
d="M387 763q-56 0 -97.5 41.5t-41.5 96.5q0 54 42 95.5t97 41.5q54 0 96 -42t42 -95q0 -55 -42 -96.5t-96 -41.5zM518 718q16 2 31.5 3t31 0.5t27 -0.5t27 -2t23.5 -3t23.5 -4t20.5 -3.5t21.5 -4t19.5 -4.5v-32q-14 -79 -14 -190v-388q0 -180 -97.5 -284t-246.5 -106
q-171 -2 -335 112q10 60 36.5 112.5t64.5 75.5q134 -89 217 -86q45 2 76.5 32t41.5 84q-62 -48 -136 -48q-146 0 -238 92.5t-92 248.5q0 181 92.5 287.5t243.5 106.5q73 0 150 -45zM376 200q42 0 66.5 68t24.5 202q0 12 -24.5 23t-45.5 11q-55 0 -83.5 -43t-28.5 -113
q0 -65 24.5 -106.5t66.5 -41.5z" />
    <glyph glyph-name="uni0122" unicode="&#x122;" horiz-adv-x="867" 
d="M465 716q-84 0 -128.5 -73.5t-44.5 -195.5q0 -108 46 -176.5t137 -68.5q53 0 99 10v87h-175q-12 49 3 118.5t37 91.5h359l28 -31v-389q-57 -51 -156.5 -79t-194.5 -28q-197 0 -326 129t-129 348q0 95 30.5 181t85.5 152t139 105t185 39q163 0 267.5 -96t99.5 -235
q-55 -13 -126 -20t-126 3q-12 65 -42.5 96.5t-67.5 31.5zM313 -315l36 240h197l-66 -240h-167z" />
    <glyph glyph-name="uni0123" unicode="&#x123;" horiz-adv-x="783" 
d="M543 1055l-66 -270h-197l96 270h167zM518 718q16 2 31.5 3t31 0.5t27 -0.5t27 -2t23.5 -3t23.5 -4t20.5 -3.5t21.5 -4t19.5 -4.5v-32q-14 -79 -14 -190v-388q0 -180 -97.5 -284t-246.5 -106q-171 -2 -335 112q10 60 36.5 112.5t64.5 75.5q134 -89 217 -86q45 2 76.5 32
t41.5 84q-62 -48 -136 -48q-146 0 -238 92.5t-92 248.5q0 181 92.5 287.5t243.5 106.5q73 0 150 -45zM376 200q42 0 66.5 68t24.5 202q0 12 -24.5 23t-45.5 11q-55 0 -83.5 -43t-28.5 -113q0 -65 24.5 -106.5t66.5 -41.5z" />
    <glyph glyph-name="Hcircumflex" unicode="&#x124;" horiz-adv-x="806" 
d="M399 1042l-70 -65h-180l190 224h121l187 -224h-178zM504 910q52 16 137 13.5t125 -13.5v-910h-262v312h-202v-312h-262v910q48 17 136.5 14t125.5 -14v-388h202v388z" />
    <glyph glyph-name="hcircumflex" unicode="&#x125;" horiz-adv-x="759" 
d="M409 1047l-70 -73h-180l190 250h121l187 -250h-178zM463 718q131 0 198.5 -88t67.5 -252v-378h-258v345q0 145 -65 145q-43 0 -75.5 -57t-32.5 -148v-285h-258v936q44 13 131 13t127 -13v-250q65 32 165 32z" />
    <glyph glyph-name="Hbar" unicode="&#x126;" horiz-adv-x="860" 
d="M830 810v-200h-37v-610h-262v312h-202v-312h-262v610h-37v200h37v100q48 17 136.5 14t125.5 -14v-100h202v100q52 16 137 13.5t125 -13.5v-100h37zM531 522v88h-202v-88h202z" />
    <glyph glyph-name="hbar" unicode="&#x127;" horiz-adv-x="756" 
d="M460 718q131 0 198.5 -88t67.5 -252v-378h-258v345q0 145 -65 145q-43 0 -75.5 -57t-32.5 -148v-285h-258v768h-57v126h57v42q44 13 131 13t127 -13v-42h235v-126h-235v-82q65 32 165 32z" />
    <glyph glyph-name="Imacron" unicode="&#x12a;" horiz-adv-x="322" 
d="M-25 988v170h371v-170h-371zM40 0v911q46 17 125.5 14t116.5 -14v-911h-242z" />
    <glyph glyph-name="imacron" unicode="&#x12b;" horiz-adv-x="348" 
d="M-78 788v180h504v-180h-504zM45 0v700q41 12 131.5 12.5t126.5 -12.5v-700h-258z" />
    <glyph glyph-name="Iogonek" unicode="&#x12e;" horiz-adv-x="322" 
d="M229 -127l115 -96q-35 -55 -94.5 -92t-116.5 -37q-74 -2 -121 41t-47 126q0 43 20.5 100.5t54.5 103.5v892q46 17 125.5 14t116.5 -14v-911h-75q-57 -89 -57 -139q0 -13 6.5 -20t15.5 -6q15 0 31 10.5t26 27.5z" />
    <glyph glyph-name="iogonek" unicode="&#x12f;" horiz-adv-x="348" 
d="M174 763q-56 0 -97.5 41.5t-41.5 96.5q0 54 42 95.5t97 41.5q54 0 96 -42t42 -95q0 -55 -42 -96.5t-96 -41.5zM289 -179l115 -96q-35 -55 -94.5 -92t-116.5 -37q-74 -2 -121 41t-47 126q0 52 28.5 121t74.5 116h-83v700q41 12 131.5 12.5t126.5 -12.5v-698h2
q-95 -131 -95 -193q0 -13 6.5 -20t15.5 -6q15 0 31 10.5t26 27.5z" />
    <glyph glyph-name="Idotaccent" unicode="&#x130;" horiz-adv-x="322" 
d="M161 985q-43 0 -75 31.5t-32 74.5q0 41 32.5 73t74.5 32q41 0 73.5 -32t32.5 -73q0 -42 -32 -74t-74 -32zM40 0v911q46 17 125.5 14t116.5 -14v-911h-242z" />
    <glyph glyph-name="dotlessi" unicode="&#x131;" horiz-adv-x="348" 
d="M45 0v700q41 12 131.5 12.5t126.5 -12.5v-700h-258z" />
    <glyph glyph-name="IJ" unicode="&#x132;" horiz-adv-x="1103" 
d="M40 0v911q46 17 125.5 14t116.5 -14v-911h-242zM678 -18q-211 0 -358 169q18 62 58.5 113t83.5 65q38 -63 87.5 -95t100.5 -32q151 0 151 204v504q58 13 143.5 12t118.5 -12v-539q0 -102 -43.5 -189t-133 -143.5t-208.5 -56.5z" />
    <glyph glyph-name="ij" unicode="&#x133;" horiz-adv-x="713" 
d="M174 763q-56 0 -97.5 41.5t-41.5 96.5q0 54 42 95.5t97 41.5q54 0 96 -42t42 -95q0 -55 -42 -96.5t-96 -41.5zM537 763q-56 0 -97.5 41.5t-41.5 96.5q0 54 42 95.5t97 41.5q54 0 96 -42t42 -95q0 -55 -42 -96.5t-96 -41.5zM45 0v700q41 12 131.5 12.5t126.5 -12.5v-700
h-258zM428 -272q-53 2 -104 19q-14 45 3 116t46 106q12 -6 18 -6q13 0 16 25.5t3 102.5v609q42 13 132.5 12.5t125.5 -12.5v-724q0 -111 -68.5 -180.5t-171.5 -67.5z" />
    <glyph glyph-name="Jcircumflex" unicode="&#x134;" horiz-adv-x="803" 
d="M630 1042l-70 -65h-180l190 224h121l187 -224h-178zM501 910q58 13 143.5 12t118.5 -12v-539q0 -102 -43.5 -189t-133 -143.5t-208.5 -56.5q-211 0 -358 169q18 62 58.5 113t83.5 65q38 -63 87.5 -95t100.5 -32q151 0 151 204v504z" />
    <glyph glyph-name="jcircumflex" unicode="&#x135;" horiz-adv-x="365" 
d="M190 861l-70 -73h-180l190 250h121l187 -250h-178zM62 700q42 13 132.5 12.5t125.5 -12.5v-724q0 -111 -68.5 -180.5t-171.5 -67.5q-53 2 -104 19q-14 45 3 116t46 106q12 -6 18 -6q13 0 16 25.5t3 102.5v609z" />
    <glyph glyph-name="uni0136" unicode="&#x136;" horiz-adv-x="926" 
d="M569 447q72 -96 100 -132.5t95 -111t142 -141.5l-2 -39q-37 -13 -115.5 -27t-147.5 -14q-65 49 -276 334q-10 -5 -63 -32v-284h-262v910q49 17 137 14t125 -14v-384q60 34 107 69q192 143 180 300q37 25 109.5 29t134.5 -10q25 -95 -33.5 -218t-191.5 -221
q-22 -15 -39 -28zM286 -308l36 240h197l-66 -240h-167z" />
    <glyph glyph-name="uni0137" unicode="&#x137;" horiz-adv-x="841" 
d="M569 348q16 -20 42 -51t37.5 -45t30.5 -37t27.5 -32.5t22.5 -26t21 -24t18 -18.5t18.5 -17.5t16.5 -13.5l18 -14v-41q-38 -14 -126 -25.5t-166 -10.5q-5 3 -11.5 8t-14.5 13.5t-15 16t-18 21.5t-18.5 24t-21.5 28t-22.5 29.5t-24.5 33.5t-26 35q-31 -17 -59 -30v-171
h-258v936q51 17 131.5 16.5t126.5 -16.5v-505l11 8q84 62 134 120t47 120q104 48 275 21q24 -80 -30 -174t-166 -178zM269 -305l36 240h197l-66 -240h-167z" />
    <glyph glyph-name="kgreenlandic" unicode="&#x138;" horiz-adv-x="841" 
d="M569 348q16 -20 42 -51t37.5 -45t30.5 -37t27.5 -32.5t22.5 -26t21 -24t18 -18.5t18.5 -17.5t16.5 -13.5l18 -14v-41q-38 -14 -126 -25.5t-166 -10.5q-5 3 -11.5 8t-14.5 13.5t-15 16t-18 21.5t-18.5 24t-21.5 28t-22.5 29.5t-24.5 33.5t-26 35q-31 -17 -59 -30v-171
h-258v700q51 17 131.5 16.5t126.5 -16.5v-269l11 8q84 62 134 120t47 120q104 48 275 21q24 -80 -30 -174t-166 -178z" />
    <glyph glyph-name="Lacute" unicode="&#x139;" horiz-adv-x="746" 
d="M75 978l154 182h229l-231 -182h-152zM86 0l-46 47v863q50 17 134.5 14.5t127.5 -14.5v-700h399q24 -28 25 -98.5t-25 -111.5h-615z" />
    <glyph glyph-name="lacute" unicode="&#x13a;" horiz-adv-x="414" 
d="M91 1004l154 182h229l-231 -182h-152zM267 -18q-99 0 -153 56t-54 171v727q43 15 125.5 15.5t132.5 -15.5v-643q0 -101 33 -101q7 0 23 4q17 -38 20 -93.5t-10 -96.5q-72 -24 -117 -24z" />
    <glyph glyph-name="uni013B" unicode="&#x13b;" horiz-adv-x="746" 
d="M86 0l-46 47v863q50 17 134.5 14.5t127.5 -14.5v-700h399q24 -28 25 -98.5t-25 -111.5h-615zM251 -305l36 240h197l-66 -240h-167z" />
    <glyph glyph-name="uni013C" unicode="&#x13c;" horiz-adv-x="414" 
d="M267 -18q-99 0 -153 56t-54 171v727q43 15 125.5 15.5t132.5 -15.5v-643q0 -101 33 -101q7 0 23 4q17 -38 20 -93.5t-10 -96.5q-72 -24 -117 -24zM108 -317l36 240h197l-66 -240h-167z" />
    <glyph glyph-name="Lcaron" unicode="&#x13d;" horiz-adv-x="746" 
d="M469 790l16 333h246l-78 -333h-184zM86 0l-46 47v863q50 17 134.5 14.5t127.5 -14.5v-700h399q24 -28 25 -98.5t-25 -111.5h-615z" />
    <glyph glyph-name="lcaron" unicode="&#x13e;" horiz-adv-x="414" 
d="M414 854l16 333h246l-78 -333h-184zM267 -18q-99 0 -153 56t-54 171v727q43 15 125.5 15.5t132.5 -15.5v-643q0 -101 33 -101q7 0 23 4q17 -38 20 -93.5t-10 -96.5q-72 -24 -117 -24z" />
    <glyph glyph-name="Lslash" unicode="&#x141;" horiz-adv-x="816" 
d="M771 210q24 -28 25 -98.5t-25 -111.5h-615l-46 47v257l-90 -34v238l90 34v368q50 17 134.5 14.5t127.5 -14.5v-270l143 54v-238l-143 -54v-192h399z" />
    <glyph glyph-name="lslash" unicode="&#x142;" horiz-adv-x="465" 
d="M445 492l-107 -45v-154q0 -101 33 -101q7 0 23 4q17 -38 20 -93.5t-10 -96.5q-72 -24 -117 -24q-99 0 -153 56t-54 171v129l-90 -38v208l90 38v390q43 15 125.5 15.5t132.5 -15.5v-281l107 45v-208z" />
    <glyph glyph-name="Nacute" unicode="&#x143;" horiz-adv-x="893" 
d="M738 1160l-231 -182h-152l154 182h229zM591 910q45 16 135 13.5t127 -13.5v-910h-182l-369 449v-449h-262v864q23 29 87.5 48t94.5 8l369 -467v457z" />
    <glyph glyph-name="nacute" unicode="&#x144;" horiz-adv-x="780" 
d="M650 1040l-191 -252h-152l94 252h249zM474 718q141 0 203.5 -85.5t62.5 -254.5v-378h-258v345q0 159 -64 159q-41 0 -74 -58.5t-33 -139.5v-306h-258v489q0 89 -13 176v35q31 6 39.5 7.5t39.5 6.5t50 6t50 1t61 -3q5 -18 8 -51q81 51 186 51z" />
    <glyph glyph-name="uni0145" unicode="&#x145;" horiz-adv-x="893" 
d="M591 910q45 16 135 13.5t127 -13.5v-910h-182l-369 449v-449h-262v864q23 29 87.5 48t94.5 8l369 -467v457zM320 -305l36 240h197l-66 -240h-167z" />
    <glyph glyph-name="uni0146" unicode="&#x146;" horiz-adv-x="780" 
d="M474 718q141 0 203.5 -85.5t62.5 -254.5v-378h-258v345q0 159 -64 159q-41 0 -74 -58.5t-33 -139.5v-306h-258v489q0 89 -13 176v35q31 6 39.5 7.5t39.5 6.5t50 6t50 1t61 -3q5 -18 8 -51q81 51 186 51zM263 -305l36 240h197l-66 -240h-167z" />
    <glyph glyph-name="Ncaron" unicode="&#x147;" horiz-adv-x="893" 
d="M509 971h-121l-190 240h180l70 -73l70 73h178zM591 910q45 16 135 13.5t127 -13.5v-910h-182l-369 449v-449h-262v864q23 29 87.5 48t94.5 8l369 -467v457z" />
    <glyph glyph-name="ncaron" unicode="&#x148;" horiz-adv-x="780" 
d="M478 788h-121l-190 250h180l70 -81l70 81h178zM474 718q141 0 203.5 -85.5t62.5 -254.5v-378h-258v345q0 159 -64 159q-41 0 -74 -58.5t-33 -139.5v-306h-258v489q0 89 -13 176v35q31 6 39.5 7.5t39.5 6.5t50 6t50 1t61 -3q5 -18 8 -51q81 51 186 51z" />
    <glyph glyph-name="Eng" unicode="&#x14a;" horiz-adv-x="895" 
d="M470 -387q-211 0 -358 169q18 62 58.5 113t83.5 65q44 -63 101.5 -95t115.5 -32q75 0 117 60.5t42 152.5l-328 403v-449h-262v844q23 29 87.5 48t94.5 8l369 -448v438q45 16 135 13.5t127 -13.5l2 -878q0 -104 -43.5 -193.5t-133 -147.5t-208.5 -58z" />
    <glyph glyph-name="eng" unicode="&#x14b;" horiz-adv-x="820" 
d="M474 718q141 0 203.5 -85.5t62.5 -254.5v-402q0 -111 -68.5 -180.5t-171.5 -67.5q-53 2 -104 19q-14 45 3 116t46 106q12 -6 18 -6q13 0 16 25.5t3 102.5v254q0 63 -15 93.5t-49 30.5q-41 0 -74 -48t-33 -115v-306h-258v489q0 89 -13 176v35q31 6 39.5 7.5t39.5 6.5t50 6
t50 1t61 -3q8 -31 11 -60q78 60 183 60z" />
    <glyph glyph-name="Omacron" unicode="&#x14c;" horiz-adv-x="897" 
d="M245 1004v170h464v-170h-464zM415 -18q-172 0 -284 125.5t-111 305.5q1 143 58 262t165 190t244 71q165 0 276 -128.5t114 -310.5q2 -135 -54.5 -252.5t-164.5 -190t-243 -72.5zM426 202q82 0 130.5 96t48.5 217q0 94 -35.5 147t-103.5 53q-81 0 -127.5 -89t-46.5 -218
q0 -90 33.5 -148t100.5 -58z" />
    <glyph glyph-name="omacron" unicode="&#x14d;" horiz-adv-x="768" 
d="M132 788v180h504v-180h-504zM359 -18q-158 0 -248.5 98t-90.5 252q0 161 113 273.5t277 112.5q159 0 246 -90t92 -243q5 -182 -105.5 -292.5t-283.5 -110.5zM374 197q45 0 77.5 50.5t32.5 110.5q0 61 -24 103.5t-67 42.5q-44 0 -76.5 -51t-32.5 -122q0 -59 23.5 -96.5
t66.5 -37.5z" />
    <glyph glyph-name="Ohungarumlaut" unicode="&#x150;" horiz-adv-x="897" 
d="M246 994l131 182h200l-198 -182h-133zM477 994l153 182h230l-249 -182h-134zM415 -18q-172 0 -284 125.5t-111 305.5q1 143 58 262t165 190t244 71q165 0 276 -128.5t114 -310.5q2 -135 -54.5 -252.5t-164.5 -190t-243 -72.5zM426 202q82 0 130.5 96t48.5 217
q0 94 -35.5 147t-103.5 53q-81 0 -127.5 -89t-46.5 -218q0 -90 33.5 -148t100.5 -58z" />
    <glyph glyph-name="ohungarumlaut" unicode="&#x151;" horiz-adv-x="768" 
d="M189 788l84 250h230l-161 -250h-153zM430 788l106 250h250l-202 -250h-154zM359 -18q-158 0 -248.5 98t-90.5 252q0 161 113 273.5t277 112.5q159 0 246 -90t92 -243q5 -182 -105.5 -292.5t-283.5 -110.5zM374 197q45 0 77.5 50.5t32.5 110.5q0 61 -24 103.5t-67 42.5
q-44 0 -76.5 -51t-32.5 -122q0 -59 23.5 -96.5t66.5 -37.5z" />
    <glyph glyph-name="OE" unicode="&#x152;" horiz-adv-x="1338" 
d="M1295 210q22 -27 23 -98t-23 -112h-673v40q-100 -58 -217 -58q-171 0 -278.5 125t-106.5 306q0 142 60.5 261.5t170 190.5t246.5 71q89 0 170 -46h611q14 -47 -2 -113t-40 -97h-352v-136h339q12 -49 -3.5 -118.5t-39.5 -91.5h-296v-124h411zM426 202q82 0 130.5 96
t48.5 217q0 94 -35.5 147t-103.5 53q-81 0 -127.5 -89t-46.5 -218q0 -90 33.5 -148t100.5 -58z" />
    <glyph glyph-name="oe" unicode="&#x153;" horiz-adv-x="1224" 
d="M1199 366l-31 -44l-384 -89q36 -38 105 -36q86 3 175 72q36 -16 63.5 -55t36.5 -70l9 -31q-141 -131 -310 -131q-145 0 -243 90q-106 -90 -261 -90q-158 0 -248.5 98t-90.5 252q0 161 113 273.5t277 112.5q148 0 237 -81q97 81 235 81q160 0 250.5 -97.5t66.5 -254.5z
M957 459q5 19 -15.5 39t-59.5 20q-43 0 -76 -27.5t-49 -75.5zM374 197q45 0 77.5 50.5t32.5 110.5q0 61 -24 103.5t-67 42.5q-44 0 -76.5 -51t-32.5 -122q0 -59 23.5 -96.5t66.5 -37.5z" />
    <glyph glyph-name="Racute" unicode="&#x154;" horiz-adv-x="907" 
d="M679 1176l-231 -182h-152l154 182h229zM609 317q112 -143 248 -264l-3 -42q-32 -11 -116 -21.5t-155 -9.5q-36 23 -253 289l-28 3v-272h-262v890q191 46 358 46q189 0 291.5 -86t102.5 -238q1 -101 -47.5 -176.5t-135.5 -118.5zM520 614q0 49 -37.5 80.5t-112.5 31.5
q-35 0 -68 -3v-241q42 -5 81 -5q64 0 100.5 36t36.5 101z" />
    <glyph glyph-name="racute" unicode="&#x155;" horiz-adv-x="559" 
d="M519 1040l-191 -252h-152l94 252h249zM534 691q15 -41 -11.5 -112.5t-61.5 -109.5q-33 16 -62 16q-86 -3 -86 -184v-301h-260v489q0 89 -13 176v35q133 28 229 18q9 -48 10 -72q59 72 136 72q59 0 119 -27z" />
    <glyph glyph-name="uni0156" unicode="&#x156;" horiz-adv-x="907" 
d="M609 317q112 -143 248 -264l-3 -42q-32 -11 -116 -21.5t-155 -9.5q-36 23 -253 289l-28 3v-272h-262v890q191 46 358 46q189 0 291.5 -86t102.5 -238q1 -101 -47.5 -176.5t-135.5 -118.5zM520 614q0 49 -37.5 80.5t-112.5 31.5q-35 0 -68 -3v-241q42 -5 81 -5
q64 0 100.5 36t36.5 101zM324 -305l36 240h197l-66 -240h-167z" />
    <glyph glyph-name="uni0157" unicode="&#x157;" horiz-adv-x="559" 
d="M534 691q15 -41 -11.5 -112.5t-61.5 -109.5q-33 16 -62 16q-86 -3 -86 -184v-301h-260v489q0 89 -13 176v35q133 28 229 18q9 -48 10 -72q59 72 136 72q59 0 119 -27zM24 -305l36 240h197l-66 -240h-167z" />
    <glyph glyph-name="Rcaron" unicode="&#x158;" horiz-adv-x="907" 
d="M450 987h-121l-190 240h180l70 -73l70 73h178zM609 317q112 -143 248 -264l-3 -42q-32 -11 -116 -21.5t-155 -9.5q-36 23 -253 289l-28 3v-272h-262v890q191 46 358 46q189 0 291.5 -86t102.5 -238q1 -101 -47.5 -176.5t-135.5 -118.5zM520 614q0 49 -37.5 80.5
t-112.5 31.5q-35 0 -68 -3v-241q42 -5 81 -5q64 0 100.5 36t36.5 101z" />
    <glyph glyph-name="rcaron" unicode="&#x159;" horiz-adv-x="559" 
d="M347 788h-121l-190 250h180l70 -81l70 81h178zM534 691q15 -41 -11.5 -112.5t-61.5 -109.5q-33 16 -62 16q-86 -3 -86 -184v-301h-260v489q0 89 -13 176v35q133 28 229 18q9 -48 10 -72q59 72 136 72q59 0 119 -27z" />
    <glyph glyph-name="Sacute" unicode="&#x15a;" horiz-adv-x="841" 
d="M345 1004l154 182h229l-231 -182h-152zM446 -18q-118 0 -230 37.5t-196 104.5q7 47 48 114t90 78q141 -124 294 -124q46 0 71.5 27.5t25.5 59.5q0 39 -26.5 63t-97.5 28q-164 5 -258.5 77t-92.5 203q2 128 103 207t260 79q92 0 165 -26.5t117 -70.5t66.5 -96.5
t22.5 -109.5q-51 -14 -121.5 -20.5t-123.5 4.5q-8 50 -36 79.5t-93 29.5q-42 0 -65.5 -21t-23.5 -50q-1 -35 33.5 -54.5t83.5 -22.5q183 -10 271 -84t88 -200q0 -96 -52.5 -168.5t-136.5 -108t-186 -35.5z" />
    <glyph glyph-name="sacute" unicode="&#x15b;" horiz-adv-x="747" 
d="M265 788l94 252h249l-191 -252h-152zM388 -18q-227 0 -358 103q15 48 43.5 101t67.5 79q101 -68 206 -68q47 0 76.5 10.5t29.5 27.5q0 8 -5.5 12.5t-19 7.5t-25 4t-36 3t-39.5 3q-125 13 -196.5 59t-71.5 144q0 100 88 175t225 75q191 0 337 -81q-6 -53 -29 -111t-40 -88
q-127 66 -233 66q-40 0 -62.5 -8.5t-22.5 -21.5q0 -12 16.5 -16t65.5 -6q164 -7 238 -61t74 -156q0 -108 -91 -180.5t-238 -72.5z" />
    <glyph glyph-name="Scedilla" unicode="&#x15e;" horiz-adv-x="841" 
d="M821 294q0 -134 -95.5 -217t-239.5 -94q6 -19 41 -49.5t45 -49.5q24 -44 24 -95q0 -72 -53.5 -126t-127.5 -55q-95 -2 -170 82l115 122q26 -31 52 -31q10 0 16 6.5t6 17.5q0 21 -31.5 46.5t-39.5 38.5q-30 46 -32 101q-179 29 -311 133q7 47 48 114t90 78
q141 -124 294 -124q46 0 71.5 27.5t25.5 59.5q0 39 -26.5 63t-97.5 28q-164 5 -258.5 77t-92.5 203q2 128 103 207t260 79q92 0 165 -26.5t117 -70.5t66.5 -96.5t22.5 -109.5q-51 -14 -121.5 -20.5t-123.5 4.5q-8 50 -36 79.5t-93 29.5q-42 0 -65.5 -21t-23.5 -50
q-1 -35 33.5 -54.5t83.5 -22.5q183 -10 271 -84t88 -200z" />
    <glyph glyph-name="scedilla" unicode="&#x15f;" horiz-adv-x="747" 
d="M717 235q0 -98 -76 -168t-203 -83q6 -20 41.5 -50t45.5 -50q24 -44 24 -95q0 -72 -53.5 -126t-127.5 -55q-95 -2 -170 82l115 122q26 -31 52 -31q10 0 16 6.5t6 17.5q0 21 -31.5 46.5t-39.5 38.5q-28 44 -32 98q-154 19 -254 97q15 48 43.5 101t67.5 79q101 -68 206 -68
q47 0 76.5 10.5t29.5 27.5q0 8 -5.5 12.5t-19 7.5t-25 4t-36 3t-39.5 3q-125 13 -196.5 59t-71.5 144q0 100 88 175t225 75q191 0 337 -81q-6 -53 -29 -111t-40 -88q-127 66 -233 66q-40 0 -62.5 -8.5t-22.5 -21.5q0 -12 16.5 -16t65.5 -6q164 -7 238 -61t74 -156z" />
    <glyph glyph-name="Scaron" unicode="&#x160;" horiz-adv-x="841" 
d="M499 997h-121l-190 240h180l70 -73l70 73h178zM462 578q183 -10 271 -84t88 -200q0 -96 -52.5 -168.5t-136.5 -108t-186 -35.5q-118 0 -230 37.5t-196 104.5q7 47 48 114t90 78q141 -124 294 -124q46 0 71.5 27.5t25.5 59.5q0 39 -26.5 63t-97.5 28q-164 5 -258.5 77
t-92.5 203q2 128 103 207t260 79q92 0 165 -26.5t117 -70.5t66.5 -96.5t22.5 -109.5q-51 -14 -121.5 -20.5t-123.5 4.5q-8 50 -36 79.5t-93 29.5q-42 0 -65.5 -21t-23.5 -50q-1 -35 33.5 -54.5t83.5 -22.5z" />
    <glyph glyph-name="scaron" unicode="&#x161;" horiz-adv-x="747" 
d="M436 788h-121l-190 250h180l70 -81l70 81h178zM405 452q164 -7 238 -61t74 -156q0 -108 -91 -180.5t-238 -72.5q-227 0 -358 103q15 48 43.5 101t67.5 79q101 -68 206 -68q47 0 76.5 10.5t29.5 27.5q0 8 -5.5 12.5t-19 7.5t-25 4t-36 3t-39.5 3q-125 13 -196.5 59
t-71.5 144q0 100 88 175t225 75q191 0 337 -81q-6 -53 -29 -111t-40 -88q-127 66 -233 66q-40 0 -62.5 -8.5t-22.5 -21.5q0 -12 16.5 -16t65.5 -6z" />
    <glyph glyph-name="uni0162" unicode="&#x162;" horiz-adv-x="877" 
d="M583 700v-700h-78q0 -28 40 -63t49 -53q24 -44 24 -95q0 -72 -53.5 -126t-127.5 -55q-95 -2 -170 82l115 122q26 -31 52 -31q10 0 16 6.5t6 17.5q0 21 -31.5 46.5t-39.5 38.5q-32 51 -32 110h-42v700h-285q-11 45 -4 108t28 102h803q10 -46 -4 -114.5t-39 -95.5h-227z
" />
    <glyph glyph-name="uni0163" unicode="&#x163;" horiz-adv-x="558" 
d="M478 215q23 -25 34.5 -98t-1.5 -111q-58 -20 -118 -23q7 -9 36 -34.5t39 -44.5q24 -44 24 -95q0 -72 -53.5 -126t-127.5 -55q-95 -2 -170 82l115 122q26 -31 52 -31q10 0 16 6.5t6 17.5q0 21 -31.5 46.5t-39.5 38.5q-32 51 -32 108q-127 79 -127 311v161h-80v210h80v175
q42 23 117.5 36t140.5 -1v-210h141v-210h-141v-143q0 -77 12 -112t47 -35q25 0 61 15z" />
    <glyph glyph-name="Tcaron" unicode="&#x164;" horiz-adv-x="877" 
d="M497 971h-121l-190 240h180l70 -73l70 73h178zM853 910q10 -46 -4 -114.5t-39 -95.5h-227v-700h-272v700h-285q-11 45 -4 108t28 102h803z" />
    <glyph glyph-name="tcaron" unicode="&#x165;" horiz-adv-x="558" 
d="M450 1149h246l-78 -333h-184zM417 200q25 0 61 15q23 -25 34.5 -98t-1.5 -111q-72 -24 -137 -24q-129 -2 -201.5 83t-72.5 264v161h-80v210h80v175q42 23 117.5 36t140.5 -1v-210h141v-210h-141v-143q0 -77 12 -112t47 -35z" />
    <glyph glyph-name="Tbar" unicode="&#x166;" horiz-adv-x="877" 
d="M830 700h-227v-199h156v-190h-156v-311h-272v311h-152v190h152v199h-285q-11 45 -4 108t28 102h803q10 -46 -4 -114.5t-39 -95.5z" />
    <glyph glyph-name="tbar" unicode="&#x167;" horiz-adv-x="558" 
d="M478 215q23 -25 34.5 -98t-1.5 -111q-72 -24 -137 -24q-123 -2 -194.5 75.5t-78.5 240.5h-81v180h80v60h-80v180h80v157q42 23 117.5 36t140.5 -1v-192h142v-180h-142v-60h142v-180h-141q3 -50 16 -74t42 -24q25 0 61 15z" />
    <glyph glyph-name="Umacron" unicode="&#x16a;" horiz-adv-x="890" 
d="M213 988v170h464v-170h-464zM440 -27q-203 0 -301.5 112t-98.5 320v505q44 15 136 12.5t126 -12.5v-516q0 -92 33 -146.5t105 -54.5q148 0 148 213v504q46 16 136 13t126 -13v-505q0 -200 -105 -316t-305 -116z" />
    <glyph glyph-name="umacron" unicode="&#x16b;" horiz-adv-x="779" 
d="M634 968v-180h-504v180h504zM719 294q0 -174 30 -266l-2 -28h-219q-25 20 -35 51q-80 -69 -181 -69q-121 0 -196.5 79.5t-75.5 244.5v394q59 12 130 11t128 -11v-349q0 -85 15 -119.5t56 -34.5q92 0 92 248v255q49 12 140.5 9t117.5 -9v-406z" />
    <glyph glyph-name="Uring" unicode="&#x16e;" horiz-adv-x="890" 
d="M449 883q-96 0 -150 44.5t-54 115.5q0 68 52.5 113.5t151.5 45.5q98 0 147 -44.5t49 -114.5q0 -68 -53.5 -114t-142.5 -46zM445 993q28 0 44 13.5t16 35.5q0 50 -60 50q-29 0 -44.5 -13.5t-15.5 -36.5q0 -22 17 -35.5t43 -13.5zM440 -27q-203 0 -301.5 112t-98.5 320v505
q44 15 136 12.5t126 -12.5v-516q0 -92 33 -146.5t105 -54.5q148 0 148 213v504q46 16 136 13t126 -13v-505q0 -200 -105 -316t-305 -116z" />
    <glyph glyph-name="uring" unicode="&#x16f;" horiz-adv-x="779" 
d="M386 763q-96 0 -150 44.5t-54 115.5q0 68 52.5 113.5t151.5 45.5q98 0 147 -44.5t49 -114.5q0 -68 -53.5 -114t-142.5 -46zM382 972q-29 0 -44.5 -13.5t-15.5 -36.5q0 -22 17 -35.5t43 -13.5q28 0 44 13.5t16 35.5q0 50 -60 50zM719 294q0 -174 30 -266l-2 -28h-219
q-25 20 -35 51q-80 -69 -181 -69q-121 0 -196.5 79.5t-75.5 244.5v394q59 12 130 11t128 -11v-349q0 -85 15 -119.5t56 -34.5q92 0 92 248v255q49 12 140.5 9t117.5 -9v-406z" />
    <glyph glyph-name="Uhungarumlaut" unicode="&#x170;" horiz-adv-x="890" 
d="M214 978l131 182h200l-198 -182h-133zM445 978l153 182h230l-249 -182h-134zM440 -27q-203 0 -301.5 112t-98.5 320v505q44 15 136 12.5t126 -12.5v-516q0 -92 33 -146.5t105 -54.5q148 0 148 213v504q46 16 136 13t126 -13v-505q0 -200 -105 -316t-305 -116z" />
    <glyph glyph-name="uhungarumlaut" unicode="&#x171;" horiz-adv-x="779" 
d="M501 1038l-161 -250h-153l84 250h230zM582 788h-154l106 250h250zM719 700v-406q0 -174 30 -266l-2 -28h-219q-25 20 -35 51q-80 -69 -181 -69q-121 0 -196.5 79.5t-75.5 244.5v394q59 12 130 11t128 -11v-349q0 -85 15 -119.5t56 -34.5q92 0 92 248v255q49 12 140.5 9
t117.5 -9z" />
    <glyph glyph-name="Uogonek" unicode="&#x172;" horiz-adv-x="890" 
d="M588 910q46 16 136 13t126 -13v-505q0 -184 -89 -297.5t-259 -131.5q-77 -109 -77 -167q0 -13 6.5 -20t15.5 -6q15 0 31 10.5t26 27.5l115 -96q-35 -55 -94.5 -92t-116.5 -37q-74 -2 -121 41t-47 126q0 47 24 109.5t64 110.5q-288 58 -288 422v505q44 15 136 12.5
t126 -12.5v-516q0 -92 33 -146.5t105 -54.5q148 0 148 213v504z" />
    <glyph glyph-name="uogonek" unicode="&#x173;" horiz-adv-x="779" 
d="M674 -170l115 -96q-35 -55 -94.5 -92t-116.5 -37q-74 -2 -121 41t-47 126q0 53 29.5 123t76.5 117q-14 14 -23 39q-80 -69 -181 -69q-121 0 -196.5 79.5t-75.5 244.5v394q59 12 130 11t128 -11v-349q0 -85 15 -119.5t56 -34.5q92 0 92 248v255q49 12 140.5 9t117.5 -9
v-406q0 -174 30 -266l-2 -28h-65q-87 -121 -87 -182q0 -13 6.5 -20t15.5 -6q15 0 31 11t26 27z" />
    <glyph glyph-name="Wcircumflex" unicode="&#x174;" horiz-adv-x="1284" 
d="M638 1042l-70 -65h-180l190 224h121l187 -224h-178zM1227 910q20 -39 33 -108t13.5 -162.5t-14 -192t-55 -206t-103.5 -195.5l-77 -46h-267l-45 26q-8 40 -22.5 121t-15.5 86q-33 -153 -53 -202l-60 -31h-263l-62 31q-43 154 -94 351t-83 319.5t-49 167.5l14 41
q49 12 119.5 12.5t127.5 -12.5q19 -47 42.5 -141t40 -171.5t43 -208.5t35.5 -171h4q27 65 65.5 189.5t49.5 186.5q-9 64 -24 121q23 37 102 70.5t145 26.5q23 -50 68 -246.5t67 -347.5h8q56 97 78.5 236.5t16.5 250.5t-27 186q40 25 109.5 29t132.5 -10z" />
    <glyph glyph-name="wcircumflex" unicode="&#x175;" horiz-adv-x="1091" 
d="M564 861l-70 -73h-180l190 250h121l187 -250h-178zM1071 700q24 -129 -11 -322.5t-127 -356.5l-41 -21h-247l-40 29q-15 47 -42 113q-29 -80 -50 -123l-32 -19h-268l-40 27q-26 106 -64.5 252t-65 247.5t-33.5 135.5l18 38q54 11 124 12.5t125 -12.5q47 -147 95 -466h11
q30 123 59 284l-16 51q22 41 94.5 73.5t143.5 24.5q66 -186 109 -433h15q21 135 26 218.5t-6 228.5q50 27 111.5 31.5t151.5 -12.5z" />
    <glyph glyph-name="Ycircumflex" unicode="&#x176;" horiz-adv-x="875" 
d="M434 1042l-70 -65h-180l190 224h121l187 -224h-178zM850 910q59 -296 -243 -585v-325h-262v349q-209 363 -330 519l17 42q59 12 137 13t137 -13q40 -38 104.5 -151t102.5 -201q54 69 71 177.5t8 154.5q85 53 258 20z" />
    <glyph glyph-name="ycircumflex" unicode="&#x177;" horiz-adv-x="803" 
d="M402 861l-70 -73h-180l190 250h121l187 -250h-178zM772 700q19 -65 21 -150.5t-17 -183t-56 -192t-101 -185t-146 -156.5q-129 -103 -314 -105q-60 -2 -94 17q-37 96 -3 183l42 26q28 -12 57 -12q73 -1 162 86q-62 46 -111.5 100.5t-81 102.5t-55 106.5t-35 98.5t-19 93
t-9 75.5t-2.5 58.5l12 37q53 13 118.5 13.5t115.5 -13.5q0 -1 2 -37.5t5 -56.5t10.5 -62.5t22 -76.5t36.5 -78.5t56.5 -88t79.5 -85.5q33 65 48.5 140.5t14.5 152.5t-5 170q75 54 246 22z" />
    <glyph glyph-name="Ydieresis" unicode="&#x178;" horiz-adv-x="875" 
d="M302 985q-43 0 -75 31.5t-32 74.5q0 41 32.5 73t74.5 32q41 0 73.5 -32t32.5 -73q0 -42 -32 -74t-74 -32zM582 985q-43 0 -75 31.5t-32 74.5q0 41 32.5 73t74.5 32q41 0 73.5 -32t32.5 -73q0 -42 -32 -74t-74 -32zM850 910q59 -296 -243 -585v-325h-262v349
q-209 363 -330 519l17 42q59 12 137 13t137 -13q40 -38 104.5 -151t102.5 -201q54 69 71 177.5t8 154.5q85 53 258 20z" />
    <glyph glyph-name="Zacute" unicode="&#x179;" horiz-adv-x="824" 
d="M703 1160l-231 -182h-152l154 182h229zM780 210q23 -27 24 -98.5t-24 -111.5h-713q-22 20 -36.5 80t-8.5 100q86 143 194.5 289.5t209.5 230.5h-382q-23 27 -24 98.5t24 111.5h706q22 -17 37.5 -89t9.5 -117q-104 -73 -235.5 -226t-202.5 -268h421z" />
    <glyph glyph-name="zacute" unicode="&#x17a;" horiz-adv-x="747" 
d="M608 1040l-191 -252h-152l94 252h249zM702 214q24 -17 25 -94t-25 -120h-626q-26 20 -42.5 81.5t-13.5 108.5q50 69 76 102t80 87.5t122 106.5h-232q-24 28 -25 99t25 115h589q24 -20 40 -98.5t12 -128.5q-76 -25 -163 -91.5t-171 -167.5h329z" />
    <glyph glyph-name="Zdotaccent" unicode="&#x17b;" horiz-adv-x="824" 
d="M412 985q-43 0 -75 31.5t-32 74.5q0 41 32.5 73t74.5 32q41 0 73.5 -32t32.5 -73q0 -42 -32 -74t-74 -32zM780 210q23 -27 24 -98.5t-24 -111.5h-713q-22 20 -36.5 80t-8.5 100q86 143 194.5 289.5t209.5 230.5h-382q-23 27 -24 98.5t24 111.5h706q22 -17 37.5 -89
t9.5 -117q-104 -73 -235.5 -226t-202.5 -268h421z" />
    <glyph glyph-name="zdotaccent" unicode="&#x17c;" horiz-adv-x="747" 
d="M374 763q-56 0 -97.5 41.5t-41.5 96.5q0 54 42 95.5t97 41.5q54 0 96 -42t42 -95q0 -55 -42 -96.5t-96 -41.5zM702 214q24 -17 25 -94t-25 -120h-626q-26 20 -42.5 81.5t-13.5 108.5q50 69 76 102t80 87.5t122 106.5h-232q-24 28 -25 99t25 115h589q24 -20 40 -98.5
t12 -128.5q-76 -25 -163 -91.5t-171 -167.5h329z" />
    <glyph glyph-name="Zcaron" unicode="&#x17d;" horiz-adv-x="824" 
d="M474 971h-121l-190 240h180l70 -73l70 73h178zM780 210q23 -27 24 -98.5t-24 -111.5h-713q-22 20 -36.5 80t-8.5 100q86 143 194.5 289.5t209.5 230.5h-382q-23 27 -24 98.5t24 111.5h706q22 -17 37.5 -89t9.5 -117q-104 -73 -235.5 -226t-202.5 -268h421z" />
    <glyph glyph-name="zcaron" unicode="&#x17e;" horiz-adv-x="747" 
d="M436 788h-121l-190 250h180l70 -81l70 81h178zM702 214q24 -17 25 -94t-25 -120h-626q-26 20 -42.5 81.5t-13.5 108.5q50 69 76 102t80 87.5t122 106.5h-232q-24 28 -25 99t25 115h589q24 -20 40 -98.5t12 -128.5q-76 -25 -163 -91.5t-171 -167.5h329z" />
    <glyph glyph-name="longs" unicode="&#x17f;" horiz-adv-x="443" 
d="M100 0v629q0 172 63.5 256.5t204.5 85.5q72 0 161 -19q10 -35 -5 -108.5t-38 -97.5q-40 11 -69 11q-36 -1 -47.5 -30.5t-11.5 -90.5v-636h-258z" />
    <glyph glyph-name="florin" unicode="&#x192;" horiz-adv-x="471" 
d="M411 483v-212h-60q10 -132 10 -246q0 -108 -72.5 -170t-182.5 -62v212q12 0 24.5 10.5t12.5 31.5q0 42 -12 224h-71v212h58q-5 98 -5 175q0 113 68.5 172t188.5 59v-213q-15 0 -27 -12t-12 -33q0 -63 5 -148h75z" />
    <glyph glyph-name="uni01C7" unicode="&#x1c7;" horiz-adv-x="1507" 
d="M86 0l-46 47v863q50 17 134.5 14.5t127.5 -14.5v-700h399q24 -28 25 -98.5t-25 -111.5h-615zM1082 -18q-211 0 -358 169q18 62 58.5 113t83.5 65q38 -63 87.5 -95t100.5 -32q151 0 151 204v504q58 13 143.5 12t118.5 -12v-539q0 -102 -43.5 -189t-133 -143.5
t-208.5 -56.5z" />
    <glyph glyph-name="uni01C8" unicode="&#x1c8;" horiz-adv-x="1069" 
d="M893 763q-56 0 -97.5 41.5t-41.5 96.5q0 54 42 95.5t97 41.5q54 0 96 -42t42 -95q0 -55 -42 -96.5t-96 -41.5zM86 0l-46 47v863q50 17 134.5 14.5t127.5 -14.5v-700h399q24 -28 25 -98.5t-25 -111.5h-615zM784 -272q-53 2 -104 19q-14 45 3 116t46 106q12 -6 18 -6
q13 0 16 25.5t3 102.5v609q42 13 132.5 12.5t125.5 -12.5v-724q0 -111 -68.5 -180.5t-171.5 -67.5z" />
    <glyph glyph-name="uni01C9" unicode="&#x1c9;" horiz-adv-x="779" 
d="M603 763q-56 0 -97.5 41.5t-41.5 96.5q0 54 42 95.5t97 41.5q54 0 96 -42t42 -95q0 -55 -42 -96.5t-96 -41.5zM267 -18q-99 0 -153 56t-54 171v727q43 15 125.5 15.5t132.5 -15.5v-643q0 -101 33 -101q7 0 23 4q17 -38 20 -93.5t-10 -96.5q-72 -24 -117 -24zM494 -272
q-53 2 -104 19q-14 45 3 116t46 106q12 -6 18 -6q13 0 16 25.5t3 102.5v609q42 13 132.5 12.5t125.5 -12.5v-724q0 -111 -68.5 -180.5t-171.5 -67.5z" />
    <glyph glyph-name="uni01CA" unicode="&#x1ca;" horiz-adv-x="1638" 
d="M591 910q45 16 135 13.5t127 -13.5v-910h-182l-369 449v-449h-262v864q23 29 87.5 48t94.5 8l369 -467v457zM1336 910q58 13 143.5 12t118.5 -12v-539q0 -102 -43.5 -189t-133 -143.5t-208.5 -56.5q-211 0 -358 169q18 62 58.5 113t83.5 65q38 -63 87.5 -95t100.5 -32
q151 0 151 204v504z" />
    <glyph glyph-name="uni01CB" unicode="&#x1cb;" horiz-adv-x="1230" 
d="M1054 763q-56 0 -97.5 41.5t-41.5 96.5q0 54 42 95.5t97 41.5q54 0 96 -42t42 -95q0 -55 -42 -96.5t-96 -41.5zM853 0h-182l-369 449v-449h-262v864q23 29 87.5 48t94.5 8l369 -467v457q45 16 135 13.5t127 -13.5v-910zM927 700q42 13 132.5 12.5t125.5 -12.5v-724
q0 -111 -68.5 -180.5t-171.5 -67.5q-53 2 -104 19q-14 45 3 116t46 106q12 -6 18 -6q13 0 16 25.5t3 102.5v609z" />
    <glyph glyph-name="uni01CC" unicode="&#x1cc;" horiz-adv-x="1145" 
d="M969 763q-56 0 -97.5 41.5t-41.5 96.5q0 54 42 95.5t97 41.5q54 0 96 -42t42 -95q0 -55 -42 -96.5t-96 -41.5zM474 718q141 0 203.5 -85.5t62.5 -254.5v-378h-258v345q0 159 -64 159q-41 0 -74 -58.5t-33 -139.5v-306h-258v489q0 89 -13 176v35q31 6 39.5 7.5t39.5 6.5
t50 6t50 1t61 -3q5 -18 8 -51q81 51 186 51zM842 700q42 13 132.5 12.5t125.5 -12.5v-724q0 -111 -68.5 -180.5t-171.5 -67.5q-53 2 -104 19q-14 45 3 116t46 106q12 -6 18 -6q13 0 16 25.5t3 102.5v609z" />
    <glyph glyph-name="uni01CD" unicode="&#x1cd;" horiz-adv-x="942" 
d="M514 971h-121l-190 240h180l70 -73l70 73h178zM570 910q17 -41 102 -267t159 -404.5t101 -200.5l-16 -38q-201 -7 -278 29q-19 19 -55 134h-254l-41 -163h-278l317 910q46 18 124 17t119 -17zM383 373h139q-46 167 -73 263z" />
    <glyph glyph-name="uni01CE" unicode="&#x1ce;" horiz-adv-x="737" 
d="M471 788h-121l-190 250h180l70 -81l70 81h178zM686 312q1 -95 6 -156t10 -80.5t15 -50.5l-3 -25h-218q-19 15 -31 48q-36 -29 -76.5 -44.5t-68.5 -18.5t-69 -3q-87 0 -149.5 53t-61.5 133q1 107 104.5 188t246.5 97l28 3q-21 51 -70 50q-68 -2 -184 -65q-74 26 -92 167
q163 108 307 110q138 2 220.5 -83t84.5 -240zM424 287l3 11q-10 0 -26 -2q-47 -6 -81 -29.5t-34 -48.5q0 -17 10 -28t25 -11q39 0 65.5 33.5t37.5 74.5z" />
    <glyph glyph-name="uni01CF" unicode="&#x1cf;" horiz-adv-x="322" 
d="M223 971h-121l-190 240h180l70 -73l70 73h178zM40 911q46 17 125.5 14t116.5 -14v-911h-242v911z" />
    <glyph glyph-name="uni01D0" unicode="&#x1d0;" horiz-adv-x="348" 
d="M236 788h-121l-190 250h180l70 -81l70 81h178zM45 700q41 12 131.5 12.5t126.5 -12.5v-700h-258v700z" />
    <glyph glyph-name="uni01D2" unicode="&#x1d2;" horiz-adv-x="768" 
d="M446 788h-121l-190 250h180l70 -81l70 81h178zM748 385q5 -182 -105.5 -292.5t-283.5 -110.5q-158 0 -248.5 98t-90.5 252q0 161 113 273.5t277 112.5q159 0 246 -90t92 -243zM374 197q45 0 77.5 50.5t32.5 110.5q0 61 -24 103.5t-67 42.5q-44 0 -76.5 -51t-32.5 -122
q0 -59 23.5 -96.5t66.5 -37.5z" />
    <glyph glyph-name="uni01D3" unicode="&#x1d3;" horiz-adv-x="890" 
d="M507 971h-121l-190 240h180l70 -73l70 73h178zM588 910q46 16 136 13t126 -13v-505q0 -200 -105 -316t-305 -116q-203 0 -301.5 112t-98.5 320v505q44 15 136 12.5t126 -12.5v-516q0 -92 33 -146.5t105 -54.5q148 0 148 213v504z" />
    <glyph glyph-name="uni01D4" unicode="&#x1d4;" horiz-adv-x="779" 
d="M444 788h-121l-190 250h180l70 -81l70 81h178zM719 294q0 -174 30 -266l-2 -28h-219q-25 20 -35 51q-80 -69 -181 -69q-121 0 -196.5 79.5t-75.5 244.5v394q59 12 130 11t128 -11v-349q0 -85 15 -119.5t56 -34.5q92 0 92 248v255q49 12 140.5 9t117.5 -9v-406z" />
    <glyph glyph-name="uni01E2" unicode="&#x1e2;" horiz-adv-x="1336" 
d="M1116 1138v-170h-464v170h464zM1293 210q22 -27 23 -98t-23 -112h-623v163h-236l-98 -163h-326l627 910h639q14 -47 -2 -113t-40 -97h-302v-146h289q12 -49 -3.5 -118.5t-39.5 -91.5h-246v-134h361zM560 372l110 -1v184z" />
    <glyph glyph-name="uni01E3" unicode="&#x1e3;" horiz-adv-x="1137" 
d="M826 968v-180h-504v180h504zM1112 371l-31 -44l-385 -93q37 -39 106 -37q86 3 175 72q36 -16 63.5 -55t36.5 -70l9 -31q-141 -131 -310 -131q-152 -2 -252 100q-117 -107 -273 -100q-88 4 -150 55.5t-61 130.5q1 107 104.5 188t246.5 97l28 3q-21 51 -70 50
q-68 -2 -184 -65q-74 26 -92 167q163 108 307 110q117 2 191 -72q96 72 224 72q160 0 250.5 -95t66.5 -252zM870 444q5 23 -15.5 48.5t-59.5 25.5q-47 0 -83 -34t-48 -92zM424 287l3 11q-10 0 -26 -2q-47 -6 -81 -29.5t-34 -48.5q0 -17 10 -28t25 -11q39 0 65.5 33.5
t37.5 74.5z" />
    <glyph glyph-name="Gcaron" unicode="&#x1e6;" horiz-adv-x="799" 
d="M542 997h-121l-190 240h180l70 -73l70 73h178zM485 716q-84 0 -128.5 -73.5t-44.5 -195.5q0 -108 46 -176.5t137 -68.5q53 0 99 10v87h-175q-12 49 3 118.5t37 91.5h359l28 -31v-389q-57 -51 -156.5 -79t-194.5 -28q-197 0 -326 129t-129 348q0 95 30.5 181t85.5 152
t139 105t185 39q163 0 267.5 -96t99.5 -235q-55 -13 -126 -20t-126 3q-12 65 -42.5 96.5t-67.5 31.5z" />
    <glyph glyph-name="gcaron" unicode="&#x1e7;" horiz-adv-x="783" 
d="M449 788h-121l-190 250h180l70 -81l70 81h178zM518 718q16 2 31.5 3t31 0.5t27 -0.5t27 -2t23.5 -3t23.5 -4t20.5 -3.5t21.5 -4t19.5 -4.5v-32q-14 -79 -14 -190v-388q0 -180 -97.5 -284t-246.5 -106q-171 -2 -335 112q10 60 36.5 112.5t64.5 75.5q134 -89 217 -86
q45 2 76.5 32t41.5 84q-62 -48 -136 -48q-146 0 -238 92.5t-92 248.5q0 181 92.5 287.5t243.5 106.5q73 0 150 -45zM376 200q42 0 66.5 68t24.5 202q0 12 -24.5 23t-45.5 11q-55 0 -83.5 -43t-28.5 -113q0 -65 24.5 -106.5t66.5 -41.5z" />
    <glyph glyph-name="uni01E8" unicode="&#x1e8;" horiz-adv-x="926" 
d="M530 971h-121l-190 240h180l70 -73l70 73h178zM569 447q72 -96 100 -132.5t95 -111t142 -141.5l-2 -39q-37 -13 -115.5 -27t-147.5 -14q-65 49 -276 334q-10 -5 -63 -32v-284h-262v910q49 17 137 14t125 -14v-384q60 34 107 69q192 143 180 300q37 25 109.5 29t134.5 -10
q25 -95 -33.5 -218t-191.5 -221q-22 -15 -39 -28z" />
    <glyph glyph-name="uni01E9" unicode="&#x1e9;" horiz-adv-x="841" 
d="M488 988h-121l-190 250h180l70 -81l70 81h178zM569 348q16 -20 42 -51t37.5 -45t30.5 -37t27.5 -32.5t22.5 -26t21 -24t18 -18.5t18.5 -17.5t16.5 -13.5l18 -14v-41q-38 -14 -126 -25.5t-166 -10.5q-5 3 -11.5 8t-14.5 13.5t-15 16t-18 21.5t-18.5 24t-21.5 28
t-22.5 29.5t-24.5 33.5t-26 35q-31 -17 -59 -30v-171h-258v936q51 17 131.5 16.5t126.5 -16.5v-505l11 8q84 62 134 120t47 120q104 48 275 21q24 -80 -30 -174t-166 -178z" />
    <glyph glyph-name="uni01EB" unicode="&#x1eb;" horiz-adv-x="768" 
d="M748 385q4 -151 -73.5 -255t-209.5 -136q-82 -116 -82 -175q0 -13 6.5 -20t15.5 -6q15 0 31 10.5t26 27.5l115 -96q-35 -55 -94.5 -92t-116.5 -37q-74 -2 -121 41t-47 126q0 46 23 107t61 109q-124 23 -193 116t-69 227q0 161 113 273.5t277 112.5q159 0 246 -90t92 -243
zM393 504q-44 0 -76.5 -51t-32.5 -122q0 -59 23.5 -96.5t66.5 -37.5q45 0 77.5 50.5t32.5 110.5q0 61 -24 103.5t-67 42.5z" />
    <glyph glyph-name="uni01F0" unicode="&#x1f0;" horiz-adv-x="365" 
d="M251 788h-121l-190 250h180l70 -81l70 81h178zM62 700q42 13 132.5 12.5t125.5 -12.5v-724q0 -111 -68.5 -180.5t-171.5 -67.5q-53 2 -104 19q-14 45 3 116t46 106q12 -6 18 -6q13 0 16 25.5t3 102.5v609z" />
    <glyph glyph-name="uni01F4" unicode="&#x1f4;" horiz-adv-x="867" 
d="M751 1186l-231 -182h-152l154 182h229zM465 716q-84 0 -128.5 -73.5t-44.5 -195.5q0 -108 46 -176.5t137 -68.5q53 0 99 10v87h-175q-12 49 3 118.5t37 91.5h359l28 -31v-389q-57 -51 -156.5 -79t-194.5 -28q-197 0 -326 129t-129 348q0 95 30.5 181t85.5 152t139 105
t185 39q163 0 267.5 -96t99.5 -235q-55 -13 -126 -20t-126 3q-12 65 -42.5 96.5t-67.5 31.5z" />
    <glyph glyph-name="uni01F4" unicode="&#x1f5;" horiz-adv-x="867" 
d="M751 1186l-231 -182h-152l154 182h229zM465 716q-84 0 -128.5 -73.5t-44.5 -195.5q0 -108 46 -176.5t137 -68.5q53 0 99 10v87h-175q-12 49 3 118.5t37 91.5h359l28 -31v-389q-57 -51 -156.5 -79t-194.5 -28q-197 0 -326 129t-129 348q0 95 30.5 181t85.5 152t139 105
t185 39q163 0 267.5 -96t99.5 -235q-55 -13 -126 -20t-126 3q-12 65 -42.5 96.5t-67.5 31.5z" />
    <glyph glyph-name="uni01F8" unicode="&#x1f8;" horiz-adv-x="893" 
d="M526 976h-152l-231 184h229zM591 910q45 16 135 13.5t127 -13.5v-910h-182l-369 449v-449h-262v864q23 29 87.5 48t94.5 8l369 -467v457z" />
    <glyph glyph-name="uni01F9" unicode="&#x1f9;" horiz-adv-x="776" 
d="M542 788h-163l-241 252h246zM514 718q141 0 203.5 -85.5t62.5 -254.5v-378h-258v345q0 159 -64 159q-41 0 -74 -58.5t-33 -139.5v-306h-258v489q0 89 -13 176v35q31 6 39.5 7.5t39.5 6.5t50 6t50 1t61 -3q5 -18 8 -51q81 51 186 51z" />
    <glyph glyph-name="Aringacute" unicode="&#x1fa;" horiz-adv-x="942" 
d="M671 1311l-186 -120h-126l74 120h238zM570 910q17 -41 102 -267t159 -404.5t101 -200.5l-16 -38q-201 -7 -278 29q-19 19 -55 134h-254l-41 -163h-278l317 910q30 13 83 16q-71 7 -111 40t-40 81q0 53 48.5 88t139.5 35t135.5 -34t44.5 -89q0 -47 -39 -80.5t-107 -40.5
q55 -3 89 -16zM443 1085q-41 0 -41 -38q0 -17 11.5 -27.5t29.5 -10.5q20 0 30.5 10.5t10.5 27.5q0 38 -41 38zM383 373h139q-46 167 -73 263z" />
    <glyph glyph-name="aringacute" unicode="&#x1fb;" horiz-adv-x="737" 
d="M600 1128l-186 -120h-126l74 120h238zM376 741q-88 0 -138 34t-50 89q0 53 48.5 88t139.5 35t135.5 -34t44.5 -89q0 -53 -49 -88t-131 -35zM372 902q-41 0 -41 -38q0 -17 11.5 -27.5t29.5 -10.5q20 0 30.5 10.5t10.5 27.5q0 38 -41 38zM686 312q1 -95 6 -156t10 -80.5
t15 -50.5l-3 -25h-218q-19 15 -31 48q-36 -29 -76.5 -44.5t-68.5 -18.5t-69 -3q-87 0 -149.5 53t-61.5 133q1 107 104.5 188t246.5 97l28 3q-21 51 -70 50q-68 -2 -184 -65q-74 26 -92 167q163 108 307 110q138 2 220.5 -83t84.5 -240zM424 287l3 11q-10 0 -26 -2
q-47 -6 -81 -29.5t-34 -48.5q0 -17 10 -28t25 -11q39 0 65.5 33.5t37.5 74.5z" />
    <glyph glyph-name="AEacute" unicode="&#x1fc;" horiz-adv-x="1336" 
d="M1175 1140l-231 -182h-152l154 182h229zM1293 210q22 -27 23 -98t-23 -112h-623v163h-236l-98 -163h-326l627 910h639q14 -47 -2 -113t-40 -97h-302v-146h289q12 -49 -3.5 -118.5t-39.5 -91.5h-246v-134h361zM560 372l110 -1v184z" />
    <glyph glyph-name="aeacute" unicode="&#x1fd;" horiz-adv-x="1137" 
d="M808 1040l-191 -252h-152l94 252h249zM1112 371l-31 -44l-385 -93q37 -39 106 -37q86 3 175 72q36 -16 63.5 -55t36.5 -70l9 -31q-141 -131 -310 -131q-152 -2 -252 100q-117 -107 -273 -100q-88 4 -150 55.5t-61 130.5q1 107 104.5 188t246.5 97l28 3q-21 51 -70 50
q-68 -2 -184 -65q-74 26 -92 167q163 108 307 110q117 2 191 -72q96 72 224 72q160 0 250.5 -95t66.5 -252zM870 444q5 23 -15.5 48.5t-59.5 25.5q-47 0 -83 -34t-48 -92zM424 287l3 11q-10 0 -26 -2q-47 -6 -81 -29.5t-34 -48.5q0 -17 10 -28t25 -11q39 0 65.5 33.5
t37.5 74.5z" />
    <glyph glyph-name="Oslashacute" unicode="&#x1fe;" horiz-adv-x="1057" 
d="M848 1176l-231 -182h-152l154 182h229zM896 732q60 -106 61 -235q2 -135 -54.5 -252.5t-164.5 -190t-243 -72.5q-119 0 -212 63l-41 -45h-222l148 165q-68 110 -68 248q1 143 58 262t165 190t244 71q123 0 221 -76l26 30h223zM372 408v-13l258 289q-33 31 -84 31
q-81 0 -127.5 -89t-46.5 -218zM506 202q53 0 94 44.5t61.5 110t23.5 139.5l-245 -274q28 -20 66 -20z" />
    <glyph glyph-name="oslashacute" unicode="&#x1ff;" horiz-adv-x="798" 
d="M640 1040l-191 -252h-152l94 252h249zM778 700v-25l-74 -78q61 -84 66 -212q5 -182 -105.5 -292.5t-283.5 -110.5q-117 0 -201 57l-37 -39h-123v25l83 91q-61 90 -61 216q0 161 113 273.5t277 112.5q108 0 183 -43l23 25h140zM415 504q-44 0 -76.5 -51t-32.5 -122v-2
l149 163q-18 12 -40 12zM396 197q45 0 77.5 50.5t32.5 110.5q0 11 -2 35l-162 -174q22 -22 54 -22z" />
    <glyph glyph-name="uni0202" unicode="&#x202;" horiz-adv-x="942" 
d="M453 1027q-42 0 -61 -24t-19 -55h-178q0 122 72 187t186 65q117 0 186 -62.5t69 -189.5h-177q0 33 -20.5 56t-57.5 23zM570 910q17 -41 102 -267t159 -404.5t101 -200.5l-16 -38q-201 -7 -278 29q-19 19 -55 134h-254l-41 -163h-278l317 910q46 18 124 17t119 -17z
M383 373h139q-46 167 -73 263z" />
    <glyph glyph-name="uni0203" unicode="&#x203;" horiz-adv-x="737" 
d="M410 867q-42 0 -61 -24t-19 -55h-178q0 122 72 187t186 65q117 0 186 -62.5t69 -189.5h-177q0 33 -20.5 56t-57.5 23zM686 312q1 -95 6 -156t10 -80.5t15 -50.5l-3 -25h-218q-19 15 -31 48q-36 -29 -76.5 -44.5t-68.5 -18.5t-69 -3q-87 0 -149.5 53t-61.5 133
q1 107 104.5 188t246.5 97l28 3q-21 51 -70 50q-68 -2 -184 -65q-74 26 -92 167q163 108 307 110q138 2 220.5 -83t84.5 -240zM424 287l3 11q-10 0 -26 -2q-47 -6 -81 -29.5t-34 -48.5q0 -17 10 -28t25 -11q39 0 65.5 33.5t37.5 74.5z" />
    <glyph glyph-name="uni0206" unicode="&#x206;" horiz-adv-x="756" 
d="M384 1027q-42 0 -61 -24t-19 -55h-178q0 122 72 187t186 65q117 0 186 -62.5t69 -189.5h-177q0 33 -20.5 56t-57.5 23zM713 210q22 -27 23 -98t-23 -112h-673v885l25 25h631q14 -47 -2 -113t-40 -97h-352v-146h339q12 -49 -3.5 -118.5t-39.5 -91.5h-296v-134h411z" />
    <glyph glyph-name="uni0207" unicode="&#x207;" horiz-adv-x="730" 
d="M397 867q-42 0 -61 -24t-19 -55h-178q0 122 72 187t186 65q117 0 186 -62.5t69 -189.5h-177q0 33 -20.5 56t-57.5 23zM705 371l-31 -44l-385 -93q37 -39 106 -37q86 3 175 72q36 -16 63.5 -55t36.5 -70l9 -31q-141 -131 -310 -131q-146 -1 -247.5 94.5t-101.5 254.5
q0 167 102 277t266 110q160 0 250.5 -95t66.5 -252zM463 453q5 20 -15.5 42.5t-59.5 22.5q-46 0 -81 -31.5t-48 -85.5z" />
    <glyph glyph-name="uni020A" unicode="&#x20a;" horiz-adv-x="33" 
d="M-200 948q0 122 72 187t186 65q117 0 186 -62.5t69 -189.5h-177q0 33 -20.5 56t-57.5 23q-42 0 -61 -24t-19 -55h-178zM-64 0v911q46 17 125.5 14t116.5 -14v-911h-242z" />
    <glyph glyph-name="uni020B" unicode="&#x20b;" horiz-adv-x="348" 
d="M-83 788q0 122 72 187t186 65q117 0 186 -62.5t69 -189.5h-177q0 33 -20.5 56t-57.5 23q-42 0 -61 -24t-19 -55h-178zM45 0v700q41 12 131.5 12.5t126.5 -12.5v-700h-258z" />
    <glyph glyph-name="uni020E" unicode="&#x20e;" horiz-adv-x="897" 
d="M220 964q0 122 72 187t186 65q117 0 186 -62.5t69 -189.5h-177q0 33 -20.5 56t-57.5 23q-42 0 -61 -24t-19 -55h-178zM415 -18q-172 0 -284 125.5t-111 305.5q1 143 58 262t165 190t244 71q165 0 276 -128.5t114 -310.5q2 -135 -54.5 -252.5t-164.5 -190t-243 -72.5z
M426 202q82 0 130.5 96t48.5 217q0 94 -35.5 147t-103.5 53q-81 0 -127.5 -89t-46.5 -218q0 -90 33.5 -148t100.5 -58z" />
    <glyph glyph-name="uni020F" unicode="&#x20f;" horiz-adv-x="768" 
d="M127 788q0 122 72 187t186 65q117 0 186 -62.5t69 -189.5h-177q0 33 -20.5 56t-57.5 23q-42 0 -61 -24t-19 -55h-178zM359 -18q-158 0 -248.5 98t-90.5 252q0 161 113 273.5t277 112.5q159 0 246 -90t92 -243q5 -182 -105.5 -292.5t-283.5 -110.5zM374 197
q45 0 77.5 50.5t32.5 110.5q0 61 -24 103.5t-67 42.5q-44 0 -76.5 -51t-32.5 -122q0 -59 23.5 -96.5t66.5 -37.5z" />
    <glyph glyph-name="uni0212" unicode="&#x212;" horiz-adv-x="907" 
d="M389 1043q-42 0 -61 -24t-19 -55h-178q0 122 72 187t186 65q117 0 186 -62.5t69 -189.5h-177q0 33 -20.5 56t-57.5 23zM609 317q112 -143 248 -264l-3 -42q-32 -11 -116 -21.5t-155 -9.5q-36 23 -253 289l-28 3v-272h-262v890q191 46 358 46q189 0 291.5 -86t102.5 -238
q1 -101 -47.5 -176.5t-135.5 -118.5zM520 614q0 49 -37.5 80.5t-112.5 31.5q-35 0 -68 -3v-241q42 -5 81 -5q64 0 100.5 36t36.5 101z" />
    <glyph glyph-name="uni0213" unicode="&#x213;" horiz-adv-x="573" 
d="M298 867q-42 0 -61 -24t-19 -55h-178q0 122 72 187t186 65q117 0 186 -62.5t69 -189.5h-177q0 33 -20.5 56t-57.5 23zM427 718q59 0 119 -27q15 -41 -11.5 -112.5t-61.5 -109.5q-33 16 -62 16q-86 -3 -86 -184v-301h-260v489q0 89 -13 176v35q133 28 229 18q9 -48 10 -72
q59 72 136 72z" />
    <glyph glyph-name="uni0218" unicode="&#x218;" horiz-adv-x="841" 
d="M446 -18q-118 0 -230 37.5t-196 104.5q7 47 48 114t90 78q141 -124 294 -124q46 0 71.5 27.5t25.5 59.5q0 39 -26.5 63t-97.5 28q-164 5 -258.5 77t-92.5 203q2 128 103 207t260 79q92 0 165 -26.5t117 -70.5t66.5 -96.5t22.5 -109.5q-51 -14 -121.5 -20.5t-123.5 4.5
q-8 50 -36 79.5t-93 29.5q-42 0 -65.5 -21t-23.5 -50q-1 -35 33.5 -54.5t83.5 -22.5q183 -10 271 -84t88 -200q0 -96 -52.5 -168.5t-136.5 -108t-186 -35.5zM294 -305l36 240h197l-66 -240h-167z" />
    <glyph glyph-name="uni0219" unicode="&#x219;" horiz-adv-x="747" 
d="M388 -18q-227 0 -358 103q15 48 43.5 101t67.5 79q101 -68 206 -68q47 0 76.5 10.5t29.5 27.5q0 8 -5.5 12.5t-19 7.5t-25 4t-36 3t-39.5 3q-125 13 -196.5 59t-71.5 144q0 100 88 175t225 75q191 0 337 -81q-6 -53 -29 -111t-40 -88q-127 66 -233 66q-40 0 -62.5 -8.5
t-22.5 -21.5q0 -12 16.5 -16t65.5 -6q164 -7 238 -61t74 -156q0 -108 -91 -180.5t-238 -72.5zM247 -305l36 240h197l-66 -240h-167z" />
    <glyph glyph-name="uni021A" unicode="&#x21a;" horiz-adv-x="877" 
d="M853 910q10 -46 -4 -114.5t-39 -95.5h-227v-700h-272v700h-285q-11 45 -4 108t28 102h803zM316 -305l36 240h197l-66 -240h-167z" />
    <glyph glyph-name="uni021B" unicode="&#x21b;" horiz-adv-x="558" 
d="M478 215q23 -25 34.5 -98t-1.5 -111q-72 -24 -137 -24q-129 -2 -201.5 83t-72.5 264v161h-80v210h80v175q42 23 117.5 36t140.5 -1v-210h141v-210h-141v-143q0 -77 12 -112t47 -35q25 0 61 15zM190 -285l36 240h197l-66 -240h-167z" />
    <glyph glyph-name="uni0237" unicode="&#x237;" horiz-adv-x="365" 
d="M80 -272q-53 2 -104 19q-14 45 3 116t46 106q12 -6 18 -6q13 0 16 25.5t3 102.5v609q42 13 132.5 12.5t125.5 -12.5v-724q0 -111 -68.5 -180.5t-171.5 -67.5z" />
    <glyph glyph-name="circumflex" unicode="&#x2c6;" horiz-adv-x="578" 
d="M538 788h-178l-70 81l-70 -81h-180l190 250h121z" />
    <glyph glyph-name="caron" unicode="&#x2c7;" horiz-adv-x="578" 
d="M360 1038h178l-187 -250h-121l-190 250h180l70 -81z" />
    <glyph glyph-name="breve" unicode="&#x2d8;" horiz-adv-x="593" 
d="M295 763q-117 0 -186 62.5t-69 189.5h177q0 -33 20.5 -56t57.5 -23q42 0 61 24t19 55h178q0 -122 -72 -187t-186 -65z" />
    <glyph glyph-name="dotaccent" unicode="&#x2d9;" horiz-adv-x="357" 
d="M179 763q-56 0 -97.5 41.5t-41.5 96.5q0 54 42 95.5t97 41.5q54 0 96 -42t42 -95q0 -55 -42 -96.5t-96 -41.5z" />
    <glyph glyph-name="ring" unicode="&#x2da;" horiz-adv-x="480" 
d="M244 713q-96 0 -150 44.5t-54 115.5q0 68 52.5 113.5t151.5 45.5q98 0 147 -44.5t49 -114.5q0 -68 -53.5 -114t-142.5 -46zM240 823q28 0 44 13.5t16 35.5q0 50 -60 50q-29 0 -44.5 -13.5t-15.5 -36.5q0 -22 17 -35.5t43 -13.5z" />
    <glyph glyph-name="ogonek" unicode="&#x2db;" horiz-adv-x="459" 
d="M208 -399q-74 -2 -121 41t-47 126q0 57 34 133t87 121l159 -15q-95 -131 -95 -193q0 -13 6.5 -20t15.5 -6q15 0 31 11t26 27l115 -96q-35 -55 -94.5 -92t-116.5 -37z" />
    <glyph glyph-name="tilde" unicode="&#x2dc;" horiz-adv-x="537" 
d="M355 783q-42 0 -86 26t-54 26q-30 0 -30 -47h-145q0 105 37.5 178t104.5 73q29 0 56.5 -13t47.5 -26.5t31 -13.5q34 0 34 48h146q0 -105 -37 -178t-105 -73z" />
    <glyph glyph-name="hungarumlaut" unicode="&#x2dd;" horiz-adv-x="717" 
d="M80 788l84 250h230l-161 -250h-153zM321 788l106 250h250l-202 -250h-154z" />
    <glyph glyph-name="gravecomb" unicode="&#x300;" 
d="M-203 788l-241 252h246l158 -252h-163z" />
    <glyph glyph-name="acutecomb" unicode="&#x301;" 
d="M-383 788l94 252h249l-191 -252h-152z" />
    <glyph glyph-name="uni0302" unicode="&#x302;" 
d="M-40 788h-178l-70 73l-70 -73h-180l190 250h121z" />
    <glyph glyph-name="tildecomb" unicode="&#x303;" 
d="M-182 783q-42 0 -86 26t-54 26q-30 0 -30 -47h-145q0 105 37.5 178t104.5 73q29 0 56.5 -13t47.5 -26.5t31 -13.5q34 0 34 48h146q0 -105 -37 -178t-105 -73z" />
    <glyph glyph-name="uni0304" unicode="&#x304;" 
d="M-584 788v180h504v-180h-504z" />
    <glyph glyph-name="uni0306" unicode="&#x306;" 
d="M-298 763q-117 0 -186 62.5t-69 189.5h177q0 -33 20.5 -56t57.5 -23q42 0 61 24t19 55h178q0 -122 -72 -187t-186 -65z" />
    <glyph glyph-name="uni0307" unicode="&#x307;" 
d="M-178 763q-56 0 -97.5 41.5t-41.5 96.5q0 54 42 95.5t97 41.5q54 0 96 -42t42 -95q0 -55 -42 -96.5t-96 -41.5z" />
    <glyph glyph-name="uni0308" unicode="&#x308;" 
d="M-572 763q-56 0 -97.5 41.5t-41.5 96.5q0 54 42 95.5t97 41.5q54 0 96 -42t42 -95q0 -55 -42 -96.5t-96 -41.5zM-218 763q-56 0 -97.5 41.5t-41.5 96.5q0 54 42 95.5t97 41.5q54 0 96 -42t42 -95q0 -55 -42 -96.5t-96 -41.5z" />
    <glyph glyph-name="uni030A" unicode="&#x30a;" 
d="M-236 763q-96 0 -150 44.5t-54 115.5q0 68 52.5 113.5t151.5 45.5q98 0 147 -44.5t49 -114.5q0 -68 -53.5 -114t-142.5 -46zM-240 873q28 0 44 13.5t16 35.5q0 50 -60 50q-29 0 -44.5 -13.5t-15.5 -36.5q0 -22 17 -35.5t43 -13.5z" />
    <glyph glyph-name="uni030B" unicode="&#x30b;" 
d="M-637 788l84 250h230l-161 -250h-153zM-396 788l106 250h250l-202 -250h-154z" />
    <glyph glyph-name="uni030C" unicode="&#x30c;" 
d="M-218 1038h178l-187 -250h-121l-190 250h180l70 -81z" />
    <glyph glyph-name="uni0311" unicode="&#x311;" 
d="M-553 788q0 122 72 187t186 65q117 0 186 -62.5t69 -189.5h-177q0 33 -20.5 56t-57.5 23q-42 0 -61 -24t-19 -55h-178z" />
    <glyph glyph-name="uni0312" unicode="&#x312;" 
d="M-283 785l96 270h167l-66 -270h-197z" />
    <glyph glyph-name="uni0326" unicode="&#x326;" 
d="M-333 -305l36 240h197l-66 -240h-167z" />
    <glyph glyph-name="uni0327" unicode="&#x327;" 
d="M-221 -392q-95 -2 -170 82l115 122q26 -31 52 -31q10 0 16 6.5t6 17.5q0 21 -31.5 46.5t-39.5 38.5q-32 51 -32 110h152q0 -28 40 -63t49 -53q24 -44 24 -95q0 -72 -53.5 -126t-127.5 -55z" />
    <glyph glyph-name="uni0328" unicode="&#x328;" 
d="M-251 -399q-74 -2 -121 41t-47 126q0 57 34 133t87 121l159 -15q-95 -131 -95 -193q0 -13 6.5 -20t15.5 -6q15 0 31 11t26 27l115 -96q-35 -55 -94.5 -92t-116.5 -37z" />
    <glyph glyph-name="uni03BC" unicode="&#x3bc;" horiz-adv-x="769" 
d="M739 294q0 -174 30 -266l-2 -28h-219q-15 8 -25 23.5t-10 26.5v1q-71 -69 -161 -69q-33 0 -66 14v-260h-226v964q59 12 130 11t128 -11v-349q0 -85 15 -119.5t56 -34.5q92 0 92 248v255q49 12 140.5 9t117.5 -9v-406z" />
    <glyph glyph-name="uni1E02" unicode="&#x1e02;" horiz-adv-x="810" 
d="M359 991q-43 0 -75 31.5t-32 74.5q0 41 32.5 73t74.5 32q41 0 73.5 -32t32.5 -73q0 -42 -32 -74t-74 -32zM790 328q1 -160 -100.5 -253t-290.5 -94q-129 0 -202 9t-157 36v864q141 46 319 46q104 0 179 -20t115 -55.5t58 -76.5t18 -90q0 -75 -81 -131q141 -74 142 -235z
M370 736q-26 0 -68 -4v-127q59 6 121 6q54 14 54 56q0 28 -25.5 48.5t-81.5 20.5zM381 191q85 0 126 31.5t41 86.5q0 92 -145 92q-48 0 -101 -8v-198q48 -4 79 -4z" />
    <glyph glyph-name="uni1E03" unicode="&#x1e03;" horiz-adv-x="779" 
d="M395 963q-56 0 -97.5 41.5t-41.5 96.5q0 54 42 95.5t97 41.5q54 0 96 -42t42 -95q0 -55 -42 -96.5t-96 -41.5zM453 718q146 0 226 -91.5t80 -249.5q0 -169 -87.5 -282t-227.5 -113q-98 0 -165 58q-9 -24 -19 -40h-220v28q14 68 14 175v733q43 14 131.5 14t126.5 -14v-260
q62 42 141 42zM390 200q48 0 76.5 50.5t28.5 135.5q0 52 -18 85t-50 33q-53 0 -84 -74t-31 -169q0 -17 25.5 -39t52.5 -22z" />
    <glyph glyph-name="uni1E0A" unicode="&#x1e0a;" horiz-adv-x="848" 
d="M347 1011q-43 0 -75 31.5t-32 74.5q0 41 32.5 73t74.5 32q41 0 73.5 -32t32.5 -73q0 -42 -32 -74t-74 -32zM347 936q232 0 356.5 -127t124.5 -340q0 -227 -121.5 -357.5t-344.5 -130.5q-102 0 -173 9t-149 36v864q139 46 307 46zM363 191q193 0 193 271q0 124 -55.5 194
t-157.5 70q-28 0 -41 -1v-531q28 -3 61 -3z" />
    <glyph glyph-name="uni1E0B" unicode="&#x1e0b;" horiz-adv-x="779" 
d="M366 951q-56 0 -97.5 41.5t-41.5 96.5q0 54 42 95.5t97 41.5q54 0 96 -42t42 -95q0 -55 -42 -96.5t-96 -41.5zM725 203q0 -107 14 -175v-28h-220q-11 19 -21 45q-73 -63 -183 -63q-129 0 -212 101.5t-83 239.5q0 178 88.5 286.5t247.5 108.5q59 0 111 -30v248
q38 14 126.5 14t131.5 -14v-733zM376 200q38 0 64.5 69t26.5 196q0 17 -23 28t-47 11q-49 0 -80.5 -39t-31.5 -112q0 -70 25 -111.5t66 -41.5z" />
    <glyph glyph-name="uni1E1E" unicode="&#x1e1e;" horiz-adv-x="732" 
d="M371 985q-43 0 -75 31.5t-32 74.5q0 41 32.5 73t74.5 32q41 0 73.5 -32t32.5 -73q0 -42 -32 -74t-74 -32zM302 514h361q13 -50 -2.5 -119t-40.5 -91h-318v-304h-262v887l24 23h642q14 -48 -1 -115t-40 -95h-363v-186z" />
    <glyph glyph-name="uni1E1F" unicode="&#x1e1f;" horiz-adv-x="474" 
d="M297 993q-56 0 -97.5 41.5t-41.5 96.5q0 54 42 95.5t97 41.5q54 0 96 -42t42 -95q0 -55 -42 -96.5t-96 -41.5zM403 757q-45 -1 -55 -57h135v-210h-139v-490h-258v490h-96v210h99q12 136 75.5 203t189.5 68q72 0 161 -19q10 -35 -5 -108.5t-38 -97.5q-40 11 -69 11z" />
    <glyph glyph-name="uni1E40" unicode="&#x1e40;" horiz-adv-x="1067" 
d="M532 985q-43 0 -75 31.5t-32 74.5q0 41 32.5 73t74.5 32q41 0 73.5 -32t32.5 -73q0 -42 -32 -74t-74 -32zM1047 0h-263l-36 397l-138 -287h-160l-137 284l-30 -394h-263l83 868q27 27 108 40.5t112 1.5l209 -479l208 479q32 12 111 -1t108 -40z" />
    <glyph glyph-name="uni1E41" unicode="&#x1e41;" horiz-adv-x="1078" 
d="M597 763q-56 0 -97.5 41.5t-41.5 96.5q0 54 42 95.5t97 41.5q54 0 96 -42t42 -95q0 -55 -42 -96.5t-96 -41.5zM810 718q228 0 228 -340v-378h-258v345q0 159 -40 159q-30 0 -50 -49.5t-20 -148.5l1 -306h-249v345q0 159 -42 159q-30 0 -49.5 -49.5t-19.5 -148.5v-306
h-258v489q0 89 -13 176v35q31 6 39.5 7.5t39 6.5t50 6t50 1t60.5 -3q7 -38 8 -48q73 48 149 48q116 0 175 -84q87 84 199 84z" />
    <glyph glyph-name="uni1E56" unicode="&#x1e56;" horiz-adv-x="809" 
d="M395 1011q-43 0 -75 31.5t-32 74.5q0 41 32.5 73t74.5 32q41 0 73.5 -32t32.5 -73q0 -42 -32 -74t-74 -32zM395 936q100 0 177 -29.5t123.5 -82t70 -120t23.5 -148.5q0 -159 -105 -262t-295 -103q-42 0 -87 5v-196h-262v890q155 46 355 46zM517 562q3 164 -140 164
q-29 0 -75 -4v-316q35 -5 73 -5q69 0 105 41.5t37 119.5z" />
    <glyph glyph-name="uni1E57" unicode="&#x1e57;" horiz-adv-x="784" 
d="M440 763q-56 0 -97.5 41.5t-41.5 96.5q0 54 42 95.5t97 41.5q54 0 96 -42t42 -95q0 -55 -42 -96.5t-96 -41.5zM471 718q133 0 213 -93.5t80 -232.5q0 -184 -88.5 -297t-228.5 -113q-75 0 -132 38v-284q-33 -13 -124 -13t-134 13v740q0 104 -17 191v33q40 11 65.5 16
t73.5 8.5t89 -6.5l20 -63q81 63 183 63zM395 200q48 0 76.5 52t28.5 134q0 55 -20 86.5t-48 31.5q-47 0 -83 -64t-36 -179q0 -14 26 -37.5t56 -23.5z" />
    <glyph glyph-name="uni1E60" unicode="&#x1e60;" horiz-adv-x="841" 
d="M437 1011q-43 0 -75 31.5t-32 74.5q0 41 32.5 73t74.5 32q41 0 73.5 -32t32.5 -73q0 -42 -32 -74t-74 -32zM446 -18q-118 0 -230 37.5t-196 104.5q7 47 48 114t90 78q141 -124 294 -124q46 0 71.5 27.5t25.5 59.5q0 39 -26.5 63t-97.5 28q-164 5 -258.5 77t-92.5 203
q2 128 103 207t260 79q92 0 165 -26.5t117 -70.5t66.5 -96.5t22.5 -109.5q-51 -14 -121.5 -20.5t-123.5 4.5q-8 50 -36 79.5t-93 29.5q-42 0 -65.5 -21t-23.5 -50q-1 -35 33.5 -54.5t83.5 -22.5q183 -10 271 -84t88 -200q0 -96 -52.5 -168.5t-136.5 -108t-186 -35.5z" />
    <glyph glyph-name="uni1E61" unicode="&#x1e61;" horiz-adv-x="747" 
d="M374 763q-56 0 -97.5 41.5t-41.5 96.5q0 54 42 95.5t97 41.5q54 0 96 -42t42 -95q0 -55 -42 -96.5t-96 -41.5zM388 -18q-227 0 -358 103q15 48 43.5 101t67.5 79q101 -68 206 -68q47 0 76.5 10.5t29.5 27.5q0 8 -5.5 12.5t-19 7.5t-25 4t-36 3t-39.5 3q-125 13 -196.5 59
t-71.5 144q0 100 88 175t225 75q191 0 337 -81q-6 -53 -29 -111t-40 -88q-127 66 -233 66q-40 0 -62.5 -8.5t-22.5 -21.5q0 -12 16.5 -16t65.5 -6q164 -7 238 -61t74 -156q0 -108 -91 -180.5t-238 -72.5z" />
    <glyph glyph-name="uni1E6A" unicode="&#x1e6a;" horiz-adv-x="877" 
d="M435 985q-43 0 -75 31.5t-32 74.5q0 41 32.5 73t74.5 32q41 0 73.5 -32t32.5 -73q0 -42 -32 -74t-74 -32zM853 910q10 -46 -4 -114.5t-39 -95.5h-227v-700h-272v700h-285q-11 45 -4 108t28 102h803z" />
    <glyph glyph-name="uni1E6B" unicode="&#x1e6b;" horiz-adv-x="558" 
d="M234 969q-56 0 -97.5 41.5t-41.5 96.5q0 54 42 95.5t97 41.5q54 0 96 -42t42 -95q0 -55 -42 -96.5t-96 -41.5zM478 215q23 -25 34.5 -98t-1.5 -111q-72 -24 -137 -24q-129 -2 -201.5 83t-72.5 264v161h-80v210h80v175q42 23 117.5 36t140.5 -1v-210h141v-210h-141v-143
q0 -77 12 -112t47 -35q25 0 61 15z" />
    <glyph glyph-name="Wgrave" unicode="&#x1e80;" horiz-adv-x="1284" 
d="M569 976l-231 184h229l154 -184h-152zM298 0l-62 31q-43 154 -94 351t-83 319.5t-49 167.5l14 41q49 12 119.5 12.5t127.5 -12.5q19 -47 42.5 -141t40 -171.5t43 -208.5t35.5 -171h4q27 65 65.5 189.5t49.5 186.5q-9 64 -24 121q23 37 102 70.5t145 26.5
q23 -50 68 -246.5t67 -347.5h8q56 97 78.5 236.5t16.5 250.5t-27 186q40 25 109.5 29t132.5 -10q20 -39 33 -108t13.5 -162.5t-14 -192t-55 -206t-103.5 -195.5l-77 -46h-267l-45 26q-8 40 -22.5 121t-15.5 86q-33 -153 -53 -202l-60 -31h-263z" />
    <glyph glyph-name="wgrave" unicode="&#x1e81;" horiz-adv-x="1091" 
d="M486 788l-241 252h246l158 -252h-163zM213 0l-40 27q-26 106 -64.5 252t-65 247.5t-33.5 135.5l18 38q54 11 124 12.5t125 -12.5q47 -147 95 -466h11q30 123 59 284l-16 51q22 41 94.5 73.5t143.5 24.5q66 -186 109 -433h15q21 135 26 218.5t-6 228.5q50 27 111.5 31.5
t151.5 -12.5q24 -129 -11 -322.5t-127 -356.5l-41 -21h-247l-40 29q-15 47 -42 113q-29 -80 -50 -123l-32 -19h-268z" />
    <glyph glyph-name="Wacute" unicode="&#x1e82;" horiz-adv-x="1284" 
d="M550 978l154 182h229l-231 -182h-152zM298 0l-62 31q-43 154 -94 351t-83 319.5t-49 167.5l14 41q49 12 119.5 12.5t127.5 -12.5q19 -47 42.5 -141t40 -171.5t43 -208.5t35.5 -171h4q27 65 65.5 189.5t49.5 186.5q-9 64 -24 121q23 37 102 70.5t145 26.5
q23 -50 68 -246.5t67 -347.5h8q56 97 78.5 236.5t16.5 250.5t-27 186q40 25 109.5 29t132.5 -10q20 -39 33 -108t13.5 -162.5t-14 -192t-55 -206t-103.5 -195.5l-77 -46h-267l-45 26q-8 40 -22.5 121t-15.5 86q-33 -153 -53 -202l-60 -31h-263z" />
    <glyph glyph-name="wacute" unicode="&#x1e83;" horiz-adv-x="1091" 
d="M454 788l94 252h249l-191 -252h-152zM213 0l-40 27q-26 106 -64.5 252t-65 247.5t-33.5 135.5l18 38q54 11 124 12.5t125 -12.5q47 -147 95 -466h11q30 123 59 284l-16 51q22 41 94.5 73.5t143.5 24.5q66 -186 109 -433h15q21 135 26 218.5t-6 228.5q50 27 111.5 31.5
t151.5 -12.5q24 -129 -11 -322.5t-127 -356.5l-41 -21h-247l-40 29q-15 47 -42 113q-29 -80 -50 -123l-32 -19h-268z" />
    <glyph glyph-name="Wdieresis" unicode="&#x1e84;" horiz-adv-x="1284" 
d="M506 985q-43 0 -75 31.5t-32 74.5q0 41 32.5 73t74.5 32q41 0 73.5 -32t32.5 -73q0 -42 -32 -74t-74 -32zM786 985q-43 0 -75 31.5t-32 74.5q0 41 32.5 73t74.5 32q41 0 73.5 -32t32.5 -73q0 -42 -32 -74t-74 -32zM298 0l-62 31q-43 154 -94 351t-83 319.5t-49 167.5
l14 41q49 12 119.5 12.5t127.5 -12.5q19 -47 42.5 -141t40 -171.5t43 -208.5t35.5 -171h4q27 65 65.5 189.5t49.5 186.5q-9 64 -24 121q23 37 102 70.5t145 26.5q23 -50 68 -246.5t67 -347.5h8q56 97 78.5 236.5t16.5 250.5t-27 186q40 25 109.5 29t132.5 -10
q20 -39 33 -108t13.5 -162.5t-14 -192t-55 -206t-103.5 -195.5l-77 -46h-267l-45 26q-8 40 -22.5 121t-15.5 86q-33 -153 -53 -202l-60 -31h-263z" />
    <glyph glyph-name="wdieresis" unicode="&#x1e85;" horiz-adv-x="1091" 
d="M401 763q-56 0 -97.5 41.5t-41.5 96.5q0 54 42 95.5t97 41.5q54 0 96 -42t42 -95q0 -55 -42 -96.5t-96 -41.5zM755 763q-56 0 -97.5 41.5t-41.5 96.5q0 54 42 95.5t97 41.5q54 0 96 -42t42 -95q0 -55 -42 -96.5t-96 -41.5zM213 0l-40 27q-26 106 -64.5 252t-65 247.5
t-33.5 135.5l18 38q54 11 124 12.5t125 -12.5q47 -147 95 -466h11q30 123 59 284l-16 51q22 41 94.5 73.5t143.5 24.5q66 -186 109 -433h15q21 135 26 218.5t-6 228.5q50 27 111.5 31.5t151.5 -12.5q24 -129 -11 -322.5t-127 -356.5l-41 -21h-247l-40 29q-15 47 -42 113
q-29 -80 -50 -123l-32 -19h-268z" />
    <glyph glyph-name="uni1E9E" unicode="&#x1e9e;" horiz-adv-x="953" 
d="M691 560q242 -45 242 -281q0 -76 -26 -134.5t-71.5 -93t-101.5 -52t-120 -17.5q-170 0 -273 112q25 109 114 183q65 -69 148 -69q33 0 50.5 19.5t17.5 51.5q0 37 -28.5 66t-70.5 44.5t-81.5 23.5t-70.5 8l-25 73l182 195h-119q-43 0 -74 -21.5t-46.5 -55.5t-22.5 -66
t-7 -62v-484h-258v504q0 86 21.5 157.5t65.5 128t120 88t177 31.5h412q24 -46 17 -111.5t-38 -97.5z" />
    <glyph glyph-name="Ygrave" unicode="&#x1ef2;" horiz-adv-x="875" 
d="M517 976h-152l-231 184h229zM850 910q59 -296 -243 -585v-325h-262v349q-209 363 -330 519l17 42q59 12 137 13t137 -13q40 -38 104.5 -151t102.5 -201q54 69 71 177.5t8 154.5q85 53 258 20z" />
    <glyph glyph-name="ygrave" unicode="&#x1ef3;" horiz-adv-x="803" 
d="M487 788h-163l-241 252h246zM772 700q19 -65 21 -150.5t-17 -183t-56 -192t-101 -185t-146 -156.5q-129 -103 -314 -105q-60 -2 -94 17q-37 96 -3 183l42 26q28 -12 57 -12q73 -1 162 86q-62 46 -111.5 100.5t-81 102.5t-55 106.5t-35 98.5t-19 93t-9 75.5t-2.5 58.5
l12 37q53 13 118.5 13.5t115.5 -13.5q0 -1 2 -37.5t5 -56.5t10.5 -62.5t22 -76.5t36.5 -78.5t56.5 -88t79.5 -85.5q33 65 48.5 140.5t14.5 152.5t-5 170q75 54 246 22z" />
    <glyph glyph-name="endash" unicode="&#x2013;" horiz-adv-x="1042" 
d="M180 272v200h682v-200h-682z" />
    <glyph glyph-name="emdash" unicode="&#x2014;" horiz-adv-x="1155" 
d="M180 272v200h795v-200h-795z" />
    <glyph glyph-name="quoteleft" unicode="&#x2018;" horiz-adv-x="352" 
d="M60 636l56 333h176l-1 -333h-231z" />
    <glyph glyph-name="quoteright" unicode="&#x2019;" horiz-adv-x="352" 
d="M60 635l1 333h231l-56 -333h-176z" />
    <glyph glyph-name="quotesinglbase" unicode="&#x201a;" horiz-adv-x="352" 
d="M60 -164l1 333h231l-56 -333h-176z" />
    <glyph glyph-name="quotedblleft" unicode="&#x201c;" horiz-adv-x="611" 
d="M60 636l56 333h176l-1 -333h-231zM319 636l56 333h176l-1 -333h-231z" />
    <glyph glyph-name="quotedblright" unicode="&#x201d;" horiz-adv-x="609" 
d="M60 635l1 333h231l-56 -333h-176zM317 635l1 333h231l-56 -333h-176z" />
    <glyph glyph-name="quotedblbase" unicode="&#x201e;" horiz-adv-x="609" 
d="M60 -164l1 333h231l-56 -333h-176zM317 -164l1 333h231l-56 -333h-176z" />
    <glyph glyph-name="dagger" unicode="&#x2020;" horiz-adv-x="700" 
d="M640 863v-214h-183v-781h-214v781h-183v214h183v154h214v-154h183z" />
    <glyph glyph-name="daggerdbl" unicode="&#x2021;" horiz-adv-x="700" 
d="M640 649h-183v-476h183v-214h-183v-91h-214v91h-183v214h183v476h-183v214h183v154h214v-154h183v-214z" />
    <glyph glyph-name="bullet" unicode="&#x2022;" horiz-adv-x="886" 
d="M442 161q-100 0 -171 75.5t-71 182.5q0 103 71.5 181.5t170.5 78.5q95 0 169.5 -79t74.5 -181q0 -105 -73.5 -181.5t-170.5 -76.5z" />
    <glyph glyph-name="ellipsis" unicode="&#x2026;" horiz-adv-x="1080" 
d="M200 0q-56 0 -98 41.5t-42 96.5q0 54 42 95.5t98 41.5q54 0 96 -41.5t42 -95.5q0 -55 -41.5 -96.5t-96.5 -41.5zM540 0q-56 0 -97.5 41.5t-41.5 96.5q0 54 42 95.5t97 41.5q54 0 97 -42t43 -95q0 -55 -42.5 -96.5t-97.5 -41.5zM881 0q-55 0 -97 41.5t-42 96.5q0 53 42 95
t97 42q54 0 96.5 -42t42.5 -95q0 -55 -42.5 -96.5t-96.5 -41.5z" />
    <glyph glyph-name="perthousand" unicode="&#x2030;" horiz-adv-x="2134" 
d="M367 487q-307 0 -307 210q0 102 76.5 157t230.5 55q307 0 307 -212q0 -98 -77.5 -154t-229.5 -56zM274 0l650 889h274l-652 -889h-272zM367 652q24 0 41.5 11t17.5 34t-17 35t-42 12q-24 0 -41 -13t-17 -34q0 -45 58 -45zM1095 -21q-305 0 -305 212q0 101 76.5 155.5
t228.5 54.5q309 0 309 -210q0 -100 -77.5 -156t-231.5 -56zM1765 -21q-305 0 -305 212q0 101 76.5 155.5t228.5 54.5q309 0 309 -210q0 -100 -77.5 -156t-231.5 -56zM1095 144q62 0 62 47q0 21 -18 33t-44 12q-21 0 -39 -12.5t-18 -32.5q0 -24 17 -35.5t40 -11.5zM1765 144
q62 0 62 47q0 21 -18 33t-44 12q-21 0 -39 -12.5t-18 -32.5q0 -24 17 -35.5t40 -11.5z" />
    <glyph glyph-name="guilsinglleft" unicode="&#x2039;" horiz-adv-x="678" 
d="M618 659l-269 -216l269 -205l-66 -172l-492 302v152l486 307z" />
    <glyph glyph-name="guilsinglright" unicode="&#x203a;" horiz-adv-x="678" 
d="M132 827l486 -307v-152l-492 -302l-66 172l269 205l-269 216z" />
    <glyph glyph-name="fraction" unicode="&#x2044;" horiz-adv-x="1156" 
d="M60 -133l827 1200h209l-828 -1200h-208z" />
    <glyph glyph-name="Euro" unicode="&#x20ac;" horiz-adv-x="923" 
d="M747 282l116 -166q-51 -53 -148 -84.5t-204 -31.5q-164 0 -283.5 64t-169.5 197h-58v168h26v24v14h-26v169h62q53 123 174 188t275 65q201 0 328 -91l-113 -163q-68 40 -185 40q-110 0 -167 -39h194v-169h-270v-14q0 -16 1 -24h234v-168h-144q65 -46 170 -46q94 0 188 67
z" />
    <glyph glyph-name="uni2116" unicode="&#x2116;" horiz-adv-x="1640" 
d="M1262 312q-144 0 -226.5 79t-82.5 204q0 131 95.5 222t234.5 91q140 0 216.5 -73t80.5 -197q4 -147 -86.5 -236.5t-231.5 -89.5zM611 890q45 16 135 13.5t127 -13.5v-890h-182l-369 449v-449h-262v844q23 29 87.5 48t94.5 8l369 -448v438zM1276 700q-30 0 -52 -30
t-22 -71q0 -35 16.5 -56.5t46.5 -21.5q27 0 47 29.5t20 63.5q0 36 -14.5 61t-41.5 25zM992 70v190h555v-190h-555z" />
    <glyph glyph-name="trademark" unicode="&#x2122;" horiz-adv-x="1147" 
d="M441 890v-194h-93v-289h-197v289h-91v194h381zM1087 890v-483h-196v143l-45 -122h-130l-51 119v-140h-197v483h221l92 -215l85 215h221z" />
    <glyph glyph-name="estimated" unicode="&#x212e;" horiz-adv-x="836" 
d="M424 895q162 0 264 -130.5t86 -376.5h-474l4 -261q56 -51 133 -51q63 0 113.5 29t105.5 86q29 -17 41 -34t17 -44q-58 -59 -130.5 -95t-141.5 -36q-123 0 -210.5 60t-129.5 161t-42 233q0 197 104 328t260 131zM561 482v267q-67 52 -137 52q-80 0 -129 -47l4 -272h262z
" />
    <glyph glyph-name="partialdiff" unicode="&#x2202;" horiz-adv-x="879" 
d="M398 910q91 0 164 -30.5t120 -80t79 -115t45 -132t13 -134.5q0 -203 -105.5 -319.5t-283.5 -116.5q-171 0 -270.5 90t-99.5 235q0 130 90.5 207.5t217.5 77.5q88 0 173 -33q-34 137 -154 137q-104 0 -179 -56q-69 84 -69 178q27 40 105.5 66t153.5 26zM430 196
q108 0 123 171q-54 14 -109 14q-112 0 -112 -94q0 -40 28 -65.5t70 -25.5z" />
    <glyph glyph-name="minus" unicode="&#x2212;" horiz-adv-x="852" 
d="M126 340v214h600v-214h-600z" />
    <glyph glyph-name="radical" unicode="&#x221a;" horiz-adv-x="1072" 
d="M1072 890v-220h-204l-310 -670h-186l-312 479h283l93 -153l242 564h394z" />
    <glyph glyph-name="infinity" unicode="&#x221e;" horiz-adv-x="1045" 
d="M712 782q120 0 196.5 -70t76.5 -218t-76.5 -218t-196.5 -70q-115 0 -189 114q-74 -114 -190 -114q-120 0 -196.5 70t-76.5 218t76.5 218t196.5 70q118 0 188 -109q69 109 191 109zM336 372q38 0 62 29t45 84q-27 65 -50.5 97.5t-56.5 32.5q-29 0 -53 -32t-24 -89
q0 -59 23 -90.5t54 -31.5zM710 372q33 0 54.5 31t21.5 91q0 58 -22 89.5t-54 31.5q-33 0 -56 -31t-49 -92q25 -59 48 -89.5t57 -30.5z" />
    <glyph glyph-name="approxequal" unicode="&#x2248;" horiz-adv-x="762" 
d="M60 494q0 110 52.5 186t145.5 76q55 0 120.5 -24.5t75.5 -24.5q51 0 51 49h197q0 -109 -52 -185.5t-144 -76.5q-58 0 -123 24.5t-85 24.5q-19 0 -30 -13t-11 -36h-197zM60 182q0 110 52.5 186t145.5 76q55 0 120.5 -24.5t75.5 -24.5q51 0 51 49h197q0 -109 -52 -185.5
t-144 -76.5q-58 0 -123 24.5t-85 24.5q-19 0 -30 -13t-11 -36h-197z" />
    <glyph glyph-name="notequal" unicode="&#x2260;" horiz-adv-x="760" 
d="M700 886l-80 -178h60v-214h-156l-44 -97h200v-214h-296l-68 -152h-256l68 152h-48v214h144l43 97h-187v214h283l80 178h257z" />
    <glyph glyph-name="lessequal" unicode="&#x2264;" horiz-adv-x="678" 
d="M618 285l-84 -180l-474 307v154l480 302l77 -185l-273 -195zM81 -107v184h495v-184h-495z" />
    <glyph glyph-name="greaterequal" unicode="&#x2265;" horiz-adv-x="678" 
d="M138 891l480 -302v-154l-474 -307l-84 180l274 203l-273 195zM82 -106v184h495v-184h-495z" />
    <glyph glyph-name="i.loclTRK" horiz-adv-x="348" 
d="M174 763q-56 0 -97.5 41.5t-41.5 96.5q0 54 42 95.5t97 41.5q54 0 96 -42t42 -95q0 -55 -42 -96.5t-96 -41.5zM45 0v700q41 12 131.5 12.5t126.5 -12.5v-700h-258z" />
    <glyph glyph-name="uni00A0.001" horiz-adv-x="385" 
 />
    <glyph glyph-name="uni030C.alt" 
d="M-342 630l16 333h246l-78 -333h-184z" />
    <glyph glyph-name="uni0308.case" 
d="M-466 965q-43 0 -75 31.5t-32 74.5q0 41 32.5 73t74.5 32q41 0 73.5 -32t32.5 -73q0 -42 -32 -74t-74 -32zM-186 965q-43 0 -75 31.5t-32 74.5q0 41 32.5 73t74.5 32q41 0 73.5 -32t32.5 -73q0 -42 -32 -74t-74 -32z" />
    <glyph glyph-name="uni0307.case" 
d="M-210 965q-43 0 -75 31.5t-32 74.5q0 41 32.5 73t74.5 32q41 0 73.5 -32t32.5 -73q0 -42 -32 -74t-74 -32z" />
    <glyph glyph-name="gravecomb.case" 
d="M-232 956l-231 184h229l154 -184h-152z" />
    <glyph glyph-name="acutecomb.case" 
d="M-403 958l154 182h229l-231 -182h-152z" />
    <glyph glyph-name="uni030B.case" 
d="M-674 958l131 182h200l-198 -182h-133zM-443 958l153 182h230l-249 -182h-134z" />
    <glyph glyph-name="uni0302.case" 
d="M-80 957h-178l-70 65l-70 -65h-180l190 224h121z" />
    <glyph glyph-name="uni030C.case" 
d="M-218 1206h178l-187 -240h-121l-190 240h180l70 -73z" />
    <glyph glyph-name="uni0306.case" 
d="M-338 773q-117 0 -186 55t-69 167h177q0 -33 20.5 -56t57.5 -23q42 0 61 24t19 55h178q0 -108 -72 -165t-186 -57z" />
    <glyph glyph-name="uni030A.case" 
d="M-236 863q-96 0 -150 44.5t-54 115.5q0 68 52.5 113.5t151.5 45.5q98 0 147 -44.5t49 -114.5q0 -68 -53.5 -114t-142.5 -46zM-240 973q28 0 44 13.5t16 35.5q0 50 -60 50q-29 0 -44.5 -13.5t-15.5 -36.5q0 -22 17 -35.5t43 -13.5z" />
    <glyph glyph-name="tildecomb.case" 
d="M-182 932q-42 0 -86 26t-54 26q-30 0 -30 -47h-145q0 93 37.5 157t104.5 64q29 0 56.5 -13t47.5 -26.5t31 -13.5q34 0 34 48h146q0 -92 -37 -156.5t-105 -64.5z" />
    <glyph glyph-name="uni0304.case" 
d="M-544 828v170h464v-170h-464z" />
    <glyph glyph-name="uni0327.case" 
d="M-221 -392q-95 -2 -170 82l115 122q26 -31 52 -31q10 0 16 6.5t6 17.5q0 21 -31.5 46.5t-39.5 38.5q-32 51 -32 110h152q0 -28 40 -63t49 -53q24 -44 24 -95q0 -72 -53.5 -126t-127.5 -55z" />
    <glyph glyph-name="uni0328.case" 
d="M-251 -399q-74 -2 -121 41t-47 126q0 57 34 133t87 121l159 -15q-95 -131 -95 -193q0 -13 6.5 -20t15.5 -6q15 0 31 11t26 27l115 -96q-35 -55 -94.5 -92t-116.5 -37z" />
    </font>
</defs>
</svg>
