<?xml version="1.0" standalone="no"?>
<!DOCTYPE svg PUBLIC "-//W3C//DTD SVG 1.1//EN" "http://www.w3.org/Graphics/SVG/1.1/DTD/svg11.dtd" >
<svg xmlns="http://www.w3.org/2000/svg" xmlns:xlink="http://www.w3.org/1999/xlink" version="1.1">
<metadata>
Created by FontForge 20170731 at Mon May 11 15:12:38 2020
 By Aleksey,,,
Copyright (c) 2019 by Mans Greback. All rights reserved.
</metadata>
<defs>
<font id="Quache-ThinExpanded" horiz-adv-x="0" >
  <font-face 
    font-family="Quache Thin Expanded"
    font-weight="100"
    font-stretch="expanded"
    units-per-em="1000"
    panose-1="0 0 2 5 0 0 0 0 0 0"
    ascent="800"
    descent="-200"
    x-height="647"
    cap-height="890"
    bbox="-544 -342.042 1785 1311"
    underline-thickness="50"
    underline-position="-200"
    unicode-range="U+000D-2265"
  />
<missing-glyph horiz-adv-x="847" 
d="M0 2v939h847v-939h-847zM10 12h827v919h-827v-919zM369 269q-7 42 8 78t44.5 63t66.5 51.5t75 48t70 48t52.5 56.5t20.5 68q0 75 -71.5 122t-196.5 47q-92 0 -177 -35t-139 -89l-7 8q59 57 144 91.5t179 34.5q131 0 204.5 -50t73.5 -129q0 -51 -38 -94.5t-90.5 -75
t-104 -64t-82.5 -78t-21 -101.5h-11zM373 83q-5 0 -9.5 4.5t-4.5 11.5t4.5 11.5t9.5 4.5q6 0 10.5 -4.5t4.5 -11.5t-4.5 -11.5t-10.5 -4.5z" />
    <glyph glyph-name="f_i.liga" unicode="fi" horiz-adv-x="641" 
d="M207 0v637h-198v10h198q9 287 204 287q36 0 81 -14q0 -7 -2 -10q-42 14 -79 14q-185 -1 -194 -277h324v-647h-10v637h-314v-637h-10zM536 834q-7 0 -11.5 5t-4.5 12q0 19 16 19t16 -19q0 -7 -4.5 -12t-11.5 -5z" />
    <glyph glyph-name="f_l.liga" unicode="fl" horiz-adv-x="756" 
d="M649 -18q-56 0 -82 42.5t-26 137.5v736q-69 26 -130 26q-185 -1 -194 -277h241v-10h-241v-637h-10v637h-198v10h198q9 287 204 287q62 0 140 -29v-743q0 -92 23.5 -131.5t74.5 -38.5q31 0 87 18q4 -4 2 -10q-48 -16 -89 -18z" />
    <glyph glyph-name=".notdef" horiz-adv-x="847" 
d="M0 2v939h847v-939h-847zM10 12h827v919h-827v-919zM369 269q-7 42 8 78t44.5 63t66.5 51.5t75 48t70 48t52.5 56.5t20.5 68q0 75 -71.5 122t-196.5 47q-92 0 -177 -35t-139 -89l-7 8q59 57 144 91.5t179 34.5q131 0 204.5 -50t73.5 -129q0 -51 -38 -94.5t-90.5 -75
t-104 -64t-82.5 -78t-21 -101.5h-11zM373 83q-5 0 -9.5 4.5t-4.5 11.5t4.5 11.5t9.5 4.5q6 0 10.5 -4.5t4.5 -11.5t-4.5 -11.5t-10.5 -4.5z" />
    <glyph glyph-name=".null" 
 />
    <glyph glyph-name="nonmarkingreturn" horiz-adv-x="333" 
 />
    <glyph glyph-name="CR" unicode="&#xd;" horiz-adv-x="600" 
 />
    <glyph glyph-name="space" unicode=" " horiz-adv-x="394" 
 />
    <glyph glyph-name="exclam" unicode="!" horiz-adv-x="334" 
d="M163 268v642h8l1 -642h-9zM167 0q-16 0 -16 18t16 18t16 -18t-16 -18z" />
    <glyph glyph-name="quotedbl" unicode="&#x22;" horiz-adv-x="427" 
d="M117 660l57 285h10l-57 -285h-10zM243 660l57 285h10l-57 -285h-10z" />
    <glyph glyph-name="numbersign" unicode="#" horiz-adv-x="842" 
d="M725 600h-142l-30 -302h141v-10h-142l-17 -171h-10l17 171h-287l-17 -171h-10l17 171h-128v10h129l30 302h-128v10h129l15 157h10l-15 -157h287l15 157h10l-15 -157h141v-10zM543 298l30 302h-287l-30 -302h287z" />
    <glyph glyph-name="dollar" unicode="$" horiz-adv-x="940" 
d="M823 232q0 -93 -91.5 -160t-245.5 -72v-130h-10v130h-12q-233 0 -347 125l7 9q101 -124 341 -124q160 0 254 65.5t94 156.5q0 59 -36.5 102t-95.5 68.5t-130 45t-142 38t-130 41t-95.5 60.5t-36.5 90q0 32 16 63t50.5 60.5t102.5 48t160 18.5v124h10v-124
q106 -1 188.5 -31.5t128.5 -77.5l-6 -8q-111 107 -317 107q-86 0 -151.5 -16.5t-101.5 -43.5t-53 -57t-17 -62q0 -50 36.5 -86.5t95.5 -58t130 -40t142 -38.5t130 -46.5t95.5 -71t36.5 -105.5z" />
    <glyph glyph-name="percent" unicode="%" horiz-adv-x="1017" 
d="M117 0l770 890h13l-769 -890h-14zM334 494q-93 0 -155 50t-62 136q0 84 60.5 135.5t156.5 51.5q97 0 158 -51t61 -136q0 -84 -64.5 -135t-154.5 -51zM334 504q89 0 149 49t60 127q0 80 -58 128.5t-151 48.5q-92 0 -149.5 -49.5t-57.5 -127.5q0 -79 57.5 -127.5
t149.5 -48.5zM666 0q-94 0 -156 50t-62 136q0 84 61 135.5t157 51.5t157 -51.5t61 -135.5t-64 -135t-154 -51zM666 10q89 0 148.5 49t59.5 127q0 80 -57.5 128.5t-150.5 48.5q-94 0 -151 -49t-57 -128t57.5 -127.5t150.5 -48.5z" />
    <glyph glyph-name="ampersand" unicode="&#x26;" horiz-adv-x="1043" 
d="M926 7l-8 -7l-164 136q-126 -154 -317 -154q-138 0 -229 58.5t-91 154.5q0 84 65 146t180 114q-104 81 -156.5 140.5t-52.5 122.5q0 80 80 136t240 56q145 0 227.5 -56.5t82.5 -124.5q0 -24 -11 -47t-26.5 -41t-46 -38.5t-53 -33.5t-66 -32.5t-68 -29.5l-73.5 -30
q-34 -13 -58 -25q108 -84 112 -88l259 -214q50 63 77 136.5t29 134.5h10q-2 -65 -30 -139.5t-78 -137.5zM163 718q0 -60 53.5 -119.5t155.5 -139.5q50 21 62 26q62 25 87 36t75.5 34t73.5 39t51.5 39t40 46.5t11.5 49.5q0 65 -80.5 118t-219.5 53q-152 0 -231 -52t-79 -130z
M437 -8q185 0 309 150l-260 214q-23 19 -115 92q-114 -52 -179 -111.5t-65 -141.5q0 -90 87 -146.5t223 -56.5z" />
    <glyph glyph-name="quotesingle" unicode="'" horiz-adv-x="302" 
d="M117 660l58 285h10l-58 -285h-10z" />
    <glyph glyph-name="parenleft" unicode="(" horiz-adv-x="629" 
d="M490 -239q-310 165 -310 613q0 60 11 123.5t37.5 135t66.5 135t104 123t144 99.5l5 -6l-1 -3q-96 -49 -168.5 -124.5t-112 -160t-58 -165.5t-18.5 -157q0 -438 305 -605l1 -2z" />
    <glyph glyph-name="parenright" unicode=")" horiz-adv-x="629" 
d="M139 -239l-6 6l1 2q305 167 305 605q0 76 -18.5 157t-58 165.5t-112 160t-168.5 124.5l-1 3l4 6q99 -50 173 -127t114 -163.5t58.5 -167.5t18.5 -158q0 -448 -310 -613z" />
    <glyph glyph-name="asterisk" unicode="*" horiz-adv-x="541" 
d="M424 756l-145 -58l94 -144l-8 -6l-95 143l-94 -143l-8 6l95 143l-146 59l4 9l144 -58l1 180h9l1 -180l145 58z" />
    <glyph glyph-name="plus" unicode="+" horiz-adv-x="763" 
d="M646 440v-10h-260v-286h-10v286h-259v10h259v288h10v-288h260z" />
    <glyph glyph-name="comma" unicode="," horiz-adv-x="239" 
d="M54 -169l57 316h11l-57 -316h-11z" />
    <glyph glyph-name="hyphen" unicode="-" horiz-adv-x="993" 
d="M216 352v10h561v-10h-561z" />
    <glyph glyph-name="period" unicode="." horiz-adv-x="334" 
d="M166 0q-6 0 -10.5 5t-4.5 12q0 19 15 19q17 0 17 -19q0 -7 -5 -12t-12 -5z" />
    <glyph glyph-name="slash" unicode="/" horiz-adv-x="783" 
d="M-20 -130l810 1121h13l-810 -1121h-13z" />
    <glyph glyph-name="zero" unicode="0" horiz-adv-x="813" 
d="M405 -18q-165 0 -262.5 130.5t-97.5 329.5q0 217 96.5 342.5t263.5 125.5q169 0 266 -124.5t97 -343.5q0 -126 -42 -229.5t-126 -167t-195 -63.5zM405 -8q158 0 255.5 127t97.5 323q0 215 -94 336.5t-259 121.5q-162 0 -256 -122.5t-94 -335.5q0 -198 96 -324t254 -126z
" />
    <glyph glyph-name="one" unicode="1" horiz-adv-x="613" 
d="M567 10q2 -3 0 -10h-521q-2 3 0 10h258v869l-224 -61q-3 4 -1 10l228 62h7v-880h253z" />
    <glyph glyph-name="two" unicode="2" horiz-adv-x="806" 
d="M45 0v6q25 66 77.5 124.5t115.5 101.5t133 83t135 77.5t117.5 77t84 88.5t31.5 105q0 110 -88 173.5t-249 63.5q-221 0 -316 -99q-7 7 -7 9q108 100 323 100q169 0 258 -68t89 -179q0 -57 -31 -107.5t-83.5 -90t-116.5 -77.5t-134 -77.5t-132.5 -81.5t-115.5 -98.5
t-79 -120.5h703q2 -5 0 -10h-715z" />
    <glyph glyph-name="three" unicode="3" horiz-adv-x="811" 
d="M423 484q171 -26 257 -89t86 -172q0 -103 -95 -172t-264 -69q-233 0 -362 118q0 4 7 9q52 -53 143.5 -85t212.5 -32q152 0 250 63t98 168q0 119 -103.5 178.5t-289.5 80.5q-2 5 0 10q165 0 267.5 60t102.5 164q0 90 -92 143t-243 53q-94 0 -189 -32t-138 -73q-7 3 -7 8
q48 43 144 75t190 32q162 0 253.5 -57.5t91.5 -148.5q0 -95 -85.5 -158t-234.5 -74z" />
    <glyph glyph-name="four" unicode="4" horiz-adv-x="833" 
d="M787 255q1 -1 1 -5t-1 -5h-104v-245h-10v245h-628v6l629 639h9v-635h104zM63 255h610v620z" />
    <glyph glyph-name="five" unicode="5" horiz-adv-x="824" 
d="M380 584q191 1 295 -81t104 -219q0 -125 -97 -213.5t-271 -88.5q-127 0 -221.5 38t-144.5 98q0 6 7 8q50 -61 143 -97.5t216 -36.5q88 0 158 25t113 66.5t65 93t22 107.5q0 133 -101.5 212t-287.5 78q-128 -2 -279 -36l38 352h617q0 -7 -1 -10h-607l-35 -329
q150 33 267 33z" />
    <glyph glyph-name="six" unicode="6" horiz-adv-x="805" 
d="M402 497q95 0 166.5 -20.5t112 -56t60 -77t19.5 -87.5q0 -48 -23 -95.5t-66 -88t-113 -65.5t-155 -25q-170 0 -264 86t-94 235q0 179 141.5 328.5t411.5 258.5q6 -5 6 -8q-459 -188 -534 -469q48 33 139 58.5t193 25.5zM403 -8q155 0 251 79.5t96 184.5q0 99 -87.5 165
t-259.5 66q-104 0 -196.5 -26t-140.5 -62q-11 -49 -11 -96q0 -143 89 -227t259 -84z" />
    <glyph glyph-name="seven" unicode="7" horiz-adv-x="808" 
d="M46 890h717v-7q-178 -112 -301 -353.5t-123 -529.5h-10q0 280 117.5 519.5t294.5 360.5h-695q-2 3 0 10z" />
    <glyph glyph-name="eight" unicode="8" horiz-adv-x="804" 
d="M429 503q145 -26 237.5 -99t92.5 -182q0 -104 -90 -172t-268 -68q-176 0 -266 68t-90 172q0 51 21 95t54 73.5t78.5 53t88.5 37t90 22.5q-94 15 -157.5 36t-107 61t-43.5 96q0 37 18.5 73t55.5 68.5t104 52.5t154 20t154 -18.5t104.5 -49t55.5 -65t18 -71.5
q0 -77 -81.5 -128t-222.5 -75zM79 696q0 -35 18.5 -63.5t47 -47.5t72.5 -34.5t86 -25t97 -18.5q1 1 4 1q319 54 319 198q0 77 -80 135.5t-242 58.5q-84 0 -149 -19t-101 -50t-54 -65.5t-18 -69.5zM401 -8q175 0 261.5 66t86.5 164q0 57 -28.5 105t-78 81.5t-109.5 56
t-129 34.5q-67 -11 -125.5 -31.5t-110.5 -53t-82.5 -82t-30.5 -110.5q0 -97 86 -163.5t260 -66.5z" />
    <glyph glyph-name="nine" unicode="9" horiz-adv-x="805" 
d="M402 910q170 0 264 -82.5t94 -224.5q0 -190 -141.5 -348.5t-412.5 -272.5q-5 4 -5 8q206 88 347 210t184 276q-48 -28 -139.5 -50.5t-190.5 -22.5q-95 0 -166.5 21t-111.5 56.5t-59.5 76.5t-19.5 88q0 102 95.5 183.5t261.5 81.5zM55 645q0 -99 87 -165.5t260 -66.5
q103 0 194.5 23t139.5 55q14 56 14 112q0 136 -89.5 216.5t-258.5 80.5q-154 0 -250.5 -75.5t-96.5 -179.5z" />
    <glyph glyph-name="colon" unicode=":" horiz-adv-x="334" 
d="M166 611q-6 0 -10.5 5t-4.5 12q0 19 15 19q17 0 17 -19q0 -7 -5 -12t-12 -5zM166 0q-6 0 -10.5 5t-4.5 12q0 19 15 19q17 0 17 -19q0 -7 -5 -12t-12 -5z" />
    <glyph glyph-name="semicolon" unicode=";" horiz-adv-x="239" 
d="M96 611q-6 0 -10.5 5t-4.5 12q0 19 15 19q17 0 17 -19q0 -7 -5 -12t-12 -5zM54 -169l57 316h11l-57 -316h-11z" />
    <glyph glyph-name="less" unicode="&#x3c;" horiz-adv-x="770" 
d="M653 711l-523 -279l521 -277l-6 -8l-528 280v9l530 283z" />
    <glyph glyph-name="equal" unicode="=" horiz-adv-x="764" 
d="M117 508v10h530v-10h-530zM117 353v10h530v-10h-530z" />
    <glyph glyph-name="greater" unicode="&#x3e;" horiz-adv-x="770" 
d="M123 719l530 -283v-9l-528 -280l-6 8l521 277l-523 279z" />
    <glyph glyph-name="question" unicode="?" horiz-adv-x="815" 
d="M342 239q-8 47 9 88t50 71.5t75 58.5t85.5 55t80 54.5t59.5 63.5t23 77q0 85 -81 139t-224 54q-105 0 -204 -41t-154 -101l-7 9q66 65 162.5 104t202.5 39q148 0 231.5 -57t83.5 -146q0 -43 -23 -80.5t-59.5 -65.5t-80 -55t-85.5 -54t-75 -57t-50 -70t-9 -86h-10zM346 0
q-6 0 -11 5.5t-5 12.5t5 12.5t11 5.5q7 0 12 -5.5t5 -12.5t-5 -12.5t-12 -5.5z" />
    <glyph glyph-name="at" unicode="@" horiz-adv-x="1267" 
d="M644 -181q-232 0 -379.5 131t-147.5 363q0 238 146.5 373.5t381.5 135.5q146 0 258.5 -54t179.5 -166.5t67 -270.5q0 -116 -48 -181.5t-122 -65.5q-119 0 -131 111q-23 -41 -81 -76t-133 -35q-122 0 -183.5 69t-61.5 169q0 99 62 168.5t183 69.5q127 0 213 -73v58h10
v-333q0 -59 32 -88.5t90 -29.5q70 0 115 62t45 175q0 156 -66.5 266.5t-176.5 162.5t-252 52q-231 0 -374.5 -132.5t-143.5 -366.5q0 -228 145 -356t372 -128q81 0 155.5 21t113.5 52l6 -8q-41 -32 -116 -53.5t-159 -21.5zM635 94q71 0 130.5 34.5t82.5 84.5v260
q-39 38 -88 57.5t-125 19.5q-115 0 -175 -65t-60 -163q0 -99 59.5 -163.5t175.5 -64.5z" />
    <glyph glyph-name="A" unicode="A" horiz-adv-x="969" 
d="M502 890q42 -84 221 -431t231 -457v-2h-11q-44 89 -127 250h-656l-133 -250h-12l475 890q6 2 12 0zM165 260h646q-235 460 -315 620z" />
    <glyph glyph-name="B" unicode="B" horiz-adv-x="911" 
d="M596 518q270 -36 270 -236q0 -143 -110 -221t-295 -79q-130 -1 -205 8t-166 35v854q79 18 148 24.5t183 6.5q83 0 148.5 -14.5t104.5 -37t64 -52.5t34 -57t9 -54q0 -62 -47.5 -110.5t-137.5 -66.5zM771 695q0 35 -16.5 68t-53.5 65.5t-109 52t-171 19.5q-206 0 -321 -29
v-403q55 25 161 41.5t204 16.5q49 0 102 -5q97 14 150.5 63t53.5 111zM461 -8q188 0 291.5 78.5t103.5 211.5q0 234 -391 234q-98 0 -198 -15.5t-167 -41.5v-426q80 -25 161.5 -33t199.5 -8z" />
    <glyph glyph-name="C" unicode="C" horiz-adv-x="861" 
d="M477 -18q-185 0 -308.5 125.5t-123.5 338.5q0 95 33.5 180.5t92 147t140.5 98.5t175 38q143 2 238.5 -86t91.5 -215q-6 -3 -10 -1q4 125 -89 209.5t-231 82.5q-185 -3 -308 -133.5t-123 -320.5q0 -106 34 -193.5t92.5 -143.5t134.5 -86.5t161 -30.5q76 0 160 26t151 77
l5 -8q-68 -52 -154 -78.5t-162 -26.5z" />
    <glyph glyph-name="D" unicode="D" horiz-adv-x="950" 
d="M416 910q221 0 355 -126t134 -328q0 -212 -127.5 -342.5t-339.5 -131.5q-118 0 -182 9t-166 34v854q136 31 326 31zM438 -8q209 0 332.5 128.5t124.5 335.5q0 93 -32 173.5t-92 141t-151.5 95t-203.5 34.5q-210 0 -316 -30v-837q87 -23 158.5 -32t179.5 -9z" />
    <glyph glyph-name="E" unicode="E" horiz-adv-x="851" 
d="M805 10q1 -2 1 -5t-1 -5h-715v887l3 3h685q2 -7 -1 -10h-677v-447h579q2 -6 -2 -10h-577v-413h705z" />
    <glyph glyph-name="F" unicode="F" horiz-adv-x="823" 
d="M776 879h-676v-501h574v-4v-4l-1 -2h-573v-368h-10v885l4 4h684q1 -2 -2 -10z" />
    <glyph glyph-name="G" unicode="G" horiz-adv-x="923" 
d="M878 618q-5 -3 -10 -1q2 126 -104.5 204.5t-268.5 78.5q-99 0 -182.5 -37t-139.5 -99t-87 -144.5t-31 -173.5q0 -209 128 -331.5t330 -122.5q91 0 186 25t168 74v302h-394q0 5 4 10h396l4 -5v-311q-72 -51 -170.5 -78t-193.5 -27q-205 0 -336.5 125t-131.5 339
q0 90 31.5 173.5t88 148.5t142.5 103.5t188 38.5q164 0 276 -81.5t107 -210.5z" />
    <glyph glyph-name="H" unicode="H" horiz-adv-x="930" 
d="M830 890q2 2 5 2t5 -2v-890h-10v398h-730v-398h-10v890q5 2 10 0v-482h730v482z" />
    <glyph glyph-name="I" unicode="I" horiz-adv-x="190" 
d="M90 0v890q6 4 10 0v-890h-10z" />
    <glyph glyph-name="J" unicode="J" horiz-adv-x="925" 
d="M446 -18q-103 0 -208 58t-185 148q0 6 6 8q78 -88 181 -146t206 -58q160 0 259.5 107.5t99.5 274.5v516q5 2 10 0v-518q0 -106 -42.5 -193.5t-127.5 -142t-199 -54.5z" />
    <glyph glyph-name="K" unicode="K" horiz-adv-x="977" 
d="M464 472q381 -406 495 -468v-2q-4 -2 -10 -2q-135 76 -493 467q-155 -80 -356 -166v-301h-10v890q6 4 10 0v-579q333 147 491 245q298 185 288 334q6 4 10 0q6 -82 -70.5 -166.5t-223.5 -177.5q-61 -38 -131 -74z" />
    <glyph glyph-name="L" unicode="L" horiz-adv-x="836" 
d="M95 0l-5 5v885q1 1 5 1t5 -1v-880h704q5 -5 0 -10h-709z" />
    <glyph glyph-name="M" unicode="M" horiz-adv-x="1147" 
d="M1102 0h-10l-91 874l-422 -708h-11l-423 709l-90 -875h-10l91 888q5 4 12 2l426 -714l426 714q5 2 10 -3z" />
    <glyph glyph-name="N" unicode="N" horiz-adv-x="1020" 
d="M920 890q4 3 10 0v-890h-10l-820 875v-875h-10v886q1 2 4.5 3.5t4.5 0.5l821 -876v876z" />
    <glyph glyph-name="O" unicode="O" horiz-adv-x="974" 
d="M444 -18q-120 0 -212 57.5t-139 152.5t-48 210q0 140 64 257t176 184t248 67q113 0 205 -61.5t142 -163.5t49 -220q-1 -97 -39.5 -186t-103.5 -154t-154.5 -104t-187.5 -39zM444 -8q126 0 235 63t174 172.5t66 237.5q2 181 -110 308t-276 127q-203 0 -341 -144t-137 -354
q0 -109 44.5 -201.5t134.5 -150.5t210 -58z" />
    <glyph glyph-name="P" unicode="P" horiz-adv-x="910" 
d="M865 595q1 -138 -118.5 -219.5t-304.5 -81.5q-193 0 -342 55v-349h-10v869q149 41 366 41q183 0 296 -83.5t113 -231.5zM855 595q1 141 -107.5 223t-291.5 82q-226 0 -356 -41v-500q141 -55 342 -55q178 0 295.5 77t117.5 214z" />
    <glyph glyph-name="Q" unicode="Q" horiz-adv-x="974" 
d="M929 465q-2 -191 -136.5 -332t-325.5 -150q104 -120 285 -118q77 0 163 26q3 -5 2 -11q-95 -25 -165 -25q-191 -3 -297 127h-11q-120 0 -212 57.5t-139 152.5t-48 210q0 140 64 257t176 184t248 67q113 0 205 -61.5t142 -163.5t49 -220zM444 -8q126 0 235 63t174 172.5
t66 237.5q2 181 -110 308t-276 127q-203 0 -341 -144t-137 -354q0 -109 44.5 -201.5t134.5 -150.5t210 -58z" />
    <glyph glyph-name="R" unicode="R" horiz-adv-x="970" 
d="M575 316q259 -269 348 -312v-2q-4 -2 -10 -2q-100 45 -349 314q-57 -9 -119 -9q-89 1 -191 17.5t-154 33.5v-356h-10v869q86 24 167 32.5t204 8.5q183 0 293 -82.5t110 -227.5q0 -111 -79 -185t-210 -99zM445 315q110 -2 201.5 29.5t149.5 98t58 157.5q-1 134 -103 217
t-290 83q-216 0 -361 -38v-496q167 -49 345 -51z" />
    <glyph glyph-name="S" unicode="S" horiz-adv-x="913" 
d="M485 -18q-121 0 -236.5 36t-203.5 103q2 7 5 9q185 -138 435 -138q175 0 274 66.5t99 174.5q0 59 -31.5 101t-91 65t-123.5 34.5t-149 16.5q-69 4 -124.5 18t-100.5 39.5t-69.5 67t-24.5 97.5q0 77 55 133.5t128 80.5t148 24q179 0 281.5 -70.5t102.5 -179.5
q-6 -2 -10 -2q-1 113 -104.5 177.5t-269.5 64.5q-126 0 -223.5 -63.5t-97.5 -166.5q0 -53 25.5 -93.5t70.5 -64.5t98 -36.5t117 -15.5q197 -10 300 -63.5t103 -163.5q0 -107 -98 -179t-285 -72z" />
    <glyph glyph-name="T" unicode="T" horiz-adv-x="896" 
d="M864 890q1 -5 -2 -10h-428v-880h-10v880h-392q-2 5 3 10h829z" />
    <glyph glyph-name="U" unicode="U" horiz-adv-x="1018" 
d="M496 -18q-190 0 -298 101.5t-108 300.5v506q5 3 10 0v-507q0 -193 106 -292t290 -99q189 0 305.5 112.5t116.5 290.5v495q5 2 10 0v-497q0 -174 -116 -292.5t-316 -118.5z" />
    <glyph glyph-name="V" unicode="V" horiz-adv-x="922" 
d="M476 0l-5 4q-76 212 -233.5 506t-222.5 377l1 3q6 2 10 0q87 -126 235 -401t218 -479h3q77 97 146.5 200t140 227.5t105 244t19.5 207.5q3 3 10 1q25 -157 -91.5 -391.5t-322.5 -495.5l-4 -3h-9z" />
    <glyph glyph-name="W" unicode="W" horiz-adv-x="1349" 
d="M495 0l-8 5q-81 225 -216.5 466t-255.5 416l1 3q5 2 10 0q135 -199 264 -433t206 -447h4q72 100 156 242.5t110 227.5q-50 120 -109 245q1 5 8 5q53 -110 155.5 -350t152.5 -370h3q176 220 273 454t69 426q4 3 10 0q28 -189 -67.5 -426t-275.5 -458l-9 -6h-6l-5 4
q-152 375 -193 462q-25 -80 -119.5 -240t-146.5 -223l-6 -3h-5z" />
    <glyph glyph-name="X" unicode="X" horiz-adv-x="961" 
d="M483 440q20 -19 219.5 -207.5t243.5 -228.5l-1 -4h-9q-103 90 -460 435q-26 -18 -84 -58.5t-86.5 -61t-76 -56.5t-73.5 -62t-56.5 -60t-48 -68t-26.5 -69h-10q8 32 24.5 64t34 57.5t48.5 56.5t54 51.5t66.5 53t69 50t78 54t78.5 54.5q-88 86 -229.5 232.5t-195.5 212.5
l1 3q3 3 10 1q46 -59 190 -208t232 -235q66 48 99.5 73t86 66.5t79.5 66.5t61 60t49 61.5t26 57t9 58.5q3 2 9 -1q4 -90 -84 -182t-328 -267z" />
    <glyph glyph-name="Y" unicode="Y" horiz-adv-x="879" 
d="M864 890q13 -266 -388 -604v-286h-10v286q-47 69 -222.5 305.5t-228.5 295.5l1 3q5 2 10 0q43 -46 202.5 -261.5t243.5 -332.5q83 69 149.5 138t122.5 145.5t85 156.5t25 154q4 1 10 0z" />
    <glyph glyph-name="Z" unicode="Z" horiz-adv-x="887" 
d="M841 10q1 -2 1 -5t-1 -5h-792q-4 1 -4 7q161 258 369 507t379 366h-713q-3 4 0 10h730q5 -3 5 -8q-181 -120 -386 -365.5t-370 -506.5h782z" />
    <glyph glyph-name="bracketleft" unicode="[" horiz-adv-x="511" 
d="M117 -231v1222h277v-11h-266v-1200h266v-11h-277z" />
    <glyph glyph-name="backslash" unicode="\" horiz-adv-x="783" 
d="M803 -130h-13l-810 1121h13z" />
    <glyph glyph-name="bracketright" unicode="]" horiz-adv-x="511" 
d="M394 -231h-277v11h266v1200h-266v11h277v-1222z" />
    <glyph glyph-name="asciicircum" unicode="^" horiz-adv-x="871" 
d="M754 509h-13l-304 378l-307 -378h-13l316 388h10z" />
    <glyph glyph-name="underscore" unicode="_" horiz-adv-x="720" 
d="M117 -10v10h486v-10h-486z" />
    <glyph glyph-name="grave" unicode="`" horiz-adv-x="329" 
d="M246 729l-174 245h13l172 -245h-11z" />
    <glyph glyph-name="a" unicode="a" horiz-adv-x="719" 
d="M645 117q0 -55 6.5 -76t22.5 -38l-1 -3h-9q-15 15 -22 39t-7 78l-1 171q-25 -119 -135 -212.5t-251 -93.5q-98 0 -150.5 44t-52.5 114q0 118 126.5 183t332.5 64q63 0 129 -6q-6 142 -73.5 224.5t-181.5 82.5q-124 0 -272 -97q-4 4 -3 10q151 97 275 97
q122 0 193.5 -91.5t72.5 -259.5zM248 -8q82 0 156 34.5t123 88t78 118t29 124.5v14q-66 6 -129 6q-209 1 -329.5 -63t-120.5 -174q0 -68 50.5 -108t142.5 -40z" />
    <glyph glyph-name="b" unicode="b" horiz-adv-x="768" 
d="M434 698q131 0 212.5 -94.5t81.5 -240.5q0 -153 -97 -267t-241 -114q-113 0 -192 75.5t-103 177.5v-92q0 -83 -15 -143h-8v6q13 56 13 156v770q6 2 10 0v-536q30 131 128 216.5t211 85.5zM390 -8q95 0 171.5 54.5t116.5 139t40 177.5q-1 145 -80.5 235t-203.5 90
q-132 0 -235.5 -115t-103.5 -264q0 -124 85.5 -220.5t209.5 -96.5z" />
    <glyph glyph-name="c" unicode="c" horiz-adv-x="711" 
d="M357 -18q-130 0 -223.5 94.5t-93.5 245.5q0 158 106 267t246 109q132 0 207.5 -92t71.5 -233q-1 -1 -5 -1t-5 1q2 138 -69 226.5t-200 88.5q-138 0 -240 -107.5t-102 -258.5q0 -146 90 -238t217 -92q163 0 276 107q6 -4 6 -8q-61 -56 -127.5 -82.5t-154.5 -26.5z" />
    <glyph glyph-name="d" unicode="d" horiz-adv-x="771" 
d="M687 162q0 -99 12 -156v-6h-8q-14 50 -14 143v132q-10 -53 -37.5 -103.5t-68.5 -93.5t-100 -69.5t-125 -26.5q-134 0 -220 92t-86 240q0 155 99.5 269.5t249.5 114.5q105 0 185 -73t103 -185v492q3 2 10 0v-770zM346 -8q95 0 172.5 54.5t118 136t40.5 169.5
q0 144 -82.5 240t-205.5 96q-142 0 -240.5 -110t-98.5 -264q0 -140 82 -231t214 -91z" />
    <glyph glyph-name="e" unicode="e" horiz-adv-x="707" 
d="M382 698q136 0 215.5 -90.5t73.5 -248.5l-7 -7l-613 -67q8 -135 92.5 -213.5t208.5 -79.5q142 0 268 113q6 -2 6 -8q-130 -115 -274 -115q-132 -1 -221 85.5t-91 233.5q-3 163 96.5 280t245.5 117zM661 362q5 156 -72 241t-207 85q-142 0 -238.5 -115.5t-93.5 -271.5v-6z
" />
    <glyph glyph-name="f" unicode="f" horiz-adv-x="371" 
d="M394 924q-185 -1 -193 -277h259v-10h-259v-12v-625h-10v625v12h-182v10h182q4 142 55.5 214.5t147.5 72.5q54 0 121 -23q0 -5 -3 -10q-63 23 -118 23z" />
    <glyph glyph-name="g" unicode="g" horiz-adv-x="772" 
d="M691 650q7 0 9 -1v-3q-13 -84 -13 -134v-433q0 -167 -90.5 -263t-228.5 -96q-155 0 -302 115q0 6 5 9q146 -114 297 -114q134 0 221.5 93t87.5 257l1 197q-25 -127 -117 -211t-217 -84q-128 0 -216.5 90t-87.5 242q1 154 100.5 269t248.5 115q109 0 187 -75.5t102 -185.5
l-1 118zM344 -8q89 0 164.5 46t121.5 131t47 192q-1 57 -20.5 114t-55 105t-91 78t-121.5 30q-97 0 -176 -54t-120.5 -139t-42.5 -181q-1 -137 80 -229.5t214 -92.5z" />
    <glyph glyph-name="h" unicode="h" horiz-adv-x="760" 
d="M437 698q128 0 198.5 -92t70.5 -255v-351h-10v353q0 152 -66 243.5t-193 91.5q-92 0 -175.5 -60.5t-131.5 -149.5t-48 -176v-302h-10v932q8 2 10 0v-548q30 122 132 218t223 96z" />
    <glyph glyph-name="i" unicode="i" horiz-adv-x="210" 
d="M105 834q-7 0 -11.5 5t-4.5 12q0 19 16 19t16 -19q0 -7 -4.5 -12t-11.5 -5zM100 0v647q5 3 10 0v-647h-10z" />
    <glyph glyph-name="j" unicode="j" horiz-adv-x="216" 
d="M111 834q-7 0 -11.5 5t-4.5 12q0 19 16 19t16 -19q0 -7 -4.5 -12t-11.5 -5zM8 -219q-33 0 -86 17q-2 6 2 10q51 -17 84 -17q55 -1 76.5 47t21.5 162v647q8 3 10 0v-648q0 -110 -21.5 -164t-86.5 -54z" />
    <glyph glyph-name="k" unicode="k" horiz-adv-x="796" 
d="M395 331q307 -310 365 -328v-3q-3 -2 -11 -2q-63 20 -362 327q-150 -89 -305 -156v-169h-10v932q4 2 10 0v-752q210 93 384 206q119 77 162 132t38 129q4 1 10 0q7 -73 -38.5 -133t-166.5 -137q-34 -22 -76 -46z" />
    <glyph glyph-name="l" unicode="l" horiz-adv-x="301" 
d="M194 -18q-56 0 -82 42.5t-26 137.5v770q5 2 10 0v-770q0 -92 23.5 -131.5t74.5 -38.5q31 0 87 18q4 -4 2 -10q-48 -16 -89 -18z" />
    <glyph glyph-name="m" unicode="m" horiz-adv-x="1116" 
d="M851 698q91 0 142 -78.5t51 -218.5v-401h-10v403q0 130 -47 207.5t-136 77.5q-81 0 -149 -57.5t-103 -140t-35 -166.5v-324h-10v396q0 292 -173 292q-78 0 -145.5 -60.5t-103.5 -149t-36 -176.5v-302h-10v531q0 65 -14 111v4q6 3 9 1q15 -40 15 -88v-168
q26 123 104.5 215t180.5 92q176 0 183 -287q26 117 103.5 202t183.5 85z" />
    <glyph glyph-name="n" unicode="n" horiz-adv-x="792" 
d="M451 698q128 0 198.5 -92t70.5 -255v-351h-10v353q0 152 -66 243.5t-193 91.5q-92 0 -175.5 -60.5t-131.5 -149.5t-48 -176v-302h-10v531q0 65 -14 111v4q6 3 9 1q15 -40 15 -88v-175q30 122 132 218t223 96z" />
    <glyph glyph-name="o" unicode="o" horiz-adv-x="782" 
d="M363 -18q-151 0 -237 93.5t-86 229.5q0 161 110 277t272 116q141 0 230.5 -97.5t89.5 -237.5q0 -158 -107.5 -269.5t-271.5 -111.5zM363 -8q161 0 265 109t104 262q0 138 -87 231.5t-223 93.5q-160 0 -266 -114t-106 -269q0 -130 82 -221.5t231 -91.5z" />
    <glyph glyph-name="p" unicode="p" horiz-adv-x="766" 
d="M430 698q133 0 214.5 -93t81.5 -244q0 -97 -42.5 -183.5t-120.5 -141t-172 -54.5q-109 0 -191 71t-108 173v-458q-7 -2 -10 0v754q0 58 -10 120v4q2 1 9 1l11 -71v-184q28 128 125.5 217t212.5 89zM391 -8q94 0 170.5 56t115.5 139.5t39 173.5q0 149 -80.5 238t-205.5 89
q-89 0 -168 -55.5t-124.5 -144.5t-45.5 -186q0 -121 87.5 -215.5t211.5 -94.5z" />
    <glyph glyph-name="q" unicode="q" horiz-adv-x="768" 
d="M696 646v-4q-10 -62 -10 -120v-754q-2 -2 -10 0v496q-26 -115 -117.5 -198.5t-205.5 -83.5q-137 0 -225 91t-88 235q0 170 101.5 280t242.5 110q110 0 189 -72t103 -182v132l11 71q7 0 9 -1zM353 -8q129 0 226 108.5t97 248.5t-81 239.5t-211 99.5q-135 0 -234.5 -105.5
t-99.5 -274.5q0 -136 83.5 -226t219.5 -90z" />
    <glyph glyph-name="r" unicode="r" horiz-adv-x="570" 
d="M534 674q1 -7 -2 -10q-60 24 -112 24q-73 0 -135.5 -34.5t-103 -90t-63 -124.5t-22.5 -141v-298h-10v531q0 65 -14 111v4q6 3 9 1q15 -40 15 -88v-164q25 127 112.5 215t211.5 88q54 0 114 -24z" />
    <glyph glyph-name="s" unicode="s" horiz-adv-x="731" 
d="M385 -18q-87 0 -179.5 27.5t-159.5 83.5q0 6 5 9q62 -53 151.5 -81.5t182.5 -28.5q130 0 210 49.5t80 124.5q0 87 -71 129t-243 49q-284 14 -284 173q0 75 78 128t213 53q69 0 149.5 -20.5t149.5 -65.5q0 -4 -4 -8q-132 84 -295 84q-137 0 -209 -52t-72 -119
q0 -150 276 -163q177 -8 249.5 -52t72.5 -135q0 -85 -86.5 -135t-213.5 -50z" />
    <glyph glyph-name="t" unicode="t" horiz-adv-x="518" 
d="M500 637h-384v-349q0 -139 62.5 -217.5t173.5 -78.5q57 0 128 23q4 -4 2 -10q-71 -23 -130 -23q-113 0 -179.5 79.5t-66.5 226.5v349h-96v10h96v183q3 3 10 3v-186h384v-10z" />
    <glyph glyph-name="u" unicode="u" horiz-adv-x="781" 
d="M705 116q0 -53 4 -73.5t18 -37.5v-5h-8q-14 16 -19 37.5t-5 78.5v140q-25 -117 -125 -195.5t-236 -78.5q-122 0 -192 71t-70 215v379q4 2 10 0v-379q0 -142 68.5 -209t183.5 -67q155 0 258 101t103 247v307q1 1 5 1t5 -1v-531z" />
    <glyph glyph-name="v" unicode="v" horiz-adv-x="694" 
d="M375 0l-5 4q-17 49 -37.5 98t-39 89.5t-42.5 84.5t-41 74.5t-41.5 69t-38 59.5t-37.5 54t-32 44.5t-29 38.5t-22 29l1 2q6 2 10 0q247 -319 357 -637h4q138 173 224 352t65 284q3 3 10 1q22 -108 -68.5 -295t-224.5 -348l-5 -4h-8z" />
    <glyph glyph-name="w" unicode="w" horiz-adv-x="1009" 
d="M356 0l-6 4q-24 71 -52 140t-58.5 128t-57 108t-56.5 95.5t-48 73t-41.5 59t-26.5 36.5l1 3q6 1 9 0l26 -37q27 -37 42.5 -59.5t47 -71t56.5 -94.5t55.5 -106t58.5 -128.5t52 -140.5h5q54 79 114.5 189.5t88.5 189.5l-84 178q1 2 4.5 3.5t4.5 0.5q61 -128 86 -183
t66.5 -162t72.5 -216h5q115 149 195 324t73 313q4 1 9 0q11 -123 -70.5 -308.5t-198.5 -333.5l-6 -5h-11l-5 4q-58 194 -136 371q-20 -63 -85 -183t-115 -187l-7 -5h-8z" />
    <glyph glyph-name="x" unicode="x" horiz-adv-x="711" 
d="M360 331q237 -213 341 -327l-2 -4h-7q-122 130 -340 325q-191 -143 -251.5 -203t-62.5 -122h-9q-1 28 12.5 56t32 52t65.5 64t85 69t120 91q-28 29 -78 76t-131 120.5t-125 113.5l1 3q6 2 9 2q47 -44 125 -114.5t131.5 -120.5t76.5 -74q29 23 73.5 56.5t67.5 51.5
t54.5 44t47 42.5t31.5 37.5t21.5 39.5t4.5 37.5q4 1 10 0q1 -15 -2 -29.5t-11.5 -30.5t-17.5 -29t-28 -31t-33.5 -31.5t-43 -36t-48 -37.5t-57 -43.5z" />
    <glyph glyph-name="y" unicode="y" horiz-adv-x="723" 
d="M711 647q12 -171 -69 -387t-248 -378q-145 -139 -301 -140q-47 0 -82 16q-2 7 0 10l2 1q31 -17 80 -17q78 1 154.5 38t140.5 100q60 58 109 126q-74 39 -155 125.5t-144.5 183.5t-110 180t-68.5 138l1 3q2 1 9 1q14 -38 45.5 -98.5t80 -139t102.5 -151.5t120 -137.5
t126 -96.5q104 145 155 311.5t43 311.5q7 3 10 0z" />
    <glyph glyph-name="z" unicode="z" horiz-adv-x="677" 
d="M666 10q1 -4 0 -10h-655q-2 4 -1 7q151 223 312 393.5t313 236.5h-596q-2 3 0 10h622q4 -4 2 -9q-286 -112 -639 -628h642z" />
    <glyph glyph-name="braceleft" unicode="{" horiz-adv-x="561" 
d="M358 803q-19 -54 -30.5 -122t-17.5 -113t-19.5 -88t-43.5 -66.5t-82 -29.5q39 -4 66.5 -20t42.5 -36.5t24.5 -56t12.5 -64t7.5 -76.5t9.5 -79q14 -93 46.5 -155t93.5 -121l-8 -7q-63 62 -95 124.5t-47 156.5q-5 32 -9.5 83.5t-8 80.5t-14.5 65t-29.5 55t-53.5 32t-86 13
v11q56 0 92 16t53.5 41.5t28 67.5t14.5 83t15 100t28 107q34 97 125 186l7 -8q-91 -88 -122 -180z" />
    <glyph glyph-name="bar" unicode="|" horiz-adv-x="244" 
d="M117 -231v1243h10v-1243h-10z" />
    <glyph glyph-name="braceright" unicode="}" horiz-adv-x="561" 
d="M233 805q17 -48 27.5 -107t15 -100t15 -83t28 -67.5t53.5 -41.5t92 -16v-11q-51 0 -86 -13t-53.5 -32t-29.5 -55t-14.5 -65t-8 -80.5t-9.5 -83.5q-15 -94 -47 -156.5t-95 -124.5l-8 7q61 59 93 121t47 155q5 31 9.5 79t7.5 76.5t12.5 64t24.5 56t42.5 36.5t66.5 20
q-52 6 -82.5 29.5t-44 66.5t-19.5 88t-17.5 113t-29.5 122q-33 94 -122 180l7 8q91 -89 125 -186z" />
    <glyph glyph-name="asciitilde" unicode="~" horiz-adv-x="720" 
d="M117 316q0 62 27 99.5t67 37.5q35 0 76 -20t73.5 -43.5t73.5 -43.5t75 -20q40 0 62 35.5t22 91.5h10q0 -61 -25.5 -99t-69.5 -38q-34 0 -75.5 20t-74.5 43.5t-73.5 43.5t-73.5 20q-37 0 -60.5 -35t-23.5 -92h-10z" />
    <glyph glyph-name="exclamdown" unicode="&#xa1;" horiz-adv-x="334" 
d="M167 744q-16 0 -16 18t16 18t16 -18t-16 -18zM163 -130l-1 642h9v-642h-8z" />
    <glyph glyph-name="cent" unicode="&#xa2;" horiz-adv-x="899" 
d="M776 170l6 -7q-34 -33 -107 -62.5t-174 -33.5v-197h-10v196h-19q-74 0 -137 22.5t-112.5 67t-77.5 118t-28 167.5q0 184 100.5 279t254.5 95h19v176h10v-177q173 -7 281 -95l-7 -6q-122 92 -303 92q-71 0 -132 -21.5t-109.5 -64.5t-76 -114t-27.5 -164t27.5 -164.5
t76 -114.5t109.5 -64.5t132 -21.5q107 0 186.5 29.5t117.5 64.5z" />
    <glyph glyph-name="sterling" unicode="&#xa3;" horiz-adv-x="958" 
d="M182 10h659v-10h-710v10h10q44 0 61 34t16 99q0 31 -3.5 68t-9.5 90t-9 87h-79v10h78q-7 80 -7 151q0 141 84.5 229.5t239.5 88.5q108 0 185.5 -31t119.5 -77l-7 -6q-40 43 -115.5 73.5t-183.5 30.5q-149 0 -231 -85t-82 -222q0 -72 7 -152h465v-10h-464q3 -31 9.5 -84.5
t9.5 -91t3 -69.5q2 -105 -46 -133z" />
    <glyph glyph-name="currency" unicode="&#xa4;" horiz-adv-x="594" 
d="M478 243l-7 -7l-92 103q-36 -31 -83 -31q-50 0 -83 30l-89 -101l-7 7l89 101q-34 36 -34 96q0 54 30 92l-85 93l7 7l85 -93q33 35 87 35q55 0 88 -33l84 95l8 -7l-85 -95q31 -37 31 -94t-36 -95zM182 441q0 -54 31 -88.5t83 -34.5q50 0 83 35t33 88q0 56 -31 90t-85 34
q-52 0 -83 -35.5t-31 -88.5z" />
    <glyph glyph-name="yen" unicode="&#xa5;" horiz-adv-x="963" 
d="M486 386v-37h256v-10h-256v-145h256v-10h-256v-184h-10v184h-255v10h255v145h-255v10h255v37l-359 481h13l352 -470l351 470h13z" />
    <glyph glyph-name="brokenbar" unicode="&#xa6;" horiz-adv-x="244" 
d="M117 481v531h10v-531h-10zM117 -231v534h10v-534h-10z" />
    <glyph glyph-name="section" unicode="&#xa7;" horiz-adv-x="656" 
d="M413 174q111 -72 111 -152q0 -71 -55.5 -112t-149.5 -41q-40 0 -90.5 11.5t-86.5 29.5v12q33 -19 84.5 -31t92.5 -12q87 0 141 37t54 106q0 49 -41 91.5t-99 75.5t-116.5 66.5t-99.5 80t-41 100.5q0 48 33 95t88 72q-106 72 -106 165q0 68 56 105t150 37q40 0 90.5 -10
t84.5 -26v-12q-31 17 -82.5 27.5t-92.5 10.5q-89 0 -142.5 -34.5t-53.5 -97.5q0 -49 29.5 -90t73.5 -67t95.5 -55.5t95.5 -55.5t73.5 -67.5t29.5 -91.5q0 -52 -35 -98t-91 -69zM127 436q0 -34 16 -64t49 -57t62 -45.5t77 -46t72 -42.5q57 20 92 65t35 95q0 37 -17 68.5
t-49.5 57t-63.5 44t-78 43.5t-73 42q-57 -21 -89.5 -67.5t-32.5 -92.5z" />
    <glyph glyph-name="dieresis" unicode="&#xa8;" horiz-adv-x="476" 
d="M88 783q-7 0 -11.5 5t-4.5 12q0 19 16 19t16 -19q0 -7 -4.5 -12t-11.5 -5zM388 783q-7 0 -11.5 5t-4.5 12q0 19 16 19t16 -19q0 -7 -4.5 -12t-11.5 -5z" />
    <glyph glyph-name="copyright" unicode="&#xa9;" horiz-adv-x="1235" 
d="M618 -19q-219 0 -360 125t-141 337q0 133 71 241.5t185 167t245 58.5q141 0 254 -55.5t179.5 -162.5t66.5 -249q0 -213 -140 -337.5t-360 -124.5zM618 -9q98 0 185 28.5t156 83t109 142.5t40 198q0 109 -40 197.5t-108 144t-156 85.5t-186 30q-96 0 -185.5 -34.5
t-157 -94t-108 -145.5t-40.5 -183q0 -209 138.5 -330.5t352.5 -121.5zM621 205q-113 0 -190 66t-77 170q0 108 77.5 176.5t191.5 68.5q126 0 204 -71l-7 -6q-79 67 -197 67q-106 0 -182.5 -64t-76.5 -171q0 -102 75.5 -164t179.5 -62q135 0 206 70l8 -4q-66 -76 -212 -76z
" />
    <glyph glyph-name="ordfeminine" unicode="&#xaa;" horiz-adv-x="575" 
d="M450 1074h8v-404h-8v25q-67 -30 -134 -30q-95 0 -147 57.5t-52 141.5q0 81 56 144.5t148 63.5q73 0 129 -40v42zM315 675q75 0 135 31v313q-51 43 -129 43q-88 0 -141 -60t-53 -138q0 -83 50 -136t138 -53z" />
    <glyph glyph-name="guillemotleft" unicode="&#xab;" horiz-adv-x="1185" 
d="M654 708l-524 -276l526 -279l-7 -8l-532 283v8l530 280zM543 432l525 -279l-6 -8l-532 283v8l530 280l6 -8z" />
    <glyph glyph-name="logicalnot" unicode="&#xac;" horiz-adv-x="764" 
d="M637 244v187h-520v10h530v-197h-10z" />
    <glyph glyph-name="uni00AD" unicode="&#xad;" horiz-adv-x="1161" 
d="M216 352v10h729v-10h-729z" />
    <glyph glyph-name="registered" unicode="&#xae;" horiz-adv-x="951" 
d="M476 910q149 0 253.5 -87.5t104.5 -240.5q0 -104 -51.5 -178.5t-130.5 -109t-176 -34.5q-161 0 -260 88.5t-99 233.5q0 136 105 232t254 96zM476 270q94 0 171.5 33t127 105.5t49.5 173.5q0 150 -100.5 234t-247.5 84q-145 0 -247 -92.5t-102 -225.5q0 -141 95.5 -226.5
t253.5 -85.5zM663 676q0 -48 -36.5 -80.5t-90.5 -40.5l107 -196h-11l-107 195q-6 -1 -19 -1h-165v-194h-10v440h175q71 0 114 -34.5t43 -88.5zM506 563q60 0 103.5 31.5t43.5 81.5t-41 81.5t-106 31.5h-165v-226h165z" />
    <glyph glyph-name="macron" unicode="&#xaf;" horiz-adv-x="616" 
d="M72 821v10h472v-10h-472z" />
    <glyph glyph-name="degree" unicode="&#xb0;" horiz-adv-x="614" 
d="M307 551q-82 0 -136 48.5t-54 130.5q0 78 55 129t135 51q78 0 134 -51t56 -129q0 -79 -57 -129t-133 -50zM307 561q72 0 126 46.5t54 122.5q0 73 -52 121.5t-128 48.5t-128 -48.5t-52 -121.5q0 -77 51.5 -123t128.5 -46z" />
    <glyph glyph-name="plusminus" unicode="&#xb1;" horiz-adv-x="764" 
d="M387 500h260v-10h-260v-286h-10v286h-260v10h260v288h10v-288zM117 90v10h530v-10h-530z" />
    <glyph glyph-name="uni00B2" unicode="&#xb2;" horiz-adv-x="872" 
d="M130 270h625v-10h-638v6q24 59 72 111t104 89.5t119 72t120.5 67t104 66t74.5 76t28 91.5q0 92 -79 144t-222 52q-197 0 -286 -89l-5 9q96 90 291 90q152 0 231.5 -56t79.5 -150q0 -50 -28 -94t-74.5 -78.5t-104 -67t-120 -67t-118.5 -71t-103.5 -86t-70.5 -105.5z" />
    <glyph glyph-name="uni00B3" unicode="&#xb3;" horiz-adv-x="883" 
d="M462 678q153 -21 228.5 -73.5t75.5 -143.5q0 -87 -86 -146.5t-236 -59.5q-216 0 -327 106l6 8q104 -104 321 -104q137 0 224.5 54t87.5 142q0 52 -26 90.5t-75.5 63t-110 39t-141.5 22.5v9q147 0 240 50.5t93 135.5q0 75 -83.5 118t-217.5 43q-88 0 -174 -29.5
t-121 -65.5l-6 9q42 39 127.5 67.5t173.5 28.5q148 0 229.5 -48t81.5 -123q0 -79 -75.5 -131t-208.5 -62z" />
    <glyph glyph-name="acute" unicode="&#xb4;" horiz-adv-x="330" 
d="M72 729l174 245h12l-174 -245h-12z" />
    <glyph glyph-name="uni00B5" unicode="&#xb5;" horiz-adv-x="781" 
d="M705 116q0 -53 4 -73.5t18 -37.5v-5h-8q-14 16 -19 37.5t-5 78.5v139q-25 -117 -125 -195t-236 -78q-99 0 -165 47t-87 143v-425h-10v900q4 2 10 0v-379q0 -142 68.5 -209t183.5 -67q155 0 258 101t103 247v307q1 1 5 1t5 -1v-531z" />
    <glyph glyph-name="paragraph" unicode="&#xb6;" horiz-adv-x="752" 
d="M299 -130v702q-84 0 -133 45t-49 112q0 69 45.5 115t136.5 46h336v-10h-126v-1010h-10v1010h-190v-1010h-10z" />
    <glyph glyph-name="periodcentered" unicode="&#xb7;" horiz-adv-x="392" 
d="M195 379q-6 0 -10.5 5t-4.5 12q0 19 15 19q17 0 17 -19q0 -7 -5 -12t-12 -5z" />
    <glyph glyph-name="cedilla" unicode="&#xb8;" horiz-adv-x="323" 
d="M167 -313q-49 0 -95 49l7 7q43 -46 88 -46q32 1 53 24.5t21 59.5q-2 52 -43 97t-50.5 66.5t-9.5 61.5h10q0 -38 8.5 -57t48.5 -64q46 -50 46 -104q0 -40 -23.5 -66.5t-60.5 -27.5z" />
    <glyph glyph-name="uni00B9" unicode="&#xb9;" horiz-adv-x="703" 
d="M358 270h228v-10h-469v10h231v759l-217 -46l-2 10l224 47h5v-770z" />
    <glyph glyph-name="ordmasculine" unicode="&#xba;" horiz-adv-x="560" 
d="M281 668q-79 0 -139 50.5t-60 144.5q0 96 55 151t144 55q88 0 142.5 -55t54.5 -151q0 -94 -59.5 -144.5t-137.5 -50.5zM281 678q75 0 131 47t56 138q0 92 -51.5 144t-135.5 52q-85 0 -137 -52t-52 -144q0 -91 56 -138t133 -47z" />
    <glyph glyph-name="guillemotright" unicode="&#xbb;" horiz-adv-x="1185" 
d="M656 436v-8l-532 -283l-7 8l525 279l-523 276l7 8zM538 716l530 -280v-8l-532 -283l-6 8l525 279l-523 276z" />
    <glyph glyph-name="onequarter" unicode="&#xbc;" horiz-adv-x="1224" 
d="M117 433v10h174v585l-159 -50l-2 10l165 52h6v-597h161v-10h-345zM1095 1040h12l-845 -1170h-13zM1007 478v-417h59v-10h-59v-181h-10v181h-278v5l281 422h7zM997 61v394l-262 -394h262z" />
    <glyph glyph-name="onehalf" unicode="&#xbd;" horiz-adv-x="1245" 
d="M117 437v10h174v585l-159 -50l-2 10l165 52h6v-597h161v-10h-345zM1079 1040h12l-846 -1170h-12zM805 -120h331v-10h-345v6q30 42 91 107t108.5 114.5t85.5 110.5t38 110q0 65 -42.5 107t-108.5 42q-81 0 -158 -74v14q76 70 157 70q73 0 117.5 -46.5t44.5 -113.5
q0 -49 -36 -108.5t-80.5 -107t-107.5 -113.5t-95 -108z" />
    <glyph glyph-name="threequarters" unicode="&#xbe;" horiz-adv-x="1193" 
d="M462 605q0 -65 -48 -116.5t-125 -51.5q-91 0 -172 84v13q84 -87 173 -87q68 0 115 47t47 111q0 134 -210 164v10q84 0 135.5 33t51.5 98q0 50 -42 87t-105 37q-78 0 -151 -67v13q71 64 150 64q73 0 115.5 -42t42.5 -92q0 -60 -41 -95t-112 -44q176 -37 176 -166z
M1064 1036h12l-845 -1170h-12zM992 478v-417h59v-10h-59v-181h-10v181h-278v5l281 422h7zM982 61v394l-262 -394h262z" />
    <glyph glyph-name="questiondown" unicode="&#xbf;" horiz-adv-x="815" 
d="M468 650q7 0 12 -5.5t5 -12.5t-5 -12.5t-12 -5.5q-6 0 -11 5.5t-5 12.5t5 12.5t11 5.5zM473 411q8 -47 -9 -88t-50 -71.5t-75 -58.5t-85.5 -55t-80 -54.5t-59.5 -63.5t-23 -77q0 -86 81 -139.5t224 -53.5q104 0 203.5 41t154.5 101l7 -9q-66 -65 -162.5 -104t-202.5 -39
q-148 0 -231.5 57t-83.5 146q0 43 23 80.5t59.5 65.5t80 55t85 54t75 57t50 70t8.5 86h11z" />
    <glyph glyph-name="Agrave" unicode="&#xc0;" horiz-adv-x="969" 
d="M531 958h-13l-187 190h13zM502 890q42 -84 221 -431t231 -457v-2h-11q-44 89 -127 250h-656l-133 -250h-12l475 890q6 2 12 0zM165 260h646q-235 460 -315 620z" />
    <glyph glyph-name="Aacute" unicode="&#xc1;" horiz-adv-x="969" 
d="M683 1132l-182 -199h-13l182 199h13zM502 890q42 -84 221 -431t231 -457v-2h-11q-44 89 -127 250h-656l-133 -250h-12l475 890q6 2 12 0zM165 260h646q-235 460 -315 620z" />
    <glyph glyph-name="Acircumflex" unicode="&#xc2;" horiz-adv-x="969" 
d="M497 1142l-211 -211h-15l224 222h4l224 -222h-15zM502 890q42 -84 221 -431t231 -457v-2h-11q-44 89 -127 250h-656l-133 -250h-12l475 890q6 2 12 0zM165 260h646q-235 460 -315 620z" />
    <glyph glyph-name="Atilde" unicode="&#xc3;" horiz-adv-x="969" 
d="M355 1088q-34 0 -56 -35.5t-22 -92.5h-10q0 64 25.5 101t63.5 37q41 0 92 -33t101.5 -66.5t89.5 -33.5q36 -1 57 36t21 92h10q0 -62 -24 -100t-65 -38q-40 0 -91.5 33.5t-102 66.5t-89.5 33zM502 890q42 -84 221 -431t231 -457v-2h-11q-44 89 -127 250h-656l-133 -250
h-12l475 890q6 2 12 0zM165 260h646q-235 460 -315 620z" />
    <glyph glyph-name="Adieresis" unicode="&#xc4;" horiz-adv-x="969" 
d="M348 984q-7 0 -11.5 5t-4.5 12q0 19 16 19t16 -19q0 -7 -4.5 -12t-11.5 -5zM648 984q-7 0 -11.5 5t-4.5 12q0 19 16 19t16 -19q0 -7 -4.5 -12t-11.5 -5zM502 890q42 -84 221 -431t231 -457v-2h-11q-44 89 -127 250h-656l-133 -250h-12l475 890q6 2 12 0zM165 260h646
q-235 460 -315 620z" />
    <glyph glyph-name="Aring" unicode="&#xc5;" horiz-adv-x="969" 
d="M503 887q41 -82 220 -428.5t231 -456.5v-2h-11q-44 89 -127 250h-656l-133 -250h-12l473 887q-76 2 -126.5 38t-50.5 95q0 58 52.5 96t135.5 38q76 0 131.5 -38t55.5 -96q0 -57 -56.5 -94t-126.5 -39zM321 1020q0 -53 48 -88t130 -35q70 0 123.5 36.5t53.5 86.5
q0 52 -52.5 88t-124.5 36q-79 0 -128.5 -36t-49.5 -88zM165 260h646q-235 460 -315 620z" />
    <glyph glyph-name="AE" unicode="&#xc6;" horiz-adv-x="1577" 
d="M1531 10q1 -2 1 -5t-1 -5h-715v250h-562l-226 -250h-13l801 887l3 3h685q2 -7 -1 -10h-677v-447h579q2 -6 -2 -10h-577v-413h705zM263 260h553v612z" />
    <glyph glyph-name="Ccedilla" unicode="&#xc7;" horiz-adv-x="861" 
d="M486 910q143 2 238.5 -86t91.5 -215q-6 -3 -10 -1q4 125 -89 209.5t-231 82.5q-185 -3 -308 -133.5t-123 -320.5q0 -106 34 -193.5t92.5 -143.5t134.5 -86.5t161 -30.5q76 0 160 26t151 77l5 -8q-68 -52 -154 -78.5t-162 -26.5q-24 0 -36 1q0 -33 9 -52.5t48 -62.5
q46 -50 46 -104q0 -40 -23.5 -66.5t-60.5 -27.5q-49 0 -95 49l7 7q43 -46 88 -46q32 1 53 24.5t21 59.5q-2 52 -43 97q-40 44 -50 65t-10 58q-168 16 -277 139.5t-109 322.5q0 95 33.5 180.5t92 147t140.5 98.5t175 38z" />
    <glyph glyph-name="Egrave" unicode="&#xc8;" horiz-adv-x="851" 
d="M474 958h-13l-187 190h13zM805 10q1 -2 1 -5t-1 -5h-715v887l3 3h685q2 -7 -1 -10h-677v-447h579q2 -6 -2 -10h-577v-413h705z" />
    <glyph glyph-name="Eacute" unicode="&#xc9;" horiz-adv-x="851" 
d="M627 1131l-182 -199h-13l182 199h13zM805 10q1 -2 1 -5t-1 -5h-715v887l3 3h685q2 -7 -1 -10h-677v-447h579q2 -6 -2 -10h-577v-413h705z" />
    <glyph glyph-name="Ecircumflex" unicode="&#xca;" horiz-adv-x="851" 
d="M441 1141l-211 -211h-15l224 222h4l224 -222h-15zM805 10q1 -2 1 -5t-1 -5h-715v887l3 3h685q2 -7 -1 -10h-677v-447h579q2 -6 -2 -10h-577v-413h705z" />
    <glyph glyph-name="Edieresis" unicode="&#xcb;" horiz-adv-x="851" 
d="M292 983q-7 0 -11.5 5t-4.5 12q0 19 16 19t16 -19q0 -7 -4.5 -12t-11.5 -5zM592 983q-7 0 -11.5 5t-4.5 12q0 19 16 19t16 -19q0 -7 -4.5 -12t-11.5 -5zM805 10q1 -2 1 -5t-1 -5h-715v887l3 3h685q2 -7 -1 -10h-677v-447h579q2 -6 -2 -10h-577v-413h705z" />
    <glyph glyph-name="Igrave" unicode="&#xcc;" horiz-adv-x="190" 
d="M115 958l-187 190h13l187 -190h-13zM90 0v890q6 4 10 0v-890h-10z" />
    <glyph glyph-name="Iacute" unicode="&#xcd;" horiz-adv-x="190" 
d="M85 932l182 199h13l-182 -199h-13zM90 0v890q6 4 10 0v-890h-10z" />
    <glyph glyph-name="Icircumflex" unicode="&#xce;" horiz-adv-x="190" 
d="M97 1152l224 -222h-15l-211 211l-211 -211h-15l224 222h4zM90 890q6 4 10 0v-890h-10v890z" />
    <glyph glyph-name="Idieresis" unicode="&#xcf;" horiz-adv-x="190" 
d="M-55 983q-7 0 -11.5 5t-4.5 12q0 19 16 19t16 -19q0 -7 -4.5 -12t-11.5 -5zM245 983q-7 0 -11.5 5t-4.5 12q0 19 16 19t16 -19q0 -7 -4.5 -12t-11.5 -5zM90 0v890q6 4 10 0v-890h-10z" />
    <glyph glyph-name="Eth" unicode="&#xd0;" horiz-adv-x="1030" 
d="M495 910q221 0 355.5 -126t134.5 -328q0 -212 -127.5 -342.5t-339.5 -131.5q-118 0 -182 9t-166 34v440h-110v10h110v404q136 31 325 31zM518 -8q209 0 332.5 128.5t124.5 335.5q1 191 -128 317.5t-352 126.5q-207 0 -315 -29v-396h397v-10h-397v-432q86 -23 158 -32
t180 -9z" />
    <glyph glyph-name="Ntilde" unicode="&#xd1;" horiz-adv-x="1020" 
d="M367 1087q-34 0 -56 -35.5t-22 -92.5h-10q0 64 25.5 101t63.5 37q41 0 92 -33t101.5 -66.5t89.5 -33.5q36 -1 57 36t21 92h10q0 -62 -24 -100t-65 -38q-40 0 -91.5 33.5t-102 66.5t-89.5 33zM920 890q4 3 10 0v-890h-10l-820 875v-875h-10v886q1 2 4.5 3.5t4.5 0.5
l821 -876v876z" />
    <glyph glyph-name="Ograve" unicode="&#xd2;" horiz-adv-x="974" 
d="M533 969l-187 190h13l187 -190h-13zM444 -18q-120 0 -212 57.5t-139 152.5t-48 210q0 140 64 257t176 184t248 67q113 0 205 -61.5t142 -163.5t49 -220q-1 -97 -39.5 -186t-103.5 -154t-154.5 -104t-187.5 -39zM444 -8q126 0 235 63t174 172.5t66 237.5q2 181 -110 308
t-276 127q-203 0 -341 -144t-137 -354q0 -109 44.5 -201.5t134.5 -150.5t210 -58z" />
    <glyph glyph-name="Oacute" unicode="&#xd3;" horiz-adv-x="974" 
d="M503 944l182 199h13l-182 -199h-13zM444 -18q-120 0 -212 57.5t-139 152.5t-48 210q0 140 64 257t176 184t248 67q113 0 205 -61.5t142 -163.5t49 -220q-1 -97 -39.5 -186t-103.5 -154t-154.5 -104t-187.5 -39zM444 -8q126 0 235 63t174 172.5t66 237.5q2 181 -110 308
t-276 127q-203 0 -341 -144t-137 -354q0 -109 44.5 -201.5t134.5 -150.5t210 -58z" />
    <glyph glyph-name="Ocircumflex" unicode="&#xd4;" horiz-adv-x="974" 
d="M513 1153l-211 -211h-15l224 222h4l224 -222h-15zM533 910q113 0 205 -61.5t142 -163.5t49 -220q-1 -97 -39.5 -186t-103.5 -154t-154.5 -104t-187.5 -39q-120 0 -212 57.5t-139 152.5t-48 210q0 140 64 257t176 184t248 67zM919 465q2 181 -110 308t-276 127
q-203 0 -341 -144t-137 -354q0 -109 44.5 -201.5t134.5 -150.5t210 -58q126 0 235 63t174 172.5t66 237.5z" />
    <glyph glyph-name="Otilde" unicode="&#xd5;" horiz-adv-x="974" 
d="M654 966q-40 0 -91.5 33.5t-102 66.5t-89.5 33q-34 0 -56 -35.5t-22 -92.5h-10q0 64 25.5 101t63.5 37q41 0 92 -33t101.5 -66.5t89.5 -33.5q36 -1 57 36t21 92h10q0 -62 -24 -100t-65 -38zM444 -18q-120 0 -212 57.5t-139 152.5t-48 210q0 140 64 257t176 184t248 67
q113 0 205 -61.5t142 -163.5t49 -220q-1 -97 -39.5 -186t-103.5 -154t-154.5 -104t-187.5 -39zM444 -8q126 0 235 63t174 172.5t66 237.5q2 181 -110 308t-276 127q-203 0 -341 -144t-137 -354q0 -109 44.5 -201.5t134.5 -150.5t210 -58z" />
    <glyph glyph-name="Odieresis" unicode="&#xd6;" horiz-adv-x="974" 
d="M363 995q-7 0 -11.5 5t-4.5 12q0 19 16 19t16 -19q0 -7 -4.5 -12t-11.5 -5zM663 995q-7 0 -11.5 5t-4.5 12q0 19 16 19t16 -19q0 -7 -4.5 -12t-11.5 -5zM444 -18q-120 0 -212 57.5t-139 152.5t-48 210q0 140 64 257t176 184t248 67q113 0 205 -61.5t142 -163.5t49 -220
q-1 -97 -39.5 -186t-103.5 -154t-154.5 -104t-187.5 -39zM444 -8q126 0 235 63t174 172.5t66 237.5q2 181 -110 308t-276 127q-203 0 -341 -144t-137 -354q0 -109 44.5 -201.5t134.5 -150.5t210 -58z" />
    <glyph glyph-name="multiply" unicode="&#xd7;" horiz-adv-x="712" 
d="M595 586l-230 -180l230 -180h-17l-222 173l-222 -173h-17l231 180l-231 180h17l222 -173l222 173h17z" />
    <glyph glyph-name="Oslash" unicode="&#xd8;" horiz-adv-x="974" 
d="M793 804q65 -63 101 -151.5t35 -187.5q-1 -97 -39.5 -186t-103.5 -154t-154.5 -104t-187.5 -39q-155 0 -261 93l-63 -75h-13l69 82q-129 120 -131 320q0 140 64 257t176 184t248 67q147 0 252 -99l69 82h13zM55 402q0 -92 32.5 -173.5t94.5 -138.5l597 713
q-105 97 -246 97q-203 0 -341 -144t-137 -354zM919 465q1 98 -34.5 184.5t-98.5 146.5l-596 -713q104 -91 254 -91q126 0 235 63t174 172.5t66 237.5z" />
    <glyph glyph-name="Ugrave" unicode="&#xd9;" horiz-adv-x="1018" 
d="M529 972l-187 190h13l187 -190h-13zM496 -18q-190 0 -298 101.5t-108 300.5v506q5 3 10 0v-507q0 -193 106 -292t290 -99q189 0 305.5 112.5t116.5 290.5v495q5 2 10 0v-497q0 -174 -116 -292.5t-316 -118.5z" />
    <glyph glyph-name="Uacute" unicode="&#xda;" horiz-adv-x="1018" 
d="M499 946l182 199h13l-182 -199h-13zM496 -18q-190 0 -298 101.5t-108 300.5v506q5 3 10 0v-507q0 -193 106 -292t290 -99q189 0 305.5 112.5t116.5 290.5v495q5 2 10 0v-497q0 -174 -116 -292.5t-316 -118.5z" />
    <glyph glyph-name="Ucircumflex" unicode="&#xdb;" horiz-adv-x="1018" 
d="M509 1155l-211 -211h-15l224 222h4l224 -222h-15zM918 890q5 2 10 0v-497q0 -174 -116 -292.5t-316 -118.5q-190 0 -298 101.5t-108 300.5v506q5 3 10 0v-507q0 -193 106 -292t290 -99q189 0 305.5 112.5t116.5 290.5v495z" />
    <glyph glyph-name="Udieresis" unicode="&#xdc;" horiz-adv-x="1018" 
d="M359 997q-7 0 -11.5 5t-4.5 12q0 19 16 19t16 -19q0 -7 -4.5 -12t-11.5 -5zM659 997q-7 0 -11.5 5t-4.5 12q0 19 16 19t16 -19q0 -7 -4.5 -12t-11.5 -5zM496 -18q-190 0 -298 101.5t-108 300.5v506q5 3 10 0v-507q0 -193 106 -292t290 -99q189 0 305.5 112.5t116.5 290.5
v495q5 2 10 0v-497q0 -174 -116 -292.5t-316 -118.5z" />
    <glyph glyph-name="Yacute" unicode="&#xdd;" horiz-adv-x="879" 
d="M625 1131l-182 -199h-13l182 199h13zM864 890q13 -266 -388 -604v-286h-10v286q-47 69 -222.5 305.5t-228.5 295.5l1 3q5 2 10 0q43 -46 202.5 -261.5t243.5 -332.5q83 69 149.5 138t122.5 145.5t85 156.5t25 154q4 1 10 0z" />
    <glyph glyph-name="Thorn" unicode="&#xde;" horiz-adv-x="884" 
d="M438 774q181 0 291 -81.5t110 -228.5t-116.5 -227.5t-298.5 -80.5q-177 0 -324 55v-211h-10v878q6 4 10 0v-144q82 23 152.5 31.5t185.5 8.5zM424 166q86 0 159 19t128 55t86.5 93.5t31.5 130.5q0 140 -104.5 220t-286.5 80q-206 0 -338 -42v-501q141 -55 324 -55z" />
    <glyph glyph-name="germandbls" unicode="&#xdf;" horiz-adv-x="835" 
d="M795 279q5 -136 -81 -216.5t-217 -80.5q-120 0 -215 73q0 6 4 10q49 -38 98 -55.5t113 -17.5q127 0 209.5 78t78.5 209q-3 98 -86 159t-213 59q-82 -2 -167 -40q-3 7 -1 10q63 28 122 36q115 25 176 77t61 124q0 82 -69.5 139t-207.5 57q-126 0 -204.5 -78.5
t-78.5 -205.5v-616h-10v616q0 141 86 217.5t207 76.5q145 -1 216 -61.5t71 -144.5q0 -70 -53 -121.5t-146 -76.5q127 4 215 -59t92 -168z" />
    <glyph glyph-name="agrave" unicode="&#xe0;" horiz-adv-x="719" 
d="M435 780h-11l-174 245h13zM645 117q0 -55 6.5 -76t22.5 -38l-1 -3h-9q-15 15 -22 39t-7 78l-1 171q-25 -119 -135 -212.5t-251 -93.5q-98 0 -150.5 44t-52.5 114q0 118 126.5 183t332.5 64q63 0 129 -6q-6 142 -73.5 224.5t-181.5 82.5q-124 0 -272 -97q-4 4 -3 10
q151 97 275 97q122 0 193.5 -91.5t72.5 -259.5zM248 -8q82 0 156 34.5t123 88t78 118t29 124.5v14q-66 6 -129 6q-209 1 -329.5 -63t-120.5 -174q0 -68 50.5 -108t142.5 -40z" />
    <glyph glyph-name="aacute" unicode="&#xe1;" horiz-adv-x="719" 
d="M545 1025l-174 -245h-12l174 245h12zM645 117q0 -55 6.5 -76t22.5 -38l-1 -3h-9q-15 15 -22 39t-7 78l-1 171q-25 -119 -135 -212.5t-251 -93.5q-98 0 -150.5 44t-52.5 114q0 118 126.5 183t332.5 64q63 0 129 -6q-6 142 -73.5 224.5t-181.5 82.5q-124 0 -272 -97
q-4 4 -3 10q151 97 275 97q122 0 193.5 -91.5t72.5 -259.5zM248 -8q82 0 156 34.5t123 88t78 118t29 124.5v14q-66 6 -129 6q-209 1 -329.5 -63t-120.5 -174q0 -68 50.5 -108t142.5 -40z" />
    <glyph glyph-name="acircumflex" unicode="&#xe2;" horiz-adv-x="719" 
d="M378 963l-211 -211h-15l224 222h4l224 -222h-15zM645 117q0 -55 6.5 -76t22.5 -38l-1 -3h-9q-15 15 -22 39t-7 78l-1 171q-25 -119 -135 -212.5t-251 -93.5q-98 0 -150.5 44t-52.5 114q0 118 126.5 183t332.5 64q63 0 129 -6q-6 142 -73.5 224.5t-181.5 82.5
q-124 0 -272 -97q-4 4 -3 10q151 97 275 97q122 0 193.5 -91.5t72.5 -259.5zM248 -8q82 0 156 34.5t123 88t78 118t29 124.5v14q-66 6 -129 6q-209 1 -329.5 -63t-120.5 -174q0 -68 50.5 -108t142.5 -40z" />
    <glyph glyph-name="atilde" unicode="&#xe3;" horiz-adv-x="719" 
d="M235 948q-34 0 -56 -35.5t-22 -92.5h-10q0 64 25.5 101t63.5 37q41 0 92 -33t101.5 -66.5t89.5 -33.5q36 -1 57 36t21 92h10q0 -62 -24 -100t-65 -38q-40 0 -91.5 33.5t-102 66.5t-89.5 33zM645 117q0 -55 6.5 -76t22.5 -38l-1 -3h-9q-15 15 -22 39t-7 78l-1 171
q-25 -119 -135 -212.5t-251 -93.5q-98 0 -150.5 44t-52.5 114q0 118 126.5 183t332.5 64q63 0 129 -6q-6 142 -73.5 224.5t-181.5 82.5q-124 0 -272 -97q-4 4 -3 10q151 97 275 97q122 0 193.5 -91.5t72.5 -259.5zM248 -8q82 0 156 34.5t123 88t78 118t29 124.5v14
q-66 6 -129 6q-209 1 -329.5 -63t-120.5 -174q0 -68 50.5 -108t142.5 -40z" />
    <glyph glyph-name="adieresis" unicode="&#xe4;" horiz-adv-x="719" 
d="M228 834q-7 0 -11.5 5t-4.5 12q0 19 16 19t16 -19q0 -7 -4.5 -12t-11.5 -5zM528 834q-7 0 -11.5 5t-4.5 12q0 19 16 19t16 -19q0 -7 -4.5 -12t-11.5 -5zM645 117q0 -55 6.5 -76t22.5 -38l-1 -3h-9q-15 15 -22 39t-7 78l-1 171q-25 -119 -135 -212.5t-251 -93.5
q-98 0 -150.5 44t-52.5 114q0 118 126.5 183t332.5 64q63 0 129 -6q-6 142 -73.5 224.5t-181.5 82.5q-124 0 -272 -97q-4 4 -3 10q151 97 275 97q122 0 193.5 -91.5t72.5 -259.5zM248 -8q82 0 156 34.5t123 88t78 118t29 124.5v14q-66 6 -129 6q-209 1 -329.5 -63
t-120.5 -174q0 -68 50.5 -108t142.5 -40z" />
    <glyph glyph-name="aring" unicode="&#xe5;" horiz-adv-x="719" 
d="M378 775q-80 0 -134 36t-54 97q0 58 52.5 96t135.5 38q76 0 131.5 -38t55.5 -96t-58.5 -95.5t-128.5 -37.5zM378 1032q-79 0 -128.5 -36t-49.5 -88q0 -53 48 -88t130 -35q71 0 124 36.5t53 86.5q0 52 -52.5 88t-124.5 36zM645 117q0 -55 6.5 -76t22.5 -38l-1 -3h-9
q-15 15 -22 39t-7 78l-1 171q-25 -119 -135 -212.5t-251 -93.5q-98 0 -150.5 44t-52.5 114q0 118 126.5 183t332.5 64q63 0 129 -6q-6 142 -73.5 224.5t-181.5 82.5q-124 0 -272 -97q-4 4 -3 10q151 97 275 97q122 0 193.5 -91.5t72.5 -259.5zM248 -8q82 0 156 34.5t123 88
t78 118t29 124.5v14q-66 6 -129 6q-209 1 -329.5 -63t-120.5 -174q0 -68 50.5 -108t142.5 -40z" />
    <glyph glyph-name="ae" unicode="&#xe6;" horiz-adv-x="1301" 
d="M976 698q136 0 215.5 -90.5t73.5 -248.5l-7 -7l-613 -67q8 -135 92.5 -213.5t208.5 -79.5q142 0 268 113q6 -2 6 -8q-130 -115 -274 -115q-127 -1 -215.5 80.5t-95.5 220.5q-31 -130 -142.5 -215.5t-244.5 -85.5q-98 0 -150.5 44t-52.5 114q0 118 126.5 183t332.5 64
q63 0 129 -6q-6 142 -73.5 224.5t-181.5 82.5q-124 0 -272 -97q-4 4 -3 10q151 97 275 97q113 0 184 -79.5t81 -220.5q26 130 118 215t215 85zM1255 362q5 156 -72 241t-207 85q-142 0 -238.5 -115.5t-93.5 -271.5v-6zM248 -8q80 0 153 32t123.5 83.5t80 117.5t29.5 132v14
q-68 6 -129 6q-209 1 -329.5 -63t-120.5 -174q0 -68 50.5 -108t142.5 -40z" />
    <glyph glyph-name="ccedilla" unicode="&#xe7;" horiz-adv-x="711" 
d="M392 698q132 0 207.5 -92t71.5 -233q-1 -1 -5 -1t-5 1q2 138 -69 226.5t-200 88.5q-138 0 -240 -107.5t-102 -258.5q0 -138 81.5 -229t200.5 -100v4h10v-5h15q163 0 276 107q6 -4 6 -8q-61 -56 -127.5 -82.5t-154.5 -26.5h-15q1 -27 11 -46t46 -60q46 -50 46 -104
q0 -40 -23.5 -66.5t-60.5 -27.5q-49 0 -95 49l7 7q43 -46 88 -46q32 1 53 24.5t21 59.5q-2 52 -43 97q-38 41 -48.5 62t-11.5 52q-122 9 -207 102t-85 237q0 158 106 267t246 109z" />
    <glyph glyph-name="egrave" unicode="&#xe8;" horiz-adv-x="707" 
d="M439 780h-11l-174 245h13zM382 698q136 0 215.5 -90.5t73.5 -248.5l-7 -7l-613 -67q8 -135 92.5 -213.5t208.5 -79.5q142 0 268 113q6 -2 6 -8q-130 -115 -274 -115q-132 -1 -221 85.5t-91 233.5q-3 163 96.5 280t245.5 117zM661 362q5 156 -72 241t-207 85
q-142 0 -238.5 -115.5t-93.5 -271.5v-6z" />
    <glyph glyph-name="eacute" unicode="&#xe9;" horiz-adv-x="707" 
d="M549 1025l-174 -245h-12l174 245h12zM382 698q136 0 215.5 -90.5t73.5 -248.5l-7 -7l-613 -67q8 -135 92.5 -213.5t208.5 -79.5q142 0 268 113q6 -2 6 -8q-130 -115 -274 -115q-132 -1 -221 85.5t-91 233.5q-3 163 96.5 280t245.5 117zM661 362q5 156 -72 241t-207 85
q-142 0 -238.5 -115.5t-93.5 -271.5v-6z" />
    <glyph glyph-name="ecircumflex" unicode="&#xea;" horiz-adv-x="707" 
d="M382 963l-211 -211h-15l224 222h4l224 -222h-15zM382 698q136 0 215.5 -90.5t73.5 -248.5l-7 -7l-613 -67q8 -135 92.5 -213.5t208.5 -79.5q142 0 268 113q6 -2 6 -8q-130 -115 -274 -115q-132 -1 -221 85.5t-91 233.5q-3 163 96.5 280t245.5 117zM661 362q5 156 -72 241
t-207 85q-142 0 -238.5 -115.5t-93.5 -271.5v-6z" />
    <glyph glyph-name="edieresis" unicode="&#xeb;" horiz-adv-x="707" 
d="M232 834q-7 0 -11.5 5t-4.5 12q0 19 16 19t16 -19q0 -7 -4.5 -12t-11.5 -5zM532 834q-7 0 -11.5 5t-4.5 12q0 19 16 19t16 -19q0 -7 -4.5 -12t-11.5 -5zM382 698q136 0 215.5 -90.5t73.5 -248.5l-7 -7l-613 -67q8 -135 92.5 -213.5t208.5 -79.5q142 0 268 113q6 -2 6 -8
q-130 -115 -274 -115q-132 -1 -221 85.5t-91 233.5q-3 163 96.5 280t245.5 117zM661 362q5 156 -72 241t-207 85q-142 0 -238.5 -115.5t-93.5 -271.5v-6z" />
    <glyph glyph-name="igrave" unicode="&#xec;" horiz-adv-x="210" 
d="M152 780l-174 245h13l172 -245h-11zM100 0v647q5 3 10 0v-647h-10z" />
    <glyph glyph-name="iacute" unicode="&#xed;" horiz-adv-x="210" 
d="M86 780l174 245h12l-174 -245h-12zM100 0v647q5 3 10 0v-647h-10z" />
    <glyph glyph-name="icircumflex" unicode="&#xee;" horiz-adv-x="210" 
d="M107 974l224 -222h-15l-211 211l-211 -211h-15l224 222h4zM100 647q5 3 10 0v-647h-10v647z" />
    <glyph glyph-name="idieresis" unicode="&#xef;" horiz-adv-x="210" 
d="M-45 834q-7 0 -11.5 5t-4.5 12q0 19 16 19t16 -19q0 -7 -4.5 -12t-11.5 -5zM255 834q-7 0 -11.5 5t-4.5 12q0 19 16 19t16 -19q0 -7 -4.5 -12t-11.5 -5zM100 0v647q5 3 10 0v-647h-10z" />
    <glyph glyph-name="eth" unicode="&#xf0;" horiz-adv-x="718" 
d="M421 748q117 -96 187 -206t70 -220q0 -60 -20 -118t-59.5 -108.5t-107.5 -82t-154 -31.5q-139 0 -218 81.5t-79 209.5q0 145 94 235t238 90q185 0 272 -147q-52 144 -233 292q-51 -25 -248 -112q-3 2 -5 8q3 1 98.5 43t146.5 68q-98 79 -203 130q0 7 3 10
q113 -57 210 -135q155 78 156 132q4 1 9 -2q-1 -32 -41 -65t-116 -72zM337 -8q149 0 240.5 95.5t90.5 234.5q0 109 -82 187.5t-213 78.5q-142 0 -232.5 -87.5t-90.5 -227.5q0 -123 75.5 -202t211.5 -79z" />
    <glyph glyph-name="ntilde" unicode="&#xf1;" horiz-adv-x="792" 
d="M304 948q-34 0 -56 -35.5t-22 -92.5h-10q0 64 25.5 101t63.5 37q41 0 92 -33t101.5 -66.5t89.5 -33.5q36 -1 57 36t21 92h10q0 -62 -24 -100t-65 -38q-40 0 -91.5 33.5t-102 66.5t-89.5 33zM451 698q128 0 198.5 -92t70.5 -255v-351h-10v353q0 152 -66 243.5t-193 91.5
q-92 0 -175.5 -60.5t-131.5 -149.5t-48 -176v-302h-10v531q0 65 -14 111v4q6 3 9 1q15 -40 15 -88v-175q30 122 132 218t223 96z" />
    <glyph glyph-name="ograve" unicode="&#xf2;" horiz-adv-x="782" 
d="M468 780l-174 245h13l172 -245h-11zM363 -18q-151 0 -237 93.5t-86 229.5q0 161 110 277t272 116q141 0 230.5 -97.5t89.5 -237.5q0 -158 -107.5 -269.5t-271.5 -111.5zM363 -8q161 0 265 109t104 262q0 138 -87 231.5t-223 93.5q-160 0 -266 -114t-106 -269
q0 -130 82 -221.5t231 -91.5z" />
    <glyph glyph-name="oacute" unicode="&#xf3;" horiz-adv-x="782" 
d="M403 780l174 245h12l-174 -245h-12zM363 -18q-151 0 -237 93.5t-86 229.5q0 161 110 277t272 116q141 0 230.5 -97.5t89.5 -237.5q0 -158 -107.5 -269.5t-271.5 -111.5zM363 -8q161 0 265 109t104 262q0 138 -87 231.5t-223 93.5q-160 0 -266 -114t-106 -269
q0 -130 82 -221.5t231 -91.5z" />
    <glyph glyph-name="ocircumflex" unicode="&#xf4;" horiz-adv-x="782" 
d="M422 963l-211 -211h-15l224 222h4l224 -222h-15zM422 698q141 0 230.5 -97.5t89.5 -237.5q0 -158 -107.5 -269.5t-271.5 -111.5q-151 0 -237 93.5t-86 229.5q0 161 110 277t272 116zM363 -8q161 0 265 109t104 262q0 138 -87 231.5t-223 93.5q-160 0 -266 -114t-106 -269
q0 -130 82 -221.5t231 -91.5z" />
    <glyph glyph-name="otilde" unicode="&#xf5;" horiz-adv-x="782" 
d="M562 815q-40 0 -91.5 33.5t-102 66.5t-89.5 33q-34 0 -56 -35.5t-22 -92.5h-10q0 64 25.5 101t63.5 37q41 0 92 -33t101.5 -66.5t89.5 -33.5q36 -1 57 36t21 92h10q0 -62 -24 -100t-65 -38zM363 -18q-151 0 -237 93.5t-86 229.5q0 161 110 277t272 116q141 0 230.5 -97.5
t89.5 -237.5q0 -158 -107.5 -269.5t-271.5 -111.5zM363 -8q161 0 265 109t104 262q0 138 -87 231.5t-223 93.5q-160 0 -266 -114t-106 -269q0 -130 82 -221.5t231 -91.5z" />
    <glyph glyph-name="odieresis" unicode="&#xf6;" horiz-adv-x="782" 
d="M272 834q-7 0 -11.5 5t-4.5 12q0 19 16 19t16 -19q0 -7 -4.5 -12t-11.5 -5zM572 834q-7 0 -11.5 5t-4.5 12q0 19 16 19t16 -19q0 -7 -4.5 -12t-11.5 -5zM363 -18q-151 0 -237 93.5t-86 229.5q0 161 110 277t272 116q141 0 230.5 -97.5t89.5 -237.5q0 -158 -107.5 -269.5
t-271.5 -111.5zM363 -8q161 0 265 109t104 262q0 138 -87 231.5t-223 93.5q-160 0 -266 -114t-106 -269q0 -130 82 -221.5t231 -91.5z" />
    <glyph glyph-name="divide" unicode="&#xf7;" horiz-adv-x="764" 
d="M380 611q-6 0 -11 5.5t-5 12.5q0 8 5 13.5t11 5.5q17 0 17 -19q0 -7 -5 -12.5t-12 -5.5zM117 420v10h530v-10h-530zM380 196q-6 0 -11 5.5t-5 12.5q0 8 5 13.5t11 5.5q17 0 17 -19q0 -7 -5 -12.5t-12 -5.5z" />
    <glyph glyph-name="oslash" unicode="&#xf8;" horiz-adv-x="782" 
d="M663 589q79 -95 79 -226q0 -158 -107.5 -269.5t-271.5 -111.5q-137 0 -223 80l-61 -62h-14v1l68 68q-93 90 -93 236q0 161 110 277t272 116q143 0 234 -101l49 50h13v-1zM50 305q0 -141 90 -229l307 308l34 33l168 173q-87 98 -227 98q-160 0 -266 -114t-106 -269z
M363 -8q161 0 265 109t104 262q0 129 -76 219l-197 -202l-312 -311q85 -77 216 -77z" />
    <glyph glyph-name="ugrave" unicode="&#xf9;" horiz-adv-x="781" 
d="M443 780h-11l-174 245h13zM705 116q0 -53 4 -73.5t18 -37.5v-5h-8q-14 16 -19 37.5t-5 78.5v140q-25 -117 -125 -195.5t-236 -78.5q-122 0 -192 71t-70 215v379q4 2 10 0v-379q0 -142 68.5 -209t183.5 -67q155 0 258 101t103 247v307q1 1 5 1t5 -1v-531z" />
    <glyph glyph-name="uacute" unicode="&#xfa;" horiz-adv-x="781" 
d="M552 1025l-174 -245h-12l174 245h12zM705 116q0 -53 4 -73.5t18 -37.5v-5h-8q-14 16 -19 37.5t-5 78.5v140q-25 -117 -125 -195.5t-236 -78.5q-122 0 -192 71t-70 215v379q4 2 10 0v-379q0 -142 68.5 -209t183.5 -67q155 0 258 101t103 247v307q1 1 5 1t5 -1v-531z" />
    <glyph glyph-name="ucircumflex" unicode="&#xfb;" horiz-adv-x="781" 
d="M385 963l-211 -211h-15l224 222h4l224 -222h-15zM705 116q0 -53 4 -73.5t18 -37.5v-5h-8q-14 16 -19 37.5t-5 78.5v140q-25 -117 -125 -195.5t-236 -78.5q-122 0 -192 71t-70 215v379q4 2 10 0v-379q0 -142 68.5 -209t183.5 -67q155 0 258 101t103 247v307q1 1 5 1t5 -1
v-531z" />
    <glyph glyph-name="udieresis" unicode="&#xfc;" horiz-adv-x="781" 
d="M235 834q-7 0 -11.5 5t-4.5 12q0 19 16 19t16 -19q0 -7 -4.5 -12t-11.5 -5zM535 834q-7 0 -11.5 5t-4.5 12q0 19 16 19t16 -19q0 -7 -4.5 -12t-11.5 -5zM705 116q0 -53 4 -73.5t18 -37.5v-5h-8q-14 16 -19 37.5t-5 78.5v140q-25 -117 -125 -195.5t-236 -78.5
q-122 0 -192 71t-70 215v379q4 2 10 0v-379q0 -142 68.5 -209t183.5 -67q155 0 258 101t103 247v307q1 1 5 1t5 -1v-531z" />
    <glyph glyph-name="yacute" unicode="&#xfd;" horiz-adv-x="723" 
d="M533 1026l-174 -245h-12l174 245h12zM711 647q12 -171 -69 -387t-248 -378q-145 -139 -301 -140q-47 0 -82 16q-2 7 0 10l2 1q31 -17 80 -17q78 1 154.5 38t140.5 100q60 58 109 126q-74 39 -155 125.5t-144.5 183.5t-110 180t-68.5 138l1 3q2 1 9 1q14 -38 45.5 -98.5
t80 -139t102.5 -151.5t120 -137.5t126 -96.5q104 145 155 311.5t43 311.5q7 3 10 0z" />
    <glyph glyph-name="thorn" unicode="&#xfe;" horiz-adv-x="755" 
d="M422 698q130 0 211.5 -94.5t81.5 -240.5q0 -153 -97 -267t-240 -114q-115 0 -194.5 76.5t-101.5 180.5v-470q-4 -1 -10 0v1163q6 2 10 0v-536q30 131 128 216.5t212 85.5zM378 -8q95 0 171.5 54.5t116.5 139t39 177.5q0 144 -80 234.5t-203 90.5q-133 0 -236.5 -115
t-103.5 -264q0 -124 85.5 -220.5t210.5 -96.5z" />
    <glyph glyph-name="ydieresis" unicode="&#xff;" horiz-adv-x="723" 
d="M216 835q-7 0 -11.5 5t-4.5 12q0 19 16 19t16 -19q0 -7 -4.5 -12t-11.5 -5zM516 835q-7 0 -11.5 5t-4.5 12q0 19 16 19t16 -19q0 -7 -4.5 -12t-11.5 -5zM711 647q12 -171 -69 -387t-248 -378q-145 -139 -301 -140q-47 0 -82 16q-2 7 0 10l2 1q31 -17 80 -17
q78 1 154.5 38t140.5 100q60 58 109 126q-74 39 -155 125.5t-144.5 183.5t-110 180t-68.5 138l1 3q2 1 9 1q14 -38 45.5 -98.5t80 -139t102.5 -151.5t120 -137.5t126 -96.5q104 145 155 311.5t43 311.5q7 3 10 0z" />
    <glyph glyph-name="Amacron" unicode="&#x100;" horiz-adv-x="969" 
d="M716 993v-10h-438v10h438zM502 890q42 -84 221 -431t231 -457v-2h-11q-44 89 -127 250h-656l-133 -250h-12l475 890q6 2 12 0zM165 260h646q-235 460 -315 620z" />
    <glyph glyph-name="amacron" unicode="&#x101;" horiz-adv-x="719" 
d="M614 882v-10h-472v10h472zM645 117q0 -55 6.5 -76t22.5 -38l-1 -3h-9q-15 15 -22 39t-7 78l-1 171q-25 -119 -135 -212.5t-251 -93.5q-98 0 -150.5 44t-52.5 114q0 118 126.5 183t332.5 64q63 0 129 -6q-6 142 -73.5 224.5t-181.5 82.5q-124 0 -272 -97q-4 4 -3 10
q151 97 275 97q122 0 193.5 -91.5t72.5 -259.5zM248 -8q82 0 156 34.5t123 88t78 118t29 124.5v14q-66 6 -129 6q-209 1 -329.5 -63t-120.5 -174q0 -68 50.5 -108t142.5 -40z" />
    <glyph glyph-name="Abreve" unicode="&#x102;" horiz-adv-x="969" 
d="M498 958q-89 0 -148.5 41.5t-59.5 113.5h10q0 -65 55 -105t143 -40q85 0 142.5 40t57.5 105h10q0 -70 -61 -112.5t-149 -42.5zM502 890q42 -84 221 -431t231 -457v-2h-11q-44 89 -127 250h-656l-133 -250h-12l475 890q6 2 12 0zM165 260h646q-235 460 -315 620z" />
    <glyph glyph-name="abreve" unicode="&#x103;" horiz-adv-x="719" 
d="M376 775q-93 0 -155 49.5t-62 135.5h10q0 -79 58 -127t149 -48q89 0 149 48.5t60 126.5h10q0 -84 -64 -134.5t-155 -50.5zM645 117q0 -55 6.5 -76t22.5 -38l-1 -3h-9q-15 15 -22 39t-7 78l-1 171q-25 -119 -135 -212.5t-251 -93.5q-98 0 -150.5 44t-52.5 114
q0 118 126.5 183t332.5 64q63 0 129 -6q-6 142 -73.5 224.5t-181.5 82.5q-124 0 -272 -97q-4 4 -3 10q151 97 275 97q122 0 193.5 -91.5t72.5 -259.5zM248 -8q82 0 156 34.5t123 88t78 118t29 124.5v14q-66 6 -129 6q-209 1 -329.5 -63t-120.5 -174q0 -68 50.5 -108
t142.5 -40z" />
    <glyph glyph-name="Aogonek" unicode="&#x104;" horiz-adv-x="969" 
d="M1013 -251l8 -6q-21 -29 -57 -48t-70 -19q-44 -1 -72 22t-28 68q0 52 38 118t108 122q-3 6 -124 244h-656l-133 -250h-12l475 890q6 2 12 0q42 -84 221 -431t231 -457v-2h-5q-70 -55 -107.5 -119t-37.5 -115q0 -40 25.5 -60.5t64.5 -19.5q31 0 65 18t54 45zM165 260h646
q-235 460 -315 620z" />
    <glyph glyph-name="aogonek" unicode="&#x105;" horiz-adv-x="719" 
d="M733 -250l8 -6q-21 -29 -57 -48t-70 -19q-44 -1 -72 22t-28 68q0 52 37.5 117.5t107.5 121.5q-24 27 -24 111l-1 171q-25 -119 -135 -212.5t-251 -93.5q-98 0 -150.5 44t-52.5 114q0 118 126.5 183t332.5 64q63 0 129 -6q-6 142 -73.5 224.5t-181.5 82.5q-124 0 -272 -97
q-4 4 -3 10q151 97 275 97q122 0 193.5 -91.5t72.5 -259.5l1 -230q0 -55 6.5 -76t22.5 -38l-1 -3h-6q-69 -55 -106 -118.5t-37 -114.5q0 -40 25.5 -60.5t64.5 -19.5q31 0 65 18t54 45zM248 -8q82 0 156 34.5t123 88t78 118t29 124.5v14q-66 6 -129 6q-209 1 -329.5 -63
t-120.5 -174q0 -68 50.5 -108t142.5 -40z" />
    <glyph glyph-name="Cacute" unicode="&#x106;" horiz-adv-x="861" 
d="M476 952l182 199h13l-182 -199h-13zM477 -18q-185 0 -308.5 125.5t-123.5 338.5q0 95 33.5 180.5t92 147t140.5 98.5t175 38q143 2 238.5 -86t91.5 -215q-6 -3 -10 -1q4 125 -89 209.5t-231 82.5q-185 -3 -308 -133.5t-123 -320.5q0 -106 34 -193.5t92.5 -143.5
t134.5 -86.5t161 -30.5q76 0 160 26t151 77l5 -8q-68 -52 -154 -78.5t-162 -26.5z" />
    <glyph glyph-name="cacute" unicode="&#x107;" horiz-adv-x="711" 
d="M373 780l174 245h12l-174 -245h-12zM357 -18q-130 0 -223.5 94.5t-93.5 245.5q0 158 106 267t246 109q132 0 207.5 -92t71.5 -233q-1 -1 -5 -1t-5 1q2 138 -69 226.5t-200 88.5q-138 0 -240 -107.5t-102 -258.5q0 -146 90 -238t217 -92q163 0 276 107q6 -4 6 -8
q-61 -56 -127.5 -82.5t-154.5 -26.5z" />
    <glyph glyph-name="Cdotaccent" unicode="&#x10a;" horiz-adv-x="861" 
d="M485 997q-7 0 -11.5 5t-4.5 12q0 19 16 19t16 -19q0 -7 -4.5 -12t-11.5 -5zM477 -18q-185 0 -308.5 125.5t-123.5 338.5q0 95 33.5 180.5t92 147t140.5 98.5t175 38q143 2 238.5 -86t91.5 -215q-6 -3 -10 -1q4 125 -89 209.5t-231 82.5q-185 -3 -308 -133.5t-123 -320.5
q0 -106 34 -193.5t92.5 -143.5t134.5 -86.5t161 -30.5q76 0 160 26t151 77l5 -8q-68 -52 -154 -78.5t-162 -26.5z" />
    <glyph glyph-name="cdotaccent" unicode="&#x10b;" horiz-adv-x="711" 
d="M392 834q-7 0 -11.5 5t-4.5 12q0 19 16 19t16 -19q0 -7 -4.5 -12t-11.5 -5zM357 -18q-130 0 -223.5 94.5t-93.5 245.5q0 158 106 267t246 109q132 0 207.5 -92t71.5 -233q-1 -1 -5 -1t-5 1q2 138 -69 226.5t-200 88.5q-138 0 -240 -107.5t-102 -258.5q0 -146 90 -238
t217 -92q163 0 276 107q6 -4 6 -8q-61 -56 -127.5 -82.5t-154.5 -26.5z" />
    <glyph glyph-name="Ccaron" unicode="&#x10c;" horiz-adv-x="861" 
d="M488 957h-4l-224 211h14l212 -200l212 200h14zM486 910q143 2 238.5 -86t91.5 -215q-6 -3 -10 -1q4 125 -89 209.5t-231 82.5q-185 -3 -308 -133.5t-123 -320.5q0 -106 34 -193.5t92.5 -143.5t134.5 -86.5t161 -30.5q76 0 160 26t151 77l5 -8q-68 -52 -154 -78.5
t-162 -26.5q-185 0 -308.5 125.5t-123.5 338.5q0 95 33.5 180.5t92 147t140.5 98.5t175 38z" />
    <glyph glyph-name="ccaron" unicode="&#x10d;" horiz-adv-x="711" 
d="M394 780h-4l-224 222h15l211 -211l211 211h15zM392 698q132 0 207.5 -92t71.5 -233q-1 -1 -5 -1t-5 1q2 138 -69 226.5t-200 88.5q-138 0 -240 -107.5t-102 -258.5q0 -146 90 -238t217 -92q163 0 276 107q6 -4 6 -8q-61 -56 -127.5 -82.5t-154.5 -26.5
q-130 0 -223.5 94.5t-93.5 245.5q0 158 106 267t246 109z" />
    <glyph glyph-name="Dcaron" unicode="&#x10e;" horiz-adv-x="950" 
d="M418 957h-4l-224 211h14l212 -200l212 200h14zM416 910q221 0 355 -126t134 -328q0 -212 -127.5 -342.5t-339.5 -131.5q-118 0 -182 9t-166 34v854q136 31 326 31zM438 -8q209 0 332.5 128.5t124.5 335.5q0 93 -32 173.5t-92 141t-151.5 95t-203.5 34.5q-210 0 -316 -30
v-837q87 -23 158.5 -32t179.5 -9z" />
    <glyph glyph-name="dcaron" unicode="&#x10f;" horiz-adv-x="875" 
d="M913 1048h10l-16 -333h-10zM708 932v-770q0 -100 13 -156v-6h-8q-15 45 -15 143v127q-24 -112 -113.5 -200t-216.5 -88q-134 0 -220 92t-86 240q0 155 99.5 269.5t249.5 114.5q104 0 184 -71.5t103 -182.5v488q4 2 10 0zM368 -8q95 0 172.5 54.5t117.5 136t40 169.5
q0 144 -82.5 240t-204.5 96q-143 0 -241 -110t-98 -264q-1 -140 81.5 -231t214.5 -91z" />
    <glyph glyph-name="Dcroat" unicode="&#x110;" horiz-adv-x="1030" 
d="M495 910q221 0 355.5 -126t134.5 -328q0 -212 -127.5 -342.5t-339.5 -131.5q-118 0 -182 9t-166 34v440h-110v10h110v404q136 31 325 31zM518 -8q209 0 332.5 128.5t124.5 335.5q1 191 -128 317.5t-352 126.5q-207 0 -315 -29v-396h397v-10h-397v-432q86 -23 158 -32
t180 -9z" />
    <glyph glyph-name="dcroat" unicode="&#x111;" horiz-adv-x="767" 
d="M795 797h-108v-635q0 -99 12 -156v-6h-8q-14 50 -14 143v132q-10 -53 -37.5 -103.5t-68.5 -93.5t-100 -69.5t-125 -26.5q-134 0 -220 92t-86 240q0 155 99.5 269.5t249.5 114.5q105 0 185 -73t103 -185v357h-302v9h302v126q3 2 10 0v-126h108v-9zM346 -8q95 0 172.5 54.5
t118 136t40.5 169.5q0 144 -82.5 240t-205.5 96q-142 0 -240.5 -110t-98.5 -264q0 -140 82 -231t214 -91z" />
    <glyph glyph-name="Emacron" unicode="&#x112;" horiz-adv-x="851" 
d="M660 992v-10h-438v10h438zM805 10q1 -2 1 -5t-1 -5h-715v887l3 3h685q2 -7 -1 -10h-677v-447h579q2 -6 -2 -10h-577v-413h705z" />
    <glyph glyph-name="emacron" unicode="&#x113;" horiz-adv-x="707" 
d="M618 882v-10h-472v10h472zM382 698q136 0 215.5 -90.5t73.5 -248.5l-7 -7l-613 -67q8 -135 92.5 -213.5t208.5 -79.5q142 0 268 113q6 -2 6 -8q-130 -115 -274 -115q-132 -1 -221 85.5t-91 233.5q-3 163 96.5 280t245.5 117zM661 362q5 156 -72 241t-207 85
q-142 0 -238.5 -115.5t-93.5 -271.5v-6z" />
    <glyph glyph-name="Ebreve" unicode="&#x114;" horiz-adv-x="851" 
d="M442 958q-89 0 -148.5 41.5t-59.5 113.5h10q0 -65 55 -105t143 -40q84 0 141.5 40t57.5 105h10q0 -70 -61 -112.5t-148 -42.5zM805 10q1 -2 1 -5t-1 -5h-715v887l3 3h685q2 -7 -1 -10h-677v-447h579q2 -6 -2 -10h-577v-413h705z" />
    <glyph glyph-name="ebreve" unicode="&#x115;" horiz-adv-x="707" 
d="M381 775q-93 0 -155 49.5t-62 135.5h10q0 -79 58 -127t149 -48q89 0 149 48.5t60 126.5h10q0 -84 -64 -134.5t-155 -50.5zM382 698q136 0 215.5 -90.5t73.5 -248.5l-7 -7l-613 -67q8 -135 92.5 -213.5t208.5 -79.5q142 0 268 113q6 -2 6 -8q-130 -115 -274 -115
q-132 -1 -221 85.5t-91 233.5q-3 163 96.5 280t245.5 117zM661 362q5 156 -72 241t-207 85q-142 0 -238.5 -115.5t-93.5 -271.5v-6z" />
    <glyph glyph-name="Edotaccent" unicode="&#x116;" horiz-adv-x="851" 
d="M441 977q-7 0 -11.5 5t-4.5 12q0 19 16 19t16 -19q0 -7 -4.5 -12t-11.5 -5zM805 10q1 -2 1 -5t-1 -5h-715v887l3 3h685q2 -7 -1 -10h-677v-447h579q2 -6 -2 -10h-577v-413h705z" />
    <glyph glyph-name="edotaccent" unicode="&#x117;" horiz-adv-x="707" 
d="M382 834q-7 0 -11.5 5t-4.5 12q0 19 16 19t16 -19q0 -7 -4.5 -12t-11.5 -5zM382 698q136 0 215.5 -90.5t73.5 -248.5l-7 -7l-613 -67q8 -135 92.5 -213.5t208.5 -79.5q142 0 268 113q6 -2 6 -8q-130 -115 -274 -115q-132 -1 -221 85.5t-91 233.5q-3 163 96.5 280
t245.5 117zM661 362q5 156 -72 241t-207 85q-142 0 -238.5 -115.5t-93.5 -271.5v-6z" />
    <glyph glyph-name="Eogonek" unicode="&#x118;" horiz-adv-x="851" 
d="M491 0q-70 -55 -107.5 -119t-37.5 -115q0 -40 25.5 -60.5t64.5 -19.5q31 0 65 18t54 45l8 -6q-21 -29 -57 -48t-70 -19q-44 -1 -72 22t-28 68q0 51 36 115.5t103 118.5h-385v887l3 3h685q2 -7 -1 -10h-677v-447h579q2 -6 -2 -10h-577v-413h705q1 -2 1 -5t-1 -5h-314z" />
    <glyph glyph-name="eogonek" unicode="&#x119;" horiz-adv-x="707" 
d="M382 698q136 0 215.5 -90.5t73.5 -248.5l-7 -7l-613 -67q8 -135 92.5 -213.5t208.5 -79.5h17l1 1q131 6 250 112q6 -2 6 -8q-119 -106 -253 -114q-69 -55 -106 -118.5t-37 -114.5q0 -40 25.5 -60.5t64.5 -19.5q31 0 65 18t54 45l8 -6q-21 -29 -57 -48t-70 -19
q-44 -1 -72 22t-28 68q0 50 35.5 114t100.5 118h-4q-132 -1 -221 85.5t-91 233.5q-3 163 96.5 280t245.5 117zM661 362q5 156 -72 241t-207 85q-142 0 -238.5 -115.5t-93.5 -271.5v-6z" />
    <glyph glyph-name="Ecaron" unicode="&#x11a;" horiz-adv-x="851" 
d="M444 937h-4l-224 211h14l212 -200l212 200h14zM805 10q1 -2 1 -5t-1 -5h-715v887l3 3h685q2 -7 -1 -10h-677v-447h579q2 -6 -2 -10h-577v-413h705z" />
    <glyph glyph-name="ecaron" unicode="&#x11b;" horiz-adv-x="707" 
d="M384 780h-4l-224 222h15l211 -211l211 211h15zM382 698q136 0 215.5 -90.5t73.5 -248.5l-7 -7l-613 -67q8 -135 92.5 -213.5t208.5 -79.5q142 0 268 113q6 -2 6 -8q-130 -115 -274 -115q-132 -1 -221 85.5t-91 233.5q-3 163 96.5 280t245.5 117zM661 362q5 156 -72 241
t-207 85q-142 0 -238.5 -115.5t-93.5 -271.5v-6z" />
    <glyph glyph-name="Gbreve" unicode="&#x11e;" horiz-adv-x="923" 
d="M495 978q-89 0 -148.5 41.5t-59.5 113.5h10q0 -65 55 -105t143 -40q85 0 142.5 40t57.5 105h10q0 -70 -61 -112.5t-149 -42.5zM878 618q-5 -3 -10 -1q2 126 -104.5 204.5t-268.5 78.5q-99 0 -182.5 -37t-139.5 -99t-87 -144.5t-31 -173.5q0 -209 128 -331.5t330 -122.5
q91 0 186 25t168 74v302h-394q0 5 4 10h396l4 -5v-311q-72 -51 -170.5 -78t-193.5 -27q-205 0 -336.5 125t-131.5 339q0 90 31.5 173.5t88 148.5t142.5 103.5t188 38.5q164 0 276 -81.5t107 -210.5z" />
    <glyph glyph-name="gbreve" unicode="&#x11f;" horiz-adv-x="772" 
d="M381 747q-93 0 -155 49.5t-62 135.5h10q0 -79 58 -127t149 -48q89 0 149 48.5t60 126.5h10q0 -84 -64 -134.5t-155 -50.5zM691 650q7 0 9 -1v-3q-13 -84 -13 -134v-433q0 -167 -90.5 -263t-228.5 -96q-155 0 -302 115q0 6 5 9q146 -114 297 -114q134 0 221.5 93t87.5 257
l1 197q-25 -127 -117 -211t-217 -84q-128 0 -216.5 90t-87.5 242q1 154 100.5 269t248.5 115q109 0 187 -75.5t102 -185.5l-1 118zM344 -8q89 0 164.5 46t121.5 131t47 192q-1 57 -20.5 114t-55 105t-91 78t-121.5 30q-97 0 -176 -54t-120.5 -139t-42.5 -181
q-1 -137 80 -229.5t214 -92.5z" />
    <glyph glyph-name="Gdotaccent" unicode="&#x120;" horiz-adv-x="923" 
d="M495 997q-7 0 -11.5 5t-4.5 12q0 19 16 19t16 -19q0 -7 -4.5 -12t-11.5 -5zM878 618q-5 -3 -10 -1q2 126 -104.5 204.5t-268.5 78.5q-99 0 -182.5 -37t-139.5 -99t-87 -144.5t-31 -173.5q0 -209 128 -331.5t330 -122.5q91 0 186 25t168 74v302h-394q0 5 4 10h396l4 -5
v-311q-72 -51 -170.5 -78t-193.5 -27q-205 0 -336.5 125t-131.5 339q0 90 31.5 173.5t88 148.5t142.5 103.5t188 38.5q164 0 276 -81.5t107 -210.5z" />
    <glyph glyph-name="gdotaccent" unicode="&#x121;" horiz-adv-x="772" 
d="M382 806q-7 0 -11.5 5t-4.5 12q0 19 16 19t16 -19q0 -7 -4.5 -12t-11.5 -5zM691 650q7 0 9 -1v-3q-13 -84 -13 -134v-433q0 -167 -90.5 -263t-228.5 -96q-155 0 -302 115q0 6 5 9q146 -114 297 -114q134 0 221.5 93t87.5 257l1 197q-25 -127 -117 -211t-217 -84
q-128 0 -216.5 90t-87.5 242q1 154 100.5 269t248.5 115q109 0 187 -75.5t102 -185.5l-1 118zM344 -8q89 0 164.5 46t121.5 131t47 192q-1 57 -20.5 114t-55 105t-91 78t-121.5 30q-97 0 -176 -54t-120.5 -139t-42.5 -181q-1 -137 80 -229.5t214 -92.5z" />
    <glyph glyph-name="uni0122" unicode="&#x122;" horiz-adv-x="923" 
d="M878 618q-5 -3 -10 -1q2 126 -104.5 204.5t-268.5 78.5q-99 0 -182.5 -37t-139.5 -99t-87 -144.5t-31 -173.5q0 -209 128 -331.5t330 -122.5q91 0 186 25t168 74v302h-394q0 5 4 10h396l4 -5v-311q-72 -51 -170.5 -78t-193.5 -27q-205 0 -336.5 125t-131.5 339
q0 90 31.5 173.5t88 148.5t142.5 103.5t188 38.5q164 0 276 -81.5t107 -210.5zM447 -299l45 206h10l-45 -206h-10z" />
    <glyph glyph-name="uni0123" unicode="&#x123;" horiz-adv-x="772" 
d="M422 1000l-45 -206h-10l45 206h10zM691 650q7 0 9 -1v-3q-13 -84 -13 -134v-433q0 -167 -90.5 -263t-228.5 -96q-155 0 -302 115q0 6 5 9q146 -114 297 -114q134 0 221.5 93t87.5 257l1 197q-25 -127 -117 -211t-217 -84q-128 0 -216.5 90t-87.5 242q1 154 100.5 269
t248.5 115q109 0 187 -75.5t102 -185.5l-1 118zM344 -8q89 0 164.5 46t121.5 131t47 192q-1 57 -20.5 114t-55 105t-91 78t-121.5 30q-97 0 -176 -54t-120.5 -139t-42.5 -181q-1 -137 80 -229.5t214 -92.5z" />
    <glyph glyph-name="Hcircumflex" unicode="&#x124;" horiz-adv-x="930" 
d="M465 1141l-211 -211h-15l224 222h4l224 -222h-15zM830 890q2 2 5 2t5 -2v-890h-10v398h-730v-398h-10v890q5 2 10 0v-482h730v482z" />
    <glyph glyph-name="hcircumflex" unicode="&#x125;" horiz-adv-x="760" 
d="M392 1166l-211 -211h-15l224 222h4l224 -222h-15zM437 698q128 0 198.5 -92t70.5 -255v-351h-10v353q0 152 -66 243.5t-193 91.5q-92 0 -175.5 -60.5t-131.5 -149.5t-48 -176v-302h-10v932q8 2 10 0v-548q30 122 132 218t223 96z" />
    <glyph glyph-name="Hbar" unicode="&#x126;" horiz-adv-x="976" 
d="M904 625v-10h-39v-615h-10v398h-731v-398h-10v615h-42v10h42v265q6 3 10 0v-265h731v265q1 2 5 2t5 -2v-265h39zM855 408v207h-731v-207h731z" />
    <glyph glyph-name="hbar" unicode="&#x127;" horiz-adv-x="727" 
d="M404 698q128 0 198.5 -92t70.5 -255v-351h-10v353q0 152 -66 243.5t-193 91.5q-92 0 -175.5 -60.5t-131.5 -149.5t-48 -176v-302h-10v829h-95v10h95v93q7 2 10 0v-93h367v-10h-367v-445q30 122 132 218t223 96z" />
    <glyph glyph-name="Imacron" unicode="&#x12a;" horiz-adv-x="190" 
d="M-37 982v10h263v-10h-263zM90 0v890q6 4 10 0v-890h-10z" />
    <glyph glyph-name="imacron" unicode="&#x12b;" horiz-adv-x="210" 
d="M-83 872v10h377v-10h-377zM100 0v647q5 3 10 0v-647h-10z" />
    <glyph glyph-name="Iogonek" unicode="&#x12e;" horiz-adv-x="190" 
d="M162 -251l8 -6q-21 -29 -57 -48t-70 -19q-44 -1 -72 22t-28 68q0 52 38.5 119t108.5 122v883q6 4 10 0v-890h-2q-70 -55 -107.5 -119t-37.5 -115q0 -40 25.5 -60.5t64.5 -19.5q31 0 65 18t54 45z" />
    <glyph glyph-name="iogonek" unicode="&#x12f;" horiz-adv-x="210" 
d="M105 834q-7 0 -11.5 5t-4.5 12q0 19 16 19t16 -19q0 -7 -4.5 -12t-11.5 -5zM171 -251l8 -6q-21 -29 -57 -48t-70 -19q-44 -1 -72 22t-28 68q0 53 38.5 119.5t109.5 121.5v640q5 3 10 0v-647h-3q-70 -55 -107.5 -119t-37.5 -115q0 -40 25.5 -60.5t64.5 -19.5q31 0 65 18
t54 45z" />
    <glyph glyph-name="Idotaccent" unicode="&#x130;" horiz-adv-x="190" 
d="M95 977q-7 0 -11.5 5t-4.5 12q0 19 16 19t16 -19q0 -7 -4.5 -12t-11.5 -5zM90 0v890q6 4 10 0v-890h-10z" />
    <glyph glyph-name="dotlessi" unicode="&#x131;" horiz-adv-x="210" 
d="M100 0v647q5 3 10 0v-647h-10z" />
    <glyph glyph-name="IJ" unicode="&#x132;" horiz-adv-x="1033" 
d="M90 0v890q6 4 10 0v-890h-10zM554 -18q-102 0 -207.5 58.5t-185.5 147.5q0 6 6 8q78 -88 181 -146t206 -58q160 0 259.5 107.5t99.5 274.5v516q6 2 10 0v-518q0 -106 -42.5 -193.5t-127.5 -142t-199 -54.5z" />
    <glyph glyph-name="ij" unicode="&#x133;" horiz-adv-x="426" 
d="M105 834q-7 0 -11.5 5t-4.5 12q0 19 16 19t16 -19q0 -7 -4.5 -12t-11.5 -5zM321 834q-6 0 -11 5t-5 12q0 8 5 13.5t11 5.5q16 0 16 -19q0 -7 -4.5 -12t-11.5 -5zM100 0v647q5 3 10 0v-647h-10zM218 -219q-33 0 -86 17q-2 6 2 10q51 -17 84 -17q55 -1 76.5 47t21.5 162
v647q8 3 10 0v-648q0 -110 -21.5 -164t-86.5 -54z" />
    <glyph glyph-name="Jcircumflex" unicode="&#x134;" horiz-adv-x="925" 
d="M812 1152l224 -222h-15l-211 211l-211 -211h-15l224 222h4zM805 890q5 2 10 0v-518q0 -106 -42.5 -193.5t-127.5 -142t-199 -54.5q-103 0 -208 58t-185 148q0 6 6 8q78 -88 181 -146t206 -58q160 0 259.5 107.5t99.5 274.5v516z" />
    <glyph glyph-name="jcircumflex" unicode="&#x135;" horiz-adv-x="216" 
d="M114 974l224 -222h-15l-211 211l-211 -211h-15l224 222h4zM106 647q8 3 10 0v-648q0 -110 -21.5 -164t-86.5 -54q-33 0 -86 17q-2 6 2 10q51 -17 84 -17q55 -1 76.5 47t21.5 162v647z" />
    <glyph glyph-name="uni0136" unicode="&#x136;" horiz-adv-x="977" 
d="M464 472q381 -406 495 -468v-2q-4 -2 -10 -2q-135 76 -493 467q-155 -80 -356 -166v-301h-10v890q6 4 10 0v-579q333 147 491 245q298 185 288 334q6 4 10 0q6 -82 -70.5 -166.5t-223.5 -177.5q-61 -38 -131 -74zM426 -289l45 206h10l-45 -206h-10z" />
    <glyph glyph-name="uni0137" unicode="&#x137;" horiz-adv-x="796" 
d="M395 331q307 -310 365 -328v-3q-3 -2 -11 -2q-63 20 -362 327q-150 -89 -305 -156v-169h-10v932q4 2 10 0v-752q210 93 384 206q119 77 162 132t38 129q4 1 10 0q7 -73 -38.5 -133t-166.5 -137q-34 -22 -76 -46zM337 -289l45 206h10l-45 -206h-10z" />
    <glyph glyph-name="kgreenlandic" unicode="&#x138;" horiz-adv-x="796" 
d="M395 331q307 -310 365 -328v-3q-3 -2 -11 -2q-63 20 -362 327q-150 -89 -305 -156v-169h-10v647q4 2 10 0v-467q210 93 384 206q119 77 162 132t38 129q4 1 10 0q7 -73 -38.5 -133t-166.5 -137q-34 -22 -76 -46z" />
    <glyph glyph-name="Lacute" unicode="&#x139;" horiz-adv-x="836" 
d="M95 932l182 199h13l-182 -199h-13zM95 0l-5 5v885q1 1 5 1t5 -1v-880h704q5 -5 0 -10h-709z" />
    <glyph glyph-name="lacute" unicode="&#x13a;" horiz-adv-x="301" 
d="M86 974l182 199h13l-182 -199h-13zM194 -18q-56 0 -82 42.5t-26 137.5v770q5 2 10 0v-770q0 -92 23.5 -131.5t74.5 -38.5q31 0 87 18q4 -4 2 -10q-48 -16 -89 -18z" />
    <glyph glyph-name="uni013B" unicode="&#x13b;" horiz-adv-x="836" 
d="M95 0l-5 5v885q1 1 5 1t5 -1v-880h704q5 -5 0 -10h-709zM385 -289l45 206h10l-45 -206h-10z" />
    <glyph glyph-name="uni013C" unicode="&#x13c;" horiz-adv-x="301" 
d="M194 -18q-56 0 -82 42.5t-26 137.5v770q5 2 10 0v-770q0 -92 23.5 -131.5t74.5 -38.5q31 0 87 18q4 -4 2 -10q-48 -16 -89 -18zM164 -303l45 206h10l-45 -206h-10z" />
    <glyph glyph-name="Lcaron" unicode="&#x13d;" horiz-adv-x="836" 
d="M542 867l16 333h10l-16 -333h-10zM95 0l-5 5v885q1 1 5 1t5 -1v-880h704q5 -5 0 -10h-709z" />
    <glyph glyph-name="lcaron" unicode="&#x13e;" horiz-adv-x="301" 
d="M275 841l16 333h10l-16 -333h-10zM194 -18q-56 0 -82 42.5t-26 137.5v770q5 2 10 0v-770q0 -92 23.5 -131.5t74.5 -38.5q31 0 87 18q4 -4 2 -10q-48 -16 -89 -18z" />
    <glyph glyph-name="Lslash" unicode="&#x141;" horiz-adv-x="927" 
d="M896 10q3 -4 0 -10h-710l-4 5v333l-112 -44v10l112 44v542q1 1 4.5 1t5.5 -1v-538l375 149v-10l-375 -149v-332h704z" />
    <glyph glyph-name="lslash" unicode="&#x142;" horiz-adv-x="305" 
d="M285 10q4 -4 2 -10q-48 -16 -89 -18q-56 0 -82 42.5t-26 137.5v394l-116 -59v11l116 59v365q5 2 10 0v-360l151 76v-11l-151 -76v-399q0 -92 23.5 -131.5t74.5 -38.5q31 0 87 18z" />
    <glyph glyph-name="Nacute" unicode="&#x143;" horiz-adv-x="1020" 
d="M695 1131l-182 -199h-13l182 199h13zM920 890q4 3 10 0v-890h-10l-820 875v-875h-10v886q1 2 4.5 3.5t4.5 0.5l821 -876v876z" />
    <glyph glyph-name="nacute" unicode="&#x144;" horiz-adv-x="792" 
d="M614 1025l-174 -245h-12l174 245h12zM451 698q128 0 198.5 -92t70.5 -255v-351h-10v353q0 152 -66 243.5t-193 91.5q-92 0 -175.5 -60.5t-131.5 -149.5t-48 -176v-302h-10v531q0 65 -14 111v4q6 3 9 1q15 -40 15 -88v-175q30 122 132 218t223 96z" />
    <glyph glyph-name="uni0145" unicode="&#x145;" horiz-adv-x="1020" 
d="M920 890q4 3 10 0v-890h-10l-820 875v-875h-10v886q1 2 4.5 3.5t4.5 0.5l821 -876v876zM463 -289l45 206h10l-45 -206h-10z" />
    <glyph glyph-name="uni0146" unicode="&#x146;" horiz-adv-x="792" 
d="M451 698q128 0 198.5 -92t70.5 -255v-351h-10v353q0 152 -66 243.5t-193 91.5q-92 0 -175.5 -60.5t-131.5 -149.5t-48 -176v-302h-10v531q0 65 -14 111v4q6 3 9 1q15 -40 15 -88v-175q30 122 132 218t223 96zM370 -289l45 206h10l-45 -206h-10z" />
    <glyph glyph-name="Ncaron" unicode="&#x147;" horiz-adv-x="1020" 
d="M512 937h-4l-224 211h14l212 -200l212 200h14zM920 890q4 3 10 0v-890h-10l-820 875v-875h-10v886q1 2 4.5 3.5t4.5 0.5l821 -876v876z" />
    <glyph glyph-name="ncaron" unicode="&#x148;" horiz-adv-x="792" 
d="M449 780h-4l-224 222h15l211 -211l211 211h15zM451 698q128 0 198.5 -92t70.5 -255v-351h-10v353q0 152 -66 243.5t-193 91.5q-92 0 -175.5 -60.5t-131.5 -149.5t-48 -176v-302h-10v531q0 65 -14 111v4q6 3 9 1q15 -40 15 -88v-175q30 122 132 218t223 96z" />
    <glyph glyph-name="Eng" unicode="&#x14a;" horiz-adv-x="1004" 
d="M546 -342q-103 0 -208 50t-185 126q0 6 6 8q78 -75 181 -124.5t206 -49.5q156 0 257 94.5t101 239.5l-804 862v-864h-10v876q1 2 4.5 3.5t4.5 0.5l805 -865v865q6 3 10 0v-879q0 -147 -102 -245t-266 -98z" />
    <glyph glyph-name="eng" unicode="&#x14b;" horiz-adv-x="792" 
d="M451 698q128 0 198.5 -92t70.5 -255v-352q0 -110 -21.5 -164t-86.5 -54q-32 0 -85 17q-2 7 1 10q53 -17 84 -17q55 -1 76.5 47t21.5 162v353q0 152 -66 243.5t-193 91.5q-92 0 -175.5 -60.5t-131.5 -149.5t-48 -176v-302h-10v531q0 65 -14 111v4q6 3 9 1q15 -40 15 -88
v-176q30 123 132.5 219t222.5 96z" />
    <glyph glyph-name="Omacron" unicode="&#x14c;" horiz-adv-x="974" 
d="M294 994v10h438v-10h-438zM444 -18q-120 0 -212 57.5t-139 152.5t-48 210q0 140 64 257t176 184t248 67q113 0 205 -61.5t142 -163.5t49 -220q-1 -97 -39.5 -186t-103.5 -154t-154.5 -104t-187.5 -39zM444 -8q126 0 235 63t174 172.5t66 237.5q2 181 -110 308t-276 127
q-203 0 -341 -144t-137 -354q0 -109 44.5 -201.5t134.5 -150.5t210 -58z" />
    <glyph glyph-name="omacron" unicode="&#x14d;" horiz-adv-x="782" 
d="M186 872v10h472v-10h-472zM363 -18q-151 0 -237 93.5t-86 229.5q0 161 110 277t272 116q141 0 230.5 -97.5t89.5 -237.5q0 -158 -107.5 -269.5t-271.5 -111.5zM363 -8q161 0 265 109t104 262q0 138 -87 231.5t-223 93.5q-160 0 -266 -114t-106 -269q0 -130 82 -221.5
t231 -91.5z" />
    <glyph glyph-name="Ohungarumlaut" unicode="&#x150;" horiz-adv-x="974" 
d="M376 971l149 171h13l-150 -171h-12zM570 971l149 171h13l-149 -171h-13zM444 -18q-120 0 -212 57.5t-139 152.5t-48 210q0 140 64 257t176 184t248 67q113 0 205 -61.5t142 -163.5t49 -220q-1 -97 -39.5 -186t-103.5 -154t-154.5 -104t-187.5 -39zM444 -8q126 0 235 63
t174 172.5t66 237.5q2 181 -110 308t-276 127q-203 0 -341 -144t-137 -354q0 -109 44.5 -201.5t134.5 -150.5t210 -58z" />
    <glyph glyph-name="ohungarumlaut" unicode="&#x151;" horiz-adv-x="782" 
d="M270 780l173 245h13l-174 -245h-12zM478 780l173 245h12l-174 -245h-11zM363 -18q-151 0 -237 93.5t-86 229.5q0 161 110 277t272 116q141 0 230.5 -97.5t89.5 -237.5q0 -158 -107.5 -269.5t-271.5 -111.5zM363 -8q161 0 265 109t104 262q0 138 -87 231.5t-223 93.5
q-160 0 -266 -114t-106 -269q0 -130 82 -221.5t231 -91.5z" />
    <glyph glyph-name="OE" unicode="&#x152;" horiz-adv-x="1681" 
d="M1635 10q1 -2 1 -5t-1 -5h-714v371q-35 -166 -169 -277.5t-307 -111.5q-181 0 -290 120.5t-110 299.5q0 140 64 257t176.5 184t247.5 67q146 0 252 -97.5t136 -245.5v310l2 3h685q2 -7 -1 -10h-676v-401v-4v-32h578q2 -5 -1 -10h-577v-413h704zM445 -8q126 0 235.5 63
t174.5 172.5t66 237.5v4q-1 180 -112.5 305.5t-274.5 125.5q-134 0 -244 -65.5t-172.5 -180t-62.5 -252.5q0 -81 26.5 -154.5t75 -131t123 -91t165.5 -33.5z" />
    <glyph glyph-name="oe" unicode="&#x153;" horiz-adv-x="1398" 
d="M1073 698q137 0 216 -90.5t73 -248.5l-6 -7l-614 -67q8 -135 92.5 -213.5t208.5 -79.5q142 0 268 113q5 -2 7 -8q-130 -115 -275 -115q-125 -1 -212.5 78t-98.5 215q-28 -128 -129 -210.5t-240 -82.5q-151 0 -237 93.5t-86 229.5q0 161 110 277t272 116q132 0 219 -85.5
t99 -213.5q27 130 119 214.5t214 84.5zM363 -8q161 0 265 109t104 262q0 138 -87 231.5t-223 93.5q-160 0 -266 -114t-106 -269q0 -130 82 -221.5t231 -91.5zM1352 362q5 156 -72 241t-207 85q-142 0 -238 -115.5t-94 -271.5v-6z" />
    <glyph glyph-name="Racute" unicode="&#x154;" horiz-adv-x="970" 
d="M646 1141l-182 -199h-13l182 199h13zM575 316q259 -269 348 -312v-2q-4 -2 -10 -2q-100 45 -349 314q-57 -9 -119 -9q-89 1 -191 17.5t-154 33.5v-356h-10v869q86 24 167 32.5t204 8.5q183 0 293 -82.5t110 -227.5q0 -111 -79 -185t-210 -99zM445 315q110 -2 201.5 29.5
t149.5 98t58 157.5q-1 134 -103 217t-290 83q-216 0 -361 -38v-496q167 -49 345 -51z" />
    <glyph glyph-name="racute" unicode="&#x155;" horiz-adv-x="570" 
d="M466 1056l-174 -245h-12l174 245h12zM534 674q1 -7 -2 -10q-60 24 -112 24q-73 0 -135.5 -34.5t-103 -90t-63 -124.5t-22.5 -141v-298h-10v531q0 65 -14 111v4q6 3 9 1q15 -40 15 -88v-164q25 127 112.5 215t211.5 88q54 0 114 -24z" />
    <glyph glyph-name="uni0156" unicode="&#x156;" horiz-adv-x="970" 
d="M575 316q259 -269 348 -312v-2q-4 -2 -10 -2q-100 45 -349 314q-57 -9 -119 -9q-89 1 -191 17.5t-154 33.5v-356h-10v869q86 24 167 32.5t204 8.5q183 0 293 -82.5t110 -227.5q0 -111 -79 -185t-210 -99zM445 315q110 -2 201.5 29.5t149.5 98t58 157.5q-1 134 -103 217
t-290 83q-216 0 -361 -38v-496q167 -49 345 -51zM434 -289l45 206h10l-45 -206h-10z" />
    <glyph glyph-name="uni0157" unicode="&#x157;" horiz-adv-x="570" 
d="M534 674q1 -7 -2 -10q-60 24 -112 24q-73 0 -135.5 -34.5t-103 -90t-63 -124.5t-22.5 -141v-298h-10v531q0 65 -14 111v4q6 3 9 1q15 -40 15 -88v-164q25 127 112.5 215t211.5 88q54 0 114 -24zM63 -289l45 206h10l-45 -206h-10z" />
    <glyph glyph-name="Rcaron" unicode="&#x158;" horiz-adv-x="970" 
d="M463 947h-4l-224 211h14l212 -200l212 200h14zM575 316q259 -269 348 -312v-2q-4 -2 -10 -2q-100 45 -349 314q-57 -9 -119 -9q-89 1 -191 17.5t-154 33.5v-356h-10v869q86 24 167 32.5t204 8.5q183 0 293 -82.5t110 -227.5q0 -111 -79 -185t-210 -99zM445 315
q110 -2 201.5 29.5t149.5 98t58 157.5q-1 134 -103 217t-290 83q-216 0 -361 -38v-496q167 -49 345 -51z" />
    <glyph glyph-name="rcaron" unicode="&#x159;" horiz-adv-x="570" 
d="M301 811h-4l-224 222h15l211 -211l211 211h15zM534 674q1 -7 -2 -10q-60 24 -112 24q-73 0 -135.5 -34.5t-103 -90t-63 -124.5t-22.5 -141v-298h-10v531q0 65 -14 111v4q6 3 9 1q15 -40 15 -88v-164q25 127 112.5 215t211.5 88q54 0 114 -24z" />
    <glyph glyph-name="Sacute" unicode="&#x15a;" horiz-adv-x="913" 
d="M465 952l182 199h13l-182 -199h-13zM485 -18q-121 0 -236.5 36t-203.5 103q2 7 5 9q185 -138 435 -138q175 0 274 66.5t99 174.5q0 59 -31.5 101t-91 65t-123.5 34.5t-149 16.5q-69 4 -124.5 18t-100.5 39.5t-69.5 67t-24.5 97.5q0 77 55 133.5t128 80.5t148 24
q179 0 281.5 -70.5t102.5 -179.5q-6 -2 -10 -2q-1 113 -104.5 177.5t-269.5 64.5q-126 0 -223.5 -63.5t-97.5 -166.5q0 -53 25.5 -93.5t70.5 -64.5t98 -36.5t117 -15.5q197 -10 300 -63.5t103 -163.5q0 -107 -98 -179t-285 -72z" />
    <glyph glyph-name="sacute" unicode="&#x15b;" horiz-adv-x="731" 
d="M349 780l174 245h12l-174 -245h-12zM385 -18q-87 0 -179.5 27.5t-159.5 83.5q0 6 5 9q62 -53 151.5 -81.5t182.5 -28.5q130 0 210 49.5t80 124.5q0 87 -71 129t-243 49q-284 14 -284 173q0 75 78 128t213 53q69 0 149.5 -20.5t149.5 -65.5q0 -4 -4 -8q-132 84 -295 84
q-137 0 -209 -52t-72 -119q0 -150 276 -163q177 -8 249.5 -52t72.5 -135q0 -85 -86.5 -135t-213.5 -50z" />
    <glyph glyph-name="Scedilla" unicode="&#x15e;" horiz-adv-x="913" 
d="M868 233q0 -106 -96 -178t-280 -73q0 -32 9.5 -51.5t47.5 -62.5q46 -50 46 -104q0 -40 -23.5 -66.5t-60.5 -27.5q-49 0 -95 49l7 7q43 -46 88 -46q32 1 53 24.5t21 59.5q-2 52 -43 97q-39 44 -49.5 65t-10.5 56q-120 1 -234.5 37t-202.5 102q2 7 5 9q185 -138 435 -138
q175 0 274 66.5t99 174.5q0 59 -31.5 101t-91 65t-123.5 34.5t-149 16.5q-69 4 -124.5 18t-100.5 39.5t-69.5 67t-24.5 97.5q0 77 55 133.5t128 80.5t148 24q179 0 281.5 -70.5t102.5 -179.5q-6 -2 -10 -2q-1 113 -104.5 177.5t-269.5 64.5q-126 0 -223.5 -63.5
t-97.5 -166.5q0 -53 25.5 -93.5t70.5 -64.5t98 -36.5t117 -15.5q197 -10 300 -63.5t103 -163.5z" />
    <glyph glyph-name="scedilla" unicode="&#x15f;" horiz-adv-x="731" 
d="M685 167q0 -85 -86.5 -135t-213.5 -50h-13q0 -33 9 -52.5t48 -62.5q46 -50 46 -104q0 -40 -23.5 -66.5t-60.5 -27.5q-49 0 -95 49l7 7q43 -46 88 -46q32 1 53 24.5t21 59.5q-2 52 -43 97q-40 44 -50 65t-10 57q-84 4 -169 32t-147 79q0 6 5 9q62 -53 151.5 -81.5
t182.5 -28.5q130 0 210 49.5t80 124.5q0 87 -71 129t-243 49q-284 14 -284 173q0 75 78 128t213 53q69 0 149.5 -20.5t149.5 -65.5q0 -4 -4 -8q-132 84 -295 84q-137 0 -209 -52t-72 -119q0 -150 276 -163q177 -8 249.5 -52t72.5 -135z" />
    <glyph glyph-name="Scaron" unicode="&#x160;" horiz-adv-x="913" 
d="M477 957h-4l-224 211h14l212 -200l212 200h14zM465 460q197 -10 300 -63.5t103 -163.5q0 -107 -98 -179t-285 -72q-121 0 -236.5 36t-203.5 103q2 7 5 9q185 -138 435 -138q175 0 274 66.5t99 174.5q0 59 -31.5 101t-91 65t-123.5 34.5t-149 16.5q-69 4 -124.5 18
t-100.5 39.5t-69.5 67t-24.5 97.5q0 77 55 133.5t128 80.5t148 24q179 0 281.5 -70.5t102.5 -179.5q-6 -2 -10 -2q-1 113 -104.5 177.5t-269.5 64.5q-126 0 -223.5 -63.5t-97.5 -166.5q0 -53 25.5 -93.5t70.5 -64.5t98 -36.5t117 -15.5z" />
    <glyph glyph-name="scaron" unicode="&#x161;" horiz-adv-x="731" 
d="M370 780h-4l-224 222h15l211 -211l211 211h15zM363 354q177 -8 249.5 -52t72.5 -135q0 -85 -86.5 -135t-213.5 -50q-87 0 -179.5 27.5t-159.5 83.5q0 6 5 9q62 -53 151.5 -81.5t182.5 -28.5q130 0 210 49.5t80 124.5q0 87 -71 129t-243 49q-284 14 -284 173q0 75 78 128
t213 53q69 0 149.5 -20.5t149.5 -65.5q0 -4 -4 -8q-132 84 -295 84q-137 0 -209 -52t-72 -119q0 -150 276 -163z" />
    <glyph glyph-name="uni0162" unicode="&#x162;" horiz-adv-x="896" 
d="M862 880h-428v-880q0 -38 8.5 -57t48.5 -64q46 -50 46 -104q0 -40 -23.5 -66.5t-60.5 -27.5q-49 0 -95 49l7 7q43 -46 88 -46q32 1 53 24.5t21 59.5q-2 52 -43 97t-50.5 66.5t-9.5 61.5v880h-392q-2 5 3 10h829q1 -5 -2 -10z" />
    <glyph glyph-name="uni0163" unicode="&#x163;" horiz-adv-x="518" 
d="M500 637h-384v-349q0 -139 62.5 -217.5t173.5 -78.5q57 0 128 23q4 -4 2 -10q-71 -23 -130 -23q-45 0 -85 14q0 -36 9 -55.5t48 -63.5q46 -50 46 -104q0 -40 -23.5 -66.5t-60.5 -27.5q-49 0 -95 49l7 7q43 -46 88 -46q32 1 53 24.5t21 59.5q-2 52 -43 97t-50.5 66.5
t-9.5 61.5h3q-73 28 -113.5 102.5t-40.5 187.5v349h-96v10h96v183q3 3 10 3v-186h384v-10z" />
    <glyph glyph-name="Tcaron" unicode="&#x164;" horiz-adv-x="896" 
d="M434 937h-4l-224 211h14l212 -200l212 200h14zM864 890q1 -5 -2 -10h-428v-880h-10v880h-392q-2 5 3 10h829z" />
    <glyph glyph-name="tcaron" unicode="&#x165;" horiz-adv-x="518" 
d="M450 1068l-16 -333h-10l16 333h10zM500 637h-384v-349q0 -139 62.5 -217.5t173.5 -78.5q57 0 128 23q4 -4 2 -10q-71 -23 -130 -23q-113 0 -179.5 79.5t-66.5 226.5v349h-96v10h96v183q3 3 10 3v-186h384v-10z" />
    <glyph glyph-name="Tbar" unicode="&#x166;" horiz-adv-x="927" 
d="M878 880h-428v-409h229v-10h-229v-461h-10v461h-225v10h225v409h-392q-2 5 3 10h829q1 -5 -2 -10z" />
    <glyph glyph-name="tbar" unicode="&#x167;" horiz-adv-x="508" 
d="M490 637h-384v-200h384v-10h-384v-139q0 -139 62.5 -217.5t173.5 -78.5q57 0 128 23q4 -4 2 -10q-71 -23 -130 -23q-113 0 -179.5 79.5t-66.5 226.5v139h-96v10h96v200h-96v10h96v183q3 3 10 3v-186h384v-10z" />
    <glyph glyph-name="Umacron" unicode="&#x16a;" horiz-adv-x="1018" 
d="M290 996v10h438v-10h-438zM496 -18q-190 0 -298 101.5t-108 300.5v506q5 3 10 0v-507q0 -193 106 -292t290 -99q189 0 305.5 112.5t116.5 290.5v495q5 2 10 0v-497q0 -174 -116 -292.5t-316 -118.5z" />
    <glyph glyph-name="umacron" unicode="&#x16b;" horiz-adv-x="781" 
d="M621 882v-10h-472v10h472zM705 116q0 -53 4 -73.5t18 -37.5v-5h-8q-14 16 -19 37.5t-5 78.5v140q-25 -117 -125 -195.5t-236 -78.5q-122 0 -192 71t-70 215v379q4 2 10 0v-379q0 -142 68.5 -209t183.5 -67q155 0 258 101t103 247v307q1 1 5 1t5 -1v-531z" />
    <glyph glyph-name="Uring" unicode="&#x16e;" horiz-adv-x="1018" 
d="M510 900q-80 0 -134 36t-54 97q0 58 52.5 96t135.5 38q76 0 131.5 -38t55.5 -96t-58.5 -95.5t-128.5 -37.5zM510 910q70 0 123.5 36.5t53.5 86.5q0 52 -52.5 88t-124.5 36q-79 0 -128.5 -36t-49.5 -88q0 -53 48 -88t130 -35zM496 -18q-190 0 -298 101.5t-108 300.5v506
q5 3 10 0v-507q0 -193 106 -292t290 -99q189 0 305.5 112.5t116.5 290.5v495q5 2 10 0v-497q0 -174 -116 -292.5t-316 -118.5z" />
    <glyph glyph-name="uring" unicode="&#x16f;" horiz-adv-x="781" 
d="M385 775q-80 0 -134 36t-54 97q0 58 52.5 96t135.5 38q76 0 131.5 -38t55.5 -96t-58.5 -95.5t-128.5 -37.5zM385 1032q-79 0 -128.5 -36t-49.5 -88q0 -53 48 -88t130 -35q71 0 124 36.5t53 86.5q0 52 -52.5 88t-124.5 36zM705 116q0 -53 4 -73.5t18 -37.5v-5h-8
q-14 16 -19 37.5t-5 78.5v140q-25 -117 -125 -195.5t-236 -78.5q-122 0 -192 71t-70 215v379q4 2 10 0v-379q0 -142 68.5 -209t183.5 -67q155 0 258 101t103 247v307q1 1 5 1t5 -1v-531z" />
    <glyph glyph-name="Uhungarumlaut" unicode="&#x170;" horiz-adv-x="1018" 
d="M372 973l149 171h13l-150 -171h-12zM566 973l149 171h13l-149 -171h-13zM496 -18q-190 0 -298 101.5t-108 300.5v506q5 3 10 0v-507q0 -193 106 -292t290 -99q189 0 305.5 112.5t116.5 290.5v495q5 2 10 0v-497q0 -174 -116 -292.5t-316 -118.5z" />
    <glyph glyph-name="uhungarumlaut" unicode="&#x171;" horiz-adv-x="781" 
d="M420 1025l-174 -245h-12l173 245h13zM627 1025l-174 -245h-11l173 245h12zM705 116q0 -53 4 -73.5t18 -37.5v-5h-8q-14 16 -19 37.5t-5 78.5v140q-25 -117 -125 -195.5t-236 -78.5q-122 0 -192 71t-70 215v379q4 2 10 0v-379q0 -142 68.5 -209t183.5 -67q155 0 258 101
t103 247v307q1 1 5 1t5 -1v-531z" />
    <glyph glyph-name="Uogonek" unicode="&#x172;" horiz-adv-x="1018" 
d="M918 890q5 2 10 0v-497q0 -112 -48.5 -204t-147 -149t-231.5 -58q-70 -55 -107.5 -119t-37.5 -115q0 -40 25.5 -60.5t64.5 -19.5q31 0 65 18t54 45l8 -6q-21 -29 -57 -48t-70 -19q-44 -1 -72 22t-28 68q0 51 36 115.5t103 118.5q-185 3 -290 104.5t-105 297.5v506
q5 3 10 0v-507q0 -193 106 -292t290 -99q189 0 305.5 112.5t116.5 290.5v495z" />
    <glyph glyph-name="uogonek" unicode="&#x173;" horiz-adv-x="781" 
d="M787 -250l8 -6q-21 -29 -57 -48t-70 -19q-44 -1 -72 22t-28 68q0 52 38 118t108 122q-19 25 -19 109v140q-25 -117 -125 -195.5t-236 -78.5q-122 0 -192 71t-70 215v379q4 2 10 0v-379q0 -142 68.5 -209t183.5 -67q155 0 258 101t103 247v307q1 1 5 1t5 -1v-531
q0 -53 4 -73.5t18 -37.5v-5h-6q-69 -55 -106 -118.5t-37 -114.5q0 -40 25.5 -60.5t64.5 -19.5q31 0 65 18t54 45z" />
    <glyph glyph-name="Wcircumflex" unicode="&#x174;" horiz-adv-x="1349" 
d="M675 1141l-211 -211h-15l224 222h4l224 -222h-15zM1328 890q28 -189 -67.5 -426t-275.5 -458l-9 -6h-6l-5 4q-152 375 -193 462q-25 -80 -119.5 -240t-146.5 -223l-6 -3h-5l-8 5q-81 225 -216.5 466t-255.5 416l1 3q5 2 10 0q135 -199 264 -433t206 -447h4
q72 100 156 242.5t110 227.5q-50 120 -109 245q1 5 8 5q53 -110 155.5 -350t152.5 -370h3q176 220 273 454t69 426q4 3 10 0z" />
    <glyph glyph-name="wcircumflex" unicode="&#x175;" horiz-adv-x="1009" 
d="M505 940l-211 -211h-15l224 222h4l224 -222h-15zM998 647q11 -123 -70.5 -308.5t-198.5 -333.5l-6 -5h-11l-5 4q-58 194 -136 371q-20 -63 -85 -183t-115 -187l-7 -5h-8l-6 4q-24 71 -52 140t-58.5 128t-57 108t-56.5 95.5t-48 73t-41.5 59t-26.5 36.5l1 3q6 1 9 0
l26 -37q27 -37 42.5 -59.5t47 -71t56.5 -94.5t55.5 -106t58.5 -128.5t52 -140.5h5q54 79 114.5 189.5t88.5 189.5l-84 178q1 2 4.5 3.5t4.5 0.5q61 -128 86 -183t66.5 -162t72.5 -216h5q115 149 195 324t73 313q4 1 9 0z" />
    <glyph glyph-name="Ycircumflex" unicode="&#x176;" horiz-adv-x="879" 
d="M439 1141l-211 -211h-15l224 222h4l224 -222h-15zM864 890q13 -266 -388 -604v-286h-10v286q-47 69 -222.5 305.5t-228.5 295.5l1 3q5 2 10 0q43 -46 202.5 -261.5t243.5 -332.5q83 69 149.5 138t122.5 145.5t85 156.5t25 154q4 1 10 0z" />
    <glyph glyph-name="ycircumflex" unicode="&#x177;" horiz-adv-x="723" 
d="M366 964l-211 -211h-15l224 222h4l224 -222h-15zM711 647q12 -171 -69 -387t-248 -378q-145 -139 -301 -140q-47 0 -82 16q-2 7 0 10l2 1q31 -17 80 -17q78 1 154.5 38t140.5 100q60 58 109 126q-74 39 -155 125.5t-144.5 183.5t-110 180t-68.5 138l1 3q2 1 9 1
q14 -38 45.5 -98.5t80 -139t102.5 -151.5t120 -137.5t126 -96.5q104 145 155 311.5t43 311.5q7 3 10 0z" />
    <glyph glyph-name="Ydieresis" unicode="&#x178;" horiz-adv-x="879" 
d="M290 983q-7 0 -11.5 5t-4.5 12q0 19 16 19t16 -19q0 -7 -4.5 -12t-11.5 -5zM590 983q-7 0 -11.5 5t-4.5 12q0 19 16 19t16 -19q0 -7 -4.5 -12t-11.5 -5zM864 890q13 -266 -388 -604v-286h-10v286q-47 69 -222.5 305.5t-228.5 295.5l1 3q5 2 10 0q43 -46 202.5 -261.5
t243.5 -332.5q83 69 149.5 138t122.5 145.5t85 156.5t25 154q4 1 10 0z" />
    <glyph glyph-name="Zacute" unicode="&#x179;" horiz-adv-x="887" 
d="M629 1131l-182 -199h-13l182 199h13zM841 10q1 -2 1 -5t-1 -5h-792q-4 1 -4 7q161 258 369 507t379 366h-713q-3 4 0 10h730q5 -3 5 -8q-181 -120 -386 -365.5t-370 -506.5h782z" />
    <glyph glyph-name="zacute" unicode="&#x17a;" horiz-adv-x="677" 
d="M506 1025l-174 -245h-12l174 245h12zM666 10q1 -4 0 -10h-655q-2 4 -1 7q151 223 312 393.5t313 236.5h-596q-2 3 0 10h622q4 -4 2 -9q-286 -112 -639 -628h642z" />
    <glyph glyph-name="Zdotaccent" unicode="&#x17b;" horiz-adv-x="887" 
d="M444 977q-7 0 -11.5 5t-4.5 12q0 19 16 19t16 -19q0 -7 -4.5 -12t-11.5 -5zM841 10q1 -2 1 -5t-1 -5h-792q-4 1 -4 7q161 258 369 507t379 366h-713q-3 4 0 10h730q5 -3 5 -8q-181 -120 -386 -365.5t-370 -506.5h782z" />
    <glyph glyph-name="zdotaccent" unicode="&#x17c;" horiz-adv-x="677" 
d="M339 834q-7 0 -11.5 5t-4.5 12q0 19 16 19t16 -19q0 -7 -4.5 -12t-11.5 -5zM666 10q1 -4 0 -10h-655q-2 4 -1 7q151 223 312 393.5t313 236.5h-596q-2 3 0 10h622q4 -4 2 -9q-286 -112 -639 -628h642z" />
    <glyph glyph-name="Zcaron" unicode="&#x17d;" horiz-adv-x="887" 
d="M446 937h-4l-224 211h14l212 -200l212 200h14zM841 10q1 -2 1 -5t-1 -5h-792q-4 1 -4 7q161 258 369 507t379 366h-713q-3 4 0 10h730q5 -3 5 -8q-181 -120 -386 -365.5t-370 -506.5h782z" />
    <glyph glyph-name="zcaron" unicode="&#x17e;" horiz-adv-x="677" 
d="M341 780h-4l-224 222h15l211 -211l211 211h15zM666 10q1 -4 0 -10h-655q-2 4 -1 7q151 223 312 393.5t313 236.5h-596q-2 3 0 10h622q4 -4 2 -9q-286 -112 -639 -628h642z" />
    <glyph glyph-name="longs" unicode="&#x17f;" horiz-adv-x="296" 
d="M100 0v625q0 152 51.5 230.5t151.5 78.5q54 0 121 -23q0 -5 -3 -10q-62 23 -118 23q-193 -1 -193 -299v-625h-10z" />
    <glyph glyph-name="florin" unicode="&#x192;" horiz-adv-x="508" 
d="M391 372v-10h-133q17 -232 17 -337q0 -110 -25.5 -168.5t-87.5 -58.5v10q58 0 80.5 56t22.5 161q0 99 -17 337h-131v10h130q-12 176 -12 269q0 109 25.5 167.5t87.5 58.5v-10q-57 0 -80 -56t-23 -160q0 -91 12 -269h134z" />
    <glyph glyph-name="uni01C7" unicode="&#x1c7;" horiz-adv-x="1741" 
d="M95 0l-5 5v885q1 1 5 1t5 -1v-880h704q5 -5 0 -10h-709zM1262 -18q-102 0 -207.5 58.5t-185.5 147.5q0 6 6 8q78 -88 181 -146t206 -58q160 0 259.5 107.5t99.5 274.5v516q6 2 10 0v-518q0 -106 -42.5 -193.5t-127.5 -142t-199 -54.5z" />
    <glyph glyph-name="uni01C8" unicode="&#x1c8;" horiz-adv-x="1032" 
d="M95 0l-5 5v885q1 1 5 1t5 -1v-880h704q5 -5 0 -10h-709zM927 834q-6 0 -10.5 5t-4.5 12q0 19 15 19q17 0 17 -19q0 -7 -5 -12t-12 -5zM824 -219q-33 0 -86 17q-2 6 2 10q51 -17 84 -17q55 -1 76.5 47t21.5 162v647q8 3 10 0v-648q0 -110 -21.5 -164t-86.5 -54z" />
    <glyph glyph-name="uni01C9" unicode="&#x1c9;" horiz-adv-x="517" 
d="M194 -18q-56 0 -82 42.5t-26 137.5v770q5 2 10 0v-770q0 -92 23.5 -131.5t74.5 -38.5q31 0 87 18q4 -4 2 -10q-48 -16 -89 -18zM412 834q-7 0 -11.5 5t-4.5 12q0 19 16 19t16 -19q0 -7 -4.5 -12t-11.5 -5zM309 -219q-33 0 -86 17q-2 6 2 10q51 -17 84 -17q55 -1 76.5 47
t21.5 162v647q7 3 10 0v-648q0 -110 -21.5 -164t-86.5 -54z" />
    <glyph glyph-name="uni01CA" unicode="&#x1ca;" horiz-adv-x="1895" 
d="M920 890q4 3 10 0v-890h-10l-820 875v-875h-10v886q1 2 4.5 3.5t4.5 0.5l821 -876v876zM1775 890q6 2 10 0v-518q0 -106 -42.5 -193.5t-127.5 -142t-199 -54.5q-102 0 -207.5 58.5t-185.5 147.5q2 7 6 8q79 -88 181.5 -146t205.5 -58q160 0 259.5 107.5t99.5 274.5v516z
" />
    <glyph glyph-name="uni01CB" unicode="&#x1cb;" horiz-adv-x="1187" 
d="M920 0l-820 875v-875h-10v886q1 2 4.5 3.5t4.5 0.5l821 -876v876q4 3 10 0v-890h-10zM1082 870q16 0 16 -19q0 -7 -4.5 -12t-11.5 -5t-11.5 5t-4.5 12q0 19 16 19zM1077 647q7 3 10 0v-648q0 -110 -22 -164t-87 -54q-32 0 -85 17q-2 7 1 10q53 -17 84 -17q55 -1 77 47
t22 162v647z" />
    <glyph glyph-name="uni01CC" unicode="&#x1cc;" horiz-adv-x="1305" 
d="M890 870q16 0 16 -19q0 -7 -4.5 -12t-11.5 -5t-11.5 5t-4.5 12q0 19 16 19zM710 0v353q0 152 -66 243.5t-193 91.5q-92 0 -175.5 -60.5t-131.5 -149.5t-48 -176v-302h-10v531q0 65 -14 111v4q6 3 9 1q15 -40 15 -88v-175q30 122 132 218t223 96q128 0 198.5 -92
t70.5 -255v-351h-10zM885 647q7 3 10 0v-648q0 -110 -21.5 -164t-86.5 -54q-33 0 -86 17q-2 6 2 10q51 -17 84 -17q55 -1 76.5 47t21.5 162v647z" />
    <glyph glyph-name="uni01CD" unicode="&#x1cd;" horiz-adv-x="969" 
d="M500 937h-4l-224 212h14l212 -200l212 200h14zM502 890q42 -84 221 -431t231 -457v-2h-11q-44 89 -127 250h-656l-133 -250h-12l475 890q6 2 12 0zM165 260h646q-235 460 -315 620z" />
    <glyph glyph-name="uni01CE" unicode="&#x1ce;" horiz-adv-x="719" 
d="M380 780h-4l-224 222h15l211 -211l211 211h15zM645 117q0 -55 6.5 -76t22.5 -38l-1 -3h-9q-15 15 -22 39t-7 78l-1 171q-25 -119 -135 -212.5t-251 -93.5q-98 0 -150.5 44t-52.5 114q0 118 126.5 183t332.5 64q63 0 129 -6q-6 142 -73.5 224.5t-181.5 82.5
q-124 0 -272 -97q-4 4 -3 10q151 97 275 97q122 0 193.5 -91.5t72.5 -259.5zM248 -8q82 0 156 34.5t123 88t78 118t29 124.5v14q-66 6 -129 6q-209 1 -329.5 -63t-120.5 -174q0 -68 50.5 -108t142.5 -40z" />
    <glyph glyph-name="uni01CF" unicode="&#x1cf;" horiz-adv-x="190" 
d="M97 937h-4l-224 211h14l212 -200l212 200h14zM90 890q6 4 10 0v-890h-10v890z" />
    <glyph glyph-name="uni01D0" unicode="&#x1d0;" horiz-adv-x="210" 
d="M107 780h-4l-224 222h15l211 -211l211 211h15zM100 647q5 3 10 0v-647h-10v647z" />
    <glyph glyph-name="uni01D2" unicode="&#x1d2;" horiz-adv-x="782" 
d="M424 780h-4l-224 222h15l211 -211l211 211h15zM422 698q141 0 230.5 -97.5t89.5 -237.5q0 -158 -107.5 -269.5t-271.5 -111.5q-151 0 -237 93.5t-86 229.5q0 161 110 277t272 116zM363 -8q161 0 265 109t104 262q0 138 -87 231.5t-223 93.5q-160 0 -266 -114t-106 -269
q0 -130 82 -221.5t231 -91.5z" />
    <glyph glyph-name="uni01D3" unicode="&#x1d3;" horiz-adv-x="1018" 
d="M511 951h-4l-224 212h14l212 -200l212 200h14zM918 890q5 2 10 0v-497q0 -174 -116 -292.5t-316 -118.5q-190 0 -298 101.5t-108 300.5v506q5 3 10 0v-507q0 -193 106 -292t290 -99q189 0 305.5 112.5t116.5 290.5v495z" />
    <glyph glyph-name="uni01D4" unicode="&#x1d4;" horiz-adv-x="781" 
d="M387 780h-4l-224 222h15l211 -211l211 211h15zM705 116q0 -53 4 -73.5t18 -37.5v-5h-8q-14 16 -19 37.5t-5 78.5v140q-25 -117 -125 -195.5t-236 -78.5q-122 0 -192 71t-70 215v379q4 2 10 0v-379q0 -142 68.5 -209t183.5 -67q155 0 258 101t103 247v307q1 1 5 1t5 -1
v-531z" />
    <glyph glyph-name="uni01E2" unicode="&#x1e2;" horiz-adv-x="1577" 
d="M1252 992v-10h-438v10h438zM1531 10q1 -2 1 -5t-1 -5h-715v250h-562l-226 -250h-13l801 887l3 3h685q2 -7 -1 -10h-677v-447h579q2 -6 -2 -10h-577v-413h705zM263 260h553v612z" />
    <glyph glyph-name="uni01E3" unicode="&#x1e3;" horiz-adv-x="1301" 
d="M876 882v-10h-472v10h472zM976 698q136 0 215.5 -90.5t73.5 -248.5l-7 -7l-613 -67q8 -135 92.5 -213.5t208.5 -79.5q142 0 268 113q6 -2 6 -8q-130 -115 -274 -115q-127 -1 -215.5 80.5t-95.5 220.5q-31 -130 -142.5 -215.5t-244.5 -85.5q-98 0 -150.5 44t-52.5 114
q0 118 126.5 183t332.5 64q63 0 129 -6q-6 142 -73.5 224.5t-181.5 82.5q-124 0 -272 -97q-4 4 -3 10q151 97 275 97q113 0 184 -79.5t81 -220.5q26 130 118 215t215 85zM1255 362q5 156 -72 241t-207 85q-142 0 -238.5 -115.5t-93.5 -271.5v-6zM248 -8q80 0 153 32
t123.5 83.5t80 117.5t29.5 132v14q-68 6 -129 6q-209 1 -329.5 -63t-120.5 -174q0 -68 50.5 -108t142.5 -40z" />
    <glyph glyph-name="Gcaron" unicode="&#x1e6;" horiz-adv-x="1127" 
d="M563 957h-4l-224 211h14l212 -200l212 200h14zM944 618q-5 -3 -10 -1q2 126 -104.5 204.5t-268.5 78.5q-99 0 -182.5 -37t-139.5 -99t-87 -144.5t-31 -173.5q0 -209 128 -331.5t330 -122.5q91 0 186 25t168 74v302h-394q0 5 4 10h396l4 -5v-311q-72 -51 -170.5 -78
t-193.5 -27q-205 0 -336.5 125t-131.5 339q0 90 31.5 173.5t88 148.5t142.5 103.5t188 38.5q164 0 276 -81.5t107 -210.5z" />
    <glyph glyph-name="gcaron" unicode="&#x1e7;" horiz-adv-x="772" 
d="M384 752h-4l-224 222h15l211 -211l211 211h15zM691 650q7 0 9 -1v-3q-13 -84 -13 -134v-433q0 -167 -90.5 -263t-228.5 -96q-155 0 -302 115q0 6 5 9q146 -114 297 -114q134 0 221.5 93t87.5 257l1 197q-25 -127 -117 -211t-217 -84q-128 0 -216.5 90t-87.5 242
q1 154 100.5 269t248.5 115q109 0 187 -75.5t102 -185.5l-1 118zM344 -8q89 0 164.5 46t121.5 131t47 192q-1 57 -20.5 114t-55 105t-91 78t-121.5 30q-97 0 -176 -54t-120.5 -139t-42.5 -181q-1 -137 80 -229.5t214 -92.5z" />
    <glyph glyph-name="uni01E8" unicode="&#x1e8;" horiz-adv-x="977" 
d="M507 937h-4l-224 211h14l212 -200l212 200h14zM464 472q381 -406 495 -468v-2q-4 -2 -10 -2q-135 76 -493 467q-155 -80 -356 -166v-301h-10v890q6 4 10 0v-579q333 147 491 245q298 185 288 334q6 4 10 0q6 -82 -70.5 -166.5t-223.5 -177.5q-61 -38 -131 -74z" />
    <glyph glyph-name="uni01E9" unicode="&#x1e9;" horiz-adv-x="796" 
d="M408 1014h-4l-224 222h15l211 -211l211 211h15zM395 331q307 -310 365 -328v-3q-3 -2 -11 -2q-63 20 -362 327q-150 -89 -305 -156v-169h-10v932q4 2 10 0v-752q210 93 384 206q119 77 162 132t38 129q4 1 10 0q7 -73 -38.5 -133t-166.5 -137q-34 -22 -76 -46z" />
    <glyph glyph-name="uni01EB" unicode="&#x1eb;" horiz-adv-x="782" 
d="M411 -15q-70 -55 -106.5 -118.5t-36.5 -114.5q0 -40 25.5 -60.5t63.5 -19.5q31 0 65.5 18t54.5 45l8 -6q-21 -29 -57.5 -48t-70.5 -19q-43 -1 -71 22t-28 68q0 51 35 114t100 117q-10 -1 -30 -1q-151 0 -237 93.5t-86 229.5q0 161 110 277t272 116q141 0 230.5 -97.5
t89.5 -237.5q0 -146 -92.5 -253.5t-238.5 -124.5zM363 -8q16 0 44 2l1 1q95 10 169.5 63t114.5 133t40 172q0 138 -87 231.5t-223 93.5q-160 0 -266 -114t-106 -269q0 -130 82 -221.5t231 -91.5z" />
    <glyph glyph-name="uni01F0" unicode="&#x1f0;" horiz-adv-x="216" 
d="M114 780h-4l-224 222h15l211 -211l211 211h15zM106 647q8 3 10 0v-648q0 -110 -21.5 -164t-86.5 -54q-33 0 -86 17q-2 6 2 10q51 -17 84 -17q55 -1 76.5 47t21.5 162v647z" />
    <glyph glyph-name="uni01F4" unicode="&#x1f4;" horiz-adv-x="923" 
d="M680 1151l-182 -199h-13l182 199h13zM878 618q-5 -3 -10 -1q2 126 -104.5 204.5t-268.5 78.5q-99 0 -182.5 -37t-139.5 -99t-87 -144.5t-31 -173.5q0 -209 128 -331.5t330 -122.5q91 0 186 25t168 74v302h-394q0 5 4 10h396l4 -5v-311q-72 -51 -170.5 -78t-193.5 -27
q-205 0 -336.5 125t-131.5 339q0 90 31.5 173.5t88 148.5t142.5 103.5t188 38.5q164 0 276 -81.5t107 -210.5z" />
    <glyph glyph-name="uni01F4" unicode="&#x1f5;" horiz-adv-x="923" 
d="M680 1151l-182 -199h-13l182 199h13zM878 618q-5 -3 -10 -1q2 126 -104.5 204.5t-268.5 78.5q-99 0 -182.5 -37t-139.5 -99t-87 -144.5t-31 -173.5q0 -209 128 -331.5t330 -122.5q91 0 186 25t168 74v302h-394q0 5 4 10h396l4 -5v-311q-72 -51 -170.5 -78t-193.5 -27
q-205 0 -336.5 125t-131.5 339q0 90 31.5 173.5t88 148.5t142.5 103.5t188 38.5q164 0 276 -81.5t107 -210.5z" />
    <glyph glyph-name="uni01F8" unicode="&#x1f8;" horiz-adv-x="1020" 
d="M542 958h-13l-186 189h13zM920 890q4 3 10 0v-890h-10l-820 875v-875h-10v886q1 2 4.5 3.5t4.5 0.5l821 -876v876z" />
    <glyph glyph-name="uni01F9" unicode="&#x1f9;" horiz-adv-x="798" 
d="M529 780h-11l-173 245h12zM477 698q128 0 198.5 -92t70.5 -255v-351h-10v353q0 152 -66 243.5t-193 91.5q-92 0 -175.5 -60.5t-131.5 -149.5t-48 -176v-302h-10v531q0 65 -14 111v4q6 3 9 1q15 -40 15 -88v-175q30 122 132 218t223 96z" />
    <glyph glyph-name="Aringacute" unicode="&#x1fa;" horiz-adv-x="969" 
d="M598 1311l-101 -167h-11l100 167h12zM496 915q-64 0 -106 29t-42 73t42 74t106 30q63 0 107 -30.5t44 -73.5t-44 -72.5t-107 -29.5zM496 1111q-60 0 -99 -26.5t-39 -67.5t38.5 -66.5t99.5 -25.5q59 0 100 27t41 65q0 39 -41 66.5t-100 27.5zM502 890q42 -84 221 -431
t231 -457v-2h-11q-44 89 -127 250h-656l-133 -250h-12l475 890q6 2 12 0zM165 260h646q-235 460 -315 620z" />
    <glyph glyph-name="aringacute" unicode="&#x1fb;" horiz-adv-x="719" 
d="M503 1127l-101 -167h-11l100 167h12zM401 731q-64 0 -106 29t-42 73t42 74t106 30q63 0 107 -30.5t44 -73.5t-44 -72.5t-107 -29.5zM401 927q-60 0 -99 -26.5t-39 -67.5t38.5 -66.5t99.5 -25.5q59 0 100 27t41 65q0 39 -41 66.5t-100 27.5zM645 117q0 -55 6.5 -76
t22.5 -38l-1 -3h-9q-15 15 -22 39t-7 78l-1 171q-25 -119 -135 -212.5t-251 -93.5q-98 0 -150.5 44t-52.5 114q0 118 126.5 183t332.5 64q63 0 129 -6q-6 142 -73.5 224.5t-181.5 82.5q-124 0 -272 -97q-4 4 -3 10q151 97 275 97q122 0 193.5 -91.5t72.5 -259.5zM248 -8
q82 0 156 34.5t123 88t78 118t29 124.5v14q-66 6 -129 6q-209 1 -329.5 -63t-120.5 -174q0 -68 50.5 -108t142.5 -40z" />
    <glyph glyph-name="AEacute" unicode="&#x1fc;" horiz-adv-x="1577" 
d="M1219 1131l-183 -199h-13l183 199h13zM1531 10q1 -2 1 -5t-1 -5h-715v250h-562l-226 -250h-13l801 887l3 3h685q2 -7 -1 -10h-677v-447h579q2 -6 -2 -10h-577v-413h705zM263 260h553v612z" />
    <glyph glyph-name="aeacute" unicode="&#x1fd;" horiz-adv-x="1301" 
d="M807 1025l-174 -245h-12l174 245h12zM976 698q136 0 215.5 -90.5t73.5 -248.5l-7 -7l-613 -67q8 -135 92.5 -213.5t208.5 -79.5q142 0 268 113q6 -2 6 -8q-130 -115 -274 -115q-127 -1 -215.5 80.5t-95.5 220.5q-31 -130 -142.5 -215.5t-244.5 -85.5q-98 0 -150.5 44
t-52.5 114q0 118 126.5 183t332.5 64q63 0 129 -6q-6 142 -73.5 224.5t-181.5 82.5q-124 0 -272 -97q-4 4 -3 10q151 97 275 97q113 0 184 -79.5t81 -220.5q26 130 118 215t215 85zM1255 362q5 156 -72 241t-207 85q-142 0 -238.5 -115.5t-93.5 -271.5v-6zM248 -8
q80 0 153 32t123.5 83.5t80 117.5t29.5 132v14q-68 6 -129 6q-209 1 -329.5 -63t-120.5 -174q0 -68 50.5 -108t142.5 -40z" />
    <glyph glyph-name="Oslashacute" unicode="&#x1fe;" horiz-adv-x="974" 
d="M698 1143l-182 -199h-13l182 199h13zM793 804q65 -63 101 -151.5t35 -187.5q-1 -97 -39.5 -186t-103.5 -154t-154.5 -104t-187.5 -39q-155 0 -261 93l-63 -75h-13l69 82q-129 120 -131 320q0 140 64 257t176 184t248 67q147 0 252 -99l69 82h13zM55 402
q0 -92 32.5 -173.5t94.5 -138.5l597 713q-105 97 -246 97q-203 0 -341 -144t-137 -354zM919 465q1 98 -34.5 184.5t-98.5 146.5l-596 -713q104 -91 254 -91q126 0 235 63t174 172.5t66 237.5z" />
    <glyph glyph-name="oslashacute" unicode="&#x1ff;" horiz-adv-x="782" 
d="M589 1025l-174 -245h-12l174 245h12zM663 589q79 -95 79 -226q0 -158 -107.5 -269.5t-271.5 -111.5q-137 0 -223 80l-61 -62h-14v1l68 68q-93 90 -93 236q0 161 110 277t272 116q143 0 234 -101l49 50h13v-1zM50 305q0 -141 90 -229l307 308l34 33l168 173
q-87 98 -227 98q-160 0 -266 -114t-106 -269zM363 -8q161 0 265 109t104 262q0 129 -76 219l-197 -202l-312 -311q85 -77 216 -77z" />
    <glyph glyph-name="uni0202" unicode="&#x202;" horiz-adv-x="969" 
d="M498 1147q-88 0 -148 -49t-60 -125h-10q0 84 63.5 134.5t154.5 50.5q93 0 155.5 -49.5t62.5 -135.5h-11q0 77 -58 125.5t-149 48.5zM502 890q42 -84 221 -431t231 -457v-2h-11q-44 89 -127 250h-656l-133 -250h-12l475 890q6 2 12 0zM165 260h646q-235 460 -315 620z" />
    <glyph glyph-name="uni0203" unicode="&#x203;" horiz-adv-x="719" 
d="M378 954q-89 0 -149 -49t-60 -125h-10q0 84 64 134.5t155 50.5q93 0 155 -49.5t62 -135.5h-11q0 77 -58 125.5t-148 48.5zM645 117q0 -55 6.5 -76t22.5 -38l-1 -3h-9q-15 15 -22 39t-7 78l-1 171q-25 -119 -135 -212.5t-251 -93.5q-98 0 -150.5 44t-52.5 114
q0 118 126.5 183t332.5 64q63 0 129 -6q-6 142 -73.5 224.5t-181.5 82.5q-124 0 -272 -97q-4 4 -3 10q151 97 275 97q122 0 193.5 -91.5t72.5 -259.5zM248 -8q82 0 156 34.5t123 88t78 118t29 124.5v14q-66 6 -129 6q-209 1 -329.5 -63t-120.5 -174q0 -68 50.5 -108
t142.5 -40z" />
    <glyph glyph-name="uni0206" unicode="&#x206;" horiz-adv-x="851" 
d="M442 1146q-88 0 -148.5 -49t-60.5 -125h-10q0 84 64 134.5t155 50.5q93 0 155 -49.5t62 -135.5h-10q0 77 -58 125.5t-149 48.5zM805 10q1 -2 1 -5t-1 -5h-715v887l3 3h685q2 -7 -1 -10h-677v-447h579q2 -6 -2 -10h-577v-413h705z" />
    <glyph glyph-name="uni0207" unicode="&#x207;" horiz-adv-x="707" 
d="M383 954q-89 0 -149 -49t-60 -125h-10q0 84 64 134.5t155 50.5q93 0 155 -49.5t62 -135.5h-11q0 77 -58 125.5t-148 48.5zM382 698q136 0 215.5 -90.5t73.5 -248.5l-7 -7l-613 -67q8 -135 92.5 -213.5t208.5 -79.5q142 0 268 113q6 -2 6 -8q-130 -115 -274 -115
q-132 -1 -221 85.5t-91 233.5q-3 163 96.5 280t245.5 117zM661 362q5 156 -72 241t-207 85q-142 0 -238.5 -115.5t-93.5 -271.5v-6z" />
    <glyph glyph-name="uni020A" unicode="&#x20a;" 
d="M-338 972q0 84 64 134.5t155 50.5q93 0 155 -49.5t62 -135.5h-10q0 77 -58 125.5t-149 48.5q-88 0 -148.5 -49t-60.5 -125h-10zM-124 0v890q6 4 10 0v-890h-10z" />
    <glyph glyph-name="uni020B" unicode="&#x20b;" horiz-adv-x="210" 
d="M-113 780q0 84 64 134.5t155 50.5q93 0 155 -49.5t62 -135.5h-11q0 77 -58 125.5t-148 48.5q-89 0 -149 -49t-60 -125h-10zM100 0v647q5 3 10 0v-647h-10z" />
    <glyph glyph-name="uni020E" unicode="&#x20e;" horiz-adv-x="974" 
d="M295 984q0 84 64 134.5t155 50.5q93 0 155 -49.5t62 -135.5h-11q0 77 -58 125.5t-148 48.5q-89 0 -149 -49t-60 -125h-10zM444 -18q-120 0 -212 57.5t-139 152.5t-48 210q0 140 64 257t176 184t248 67q113 0 205 -61.5t142 -163.5t49 -220q-1 -97 -39.5 -186t-103.5 -154
t-154.5 -104t-187.5 -39zM444 -8q126 0 235 63t174 172.5t66 237.5q2 181 -110 308t-276 127q-203 0 -341 -144t-137 -354q0 -109 44.5 -201.5t134.5 -150.5t210 -58z" />
    <glyph glyph-name="uni020F" unicode="&#x20f;" horiz-adv-x="782" 
d="M204 780q0 84 63.5 134.5t154.5 50.5q93 0 155.5 -49.5t62.5 -135.5h-11q0 77 -58 125.5t-149 48.5q-88 0 -148 -49t-60 -125h-10zM363 -18q-151 0 -237 93.5t-86 229.5q0 161 110 277t272 116q141 0 230.5 -97.5t89.5 -237.5q0 -158 -107.5 -269.5t-271.5 -111.5z
M363 -8q161 0 265 109t104 262q0 138 -87 231.5t-223 93.5q-160 0 -266 -114t-106 -269q0 -130 82 -221.5t231 -91.5z" />
    <glyph glyph-name="uni0212" unicode="&#x212;" horiz-adv-x="970" 
d="M461 1156q-88 0 -148.5 -49t-60.5 -125h-10q0 84 64 134.5t155 50.5q93 0 155 -49.5t62 -135.5h-10q0 77 -58 125.5t-149 48.5zM575 316q259 -269 348 -312v-2q-4 -2 -10 -2q-100 45 -349 314q-57 -9 -119 -9q-89 1 -191 17.5t-154 33.5v-356h-10v869q86 24 167 32.5
t204 8.5q183 0 293 -82.5t110 -227.5q0 -111 -79 -185t-210 -99zM445 315q110 -2 201.5 29.5t149.5 98t58 157.5q-1 134 -103 217t-290 83q-216 0 -361 -38v-496q167 -49 345 -51z" />
    <glyph glyph-name="uni0213" unicode="&#x213;" horiz-adv-x="570" 
d="M300 985q-88 0 -148.5 -49t-60.5 -125h-10q0 84 64 134.5t155 50.5q93 0 155 -49.5t62 -135.5h-10q0 77 -58.5 125.5t-148.5 48.5zM534 674q1 -7 -2 -10q-60 24 -112 24q-73 0 -135.5 -34.5t-103 -90t-63 -124.5t-22.5 -141v-298h-10v531q0 65 -14 111v4q6 3 9 1
q15 -40 15 -88v-164q25 127 112.5 215t211.5 88q54 0 114 -24z" />
    <glyph glyph-name="uni0218" unicode="&#x218;" horiz-adv-x="913" 
d="M485 -18q-121 0 -236.5 36t-203.5 103q2 7 5 9q185 -138 435 -138q175 0 274 66.5t99 174.5q0 59 -31.5 101t-91 65t-123.5 34.5t-149 16.5q-69 4 -124.5 18t-100.5 39.5t-69.5 67t-24.5 97.5q0 77 55 133.5t128 80.5t148 24q179 0 281.5 -70.5t102.5 -179.5
q-6 -2 -10 -2q-1 113 -104.5 177.5t-269.5 64.5q-126 0 -223.5 -63.5t-97.5 -166.5q0 -53 25.5 -93.5t70.5 -64.5t98 -36.5t117 -15.5q197 -10 300 -63.5t103 -163.5q0 -107 -98 -179t-285 -72zM435 -289l45 206h10l-45 -206h-10z" />
    <glyph glyph-name="uni0219" unicode="&#x219;" horiz-adv-x="731" 
d="M385 -18q-87 0 -179.5 27.5t-159.5 83.5q0 6 5 9q62 -53 151.5 -81.5t182.5 -28.5q130 0 210 49.5t80 124.5q0 87 -71 129t-243 49q-284 14 -284 173q0 75 78 128t213 53q69 0 149.5 -20.5t149.5 -65.5q0 -4 -4 -8q-132 84 -295 84q-137 0 -209 -52t-72 -119
q0 -150 276 -163q177 -8 249.5 -52t72.5 -135q0 -85 -86.5 -135t-213.5 -50zM338 -307l45 206h10l-45 -206h-10z" />
    <glyph glyph-name="uni021A" unicode="&#x21a;" horiz-adv-x="896" 
d="M864 890q1 -5 -2 -10h-428v-880h-10v880h-392q-2 5 3 10h829zM377 -278l45 206h10l-45 -206h-10z" />
    <glyph glyph-name="uni021B" unicode="&#x21b;" horiz-adv-x="518" 
d="M500 637h-384v-349q0 -139 62.5 -217.5t173.5 -78.5q57 0 128 23q4 -4 2 -10q-71 -23 -130 -23q-113 0 -179.5 79.5t-66.5 226.5v349h-96v10h96v183q3 3 10 3v-186h384v-10zM234 -297l45 206h10l-45 -206h-10z" />
    <glyph glyph-name="uni0237" unicode="&#x237;" horiz-adv-x="216" 
d="M8 -219q-33 0 -86 17q-2 6 2 10q51 -17 84 -17q55 -1 76.5 47t21.5 162v647q8 3 10 0v-648q0 -110 -21.5 -164t-86.5 -54z" />
    <glyph glyph-name="circumflex" unicode="&#x2c6;" horiz-adv-x="596" 
d="M524 729h-15l-211 211l-211 -211h-15l224 222h4z" />
    <glyph glyph-name="caron" unicode="&#x2c7;" horiz-adv-x="596" 
d="M509 951h15l-224 -222h-4l-224 222h15l211 -211z" />
    <glyph glyph-name="breve" unicode="&#x2d8;" horiz-adv-x="580" 
d="M289 724q-93 0 -155 49.5t-62 135.5h10q0 -79 58 -127t149 -48q89 0 149 48.5t60 126.5h10q0 -84 -64 -134.5t-155 -50.5z" />
    <glyph glyph-name="dotaccent" unicode="&#x2d9;" horiz-adv-x="176" 
d="M88 783q-7 0 -11.5 5t-4.5 12q0 19 16 19t16 -19q0 -7 -4.5 -12t-11.5 -5z" />
    <glyph glyph-name="ring" unicode="&#x2da;" horiz-adv-x="519" 
d="M260 724q-80 0 -134 36t-54 97q0 58 52.5 96t135.5 38q76 0 131.5 -38t55.5 -96t-58.5 -95.5t-128.5 -37.5zM260 734q71 0 124 36.5t53 86.5q0 52 -52.5 88t-124.5 36q-79 0 -128.5 -36t-49.5 -88q0 -53 48 -88t130 -35z" />
    <glyph glyph-name="ogonek" unicode="&#x2db;" horiz-adv-x="371" 
d="M172 -318q-44 -1 -72 22t-28 68q0 53 39 120.5t111 122.5l6 -8q-71 -55 -108.5 -119.5t-37.5 -115.5q0 -40 25.5 -60.5t64.5 -19.5q31 0 65 18t54 45l8 -6q-21 -29 -57 -48t-70 -19z" />
    <glyph glyph-name="tilde" unicode="&#x2dc;" horiz-adv-x="604" 
d="M443 764q-40 0 -91.5 33.5t-102 66.5t-89.5 33q-34 0 -56 -35.5t-22 -92.5h-10q0 64 25.5 101t63.5 37q41 0 92 -33t101.5 -66.5t89.5 -33.5q36 -1 57 36t21 92h10q0 -62 -24 -100t-65 -38z" />
    <glyph glyph-name="hungarumlaut" unicode="&#x2dd;" horiz-adv-x="537" 
d="M72 729l173 245h13l-174 -245h-12zM280 729l173 245h12l-174 -245h-11z" />
    <glyph glyph-name="gravecomb" unicode="&#x300;" 
d="M-83 729l-174 245h13l172 -245h-11z" />
    <glyph glyph-name="acutecomb" unicode="&#x301;" 
d="M-258 729l174 245h12l-174 -245h-12z" />
    <glyph glyph-name="uni0302" unicode="&#x302;" 
d="M-72 729h-15l-211 211l-211 -211h-15l224 222h4z" />
    <glyph glyph-name="tildecomb" unicode="&#x303;" 
d="M-161 764q-40 0 -91.5 33.5t-102 66.5t-89.5 33q-34 0 -56 -35.5t-22 -92.5h-10q0 64 25.5 101t63.5 37q41 0 92 -33t101.5 -66.5t89.5 -33.5q36 -1 57 36t21 92h10q0 -62 -24 -100t-65 -38z" />
    <glyph glyph-name="uni0304" unicode="&#x304;" 
d="M-544 821v10h472v-10h-472z" />
    <glyph glyph-name="uni0306" unicode="&#x306;" 
d="M-291 724q-93 0 -155 49.5t-62 135.5h10q0 -79 58 -127t149 -48q89 0 149 48.5t60 126.5h10q0 -84 -64 -134.5t-155 -50.5z" />
    <glyph glyph-name="uni0307" unicode="&#x307;" 
d="M-88 783q-7 0 -11.5 5t-4.5 12q0 19 16 19t16 -19q0 -7 -4.5 -12t-11.5 -5z" />
    <glyph glyph-name="uni0308" unicode="&#x308;" 
d="M-388 783q-7 0 -11.5 5t-4.5 12q0 19 16 19t16 -19q0 -7 -4.5 -12t-11.5 -5zM-88 783q-7 0 -11.5 5t-4.5 12q0 19 16 19t16 -19q0 -7 -4.5 -12t-11.5 -5z" />
    <glyph glyph-name="uni030A" unicode="&#x30a;" 
d="M-259 724q-80 0 -134 36t-54 97q0 58 52.5 96t135.5 38q76 0 131.5 -38t55.5 -96t-58.5 -95.5t-128.5 -37.5zM-259 734q71 0 124 36.5t53 86.5q0 52 -52.5 88t-124.5 36q-79 0 -128.5 -36t-49.5 -88q0 -53 48 -88t130 -35z" />
    <glyph glyph-name="uni030B" unicode="&#x30b;" 
d="M-465 729l173 245h13l-174 -245h-12zM-257 729l173 245h12l-174 -245h-11z" />
    <glyph glyph-name="uni030C" unicode="&#x30c;" 
d="M-87 951h15l-224 -222h-4l-224 222h15l211 -211z" />
    <glyph glyph-name="uni0311" unicode="&#x311;" 
d="M-508 729q0 84 64 134.5t155 50.5q93 0 155 -49.5t62 -135.5h-11q0 77 -58 125.5t-148 48.5q-89 0 -149 -49t-60 -125h-10z" />
    <glyph glyph-name="uni0312" unicode="&#x312;" 
d="M-255 800l45 206h10l-45 -206h-10z" />
    <glyph glyph-name="uni0326" unicode="&#x326;" 
d="M-238 -289l45 206h10l-45 -206h-10z" />
    <glyph glyph-name="uni0327" unicode="&#x327;" 
d="M-156 -313q-49 0 -95 49l7 7q43 -46 88 -46q32 1 53 24.5t21 59.5q-2 52 -43 97t-50.5 66.5t-9.5 61.5h10q0 -38 8.5 -57t48.5 -64q46 -50 46 -104q0 -40 -23.5 -66.5t-60.5 -27.5z" />
    <glyph glyph-name="uni0328" unicode="&#x328;" 
d="M-199 -318q-44 -1 -72 22t-28 68q0 53 39 120.5t111 122.5l6 -8q-71 -55 -108.5 -119.5t-37.5 -115.5q0 -40 25.5 -60.5t64.5 -19.5q31 0 65 18t54 45l8 -6q-21 -29 -57 -48t-70 -19z" />
    <glyph glyph-name="uni03BC" unicode="&#x3bc;" horiz-adv-x="871" 
d="M777 116q0 -53 4 -73.5t18 -37.5v-5h-8q-14 16 -19 37.5t-5 78.5v139q-25 -117 -125 -195t-236 -78q-99 0 -165 47t-87 143v-425h-10v900q4 2 10 0v-379q0 -142 68.5 -209t183.5 -67q155 0 258 101t103 247v307q1 1 5 1t5 -1v-531z" />
    <glyph glyph-name="uni1E02" unicode="&#x1e02;" horiz-adv-x="911" 
d="M421 987q-7 0 -11.5 5t-4.5 12q0 19 16 19t16 -19q0 -7 -4.5 -12t-11.5 -5zM596 518q270 -36 270 -236q0 -143 -110 -221t-295 -79q-130 -1 -205 8t-166 35v854q79 18 148 24.5t183 6.5q83 0 148.5 -14.5t104.5 -37t64 -52.5t34 -57t9 -54q0 -62 -47.5 -110.5
t-137.5 -66.5zM771 695q0 35 -16.5 68t-53.5 65.5t-109 52t-171 19.5q-206 0 -321 -29v-403q55 25 161 41.5t204 16.5q49 0 102 -5q97 14 150.5 63t53.5 111zM461 -8q188 0 291.5 78.5t103.5 211.5q0 234 -391 234q-98 0 -198 -15.5t-167 -41.5v-426q80 -25 161.5 -33
t199.5 -8z" />
    <glyph glyph-name="uni1E03" unicode="&#x1e03;" horiz-adv-x="768" 
d="M390 1046q-7 0 -11.5 5t-4.5 12q0 19 16 19t16 -19q0 -7 -4.5 -12t-11.5 -5zM434 698q131 0 212.5 -94.5t81.5 -240.5q0 -153 -97 -267t-241 -114q-113 0 -192 75.5t-103 177.5v-92q0 -83 -15 -143h-8v6q13 56 13 156v770q6 2 10 0v-536q30 131 128 216.5t211 85.5z
M390 -8q95 0 171.5 54.5t116.5 139t40 177.5q-1 145 -80.5 235t-203.5 90q-132 0 -235.5 -115t-103.5 -264q0 -124 85.5 -220.5t209.5 -96.5z" />
    <glyph glyph-name="uni1E0A" unicode="&#x1e0a;" horiz-adv-x="950" 
d="M415 997q-7 0 -11.5 5t-4.5 12q0 19 16 19t16 -19q0 -7 -4.5 -12t-11.5 -5zM416 910q221 0 355 -126t134 -328q0 -212 -127.5 -342.5t-339.5 -131.5q-118 0 -182 9t-166 34v854q136 31 326 31zM438 -8q209 0 332.5 128.5t124.5 335.5q0 93 -32 173.5t-92 141t-151.5 95
t-203.5 34.5q-210 0 -316 -30v-837q87 -23 158.5 -32t179.5 -9z" />
    <glyph glyph-name="uni1E0B" unicode="&#x1e0b;" horiz-adv-x="771" 
d="M378 1068q-7 0 -11.5 5t-4.5 12q0 19 16 19t16 -19q0 -7 -4.5 -12t-11.5 -5zM687 162q0 -99 12 -156v-6h-8q-14 50 -14 143v132q-10 -53 -37.5 -103.5t-68.5 -93.5t-100 -69.5t-125 -26.5q-134 0 -220 92t-86 240q0 155 99.5 269.5t249.5 114.5q105 0 185 -73t103 -185
v492q3 2 10 0v-770zM346 -8q95 0 172.5 54.5t118 136t40.5 169.5q0 144 -82.5 240t-205.5 96q-142 0 -240.5 -110t-98.5 -264q0 -140 82 -231t214 -91z" />
    <glyph glyph-name="uni1E1E" unicode="&#x1e1e;" horiz-adv-x="823" 
d="M422 977q-7 0 -11.5 5t-4.5 12q0 19 16 19t16 -19q0 -7 -4.5 -12t-11.5 -5zM776 879h-676v-501h574v-4v-4l-1 -2h-573v-368h-10v885l4 4h684q1 -2 -2 -10z" />
    <glyph glyph-name="uni1E1F" unicode="&#x1e1f;" horiz-adv-x="371" 
d="M323 1080q-7 0 -11.5 5t-4.5 12q0 19 16 19t16 -19q0 -7 -4.5 -12t-11.5 -5zM394 924q-185 -1 -193 -277h259v-10h-259v-12v-625h-10v625v12h-182v10h182q4 142 55.5 214.5t147.5 72.5q54 0 121 -23q0 -5 -3 -10q-63 23 -118 23z" />
    <glyph glyph-name="uni1E40" unicode="&#x1e40;" horiz-adv-x="1147" 
d="M574 977q-7 0 -11.5 5t-4.5 12q0 19 16 19t16 -19q0 -7 -4.5 -12t-11.5 -5zM1102 0h-10l-91 874l-422 -708h-11l-423 709l-90 -875h-10l91 888q5 4 12 2l426 -714l426 714q5 2 10 -3z" />
    <glyph glyph-name="uni1E41" unicode="&#x1e41;" horiz-adv-x="1116" 
d="M580 834q-7 0 -11.5 5t-4.5 12q0 19 16 19t16 -19q0 -7 -4.5 -12t-11.5 -5zM851 698q91 0 142 -78.5t51 -218.5v-401h-10v403q0 130 -47 207.5t-136 77.5q-81 0 -149 -57.5t-103 -140t-35 -166.5v-324h-10v396q0 292 -173 292q-78 0 -145.5 -60.5t-103.5 -149t-36 -176.5
v-302h-10v531q0 65 -14 111v4q6 3 9 1q15 -40 15 -88v-168q26 123 104.5 215t180.5 92q176 0 183 -287q26 117 103.5 202t183.5 85z" />
    <glyph glyph-name="uni1E56" unicode="&#x1e56;" horiz-adv-x="910" 
d="M456 997q-7 0 -11.5 5t-4.5 12q0 19 16 19t16 -19q0 -7 -4.5 -12t-11.5 -5zM865 595q1 -138 -118.5 -219.5t-304.5 -81.5q-193 0 -342 55v-349h-10v869q149 41 366 41q183 0 296 -83.5t113 -231.5zM855 595q1 141 -107.5 223t-291.5 82q-226 0 -356 -41v-500
q141 -55 342 -55q178 0 295.5 77t117.5 214z" />
    <glyph glyph-name="uni1E57" unicode="&#x1e57;" horiz-adv-x="766" 
d="M407 833q-7 0 -11.5 5t-4.5 12q0 19 16 19t16 -19q0 -7 -4.5 -12t-11.5 -5zM430 698q133 0 214.5 -93t81.5 -244q0 -97 -42.5 -183.5t-120.5 -141t-172 -54.5q-109 0 -191 71t-108 173v-458q-7 -2 -10 0v754q0 58 -10 120v4q2 1 9 1l11 -71v-184q28 128 125.5 217
t212.5 89zM391 -8q94 0 170.5 56t115.5 139.5t39 173.5q0 149 -80.5 238t-205.5 89q-89 0 -168 -55.5t-124.5 -144.5t-45.5 -186q0 -121 87.5 -215.5t211.5 -94.5z" />
    <glyph glyph-name="uni1E60" unicode="&#x1e60;" horiz-adv-x="913" 
d="M475 997q-7 0 -11.5 5t-4.5 12q0 19 16 19t16 -19q0 -7 -4.5 -12t-11.5 -5zM485 -18q-121 0 -236.5 36t-203.5 103q2 7 5 9q185 -138 435 -138q175 0 274 66.5t99 174.5q0 59 -31.5 101t-91 65t-123.5 34.5t-149 16.5q-69 4 -124.5 18t-100.5 39.5t-69.5 67t-24.5 97.5
q0 77 55 133.5t128 80.5t148 24q179 0 281.5 -70.5t102.5 -179.5q-6 -2 -10 -2q-1 113 -104.5 177.5t-269.5 64.5q-126 0 -223.5 -63.5t-97.5 -166.5q0 -53 25.5 -93.5t70.5 -64.5t98 -36.5t117 -15.5q197 -10 300 -63.5t103 -163.5q0 -107 -98 -179t-285 -72z" />
    <glyph glyph-name="uni1E61" unicode="&#x1e61;" horiz-adv-x="731" 
d="M368 834q-7 0 -11.5 5t-4.5 12q0 19 16 19t16 -19q0 -7 -4.5 -12t-11.5 -5zM385 -18q-87 0 -179.5 27.5t-159.5 83.5q0 6 5 9q62 -53 151.5 -81.5t182.5 -28.5q130 0 210 49.5t80 124.5q0 87 -71 129t-243 49q-284 14 -284 173q0 75 78 128t213 53q69 0 149.5 -20.5
t149.5 -65.5q0 -4 -4 -8q-132 84 -295 84q-137 0 -209 -52t-72 -119q0 -150 276 -163q177 -8 249.5 -52t72.5 -135q0 -85 -86.5 -135t-213.5 -50z" />
    <glyph glyph-name="uni1E6A" unicode="&#x1e6a;" horiz-adv-x="896" 
d="M432 977q-7 0 -11.5 5t-4.5 12q0 19 16 19t16 -19q0 -7 -4.5 -12t-11.5 -5zM864 890q1 -5 -2 -10h-428v-880h-10v880h-392q-2 5 3 10h829z" />
    <glyph glyph-name="uni1E6B" unicode="&#x1e6b;" horiz-adv-x="518" 
d="M112 969q-7 0 -11.5 5t-4.5 12q0 19 16 19t16 -19q0 -7 -4.5 -12t-11.5 -5zM500 637h-384v-349q0 -139 62.5 -217.5t173.5 -78.5q57 0 128 23q4 -4 2 -10q-71 -23 -130 -23q-113 0 -179.5 79.5t-66.5 226.5v349h-96v10h96v183q3 3 10 3v-186h384v-10z" />
    <glyph glyph-name="Wgrave" unicode="&#x1e80;" horiz-adv-x="1349" 
d="M695 958l-187 190h13l187 -190h-13zM495 0l-8 5q-81 225 -216.5 466t-255.5 416l1 3q5 2 10 0q135 -199 264 -433t206 -447h4q72 100 156 242.5t110 227.5q-50 120 -109 245q1 5 8 5q53 -110 155.5 -350t152.5 -370h3q176 220 273 454t69 426q4 3 10 0
q28 -189 -67.5 -426t-275.5 -458l-9 -6h-6l-5 4q-152 375 -193 462q-25 -80 -119.5 -240t-146.5 -223l-6 -3h-5z" />
    <glyph glyph-name="wgrave" unicode="&#x1e81;" horiz-adv-x="1009" 
d="M551 757l-174 245h13l172 -245h-11zM356 0l-6 4q-24 71 -52 140t-58.5 128t-57 108t-56.5 95.5t-48 73t-41.5 59t-26.5 36.5l1 3q6 1 9 0l26 -37q27 -37 42.5 -59.5t47 -71t56.5 -94.5t55.5 -106t58.5 -128.5t52 -140.5h5q54 79 114.5 189.5t88.5 189.5l-84 178
q1 2 4.5 3.5t4.5 0.5q61 -128 86 -183t66.5 -162t72.5 -216h5q115 149 195 324t73 313q4 1 9 0q11 -123 -70.5 -308.5t-198.5 -333.5l-6 -5h-11l-5 4q-58 194 -136 371q-20 -63 -85 -183t-115 -187l-7 -5h-8z" />
    <glyph glyph-name="Wacute" unicode="&#x1e82;" horiz-adv-x="1349" 
d="M665 932l182 199h13l-182 -199h-13zM495 0l-8 5q-81 225 -216.5 466t-255.5 416l1 3q5 2 10 0q135 -199 264 -433t206 -447h4q72 100 156 242.5t110 227.5q-50 120 -109 245q1 5 8 5q53 -110 155.5 -350t152.5 -370h3q176 220 273 454t69 426q4 3 10 0
q28 -189 -67.5 -426t-275.5 -458l-9 -6h-6l-5 4q-152 375 -193 462q-25 -80 -119.5 -240t-146.5 -223l-6 -3h-5z" />
    <glyph glyph-name="wacute" unicode="&#x1e83;" horiz-adv-x="1009" 
d="M486 757l174 245h12l-174 -245h-12zM356 0l-6 4q-24 71 -52 140t-58.5 128t-57 108t-56.5 95.5t-48 73t-41.5 59t-26.5 36.5l1 3q6 1 9 0l26 -37q27 -37 42.5 -59.5t47 -71t56.5 -94.5t55.5 -106t58.5 -128.5t52 -140.5h5q54 79 114.5 189.5t88.5 189.5l-84 178
q1 2 4.5 3.5t4.5 0.5q61 -128 86 -183t66.5 -162t72.5 -216h5q115 149 195 324t73 313q4 1 9 0q11 -123 -70.5 -308.5t-198.5 -333.5l-6 -5h-11l-5 4q-58 194 -136 371q-20 -63 -85 -183t-115 -187l-7 -5h-8z" />
    <glyph glyph-name="Wdieresis" unicode="&#x1e84;" horiz-adv-x="1349" 
d="M525 983q-7 0 -11.5 5t-4.5 12q0 19 16 19t16 -19q0 -7 -4.5 -12t-11.5 -5zM825 983q-7 0 -11.5 5t-4.5 12q0 19 16 19t16 -19q0 -7 -4.5 -12t-11.5 -5zM495 0l-8 5q-81 225 -216.5 466t-255.5 416l1 3q5 2 10 0q135 -199 264 -433t206 -447h4q72 100 156 242.5
t110 227.5q-50 120 -109 245q1 5 8 5q53 -110 155.5 -350t152.5 -370h3q176 220 273 454t69 426q4 3 10 0q28 -189 -67.5 -426t-275.5 -458l-9 -6h-6l-5 4q-152 375 -193 462q-25 -80 -119.5 -240t-146.5 -223l-6 -3h-5z" />
    <glyph glyph-name="wdieresis" unicode="&#x1e85;" horiz-adv-x="1009" 
d="M355 811q-7 0 -11.5 5t-4.5 12q0 19 16 19t16 -19q0 -7 -4.5 -12t-11.5 -5zM655 811q-7 0 -11.5 5t-4.5 12q0 19 16 19t16 -19q0 -7 -4.5 -12t-11.5 -5zM356 0l-6 4q-24 71 -52 140t-58.5 128t-57 108t-56.5 95.5t-48 73t-41.5 59t-26.5 36.5l1 3q6 1 9 0l26 -37
q27 -37 42.5 -59.5t47 -71t56.5 -94.5t55.5 -106t58.5 -128.5t52 -140.5h5q54 79 114.5 189.5t88.5 189.5l-84 178q1 2 4.5 3.5t4.5 0.5q61 -128 86 -183t66.5 -162t72.5 -216h5q115 149 195 324t73 313q4 1 9 0q11 -123 -70.5 -308.5t-198.5 -333.5l-6 -5h-11l-5 4
q-58 194 -136 371q-20 -63 -85 -183t-115 -187l-7 -5h-8z" />
    <glyph glyph-name="uni1E9E" unicode="&#x1e9e;" horiz-adv-x="932" 
d="M300 510q61 -1 130 -9t151 -29t146 -52t107.5 -83.5t43.5 -117.5q0 -107 -102 -172t-245 -65q-208 0 -334 112q1 4 7 8q117 -110 327 -110q143 0 240 63.5t97 164.5q0 64 -44.5 115t-110.5 81t-149 50t-151.5 27t-125.5 7l-5 9l488 371h-450q-115 0 -167.5 -75
t-52.5 -201v-604h-10v604q0 131 55.5 208.5t174.5 77.5h471q1 -3 0 -7z" />
    <glyph glyph-name="Ygrave" unicode="&#x1ef2;" horiz-adv-x="879" 
d="M473 958h-13l-187 190h13zM864 890q13 -266 -388 -604v-286h-10v286q-47 69 -222.5 305.5t-228.5 295.5l1 3q5 2 10 0q43 -46 202.5 -261.5t243.5 -332.5q83 69 149.5 138t122.5 145.5t85 156.5t25 154q4 1 10 0z" />
    <glyph glyph-name="ygrave" unicode="&#x1ef3;" horiz-adv-x="723" 
d="M424 781h-11l-174 245h13zM711 647q12 -171 -69 -387t-248 -378q-145 -139 -301 -140q-47 0 -82 16q-2 7 0 10l2 1q31 -17 80 -17q78 1 154.5 38t140.5 100q60 58 109 126q-74 39 -155 125.5t-144.5 183.5t-110 180t-68.5 138l1 3q2 1 9 1q14 -38 45.5 -98.5t80 -139
t102.5 -151.5t120 -137.5t126 -96.5q104 145 155 311.5t43 311.5q7 3 10 0z" />
    <glyph glyph-name="endash" unicode="&#x2013;" horiz-adv-x="1106" 
d="M216 352v10h673v-10h-673z" />
    <glyph glyph-name="emdash" unicode="&#x2014;" horiz-adv-x="1218" 
d="M216 352v10h786v-10h-786z" />
    <glyph glyph-name="quoteleft" unicode="&#x2018;" horiz-adv-x="300" 
d="M117 659l57 285h9l-57 -285h-9z" />
    <glyph glyph-name="quoteright" unicode="&#x2019;" horiz-adv-x="302" 
d="M117 659l58 285h10l-58 -285h-10z" />
    <glyph glyph-name="quotesinglbase" unicode="&#x201a;" horiz-adv-x="302" 
d="M117 -120l58 285h10l-58 -285h-10z" />
    <glyph glyph-name="quotedblleft" unicode="&#x201c;" horiz-adv-x="428" 
d="M117 659l57 285h10l-57 -285h-10zM244 659l57 285h10l-57 -285h-10z" />
    <glyph glyph-name="quotedblright" unicode="&#x201d;" horiz-adv-x="428" 
d="M117 659l57 285h10l-57 -285h-10zM244 659l57 285h10l-57 -285h-10z" />
    <glyph glyph-name="quotedblbase" unicode="&#x201e;" horiz-adv-x="429" 
d="M117 -120l58 285h10l-58 -285h-10zM244 -120l58 285h10l-58 -285h-10z" />
    <glyph glyph-name="dagger" unicode="&#x2020;" horiz-adv-x="818" 
d="M674 811v-11h-262v-929h-10v929h-258v11h258v181h10v-181h262z" />
    <glyph glyph-name="daggerdbl" unicode="&#x2021;" horiz-adv-x="825" 
d="M676 70v-11h-264v-188h-10v188h-256v11h256v730h-258v11h258v181h10v-181h262v-11h-262v-730h264z" />
    <glyph glyph-name="bullet" unicode="&#x2022;" horiz-adv-x="657" 
d="M329 323q-32 0 -54.5 25.5t-22.5 60.5q0 34 23 60.5t54 26.5q30 0 53 -26.5t23 -60.5q0 -35 -23 -60.5t-53 -25.5z" />
    <glyph glyph-name="ellipsis" unicode="&#x2026;" horiz-adv-x="660" 
d="M132 0q-6 0 -10.5 5t-4.5 12q0 19 15 19q17 0 17 -19q0 -7 -5 -12t-12 -5zM330 0q-6 0 -11 5t-5 12q0 8 5 13.5t11 5.5q15 0 15 -19q0 -7 -4.5 -12t-10.5 -5zM526 0q-6 0 -10.5 5t-4.5 12q0 19 15 19q17 0 17 -19q0 -7 -5 -12t-12 -5z" />
    <glyph glyph-name="perthousand" unicode="&#x2030;" horiz-adv-x="1509" 
d="M117 0l770 890h13l-769 -890h-14zM334 494q-93 0 -155 50t-62 136q0 84 60.5 135.5t156.5 51.5q97 0 158 -51t61 -136q0 -84 -64.5 -135t-154.5 -51zM334 504q89 0 149 49t60 127q0 80 -58 128.5t-151 48.5q-92 0 -149.5 -49.5t-57.5 -127.5q0 -79 57.5 -127.5
t149.5 -48.5zM666 0q-94 0 -156 50t-62 136q0 84 61 135.5t157 51.5t157 -51.5t61 -135.5t-64 -135t-154 -51zM1173 0q-93 0 -155 50t-62 136q0 84 60.5 135.5t156.5 51.5t157.5 -51.5t61.5 -135.5t-64.5 -135t-154.5 -51zM666 10q89 0 148.5 49t59.5 127q0 80 -57.5 128.5
t-150.5 48.5q-94 0 -151 -49t-57 -128t57.5 -127.5t150.5 -48.5zM1173 10q89 0 149 49t60 127q0 80 -58 128.5t-151 48.5q-94 0 -150.5 -49t-56.5 -128t57 -127.5t150 -48.5z" />
    <glyph glyph-name="guilsinglleft" unicode="&#x2039;" horiz-adv-x="771" 
d="M654 708l-523 -277l523 -279l-6 -8l-531 283v9l530 280z" />
    <glyph glyph-name="guilsinglright" unicode="&#x203a;" horiz-adv-x="771" 
d="M124 716l530 -280v-9l-530 -283l-6 8l523 279l-523 277z" />
    <glyph glyph-name="fraction" unicode="&#x2044;" horiz-adv-x="1092" 
d="M117 -130l846 1170h12l-845 -1170h-13z" />
    <glyph glyph-name="Euro" unicode="&#x20ac;" horiz-adv-x="927" 
d="M511 10q103 0 179 31t114 71l6 -6q-35 -40 -112 -73t-186 -33q-80 0 -153 39t-128.5 121t-71.5 193h-78v10h77q-5 42 -5 78q0 39 4 67h-76v10h77q21 166 123.5 257.5t230.5 91.5q94 0 174 -32t124 -75l-6 -6q-50 44 -127 73.5t-166 29.5q-122 0 -222 -88t-121 -251h408
v-10h-409q-4 -28 -4 -67q0 -36 5 -78h373v-10h-372q24 -161 123.5 -252t218.5 -91z" />
    <glyph glyph-name="uni2116" unicode="&#x2116;" horiz-adv-x="1724" 
d="M1312 304q-124 0 -199 77.5t-75 204.5q0 137 86.5 230.5t209.5 93.5q121 0 195.5 -76t77.5 -199q4 -144 -80.5 -237.5t-214.5 -93.5zM1334 900q-119 0 -202.5 -90.5t-83.5 -223.5q0 -123 72 -197.5t192 -74.5q126 0 207.5 90t77.5 231q-3 119 -74.5 192t-188.5 73z
M947 890q4 3 10 0v-890h-10l-820 875v-875h-10v886q1 2 4.5 3.5t4.5 0.5l821 -876v876zM1082 157v10h476v-10h-476z" />
    <glyph glyph-name="trademark" unicode="&#x2122;" horiz-adv-x="955" 
d="M421 890v-10h-147v-461h-10v461h-147v10h304zM838 890v-471h-10v450l-168 -387h-5l-174 388v-451h-10v471h12l174 -389l169 389h12z" />
    <glyph glyph-name="estimated" unicode="&#x212e;" horiz-adv-x="1009" 
d="M892 408h-681v-263q114 -153 294 -153q82 0 171 45t141 114q7 0 8 -6q-52 -71 -143.5 -117t-176.5 -46q-164 0 -276 125.5t-112 328.5q0 206 111.5 332.5t282.5 126.5q167 0 274.5 -131.5t106.5 -355.5zM511 885q-91 0 -171 -41t-129 -114v-312h594v301
q-105 166 -294 166z" />
    <glyph glyph-name="partialdiff" unicode="&#x2202;" horiz-adv-x="963" 
d="M451 910q81 0 148.5 -32t112 -84.5t76 -120.5t45 -137.5t13.5 -138.5q0 -206 -106 -310.5t-275 -104.5q-86 0 -155 25t-110 66t-62 88t-21 96q0 100 88 170t272 70q110 0 209.5 -26.5t149.5 -61.5q-2 86 -25.5 169.5t-68 157t-120 119t-171.5 45.5q-77 0 -156 -38
t-125 -91q-4 5 -2 12q46 53 128 90t155 37zM465 -8q168 0 269.5 102.5t101.5 302.5q-49 36 -149.5 63t-210.5 27q-173 0 -261 -65.5t-88 -164.5q0 -107 90 -186t248 -79z" />
    <glyph glyph-name="minus" unicode="&#x2212;" horiz-adv-x="764" 
d="M117 431v10h530v-10h-530z" />
    <glyph glyph-name="radical" unicode="&#x221a;" horiz-adv-x="1159" 
d="M1159 890v-10h-208l-439 -880h-12l-383 482h13l375 -472l440 880h214z" />
    <glyph glyph-name="infinity" unicode="&#x221e;" horiz-adv-x="1129" 
d="M799 677q92 0 152.5 -58t60.5 -172q0 -113 -61 -171t-152 -58q-53 0 -92.5 16t-66 49.5t-42 63t-33.5 78.5q-18 -48 -33 -78.5t-42 -63.5t-66.5 -49t-93.5 -16q-91 0 -152 58t-61 171q0 114 60.5 172t152.5 58q37 0 67 -8t53 -26t39 -35t31.5 -48.5t23 -51t21.5 -56.5
q13 37 21 57t23 51t31 48t39 35t53 26t67 8zM330 227q43 0 77 12.5t55.5 30t41.5 49.5t30.5 55.5t25.5 64.5q-40 108 -67 146q-58 81 -163 82q-85 0 -144 -54.5t-59 -165.5t59 -165.5t144 -54.5zM799 228q85 0 144 54.5t59 164.5q0 111 -58.5 165.5t-144.5 54.5
q-22 0 -41.5 -2.5t-36.5 -11t-30 -14t-26.5 -21t-21 -22.5t-19 -29t-15.5 -28.5t-14.5 -33.5t-12 -32t-12.5 -35q14 -39 25 -63.5t30.5 -55.5t41.5 -48.5t56 -30t76 -12.5z" />
    <glyph glyph-name="approxequal" unicode="&#x2248;" horiz-adv-x="720" 
d="M117 453q0 62 27 99.5t67 37.5q35 0 76 -20t73.5 -43.5t73.5 -43.5t75 -20q40 0 62 35.5t22 91.5h10q0 -61 -25.5 -99t-69.5 -38q-34 0 -75.5 20t-74.5 43.5t-73.5 43.5t-73.5 20q-37 0 -60.5 -35t-23.5 -92h-10zM117 316q0 62 27 99.5t67 37.5q35 0 76 -20t73.5 -43.5
t73.5 -43.5t75 -20q40 0 62 35.5t22 91.5h10q0 -61 -25.5 -99t-69.5 -38q-34 0 -75.5 20t-74.5 43.5t-73.5 43.5t-73.5 20q-37 0 -60.5 -35t-23.5 -92h-10z" />
    <glyph glyph-name="notequal" unicode="&#x2260;" horiz-adv-x="778" 
d="M659 886l-218 -368h206v-10h-212l-86 -145h298v-10h-304l-191 -322h-11l190 322h-214v10h220l86 145h-306v10h312l217 368h13z" />
    <glyph glyph-name="lessequal" unicode="&#x2264;" horiz-adv-x="770" 
d="M653 724l-523 -279l521 -277l-6 -8l-528 280v9l530 283zM152 82v10h486v-10h-486z" />
    <glyph glyph-name="greaterequal" unicode="&#x2265;" horiz-adv-x="770" 
d="M123 719l530 -283v-9l-528 -280l-6 8l521 277l-523 279zM119 74v10h486v-10h-486z" />
    <glyph glyph-name="i.loclTRK" horiz-adv-x="210" 
d="M105 834q-7 0 -11.5 5t-4.5 12q0 19 16 19t16 -19q0 -7 -4.5 -12t-11.5 -5zM100 0v647q5 3 10 0v-647h-10z" />
    <glyph glyph-name="uni00A0.001" horiz-adv-x="394" 
 />
    <glyph glyph-name="uni030C.alt" 
d="M-102 624l16 333h10l-16 -333h-10z" />
    <glyph glyph-name="uni0308.case" 
d="M-388 983q-7 0 -11.5 5t-4.5 12q0 19 16 19t16 -19q0 -7 -4.5 -12t-11.5 -5zM-88 983q-7 0 -11.5 5t-4.5 12q0 19 16 19t16 -19q0 -7 -4.5 -12t-11.5 -5z" />
    <glyph glyph-name="uni0307.case" 
d="M-88 977q-7 0 -11.5 5t-4.5 12q0 19 16 19t16 -19q0 -7 -4.5 -12t-11.5 -5z" />
    <glyph glyph-name="gravecomb.case" 
d="M-85 962l-187 190h13l187 -190h-13z" />
    <glyph glyph-name="acutecomb.case" 
d="M-213 932l182 199h13l-182 -199h-13z" />
    <glyph glyph-name="uni030B.case" 
d="M-428 959l149 171h13l-150 -171h-12zM-234 959l149 171h13l-149 -171h-13z" />
    <glyph glyph-name="uni0302.case" 
d="M-72 930h-15l-211 211l-211 -211h-15l224 222h4z" />
    <glyph glyph-name="uni030C.case" 
d="M-86 1148h14l-224 -211h-4l-224 211h14l212 -200z" />
    <glyph glyph-name="uni0306.case" 
d="M-282 764q-89 0 -148.5 41.5t-59.5 113.5h10q0 -65 55 -105t143 -40q85 0 142.5 40t57.5 105h10q0 -70 -61 -112.5t-149 -42.5z" />
    <glyph glyph-name="uni030A.case" 
d="M-259 886q-80 0 -134 36t-54 97q0 58 52.5 96t135.5 38q76 0 131.5 -38t55.5 -96t-58.5 -95.5t-128.5 -37.5zM-259 896q70 0 123.5 36.5t53.5 86.5q0 52 -52.5 88t-124.5 36q-79 0 -128.5 -36t-49.5 -88q0 -53 48 -88t130 -35z" />
    <glyph glyph-name="tildecomb.case" 
d="M-161 954q-40 0 -91.5 33.5t-102 66.5t-89.5 33q-34 0 -56 -35.5t-22 -92.5h-10q0 64 25.5 101t63.5 37q41 0 92 -33t101.5 -66.5t89.5 -33.5q36 -1 57 36t21 92h10q0 -62 -24 -100t-65 -38z" />
    <glyph glyph-name="uni0304.case" 
d="M-510 821v10h438v-10h-438z" />
    <glyph glyph-name="uni0327.case" 
d="M-156 -319q-49 0 -95 49l7 7q43 -46 88 -46q32 1 53 24.5t21 59.5q-2 52 -43 97t-50.5 66.5t-9.5 61.5h10q0 -38 8.5 -57t48.5 -64q46 -50 46 -104q0 -40 -23.5 -66.5t-60.5 -27.5z" />
    <glyph glyph-name="uni0328.case" 
d="M-199 -318q-44 -1 -72 22t-28 68q0 53 39 120.5t111 122.5l6 -8q-71 -55 -108.5 -119.5t-37.5 -115.5q0 -40 25.5 -60.5t64.5 -19.5q31 0 65 18t54 45l8 -6q-21 -29 -57 -48t-70 -19z" />
    </font>
</defs>
</svg>
