<?xml version="1.0" standalone="no"?>
<!DOCTYPE svg PUBLIC "-//W3C//DTD SVG 1.1//EN" "http://www.w3.org/Graphics/SVG/1.1/DTD/svg11.dtd" >
<svg xmlns="http://www.w3.org/2000/svg" xmlns:xlink="http://www.w3.org/1999/xlink" version="1.1">
<metadata>
Created by FontForge 20170731 at Mon May 11 15:12:43 2020
 By Aleksey,,,
Copyright (c) 2019 by Mans Greback. All rights reserved.
</metadata>
<defs>
<font id="Quache-LightExtraExpanded" horiz-adv-x="0" >
  <font-face 
    font-family="Quache Light Extra Expanded"
    font-weight="300"
    font-stretch="extra-expanded"
    units-per-em="1000"
    panose-1="0 0 4 7 0 0 0 0 0 0"
    ascent="800"
    descent="-200"
    x-height="653"
    cap-height="895"
    bbox="-616 -348.037 2021 1311"
    underline-thickness="50"
    underline-position="-200"
    unicode-range="U+000D-2265"
  />
<missing-glyph horiz-adv-x="868" 
d="M0 -3v949h868v-949h-868zM20 17h828v909h-828v-909zM369 269q-9 43 6.5 79.5t47 63.5t72 51t82.5 47t77 46t57.5 53t22.5 64q0 69 -76.5 113.5t-212.5 44.5q-98 0 -191 -34t-157 -86l-17 23q70 56 166.5 90.5t200.5 34.5q151 0 235.5 -52t84.5 -132q0 -39 -22.5 -72.5
t-58 -58.5t-78.5 -48t-84 -46t-73 -48t-48.5 -59t-8.5 -74h-25zM381 80q-11 0 -19 7.5t-8 17.5t8 18t19 8t19.5 -8t8.5 -18t-8.5 -17.5t-19.5 -7.5z" />
    <glyph glyph-name="f_i.liga" unicode="fi" horiz-adv-x="735" 
d="M222 0v623h-215v32h216q12 284 237 284q39 0 101 -13q2 -21 -7 -32q-48 13 -88 13q-97 0 -148.5 -65t-56.5 -187h380v-655h-38v623h-343v-623h-38zM622 826q-14 0 -24 9t-10 22t10 22.5t24 9.5t24 -9.5t10 -22.5t-10 -22t-24 -9z" />
    <glyph glyph-name="f_l.liga" unicode="fl" horiz-adv-x="881" 
d="M755 -18q-68 0 -100.5 45t-32.5 143v708q-81 29 -152 29q-99 0 -151.5 -65.5t-57.5 -188.5h271v-32h-272v-621h-38v621h-215v32h216q12 285 246 285q87 0 191 -42v-719q0 -88 25 -126t80 -37q34 0 92 16q4 -3 5.5 -12.5t-0.5 -16.5q-56 -17 -107 -19z" />
    <glyph glyph-name=".notdef" horiz-adv-x="868" 
d="M0 -3v949h868v-949h-868zM20 17h828v909h-828v-909zM369 269q-9 43 6.5 79.5t47 63.5t72 51t82.5 47t77 46t57.5 53t22.5 64q0 69 -76.5 113.5t-212.5 44.5q-98 0 -191 -34t-157 -86l-17 23q70 56 166.5 90.5t200.5 34.5q151 0 235.5 -52t84.5 -132q0 -39 -22.5 -72.5
t-58 -58.5t-78.5 -48t-84 -46t-73 -48t-48.5 -59t-8.5 -74h-25zM381 80q-11 0 -19 7.5t-8 17.5t8 18t19 8t19.5 -8t8.5 -18t-8.5 -17.5t-19.5 -7.5z" />
    <glyph glyph-name=".null" 
 />
    <glyph glyph-name="nonmarkingreturn" horiz-adv-x="333" 
 />
    <glyph glyph-name="CR" unicode="&#xd;" horiz-adv-x="600" 
 />
    <glyph glyph-name="space" unicode=" " horiz-adv-x="451" 
 />
    <glyph glyph-name="exclam" unicode="!" horiz-adv-x="359" 
d="M162 273l-2 640h39l-2 -640h-35zM180 0q-13 0 -22.5 9t-9.5 21t9.5 20.5t22.5 8.5t22.5 -8.5t9.5 -20.5t-9.5 -21t-22.5 -9z" />
    <glyph glyph-name="quotedbl" unicode="&#x22;" horiz-adv-x="479" 
d="M111 657l59 291h39l-67 -291h-31zM271 657l59 291h39l-67 -291h-31z" />
    <glyph glyph-name="numbersign" unicode="#" horiz-adv-x="927" 
d="M816 590h-153l-32 -280h149v-30h-152l-19 -165h-34l18 165h-308l-19 -165h-34l18 165h-139v30h143l31 280h-139v31h142l17 150h35l-17 -150h308l17 150h35l-17 -150h150v-31zM597 310l31 280h-308l-32 -280h309z" />
    <glyph glyph-name="dollar" unicode="$" horiz-adv-x="1038" 
d="M927 235q0 -93 -101 -160.5t-276 -73.5v-131h-29v130h-7q-268 0 -403 129l20 27q121 -123 391 -123q170 0 268.5 60t98.5 144q0 53 -40.5 93t-105.5 63t-143.5 42t-157.5 38t-144 42t-105.5 61.5t-40.5 90.5q0 27 10 52.5t36.5 53t66.5 48t106.5 34t150.5 14.5v125h29
v-125q119 -3 210.5 -33.5t142.5 -76.5l-13 -29q-57 48 -150 77.5t-211 29.5q-174 0 -257 -50.5t-83 -118.5q0 -45 40.5 -78t105.5 -53.5t143.5 -37.5t157.5 -37.5t144 -47t105.5 -72t40.5 -107.5z" />
    <glyph glyph-name="percent" unicode="%" horiz-adv-x="1179" 
d="M134 0l865 890h47l-865 -890h-47zM370 493q-114 0 -186.5 50.5t-72.5 138.5q0 85 71.5 137.5t187.5 52.5q118 0 189.5 -51.5t71.5 -138.5q0 -86 -75 -137.5t-186 -51.5zM370 520q95 0 159 45t64 117q0 74 -61.5 118t-161.5 44q-99 0 -160 -45.5t-61 -116.5
q0 -72 61.5 -117t159.5 -45zM795 -2q-114 0 -186.5 50.5t-72.5 138.5q0 85 71.5 137t187.5 52q117 0 189 -51.5t72 -137.5t-75 -137.5t-186 -51.5zM795 25q95 0 159 44.5t64 117.5t-62 117.5t-161 44.5t-160 -45.5t-61 -116.5q0 -74 61.5 -118t159.5 -44z" />
    <glyph glyph-name="ampersand" unicode="&#x26;" horiz-adv-x="1157" 
d="M1046 28l-23 -28l-175 125q-140 -143 -357 -143q-165 0 -272.5 60.5t-107.5 159.5q0 82 70.5 141.5t194.5 110.5q-109 74 -166.5 132.5t-57.5 122.5q0 85 91.5 144.5t276.5 59.5q169 0 261.5 -59.5t92.5 -132.5q0 -27 -14 -52t-44 -48.5t-61 -42.5t-80.5 -40t-86 -35.5
t-93.5 -35.5l-49 -18q64 -42 115 -77l281 -199q49 59 75 127t27 127h35q0 -66 -27.5 -139.5t-79.5 -135.5zM191 708q0 -56 56.5 -110.5t166.5 -127.5q10 4 30 11.5t30 10.5q59 21 94.5 34.5t83.5 33.5t76 36.5t56 37t40.5 41.5t12.5 44q0 60 -84.5 110.5t-232.5 50.5
q-162 0 -245.5 -49t-83.5 -123zM495 15q195 0 323 131l-286 203q-57 40 -125 84q-79 -32 -131.5 -62t-89.5 -74t-37 -94q0 -81 97 -134.5t249 -53.5z" />
    <glyph glyph-name="quotesingle" unicode="'" horiz-adv-x="319" 
d="M111 657l59 291h39l-67 -291h-31z" />
    <glyph glyph-name="parenleft" unicode="(" horiz-adv-x="697" 
d="M542 -244q-82 33 -145.5 87t-103 116t-65.5 136.5t-36 143.5t-10 141q0 80 22 164.5t68.5 171.5t132 161.5t198.5 115.5l16 -22l-3 -7q-85 -32 -153.5 -84.5t-112.5 -112.5t-73.5 -129t-41.5 -132.5t-12 -125.5q0 -90 16.5 -173t52.5 -165.5t104 -149.5t161 -107l1 -7z
" />
    <glyph glyph-name="parenright" unicode=")" horiz-adv-x="697" 
d="M155 -244l-16 22l2 7q93 40 160.5 107t104 149.5t53 165.5t16.5 173q0 79 -21 159.5t-64.5 163t-123 152t-185.5 109.5l-2 7l15 22q113 -41 198.5 -115.5t132 -161.5t68.5 -171.5t22 -164.5q0 -72 -10 -141t-36 -143.5t-65.5 -136.5t-103 -116t-145.5 -87z" />
    <glyph glyph-name="asterisk" unicode="*" horiz-adv-x="598" 
d="M488 752l-166 -55l111 -140l-29 -20l-105 145l-104 -145l-28 20l111 140l-167 55l13 29l162 -61l-5 177h37l-6 -177l163 61z" />
    <glyph glyph-name="plus" unicode="+" horiz-adv-x="834" 
d="M724 453v-33h-290v-280h-34v280h-289v33h289v282h34v-282h290z" />
    <glyph glyph-name="comma" unicode="," horiz-adv-x="271" 
d="M52 -172l63 323h39l-66 -323h-36z" />
    <glyph glyph-name="hyphen" unicode="-" horiz-adv-x="1068" 
d="M212 343v31h644v-31h-644z" />
    <glyph glyph-name="period" unicode="." horiz-adv-x="363" 
d="M181 0q-14 0 -23.5 9t-9.5 22t10 22.5t23 9.5q14 0 24.5 -9.5t10.5 -22.5t-10.5 -22t-24.5 -9z" />
    <glyph glyph-name="slash" unicode="/" horiz-adv-x="936" 
d="M-17 -130l927 1124h43l-927 -1124h-43z" />
    <glyph glyph-name="zero" unicode="0" horiz-adv-x="925" 
d="M462 -18q-126 0 -222 64t-144.5 168t-48.5 230q0 219 112 344t303 125q193 0 304.5 -124.5t111.5 -344.5q0 -126 -48.5 -230t-144.5 -168t-223 -64zM462 15q169 0 273.5 121.5t104.5 307.5q0 205 -101 320.5t-277 115.5q-175 0 -276 -117t-101 -319q0 -183 104 -306
t273 -123z" />
    <glyph glyph-name="one" unicode="1" horiz-adv-x="682" 
d="M635 29q3 -14 0 -29h-588q-4 12 0 29l277 6v818l-241 -57q-5 14 -2 29l260 65h22v-855z" />
    <glyph glyph-name="two" unicode="2" horiz-adv-x="910" 
d="M48 0v28q29 64 87.5 121t127 98.5t145.5 80.5t147.5 75t127.5 73.5t91.5 84.5t34.5 99q0 101 -92.5 160.5t-265.5 59.5q-237 0 -349 -99q-16 11 -22 25q125 107 374 107q191 0 292.5 -69.5t101.5 -182.5q0 -57 -33 -107.5t-88.5 -89.5t-124 -76t-144 -75t-143 -77.5
t-126.5 -92t-91 -111.5h763q5 -16 0 -32h-813z" />
    <glyph glyph-name="three" unicode="3" horiz-adv-x="916" 
d="M541 482q168 -31 248 -93t80 -160q0 -106 -108.5 -176.5t-302.5 -70.5q-129 0 -236.5 32t-174.5 86q1 14 18 29q59 -49 161.5 -81.5t231.5 -32.5q164 0 268 58t104 156q0 58 -32.5 101t-94 70.5t-137.5 44t-175 24.5q-5 19 0 34q192 0 303 56.5t111 155.5
q0 84 -97.5 134.5t-263.5 50.5q-102 0 -206 -31t-153 -71q-14 10 -17 28q53 43 163 74.5t218 31.5q184 0 289.5 -59.5t105.5 -154.5q0 -89 -77 -150.5t-226 -85.5z" />
    <glyph glyph-name="four" unicode="4" horiz-adv-x="965" 
d="M916 267q5 -16 0 -32h-111v-235h-38v235h-720v29l727 626h31v-623h111zM104 267h665l1 575z" />
    <glyph glyph-name="five" unicode="5" horiz-adv-x="929" 
d="M432 589q217 1 333.5 -81t116.5 -221q0 -127 -109.5 -216t-308.5 -89q-144 0 -252.5 40.5t-164.5 103.5q0 18 17 29q57 -63 160.5 -100.5t234.5 -37.5q188 0 286 79.5t98 190.5q0 124 -110.5 197.5t-311.5 71.5q-147 -2 -312 -34l42 368h699q3 -16 -3 -32h-661l-36 -300
q155 29 282 31z" />
    <glyph glyph-name="six" unicode="6" horiz-adv-x="912" 
d="M467 507q200 0 299 -70.5t99 -174.5q0 -51 -26 -100t-74.5 -89.5t-129 -65.5t-179.5 -25q-195 0 -302 88.5t-107 241.5q0 178 157 326.5t464 257.5q20 -13 22 -28q-491 -172 -584 -439q59 33 155.5 55.5t205.5 22.5zM456 15q170 0 270 74t100 172q0 91 -92 152t-276 61
q-112 0 -210.5 -24t-151.5 -57q-10 -39 -10 -83q0 -135 94.5 -215t275.5 -80z" />
    <glyph glyph-name="seven" unicode="7" horiz-adv-x="899" 
d="M43 890h812v-33q-196 -110 -328.5 -344t-133.5 -513h-41q1 272 128 506t321 352h-758q-6 11 0 32z" />
    <glyph glyph-name="eight" unicode="8" horiz-adv-x="916" 
d="M540 500q146 -30 237.5 -98.5t91.5 -172.5q0 -107 -103 -177t-309 -70q-204 0 -307 70t-103 177q0 58 28.5 106t78 79.5t103 52t116.5 34.5q-297 49 -297 192q0 39 21.5 76t64.5 70.5t119.5 53.5t175.5 20q192 0 287 -63t95 -148q0 -75 -80.5 -126t-218.5 -76zM115 690
q0 -39 26.5 -69t77 -50t105 -33t128.5 -23h1q347 48 347 184q0 73 -85 127t-258 54q-172 0 -257 -58.5t-85 -131.5zM457 15q187 0 279.5 62.5t93.5 152.5q0 71 -53.5 126t-134 86t-182.5 46q-104 -14 -184 -43t-135 -85t-55 -130q0 -90 92 -152.5t279 -62.5z" />
    <glyph glyph-name="nine" unicode="9" horiz-adv-x="914" 
d="M456 913q196 0 303.5 -84t107.5 -230q0 -187 -158 -345.5t-465 -270.5q-20 13 -22 28q221 79 377.5 196t207.5 262q-59 -30 -156 -52t-206 -22q-200 0 -299 71.5t-99 175.5q0 49 26 96t74.5 86.5t129 64t179.5 24.5zM86 642q0 -92 92.5 -153.5t275.5 -61.5q113 0 211 22
t151 52q10 47 10 101q0 126 -94 201.5t-276 75.5q-163 0 -266.5 -69.5t-103.5 -167.5z" />
    <glyph glyph-name="colon" unicode=":" horiz-adv-x="363" 
d="M181 594q-13 0 -23 9.5t-10 21.5q0 13 9.5 22.5t23.5 9.5t24.5 -9.5t10.5 -22.5q0 -12 -10.5 -21.5t-24.5 -9.5zM181 0q-14 0 -23.5 9t-9.5 22t10 22.5t23 9.5q14 0 24.5 -9.5t10.5 -22.5t-10.5 -22t-24.5 -9z" />
    <glyph glyph-name="semicolon" unicode=";" horiz-adv-x="274" 
d="M113 594q-13 0 -23 9.5t-10 21.5q0 13 10 22.5t23 9.5q15 0 25 -9t10 -23q0 -12 -10 -21.5t-25 -9.5zM52 -172l63 323h39l-66 -323h-36z" />
    <glyph glyph-name="less" unicode="&#x3c;" horiz-adv-x="837" 
d="M726 703l-563 -270l562 -269l-15 -27l-599 283v25l601 285z" />
    <glyph glyph-name="equal" unicode="=" horiz-adv-x="834" 
d="M111 507v33h612v-33h-612zM111 335v32h612v-32h-612z" />
    <glyph glyph-name="greater" unicode="&#x3e;" horiz-adv-x="837" 
d="M125 730l601 -285v-25l-599 -283l-15 27l562 269l-563 270z" />
    <glyph glyph-name="question" unicode="?" horiz-adv-x="916" 
d="M382 245q-10 48 7.5 90t53.5 72t81.5 57.5t93 53.5t87.5 52t65.5 60t25.5 72q0 77 -87 128t-241 51q-111 0 -219.5 -40t-172.5 -96l-21 25q80 64 189 103.5t227 39.5q171 0 267 -59t96 -150q0 -60 -48 -109t-114.5 -84t-131 -70.5t-103 -85t-26.5 -110.5h-29zM397 0
q-13 0 -22.5 9t-9.5 21t9.5 20.5t22.5 8.5t23 -8.5t10 -20.5t-10 -21t-23 -9z" />
    <glyph glyph-name="at" unicode="@" horiz-adv-x="1393" 
d="M697 -190q-170 0 -301.5 57.5t-208 172t-76.5 270.5q0 240 164.5 377.5t431.5 137.5q255 0 415 -136.5t160 -370.5q0 -116 -55 -177.5t-144 -61.5q-134 0 -151 105q-26 -39 -89 -72t-145 -33q-138 0 -208 69.5t-70 170.5t70 171t208 70q135 0 228 -68v53h31v-319
q0 -114 127 -114q74 0 119 51.5t45 154.5q0 224 -149.5 350.5t-391.5 126.5q-253 0 -406.5 -131t-153.5 -354q0 -218 152.5 -343.5t397.5 -125.5q93 0 177 20.5t130 51.5l19 -25q-51 -32 -139.5 -55t-186.5 -23zM701 109q73 0 134.5 31t86.5 77v242q-83 71 -221 71
q-119 0 -182 -60.5t-63 -150.5q0 -91 62 -150.5t183 -59.5z" />
    <glyph glyph-name="A" unicode="A" horiz-adv-x="1103" 
d="M582 892q50 -84 263 -459.5t244 -426.5l-2 -6q-32 0 -43 3q-29 48 -134 237h-712l-140 -240h-44l525 892q7 3 21.5 3t21.5 -3zM217 272h675q-255 457 -331 588z" />
    <glyph glyph-name="B" unicode="B" horiz-adv-x="1013" 
d="M698 522q272 -44 272 -231q0 -148 -124 -228t-338 -81q-146 -1 -233.5 8.5t-190.5 34.5v855q96 19 173 26t205 7q95 0 170 -15t119 -37.5t73 -52.5t39.5 -57.5t10.5 -54.5q0 -58 -45.5 -105t-130.5 -69zM835 694q0 31 -17.5 61.5t-57 60t-116.5 48t-182 18.5
q-221 0 -340 -28v-369q67 21 181 35.5t216 14.5q59 0 100 -4q103 12 159.5 57.5t56.5 105.5zM506 14q206 0 316 74t109 201q0 214 -419 214q-98 0 -206 -14t-184 -37v-400q144 -38 384 -38z" />
    <glyph glyph-name="C" unicode="C" horiz-adv-x="978" 
d="M543 -18q-214 0 -357.5 126t-143.5 339q0 132 69 238.5t184.5 166t253.5 61.5q169 2 280 -86.5t105 -221.5q-24 -8 -38 -3q4 120 -96.5 200t-250.5 78q-198 -5 -333 -127t-135 -307q0 -133 63.5 -232t167 -148.5t231.5 -50.5q84 0 177.5 25.5t167.5 73.5q9 -3 15 -13
t6 -14q-78 -52 -178 -78.5t-188 -26.5z" />
    <glyph glyph-name="D" unicode="D" horiz-adv-x="1058" 
d="M462 913q248 0 401 -127t153 -329q0 -212 -145.5 -343t-382.5 -132q-143 0 -217 8.5t-187 34.5v855q90 19 168.5 26t209.5 7zM485 14q222 0 356.5 123t134.5 320q0 184 -140 304t-376 120q-214 0 -338 -26v-802q155 -39 363 -39z" />
    <glyph glyph-name="E" unicode="E" horiz-adv-x="945" 
d="M899 32q4 -4 4 -15t-4 -17h-815v887l6 5h779q7 -17 -6 -32h-741v-415h639q2 -7 0 -17.5t-7 -14.5h-632v-381h777z" />
    <glyph glyph-name="F" unicode="F" horiz-adv-x="914" 
d="M863 859h-741v-466h637q2 -8 -0.5 -18.5t-6.5 -13.5h-630v-361h-38v885l7 6h780q4 -15 -8 -32z" />
    <glyph glyph-name="G" unicode="G" horiz-adv-x="1039" 
d="M995 617q-22 -9 -42 -3q1 119 -112 192.5t-283 73.5q-107 0 -198 -35t-151.5 -94.5t-94 -138.5t-33.5 -166q0 -198 138 -314.5t358 -116.5q97 0 199 23t180 67v277h-428q-5 18 8 33h449l9 -8v-320q-81 -51 -194.5 -78t-222.5 -27q-235 0 -385 125.5t-150 339.5
q0 91 36 175t100.5 149t163 103.5t215.5 38.5q187 0 315 -83t123 -213z" />
    <glyph glyph-name="H" unicode="H" horiz-adv-x="1021" 
d="M899 892q7 3 19.5 3t18.5 -3v-892h-38v388h-777v-388h-38v892q16 8 38 0v-471h777v471z" />
    <glyph glyph-name="I" unicode="I" horiz-adv-x="207" 
d="M84 0v892q7 3 20 3t18 -3v-892h-38z" />
    <glyph glyph-name="J" unicode="J" horiz-adv-x="1042" 
d="M500 -18q-116 0 -234 57.5t-211 144.5q5 22 23 27q87 -84 199 -140t221 -56q172 0 280.5 103.5t108.5 263.5v510q7 3 20 2.5t18 -2.5v-520q0 -77 -29.5 -147t-82.5 -124.5t-134.5 -86.5t-178.5 -32z" />
    <glyph glyph-name="K" unicode="K" horiz-adv-x="1099" 
d="M534 469q211 -196 338.5 -305t208.5 -153v-7q-21 -6 -44 -6q-145 74 -539 454q-181 -83 -376 -155v-297h-38v892q17 9 38 0v-560q346 134 517 228q333 183 323 332q21 6 38 0q15 -159 -327 -353q-69 -38 -139 -70z" />
    <glyph glyph-name="L" unicode="L" horiz-adv-x="919" 
d="M95 0l-11 10v882q6 3 20 2.5t18 -2.5v-860h775q11 -15 0 -32h-802z" />
    <glyph glyph-name="M" unicode="M" horiz-adv-x="1293" 
d="M1251 0h-38l-98 835l-453 -675h-31l-453 674l-98 -834h-38l105 886q5 5 18 7t18 -1l463 -688l463 688q7 2 19.5 0t17.5 -7z" />
    <glyph glyph-name="N" unicode="N" horiz-adv-x="1128" 
d="M1006 892q16 8 38 0v-892h-32l-890 838v-838h-38v882q4 5 15.5 8.5t17.5 1.5l889 -838v838z" />
    <glyph glyph-name="O" unicode="O" horiz-adv-x="1095" 
d="M499 -18q-204 0 -330.5 120.5t-126.5 298.5q0 145 76 263t205 183.5t283 65.5q124 0 227.5 -59.5t161.5 -160t58 -217.5q0 -137 -77 -251t-204 -178.5t-273 -64.5zM501 15q136 0 254 61t188.5 168t70.5 233q0 170 -120 286t-292 116q-143 0 -263 -61.5t-189 -171.5
t-69 -243q0 -161 115 -274.5t305 -113.5z" />
    <glyph glyph-name="P" unicode="P" horiz-adv-x="1013" 
d="M971 599q0 -103 -68.5 -176.5t-176 -107t-238.5 -33.5q-203 0 -366 49v-331h-38v871q175 42 419 42q210 0 338.5 -84t129.5 -230zM931 598q1 130 -115.5 206.5t-314.5 76.5q-228 0 -379 -38v-477q158 -51 364 -51q123 0 221.5 29.5t161 95t62.5 158.5z" />
    <glyph glyph-name="Q" unicode="Q" horiz-adv-x="1095" 
d="M825 -121q93 1 198 33q14 -14 9 -35q-121 -27 -196 -28q-224 -2 -340 133q-202 1 -328 121.5t-126 297.5q0 145 76 263t205 183.5t283 65.5q124 0 227.5 -59.5t161.5 -160t58 -217.5q0 -130 -70.5 -240.5t-187 -176.5t-254.5 -76q106 -106 284 -104zM81 403
q0 -161 115 -274.5t305 -113.5q136 0 254 61t188.5 168t70.5 233q0 170 -120 286t-292 116q-143 0 -263 -61.5t-189 -171.5t-69 -243z" />
    <glyph glyph-name="R" unicode="R" horiz-adv-x="1086" 
d="M656 316q270 -251 382 -307v-6q-18 -5 -44 -5q-100 44 -386 310q-53 -7 -118 -7q-94 1 -198.5 15.5t-169.5 30.5v-347h-38v871q98 24 191 33t233 9q210 0 335.5 -83t125.5 -229q0 -112 -86.5 -185t-226.5 -100zM490 333q86 -1 163.5 15.5t140.5 48.5t99.5 85t36.5 120
q-1 125 -111.5 202t-314.5 77q-231 0 -382 -36v-464q177 -46 368 -48z" />
    <glyph glyph-name="S" unicode="S" horiz-adv-x="1025" 
d="M545 -18q-138 0 -269.5 36t-233.5 103q6 24 22 30q209 -137 478 -137q189 0 295.5 61.5t106.5 159.5q0 57 -34 97t-98.5 62t-132.5 32t-159 15q-104 5 -182 26.5t-131 72.5t-53 127q0 60 35 109t91.5 77.5t122 44t130.5 15.5q207 0 323 -72.5t116 -183.5q-24 -7 -40 -4
q-2 107 -110.5 167.5t-288.5 60.5q-86 0 -162 -23.5t-127 -73.5t-51 -117q0 -50 28.5 -88t78 -59.5t105.5 -32.5t122 -14q103 -4 182 -18t143 -40.5t97.5 -71t33.5 -106.5q0 -110 -114 -182.5t-324 -72.5z" />
    <glyph glyph-name="T" unicode="T" horiz-adv-x="1040" 
d="M997 892q5 -18 -7 -32h-472v-860h-39v860h-436q-6 18 6 32h948z" />
    <glyph glyph-name="U" unicode="U" horiz-adv-x="1126" 
d="M548 -19q-219 0 -341.5 103t-122.5 302v506q18 8 40 0v-508q0 -181 113 -275.5t311 -94.5q206 0 330.5 106.5t124.5 275.5v496q15 7 39 0v-498q0 -177 -132 -295t-362 -118z" />
    <glyph glyph-name="V" unicode="V" horiz-adv-x="1048" 
d="M526 0l-13 8q-88 216 -261 509t-238 368l3 7q18 5 37 0q93 -121 251.5 -389t237.5 -470h9q84 93 160.5 195.5t148.5 221.5t108.5 235.5t20.5 203.5q14 9 38 3q30 -160 -97.5 -395.5t-354.5 -488.5l-14 -8h-36z" />
    <glyph glyph-name="W" unicode="W" horiz-adv-x="1533" 
d="M543 0l-14 8q-93 227 -243 472t-272 405l3 7q18 5 37 0q141 -190 281 -420t225 -439h7q81 99 172 236.5t119 219.5q-75 156 -115 236q8 16 34 14q57 -105 167 -339t164 -367h6q189 210 288.5 440t68.5 417q13 8 38 2q33 -190 -67 -428t-300 -454l-18 -10h-40l-8 6
q-30 69 -101 222.5t-101 212.5q-27 -76 -126 -225t-155 -210l-14 -6h-36z" />
    <glyph glyph-name="X" unicode="X" horiz-adv-x="1093" 
d="M576 437q350 -303 502 -430l-3 -7h-45q-33 25 -131 108.5t-224 193.5t-134 116q-228 -140 -297 -191q-157 -116 -187 -218q-1 -5 -2 -9h-41q15 58 51.5 110t98 102t127 93.5t163.5 104.5q38 23 57 35q-70 63 -232.5 216.5t-232.5 222.5l3 7q23 5 47 1q48 -53 203 -199
t246 -227q111 69 185.5 121t136.5 106.5t90 103t24 93.5q12 7 38 1q7 -93 -90.5 -191.5t-352.5 -262.5z" />
    <glyph glyph-name="Y" unicode="Y" horiz-adv-x="1001" 
d="M986 892q18 -269 -433 -603v-289h-38v291q-53 72 -243 299.5t-257 294.5l3 7q22 6 44 0q48 -46 215.5 -247t262.5 -320q187 134 301.5 284t105.5 281q14 7 39 2z" />
    <glyph glyph-name="Z" unicode="Z" horiz-adv-x="997" 
d="M951 32q4 -4 4 -15t-4 -17h-899q-12 7 -10 26q177 250 402 486.5t409 347.5h-772q-5 4 -5 14.5t5 17.5h834q5 -3 8.5 -13t2.5 -17q-196 -112 -424.5 -348.5t-405.5 -481.5h855z" />
    <glyph glyph-name="bracketleft" unicode="[" horiz-adv-x="545" 
d="M111 -231v1225h324v-32h-289v-1162h289v-31h-324z" />
    <glyph glyph-name="backslash" unicode="\" horiz-adv-x="930" 
d="M950 -130h-43l-927 1124h43z" />
    <glyph glyph-name="bracketright" unicode="]" horiz-adv-x="545" 
d="M435 -231h-324v31h289v1162h-289v32h324v-1225z" />
    <glyph glyph-name="asciicircum" unicode="^" horiz-adv-x="951" 
d="M832 509h-51l-304 356l-307 -356h-50l344 392h26z" />
    <glyph glyph-name="underscore" unicode="_" horiz-adv-x="780" 
d="M111 -29v29h558v-29h-558z" />
    <glyph glyph-name="grave" unicode="`" horiz-adv-x="375" 
d="M276 736l-208 245h44l195 -245h-31z" />
    <glyph glyph-name="a" unicode="a" horiz-adv-x="815" 
d="M740 136q0 -42 4.5 -67.5t10 -36t18.5 -27.5l-1 -5h-36q-19 19 -27 42t-8 79l-1 120q-48 -112 -163 -185.5t-257 -73.5q-110 0 -173 45.5t-63 116.5q0 87 76 146t189.5 83t254.5 23q55 0 132 -5q-7 131 -80 205t-194 74q-131 0 -297 -94q-12 7 -15 28q169 96 311 96
q147 0 232 -90.5t86 -257.5zM697 350l1 14q-61 5 -137 5q-98 1 -182.5 -12t-151 -39t-104.5 -69.5t-38 -100.5q0 -61 52.5 -97.5t147.5 -36.5q88 0 167 32.5t130.5 82.5t82 108.5t32.5 112.5z" />
    <glyph glyph-name="b" unicode="b" horiz-adv-x="862" 
d="M489 700q147 0 241 -94.5t94 -247.5q0 -149 -110.5 -262.5t-273.5 -113.5q-109 0 -192.5 55t-124.5 143v-39q0 -81 -17 -141h-38v8q15 52 15 173v751q21 6 38 0v-504q38 124 143.5 198t224.5 74zM437 14q101 0 182.5 51.5t124 129.5t42.5 163q0 141 -84.5 225.5
t-214.5 84.5q-142 0 -253.5 -108t-111.5 -258q0 -111 91.5 -199.5t223.5 -88.5z" />
    <glyph glyph-name="c" unicode="c" horiz-adv-x="799" 
d="M398 -18q-147 0 -253.5 94.5t-106.5 250.5q0 106 59 193t150.5 133.5t192.5 46.5q157 0 241.5 -91t80.5 -235q-23 -8 -40 -2q2 132 -70 213.5t-214 82.5q-141 0 -251.5 -99.5t-110.5 -241.5q0 -141 95 -227t228 -85q102 0 175 25t134 78q10 -3 15.5 -12t5.5 -13
q-67 -58 -143.5 -84.5t-187.5 -26.5z" />
    <glyph glyph-name="d" unicode="d" horiz-adv-x="864" 
d="M781 181q0 -121 15 -173v-8h-33q-19 52 -19 145v89q-37 -109 -133.5 -180.5t-225.5 -71.5q-154 0 -250.5 92t-96.5 244q0 160 111.5 271t282.5 111q110 0 195.5 -62.5t116.5 -163.5v458q5 2 17 2t20 -2v-751zM385 14q153 0 253.5 106t100.5 247q0 127 -87.5 213.5
t-213.5 86.5q-154 0 -258 -101t-104 -248q0 -135 85.5 -219.5t223.5 -84.5z" />
    <glyph glyph-name="e" unicode="e" horiz-adv-x="799" 
d="M430 700q159 0 250.5 -90t84.5 -250l-10 -11l-676 -71q10 -123 98.5 -193t221.5 -71q158 0 299 108q8 -3 13.5 -12t5.5 -13q-150 -115 -322 -115q-154 0 -255.5 86.5t-101.5 236.5q0 167 114 281t278 114zM724 373q4 142 -75.5 219t-218.5 77q-146 0 -248.5 -105.5
t-103.5 -256.5z" />
    <glyph glyph-name="f" unicode="f" horiz-adv-x="444" 
d="M577 916q1 -7 -2 -17.5t-7 -14.5q-70 22 -128 22q-196 0 -207 -253h284v-32h-284v-621h-37v621h-189v32h190q9 285 236 285q59 0 144 -22z" />
    <glyph glyph-name="g" unicode="g" horiz-adv-x="861" 
d="M759 658q15 1 34 -3v-7q-14 -71 -14 -140v-428q0 -169 -103.5 -265.5t-265.5 -96.5q-176 0 -346 114q4 22 16 29q166 -111 327 -111q147 0 241.5 88.5t95.5 241.5l1 164q-34 -115 -134.5 -188.5t-233.5 -73.5q-143 0 -241.5 90.5t-97.5 244.5q1 162 113 272.5t278 110.5
q115 0 199.5 -65t116.5 -159l-1 94zM378 14q149 0 255 100.5t106 256.5q0 49 -21 100.5t-58.5 95.5t-96.5 72.5t-127 28.5q-153 0 -255.5 -101.5t-104.5 -248.5q-2 -131 82.5 -217.5t219.5 -86.5z" />
    <glyph glyph-name="h" unicode="h" horiz-adv-x="849" 
d="M488 700q149 0 229 -91t80 -255v-354h-37v352q0 143 -71 228.5t-207 85.5q-97 0 -185.5 -57t-139.5 -143t-51 -173v-293h-38v932q24 7 38 0v-504q44 111 151 191.5t231 80.5z" />
    <glyph glyph-name="i" unicode="i" horiz-adv-x="225" 
d="M112 826q-14 0 -24 9t-10 21q0 13 10 23t24 10t24 -9.5t10 -23.5q0 -12 -10 -21t-24 -9zM94 0v653q7 2 19 2t18 -2v-653h-37z" />
    <glyph glyph-name="j" unicode="j" horiz-adv-x="243" 
d="M125 826q-14 0 -24 9t-10 21q0 13 10 23t24 10t24 -9.5t10 -23.5q0 -12 -10 -21t-24 -9zM6 -225q-38 0 -100 17q-5 20 9 34q56 -16 87 -16q58 -1 81 45.5t23 159.5v638q6 2 19.5 2t18.5 -2v-657q0 -109 -29 -165t-109 -56z" />
    <glyph glyph-name="k" unicode="k" horiz-adv-x="903" 
d="M467 332q344 -303 402 -322v-7q-12 -6 -48 -6q-67 24 -391 316q-155 -82 -324 -146v-167h-38v932q20 8 38 0v-729q210 83 397 190q131 75 182.5 130.5t46.5 127.5q20 5 43 2q10 -74 -44.5 -138.5t-193.5 -143.5z" />
    <glyph glyph-name="l" unicode="l" horiz-adv-x="342" 
d="M216 -18q-68 0 -100.5 45t-32.5 143v762q20 8 38 0v-755q0 -88 25 -126t80 -37q34 0 92 16q4 -3 5.5 -12.5t-0.5 -16.5q-56 -17 -107 -19z" />
    <glyph glyph-name="m" unicode="m" horiz-adv-x="1260" 
d="M958 700q112 0 172.5 -79t60.5 -223v-398h-37v397q0 123 -51 196.5t-150 73.5q-86 0 -158 -53t-110.5 -132t-38.5 -161v-321h-36v386q0 281 -186 281q-83 0 -154.5 -56t-110.5 -140t-39 -171v-300h-38v526q0 71 -14 119v7q22 5 35 3q14 -39 14 -87v-129q35 108 120 184.5
t190 76.5q193 0 213 -248q38 105 123 176.5t195 71.5z" />
    <glyph glyph-name="n" unicode="n" horiz-adv-x="879" 
d="M498 700q150 0 231.5 -91t81.5 -255v-354h-38v349q0 146 -71 231.5t-208 85.5q-96 0 -184 -57t-139 -143.5t-51 -172.5v-293h-38v526q0 71 -14 119v7q22 5 36 3q15 -42 15 -87v-137q44 109 150.5 189t228.5 80z" />
    <glyph glyph-name="o" unicode="o" horiz-adv-x="877" 
d="M411 -18q-174 0 -273.5 94.5t-99.5 231.5q0 161 124.5 276.5t307.5 115.5q165 0 266.5 -96.5t102.5 -238.5q1 -161 -120.5 -272t-307.5 -111zM413 15q169 0 278.5 102t109.5 245q0 130 -93 218t-240 88q-168 0 -280 -107t-112 -253q0 -123 88.5 -208t248.5 -85z" />
    <glyph glyph-name="p" unicode="p" horiz-adv-x="858" 
d="M480 700q153 0 246.5 -93.5t93.5 -242.5q0 -153 -109 -267.5t-268 -114.5q-113 0 -200.5 60t-125.5 151v-429q-6 -2 -19.5 -2t-18.5 2v753q0 65 -11 130v7q17 6 34 3l15 -80v-135q43 111 144.5 184.5t218.5 73.5zM438 14q101 0 181.5 52.5t121.5 131t41 164.5
q0 139 -85.5 222.5t-217.5 83.5q-95 0 -179.5 -53t-133.5 -138.5t-49 -178.5q0 -110 94.5 -197t226.5 -87z" />
    <glyph glyph-name="q" unicode="q" horiz-adv-x="857" 
d="M754 655q18 3 35 -3v-8q-12 -68 -12 -125v-755q-5 -2 -18 -2t-19 2v460q-38 -103 -135.5 -172.5t-214.5 -69.5q-155 0 -253.5 92t-98.5 236q0 172 111.5 281t271.5 109q117 0 203 -61t118 -155v101zM392 14q141 0 243.5 102.5t102.5 248.5q0 128 -87 215t-225 87
q-143 0 -246.5 -98.5t-103.5 -257.5q0 -128 87 -212.5t229 -84.5z" />
    <glyph glyph-name="r" unicode="r" horiz-adv-x="625" 
d="M590 676q5 -17 -10 -34q-58 23 -112 23q-156 -1 -252 -111.5t-96 -258.5v-295h-38v526q0 71 -14 119v7q22 5 34 3q14 -39 14 -87v-143q33 116 127 195.5t227 79.5q57 0 120 -24z" />
    <glyph glyph-name="s" unicode="s" horiz-adv-x="835" 
d="M437 -18q-102 0 -208 27.5t-185 85.5q2 17 18 28q71 -53 172 -80.5t205 -27.5q145 0 229 46.5t83 116.5q0 80 -76 114t-263 42q-331 14 -331 178q0 80 88 134t253 54q79 0 176.5 -22.5t175.5 -67.5q-3 -15 -13 -30q-76 44 -169 66t-168 22q-154 0 -229.5 -47t-75.5 -109
q0 -135 298 -147q204 -8 288.5 -50.5t84.5 -135.5q0 -90 -98.5 -143.5t-254.5 -53.5z" />
    <glyph glyph-name="t" unicode="t" horiz-adv-x="595" 
d="M572 621h-416v-326q0 -132 65.5 -206t185.5 -74q66 0 141 22q13 -13 7 -32q-81 -23 -149 -23q-132 -1 -209.5 80t-77.5 231v328h-108v32h108v182q18 10 37 7v-189h416v-32z" />
    <glyph glyph-name="u" unicode="u" horiz-adv-x="866" 
d="M792 136q0 -59 4.5 -84t18.5 -44v-8h-32q-14 17 -20 39.5t-6 78.5v95q-38 -101 -145.5 -166t-247.5 -65q-137 0 -216.5 72t-79.5 218v381q15 5 38 0v-375q0 -135 71 -199t192 -64q165 0 275.5 96t110.5 236v306q14 6 37 0v-517z" />
    <glyph glyph-name="v" unicode="v" horiz-adv-x="804" 
d="M417 0l-10 7q-31 78 -71 156.5t-72 133t-78 120.5t-67.5 94t-64 80.5t-44.5 55.5l3 6q22 4 37 0q276 -330 388 -620h7q149 164 239.5 338t67.5 279q15 8 37 3q26 -111 -72 -299t-248 -348l-11 -6h-41z" />
    <glyph glyph-name="w" unicode="w" horiz-adv-x="1253" 
d="M414 0l-9 7q-21 55 -46.5 109.5t-52 103t-52 92t-54 84.5t-50 72t-47.5 63.5t-39.5 49.5t-33 40t-21.5 25l3 7q22 4 36 0q3 -4 31 -37t48 -59l55 -71.5t64.5 -92.5t63.5 -104t66 -122.5t58 -133.5h7q63 73 136 182.5t108 188.5l-92 162q3 6 14 11t21 4q182 -311 265 -548
h8q82 92 150 192.5t115 218t40 207.5q12 6 36 2q14 -128 -80 -309.5t-236 -336.5l-11 -7h-40l-11 7q-55 150 -159 353q-23 -56 -102.5 -175t-135.5 -178l-10 -7h-43z" />
    <glyph glyph-name="x" unicode="x" horiz-adv-x="843" 
d="M450 332q25 -21 104 -85t153 -127t125 -112l-4 -8h-42q-99 96 -374 313q-72 -47 -110 -72t-84 -58t-68 -52.5t-43.5 -43.5t-29.5 -44.5t-9 -42.5h-36q-3 31 13 62.5t41 59t77 66t97 67.5t126 80q-36 33 -171 141.5t-204 167.5l3 7q25 5 42 1q66 -57 198 -162.5
t167 -136.5q31 21 77 52t72 48.5t59.5 42t52 41.5t36 37.5t24.5 39.5t6 38q14 7 37 1q3 -32 -11 -62t-68 -74.5t-87 -68.5t-134 -92q-23 -16 -35 -24z" />
    <glyph glyph-name="y" unicode="y" horiz-adv-x="817" 
d="M804 653q10 -106 -21.5 -234t-115.5 -272t-208 -257q-164 -149 -347 -149q-61 0 -97 16q-8 15 -1 29l8 4q30 -17 91 -17q171 1 327 148q54 50 92 97q-86 42 -175 128.5t-157.5 183t-116.5 177.5t-73 138l3 7q15 5 37 1q22 -52 67 -128.5t110.5 -171t153 -180
t172.5 -129.5q113 142 168 302t46 304q15 10 37 3z" />
    <glyph glyph-name="z" unicode="z" horiz-adv-x="780" 
d="M765 33q5 -4 5 -14.5t-5 -18.5h-747q-9 9 -7 27q368 473 670 593h-639q-10 12 0 33h713q3 -3 6 -14.5t1 -19.5q-158 -50 -344 -216t-347 -370h694z" />
    <glyph glyph-name="braceleft" unicode="{" horiz-adv-x="606" 
d="M360 52q16 -89 49.5 -149.5t97.5 -115.5l-19 -22q-72 59 -108 120.5t-53 153.5q-6 33 -12.5 82.5t-10 78.5t-16 64t-32 53.5t-56 31.5t-89.5 13v34q58 0 96 15.5t56.5 40.5t31 66t17.5 81.5t17 98t30 104.5q39 101 148 192l18 -22q-99 -85 -134 -181q-14 -40 -24 -86
t-15.5 -81t-12 -72t-16.5 -63.5t-26 -50t-43 -38t-65 -21.5q40 -7 68 -24.5t43.5 -37.5t26 -55.5t14 -61.5t9 -73t10.5 -75z" />
    <glyph glyph-name="bar" unicode="|" horiz-adv-x="254" 
d="M111 -231v1243h32v-1243h-32z" />
    <glyph glyph-name="braceright" unicode="}" horiz-adv-x="606" 
d="M279 802q18 -47 30 -104.5t17 -98t17.5 -81.5t31 -66t56.5 -40.5t96 -15.5v-34q-53 0 -89.5 -13t-56 -31.5t-32 -53.5t-16 -64t-10 -78.5t-12.5 -82.5q-17 -92 -53 -153.5t-108 -120.5l-19 22q64 55 97.5 115.5t49.5 149.5q5 28 10.5 75t9 73t14 61.5t26 55.5t43.5 37.5
t68 24.5q-38 7 -65 21.5t-43 38t-26 50t-16.5 63.5t-12 72t-15.5 81t-24 86q-35 96 -134 181l18 22q109 -91 148 -192z" />
    <glyph glyph-name="asciitilde" unicode="~" horiz-adv-x="799" 
d="M111 310q0 68 34 109.5t87 41.5q49 0 108.5 -29.5t117.5 -59t103 -29.5q43 0 68 33t25 85h34q0 -67 -32.5 -109t-89.5 -42q-49 0 -109 29.5t-118.5 59t-101.5 29.5q-40 0 -66 -32.5t-26 -85.5h-34z" />
    <glyph glyph-name="exclamdown" unicode="&#xa1;" horiz-adv-x="359" 
d="M180 723q-13 0 -22.5 9t-9.5 21t9.5 20.5t22.5 8.5t22.5 -8.5t9.5 -20.5t-9.5 -21t-22.5 -9zM160 -130l2 639h35l2 -639h-39z" />
    <glyph glyph-name="cent" unicode="&#xa2;" horiz-adv-x="999" 
d="M869 186l18 -25q-41 -32 -124 -61.5t-193 -34.5v-195h-30v194h-9q-187 0 -303.5 98t-116.5 280q0 124 58 211t151 127t211 40h9v176h30v-177q197 -8 318 -97l-19 -25q-133 90 -338 90q-79 0 -147 -21t-121 -62t-83.5 -108t-30.5 -154q0 -168 106 -256.5t276 -88.5
q115 0 203.5 27.5t134.5 61.5z" />
    <glyph glyph-name="sterling" unicode="&#xa3;" horiz-adv-x="1062" 
d="M223 32h729v-32h-825v32h11q51 0 68 35t17 103q0 22 -2 49t-4.5 47.5t-7 56.5t-6.5 57h-92v32h89q-7 74 -7 139q0 142 97.5 230t274.5 88q240 0 361 -110l-21 -23q-115 101 -332 101q-165 0 -253 -80t-88 -208q0 -63 7 -137h515v-32h-512q2 -19 8 -69t8.5 -82t2.5 -62
q0 -98 -38 -135z" />
    <glyph glyph-name="currency" unicode="&#xa4;" horiz-adv-x="646" 
d="M535 251l-21 -23l-103 99q-39 -25 -89 -25t-90 24l-100 -97l-21 23l97 94q-36 38 -36 96q0 52 30 90l-91 88l21 22l93 -87q40 29 97 29q60 0 98 -29l93 91l21 -23l-91 -90q30 -38 30 -91q0 -57 -37 -94zM202 442q0 -50 32 -82.5t88 -32.5q53 0 87.5 33t34.5 82
q0 51 -32.5 83.5t-89.5 32.5q-55 0 -87.5 -33t-32.5 -83z" />
    <glyph glyph-name="yen" unicode="&#xa5;" horiz-adv-x="1088" 
d="M564 388v-22h292v-28h-292v-136h292v-29h-292v-173h-38v173h-294v29h294v136h-294v28h294v22l-415 481h54l379 -444l380 444h53z" />
    <glyph glyph-name="brokenbar" unicode="&#xa6;" horiz-adv-x="254" 
d="M111 481v531h32v-531h-32zM111 -231v534h32v-534h-32z" />
    <glyph glyph-name="section" unicode="&#xa7;" horiz-adv-x="716" 
d="M471 180q116 -72 116 -156q0 -73 -67 -118.5t-178 -45.5t-203 36v34q37 -16 96.5 -26.5t106.5 -10.5q89 0 145 35.5t56 98.5q0 47 -44.5 88t-108 72t-127 63.5t-108 76t-44.5 95.5q0 50 32.5 96t93.5 72q-110 73 -110 174q0 66 69 107.5t178 41.5q45 0 103.5 -10
t97.5 -26v-35q-37 17 -95.5 27.5t-105.5 10.5q-94 0 -151 -32.5t-57 -86.5q0 -43 24 -78.5t63 -60.5t85.5 -48t93.5 -46t86 -49t63 -62t24 -80q0 -47 -37 -90.5t-97 -66.5zM150 425q0 -29 16.5 -55t50.5 -49.5t64.5 -40.5t81 -42t77.5 -40q56 19 91 56.5t35 78.5
q0 35 -17.5 63.5t-51.5 52t-67 40.5t-83 41t-79 41q-57 -21 -87.5 -62t-30.5 -84z" />
    <glyph glyph-name="dieresis" unicode="&#xa8;" horiz-adv-x="550" 
d="M102 781q-14 0 -24 9t-10 21q0 13 10 23t24 10t24 -9.5t10 -23.5q0 -12 -10 -21t-24 -9zM448 781q-14 0 -24 9t-10 21q0 14 10 23.5t24 9.5t24 -10t10 -23q0 -12 -10 -21t-24 -9z" />
    <glyph glyph-name="copyright" unicode="&#xa9;" horiz-adv-x="1353" 
d="M677 -19q-248 0 -407 126t-159 336q0 133 79 242t208 168.5t279 59.5q160 0 288 -57t202.5 -165t74.5 -248t-73.5 -245.5t-201 -161t-290.5 -55.5zM677 8q107 0 202.5 27.5t170 80.5t118 137.5t43.5 189.5t-43.5 190.5t-117.5 140t-169.5 83.5t-203.5 29
q-141 0 -263.5 -56.5t-197 -159t-74.5 -227.5q0 -134 71 -233.5t191.5 -150.5t272.5 -51zM678 206q-129 0 -217.5 66t-88.5 171q0 107 89 175.5t219 68.5q150 0 239 -70l-17 -23q-86 62 -220 62q-111 0 -190.5 -58.5t-79.5 -154.5q0 -93 79 -149.5t189 -56.5q149 0 227 64
l19 -20q-79 -75 -248 -75z" />
    <glyph glyph-name="ordfeminine" unicode="&#xaa;" horiz-adv-x="618" 
d="M482 1074h25v-404h-25v26q-75 -31 -151 -31q-105 0 -162.5 57t-57.5 142q0 82 62 145t164 63q80 0 145 -38v40zM332 688q75 0 150 32v284q-61 43 -145 43q-91 0 -146 -55t-55 -128q0 -78 52.5 -127t143.5 -49z" />
    <glyph glyph-name="guillemotleft" unicode="&#xab;" horiz-adv-x="1320" 
d="M729 703l-563 -270l565 -270l-15 -27l-605 285v24l603 283zM645 433l565 -270l-15 -27l-605 285v24l602 283l16 -25z" />
    <glyph glyph-name="logicalnot" unicode="&#xac;" horiz-adv-x="838" 
d="M694 240v181h-583v33h616v-214h-33z" />
    <glyph glyph-name="uni00AD" unicode="&#xad;" horiz-adv-x="1261" 
d="M212 343v31h838v-31h-838z" />
    <glyph glyph-name="registered" unicode="&#xae;" horiz-adv-x="1029" 
d="M515 913q108 0 198.5 -37.5t148 -113.5t57.5 -178q0 -103 -57.5 -178.5t-147.5 -110.5t-199 -35q-182 0 -293 89t-111 235q0 137 118 233t286 96zM515 281q77 0 144.5 18.5t121 55t84.5 95.5t31 134q0 144 -110 226t-271 82q-159 0 -270.5 -89.5t-111.5 -218.5
q0 -138 104.5 -220.5t277.5 -82.5zM719 673q0 -47 -38 -79.5t-94 -41.5l115 -184h-24l-113 182h-11h-181v-182h-22v428h203q74 0 119.5 -34.5t45.5 -88.5zM553 569q59 0 101 29.5t42 74.5q0 46 -40 75t-103 29h-180v-208h180z" />
    <glyph glyph-name="macron" unicode="&#xaf;" horiz-adv-x="687" 
d="M68 817v33h551v-33h-551z" />
    <glyph glyph-name="degree" unicode="&#xb0;" horiz-adv-x="662" 
d="M332 549q-98 0 -159.5 49t-61.5 133q0 79 63 130.5t158 51.5q92 0 156 -51t64 -131q0 -82 -64 -132t-156 -50zM331 572q79 0 135.5 44t56.5 115q0 69 -55.5 114t-136.5 45q-80 0 -136 -44.5t-56 -114.5q0 -74 54 -116.5t138 -42.5z" />
    <glyph glyph-name="plusminus" unicode="&#xb1;" horiz-adv-x="834" 
d="M433 518h290v-33h-290v-275h-33v275h-289v33h289v278h33v-278zM111 80v33h612v-33h-612z" />
    <glyph glyph-name="uni00B2" unicode="&#xb2;" horiz-adv-x="955" 
d="M160 291h685v-31h-733v25q32 66 99 124.5t142.5 97t157 79t146.5 74.5t107 80t42 97q0 84 -84 132.5t-239 48.5q-217 0 -324 -88l-18 25q117 93 343 93q173 0 265 -58t92 -153q0 -57 -41 -107t-104.5 -85.5t-143.5 -75.5t-154 -76t-140 -89.5t-98 -112.5z" />
    <glyph glyph-name="uni00B3" unicode="&#xb3;" horiz-adv-x="972" 
d="M543 677q164 -22 241.5 -73t77.5 -137q0 -90 -98.5 -151t-276.5 -61q-251 0 -376 106l17 26q112 -101 355 -101q153 0 247.5 50.5t94.5 131.5q0 92 -101 137t-303 61v28q169 0 275.5 47t106.5 125q0 69 -90 107.5t-239 38.5q-100 0 -195 -28t-135 -62l-16 26
q46 39 145 67t205 28q172 0 266.5 -49t94.5 -126q0 -74 -76.5 -125t-219.5 -66z" />
    <glyph glyph-name="acute" unicode="&#xb4;" horiz-adv-x="369" 
d="M68 736l189 245h44l-205 -245h-28z" />
    <glyph glyph-name="uni00B5" unicode="&#xb5;" horiz-adv-x="866" 
d="M792 150q0 -70 4.5 -95.5t18.5 -46.5l-1 -8h-31q-14 16 -19.5 37.5t-5.5 72.5v125q-30 -108 -138 -180.5t-253 -72.5q-203 0 -264 154v-372h-34l-1 889q14 4 38 0v-376q0 -135 71.5 -198.5t191.5 -63.5q165 0 275 96t110 236v306q6 2 20 2t18 -2v-503z" />
    <glyph glyph-name="paragraph" unicode="&#xb6;" horiz-adv-x="852" 
d="M323 -130v701q-104 0 -158 44.5t-54 113.5q0 71 50.5 116t161.5 45h418v-28h-126v-992h-30v992h-232v-992h-30z" />
    <glyph glyph-name="periodcentered" unicode="&#xb7;" horiz-adv-x="432" 
d="M215 366q-13 0 -23 9.5t-10 21.5q0 13 10 22.5t23 9.5q15 0 25 -9t10 -23q0 -12 -10 -21.5t-25 -9.5z" />
    <glyph glyph-name="cedilla" unicode="&#xb8;" horiz-adv-x="364" 
d="M187 -319q-62 0 -119 53l23 20q46 -43 94 -43q33 1 54.5 22.5t20.5 53.5q0 43 -49 94q-43 43 -54 65.5t-11 61.5h34q0 -37 10 -56.5t52 -61.5q53 -53 53 -106q1 -43 -30 -72.5t-78 -30.5z" />
    <glyph glyph-name="uni00B9" unicode="&#xb9;" horiz-adv-x="767" 
d="M405 291h252v-31h-543v31h257v721l-242 -46l-7 27l263 50h20v-752z" />
    <glyph glyph-name="ordmasculine" unicode="&#xba;" horiz-adv-x="555" 
d="M278 668q-88 0 -155.5 50.5t-67.5 144.5q0 96 62 151t161 55q98 0 160 -55t62 -151q0 -94 -67 -144.5t-155 -50.5zM278 691q79 0 138 44t59 128q0 86 -54.5 134t-142.5 48q-89 0 -143.5 -48t-54.5 -134q0 -84 59 -128t139 -44z" />
    <glyph glyph-name="guillemotright" unicode="&#xbb;" horiz-adv-x="1320" 
d="M731 445v-24l-605 -285l-15 27l564 270l-563 270l16 25zM607 728l603 -283v-24l-606 -285l-14 27l564 270l-563 270z" />
    <glyph glyph-name="onequarter" unicode="&#xbc;" horiz-adv-x="1351" 
d="M111 434v31h187v543l-171 -48l-2 31l184 52h23v-578h173v-31h-394zM1202 1043h38l-968 -1173h-37zM1138 479v-409h70v-30h-70v-170h-35v170h-302v21l305 418h32zM1107 70l1 368l-268 -368h267z" />
    <glyph glyph-name="onehalf" unicode="&#xbd;" horiz-adv-x="1394" 
d="M111 441v31h187v543l-171 -48l-2 30l184 52h23v-577h173v-31h-394zM1198 1043h38l-968 -1173h-38zM927 -99h349v-31h-395v26q32 40 97.5 100.5t116 106t90.5 101.5t40 100q0 62 -43 102t-112 40q-85 0 -172 -71v33q86 70 180 70q84 0 134.5 -48.5t50.5 -119.5
q0 -46 -37.5 -102.5t-83.5 -100t-113.5 -106t-101.5 -100.5z" />
    <glyph glyph-name="threequarters" unicode="&#xbe;" horiz-adv-x="1327" 
d="M510 612q0 -68 -53.5 -120t-143.5 -52q-100 0 -197 84v31q101 -85 195 -85q70 0 118.5 43t48.5 103q0 118 -224 147v24q89 1 144 30.5t55 87.5q0 46 -44.5 80.5t-109.5 34.5q-84 0 -167 -67v29q79 65 167 65q83 0 133.5 -42.5t50.5 -95.5q0 -55 -40.5 -90.5t-111.5 -47.5
q95 -22 137 -64t42 -95zM1176 1034h38l-968 -1174h-38zM1113 479v-409h70v-30h-70v-170h-34v170h-303v21l305 418h32zM1082 70l1 367l-268 -367h267z" />
    <glyph glyph-name="questiondown" unicode="&#xbf;" horiz-adv-x="916" 
d="M519 658q12 0 22 -9t10 -21t-10 -21t-22 -9q-13 0 -23 9t-10 21t10 21t23 9zM533 412q14 -66 -23.5 -119.5t-101 -90.5t-128.5 -71.5t-112.5 -79t-47.5 -96.5q0 -77 86.5 -127.5t240.5 -50.5q112 0 221 39.5t172 96.5l21 -26q-80 -64 -188.5 -103t-227.5 -39
q-171 0 -267 58.5t-96 149.5q0 44 25.5 82t66 66t89 54t95 52.5t83 54.5t55 66.5t9.5 83.5h28z" />
    <glyph glyph-name="Agrave" unicode="&#xc0;" horiz-adv-x="1103" 
d="M618 965h-30l-197 187h38zM582 892q50 -84 263 -459.5t244 -426.5l-2 -6q-32 0 -43 3q-29 48 -134 237h-712l-140 -240h-44l525 892q7 3 21.5 3t21.5 -3zM217 272h675q-255 457 -331 588z" />
    <glyph glyph-name="Aacute" unicode="&#xc1;" horiz-adv-x="1103" 
d="M780 1130l-198 -192h-31l187 192h42zM582 892q50 -84 263 -459.5t244 -426.5l-2 -6q-32 0 -43 3q-29 48 -134 237h-712l-140 -240h-44l525 892q7 3 21.5 3t21.5 -3zM217 272h675q-255 457 -331 588z" />
    <glyph glyph-name="Acircumflex" unicode="&#xc2;" horiz-adv-x="1103" 
d="M565 1132l-217 -196h-43l249 222h22l249 -222h-43zM582 892q50 -84 263 -459.5t244 -426.5l-2 -6q-32 0 -43 3q-29 48 -134 237h-712l-140 -240h-44l525 892q7 3 21.5 3t21.5 -3zM217 272h675q-255 457 -331 588z" />
    <glyph glyph-name="Atilde" unicode="&#xc3;" horiz-adv-x="1103" 
d="M412 1079q-37 0 -61 -32.5t-24 -86.5h-28q0 67 31 107.5t79 40.5q35 0 78 -19t76 -42.5t74.5 -43t74.5 -19.5q39 -1 62 32.5t23 86.5h27q0 -65 -29 -106.5t-80 -41.5q-35 0 -78 19.5t-76.5 43t-74.5 42.5t-74 19zM582 892q50 -84 263 -459.5t244 -426.5l-2 -6
q-32 0 -43 3q-29 48 -134 237h-712l-140 -240h-44l525 892q7 3 21.5 3t21.5 -3zM217 272h675q-255 457 -331 588z" />
    <glyph glyph-name="Adieresis" unicode="&#xc4;" horiz-adv-x="1103" 
d="M395 984q-12 0 -21 8t-9 19q0 12 9 20.5t21 8.5q13 0 22 -8.5t9 -20.5q0 -11 -9 -19t-22 -8zM731 984q-13 0 -21.5 8t-8.5 19q0 12 8.5 20.5t21.5 8.5q12 0 21 -8.5t9 -20.5q0 -11 -9 -19t-21 -8zM582 892q50 -84 263 -459.5t244 -426.5l-2 -6q-32 0 -43 3
q-29 48 -134 237h-712l-140 -240h-44l525 892q7 3 21.5 3t21.5 -3zM217 272h675q-255 457 -331 588z" />
    <glyph glyph-name="Aring" unicode="&#xc5;" horiz-adv-x="1103" 
d="M585 887q53 -88 263.5 -459t240.5 -422l-2 -6q-32 0 -43 3q-29 48 -134 237h-712l-140 -240h-44l522 887q-85 5 -137.5 41t-52.5 94q0 60 60.5 98.5t159.5 38.5q89 0 151.5 -38.5t62.5 -98.5q0 -56 -58.5 -93t-136.5 -42zM373 1022q0 -50 51.5 -82.5t140.5 -32.5
q75 0 132 34t57 81q0 49 -56 82.5t-133 33.5q-85 0 -138.5 -33t-53.5 -83zM217 272h675q-255 457 -331 588z" />
    <glyph glyph-name="AE" unicode="&#xc6;" horiz-adv-x="1765" 
d="M1719 32q5 -4 5 -15t-5 -17h-814v240h-602l-237 -240h-52l887 892h789q5 -18 -6 -32h-741v-414h639q2 -7 -0.5 -17.5t-7.5 -14.5h-631v-382h776zM334 272h571v579z" />
    <glyph glyph-name="Ccedilla" unicode="&#xc7;" horiz-adv-x="978" 
d="M934 605q-24 -8 -38 -3q4 120 -96.5 200t-250.5 78q-198 -5 -333 -127t-135 -307q0 -133 63.5 -232t167 -148.5t231.5 -50.5q84 0 177.5 25.5t167.5 73.5q9 -3 15 -13t6 -14q-78 -52 -178 -78.5t-188 -26.5q-25 0 -37 1q1 -31 12.5 -50t53.5 -61q53 -53 53 -106
q1 -43 -30 -72.5t-78 -30.5q-62 0 -119 53l22 19q48 -45 97 -45q34 1 56 23t21 54q-1 44 -53 97q-42 42 -53 63.5t-11 57.5q-190 20 -312.5 143t-122.5 319q0 132 69 238.5t184.5 166t253.5 61.5q169 2 280 -86.5t105 -221.5z" />
    <glyph glyph-name="Egrave" unicode="&#xc8;" horiz-adv-x="945" 
d="M537 964h-30l-197 187h38zM899 32q4 -4 4 -15t-4 -17h-815v887l6 5h779q7 -17 -6 -32h-741v-415h639q2 -7 0 -17.5t-7 -14.5h-632v-381h777z" />
    <glyph glyph-name="Eacute" unicode="&#xc9;" horiz-adv-x="945" 
d="M698 1129l-198 -192h-31l187 192h42zM899 32q4 -4 4 -15t-4 -17h-815v887l6 5h779q7 -17 -6 -32h-741v-415h639q2 -7 0 -17.5t-7 -14.5h-632v-381h777z" />
    <glyph glyph-name="Ecircumflex" unicode="&#xca;" horiz-adv-x="945" 
d="M483 1131l-217 -196h-43l249 222h22l249 -222h-43zM899 32q4 -4 4 -15t-4 -17h-815v887l6 5h779q7 -17 -6 -32h-741v-415h639q2 -7 0 -17.5t-7 -14.5h-632v-381h777z" />
    <glyph glyph-name="Edieresis" unicode="&#xcb;" horiz-adv-x="945" 
d="M314 983q-12 0 -21 8t-9 19q0 12 9 20.5t21 8.5q13 0 22 -8.5t9 -20.5q0 -11 -9 -19t-22 -8zM650 983q-13 0 -21.5 8t-8.5 19q0 12 8.5 20.5t21.5 8.5q12 0 21 -8.5t9 -20.5q0 -11 -9 -19t-21 -8zM899 32q4 -4 4 -15t-4 -17h-815v887l6 5h779q7 -17 -6 -32h-741v-415h639
q2 -7 0 -17.5t-7 -14.5h-632v-381h777z" />
    <glyph glyph-name="Igrave" unicode="&#xcc;" horiz-adv-x="207" 
d="M128 964l-197 187h38l189 -187h-30zM84 0v892q7 3 20 3t18 -3v-892h-38z" />
    <glyph glyph-name="Iacute" unicode="&#xcd;" horiz-adv-x="207" 
d="M91 937l187 192h42l-198 -192h-31zM84 0v892q7 3 20 3t18 -3v-892h-38z" />
    <glyph glyph-name="Icircumflex" unicode="&#xce;" horiz-adv-x="207" 
d="M116 1157l249 -222h-43l-217 196l-217 -196h-43l249 222h22zM84 892q7 3 20 3t18 -3v-892h-38v892z" />
    <glyph glyph-name="Idieresis" unicode="&#xcf;" horiz-adv-x="207" 
d="M-65 983q-12 0 -21 8t-9 19q0 12 9 20.5t21 8.5q13 0 22 -8.5t9 -20.5q0 -11 -9 -19t-22 -8zM271 983q-13 0 -21.5 8t-8.5 19q0 12 8.5 20.5t21.5 8.5q12 0 21 -8.5t9 -20.5q0 -11 -9 -19t-21 -8zM84 0v892q7 3 20 3t18 -3v-892h-38z" />
    <glyph glyph-name="Eth" unicode="&#xd0;" horiz-adv-x="1126" 
d="M530 913q248 0 401 -127t153 -329q0 -212 -145.5 -343t-382.5 -132q-143 0 -216 8.5t-187 34.5v429h-96v31h96v395q89 19 167.5 26t209.5 7zM554 14q221 0 356 123t135 320q0 184 -140.5 304t-376.5 120q-214 0 -337 -26v-370h445v-31h-445v-402q156 -38 363 -38z" />
    <glyph glyph-name="Ntilde" unicode="&#xd1;" horiz-adv-x="1128" 
d="M413 1078q-37 0 -61 -32.5t-24 -86.5h-28q0 67 31 107.5t79 40.5q35 0 78 -19t76 -42.5t74.5 -43t74.5 -19.5q39 -1 62 32.5t23 86.5h27q0 -65 -29 -106.5t-80 -41.5q-35 0 -78 19.5t-76.5 43t-74.5 42.5t-74 19zM1006 892q16 8 38 0v-892h-32l-890 838v-838h-38v882
q4 5 15.5 8.5t17.5 1.5l889 -838v838z" />
    <glyph glyph-name="Ograve" unicode="&#xd2;" horiz-adv-x="1095" 
d="M611 976l-197 187h38l189 -187h-30zM499 -18q-204 0 -330.5 120.5t-126.5 298.5q0 145 76 263t205 183.5t283 65.5q124 0 227.5 -59.5t161.5 -160t58 -217.5q0 -137 -77 -251t-204 -178.5t-273 -64.5zM501 15q136 0 254 61t188.5 168t70.5 233q0 170 -120 286t-292 116
q-143 0 -263 -61.5t-189 -171.5t-69 -243q0 -161 115 -274.5t305 -113.5z" />
    <glyph glyph-name="Oacute" unicode="&#xd3;" horiz-adv-x="1095" 
d="M573 949l187 192h42l-198 -192h-31zM499 -18q-204 0 -330.5 120.5t-126.5 298.5q0 145 76 263t205 183.5t283 65.5q124 0 227.5 -59.5t161.5 -160t58 -217.5q0 -137 -77 -251t-204 -178.5t-273 -64.5zM501 15q136 0 254 61t188.5 168t70.5 233q0 170 -120 286t-292 116
q-143 0 -263 -61.5t-189 -171.5t-69 -243q0 -161 115 -274.5t305 -113.5z" />
    <glyph glyph-name="Ocircumflex" unicode="&#xd4;" horiz-adv-x="1095" 
d="M587 1143l-217 -196h-43l249 222h22l249 -222h-43zM606 913q124 0 227.5 -59.5t161.5 -160t58 -217.5q0 -137 -77 -251t-204 -178.5t-273 -64.5q-204 0 -330.5 120.5t-126.5 298.5q0 145 76 263t205 183.5t283 65.5zM501 15q136 0 254 61t188.5 168t70.5 233
q0 170 -120 286t-292 116q-143 0 -263 -61.5t-189 -171.5t-69 -243q0 -161 115 -274.5t305 -113.5z" />
    <glyph glyph-name="Otilde" unicode="&#xd5;" horiz-adv-x="1095" 
d="M737 966q-35 0 -78 19.5t-76.5 43t-74.5 42.5t-74 19q-37 0 -61 -32.5t-24 -86.5h-28q0 67 31 107.5t79 40.5q35 0 78 -19t76 -42.5t74.5 -43t74.5 -19.5q39 -1 62 32.5t23 86.5h27q0 -65 -29 -106.5t-80 -41.5zM499 -18q-204 0 -330.5 120.5t-126.5 298.5q0 145 76 263
t205 183.5t283 65.5q124 0 227.5 -59.5t161.5 -160t58 -217.5q0 -137 -77 -251t-204 -178.5t-273 -64.5zM501 15q136 0 254 61t188.5 168t70.5 233q0 170 -120 286t-292 116q-143 0 -263 -61.5t-189 -171.5t-69 -243q0 -161 115 -274.5t305 -113.5z" />
    <glyph glyph-name="Odieresis" unicode="&#xd6;" horiz-adv-x="1095" 
d="M418 995q-12 0 -21 8t-9 19q0 12 9 20.5t21 8.5q13 0 22 -8.5t9 -20.5q0 -11 -9 -19t-22 -8zM754 995q-13 0 -21.5 8t-8.5 19q0 12 8.5 20.5t21.5 8.5q12 0 21 -8.5t9 -20.5q0 -11 -9 -19t-21 -8zM499 -18q-204 0 -330.5 120.5t-126.5 298.5q0 145 76 263t205 183.5
t283 65.5q124 0 227.5 -59.5t161.5 -160t58 -217.5q0 -137 -77 -251t-204 -178.5t-273 -64.5zM501 15q136 0 254 61t188.5 168t70.5 233q0 170 -120 286t-292 116q-143 0 -263 -61.5t-189 -171.5t-69 -243q0 -161 115 -274.5t305 -113.5z" />
    <glyph glyph-name="multiply" unicode="&#xd7;" horiz-adv-x="811" 
d="M700 590l-266 -183l266 -184h-57l-237 164l-238 -164h-57l266 184l-266 183h57l238 -164l237 164h57z" />
    <glyph glyph-name="Oslash" unicode="&#xd8;" horiz-adv-x="1113" 
d="M927 790q135 -129 135 -314q0 -137 -77 -251t-204.5 -178.5t-273.5 -64.5q-169 0 -288 87l-68 -69h-43l86 88q-68 57 -105.5 138.5t-37.5 174.5q0 145 76 263t205 183.5t283 65.5q165 0 289 -103l81 83h43zM90 403q0 -84 33.5 -159t96.5 -129l659 670q-115 94 -268 94
q-143 0 -263 -61.5t-189 -171.5t-69 -243zM510 15q136 0 254 61t188.5 168t70.5 233q0 171 -121 287l-657 -669q109 -80 265 -80z" />
    <glyph glyph-name="Ugrave" unicode="&#xd9;" horiz-adv-x="1126" 
d="M588 973l-197 187h38l189 -187h-30zM548 -19q-219 0 -341.5 103t-122.5 302v506q18 8 40 0v-508q0 -181 113 -275.5t311 -94.5q206 0 330.5 106.5t124.5 275.5v496q15 7 39 0v-498q0 -177 -132 -295t-362 -118z" />
    <glyph glyph-name="Uacute" unicode="&#xda;" horiz-adv-x="1126" 
d="M550 946l187 192h42l-198 -192h-31zM548 -19q-219 0 -341.5 103t-122.5 302v506q18 8 40 0v-508q0 -181 113 -275.5t311 -94.5q206 0 330.5 106.5t124.5 275.5v496q15 7 39 0v-498q0 -177 -132 -295t-362 -118z" />
    <glyph glyph-name="Ucircumflex" unicode="&#xdb;" horiz-adv-x="1126" 
d="M564 1140l-217 -196h-43l249 222h22l249 -222h-43zM1003 892q15 7 39 0v-498q0 -177 -132 -295t-362 -118q-219 0 -341.5 103t-122.5 302v506q18 8 40 0v-508q0 -181 113 -275.5t311 -94.5q206 0 330.5 106.5t124.5 275.5v496z" />
    <glyph glyph-name="Udieresis" unicode="&#xdc;" horiz-adv-x="1126" 
d="M395 992q-12 0 -21 8t-9 19q0 12 9 20.5t21 8.5q13 0 22 -8.5t9 -20.5q0 -11 -9 -19t-22 -8zM731 992q-13 0 -21.5 8t-8.5 19q0 12 8.5 20.5t21.5 8.5q12 0 21 -8.5t9 -20.5q0 -11 -9 -19t-21 -8zM548 -19q-219 0 -341.5 103t-122.5 302v506q18 8 40 0v-508
q0 -181 113 -275.5t311 -94.5q206 0 330.5 106.5t124.5 275.5v496q15 7 39 0v-498q0 -177 -132 -295t-362 -118z" />
    <glyph glyph-name="Yacute" unicode="&#xdd;" horiz-adv-x="1001" 
d="M717 1129l-198 -192h-31l187 192h42zM986 892q18 -269 -433 -603v-289h-38v291q-53 72 -243 299.5t-257 294.5l3 7q22 6 44 0q48 -46 215.5 -247t262.5 -320q187 134 301.5 284t105.5 281q14 7 39 2z" />
    <glyph glyph-name="Thorn" unicode="&#xde;" horiz-adv-x="985" 
d="M483 782q209 0 334.5 -84t125.5 -236q0 -103 -66 -176t-171 -106.5t-239 -33.5q-187 0 -341 48v-194h-42v884q8 3 22 2.5t20 -2.5v-138q84 20 160 28t197 8zM469 179q122 0 218.5 30t156.5 95.5t60 157.5q0 135 -112 211t-311 76q-219 0 -355 -37v-483q143 -50 343 -50z
" />
    <glyph glyph-name="germandbls" unicode="&#xdf;" horiz-adv-x="955" 
d="M584 509q140 -1 236.5 -68t96.5 -171q0 -135 -97 -211.5t-245 -76.5q-137 0 -242 72q-2 24 13 33q100 -72 224 -72q136 0 223 69t87 188q0 95 -92 155.5t-236 58.5q-83 -2 -171 -39q-5 4 -5 17.5t3 16.5q55 24 112 32q265 46 265 188q0 76 -72.5 128.5t-217.5 52.5
q-133 0 -218.5 -75.5t-85.5 -195.5v-611h-38v618q0 95 49.5 164t126 101t167.5 32q168 -1 248.5 -63t80.5 -147q0 -140 -212 -196z" />
    <glyph glyph-name="agrave" unicode="&#xe0;" horiz-adv-x="815" 
d="M516 781h-31l-208 245h44zM740 136q0 -42 4.5 -67.5t10 -36t18.5 -27.5l-1 -5h-36q-19 19 -27 42t-8 79l-1 120q-48 -112 -163 -185.5t-257 -73.5q-110 0 -173 45.5t-63 116.5q0 87 76 146t189.5 83t254.5 23q55 0 132 -5q-7 131 -80 205t-194 74q-131 0 -297 -94
q-12 7 -15 28q169 96 311 96q147 0 232 -90.5t86 -257.5zM697 350l1 14q-61 5 -137 5q-98 1 -182.5 -12t-151 -39t-104.5 -69.5t-38 -100.5q0 -61 52.5 -97.5t147.5 -36.5q88 0 167 32.5t130.5 82.5t82 108.5t32.5 112.5z" />
    <glyph glyph-name="aacute" unicode="&#xe1;" horiz-adv-x="815" 
d="M630 1026l-203 -245h-30l189 245h44zM740 136q0 -42 4.5 -67.5t10 -36t18.5 -27.5l-1 -5h-36q-19 19 -27 42t-8 79l-1 120q-48 -112 -163 -185.5t-257 -73.5q-110 0 -173 45.5t-63 116.5q0 87 76 146t189.5 83t254.5 23q55 0 132 -5q-7 131 -80 205t-194 74
q-131 0 -297 -94q-12 7 -15 28q169 96 311 96q147 0 232 -90.5t86 -257.5zM697 350l1 14q-61 5 -137 5q-98 1 -182.5 -12t-151 -39t-104.5 -69.5t-38 -100.5q0 -61 52.5 -97.5t147.5 -36.5q88 0 167 32.5t130.5 82.5t82 108.5t32.5 112.5z" />
    <glyph glyph-name="acircumflex" unicode="&#xe2;" horiz-adv-x="815" 
d="M424 931l-217 -195h-47l254 225h19l254 -225h-46zM740 136q0 -42 4.5 -67.5t10 -36t18.5 -27.5l-1 -5h-36q-19 19 -27 42t-8 79l-1 120q-48 -112 -163 -185.5t-257 -73.5q-110 0 -173 45.5t-63 116.5q0 87 76 146t189.5 83t254.5 23q55 0 132 -5q-7 131 -80 205t-194 74
q-131 0 -297 -94q-12 7 -15 28q169 96 311 96q147 0 232 -90.5t86 -257.5zM697 350l1 14q-61 5 -137 5q-98 1 -182.5 -12t-151 -39t-104.5 -69.5t-38 -100.5q0 -61 52.5 -97.5t147.5 -36.5q88 0 167 32.5t130.5 82.5t82 108.5t32.5 112.5z" />
    <glyph glyph-name="atilde" unicode="&#xe3;" horiz-adv-x="815" 
d="M273 935q-37 0 -61 -32.5t-24 -86.5h-28q0 68 31.5 109.5t78.5 41.5q36 0 79 -19t76.5 -42.5t75 -43t74.5 -19.5q39 -1 62 32.5t23 86.5h28q0 -67 -29.5 -109t-80.5 -42q-35 0 -78 19.5t-77 43t-75.5 42.5t-74.5 19zM740 136q0 -42 4.5 -67.5t10 -36t18.5 -27.5l-1 -5
h-36q-19 19 -27 42t-8 79l-1 120q-48 -112 -163 -185.5t-257 -73.5q-110 0 -173 45.5t-63 116.5q0 87 76 146t189.5 83t254.5 23q55 0 132 -5q-7 131 -80 205t-194 74q-131 0 -297 -94q-12 7 -15 28q169 96 311 96q147 0 232 -90.5t86 -257.5zM697 350l1 14q-61 5 -137 5
q-98 1 -182.5 -12t-151 -39t-104.5 -69.5t-38 -100.5q0 -61 52.5 -97.5t147.5 -36.5q88 0 167 32.5t130.5 82.5t82 108.5t32.5 112.5z" />
    <glyph glyph-name="adieresis" unicode="&#xe4;" horiz-adv-x="815" 
d="M254 826q-14 0 -24 9t-10 21q0 14 10 23.5t24 9.5t24 -10t10 -23q0 -12 -10 -21t-24 -9zM599 826q-14 0 -24 9t-10 21q0 13 10 23t24 10t24 -9.5t10 -23.5q0 -12 -10 -21t-24 -9zM740 136q0 -42 4.5 -67.5t10 -36t18.5 -27.5l-1 -5h-36q-19 19 -27 42t-8 79l-1 120
q-48 -112 -163 -185.5t-257 -73.5q-110 0 -173 45.5t-63 116.5q0 87 76 146t189.5 83t254.5 23q55 0 132 -5q-7 131 -80 205t-194 74q-131 0 -297 -94q-12 7 -15 28q169 96 311 96q147 0 232 -90.5t86 -257.5zM697 350l1 14q-61 5 -137 5q-98 1 -182.5 -12t-151 -39
t-104.5 -69.5t-38 -100.5q0 -61 52.5 -97.5t147.5 -36.5q88 0 167 32.5t130.5 82.5t82 108.5t32.5 112.5z" />
    <glyph glyph-name="aring" unicode="&#xe5;" horiz-adv-x="815" 
d="M426 773q-96 0 -158 36.5t-62 99.5q0 60 60.5 98.5t159.5 38.5q89 0 151.5 -38.5t62.5 -98.5q0 -59 -66 -97.5t-148 -38.5zM425 1025q-85 0 -138.5 -33t-53.5 -83t51.5 -82.5t140.5 -32.5q75 0 132 34t57 81q0 49 -56 82.5t-133 33.5zM740 136q0 -42 4.5 -67.5t10 -36
t18.5 -27.5l-1 -5h-36q-19 19 -27 42t-8 79l-1 120q-48 -112 -163 -185.5t-257 -73.5q-110 0 -173 45.5t-63 116.5q0 87 76 146t189.5 83t254.5 23q55 0 132 -5q-7 131 -80 205t-194 74q-131 0 -297 -94q-12 7 -15 28q169 96 311 96q147 0 232 -90.5t86 -257.5zM697 350
l1 14q-61 5 -137 5q-98 1 -182.5 -12t-151 -39t-104.5 -69.5t-38 -100.5q0 -61 52.5 -97.5t147.5 -36.5q88 0 167 32.5t130.5 82.5t82 108.5t32.5 112.5z" />
    <glyph glyph-name="ae" unicode="&#xe6;" horiz-adv-x="1458" 
d="M1089 700q158 0 250 -90t85 -250l-10 -11l-676 -70q9 -123 98 -193.5t222 -71.5q158 0 298 108q8 -3 13.5 -12t5.5 -13q-148 -115 -321 -115q-133 0 -229 65.5t-121 181.5q-54 -108 -171 -178t-253 -69q-110 0 -173 45.5t-63 116.5q0 66 43 116t117 79.5t164.5 43.5
t194.5 13q54 0 131 -5q-8 130 -80.5 204t-191.5 74q-129 0 -297 -93q-12 7 -15 28q169 96 311 96q121 0 201.5 -61.5t104.5 -176.5q45 108 143 173t219 65zM1383 371q4 143 -75.5 220.5t-218.5 77.5q-148 0 -249.5 -105.5t-102.5 -257.5zM695 350v14q-60 5 -134 5
q-98 1 -182.5 -12t-151 -39t-104.5 -69.5t-38 -100.5q0 -61 52.5 -97.5t147.5 -36.5q113 0 208.5 52.5t147 129t54.5 154.5z" />
    <glyph glyph-name="ccedilla" unicode="&#xe7;" horiz-adv-x="799" 
d="M440 700q157 0 241.5 -91t80.5 -235q-23 -8 -40 -2q2 132 -70 213.5t-214 82.5q-141 0 -251.5 -99.5t-110.5 -241.5q0 -141 95 -227t228 -85q102 0 175 25t134 78q10 -3 15.5 -12t5.5 -13q-67 -58 -143.5 -84.5t-187.5 -26.5h-3q3 -22 15.5 -39.5t49.5 -54.5
q53 -53 53 -106q1 -44 -30 -73.5t-78 -30.5q-62 0 -119 53l22 19q48 -45 97 -45q34 1 56 23t21 55q-1 44 -53 96q-37 37 -49 57.5t-14 46.5q-137 11 -232.5 104t-95.5 240q0 106 59 193t150.5 133.5t192.5 46.5z" />
    <glyph glyph-name="egrave" unicode="&#xe8;" horiz-adv-x="799" 
d="M521 781h-31l-208 245h44zM430 700q159 0 250.5 -90t84.5 -250l-10 -11l-676 -71q10 -123 98.5 -193t221.5 -71q158 0 299 108q8 -3 13.5 -12t5.5 -13q-150 -115 -322 -115q-154 0 -255.5 86.5t-101.5 236.5q0 167 114 281t278 114zM724 373q4 142 -75.5 219t-218.5 77
q-146 0 -248.5 -105.5t-103.5 -256.5z" />
    <glyph glyph-name="eacute" unicode="&#xe9;" horiz-adv-x="799" 
d="M635 1026l-203 -245h-30l189 245h44zM430 700q159 0 250.5 -90t84.5 -250l-10 -11l-676 -71q10 -123 98.5 -193t221.5 -71q158 0 299 108q8 -3 13.5 -12t5.5 -13q-150 -115 -322 -115q-154 0 -255.5 86.5t-101.5 236.5q0 167 114 281t278 114zM724 373q4 142 -75.5 219
t-218.5 77q-146 0 -248.5 -105.5t-103.5 -256.5z" />
    <glyph glyph-name="ecircumflex" unicode="&#xea;" horiz-adv-x="799" 
d="M429 931l-217 -195h-47l254 225h19l254 -225h-46zM430 700q159 0 250.5 -90t84.5 -250l-10 -11l-676 -71q10 -123 98.5 -193t221.5 -71q158 0 299 108q8 -3 13.5 -12t5.5 -13q-150 -115 -322 -115q-154 0 -255.5 86.5t-101.5 236.5q0 167 114 281t278 114zM724 373
q4 142 -75.5 219t-218.5 77q-146 0 -248.5 -105.5t-103.5 -256.5z" />
    <glyph glyph-name="edieresis" unicode="&#xeb;" horiz-adv-x="799" 
d="M259 826q-14 0 -24 9t-10 21q0 14 10 23.5t24 9.5t24 -10t10 -23q0 -12 -10 -21t-24 -9zM604 826q-14 0 -24 9t-10 21q0 13 10 23t24 10t24 -9.5t10 -23.5q0 -12 -10 -21t-24 -9zM430 700q159 0 250.5 -90t84.5 -250l-10 -11l-676 -71q10 -123 98.5 -193t221.5 -71
q158 0 299 108q8 -3 13.5 -12t5.5 -13q-150 -115 -322 -115q-154 0 -255.5 86.5t-101.5 236.5q0 167 114 281t278 114zM724 373q4 142 -75.5 219t-218.5 77q-146 0 -248.5 -105.5t-103.5 -256.5z" />
    <glyph glyph-name="igrave" unicode="&#xec;" horiz-adv-x="225" 
d="M173 781l-208 245h44l195 -245h-31zM94 0v653q7 2 19 2t18 -2v-653h-37z" />
    <glyph glyph-name="iacute" unicode="&#xed;" horiz-adv-x="225" 
d="M85 781l189 245h44l-203 -245h-30zM94 0v653q7 2 19 2t18 -2v-653h-37z" />
    <glyph glyph-name="icircumflex" unicode="&#xee;" horiz-adv-x="225" 
d="M122 961l254 -225h-46l-217 195l-217 -195h-47l254 225h19zM94 653q7 2 19 2t18 -2v-653h-37v653z" />
    <glyph glyph-name="idieresis" unicode="&#xef;" horiz-adv-x="225" 
d="M-58 826q-14 0 -24 9t-10 21q0 14 10 23.5t24 9.5t24 -10t10 -23q0 -12 -10 -21t-24 -9zM287 826q-14 0 -24 9t-10 21q0 13 10 23t24 10t24 -9.5t10 -23.5q0 -12 -10 -21t-24 -9zM94 0v653q7 2 19 2t18 -2v-653h-37z" />
    <glyph glyph-name="eth" unicode="&#xf0;" horiz-adv-x="808" 
d="M493 753q128 -93 203 -202t75 -223q0 -63 -23.5 -122.5t-68.5 -110.5t-122.5 -82.5t-175.5 -31.5q-160 0 -251.5 82.5t-91.5 211.5q0 147 107 237.5t267 90.5q190 0 288 -126q-61 132 -242 260q-57 -24 -280 -107q-12 6 -16 22q15 6 114 43t155 60q-107 73 -220 120
q2 17 19 26q133 -59 237 -130q158 74 162 123q21 7 39 -6q-5 -59 -175 -135zM383 13q156 0 252.5 89.5t96.5 222.5q0 102 -87 175t-226 73q-150 0 -246.5 -83t-96.5 -214q0 -115 80.5 -189t226.5 -74z" />
    <glyph glyph-name="ntilde" unicode="&#xf1;" horiz-adv-x="879" 
d="M344 935q-37 0 -61 -32.5t-24 -86.5h-28q0 68 31.5 109.5t78.5 41.5q36 0 79 -19t76.5 -42.5t75 -43t74.5 -19.5q39 -1 62 32.5t23 86.5h28q0 -67 -29.5 -109t-80.5 -42q-35 0 -78 19.5t-77 43t-75.5 42.5t-74.5 19zM498 700q150 0 231.5 -91t81.5 -255v-354h-38v349
q0 146 -71 231.5t-208 85.5q-96 0 -184 -57t-139 -143.5t-51 -172.5v-293h-38v526q0 71 -14 119v7q22 5 36 3q15 -42 15 -87v-137q44 109 150.5 189t228.5 80z" />
    <glyph glyph-name="ograve" unicode="&#xf2;" horiz-adv-x="877" 
d="M526 781l-208 245h44l195 -245h-31zM411 -18q-174 0 -273.5 94.5t-99.5 231.5q0 161 124.5 276.5t307.5 115.5q165 0 266.5 -96.5t102.5 -238.5q1 -161 -120.5 -272t-307.5 -111zM413 15q169 0 278.5 102t109.5 245q0 130 -93 218t-240 88q-168 0 -280 -107t-112 -253
q0 -123 88.5 -208t248.5 -85z" />
    <glyph glyph-name="oacute" unicode="&#xf3;" horiz-adv-x="877" 
d="M438 781l189 245h44l-203 -245h-30zM411 -18q-174 0 -273.5 94.5t-99.5 231.5q0 161 124.5 276.5t307.5 115.5q165 0 266.5 -96.5t102.5 -238.5q1 -161 -120.5 -272t-307.5 -111zM413 15q169 0 278.5 102t109.5 245q0 130 -93 218t-240 88q-168 0 -280 -107t-112 -253
q0 -123 88.5 -208t248.5 -85z" />
    <glyph glyph-name="ocircumflex" unicode="&#xf4;" horiz-adv-x="877" 
d="M466 931l-217 -195h-47l254 225h19l254 -225h-46zM839 365q1 -161 -120.5 -272t-307.5 -111q-174 0 -273.5 94.5t-99.5 231.5q0 161 124.5 276.5t307.5 115.5q165 0 266.5 -96.5t102.5 -238.5zM413 15q169 0 278.5 102t109.5 245q0 130 -93 218t-240 88q-168 0 -280 -107
t-112 -253q0 -123 88.5 -208t248.5 -85z" />
    <glyph glyph-name="otilde" unicode="&#xf5;" horiz-adv-x="877" 
d="M619 811q-35 0 -78 19.5t-77 43t-75.5 42.5t-74.5 19q-37 0 -61 -32.5t-24 -86.5h-28q0 68 31.5 109.5t78.5 41.5q36 0 79 -19t76.5 -42.5t75 -43t74.5 -19.5q39 -1 62 32.5t23 86.5h28q0 -67 -29.5 -109t-80.5 -42zM411 -18q-174 0 -273.5 94.5t-99.5 231.5
q0 161 124.5 276.5t307.5 115.5q165 0 266.5 -96.5t102.5 -238.5q1 -161 -120.5 -272t-307.5 -111zM413 15q169 0 278.5 102t109.5 245q0 130 -93 218t-240 88q-168 0 -280 -107t-112 -253q0 -123 88.5 -208t248.5 -85z" />
    <glyph glyph-name="odieresis" unicode="&#xf6;" horiz-adv-x="877" 
d="M296 826q-14 0 -24 9t-10 21q0 14 10 23.5t24 9.5t24 -10t10 -23q0 -12 -10 -21t-24 -9zM641 826q-14 0 -24 9t-10 21q0 13 10 23t24 10t24 -9.5t10 -23.5q0 -12 -10 -21t-24 -9zM411 -18q-174 0 -273.5 94.5t-99.5 231.5q0 161 124.5 276.5t307.5 115.5
q165 0 266.5 -96.5t102.5 -238.5q1 -161 -120.5 -272t-307.5 -111zM413 15q169 0 278.5 102t109.5 245q0 130 -93 218t-240 88q-168 0 -280 -107t-112 -253q0 -123 88.5 -208t248.5 -85z" />
    <glyph glyph-name="divide" unicode="&#xf7;" horiz-adv-x="836" 
d="M417 608q-14 0 -24.5 9.5t-10.5 21.5q0 13 10.5 22.5t24.5 9.5t24.5 -9.5t10.5 -22.5q0 -12 -10.5 -21.5t-24.5 -9.5zM111 412v32h615v-32h-615zM417 179q-14 0 -24.5 10t-10.5 22q0 13 10.5 22.5t24.5 9.5t24.5 -9.5t10.5 -22.5q0 -12 -10.5 -22t-24.5 -10z" />
    <glyph glyph-name="oslash" unicode="&#xf8;" horiz-adv-x="885" 
d="M841 365q1 -161 -120 -272t-307 -111q-153 0 -253 76l-65 -58h-36v7l78 71q-98 92 -98 230q0 161 124.5 276.5t307.5 115.5q157 0 261 -91l49 44h39v-5l-67 -60q87 -92 87 -223zM78 308q0 -125 87 -206l159 144l46 39l147 129l45 42l143 128q-94 84 -235 84
q-168 0 -280 -107t-112 -253zM415 15q170 0 279 102t109 245q0 117 -76 201l-122 -109l-50 -43l-153 -135l-43 -40l-171 -154q90 -67 227 -67z" />
    <glyph glyph-name="ugrave" unicode="&#xf9;" horiz-adv-x="866" 
d="M512 781h-31l-208 245h44zM792 136q0 -59 4.5 -84t18.5 -44v-8h-32q-14 17 -20 39.5t-6 78.5v95q-38 -101 -145.5 -166t-247.5 -65q-137 0 -216.5 72t-79.5 218v381q15 5 38 0v-375q0 -135 71 -199t192 -64q165 0 275.5 96t110.5 236v306q14 6 37 0v-517z" />
    <glyph glyph-name="uacute" unicode="&#xfa;" horiz-adv-x="866" 
d="M626 1026l-203 -245h-30l189 245h44zM792 136q0 -59 4.5 -84t18.5 -44v-8h-32q-14 17 -20 39.5t-6 78.5v95q-38 -101 -145.5 -166t-247.5 -65q-137 0 -216.5 72t-79.5 218v381q15 5 38 0v-375q0 -135 71 -199t192 -64q165 0 275.5 96t110.5 236v306q14 6 37 0v-517z" />
    <glyph glyph-name="ucircumflex" unicode="&#xfb;" horiz-adv-x="866" 
d="M421 931l-217 -195h-47l254 225h19l254 -225h-46zM792 136q0 -59 4.5 -84t18.5 -44v-8h-32q-14 17 -20 39.5t-6 78.5v95q-38 -101 -145.5 -166t-247.5 -65q-137 0 -216.5 72t-79.5 218v381q15 5 38 0v-375q0 -135 71 -199t192 -64q165 0 275.5 96t110.5 236v306
q14 6 37 0v-517z" />
    <glyph glyph-name="udieresis" unicode="&#xfc;" horiz-adv-x="866" 
d="M250 826q-14 0 -24 9t-10 21q0 14 10 23.5t24 9.5t24 -10t10 -23q0 -12 -10 -21t-24 -9zM595 826q-14 0 -24 9t-10 21q0 13 10 23t24 10t24 -9.5t10 -23.5q0 -12 -10 -21t-24 -9zM792 136q0 -59 4.5 -84t18.5 -44v-8h-32q-14 17 -20 39.5t-6 78.5v95
q-38 -101 -145.5 -166t-247.5 -65q-137 0 -216.5 72t-79.5 218v381q15 5 38 0v-375q0 -135 71 -199t192 -64q165 0 275.5 96t110.5 236v306q14 6 37 0v-517z" />
    <glyph glyph-name="yacute" unicode="&#xfd;" horiz-adv-x="817" 
d="M615 1026l-203 -245h-30l189 245h44zM804 653q10 -106 -21.5 -234t-115.5 -272t-208 -257q-164 -149 -347 -149q-61 0 -97 16q-8 15 -1 29l8 4q30 -17 91 -17q171 1 327 148q54 50 92 97q-86 42 -175 128.5t-157.5 183t-116.5 177.5t-73 138l3 7q15 5 37 1
q22 -52 67 -128.5t110.5 -171t153 -180t172.5 -129.5q113 142 168 302t46 304q15 10 37 3z" />
    <glyph glyph-name="thorn" unicode="&#xfe;" horiz-adv-x="848" 
d="M474 700q148 0 242 -94.5t94 -247.5q0 -96 -48.5 -182t-138 -140t-198.5 -54t-192 55t-125 143v-411q-18 -5 -40 0v1163q7 2 20 2t18 -2v-506q37 125 142.5 199.5t225.5 74.5zM422 14q151 0 250.5 106t99.5 238q0 141 -84.5 225.5t-215.5 84.5q-142 0 -253.5 -108
t-111.5 -258q0 -111 91.5 -199.5t223.5 -88.5z" />
    <glyph glyph-name="ydieresis" unicode="&#xff;" horiz-adv-x="817" 
d="M239 826q-14 0 -24 9t-10 21q0 14 10 23.5t24 9.5t24 -10t10 -23q0 -12 -10 -21t-24 -9zM584 826q-14 0 -24 9t-10 21q0 13 10 23t24 10t24 -9.5t10 -23.5q0 -12 -10 -21t-24 -9zM804 653q10 -106 -21.5 -234t-115.5 -272t-208 -257q-164 -149 -347 -149q-61 0 -97 16
q-8 15 -1 29l8 4q30 -17 91 -17q171 1 327 148q54 50 92 97q-86 42 -175 128.5t-157.5 183t-116.5 177.5t-73 138l3 7q15 5 37 1q22 -52 67 -128.5t110.5 -171t153 -180t172.5 -129.5q113 142 168 302t46 304q15 10 37 3z" />
    <glyph glyph-name="Amacron" unicode="&#x100;" horiz-adv-x="1103" 
d="M807 1012v-28h-487v28h487zM582 892q50 -84 263 -459.5t244 -426.5l-2 -6q-32 0 -43 3q-29 48 -134 237h-712l-140 -240h-44l525 892q7 3 21.5 3t21.5 -3zM217 272h675q-255 457 -331 588z" />
    <glyph glyph-name="amacron" unicode="&#x101;" horiz-adv-x="815" 
d="M697 895v-32h-543v32h543zM740 136q0 -42 4.5 -67.5t10 -36t18.5 -27.5l-1 -5h-36q-19 19 -27 42t-8 79l-1 120q-48 -112 -163 -185.5t-257 -73.5q-110 0 -173 45.5t-63 116.5q0 87 76 146t189.5 83t254.5 23q55 0 132 -5q-7 131 -80 205t-194 74q-131 0 -297 -94
q-12 7 -15 28q169 96 311 96q147 0 232 -90.5t86 -257.5zM697 350l1 14q-61 5 -137 5q-98 1 -182.5 -12t-151 -39t-104.5 -69.5t-38 -100.5q0 -61 52.5 -97.5t147.5 -36.5q88 0 167 32.5t130.5 82.5t82 108.5t32.5 112.5z" />
    <glyph glyph-name="Abreve" unicode="&#x102;" horiz-adv-x="1103" 
d="M565 956q-105 0 -173.5 43.5t-68.5 120.5h28q0 -61 59.5 -99t154.5 -38q91 0 152 38t61 99h29q0 -75 -70 -119.5t-172 -44.5zM582 892q50 -84 263 -459.5t244 -426.5l-2 -6q-32 0 -43 3q-29 48 -134 237h-712l-140 -240h-44l525 892q7 3 21.5 3t21.5 -3zM217 272h675
q-255 457 -331 588z" />
    <glyph glyph-name="abreve" unicode="&#x103;" horiz-adv-x="815" 
d="M423 773q-110 0 -183.5 51.5t-73.5 141.5h32q0 -75 62 -119.5t163 -44.5q98 0 162.5 46t64.5 118h31q0 -88 -75 -140.5t-183 -52.5zM740 136q0 -42 4.5 -67.5t10 -36t18.5 -27.5l-1 -5h-36q-19 19 -27 42t-8 79l-1 120q-48 -112 -163 -185.5t-257 -73.5q-110 0 -173 45.5
t-63 116.5q0 87 76 146t189.5 83t254.5 23q55 0 132 -5q-7 131 -80 205t-194 74q-131 0 -297 -94q-12 7 -15 28q169 96 311 96q147 0 232 -90.5t86 -257.5zM697 350l1 14q-61 5 -137 5q-98 1 -182.5 -12t-151 -39t-104.5 -69.5t-38 -100.5q0 -61 52.5 -97.5t147.5 -36.5
q88 0 167 32.5t130.5 82.5t82 108.5t32.5 112.5z" />
    <glyph glyph-name="Aogonek" unicode="&#x104;" horiz-adv-x="1103" 
d="M1146 -243l20 -16q-27 -32 -72.5 -53t-88.5 -21q-53 -1 -86.5 25t-33.5 78q0 51 41 117.5t115 119.5l-131 233h-712l-140 -240h-44l525 892q7 3 21.5 3t21.5 -3q50 -84 263 -459.5t244 -426.5l-2 -6h-20q-74 -55 -113 -116t-39 -109q0 -40 26.5 -60t68.5 -18
q36 0 74.5 17t61.5 43zM217 272h675q-255 457 -331 588z" />
    <glyph glyph-name="aogonek" unicode="&#x105;" horiz-adv-x="815" 
d="M840 -242l20 -16q-27 -32 -72.5 -53t-88.5 -21q-53 -1 -86.5 25t-33.5 78q0 50 40 115.5t112 118.5q-16 17 -23 40t-7 76l-1 120q-48 -112 -163 -185.5t-257 -73.5q-110 0 -173 45.5t-63 116.5q0 87 76 146t189.5 83t254.5 23q55 0 132 -5q-7 131 -80 205t-194 74
q-131 0 -297 -94q-12 7 -15 28q169 96 311 96q147 0 232 -90.5t86 -257.5l1 -216q0 -42 4.5 -67.5t10 -36t18.5 -27.5l-1 -5h-13q-73 -55 -111.5 -115.5t-38.5 -108.5q0 -40 26.5 -60t68.5 -18q36 0 74.5 17t61.5 43zM697 350l1 14q-61 5 -137 5q-98 1 -182.5 -12t-151 -39
t-104.5 -69.5t-38 -100.5q0 -61 52.5 -97.5t147.5 -36.5q88 0 167 32.5t130.5 82.5t82 108.5t32.5 112.5z" />
    <glyph glyph-name="Cacute" unicode="&#x106;" horiz-adv-x="978" 
d="M537 958l187 192h42l-198 -192h-31zM543 -18q-214 0 -357.5 126t-143.5 339q0 132 69 238.5t184.5 166t253.5 61.5q169 2 280 -86.5t105 -221.5q-24 -8 -38 -3q4 120 -96.5 200t-250.5 78q-198 -5 -333 -127t-135 -307q0 -133 63.5 -232t167 -148.5t231.5 -50.5
q84 0 177.5 25.5t167.5 73.5q9 -3 15 -13t6 -14q-78 -52 -178 -78.5t-188 -26.5z" />
    <glyph glyph-name="cacute" unicode="&#x107;" horiz-adv-x="799" 
d="M409 781l189 245h44l-203 -245h-30zM398 -18q-147 0 -253.5 94.5t-106.5 250.5q0 106 59 193t150.5 133.5t192.5 46.5q157 0 241.5 -91t80.5 -235q-23 -8 -40 -2q2 132 -70 213.5t-214 82.5q-141 0 -251.5 -99.5t-110.5 -241.5q0 -141 95 -227t228 -85q102 0 175 25
t134 78q10 -3 15.5 -12t5.5 -13q-67 -58 -143.5 -84.5t-187.5 -26.5z" />
    <glyph glyph-name="Cdotaccent" unicode="&#x10a;" horiz-adv-x="978" 
d="M549 995q-13 0 -21.5 8t-8.5 19q0 12 8.5 20.5t21.5 8.5t21.5 -8.5t8.5 -20.5q0 -11 -8.5 -19t-21.5 -8zM543 -18q-214 0 -357.5 126t-143.5 339q0 132 69 238.5t184.5 166t253.5 61.5q169 2 280 -86.5t105 -221.5q-24 -8 -38 -3q4 120 -96.5 200t-250.5 78
q-198 -5 -333 -127t-135 -307q0 -133 63.5 -232t167 -148.5t231.5 -50.5q84 0 177.5 25.5t167.5 73.5q9 -3 15 -13t6 -14q-78 -52 -178 -78.5t-188 -26.5z" />
    <glyph glyph-name="cdotaccent" unicode="&#x10b;" horiz-adv-x="799" 
d="M436 826q-14 0 -24 9t-10 21q0 13 10 23t24 10t24 -9.5t10 -23.5q0 -12 -10 -21t-24 -9zM398 -18q-147 0 -253.5 94.5t-106.5 250.5q0 106 59 193t150.5 133.5t192.5 46.5q157 0 241.5 -91t80.5 -235q-23 -8 -40 -2q2 132 -70 213.5t-214 82.5q-141 0 -251.5 -99.5
t-110.5 -241.5q0 -141 95 -227t228 -85q102 0 175 25t134 78q10 -3 15.5 -12t5.5 -13q-67 -58 -143.5 -84.5t-187.5 -26.5z" />
    <glyph glyph-name="Ccaron" unicode="&#x10c;" horiz-adv-x="978" 
d="M558 962h-19l-254 216h46l218 -188l218 188h45zM934 605q-24 -8 -38 -3q4 120 -96.5 200t-250.5 78q-198 -5 -333 -127t-135 -307q0 -133 63.5 -232t167 -148.5t231.5 -50.5q84 0 177.5 25.5t167.5 73.5q9 -3 15 -13t6 -14q-78 -52 -178 -78.5t-188 -26.5
q-214 0 -357.5 126t-143.5 339q0 132 69 238.5t184.5 166t253.5 61.5q169 2 280 -86.5t105 -221.5z" />
    <glyph glyph-name="ccaron" unicode="&#x10d;" horiz-adv-x="799" 
d="M445 781h-19l-254 225h47l217 -197l217 197h46zM440 700q157 0 241.5 -91t80.5 -235q-23 -8 -40 -2q2 132 -70 213.5t-214 82.5q-141 0 -251.5 -99.5t-110.5 -241.5q0 -141 95 -227t228 -85q102 0 175 25t134 78q10 -3 15.5 -12t5.5 -13q-67 -58 -143.5 -84.5
t-187.5 -26.5q-147 0 -253.5 94.5t-106.5 250.5q0 106 59 193t150.5 133.5t192.5 46.5z" />
    <glyph glyph-name="Dcaron" unicode="&#x10e;" horiz-adv-x="1058" 
d="M471 962h-19l-254 216h46l218 -188l218 188h45zM462 913q248 0 401 -127t153 -329q0 -212 -145.5 -343t-382.5 -132q-143 0 -217 8.5t-187 34.5v855q90 19 168.5 26t209.5 7zM485 14q222 0 356.5 123t134.5 320q0 184 -140 304t-376 120q-214 0 -338 -26v-802
q155 -39 363 -39z" />
    <glyph glyph-name="dcaron" unicode="&#x10f;" horiz-adv-x="991" 
d="M1019 1055h36l-23 -333h-29zM816 932v-751q0 -120 14 -173v-8h-32q-20 55 -20 145v86q-38 -108 -134 -178.5t-225 -70.5q-154 0 -250.5 92t-96.5 244q0 159 112 270.5t283 111.5q109 0 193.5 -61.5t117.5 -161.5v455q17 6 38 0zM420 14q153 0 253.5 106t100.5 247
q0 127 -87.5 213.5t-213.5 86.5q-154 0 -258 -101t-104 -248q0 -135 85 -219.5t224 -84.5z" />
    <glyph glyph-name="Dcroat" unicode="&#x110;" horiz-adv-x="1126" 
d="M530 913q248 0 401 -127t153 -329q0 -212 -145.5 -343t-382.5 -132q-143 0 -216 8.5t-187 34.5v429h-96v31h96v395q89 19 167.5 26t209.5 7zM554 14q221 0 356 123t135 320q0 184 -140.5 304t-376.5 120q-214 0 -337 -26v-370h445v-31h-445v-402q156 -38 363 -38z" />
    <glyph glyph-name="dcroat" unicode="&#x111;" horiz-adv-x="871" 
d="M896 791h-115v-610q0 -121 15 -173v-8h-33q-19 52 -19 145v89q-37 -109 -133.5 -180.5t-225.5 -71.5q-154 0 -250.5 92t-96.5 244q0 160 111.5 271t282.5 111q110 0 195.5 -62.5t116.5 -163.5v317h-338v22h338v119q5 2 17 2t20 -2v-119h115v-22zM385 14q153 0 253.5 106
t100.5 247q0 127 -87.5 213.5t-213.5 86.5q-154 0 -258 -101t-104 -248q0 -135 85.5 -219.5t223.5 -84.5z" />
    <glyph glyph-name="Emacron" unicode="&#x112;" horiz-adv-x="945" 
d="M725 1011v-28h-487v28h487zM899 32q4 -4 4 -15t-4 -17h-815v887l6 5h779q7 -17 -6 -32h-741v-415h639q2 -7 0 -17.5t-7 -14.5h-632v-381h777z" />
    <glyph glyph-name="emacron" unicode="&#x113;" horiz-adv-x="799" 
d="M702 895v-32h-543v32h543zM430 700q159 0 250.5 -90t84.5 -250l-10 -11l-676 -71q10 -123 98.5 -193t221.5 -71q158 0 299 108q8 -3 13.5 -12t5.5 -13q-150 -115 -322 -115q-154 0 -255.5 86.5t-101.5 236.5q0 167 114 281t278 114zM724 373q4 142 -75.5 219t-218.5 77
q-146 0 -248.5 -105.5t-103.5 -256.5z" />
    <glyph glyph-name="Ebreve" unicode="&#x114;" horiz-adv-x="945" 
d="M483 955q-105 0 -173.5 43.5t-68.5 120.5h29q0 -61 59 -99t154 -38q92 0 153 38t61 99h28q0 -75 -70 -119.5t-172 -44.5zM899 32q4 -4 4 -15t-4 -17h-815v887l6 5h779q7 -17 -6 -32h-741v-415h639q2 -7 0 -17.5t-7 -14.5h-632v-381h777z" />
    <glyph glyph-name="ebreve" unicode="&#x115;" horiz-adv-x="799" 
d="M428 773q-110 0 -183.5 51.5t-73.5 141.5h32q0 -75 62 -119.5t163 -44.5q98 0 162.5 46t64.5 118h31q0 -88 -75 -140.5t-183 -52.5zM430 700q159 0 250.5 -90t84.5 -250l-10 -11l-676 -71q10 -123 98.5 -193t221.5 -71q158 0 299 108q8 -3 13.5 -12t5.5 -13
q-150 -115 -322 -115q-154 0 -255.5 86.5t-101.5 236.5q0 167 114 281t278 114zM724 373q4 142 -75.5 219t-218.5 77q-146 0 -248.5 -105.5t-103.5 -256.5z" />
    <glyph glyph-name="Edotaccent" unicode="&#x116;" horiz-adv-x="945" 
d="M482 974q-13 0 -21.5 8t-8.5 19q0 12 8.5 20.5t21.5 8.5t21.5 -8.5t8.5 -20.5q0 -11 -8.5 -19t-21.5 -8zM899 32q4 -4 4 -15t-4 -17h-815v887l6 5h779q7 -17 -6 -32h-741v-415h639q2 -7 0 -17.5t-7 -14.5h-632v-381h777z" />
    <glyph glyph-name="edotaccent" unicode="&#x117;" horiz-adv-x="799" 
d="M429 826q-14 0 -24 9t-10 21q0 13 10 23t24 10t24 -9.5t10 -23.5q0 -12 -10 -21t-24 -9zM430 700q159 0 250.5 -90t84.5 -250l-10 -11l-676 -71q10 -123 98.5 -193t221.5 -71q158 0 299 108q8 -3 13.5 -12t5.5 -13q-150 -115 -322 -115q-154 0 -255.5 86.5t-101.5 236.5
q0 167 114 281t278 114zM724 373q4 142 -75.5 219t-218.5 77q-146 0 -248.5 -105.5t-103.5 -256.5z" />
    <glyph glyph-name="Eogonek" unicode="&#x118;" horiz-adv-x="945" 
d="M539 0q-74 -55 -113 -116t-39 -109q0 -40 26.5 -60t68.5 -18q36 0 74.5 17t61.5 43l20 -16q-27 -32 -72.5 -53t-88.5 -21q-53 -1 -86.5 25t-33.5 78q0 49 38.5 112.5t107.5 117.5h-419v887l6 5h779q7 -17 -6 -32h-741v-415h639q2 -7 0 -17.5t-7 -14.5h-632v-381h777
q4 -4 4 -15t-4 -17h-360z" />
    <glyph glyph-name="eogonek" unicode="&#x119;" horiz-adv-x="799" 
d="M430 700q159 0 250.5 -90t84.5 -250l-10 -11l-676 -71q10 -123 98.5 -193t221.5 -71q158 0 299 108q8 -3 13.5 -12t5.5 -13q-136 -104 -294 -114q-71 -54 -108.5 -114t-37.5 -107q0 -40 26.5 -60t68.5 -18q36 0 74.5 17t61.5 43l20 -16q-27 -32 -72.5 -53t-88.5 -21
q-53 -1 -86.5 25t-33.5 78q0 48 36.5 110t103.5 115q-151 2 -250 88.5t-99 234.5q0 167 114 281t278 114zM724 373q4 142 -75.5 219t-218.5 77q-146 0 -248.5 -105.5t-103.5 -256.5z" />
    <glyph glyph-name="Ecaron" unicode="&#x11a;" horiz-adv-x="945" 
d="M491 941h-19l-254 216h46l218 -188l218 188h45zM899 32q4 -4 4 -15t-4 -17h-815v887l6 5h779q7 -17 -6 -32h-741v-415h639q2 -7 0 -17.5t-7 -14.5h-632v-381h777z" />
    <glyph glyph-name="ecaron" unicode="&#x11b;" horiz-adv-x="799" 
d="M438 781h-19l-254 225h47l217 -197l217 197h46zM430 700q159 0 250.5 -90t84.5 -250l-10 -11l-676 -71q10 -123 98.5 -193t221.5 -71q158 0 299 108q8 -3 13.5 -12t5.5 -13q-150 -115 -322 -115q-154 0 -255.5 86.5t-101.5 236.5q0 167 114 281t278 114zM724 373
q4 142 -75.5 219t-218.5 77q-146 0 -248.5 -105.5t-103.5 -256.5z" />
    <glyph glyph-name="Gbreve" unicode="&#x11e;" horiz-adv-x="1039" 
d="M559 976q-105 0 -173.5 43.5t-68.5 120.5h28q0 -61 59.5 -99t154.5 -38q91 0 152 38t61 99h29q0 -75 -70 -119.5t-172 -44.5zM995 617q-22 -9 -42 -3q1 119 -112 192.5t-283 73.5q-107 0 -198 -35t-151.5 -94.5t-94 -138.5t-33.5 -166q0 -198 138 -314.5t358 -116.5
q97 0 199 23t180 67v277h-428q-5 18 8 33h449l9 -8v-320q-81 -51 -194.5 -78t-222.5 -27q-235 0 -385 125.5t-150 339.5q0 91 36 175t100.5 149t163 103.5t215.5 38.5q187 0 315 -83t123 -213z" />
    <glyph glyph-name="gbreve" unicode="&#x11f;" horiz-adv-x="861" 
d="M423 728q-110 0 -183.5 51.5t-73.5 141.5h32q0 -75 62 -119.5t163 -44.5q98 0 162.5 46t64.5 118h31q0 -88 -75 -140.5t-183 -52.5zM759 658q15 1 34 -3v-7q-14 -71 -14 -140v-428q0 -169 -103.5 -265.5t-265.5 -96.5q-176 0 -346 114q4 22 16 29q166 -111 327 -111
q147 0 241.5 88.5t95.5 241.5l1 164q-34 -115 -134.5 -188.5t-233.5 -73.5q-143 0 -241.5 90.5t-97.5 244.5q1 162 113 272.5t278 110.5q115 0 199.5 -65t116.5 -159l-1 94zM378 14q149 0 255 100.5t106 256.5q0 49 -21 100.5t-58.5 95.5t-96.5 72.5t-127 28.5
q-153 0 -255.5 -101.5t-104.5 -248.5q-2 -131 82.5 -217.5t219.5 -86.5z" />
    <glyph glyph-name="Gdotaccent" unicode="&#x120;" horiz-adv-x="1039" 
d="M557 995q-13 0 -21.5 8t-8.5 19q0 12 8.5 20.5t21.5 8.5t21.5 -8.5t8.5 -20.5q0 -11 -8.5 -19t-21.5 -8zM995 617q-22 -9 -42 -3q1 119 -112 192.5t-283 73.5q-107 0 -198 -35t-151.5 -94.5t-94 -138.5t-33.5 -166q0 -198 138 -314.5t358 -116.5q97 0 199 23t180 67v277
h-428q-5 18 8 33h449l9 -8v-320q-81 -51 -194.5 -78t-222.5 -27q-235 0 -385 125.5t-150 339.5q0 91 36 175t100.5 149t163 103.5t215.5 38.5q187 0 315 -83t123 -213z" />
    <glyph glyph-name="gdotaccent" unicode="&#x121;" horiz-adv-x="861" 
d="M424 781q-14 0 -24 9t-10 21q0 13 10 23t24 10t24 -9.5t10 -23.5q0 -12 -10 -21t-24 -9zM759 658q15 1 34 -3v-7q-14 -71 -14 -140v-428q0 -169 -103.5 -265.5t-265.5 -96.5q-176 0 -346 114q4 22 16 29q166 -111 327 -111q147 0 241.5 88.5t95.5 241.5l1 164
q-34 -115 -134.5 -188.5t-233.5 -73.5q-143 0 -241.5 90.5t-97.5 244.5q1 162 113 272.5t278 110.5q115 0 199.5 -65t116.5 -159l-1 94zM378 14q149 0 255 100.5t106 256.5q0 49 -21 100.5t-58.5 95.5t-96.5 72.5t-127 28.5q-153 0 -255.5 -101.5t-104.5 -248.5
q-2 -131 82.5 -217.5t219.5 -86.5z" />
    <glyph glyph-name="uni0122" unicode="&#x122;" horiz-adv-x="1039" 
d="M995 617q-22 -9 -42 -3q1 119 -112 192.5t-283 73.5q-107 0 -198 -35t-151.5 -94.5t-94 -138.5t-33.5 -166q0 -198 138 -314.5t358 -116.5q97 0 199 23t180 67v277h-428q-5 18 8 33h449l9 -8v-320q-81 -51 -194.5 -78t-222.5 -27q-235 0 -385 125.5t-150 339.5
q0 91 36 175t100.5 149t163 103.5t215.5 38.5q187 0 315 -83t123 -213zM509 -302l44 211h32l-47 -211h-29z" />
    <glyph glyph-name="uni0123" unicode="&#x123;" horiz-adv-x="861" 
d="M479 1019l-47 -214h-32l51 214h28zM759 658q15 1 34 -3v-7q-14 -71 -14 -140v-428q0 -169 -103.5 -265.5t-265.5 -96.5q-176 0 -346 114q4 22 16 29q166 -111 327 -111q147 0 241.5 88.5t95.5 241.5l1 164q-34 -115 -134.5 -188.5t-233.5 -73.5q-143 0 -241.5 90.5
t-97.5 244.5q1 162 113 272.5t278 110.5q115 0 199.5 -65t116.5 -159l-1 94zM378 14q149 0 255 100.5t106 256.5q0 49 -21 100.5t-58.5 95.5t-96.5 72.5t-127 28.5q-153 0 -255.5 -101.5t-104.5 -248.5q-2 -131 82.5 -217.5t219.5 -86.5z" />
    <glyph glyph-name="Hcircumflex" unicode="&#x124;" horiz-adv-x="1021" 
d="M512 1131l-217 -196h-43l249 222h22l249 -222h-43zM899 892q7 3 19.5 3t18.5 -3v-892h-38v388h-777v-388h-38v892q16 8 38 0v-471h777v471z" />
    <glyph glyph-name="hcircumflex" unicode="&#x125;" horiz-adv-x="849" 
d="M428 1140l-217 -195h-47l254 225h19l254 -225h-46zM488 700q149 0 229 -91t80 -255v-354h-37v352q0 143 -71 228.5t-207 85.5q-97 0 -185.5 -57t-139.5 -143t-51 -173v-293h-38v932q24 7 38 0v-504q44 111 151 191.5t231 80.5z" />
    <glyph glyph-name="Hbar" unicode="&#x126;" horiz-adv-x="1074" 
d="M1009 642v-30h-38v-612h-38v388h-776v-388h-38v612h-53v30h53v250q15 8 38 0v-250h776v250q7 3 19.5 3t18.5 -3v-250h38zM933 421v191h-776v-191h776z" />
    <glyph glyph-name="hbar" unicode="&#x127;" horiz-adv-x="808" 
d="M448 700q149 0 229 -91t80 -255v-354h-38v352q0 144 -71 229t-206 85q-98 0 -186 -57t-139 -143t-51 -173v-293h-38v821h-94v23h94v88q23 8 38 0v-88h416v-23h-416v-393q43 111 150.5 191.5t231.5 80.5z" />
    <glyph glyph-name="Imacron" unicode="&#x12a;" horiz-adv-x="207" 
d="M-43 983v28h292v-28h-292zM84 0v892q7 3 20 3t18 -3v-892h-38z" />
    <glyph glyph-name="imacron" unicode="&#x12b;" horiz-adv-x="225" 
d="M-104 863v32h435v-32h-435zM94 0v653q7 2 19 2t18 -2v-653h-37z" />
    <glyph glyph-name="Iogonek" unicode="&#x12e;" horiz-adv-x="207" 
d="M193 -239l20 -16q-27 -32 -72.5 -53t-88.5 -21q-53 -1 -86.5 25t-33.5 78q0 50 40 115.5t112 118.5v884q7 3 20 3t18 -3v-892h-14q-71 -54 -108.5 -114t-37.5 -107q0 -40 26.5 -60t68.5 -18q36 0 74.5 17t61.5 43z" />
    <glyph glyph-name="iogonek" unicode="&#x12f;" horiz-adv-x="225" 
d="M112 826q-14 0 -24 9t-10 21q0 13 10 23t24 10t24 -9.5t10 -23.5q0 -12 -10 -21t-24 -9zM209 -244l20 -16q-27 -32 -72.5 -53t-88.5 -21q-53 -1 -86.5 25t-33.5 78q0 50 38.5 114t109.5 117h-2v653q7 2 19 2t18 -2v-653q-75 -55 -114 -116.5t-39 -109.5q0 -40 26.5 -60
t68.5 -18q36 0 74.5 17t61.5 43z" />
    <glyph glyph-name="Idotaccent" unicode="&#x130;" horiz-adv-x="207" 
d="M103 974q-13 0 -21.5 8t-8.5 19q0 12 8.5 20.5t21.5 8.5t21.5 -8.5t8.5 -20.5q0 -11 -8.5 -19t-21.5 -8zM84 0v892q7 3 20 3t18 -3v-892h-38z" />
    <glyph glyph-name="dotlessi" unicode="&#x131;" horiz-adv-x="225" 
d="M94 0v653q7 2 19 2t18 -2v-653h-37z" />
    <glyph glyph-name="IJ" unicode="&#x132;" horiz-adv-x="1174" 
d="M84 0v892q7 3 20 3t18 -3v-892h-38zM632 -18q-116 0 -234 57t-212 145q5 21 24 27q87 -84 198.5 -140t221.5 -56q172 0 280.5 103.5t108.5 263.5v510q7 3 20 2.5t18 -2.5v-520q0 -160 -116.5 -275t-308.5 -115z" />
    <glyph glyph-name="ij" unicode="&#x133;" horiz-adv-x="468" 
d="M112 826q-14 0 -24 9t-10 21q0 13 10 23t24 10t24 -9.5t10 -23.5q0 -12 -10 -21t-24 -9zM350 826q-14 0 -24 9t-10 22t10 22.5t24 9.5t24 -9.5t10 -22.5t-10 -22t-24 -9zM94 0v653q7 2 19 2t18 -2v-653h-37zM231 -225q-38 0 -100 17q-5 20 9 34q56 -16 87 -16
q58 -1 81 45.5t23 159.5v638q6 2 19.5 2t18.5 -2v-657q0 -109 -29 -165t-109 -56z" />
    <glyph glyph-name="Jcircumflex" unicode="&#x134;" horiz-adv-x="1042" 
d="M918 1157l249 -222h-43l-217 196l-217 -196h-43l249 222h22zM887 892q7 3 20 2.5t18 -2.5v-520q0 -77 -29.5 -147t-82.5 -124.5t-134.5 -86.5t-178.5 -32q-116 0 -234 57.5t-211 144.5q5 22 23 27q87 -84 199 -140t221 -56q172 0 280.5 103.5t108.5 263.5v510z" />
    <glyph glyph-name="jcircumflex" unicode="&#x135;" horiz-adv-x="243" 
d="M134 961l254 -225h-46l-217 195l-217 -195h-47l254 225h19zM106 653q6 2 19.5 2t18.5 -2v-657q0 -109 -29 -165t-109 -56q-38 0 -100 17q-5 20 9 34q56 -16 87 -16q58 -1 81 45.5t23 159.5v638z" />
    <glyph glyph-name="uni0136" unicode="&#x136;" horiz-adv-x="1099" 
d="M534 469q211 -196 338.5 -305t208.5 -153v-7q-21 -6 -44 -6q-145 74 -539 454q-181 -83 -376 -155v-297h-38v892q17 9 38 0v-560q346 134 517 228q333 183 323 332q21 6 38 0q15 -159 -327 -353q-69 -38 -139 -70zM485 -292l44 211h32l-47 -211h-29z" />
    <glyph glyph-name="uni0137" unicode="&#x137;" horiz-adv-x="903" 
d="M467 332q344 -303 402 -322v-7q-12 -6 -48 -6q-67 24 -391 316q-155 -82 -324 -146v-167h-38v932q20 8 38 0v-729q210 83 397 190q131 75 182.5 130.5t46.5 127.5q20 5 43 2q10 -74 -44.5 -138.5t-193.5 -143.5zM381 -292l44 211h32l-47 -211h-29z" />
    <glyph glyph-name="kgreenlandic" unicode="&#x138;" horiz-adv-x="903" 
d="M467 332q344 -303 402 -322v-7q-12 -6 -48 -6q-67 24 -391 316q-155 -82 -324 -146v-167h-38v653q19 6 38 0v-450q210 83 397 190q131 74 182.5 131t46.5 129q17 7 43 2q10 -75 -44.5 -140t-193.5 -144z" />
    <glyph glyph-name="Lacute" unicode="&#x139;" horiz-adv-x="919" 
d="M86 935l187 192h42l-198 -192h-31zM95 0l-11 10v882q6 3 20 2.5t18 -2.5v-860h775q11 -15 0 -32h-802z" />
    <glyph glyph-name="lacute" unicode="&#x13a;" horiz-adv-x="342" 
d="M94 977l187 192h42l-198 -192h-31zM216 -18q-68 0 -100.5 45t-32.5 143v762q20 8 38 0v-755q0 -88 25 -126t80 -37q34 0 92 16q4 -3 5.5 -12.5t-0.5 -16.5q-56 -17 -107 -19z" />
    <glyph glyph-name="uni013B" unicode="&#x13b;" horiz-adv-x="919" 
d="M95 0l-11 10v882q6 3 20 2.5t18 -2.5v-860h775q11 -15 0 -32h-802zM419 -292l44 211h32l-47 -211h-29z" />
    <glyph glyph-name="uni013C" unicode="&#x13c;" horiz-adv-x="342" 
d="M216 -18q-68 0 -100.5 45t-32.5 143v762q20 8 38 0v-755q0 -88 25 -126t80 -37q34 0 92 16q4 -3 5.5 -12.5t-0.5 -16.5q-56 -17 -107 -19zM183 -309l44 211h32l-47 -211h-29z" />
    <glyph glyph-name="Lcaron" unicode="&#x13d;" horiz-adv-x="919" 
d="M627 852l16 333h36l-23 -333h-29zM95 0l-11 10v882q6 3 20 2.5t18 -2.5v-860h775q11 -15 0 -32h-802z" />
    <glyph glyph-name="lcaron" unicode="&#x13e;" horiz-adv-x="342" 
d="M315 840l16 333h36l-23 -333h-29zM216 -18q-68 0 -100.5 45t-32.5 143v762q20 8 38 0v-755q0 -88 25 -126t80 -37q34 0 92 16q4 -3 5.5 -12.5t-0.5 -16.5q-56 -17 -107 -19z" />
    <glyph glyph-name="Lslash" unicode="&#x141;" horiz-adv-x="1014" 
d="M992 32q11 -15 0 -32h-802l-10 10v325l-116 -43v35l116 43v522q6 3 19.5 2.5t18.5 -2.5v-508l461 171v-35l-461 -171v-317h774z" />
    <glyph glyph-name="lslash" unicode="&#x142;" horiz-adv-x="333" 
d="M309 30q4 -3 6 -12.5t0 -16.5q-57 -17 -107 -19q-69 0 -101 45t-32 143v356l-113 -51v33l113 51v373q19 8 37 0v-356l174 78v-33l-174 -78v-366q0 -88 25 -126t80 -37q36 0 92 16z" />
    <glyph glyph-name="Nacute" unicode="&#x143;" horiz-adv-x="1128" 
d="M780 1129l-198 -192h-31l187 192h42zM1006 892q16 8 38 0v-892h-32l-890 838v-838h-38v882q4 5 15.5 8.5t17.5 1.5l889 -838v838z" />
    <glyph glyph-name="nacute" unicode="&#x144;" horiz-adv-x="879" 
d="M701 1026l-203 -245h-30l189 245h44zM498 700q150 0 231.5 -91t81.5 -255v-354h-38v349q0 146 -71 231.5t-208 85.5q-96 0 -184 -57t-139 -143.5t-51 -172.5v-293h-38v526q0 71 -14 119v7q22 5 36 3q15 -42 15 -87v-137q44 109 150.5 189t228.5 80z" />
    <glyph glyph-name="uni0145" unicode="&#x145;" horiz-adv-x="1128" 
d="M1006 892q16 8 38 0v-892h-32l-890 838v-838h-38v882q4 5 15.5 8.5t17.5 1.5l889 -838v838zM508 -292l44 211h32l-47 -211h-29z" />
    <glyph glyph-name="uni0146" unicode="&#x146;" horiz-adv-x="879" 
d="M498 700q150 0 231.5 -91t81.5 -255v-354h-38v349q0 146 -71 231.5t-208 85.5q-96 0 -184 -57t-139 -143.5t-51 -172.5v-293h-38v526q0 71 -14 119v7q22 5 36 3q15 -42 15 -87v-137q44 109 150.5 189t228.5 80zM417 -292l44 211h32l-47 -211h-29z" />
    <glyph glyph-name="Ncaron" unicode="&#x147;" horiz-adv-x="1128" 
d="M573 941h-19l-254 216h46l218 -188l218 188h45zM1006 892q16 8 38 0v-892h-32l-890 838v-838h-38v882q4 5 15.5 8.5t17.5 1.5l889 -838v838z" />
    <glyph glyph-name="ncaron" unicode="&#x148;" horiz-adv-x="879" 
d="M505 781h-19l-254 225h47l217 -197l217 197h46zM498 700q150 0 231.5 -91t81.5 -255v-354h-38v349q0 146 -71 231.5t-208 85.5q-96 0 -184 -57t-139 -143.5t-51 -172.5v-293h-38v526q0 71 -14 119v7q22 5 36 3q15 -42 15 -87v-137q44 109 150.5 189t228.5 80z" />
    <glyph glyph-name="Eng" unicode="&#x14a;" horiz-adv-x="1128" 
d="M620 -347q-117 0 -235 49.5t-211 125.5q5 21 24 27q86 -72 198.5 -120.5t223.5 -48.5q169 0 278 90t109 228l-885 825v-829h-38v872q4 5 15.5 8.5t17.5 1.5l889 -829v828q16 8 38 0v-883q0 -142 -116 -243.5t-308 -101.5z" />
    <glyph glyph-name="eng" unicode="&#x14b;" horiz-adv-x="884" 
d="M498 700q150 0 231.5 -91t81.5 -255v-358q0 -109 -29 -165t-109 -56q-38 0 -100 17q-2 8 1 18.5t8 15.5q54 -16 87 -16q58 -1 81 44.5t23 154.5v340q0 146 -71 231.5t-208 85.5q-96 0 -184 -57t-139 -143.5t-51 -172.5v-293h-38v526q0 71 -14 119v7q22 5 36 3
q15 -41 15 -97v-139q41 115 148 198t231 83z" />
    <glyph glyph-name="Omacron" unicode="&#x14c;" horiz-adv-x="1095" 
d="M342 995v28h487v-28h-487zM499 -18q-204 0 -330.5 120.5t-126.5 298.5q0 145 76 263t205 183.5t283 65.5q124 0 227.5 -59.5t161.5 -160t58 -217.5q0 -137 -77 -251t-204 -178.5t-273 -64.5zM501 15q136 0 254 61t188.5 168t70.5 233q0 170 -120 286t-292 116
q-143 0 -263 -61.5t-189 -171.5t-69 -243q0 -161 115 -274.5t305 -113.5z" />
    <glyph glyph-name="omacron" unicode="&#x14d;" horiz-adv-x="877" 
d="M195 863v32h543v-32h-543zM411 -18q-174 0 -273.5 94.5t-99.5 231.5q0 161 124.5 276.5t307.5 115.5q165 0 266.5 -96.5t102.5 -238.5q1 -161 -120.5 -272t-307.5 -111zM413 15q169 0 278.5 102t109.5 245q0 130 -93 218t-240 88q-168 0 -280 -107t-112 -253
q0 -123 88.5 -208t248.5 -85z" />
    <glyph glyph-name="Ohungarumlaut" unicode="&#x150;" horiz-adv-x="1095" 
d="M412 973l171 178h42l-183 -178h-30zM649 973l179 178h44l-191 -178h-32zM499 -18q-204 0 -330.5 120.5t-126.5 298.5q0 145 76 263t205 183.5t283 65.5q124 0 227.5 -59.5t161.5 -160t58 -217.5q0 -137 -77 -251t-204 -178.5t-273 -64.5zM501 15q136 0 254 61t188.5 168
t70.5 233q0 170 -120 286t-292 116q-143 0 -263 -61.5t-189 -171.5t-69 -243q0 -161 115 -274.5t305 -113.5z" />
    <glyph glyph-name="ohungarumlaut" unicode="&#x151;" horiz-adv-x="877" 
d="M288 781l188 245h42l-200 -245h-30zM530 781l191 245h44l-204 -245h-31zM411 -18q-174 0 -273.5 94.5t-99.5 231.5q0 161 124.5 276.5t307.5 115.5q165 0 266.5 -96.5t102.5 -238.5q1 -161 -120.5 -272t-307.5 -111zM413 15q169 0 278.5 102t109.5 245q0 130 -93 218
t-240 88q-168 0 -280 -107t-112 -253q0 -123 88.5 -208t248.5 -85z" />
    <glyph glyph-name="OE" unicode="&#x152;" horiz-adv-x="1874" 
d="M1828 32q4 -4 4 -15t-4 -17h-813v296q-62 -141 -204 -227.5t-312 -86.5q-204 0 -330.5 120.5t-126.5 298.5q0 145 76 263t205 183.5t283 65.5q137 0 247 -71.5t162 -188.5v223l6 5h778q6 -19 -7 -32h-739v-404h637q3 -8 0.5 -18t-7.5 -14h-630v-381h775zM501 15
q136 0 254 61t188.5 168t70.5 233q0 170 -120 286t-292 116q-143 0 -263 -61.5t-189 -171.5t-69 -243q0 -161 115 -274.5t305 -113.5z" />
    <glyph glyph-name="oe" unicode="&#x153;" horiz-adv-x="1561" 
d="M1192 700q159 0 250.5 -90t84.5 -250l-10 -12l-676 -71q10 -123 98.5 -192.5t221.5 -70.5q158 0 299 108q8 -3 13.5 -12t5.5 -13q-150 -115 -322 -115q-130 0 -225 63t-122 175q-46 -107 -152.5 -172.5t-246.5 -65.5q-174 0 -273.5 94.5t-99.5 231.5q0 161 124.5 276.5
t307.5 115.5q137 0 232.5 -68.5t124.5 -178.5q43 111 142 179t223 68zM1487 373q4 142 -76 219t-219 77q-147 0 -249 -105.5t-103 -257.5zM413 15q169 0 278.5 102t109.5 245q0 130 -93 218t-240 88q-168 0 -280 -107t-112 -253q0 -123 88.5 -208t248.5 -85z" />
    <glyph glyph-name="Racute" unicode="&#x154;" horiz-adv-x="1086" 
d="M723 1140l-198 -192h-31l187 192h42zM656 316q270 -251 382 -307v-6q-18 -5 -44 -5q-100 44 -386 310q-53 -7 -118 -7q-94 1 -198.5 15.5t-169.5 30.5v-347h-38v871q98 24 191 33t233 9q210 0 335.5 -83t125.5 -229q0 -112 -86.5 -185t-226.5 -100zM490 333
q86 -1 163.5 15.5t140.5 48.5t99.5 85t36.5 120q-1 125 -111.5 202t-314.5 77q-231 0 -382 -36v-464q177 -46 368 -48z" />
    <glyph glyph-name="racute" unicode="&#x155;" horiz-adv-x="625" 
d="M535 1054l-203 -245h-30l189 245h44zM590 676q5 -17 -10 -34q-58 23 -112 23q-156 -1 -252 -111.5t-96 -258.5v-295h-38v526q0 71 -14 119v7q22 5 34 3q14 -39 14 -87v-143q33 116 127 195.5t227 79.5q57 0 120 -24z" />
    <glyph glyph-name="uni0156" unicode="&#x156;" horiz-adv-x="1086" 
d="M656 316q270 -251 382 -307v-6q-18 -5 -44 -5q-100 44 -386 310q-53 -7 -118 -7q-94 1 -198.5 15.5t-169.5 30.5v-347h-38v871q98 24 191 33t233 9q210 0 335.5 -83t125.5 -229q0 -112 -86.5 -185t-226.5 -100zM490 333q86 -1 163.5 15.5t140.5 48.5t99.5 85t36.5 120
q-1 125 -111.5 202t-314.5 77q-231 0 -382 -36v-464q177 -46 368 -48zM473 -292l44 211h32l-47 -211h-29z" />
    <glyph glyph-name="uni0157" unicode="&#x157;" horiz-adv-x="625" 
d="M590 676q5 -17 -10 -34q-58 23 -112 23q-156 -1 -252 -111.5t-96 -258.5v-295h-38v526q0 71 -14 119v7q22 5 34 3q14 -39 14 -87v-143q33 116 127 195.5t227 79.5q57 0 120 -24zM81 -292l44 211h32l-47 -211h-29z" />
    <glyph glyph-name="Rcaron" unicode="&#x158;" horiz-adv-x="1086" 
d="M516 952h-19l-254 216h46l218 -188l218 188h45zM656 316q270 -251 382 -307v-6q-18 -5 -44 -5q-100 44 -386 310q-53 -7 -118 -7q-94 1 -198.5 15.5t-169.5 30.5v-347h-38v871q98 24 191 33t233 9q210 0 335.5 -83t125.5 -229q0 -112 -86.5 -185t-226.5 -100zM490 333
q86 -1 163.5 15.5t140.5 48.5t99.5 85t36.5 120q-1 125 -111.5 202t-314.5 77q-231 0 -382 -36v-464q177 -46 368 -48z" />
    <glyph glyph-name="rcaron" unicode="&#x159;" horiz-adv-x="625" 
d="M339 809h-19l-254 225h47l217 -197l217 197h46zM470 700q57 0 120 -24q5 -17 -10 -34q-58 23 -112 23q-156 -1 -252 -111.5t-96 -258.5v-295h-38v526q0 71 -14 119v7q22 5 34 3q14 -39 14 -87v-143q33 116 127 195.5t227 79.5z" />
    <glyph glyph-name="Sacute" unicode="&#x15a;" horiz-adv-x="1025" 
d="M521 958l187 192h42l-198 -192h-31zM545 -18q-138 0 -269.5 36t-233.5 103q6 24 22 30q209 -137 478 -137q189 0 295.5 61.5t106.5 159.5q0 57 -34 97t-98.5 62t-132.5 32t-159 15q-104 5 -182 26.5t-131 72.5t-53 127q0 60 35 109t91.5 77.5t122 44t130.5 15.5
q207 0 323 -72.5t116 -183.5q-24 -7 -40 -4q-2 107 -110.5 167.5t-288.5 60.5q-86 0 -162 -23.5t-127 -73.5t-51 -117q0 -50 28.5 -88t78 -59.5t105.5 -32.5t122 -14q103 -4 182 -18t143 -40.5t97.5 -71t33.5 -106.5q0 -110 -114 -182.5t-324 -72.5z" />
    <glyph glyph-name="sacute" unicode="&#x15b;" horiz-adv-x="835" 
d="M395 781l189 245h44l-203 -245h-30zM437 -18q-102 0 -208 27.5t-185 85.5q2 17 18 28q71 -53 172 -80.5t205 -27.5q145 0 229 46.5t83 116.5q0 80 -76 114t-263 42q-331 14 -331 178q0 80 88 134t253 54q79 0 176.5 -22.5t175.5 -67.5q-3 -15 -13 -30q-76 44 -169 66
t-168 22q-154 0 -229.5 -47t-75.5 -109q0 -135 298 -147q204 -8 288.5 -50.5t84.5 -135.5q0 -90 -98.5 -143.5t-254.5 -53.5z" />
    <glyph glyph-name="Scedilla" unicode="&#x15e;" horiz-adv-x="1025" 
d="M983 237q0 -108 -111 -180.5t-316 -74.5q1 -31 12 -49t54 -61q53 -53 53 -106q1 -43 -30 -72.5t-78 -30.5q-62 0 -119 53l22 19q48 -45 97 -45q34 1 56 23t21 54q-1 44 -53 97q-41 41 -52 62.5t-12 55.5q-282 5 -485 139q6 24 22 30q209 -137 478 -137q189 0 295.5 61.5
t106.5 159.5q0 57 -34 97t-98.5 62t-132.5 32t-159 15q-104 5 -182 26.5t-131 72.5t-53 127q0 60 35 109t91.5 77.5t122 44t130.5 15.5q207 0 323 -72.5t116 -183.5q-24 -7 -40 -4q-2 107 -110.5 167.5t-288.5 60.5q-86 0 -162 -23.5t-127 -73.5t-51 -117q0 -50 28.5 -88
t78 -59.5t105.5 -32.5t122 -14q103 -4 182 -18t143 -40.5t97.5 -71t33.5 -106.5z" />
    <glyph glyph-name="scedilla" unicode="&#x15f;" horiz-adv-x="835" 
d="M790 179q0 -90 -98.5 -143.5t-254.5 -53.5h-5q1 -30 12.5 -48t53.5 -60q53 -53 53 -106q1 -44 -30 -73.5t-78 -30.5q-62 0 -119 53l22 19q48 -45 97 -45q34 1 56 23t21 55q-1 44 -53 96q-40 41 -51.5 62.5t-12.5 55.5q-96 4 -191.5 31.5t-167.5 80.5q2 17 18 28
q71 -53 172 -80.5t205 -27.5q145 0 229 46.5t83 116.5q0 80 -76 114t-263 42q-331 14 -331 178q0 80 88 134t253 54q79 0 176.5 -22.5t175.5 -67.5q-3 -15 -13 -30q-76 44 -169 66t-168 22q-154 0 -229.5 -47t-75.5 -109q0 -135 298 -147q204 -8 288.5 -50.5t84.5 -135.5z
" />
    <glyph glyph-name="Scaron" unicode="&#x160;" horiz-adv-x="1025" 
d="M542 962h-19l-254 216h46l218 -188l218 188h45zM527 473q103 -4 182 -18t143 -40.5t97.5 -71t33.5 -106.5q0 -110 -114 -182.5t-324 -72.5q-138 0 -269.5 36t-233.5 103q6 24 22 30q209 -137 478 -137q189 0 295.5 61.5t106.5 159.5q0 57 -34 97t-98.5 62t-132.5 32
t-159 15q-104 5 -182 26.5t-131 72.5t-53 127q0 60 35 109t91.5 77.5t122 44t130.5 15.5q207 0 323 -72.5t116 -183.5q-24 -7 -40 -4q-2 107 -110.5 167.5t-288.5 60.5q-86 0 -162 -23.5t-127 -73.5t-51 -117q0 -50 28.5 -88t78 -59.5t105.5 -32.5t122 -14z" />
    <glyph glyph-name="scaron" unicode="&#x161;" horiz-adv-x="835" 
d="M432 781h-19l-254 225h47l217 -197l217 197h46zM417 365q204 -8 288.5 -50.5t84.5 -135.5q0 -90 -98.5 -143.5t-254.5 -53.5q-102 0 -208 27.5t-185 85.5q2 17 18 28q71 -53 172 -80.5t205 -27.5q145 0 229 46.5t83 116.5q0 80 -76 114t-263 42q-331 14 -331 178
q0 80 88 134t253 54q79 0 176.5 -22.5t175.5 -67.5q-3 -15 -13 -30q-76 44 -169 66t-168 22q-154 0 -229.5 -47t-75.5 -109q0 -135 298 -147z" />
    <glyph glyph-name="uni0162" unicode="&#x162;" horiz-adv-x="1040" 
d="M518 860v-860h-6q0 -35 11 -54.5t55 -63.5q53 -53 53 -106q1 -43 -30 -72.5t-78 -30.5q-62 0 -119 53l22 19q48 -45 97 -45q34 1 56 23t21 54q-1 44 -53 97q-43 43 -53.5 65t-10.5 61h-4v860h-436q-6 18 6 32h948q5 -18 -7 -32h-472z" />
    <glyph glyph-name="uni0163" unicode="&#x163;" horiz-adv-x="595" 
d="M572 621h-416v-326q0 -132 65.5 -206t185.5 -74q66 0 141 22q13 -13 7 -32q-81 -23 -149 -23q-55 0 -103 14q1 -28 13 -46.5t53 -59.5q53 -53 53 -106q1 -44 -30 -73.5t-78 -30.5q-62 0 -119 53l22 19q48 -45 97 -45q34 1 56 23t21 55q-1 44 -53 96q-43 44 -53.5 65.5
t-10.5 60.5q-74 34 -114.5 106.5t-40.5 179.5v328h-108v32h108v182q18 10 37 7v-189h416v-32z" />
    <glyph glyph-name="Tcaron" unicode="&#x164;" horiz-adv-x="1040" 
d="M513 941h-19l-254 216h46l218 -188l218 188h45zM997 892q5 -18 -7 -32h-472v-860h-39v860h-436q-6 18 6 32h948z" />
    <glyph glyph-name="tcaron" unicode="&#x165;" horiz-adv-x="595" 
d="M556 1071l-23 -333h-29l16 333h36zM572 621h-416v-326q0 -132 65.5 -206t185.5 -74q66 0 141 22q13 -13 7 -32q-81 -23 -149 -23q-132 -1 -209.5 80t-77.5 231v328h-108v32h108v182q18 10 37 7v-189h416v-32z" />
    <glyph glyph-name="Tbar" unicode="&#x166;" horiz-adv-x="1048" 
d="M992 860h-472v-386h242v-30h-242v-444h-39v444h-241v30h241v386h-436q-4 17 6 32h948q5 -18 -7 -32z" />
    <glyph glyph-name="tbar" unicode="&#x167;" horiz-adv-x="586" 
d="M563 626h-416v-184h416v-29h-416v-118q0 -131 66 -205.5t186 -74.5q65 0 140 22q13 -13 7 -32q-81 -23 -149 -23q-132 -1 -209.5 80t-77.5 231v120h-108v29h108v184h-108v29h108v180q18 10 37 7v-187h416v-29z" />
    <glyph glyph-name="Umacron" unicode="&#x16a;" horiz-adv-x="1126" 
d="M319 992v28h487v-28h-487zM548 -19q-219 0 -341.5 103t-122.5 302v506q18 8 40 0v-508q0 -181 113 -275.5t311 -94.5q206 0 330.5 106.5t124.5 275.5v496q15 7 39 0v-498q0 -177 -132 -295t-362 -118z" />
    <glyph glyph-name="umacron" unicode="&#x16b;" horiz-adv-x="866" 
d="M693 895v-32h-543v32h543zM792 136q0 -59 4.5 -84t18.5 -44v-8h-32q-14 17 -20 39.5t-6 78.5v95q-38 -101 -145.5 -166t-247.5 -65q-137 0 -216.5 72t-79.5 218v381q15 5 38 0v-375q0 -135 71 -199t192 -64q165 0 275.5 96t110.5 236v306q14 6 37 0v-517z" />
    <glyph glyph-name="Uring" unicode="&#x16e;" horiz-adv-x="1126" 
d="M566 894q-96 0 -158 36.5t-62 99.5q0 60 60.5 98.5t159.5 38.5q89 0 151.5 -38.5t62.5 -98.5q0 -59 -66 -97.5t-148 -38.5zM565 915q75 0 132 34t57 81q0 49 -56 82.5t-133 33.5q-85 0 -138.5 -33t-53.5 -83t51.5 -82.5t140.5 -32.5zM548 -19q-219 0 -341.5 103
t-122.5 302v506q18 8 40 0v-508q0 -181 113 -275.5t311 -94.5q206 0 330.5 106.5t124.5 275.5v496q15 7 39 0v-498q0 -177 -132 -295t-362 -118z" />
    <glyph glyph-name="uring" unicode="&#x16f;" horiz-adv-x="866" 
d="M423 773q-96 0 -158 36.5t-62 99.5q0 60 60.5 98.5t159.5 38.5q89 0 151.5 -38.5t62.5 -98.5q0 -59 -66 -97.5t-148 -38.5zM422 1025q-85 0 -138.5 -33t-53.5 -83t51.5 -82.5t140.5 -32.5q75 0 132 34t57 81q0 49 -56 82.5t-133 33.5zM792 136q0 -59 4.5 -84t18.5 -44v-8
h-32q-14 17 -20 39.5t-6 78.5v95q-38 -101 -145.5 -166t-247.5 -65q-137 0 -216.5 72t-79.5 218v381q15 5 38 0v-375q0 -135 71 -199t192 -64q165 0 275.5 96t110.5 236v306q14 6 37 0v-517z" />
    <glyph glyph-name="Uhungarumlaut" unicode="&#x170;" horiz-adv-x="1126" 
d="M389 970l171 178h42l-183 -178h-30zM626 970l179 178h44l-191 -178h-32zM548 -19q-219 0 -341.5 103t-122.5 302v506q18 8 40 0v-508q0 -181 113 -275.5t311 -94.5q206 0 330.5 106.5t124.5 275.5v496q15 7 39 0v-498q0 -177 -132 -295t-362 -118z" />
    <glyph glyph-name="uhungarumlaut" unicode="&#x171;" horiz-adv-x="866" 
d="M473 1026l-200 -245h-30l188 245h42zM720 1026l-204 -245h-31l191 245h44zM792 136q0 -59 4.5 -84t18.5 -44v-8h-32q-14 17 -20 39.5t-6 78.5v95q-38 -101 -145.5 -166t-247.5 -65q-137 0 -216.5 72t-79.5 218v381q15 5 38 0v-375q0 -135 71 -199t192 -64q165 0 275.5 96
t110.5 236v306q14 6 37 0v-517z" />
    <glyph glyph-name="Uogonek" unicode="&#x172;" horiz-adv-x="1126" 
d="M1003 892q15 7 39 0v-498q0 -175 -129 -292.5t-355 -120.5q-71 -54 -108.5 -114t-37.5 -107q0 -40 26.5 -60t68.5 -18q36 0 74.5 17t61.5 43l20 -16q-27 -32 -72.5 -53t-88.5 -21q-53 -1 -86.5 25t-33.5 78q0 48 37 110.5t105 115.5q-208 6 -324 109t-116 296v506
q18 8 40 0v-508q0 -181 113 -275.5t311 -94.5q206 0 330.5 106.5t124.5 275.5v496z" />
    <glyph glyph-name="uogonek" unicode="&#x173;" horiz-adv-x="866" 
d="M884 -242l20 -16q-27 -32 -72.5 -53t-88.5 -21q-53 -1 -86.5 25t-33.5 78q0 51 40.5 116.5t113.5 119.5q-20 28 -20 111v95q-38 -101 -145.5 -166t-247.5 -65q-137 0 -216.5 72t-79.5 218v381q15 5 38 0v-375q0 -135 71 -199t192 -64q165 0 275.5 96t110.5 236v306
q14 6 37 0v-517q0 -59 4.5 -84t18.5 -44v-8h-12q-73 -55 -111.5 -115.5t-38.5 -108.5q0 -40 26.5 -60t68.5 -18q36 0 74.5 17t61.5 43z" />
    <glyph glyph-name="Wcircumflex" unicode="&#x174;" horiz-adv-x="1533" 
d="M768 1131l-217 -196h-43l249 222h22l249 -222h-43zM1509 892q33 -190 -67 -428t-300 -454l-18 -10h-40l-8 6q-30 69 -101 222.5t-101 212.5q-27 -76 -126 -225t-155 -210l-14 -6h-36l-14 8q-93 227 -243 472t-272 405l3 7q18 5 37 0q141 -190 281 -420t225 -439h7
q81 99 172 236.5t119 219.5q-75 156 -115 236q8 16 34 14q57 -105 167 -339t164 -367h6q189 210 288.5 440t68.5 417q13 8 38 2z" />
    <glyph glyph-name="wcircumflex" unicode="&#x175;" horiz-adv-x="1253" 
d="M627 931l-217 -195h-47l254 225h19l254 -225h-46zM1242 653q14 -128 -80 -309.5t-236 -336.5l-11 -7h-40l-11 7q-55 150 -159 353q-23 -56 -102.5 -175t-135.5 -178l-10 -7h-43l-9 7q-21 55 -46.5 109.5t-52 103t-52 92t-54 84.5t-50 72t-47.5 63.5t-39.5 49.5t-33 40
t-21.5 25l3 7q22 4 36 0q3 -4 31 -37t48 -59l55 -71.5t64.5 -92.5t63.5 -104t66 -122.5t58 -133.5h7q63 73 136 182.5t108 188.5l-92 162q3 6 14 11t21 4q182 -311 265 -548h8q82 92 150 192.5t115 218t40 207.5q12 6 36 2z" />
    <glyph glyph-name="Ycircumflex" unicode="&#x176;" horiz-adv-x="1001" 
d="M502 1131l-217 -196h-43l249 222h22l249 -222h-43zM986 892q18 -269 -433 -603v-289h-38v291q-53 72 -243 299.5t-257 294.5l3 7q22 6 44 0q48 -46 215.5 -247t262.5 -320q187 134 301.5 284t105.5 281q14 7 39 2z" />
    <glyph glyph-name="ycircumflex" unicode="&#x177;" horiz-adv-x="817" 
d="M409 931l-217 -195h-47l254 225h19l254 -225h-46zM804 653q10 -106 -21.5 -234t-115.5 -272t-208 -257q-164 -149 -347 -149q-61 0 -97 16q-8 15 -1 29l8 4q30 -17 91 -17q171 1 327 148q54 50 92 97q-86 42 -175 128.5t-157.5 183t-116.5 177.5t-73 138l3 7q15 5 37 1
q22 -52 67 -128.5t110.5 -171t153 -180t172.5 -129.5q113 142 168 302t46 304q15 10 37 3z" />
    <glyph glyph-name="Ydieresis" unicode="&#x178;" horiz-adv-x="1001" 
d="M333 983q-12 0 -21 8t-9 19q0 12 9 20.5t21 8.5q13 0 22 -8.5t9 -20.5q0 -11 -9 -19t-22 -8zM669 983q-13 0 -21.5 8t-8.5 19q0 12 8.5 20.5t21.5 8.5q12 0 21 -8.5t9 -20.5q0 -11 -9 -19t-21 -8zM986 892q18 -269 -433 -603v-289h-38v291q-53 72 -243 299.5t-257 294.5
l3 7q22 6 44 0q48 -46 215.5 -247t262.5 -320q187 134 301.5 284t105.5 281q14 7 39 2z" />
    <glyph glyph-name="Zacute" unicode="&#x179;" horiz-adv-x="997" 
d="M715 1129l-198 -192h-31l187 192h42zM951 32q4 -4 4 -15t-4 -17h-899q-12 7 -10 26q177 250 402 486.5t409 347.5h-772q-5 4 -5 14.5t5 17.5h834q5 -3 8.5 -13t2.5 -17q-196 -112 -424.5 -348.5t-405.5 -481.5h855z" />
    <glyph glyph-name="zacute" unicode="&#x17a;" horiz-adv-x="780" 
d="M596 1026l-203 -245h-30l189 245h44zM765 33q5 -4 5 -14.5t-5 -18.5h-747q-9 9 -7 27q368 473 670 593h-639q-10 12 0 33h713q3 -3 6 -14.5t1 -19.5q-158 -50 -344 -216t-347 -370h694z" />
    <glyph glyph-name="Zdotaccent" unicode="&#x17b;" horiz-adv-x="997" 
d="M498 974q-13 0 -21.5 8t-8.5 19q0 12 8.5 20.5t21.5 8.5t21.5 -8.5t8.5 -20.5q0 -11 -8.5 -19t-21.5 -8zM951 32q4 -4 4 -15t-4 -17h-899q-12 7 -10 26q177 250 402 486.5t409 347.5h-772q-5 4 -5 14.5t5 17.5h834q5 -3 8.5 -13t2.5 -17q-196 -112 -424.5 -348.5
t-405.5 -481.5h855z" />
    <glyph glyph-name="zdotaccent" unicode="&#x17c;" horiz-adv-x="780" 
d="M390 826q-14 0 -24 9t-10 21q0 13 10 23t24 10t24 -9.5t10 -23.5q0 -12 -10 -21t-24 -9zM765 33q5 -4 5 -14.5t-5 -18.5h-747q-9 9 -7 27q368 473 670 593h-639q-10 12 0 33h713q3 -3 6 -14.5t1 -19.5q-158 -50 -344 -216t-347 -370h694z" />
    <glyph glyph-name="Zcaron" unicode="&#x17d;" horiz-adv-x="997" 
d="M508 941h-19l-254 216h46l218 -188l218 188h45zM951 32q4 -4 4 -15t-4 -17h-899q-12 7 -10 26q177 250 402 486.5t409 347.5h-772q-5 4 -5 14.5t5 17.5h834q5 -3 8.5 -13t2.5 -17q-196 -112 -424.5 -348.5t-405.5 -481.5h855z" />
    <glyph glyph-name="zcaron" unicode="&#x17e;" horiz-adv-x="780" 
d="M400 781h-19l-254 225h47l217 -197l217 197h46zM765 33q5 -4 5 -14.5t-5 -18.5h-747q-9 9 -7 27q368 473 670 593h-639q-10 12 0 33h713q3 -3 6 -14.5t1 -19.5q-158 -50 -344 -216t-347 -370h694z" />
    <glyph glyph-name="longs" unicode="&#x17f;" horiz-adv-x="342" 
d="M99 0v625q0 313 238 313q60 0 143 -22q1 -6 -1.5 -17t-6.5 -15q-72 22 -129 22q-207 0 -207 -279v-627h-37z" />
    <glyph glyph-name="florin" unicode="&#x192;" horiz-adv-x="546" 
d="M435 384v-32h-144q19 -224 19 -327q0 -228 -147 -228v33q60 0 85 51.5t25 145.5q0 99 -19 325h-143v32h140q-13 156 -13 259q0 226 148 226v-32q-112 0 -112 -197q0 -107 14 -256h147z" />
    <glyph glyph-name="uni01C7" unicode="&#x1c7;" horiz-adv-x="1964" 
d="M95 0l-11 10v882q6 3 20 2.5t18 -2.5v-860h775q11 -15 0 -32h-802zM1422 -18q-116 0 -234 57.5t-211 144.5q5 22 23 27q87 -84 199 -140t221 -56q172 0 281 103.5t109 263.5v510q6 3 19 2.5t19 -2.5v-520q0 -77 -29.5 -147t-83 -124.5t-135 -86.5t-178.5 -32z" />
    <glyph glyph-name="uni01C8" unicode="&#x1c8;" horiz-adv-x="1165" 
d="M95 0l-11 10v882q6 3 20 2.5t18 -2.5v-860h775q11 -15 0 -32h-802zM1047 826q-14 0 -24 9t-10 22t10 22.5t24 9.5t24 -9.5t10 -22.5t-10 -22t-24 -9zM928 -225q-38 0 -100 17q-5 20 9 34q56 -16 87 -16q59 -1 82 45.5t23 159.5v638q6 2 19 2t18 -2v-657q0 -109 -29 -165
t-109 -56z" />
    <glyph glyph-name="uni01C9" unicode="&#x1c9;" horiz-adv-x="585" 
d="M216 -18q-68 0 -100.5 45t-32.5 143v762q20 8 38 0v-755q0 -88 25 -126t80 -37q34 0 92 16q4 -3 5.5 -12.5t-0.5 -16.5q-56 -17 -107 -19zM467 826q-14 0 -24 9t-10 21q0 13 10 23t24 10t24 -9.5t10 -23.5q0 -12 -10 -21t-24 -9zM348 -225q-38 0 -100 17q-5 20 9 34
q56 -16 87 -16q58 -1 81 45.5t23 159.5v638q6 2 19.5 2t18.5 -2v-657q0 -109 -29 -165t-109 -56z" />
    <glyph glyph-name="uni01CA" unicode="&#x1ca;" horiz-adv-x="2138" 
d="M1006 892q16 8 38 0v-892h-32l-890 838v-838h-38v882q4 5 15.5 8.5t17.5 1.5l889 -838v838zM1983 892q7 3 20 2.5t18 -2.5v-520q0 -160 -116.5 -275t-308.5 -115q-116 0 -234 57t-212 145q5 21 24 27q87 -84 198.5 -140t221.5 -56q172 0 280.5 103.5t108.5 263.5v510z
" />
    <glyph glyph-name="uni01CB" unicode="&#x1cb;" horiz-adv-x="1339" 
d="M1012 0l-890 838v-838h-38v882q4 5 15.5 8.5t17.5 1.5l889 -838v838q16 8 38 0v-892h-32zM1221 889q14 0 24 -9.5t10 -22.5t-10 -22t-24 -9t-24 9t-10 22t10 22.5t24 9.5zM1202 653q6 2 19.5 2t18.5 -2v-657q0 -109 -29 -165t-109 -56q-40 0 -100 17q-2 8 1 18.5t8 15.5
q54 -16 86 -16q59 -1 82 45.5t23 159.5v638z" />
    <glyph glyph-name="uni01CC" unicode="&#x1cc;" horiz-adv-x="1611" 
d="M988 889q14 0 24 -9.5t10 -23.5q0 -12 -10 -21t-24 -9t-24 9t-10 21q0 13 10 23t24 10zM773 0v349q0 146 -71 231.5t-208 85.5q-96 0 -184 -57t-139 -143.5t-51 -172.5v-293h-38v526q0 71 -14 119v7q22 5 36 3q15 -42 15 -87v-137q44 109 150.5 189t228.5 80
q150 0 231.5 -91t81.5 -255v-354h-38zM969 653q6 2 19.5 2t18.5 -2v-657q0 -109 -29 -165t-109 -56q-40 0 -100 17q-2 8 1 18.5t8 15.5q54 -16 86 -16q59 -1 82 45.5t23 159.5v638z" />
    <glyph glyph-name="uni01CD" unicode="&#x1cd;" horiz-adv-x="1103" 
d="M573 942h-19l-254 216h45l219 -188l217 188h46zM582 892q50 -84 263 -459.5t244 -426.5l-2 -6q-32 0 -43 3q-29 48 -134 237h-712l-140 -240h-44l525 892q7 3 21.5 3t21.5 -3zM217 272h675q-255 457 -331 588z" />
    <glyph glyph-name="uni01CE" unicode="&#x1ce;" horiz-adv-x="815" 
d="M433 781h-19l-254 225h47l217 -197l217 197h46zM740 136q0 -42 4.5 -67.5t10 -36t18.5 -27.5l-1 -5h-36q-19 19 -27 42t-8 79l-1 120q-48 -112 -163 -185.5t-257 -73.5q-110 0 -173 45.5t-63 116.5q0 87 76 146t189.5 83t254.5 23q55 0 132 -5q-7 131 -80 205t-194 74
q-131 0 -297 -94q-12 7 -15 28q169 96 311 96q147 0 232 -90.5t86 -257.5zM697 350l1 14q-61 5 -137 5q-98 1 -182.5 -12t-151 -39t-104.5 -69.5t-38 -100.5q0 -61 52.5 -97.5t147.5 -36.5q88 0 167 32.5t130.5 82.5t82 108.5t32.5 112.5z" />
    <glyph glyph-name="uni01CF" unicode="&#x1cf;" horiz-adv-x="207" 
d="M113 941h-19l-254 216h46l218 -188l218 188h45zM84 892q7 3 20 3t18 -3v-892h-38v892z" />
    <glyph glyph-name="uni01D0" unicode="&#x1d0;" horiz-adv-x="225" 
d="M122 781h-19l-254 225h47l217 -197l217 197h46zM94 653q7 2 19 2t18 -2v-653h-37v653z" />
    <glyph glyph-name="uni01D2" unicode="&#x1d2;" horiz-adv-x="877" 
d="M475 781h-19l-254 225h47l217 -196l217 196h46zM839 365q1 -161 -120.5 -272t-307.5 -111q-174 0 -273.5 94.5t-99.5 231.5q0 161 124.5 276.5t307.5 115.5q165 0 266.5 -96.5t102.5 -238.5zM413 15q169 0 278.5 102t109.5 245q0 130 -93 218t-240 88q-168 0 -280 -107
t-112 -253q0 -123 88.5 -208t248.5 -85z" />
    <glyph glyph-name="uni01D3" unicode="&#x1d3;" horiz-adv-x="1126" 
d="M573 950h-19l-254 216h45l218 -188l218 188h46zM1003 892q15 7 39 0v-498q0 -177 -132 -295t-362 -118q-219 0 -341.5 103t-122.5 302v506q18 8 40 0v-508q0 -181 113 -275.5t311 -94.5q206 0 330.5 106.5t124.5 275.5v496z" />
    <glyph glyph-name="uni01D4" unicode="&#x1d4;" horiz-adv-x="866" 
d="M430 781h-19l-254 225h47l217 -196l217 196h46zM792 136q0 -59 4.5 -84t18.5 -44v-8h-32q-14 17 -20 39.5t-6 78.5v95q-38 -101 -145.5 -166t-247.5 -65q-137 0 -216.5 72t-79.5 218v381q15 5 38 0v-375q0 -135 71 -199t192 -64q165 0 275.5 96t110.5 236v306q14 6 37 0
v-517z" />
    <glyph glyph-name="uni01E2" unicode="&#x1e2;" horiz-adv-x="1765" 
d="M1373 1008v-28h-488v28h488zM1719 32q5 -4 5 -15t-5 -17h-814v240h-602l-237 -240h-52l887 892h789q5 -18 -6 -32h-741v-414h639q2 -7 -0.5 -17.5t-7.5 -14.5h-631v-382h776zM334 272h571v579z" />
    <glyph glyph-name="uni01E3" unicode="&#x1e3;" horiz-adv-x="1458" 
d="M995 895v-32h-543v32h543zM1089 700q158 0 250 -90t85 -250l-10 -11l-676 -70q9 -123 98 -193.5t222 -71.5q158 0 298 108q8 -3 13.5 -12t5.5 -13q-148 -115 -321 -115q-133 0 -229 65.5t-121 181.5q-54 -108 -171 -178t-253 -69q-110 0 -173 45.5t-63 116.5q0 66 43 116
t117 79.5t164.5 43.5t194.5 13q54 0 131 -5q-8 130 -80.5 204t-191.5 74q-129 0 -297 -93q-12 7 -15 28q169 96 311 96q121 0 201.5 -61.5t104.5 -176.5q45 108 143 173t219 65zM1383 371q4 143 -75.5 220.5t-218.5 77.5q-148 0 -249.5 -105.5t-102.5 -257.5zM695 350v14
q-60 5 -134 5q-98 1 -182.5 -12t-151 -39t-104.5 -69.5t-38 -100.5q0 -61 52.5 -97.5t147.5 -36.5q113 0 208.5 52.5t147 129t54.5 154.5z" />
    <glyph glyph-name="Gcaron" unicode="&#x1e6;" horiz-adv-x="1311" 
d="M647 962h-19l-254 216h45l218 -188l218 188h45zM1075 617q-22 -9 -42 -3q1 119 -112 192.5t-283 73.5q-107 0 -198 -35t-151.5 -94.5t-94 -138.5t-33.5 -166q0 -198 138 -314.5t358 -116.5q97 0 199 23t180 67v277h-428q-5 18 8 33h449l9 -8v-320q-81 -51 -194.5 -78
t-222.5 -27q-235 0 -385 125.5t-150 339.5q0 91 36 175t100.5 149t163 103.5t215.5 38.5q187 0 315 -83t123 -213z" />
    <glyph glyph-name="gcaron" unicode="&#x1e7;" horiz-adv-x="861" 
d="M433 736h-19l-254 225h47l217 -197l217 197h46zM759 658q15 1 34 -3v-7q-14 -71 -14 -140v-428q0 -169 -103.5 -265.5t-265.5 -96.5q-176 0 -346 114q4 22 16 29q166 -111 327 -111q147 0 241.5 88.5t95.5 241.5l1 164q-34 -115 -134.5 -188.5t-233.5 -73.5
q-143 0 -241.5 90.5t-97.5 244.5q1 162 113 272.5t278 110.5q115 0 199.5 -65t116.5 -159l-1 94zM378 14q149 0 255 100.5t106 256.5q0 49 -21 100.5t-58.5 95.5t-96.5 72.5t-127 28.5q-153 0 -255.5 -101.5t-104.5 -248.5q-2 -131 82.5 -217.5t219.5 -86.5z" />
    <glyph glyph-name="uni01E8" unicode="&#x1e8;" horiz-adv-x="1099" 
d="M574 941h-19l-254 216h46l218 -188l218 188h45zM534 469q211 -196 338.5 -305t208.5 -153v-7q-21 -6 -44 -6q-145 74 -539 454q-181 -83 -376 -155v-297h-38v892q17 9 38 0v-560q346 134 517 228q333 183 323 332q21 6 38 0q15 -159 -327 -353q-69 -38 -139 -70z" />
    <glyph glyph-name="uni01E9" unicode="&#x1e9;" horiz-adv-x="903" 
d="M468 1010h-19l-254 225h47l217 -197l217 197h46zM467 332q344 -303 402 -322v-7q-12 -6 -48 -6q-67 24 -391 316q-155 -82 -324 -146v-167h-38v932q20 8 38 0v-729q210 83 397 190q131 75 182.5 130.5t46.5 127.5q20 5 43 2q10 -74 -44.5 -138.5t-193.5 -143.5z" />
    <glyph glyph-name="uni01EB" unicode="&#x1eb;" horiz-adv-x="877" 
d="M466 -15q-72 -54 -109.5 -114t-37.5 -108q0 -40 26.5 -60t68.5 -18q36 0 74.5 17t61.5 43l19 -16q-26 -32 -71.5 -53t-88.5 -21q-53 -1 -86.5 25t-33.5 78q0 48 36.5 110t102.5 114h-17q-174 0 -273.5 94.5t-99.5 231.5q0 161 124.5 276.5t307.5 115.5q165 0 266.5 -96.5
t102.5 -238.5q1 -148 -103 -255.5t-270 -124.5zM76 308q0 -123 88.5 -208t248.5 -85q169 0 278.5 102t109.5 245q0 130 -93 218t-240 88q-168 0 -280 -107t-112 -253z" />
    <glyph glyph-name="uni01F0" unicode="&#x1f0;" horiz-adv-x="243" 
d="M134 781h-19l-254 225h47l217 -197l217 197h46zM106 653q6 2 19.5 2t18.5 -2v-657q0 -109 -29 -165t-109 -56q-38 0 -100 17q-5 20 9 34q56 -16 87 -16q58 -1 81 45.5t23 159.5v638z" />
    <glyph glyph-name="uni01F4" unicode="&#x1f4;" horiz-adv-x="1039" 
d="M773 1150l-198 -192h-31l188 192h41zM995 617q-22 -9 -42 -3q1 119 -112 192.5t-283 73.5q-107 0 -198 -35t-151.5 -94.5t-94 -138.5t-33.5 -166q0 -198 138 -314.5t358 -116.5q97 0 199 23t180 67v277h-428q-5 18 8 33h449l9 -8v-320q-81 -51 -194.5 -78t-222.5 -27
q-235 0 -385 125.5t-150 339.5q0 91 36 175t100.5 149t163 103.5t215.5 38.5q187 0 315 -83t123 -213z" />
    <glyph glyph-name="uni01F4" unicode="&#x1f5;" horiz-adv-x="1039" 
d="M773 1150l-198 -192h-31l188 192h41zM995 617q-22 -9 -42 -3q1 119 -112 192.5t-283 73.5q-107 0 -198 -35t-151.5 -94.5t-94 -138.5t-33.5 -166q0 -198 138 -314.5t358 -116.5q97 0 199 23t180 67v277h-428q-5 18 8 33h449l9 -8v-320q-81 -51 -194.5 -78t-222.5 -27
q-235 0 -385 125.5t-150 339.5q0 91 36 175t100.5 149t163 103.5t215.5 38.5q187 0 315 -83t123 -213z" />
    <glyph glyph-name="uni01F8" unicode="&#x1f8;" horiz-adv-x="1128" 
d="M619 964h-30l-197 187h38zM1006 892q16 8 38 0v-892h-32l-890 838v-838h-38v882q4 5 15.5 8.5t17.5 1.5l889 -838v838z" />
    <glyph glyph-name="uni01F9" unicode="&#x1f9;" horiz-adv-x="879" 
d="M587 781h-31l-208 245h44zM498 700q150 0 231.5 -91t81.5 -255v-354h-38v349q0 146 -71 231.5t-208 85.5q-96 0 -184 -57t-139 -143.5t-51 -172.5v-293h-38v526q0 71 -14 119v7q22 5 36 3q15 -42 15 -87v-137q44 109 150.5 189t228.5 80z" />
    <glyph glyph-name="Aringacute" unicode="&#x1fa;" horiz-adv-x="1103" 
d="M678 1311l-110 -162h-24l97 162h37zM563 916q-79 0 -130 29.5t-51 74.5t51 75.5t130 30.5q78 0 129.5 -30.5t51.5 -75.5q0 -44 -52 -74t-129 -30zM562 1108q-67 0 -111 -25t-44 -63q0 -37 43.5 -61.5t111.5 -24.5q67 0 112.5 25t45.5 61q0 37 -45.5 62.5t-112.5 25.5z
M582 892q50 -84 263 -459.5t244 -426.5l-2 -6q-32 0 -43 3q-29 48 -134 237h-712l-140 -240h-44l525 892q7 3 21.5 3t21.5 -3zM217 272h675q-255 457 -331 588z" />
    <glyph glyph-name="aringacute" unicode="&#x1fb;" horiz-adv-x="815" 
d="M559 1131l-110 -162h-24l97 162h37zM444 736q-80 0 -130.5 29.5t-50.5 74.5t51 75.5t130 30.5q77 0 129 -30.5t52 -75.5q0 -44 -52.5 -74t-128.5 -30zM443 928q-68 0 -111.5 -25t-43.5 -63t43.5 -62t111.5 -24q67 0 112 25t45 61q0 37 -45 62.5t-112 25.5zM740 136
q0 -42 4.5 -67.5t10 -36t18.5 -27.5l-1 -5h-36q-19 19 -27 42t-8 79l-1 120q-48 -112 -163 -185.5t-257 -73.5q-110 0 -173 45.5t-63 116.5q0 87 76 146t189.5 83t254.5 23q55 0 132 -5q-7 131 -80 205t-194 74q-131 0 -297 -94q-12 7 -15 28q169 96 311 96q147 0 232 -90.5
t86 -257.5zM697 350l1 14q-61 5 -137 5q-98 1 -182.5 -12t-151 -39t-104.5 -69.5t-38 -100.5q0 -61 52.5 -97.5t147.5 -36.5q88 0 167 32.5t130.5 82.5t82 108.5t32.5 112.5z" />
    <glyph glyph-name="AEacute" unicode="&#x1fc;" horiz-adv-x="1765" 
d="M1345 1127l-198 -192h-31l187 192h42zM1719 32q5 -4 5 -15t-5 -17h-814v240h-602l-237 -240h-52l887 892h789q5 -18 -6 -32h-741v-414h639q2 -7 -0.5 -17.5t-7.5 -14.5h-631v-382h776zM334 272h571v579z" />
    <glyph glyph-name="aeacute" unicode="&#x1fd;" horiz-adv-x="1458" 
d="M928 1026l-203 -245h-30l189 245h44zM1089 700q158 0 250 -90t85 -250l-10 -11l-676 -70q9 -123 98 -193.5t222 -71.5q158 0 298 108q8 -3 13.5 -12t5.5 -13q-148 -115 -321 -115q-133 0 -229 65.5t-121 181.5q-54 -108 -171 -178t-253 -69q-110 0 -173 45.5t-63 116.5
q0 66 43 116t117 79.5t164.5 43.5t194.5 13q54 0 131 -5q-8 130 -80.5 204t-191.5 74q-129 0 -297 -93q-12 7 -15 28q169 96 311 96q121 0 201.5 -61.5t104.5 -176.5q45 108 143 173t219 65zM1383 371q4 143 -75.5 220.5t-218.5 77.5q-148 0 -249.5 -105.5t-102.5 -257.5z
M695 350v14q-60 5 -134 5q-98 1 -182.5 -12t-151 -39t-104.5 -69.5t-38 -100.5q0 -61 52.5 -97.5t147.5 -36.5q113 0 208.5 52.5t147 129t54.5 154.5z" />
    <glyph glyph-name="Oslashacute" unicode="&#x1fe;" horiz-adv-x="1113" 
d="M811 1141l-198 -192h-31l187 192h42zM927 790q135 -129 135 -314q0 -137 -77 -251t-204.5 -178.5t-273.5 -64.5q-169 0 -288 87l-68 -69h-43l86 88q-68 57 -105.5 138.5t-37.5 174.5q0 145 76 263t205 183.5t283 65.5q165 0 289 -103l81 83h43zM90 403q0 -84 33.5 -159
t96.5 -129l659 670q-115 94 -268 94q-143 0 -263 -61.5t-189 -171.5t-69 -243zM510 15q136 0 254 61t188.5 168t70.5 233q0 171 -121 287l-657 -669q109 -80 265 -80z" />
    <glyph glyph-name="oslashacute" unicode="&#x1ff;" horiz-adv-x="885" 
d="M674 1026l-203 -245h-30l189 245h44zM841 365q1 -161 -120 -272t-307 -111q-153 0 -253 76l-65 -58h-36v7l78 71q-98 92 -98 230q0 161 124.5 276.5t307.5 115.5q157 0 261 -91l49 44h39v-5l-67 -60q87 -92 87 -223zM78 308q0 -125 87 -206l159 144l46 39l147 129l45 42
l143 128q-94 84 -235 84q-168 0 -280 -107t-112 -253zM415 15q170 0 279 102t109 245q0 117 -76 201l-122 -109l-50 -43l-153 -135l-43 -40l-171 -154q90 -67 227 -67z" />
    <glyph glyph-name="uni0202" unicode="&#x202;" horiz-adv-x="1103" 
d="M564 1133q-96 0 -160.5 -47t-64.5 -116h-32q0 88 74.5 140t182.5 52q110 0 183 -51t73 -141h-33q0 71 -62 117t-161 46zM582 892q50 -84 263 -459.5t244 -426.5l-2 -6q-32 0 -43 3q-29 48 -134 237h-712l-140 -240h-44l525 892q7 3 21.5 3t21.5 -3zM217 272h675
q-255 457 -331 588z" />
    <glyph glyph-name="uni0203" unicode="&#x203;" horiz-adv-x="815" 
d="M425 943q-97 0 -161.5 -46.5t-64.5 -115.5h-32q0 87 75 139t183 52q110 0 182.5 -50.5t72.5 -140.5h-32q0 70 -62 116t-161 46zM740 136q0 -42 4.5 -67.5t10 -36t18.5 -27.5l-1 -5h-36q-19 19 -27 42t-8 79l-1 120q-48 -112 -163 -185.5t-257 -73.5q-110 0 -173 45.5
t-63 116.5q0 87 76 146t189.5 83t254.5 23q55 0 132 -5q-7 131 -80 205t-194 74q-131 0 -297 -94q-12 7 -15 28q169 96 311 96q147 0 232 -90.5t86 -257.5zM697 350l1 14q-61 5 -137 5q-98 1 -182.5 -12t-151 -39t-104.5 -69.5t-38 -100.5q0 -61 52.5 -97.5t147.5 -36.5
q88 0 167 32.5t130.5 82.5t82 108.5t32.5 112.5z" />
    <glyph glyph-name="uni0206" unicode="&#x206;" horiz-adv-x="945" 
d="M483 1132q-97 0 -161.5 -47t-64.5 -116h-31q0 88 74.5 140t182.5 52q110 0 182.5 -51t72.5 -141h-32q0 71 -62 117t-161 46zM899 32q4 -4 4 -15t-4 -17h-815v887l6 5h779q7 -17 -6 -32h-741v-415h639q2 -7 0 -17.5t-7 -14.5h-632v-381h777z" />
    <glyph glyph-name="uni0207" unicode="&#x207;" horiz-adv-x="799" 
d="M430 943q-97 0 -161.5 -46.5t-64.5 -115.5h-32q0 87 75 139t183 52q110 0 182.5 -50.5t72.5 -140.5h-32q0 70 -62 116t-161 46zM430 700q159 0 250.5 -90t84.5 -250l-10 -11l-676 -71q10 -123 98.5 -193t221.5 -71q158 0 299 108q8 -3 13.5 -12t5.5 -13
q-150 -115 -322 -115q-154 0 -255.5 86.5t-101.5 236.5q0 167 114 281t278 114zM724 373q4 142 -75.5 219t-218.5 77q-146 0 -248.5 -105.5t-103.5 -256.5z" />
    <glyph glyph-name="uni020A" unicode="&#x20a;" horiz-adv-x="20" 
d="M-453 969q0 88 75 140t183 52q110 0 182.5 -51t72.5 -141h-33q0 71 -61.5 117t-160.5 46q-97 0 -161.5 -47t-64.5 -116h-32zM-215 0v892q17 9 38 0v-892h-38z" />
    <glyph glyph-name="uni020B" unicode="&#x20b;" horiz-adv-x="225" 
d="M-138 781q0 88 73 139.5t179 51.5q107 0 178 -50.5t71 -140.5h-32q0 70 -60.5 116t-156.5 46q-95 0 -158 -46.5t-63 -115.5h-31zM94 0v653q7 2 19 2t18 -2v-653h-37z" />
    <glyph glyph-name="uni020E" unicode="&#x20e;" horiz-adv-x="1095" 
d="M330 981q0 88 74.5 140t182.5 52q110 0 182.5 -51t72.5 -141h-32q0 71 -62 117t-161 46q-97 0 -161.5 -46.5t-64.5 -116.5h-31zM499 -18q-204 0 -330.5 120.5t-126.5 298.5q0 145 76 263t205 183.5t283 65.5q124 0 227.5 -59.5t161.5 -160t58 -217.5q0 -137 -77 -251
t-204 -178.5t-273 -64.5zM501 15q136 0 254 61t188.5 168t70.5 233q0 170 -120 286t-292 116q-143 0 -263 -61.5t-189 -171.5t-69 -243q0 -161 115 -274.5t305 -113.5z" />
    <glyph glyph-name="uni020F" unicode="&#x20f;" horiz-adv-x="877" 
d="M210 781q0 88 75 140t182 52q110 0 182.5 -51t72.5 -141h-32q0 71 -62 117t-161 46q-97 0 -161.5 -47t-64.5 -116h-31zM411 -18q-174 0 -273.5 94.5t-99.5 231.5q0 161 124.5 276.5t307.5 115.5q165 0 266.5 -96.5t102.5 -238.5q1 -161 -120.5 -272t-307.5 -111zM413 15
q169 0 278.5 102t109.5 245q0 130 -93 218t-240 88q-168 0 -280 -107t-112 -253q0 -123 88.5 -208t248.5 -85z" />
    <glyph glyph-name="uni0212" unicode="&#x212;" horiz-adv-x="1086" 
d="M508 1143q-97 0 -161.5 -47t-64.5 -116h-31q0 88 74.5 140t182.5 52q110 0 182.5 -51t72.5 -141h-32q0 71 -62 117t-161 46zM656 316q270 -251 382 -307v-6q-18 -5 -44 -5q-100 44 -386 310q-53 -7 -118 -7q-94 1 -198.5 15.5t-169.5 30.5v-347h-38v871q98 24 191 33
t233 9q210 0 335.5 -83t125.5 -229q0 -112 -86.5 -185t-226.5 -100zM490 333q86 -1 163.5 15.5t140.5 48.5t99.5 85t36.5 120q-1 125 -111.5 202t-314.5 77q-231 0 -382 -36v-464q177 -46 368 -48z" />
    <glyph glyph-name="uni0213" unicode="&#x213;" horiz-adv-x="625" 
d="M332 971q-97 0 -160.5 -46.5t-63.5 -116.5h-31q0 88 74 140t181 52q108 0 180 -51t72 -141h-32q0 70 -61.5 116.5t-158.5 46.5zM590 676q5 -17 -10 -34q-58 23 -112 23q-156 -1 -252 -111.5t-96 -258.5v-295h-38v526q0 71 -14 119v7q22 5 34 3q14 -39 14 -87v-143
q33 116 127 195.5t227 79.5q57 0 120 -24z" />
    <glyph glyph-name="uni0218" unicode="&#x218;" horiz-adv-x="1025" 
d="M545 -18q-138 0 -269.5 36t-233.5 103q6 24 22 30q209 -137 478 -137q189 0 295.5 61.5t106.5 159.5q0 57 -34 97t-98.5 62t-132.5 32t-159 15q-104 5 -182 26.5t-131 72.5t-53 127q0 60 35 109t91.5 77.5t122 44t130.5 15.5q207 0 323 -72.5t116 -183.5q-24 -7 -40 -4
q-2 107 -110.5 167.5t-288.5 60.5q-86 0 -162 -23.5t-127 -73.5t-51 -117q0 -50 28.5 -88t78 -59.5t105.5 -32.5t122 -14q103 -4 182 -18t143 -40.5t97.5 -71t33.5 -106.5q0 -110 -114 -182.5t-324 -72.5zM483 -292l44 211h32l-47 -211h-29z" />
    <glyph glyph-name="uni0219" unicode="&#x219;" horiz-adv-x="835" 
d="M437 -18q-102 0 -208 27.5t-185 85.5q2 17 18 28q71 -53 172 -80.5t205 -27.5q145 0 229 46.5t83 116.5q0 80 -76 114t-263 42q-331 14 -331 178q0 80 88 134t253 54q79 0 176.5 -22.5t175.5 -67.5q-3 -15 -13 -30q-76 44 -169 66t-168 22q-154 0 -229.5 -47t-75.5 -109
q0 -135 298 -147q204 -8 288.5 -50.5t84.5 -135.5q0 -90 -98.5 -143.5t-254.5 -53.5zM381 -308l44 211h32l-47 -211h-29z" />
    <glyph glyph-name="uni021A" unicode="&#x21a;" horiz-adv-x="1040" 
d="M997 892q5 -18 -7 -32h-472v-860h-39v860h-436q-6 18 6 32h948zM439 -282l44 211h32l-47 -211h-29z" />
    <glyph glyph-name="uni021B" unicode="&#x21b;" horiz-adv-x="595" 
d="M572 621h-416v-326q0 -132 65.5 -206t185.5 -74q66 0 141 22q13 -13 7 -32q-81 -23 -149 -23q-132 -1 -209.5 80t-77.5 231v328h-108v32h108v182q18 10 37 7v-189h416v-32zM253 -292l44 211h32l-47 -211h-29z" />
    <glyph glyph-name="uni0237" unicode="&#x237;" horiz-adv-x="243" 
d="M6 -225q-38 0 -100 17q-5 20 9 34q56 -16 87 -16q58 -1 81 45.5t23 159.5v638q6 2 19.5 2t18.5 -2v-657q0 -109 -29 -165t-109 -56z" />
    <glyph glyph-name="circumflex" unicode="&#x2c6;" horiz-adv-x="664" 
d="M595 736h-46l-217 196l-217 -196h-47l254 225h19z" />
    <glyph glyph-name="caron" unicode="&#x2c7;" horiz-adv-x="664" 
d="M549 961h46l-254 -225h-19l-254 225h47l217 -197z" />
    <glyph glyph-name="breve" unicode="&#x2d8;" horiz-adv-x="652" 
d="M325 728q-110 0 -183.5 51.5t-73.5 141.5h32q0 -75 62 -119.5t163 -44.5q98 0 162.5 46t64.5 118h31q0 -88 -75 -140.5t-183 -52.5z" />
    <glyph glyph-name="dotaccent" unicode="&#x2d9;" horiz-adv-x="205" 
d="M102 781q-14 0 -24 9t-10 21q0 13 10 23t24 10t24 -9.5t10 -23.5q0 -12 -10 -21t-24 -9z" />
    <glyph glyph-name="ring" unicode="&#x2da;" horiz-adv-x="570" 
d="M288 723q-97 0 -158.5 36t-61.5 100q0 59 61 98t159 39q89 0 151.5 -39t62.5 -98q0 -60 -65.5 -98t-148.5 -38zM287 744q75 0 132 34t57 81q0 49 -56 82t-133 33q-85 0 -138.5 -33t-53.5 -82q0 -50 51.5 -82.5t140.5 -32.5z" />
    <glyph glyph-name="ogonek" unicode="&#x2db;" horiz-adv-x="417" 
d="M188 -327q-53 -1 -86.5 25t-33.5 78t42 119t118 121l23 -9q-75 -55 -114 -116.5t-39 -109.5q0 -40 26.5 -60t68.5 -18q36 0 74.5 17t61.5 43l20 -16q-27 -32 -72.5 -53t-88.5 -21z" />
    <glyph glyph-name="tilde" unicode="&#x2dc;" horiz-adv-x="664" 
d="M486 766q-35 0 -78 19.5t-77 43t-75.5 42.5t-74.5 19q-37 0 -61 -32.5t-24 -86.5h-28q0 68 31.5 109.5t78.5 41.5q36 0 79 -19t76.5 -42.5t75 -43t74.5 -19.5q39 -1 62 32.5t23 86.5h28q0 -67 -29.5 -109t-80.5 -42z" />
    <glyph glyph-name="hungarumlaut" unicode="&#x2dd;" horiz-adv-x="618" 
d="M73 736l188 245h42l-200 -245h-30zM315 736l191 245h44l-204 -245h-31z" />
    <glyph glyph-name="gravecomb" unicode="&#x300;" 
d="M-99 736l-208 245h44l195 -245h-31z" />
    <glyph glyph-name="acutecomb" unicode="&#x301;" 
d="M-301 736l189 245h44l-203 -245h-30z" />
    <glyph glyph-name="uni0302" unicode="&#x302;" 
d="M-69 736h-46l-217 195l-217 -195h-47l254 225h19z" />
    <glyph glyph-name="tildecomb" unicode="&#x303;" 
d="M-178 766q-35 0 -78 19.5t-77 43t-75.5 42.5t-74.5 19q-37 0 -61 -32.5t-24 -86.5h-28q0 68 31.5 109.5t78.5 41.5q36 0 79 -19t76.5 -42.5t75 -43t74.5 -19.5q39 -1 62 32.5t23 86.5h28q0 -67 -29.5 -109t-80.5 -42z" />
    <glyph glyph-name="uni0304" unicode="&#x304;" 
d="M-616 818v32h543v-32h-543z" />
    <glyph glyph-name="uni0306" unicode="&#x306;" 
d="M-327 728q-110 0 -183.5 51.5t-73.5 141.5h32q0 -75 62 -119.5t163 -44.5q98 0 162.5 46t64.5 118h31q0 -88 -75 -140.5t-183 -52.5z" />
    <glyph glyph-name="uni0307" unicode="&#x307;" 
d="M-103 781q-14 0 -24 9t-10 21q0 13 10 23t24 10t24 -9.5t10 -23.5q0 -12 -10 -21t-24 -9z" />
    <glyph glyph-name="uni0308" unicode="&#x308;" 
d="M-452 781q-14 0 -24 9t-10 21q0 14 10 23.5t24 9.5t24 -10t10 -23q0 -12 -10 -21t-24 -9zM-107 781q-14 0 -24 9t-10 21q0 13 10 23t24 10t24 -9.5t10 -23.5q0 -12 -10 -21t-24 -9z" />
    <glyph glyph-name="uni030A" unicode="&#x30a;" 
d="M-282 728q-96 0 -158 36.5t-62 99.5q0 60 60.5 98.5t159.5 38.5q89 0 151.5 -38.5t62.5 -98.5q0 -59 -66 -97.5t-148 -38.5zM-283 749q75 0 132 34t57 81q0 49 -56 82.5t-133 33.5q-85 0 -138.5 -33t-53.5 -83t51.5 -82.5t140.5 -32.5z" />
    <glyph glyph-name="uni030B" unicode="&#x30b;" 
d="M-545 736l188 245h42l-200 -245h-30zM-303 736l191 245h44l-204 -245h-31z" />
    <glyph glyph-name="uni030C" unicode="&#x30c;" 
d="M-115 961h46l-254 -225h-19l-254 225h47l217 -197z" />
    <glyph glyph-name="uni0311" unicode="&#x311;" 
d="M-581 736q0 87 75 139t183 52q110 0 182.5 -50.5t72.5 -140.5h-32q0 70 -62 116t-161 46q-97 0 -161.5 -46.5t-64.5 -115.5h-32z" />
    <glyph glyph-name="uni0312" unicode="&#x312;" 
d="M-347 834l51 214h28l-47 -214h-32z" />
    <glyph glyph-name="uni0326" unicode="&#x326;" 
d="M-312 -292l44 211h32l-47 -211h-29z" />
    <glyph glyph-name="uni0327" unicode="&#x327;" 
d="M-177 -320q-62 0 -119 53l22 19q48 -45 97 -45q34 1 56 23t21 55q-1 44 -53 96q-43 44 -53.5 65.5t-10.5 61.5h29q0 -36 11 -55t55 -63q53 -53 53 -106q1 -44 -30 -73.5t-78 -30.5z" />
    <glyph glyph-name="uni0328" unicode="&#x328;" 
d="M-229 -327q-53 -1 -86.5 25t-33.5 78t42 119t118 121l23 -9q-75 -55 -114 -116.5t-39 -109.5q0 -40 26.5 -60t68.5 -18q36 0 74.5 17t61.5 43l20 -16q-27 -32 -72.5 -53t-88.5 -21z" />
    <glyph glyph-name="uni03BC" unicode="&#x3bc;" horiz-adv-x="997" 
d="M881 150q0 -70 4.5 -95.5t18.5 -46.5l-1 -8h-31q-14 16 -19.5 37.5t-5.5 72.5v125q-30 -108 -138 -180.5t-253 -72.5q-203 0 -264 154v-372h-34l-1 889q14 4 38 0v-376q0 -135 71.5 -198.5t191.5 -63.5q165 0 275 96t110 236v306q6 2 20 2t18 -2v-503z" />
    <glyph glyph-name="uni1E02" unicode="&#x1e02;" horiz-adv-x="1013" 
d="M462 984q-13 0 -21.5 8t-8.5 19q0 12 8.5 20.5t21.5 8.5t21.5 -8.5t8.5 -20.5q0 -11 -8.5 -19t-21.5 -8zM698 522q272 -44 272 -231q0 -148 -124 -228t-338 -81q-146 -1 -233.5 8.5t-190.5 34.5v855q96 19 173 26t205 7q95 0 170 -15t119 -37.5t73 -52.5t39.5 -57.5
t10.5 -54.5q0 -58 -45.5 -105t-130.5 -69zM835 694q0 31 -17.5 61.5t-57 60t-116.5 48t-182 18.5q-221 0 -340 -28v-369q67 21 181 35.5t216 14.5q59 0 100 -4q103 12 159.5 57.5t56.5 105.5zM506 14q206 0 316 74t109 201q0 214 -419 214q-98 0 -206 -14t-184 -37v-400
q144 -38 384 -38z" />
    <glyph glyph-name="uni1E03" unicode="&#x1e03;" horiz-adv-x="862" 
d="M436 1035q-14 0 -24 9t-10 21q0 13 10 23t24 10t24 -9.5t10 -23.5q0 -12 -10 -21t-24 -9zM489 700q147 0 241 -94.5t94 -247.5q0 -149 -110.5 -262.5t-273.5 -113.5q-109 0 -192.5 55t-124.5 143v-39q0 -81 -17 -141h-38v8q15 52 15 173v751q21 6 38 0v-504
q38 124 143.5 198t224.5 74zM437 14q101 0 182.5 51.5t124 129.5t42.5 163q0 141 -84.5 225.5t-214.5 84.5q-142 0 -253.5 -108t-111.5 -258q0 -111 91.5 -199.5t223.5 -88.5z" />
    <glyph glyph-name="uni1E0A" unicode="&#x1e0a;" horiz-adv-x="1058" 
d="M462 995q-13 0 -21.5 8t-8.5 19q0 12 8.5 20.5t21.5 8.5t21.5 -8.5t8.5 -20.5q0 -11 -8.5 -19t-21.5 -8zM462 913q248 0 401 -127t153 -329q0 -212 -145.5 -343t-382.5 -132q-143 0 -217 8.5t-187 34.5v855q90 19 168.5 26t209.5 7zM485 14q222 0 356.5 123t134.5 320
q0 184 -140 304t-376 120q-214 0 -338 -26v-802q155 -39 363 -39z" />
    <glyph glyph-name="uni1E0B" unicode="&#x1e0b;" horiz-adv-x="864" 
d="M421 1055q-14 0 -24 9t-10 21q0 13 10 23t24 10t24 -9.5t10 -23.5q0 -12 -10 -21t-24 -9zM781 181q0 -121 15 -173v-8h-33q-19 52 -19 145v89q-37 -109 -133.5 -180.5t-225.5 -71.5q-154 0 -250.5 92t-96.5 244q0 160 111.5 271t282.5 111q110 0 195.5 -62.5
t116.5 -163.5v458q5 2 17 2t20 -2v-751zM385 14q153 0 253.5 106t100.5 247q0 127 -87.5 213.5t-213.5 86.5q-154 0 -258 -101t-104 -248q0 -135 85.5 -219.5t223.5 -84.5z" />
    <glyph glyph-name="uni1E1E" unicode="&#x1e1e;" horiz-adv-x="914" 
d="M467 974q-13 0 -21.5 8t-8.5 19q0 12 8.5 20.5t21.5 8.5t21.5 -8.5t8.5 -20.5q0 -11 -8.5 -19t-21.5 -8zM863 859h-741v-466h637q2 -8 -0.5 -18.5t-6.5 -13.5h-630v-361h-38v885l7 6h780q4 -15 -8 -32z" />
    <glyph glyph-name="uni1E1F" unicode="&#x1e1f;" horiz-adv-x="444" 
d="M371 1076q-14 0 -24 9t-10 21q0 13 10 23t24 10t24 -9.5t10 -23.5q0 -12 -10 -21t-24 -9zM577 916q1 -7 -2 -17.5t-7 -14.5q-70 22 -128 22q-196 0 -207 -253h284v-32h-284v-621h-37v621h-189v32h190q9 285 236 285q59 0 144 -22z" />
    <glyph glyph-name="uni1E40" unicode="&#x1e40;" horiz-adv-x="1293" 
d="M647 974q-13 0 -21.5 8t-8.5 19q0 12 8.5 20.5t21.5 8.5t21.5 -8.5t8.5 -20.5q0 -11 -8.5 -19t-21.5 -8zM1251 0h-38l-98 835l-453 -675h-31l-453 674l-98 -834h-38l105 886q5 5 18 7t18 -1l463 -688l463 688q7 2 19.5 0t17.5 -7z" />
    <glyph glyph-name="uni1E41" unicode="&#x1e41;" horiz-adv-x="1260" 
d="M644 826q-14 0 -24 9t-10 21q0 13 10 23t24 10t24 -9.5t10 -23.5q0 -12 -10 -21t-24 -9zM958 700q112 0 172.5 -79t60.5 -223v-398h-37v397q0 123 -51 196.5t-150 73.5q-86 0 -158 -53t-110.5 -132t-38.5 -161v-321h-36v386q0 281 -186 281q-83 0 -154.5 -56t-110.5 -140
t-39 -171v-300h-38v526q0 71 -14 119v7q22 5 35 3q14 -39 14 -87v-129q35 108 120 184.5t190 76.5q193 0 213 -248q38 105 123 176.5t195 71.5z" />
    <glyph glyph-name="uni1E56" unicode="&#x1e56;" horiz-adv-x="1013" 
d="M503 994q-13 0 -21.5 8t-8.5 19q0 12 8.5 20.5t21.5 8.5t21.5 -8.5t8.5 -20.5q0 -11 -8.5 -19t-21.5 -8zM971 599q0 -103 -68.5 -176.5t-176 -107t-238.5 -33.5q-203 0 -366 49v-331h-38v871q175 42 419 42q210 0 338.5 -84t129.5 -230zM931 598q1 130 -115.5 206.5
t-314.5 76.5q-228 0 -379 -38v-477q158 -51 364 -51q123 0 221.5 29.5t161 95t62.5 158.5z" />
    <glyph glyph-name="uni1E57" unicode="&#x1e57;" horiz-adv-x="858" 
d="M452 825q-14 0 -24 9t-10 21q0 13 10 23t24 10t24 -9.5t10 -23.5q0 -12 -10 -21t-24 -9zM480 700q153 0 246.5 -93.5t93.5 -242.5q0 -153 -109 -267.5t-268 -114.5q-113 0 -200.5 60t-125.5 151v-429q-6 -2 -19.5 -2t-18.5 2v753q0 65 -11 130v7q17 6 34 3l15 -80v-135
q43 111 144.5 184.5t218.5 73.5zM438 14q101 0 181.5 52.5t121.5 131t41 164.5q0 139 -85.5 222.5t-217.5 83.5q-95 0 -179.5 -53t-133.5 -138.5t-49 -178.5q0 -110 94.5 -197t226.5 -87z" />
    <glyph glyph-name="uni1E60" unicode="&#x1e60;" horiz-adv-x="1025" 
d="M533 995q-13 0 -21.5 8t-8.5 19q0 12 8.5 20.5t21.5 8.5t21.5 -8.5t8.5 -20.5q0 -11 -8.5 -19t-21.5 -8zM545 -18q-138 0 -269.5 36t-233.5 103q6 24 22 30q209 -137 478 -137q189 0 295.5 61.5t106.5 159.5q0 57 -34 97t-98.5 62t-132.5 32t-159 15q-104 5 -182 26.5
t-131 72.5t-53 127q0 60 35 109t91.5 77.5t122 44t130.5 15.5q207 0 323 -72.5t116 -183.5q-24 -7 -40 -4q-2 107 -110.5 167.5t-288.5 60.5q-86 0 -162 -23.5t-127 -73.5t-51 -117q0 -50 28.5 -88t78 -59.5t105.5 -32.5t122 -14q103 -4 182 -18t143 -40.5t97.5 -71
t33.5 -106.5q0 -110 -114 -182.5t-324 -72.5z" />
    <glyph glyph-name="uni1E61" unicode="&#x1e61;" horiz-adv-x="835" 
d="M422 826q-14 0 -24 9t-10 21q0 13 10 23t24 10t24 -9.5t10 -23.5q0 -12 -10 -21t-24 -9zM437 -18q-102 0 -208 27.5t-185 85.5q2 17 18 28q71 -53 172 -80.5t205 -27.5q145 0 229 46.5t83 116.5q0 80 -76 114t-263 42q-331 14 -331 178q0 80 88 134t253 54
q79 0 176.5 -22.5t175.5 -67.5q-3 -15 -13 -30q-76 44 -169 66t-168 22q-154 0 -229.5 -47t-75.5 -109q0 -135 298 -147q204 -8 288.5 -50.5t84.5 -135.5q0 -90 -98.5 -143.5t-254.5 -53.5z" />
    <glyph glyph-name="uni1E6A" unicode="&#x1e6a;" horiz-adv-x="1040" 
d="M504 974q-13 0 -21.5 8t-8.5 19q0 12 8.5 20.5t21.5 8.5t21.5 -8.5t8.5 -20.5q0 -11 -8.5 -19t-21.5 -8zM997 892q5 -18 -7 -32h-472v-860h-39v860h-436q-6 18 6 32h948z" />
    <glyph glyph-name="uni1E6B" unicode="&#x1e6b;" horiz-adv-x="595" 
d="M140 969q-14 0 -24 9t-10 21q0 13 10 23t24 10t24 -9.5t10 -23.5q0 -12 -10 -21t-24 -9zM572 621h-416v-326q0 -132 65.5 -206t185.5 -74q66 0 141 22q13 -13 7 -32q-81 -23 -149 -23q-132 -1 -209.5 80t-77.5 231v328h-108v32h108v182q18 10 37 7v-189h416v-32z" />
    <glyph glyph-name="Wgrave" unicode="&#x1e80;" horiz-adv-x="1533" 
d="M791 964l-197 187h38l189 -187h-30zM543 0l-14 8q-93 227 -243 472t-272 405l3 7q18 5 37 0q141 -190 281 -420t225 -439h7q81 99 172 236.5t119 219.5q-75 156 -115 236q8 16 34 14q57 -105 167 -339t164 -367h6q189 210 288.5 440t68.5 417q13 8 38 2q33 -190 -67 -428
t-300 -454l-18 -10h-40l-8 6q-30 69 -101 222.5t-101 212.5q-27 -76 -126 -225t-155 -210l-14 -6h-36z" />
    <glyph glyph-name="wgrave" unicode="&#x1e81;" horiz-adv-x="1253" 
d="M688 781l-208 245h44l195 -245h-31zM414 0l-9 7q-21 55 -46.5 109.5t-52 103t-52 92t-54 84.5t-50 72t-47.5 63.5t-39.5 49.5t-33 40t-21.5 25l3 7q22 4 36 0q3 -4 31 -37t48 -59l55 -71.5t64.5 -92.5t63.5 -104t66 -122.5t58 -133.5h7q63 73 136 182.5t108 188.5
l-92 162q3 6 14 11t21 4q182 -311 265 -548h8q82 92 150 192.5t115 218t40 207.5q12 6 36 2q14 -128 -80 -309.5t-236 -336.5l-11 -7h-40l-11 7q-55 150 -159 353q-23 -56 -102.5 -175t-135.5 -178l-10 -7h-43z" />
    <glyph glyph-name="Wacute" unicode="&#x1e82;" horiz-adv-x="1533" 
d="M754 937l187 192h42l-198 -192h-31zM543 0l-14 8q-93 227 -243 472t-272 405l3 7q18 5 37 0q141 -190 281 -420t225 -439h7q81 99 172 236.5t119 219.5q-75 156 -115 236q8 16 34 14q57 -105 167 -339t164 -367h6q189 210 288.5 440t68.5 417q13 8 38 2q33 -190 -67 -428
t-300 -454l-18 -10h-40l-8 6q-30 69 -101 222.5t-101 212.5q-27 -76 -126 -225t-155 -210l-14 -6h-36z" />
    <glyph glyph-name="wacute" unicode="&#x1e83;" horiz-adv-x="1253" 
d="M600 781l189 245h44l-203 -245h-30zM414 0l-9 7q-21 55 -46.5 109.5t-52 103t-52 92t-54 84.5t-50 72t-47.5 63.5t-39.5 49.5t-33 40t-21.5 25l3 7q22 4 36 0q3 -4 31 -37t48 -59l55 -71.5t64.5 -92.5t63.5 -104t66 -122.5t58 -133.5h7q63 73 136 182.5t108 188.5
l-92 162q3 6 14 11t21 4q182 -311 265 -548h8q82 92 150 192.5t115 218t40 207.5q12 6 36 2q14 -128 -80 -309.5t-236 -336.5l-11 -7h-40l-11 7q-55 150 -159 353q-23 -56 -102.5 -175t-135.5 -178l-10 -7h-43z" />
    <glyph glyph-name="Wdieresis" unicode="&#x1e84;" horiz-adv-x="1533" 
d="M599 983q-12 0 -21 8t-9 19q0 12 9 20.5t21 8.5q13 0 22 -8.5t9 -20.5q0 -11 -9 -19t-22 -8zM935 983q-13 0 -21.5 8t-8.5 19q0 12 8.5 20.5t21.5 8.5q12 0 21 -8.5t9 -20.5q0 -11 -9 -19t-21 -8zM543 0l-14 8q-93 227 -243 472t-272 405l3 7q18 5 37 0
q141 -190 281 -420t225 -439h7q81 99 172 236.5t119 219.5q-75 156 -115 236q8 16 34 14q57 -105 167 -339t164 -367h6q189 210 288.5 440t68.5 417q13 8 38 2q33 -190 -67 -428t-300 -454l-18 -10h-40l-8 6q-30 69 -101 222.5t-101 212.5q-27 -76 -126 -225t-155 -210
l-14 -6h-36z" />
    <glyph glyph-name="wdieresis" unicode="&#x1e85;" horiz-adv-x="1253" 
d="M457 826q-14 0 -24 9t-10 21q0 14 10 23.5t24 9.5t24 -10t10 -23q0 -12 -10 -21t-24 -9zM802 826q-14 0 -24 9t-10 21q0 13 10 23t24 10t24 -9.5t10 -23.5q0 -12 -10 -21t-24 -9zM414 0l-9 7q-21 55 -46.5 109.5t-52 103t-52 92t-54 84.5t-50 72t-47.5 63.5t-39.5 49.5
t-33 40t-21.5 25l3 7q22 4 36 0q3 -4 31 -37t48 -59l55 -71.5t64.5 -92.5t63.5 -104t66 -122.5t58 -133.5h7q63 73 136 182.5t108 188.5l-92 162q3 6 14 11t21 4q182 -311 265 -548h8q82 92 150 192.5t115 218t40 207.5q12 6 36 2q14 -128 -80 -309.5t-236 -336.5l-11 -7
h-40l-11 7q-55 150 -159 353q-23 -56 -102.5 -175t-135.5 -178l-10 -7h-43z" />
    <glyph glyph-name="uni1E9E" unicode="&#x1e9e;" horiz-adv-x="1020" 
d="M369 525q69 -2 141.5 -11t157 -31t149.5 -54t108.5 -84.5t43.5 -118.5q0 -112 -108.5 -178t-261.5 -66q-240 0 -386 115q5 24 21 29q133 -110 363 -110q142 0 237.5 58.5t95.5 152.5q0 62 -47.5 111.5t-118 78.5t-159 48.5t-161.5 26.5t-134 7l-7 16l520 344h-488
q-111 0 -161.5 -72.5t-50.5 -191.5v-595h-37v597q0 136 59.5 215.5t187.5 79.5h552q3 -7 1.5 -16.5t-5.5 -14.5z" />
    <glyph glyph-name="Ygrave" unicode="&#x1ef2;" horiz-adv-x="1001" 
d="M556 964h-30l-197 187h38zM986 892q18 -269 -433 -603v-289h-38v291q-53 72 -243 299.5t-257 294.5l3 7q22 6 44 0q48 -46 215.5 -247t262.5 -320q187 134 301.5 284t105.5 281q14 7 39 2z" />
    <glyph glyph-name="ygrave" unicode="&#x1ef3;" horiz-adv-x="817" 
d="M501 781h-31l-208 245h44zM804 653q10 -106 -21.5 -234t-115.5 -272t-208 -257q-164 -149 -347 -149q-61 0 -97 16q-8 15 -1 29l8 4q30 -17 91 -17q171 1 327 148q54 50 92 97q-86 42 -175 128.5t-157.5 183t-116.5 177.5t-73 138l3 7q15 5 37 1q22 -52 67 -128.5
t110.5 -171t153 -180t172.5 -129.5q113 142 168 302t46 304q15 10 37 3z" />
    <glyph glyph-name="endash" unicode="&#x2013;" horiz-adv-x="1198" 
d="M212 343v31h774v-31h-774z" />
    <glyph glyph-name="emdash" unicode="&#x2014;" horiz-adv-x="1327" 
d="M212 343v31h903v-31h-903z" />
    <glyph glyph-name="quoteleft" unicode="&#x2018;" horiz-adv-x="318" 
d="M111 656l65 291h32l-59 -291h-38z" />
    <glyph glyph-name="quoteright" unicode="&#x2019;" horiz-adv-x="319" 
d="M111 656l59 291h39l-67 -291h-31z" />
    <glyph glyph-name="quotesinglbase" unicode="&#x201a;" horiz-adv-x="319" 
d="M111 -125l59 290h39l-67 -290h-31z" />
    <glyph glyph-name="quotedblleft" unicode="&#x201c;" horiz-adv-x="477" 
d="M111 656l65 291h32l-59 -291h-38zM269 656l66 291h31l-58 -291h-39z" />
    <glyph glyph-name="quotedblright" unicode="&#x201d;" horiz-adv-x="477" 
d="M111 656l58 291h39l-66 -291h-31zM269 656l59 291h38l-65 -291h-32z" />
    <glyph glyph-name="quotedblbase" unicode="&#x201e;" horiz-adv-x="478" 
d="M111 -125l59 290h39l-67 -290h-31zM269 -125l60 290h38l-66 -290h-32z" />
    <glyph glyph-name="dagger" unicode="&#x2020;" horiz-adv-x="924" 
d="M770 817v-34h-295v-912h-33v912h-288v34h288v178h33v-178h295z" />
    <glyph glyph-name="daggerdbl" unicode="&#x2021;" horiz-adv-x="924" 
d="M770 783h-295v-694h295v-34h-295v-184h-33v184h-288v34h288v694h-288v34h288v178h33v-178h295v-34z" />
    <glyph glyph-name="bullet" unicode="&#x2022;" horiz-adv-x="713" 
d="M356 305q-45 0 -77.5 31t-32.5 74q0 42 32.5 74t77.5 32q43 0 76.5 -32.5t33.5 -73.5q0 -42 -33 -73.5t-77 -31.5z" />
    <glyph glyph-name="ellipsis" unicode="&#x2026;" horiz-adv-x="779" 
d="M144 0q-14 0 -23.5 9t-9.5 22t10 22.5t23 9.5q14 0 24.5 -9.5t10.5 -22.5t-10.5 -22t-24.5 -9zM389 0q-14 0 -24 9t-10 22t10 22.5t24 9.5t24 -9.5t10 -22.5t-10 -22t-24 -9zM633 0q-13 0 -23 9t-10 22t10 22.5t23 9.5q14 0 24.5 -9.5t10.5 -22.5t-10.5 -22t-24.5 -9z
" />
    <glyph glyph-name="perthousand" unicode="&#x2030;" horiz-adv-x="1767" 
d="M134 0l865 890h47l-865 -890h-47zM370 492q-113 0 -185.5 50.5t-72.5 139.5q0 86 71 138.5t187 52.5q118 0 189 -52t71 -139t-75 -138.5t-185 -51.5zM370 519q94 0 158 45t64 118q0 74 -61.5 119t-160.5 45t-159.5 -46t-60.5 -118q0 -73 61.5 -118t158.5 -45zM795 -3
q-114 0 -186 50.5t-72 139.5q0 86 71 138t187 52q117 0 188.5 -51.5t71.5 -138.5t-75 -138.5t-185 -51.5zM1395 -3q-114 0 -186 50.5t-72 139.5q0 86 71 138t187 52q117 0 188.5 -51.5t71.5 -138.5t-75 -138.5t-185 -51.5zM795 24q95 0 158.5 45t63.5 118t-61.5 118
t-160.5 45t-159.5 -45.5t-60.5 -117.5q0 -74 61 -118.5t159 -44.5zM1395 24q95 0 158.5 45t63.5 118t-61.5 118t-160.5 45t-159.5 -45.5t-60.5 -117.5q0 -74 61 -118.5t159 -44.5z" />
    <glyph glyph-name="guilsinglleft" unicode="&#x2039;" horiz-adv-x="840" 
d="M729 703l-568 -270l567 -271l-14 -27l-603 285v25l603 283z" />
    <glyph glyph-name="guilsinglright" unicode="&#x203a;" horiz-adv-x="840" 
d="M126 728l603 -283v-25l-603 -285l-14 27l567 271l-568 270z" />
    <glyph glyph-name="fraction" unicode="&#x2044;" horiz-adv-x="1227" 
d="M111 -130l968 1173h37l-968 -1173h-37z" />
    <glyph glyph-name="Euro" unicode="&#x20ac;" horiz-adv-x="1035" 
d="M905 131l19 -24q-43 -41 -132 -74t-209 -33q-153 0 -273 90.5t-151 252.5h-87v27h83q-5 38 -5 72q0 31 3 61h-81v28h85q29 162 149.5 250t276.5 88q108 0 197.5 -31.5t141.5 -74.5l-18 -24q-54 42 -137 70t-182 28q-92 0 -171 -32t-138.5 -103t-77.5 -171h452v-28h-456
q-4 -25 -4 -61q0 -34 5 -72h416v-27h-411q30 -147 139.5 -228.5t247.5 -81.5q111 0 193.5 30t124.5 68z" />
    <glyph glyph-name="uni2116" unicode="&#x2116;" horiz-adv-x="1897" 
d="M1457 305q-137 0 -220 77.5t-83 200.5q0 139 96.5 233t233.5 94q136 0 217.5 -75.5t84.5 -199.5q4 -144 -90 -237t-239 -93zM1032 890q18 7 38 0v-890h-32l-889 838v-838h-38v881q4 5 15 8.5t17 1.5l889 -837v836zM1482 878q-120 0 -205.5 -84.5t-85.5 -209.5
q0 -110 73 -178.5t194 -68.5q128 0 211 83.5t79 212.5q-2 110 -73.5 177.5t-192.5 67.5zM1198 159v30h540v-30h-540z" />
    <glyph glyph-name="trademark" unicode="&#x2122;" horiz-adv-x="1097" 
d="M469 890v-31h-162v-441h-35v441h-161v31h358zM987 890v-472h-34v415l-187 -357h-22l-194 357v-415h-34v472h39l200 -371l193 371h39z" />
    <glyph glyph-name="estimated" unicode="&#x212e;" horiz-adv-x="1045" 
d="M534 895q182 0 291.5 -127t108.5 -362h-703l1 -268q111 -137 297 -137q90 0 186 43t152 111q12 -3 13 -14q-57 -69 -157 -114t-194 -45q-179 0 -298.5 121.5t-119.5 332.5q0 213 118.5 336t304.5 123zM827 425v301q-104 150 -293 150q-91 0 -172.5 -36.5t-131.5 -100.5
l1 -314h596z" />
    <glyph glyph-name="partialdiff" unicode="&#x2202;" horiz-adv-x="1040" 
d="M481 909q93 0 170.5 -34t127.5 -88t85 -122.5t50 -135.5t15 -130q0 -206 -118.5 -311.5t-312.5 -105.5q-96 0 -172 25t-122 65.5t-69.5 89t-23.5 100.5q0 104 99 174.5t299 70.5q115 0 219.5 -25.5t161.5 -61.5q-3 59 -18.5 120t-48.5 122.5t-78.5 108.5t-114.5 76.5
t-150 29.5q-82 0 -165.5 -35.5t-137.5 -87.5q-10 13 -9 33q50 51 141 86.5t172 35.5zM498 15q177 0 282.5 95.5t109.5 277.5q-54 34 -156.5 60t-215.5 26q-184 0 -276 -61t-92 -152q0 -99 93.5 -172.5t254.5 -73.5z" />
    <glyph glyph-name="minus" unicode="&#x2212;" horiz-adv-x="849" 
d="M118 421v33h613v-33h-613z" />
    <glyph glyph-name="radical" unicode="&#x221a;" horiz-adv-x="1302" 
d="M1302 890v-33h-254l-491 -857h-32l-414 482h45l381 -440l486 848h279z" />
    <glyph glyph-name="infinity" unicode="&#x221e;" horiz-adv-x="1198" 
d="M849 689q103 0 171 -59.5t68 -177.5q0 -116 -68 -175.5t-171 -59.5q-44 0 -80.5 11t-61 27t-46 43t-34.5 51.5t-28 58.5q-14 -34 -27 -58.5t-34.5 -51.5t-46 -43t-61 -27t-80.5 -11q-103 0 -171 59.5t-68 175.5q0 118 67.5 177.5t171.5 59.5q45 0 82 -12.5t61 -29.5
t45.5 -48t33 -55.5t27.5 -63.5q16 39 27.5 63.5t33 55.5t45.5 48t61 29.5t83 12.5zM350 243q52 0 91 15.5t66.5 47.5t43 61t34.5 76q-19 46 -28 66.5t-31 56t-43 52t-55.5 30t-77.5 13.5q-87 0 -147.5 -52t-60.5 -157q0 -106 60.5 -157.5t147.5 -51.5zM848 244
q88 0 148.5 51.5t60.5 156.5t-60.5 157t-148.5 52q-27 0 -50.5 -4t-43 -15t-34 -20.5t-29 -29t-23 -31.5t-20.5 -38t-17 -38.5t-17 -41.5q15 -37 26.5 -61t32 -53t43 -45.5t56.5 -28t76 -11.5z" />
    <glyph glyph-name="approxequal" unicode="&#x2248;" horiz-adv-x="799" 
d="M111 458q0 68 34 109.5t87 41.5q49 0 108.5 -29.5t117.5 -59t103 -29.5q43 0 68 33t25 85h34q0 -67 -32.5 -109t-89.5 -42q-39 0 -85.5 18.5t-83 41t-81 41t-79.5 18.5q-40 0 -66 -33t-26 -86h-34zM111 302q0 68 34 109.5t87 41.5q39 0 85.5 -18.5t82 -41t80.5 -41
t81 -18.5q43 0 68 33.5t25 85.5h34q0 -67 -32.5 -109t-89.5 -42q-49 0 -109 29.5t-118.5 59t-101.5 29.5q-40 0 -66 -32.5t-26 -85.5h-34z" />
    <glyph glyph-name="notequal" unicode="&#x2260;" horiz-adv-x="870" 
d="M759 886l-244 -346h215v-33h-239l-99 -140h338v-32h-360l-215 -304h-43l214 304h-208v32h231l99 140h-330v33h353l244 346h44z" />
    <glyph glyph-name="lessequal" unicode="&#x2264;" horiz-adv-x="837" 
d="M726 734l-564 -270l563 -268l-15 -28l-599 283v26l601 285zM140 60v29h559v-29h-559z" />
    <glyph glyph-name="greaterequal" unicode="&#x2265;" horiz-adv-x="837" 
d="M125 740l601 -285v-25l-599 -283l-15 27l563 269l-564 270zM117 50v29h559v-29h-559z" />
    <glyph glyph-name="i.loclTRK" horiz-adv-x="225" 
d="M112 826q-14 0 -24 9t-10 21q0 13 10 23t24 10t24 -9.5t10 -23.5q0 -12 -10 -21t-24 -9zM94 0v653q7 2 19 2t18 -2v-653h-37z" />
    <glyph glyph-name="uni00A0.001" horiz-adv-x="451" 
 />
    <glyph glyph-name="uni030C.alt" 
d="M-129 621l16 333h36l-23 -333h-29z" />
    <glyph glyph-name="uni0308.case" 
d="M-439 981q-12 0 -21 8t-9 19q0 12 9 20.5t21 8.5q13 0 22 -8.5t9 -20.5q0 -11 -9 -19t-22 -8zM-103 981q-13 0 -21.5 8t-8.5 19q0 12 8.5 20.5t21.5 8.5q12 0 21 -8.5t9 -20.5q0 -11 -9 -19t-21 -8z" />
    <glyph glyph-name="uni0307.case" 
d="M-106 972q-13 0 -21.5 8t-8.5 19q0 12 8.5 20.5t21.5 8.5t21.5 -8.5t8.5 -20.5q0 -11 -8.5 -19t-21.5 -8z" />
    <glyph glyph-name="gravecomb.case" 
d="M-103 962l-197 187h38l189 -187h-30z" />
    <glyph glyph-name="acutecomb.case" 
d="M-243 935l187 192h42l-198 -192h-31z" />
    <glyph glyph-name="uni030B.case" 
d="M-531 959l171 178h42l-183 -178h-30zM-294 959l179 178h44l-191 -178h-32z" />
    <glyph glyph-name="uni0302.case" 
d="M-73 933h-43l-217 196l-217 -196h-43l249 222h22z" />
    <glyph glyph-name="uni030C.case" 
d="M-114 1155h45l-254 -216h-19l-254 216h46l218 -188z" />
    <glyph glyph-name="uni0306.case" 
d="M-315 763q-105 0 -173.5 43.5t-68.5 120.5h28q0 -61 59.5 -99t154.5 -38q91 0 152 38t61 99h29q0 -75 -70 -119.5t-172 -44.5z" />
    <glyph glyph-name="uni030A.case" 
d="M-282 883q-96 0 -158 36.5t-62 99.5q0 60 60.5 98.5t159.5 38.5q89 0 151.5 -38.5t62.5 -98.5q0 -59 -66 -97.5t-148 -38.5zM-283 904q75 0 132 34t57 81q0 49 -56 82.5t-133 33.5q-85 0 -138.5 -33t-53.5 -83t51.5 -82.5t140.5 -32.5z" />
    <glyph glyph-name="tildecomb.case" 
d="M-178 952q-35 0 -78 19.5t-76.5 43t-74.5 42.5t-74 19q-37 0 -61 -32.5t-24 -86.5h-28q0 67 31 107.5t79 40.5q35 0 78 -19t76 -42.5t74.5 -43t74.5 -19.5q39 -1 62 32.5t23 86.5h27q0 -65 -29 -106.5t-80 -41.5z" />
    <glyph glyph-name="uni0304.case" 
d="M-560 822v28h487v-28h-487z" />
    <glyph glyph-name="uni0327.case" 
d="M-177 -327q-62 0 -119 53l22 19q48 -45 97 -45q34 1 56 23t21 54q-1 44 -53 97q-43 43 -53.5 65t-10.5 61h29q0 -35 11 -54.5t55 -63.5q53 -53 53 -106q1 -43 -30 -72.5t-78 -30.5z" />
    <glyph glyph-name="uni0328.case" 
d="M-229 -327q-53 -1 -86.5 25t-33.5 78t42 119t118 121l23 -9q-75 -55 -114 -116.5t-39 -109.5q0 -40 26.5 -60t68.5 -18q36 0 74.5 17t61.5 43l20 -16q-27 -32 -72.5 -53t-88.5 -21z" />
    </font>
</defs>
</svg>
