<?xml version="1.0" standalone="no"?>
<!DOCTYPE svg PUBLIC "-//W3C//DTD SVG 1.1//EN" "http://www.w3.org/Graphics/SVG/1.1/DTD/svg11.dtd" >
<svg xmlns="http://www.w3.org/2000/svg" xmlns:xlink="http://www.w3.org/1999/xlink" version="1.1">
<metadata>
Created by FontForge 20170731 at Mon May 11 15:12:44 2020
 By Aleksey,,,
Copyright (c) 2019 by Mans Greback. All rights reserved.
</metadata>
<defs>
<font id="Quache-MediumExtraExpanded" horiz-adv-x="0" >
  <font-face 
    font-family="Quache Medium Extra Expanded"
    font-weight="500"
    font-stretch="extra-expanded"
    units-per-em="1000"
    panose-1="0 0 6 7 0 0 0 0 0 0"
    ascent="800"
    descent="-200"
    x-height="671"
    cap-height="906"
    bbox="-665 -367.028 2093 1311"
    underline-thickness="50"
    underline-position="-200"
    unicode-range="U+000D-2265"
  />
<missing-glyph horiz-adv-x="931" 
d="M0 -18v979h931v-979h-931zM50 32h831v879h-831v-879zM388 291q-14 51 3 93t53 68.5t80.5 53t84.5 46t67.5 47.5t27.5 58q0 49 -60.5 83t-176.5 34q-88 0 -172.5 -28t-150.5 -74l-52 63q174 121 382 121q161 0 246 -53.5t85 -138.5q0 -41 -21.5 -75t-55 -57.5t-74 -44.5
t-79 -40.5t-69 -41t-45 -50.5t-6.5 -64h-67zM423 81q-24 0 -43 16t-19 38q0 21 19 37.5t43 16.5q25 0 43 -16.5t18 -37.5q0 -22 -18 -38t-43 -16z" />
    <glyph glyph-name="f_i.liga" unicode="fi" horiz-adv-x="827" 
d="M196 0v580h-195v99h198q20 275 264 276q45 0 117 -13q3 -24 -2.5 -55t-15.5 -42q-41 10 -74 10q-150 0 -166 -176h429v-679h-120v580h-314v-580h-121zM691 802q-33 0 -57.5 21.5t-24.5 50.5t24.5 50.5t57.5 21.5t57.5 -21.5t24.5 -50.5t-24.5 -50.5t-57.5 -21.5z" />
    <glyph glyph-name="f_l.liga" unicode="fl" horiz-adv-x="969" 
d="M819 -18q-85 -1 -127 51.5t-42 158.5v633q-76 30 -145 30q-168 0 -185 -184h240v-99h-243v-572h-121v572h-195v99h197q20 279 300 279q54 0 131.5 -18.5t141.5 -54.5v-656q0 -75 21 -108.5t66 -32.5q31 0 74 12q10 -9 15.5 -40t0.5 -48q-73 -21 -129 -22z" />
    <glyph glyph-name=".notdef" horiz-adv-x="931" 
d="M0 -18v979h931v-979h-931zM50 32h831v879h-831v-879zM388 291q-14 51 3 93t53 68.5t80.5 53t84.5 46t67.5 47.5t27.5 58q0 49 -60.5 83t-176.5 34q-88 0 -172.5 -28t-150.5 -74l-52 63q174 121 382 121q161 0 246 -53.5t85 -138.5q0 -41 -21.5 -75t-55 -57.5t-74 -44.5
t-79 -40.5t-69 -41t-45 -50.5t-6.5 -64h-67zM423 81q-24 0 -43 16t-19 38q0 21 19 37.5t43 16.5q25 0 43 -16.5t18 -37.5q0 -22 -18 -38t-43 -16z" />
    <glyph glyph-name=".null" 
 />
    <glyph glyph-name="nonmarkingreturn" horiz-adv-x="333" 
 />
    <glyph glyph-name="CR" unicode="&#xd;" horiz-adv-x="600" 
 />
    <glyph glyph-name="space" unicode=" " horiz-adv-x="480" 
 />
    <glyph glyph-name="exclam" unicode="!" horiz-adv-x="422" 
d="M158 289l-11 631h127l-10 -631h-106zM211 0q-30 0 -52 19.5t-22 45.5q0 25 22 45t52 20q29 0 51.5 -20t22.5 -45q0 -26 -22.5 -45.5t-51.5 -19.5z" />
    <glyph glyph-name="quotedbl" unicode="&#x22;" horiz-adv-x="568" 
d="M92 649l43 307h124l-71 -307h-96zM309 649l43 307h124l-71 -307h-96z" />
    <glyph glyph-name="numbersign" unicode="#" horiz-adv-x="966" 
d="M874 561h-137l-25 -215h124v-92h-134l-17 -145h-108l17 145h-269l-17 -145h-108l17 145h-125v92h135l25 215h-122v92h133l15 131h108l-15 -131h269l15 131h108l-15 -131h126v-92zM604 346l25 215h-269l-25 -215h269z" />
    <glyph glyph-name="dollar" unicode="$" horiz-adv-x="1077" 
d="M986 243q0 -91 -94.5 -159t-276.5 -81v-134h-88v131q-135 1 -251 39.5t-184 100.5l57 85q142 -124 419 -124q141 0 217.5 43.5t76.5 105.5q0 54 -73 89.5t-176.5 58t-207.5 48.5t-177 77t-73 127q0 90 90.5 155.5t282.5 71.5v126h87v-128q116 -7 207 -39.5t141 -74.5
l-37 -91q-61 48 -164.5 77t-214.5 29q-138 0 -204 -37.5t-66 -86.5q0 -30 30.5 -53t80.5 -37t113.5 -29.5t130 -28.5t130 -35.5t113.5 -50t80.5 -73t30.5 -102.5z" />
    <glyph glyph-name="percent" unicode="%" horiz-adv-x="1396" 
d="M184 0l882 890h148l-883 -890h-147zM399 491q-142 0 -224.5 51t-82.5 146q0 92 81.5 145t225.5 53q147 0 228 -52.5t81 -145.5q0 -91 -84.5 -144t-224.5 -53zM399 569q79 0 133 32t54 87q0 54 -52 86.5t-135 32.5q-82 0 -133.5 -33t-51.5 -86q0 -55 51.5 -87t133.5 -32z
M987 -9q-141 0 -224 51.5t-83 145.5q0 92 81.5 144.5t225.5 52.5q147 0 228 -52t81 -145q0 -91 -84.5 -144t-224.5 -53zM987 70q80 0 134 32t54 86t-52.5 86.5t-135.5 32.5q-81 0 -133 -33.5t-52 -85.5q0 -55 52 -86.5t133 -31.5z" />
    <glyph glyph-name="ampersand" unicode="&#x26;" horiz-adv-x="1209" 
d="M1118 89l-67 -89l-156 99q-145 -117 -382 -117q-193 0 -307 64.5t-114 177.5q0 135 230 236q-88 58 -136 114.5t-48 121.5q0 43 21.5 81.5t66 71.5t123.5 53t182 20q189 0 283.5 -65t94.5 -150q0 -33 -22 -64.5t-54.5 -56t-85.5 -51t-97.5 -45t-108.5 -42.5l89 -53
l244 -153q64 93 62 202h109q13 -144 -73 -264zM263 691q0 -42 45.5 -85.5t134.5 -98.5q4 1 11 3.5t10 3.5q197 69 257 104q68 41 69 82q0 45 -67 83t-189 38q-135 0 -203 -37.5t-68 -92.5zM531 85q160 0 265 77l-262 166q-62 39 -116 71q-97 -41 -150 -81.5t-53 -89.5
q0 -61 82.5 -102t233.5 -41z" />
    <glyph glyph-name="quotesingle" unicode="'" horiz-adv-x="350" 
d="M92 649l43 307h124l-71 -307h-96z" />
    <glyph glyph-name="parenleft" unicode="(" horiz-adv-x="785" 
d="M612 -262q-114 36 -199 105.5t-132 157.5t-69.5 179t-22.5 184q0 68 15 139t51 147t89 141.5t135.5 121.5t183.5 88l50 -70l-6 -18q-83 -28 -149.5 -75t-110 -102t-73 -120t-42 -127t-12.5 -125q0 -115 32 -216t110 -188.5t195 -130.5l5 -20z" />
    <glyph glyph-name="parenright" unicode=")" horiz-adv-x="785" 
d="M173 -262l-50 71l5 20q117 43 195 130.5t110 188.5t32 216q0 63 -12.5 125t-42 127t-73 120t-110 102t-149.5 75l-6 18l50 70q101 -32 183.5 -88t135.5 -121.5t89 -141.5t51 -147t15 -139q0 -93 -22.5 -184t-69.5 -179t-132 -157.5t-199 -105.5z" />
    <glyph glyph-name="asterisk" unicode="*" horiz-adv-x="663" 
d="M571 742l-174 -47l125 -128l-90 -62l-101 148l-100 -148l-89 62l125 128l-175 47l41 89l156 -67l-17 165h117l-16 -165l156 67z" />
    <glyph glyph-name="plus" unicode="+" horiz-adv-x="859" 
d="M767 490v-100h-286v-263h-103v263h-286v100h286v265h103v-265h286z" />
    <glyph glyph-name="comma" unicode="," horiz-adv-x="343" 
d="M48 -181l58 345h119l-69 -345h-108z" />
    <glyph glyph-name="hyphen" unicode="-" horiz-adv-x="1094" 
d="M200 316v94h694v-94h-694z" />
    <glyph glyph-name="period" unicode="." horiz-adv-x="438" 
d="M219 0q-33 0 -57.5 21t-24.5 50t24.5 50.5t57.5 21.5t57.5 -21.5t24.5 -50.5t-24.5 -50t-57.5 -21z" />
    <glyph glyph-name="slash" unicode="/" horiz-adv-x="1104" 
d="M-8 -131l988 1134h132l-988 -1134h-132z" />
    <glyph glyph-name="zero" unicode="0" horiz-adv-x="1000" 
d="M499 -18q-202 0 -324.5 133.5t-122.5 333.5q0 220 121.5 345.5t325.5 125.5q207 0 328.5 -124.5t121.5 -346.5q0 -199 -123.5 -333t-326.5 -134zM499 83q148 0 238 104t90 262q0 172 -87.5 271.5t-240.5 99.5q-150 0 -237.5 -101t-87.5 -270q0 -157 89 -261.5t236 -104.5
z" />
    <glyph glyph-name="one" unicode="1" horiz-adv-x="703" 
d="M652 86q7 -38 0 -86h-601q-8 41 0 86l240 19v667l-211 -43q-11 43 -6 87l276 74h67v-785z" />
    <glyph glyph-name="two" unicode="2" horiz-adv-x="964" 
d="M57 0v96q38 67 109 126.5t148 99t159 80.5t146.5 74.5t106 78.5t41.5 94q0 79 -74.5 124.5t-224.5 45.5q-208 0 -332 -102q-41 30 -63 77q124 126 409 126q198 0 304.5 -73.5t106.5 -191.5q0 -57 -27 -106.5t-74 -87.5t-104.5 -72t-123.5 -66.5t-127 -64.5t-119.5 -73.5
t-95.5 -85.5h684q14 -49 0 -99h-849z" />
    <glyph glyph-name="three" unicode="3" horiz-adv-x="973" 
d="M673 481q135 -38 191.5 -95.5t56.5 -140.5q0 -114 -116 -188.5t-328 -74.5q-127 0 -246.5 34.5t-178.5 85.5q6 37 52 90q58 -43 158 -76t216 -33q147 0 231.5 45.5t84.5 118.5q0 167 -434 184q-14 55 0 106q409 0 409 154q0 63 -77.5 102.5t-233.5 39.5
q-100 0 -199.5 -30t-142.5 -63q-33 31 -45 89q56 43 170 74t235 31q196 0 308 -64.5t112 -165.5q0 -76 -52 -131.5t-171 -91.5z" />
    <glyph glyph-name="four" unicode="4" horiz-adv-x="1005" 
d="M948 304q11 -47 0 -99h-94v-205h-122v205h-680v96l700 589h102v-586h94zM226 304h511l6 444z" />
    <glyph glyph-name="five" unicode="5" horiz-adv-x="980" 
d="M471 602q225 1 341.5 -81t116.5 -224q0 -132 -118.5 -223.5t-322.5 -91.5q-147 0 -261 41t-175 102q5 55 48 93q63 -57 160.5 -91.5t207.5 -34.5q167 0 250.5 59t83.5 146q0 95 -100 151t-276 55q-156 -2 -315 -30l45 417h724q8 -52 -9 -99h-602l-27 -209q120 20 229 20z
" />
    <glyph glyph-name="six" unicode="6" horiz-adv-x="978" 
d="M531 536q189 0 292 -73t103 -187q0 -125 -114 -209.5t-326 -84.5q-206 0 -320 92t-114 252q0 174 154 326t474 263q60 -38 67 -89q-187 -59 -325.5 -146.5t-199.5 -197.5q135 54 309 54zM485 83q151 0 233 57t82 133q0 71 -75 116t-232 45q-187 0 -309 -58q-5 -30 -5 -57
q0 -104 76.5 -170t229.5 -66z" />
    <glyph glyph-name="seven" unicode="7" horiz-adv-x="914" 
d="M32 890h840v-111q-186 -103 -302.5 -314t-119.5 -465h-135q7 247 120.5 461t297.5 330h-701q-16 45 0 99z" />
    <glyph glyph-name="eight" unicode="8" horiz-adv-x="995" 
d="M698 497q112 -37 179 -99.5t67 -148.5q0 -116 -110.5 -191.5t-336.5 -75.5q-224 0 -334.5 75.5t-110.5 191.5q0 166 243 248q-207 64 -207 193q0 94 103 163t306 69q205 0 307.5 -66t102.5 -160q0 -67 -57.5 -117.5t-151.5 -81.5zM214 680q0 -100 280 -141
q287 41 287 146q0 55 -69 95.5t-215 40.5q-144 0 -213.5 -42.5t-69.5 -98.5zM816 253q1 81 -86 133t-236 74q-150 -21 -233 -73t-83 -132q0 -71 80 -121.5t239 -50.5q158 0 238.5 50t80.5 120z" />
    <glyph glyph-name="nine" unicode="9" horiz-adv-x="986" 
d="M492 922q210 0 326 -89.5t116 -245.5q0 -180 -155.5 -335.5t-480.5 -267.5q-60 38 -67 90q198 66 344.5 160.5t204.5 208.5q-146 -72 -333 -72q-189 0 -292 73.5t-103 187.5q0 122 114 206t326 84zM177 632q0 -70 76.5 -116t231.5 -46q186 0 311 55q3 37 3 75
q0 96 -76 156t-230 60q-138 0 -227 -52t-89 -132z" />
    <glyph glyph-name="colon" unicode=":" horiz-adv-x="438" 
d="M219 544q-33 0 -57.5 21.5t-24.5 50.5t24.5 50t57.5 21t57.5 -21t24.5 -50t-24.5 -50.5t-57.5 -21.5zM219 0q-33 0 -57.5 21t-24.5 50t24.5 50.5t57.5 21.5t57.5 -21.5t24.5 -50.5t-24.5 -50t-57.5 -21z" />
    <glyph glyph-name="semicolon" unicode=";" horiz-adv-x="357" 
d="M150 544q-32 0 -56.5 21.5t-24.5 50.5q0 28 24.5 49.5t56.5 21.5q34 0 58.5 -21t24.5 -50t-24.5 -50.5t-58.5 -21.5zM48 -181l58 345h119l-69 -345h-108z" />
    <glyph glyph-name="less" unicode="&#x3c;" horiz-adv-x="852" 
d="M760 678l-503 -242l503 -244l-41 -85l-627 292v74l631 291z" />
    <glyph glyph-name="equal" unicode="=" horiz-adv-x="855" 
d="M92 504v101h671v-101h-671zM92 280v101h671v-101h-671z" />
    <glyph glyph-name="greater" unicode="&#x3e;" horiz-adv-x="852" 
d="M130 764l631 -291v-74l-628 -292l-40 85l503 244l-504 242z" />
    <glyph glyph-name="question" unicode="?" horiz-adv-x="975" 
d="M401 265q-13 55 -1 94.5t44 73t72.5 57t85 47.5t81 45t60.5 48.5t24 57.5q0 57 -70 96t-204 39q-101 0 -201.5 -32.5t-172.5 -85.5l-62 75q203 142 445 142q188 0 288 -63.5t100 -162.5q0 -48 -25 -87.5t-64.5 -66.5t-86.5 -51.5t-92 -47t-80 -47t-52.5 -58t-7.5 -73.5
h-81zM444 0q-29 0 -51.5 19.5t-22.5 45.5q0 25 23 45t51 20q30 0 52 -20t22 -45q0 -26 -22 -45.5t-52 -19.5z" />
    <glyph glyph-name="at" unicode="@" horiz-adv-x="1422" 
d="M709 -216q-279 0 -448 139t-169 379q0 244 170 389t457 145q278 0 444.5 -138.5t166.5 -363.5q0 -122 -65.5 -196t-174.5 -74q-128 0 -163 86q-29 -34 -84.5 -60t-128.5 -26q-147 0 -221 71t-74 177q0 105 74 176t221 71q115 0 194 -53l2 38h90v-274q0 -106 93 -106
q63 0 97 45t34 125q0 192 -130 301t-375 109q-243 0 -378 -125.5t-135 -316.5q0 -188 135 -307t368 -119q172 0 290 70l56 -75q-60 -35 -153.5 -61t-192.5 -26zM725 154q54 0 100 21.5t69 54.5v187q-66 51 -169 51q-95 0 -143.5 -45t-48.5 -111q0 -70 47.5 -114t144.5 -44z
" />
    <glyph glyph-name="A" unicode="A" horiz-adv-x="1170" 
d="M650 899q33 -55 150.5 -267t221.5 -394t136 -220l-8 -18q-104 0 -138 13q-27 36 -115 198h-630l-116 -211h-138l503 899q22 9 67.5 8.5t66.5 -8.5zM321 310h522q-46 87 -135.5 256.5t-120.5 228.5z" />
    <glyph glyph-name="B" unicode="B" horiz-adv-x="1042" 
d="M787 535q221 -59 221 -230q0 -153 -130.5 -238t-360.5 -85q-152 -1 -247.5 8.5t-201.5 34.5v856q107 23 191 32t209 9q100 0 179 -14.5t126 -37.5t78 -54t42.5 -61t11.5 -62q0 -47 -30 -89t-88 -69zM470 827q-153 0 -280 -23v-274q154 32 359 32q41 0 60 -1
q80 9 125.5 42t45.5 80q0 25 -14 48.5t-46.5 46t-96.5 36t-153 13.5zM508 80q187 0 280.5 58.5t92.5 160.5q-1 81 -85.5 122.5t-274.5 41.5q-180 0 -331 -35v-320q131 -28 318 -28z" />
    <glyph glyph-name="C" unicode="C" horiz-adv-x="1054" 
d="M587 -18q-154 0 -278.5 55t-199.5 163t-75 252q0 136 78.5 244.5t205 166t274.5 59.5q192 2 310.5 -91.5t108.5 -238.5q-81 -19 -121 -8q1 106 -82.5 171t-217.5 63q-182 -2 -306 -108t-124 -266q0 -161 119.5 -259.5t307.5 -99.5q83 0 173.5 22t164.5 64
q26 -9 45.5 -38.5t19.5 -44.5q-86 -52 -196.5 -79t-206.5 -27z" />
    <glyph glyph-name="D" unicode="D" horiz-adv-x="1090" 
d="M468 922q268 0 428 -127t160 -333q0 -217 -153 -348t-407 -132q-155 0 -234.5 8.5t-193.5 34.5v859q174 38 400 38zM487 80q203 0 323 104.5t120 274.5q0 161 -127.5 262.5t-342.5 101.5q-164 0 -270 -18v-696q124 -29 297 -29z" />
    <glyph glyph-name="E" unicode="E" horiz-adv-x="972" 
d="M925 99q12 -13 13 -46.5t-13 -52.5h-857v886l14 13h815q8 -22 -0.5 -53t-21.5 -46h-685v-318h608q6 -23 -2 -55.5t-21 -43.5h-585v-284h735z" />
    <glyph glyph-name="F" unicode="F" horiz-adv-x="939" 
d="M880 799h-690v-361h615q7 -23 -1 -55.5t-21 -42.5h-593v-340h-122v885l14 13h820q8 -22 -0.5 -53.5t-21.5 -45.5z" />
    <glyph glyph-name="G" unicode="G" horiz-adv-x="1088" 
d="M584 818q-193 0 -308.5 -106.5t-115.5 -265.5q0 -163 121.5 -262t320.5 -99q184 0 320 61v205h-387q-6 23 2 55t21 44h468l18 -17v-345q-81 -51 -203 -78.5t-239 -27.5q-162 0 -290 55t-203 162.5t-75 252.5q0 92 38 176.5t106.5 150t173 104.5t229.5 39
q200 0 334.5 -88.5t129.5 -221.5q-30 -6 -68.5 -9.5t-66.5 1.5q-5 99 -97 156.5t-229 57.5z" />
    <glyph glyph-name="H" unicode="H" horiz-adv-x="1028" 
d="M838 899q24 8 64 7t58 -7v-899h-122v359h-648v-359h-122v899q24 8 63.5 7t58.5 -7v-441h648v441z" />
    <glyph glyph-name="I" unicode="I" horiz-adv-x="258" 
d="M68 0v899q24 8 64 7t58 -7v-899h-122z" />
    <glyph glyph-name="J" unicode="J" horiz-adv-x="1057" 
d="M507 -18q-126 0 -247.5 52t-217.5 138q9 29 30.5 53t45.5 31q78 -75 179 -123t201 -48q161 0 255 88.5t94 232.5v493q25 8 64.5 7t57.5 -7v-527q0 -76 -31.5 -146t-89.5 -124.5t-146.5 -87t-194.5 -32.5z" />
    <glyph glyph-name="K" unicode="K" horiz-adv-x="1154" 
d="M614 461q145 -130 202 -180.5t151.5 -127t167.5 -123.5l-1 -19q-66 -19 -145 -19q-106 54 -494 414q-151 -67 -305 -122v-284h-122v899q24 8 64 7t58 -7v-504q254 96 408 178q162 84 247.5 167.5t79.5 156.5q67 14 122 2q12 -85 -72.5 -188.5t-247.5 -191.5
q-73 -38 -113 -58z" />
    <glyph glyph-name="L" unicode="L" horiz-adv-x="950" 
d="M95 0l-27 24v875q22 8 62.5 7t59.5 -7v-800h729q12 -17 12 -48t-12 -51h-824z" />
    <glyph glyph-name="M" unicode="M" horiz-adv-x="1351" 
d="M1317 0h-123l-86 707l-390 -566h-86l-389 565l-87 -706h-122l109 881q15 13 55.5 18.5t55.5 -0.5l421 -610l420 610q16 6 56.5 0t56.5 -19z" />
    <glyph glyph-name="N" unicode="N" horiz-adv-x="1154" 
d="M964 899q25 8 63.5 7t58.5 -7v-899h-98l-798 723v-723h-122v871q13 14 48 23.5t51 4.5l797 -728v728z" />
    <glyph glyph-name="O" unicode="O" horiz-adv-x="1141" 
d="M518 -18q-216 0 -350 121t-134 301q0 148 81.5 267.5t218.5 185t299 65.5q99 0 187.5 -35.5t151 -95t99 -140.5t36.5 -169q0 -105 -49 -199t-129.5 -159.5t-188 -103.5t-222.5 -38zM528 85q186 0 319.5 116.5t133.5 283.5q0 144 -103 238.5t-262 94.5q-189 0 -322.5 -117
t-133.5 -290q0 -136 99.5 -231t268.5 -95z" />
    <glyph glyph-name="P" unicode="P" horiz-adv-x="1042" 
d="M1008 587q0 -111 -71.5 -189.5t-184.5 -114t-253 -35.5q-164 0 -309 31v-279h-122v878q193 44 444 44q230 0 363 -90.5t133 -244.5zM492 347q173 0 281 61t109 177q0 110 -98.5 174t-279.5 64q-180 0 -314 -31v-406q134 -39 302 -39z" />
    <glyph glyph-name="Q" unicode="Q" horiz-adv-x="1141" 
d="M1055 -27q18 -16 26 -46t0 -58q-142 -32 -227 -33q-257 -5 -371 147q-202 10 -325.5 129.5t-123.5 291.5q0 148 81.5 267.5t218.5 185t299 65.5q99 0 187.5 -35.5t151 -95t99 -140.5t36.5 -169q0 -186 -140 -323t-344 -169q70 -66 190 -66q101 1 242 49zM160 411
q0 -136 99.5 -231t268.5 -95q186 0 319.5 116.5t133.5 283.5q0 144 -103 238.5t-262 94.5q-189 0 -322.5 -117t-133.5 -290z" />
    <glyph glyph-name="R" unicode="R" horiz-adv-x="1133" 
d="M718 314q230 -204 366 -288l-2 -20q-50 -15 -144 -15q-23 10 -53.5 31.5t-87 68.5t-96.5 81.5t-134 117.5q-46 -2 -69 -2q-144 0 -308 34v-322h-122v878q104 25 203 34.5t246 9.5q227 0 359 -85t132 -234q0 -107 -79 -180.5t-211 -108.5zM499 387q103 -1 187.5 21.5
t139.5 74t55 124.5q0 97 -97.5 156.5t-280.5 59.5q-184 0 -313 -27v-374q128 -34 309 -35z" />
    <glyph glyph-name="S" unicode="S" horiz-adv-x="1067" 
d="M567 -18q-310 0 -533 140q0 4 6 21t24 40t42 31q209 -133 449 -133q171 0 261.5 47t90.5 124q0 83 -92.5 119t-273.5 43q-115 4 -201 29t-140 79.5t-54 132.5q0 83 60.5 145t152 92t196.5 30q221 0 343.5 -80t122.5 -194q-83 -21 -131 -8q-5 84 -92.5 133.5t-243.5 49.5
q-123 0 -202.5 -44.5t-79.5 -118.5q0 -38 24.5 -67t67.5 -45.5t91.5 -25t105.5 -10.5q473 -14 473 -253q0 -127 -125 -202t-342 -75z" />
    <glyph glyph-name="T" unicode="T" horiz-adv-x="1094" 
d="M1057 899q7 -22 -1 -54t-21 -45h-445v-800h-126v800h-427q-6 20 -1.5 51.5t15.5 47.5h1006z" />
    <glyph glyph-name="U" unicode="U" horiz-adv-x="1152" 
d="M559 -22q-237 0 -364 106.5t-127 308.5v506q22 7 65 6t61 -6v-511q0 -148 96 -227.5t269 -79.5q185 0 292 89t107 230v499q24 7 65.5 6t60.5 -6v-501q0 -186 -138 -303t-387 -117z" />
    <glyph glyph-name="V" unicode="V" horiz-adv-x="1105" 
d="M513 0l-39 21q-97 227 -257 516t-204 342l6 20q68 11 117 0q77 -105 215 -352.5t218 -443.5h28q168 180 280 403.5t90 383.5q44 24 117 9q34 -172 -79 -407.5t-332 -468.5l-44 -23h-116z" />
    <glyph glyph-name="W" unicode="W" horiz-adv-x="1610" 
d="M513 0l-31 17q-101 235 -241.5 487.5t-227.5 374.5l7 20q24 6 58 6t58 -6q114 -164 236.5 -381t205.5 -415h10q87 103 166 221.5t104 192.5q-3 9 -92 208q11 17 45 31t67 11q48 -82 142.5 -298t147.5 -366h10q118 125 189 271.5t90.5 274.5t-0.5 241q38 24 121 9
q12 -76 12.5 -157t-21.5 -173.5t-59.5 -182.5t-100 -184t-144.5 -178l-45 -24h-138l-19 14q-23 56 -78 179t-80 173q-25 -65 -104 -181.5t-126 -169.5l-35 -15h-127z" />
    <glyph glyph-name="X" unicode="X" horiz-adv-x="1151" 
d="M684 429q149 -133 454 -414l-5 -15h-155q-32 24 -110.5 94.5t-174.5 160.5t-123 114q-101 -56 -161.5 -94t-123.5 -85.5t-96 -93.5t-43 -96h-133q8 34 20.5 65.5t26 57.5t37 53.5t42 47.5t53.5 47.5t58 44.5t69 46t73.5 46t83.5 51q-26 25 -124 122t-180 176.5
t-129 120.5l8 20q29 5 78 5t77 -4q178 -183 383 -377q202 113 289 202t76 166q39 24 126 8q8 -50 -5 -96.5t-55 -103t-125.5 -123t-210.5 -146.5z" />
    <glyph glyph-name="Y" unicode="Y" horiz-adv-x="1068" 
d="M1051 899q7 -58 -11 -122.5t-64 -140.5t-134.5 -162.5t-213.5 -174.5v-299h-122v307q-71 94 -239 292.5t-252 279.5l9 20q82 15 146 0q80 -80 417 -490q160 109 254.5 245t84.5 236q43 22 125 9z" />
    <glyph glyph-name="Z" unicode="Z" horiz-adv-x="1041" 
d="M994 99q13 -13 13.5 -46.5t-13.5 -52.5h-934q-12 10 -20 37.5t-5 47.5q167 219 360 412.5t365 302.5h-688q-13 13 -13.5 46.5t13.5 52.5h885q12 -9 20.5 -42.5t6.5 -54.5q-192 -111 -407 -309.5t-369 -393.5h786z" />
    <glyph glyph-name="bracketleft" unicode="[" horiz-adv-x="552" 
d="M92 -231v1234h369v-93h-263v-1049h263v-92h-369z" />
    <glyph glyph-name="backslash" unicode="\" horiz-adv-x="1080" 
d="M1100 -131h-132l-988 1134h132z" />
    <glyph glyph-name="bracketright" unicode="]" horiz-adv-x="552" 
d="M461 -231h-369v92h262v1049h-262v93h369v-1234z" />
    <glyph glyph-name="asciicircum" unicode="^" horiz-adv-x="1029" 
d="M902 510h-163l-223 268l-224 -268h-165l356 387h66z" />
    <glyph glyph-name="underscore" unicode="_" horiz-adv-x="786" 
d="M92 -87v87h602v-87h-602z" />
    <glyph glyph-name="grave" unicode="`" horiz-adv-x="454" 
d="M306 755l-248 248h134l205 -248h-91z" />
    <glyph glyph-name="a" unicode="a" horiz-adv-x="878" 
d="M809 207q1 -85 9 -123t27 -71l-3 -13h-116q-16 15 -23 24.5t-14 39t-7 79.5v13q-68 -81 -169.5 -127.5t-210.5 -46.5q-116 0 -187.5 50.5t-71.5 127.5q0 86 76.5 147.5t194 89.5t260.5 27q52 0 97 -4q-9 94 -69.5 146t-157.5 52q-123 0 -284 -88q-41 17 -49 83
q169 94 330 94q174 0 270 -87.5t97 -251.5zM670 330l2 13q-59 3 -113 3q-165 -1 -274.5 -45.5t-109.5 -124.5q0 -44 38.5 -71t106.5 -27q134 0 235 79.5t115 172.5z" />
    <glyph glyph-name="b" unicode="b" horiz-adv-x="910" 
d="M524 707q153 0 254 -94.5t101 -247.5q0 -156 -114.5 -269.5t-289.5 -113.5q-167 0 -273 109q-6 -53 -21 -91h-123v15q16 60 16 174v745q21 6 61.5 6t58.5 -6v-419q49 90 138 141t192 51zM462 82q128 0 211 85t83 196t-67 177t-173 66q-125 0 -220.5 -95.5t-95.5 -221.5
q0 -77 75.5 -142t186.5 -65z" />
    <glyph glyph-name="c" unicode="c" horiz-adv-x="852" 
d="M430 -18q-107 0 -196 39.5t-146 120t-57 188.5t61.5 196t160.5 134.5t211 46.5q170 0 266 -92t90 -237q-29 -7 -63.5 -10.5t-64.5 1.5q2 108 -58.5 172.5t-177.5 64.5q-118 1 -210 -78t-92 -198q0 -114 80.5 -181.5t195.5 -65.5q162 1 290 94q24 -8 40.5 -27.5t21.5 -33
t5 -17.5q-155 -117 -357 -117z" />
    <glyph glyph-name="d" unicode="d" horiz-adv-x="918" 
d="M844 189q0 -116 17 -174v-15h-103q-33 53 -33 146v3q-50 -77 -133 -122t-188 -45q-166 0 -269.5 95t-103.5 249q0 165 115.5 273t295.5 108q91 0 166 -39.5t116 -107.5v374q18 6 58.5 6t61.5 -6v-745zM408 82q130 0 214 92t84 224q0 85 -72 146t-169 61
q-134 0 -222.5 -79.5t-88.5 -199.5q0 -109 71 -176.5t183 -67.5z" />
    <glyph glyph-name="e" unicode="e" horiz-adv-x="851" 
d="M457 707q166 0 269 -90t96 -253l-19 -23l-634 -81q20 -83 93.5 -130.5t175.5 -47.5q145 0 282 90q19 -7 34 -25.5t20 -32t5 -16.5q-165 -116 -356 -116q-169 0 -280.5 89t-111.5 248q0 165 123.5 276.5t302.5 111.5zM163 346l526 61q-1 98 -63 152t-169 54
q-111 0 -197.5 -76.5t-96.5 -190.5z" />
    <glyph glyph-name="f" unicode="f" horiz-adv-x="516" 
d="M615 929q5 -17 -4 -51.5t-21 -45.5q-67 19 -118 19q-157 0 -171 -180h257v-99h-258v-572h-120v572h-179v99h180q17 279 266 279q73 0 168 -21z" />
    <glyph glyph-name="g" unicode="g" horiz-adv-x="903" 
d="M740 680q47 5 106 -8v-16q-14 -72 -14 -159v-413q0 -176 -110 -274.5t-293 -98.5q-190 0 -370 114q4 28 16.5 52.5t31.5 35.5q176 -101 309 -101q136 0 221.5 73t85.5 196v72q-45 -77 -133 -124t-193 -47q-157 0 -262 91t-104 246q1 170 113.5 278.5t285.5 108.5
q102 0 177 -38.5t116 -99.5v27zM400 82q129 0 216 87t87 232q0 72 -73 138.5t-174 66.5q-130 0 -215.5 -80.5t-86.5 -199.5q-1 -106 67 -175t179 -69z" />
    <glyph glyph-name="h" unicode="h" horiz-adv-x="886" 
d="M522 707q161 0 241 -89t80 -255v-363h-120v349q0 117 -58 184t-168 67q-129 0 -224 -101.5t-95 -230.5v-268h-120v934q20 6 60.5 6t59.5 -6v-409q56 80 148.5 131t195.5 51z" />
    <glyph glyph-name="i" unicode="i" horiz-adv-x="271" 
d="M136 802q-33 0 -57.5 21t-24.5 50t24.5 50.5t57.5 21.5t57.5 -21.5t24.5 -50.5t-24.5 -50t-57.5 -21zM76 0v671q19 6 61 6t59 -6v-671h-120z" />
    <glyph glyph-name="j" unicode="j" horiz-adv-x="321" 
d="M163 802q-33 0 -57.5 21t-24.5 50t24.5 50.5t57.5 21.5t57.5 -21.5t24.5 -50.5t-24.5 -50t-57.5 -21zM40 -243q-49 0 -115 18q-7 23 2.5 56.5t26.5 48.5q46 -12 68 -12q46 -1 64.5 41.5t18.5 151.5v610q19 6 61.5 6t58.5 -6v-682q0 -232 -185 -232z" />
    <glyph glyph-name="k" unicode="k" horiz-adv-x="979" 
d="M565 336q32 -27 79 -66.5t73.5 -61.5t61 -51t56 -46t45 -34.5t40.5 -27.5t30 -16v-21q-20 -7 -67 -12.5t-89 -4.5q-65 25 -348 280q-129 -64 -268 -113v-162h-120v934q24 8 61.5 8t58.5 -8v-659q117 46 295 139q127 68 187.5 125t54.5 124q58 13 145 8q19 -77 -47 -155.5
t-216 -161.5q-22 -12 -32 -18z" />
    <glyph glyph-name="l" unicode="l" horiz-adv-x="393" 
d="M243 -18q-85 -1 -127 51.5t-42 158.5v742q22 7 59.5 7.5t61.5 -7.5v-713q0 -75 21 -108.5t66 -32.5q30 0 74 12q11 -9 16.5 -40.5t-0.5 -47.5q-72 -20 -129 -22z" />
    <glyph glyph-name="m" unicode="m" horiz-adv-x="1319" 
d="M996 707q132 0 198.5 -81.5t66.5 -234.5v-391h-120v377q0 106 -41 167.5t-124 61.5q-106 0 -181.5 -89t-75.5 -206v-311h-116v371q0 235 -156 235q-106 0 -180.5 -93t-74.5 -219v-294h-121v512q0 81 -13 140v18q65 14 111 9q13 -41 13 -86v-46q46 70 119.5 115t155.5 45
q187 0 232 -182q46 81 128.5 131.5t178.5 50.5z" />
    <glyph glyph-name="n" unicode="n" horiz-adv-x="913" 
d="M519 706q165 0 250.5 -89t85.5 -254v-363h-120v338q0 125 -58 193.5t-173 68.5q-123 0 -217.5 -102.5t-94.5 -229.5v-268h-121v512q0 81 -13 140v18q67 14 115 9q13 -41 13 -86v-64q57 77 146.5 127t186.5 50z" />
    <glyph glyph-name="o" unicode="o" horiz-adv-x="909" 
d="M431 -18q-187 0 -293.5 95.5t-106.5 239.5q0 161 131.5 275.5t323.5 114.5q179 0 284.5 -94t107.5 -240q2 -169 -124.5 -280t-322.5 -111zM437 83q137 0 227.5 83t90.5 195q0 104 -75.5 174.5t-200.5 70.5q-137 0 -231 -86t-94 -203q0 -99 74 -166.5t209 -67.5z" />
    <glyph glyph-name="p" unicode="p" horiz-adv-x="904" 
d="M512 707q163 0 262 -94.5t99 -240.5q0 -164 -114.5 -277t-280.5 -113q-90 0 -165 37t-122 101v-366q-16 -6 -58.5 -6t-61.5 6v748q0 81 -13 159v17q55 17 106 9l26 -106v-38q57 75 140.5 119.5t181.5 44.5zM459 82q128 0 209.5 85.5t81.5 198.5q0 110 -68 175t-174 65
q-123 0 -219 -96.5t-96 -222.5q0 -77 79 -141t187 -64z" />
    <glyph glyph-name="q" unicode="q" horiz-adv-x="905" 
d="M737 679q56 8 111 -9v-18q-16 -77 -16 -141v-757q-20 -6 -62 -6t-58 6v382q-51 -69 -134 -111.5t-172 -42.5q-166 0 -270.5 95.5t-104.5 237.5q0 178 115 285t291 107q91 0 166.5 -37.5t115.5 -97.5v40zM412 82q125 0 209 89.5t84 225.5q0 86 -71 147t-176 61
q-131 0 -217.5 -79.5t-86.5 -204.5q0 -104 71.5 -171.5t186.5 -67.5z" />
    <glyph glyph-name="r" unicode="r" horiz-adv-x="656" 
d="M625 682q7 -20 -5 -53.5t-28 -51.5q-62 21 -112 21q-132 -2 -210 -90.5t-78 -221.5v-286h-121v512q0 81 -13 140v18q62 14 107 9q12 -43 12 -86v-79q40 85 120.5 139t189.5 54q65 0 138 -25z" />
    <glyph glyph-name="s" unicode="s" horiz-adv-x="882" 
d="M452 -18q-107 0 -218.5 28.5t-194.5 89.5q12 56 58 86q72 -50 169.5 -76.5t191.5 -26.5q122 0 190.5 32.5t68.5 83.5q0 56 -62.5 77.5t-223.5 26.5q-179 7 -265.5 57.5t-86.5 134.5q0 93 97 152.5t273 59.5q91 0 198.5 -21.5t185.5 -65.5q-9 -45 -39 -92q-68 38 -164 58
t-172 20q-129 0 -192.5 -33t-63.5 -78q0 -48 59 -71t188 -28q211 -7 301 -53.5t90 -142.5q0 -99 -108 -158.5t-280 -59.5z" />
    <glyph glyph-name="t" unicode="t" horiz-adv-x="647" 
d="M611 572h-367v-257q0 -110 53.5 -170.5t156.5 -61.5q53 0 129 19q14 -11 21.5 -45t0.5 -52q-86 -23 -158 -23q-148 -2 -235.5 82.5t-87.5 241.5v266h-110v99h110v179q19 11 56.5 17.5t63.5 0.5v-197h367v-99z" />
    <glyph glyph-name="u" unicode="u" horiz-adv-x="897" 
d="M828 195q0 -126 26 -180l-1 -15h-102q-11 14 -17 24.5t-11 36t-5 62.5v9q-48 -69 -139 -109.5t-207 -40.5q-144 0 -229 74.5t-85 228.5v386q46 12 120 0v-365q0 -112 58.5 -167.5t158.5 -55.5q138 0 225.5 84.5t87.5 216.5v287q20 6 60.5 5.5t59.5 -5.5v-476z" />
    <glyph glyph-name="v" unicode="v" horiz-adv-x="886" 
d="M401 0l-21 15q-37 91 -78 174t-87 158t-73.5 117.5t-76 110t-55.5 77.5l8 19q71 13 117 0q77 -91 175 -243.5t169 -326.5h14q132 139 205.5 296.5t52.5 264.5q38 25 117 9q31 -121 -57.5 -311t-240.5 -348l-27 -12h-142z" />
    <glyph glyph-name="w" unicode="w" horiz-adv-x="1343" 
d="M376 0l-21 14q-78 209 -185.5 390t-163.5 248l8 19q71 14 116 0q221 -301 319 -570h11q55 71 116.5 170.5t96.5 175.5l-64 120q12 20 45.5 35t68.5 11q142 -241 235 -512h11q111 127 185.5 286.5t59.5 274.5q41 23 117 9q22 -130 -59.5 -317.5t-227.5 -341.5l-22 -12
h-126l-28 15q-41 113 -130 291q-22 -48 -87.5 -147.5t-109.5 -147.5l-23 -11h-142z" />
    <glyph glyph-name="x" unicode="x" horiz-adv-x="917" 
d="M557 331q43 -40 166 -147.5t180 -161.5l-9 -22h-146q-97 93 -314 276q-150 -93 -216.5 -152.5t-67.5 -123.5h-118q-9 48 12 95.5t69.5 91.5t105 81t133.5 78q-22 20 -143.5 128t-194.5 176l7 19q29 6 71 6t70 -7q53 -50 158 -142t146 -130q54 37 83.5 58t70 53t60 55
t34 51t12.5 53q19 9 57.5 10t64.5 -5q11 -71 -62.5 -154t-228.5 -186z" />
    <glyph glyph-name="y" unicode="y" horiz-adv-x="878" 
d="M862 671q12 -79 -3 -177.5t-55 -204.5t-117 -213.5t-180 -190.5q-173 -135 -373 -137q-67 0 -108 18q-22 42 -2 85l23 12q36 -15 89 -15q161 3 313 139q14 12 40 38q-95 57 -182 147.5t-145.5 183.5t-96 167t-55.5 128l7 19q64 15 122 1q18 -50 48 -111t81.5 -147.5
t128.5 -170t164 -138.5q203 251 182 557q38 25 119 10z" />
    <glyph glyph-name="z" unicode="z" horiz-adv-x="861" 
d="M835 101q12 -8 12.5 -44t-12.5 -57h-795q-12 10 -20 38t-6 50q145 166 284.5 286t308.5 196h-556q-11 11 -11.5 45.5t11.5 55.5h757q11 -10 18.5 -48t5.5 -62q-125 -41 -304.5 -176.5t-312.5 -283.5h620z" />
    <glyph glyph-name="braceleft" unicode="{" horiz-adv-x="618" 
d="M401 52q12 -77 40.5 -131t84.5 -101l-52 -65q-79 52 -119.5 111t-58.5 142q-8 34 -13 80.5t-8 76t-13.5 63.5t-28 53t-53 31.5t-88.5 12.5v102q57 0 94 15t54 40t27 64.5t13.5 78.5t14 93t27.5 98q43 106 164 187l51 -63q-87 -71 -115 -161q-14 -45 -22 -103t-12.5 -99
t-16 -82.5t-39.5 -71.5t-76 -47q34 -14 58.5 -35t37.5 -42.5t22 -55.5t12 -58.5t7 -66.5t8 -66z" />
    <glyph glyph-name="bar" unicode="|" horiz-adv-x="284" 
d="M92 -231v1243h100v-1243h-100z" />
    <glyph glyph-name="braceright" unicode="}" horiz-adv-x="618" 
d="M316 816q17 -44 27.5 -98t14 -93t13.5 -78.5t27 -64.5t54 -40t94 -15v-102q-53 0 -88.5 -12.5t-53 -31.5t-28 -53t-13.5 -63.5t-8 -76t-13 -80.5q-18 -83 -58.5 -142t-119.5 -111l-52 65q56 47 84.5 101t40.5 131q4 24 8 66t7 66.5t12 58.5t22 55.5t37.5 42.5t58.5 35
q-48 17 -76 47t-39.5 71.5t-16 82.5t-12.5 99t-22 103q-28 90 -115 161l51 63q121 -81 164 -187z" />
    <glyph glyph-name="asciitilde" unicode="~" horiz-adv-x="860" 
d="M92 292q0 84 46 138.5t122 54.5q52 0 111.5 -23t113 -46t90.5 -23q39 0 63 24.5t24 67.5h107q0 -83 -45 -138t-124 -55q-53 0 -113.5 23t-114.5 46t-91 23t-60 -24t-23 -68h-106z" />
    <glyph glyph-name="exclamdown" unicode="&#xa1;" horiz-adv-x="422" 
d="M211 659q-28 0 -51 20t-23 45q0 26 22.5 45.5t51.5 19.5q30 0 52 -19.5t22 -45.5q0 -25 -22 -45t-52 -20zM148 -131l10 631h107l10 -631h-127z" />
    <glyph glyph-name="cent" unicode="&#xa2;" horiz-adv-x="1062" 
d="M910 234l55 -78q-45 -30 -134 -59.5t-194 -36.5v-191h-87v189q-216 7 -337 113t-121 275q0 173 130.5 276t327.5 110v179h87v-179q204 -11 333 -102l-60 -81q-115 84 -332 84q-154 0 -259 -76t-105 -211q0 -130 95 -209t269 -79q188 0 332 76z" />
    <glyph glyph-name="sterling" unicode="&#xa3;" horiz-adv-x="1115" 
d="M308 99h715v-99h-914v99h12q56 0 76 40.5t20 111.5q0 38 -12 105h-113v99h99q-7 61 -7 114q0 143 105 225.5t295 82.5q261 0 417 -118l-62 -74q-124 91 -324 91q-157 0 -231 -59.5t-74 -159.5q0 -36 6 -102h492v-99h-479q10 -65 10 -117q0 -87 -31 -140z" />
    <glyph glyph-name="currency" unicode="&#xa4;" horiz-adv-x="676" 
d="M519 446q0 -44 -23 -82l88 -83l-64 -70l-101 90q-39 -17 -83 -17t-82 15l-98 -88l-64 71l86 79q-23 37 -23 85q0 43 19 79l-82 75l64 71l91 -80q39 18 89 18q54 0 91 -18l93 82l64 -71l-84 -77q19 -36 19 -79zM243 446q0 -39 25 -64.5t68 -25.5q41 0 67.5 26t26.5 64
q0 39 -25 64.5t-69 25.5q-42 0 -67.5 -26.5t-25.5 -63.5z" />
    <glyph glyph-name="yen" unicode="&#xa5;" horiz-adv-x="1202" 
d="M1110 877l-422 -458h279v-86h-303v-107h303v-86h-303v-140h-122v140h-307v86h307v107h-307v86h283l-426 458h177l332 -371l335 371h174z" />
    <glyph glyph-name="brokenbar" unicode="&#xa6;" horiz-adv-x="284" 
d="M92 481v531h100v-531h-100zM92 -231v534h100v-534h-100z" />
    <glyph glyph-name="section" unicode="&#xa7;" horiz-adv-x="742" 
d="M531 179q99 -71 99 -162q0 -78 -80 -130.5t-213 -52.5q-117 0 -215 36v102q40 -16 103 -26.5t112 -10.5q67 0 105.5 25t38.5 70q0 30 -29 58.5t-72 50.5t-93.5 49.5t-93.5 53.5t-72 65t-29 83q0 50 29 96t86 77q-97 74 -97 178q0 77 81.5 129t211.5 52q50 0 111.5 -10
t102.5 -27v-103q-39 18 -101 28.5t-113 10.5q-80 0 -124 -25t-44 -65q0 -31 23 -58t59.5 -48t80.5 -42t88.5 -44t81 -49.5t59.5 -63.5t23 -81q0 -51 -32 -94t-87 -72zM218 402q0 -18 10 -35.5t23 -30t39.5 -28t45 -25t54 -26.5t53.5 -26q36 17 58.5 44t22.5 55q0 19 -10 37
t-23.5 31t-39.5 28.5t-45.5 25.5t-54.5 27t-54 27q-79 -41 -79 -104z" />
    <glyph glyph-name="dieresis" unicode="&#xa8;" horiz-adv-x="652" 
d="M140 774q-33 0 -57.5 21t-24.5 50t24.5 50.5t57.5 21.5t57.5 -21.5t24.5 -50.5t-24.5 -50t-57.5 -21zM513 774q-33 0 -57.5 21t-24.5 50t24.5 50.5t57.5 21.5q32 0 57 -22t25 -50t-25 -49.5t-57 -21.5z" />
    <glyph glyph-name="copyright" unicode="&#xa9;" horiz-adv-x="1413" 
d="M707 -19q-269 0 -442 129.5t-173 333.5q0 132 82 242t223 172.5t310 62.5q266 0 440 -135t174 -342q0 -204 -172.5 -333.5t-441.5 -129.5zM707 60q143 0 258.5 43t187.5 131.5t72 208.5q0 122 -71.5 214t-188 138.5t-258.5 46.5q-140 0 -258.5 -50.5t-189.5 -143
t-71 -205.5q0 -175 146.5 -279t372.5 -104zM702 209q-138 0 -233 67t-95 172q0 106 95 174.5t234 68.5q157 0 250 -67l-44 -73q-76 47 -195 47q-89 0 -150 -42t-61 -109q0 -64 61 -104.5t152 -40.5q127 0 198 47l50 -68q-86 -72 -262 -72z" />
    <glyph glyph-name="ordfeminine" unicode="&#xaa;" horiz-adv-x="614" 
d="M444 1074h78v-404h-76v22q-62 -27 -136 -27q-105 0 -161.5 56t-56.5 143q0 85 62.5 146.5t165.5 61.5q66 0 124 -30v32zM317 727q71 0 129 30l-1 206q-56 41 -124 41q-70 0 -114 -41t-44 -99q0 -62 42.5 -99.5t111.5 -37.5z" />
    <glyph glyph-name="guillemotleft" unicode="&#xab;" horiz-adv-x="1391" 
d="M762 686l-497 -250l498 -245l-38 -82l-633 292v73l629 292zM800 436l499 -245l-38 -82l-634 292v73l630 292l41 -80z" />
    <glyph glyph-name="logicalnot" unicode="&#xac;" horiz-adv-x="871" 
d="M676 228v163h-584v100h687v-263h-103z" />
    <glyph glyph-name="uni00AD" unicode="&#xad;" horiz-adv-x="1302" 
d="M200 316v94h902v-94h-902z" />
    <glyph glyph-name="registered" unicode="&#xae;" horiz-adv-x="1025" 
d="M513 922q171 0 295.5 -93t124.5 -240q0 -102 -58 -178t-152 -113.5t-210 -37.5q-189 0 -305 90t-116 239q0 139 123 236t298 97zM513 313q73 0 136.5 16t114.5 48.5t80 86.5t29 125q0 87 -50.5 151.5t-131.5 96t-178 31.5q-151 0 -256.5 -80.5t-105.5 -198.5
q0 -129 98.5 -202.5t263.5 -73.5zM712 665q0 -44 -32 -75t-81 -43l100 -150h-65l-95 145h-136v-145h-59v389h207q72 0 116.5 -33.5t44.5 -87.5zM546 587q43 0 73.5 22t30.5 56q0 33 -29 54t-75 21h-143v-153h143z" />
    <glyph glyph-name="macron" unicode="&#xaf;" horiz-adv-x="732" 
d="M58 806v99h617v-99h-617z" />
    <glyph glyph-name="degree" unicode="&#xb0;" horiz-adv-x="675" 
d="M339 539q-112 0 -179.5 51.5t-67.5 139.5q0 84 67.5 138t179.5 54q111 0 177.5 -53t66.5 -139q0 -85 -69 -138t-175 -53zM337 601q71 0 117.5 36t46.5 93q0 59 -46 94.5t-118 35.5q-69 0 -116 -36t-47 -94q0 -60 46 -94.5t117 -34.5z" />
    <glyph glyph-name="plusminus" unicode="&#xb1;" horiz-adv-x="855" 
d="M479 572h284v-101h-284v-243h-103v243h-284v101h284v248h103v-248zM92 50v101h671v-101h-671z" />
    <glyph glyph-name="uni00B2" unicode="&#xb2;" horiz-adv-x="989" 
d="M253 354h644v-94h-798v83q40 71 126 133t177.5 104.5t178 81.5t142.5 82t56 88q0 62 -70 97.5t-208 35.5q-214 0 -331 -84l-59 74q153 102 395 102q182 0 282.5 -64.5t100.5 -163.5q0 -55 -36.5 -102.5t-92.5 -80t-129 -67.5t-141.5 -64t-134 -72t-102.5 -89z" />
    <glyph glyph-name="uni00B3" unicode="&#xb3;" horiz-adv-x="1009" 
d="M645 678q147 -23 210 -70t63 -123q0 -100 -107 -165t-314 -65q-128 0 -236.5 29.5t-166.5 75.5l49 81q40 -36 133 -63.5t206 -27.5q152 0 235.5 39t83.5 100q0 70 -93 103t-333 43v87q175 0 288.5 35.5t113.5 94.5q0 108 -300 108q-103 0 -193.5 -24t-134.5 -53l-47 77
q48 36 156.5 64t236.5 28q192 0 295.5 -55t103.5 -139q0 -136 -249 -180z" />
    <glyph glyph-name="acute" unicode="&#xb4;" horiz-adv-x="423" 
d="M58 755l173 248h135l-233 -248h-75z" />
    <glyph glyph-name="uni00B5" unicode="&#xb5;" horiz-adv-x="896" 
d="M828 251q0 -121 5 -161t20 -75l-1 -15h-101q-28 26 -28 90v79q-38 -82 -128 -134.5t-212 -52.5q-144 0 -219 87v-320h-106v922q47 10 120 0v-366q0 -114 58.5 -168t157.5 -54q140 0 226.5 84.5t86.5 216.5v287q24 6 65 4.5t56 -4.5v-420z" />
    <glyph glyph-name="paragraph" unicode="&#xb6;" horiz-adv-x="896" 
d="M302 -131v699q-102 1 -156 46.5t-54 114.5q0 70 52 115.5t158 45.5h502v-83h-126v-938h-90v938h-196v-938h-90z" />
    <glyph glyph-name="periodcentered" unicode="&#xb7;" horiz-adv-x="542" 
d="M270 328q-32 0 -56.5 21.5t-24.5 50.5q0 28 24.5 49.5t56.5 21.5q34 0 58.5 -21t24.5 -50t-24.5 -50.5t-58.5 -21.5z" />
    <glyph glyph-name="cedilla" unicode="&#xb8;" horiz-adv-x="422" 
d="M212 -337q-83 0 -154 64l70 60q36 -32 75 -32q24 1 38.5 15.5t14.5 36.5q-1 26 -54 83q-36 38 -46.5 62.5t-10.5 61.5h106q0 -35 10 -54t45 -54q58 -57 58 -111q2 -54 -42 -93t-110 -39z" />
    <glyph glyph-name="uni00B9" unicode="&#xb9;" horiz-adv-x="793" 
d="M460 354h241v-94h-597v94h251v606l-237 -46l-19 81l297 57h64v-698z" />
    <glyph glyph-name="ordmasculine" unicode="&#xba;" horiz-adv-x="575" 
d="M288 667q-91 0 -161 51.5t-70 144.5q0 96 65.5 151.5t165.5 55.5t165 -55.5t65 -151.5q0 -93 -69.5 -144.5t-160.5 -51.5zM288 729q62 0 110 34t48 100t-44 102.5t-114 36.5q-71 0 -115.5 -36.5t-44.5 -102.5t48.5 -100t111.5 -34z" />
    <glyph glyph-name="guillemotright" unicode="&#xbb;" horiz-adv-x="1391" 
d="M764 474v-73l-634 -292l-38 82l498 245l-497 250l41 80zM670 766l629 -292v-73l-633 -292l-38 82l498 245l-498 250z" />
    <glyph glyph-name="onequarter" unicode="&#xbc;" horiz-adv-x="1426" 
d="M92 438v95h160v416l-144 -42l-1 93l180 52h71v-519h154v-95h-420zM1222 1052h112l-1031 -1183h-112zM1227 483v-385h74v-92h-74v-137h-109v137h-283v69l279 408h113zM1134 98l2 289l-193 -289h191z" />
    <glyph glyph-name="onehalf" unicode="&#xbd;" horiz-adv-x="1452" 
d="M92 442v95h160v416l-144 -42l-1 92l180 53h71v-519h154v-95h-420zM1219 1052h112l-1031 -1183h-112zM1047 -37h286v-94h-421v85q36 47 113 115t125 121.5t48 97.5q0 43 -30.5 70t-79.5 27q-69 0 -158 -65v92q91 70 192 70q88 0 144 -49.5t56 -119.5q0 -43 -30 -92
t-66.5 -84.5t-93.5 -89t-85 -84.5z" />
    <glyph glyph-name="threequarters" unicode="&#xbe;" horiz-adv-x="1396" 
d="M532 618q0 -68 -53 -120t-153 -52q-49 0 -109.5 22t-104.5 61v86q107 -78 203 -78q51 0 84.5 28.5t33.5 69.5t-48.5 68.5t-139.5 37.5v66q75 3 120 25.5t45 63.5q0 32 -33 55.5t-80 23.5q-81 0 -168 -63v77q81 66 173 66q88 0 141 -42t53 -101q0 -99 -116 -141
q74 -22 113 -61.5t39 -91.5zM1183 1038h113l-1031 -1183h-112zM1210 483v-385h74v-92h-74v-137h-109v137h-283v69l278 408h114zM1117 98l2 285l-193 -285h191z" />
    <glyph glyph-name="questiondown" unicode="&#xbf;" horiz-adv-x="975" 
d="M531 680q29 0 51.5 -19.5t22.5 -44.5t-22.5 -45.5t-51.5 -20.5q-30 0 -52.5 20t-22.5 46t22.5 45t52.5 19zM573 415q13 -55 1 -94.5t-43.5 -72.5t-72.5 -57t-85.5 -48t-81 -44.5t-60.5 -48.5t-24 -58q0 -57 70 -95.5t204 -38.5q103 0 203 32.5t171 85.5l63 -76
q-203 -141 -446 -141q-188 0 -287.5 63t-99.5 162q0 48 25 87.5t64.5 66.5t86.5 51.5t92 47t80 47t52.5 58t7.5 73.5h80z" />
    <glyph glyph-name="Agrave" unicode="&#xc0;" horiz-adv-x="1170" 
d="M669 970h-80l-213 191h113zM650 899q33 -55 150.5 -267t221.5 -394t136 -220l-8 -18q-104 0 -138 13q-27 36 -115 198h-630l-116 -211h-138l503 899q22 9 67.5 8.5t66.5 -8.5zM321 310h522q-46 87 -135.5 256.5t-120.5 228.5z" />
    <glyph glyph-name="Aacute" unicode="&#xc1;" horiz-adv-x="1170" 
d="M853 1148l-226 -195h-83l182 195h127zM650 899q33 -55 150.5 -267t221.5 -394t136 -220l-8 -18q-104 0 -138 13q-27 36 -115 198h-630l-116 -211h-138l503 899q22 9 67.5 8.5t66.5 -8.5zM321 310h522q-46 87 -135.5 256.5t-120.5 228.5z" />
    <glyph glyph-name="Acircumflex" unicode="&#xc2;" horiz-adv-x="1170" 
d="M591 1101l-157 -150h-124l244 223h74l244 -223h-124zM650 899q33 -55 150.5 -267t221.5 -394t136 -220l-8 -18q-104 0 -138 13q-27 36 -115 198h-630l-116 -211h-138l503 899q22 9 67.5 8.5t66.5 -8.5zM321 310h522q-46 87 -135.5 256.5t-120.5 228.5z" />
    <glyph glyph-name="Atilde" unicode="&#xc3;" horiz-adv-x="1170" 
d="M455 1051q-31 0 -51 -24t-20 -68h-80q0 78 38 129.5t99 51.5q53 0 141 -49.5t124 -49.5q33 0 52.5 24.5t19.5 67.5h81q0 -77 -36.5 -128t-100.5 -51q-43 0 -93 24t-95.5 48.5t-78.5 24.5zM650 899q33 -55 150.5 -267t221.5 -394t136 -220l-8 -18q-104 0 -138 13
q-27 36 -115 198h-630l-116 -211h-138l503 899q22 9 67.5 8.5t66.5 -8.5zM321 310h522q-46 87 -135.5 256.5t-120.5 228.5z" />
    <glyph glyph-name="Adieresis" unicode="&#xc4;" horiz-adv-x="1170" 
d="M419 982q-27 0 -47 18t-20 41t20 41t47 18t47 -18t20 -41t-20 -41t-47 -18zM754 982q-27 0 -47.5 18t-20.5 41t20.5 41t47.5 18t47 -18t20 -41t-20 -41t-47 -18zM650 899q33 -55 150.5 -267t221.5 -394t136 -220l-8 -18q-104 0 -138 13q-27 36 -115 198h-630l-116 -211
h-138l503 899q22 9 67.5 8.5t66.5 -8.5zM321 310h522q-46 87 -135.5 256.5t-120.5 228.5z" />
    <glyph glyph-name="Aring" unicode="&#xc5;" horiz-adv-x="1170" 
d="M656 890q34 -57 151.5 -270.5t218 -389t132.5 -212.5l-8 -18q-104 0 -138 13q-27 36 -115 198h-630l-116 -211h-138l498 890q-77 12 -120.5 48.5t-43.5 90.5q0 65 63.5 105t176.5 40q107 0 172 -40t65 -105q0 -52 -47 -89.5t-121 -49.5zM422 1029q0 -40 44.5 -65
t118.5 -25q67 0 115.5 26.5t48.5 63.5q0 40 -48 65.5t-116 25.5q-72 0 -117.5 -25.5t-45.5 -65.5zM321 310h522q-46 87 -135.5 256.5t-120.5 228.5z" />
    <glyph glyph-name="AE" unicode="&#xc6;" horiz-adv-x="1785" 
d="M1738 99q13 -13 13.5 -46.5t-13.5 -52.5h-857v211h-515l-191 -211h-162l841 899h857q7 -22 -1.5 -53t-21.5 -46h-685v-313h608q7 -23 -1.5 -55.5t-21.5 -43.5h-585v-289h735zM456 310h425v469z" />
    <glyph glyph-name="Ccedilla" unicode="&#xc7;" horiz-adv-x="1054" 
d="M1011 592q-81 -19 -121 -8q1 106 -82.5 171t-217.5 63q-182 -2 -306 -108t-124 -266q0 -161 119.5 -259.5t307.5 -99.5q83 0 173.5 22t164.5 64q26 -9 45.5 -38.5t19.5 -44.5q-86 -52 -196.5 -79t-206.5 -27h-23q1 -11 3.5 -20t10.5 -19.5t12 -15t20.5 -20.5t22.5 -22
q58 -57 58 -111q2 -54 -42 -92.5t-110 -39.5q-83 0 -154 64l65 56q45 -42 89 -42q25 0 42 16.5t17 41.5q0 12 -7 25t-14.5 21t-23 24.5t-22.5 24.5q-34 35 -44 59t-10 58q-196 29 -319.5 151.5t-123.5 310.5q0 136 78.5 244.5t205 166t274.5 59.5q192 2 310.5 -91.5
t108.5 -238.5z" />
    <glyph glyph-name="Egrave" unicode="&#xc8;" horiz-adv-x="972" 
d="M577 970h-80l-213 191h113zM925 99q12 -13 13 -46.5t-13 -52.5h-857v886l14 13h815q8 -22 -0.5 -53t-21.5 -46h-685v-318h608q6 -23 -2 -55.5t-21 -43.5h-585v-284h735z" />
    <glyph glyph-name="Eacute" unicode="&#xc9;" horiz-adv-x="972" 
d="M760 1148l-226 -195h-83l182 195h127zM925 99q12 -13 13 -46.5t-13 -52.5h-857v886l14 13h815q8 -22 -0.5 -53t-21.5 -46h-685v-318h608q6 -23 -2 -55.5t-21 -43.5h-585v-284h735z" />
    <glyph glyph-name="Ecircumflex" unicode="&#xca;" horiz-adv-x="972" 
d="M498 1101l-157 -150h-124l244 223h74l244 -223h-124zM925 99q12 -13 13 -46.5t-13 -52.5h-857v886l14 13h815q8 -22 -0.5 -53t-21.5 -46h-685v-318h608q6 -23 -2 -55.5t-21 -43.5h-585v-284h735z" />
    <glyph glyph-name="Edieresis" unicode="&#xcb;" horiz-adv-x="972" 
d="M327 982q-27 0 -47 18t-20 41t20 41t47 18t47 -18t20 -41t-20 -41t-47 -18zM662 982q-27 0 -47.5 18t-20.5 41t20.5 41t47.5 18t47 -18t20 -41t-20 -41t-47 -18zM925 99q12 -13 13 -46.5t-13 -52.5h-857v886l14 13h815q8 -22 -0.5 -53t-21.5 -46h-685v-318h608
q6 -23 -2 -55.5t-21 -43.5h-585v-284h735z" />
    <glyph glyph-name="Igrave" unicode="&#xcc;" horiz-adv-x="258" 
d="M132 970l-213 191h113l180 -191h-80zM68 0v899q24 8 64 7t58 -7v-899h-122z" />
    <glyph glyph-name="Iacute" unicode="&#xcd;" horiz-adv-x="258" 
d="M87 953l182 195h127l-226 -195h-83zM68 0v899q24 8 64 7t58 -7v-899h-122z" />
    <glyph glyph-name="Icircumflex" unicode="&#xce;" horiz-adv-x="258" 
d="M171 1174l244 -223h-124l-157 150l-157 -150h-124l244 223h74zM68 899q24 8 64 7t58 -7v-899h-122v899z" />
    <glyph glyph-name="Idieresis" unicode="&#xcf;" horiz-adv-x="258" 
d="M-38 982q-27 0 -47 18t-20 41t20 41t47 18t47 -18t20 -41t-20 -41t-47 -18zM297 982q-27 0 -47.5 18t-20.5 41t20.5 41t47.5 18t47 -18t20 -41t-20 -41t-47 -18zM68 0v899q24 8 64 7t58 -7v-899h-122z" />
    <glyph glyph-name="Eth" unicode="&#xd0;" horiz-adv-x="1153" 
d="M532 922q268 0 428 -127t160 -333q0 -217 -153.5 -348t-407.5 -132q-154 0 -233.5 8.5t-194.5 34.5v396h-84v94h84v369q175 38 401 38zM550 80q204 0 323.5 104.5t119.5 274.5q0 161 -127.5 262.5t-342.5 101.5q-163 0 -270 -18v-290h377v-94h-377v-312q124 -29 297 -29z
" />
    <glyph glyph-name="Ntilde" unicode="&#xd1;" horiz-adv-x="1154" 
d="M446 1051q-31 0 -51 -24t-20 -68h-80q0 78 38 129.5t99 51.5q53 0 141 -49.5t124 -49.5q33 0 52.5 24.5t19.5 67.5h81q0 -77 -36.5 -128t-100.5 -51q-43 0 -93 24t-95.5 48.5t-78.5 24.5zM964 899q25 8 63.5 7t58.5 -7v-899h-98l-798 723v-723h-122v871q13 14 48 23.5
t51 4.5l797 -728v728z" />
    <glyph glyph-name="Ograve" unicode="&#xd2;" horiz-adv-x="1141" 
d="M616 980l-213 191h113l180 -191h-80zM518 -18q-216 0 -350 121t-134 301q0 148 81.5 267.5t218.5 185t299 65.5q99 0 187.5 -35.5t151 -95t99 -140.5t36.5 -169q0 -105 -49 -199t-129.5 -159.5t-188 -103.5t-222.5 -38zM528 85q186 0 319.5 116.5t133.5 283.5
q0 144 -103 238.5t-262 94.5q-189 0 -322.5 -117t-133.5 -290q0 -136 99.5 -231t268.5 -95z" />
    <glyph glyph-name="Oacute" unicode="&#xd3;" horiz-adv-x="1141" 
d="M570 963l182 195h127l-226 -195h-83zM518 -18q-216 0 -350 121t-134 301q0 148 81.5 267.5t218.5 185t299 65.5q99 0 187.5 -35.5t151 -95t99 -140.5t36.5 -169q0 -105 -49 -199t-129.5 -159.5t-188 -103.5t-222.5 -38zM528 85q186 0 319.5 116.5t133.5 283.5
q0 144 -103 238.5t-262 94.5q-189 0 -322.5 -117t-133.5 -290q0 -136 99.5 -231t268.5 -95z" />
    <glyph glyph-name="Ocircumflex" unicode="&#xd4;" horiz-adv-x="1141" 
d="M617 1111l-157 -150h-124l244 223h74l244 -223h-124zM633 922q99 0 187.5 -35.5t151 -95t99 -140.5t36.5 -169q0 -105 -49 -199t-129.5 -159.5t-188 -103.5t-222.5 -38q-216 0 -350 121t-134 301q0 148 81.5 267.5t218.5 185t299 65.5zM528 85q186 0 319.5 116.5
t133.5 283.5q0 144 -103 238.5t-262 94.5q-189 0 -322.5 -117t-133.5 -290q0 -136 99.5 -231t268.5 -95z" />
    <glyph glyph-name="Otilde" unicode="&#xd5;" horiz-adv-x="1141" 
d="M749 964q-43 0 -93 24t-95.5 48.5t-78.5 24.5q-31 0 -51 -24t-20 -68h-80q0 78 38 129.5t99 51.5q53 0 141 -49.5t124 -49.5q33 0 52.5 24.5t19.5 67.5h81q0 -77 -36.5 -128t-100.5 -51zM518 -18q-216 0 -350 121t-134 301q0 148 81.5 267.5t218.5 185t299 65.5
q99 0 187.5 -35.5t151 -95t99 -140.5t36.5 -169q0 -105 -49 -199t-129.5 -159.5t-188 -103.5t-222.5 -38zM528 85q186 0 319.5 116.5t133.5 283.5q0 144 -103 238.5t-262 94.5q-189 0 -322.5 -117t-133.5 -290q0 -136 99.5 -231t268.5 -95z" />
    <glyph glyph-name="Odieresis" unicode="&#xd6;" horiz-adv-x="1141" 
d="M446 992q-27 0 -47 18t-20 41t20 41t47 18t47 -18t20 -41t-20 -41t-47 -18zM781 992q-27 0 -47.5 18t-20.5 41t20.5 41t47.5 18t47 -18t20 -41t-20 -41t-47 -18zM518 -18q-216 0 -350 121t-134 301q0 148 81.5 267.5t218.5 185t299 65.5q99 0 187.5 -35.5t151 -95
t99 -140.5t36.5 -169q0 -105 -49 -199t-129.5 -159.5t-188 -103.5t-222.5 -38zM528 85q186 0 319.5 116.5t133.5 283.5q0 144 -103 238.5t-262 94.5q-189 0 -322.5 -117t-133.5 -290q0 -136 99.5 -231t268.5 -95z" />
    <glyph glyph-name="multiply" unicode="&#xd7;" horiz-adv-x="940" 
d="M848 603l-291 -195l291 -195h-174l-204 137l-204 -137h-174l291 195l-291 195h174l204 -137l204 137h174z" />
    <glyph glyph-name="Oslash" unicode="&#xd8;" horiz-adv-x="1212" 
d="M1152 892l-127 -120q117 -125 117 -290q0 -105 -49 -199t-129.5 -159.5t-188 -103.5t-222.5 -38q-167 0 -287 75l-60 -57h-131l119 112q-125 117 -125 292q0 148 81.5 267.5t218.5 185t299 65.5q161 0 288 -90l64 60h132zM195 411q0 -127 85 -217l594 560q-95 64 -223 64
q-123 0 -227.5 -52.5t-166.5 -146.5t-62 -208zM1016 485q0 121 -75 208l-589 -555q92 -53 212 -53q121 0 225 53t165.5 145t61.5 202z" />
    <glyph glyph-name="Ugrave" unicode="&#xd9;" horiz-adv-x="1152" 
d="M580 975l-213 191h113l180 -191h-80zM559 -22q-237 0 -364 106.5t-127 308.5v506q22 7 65 6t61 -6v-511q0 -148 96 -227.5t269 -79.5q185 0 292 89t107 230v499q24 7 65.5 6t60.5 -6v-501q0 -186 -138 -303t-387 -117z" />
    <glyph glyph-name="Uacute" unicode="&#xda;" horiz-adv-x="1152" 
d="M534 958l182 195h127l-226 -195h-83zM559 -22q-237 0 -364 106.5t-127 308.5v506q22 7 65 6t61 -6v-511q0 -148 96 -227.5t269 -79.5q185 0 292 89t107 230v499q24 7 65.5 6t60.5 -6v-501q0 -186 -138 -303t-387 -117z" />
    <glyph glyph-name="Ucircumflex" unicode="&#xdb;" horiz-adv-x="1152" 
d="M581 1106l-157 -150h-124l244 223h74l244 -223h-124zM958 899q24 7 65.5 6t60.5 -6v-501q0 -186 -138 -303t-387 -117q-237 0 -364 106.5t-127 308.5v506q22 7 65 6t61 -6v-511q0 -148 96 -227.5t269 -79.5q185 0 292 89t107 230v499z" />
    <glyph glyph-name="Udieresis" unicode="&#xdc;" horiz-adv-x="1152" 
d="M409 987q-27 0 -47 18t-20 41t20 41t47 18t47 -18t20 -41t-20 -41t-47 -18zM744 987q-27 0 -47.5 18t-20.5 41t20.5 41t47.5 18t47 -18t20 -41t-20 -41t-47 -18zM559 -22q-237 0 -364 106.5t-127 308.5v506q22 7 65 6t61 -6v-511q0 -148 96 -227.5t269 -79.5
q185 0 292 89t107 230v499q24 7 65.5 6t60.5 -6v-501q0 -186 -138 -303t-387 -117z" />
    <glyph glyph-name="Yacute" unicode="&#xdd;" horiz-adv-x="1068" 
d="M801 1148l-226 -195h-83l182 195h127zM1051 899q7 -58 -11 -122.5t-64 -140.5t-134.5 -162.5t-213.5 -174.5v-299h-122v307q-71 94 -239 292.5t-252 279.5l9 20q82 15 146 0q80 -80 417 -490q160 109 254.5 245t84.5 236q43 22 125 9z" />
    <glyph glyph-name="Thorn" unicode="&#xde;" horiz-adv-x="1020" 
d="M490 804q227 0 361.5 -90.5t134.5 -252.5q0 -111 -68 -190t-181.5 -116t-260.5 -37q-150 0 -273 29v-147h-135v903q25 9 70.5 7.5t64.5 -7.5v-121q114 22 287 22zM483 217q168 0 272 65t104 181t-96 179t-278 63q-171 0 -282 -24v-432q110 -32 280 -32z" />
    <glyph glyph-name="germandbls" unicode="&#xdf;" horiz-adv-x="983" 
d="M664 519q125 -13 206.5 -80.5t81.5 -165.5q0 -136 -99.5 -213t-248.5 -78q-138 0 -262 69q-5 24 6.5 57t35.5 45q98 -68 201 -68q113 1 179 54.5t66 142.5q0 75 -72 123.5t-186 47.5q-89 -2 -183 -36q-20 14 -17 56.5t14 47.5q48 18 83 22q123 20 179 56.5t56 92.5
q0 58 -58.5 97t-173.5 39q-111 0 -185 -65.5t-74 -167.5v-595h-120v624q0 143 107.5 224t276.5 81q181 -1 267.5 -67.5t86.5 -155.5q0 -61 -42.5 -109t-124.5 -78z" />
    <glyph glyph-name="agrave" unicode="&#xe0;" horiz-adv-x="878" 
d="M560 783h-91l-248 248h134zM809 207q1 -85 9 -123t27 -71l-3 -13h-116q-16 15 -23 24.5t-14 39t-7 79.5v13q-68 -81 -169.5 -127.5t-210.5 -46.5q-116 0 -187.5 50.5t-71.5 127.5q0 86 76.5 147.5t194 89.5t260.5 27q52 0 97 -4q-9 94 -69.5 146t-157.5 52
q-123 0 -284 -88q-41 17 -49 83q169 94 330 94q174 0 270 -87.5t97 -251.5zM670 330l2 13q-59 3 -113 3q-165 -1 -274.5 -45.5t-109.5 -124.5q0 -44 38.5 -71t106.5 -27q134 0 235 79.5t115 172.5z" />
    <glyph glyph-name="aacute" unicode="&#xe1;" horiz-adv-x="878" 
d="M709 1031l-224 -248h-84l173 248h135zM809 207q1 -85 9 -123t27 -71l-3 -13h-116q-16 15 -23 24.5t-14 39t-7 79.5v13q-68 -81 -169.5 -127.5t-210.5 -46.5q-116 0 -187.5 50.5t-71.5 127.5q0 86 76.5 147.5t194 89.5t260.5 27q52 0 97 -4q-9 94 -69.5 146t-157.5 52
q-123 0 -284 -88q-41 17 -49 83q169 94 330 94q174 0 270 -87.5t97 -251.5zM670 330l2 13q-59 3 -113 3q-165 -1 -274.5 -45.5t-109.5 -124.5q0 -44 38.5 -71t106.5 -27q134 0 235 79.5t115 172.5z" />
    <glyph glyph-name="acircumflex" unicode="&#xe2;" horiz-adv-x="878" 
d="M452 903l-158 -148h-137l262 236h65l262 -236h-137zM809 207q1 -85 9 -123t27 -71l-3 -13h-116q-16 15 -23 24.5t-14 39t-7 79.5v13q-68 -81 -169.5 -127.5t-210.5 -46.5q-116 0 -187.5 50.5t-71.5 127.5q0 86 76.5 147.5t194 89.5t260.5 27q52 0 97 -4q-9 94 -69.5 146
t-157.5 52q-123 0 -284 -88q-41 17 -49 83q169 94 330 94q174 0 270 -87.5t97 -251.5zM670 330l2 13q-59 3 -113 3q-165 -1 -274.5 -45.5t-109.5 -124.5q0 -44 38.5 -71t106.5 -27q134 0 235 79.5t115 172.5z" />
    <glyph glyph-name="atilde" unicode="&#xe3;" horiz-adv-x="878" 
d="M320 898q-31 0 -51 -24.5t-20 -68.5h-80q0 82 38 135.5t99 53.5q55 0 146.5 -48.5t127.5 -48.5q33 0 52.5 24.5t19.5 67.5h81q0 -81 -36.5 -135t-100.5 -54q-45 0 -96.5 24.5t-98.5 49t-81 24.5zM809 207q1 -85 9 -123t27 -71l-3 -13h-116q-16 15 -23 24.5t-14 39
t-7 79.5v13q-68 -81 -169.5 -127.5t-210.5 -46.5q-116 0 -187.5 50.5t-71.5 127.5q0 86 76.5 147.5t194 89.5t260.5 27q52 0 97 -4q-9 94 -69.5 146t-157.5 52q-123 0 -284 -88q-41 17 -49 83q169 94 330 94q174 0 270 -87.5t97 -251.5zM670 330l2 13q-59 3 -113 3
q-165 -1 -274.5 -45.5t-109.5 -124.5q0 -44 38.5 -71t106.5 -27q134 0 235 79.5t115 172.5z" />
    <glyph glyph-name="adieresis" unicode="&#xe4;" horiz-adv-x="878" 
d="M274 802q-33 0 -57.5 21t-24.5 50t24.5 50.5t57.5 21.5q32 0 57 -22t25 -50t-25 -49.5t-57 -21.5zM646 802q-32 0 -57 21.5t-25 49.5t25 50t57 22q33 0 57.5 -21.5t24.5 -50.5t-24.5 -50t-57.5 -21zM809 207q1 -85 9 -123t27 -71l-3 -13h-116q-16 15 -23 24.5t-14 39
t-7 79.5v13q-68 -81 -169.5 -127.5t-210.5 -46.5q-116 0 -187.5 50.5t-71.5 127.5q0 86 76.5 147.5t194 89.5t260.5 27q52 0 97 -4q-9 94 -69.5 146t-157.5 52q-123 0 -284 -88q-41 17 -49 83q169 94 330 94q174 0 270 -87.5t97 -251.5zM670 330l2 13q-59 3 -113 3
q-165 -1 -274.5 -45.5t-109.5 -124.5q0 -44 38.5 -71t106.5 -27q134 0 235 79.5t115 172.5z" />
    <glyph glyph-name="aring" unicode="&#xe5;" horiz-adv-x="878" 
d="M453 769q-109 0 -174.5 39t-65.5 106q0 65 63.5 105t176.5 40q107 0 172 -40t65 -105q0 -64 -69 -104.5t-168 -40.5zM451 1005q-72 0 -117.5 -25.5t-45.5 -65.5t44.5 -65t118.5 -25q67 0 115.5 26.5t48.5 63.5q0 40 -48 65.5t-116 25.5zM809 207q1 -85 9 -123t27 -71
l-3 -13h-116q-16 15 -23 24.5t-14 39t-7 79.5v13q-68 -81 -169.5 -127.5t-210.5 -46.5q-116 0 -187.5 50.5t-71.5 127.5q0 86 76.5 147.5t194 89.5t260.5 27q52 0 97 -4q-9 94 -69.5 146t-157.5 52q-123 0 -284 -88q-41 17 -49 83q169 94 330 94q174 0 270 -87.5t97 -251.5z
M670 330l2 13q-59 3 -113 3q-165 -1 -274.5 -45.5t-109.5 -124.5q0 -44 38.5 -71t106.5 -27q134 0 235 79.5t115 172.5z" />
    <glyph glyph-name="ae" unicode="&#xe6;" horiz-adv-x="1488" 
d="M1094 707q108 0 191 -38t130.5 -117t43.5 -188l-20 -23l-634 -79q20 -84 93 -132t176 -48q146 0 283 90q19 -7 34 -25.5t20 -32t5 -16.5q-165 -116 -356 -116q-118 0 -211.5 45t-140.5 129q-70 -80 -176.5 -127.5t-229.5 -46.5q-116 1 -187.5 51t-71.5 127
q0 86 75.5 147.5t192 89t257.5 26.5q44 0 93 -3q-13 91 -69 141.5t-148 50.5q-114 0 -284 -82q-41 17 -49 83q169 94 330 94q228 0 315 -148q59 69 147 108.5t191 39.5zM800 342l526 57q-1 101 -63.5 157.5t-168.5 56.5q-113 0 -199 -77.5t-95 -193.5zM661 330l2 13
q-56 3 -104 3q-165 -1 -274.5 -45.5t-109.5 -124.5q0 -44 38.5 -71t106.5 -27q130 0 229 78t112 174z" />
    <glyph glyph-name="ccedilla" unicode="&#xe7;" horiz-adv-x="852" 
d="M820 378q-29 -7 -63.5 -10.5t-64.5 1.5q2 108 -58.5 172.5t-177.5 64.5q-118 1 -210 -78t-92 -198q0 -114 80.5 -181.5t195.5 -65.5q162 1 290 94q24 -8 40.5 -27.5t21.5 -33t5 -17.5q-148 -111 -334 -117q2 -9 5 -17t10.5 -17t13 -14.5t19 -18.5t20.5 -20
q58 -57 58 -111q2 -54 -42 -93t-110 -40q-83 0 -154 64l65 56q45 -42 88 -42q26 0 43 16.5t17 41.5q0 9 -4 18.5t-12 20t-14 17.5t-19 20l-19 19q-30 32 -40.5 54t-12.5 50q-144 18 -239 109t-95 235q0 108 61.5 196t160.5 134.5t211 46.5q170 0 266 -92t90 -237z" />
    <glyph glyph-name="egrave" unicode="&#xe8;" horiz-adv-x="851" 
d="M561 783h-91l-248 248h134zM457 707q166 0 269 -90t96 -253l-19 -23l-634 -81q20 -83 93.5 -130.5t175.5 -47.5q145 0 282 90q19 -7 34 -25.5t20 -32t5 -16.5q-165 -116 -356 -116q-169 0 -280.5 89t-111.5 248q0 165 123.5 276.5t302.5 111.5zM163 346l526 61
q-1 98 -63 152t-169 54q-111 0 -197.5 -76.5t-96.5 -190.5z" />
    <glyph glyph-name="eacute" unicode="&#xe9;" horiz-adv-x="851" 
d="M710 1031l-224 -248h-84l173 248h135zM457 707q166 0 269 -90t96 -253l-19 -23l-634 -81q20 -83 93.5 -130.5t175.5 -47.5q145 0 282 90q19 -7 34 -25.5t20 -32t5 -16.5q-165 -116 -356 -116q-169 0 -280.5 89t-111.5 248q0 165 123.5 276.5t302.5 111.5zM163 346l526 61
q-1 98 -63 152t-169 54q-111 0 -197.5 -76.5t-96.5 -190.5z" />
    <glyph glyph-name="ecircumflex" unicode="&#xea;" horiz-adv-x="851" 
d="M453 903l-158 -148h-137l262 236h65l262 -236h-137zM457 707q166 0 269 -90t96 -253l-19 -23l-634 -81q20 -83 93.5 -130.5t175.5 -47.5q145 0 282 90q19 -7 34 -25.5t20 -32t5 -16.5q-165 -116 -356 -116q-169 0 -280.5 89t-111.5 248q0 165 123.5 276.5t302.5 111.5z
M163 346l526 61q-1 98 -63 152t-169 54q-111 0 -197.5 -76.5t-96.5 -190.5z" />
    <glyph glyph-name="edieresis" unicode="&#xeb;" horiz-adv-x="851" 
d="M276 802q-33 0 -57.5 21t-24.5 50t24.5 50.5t57.5 21.5q32 0 57 -22t25 -50t-25 -49.5t-57 -21.5zM648 802q-32 0 -57 21.5t-25 49.5t25 50t57 22q33 0 57.5 -21.5t24.5 -50.5t-24.5 -50t-57.5 -21zM457 707q166 0 269 -90t96 -253l-19 -23l-634 -81q20 -83 93.5 -130.5
t175.5 -47.5q145 0 282 90q19 -7 34 -25.5t20 -32t5 -16.5q-165 -116 -356 -116q-169 0 -280.5 89t-111.5 248q0 165 123.5 276.5t302.5 111.5zM163 346l526 61q-1 98 -63 152t-169 54q-111 0 -197.5 -76.5t-96.5 -190.5z" />
    <glyph glyph-name="igrave" unicode="&#xec;" horiz-adv-x="271" 
d="M153 783l-248 248h134l205 -248h-91zM76 0v671q19 6 61 6t59 -6v-671h-120z" />
    <glyph glyph-name="iacute" unicode="&#xed;" horiz-adv-x="271" 
d="M85 783l173 248h135l-224 -248h-84zM76 0v671q19 6 61 6t59 -6v-671h-120z" />
    <glyph glyph-name="icircumflex" unicode="&#xee;" horiz-adv-x="271" 
d="M168 991l262 -236h-137l-157 148l-158 -148h-137l262 236h65zM76 671q19 6 61 6t59 -6v-671h-120v671z" />
    <glyph glyph-name="idieresis" unicode="&#xef;" horiz-adv-x="271" 
d="M-42 802q-33 0 -57.5 21t-24.5 50t24.5 50.5t57.5 21.5q32 0 57 -22t25 -50t-25 -49.5t-57 -21.5zM330 802q-32 0 -57 21.5t-25 49.5t25 50t57 22q33 0 57.5 -21.5t24.5 -50.5t-24.5 -50t-57.5 -21zM76 0v671q19 6 61 6t59 -6v-671h-120z" />
    <glyph glyph-name="eth" unicode="&#xf0;" horiz-adv-x="851" 
d="M576 766q247 -186 244 -419q-1 -69 -26.5 -133t-75.5 -118t-134 -86.5t-191 -32.5q-166 0 -264 86t-98 216q1 151 117 246t277 95q135 0 223 -73q-60 91 -183 173q-126 -46 -281 -92q-40 16 -49 63q179 57 246 81q-90 50 -190 86q5 50 66 75q125 -44 239 -113
q115 53 124 96q29 8 68.5 2.5t60.5 -20.5q-11 -58 -173 -132zM401 78q129 0 212.5 74.5t83.5 181.5q0 82 -69 138t-179 56q-124 0 -209 -69t-86 -173q-1 -90 64 -149t183 -59z" />
    <glyph glyph-name="ntilde" unicode="&#xf1;" horiz-adv-x="913" 
d="M379 898q-31 0 -51 -24.5t-20 -68.5h-80q0 82 38 135.5t99 53.5q55 0 146.5 -48.5t127.5 -48.5q33 0 52.5 24.5t19.5 67.5h81q0 -81 -36.5 -135t-100.5 -54q-45 0 -96.5 24.5t-98.5 49t-81 24.5zM519 706q165 0 250.5 -89t85.5 -254v-363h-120v338q0 125 -58 193.5
t-173 68.5q-123 0 -217.5 -102.5t-94.5 -229.5v-268h-121v512q0 81 -13 140v18q67 14 115 9q13 -41 13 -86v-64q57 77 146.5 127t186.5 50z" />
    <glyph glyph-name="ograve" unicode="&#xf2;" horiz-adv-x="909" 
d="M489 783l-248 248h134l205 -248h-91zM431 -18q-187 0 -293.5 95.5t-106.5 239.5q0 161 131.5 275.5t323.5 114.5q179 0 284.5 -94t107.5 -240q2 -169 -124.5 -280t-322.5 -111zM437 83q137 0 227.5 83t90.5 195q0 104 -75.5 174.5t-200.5 70.5q-137 0 -231 -86t-94 -203
q0 -99 74 -166.5t209 -67.5z" />
    <glyph glyph-name="oacute" unicode="&#xf3;" horiz-adv-x="909" 
d="M421 783l173 248h135l-224 -248h-84zM431 -18q-187 0 -293.5 95.5t-106.5 239.5q0 161 131.5 275.5t323.5 114.5q179 0 284.5 -94t107.5 -240q2 -169 -124.5 -280t-322.5 -111zM437 83q137 0 227.5 83t90.5 195q0 104 -75.5 174.5t-200.5 70.5q-137 0 -231 -86t-94 -203
q0 -99 74 -166.5t209 -67.5z" />
    <glyph glyph-name="ocircumflex" unicode="&#xf4;" horiz-adv-x="909" 
d="M472 903l-158 -148h-137l262 236h65l262 -236h-137zM878 373q2 -169 -124.5 -280t-322.5 -111q-187 0 -293.5 95.5t-106.5 239.5q0 161 131.5 275.5t323.5 114.5q179 0 284.5 -94t107.5 -240zM437 83q137 0 227.5 83t90.5 195q0 104 -75.5 174.5t-200.5 70.5
q-137 0 -231 -86t-94 -203q0 -99 74 -166.5t209 -67.5z" />
    <glyph glyph-name="otilde" unicode="&#xf5;" horiz-adv-x="909" 
d="M616 800q-45 0 -96.5 24.5t-98.5 49t-81 24.5q-31 0 -51 -24.5t-20 -68.5h-80q0 82 38 135.5t99 53.5q55 0 146.5 -48.5t127.5 -48.5q33 0 52.5 24.5t19.5 67.5h81q0 -81 -36.5 -135t-100.5 -54zM431 -18q-187 0 -293.5 95.5t-106.5 239.5q0 161 131.5 275.5t323.5 114.5
q179 0 284.5 -94t107.5 -240q2 -169 -124.5 -280t-322.5 -111zM437 83q137 0 227.5 83t90.5 195q0 104 -75.5 174.5t-200.5 70.5q-137 0 -231 -86t-94 -203q0 -99 74 -166.5t209 -67.5z" />
    <glyph glyph-name="odieresis" unicode="&#xf6;" horiz-adv-x="909" 
d="M294 802q-33 0 -57.5 21t-24.5 50t24.5 50.5t57.5 21.5q32 0 57 -22t25 -50t-25 -49.5t-57 -21.5zM666 802q-32 0 -57 21.5t-25 49.5t25 50t57 22q33 0 57.5 -21.5t24.5 -50.5t-24.5 -50t-57.5 -21zM431 -18q-187 0 -293.5 95.5t-106.5 239.5q0 161 131.5 275.5
t323.5 114.5q179 0 284.5 -94t107.5 -240q2 -169 -124.5 -280t-322.5 -111zM437 83q137 0 227.5 83t90.5 195q0 104 -75.5 174.5t-200.5 70.5q-137 0 -231 -86t-94 -203q0 -99 74 -166.5t209 -67.5z" />
    <glyph glyph-name="divide" unicode="&#xf7;" horiz-adv-x="864" 
d="M431 597q-33 0 -57.5 21.5t-24.5 50.5t24.5 50t57.5 21t58 -21.5t25 -49.5q0 -29 -25 -50.5t-58 -21.5zM92 386v101h680v-101h-680zM431 130q-33 0 -57.5 21.5t-24.5 49.5q0 29 24.5 50.5t57.5 21.5t58 -21.5t25 -50.5q0 -28 -25 -49.5t-58 -21.5z" />
    <glyph glyph-name="oslash" unicode="&#xf8;" horiz-adv-x="943" 
d="M895 671v-18l-83 -73q72 -86 74 -207q3 -169 -123.5 -280t-322.5 -111q-145 0 -247 62l-50 -44h-98v25l80 73q-85 90 -85 219q0 161 131.5 275.5t323.5 114.5q148 0 249 -68l36 32h115zM163 317q0 -82 49 -140l62 56l52 39l214 182l49 49l66 58q-71 45 -167 45
q-138 0 -231.5 -85.5t-93.5 -203.5zM764 361q0 78 -44 139l-11 -10l-60 -45l-241 -205l-34 -38l-93 -82q69 -37 165 -37q137 0 227.5 83t90.5 195z" />
    <glyph glyph-name="ugrave" unicode="&#xf9;" horiz-adv-x="897" 
d="M546 783h-91l-248 248h134zM828 195q0 -126 26 -180l-1 -15h-102q-11 14 -17 24.5t-11 36t-5 62.5v9q-48 -69 -139 -109.5t-207 -40.5q-144 0 -229 74.5t-85 228.5v386q46 12 120 0v-365q0 -112 58.5 -167.5t158.5 -55.5q138 0 225.5 84.5t87.5 216.5v287q20 6 60.5 5.5
t59.5 -5.5v-476z" />
    <glyph glyph-name="uacute" unicode="&#xfa;" horiz-adv-x="897" 
d="M695 1031l-224 -248h-84l173 248h135zM828 195q0 -126 26 -180l-1 -15h-102q-11 14 -17 24.5t-11 36t-5 62.5v9q-48 -69 -139 -109.5t-207 -40.5q-144 0 -229 74.5t-85 228.5v386q46 12 120 0v-365q0 -112 58.5 -167.5t158.5 -55.5q138 0 225.5 84.5t87.5 216.5v287
q20 6 60.5 5.5t59.5 -5.5v-476z" />
    <glyph glyph-name="ucircumflex" unicode="&#xfb;" horiz-adv-x="897" 
d="M439 903l-158 -148h-137l262 236h65l262 -236h-137zM828 195q0 -126 26 -180l-1 -15h-102q-11 14 -17 24.5t-11 36t-5 62.5v9q-48 -69 -139 -109.5t-207 -40.5q-144 0 -229 74.5t-85 228.5v386q46 12 120 0v-365q0 -112 58.5 -167.5t158.5 -55.5q138 0 225.5 84.5
t87.5 216.5v287q20 6 60.5 5.5t59.5 -5.5v-476z" />
    <glyph glyph-name="udieresis" unicode="&#xfc;" horiz-adv-x="897" 
d="M261 802q-33 0 -57.5 21t-24.5 50t24.5 50.5t57.5 21.5q32 0 57 -22t25 -50t-25 -49.5t-57 -21.5zM633 802q-32 0 -57 21.5t-25 49.5t25 50t57 22q33 0 57.5 -21.5t24.5 -50.5t-24.5 -50t-57.5 -21zM828 195q0 -126 26 -180l-1 -15h-102q-11 14 -17 24.5t-11 36t-5 62.5
v9q-48 -69 -139 -109.5t-207 -40.5q-144 0 -229 74.5t-85 228.5v386q46 12 120 0v-365q0 -112 58.5 -167.5t158.5 -55.5q138 0 225.5 84.5t87.5 216.5v287q20 6 60.5 5.5t59.5 -5.5v-476z" />
    <glyph glyph-name="yacute" unicode="&#xfd;" horiz-adv-x="878" 
d="M697 1031l-224 -248h-84l173 248h135zM862 671q12 -79 -3 -177.5t-55 -204.5t-117 -213.5t-180 -190.5q-173 -135 -373 -137q-67 0 -108 18q-22 42 -2 85l23 12q36 -15 89 -15q161 3 313 139q14 12 40 38q-95 57 -182 147.5t-145.5 183.5t-96 167t-55.5 128l7 19
q64 15 122 1q18 -50 48 -111t81.5 -147.5t128.5 -170t164 -138.5q203 251 182 557q38 25 119 10z" />
    <glyph glyph-name="thorn" unicode="&#xfe;" horiz-adv-x="894" 
d="M508 707q153 0 254 -94.5t101 -247.5q0 -156 -114.5 -269.5t-289.5 -113.5q-166 0 -272 108v-321q-59 -16 -129 0v1165q20 6 61 6t59 -6v-419q49 90 138 141t192 51zM446 82q128 0 211 85t83 196t-67 177t-173 66q-125 0 -221 -95.5t-96 -221.5q0 -77 76 -142t187 -65z
" />
    <glyph glyph-name="ydieresis" unicode="&#xff;" horiz-adv-x="878" 
d="M262 802q-33 0 -57.5 21t-24.5 50t24.5 50.5t57.5 21.5q32 0 57 -22t25 -50t-25 -49.5t-57 -21.5zM634 802q-32 0 -57 21.5t-25 49.5t25 50t57 22q33 0 57.5 -21.5t24.5 -50.5t-24.5 -50t-57.5 -21zM862 671q12 -79 -3 -177.5t-55 -204.5t-117 -213.5t-180 -190.5
q-173 -135 -373 -137q-67 0 -108 18q-22 42 -2 85l23 12q36 -15 89 -15q161 3 313 139q14 12 40 38q-95 57 -182 147.5t-145.5 183.5t-96 167t-55.5 128l7 19q64 15 122 1q18 -50 48 -111t81.5 -147.5t128.5 -170t164 -138.5q203 251 182 557q38 25 119 10z" />
    <glyph glyph-name="Amacron" unicode="&#x100;" horiz-adv-x="1170" 
d="M859 1065v-81h-546v81h546zM650 899q33 -55 150.5 -267t221.5 -394t136 -220l-8 -18q-104 0 -138 13q-27 36 -115 198h-630l-116 -211h-138l503 899q22 9 67.5 8.5t66.5 -8.5zM321 310h522q-46 87 -135.5 256.5t-120.5 228.5z" />
    <glyph glyph-name="amacron" unicode="&#x101;" horiz-adv-x="878" 
d="M752 933v-94h-590v94h590zM809 207q1 -85 9 -123t27 -71l-3 -13h-116q-16 15 -23 24.5t-14 39t-7 79.5v13q-68 -81 -169.5 -127.5t-210.5 -46.5q-116 0 -187.5 50.5t-71.5 127.5q0 86 76.5 147.5t194 89.5t260.5 27q52 0 97 -4q-9 94 -69.5 146t-157.5 52
q-123 0 -284 -88q-41 17 -49 83q169 94 330 94q174 0 270 -87.5t97 -251.5zM670 330l2 13q-59 3 -113 3q-165 -1 -274.5 -45.5t-109.5 -124.5q0 -44 38.5 -71t106.5 -27q134 0 235 79.5t115 172.5z" />
    <glyph glyph-name="Abreve" unicode="&#x102;" horiz-adv-x="1170" 
d="M587 952q-116 0 -188.5 49.5t-72.5 144.5h84q0 -51 48 -83.5t129 -32.5q79 0 128 33.5t49 82.5h85q0 -92 -74.5 -143t-187.5 -51zM650 899q33 -55 150.5 -267t221.5 -394t136 -220l-8 -18q-104 0 -138 13q-27 36 -115 198h-630l-116 -211h-138l503 899q22 9 67.5 8.5
t66.5 -8.5zM321 310h522q-46 87 -135.5 256.5t-120.5 228.5z" />
    <glyph glyph-name="abreve" unicode="&#x103;" horiz-adv-x="878" 
d="M450 769q-128 0 -212 56t-84 159h96q0 -59 53.5 -95.5t146.5 -36.5q94 0 148 37.5t54 94.5h97q0 -101 -87 -158t-212 -57zM809 207q1 -85 9 -123t27 -71l-3 -13h-116q-16 15 -23 24.5t-14 39t-7 79.5v13q-68 -81 -169.5 -127.5t-210.5 -46.5q-116 0 -187.5 50.5
t-71.5 127.5q0 86 76.5 147.5t194 89.5t260.5 27q52 0 97 -4q-9 94 -69.5 146t-157.5 52q-123 0 -284 -88q-41 17 -49 83q169 94 330 94q174 0 270 -87.5t97 -251.5zM670 330l2 13q-59 3 -113 3q-165 -1 -274.5 -45.5t-109.5 -124.5q0 -44 38.5 -71t106.5 -27
q134 0 235 79.5t115 172.5z" />
    <glyph glyph-name="Aogonek" unicode="&#x104;" horiz-adv-x="1170" 
d="M1155 -210l55 -46q-32 -41 -85.5 -68t-104.5 -27q-68 -1 -110.5 34t-42.5 104q0 50 38 116.5t103 114.5q-29 42 -111 193h-630l-116 -211h-138l503 899q22 9 67.5 8.5t66.5 -8.5q33 -55 150.5 -267t221.5 -394t136 -220l-8 -18q-59 0 -75 1q-120 -104 -120 -197
q0 -34 23 -51t59 -15q31 0 64.5 14.5t53.5 37.5zM321 310h522q-46 87 -135.5 256.5t-120.5 228.5z" />
    <glyph glyph-name="aogonek" unicode="&#x105;" horiz-adv-x="878" 
d="M873 -216l55 -46q-32 -41 -85.5 -68t-104.5 -27q-68 -1 -110.5 34t-42.5 104q0 49 36 113.5t98 112.5q-19 18 -27.5 44.5t-9.5 91.5v13q-68 -81 -169.5 -127.5t-210.5 -46.5q-116 0 -187.5 50.5t-71.5 127.5q0 86 76.5 147.5t194 89.5t260.5 27q52 0 97 -4
q-9 94 -69.5 146t-157.5 52q-123 0 -284 -88q-41 17 -49 83q169 94 330 94q174 0 270 -87.5t97 -251.5l1 -161q1 -85 9 -123t27 -71l-3 -13h-43q-126 -107 -126 -202q0 -34 23 -51t59 -15q31 0 64.5 14.5t53.5 37.5zM670 330l2 13q-59 3 -113 3q-165 -1 -274.5 -45.5
t-109.5 -124.5q0 -44 38.5 -71t106.5 -27q134 0 235 79.5t115 172.5z" />
    <glyph glyph-name="Cacute" unicode="&#x106;" horiz-adv-x="1054" 
d="M550 976l182 195h127l-226 -195h-83zM587 -18q-154 0 -278.5 55t-199.5 163t-75 252q0 136 78.5 244.5t205 166t274.5 59.5q192 2 310.5 -91.5t108.5 -238.5q-81 -19 -121 -8q1 106 -82.5 171t-217.5 63q-182 -2 -306 -108t-124 -266q0 -161 119.5 -259.5t307.5 -99.5
q83 0 173.5 22t164.5 64q26 -9 45.5 -38.5t19.5 -44.5q-86 -52 -196.5 -79t-206.5 -27z" />
    <glyph glyph-name="cacute" unicode="&#x107;" horiz-adv-x="852" 
d="M398 783l173 248h135l-224 -248h-84zM430 -18q-107 0 -196 39.5t-146 120t-57 188.5t61.5 196t160.5 134.5t211 46.5q170 0 266 -92t90 -237q-29 -7 -63.5 -10.5t-64.5 1.5q2 108 -58.5 172.5t-177.5 64.5q-118 1 -210 -78t-92 -198q0 -114 80.5 -181.5t195.5 -65.5
q162 1 290 94q24 -8 40.5 -27.5t21.5 -33t5 -17.5q-155 -117 -357 -117z" />
    <glyph glyph-name="Cdotaccent" unicode="&#x10a;" horiz-adv-x="1054" 
d="M592 999q-27 0 -47.5 18t-20.5 41q0 24 20.5 42t47.5 18t47.5 -18t20.5 -42q0 -23 -20.5 -41t-47.5 -18zM587 -18q-154 0 -278.5 55t-199.5 163t-75 252q0 136 78.5 244.5t205 166t274.5 59.5q192 2 310.5 -91.5t108.5 -238.5q-81 -19 -121 -8q1 106 -82.5 171t-217.5 63
q-182 -2 -306 -108t-124 -266q0 -161 119.5 -259.5t307.5 -99.5q83 0 173.5 22t164.5 64q26 -9 45.5 -38.5t19.5 -44.5q-86 -52 -196.5 -79t-206.5 -27z" />
    <glyph glyph-name="cdotaccent" unicode="&#x10b;" horiz-adv-x="852" 
d="M449 802q-33 0 -57.5 21t-24.5 50t24.5 50.5t57.5 21.5t57.5 -21.5t24.5 -50.5t-24.5 -50t-57.5 -21zM430 -18q-107 0 -196 39.5t-146 120t-57 188.5t61.5 196t160.5 134.5t211 46.5q170 0 266 -92t90 -237q-29 -7 -63.5 -10.5t-64.5 1.5q2 108 -58.5 172.5t-177.5 64.5
q-118 1 -210 -78t-92 -198q0 -114 80.5 -181.5t195.5 -65.5q162 1 290 94q24 -8 40.5 -27.5t21.5 -33t5 -17.5q-155 -117 -357 -117z" />
    <glyph glyph-name="Ccaron" unicode="&#x10c;" horiz-adv-x="1054" 
d="M625 970h-65l-262 229h137l158 -147l158 147h136zM1011 592q-81 -19 -121 -8q1 106 -82.5 171t-217.5 63q-182 -2 -306 -108t-124 -266q0 -161 119.5 -259.5t307.5 -99.5q83 0 173.5 22t164.5 64q26 -9 45.5 -38.5t19.5 -44.5q-86 -52 -196.5 -79t-206.5 -27
q-154 0 -278.5 55t-199.5 163t-75 252q0 136 78.5 244.5t205 166t274.5 59.5q192 2 310.5 -91.5t108.5 -238.5z" />
    <glyph glyph-name="ccaron" unicode="&#x10d;" horiz-adv-x="852" 
d="M481 783h-65l-262 236h137l158 -154l157 154h137zM820 378q-29 -7 -63.5 -10.5t-64.5 1.5q2 108 -58.5 172.5t-177.5 64.5q-118 1 -210 -78t-92 -198q0 -114 80.5 -181.5t195.5 -65.5q162 1 290 94q24 -8 40.5 -27.5t21.5 -33t5 -17.5q-155 -117 -357 -117
q-107 0 -196 39.5t-146 120t-57 188.5t61.5 196t160.5 134.5t211 46.5q170 0 266 -92t90 -237z" />
    <glyph glyph-name="Dcaron" unicode="&#x10e;" horiz-adv-x="1090" 
d="M501 970h-65l-262 229h137l158 -147l158 147h136zM468 922q268 0 428 -127t160 -333q0 -217 -153 -348t-407 -132q-155 0 -234.5 8.5t-193.5 34.5v859q174 38 400 38zM487 80q203 0 323 104.5t120 274.5q0 161 -127.5 262.5t-342.5 101.5q-164 0 -270 -18v-696
q124 -29 297 -29z" />
    <glyph glyph-name="dcaron" unicode="&#x10f;" horiz-adv-x="1054" 
d="M1050 1068h115l-43 -333h-88zM866 934v-745q0 -114 16 -174v-15h-102q-34 55 -34 146v2q-49 -77 -132 -121.5t-188 -44.5q-166 0 -269.5 95t-103.5 249q0 166 115.5 273.5t295.5 107.5q91 0 166 -40t116 -108v375q18 6 58.5 6t61.5 -6zM429 82q131 0 214.5 91.5
t83.5 224.5q0 85 -71.5 146t-168.5 61q-134 0 -222.5 -79.5t-88.5 -199.5q0 -109 70.5 -176.5t182.5 -67.5z" />
    <glyph glyph-name="Dcroat" unicode="&#x110;" horiz-adv-x="1153" 
d="M532 922q268 0 428 -127t160 -333q0 -217 -153.5 -348t-407.5 -132q-154 0 -233.5 8.5t-194.5 34.5v396h-84v94h84v369q175 38 401 38zM550 80q204 0 323.5 104.5t119.5 274.5q0 161 -127.5 262.5t-342.5 101.5q-163 0 -270 -18v-290h377v-94h-377v-312q124 -29 297 -29z
" />
    <glyph glyph-name="dcroat" unicode="&#x111;" horiz-adv-x="943" 
d="M958 772h-114v-583q0 -116 17 -174v-15h-103q-33 53 -33 146v3q-50 -77 -133 -122t-188 -45q-166 0 -269.5 95t-103.5 249q0 165 115.5 273t295.5 108q91 0 166 -39.5t116 -107.5v212h-317v64h317v98q18 6 58.5 6t61.5 -6v-98h114v-64zM408 82q130 0 214 92t84 224
q0 85 -72 146t-169 61q-134 0 -222.5 -79.5t-88.5 -199.5q0 -109 71 -176.5t183 -67.5z" />
    <glyph glyph-name="Emacron" unicode="&#x112;" horiz-adv-x="972" 
d="M766 1065v-81h-546v81h546zM925 99q12 -13 13 -46.5t-13 -52.5h-857v886l14 13h815q8 -22 -0.5 -53t-21.5 -46h-685v-318h608q6 -23 -2 -55.5t-21 -43.5h-585v-284h735z" />
    <glyph glyph-name="emacron" unicode="&#x113;" horiz-adv-x="851" 
d="M753 933v-94h-590v94h590zM457 707q166 0 269 -90t96 -253l-19 -23l-634 -81q20 -83 93.5 -130.5t175.5 -47.5q145 0 282 90q19 -7 34 -25.5t20 -32t5 -16.5q-165 -116 -356 -116q-169 0 -280.5 89t-111.5 248q0 165 123.5 276.5t302.5 111.5zM163 346l526 61
q-1 98 -63 152t-169 54q-111 0 -197.5 -76.5t-96.5 -190.5z" />
    <glyph glyph-name="Ebreve" unicode="&#x114;" horiz-adv-x="972" 
d="M495 951q-117 0 -189.5 49.5t-72.5 144.5h84q0 -51 48.5 -83.5t129.5 -32.5q79 0 127.5 33.5t48.5 82.5h85q0 -92 -74.5 -143t-186.5 -51zM925 99q12 -13 13 -46.5t-13 -52.5h-857v886l14 13h815q8 -22 -0.5 -53t-21.5 -46h-685v-318h608q6 -23 -2 -55.5t-21 -43.5h-585
v-284h735z" />
    <glyph glyph-name="ebreve" unicode="&#x115;" horiz-adv-x="851" 
d="M451 769q-128 0 -212 56t-84 159h96q0 -59 53.5 -95.5t146.5 -36.5q94 0 148 37.5t54 94.5h97q0 -101 -87 -158t-212 -57zM457 707q166 0 269 -90t96 -253l-19 -23l-634 -81q20 -83 93.5 -130.5t175.5 -47.5q145 0 282 90q19 -7 34 -25.5t20 -32t5 -16.5
q-165 -116 -356 -116q-169 0 -280.5 89t-111.5 248q0 165 123.5 276.5t302.5 111.5zM163 346l526 61q-1 98 -63 152t-169 54q-111 0 -197.5 -76.5t-96.5 -190.5z" />
    <glyph glyph-name="Edotaccent" unicode="&#x116;" horiz-adv-x="972" 
d="M494 976q-27 0 -47.5 18t-20.5 41q0 24 20.5 42t47.5 18t47.5 -18t20.5 -42q0 -23 -20.5 -41t-47.5 -18zM925 99q12 -13 13 -46.5t-13 -52.5h-857v886l14 13h815q8 -22 -0.5 -53t-21.5 -46h-685v-318h608q6 -23 -2 -55.5t-21 -43.5h-585v-284h735z" />
    <glyph glyph-name="edotaccent" unicode="&#x117;" horiz-adv-x="851" 
d="M453 802q-33 0 -57.5 21t-24.5 50t24.5 50.5t57.5 21.5t57.5 -21.5t24.5 -50.5t-24.5 -50t-57.5 -21zM457 707q166 0 269 -90t96 -253l-19 -23l-634 -81q20 -83 93.5 -130.5t175.5 -47.5q145 0 282 90q19 -7 34 -25.5t20 -32t5 -16.5q-165 -116 -356 -116
q-169 0 -280.5 89t-111.5 248q0 165 123.5 276.5t302.5 111.5zM163 346l526 61q-1 98 -63 152t-169 54q-111 0 -197.5 -76.5t-96.5 -190.5z" />
    <glyph glyph-name="Eogonek" unicode="&#x118;" horiz-adv-x="972" 
d="M551 0q-121 -104 -121 -198q0 -34 23 -51t59 -15q31 0 64.5 14.5t53.5 37.5l55 -46q-32 -41 -85.5 -68t-104.5 -27q-68 -1 -110.5 34t-42.5 104q0 46 32 106.5t89 108.5h-395v886l14 13h815q8 -22 -0.5 -53t-21.5 -46h-685v-318h608q6 -23 -2 -55.5t-21 -43.5h-585v-284
h735q12 -13 13 -46.5t-13 -52.5h-374z" />
    <glyph glyph-name="eogonek" unicode="&#x119;" horiz-adv-x="851" 
d="M457 707q166 0 269 -90t96 -253l-19 -23l-634 -81q20 -83 93.5 -130.5t175.5 -47.5q145 0 282 90q19 -7 34 -25.5t20 -32t5 -16.5q-153 -107 -330 -115q-115 -102 -115 -193q0 -34 23 -51t59 -15q31 0 64.5 14.5t53.5 37.5l55 -46q-32 -41 -85.5 -68t-104.5 -27
q-68 -1 -110.5 34t-42.5 104q0 46 31 105t86 107q-146 16 -239 103t-93 231q0 165 123.5 276.5t302.5 111.5zM163 346l526 61q-1 98 -63 152t-169 54q-111 0 -197.5 -76.5t-96.5 -190.5z" />
    <glyph glyph-name="Ecaron" unicode="&#x11a;" horiz-adv-x="972" 
d="M526 947h-65l-262 229h137l158 -147l158 147h136zM925 99q12 -13 13 -46.5t-13 -52.5h-857v886l14 13h815q8 -22 -0.5 -53t-21.5 -46h-685v-318h608q6 -23 -2 -55.5t-21 -43.5h-585v-284h735z" />
    <glyph glyph-name="ecaron" unicode="&#x11b;" horiz-adv-x="851" 
d="M485 783h-65l-262 236h137l158 -154l157 154h137zM457 707q166 0 269 -90t96 -253l-19 -23l-634 -81q20 -83 93.5 -130.5t175.5 -47.5q145 0 282 90q19 -7 34 -25.5t20 -32t5 -16.5q-165 -116 -356 -116q-169 0 -280.5 89t-111.5 248q0 165 123.5 276.5t302.5 111.5z
M163 346l526 61q-1 98 -63 152t-169 54q-111 0 -197.5 -76.5t-96.5 -190.5z" />
    <glyph glyph-name="Gbreve" unicode="&#x11e;" horiz-adv-x="1088" 
d="M582 974q-116 0 -188.5 49.5t-72.5 144.5h84q0 -51 48 -83.5t129 -32.5q79 0 128 33.5t49 82.5h85q0 -92 -74.5 -143t-187.5 -51zM584 818q-193 0 -308.5 -106.5t-115.5 -265.5q0 -163 121.5 -262t320.5 -99q184 0 320 61v205h-387q-6 23 2 55t21 44h468l18 -17v-345
q-81 -51 -203 -78.5t-239 -27.5q-162 0 -290 55t-203 162.5t-75 252.5q0 92 38 176.5t106.5 150t173 104.5t229.5 39q200 0 334.5 -88.5t129.5 -221.5q-30 -6 -68.5 -9.5t-66.5 1.5q-5 99 -97 156.5t-229 57.5z" />
    <glyph glyph-name="gbreve" unicode="&#x11f;" horiz-adv-x="903" 
d="M444 741q-128 0 -212 56t-84 159h96q0 -59 53.5 -95.5t146.5 -36.5q94 0 148 37.5t54 94.5h97q0 -101 -87 -158t-212 -57zM740 680q47 5 106 -8v-16q-14 -72 -14 -159v-413q0 -176 -110 -274.5t-293 -98.5q-190 0 -370 114q4 28 16.5 52.5t31.5 35.5q176 -101 309 -101
q136 0 221.5 73t85.5 196v72q-45 -77 -133 -124t-193 -47q-157 0 -262 91t-104 246q1 170 113.5 278.5t285.5 108.5q102 0 177 -38.5t116 -99.5v27zM400 82q129 0 216 87t87 232q0 72 -73 138.5t-174 66.5q-130 0 -215.5 -80.5t-86.5 -199.5q-1 -106 67 -175t179 -69z" />
    <glyph glyph-name="Gdotaccent" unicode="&#x120;" horiz-adv-x="1088" 
d="M581 999q-27 0 -47.5 18t-20.5 41q0 24 20.5 42t47.5 18t47.5 -18t20.5 -42q0 -23 -20.5 -41t-47.5 -18zM584 818q-193 0 -308.5 -106.5t-115.5 -265.5q0 -163 121.5 -262t320.5 -99q184 0 320 61v205h-387q-6 23 2 55t21 44h468l18 -17v-345q-81 -51 -203 -78.5
t-239 -27.5q-162 0 -290 55t-203 162.5t-75 252.5q0 92 38 176.5t106.5 150t173 104.5t229.5 39q200 0 334.5 -88.5t129.5 -221.5q-30 -6 -68.5 -9.5t-66.5 1.5q-5 99 -97 156.5t-229 57.5z" />
    <glyph glyph-name="gdotaccent" unicode="&#x121;" horiz-adv-x="903" 
d="M446 774q-33 0 -57.5 21t-24.5 50t24.5 50.5t57.5 21.5t57.5 -21.5t24.5 -50.5t-24.5 -50t-57.5 -21zM740 680q47 5 106 -8v-16q-14 -72 -14 -159v-413q0 -176 -110 -274.5t-293 -98.5q-190 0 -370 114q4 28 16.5 52.5t31.5 35.5q176 -101 309 -101q136 0 221.5 73
t85.5 196v72q-45 -77 -133 -124t-193 -47q-157 0 -262 91t-104 246q1 170 113.5 278.5t285.5 108.5q102 0 177 -38.5t116 -99.5v27zM400 82q129 0 216 87t87 232q0 72 -73 138.5t-174 66.5q-130 0 -215.5 -80.5t-86.5 -199.5q-1 -106 67 -175t179 -69z" />
    <glyph glyph-name="uni0122" unicode="&#x122;" horiz-adv-x="1088" 
d="M584 818q-193 0 -308.5 -106.5t-115.5 -265.5q0 -163 121.5 -262t320.5 -99q184 0 320 61v205h-387q-6 23 2 55t21 44h468l18 -17v-345q-81 -51 -203 -78.5t-239 -27.5q-162 0 -290 55t-203 162.5t-75 252.5q0 92 38 176.5t106.5 150t173 104.5t229.5 39
q200 0 334.5 -88.5t129.5 -221.5q-30 -6 -68.5 -9.5t-66.5 1.5q-5 99 -97 156.5t-229 57.5zM486 -311l41 226h98l-55 -226h-84z" />
    <glyph glyph-name="uni0123" unicode="&#x123;" horiz-adv-x="903" 
d="M542 1063l-54 -239h-98l68 239h84zM740 680q47 5 106 -8v-16q-14 -72 -14 -159v-413q0 -176 -110 -274.5t-293 -98.5q-190 0 -370 114q4 28 16.5 52.5t31.5 35.5q176 -101 309 -101q136 0 221.5 73t85.5 196v72q-45 -77 -133 -124t-193 -47q-157 0 -262 91t-104 246
q1 170 113.5 278.5t285.5 108.5q102 0 177 -38.5t116 -99.5v27zM400 82q129 0 216 87t87 232q0 72 -73 138.5t-174 66.5q-130 0 -215.5 -80.5t-86.5 -199.5q-1 -106 67 -175t179 -69z" />
    <glyph glyph-name="Hcircumflex" unicode="&#x124;" horiz-adv-x="1028" 
d="M519 1101l-157 -150h-124l244 223h74l244 -223h-124zM838 899q24 8 64 7t58 -7v-899h-122v359h-648v-359h-122v899q24 8 63.5 7t58.5 -7v-441h648v441z" />
    <glyph glyph-name="hcircumflex" unicode="&#x125;" horiz-adv-x="886" 
d="M447 1103l-158 -148h-137l262 236h65l262 -236h-137zM522 707q161 0 241 -89t80 -255v-363h-120v349q0 117 -58 184t-168 67q-129 0 -224 -101.5t-95 -230.5v-268h-120v934q20 6 60.5 6t59.5 -6v-409q56 80 148.5 131t195.5 51z" />
    <glyph glyph-name="Hbar" unicode="&#x126;" horiz-adv-x="1120" 
d="M1068 694v-90h-55v-604h-122v359h-648v-359h-122v604h-69v90h69v205q24 8 63.5 7t58.5 -7v-205h648v205q23 8 63.5 7t58.5 -7v-205h55zM891 458v146h-648v-146h648z" />
    <glyph glyph-name="hbar" unicode="&#x127;" horiz-adv-x="862" 
d="M498 707q161 0 241 -89t80 -255v-363h-120v349q0 117 -57.5 184t-168.5 67q-129 0 -224 -101.5t-95 -230.5v-268h-120v797h-83v62h83v75q20 6 61 6t59 -6v-75h408v-62h-408v-272q56 80 148.5 131t195.5 51z" />
    <glyph glyph-name="Imacron" unicode="&#x12a;" horiz-adv-x="258" 
d="M-36 984v81h328v-81h-328zM68 0v899q24 8 64 7t58 -7v-899h-122z" />
    <glyph glyph-name="imacron" unicode="&#x12b;" horiz-adv-x="271" 
d="M-97 839v94h473v-94h-473zM76 0v671q19 6 61 6t59 -6v-671h-120z" />
    <glyph glyph-name="Iogonek" unicode="&#x12e;" horiz-adv-x="258" 
d="M232 -205l55 -46q-32 -41 -85.5 -68t-104.5 -27q-68 -1 -110.5 34t-42.5 104q0 47 33 108.5t91 109.5v889q24 8 64 7t58 -7v-899h-45q-113 -101 -113 -191q0 -34 23 -51t59 -15q31 0 64.5 14.5t53.5 37.5z" />
    <glyph glyph-name="iogonek" unicode="&#x12f;" horiz-adv-x="271" 
d="M136 802q-33 0 -57.5 21t-24.5 50t24.5 50.5t57.5 21.5t57.5 -21.5t24.5 -50.5t-24.5 -50t-57.5 -21zM271 -219l55 -46q-32 -41 -85.5 -68t-104.5 -27q-68 -1 -110.5 34t-42.5 104q0 48 34.5 111t94.5 111h-36v671q19 6 61 6t59 -6v-669l6 -1q-65 -54 -98 -108t-33 -98
q0 -34 23 -51t59 -15q31 0 64.5 14.5t53.5 37.5z" />
    <glyph glyph-name="Idotaccent" unicode="&#x130;" horiz-adv-x="258" 
d="M129 976q-27 0 -47.5 18t-20.5 41q0 24 20.5 42t47.5 18t47.5 -18t20.5 -42q0 -23 -20.5 -41t-47.5 -18zM68 0v899q24 8 64 7t58 -7v-899h-122z" />
    <glyph glyph-name="dotlessi" unicode="&#x131;" horiz-adv-x="271" 
d="M76 0v671q19 6 61 6t59 -6v-671h-120z" />
    <glyph glyph-name="IJ" unicode="&#x132;" horiz-adv-x="1253" 
d="M68 0v899q24 8 64 7t58 -7v-899h-122zM704 -18q-126 0 -248 52.5t-218 137.5q10 29 31.5 53t45.5 31q77 -75 178 -123t202 -48q161 0 254.5 88.5t93.5 232.5v493q26 8 65 7t57 -7v-527q0 -76 -31.5 -146t-89 -124.5t-146 -87t-194.5 -32.5z" />
    <glyph glyph-name="ij" unicode="&#x133;" horiz-adv-x="592" 
d="M433 802q-32 0 -57 22t-25 50t25 50t57 22q33 0 57.5 -21.5t24.5 -50.5t-24.5 -50.5t-57.5 -21.5zM136 802q-33 0 -57.5 21t-24.5 50t24.5 50.5t57.5 21.5t57.5 -21.5t24.5 -50.5t-24.5 -50t-57.5 -21zM76 0v671q19 6 61 6t59 -6v-671h-120zM311 -243q-49 0 -115 18
q-7 23 2.5 56.5t26.5 48.5q46 -12 68 -12q46 -1 64.5 41.5t18.5 151.5v610q20 6 62 6t58 -6v-682q0 -232 -185 -232z" />
    <glyph glyph-name="Jcircumflex" unicode="&#x134;" horiz-adv-x="1057" 
d="M948 1174l244 -223h-124l-157 150l-157 -150h-124l244 223h74zM847 899q25 8 64.5 7t57.5 -7v-527q0 -76 -31.5 -146t-89.5 -124.5t-146.5 -87t-194.5 -32.5q-126 0 -247.5 52t-217.5 138q9 29 30.5 53t45.5 31q78 -75 179 -123t201 -48q161 0 255 88.5t94 232.5v493z
" />
    <glyph glyph-name="jcircumflex" unicode="&#x135;" horiz-adv-x="321" 
d="M195 991l262 -236h-137l-157 148l-158 -148h-137l262 236h65zM105 671q19 6 61.5 6t58.5 -6v-682q0 -232 -185 -232q-49 0 -115 18q-7 23 2.5 56.5t26.5 48.5q46 -12 68 -12q46 -1 64.5 41.5t18.5 151.5v610z" />
    <glyph glyph-name="uni0136" unicode="&#x136;" horiz-adv-x="1154" 
d="M614 461q145 -130 202 -180.5t151.5 -127t167.5 -123.5l-1 -19q-66 -19 -145 -19q-106 54 -494 414q-151 -67 -305 -122v-284h-122v899q24 8 64 7t58 -7v-504q254 96 408 178q162 84 247.5 167.5t79.5 156.5q67 14 122 2q12 -85 -72.5 -188.5t-247.5 -191.5
q-73 -38 -113 -58zM452 -301l41 226h98l-55 -226h-84z" />
    <glyph glyph-name="uni0137" unicode="&#x137;" horiz-adv-x="979" 
d="M565 336q32 -27 79 -66.5t73.5 -61.5t61 -51t56 -46t45 -34.5t40.5 -27.5t30 -16v-21q-20 -7 -67 -12.5t-89 -4.5q-65 25 -348 280q-129 -64 -268 -113v-162h-120v934q24 8 61.5 8t58.5 -8v-659q117 46 295 139q127 68 187.5 125t54.5 124q58 13 145 8q19 -77 -47 -155.5
t-216 -161.5q-22 -12 -32 -18zM370 -301l41 226h98l-55 -226h-84z" />
    <glyph glyph-name="kgreenlandic" unicode="&#x138;" horiz-adv-x="979" 
d="M565 336q32 -27 79 -66.5t73.5 -61.5t61 -51t56 -46t45 -34.5t40.5 -27.5t30 -16v-21q-20 -7 -67 -12.5t-89 -4.5q-65 25 -348 280q-129 -64 -268 -113v-162h-120v671q25 8 61.5 7.5t58.5 -7.5v-396q117 46 295 139q125 66 186.5 127t55.5 130q57 22 145 9
q38 -161 -263 -326q-22 -12 -32 -18z" />
    <glyph glyph-name="Lacute" unicode="&#x139;" horiz-adv-x="950" 
d="M82 944l182 195h127l-226 -195h-83zM95 0l-27 24v875q22 8 62.5 7t59.5 -7v-800h729q12 -17 12 -48t-12 -51h-824z" />
    <glyph glyph-name="lacute" unicode="&#x13a;" horiz-adv-x="393" 
d="M98 988l182 195h127l-226 -195h-83zM243 -18q-85 -1 -127 51.5t-42 158.5v742q22 7 59.5 7.5t61.5 -7.5v-713q0 -75 21 -108.5t66 -32.5q30 0 74 12q11 -9 16.5 -40.5t-0.5 -47.5q-72 -20 -129 -22z" />
    <glyph glyph-name="uni013B" unicode="&#x13b;" horiz-adv-x="950" 
d="M95 0l-27 24v875q22 8 62.5 7t59.5 -7v-800h729q12 -17 12 -48t-12 -51h-824zM401 -301l41 226h98l-55 -226h-84z" />
    <glyph glyph-name="uni013C" unicode="&#x13c;" horiz-adv-x="393" 
d="M243 -18q-85 -1 -127 51.5t-42 158.5v742q22 7 59.5 7.5t61.5 -7.5v-713q0 -75 21 -108.5t66 -32.5q30 0 74 12q11 -9 16.5 -40.5t-0.5 -47.5q-72 -20 -129 -22zM159 -315l41 226h98l-55 -226h-84z" />
    <glyph glyph-name="Lcaron" unicode="&#x13d;" horiz-adv-x="950" 
d="M647 820l16 333h114l-43 -333h-87zM95 0l-27 24v875q22 8 62.5 7t59.5 -7v-800h729q12 -17 12 -48t-12 -51h-824z" />
    <glyph glyph-name="lcaron" unicode="&#x13e;" horiz-adv-x="393" 
d="M363 852l16 333h114l-43 -333h-87zM243 -18q-85 -1 -127 51.5t-42 158.5v742q22 7 59.5 7.5t61.5 -7.5v-713q0 -75 21 -108.5t66 -32.5q30 0 74 12q11 -9 16.5 -40.5t-0.5 -47.5q-72 -20 -129 -22z" />
    <glyph glyph-name="Lslash" unicode="&#x141;" horiz-adv-x="1052" 
d="M1021 99q12 -17 12 -48t-12 -51h-825l-26 24v304l-122 -42v109l122 42v462q22 8 62.5 7t59.5 -7v-419l414 143v-109l-414 -143v-272h729z" />
    <glyph glyph-name="lslash" unicode="&#x142;" horiz-adv-x="395" 
d="M357 92q11 -9 16.5 -40t0.5 -48q-73 -21 -129 -22q-85 -1 -127 51.5t-42 158.5v261l-104 -44v99l104 44v382q21 7 58.5 7.5t61.5 -7.5v-331l161 68v-98l-161 -69v-283q0 -75 21.5 -108.5t66.5 -32.5q31 0 73 12z" />
    <glyph glyph-name="Nacute" unicode="&#x143;" horiz-adv-x="1154" 
d="M844 1148l-226 -195h-83l182 195h127zM964 899q25 8 63.5 7t58.5 -7v-899h-98l-798 723v-723h-122v871q13 14 48 23.5t51 4.5l797 -728v728z" />
    <glyph glyph-name="nacute" unicode="&#x144;" horiz-adv-x="913" 
d="M767 1031l-224 -248h-84l173 248h135zM519 706q165 0 250.5 -89t85.5 -254v-363h-120v338q0 125 -58 193.5t-173 68.5q-123 0 -217.5 -102.5t-94.5 -229.5v-268h-121v512q0 81 -13 140v18q67 14 115 9q13 -41 13 -86v-64q57 77 146.5 127t186.5 50z" />
    <glyph glyph-name="uni0145" unicode="&#x145;" horiz-adv-x="1154" 
d="M964 899q25 8 63.5 7t58.5 -7v-899h-98l-798 723v-723h-122v871q13 14 48 23.5t51 4.5l797 -728v728zM491 -301l41 226h98l-55 -226h-84z" />
    <glyph glyph-name="uni0146" unicode="&#x146;" horiz-adv-x="913" 
d="M519 706q165 0 250.5 -89t85.5 -254v-363h-120v338q0 125 -58 193.5t-173 68.5q-123 0 -217.5 -102.5t-94.5 -229.5v-268h-121v512q0 81 -13 140v18q67 14 115 9q13 -41 13 -86v-64q57 77 146.5 127t186.5 50zM391 -301l41 226h98l-55 -226h-84z" />
    <glyph glyph-name="Ncaron" unicode="&#x147;" horiz-adv-x="1154" 
d="M609 947h-65l-262 229h137l158 -147l158 147h136zM964 899q25 8 63.5 7t58.5 -7v-899h-98l-798 723v-723h-122v871q13 14 48 23.5t51 4.5l797 -728v728z" />
    <glyph glyph-name="ncaron" unicode="&#x148;" horiz-adv-x="913" 
d="M543 783h-65l-262 236h137l158 -154l157 154h137zM519 706q165 0 250.5 -89t85.5 -254v-363h-120v338q0 125 -58 193.5t-173 68.5q-123 0 -217.5 -102.5t-94.5 -229.5v-268h-121v512q0 81 -13 140v18q67 14 115 9q13 -41 13 -86v-64q57 77 146.5 127t186.5 50z" />
    <glyph glyph-name="Eng" unicode="&#x14a;" horiz-adv-x="1154" 
d="M625 -363q-126 0 -248.5 47.5t-217.5 125.5q10 29 31.5 53t45.5 31q79 -68 182.5 -111t206.5 -43q152 0 248 77.5t96 198.5l-779 702v-718h-122v862q13 14 48 23.5t51 4.5l797 -719v713q24 8 63.5 7t58.5 -7v-886q0 -71 -31.5 -135.5t-89 -115t-146 -80.5t-194.5 -30z
" />
    <glyph glyph-name="eng" unicode="&#x14b;" horiz-adv-x="931" 
d="M855 363l1 -374q0 -232 -186 -232q-50 0 -114 18q-7 23 2.5 56.5t26.5 48.5q46 -12 67 -12q45 -1 64 37t19 131v302q0 125 -58 193t-173 68q-120 0 -216 -102.5t-96 -228.5v-268h-121v512q0 81 -13 140v18q67 14 115 9q17 -53 17 -123v-43q50 90 139.5 141.5t189.5 51.5
q165 0 250.5 -89t85.5 -254z" />
    <glyph glyph-name="Omacron" unicode="&#x14c;" horiz-adv-x="1141" 
d="M339 994v81h546v-81h-546zM518 -18q-216 0 -350 121t-134 301q0 148 81.5 267.5t218.5 185t299 65.5q99 0 187.5 -35.5t151 -95t99 -140.5t36.5 -169q0 -105 -49 -199t-129.5 -159.5t-188 -103.5t-222.5 -38zM528 85q186 0 319.5 116.5t133.5 283.5q0 144 -103 238.5
t-262 94.5q-189 0 -322.5 -117t-133.5 -290q0 -136 99.5 -231t268.5 -95z" />
    <glyph glyph-name="omacron" unicode="&#x14d;" horiz-adv-x="909" 
d="M182 839v94h590v-94h-590zM431 -18q-187 0 -293.5 95.5t-106.5 239.5q0 161 131.5 275.5t323.5 114.5q179 0 284.5 -94t107.5 -240q2 -169 -124.5 -280t-322.5 -111zM437 83q137 0 227.5 83t90.5 195q0 104 -75.5 174.5t-200.5 70.5q-137 0 -231 -86t-94 -203
q0 -99 74 -166.5t209 -67.5z" />
    <glyph glyph-name="Ohungarumlaut" unicode="&#x150;" horiz-adv-x="1141" 
d="M399 978l164 187h126l-208 -187h-82zM648 978l190 187h136l-239 -187h-87zM518 -18q-216 0 -350 121t-134 301q0 148 81.5 267.5t218.5 185t299 65.5q99 0 187.5 -35.5t151 -95t99 -140.5t36.5 -169q0 -105 -49 -199t-129.5 -159.5t-188 -103.5t-222.5 -38zM528 85
q186 0 319.5 116.5t133.5 283.5q0 144 -103 238.5t-262 94.5q-189 0 -322.5 -117t-133.5 -290q0 -136 99.5 -231t268.5 -95z" />
    <glyph glyph-name="ohungarumlaut" unicode="&#x151;" horiz-adv-x="909" 
d="M273 783l170 248h130l-215 -248h-85zM539 783l184 248h135l-233 -248h-86zM431 -18q-187 0 -293.5 95.5t-106.5 239.5q0 161 131.5 275.5t323.5 114.5q179 0 284.5 -94t107.5 -240q2 -169 -124.5 -280t-322.5 -111zM437 83q137 0 227.5 83t90.5 195q0 104 -75.5 174.5
t-200.5 70.5q-137 0 -231 -86t-94 -203q0 -99 74 -166.5t209 -67.5z" />
    <glyph glyph-name="OE" unicode="&#x152;" horiz-adv-x="1884" 
d="M1837 99q13 -13 13.5 -46.5t-13.5 -52.5h-852v178q-83 -91 -207 -143.5t-260 -52.5q-216 0 -350 121t-134 301q0 148 81.5 267.5t218.5 185t299 65.5q104 0 195 -38.5t157 -106.5v95l14 12h810q8 -22 -0.5 -52.5t-21.5 -45.5h-680v-304h603q6 -23 -2.5 -55.5t-21.5 -43.5
h-579v-284h730zM528 85q186 0 319.5 116.5t133.5 283.5q0 144 -103 238.5t-262 94.5q-189 0 -322.5 -117t-133.5 -290q0 -136 99.5 -231t268.5 -95z" />
    <glyph glyph-name="oe" unicode="&#x153;" horiz-adv-x="1574" 
d="M1180 707q108 0 191 -39t130.5 -118.5t43.5 -188.5l-19 -23l-633 -84q22 -81 95 -126.5t173 -45.5q145 0 282 90q19 -7 34 -25.5t20 -32t5 -16.5q-165 -116 -356 -116q-113 0 -204.5 41.5t-140.5 120.5q-59 -76 -155.5 -119t-214.5 -43q-187 0 -293.5 95.5t-106.5 239.5
q0 161 131.5 275.5t323.5 114.5q119 0 207.5 -44t135.5 -120q59 77 150.5 120.5t200.5 43.5zM886 343l528 63q-1 98 -64.5 152.5t-169.5 54.5q-113 0 -199 -77t-95 -193zM437 83q137 0 227.5 83t90.5 195q0 104 -75.5 174.5t-200.5 70.5q-137 0 -231 -86t-94 -203
q0 -99 74 -166.5t209 -67.5z" />
    <glyph glyph-name="Racute" unicode="&#x154;" horiz-adv-x="1133" 
d="M780 1161l-226 -195h-83l182 195h127zM718 314q230 -204 366 -288l-2 -20q-50 -15 -144 -15q-23 10 -53.5 31.5t-87 68.5t-96.5 81.5t-134 117.5q-46 -2 -69 -2q-144 0 -308 34v-322h-122v878q104 25 203 34.5t246 9.5q227 0 359 -85t132 -234q0 -107 -79 -180.5
t-211 -108.5zM499 387q103 -1 187.5 21.5t139.5 74t55 124.5q0 97 -97.5 156.5t-280.5 59.5q-184 0 -313 -27v-374q128 -34 309 -35z" />
    <glyph glyph-name="racute" unicode="&#x155;" horiz-adv-x="656" 
d="M598 1049l-224 -248h-84l173 248h135zM625 682q7 -20 -5 -53.5t-28 -51.5q-62 21 -112 21q-132 -2 -210 -90.5t-78 -221.5v-286h-121v512q0 81 -13 140v18q62 14 107 9q12 -43 12 -86v-79q40 85 120.5 139t189.5 54q65 0 138 -25z" />
    <glyph glyph-name="uni0156" unicode="&#x156;" horiz-adv-x="1133" 
d="M718 314q230 -204 366 -288l-2 -20q-50 -15 -144 -15q-23 10 -53.5 31.5t-87 68.5t-96.5 81.5t-134 117.5q-46 -2 -69 -2q-144 0 -308 34v-322h-122v878q104 25 203 34.5t246 9.5q227 0 359 -85t132 -234q0 -107 -79 -180.5t-211 -108.5zM499 387q103 -1 187.5 21.5
t139.5 74t55 124.5q0 97 -97.5 156.5t-280.5 59.5q-184 0 -313 -27v-374q128 -34 309 -35zM471 -301l41 226h98l-55 -226h-84z" />
    <glyph glyph-name="uni0157" unicode="&#x157;" horiz-adv-x="656" 
d="M625 682q7 -20 -5 -53.5t-28 -51.5q-62 21 -112 21q-132 -2 -210 -90.5t-78 -221.5v-286h-121v512q0 81 -13 140v18q62 14 107 9q12 -43 12 -86v-79q40 85 120.5 139t189.5 54q65 0 138 -25zM65 -301l41 226h98l-55 -226h-84z" />
    <glyph glyph-name="Rcaron" unicode="&#x158;" horiz-adv-x="1133" 
d="M545 960h-65l-262 229h137l158 -147l158 147h136zM718 314q230 -204 366 -288l-2 -20q-50 -15 -144 -15q-23 10 -53.5 31.5t-87 68.5t-96.5 81.5t-134 117.5q-46 -2 -69 -2q-144 0 -308 34v-322h-122v878q104 25 203 34.5t246 9.5q227 0 359 -85t132 -234
q0 -107 -79 -180.5t-211 -108.5zM499 387q103 -1 187.5 21.5t139.5 74t55 124.5q0 97 -97.5 156.5t-280.5 59.5q-184 0 -313 -27v-374q128 -34 309 -35z" />
    <glyph glyph-name="rcaron" unicode="&#x159;" horiz-adv-x="656" 
d="M374 801h-65l-262 236h137l158 -154l157 154h137zM487 707q65 0 138 -25q7 -20 -5 -53.5t-28 -51.5q-62 21 -112 21q-132 -2 -210 -90.5t-78 -221.5v-286h-121v512q0 81 -13 140v18q62 14 107 9q12 -43 12 -86v-79q40 85 120.5 139t189.5 54z" />
    <glyph glyph-name="Sacute" unicode="&#x15a;" horiz-adv-x="1067" 
d="M513 976l182 195h127l-226 -195h-83zM567 -18q-310 0 -533 140q0 4 6 21t24 40t42 31q209 -133 449 -133q171 0 261.5 47t90.5 124q0 83 -92.5 119t-273.5 43q-115 4 -201 29t-140 79.5t-54 132.5q0 83 60.5 145t152 92t196.5 30q221 0 343.5 -80t122.5 -194
q-83 -21 -131 -8q-5 84 -92.5 133.5t-243.5 49.5q-123 0 -202.5 -44.5t-79.5 -118.5q0 -38 24.5 -67t67.5 -45.5t91.5 -25t105.5 -10.5q473 -14 473 -253q0 -127 -125 -202t-342 -75z" />
    <glyph glyph-name="sacute" unicode="&#x15b;" horiz-adv-x="882" 
d="M401 783l173 248h135l-224 -248h-84zM452 -18q-107 0 -218.5 28.5t-194.5 89.5q12 56 58 86q72 -50 169.5 -76.5t191.5 -26.5q122 0 190.5 32.5t68.5 83.5q0 56 -62.5 77.5t-223.5 26.5q-179 7 -265.5 57.5t-86.5 134.5q0 93 97 152.5t273 59.5q91 0 198.5 -21.5
t185.5 -65.5q-9 -45 -39 -92q-68 38 -164 58t-172 20q-129 0 -192.5 -33t-63.5 -78q0 -48 59 -71t188 -28q211 -7 301 -53.5t90 -142.5q0 -99 -108 -158.5t-280 -59.5z" />
    <glyph glyph-name="Scedilla" unicode="&#x15e;" horiz-adv-x="1067" 
d="M1034 259q0 -124 -118.5 -198.5t-325.5 -78.5q1 -11 3.5 -20t10.5 -19.5t12 -15t20.5 -20.5t22.5 -22q58 -57 58 -111q2 -54 -42 -92.5t-110 -39.5q-83 0 -154 64l65 56q45 -42 89 -42q25 0 42 16.5t17 41.5q0 12 -7 25t-14.5 21t-23 24.5t-22.5 24.5q-32 34 -42.5 57
t-11.5 54q-273 14 -469 138q0 4 6 21t24 40t42 31q209 -133 449 -133q171 0 261.5 47t90.5 124q0 83 -92.5 119t-273.5 43q-115 4 -201 29t-140 79.5t-54 132.5q0 83 60.5 145t152 92t196.5 30q221 0 343.5 -80t122.5 -194q-83 -21 -131 -8q-5 84 -92.5 133.5t-243.5 49.5
q-123 0 -202.5 -44.5t-79.5 -118.5q0 -38 24.5 -67t67.5 -45.5t91.5 -25t105.5 -10.5q473 -14 473 -253z" />
    <glyph glyph-name="scedilla" unicode="&#x15f;" horiz-adv-x="882" 
d="M840 200q0 -95 -99.5 -154t-260.5 -64q1 -10 4.5 -17.5t10.5 -16.5t12.5 -14.5t19 -18.5t21.5 -21q58 -57 58 -111q2 -54 -42 -93t-110 -40q-83 0 -154 64l65 56q45 -42 88 -42q26 0 43 16.5t17 41.5q0 9 -4 18.5t-12 20t-14 17.5t-19 20l-19 19q-30 33 -40.5 54.5
t-12.5 48.5q-218 17 -353 116q12 56 58 86q72 -50 169.5 -76.5t191.5 -26.5q122 0 190.5 32.5t68.5 83.5q0 56 -62.5 77.5t-223.5 26.5q-179 7 -265.5 57.5t-86.5 134.5q0 93 97 152.5t273 59.5q91 0 198.5 -21.5t185.5 -65.5q-9 -45 -39 -92q-68 38 -164 58t-172 20
q-129 0 -192.5 -33t-63.5 -78q0 -48 59 -71t188 -28q211 -7 301 -53.5t90 -142.5z" />
    <glyph glyph-name="Scaron" unicode="&#x160;" horiz-adv-x="1067" 
d="M588 970h-65l-262 229h137l158 -147l158 147h136zM561 512q473 -14 473 -253q0 -127 -125 -202t-342 -75q-310 0 -533 140q0 4 6 21t24 40t42 31q209 -133 449 -133q171 0 261.5 47t90.5 124q0 83 -92.5 119t-273.5 43q-115 4 -201 29t-140 79.5t-54 132.5q0 83 60.5 145
t152 92t196.5 30q221 0 343.5 -80t122.5 -194q-83 -21 -131 -8q-5 84 -92.5 133.5t-243.5 49.5q-123 0 -202.5 -44.5t-79.5 -118.5q0 -38 24.5 -67t67.5 -45.5t91.5 -25t105.5 -10.5z" />
    <glyph glyph-name="scaron" unicode="&#x161;" horiz-adv-x="882" 
d="M484 783h-65l-262 236h137l158 -154l157 154h137zM449 396q211 -7 301 -53.5t90 -142.5q0 -99 -108 -158.5t-280 -59.5q-107 0 -218.5 28.5t-194.5 89.5q12 56 58 86q72 -50 169.5 -76.5t191.5 -26.5q122 0 190.5 32.5t68.5 83.5q0 56 -62.5 77.5t-223.5 26.5
q-179 7 -265.5 57.5t-86.5 134.5q0 93 97 152.5t273 59.5q91 0 198.5 -21.5t185.5 -65.5q-9 -45 -39 -92q-68 38 -164 58t-172 20q-129 0 -192.5 -33t-63.5 -78q0 -48 59 -71t188 -28z" />
    <glyph glyph-name="uni0162" unicode="&#x162;" horiz-adv-x="1094" 
d="M590 800v-800h-24q0 -12 2.5 -22t5 -16.5t10.5 -17t12.5 -15t18.5 -18t21 -20.5q58 -57 58 -111q2 -54 -42 -92.5t-110 -39.5q-83 0 -154 64l65 56q45 -42 89 -42q25 0 42 16.5t17 41.5q0 12 -7 25t-14.5 21t-23 24.5t-22.5 24.5q-35 36 -44.5 60t-9.5 61h-16v800h-427
q-6 20 -1.5 51.5t15.5 47.5h1006q7 -22 -1 -54t-21 -45h-445z" />
    <glyph glyph-name="uni0163" unicode="&#x163;" horiz-adv-x="647" 
d="M611 572h-367v-257q0 -110 53.5 -170.5t156.5 -61.5q53 0 129 19q14 -11 21.5 -45t0.5 -52q-86 -23 -158 -23q-20 0 -54 2q3 -10 9.5 -20.5t11.5 -16.5t22 -22t24 -23q58 -57 58 -111q2 -54 -42 -93t-110 -40q-83 0 -154 64l65 56q45 -42 88 -42q26 0 43 16.5t17 41.5
q0 9 -4 18.5t-12 20t-14 17.5t-19 20l-19 19q-33 36 -43 59.5t-10 56.5q-86 34 -133 110.5t-47 190.5v266h-110v99h110v179q19 11 56.5 17.5t63.5 0.5v-197h367v-99z" />
    <glyph glyph-name="Tcaron" unicode="&#x164;" horiz-adv-x="1094" 
d="M565 947h-65l-262 229h137l158 -147l158 147h136zM1057 899q7 -22 -1 -54t-21 -45h-445v-800h-126v800h-427q-6 20 -1.5 51.5t15.5 47.5h1006z" />
    <glyph glyph-name="tcaron" unicode="&#x165;" horiz-adv-x="647" 
d="M634 1099l-43 -333h-87l16 333h114zM244 868v-197h367v-99h-367v-257q0 -110 53.5 -170.5t156.5 -61.5q53 0 129 19q14 -11 21.5 -45t0.5 -52q-86 -23 -158 -23q-148 -2 -235.5 82.5t-87.5 241.5v266h-110v99h110v179q19 11 56.5 17.5t63.5 0.5z" />
    <glyph glyph-name="Tbar" unicode="&#x166;" horiz-adv-x="1099" 
d="M1044 800h-445v-316h233v-90h-233v-394h-126v394h-230v90h230v316h-427q-6 20 -1.5 51.5t15.5 47.5h1006q6 -22 -1.5 -54t-20.5 -45z" />
    <glyph glyph-name="tbar" unicode="&#x167;" horiz-adv-x="642" 
d="M605 593h-366v-138h366v-85h-366v-55q0 -110 53 -170.5t156 -61.5q52 0 130 19q14 -11 21 -45t0 -52q-86 -23 -158 -23q-148 -2 -235 82.5t-87 241.5v64h-110v85h110v138h-110v86h110v171q19 11 56.5 17.5t63.5 0.5v-189h366v-86z" />
    <glyph glyph-name="Umacron" unicode="&#x16a;" horiz-adv-x="1152" 
d="M303 989v81h546v-81h-546zM559 -22q-237 0 -364 106.5t-127 308.5v506q22 7 65 6t61 -6v-511q0 -148 96 -227.5t269 -79.5q185 0 292 89t107 230v499q24 7 65.5 6t60.5 -6v-501q0 -186 -138 -303t-387 -117z" />
    <glyph glyph-name="umacron" unicode="&#x16b;" horiz-adv-x="897" 
d="M738 933v-94h-590v94h590zM828 195q0 -126 26 -180l-1 -15h-102q-11 14 -17 24.5t-11 36t-5 62.5v9q-48 -69 -139 -109.5t-207 -40.5q-144 0 -229 74.5t-85 228.5v386q46 12 120 0v-365q0 -112 58.5 -167.5t158.5 -55.5q138 0 225.5 84.5t87.5 216.5v287q20 6 60.5 5.5
t59.5 -5.5v-476z" />
    <glyph glyph-name="Uring" unicode="&#x16e;" horiz-adv-x="1152" 
d="M577 889q-109 0 -174.5 39t-65.5 106q0 65 63.5 105t176.5 40q107 0 172 -40t65 -105q0 -64 -69 -104.5t-168 -40.5zM575 944q67 0 115.5 26.5t48.5 63.5q0 40 -48 65.5t-116 25.5q-72 0 -117.5 -25.5t-45.5 -65.5t44.5 -65t118.5 -25zM559 -22q-237 0 -364 106.5
t-127 308.5v506q22 7 65 6t61 -6v-511q0 -148 96 -227.5t269 -79.5q185 0 292 89t107 230v499q24 7 65.5 6t60.5 -6v-501q0 -186 -138 -303t-387 -117z" />
    <glyph glyph-name="uring" unicode="&#x16f;" horiz-adv-x="897" 
d="M439 769q-109 0 -174.5 39t-65.5 106q0 65 63.5 105t176.5 40q107 0 172 -40t65 -105q0 -64 -69 -104.5t-168 -40.5zM437 1005q-72 0 -117.5 -25.5t-45.5 -65.5t44.5 -65t118.5 -25q67 0 115.5 26.5t48.5 63.5q0 40 -48 65.5t-116 25.5zM828 195q0 -126 26 -180l-1 -15
h-102q-11 14 -17 24.5t-11 36t-5 62.5v9q-48 -69 -139 -109.5t-207 -40.5q-144 0 -229 74.5t-85 228.5v386q46 12 120 0v-365q0 -112 58.5 -167.5t158.5 -55.5q138 0 225.5 84.5t87.5 216.5v287q20 6 60.5 5.5t59.5 -5.5v-476z" />
    <glyph glyph-name="Uhungarumlaut" unicode="&#x170;" horiz-adv-x="1152" 
d="M362 973l164 187h126l-208 -187h-82zM611 973l190 187h136l-239 -187h-87zM559 -22q-237 0 -364 106.5t-127 308.5v506q22 7 65 6t61 -6v-511q0 -148 96 -227.5t269 -79.5q185 0 292 89t107 230v499q24 7 65.5 6t60.5 -6v-501q0 -186 -138 -303t-387 -117z" />
    <glyph glyph-name="uhungarumlaut" unicode="&#x171;" horiz-adv-x="897" 
d="M540 1031l-215 -248h-85l170 248h130zM592 783h-86l184 248h135zM828 195q0 -126 26 -180l-1 -15h-102q-11 14 -17 24.5t-11 36t-5 62.5v9q-48 -69 -139 -109.5t-207 -40.5q-144 0 -229 74.5t-85 228.5v386q46 12 120 0v-365q0 -112 58.5 -167.5t158.5 -55.5
q138 0 225.5 84.5t87.5 216.5v287q20 6 60.5 5.5t59.5 -5.5v-476z" />
    <glyph glyph-name="Uogonek" unicode="&#x172;" horiz-adv-x="1152" 
d="M958 899q24 7 65.5 6t60.5 -6v-501q0 -180 -130.5 -296.5t-365.5 -123.5q-113 -100 -113 -190q0 -34 23 -51t59 -15q31 0 64.5 14.5t53.5 37.5l55 -46q-32 -41 -85.5 -68t-104.5 -27q-68 -1 -110.5 34t-42.5 104q0 45 30 103t83 106q-209 13 -320.5 118.5t-111.5 294.5
v506q22 7 65 6t61 -6v-511q0 -148 96 -227.5t269 -79.5q185 0 292 89t107 230v499z" />
    <glyph glyph-name="uogonek" unicode="&#x173;" horiz-adv-x="897" 
d="M895 -218l55 -46q-32 -41 -85.5 -68t-104.5 -27q-68 -1 -110.5 34t-42.5 104q0 50 37 115.5t101 113.5q-27 36 -27 115v9q-48 -69 -139 -109.5t-207 -40.5q-144 0 -229 74.5t-85 228.5v386q46 12 120 0v-365q0 -112 58.5 -167.5t158.5 -55.5q138 0 225.5 84.5t87.5 216.5
v287q20 6 60.5 5.5t59.5 -5.5v-476q0 -126 26 -180l-1 -15h-29q-129 -106 -129 -204q0 -34 23 -51t59 -15q31 0 64.5 14.5t53.5 37.5z" />
    <glyph glyph-name="Wcircumflex" unicode="&#x174;" horiz-adv-x="1610" 
d="M810 1101l-157 -150h-124l244 223h74l244 -223h-124zM1578 899q12 -76 12.5 -157t-21.5 -173.5t-59.5 -182.5t-100 -184t-144.5 -178l-45 -24h-138l-19 14q-23 56 -78 179t-80 173q-25 -65 -104 -181.5t-126 -169.5l-35 -15h-127l-31 17q-101 235 -241.5 487.5
t-227.5 374.5l7 20q24 6 58 6t58 -6q114 -164 236.5 -381t205.5 -415h10q87 103 166 221.5t104 192.5q-3 9 -92 208q11 17 45 31t67 11q48 -82 142.5 -298t147.5 -366h10q118 125 189 271.5t90.5 274.5t-0.5 241q38 24 121 9z" />
    <glyph glyph-name="wcircumflex" unicode="&#x175;" horiz-adv-x="1343" 
d="M672 903l-158 -148h-137l262 236h65l262 -236h-137zM1331 671q22 -130 -59.5 -317.5t-227.5 -341.5l-22 -12h-126l-28 15q-41 113 -130 291q-22 -48 -87.5 -147.5t-109.5 -147.5l-23 -11h-142l-21 14q-78 209 -185.5 390t-163.5 248l8 19q71 14 116 0q221 -301 319 -570
h11q55 71 116.5 170.5t96.5 175.5l-64 120q12 20 45.5 35t68.5 11q142 -241 235 -512h11q111 127 185.5 286.5t59.5 274.5q41 23 117 9z" />
    <glyph glyph-name="Ycircumflex" unicode="&#x176;" horiz-adv-x="1068" 
d="M539 1101l-157 -150h-124l244 223h74l244 -223h-124zM1051 899q7 -58 -11 -122.5t-64 -140.5t-134.5 -162.5t-213.5 -174.5v-299h-122v307q-71 94 -239 292.5t-252 279.5l9 20q82 15 146 0q80 -80 417 -490q160 109 254.5 245t84.5 236q43 22 125 9z" />
    <glyph glyph-name="ycircumflex" unicode="&#x177;" horiz-adv-x="878" 
d="M440 903l-158 -148h-137l262 236h65l262 -236h-137zM862 671q12 -79 -3 -177.5t-55 -204.5t-117 -213.5t-180 -190.5q-173 -135 -373 -137q-67 0 -108 18q-22 42 -2 85l23 12q36 -15 89 -15q161 3 313 139q14 12 40 38q-95 57 -182 147.5t-145.5 183.5t-96 167t-55.5 128
l7 19q64 15 122 1q18 -50 48 -111t81.5 -147.5t128.5 -170t164 -138.5q203 251 182 557q38 25 119 10z" />
    <glyph glyph-name="Ydieresis" unicode="&#x178;" horiz-adv-x="1068" 
d="M367 982q-27 0 -47 18t-20 41t20 41t47 18t47 -18t20 -41t-20 -41t-47 -18zM702 982q-27 0 -47.5 18t-20.5 41t20.5 41t47.5 18t47 -18t20 -41t-20 -41t-47 -18zM1051 899q7 -58 -11 -122.5t-64 -140.5t-134.5 -162.5t-213.5 -174.5v-299h-122v307q-71 94 -239 292.5
t-252 279.5l9 20q82 15 146 0q80 -80 417 -490q160 109 254.5 245t84.5 236q43 22 125 9z" />
    <glyph glyph-name="Zacute" unicode="&#x179;" horiz-adv-x="1041" 
d="M788 1148l-226 -195h-83l182 195h127zM994 99q13 -13 13.5 -46.5t-13.5 -52.5h-934q-12 10 -20 37.5t-5 47.5q167 219 360 412.5t365 302.5h-688q-13 13 -13.5 46.5t13.5 52.5h885q12 -9 20.5 -42.5t6.5 -54.5q-192 -111 -407 -309.5t-369 -393.5h786z" />
    <glyph glyph-name="zacute" unicode="&#x17a;" horiz-adv-x="861" 
d="M688 1031l-224 -248h-84l173 248h135zM835 101q12 -8 12.5 -44t-12.5 -57h-795q-12 10 -20 38t-6 50q145 166 284.5 286t308.5 196h-556q-11 11 -11.5 45.5t11.5 55.5h757q11 -10 18.5 -48t5.5 -62q-125 -41 -304.5 -176.5t-312.5 -283.5h620z" />
    <glyph glyph-name="Zdotaccent" unicode="&#x17b;" horiz-adv-x="1041" 
d="M521 976q-27 0 -47.5 18t-20.5 41q0 24 20.5 42t47.5 18t47.5 -18t20.5 -42q0 -23 -20.5 -41t-47.5 -18zM994 99q13 -13 13.5 -46.5t-13.5 -52.5h-934q-12 10 -20 37.5t-5 47.5q167 219 360 412.5t365 302.5h-688q-13 13 -13.5 46.5t13.5 52.5h885q12 -9 20.5 -42.5
t6.5 -54.5q-192 -111 -407 -309.5t-369 -393.5h786z" />
    <glyph glyph-name="zdotaccent" unicode="&#x17c;" horiz-adv-x="861" 
d="M431 802q-33 0 -57.5 21t-24.5 50t24.5 50.5t57.5 21.5t57.5 -21.5t24.5 -50.5t-24.5 -50t-57.5 -21zM835 101q12 -8 12.5 -44t-12.5 -57h-795q-12 10 -20 38t-6 50q145 166 284.5 286t308.5 196h-556q-11 11 -11.5 45.5t11.5 55.5h757q11 -10 18.5 -48t5.5 -62
q-125 -41 -304.5 -176.5t-312.5 -283.5h620z" />
    <glyph glyph-name="Zcaron" unicode="&#x17d;" horiz-adv-x="1041" 
d="M553 947h-65l-262 229h137l158 -147l158 147h136zM994 99q13 -13 13.5 -46.5t-13.5 -52.5h-934q-12 10 -20 37.5t-5 47.5q167 219 360 412.5t365 302.5h-688q-13 13 -13.5 46.5t13.5 52.5h885q12 -9 20.5 -42.5t6.5 -54.5q-192 -111 -407 -309.5t-369 -393.5h786z" />
    <glyph glyph-name="zcaron" unicode="&#x17e;" horiz-adv-x="861" 
d="M464 783h-65l-262 236h137l158 -154l157 154h137zM835 101q12 -8 12.5 -44t-12.5 -57h-795q-12 10 -20 38t-6 50q145 166 284.5 286t308.5 196h-556q-11 11 -11.5 45.5t11.5 55.5h757q11 -10 18.5 -48t5.5 -62q-125 -41 -304.5 -176.5t-312.5 -283.5h620z" />
    <glyph glyph-name="longs" unicode="&#x17f;" horiz-adv-x="412" 
d="M96 0v627q0 323 267 323q73 0 168 -21q5 -17 -4 -51.5t-21 -45.5q-67 19 -118 19q-172 0 -172 -218v-633h-120z" />
    <glyph glyph-name="florin" unicode="&#x192;" horiz-adv-x="560" 
d="M468 422v-101h-127q17 -179 17 -296q0 -107 -55.5 -168t-155.5 -61v100q94 0 94 139q0 94 -18 286h-131v101h122q-11 134 -11 227q0 108 54 168t159 60v-101q-96 0 -96 -139q0 -83 11 -215h137z" />
    <glyph glyph-name="uni01C7" unicode="&#x1c7;" horiz-adv-x="2003" 
d="M95 0l-27 24v875q22 8 62.5 7t59.5 -7v-800h729q12 -17 12 -48t-12 -51h-824zM1453 -18q-125 0 -247 52.5t-218 137.5q10 29 31.5 53t44.5 31q78 -75 179.5 -123t201.5 -48q161 0 254.5 88.5t93.5 232.5v493q26 8 65 7t57 -7v-527q0 -76 -31.5 -146t-89 -124.5
t-146.5 -87t-195 -32.5z" />
    <glyph glyph-name="uni01C8" unicode="&#x1c8;" horiz-adv-x="1267" 
d="M1109 802q-33 0 -57.5 21.5t-24.5 50.5t24.5 50.5t57.5 21.5t57.5 -21.5t24.5 -50.5t-24.5 -50.5t-57.5 -21.5zM95 0l-27 24v875q22 8 62.5 7t59.5 -7v-800h729q12 -17 12 -48t-12 -51h-824zM986 -243q-50 0 -114 18q-8 23 1.5 56t26.5 49q48 -12 68 -12q47 -1 65 41.5
t18 151.5v610q19 6 61.5 6t58.5 -6v-682q0 -232 -185 -232z" />
    <glyph glyph-name="uni01C9" unicode="&#x1c9;" horiz-adv-x="714" 
d="M556 802q-33 0 -57.5 21t-24.5 50t24.5 50.5t57.5 21.5t57.5 -21.5t24.5 -50.5t-24.5 -50t-57.5 -21zM243 -18q-85 -1 -127 51.5t-42 158.5v742q22 7 59.5 7.5t61.5 -7.5v-713q0 -75 21 -108.5t66 -32.5q30 0 74 12q11 -9 16.5 -40.5t-0.5 -47.5q-72 -20 -129 -22z
M433 -243q-49 0 -115 18q-7 23 2.5 56.5t26.5 48.5q46 -12 68 -12q46 -1 64.5 41.5t18.5 151.5v610q20 6 62 6t58 -6v-682q0 -232 -185 -232z" />
    <glyph glyph-name="uni01CA" unicode="&#x1ca;" horiz-adv-x="2181" 
d="M964 899q25 8 63.5 7t58.5 -7v-899h-98l-798 723v-723h-122v871q13 14 48 23.5t51 4.5l797 -728v728zM1971 899q26 8 65 7t57 -7v-527q0 -76 -31.5 -146t-89 -124.5t-146 -87t-194.5 -32.5q-126 0 -248 52.5t-218 137.5q10 29 31.5 53t45.5 31q77 -75 178 -123t202 -48
q161 0 254.5 88.5t93.5 232.5v493z" />
    <glyph glyph-name="uni01CB" unicode="&#x1cb;" horiz-adv-x="1445" 
d="M1287 802q-33 0 -57.5 21.5t-24.5 50.5t24.5 50.5t57.5 21.5t57.5 -21.5t24.5 -50.5t-24.5 -50.5t-57.5 -21.5zM1086 0h-98l-798 723v-723h-122v871q13 14 48 23.5t51 4.5l797 -728v728q25 8 63.5 7t58.5 -7v-899zM1229 671q19 6 62 6t59 -6v-682q0 -232 -185 -232
q-51 0 -115 18q-7 23 2.5 56.5t26.5 48.5q46 -12 67 -12q47 -1 65 41.5t18 151.5v610z" />
    <glyph glyph-name="uni01CC" unicode="&#x1cc;" horiz-adv-x="1591" 
d="M1082 802q-33 0 -57.5 21t-24.5 50t24.5 50.5t57.5 21.5t57.5 -21.5t24.5 -50.5t-24.5 -50t-57.5 -21zM855 0h-120v338q0 125 -58 193.5t-173 68.5q-123 0 -217.5 -102.5t-94.5 -229.5v-268h-121v512q0 81 -13 140v18q67 14 115 9q13 -41 13 -86v-64q57 77 146.5 127
t186.5 50q165 0 250.5 -89t85.5 -254v-363zM1024 671q20 6 62 6t58 -6v-682q0 -232 -185 -232q-49 0 -115 18q-7 23 2.5 56.5t26.5 48.5q46 -12 68 -12q46 -1 64.5 41.5t18.5 151.5v610z" />
    <glyph glyph-name="uni01CD" unicode="&#x1cd;" horiz-adv-x="1170" 
d="M618 947h-64l-263 230h137l158 -148l158 148h136zM650 899q33 -55 150.5 -267t221.5 -394t136 -220l-8 -18q-104 0 -138 13q-27 36 -115 198h-630l-116 -211h-138l503 899q22 9 67.5 8.5t66.5 -8.5zM321 310h522q-46 87 -135.5 256.5t-120.5 228.5z" />
    <glyph glyph-name="uni01CE" unicode="&#x1ce;" horiz-adv-x="878" 
d="M484 783h-65l-262 236h137l158 -154l157 154h137zM809 207q1 -85 9 -123t27 -71l-3 -13h-116q-16 15 -23 24.5t-14 39t-7 79.5v13q-68 -81 -169.5 -127.5t-210.5 -46.5q-116 0 -187.5 50.5t-71.5 127.5q0 86 76.5 147.5t194 89.5t260.5 27q52 0 97 -4q-9 94 -69.5 146
t-157.5 52q-123 0 -284 -88q-41 17 -49 83q169 94 330 94q174 0 270 -87.5t97 -251.5zM670 330l2 13q-59 3 -113 3q-165 -1 -274.5 -45.5t-109.5 -124.5q0 -44 38.5 -71t106.5 -27q134 0 235 79.5t115 172.5z" />
    <glyph glyph-name="uni01CF" unicode="&#x1cf;" horiz-adv-x="258" 
d="M161 947h-65l-262 229h137l158 -147l158 147h136zM68 899q24 8 64 7t58 -7v-899h-122v899z" />
    <glyph glyph-name="uni01D0" unicode="&#x1d0;" horiz-adv-x="271" 
d="M168 783h-65l-262 236h137l158 -154l157 154h137zM76 671q19 6 61 6t59 -6v-671h-120v671z" />
    <glyph glyph-name="uni01D2" unicode="&#x1d2;" horiz-adv-x="909" 
d="M504 784h-65l-262 235h137l158 -154l157 154h137zM878 373q2 -169 -124.5 -280t-322.5 -111q-187 0 -293.5 95.5t-106.5 239.5q0 161 131.5 275.5t323.5 114.5q179 0 284.5 -94t107.5 -240zM437 83q137 0 227.5 83t90.5 195q0 104 -75.5 174.5t-200.5 70.5
q-137 0 -231 -86t-94 -203q0 -99 74 -166.5t209 -67.5z" />
    <glyph glyph-name="uni01D3" unicode="&#x1d3;" horiz-adv-x="1152" 
d="M608 952h-64l-263 230h137l158 -148l158 148h136zM958 899q24 7 65.5 6t60.5 -6v-501q0 -186 -138 -303t-387 -117q-237 0 -364 106.5t-127 308.5v506q22 7 65 6t61 -6v-511q0 -148 96 -227.5t269 -79.5q185 0 292 89t107 230v499z" />
    <glyph glyph-name="uni01D4" unicode="&#x1d4;" horiz-adv-x="897" 
d="M470 784h-64l-263 235h138l158 -154l157 154h136zM828 195q0 -126 26 -180l-1 -15h-102q-11 14 -17 24.5t-11 36t-5 62.5v9q-48 -69 -139 -109.5t-207 -40.5q-144 0 -229 74.5t-85 228.5v386q46 12 120 0v-365q0 -112 58.5 -167.5t158.5 -55.5q138 0 225.5 84.5
t87.5 216.5v287q20 6 60.5 5.5t59.5 -5.5v-476z" />
    <glyph glyph-name="uni01E2" unicode="&#x1e2;" horiz-adv-x="1785" 
d="M1398 1056v-81h-546v81h546zM1738 99q13 -13 13.5 -46.5t-13.5 -52.5h-857v211h-515l-191 -211h-162l841 899h857q7 -22 -1.5 -53t-21.5 -46h-685v-313h608q7 -23 -1.5 -55.5t-21.5 -43.5h-585v-289h735zM456 310h425v469z" />
    <glyph glyph-name="uni01E3" unicode="&#x1e3;" horiz-adv-x="1488" 
d="M1048 933v-94h-590v94h590zM1094 707q108 0 191 -38t130.5 -117t43.5 -188l-20 -23l-634 -79q20 -84 93 -132t176 -48q146 0 283 90q19 -7 34 -25.5t20 -32t5 -16.5q-165 -116 -356 -116q-118 0 -211.5 45t-140.5 129q-70 -80 -176.5 -127.5t-229.5 -46.5
q-116 1 -187.5 51t-71.5 127q0 86 75.5 147.5t192 89t257.5 26.5q44 0 93 -3q-13 91 -69 141.5t-148 50.5q-114 0 -284 -82q-41 17 -49 83q169 94 330 94q228 0 315 -148q59 69 147 108.5t191 39.5zM800 342l526 57q-1 101 -63.5 157.5t-168.5 56.5q-113 0 -199 -77.5
t-95 -193.5zM661 330l2 13q-56 3 -104 3q-165 -1 -274.5 -45.5t-109.5 -124.5q0 -44 38.5 -71t106.5 -27q130 0 229 78t112 174z" />
    <glyph glyph-name="Gcaron" unicode="&#x1e6;" horiz-adv-x="1258" 
d="M664 969h-65l-262 230h136l159 -148l157 148h137zM634 818q-193 0 -308.5 -106.5t-115.5 -265.5q0 -163 121.5 -262t320.5 -99q184 0 320 61v205h-387q-6 23 2 55t21 44h468l18 -17v-345q-81 -51 -203 -78.5t-239 -27.5q-162 0 -290 55t-203 162.5t-75 252.5
q0 92 38 176.5t106.5 150t173 104.5t229.5 39q200 0 334.5 -88.5t129.5 -221.5q-30 -6 -68.5 -9.5t-66.5 1.5q-5 99 -97 156.5t-229 57.5z" />
    <glyph glyph-name="gcaron" unicode="&#x1e7;" horiz-adv-x="903" 
d="M478 755h-65l-262 236h137l158 -154l157 154h137zM740 680q47 5 106 -8v-16q-14 -72 -14 -159v-413q0 -176 -110 -274.5t-293 -98.5q-190 0 -370 114q4 28 16.5 52.5t31.5 35.5q176 -101 309 -101q136 0 221.5 73t85.5 196v72q-45 -77 -133 -124t-193 -47q-157 0 -262 91
t-104 246q1 170 113.5 278.5t285.5 108.5q102 0 177 -38.5t116 -99.5v27zM400 82q129 0 216 87t87 232q0 72 -73 138.5t-174 66.5q-130 0 -215.5 -80.5t-86.5 -199.5q-1 -106 67 -175t179 -69z" />
    <glyph glyph-name="uni01E8" unicode="&#x1e8;" horiz-adv-x="1154" 
d="M621 947h-65l-262 229h137l158 -147l158 147h136zM614 461q145 -130 202 -180.5t151.5 -127t167.5 -123.5l-1 -19q-66 -19 -145 -19q-106 54 -494 414q-151 -67 -305 -122v-284h-122v899q24 8 64 7t58 -7v-504q254 96 408 178q162 84 247.5 167.5t79.5 156.5q67 14 122 2
q12 -85 -72.5 -188.5t-247.5 -191.5q-73 -38 -113 -58z" />
    <glyph glyph-name="uni01E9" unicode="&#x1e9;" horiz-adv-x="979" 
d="M529 995h-65l-262 236h137l158 -154l157 154h137zM565 336q32 -27 79 -66.5t73.5 -61.5t61 -51t56 -46t45 -34.5t40.5 -27.5t30 -16v-21q-20 -7 -67 -12.5t-89 -4.5q-65 25 -348 280q-129 -64 -268 -113v-162h-120v934q24 8 61.5 8t58.5 -8v-659q117 46 295 139
q127 68 187.5 125t54.5 124q58 13 145 8q19 -77 -47 -155.5t-216 -161.5q-22 -12 -32 -18z" />
    <glyph glyph-name="uni01EB" unicode="&#x1eb;" horiz-adv-x="909" 
d="M502 -14q-121 -106 -121 -197q0 -34 23.5 -51.5t59.5 -15.5q31 0 64.5 15t52.5 37l56 -46q-32 -40 -86 -67t-105 -27q-67 -2 -110 33.5t-43 103.5q0 45 31 104t85 107q-177 7 -277.5 101.5t-100.5 233.5q0 161 131.5 275.5t323.5 114.5q179 0 284.5 -94t107.5 -240
q2 -152 -103 -259.5t-273 -127.5zM154 317q0 -99 74 -166.5t209 -67.5q137 0 227.5 83t90.5 195q0 104 -75.5 174.5t-200.5 70.5q-137 0 -231 -86t-94 -203z" />
    <glyph glyph-name="uni01F0" unicode="&#x1f0;" horiz-adv-x="321" 
d="M195 783h-65l-262 236h137l158 -154l157 154h137zM105 671q19 6 61.5 6t58.5 -6v-682q0 -232 -185 -232q-49 0 -115 18q-7 23 2.5 56.5t26.5 48.5q46 -12 68 -12q46 -1 64.5 41.5t18.5 151.5v610z" />
    <glyph glyph-name="uni01F4" unicode="&#x1f4;" horiz-adv-x="1088" 
d="M848 1171l-225 -196h-84l182 196h127zM584 818q-193 0 -308.5 -106.5t-115.5 -265.5q0 -163 121.5 -262t320.5 -99q184 0 320 61v205h-387q-6 23 2 55t21 44h468l18 -17v-345q-81 -51 -203 -78.5t-239 -27.5q-162 0 -290 55t-203 162.5t-75 252.5q0 92 38 176.5
t106.5 150t173 104.5t229.5 39q200 0 334.5 -88.5t129.5 -221.5q-30 -6 -68.5 -9.5t-66.5 1.5q-5 99 -97 156.5t-229 57.5z" />
    <glyph glyph-name="uni01F4" unicode="&#x1f5;" horiz-adv-x="1088" 
d="M848 1171l-225 -196h-84l182 196h127zM584 818q-193 0 -308.5 -106.5t-115.5 -265.5q0 -163 121.5 -262t320.5 -99q184 0 320 61v205h-387q-6 23 2 55t21 44h468l18 -17v-345q-81 -51 -203 -78.5t-239 -27.5q-162 0 -290 55t-203 162.5t-75 252.5q0 92 38 176.5
t106.5 150t173 104.5t229.5 39q200 0 334.5 -88.5t129.5 -221.5q-30 -6 -68.5 -9.5t-66.5 1.5q-5 99 -97 156.5t-229 57.5z" />
    <glyph glyph-name="uni01F8" unicode="&#x1f8;" horiz-adv-x="1154" 
d="M660 970h-79l-214 191h114zM964 899q25 8 63.5 7t58.5 -7v-899h-98l-798 723v-723h-122v871q13 14 48 23.5t51 4.5l797 -728v728z" />
    <glyph glyph-name="uni01F9" unicode="&#x1f9;" horiz-adv-x="913" 
d="M618 783h-91l-248 248h134zM519 706q165 0 250.5 -89t85.5 -254v-363h-120v338q0 125 -58 193.5t-173 68.5q-123 0 -217.5 -102.5t-94.5 -229.5v-268h-121v512q0 81 -13 140v18q67 14 115 9q13 -41 13 -86v-64q57 77 146.5 127t186.5 50z" />
    <glyph glyph-name="Aringacute" unicode="&#x1fa;" horiz-adv-x="1170" 
d="M743 1311l-139 -147h-62l88 147h113zM587 919q-95 0 -152.5 31t-57.5 80q0 48 57 80t153 32q95 0 151 -32t56 -80q0 -47 -58.5 -79t-148.5 -32zM585 1099q-62 0 -100.5 -19.5t-38.5 -49.5t39.5 -49t99.5 -19q61 0 100.5 19.5t39.5 48.5q0 30 -38.5 49.5t-101.5 19.5z
M650 899q33 -55 150.5 -267t221.5 -394t136 -220l-8 -18q-104 0 -138 13q-27 36 -115 198h-630l-116 -211h-138l503 899q22 9 67.5 8.5t66.5 -8.5zM321 310h522q-46 87 -135.5 256.5t-120.5 228.5z" />
    <glyph glyph-name="aringacute" unicode="&#x1fb;" horiz-adv-x="878" 
d="M619 1130l-138 -146h-62l88 146h112zM463 738q-95 0 -152 31t-57 80q0 48 56.5 80t152.5 32t151.5 -32t55.5 -80q0 -47 -58 -79t-149 -32zM461 918q-62 0 -100 -19.5t-38 -49.5t39 -49t99 -19q61 0 100.5 19.5t39.5 48.5q0 30 -38 49.5t-102 19.5zM809 207q1 -85 9 -123
t27 -71l-3 -13h-116q-16 15 -23 24.5t-14 39t-7 79.5v13q-68 -81 -169.5 -127.5t-210.5 -46.5q-116 0 -187.5 50.5t-71.5 127.5q0 86 76.5 147.5t194 89.5t260.5 27q52 0 97 -4q-9 94 -69.5 146t-157.5 52q-123 0 -284 -88q-41 17 -49 83q169 94 330 94q174 0 270 -87.5
t97 -251.5zM670 330l2 13q-59 3 -113 3q-165 -1 -274.5 -45.5t-109.5 -124.5q0 -44 38.5 -71t106.5 -27q134 0 235 79.5t115 172.5z" />
    <glyph glyph-name="AEacute" unicode="&#x1fc;" horiz-adv-x="1785" 
d="M1392 1139l-225 -195h-84l182 195h127zM1738 99q13 -13 13.5 -46.5t-13.5 -52.5h-857v211h-515l-191 -211h-162l841 899h857q7 -22 -1.5 -53t-21.5 -46h-685v-313h608q7 -23 -1.5 -55.5t-21.5 -43.5h-585v-289h735zM456 310h425v469z" />
    <glyph glyph-name="aeacute" unicode="&#x1fd;" horiz-adv-x="1488" 
d="M1005 1031l-224 -248h-84l173 248h135zM1094 707q108 0 191 -38t130.5 -117t43.5 -188l-20 -23l-634 -79q20 -84 93 -132t176 -48q146 0 283 90q19 -7 34 -25.5t20 -32t5 -16.5q-165 -116 -356 -116q-118 0 -211.5 45t-140.5 129q-70 -80 -176.5 -127.5t-229.5 -46.5
q-116 1 -187.5 51t-71.5 127q0 86 75.5 147.5t192 89t257.5 26.5q44 0 93 -3q-13 91 -69 141.5t-148 50.5q-114 0 -284 -82q-41 17 -49 83q169 94 330 94q228 0 315 -148q59 69 147 108.5t191 39.5zM800 342l526 57q-1 101 -63.5 157.5t-168.5 56.5q-113 0 -199 -77.5
t-95 -193.5zM661 330l2 13q-56 3 -104 3q-165 -1 -274.5 -45.5t-109.5 -124.5q0 -44 38.5 -71t106.5 -27q130 0 229 78t112 174z" />
    <glyph glyph-name="Oslashacute" unicode="&#x1fe;" horiz-adv-x="1212" 
d="M915 1158l-226 -195h-83l182 195h127zM1152 892l-127 -120q117 -125 117 -290q0 -105 -49 -199t-129.5 -159.5t-188 -103.5t-222.5 -38q-167 0 -287 75l-60 -57h-131l119 112q-125 117 -125 292q0 148 81.5 267.5t218.5 185t299 65.5q161 0 288 -90l64 60h132zM195 411
q0 -127 85 -217l594 560q-95 64 -223 64q-123 0 -227.5 -52.5t-166.5 -146.5t-62 -208zM1016 485q0 121 -75 208l-589 -555q92 -53 212 -53q121 0 225 53t165.5 145t61.5 202z" />
    <glyph glyph-name="oslashacute" unicode="&#x1ff;" horiz-adv-x="943" 
d="M738 1031l-224 -248h-84l173 248h135zM895 671v-18l-83 -73q72 -86 74 -207q3 -169 -123.5 -280t-322.5 -111q-145 0 -247 62l-50 -44h-98v25l80 73q-85 90 -85 219q0 161 131.5 275.5t323.5 114.5q148 0 249 -68l36 32h115zM163 317q0 -82 49 -140l62 56l52 39l214 182
l49 49l66 58q-71 45 -167 45q-138 0 -231.5 -85.5t-93.5 -203.5zM764 361q0 78 -44 139l-11 -10l-60 -45l-241 -205l-34 -38l-93 -82q69 -37 165 -37q137 0 227.5 83t90.5 195z" />
    <glyph glyph-name="uni0202" unicode="&#x202;" horiz-adv-x="1170" 
d="M587 1090q-90 0 -144 -37.5t-54 -91.5h-97q0 99 85.5 155.5t209.5 56.5q127 0 209.5 -55t82.5 -157h-97q0 56 -52 92.5t-143 36.5zM650 899q33 -55 150.5 -267t221.5 -394t136 -220l-8 -18q-104 0 -138 13q-27 36 -115 198h-630l-116 -211h-138l503 899q22 9 67.5 8.5
t66.5 -8.5zM321 310h522q-46 87 -135.5 256.5t-120.5 228.5z" />
    <glyph glyph-name="uni0203" unicode="&#x203;" horiz-adv-x="878" 
d="M452 912q-90 0 -144 -37.5t-54 -91.5h-96q0 99 85.5 155.5t208.5 56.5q127 0 209.5 -54.5t82.5 -157.5h-97q0 56 -52 92.5t-143 36.5zM809 207q1 -85 9 -123t27 -71l-3 -13h-116q-16 15 -23 24.5t-14 39t-7 79.5v13q-68 -81 -169.5 -127.5t-210.5 -46.5
q-116 0 -187.5 50.5t-71.5 127.5q0 86 76.5 147.5t194 89.5t260.5 27q52 0 97 -4q-9 94 -69.5 146t-157.5 52q-123 0 -284 -88q-41 17 -49 83q169 94 330 94q174 0 270 -87.5t97 -251.5zM670 330l2 13q-59 3 -113 3q-165 -1 -274.5 -45.5t-109.5 -124.5q0 -44 38.5 -71
t106.5 -27q134 0 235 79.5t115 172.5z" />
    <glyph glyph-name="uni0206" unicode="&#x206;" horiz-adv-x="972" 
d="M495 1089q-91 0 -144.5 -37.5t-53.5 -91.5h-97q0 100 85.5 156.5t209.5 56.5q126 0 208.5 -55t82.5 -158h-96q0 56 -52 92.5t-143 36.5zM925 99q12 -13 13 -46.5t-13 -52.5h-857v886l14 13h815q8 -22 -0.5 -53t-21.5 -46h-685v-318h608q6 -23 -2 -55.5t-21 -43.5h-585
v-284h735z" />
    <glyph glyph-name="uni0207" unicode="&#x207;" horiz-adv-x="851" 
d="M454 912q-90 0 -144 -37.5t-54 -91.5h-96q0 99 85.5 155.5t208.5 56.5q127 0 209.5 -54.5t82.5 -157.5h-97q0 56 -52 92.5t-143 36.5zM457 707q166 0 269 -90t96 -253l-19 -23l-634 -81q20 -83 93.5 -130.5t175.5 -47.5q145 0 282 90q19 -7 34 -25.5t20 -32t5 -16.5
q-165 -116 -356 -116q-169 0 -280.5 89t-111.5 248q0 165 123.5 276.5t302.5 111.5zM163 346l526 61q-1 98 -63 152t-169 54q-111 0 -197.5 -76.5t-96.5 -190.5z" />
    <glyph glyph-name="uni020A" unicode="&#x20a;" horiz-adv-x="79" 
d="M-377 960q0 100 85.5 156.5t208.5 56.5q127 0 209.5 -55t82.5 -158h-97q0 56 -51.5 92.5t-143.5 36.5q-90 0 -143.5 -37.5t-53.5 -91.5h-97zM-145 0v899q23 8 64 7t58 -7v-899h-122z" />
    <glyph glyph-name="uni020B" unicode="&#x20b;" horiz-adv-x="271" 
d="M-131 783q0 99 77.5 155.5t190.5 56.5q115 0 190.5 -54.5t75.5 -157.5h-88q0 56 -47.5 92.5t-130.5 36.5q-82 0 -131 -37.5t-49 -91.5h-88zM76 0v671q19 6 61 6t59 -6v-671h-120z" />
    <glyph glyph-name="uni020E" unicode="&#x20e;" horiz-adv-x="1141" 
d="M319 970q0 100 85.5 156t209.5 56q126 0 208.5 -54.5t82.5 -157.5h-96q0 56 -52 92.5t-143 36.5t-144.5 -37.5t-53.5 -91.5h-97zM518 -18q-216 0 -350 121t-134 301q0 148 81.5 267.5t218.5 185t299 65.5q99 0 187.5 -35.5t151 -95t99 -140.5t36.5 -169q0 -105 -49 -199
t-129.5 -159.5t-188 -103.5t-222.5 -38zM528 85q186 0 319.5 116.5t133.5 283.5q0 144 -103 238.5t-262 94.5q-189 0 -322.5 -117t-133.5 -290q0 -136 99.5 -231t268.5 -95z" />
    <glyph glyph-name="uni020F" unicode="&#x20f;" horiz-adv-x="909" 
d="M178 784q0 99 85.5 155.5t209.5 56.5q126 0 208.5 -55t82.5 -157h-96q0 55 -52 91.5t-143 36.5t-144.5 -37.5t-53.5 -90.5h-97zM431 -18q-187 0 -293.5 95.5t-106.5 239.5q0 161 131.5 275.5t323.5 114.5q179 0 284.5 -94t107.5 -240q2 -169 -124.5 -280t-322.5 -111z
M437 83q137 0 227.5 83t90.5 195q0 104 -75.5 174.5t-200.5 70.5q-137 0 -231 -86t-94 -203q0 -99 74 -166.5t209 -67.5z" />
    <glyph glyph-name="uni0212" unicode="&#x212;" horiz-adv-x="1133" 
d="M514 1103q-90 0 -144 -37.5t-54 -91.5h-96q0 99 85.5 155.5t208.5 56.5q127 0 209.5 -55t82.5 -157h-97q0 56 -52 92.5t-143 36.5zM718 314q230 -204 366 -288l-2 -20q-50 -15 -144 -15q-23 10 -53.5 31.5t-87 68.5t-96.5 81.5t-134 117.5q-46 -2 -69 -2q-144 0 -308 34
v-322h-122v878q104 25 203 34.5t246 9.5q227 0 359 -85t132 -234q0 -107 -79 -180.5t-211 -108.5zM499 387q103 -1 187.5 21.5t139.5 74t55 124.5q0 97 -97.5 156.5t-280.5 59.5q-184 0 -313 -27v-374q128 -34 309 -35z" />
    <glyph glyph-name="uni0213" unicode="&#x213;" horiz-adv-x="656" 
d="M344 929q-86 0 -137.5 -37t-51.5 -91h-92q0 99 82 155.5t199 56.5q121 0 200 -55t79 -157h-92q0 55 -50 91.5t-137 36.5zM625 682q7 -20 -5 -53.5t-28 -51.5q-62 21 -112 21q-132 -2 -210 -90.5t-78 -221.5v-286h-121v512q0 81 -13 140v18q62 14 107 9q12 -43 12 -86v-79
q40 85 120.5 139t189.5 54q65 0 138 -25z" />
    <glyph glyph-name="uni0218" unicode="&#x218;" horiz-adv-x="1067" 
d="M567 -18q-310 0 -533 140q0 4 6 21t24 40t42 31q209 -133 449 -133q171 0 261.5 47t90.5 124q0 83 -92.5 119t-273.5 43q-115 4 -201 29t-140 79.5t-54 132.5q0 83 60.5 145t152 92t196.5 30q221 0 343.5 -80t122.5 -194q-83 -21 -131 -8q-5 84 -92.5 133.5t-243.5 49.5
q-123 0 -202.5 -44.5t-79.5 -118.5q0 -38 24.5 -67t67.5 -45.5t91.5 -25t105.5 -10.5q473 -14 473 -253q0 -127 -125 -202t-342 -75zM464 -301l41 226h98l-55 -226h-84z" />
    <glyph glyph-name="uni0219" unicode="&#x219;" horiz-adv-x="882" 
d="M452 -18q-107 0 -218.5 28.5t-194.5 89.5q12 56 58 86q72 -50 169.5 -76.5t191.5 -26.5q122 0 190.5 32.5t68.5 83.5q0 56 -62.5 77.5t-223.5 26.5q-179 7 -265.5 57.5t-86.5 134.5q0 93 97 152.5t273 59.5q91 0 198.5 -21.5t185.5 -65.5q-9 -45 -39 -92q-68 38 -164 58
t-172 20q-129 0 -192.5 -33t-63.5 -78q0 -48 59 -71t188 -28q211 -7 301 -53.5t90 -142.5q0 -99 -108 -158.5t-280 -59.5zM367 -311l41 226h98l-55 -226h-84z" />
    <glyph glyph-name="uni021A" unicode="&#x21a;" horiz-adv-x="1094" 
d="M1057 899q7 -22 -1 -54t-21 -45h-445v-800h-126v800h-427q-6 20 -1.5 51.5t15.5 47.5h1006zM441 -295l41 226h98l-55 -226h-84z" />
    <glyph glyph-name="uni021B" unicode="&#x21b;" horiz-adv-x="647" 
d="M611 572h-367v-257q0 -110 53.5 -170.5t156.5 -61.5q53 0 129 19q14 -11 21.5 -45t0.5 -52q-86 -23 -158 -23q-148 -2 -235.5 82.5t-87.5 241.5v266h-110v99h110v179q19 11 56.5 17.5t63.5 0.5v-197h367v-99zM279 -303l41 226h98l-55 -226h-84z" />
    <glyph glyph-name="uni0237" unicode="&#x237;" horiz-adv-x="321" 
d="M40 -243q-49 0 -115 18q-7 23 2.5 56.5t26.5 48.5q46 -12 68 -12q46 -1 64.5 41.5t18.5 151.5v610q19 6 61.5 6t58.5 -6v-682q0 -232 -185 -232z" />
    <glyph glyph-name="circumflex" unicode="&#x2c6;" horiz-adv-x="705" 
d="M647 755h-137l-157 154l-158 -154h-137l262 236h65z" />
    <glyph glyph-name="caron" unicode="&#x2c7;" horiz-adv-x="705" 
d="M510 991h137l-262 -236h-65l-262 236h137l158 -154z" />
    <glyph glyph-name="breve" unicode="&#x2d8;" horiz-adv-x="711" 
d="M354 741q-128 0 -212 56t-84 159h96q0 -59 53.5 -95.5t146.5 -36.5q94 0 148 37.5t54 94.5h97q0 -101 -87 -158t-212 -57z" />
    <glyph glyph-name="dotaccent" unicode="&#x2d9;" horiz-adv-x="280" 
d="M140 774q-33 0 -57.5 21t-24.5 50t24.5 50.5t57.5 21.5t57.5 -21.5t24.5 -50.5t-24.5 -50t-57.5 -21z" />
    <glyph glyph-name="ring" unicode="&#x2da;" horiz-adv-x="592" 
d="M298 719q-110 0 -175 38.5t-65 106.5q0 64 63.5 104.5t176.5 40.5q107 0 172 -40.5t65 -104.5t-69 -104.5t-168 -40.5zM296 774q67 0 115.5 26.5t48.5 63.5q0 40 -48 65.5t-116 25.5q-72 0 -117.5 -25.5t-45.5 -65.5t44.5 -65t118.5 -25z" />
    <glyph glyph-name="ogonek" unicode="&#x2db;" horiz-adv-x="459" 
d="M211 -354q-68 -1 -110.5 34t-42.5 104q0 51 39 118.5t106 115.5l74 -11q-65 -54 -98 -108t-33 -98q0 -34 23 -51t59 -15q31 0 64.5 14.5t53.5 37.5l55 -46q-32 -41 -85.5 -68t-104.5 -27z" />
    <glyph glyph-name="tilde" unicode="&#x2dc;" horiz-adv-x="679" 
d="M485 772q-45 0 -96.5 24.5t-98.5 49t-81 24.5q-31 0 -51 -24.5t-20 -68.5h-80q0 82 38 135.5t99 53.5q55 0 146.5 -48.5t127.5 -48.5q33 0 52.5 24.5t19.5 67.5h81q0 -81 -36.5 -135t-100.5 -54z" />
    <glyph glyph-name="hungarumlaut" unicode="&#x2dd;" horiz-adv-x="718" 
d="M76 755l170 248h130l-215 -248h-85zM342 755l184 248h135l-233 -248h-86z" />
    <glyph glyph-name="gravecomb" unicode="&#x300;" 
d="M-148 755l-248 248h134l205 -248h-91z" />
    <glyph glyph-name="acutecomb" unicode="&#x301;" 
d="M-365 755l173 248h135l-224 -248h-84z" />
    <glyph glyph-name="uni0302" unicode="&#x302;" 
d="M-58 755h-137l-157 148l-158 -148h-137l262 236h65z" />
    <glyph glyph-name="tildecomb" unicode="&#x303;" 
d="M-194 772q-45 0 -96.5 24.5t-98.5 49t-81 24.5q-31 0 -51 -24.5t-20 -68.5h-80q0 82 38 135.5t99 53.5q55 0 146.5 -48.5t127.5 -48.5q33 0 52.5 24.5t19.5 67.5h81q0 -81 -36.5 -135t-100.5 -54z" />
    <glyph glyph-name="uni0304" unicode="&#x304;" 
d="M-665 811v94h590v-94h-590z" />
    <glyph glyph-name="uni0306" unicode="&#x306;" 
d="M-357 741q-128 0 -212 56t-84 159h96q0 -59 53.5 -95.5t146.5 -36.5q94 0 148 37.5t54 94.5h97q0 -101 -87 -158t-212 -57z" />
    <glyph glyph-name="uni0307" unicode="&#x307;" 
d="M-140 774q-33 0 -57.5 21t-24.5 50t24.5 50.5t57.5 21.5t57.5 -21.5t24.5 -50.5t-24.5 -50t-57.5 -21z" />
    <glyph glyph-name="uni0308" unicode="&#x308;" 
d="M-530 774q-33 0 -57.5 21t-24.5 50t24.5 50.5t57.5 21.5q32 0 57 -22t25 -50t-25 -49.5t-57 -21.5zM-158 774q-32 0 -57 21.5t-25 49.5t25 50t57 22q33 0 57.5 -21.5t24.5 -50.5t-24.5 -50t-57.5 -21z" />
    <glyph glyph-name="uni030A" unicode="&#x30a;" 
d="M-294 741q-109 0 -174.5 39t-65.5 106q0 65 63.5 105t176.5 40q107 0 172 -40t65 -105q0 -64 -69 -104.5t-168 -40.5zM-296 796q67 0 115.5 26.5t48.5 63.5q0 40 -48 65.5t-116 25.5q-72 0 -117.5 -25.5t-45.5 -65.5t44.5 -65t118.5 -25z" />
    <glyph glyph-name="uni030B" unicode="&#x30b;" 
d="M-642 755l170 248h130l-215 -248h-85zM-376 755l184 248h135l-233 -248h-86z" />
    <glyph glyph-name="uni030C" unicode="&#x30c;" 
d="M-195 991h137l-262 -236h-65l-262 236h137l158 -154z" />
    <glyph glyph-name="uni0311" unicode="&#x311;" 
d="M-644 755q0 99 85.5 155.5t208.5 56.5q127 0 209.5 -54.5t82.5 -157.5h-97q0 56 -52 92.5t-143 36.5q-90 0 -144 -37.5t-54 -91.5h-96z" />
    <glyph glyph-name="uni0312" unicode="&#x312;" 
d="M-327 842l68 239h84l-54 -239h-98z" />
    <glyph glyph-name="uni0326" unicode="&#x326;" 
d="M-320 -301l41 226h98l-55 -226h-84z" />
    <glyph glyph-name="uni0327" unicode="&#x327;" 
d="M-210 -340q-83 0 -154 64l65 56q45 -42 88 -42q26 0 43 16.5t17 41.5q0 9 -4 18.5t-12 20t-14 17.5t-19 20l-19 19q-34 37 -43.5 60.5t-9.5 60.5h86q0 -12 2.5 -22t5 -16.5t10.5 -16t12.5 -14.5t18.5 -18.5t21 -20.5q58 -57 58 -111q2 -54 -42 -93t-110 -40z" />
    <glyph glyph-name="uni0328" unicode="&#x328;" 
d="M-248 -354q-68 -1 -110.5 34t-42.5 104q0 51 39 118.5t106 115.5l74 -11q-65 -54 -98 -108t-33 -98q0 -34 23 -51t59 -15q31 0 64.5 14.5t53.5 37.5l55 -46q-32 -41 -85.5 -68t-104.5 -27z" />
    <glyph glyph-name="uni03BC" unicode="&#x3bc;" horiz-adv-x="975" 
d="M872 251q0 -121 5 -161t20 -75l-1 -15h-101q-28 26 -28 90v79q-38 -82 -128 -134.5t-212 -52.5q-144 0 -219 87v-320h-106v922q47 10 120 0v-366q0 -114 58.5 -168t157.5 -54q140 0 226.5 84.5t86.5 216.5v287q24 6 65 4.5t56 -4.5v-420z" />
    <glyph glyph-name="uni1E02" unicode="&#x1e02;" horiz-adv-x="1042" 
d="M468 984q-27 0 -47.5 18t-20.5 41q0 24 20.5 42t47.5 18t47.5 -18t20.5 -42q0 -23 -20.5 -41t-47.5 -18zM787 535q221 -59 221 -230q0 -153 -130.5 -238t-360.5 -85q-152 -1 -247.5 8.5t-201.5 34.5v856q107 23 191 32t209 9q100 0 179 -14.5t126 -37.5t78 -54t42.5 -61
t11.5 -62q0 -47 -30 -89t-88 -69zM470 827q-153 0 -280 -23v-274q154 32 359 32q41 0 60 -1q80 9 125.5 42t45.5 80q0 25 -14 48.5t-46.5 46t-96.5 36t-153 13.5zM508 80q187 0 280.5 58.5t92.5 160.5q-1 81 -85.5 122.5t-274.5 41.5q-180 0 -331 -35v-320q131 -28 318 -28z
" />
    <glyph glyph-name="uni1E03" unicode="&#x1e03;" horiz-adv-x="910" 
d="M461 1002q-33 0 -57.5 21t-24.5 50t24.5 50.5t57.5 21.5t57.5 -21.5t24.5 -50.5t-24.5 -50t-57.5 -21zM524 707q153 0 254 -94.5t101 -247.5q0 -156 -114.5 -269.5t-289.5 -113.5q-167 0 -273 109q-6 -53 -21 -91h-123v15q16 60 16 174v745q21 6 61.5 6t58.5 -6v-419
q49 90 138 141t192 51zM462 82q128 0 211 85t83 196t-67 177t-173 66q-125 0 -220.5 -95.5t-95.5 -221.5q0 -77 75.5 -142t186.5 -65z" />
    <glyph glyph-name="uni1E0A" unicode="&#x1e0a;" horiz-adv-x="1090" 
d="M468 999q-27 0 -47.5 18t-20.5 41q0 24 20.5 42t47.5 18t47.5 -18t20.5 -42q0 -23 -20.5 -41t-47.5 -18zM468 922q268 0 428 -127t160 -333q0 -217 -153 -348t-407 -132q-155 0 -234.5 8.5t-193.5 34.5v859q174 38 400 38zM487 80q203 0 323 104.5t120 274.5
q0 161 -127.5 262.5t-342.5 101.5q-164 0 -270 -18v-696q124 -29 297 -29z" />
    <glyph glyph-name="uni1E0B" unicode="&#x1e0b;" horiz-adv-x="918" 
d="M437 1014q-33 0 -57.5 21t-24.5 50t24.5 50.5t57.5 21.5t57.5 -21.5t24.5 -50.5t-24.5 -50t-57.5 -21zM844 189q0 -116 17 -174v-15h-103q-33 53 -33 146v3q-50 -77 -133 -122t-188 -45q-166 0 -269.5 95t-103.5 249q0 165 115.5 273t295.5 108q91 0 166 -39.5
t116 -107.5v374q18 6 58.5 6t61.5 -6v-745zM408 82q130 0 214 92t84 224q0 85 -72 146t-169 61q-134 0 -222.5 -79.5t-88.5 -199.5q0 -109 71 -176.5t183 -67.5z" />
    <glyph glyph-name="uni1E1E" unicode="&#x1e1e;" horiz-adv-x="939" 
d="M478 976q-27 0 -47.5 18t-20.5 41q0 24 20.5 42t47.5 18t47.5 -18t20.5 -42q0 -23 -20.5 -41t-47.5 -18zM880 799h-690v-361h615q7 -23 -1 -55.5t-21 -42.5h-593v-340h-122v885l14 13h820q8 -22 -0.5 -53.5t-21.5 -45.5z" />
    <glyph glyph-name="uni1E1F" unicode="&#x1e1f;" horiz-adv-x="516" 
d="M380 1044q-33 0 -57.5 21t-24.5 50t24.5 50.5t57.5 21.5t57.5 -21.5t24.5 -50.5t-24.5 -50t-57.5 -21zM615 929q5 -17 -4 -51.5t-21 -45.5q-67 19 -118 19q-157 0 -171 -180h257v-99h-258v-572h-120v572h-179v99h180q17 279 266 279q73 0 168 -21z" />
    <glyph glyph-name="uni1E40" unicode="&#x1e40;" horiz-adv-x="1351" 
d="M676 976q-27 0 -47.5 18t-20.5 41q0 24 20.5 42t47.5 18t47.5 -18t20.5 -42q0 -23 -20.5 -41t-47.5 -18zM1317 0h-123l-86 707l-390 -566h-86l-389 565l-87 -706h-122l109 881q15 13 55.5 18.5t55.5 -0.5l421 -610l420 610q16 6 56.5 0t56.5 -19z" />
    <glyph glyph-name="uni1E41" unicode="&#x1e41;" horiz-adv-x="1319" 
d="M669 802q-33 0 -57.5 21t-24.5 50t24.5 50.5t57.5 21.5t57.5 -21.5t24.5 -50.5t-24.5 -50t-57.5 -21zM996 707q132 0 198.5 -81.5t66.5 -234.5v-391h-120v377q0 106 -41 167.5t-124 61.5q-106 0 -181.5 -89t-75.5 -206v-311h-116v371q0 235 -156 235q-106 0 -180.5 -93
t-74.5 -219v-294h-121v512q0 81 -13 140v18q65 14 111 9q13 -41 13 -86v-46q46 70 119.5 115t155.5 45q187 0 232 -182q46 81 128.5 131.5t178.5 50.5z" />
    <glyph glyph-name="uni1E56" unicode="&#x1e56;" horiz-adv-x="1042" 
d="M512 995q-27 0 -47.5 18t-20.5 41q0 24 20.5 42t47.5 18t47.5 -18t20.5 -42q0 -23 -20.5 -41t-47.5 -18zM1008 587q0 -111 -71.5 -189.5t-184.5 -114t-253 -35.5q-164 0 -309 31v-279h-122v878q193 44 444 44q230 0 363 -90.5t133 -244.5zM492 347q173 0 281 61t109 177
q0 110 -98.5 174t-279.5 64q-180 0 -314 -31v-406q134 -39 302 -39z" />
    <glyph glyph-name="uni1E57" unicode="&#x1e57;" horiz-adv-x="904" 
d="M469 802q-33 0 -57.5 21t-24.5 50t24.5 50.5t57.5 21.5t57.5 -21.5t24.5 -50.5t-24.5 -50t-57.5 -21zM512 707q163 0 262 -94.5t99 -240.5q0 -164 -114.5 -277t-280.5 -113q-90 0 -165 37t-122 101v-366q-16 -6 -58.5 -6t-61.5 6v748q0 81 -13 159v17q55 17 106 9
l26 -106v-38q57 75 140.5 119.5t181.5 44.5zM459 82q128 0 209.5 85.5t81.5 198.5q0 110 -68 175t-174 65q-123 0 -219 -96.5t-96 -222.5q0 -77 79 -141t187 -64z" />
    <glyph glyph-name="uni1E60" unicode="&#x1e60;" horiz-adv-x="1067" 
d="M555 999q-27 0 -47.5 18t-20.5 41q0 24 20.5 42t47.5 18t47.5 -18t20.5 -42q0 -23 -20.5 -41t-47.5 -18zM567 -18q-310 0 -533 140q0 4 6 21t24 40t42 31q209 -133 449 -133q171 0 261.5 47t90.5 124q0 83 -92.5 119t-273.5 43q-115 4 -201 29t-140 79.5t-54 132.5
q0 83 60.5 145t152 92t196.5 30q221 0 343.5 -80t122.5 -194q-83 -21 -131 -8q-5 84 -92.5 133.5t-243.5 49.5q-123 0 -202.5 -44.5t-79.5 -118.5q0 -38 24.5 -67t67.5 -45.5t91.5 -25t105.5 -10.5q473 -14 473 -253q0 -127 -125 -202t-342 -75z" />
    <glyph glyph-name="uni1E61" unicode="&#x1e61;" horiz-adv-x="882" 
d="M452 802q-33 0 -57.5 21t-24.5 50t24.5 50.5t57.5 21.5t57.5 -21.5t24.5 -50.5t-24.5 -50t-57.5 -21zM452 -18q-107 0 -218.5 28.5t-194.5 89.5q12 56 58 86q72 -50 169.5 -76.5t191.5 -26.5q122 0 190.5 32.5t68.5 83.5q0 56 -62.5 77.5t-223.5 26.5q-179 7 -265.5 57.5
t-86.5 134.5q0 93 97 152.5t273 59.5q91 0 198.5 -21.5t185.5 -65.5q-9 -45 -39 -92q-68 38 -164 58t-172 20q-129 0 -192.5 -33t-63.5 -78q0 -48 59 -71t188 -28q211 -7 301 -53.5t90 -142.5q0 -99 -108 -158.5t-280 -59.5z" />
    <glyph glyph-name="uni1E6A" unicode="&#x1e6a;" horiz-adv-x="1094" 
d="M532 976q-27 0 -47.5 18t-20.5 41q0 24 20.5 42t47.5 18t47.5 -18t20.5 -42q0 -23 -20.5 -41t-47.5 -18zM1057 899q7 -22 -1 -54t-21 -45h-445v-800h-126v800h-427q-6 20 -1.5 51.5t15.5 47.5h1006z" />
    <glyph glyph-name="uni1E6B" unicode="&#x1e6b;" horiz-adv-x="647" 
d="M192 968q-33 0 -57.5 21t-24.5 50t24.5 50.5t57.5 21.5t57.5 -21.5t24.5 -50.5t-24.5 -50t-57.5 -21zM611 572h-367v-257q0 -110 53.5 -170.5t156.5 -61.5q53 0 129 19q14 -11 21.5 -45t0.5 -52q-86 -23 -158 -23q-148 -2 -235.5 82.5t-87.5 241.5v266h-110v99h110v179
q19 11 56.5 17.5t63.5 0.5v-197h367v-99z" />
    <glyph glyph-name="Wgrave" unicode="&#x1e80;" horiz-adv-x="1610" 
d="M809 970l-213 191h113l180 -191h-80zM513 0l-31 17q-101 235 -241.5 487.5t-227.5 374.5l7 20q24 6 58 6t58 -6q114 -164 236.5 -381t205.5 -415h10q87 103 166 221.5t104 192.5q-3 9 -92 208q11 17 45 31t67 11q48 -82 142.5 -298t147.5 -366h10q118 125 189 271.5
t90.5 274.5t-0.5 241q38 24 121 9q12 -76 12.5 -157t-21.5 -173.5t-59.5 -182.5t-100 -184t-144.5 -178l-45 -24h-138l-19 14q-23 56 -78 179t-80 173q-25 -65 -104 -181.5t-126 -169.5l-35 -15h-127z" />
    <glyph glyph-name="wgrave" unicode="&#x1e81;" horiz-adv-x="1343" 
d="M689 783l-248 248h134l205 -248h-91zM376 0l-21 14q-78 209 -185.5 390t-163.5 248l8 19q71 14 116 0q221 -301 319 -570h11q55 71 116.5 170.5t96.5 175.5l-64 120q12 20 45.5 35t68.5 11q142 -241 235 -512h11q111 127 185.5 286.5t59.5 274.5q41 23 117 9
q22 -130 -59.5 -317.5t-227.5 -341.5l-22 -12h-126l-28 15q-41 113 -130 291q-22 -48 -87.5 -147.5t-109.5 -147.5l-23 -11h-142z" />
    <glyph glyph-name="Wacute" unicode="&#x1e82;" horiz-adv-x="1610" 
d="M763 953l182 195h127l-226 -195h-83zM513 0l-31 17q-101 235 -241.5 487.5t-227.5 374.5l7 20q24 6 58 6t58 -6q114 -164 236.5 -381t205.5 -415h10q87 103 166 221.5t104 192.5q-3 9 -92 208q11 17 45 31t67 11q48 -82 142.5 -298t147.5 -366h10q118 125 189 271.5
t90.5 274.5t-0.5 241q38 24 121 9q12 -76 12.5 -157t-21.5 -173.5t-59.5 -182.5t-100 -184t-144.5 -178l-45 -24h-138l-19 14q-23 56 -78 179t-80 173q-25 -65 -104 -181.5t-126 -169.5l-35 -15h-127z" />
    <glyph glyph-name="wacute" unicode="&#x1e83;" horiz-adv-x="1343" 
d="M621 783l173 248h135l-224 -248h-84zM376 0l-21 14q-78 209 -185.5 390t-163.5 248l8 19q71 14 116 0q221 -301 319 -570h11q55 71 116.5 170.5t96.5 175.5l-64 120q12 20 45.5 35t68.5 11q142 -241 235 -512h11q111 127 185.5 286.5t59.5 274.5q41 23 117 9
q22 -130 -59.5 -317.5t-227.5 -341.5l-22 -12h-126l-28 15q-41 113 -130 291q-22 -48 -87.5 -147.5t-109.5 -147.5l-23 -11h-142z" />
    <glyph glyph-name="Wdieresis" unicode="&#x1e84;" horiz-adv-x="1610" 
d="M638 982q-27 0 -47 18t-20 41t20 41t47 18t47 -18t20 -41t-20 -41t-47 -18zM973 982q-27 0 -47.5 18t-20.5 41t20.5 41t47.5 18t47 -18t20 -41t-20 -41t-47 -18zM513 0l-31 17q-101 235 -241.5 487.5t-227.5 374.5l7 20q24 6 58 6t58 -6q114 -164 236.5 -381t205.5 -415
h10q87 103 166 221.5t104 192.5q-3 9 -92 208q11 17 45 31t67 11q48 -82 142.5 -298t147.5 -366h10q118 125 189 271.5t90.5 274.5t-0.5 241q38 24 121 9q12 -76 12.5 -157t-21.5 -173.5t-59.5 -182.5t-100 -184t-144.5 -178l-45 -24h-138l-19 14q-23 56 -78 179t-80 173
q-25 -65 -104 -181.5t-126 -169.5l-35 -15h-127z" />
    <glyph glyph-name="wdieresis" unicode="&#x1e85;" horiz-adv-x="1343" 
d="M495 802q-33 0 -57.5 21t-24.5 50t24.5 50.5t57.5 21.5q32 0 57 -22t25 -50t-25 -49.5t-57 -21.5zM867 802q-32 0 -57 21.5t-25 49.5t25 50t57 22q33 0 57.5 -21.5t24.5 -50.5t-24.5 -50t-57.5 -21zM376 0l-21 14q-78 209 -185.5 390t-163.5 248l8 19q71 14 116 0
q221 -301 319 -570h11q55 71 116.5 170.5t96.5 175.5l-64 120q12 20 45.5 35t68.5 11q142 -241 235 -512h11q111 127 185.5 286.5t59.5 274.5q41 23 117 9q22 -130 -59.5 -317.5t-227.5 -341.5l-22 -12h-126l-28 15q-41 113 -130 291q-22 -48 -87.5 -147.5t-109.5 -147.5
l-23 -11h-142z" />
    <glyph glyph-name="uni1E9E" unicode="&#x1e9e;" horiz-adv-x="1070" 
d="M543 538q67 -4 129 -14.5t129.5 -32.5t116.5 -53t81 -81t32 -111q0 -125 -108.5 -194.5t-264.5 -69.5q-128 0 -223 29.5t-174 95.5q3 25 22 55.5t41 35.5q128 -110 324 -110q111 0 183.5 43.5t72.5 114.5q0 50 -42.5 90.5t-105.5 64.5t-141 40.5t-144 22.5t-120 6l-13 37
l438 289h-395q-100 0 -144.5 -64.5t-44.5 -163.5v-568h-120v577q0 151 71.5 236.5t227.5 85.5h582q10 -24 4 -57.5t-18 -46.5z" />
    <glyph glyph-name="Ygrave" unicode="&#x1ef2;" horiz-adv-x="1068" 
d="M618 970h-80l-213 191h113zM1051 899q7 -58 -11 -122.5t-64 -140.5t-134.5 -162.5t-213.5 -174.5v-299h-122v307q-71 94 -239 292.5t-252 279.5l9 20q82 15 146 0q80 -80 417 -490q160 109 254.5 245t84.5 236q43 22 125 9z" />
    <glyph glyph-name="ygrave" unicode="&#x1ef3;" horiz-adv-x="878" 
d="M548 783h-91l-248 248h134zM862 671q12 -79 -3 -177.5t-55 -204.5t-117 -213.5t-180 -190.5q-173 -135 -373 -137q-67 0 -108 18q-22 42 -2 85l23 12q36 -15 89 -15q161 3 313 139q14 12 40 38q-95 57 -182 147.5t-145.5 183.5t-96 167t-55.5 128l7 19q64 15 122 1
q18 -50 48 -111t81.5 -147.5t128.5 -170t164 -138.5q203 251 182 557q38 25 119 10z" />
    <glyph glyph-name="endash" unicode="&#x2013;" horiz-adv-x="1233" 
d="M200 316v94h833v-94h-833z" />
    <glyph glyph-name="emdash" unicode="&#x2014;" horiz-adv-x="1372" 
d="M200 316v94h972v-94h-972z" />
    <glyph glyph-name="quoteleft" unicode="&#x2018;" horiz-adv-x="350" 
d="M92 649l70 306h96l-43 -306h-123z" />
    <glyph glyph-name="quoteright" unicode="&#x2019;" horiz-adv-x="350" 
d="M92 648l43 307h124l-71 -307h-96z" />
    <glyph glyph-name="quotesinglbase" unicode="&#x201a;" horiz-adv-x="350" 
d="M92 -140l43 307h124l-71 -307h-96z" />
    <glyph glyph-name="quotedblleft" unicode="&#x201c;" horiz-adv-x="558" 
d="M92 649l70 306h96l-43 -306h-123zM299 649l71 306h96l-43 -306h-124z" />
    <glyph glyph-name="quotedblright" unicode="&#x201d;" horiz-adv-x="557" 
d="M92 648l42 307h124l-70 -307h-96zM299 648l43 307h123l-70 -307h-96z" />
    <glyph glyph-name="quotedblbase" unicode="&#x201e;" horiz-adv-x="558" 
d="M92 -140l43 307h124l-71 -307h-96zM299 -140l43 307h124l-71 -307h-96z" />
    <glyph glyph-name="dagger" unicode="&#x2020;" horiz-adv-x="923" 
d="M804 834v-101h-294v-863h-101v863h-290v101h290v169h101v-169h294z" />
    <glyph glyph-name="daggerdbl" unicode="&#x2021;" horiz-adv-x="923" 
d="M804 733h-294v-589h294v-101h-294v-173h-101v173h-290v101h290v589h-290v101h290v169h101v-169h294v-101z" />
    <glyph glyph-name="bullet" unicode="&#x2022;" horiz-adv-x="823" 
d="M411 251q-75 0 -128.5 47.5t-53.5 114.5q0 65 54 114.5t128 49.5q71 0 127 -50t56 -114q0 -66 -55.5 -114t-127.5 -48z" />
    <glyph glyph-name="ellipsis" unicode="&#x2026;" horiz-adv-x="982" 
d="M173 0q-33 0 -57 21t-24 50t24 50.5t57 21.5t58 -21.5t25 -50.5q0 -28 -25 -49.5t-58 -21.5zM491 0q-33 0 -57.5 21t-24.5 50t24.5 50.5t57.5 21.5q32 0 57 -22t25 -50t-25 -49.5t-57 -21.5zM807 0q-32 0 -56.5 21.5t-24.5 49.5t24.5 50t56.5 22q33 0 58 -21.5t25 -50.5
q0 -28 -25 -49.5t-58 -21.5z" />
    <glyph glyph-name="perthousand" unicode="&#x2030;" horiz-adv-x="2078" 
d="M399 486q-140 0 -221.5 52.5t-81.5 149.5q0 94 80.5 148t222.5 54q145 0 224.5 -53.5t79.5 -148.5q0 -93 -83 -147.5t-221 -54.5zM184 0l882 890h148l-883 -890h-147zM399 565q78 0 130.5 33t52.5 90q0 56 -51 89.5t-132 33.5q-80 0 -130.5 -34.5t-50.5 -88.5
q0 -57 50.5 -90t130.5 -33zM987 -14q-139 0 -220.5 52.5t-81.5 149.5q0 94 80 148t222 54q145 0 225 -53t80 -149q0 -93 -83.5 -147.5t-221.5 -54.5zM1677 -14q-139 0 -220.5 52.5t-81.5 149.5q0 94 80 148t222 54q145 0 225 -53t80 -149q0 -93 -83.5 -147.5t-221.5 -54.5z
M987 65q79 0 131.5 33t52.5 90q0 56 -51.5 90t-132.5 34q-79 0 -130 -34.5t-51 -89.5q0 -57 51 -90t130 -33zM1677 65q79 0 131.5 33t52.5 90q0 56 -51.5 90t-132.5 34q-79 0 -130 -34.5t-51 -89.5q0 -57 51 -90t130 -33z" />
    <glyph glyph-name="guilsinglleft" unicode="&#x2039;" horiz-adv-x="854" 
d="M762 686l-514 -250l513 -245l-37 -82l-632 291v74l629 292z" />
    <glyph glyph-name="guilsinglright" unicode="&#x203a;" horiz-adv-x="854" 
d="M133 766l629 -292v-74l-632 -291l-37 82l514 245l-515 250z" />
    <glyph glyph-name="fraction" unicode="&#x2044;" horiz-adv-x="1326" 
d="M92 -131l1030 1183h113l-1031 -1183h-112z" />
    <glyph glyph-name="Euro" unicode="&#x20ac;" horiz-adv-x="1105" 
d="M958 188l56 -78q-52 -45 -156 -77.5t-231 -32.5q-113 0 -211.5 33t-174 105t-104.5 174h-92v80h77q-3 26 -3 54q0 16 2 44h-76v80h91q29 100 104 170.5t174 103.5t213 33q123 0 220.5 -30t159.5 -75l-53 -76q-117 80 -314 80q-144 0 -241.5 -52t-133.5 -154h432v-80h-450
q-2 -28 -2 -44q0 -31 4 -54h408v-80h-387q42 -100 142 -155.5t236 -55.5q105 0 185.5 27t124.5 60z" />
    <glyph glyph-name="uni2116" unicode="&#x2116;" horiz-adv-x="1947" 
d="M1504 308q-149 0 -236.5 78t-87.5 202q0 135 104 228t252 93q147 0 231.5 -74.5t87.5 -198.5q4 -145 -96.5 -236.5t-254.5 -91.5zM988 890q25 8 63.5 7t58.5 -7v-890h-98l-798 723v-723h-122v867q13 14 47.5 23.5t51.5 4.5l797 -724v719zM1529 811q-94 0 -161.5 -64
t-67.5 -157q0 -82 56.5 -133t152.5 -51q98 0 163 63.5t63 156.5q-2 82 -57 133.5t-149 51.5zM1226 126v90h583v-90h-583z" />
    <glyph glyph-name="trademark" unicode="&#x2122;" horiz-adv-x="1222" 
d="M504 890v-92h-153v-384h-107v384h-152v92h412zM1130 890v-476h-106v307l-148 -263h-71l-156 267v-311h-107v476h120l178 -311l170 311h120z" />
    <glyph glyph-name="estimated" unicode="&#x212e;" horiz-adv-x="1042" 
d="M530 895q198 0 312 -130.5t107 -365.5h-677l2 -265q95 -105 265 -105q92 0 180.5 39t143.5 101q25 -13 30 -38q-57 -65 -156 -107t-196 -42q-203 0 -326 123t-123 331q0 206 124 332.5t314 126.5zM783 446v285q-97 117 -253 117q-78 0 -147.5 -28.5t-113.5 -78.5l2 -295
h512z" />
    <glyph glyph-name="partialdiff" unicode="&#x2202;" horiz-adv-x="1058" 
d="M478 907q87 0 161.5 -24t126.5 -65t91.5 -92.5t62.5 -109t34.5 -110.5t11.5 -102q0 -205 -123.5 -313.5t-336.5 -108.5q-199 0 -306.5 85t-107.5 209q0 114 103 187t292 73q103 0 196 -22t154 -59q-5 47 -20 94t-44.5 94t-69.5 82.5t-99.5 58t-130.5 22.5
q-143 0 -274 -101q-34 39 -30 92q48 47 137.5 78.5t171.5 31.5zM505 83q148 0 232.5 73.5t98.5 205.5q-52 28 -134.5 50t-176.5 22q-157 0 -232 -45t-75 -116q0 -75 77.5 -132.5t209.5 -57.5z" />
    <glyph glyph-name="minus" unicode="&#x2212;" horiz-adv-x="914" 
d="M121 391v100h672v-100h-672z" />
    <glyph glyph-name="radical" unicode="&#x221a;" horiz-adv-x="1317" 
d="M1317 890v-103h-260l-462 -787h-90l-413 481h143l302 -344l439 753h341z" />
    <glyph glyph-name="infinity" unicode="&#x221e;" horiz-adv-x="1193" 
d="M839 724q114 0 188.5 -63.5t74.5 -192.5q0 -128 -74.5 -191.5t-188.5 -63.5q-91 0 -146.5 40.5t-95.5 113.5q-39 -73 -94.5 -113.5t-147.5 -40.5q-115 0 -189 63.5t-74 191.5q0 129 74 192.5t189 63.5q64 0 113 -24t76 -56.5t53 -81.5q37 77 91.5 119.5t150.5 42.5z
M356 291q77 0 119 43t78 126q-17 37 -27 57t-29 48t-37 42.5t-45 25.5t-59 11q-69 0 -119.5 -44.5t-50.5 -131.5q0 -88 49.5 -132.5t120.5 -44.5zM838 292q70 0 120 44t50 132q0 87 -50.5 131.5t-119.5 44.5q-40 0 -70.5 -13.5t-54 -43t-37.5 -54.5t-34 -70q18 -40 33 -66
t38.5 -52.5t54 -39.5t70.5 -13z" />
    <glyph glyph-name="approxequal" unicode="&#x2248;" horiz-adv-x="860" 
d="M92 474q0 83 46 138t122 55q52 0 111.5 -23t113 -46t90.5 -23q39 0 63 24.5t24 67.5h107q0 -83 -45 -138t-124 -55q-53 0 -113.5 23t-114.5 46t-91 23t-60 -24t-23 -68h-106zM92 259q0 83 46 138t122 55q52 0 111.5 -23t113 -46t90.5 -23q39 0 63 24.5t24 67.5h107
q0 -83 -45 -138t-124 -55q-53 0 -113.5 23t-114.5 46t-91 23t-60 -24t-23 -68h-106z" />
    <glyph glyph-name="notequal" unicode="&#x2260;" horiz-adv-x="922" 
d="M831 886l-199 -281h160v-101h-231l-87 -123h318v-101h-389l-176 -249h-134l176 249h-149v101h220l87 123h-307v101h378l198 281h135z" />
    <glyph glyph-name="lessequal" unicode="&#x2264;" horiz-adv-x="852" 
d="M760 731l-503 -242l503 -244l-41 -84l-627 292v73l631 292zM118 6v88h602v-88h-602z" />
    <glyph glyph-name="greaterequal" unicode="&#x2265;" horiz-adv-x="852" 
d="M130 805l631 -292v-73l-628 -292l-40 84l503 244l-504 242zM106 2v87h603v-87h-603z" />
    <glyph glyph-name="i.loclTRK" horiz-adv-x="271" 
d="M136 802q-33 0 -57.5 21t-24.5 50t24.5 50.5t57.5 21.5t57.5 -21.5t24.5 -50.5t-24.5 -50t-57.5 -21zM76 0v671q19 6 61 6t59 -6v-671h-120z" />
    <glyph glyph-name="uni00A0.001" horiz-adv-x="480" 
 />
    <glyph glyph-name="uni030C.alt" 
d="M-208 624l16 333h114l-43 -333h-87z" />
    <glyph glyph-name="uni0308.case" 
d="M-477 973q-27 0 -47 18t-20 41t20 41t47 18t47 -18t20 -41t-20 -41t-47 -18zM-142 973q-27 0 -47.5 18t-20.5 41t20.5 41t47.5 18t47 -18t20 -41t-20 -41t-47 -18z" />
    <glyph glyph-name="uni0307.case" 
d="M-154 967q-27 0 -47.5 18t-20.5 41q0 24 20.5 42t47.5 18t47.5 -18t20.5 -42q0 -23 -20.5 -41t-47.5 -18z" />
    <glyph glyph-name="gravecomb.case" 
d="M-155 961l-213 191h113l180 -191h-80z" />
    <glyph glyph-name="acutecomb.case" 
d="M-325 944l182 195h127l-226 -195h-83z" />
    <glyph glyph-name="uni030B.case" 
d="M-641 959l164 187h126l-208 -187h-82zM-392 959l190 187h136l-239 -187h-87z" />
    <glyph glyph-name="uni0302.case" 
d="M-76 942h-124l-157 150l-157 -150h-124l244 223h74z" />
    <glyph glyph-name="uni030C.case" 
d="M-194 1167h136l-262 -229h-65l-262 229h137l158 -147z" />
    <glyph glyph-name="uni0306.case" 
d="M-337 759q-116 0 -188.5 49.5t-72.5 144.5h84q0 -51 48 -83.5t129 -32.5q79 0 128 33.5t49 82.5h85q0 -92 -74.5 -143t-187.5 -51z" />
    <glyph glyph-name="uni030A.case" 
d="M-294 875q-109 0 -174.5 39t-65.5 106q0 65 63.5 105t176.5 40q107 0 172 -40t65 -105q0 -64 -69 -104.5t-168 -40.5zM-296 930q67 0 115.5 26.5t48.5 63.5q0 40 -48 65.5t-116 25.5q-72 0 -117.5 -25.5t-45.5 -65.5t44.5 -65t118.5 -25z" />
    <glyph glyph-name="tildecomb.case" 
d="M-195 945q-43 0 -93 24.5t-95.5 48.5t-78.5 24q-31 0 -51 -24t-20 -68h-80q0 78 38 129.5t99 51.5q53 0 141 -49.5t124 -49.5q33 0 52.5 24.5t19.5 67.5h81q0 -77 -36.5 -128t-100.5 -51z" />
    <glyph glyph-name="uni0304.case" 
d="M-621 824v81h546v-81h-546z" />
    <glyph glyph-name="uni0327.case" 
d="M-210 -352q-83 0 -154 64l65 56q45 -42 89 -42q25 0 42 16.5t17 41.5q0 12 -7 25t-14.5 21t-23 24.5t-22.5 24.5q-35 36 -44.5 60t-9.5 61h86q0 -12 2.5 -22t5 -16.5t10.5 -17t12.5 -15t18.5 -18t21 -20.5q58 -57 58 -111q2 -54 -42 -92.5t-110 -39.5z" />
    <glyph glyph-name="uni0328.case" 
d="M-248 -354q-68 -1 -110.5 34t-42.5 104q0 51 39 118.5t106 115.5l74 -11q-65 -54 -98 -108t-33 -98q0 -34 23 -51t59 -15q31 0 64.5 14.5t53.5 37.5l55 -46q-32 -41 -85.5 -68t-104.5 -27z" />
    </font>
</defs>
</svg>
