<?xml version="1.0" standalone="no"?>
<!DOCTYPE svg PUBLIC "-//W3C//DTD SVG 1.1//EN" "http://www.w3.org/Graphics/SVG/1.1/DTD/svg11.dtd" >
<svg xmlns="http://www.w3.org/2000/svg" xmlns:xlink="http://www.w3.org/1999/xlink" version="1.1">
<metadata>
Created by FontForge 20170731 at Mon May 11 15:12:41 2020
 By Aleksey,,,
Copyright (c) 2019 by Mans Greback. All rights reserved.
</metadata>
<defs>
<font id="Quache-BlackExpanded" horiz-adv-x="0" >
  <font-face 
    font-family="Quache Black Expanded"
    font-weight="900"
    font-stretch="expanded"
    units-per-em="1000"
    panose-1="0 0 10 5 0 0 0 0 0 0"
    ascent="800"
    descent="-200"
    x-height="688"
    cap-height="917"
    bbox="-691 -388.091 2118 1310"
    underline-thickness="50"
    underline-position="-200"
    unicode-range="U+000D-2265"
  />
<missing-glyph horiz-adv-x="960" 
d="M0 -33v1009h960v-1009h-960zM80 47h800v849h-800v-849zM400 315q-17 68 -2 108.5t53 72t77 50t69 43t30 51.5q0 31 -37 54t-117 23q-133 0 -258 -83l-90 98q165 121 358 121q155 0 235.5 -56.5t80.5 -144.5q0 -48 -24.5 -86t-61 -60t-77 -44t-74 -39.5t-51.5 -45
t-10 -62.5h-101zM454 85q-35 0 -62 24.5t-27 56.5t27.5 57t61.5 25q35 0 62 -25t27 -57t-27 -56.5t-62 -24.5z" />
    <glyph glyph-name="f_i.liga" unicode="fi" horiz-adv-x="848" 
d="M690 779q-49 0 -85.5 33.5t-36.5 77.5t37 78t85 34t84.5 -34t36.5 -78t-36.5 -77.5t-84.5 -33.5zM142 0v530h-148v166h151q13 135 79 202.5t192 68.5q58 0 123 -14q7 -35 -2.5 -89t-25.5 -73q-30 8 -54 8q-90 0 -106 -103h440v-696h-203v530h-243v-530h-203z" />
    <glyph glyph-name="f_l.liga" unicode="fl" horiz-adv-x="946" 
d="M790 -18q-95 -1 -144.5 56t-49.5 170v578q-57 21 -109 21q-120 -1 -137 -119h164v-165h-169v-523h-203v523h-148v165h151q12 139 90.5 206.5t239.5 68.5q69 0 157 -18t167 -55v-626q0 -117 58 -117q21 0 46 7q16 -22 22 -70.5t-4 -77.5q-72 -23 -131 -24z" />
    <glyph glyph-name=".notdef" horiz-adv-x="960" 
d="M0 -33v1009h960v-1009h-960zM80 47h800v849h-800v-849zM400 315q-17 68 -2 108.5t53 72t77 50t69 43t30 51.5q0 31 -37 54t-117 23q-133 0 -258 -83l-90 98q165 121 358 121q155 0 235.5 -56.5t80.5 -144.5q0 -48 -24.5 -86t-61 -60t-77 -44t-74 -39.5t-51.5 -45
t-10 -62.5h-101zM454 85q-35 0 -62 24.5t-27 56.5t27.5 57t61.5 25q35 0 62 -25t27 -57t-27 -56.5t-62 -24.5z" />
    <glyph glyph-name=".null" 
 />
    <glyph glyph-name="nonmarkingreturn" horiz-adv-x="333" 
 />
    <glyph glyph-name="CR" unicode="&#xd;" horiz-adv-x="600" 
 />
    <glyph glyph-name="space" unicode=" " horiz-adv-x="449" 
 />
    <glyph glyph-name="exclam" unicode="!" horiz-adv-x="471" 
d="M151 305l-18 623h203l-18 -623h-167zM236 0q-44 0 -76.5 30t-32.5 69t32.5 69.5t76.5 30.5q41 0 74.5 -30.5t33.5 -69.5t-33 -69t-75 -30z" />
    <glyph glyph-name="quotedbl" unicode="&#x22;" horiz-adv-x="618" 
d="M73 641l20 323h197l-66 -323h-151zM329 641l20 323h197l-66 -323h-151z" />
    <glyph glyph-name="numbersign" unicode="#" horiz-adv-x="908" 
d="M835 533h-101l-16 -151h81v-153h-97l-13 -126h-170l13 126h-194l-13 -126h-171l13 126h-94v153h111l16 151h-91v152h107l12 112h170l-12 -112h194l12 112h170l-12 -112h85v-152zM548 382l16 151h-194l-16 -151h194z" />
    <glyph glyph-name="dollar" unicode="$" horiz-adv-x="1012" 
d="M940 251q0 -91 -78.5 -159.5t-245.5 -85.5v-138h-143v133q-115 6 -227.5 48.5t-172.5 101.5l87 142q70 -60 172.5 -92.5t214.5 -31.5q94 0 139.5 26.5t45.5 65.5q0 30 -44 53.5t-109.5 38t-142 37t-142 49.5t-109.5 77.5t-44 117.5q0 100 84.5 169.5t247.5 79.5v128h143
v-133q100 -12 178 -45t119 -70l-56 -152q-57 46 -155.5 75.5t-190.5 29.5q-85 0 -125.5 -23t-40.5 -52q0 -24 33 -42t85.5 -31.5t115.5 -27.5t126.5 -36t116 -52.5t85.5 -82t33 -118.5z" />
    <glyph glyph-name="percent" unicode="%" horiz-adv-x="1491" 
d="M394 489q-154 0 -237.5 51.5t-83.5 152.5q0 98 82 152.5t239 54.5q161 0 242 -53.5t81 -153.5q0 -95 -84 -149.5t-239 -54.5zM236 0l790 889h234l-791 -889h-233zM394 619q52 0 87 19t35 55t-34 56t-88 20q-51 0 -85.5 -21t-34.5 -55q0 -36 33.5 -55t86.5 -19zM1091 -16
q-154 0 -237 52.5t-83 153.5q0 97 82 151t238 54q162 0 243 -52.5t81 -152.5q0 -96 -84.5 -151t-239.5 -55zM1091 114q53 0 88.5 19.5t35.5 56.5q0 35 -35 55t-89 20q-50 0 -85 -21t-35 -54q0 -36 34.5 -56t85.5 -20z" />
    <glyph glyph-name="ampersand" unicode="&#x26;" horiz-adv-x="1149" 
d="M1076 146l-112 -146l-114 73q-138 -91 -362 -91q-201 0 -308 65t-107 188q0 130 185 231q-129 110 -129 220q0 46 20.5 87.5t62.5 77.5t116 57.5t171 21.5q95 0 167 -20.5t112 -55t59.5 -74t19.5 -82.5q0 -81 -69 -141t-190 -114q8 -5 23.5 -14.5t19.5 -11.5l164 -102
q26 58 23 135h178q20 -131 -34 -239zM499 762q-83 0 -123 -25t-40 -58q0 -55 107 -134q106 42 158.5 74t52.5 68q0 28 -39.5 51.5t-115.5 23.5zM509 155q96 0 166 31l-189 121l-84 53q-123 -56 -123 -110q0 -41 57 -68t173 -27z" />
    <glyph glyph-name="quotesingle" unicode="'" horiz-adv-x="363" 
d="M73 641l20 323h197l-66 -323h-151z" />
    <glyph glyph-name="parenleft" unicode="(" horiz-adv-x="793" 
d="M625 -274q-109 33 -193.5 99.5t-134.5 152t-75.5 179.5t-25.5 192q0 73 15.5 147t51 151.5t88 144t133 124.5t178.5 93l67 -110l-10 -31q-112 -48 -187.5 -137t-106 -184.5t-30.5 -197.5q0 -166 74 -294.5t214 -183.5l6 -32z" />
    <glyph glyph-name="parenright" unicode=")" horiz-adv-x="807" 
d="M113 -274l-64 113l6 32q140 55 214 183.5t74 294.5q0 102 -30.5 197.5t-106 184.5t-187.5 137l-10 31l67 110q98 -35 178.5 -93t133 -124.5t88 -144t51 -151.5t15.5 -147q0 -98 -25.5 -192t-75.5 -179.5t-134.5 -152t-193.5 -99.5z" />
    <glyph glyph-name="asterisk" unicode="*" horiz-adv-x="677" 
d="M605 731l-159 -39l121 -113l-142 -104l-86 146l-86 -146l-143 104l121 113l-158 39l61 149l133 -67l-22 147h185l-22 -147l133 67z" />
    <glyph glyph-name="plus" unicode="+" horiz-adv-x="808" 
d="M735 528v-168h-244v-246h-174v246h-244v168h244v246h174v-246h244z" />
    <glyph glyph-name="comma" unicode="," horiz-adv-x="396" 
d="M43 -189l48 366h186l-65 -366h-169z" />
    <glyph glyph-name="hyphen" unicode="-" horiz-adv-x="1032" 
d="M188 289v158h656v-158h-656z" />
    <glyph glyph-name="period" unicode="." horiz-adv-x="497" 
d="M248 0q-48 0 -84.5 33.5t-36.5 78.5q0 44 36.5 77.5t84.5 33.5q49 0 85.5 -33.5t36.5 -77.5q0 -45 -36.5 -78.5t-85.5 -33.5z" />
    <glyph glyph-name="slash" unicode="/" horiz-adv-x="1119" 
d="M-8 -132l925 1143h210l-925 -1143h-210z" />
    <glyph glyph-name="zero" unicode="0" horiz-adv-x="964" 
d="M482 -18q-192 0 -308.5 133t-116.5 340q0 222 116.5 348t308.5 126q193 0 309.5 -125t116.5 -349q0 -205 -118 -339t-308 -134zM482 151q101 0 160.5 86.5t59.5 217.5q0 140 -59 222.5t-161 82.5q-101 0 -160 -84.5t-59 -220.5q0 -133 59.5 -218.5t159.5 -85.5z" />
    <glyph glyph-name="one" unicode="1" horiz-adv-x="653" 
d="M600 142q10 -70 0 -142h-546q-11 68 0 142l172 27v530l-153 -31q-15 66 -10 144l257 78h116v-723z" />
    <glyph glyph-name="two" unicode="2" horiz-adv-x="914" 
d="M67 0v162q42 68 116 127t146.5 99t140.5 78.5t110 82t42 92.5q0 54 -45.5 86t-144.5 32q-164 0 -271 -103q-59 46 -97 127q52 64 156.5 105t238.5 41q178 0 277.5 -78.5t99.5 -201.5q0 -61 -25 -114.5t-63.5 -91.5t-94 -76.5t-107 -66t-113 -65t-101.5 -69.5h515
q19 -84 0 -166h-780z" />
    <glyph glyph-name="three" unicode="3" horiz-adv-x="920" 
d="M684 483q180 -75 180 -221q0 -123 -108.5 -201.5t-312.5 -78.5q-110 0 -226 37t-160 84q7 63 82 150q46 -37 127.5 -69.5t168.5 -32.5q105 0 161.5 32t56.5 80q0 63 -102 98t-262 32q-24 94 0 177q97 0 164.5 7t105 21t53.5 31.5t16 40.5q0 39 -47.5 66t-157.5 27
q-88 0 -171 -27.5t-113 -51.5q-50 51 -68 145q48 41 151.5 72t226.5 31q181 0 285 -69t104 -175q0 -134 -154 -205z" />
    <glyph glyph-name="four" unicode="4" horiz-adv-x="934" 
d="M868 342q18 -79 0 -166h-68v-176h-206v176h-537v163l572 551h171v-548h68zM316 342h289l9 303z" />
    <glyph glyph-name="five" unicode="5" horiz-adv-x="922" 
d="M471 622q194 0 294 -85.5t100 -230.5q0 -135 -111.5 -229.5t-296.5 -94.5q-133 0 -237 41.5t-163 99.5q8 88 74 156q61 -54 137.5 -86t154.5 -32q113 0 170.5 41.5t57.5 104.5q0 68 -73 110.5t-200 41.5q-128 0 -271 -30l44 461h654q15 -87 -13 -166h-450l-15 -114
q78 12 144 12z" />
    <glyph glyph-name="six" unicode="6" horiz-adv-x="953" 
d="M542 568q158 0 256 -75.5t98 -200.5q0 -138 -110.5 -224t-317.5 -86q-191 0 -301 96.5t-110 262.5q0 83 29 160.5t92.5 154t175 147.5t264.5 129q43 -28 71 -69.5t33 -80.5q-270 -98 -378 -242q95 28 198 28zM467 151q106 0 161 40.5t55 96.5q0 50 -49 80.5t-156 30.5
q-112 0 -204 -32q-3 -23 -3 -45q0 -71 48 -121t148 -50z" />
    <glyph glyph-name="seven" unicode="7" horiz-adv-x="823" 
d="M21 890h761v-190q-150 -84 -235.5 -275.5t-90.5 -424.5h-225q10 232 96.5 420.5t243.5 303.5h-550q-24 73 0 166z" />
    <glyph glyph-name="eight" unicode="8" horiz-adv-x="967" 
d="M738 496q172 -83 172 -224q0 -61 -24 -111.5t-73 -91.5t-133.5 -64t-196.5 -23t-196 23t-133 64t-73 91.5t-24 111.5q0 143 170 225q-137 74 -137 188q0 103 100 174t293 71q194 0 294 -70t100 -172q0 -60 -38.5 -109t-100.5 -83zM483 762q-96 0 -141 -28t-45 -66
q0 -72 187 -104q185 30 185 106q0 38 -44 65t-142 27zM696 280q2 113 -219 151q-105 -17 -156 -56t-51 -93q0 -53 54.5 -92t158.5 -39q103 0 158 38.5t55 90.5z" />
    <glyph glyph-name="nine" unicode="9" horiz-adv-x="951" 
d="M474 930q195 0 307.5 -95.5t112.5 -260.5q0 -380 -569 -588q-43 28 -71.5 69.5t-33.5 80.5q313 115 430 271q-119 -61 -253 -61q-152 0 -247 75.5t-95 200.5q0 137 109 222.5t310 85.5zM265 625q0 -49 49 -81t154 -32q114 0 213 33v48q0 66 -50.5 114.5t-155.5 48.5
q-93 0 -151.5 -37t-58.5 -94z" />
    <glyph glyph-name="colon" unicode=":" horiz-adv-x="497" 
d="M248 495q-48 0 -84.5 33.5t-36.5 77.5t36.5 77.5t84.5 33.5q49 0 85.5 -33.5t36.5 -77.5t-36.5 -77.5t-85.5 -33.5zM248 0q-48 0 -84.5 33.5t-36.5 78.5q0 44 36.5 77.5t84.5 33.5q49 0 85.5 -33.5t36.5 -77.5q0 -45 -36.5 -78.5t-85.5 -33.5z" />
    <glyph glyph-name="semicolon" unicode=";" horiz-adv-x="419" 
d="M177 495q-49 0 -85.5 33.5t-36.5 77.5t36.5 77.5t85.5 33.5q48 0 84.5 -33.5t36.5 -77.5t-36.5 -77.5t-84.5 -33.5zM43 -189l48 366h186l-65 -366h-169z" />
    <glyph glyph-name="less" unicode="&#x3c;" horiz-adv-x="785" 
d="M327 439l385 -219l-67 -142l-572 301v122l577 297l61 -145z" />
    <glyph glyph-name="equal" unicode="=" horiz-adv-x="803" 
d="M73 500v168h658v-168h-658zM73 223v169h658v-169h-658z" />
    <glyph glyph-name="greater" unicode="&#x3e;" horiz-adv-x="785" 
d="M135 798l577 -297v-122l-572 -301l-67 142l384 219l-384 214z" />
    <glyph glyph-name="question" unicode="?" horiz-adv-x="958" 
d="M389 284q-20 64 -7.5 113t42.5 79.5t71 57t78 45t62.5 43.5t25.5 52q0 36 -44.5 63.5t-139.5 27.5q-158 0 -309 -100l-109 119q198 146 430 146q187 0 284 -68t97 -174q0 -68 -41 -118.5t-97.5 -80t-111.5 -56.5t-87 -63.5t-20 -85.5h-124zM456 0q-43 0 -76 30t-33 69
t33 69.5t76 30.5t75 -30.5t32 -69.5t-32 -69t-75 -30z" />
    <glyph glyph-name="at" unicode="@" horiz-adv-x="1339" 
d="M663 -244q-268 0 -429 145.5t-161 392.5t163.5 399.5t440.5 152.5q136 0 248 -38t186 -104.5t114.5 -156t40.5 -193.5q0 -133 -71 -219.5t-196 -86.5q-112 0 -160 68q-64 -68 -171 -68q-135 0 -203.5 73t-68.5 183t68.5 182t203.5 72q85 0 142 -38l2 23h137v-230
q0 -50 12 -73t43 -23q84 0 84 137q0 339 -411 339q-106 0 -188.5 -34t-131.5 -91t-74 -126.5t-25 -147.5q0 -162 105.5 -272.5t297.5 -110.5q131 0 239 67l93 -124q-148 -98 -330 -98zM694 199q61 0 97 44v131q-39 33 -97 33q-56 0 -84.5 -30.5t-28.5 -72.5q0 -47 27.5 -76
t85.5 -29z" />
    <glyph glyph-name="A" unicode="A" horiz-adv-x="1095" 
d="M639 906q24 -47 128 -267.5t193 -396.5t124 -212l-13 -30q-164 -3 -227 23q-23 26 -84 159h-446l-76 -182h-227l417 906q37 15 107 14t104 -14zM384 347h305q-24 56 -152 366z" />
    <glyph glyph-name="B" unicode="B" horiz-adv-x="953" 
d="M754 551q173 -67 174 -233q0 -157 -120 -246.5t-338 -90.5q-144 0 -233 9.5t-186 35.5v859q184 45 374 45q95 0 168.5 -14t119 -36.5t75 -54.5t41 -64.5t11.5 -68.5q0 -84 -86 -141zM430 772q-87 0 -173 -14v-184q108 17 254 17h23q100 17 100 82q0 41 -46.5 70
t-157.5 29zM455 147q138 0 204 42t65 116q0 59 -58 89.5t-191 30.5q-109 0 -218 -20v-242q88 -16 198 -16z" />
    <glyph glyph-name="C" unicode="C" horiz-adv-x="1010" 
d="M562 -21q-111 0 -208.5 33t-170.5 93t-115 150.5t-42 200.5q0 102 43.5 191t117 150.5t172 97t206.5 35.5q195 1 305 -95.5t97 -255.5q-139 -30 -205 -13q4 87 -50.5 139t-148.5 52q-137 -1 -230.5 -91.5t-93.5 -222.5q0 -126 87 -208t236 -83q155 0 288 76
q43 -16 72 -62t31 -77q-83 -54 -190 -82t-201 -28z" />
    <glyph glyph-name="D" unicode="D" horiz-adv-x="999" 
d="M419 930q260 0 407 -127t147 -337q0 -221 -142.5 -352.5t-387.5 -132.5q-138 0 -216 9t-176 36v862q161 42 368 42zM434 147q156 0 240.5 84.5t84.5 229.5q0 138 -93.5 221t-255.5 83q-87 0 -153 -9v-595q76 -14 177 -14z" />
    <glyph glyph-name="E" unicode="E" horiz-adv-x="889" 
d="M844 166q19 -22 20 -78t-20 -88h-793v885l22 21h748q12 -37 -1.5 -89t-34.5 -77h-528v-217h487q10 -40 -3 -94.5t-34 -71.5h-450v-191h587z" />
    <glyph glyph-name="F" unicode="F" horiz-adv-x="860" 
d="M794 739h-537v-255h503q11 -40 -2 -94t-34 -72h-467v-318h-206v886l21 19h758q11 -37 -2 -90t-34 -76z" />
    <glyph glyph-name="G" unicode="G" horiz-adv-x="1010" 
d="M542 757q-142 0 -222.5 -87t-80.5 -223q0 -129 84.5 -210.5t232.5 -81.5q117 0 209 32v132h-285q-11 39 2 93.5t33 72.5h427l25 -25v-371q-70 -52 -185 -79.5t-226 -27.5q-230 0 -380 128t-150 346q0 94 35.5 179.5t99.5 151t162 104.5t215 39q189 0 312.5 -93
t118.5 -229q-48 -11 -108.5 -16t-107.5 2q-9 79 -68 121t-143 42z" />
    <glyph glyph-name="H" unicode="H" horiz-adv-x="934" 
d="M677 906q40 13 107 10.5t99 -10.5v-906h-206v331h-420v-331h-206v906q39 13 107 10.5t99 -10.5v-410h420v410z" />
    <glyph glyph-name="I" unicode="I" horiz-adv-x="301" 
d="M51 0v906q38 13 104 11t95 -11v-906h-199z" />
    <glyph glyph-name="J" unicode="J" horiz-adv-x="950" 
d="M454 -18q-121 0 -231 46.5t-196 130.5q16 49 50.5 89.5t71.5 51.5q57 -68 133.5 -106.5t153.5 -38.5q125 0 189 70.5t64 190.5v490q44 12 111 10.5t95 -10.5v-535q0 -76 -30 -145.5t-84.5 -124t-139.5 -87t-187 -32.5z" />
    <glyph glyph-name="K" unicode="K" horiz-adv-x="1075" 
d="M623 453q16 -17 61 -62.5t63 -63.5t56 -55.5t61.5 -59t57.5 -52.5t66.5 -57t67.5 -53l-2 -32q-30 -10 -100 -21t-128 -11q-41 24 -126.5 108.5t-258.5 262.5q-85 -40 -184 -79v-278h-206v906q39 13 107.5 10.5t98.5 -10.5v-441q151 64 245 121q137 79 206.5 160t63.5 152
q86 32 200 9q18 -90 -54 -205.5t-223 -206.5z" />
    <glyph glyph-name="L" unicode="L" horiz-adv-x="876" 
d="M91 0l-40 38v868q39 13 106 11t100 -11v-740h578q19 -25 19 -79t-19 -87h-744z" />
    <glyph glyph-name="M" unicode="M" horiz-adv-x="1249" 
d="M1223 0h-207l-61 549l-265 -427h-135l-264 425l-59 -547h-206l99 875q24 22 90.5 31.5t89.5 -0.5l318 -533l318 533q27 9 91.5 -0.5t89.5 -31.5z" />
    <glyph glyph-name="N" unicode="N" horiz-adv-x="1052" 
d="M795 906q40 13 107 10.5t99 -10.5v-906h-155l-589 581v-581h-206v864q20 22 75 37.5t81 7.5l588 -592v589z" />
    <glyph glyph-name="O" unicode="O" horiz-adv-x="1052" 
d="M480 -18q-202 0 -328.5 122.5t-125.5 304.5q0 146 73.5 266t200 187.5t279.5 67.5q190 0 318.5 -130t129.5 -313q0 -137 -73.5 -253.5t-200 -184t-273.5 -67.5zM494 155q135 0 227 102t92 240q0 116 -69.5 187.5t-187.5 71.5q-133 0 -225 -99.5t-92 -242.5
q0 -110 66.5 -184.5t188.5 -74.5z" />
    <glyph glyph-name="P" unicode="P" horiz-adv-x="953" 
d="M466 930q222 0 342 -99t120 -261q0 -164 -131.5 -260.5t-340.5 -96.5q-99 0 -199 16v-229h-206v885q184 45 415 45zM714 569q1 92 -64.5 144t-198.5 52q-106 0 -194 -18v-346q86 -22 188 -22q124 0 196.5 49.5t72.5 140.5z" />
    <glyph glyph-name="Q" unicode="Q" horiz-adv-x="1052" 
d="M710 -30q99 0 251 62q28 -28 39 -76.5t-1 -94.5q-142 -32 -225 -33q-268 -5 -366 159q-173 22 -278 140t-104 282q0 146 73.5 266t200 187.5t279.5 67.5q190 0 318.5 -130t129.5 -313q1 -174 -115 -309.5t-293 -178.5q30 -29 91 -29zM239 414q0 -110 66.5 -184.5
t188.5 -74.5q135 0 227 102t92 240q0 116 -69.5 187.5t-187.5 71.5q-133 0 -225 -99.5t-92 -242.5z" />
    <glyph glyph-name="R" unicode="R" horiz-adv-x="1052" 
d="M695 316q164 -166 308 -274l-3 -33q-27 -8 -98.5 -16.5t-131.5 -8.5q-27 14 -93.5 76t-220.5 215h-4q-98 0 -195 19v-294h-206v885q186 45 419 45q217 0 338 -86t121 -237q0 -101 -63 -175.5t-171 -115.5zM257 751v-292q83 -18 196 -18q115 0 188.5 43.5t73.5 126.5
q0 69 -68 111.5t-201 42.5q-105 0 -189 -14z" />
    <glyph glyph-name="S" unicode="S" horiz-adv-x="985" 
d="M523 -18q-289 0 -497 141q2 14 13.5 43t39.5 65t63 45q177 -128 372 -128q115 0 173.5 34t58.5 87q0 56 -57 84.5t-190 33.5q-177 6 -280.5 72t-102.5 189q0 127 114.5 204.5t281.5 77.5q207 0 320.5 -86.5t113.5 -204.5q-42 -11 -103 -16.5t-105 3.5q-6 63 -62 101
t-166 38q-87 0 -134 -31t-47 -79q-1 -50 57 -75.5t144 -28.5q430 -14 430 -270q0 -142 -121 -220.5t-316 -78.5z" />
    <glyph glyph-name="T" unicode="T" horiz-adv-x="1013" 
d="M987 906q9 -37 -3 -91t-33 -75h-346v-740h-214v740h-363q-9 34 -3 85t23 81h939z" />
    <glyph glyph-name="U" unicode="U" horiz-adv-x="1050" 
d="M512 -25q-228 0 -344.5 110t-116.5 315v506q36 11 109 9.5t101 -9.5v-514q0 -113 64.5 -178.5t186.5 -65.5q134 0 205 71t71 185v502q39 12 109.5 10t101.5 -10v-504q0 -194 -126 -310.5t-361 -116.5z" />
    <glyph glyph-name="V" unicode="V" horiz-adv-x="1035" 
d="M435 0l-59 34q-99 250 -221 528t-144 312l9 32q110 19 198 0q54 -89 145 -295t174 -438h28q139 172 202.5 370t40.5 348q30 17 85.5 21.5t110.5 -6.5q45 -171 -34 -407.5t-272 -461.5l-70 -37h-193z" />
    <glyph glyph-name="W" unicode="W" horiz-adv-x="1494" 
d="M413 0l-49 25q-100 267 -203 514t-150 334l12 33q40 9 95.5 9.5t99.5 -9.5q122 -218 304 -733h9q62 85 121 198.5t80 184.5q-8 28 -31 94t-25 72q18 28 77.5 53t113.5 19q35 -60 103 -261t108 -360h12q70 85 113 187.5t55.5 199.5t10.5 178.5t-16 152.5q65 40 197 15
q22 -81 25.5 -180.5t-14.5 -216t-75.5 -241.5t-150.5 -231l-67 -37h-225l-32 21q-47 146 -93 268q-19 -55 -64 -137.5t-76 -126.5l-52 -25h-213z" />
    <glyph glyph-name="X" unicode="X" horiz-adv-x="1064" 
d="M703 420q27 -30 101.5 -115.5t141 -161t107.5 -120.5l-7 -23h-245q-29 24 -81.5 83t-116.5 137t-87 104q-132 -79 -205 -155.5t-83 -168.5h-217q12 86 40.5 152.5t79.5 122.5t108 100t148 100q-265 316 -351 398l12 32q45 9 122.5 9.5t121.5 -8.5q48 -48 280 -333
q143 93 192 167.5t38 149.5q64 40 206 15q10 -42 10.5 -77.5t-14 -83t-47.5 -94.5t-97 -106.5t-157 -123.5z" />
    <glyph glyph-name="Y" unicode="Y" horiz-adv-x="1008" 
d="M987 906q8 -32 4 -74t-14 -85.5t-37 -96t-65 -105t-98 -113t-136 -119.5v-313h-206v329q-85 122 -211.5 289.5t-208.5 253.5l14 34q50 9 117 10t117 -10q45 -47 139.5 -175.5t167.5 -235.5q108 87 163.5 207t45.5 188q69 40 208 16z" />
    <glyph glyph-name="Z" unicode="Z" horiz-adv-x="964" 
d="M918 166q20 -22 20.5 -78t-20.5 -88h-852q-19 16 -31.5 63t-7.5 79q313 423 560 598h-530q-20 21 -21 77.5t21 88.5h826q18 -14 31.5 -71.5t8.5 -91.5q-154 -97 -327.5 -264t-285.5 -313h608z" />
    <glyph glyph-name="bracketleft" unicode="[" horiz-adv-x="536" 
d="M73 -242v1253h390v-153h-222v-948h222v-152h-390z" />
    <glyph glyph-name="backslash" unicode="\" horiz-adv-x="1095" 
d="M1115 -132h-210l-925 1143h210z" />
    <glyph glyph-name="bracketright" unicode="]" horiz-adv-x="536" 
d="M463 -242h-390v152h222v948h-222v153h390v-1253z" />
    <glyph glyph-name="asciicircum" unicode="^" horiz-adv-x="1022" 
d="M887 512h-247l-129 172l-130 -172h-246l331 379h94z" />
    <glyph glyph-name="underscore" unicode="_" horiz-adv-x="716" 
d="M73 -145v145h570v-145h-570z" />
    <glyph glyph-name="grave" unicode="`" horiz-adv-x="494" 
d="M305 775l-258 250h212l187 -250h-141z" />
    <glyph glyph-name="a" unicode="a" horiz-adv-x="840" 
d="M780 274q1 -113 9 -163t25 -91l-3 -20h-185q-37 31 -44 91q-124 -109 -294 -109q-106 0 -176.5 53.5t-70.5 134.5q0 79 63.5 141.5t168 96.5t229.5 38q36 0 55 -1q-10 54 -48 83t-97 29q-95 0 -238 -77q-29 11 -50 47t-27 88q160 97 323 99q170 0 263.5 -85t95.5 -245z
M557 306l4 12q-47 2 -70 1q-103 -3 -171.5 -37t-68.5 -79q0 -28 21 -45.5t58 -17.5q79 0 145 51t82 115z" />
    <glyph glyph-name="b" unicode="b" horiz-adv-x="868" 
d="M505 714q149 0 244 -94t95 -246q0 -166 -104.5 -279t-268.5 -113q-124 0 -212 70q-9 -31 -19 -52h-193v23q16 64 16 171v741q34 11 103.5 11t99.5 -11v-329q95 108 239 108zM440 151q87 0 141.5 65t54.5 159q0 76 -40.5 123t-107.5 47q-90 0 -153.5 -84t-63.5 -186
q0 -43 49 -83.5t120 -40.5z" />
    <glyph glyph-name="c" unicode="c" horiz-adv-x="808" 
d="M414 -18q-106 -1 -193.5 39t-142 121.5t-54.5 192.5q0 162 121.5 270.5t294.5 108.5q163 0 258 -92.5t84 -236.5q-138 -33 -207 -15q4 83 -35 128.5t-112 46.5q-79 0 -137.5 -59.5t-58.5 -151.5q0 -83 53.5 -133.5t135.5 -49.5q108 2 227 84q39 -12 66 -44t35 -59l8 -26
q-160 -122 -343 -124z" />
    <glyph glyph-name="d" unicode="d" horiz-adv-x="877" 
d="M814 194q0 -107 16 -171v-23h-173q-22 31 -36 85q-93 -103 -246 -103q-155 0 -253 98.5t-98 246.5q0 172 105.5 279.5t277.5 107.5q123 0 204 -78v299q30 11 99 11t104 -11v-741zM399 151q86 0 140 78t54 205q0 44 -46.5 77t-102.5 33q-93 0 -152.5 -57t-59.5 -149
q0 -84 47 -135.5t120 -51.5z" />
    <glyph glyph-name="e" unicode="e" horiz-adv-x="815" 
d="M436 714q162 0 263.5 -92t89.5 -254l-27 -35l-512 -89q25 -45 73 -70t109 -24q115 2 230 77q31 -12 54 -44t31 -54t8 -26q-156 -119 -346 -121q-163 -1 -273.5 91.5t-111.5 255.5q0 164 117.5 274.5t294.5 110.5zM234 383l346 55q-2 52 -41 85.5t-103 33.5
q-70 0 -128 -48.5t-74 -125.5z" />
    <glyph glyph-name="f" unicode="f" horiz-adv-x="521" 
d="M454 795q-96 -1 -110 -107h196v-165h-199v-523h-203v523h-144v165h146q11 138 77 206t196 69q72 0 172 -20q8 -28 -5 -86t-32 -77q-52 15 -94 15z" />
    <glyph glyph-name="g" unicode="g" horiz-adv-x="863" 
d="M639 703q69 7 177 -14v-26q-14 -79 -14 -177v-398q0 -180 -106 -281.5t-282 -102.5q-185 0 -360 113q17 110 79 148q163 -93 262 -92t160.5 57t62.5 149q-43 -45 -105 -71t-130 -26q-157 0 -258 91.5t-101 247.5q1 175 104 283.5t268 108.5q141 0 227 -79zM396 151
q85 0 139 75t55 212q-1 37 -50 72t-105 35q-91 0 -146.5 -60.5t-56.5 -148.5q0 -80 44.5 -132.5t119.5 -52.5z" />
    <glyph glyph-name="h" unicode="h" horiz-adv-x="841" 
d="M507 714q299 0 299 -342v-372h-203v347q0 90 -35 138.5t-105 48.5q-87 0 -150 -78.5t-63 -192.5v-263h-203v935q35 11 103.5 11t99.5 -11v-316q106 95 257 95z" />
    <glyph glyph-name="i" unicode="i" horiz-adv-x="317" 
d="M159 778q-49 0 -85.5 33.5t-36.5 78.5q0 44 36.5 77.5t85.5 33.5q48 0 84.5 -33.5t36.5 -77.5q0 -45 -36.5 -78.5t-84.5 -33.5zM57 0v688q33 10 104 10t99 -10v-688h-203z" />
    <glyph glyph-name="j" unicode="j" horiz-adv-x="369" 
d="M187 778q-49 0 -85.5 33.5t-36.5 78.5q0 44 36.5 77.5t85.5 33.5q48 0 84.5 -33.5t36.5 -77.5q0 -45 -36.5 -78.5t-84.5 -33.5zM71 -260q-53 0 -115 18q-12 37 2.5 93t41.5 83q31 -9 40 -9q28 0 38.5 35.5t10.5 130.5v597q33 10 104.5 10t98.5 -10v-707q0 -110 -58 -176
t-163 -65z" />
    <glyph glyph-name="k" unicode="k" horiz-adv-x="945" 
d="M599 342q35 -33 83.5 -79.5t70.5 -67t52 -48.5t46.5 -41.5t35.5 -27.5t35 -23v-33q-31 -11 -106.5 -20.5t-142.5 -8.5q-29 13 -89.5 70.5t-169.5 170.5q-79 -40 -164 -73v-161h-203v935q41 13 104 13t99 -13v-581q57 27 143 78q107 62 166.5 120t55.5 122q90 29 233 14
q24 -79 -42.5 -170t-206.5 -176z" />
    <glyph glyph-name="l" unicode="l" horiz-adv-x="417" 
d="M260 -18q-95 -1 -144.5 56t-49.5 170v727q34 12 98.5 12.5t104.5 -12.5v-671q0 -117 58 -117q22 0 46 7q16 -22 22 -70.5t-4 -77.5q-72 -23 -131 -24z" />
    <glyph glyph-name="m" unicode="m" horiz-adv-x="1233" 
d="M927 714q259 0 259 -331v-383h-203v358q0 186 -100 186q-67 0 -115 -66.5t-48 -172.5l1 -305h-196v356q0 188 -100 188q-69 0 -115.5 -68t-46.5 -181v-295h-203v498q0 89 -13 162v28q106 22 188 14q9 -34 11 -76q93 88 208 88q156 0 215 -126q47 58 115.5 92t142.5 34z
" />
    <glyph glyph-name="n" unicode="n" horiz-adv-x="864" 
d="M503 713q314 0 314 -341v-372h-203v336q0 203 -145 203q-81 0 -143.5 -80t-62.5 -189v-270h-203v498q0 89 -13 162v28q108 22 193 14q11 -44 11 -83v-6q110 100 252 100z" />
    <glyph glyph-name="o" unicode="o" horiz-adv-x="855" 
d="M405 -18q-178 0 -279.5 97t-101.5 247q0 161 125.5 274.5t308.5 113.5q173 0 271 -92t101 -242q4 -176 -116.5 -287t-308.5 -111zM416 151q87 0 147 64t60 144q0 78 -48 132t-131 54q-88 0 -150 -65t-62 -155q0 -75 48 -124.5t136 -49.5z" />
    <glyph glyph-name="p" unicode="p" horiz-adv-x="865" 
d="M502 714q154 0 246 -95t92 -236q0 -175 -105 -288t-262 -113q-121 0 -208 78v-317q-25 -10 -97 -10t-105 10v743q0 97 -16 183v27q96 27 179 14l28 -95q107 99 248 99zM437 151q88 0 142 65t54 158q0 79 -41.5 125t-106.5 46q-85 0 -152 -78.5t-67 -193.5
q0 -41 51.5 -81.5t119.5 -40.5z" />
    <glyph glyph-name="q" unicode="q" horiz-adv-x="871" 
d="M638 702q85 14 186 -14v-29q-20 -73 -20 -156v-760q-33 -10 -104 -10t-99 10v327q-99 -88 -223 -88q-158 0 -256 99t-98 239q0 182 106.5 287.5t271.5 105.5q127 0 213 -76zM401 151q85 0 138.5 79t53.5 203q0 43 -45.5 77t-104.5 34q-97 0 -154.5 -60t-56.5 -153
q1 -80 48 -130t121 -50z" />
    <glyph glyph-name="r" unicode="r" horiz-adv-x="626" 
d="M599 687q11 -33 -9.5 -89t-48.5 -86q-51 18 -94 18q-86 -2 -134 -65.5t-48 -177.5v-287h-205v498q0 89 -13 162v28q101 22 180 14q11 -37 11 -83v-25q36 55 93 87.5t128 32.5q68 0 140 -27z" />
    <glyph glyph-name="s" unicode="s" horiz-adv-x="836" 
d="M426 -18q-108 0 -212 29t-180 86q9 36 33 78t60 65q65 -44 142.5 -66.5t148.5 -22.5q80 0 127 19t46 49q0 32 -41 42t-156 16q-158 8 -240.5 59t-82.5 142q0 101 96 168.5t257 67.5q93 0 195.5 -20t176.5 -62q-13 -80 -60 -156q-61 33 -143 51t-148 18q-82 0 -124.5 -19
t-42.5 -46q0 -26 37 -37t122 -14q193 -7 277.5 -58.5t84.5 -150.5q0 -106 -104.5 -172t-268.5 -66z" />
    <glyph glyph-name="t" unicode="t" horiz-adv-x="626" 
d="M549 169q21 -19 32 -76.5t0 -86.5q-79 -24 -151 -24q-146 -3 -230 83.5t-84 254.5v203h-98v165h98v177q32 19 92 29t110 -1v-205h258v-165h-258v-189q0 -181 134 -182q40 0 97 17z" />
    <glyph glyph-name="u" unicode="u" horiz-adv-x="853" 
d="M789 254q0 -158 29 -231l-2 -23h-172q-29 29 -36 76q-97 -94 -259 -94q-136 0 -219 77.5t-83 238.5v390q45 10 102 9t101 -9v-354q0 -183 141 -183q92 0 143.5 73t51.5 198v266q36 10 106 9t97 -9v-434z" />
    <glyph glyph-name="v" unicode="v" horiz-adv-x="867" 
d="M332 0l-32 23q-49 139 -109.5 274t-89 189.5t-91.5 170.5l13 31q45 9 98.5 10t97.5 -10q44 -59 113.5 -203.5t132.5 -315.5h20q91 120 135 256t29 248q61 42 199 15q30 -132 -36.5 -323t-201.5 -346l-39 -19h-239z" />
    <glyph glyph-name="w" unicode="w" horiz-adv-x="1247" 
d="M288 0l-32 22q-59 188 -135 372t-115 264l14 30q43 9 98 10t98 -10q43 -80 101 -225.5t96 -286.5h13q83 163 134 313l-31 80q18 32 75 57.5t115 19.5q100 -213 168 -470h13q70 122 107.5 255.5t21.5 241.5q72 40 202 15q28 -128 -28.5 -320.5t-181.5 -350.5l-33 -17h-205
l-39 23q-33 102 -80 203q-16 -37 -54.5 -107t-63.5 -103l-30 -16h-228z" />
    <glyph glyph-name="x" unicode="x" horiz-adv-x="896" 
d="M604 318q36 -40 79 -84.5t104.5 -107t89.5 -91.5l-6 -35h-249q-47 52 -218 231q-87 -61 -131.5 -115.5t-41.5 -115.5h-199q-46 184 245 361q-144 159 -259 294l11 33q41 8 116 8t113 -12q94 -120 204 -244q167 132 158 240q33 15 94.5 17t109.5 -9q16 -81 -38.5 -178
t-181.5 -192z" />
    <glyph glyph-name="y" unicode="y" horiz-adv-x="862" 
d="M839 688q10 -45 11.5 -99.5t-7 -116.5t-25 -125.5t-45 -130t-66.5 -128t-90 -120t-113 -105.5q-154 -116 -354 -118q-63 0 -106 18q-34 74 -2 143l36 21q37 -14 74 -13q115 0 248 117q-81 58 -148 133t-107 143t-70 141.5t-43 120.5t-20 89l11 30q44 10 99 10.5t97 -10.5
q72 -335 304 -520q76 108 102 230.5t17 272.5q61 43 197 17z" />
    <glyph glyph-name="z" unicode="z" horiz-adv-x="839" 
d="M802 169q19 -14 19.5 -74.5t-19.5 -94.5h-740q-21 16 -34 64t-10 85q55 63 91 101t90.5 89t117.5 95t138 86h-395q-20 20 -20 76.5t20 91.5h700q19 -16 32 -79t9 -103q-93 -33 -229 -129.5t-240 -207.5h470z" />
    <glyph glyph-name="braceleft" unicode="{" horiz-adv-x="583" 
d="M404 31q16 -126 95 -192l-87 -102q-75 44 -114.5 97t-57.5 122q-10 36 -14.5 82t-5.5 79.5t-7.5 68t-19.5 56t-43 35t-77 13.5v169q50 0 80.5 14.5t43 38.5t19 61.5t7 74.5t8 87t21.5 90q40 114 163 186l88 -95q-71 -58 -89 -154q-10 -43 -13.5 -136.5t-23.5 -153
t-79 -98.5q32 -26 52 -57t29.5 -69.5t13 -68t6 -76.5t5.5 -72z" />
    <glyph glyph-name="bar" unicode="|" horiz-adv-x="308" 
d="M73 -231v1243h162v-1243h-162z" />
    <glyph glyph-name="braceright" unicode="}" horiz-adv-x="583" 
d="M335 825q15 -40 22 -90t8 -87t7.5 -74.5t19 -61.5t43 -38.5t80.5 -14.5v-169q-47 0 -77 -13.5t-43 -35t-20 -56t-8 -68t-5.5 -79.5t-14.5 -82q-34 -140 -172 -219l-87 102q45 37 66 82.5t29 109.5q3 25 6 72t6.5 77t12.5 68t29.5 69t52.5 57q-59 39 -79 98.5t-23.5 153
t-13.5 136.5q-20 97 -89 154l88 95q124 -73 162 -186z" />
    <glyph glyph-name="asciitilde" unicode="~" horiz-adv-x="840" 
d="M73 275q0 99 52.5 166.5t142.5 67.5q63 0 149.5 -33t111.5 -33q29 0 49 15.5t20 50.5h169q0 -99 -52 -166.5t-144 -67.5q-65 0 -152.5 33t-115.5 33t-45 -17t-17 -49h-168z" />
    <glyph glyph-name="exclamdown" unicode="&#xa1;" horiz-adv-x="471" 
d="M235 596q-42 0 -75 31t-33 69q0 40 33 70t75 30q43 0 76 -30t33 -70q0 -39 -33 -69.5t-76 -30.5zM135 -132l17 622h168l18 -622h-203z" />
    <glyph glyph-name="cent" unicode="&#xa2;" horiz-adv-x="1021" 
d="M853 281l87 -130q-44 -28 -127 -56.5t-170 -38.5v-188h-143v186q-107 9 -190.5 44.5t-134 90.5t-76.5 121t-26 140q0 160 121.5 267t305.5 126v183h143v-182q187 -12 305 -106l-95 -137q-89 77 -280 77q-121 0 -207.5 -64t-86.5 -164q0 -95 71 -162.5t219 -67.5
q140 0 284 61z" />
    <glyph glyph-name="sterling" unicode="&#xa3;" horiz-adv-x="1052" 
d="M362 166h618v-166h-891v166h11q96 0 96 152v14h-123v166h96q-9 59 -9 106q0 133 101.5 206.5t283.5 73.5q254 0 423 -121l-100 -130q-124 82 -281 82q-222 0 -222 -140q0 -38 6 -77h402v-166h-382v-17q0 -90 -29 -149z" />
    <glyph glyph-name="currency" unicode="&#xa4;" horiz-adv-x="657" 
d="M519 450q0 -36 -12 -68l77 -70l-106 -118l-95 81q-29 -8 -57 -8q-32 0 -56 7l-91 -80l-106 118l73 69q-11 33 -11 69q0 33 10 66l-72 65l106 118l86 -72q29 8 61 8q34 0 64 -8l87 73l107 -118l-75 -67q10 -29 10 -65zM266 450q0 -29 16 -48t44 -19q27 0 44 20.5t17 46.5
q0 27 -16 46t-45 19q-27 0 -43.5 -20t-16.5 -45z" />
    <glyph glyph-name="yen" unicode="&#xa5;" horiz-adv-x="1207" 
d="M1134 884l-362 -413h201v-142h-266v-79h266v-142h-266v-108h-206v108h-275v142h275v79h-275v142h210l-363 413h282l249 -296l249 296h281z" />
    <glyph glyph-name="brokenbar" unicode="&#xa6;" horiz-adv-x="308" 
d="M73 481v531h162v-531h-162zM73 -231v534h162v-534h-162z" />
    <glyph glyph-name="section" unicode="&#xa7;" horiz-adv-x="732" 
d="M553 169q73 -68 73 -160q0 -85 -83.5 -143t-221.5 -58q-45 0 -103 10.5t-97 27.5v170q36 -18 95.5 -29t104.5 -11q83 0 83 55q0 22 -34 47t-82.5 52t-97.5 58.5t-83 78t-34 99.5q0 49 27.5 95t78.5 80q-78 75 -78 176q0 91 83.5 152t220.5 61q117 0 200 -37v-170
q-36 18 -94 28.5t-106 10.5q-51 0 -75.5 -15.5t-24.5 -39.5q0 -23 26.5 -46t65.5 -42.5t85.5 -46.5t85.5 -56t65.5 -74.5t26.5 -98.5q0 -107 -107 -174zM280 375q-1 -22 19 -43t42.5 -34t67.5 -36q43 32 43 68q0 15 -8.5 28.5t-31.5 29.5t-37 24.5t-51 28.5q-43 -31 -44 -66
z" />
    <glyph glyph-name="dieresis" unicode="&#xa8;" horiz-adv-x="731" 
d="M169 767q-49 0 -85.5 33.5t-36.5 78.5q0 44 36.5 77.5t85.5 33.5q48 0 84.5 -33.5t36.5 -77.5q0 -45 -36.5 -78.5t-84.5 -33.5zM563 767q-49 0 -85.5 33.5t-36.5 78.5q0 44 36.5 77.5t85.5 33.5q48 0 84.5 -33.5t36.5 -77.5q0 -45 -36.5 -78.5t-84.5 -33.5z" />
    <glyph glyph-name="copyright" unicode="&#xa9;" horiz-adv-x="1320" 
d="M660 -18q-256 0 -421.5 134t-165.5 332q0 200 168 340.5t419 140.5q126 0 236 -38t186.5 -102.5t120.5 -153t44 -187.5q0 -198 -165.5 -332t-421.5 -134zM660 112q185 0 309 90.5t124 242.5q0 159 -124.5 256.5t-308.5 97.5q-119 0 -218 -44.5t-157 -126t-58 -183.5
q0 -150 123 -241.5t310 -91.5zM656 213q-127 0 -214.5 68.5t-87.5 174.5q0 105 87.5 172t215.5 67q141 0 223 -64l-72 -124q-50 32 -133 32q-52 0 -87.5 -25t-35.5 -62q0 -36 35 -60.5t95 -24.5q78 0 131 29l81 -116q-79 -67 -238 -67z" />
    <glyph glyph-name="ordfeminine" unicode="&#xaa;" horiz-adv-x="572" 
d="M376 1074h123v-404h-120v18q-51 -23 -110 -23q-92 0 -144 54t-52 144q0 91 57.5 150t148.5 59q49 0 97 -23v25zM288 766q49 0 90 30l-1 125q-37 39 -88 39q-44 0 -71 -26.5t-27 -70.5q0 -46 28 -71.5t69 -25.5z" />
    <glyph glyph-name="guillemotleft" unicode="&#xab;" horiz-adv-x="1312" 
d="M712 670l-388 -230l388 -220l-57 -137l-582 298v121l577 301zM1239 670l-389 -230l389 -220l-58 -137l-582 298v121l577 301z" />
    <glyph glyph-name="logicalnot" unicode="&#xac;" horiz-adv-x="819" 
d="M573 217v143h-500v169h674v-312h-174z" />
    <glyph glyph-name="uni00AD" unicode="&#xad;" horiz-adv-x="1229" 
d="M188 289v158h853v-158h-853z" />
    <glyph glyph-name="registered" unicode="&#xae;" horiz-adv-x="937" 
d="M469 930q160 0 277.5 -96t117.5 -240q0 -150 -114.5 -242t-280.5 -92q-178 0 -287 92t-109 242q0 142 115 239t281 97zM469 345q61 0 113 14.5t94.5 43.5t66.5 78t24 114q0 116 -86.5 183t-211.5 67t-212 -71t-87 -179q0 -117 81 -183.5t218 -66.5zM649 657
q0 -39 -24 -68.5t-63 -43.5l75 -120h-104l-68 109h-59v-109h-96v351h189q66 0 108 -33.5t42 -85.5zM406 703v-97h83q25 0 42 14t17 37q0 20 -16.5 33t-42.5 13h-83z" />
    <glyph glyph-name="macron" unicode="&#xaf;" horiz-adv-x="702" 
d="M47 795v166h608v-166h-608z" />
    <glyph glyph-name="degree" unicode="&#xb0;" horiz-adv-x="624" 
d="M314 528q-113 0 -177 54t-64 147q0 89 63 145t178 56t176 -55t61 -146q0 -90 -65 -145.5t-172 -55.5zM311 629q52 0 81.5 27.5t29.5 71.5q0 49 -29 75.5t-82 26.5q-50 0 -80.5 -27t-31.5 -75q0 -47 31 -73t81 -26z" />
    <glyph glyph-name="plusminus" unicode="&#xb1;" horiz-adv-x="804" 
d="M489 617h242v-169h-242v-205h-174v205h-242v169h242v223h174v-223zM73 17v169h658v-169h-658z" />
    <glyph glyph-name="uni00B2" unicode="&#xb2;" horiz-adv-x="930" 
d="M340 418h518v-158h-769v140q40 62 114.5 118.5t151.5 94.5t148.5 73t117 69.5t45.5 67.5q0 40 -47 65t-151 25q-180 0 -292 -80l-97 115q152 118 403 118q171 0 269.5 -70.5t98.5 -173.5q0 -63 -35.5 -113t-95.5 -85t-124 -63.5t-137 -66t-118 -76.5z" />
    <glyph glyph-name="uni00B3" unicode="&#xb3;" horiz-adv-x="945" 
d="M675 678q108 -26 152.5 -70t45.5 -109q0 -104 -103 -174t-311 -70q-112 0 -218.5 31t-162.5 73l76 135q37 -30 117 -55t176 -25q121 0 181 26t60 65q0 32 -32.5 51.5t-120.5 32t-242 15.5v144q174 0 273 23.5t99 65.5q0 71 -233 71q-91 0 -167 -20.5t-116 -43.5l-73 128
q52 35 157 62t230 27q189 0 288.5 -60.5t99.5 -152.5q0 -117 -176 -170z" />
    <glyph glyph-name="acute" unicode="&#xb4;" horiz-adv-x="442" 
d="M47 775l135 250h213l-233 -250h-115z" />
    <glyph glyph-name="uni00B5" unicode="&#xb5;" horiz-adv-x="852" 
d="M788 309q0 -135 6.5 -188.5t22.5 -97.5l-2 -23h-172q-31 24 -31 68v32q-86 -118 -245 -118q-80 0 -141 42v-291h-178l-1 955q81 19 203 0v-355q0 -182 140 -182q94 0 145 73t51 198v267q39 9 109.5 7t92.5 -7v-380z" />
    <glyph glyph-name="paragraph" unicode="&#xb6;" horiz-adv-x="866" 
d="M251 -132v697q-86 1 -132 48t-46 117q0 67 46 113.5t132 46.5h543v-138h-127v-884h-150v884h-116v-884h-150z" />
    <glyph glyph-name="periodcentered" unicode="&#xb7;" horiz-adv-x="634" 
d="M317 291q-49 0 -85 33.5t-36 77.5t36.5 77.5t84.5 33.5t84.5 -33.5t36.5 -77.5t-36.5 -77.5t-84.5 -33.5z" />
    <glyph glyph-name="cedilla" unicode="&#xb8;" horiz-adv-x="445" 
d="M219 -355q-95 -2 -172 75l110 99q22 -21 45 -21q12 0 19.5 8t7.5 20q0 10 -5.5 20.5t-22 30t-19.5 22.5q-27 34 -38 60.5t-11 61.5h168q0 -23 7 -42.5t15 -30t28 -34.5q46 -53 47 -108q2 -65 -50.5 -113t-128.5 -48z" />
    <glyph glyph-name="uni00B9" unicode="&#xb9;" horiz-adv-x="744" 
d="M479 418h192v-158h-578v158h209v488l-194 -43l-33 133l296 65h108v-643z" />
    <glyph glyph-name="ordmasculine" unicode="&#xba;" horiz-adv-x="570" 
d="M286 666q-87 0 -154 52.5t-67 144.5q0 96 63.5 152t157.5 56q93 0 156 -56t63 -152q0 -62 -33.5 -108t-82.5 -67.5t-103 -21.5zM286 767q39 0 70 24.5t31 71.5q0 46 -28.5 71t-72.5 25q-45 0 -74 -25t-29 -71q0 -47 32 -71.5t71 -24.5z" />
    <glyph glyph-name="guillemotright" unicode="&#xbb;" horiz-adv-x="1312" 
d="M713 502v-121l-582 -298l-58 137l389 220l-389 230l63 133zM662 803l577 -301v-121l-582 -298l-57 137l388 220l-388 230z" />
    <glyph glyph-name="onequarter" unicode="&#xbc;" horiz-adv-x="1353" 
d="M73 442v158h112v282l-98 -34v160l153 53h117v-461h109v-158h-393zM1103 1061h177l-965 -1193h-177zM1170 487v-366h68v-156h-68v-97h-168v97h-238v124l230 398h176zM1032 121l5 213l-109 -213h104z" />
    <glyph glyph-name="onehalf" unicode="&#xbd;" horiz-adv-x="1361" 
d="M73 443v158h112v282l-98 -34v160l153 53h117v-461h109v-158h-393zM1103 1061h177l-965 -1193h-176zM1226 321q0 -42 -20 -84.5t-43 -70t-63.5 -71t-59.5 -66.5h195v-161h-394v148q31 48 82.5 102.5t81.5 91.5t30 66q0 22 -15 35t-39 13q-47 0 -123 -59v151q84 70 179 70
q82 0 135.5 -48.5t53.5 -116.5z" />
    <glyph glyph-name="threequarters" unicode="&#xbe;" horiz-adv-x="1318" 
d="M487 624q0 -67 -48 -118t-145 -51q-45 0 -105.5 22t-95.5 56v137q96 -65 176 -65q28 0 46 15t19 36q-1 28 -39 45.5t-94 21.5v104q112 12 112 62q0 18 -16.5 30t-41.5 12q-65 0 -145 -53v123q74 63 166 63q81 0 129 -41t48 -106q0 -90 -88 -141q122 -51 122 -152z
M1059 1051h178l-965 -1193h-177zM1162 487v-366h68v-156h-68v-97h-168v97h-238v124l230 398h176zM1023 121l6 206l-110 -206h104z" />
    <glyph glyph-name="questiondown" unicode="&#xbf;" horiz-adv-x="958" 
d="M502 702q43 0 76 -30t33 -70q0 -38 -33 -69t-76 -31q-42 0 -74.5 30.5t-32.5 69.5q0 40 32 70t75 30zM569 418q21 -82 2.5 -131t-63.5 -86.5t-91.5 -60t-82.5 -51.5t-36 -61q0 -36 44 -63.5t140 -27.5q159 0 308 100l110 -120q-200 -145 -431 -145q-186 0 -283.5 67.5
t-97.5 173.5q0 50 22 90.5t56.5 67t76 49.5t80.5 42.5t70 40.5t46 50t6 65h124z" />
    <glyph glyph-name="Agrave" unicode="&#xc0;" horiz-adv-x="1095" 
d="M627 974h-125l-226 191h186zM639 906q24 -47 128 -267.5t193 -396.5t124 -212l-13 -30q-164 -3 -227 23q-23 26 -84 159h-446l-76 -182h-227l417 906q37 15 107 14t104 -14zM384 347h305q-24 56 -152 366z" />
    <glyph glyph-name="Aacute" unicode="&#xc1;" horiz-adv-x="1095" 
d="M830 1163l-238 -195h-130l169 195h199zM639 906q24 -47 128 -267.5t193 -396.5t124 -212l-13 -30q-164 -3 -227 23q-23 26 -84 159h-446l-76 -182h-227l417 906q37 15 107 14t104 -14zM384 347h305q-24 56 -152 366z" />
    <glyph glyph-name="Acircumflex" unicode="&#xc2;" horiz-adv-x="1095" 
d="M540 1067l-96 -100h-178l218 223h112l216 -223h-176zM639 906q24 -47 128 -267.5t193 -396.5t124 -212l-13 -30q-164 -3 -227 23q-23 26 -84 159h-446l-76 -182h-227l417 906q37 15 107 14t104 -14zM384 347h305q-24 56 -152 366z" />
    <glyph glyph-name="Atilde" unicode="&#xc3;" horiz-adv-x="1095" 
d="M445 1024q-49 0 -49 -66h-125q0 89 39.5 149t108.5 60q46 0 111 -36t86 -36q51 0 51 66h126q0 -88 -39 -148t-109 -60q-38 0 -76.5 17.5t-70.5 35.5t-53 18zM639 906q24 -47 128 -267.5t193 -396.5t124 -212l-13 -30q-164 -3 -227 23q-23 26 -84 159h-446l-76 -182h-227
l417 906q37 15 107 14t104 -14zM384 347h305q-24 56 -152 366z" />
    <glyph glyph-name="Adieresis" unicode="&#xc4;" horiz-adv-x="1095" 
d="M383 983q-38 0 -67 26.5t-29 62.5q0 34 29 61t67 27t67 -27t29 -61q0 -36 -29 -62.5t-67 -26.5zM691 983q-38 0 -67 26.5t-29 62.5q0 34 29 61t67 27t67 -27t29 -61q0 -36 -29 -62.5t-67 -26.5zM639 906q24 -47 128 -267.5t193 -396.5t124 -212l-13 -30q-164 -3 -227 23
q-23 26 -84 159h-446l-76 -182h-227l417 906q37 15 107 14t104 -14zM384 347h305q-24 56 -152 366z" />
    <glyph glyph-name="Aring" unicode="&#xc5;" horiz-adv-x="1095" 
d="M643 899q24 -47 129 -269.5t191.5 -393t120.5 -206.5l-13 -30q-164 -3 -227 23q-23 26 -84 159h-446l-76 -182h-227l414 899q-57 18 -88 54t-31 85q0 67 60.5 110t171.5 43q109 0 168 -42.5t59 -110.5q0 -47 -32.5 -84t-89.5 -55zM535 1103q-49 0 -80 -18t-31 -48
q0 -29 31 -47t80 -18q48 0 80 19t32 46q0 30 -31.5 48t-80.5 18zM384 347h305q-24 56 -152 366z" />
    <glyph glyph-name="AE" unicode="&#xc6;" horiz-adv-x="1597" 
d="M1552 166q19 -22 20 -78t-20 -88h-776v182h-364l-135 -182h-266l727 906h791q12 -37 -1.5 -89t-34.5 -77h-511v-213h470q10 -40 -3 -94t-34 -71h-433v-196h570zM535 347l241 -1v326z" />
    <glyph glyph-name="Ccedilla" unicode="&#xc7;" horiz-adv-x="1010" 
d="M967 579q-139 -30 -205 -13q4 87 -50.5 139t-148.5 52q-137 -1 -230.5 -91.5t-93.5 -222.5q0 -126 87 -208t236 -83q155 0 288 76q43 -16 72 -62t31 -77q-83 -54 -190 -82t-201 -28h-3q4 -15 15.5 -28.5t29.5 -30t29 -29.5q46 -51 47 -108q2 -65 -50.5 -112.5
t-128.5 -48.5q-95 -2 -172 75l101 94q37 -37 70 -37q16 0 26.5 11t9.5 27q0 15 -11.5 29.5t-31.5 31.5t-30 30q-39 47 -40 110q-178 36 -287.5 158t-109.5 305q0 102 43.5 191t117 150.5t172 97t206.5 35.5q195 1 305 -95.5t97 -255.5z" />
    <glyph glyph-name="Egrave" unicode="&#xc8;" horiz-adv-x="889" 
d="M543 974h-125l-226 191h186zM844 166q19 -22 20 -78t-20 -88h-793v885l22 21h748q12 -37 -1.5 -89t-34.5 -77h-528v-217h487q10 -40 -3 -94.5t-34 -71.5h-450v-191h587z" />
    <glyph glyph-name="Eacute" unicode="&#xc9;" horiz-adv-x="889" 
d="M746 1163l-238 -195h-130l169 195h199zM844 166q19 -22 20 -78t-20 -88h-793v885l22 21h748q12 -37 -1.5 -89t-34.5 -77h-528v-217h487q10 -40 -3 -94.5t-34 -71.5h-450v-191h587z" />
    <glyph glyph-name="Ecircumflex" unicode="&#xca;" horiz-adv-x="889" 
d="M456 1067l-96 -100h-178l218 223h112l216 -223h-176zM844 166q19 -22 20 -78t-20 -88h-793v885l22 21h748q12 -37 -1.5 -89t-34.5 -77h-528v-217h487q10 -40 -3 -94.5t-34 -71.5h-450v-191h587z" />
    <glyph glyph-name="Edieresis" unicode="&#xcb;" horiz-adv-x="889" 
d="M300 983q-38 0 -67 26.5t-29 62.5q0 34 29 61t67 27t67 -27t29 -61q0 -36 -29 -62.5t-67 -26.5zM608 983q-38 0 -67 26.5t-29 62.5q0 34 29 61t67 27t67 -27t29 -61q0 -36 -29 -62.5t-67 -26.5zM844 166q19 -22 20 -78t-20 -88h-793v885l22 21h748q12 -37 -1.5 -89
t-34.5 -77h-528v-217h487q10 -40 -3 -94.5t-34 -71.5h-450v-191h587z" />
    <glyph glyph-name="Igrave" unicode="&#xcc;" horiz-adv-x="301" 
d="M117 974l-226 191h186l165 -191h-125zM51 0v906q38 13 104 11t95 -11v-906h-199z" />
    <glyph glyph-name="Iacute" unicode="&#xcd;" horiz-adv-x="301" 
d="M76 968l169 195h199l-238 -195h-130zM51 0v906q38 13 104 11t95 -11v-906h-199z" />
    <glyph glyph-name="Icircumflex" unicode="&#xce;" horiz-adv-x="301" 
d="M210 1190l216 -223h-176l-96 100l-96 -100h-178l218 223h112zM51 906q38 13 104 11t95 -11v-906h-199v906z" />
    <glyph glyph-name="Idieresis" unicode="&#xcf;" horiz-adv-x="301" 
d="M-2 983q-38 0 -67 26.5t-29 62.5q0 34 29 61t67 27t67 -27t29 -61q0 -36 -29 -62.5t-67 -26.5zM306 983q-38 0 -67 26.5t-29 62.5q0 34 29 61t67 27t67 -27t29 -61q0 -36 -29 -62.5t-67 -26.5zM51 0v906q38 13 104 11t95 -11v-906h-199z" />
    <glyph glyph-name="Eth" unicode="&#xd0;" horiz-adv-x="1055" 
d="M476 930q260 0 407 -127t147 -337q0 -221 -142.5 -352.5t-387.5 -132.5q-138 0 -216 9t-176 36v362h-71v157h71v343q161 42 368 42zM491 147q155 0 240 84.5t85 229.5q0 138 -93.5 221t-256.5 83q-86 0 -152 -9v-211h236v-157h-236v-227q76 -14 177 -14z" />
    <glyph glyph-name="Ntilde" unicode="&#xd1;" horiz-adv-x="1052" 
d="M435 1024q-49 0 -49 -66h-125q0 89 39.5 149t108.5 60q46 0 111 -36t86 -36q51 0 51 66h126q0 -88 -39 -148t-109 -60q-38 0 -76.5 17.5t-70.5 35.5t-53 18zM795 906q40 13 107 10.5t99 -10.5v-906h-155l-589 581v-581h-206v864q20 22 75 37.5t81 7.5l588 -592v589z" />
    <glyph glyph-name="Ograve" unicode="&#xd2;" horiz-adv-x="1052" 
d="M529 984l-226 191h186l165 -191h-125zM480 -18q-202 0 -328.5 122.5t-125.5 304.5q0 146 73.5 266t200 187.5t279.5 67.5q190 0 318.5 -130t129.5 -313q0 -137 -73.5 -253.5t-200 -184t-273.5 -67.5zM494 155q135 0 227 102t92 240q0 116 -69.5 187.5t-187.5 71.5
q-133 0 -225 -99.5t-92 -242.5q0 -110 66.5 -184.5t188.5 -74.5z" />
    <glyph glyph-name="Oacute" unicode="&#xd3;" horiz-adv-x="1052" 
d="M489 978l169 195h199l-238 -195h-130zM480 -18q-202 0 -328.5 122.5t-125.5 304.5q0 146 73.5 266t200 187.5t279.5 67.5q190 0 318.5 -130t129.5 -313q0 -137 -73.5 -253.5t-200 -184t-273.5 -67.5zM494 155q135 0 227 102t92 240q0 116 -69.5 187.5t-187.5 71.5
q-133 0 -225 -99.5t-92 -242.5q0 -110 66.5 -184.5t188.5 -74.5z" />
    <glyph glyph-name="Ocircumflex" unicode="&#xd4;" horiz-adv-x="1052" 
d="M566 1077l-96 -100h-178l218 223h112l216 -223h-176zM1027 487q0 -137 -73.5 -253.5t-200 -184t-273.5 -67.5q-202 0 -328.5 122.5t-125.5 304.5q0 146 73.5 266t200 187.5t279.5 67.5q190 0 318.5 -130t129.5 -313zM494 155q135 0 227 102t92 240q0 116 -69.5 187.5
t-187.5 71.5q-133 0 -225 -99.5t-92 -242.5q0 -110 66.5 -184.5t188.5 -74.5z" />
    <glyph glyph-name="Otilde" unicode="&#xd5;" horiz-adv-x="1052" 
d="M671 963q-49 0 -113.5 35.5t-86.5 35.5q-49 0 -49 -66h-125q0 89 39.5 149t108.5 60q46 0 111 -36t86 -36q51 0 51 66h126q0 -88 -39 -148t-109 -60zM480 -18q-202 0 -328.5 122.5t-125.5 304.5q0 146 73.5 266t200 187.5t279.5 67.5q190 0 318.5 -130t129.5 -313
q0 -137 -73.5 -253.5t-200 -184t-273.5 -67.5zM494 155q135 0 227 102t92 240q0 116 -69.5 187.5t-187.5 71.5q-133 0 -225 -99.5t-92 -242.5q0 -110 66.5 -184.5t188.5 -74.5z" />
    <glyph glyph-name="Odieresis" unicode="&#xd6;" horiz-adv-x="1052" 
d="M410 993q-38 0 -67 26.5t-29 62.5q0 34 29 61t67 27t67 -27t29 -61q0 -36 -29 -62.5t-67 -26.5zM718 993q-38 0 -67 26.5t-29 62.5q0 34 29 61t67 27t67 -27t29 -61q0 -36 -29 -62.5t-67 -26.5zM480 -18q-202 0 -328.5 122.5t-125.5 304.5q0 146 73.5 266t200 187.5
t279.5 67.5q190 0 318.5 -130t129.5 -313q0 -137 -73.5 -253.5t-200 -184t-273.5 -67.5zM494 155q135 0 227 102t92 240q0 116 -69.5 187.5t-187.5 71.5q-133 0 -225 -99.5t-92 -242.5q0 -110 66.5 -184.5t188.5 -74.5z" />
    <glyph glyph-name="multiply" unicode="&#xd7;" horiz-adv-x="975" 
d="M902 616l-280 -206l280 -207h-269l-145 107l-146 -107h-269l280 207l-280 206h269l146 -107l145 107h269z" />
    <glyph glyph-name="Oslash" unicode="&#xd8;" horiz-adv-x="1177" 
d="M999 754q90 -118 90 -267q0 -137 -73.5 -253.5t-200 -184t-273.5 -67.5q-144 0 -254 66l-49 -48h-200l141 140q-93 113 -93 269q0 146 73.5 266t200.5 187.5t280 67.5q143 0 256 -78l40 39h201zM301 414q0 -70 27 -127l435 431q-59 38 -145 38q-133 0 -225 -99.5
t-92 -242.5zM556 155q135 0 226.5 101.5t92.5 240.5q0 62 -21 113l-428 -425q55 -30 130 -30z" />
    <glyph glyph-name="Ugrave" unicode="&#xd9;" horiz-adv-x="1050" 
d="M491 977l-226 191h186l165 -191h-125zM512 -25q-228 0 -344.5 110t-116.5 315v506q36 11 109 9.5t101 -9.5v-514q0 -113 64.5 -178.5t186.5 -65.5q134 0 205 71t71 185v502q39 12 109.5 10t101.5 -10v-504q0 -194 -126 -310.5t-361 -116.5z" />
    <glyph glyph-name="Uacute" unicode="&#xda;" horiz-adv-x="1050" 
d="M451 971l169 195h199l-238 -195h-130zM512 -25q-228 0 -344.5 110t-116.5 315v506q36 11 109 9.5t101 -9.5v-514q0 -113 64.5 -178.5t186.5 -65.5q134 0 205 71t71 185v502q39 12 109.5 10t101.5 -10v-504q0 -194 -126 -310.5t-361 -116.5z" />
    <glyph glyph-name="Ucircumflex" unicode="&#xdb;" horiz-adv-x="1050" 
d="M528 1070l-96 -100h-178l218 223h112l216 -223h-176zM788 906q39 12 109.5 10t101.5 -10v-504q0 -194 -126 -310.5t-361 -116.5q-228 0 -344.5 110t-116.5 315v506q36 11 109 9.5t101 -9.5v-514q0 -113 64.5 -178.5t186.5 -65.5q134 0 205 71t71 185v502z" />
    <glyph glyph-name="Udieresis" unicode="&#xdc;" horiz-adv-x="1050" 
d="M372 986q-38 0 -67 26.5t-29 62.5q0 34 29 61t67 27t67 -27t29 -61q0 -36 -29 -62.5t-67 -26.5zM680 986q-38 0 -67 26.5t-29 62.5q0 34 29 61t67 27t67 -27t29 -61q0 -36 -29 -62.5t-67 -26.5zM512 -25q-228 0 -344.5 110t-116.5 315v506q36 11 109 9.5t101 -9.5v-514
q0 -113 64.5 -178.5t186.5 -65.5q134 0 205 71t71 185v502q39 12 109.5 10t101.5 -10v-504q0 -194 -126 -310.5t-361 -116.5z" />
    <glyph glyph-name="Yacute" unicode="&#xdd;" horiz-adv-x="1008" 
d="M798 1163l-238 -195h-130l169 195h199zM987 906q8 -32 4 -74t-14 -85.5t-37 -96t-65 -105t-98 -113t-136 -119.5v-313h-206v329q-85 122 -211.5 289.5t-208.5 253.5l14 34q50 9 117 10t117 -10q45 -47 139.5 -175.5t167.5 -235.5q108 87 163.5 207t45.5 188q69 40 208 16
z" />
    <glyph glyph-name="Thorn" unicode="&#xde;" horiz-adv-x="940" 
d="M445 827q218 0 344 -96.5t125 -269.5q0 -175 -131.5 -273.5t-347.5 -98.5q-80 0 -165 13v-102h-219v923q40 14 114 12t105 -12v-105q69 9 175 9zM446 255q120 0 187.5 56.5t66.5 153.5q0 196 -263 196q-92 0 -167 -11v-381q64 -14 176 -14z" />
    <glyph glyph-name="germandbls" unicode="&#xdf;" horiz-adv-x="906" 
d="M882 286q3 -142 -87 -222t-224 -82q-120 -2 -243 65q-6 40 9.5 89t54.5 69q69 -50 135 -50q71 1 111 40.5t39 98.5q-1 52 -44.5 87.5t-116.5 35.5q-62 0 -152 -29q-28 23 -25 90.5t20 83.5q30 8 53 11q81 17 115.5 42.5t34.5 66.5t-36 67t-103 26q-72 0 -118.5 -48.5
t-46.5 -119.5v-607h-203v629q0 146 101 230.5t271 84.5q171 -1 258 -71t87 -165q0 -119 -123 -180q103 -20 167 -86t66 -156z" />
    <glyph glyph-name="agrave" unicode="&#xe0;" horiz-adv-x="840" 
d="M540 786h-141l-258 250h212zM780 274q1 -113 9 -163t25 -91l-3 -20h-185q-37 31 -44 91q-124 -109 -294 -109q-106 0 -176.5 53.5t-70.5 134.5q0 79 63.5 141.5t168 96.5t229.5 38q36 0 55 -1q-10 54 -48 83t-97 29q-95 0 -238 -77q-29 11 -50 47t-27 88q160 97 323 99
q170 0 263.5 -85t95.5 -245zM557 306l4 12q-47 2 -70 1q-103 -3 -171.5 -37t-68.5 -79q0 -28 21 -45.5t58 -17.5q79 0 145 51t82 115z" />
    <glyph glyph-name="aacute" unicode="&#xe1;" horiz-adv-x="840" 
d="M707 1036l-218 -250h-130l135 250h213zM780 274q1 -113 9 -163t25 -91l-3 -20h-185q-37 31 -44 91q-124 -109 -294 -109q-106 0 -176.5 53.5t-70.5 134.5q0 79 63.5 141.5t168 96.5t229.5 38q36 0 55 -1q-10 54 -48 83t-97 29q-95 0 -238 -77q-29 11 -50 47t-27 88
q160 97 323 99q170 0 263.5 -85t95.5 -245zM557 306l4 12q-47 2 -70 1q-103 -3 -171.5 -37t-68.5 -79q0 -28 21 -45.5t58 -17.5q79 0 145 51t82 115z" />
    <glyph glyph-name="acircumflex" unicode="&#xe2;" horiz-adv-x="840" 
d="M441 883l-97 -103h-190l235 244h103l234 -244h-189zM780 274q1 -113 9 -163t25 -91l-3 -20h-185q-37 31 -44 91q-124 -109 -294 -109q-106 0 -176.5 53.5t-70.5 134.5q0 79 63.5 141.5t168 96.5t229.5 38q36 0 55 -1q-10 54 -48 83t-97 29q-95 0 -238 -77q-29 11 -50 47
t-27 88q160 97 323 99q170 0 263.5 -85t95.5 -245zM557 306l4 12q-47 2 -70 1q-103 -3 -171.5 -37t-68.5 -79q0 -28 21 -45.5t58 -17.5q79 0 145 51t82 115z" />
    <glyph glyph-name="atilde" unicode="&#xe3;" horiz-adv-x="840" 
d="M348 860q-49 0 -49 -65h-125q0 96 39.5 161t108.5 65q49 0 116.5 -35t88.5 -35q23 0 37.5 15.5t14.5 49.5h125q0 -95 -39 -160.5t-109 -65.5q-39 0 -79.5 17.5t-74 35t-54.5 17.5zM780 274q1 -113 9 -163t25 -91l-3 -20h-185q-37 31 -44 91q-124 -109 -294 -109
q-106 0 -176.5 53.5t-70.5 134.5q0 79 63.5 141.5t168 96.5t229.5 38q36 0 55 -1q-10 54 -48 83t-97 29q-95 0 -238 -77q-29 11 -50 47t-27 88q160 97 323 99q170 0 263.5 -85t95.5 -245zM557 306l4 12q-47 2 -70 1q-103 -3 -171.5 -37t-68.5 -79q0 -28 21 -45.5t58 -17.5
q79 0 145 51t82 115z" />
    <glyph glyph-name="adieresis" unicode="&#xe4;" horiz-adv-x="840" 
d="M269 778q-49 0 -85.5 33.5t-36.5 78.5q0 44 36.5 77.5t85.5 33.5q48 0 84.5 -33.5t36.5 -77.5q0 -45 -36.5 -78.5t-84.5 -33.5zM639 778q-49 0 -85.5 33.5t-36.5 78.5q0 44 36.5 77.5t85.5 33.5q48 0 84.5 -33.5t36.5 -77.5q0 -45 -36.5 -78.5t-84.5 -33.5zM780 274
q1 -113 9 -163t25 -91l-3 -20h-185q-37 31 -44 91q-124 -109 -294 -109q-106 0 -176.5 53.5t-70.5 134.5q0 79 63.5 141.5t168 96.5t229.5 38q36 0 55 -1q-10 54 -48 83t-97 29q-95 0 -238 -77q-29 11 -50 47t-27 88q160 97 323 99q170 0 263.5 -85t95.5 -245zM557 306l4 12
q-47 2 -70 1q-103 -3 -171.5 -37t-68.5 -79q0 -28 21 -45.5t58 -17.5q79 0 145 51t82 115z" />
    <glyph glyph-name="aring" unicode="&#xe5;" horiz-adv-x="840" 
d="M442 765q-108 0 -170 42t-62 112q0 68 60.5 111t171.5 43q109 0 168 -42.5t59 -111.5q0 -67 -63 -110.5t-164 -43.5zM439 985q-49 0 -80 -18t-31 -48q0 -29 31 -47.5t80 -18.5q47 0 79.5 19.5t32.5 46.5q0 30 -31.5 48t-80.5 18zM780 274q1 -113 9 -163t25 -91l-3 -20
h-185q-37 31 -44 91q-124 -109 -294 -109q-106 0 -176.5 53.5t-70.5 134.5q0 79 63.5 141.5t168 96.5t229.5 38q36 0 55 -1q-10 54 -48 83t-97 29q-95 0 -238 -77q-29 11 -50 47t-27 88q160 97 323 99q170 0 263.5 -85t95.5 -245zM557 306l4 12q-47 2 -70 1
q-103 -3 -171.5 -37t-68.5 -79q0 -28 21 -45.5t58 -17.5q79 0 145 51t82 115z" />
    <glyph glyph-name="ae" unicode="&#xe6;" horiz-adv-x="1347" 
d="M968 714q162 0 263.5 -92t89.5 -254l-27 -35l-513 -88q25 -46 73 -71t110 -24q115 2 230 77q31 -12 54 -44t31 -54t8 -26q-156 -119 -346 -121q-95 -1 -175.5 32t-133.5 96q-142 -132 -344 -128q-106 2 -176.5 54.5t-70.5 133.5q0 118 132 194t323 81h51
q-28 106 -135 106q-87 0 -238 -71q-29 11 -50 47t-27 88q160 97 323 99q176 0 266 -99q115 99 282 99zM764 374l348 53q-2 56 -41 93t-103 37q-73 0 -131.5 -51.5t-72.5 -131.5zM548 306l4 12q-40 2 -61 1q-103 -3 -171.5 -37t-68.5 -79q0 -28 21 -45.5t58 -17.5
q76 0 139 50.5t79 115.5z" />
    <glyph glyph-name="ccedilla" unicode="&#xe7;" horiz-adv-x="808" 
d="M782 385q-138 -33 -207 -15q4 83 -35 128.5t-112 46.5q-79 0 -137.5 -59.5t-58.5 -151.5q0 -83 53.5 -133.5t135.5 -49.5q108 2 227 84q39 -12 66 -44t35 -59l8 -26q-139 -107 -299 -122q4 -17 15 -31t30 -31t30 -30q46 -51 47 -108q2 -65 -50.5 -112.5t-128.5 -48.5
q-95 -2 -172 75l101 94q36 -37 70 -37q15 0 25.5 11t10.5 27q0 15 -11.5 29.5t-31.5 31.5t-30 30q-39 48 -40 106q-132 24 -215.5 114.5t-83.5 230.5q0 162 121.5 270.5t294.5 108.5q163 0 258 -92.5t84 -236.5z" />
    <glyph glyph-name="egrave" unicode="&#xe8;" horiz-adv-x="815" 
d="M535 786h-141l-258 250h212zM436 714q162 0 263.5 -92t89.5 -254l-27 -35l-512 -89q25 -45 73 -70t109 -24q115 2 230 77q31 -12 54 -44t31 -54t8 -26q-156 -119 -346 -121q-163 -1 -273.5 91.5t-111.5 255.5q0 164 117.5 274.5t294.5 110.5zM234 383l346 55
q-2 52 -41 85.5t-103 33.5q-70 0 -128 -48.5t-74 -125.5z" />
    <glyph glyph-name="eacute" unicode="&#xe9;" horiz-adv-x="815" 
d="M701 1036l-218 -250h-130l135 250h213zM436 714q162 0 263.5 -92t89.5 -254l-27 -35l-512 -89q25 -45 73 -70t109 -24q115 2 230 77q31 -12 54 -44t31 -54t8 -26q-156 -119 -346 -121q-163 -1 -273.5 91.5t-111.5 255.5q0 164 117.5 274.5t294.5 110.5zM234 383l346 55
q-2 52 -41 85.5t-103 33.5q-70 0 -128 -48.5t-74 -125.5z" />
    <glyph glyph-name="ecircumflex" unicode="&#xea;" horiz-adv-x="815" 
d="M435 883l-97 -103h-190l235 244h103l234 -244h-189zM436 714q162 0 263.5 -92t89.5 -254l-27 -35l-512 -89q25 -45 73 -70t109 -24q115 2 230 77q31 -12 54 -44t31 -54t8 -26q-156 -119 -346 -121q-163 -1 -273.5 91.5t-111.5 255.5q0 164 117.5 274.5t294.5 110.5z
M234 383l346 55q-2 52 -41 85.5t-103 33.5q-70 0 -128 -48.5t-74 -125.5z" />
    <glyph glyph-name="edieresis" unicode="&#xeb;" horiz-adv-x="815" 
d="M264 778q-49 0 -85.5 33.5t-36.5 78.5q0 44 36.5 77.5t85.5 33.5q48 0 84.5 -33.5t36.5 -77.5q0 -45 -36.5 -78.5t-84.5 -33.5zM634 778q-49 0 -85.5 33.5t-36.5 78.5q0 44 36.5 77.5t85.5 33.5q48 0 84.5 -33.5t36.5 -77.5q0 -45 -36.5 -78.5t-84.5 -33.5zM436 714
q162 0 263.5 -92t89.5 -254l-27 -35l-512 -89q25 -45 73 -70t109 -24q115 2 230 77q31 -12 54 -44t31 -54t8 -26q-156 -119 -346 -121q-163 -1 -273.5 91.5t-111.5 255.5q0 164 117.5 274.5t294.5 110.5zM234 383l346 55q-2 52 -41 85.5t-103 33.5q-70 0 -128 -48.5
t-74 -125.5z" />
    <glyph glyph-name="igrave" unicode="&#xec;" horiz-adv-x="317" 
d="M118 786l-258 250h212l187 -250h-141zM57 0v688q33 10 104 10t99 -10v-688h-203z" />
    <glyph glyph-name="iacute" unicode="&#xed;" horiz-adv-x="317" 
d="M77 786l135 250h213l-218 -250h-130zM57 0v688q33 10 104 10t99 -10v-688h-203z" />
    <glyph glyph-name="icircumflex" unicode="&#xee;" horiz-adv-x="317" 
d="M159 883l-97 -103h-190l235 244h103l234 -244h-189zM57 688q33 10 104 10t99 -10v-688h-203v688z" />
    <glyph glyph-name="idieresis" unicode="&#xef;" horiz-adv-x="317" 
d="M-13 778q-49 0 -85.5 33.5t-36.5 78.5q0 44 36.5 77.5t85.5 33.5q48 0 84.5 -33.5t36.5 -77.5q0 -45 -36.5 -78.5t-84.5 -33.5zM357 778q-49 0 -85.5 33.5t-36.5 78.5q0 44 36.5 77.5t85.5 33.5q48 0 84.5 -33.5t36.5 -77.5q0 -45 -36.5 -78.5t-84.5 -33.5zM57 0v688
q33 10 104 10t99 -10v-688h-203z" />
    <glyph glyph-name="eth" unicode="&#xf0;" horiz-adv-x="819" 
d="M593 775q203 -178 202 -412q-1 -75 -26.5 -143t-75.5 -124t-133.5 -89.5t-189.5 -33.5q-157 0 -251.5 89t-94.5 222q1 149 110 249t258 101q77 0 138 -31q-43 57 -104 100q-128 -47 -244 -77q-69 26 -82 109q117 33 178 53q-53 24 -130 53q4 35 31 67t75 51
q113 -35 214 -94q71 38 82 72q47 13 108 3.5t95 -32.5q-14 -59 -160 -133zM382 141q87 0 146.5 67.5t58.5 150.5q0 57 -40 93t-105 36q-86 0 -148 -59.5t-63 -139.5q-1 -64 38.5 -106t112.5 -42z" />
    <glyph glyph-name="ntilde" unicode="&#xf1;" horiz-adv-x="864" 
d="M382 860q-49 0 -49 -65h-125q0 96 39.5 161t108.5 65q49 0 116.5 -35t88.5 -35q23 0 37.5 15.5t14.5 49.5h125q0 -95 -39 -160.5t-109 -65.5q-39 0 -79.5 17.5t-74 35t-54.5 17.5zM503 713q314 0 314 -341v-372h-203v336q0 203 -145 203q-81 0 -143.5 -80t-62.5 -189
v-270h-203v498q0 89 -13 162v28q108 22 193 14q11 -44 11 -83v-6q110 100 252 100z" />
    <glyph glyph-name="ograve" unicode="&#xf2;" horiz-adv-x="855" 
d="M394 786l-258 250h212l187 -250h-141zM405 -18q-178 0 -279.5 97t-101.5 247q0 161 125.5 274.5t308.5 113.5q173 0 271 -92t101 -242q4 -176 -116.5 -287t-308.5 -111zM416 151q87 0 147 64t60 144q0 78 -48 132t-131 54q-88 0 -150 -65t-62 -155q0 -75 48 -124.5
t136 -49.5z" />
    <glyph glyph-name="oacute" unicode="&#xf3;" horiz-adv-x="855" 
d="M353 786l135 250h213l-218 -250h-130zM405 -18q-178 0 -279.5 97t-101.5 247q0 161 125.5 274.5t308.5 113.5q173 0 271 -92t101 -242q4 -176 -116.5 -287t-308.5 -111zM416 151q87 0 147 64t60 144q0 78 -48 132t-131 54q-88 0 -150 -65t-62 -155q0 -75 48 -124.5
t136 -49.5z" />
    <glyph glyph-name="ocircumflex" unicode="&#xf4;" horiz-adv-x="855" 
d="M435 883l-97 -103h-190l235 244h103l234 -244h-189zM830 380q4 -176 -116.5 -287t-308.5 -111q-178 0 -279.5 97t-101.5 247q0 161 125.5 274.5t308.5 113.5q173 0 271 -92t101 -242zM416 151q87 0 147 64t60 144q0 78 -48 132t-131 54q-88 0 -150 -65t-62 -155
q0 -75 48 -124.5t136 -49.5z" />
    <glyph glyph-name="otilde" unicode="&#xf5;" horiz-adv-x="855" 
d="M551 790q-39 0 -79.5 17.5t-74 35t-54.5 17.5q-49 0 -49 -65h-125q0 96 39.5 161t108.5 65q49 0 116.5 -35t88.5 -35q23 0 37.5 15.5t14.5 49.5h125q0 -95 -39 -160.5t-109 -65.5zM405 -18q-178 0 -279.5 97t-101.5 247q0 161 125.5 274.5t308.5 113.5q173 0 271 -92
t101 -242q4 -176 -116.5 -287t-308.5 -111zM416 151q87 0 147 64t60 144q0 78 -48 132t-131 54q-88 0 -150 -65t-62 -155q0 -75 48 -124.5t136 -49.5z" />
    <glyph glyph-name="odieresis" unicode="&#xf6;" horiz-adv-x="855" 
d="M263 778q-49 0 -85.5 33.5t-36.5 78.5q0 44 36.5 77.5t85.5 33.5q48 0 84.5 -33.5t36.5 -77.5q0 -45 -36.5 -78.5t-84.5 -33.5zM633 778q-49 0 -85.5 33.5t-36.5 78.5q0 44 36.5 77.5t85.5 33.5q48 0 84.5 -33.5t36.5 -77.5q0 -45 -36.5 -78.5t-84.5 -33.5zM405 -18
q-178 0 -279.5 97t-101.5 247q0 161 125.5 274.5t308.5 113.5q173 0 271 -92t101 -242q4 -176 -116.5 -287t-308.5 -111zM416 151q87 0 147 64t60 144q0 78 -48 132t-131 54q-88 0 -150 -65t-62 -155q0 -75 48 -124.5t136 -49.5z" />
    <glyph glyph-name="divide" unicode="&#xf7;" horiz-adv-x="813" 
d="M409 586q-50 0 -86 33t-36 79q0 44 36.5 77.5t85.5 33.5t85 -33.5t36 -77.5q0 -46 -36 -79t-85 -33zM73 361v169h667v-169h-667zM409 80q-49 0 -85.5 33t-36.5 78t36.5 78.5t85.5 33.5t85 -33.5t36 -78.5t-36 -78t-85 -33z" />
    <glyph glyph-name="oslash" unicode="&#xf8;" horiz-adv-x="898" 
d="M783 580q61 -82 64 -200q4 -176 -117 -287t-309 -111q-128 0 -220 54l-38 -36h-133v32l81 81q-70 88 -70 213q0 161 125.5 274.5t307.5 113.5q125 0 214 -50l25 24h155l1 -25zM461 545q-89 0 -151 -65t-62 -155q0 -37 14 -73l247 232l38 42q-40 19 -86 19zM433 151
q87 0 147 64t60 144q0 45 -16 81l-254 -233l-22 -31l-7 -6q41 -19 92 -19z" />
    <glyph glyph-name="ugrave" unicode="&#xf9;" horiz-adv-x="853" 
d="M520 786h-141l-258 250h212zM789 254q0 -158 29 -231l-2 -23h-172q-29 29 -36 76q-97 -94 -259 -94q-136 0 -219 77.5t-83 238.5v390q45 10 102 9t101 -9v-354q0 -183 141 -183q92 0 143.5 73t51.5 198v266q36 10 106 9t97 -9v-434z" />
    <glyph glyph-name="uacute" unicode="&#xfa;" horiz-adv-x="853" 
d="M686 1036l-218 -250h-130l135 250h213zM789 254q0 -158 29 -231l-2 -23h-172q-29 29 -36 76q-97 -94 -259 -94q-136 0 -219 77.5t-83 238.5v390q45 10 102 9t101 -9v-354q0 -183 141 -183q92 0 143.5 73t51.5 198v266q36 10 106 9t97 -9v-434z" />
    <glyph glyph-name="ucircumflex" unicode="&#xfb;" horiz-adv-x="853" 
d="M420 883l-97 -103h-190l235 244h103l234 -244h-189zM789 254q0 -158 29 -231l-2 -23h-172q-29 29 -36 76q-97 -94 -259 -94q-136 0 -219 77.5t-83 238.5v390q45 10 102 9t101 -9v-354q0 -183 141 -183q92 0 143.5 73t51.5 198v266q36 10 106 9t97 -9v-434z" />
    <glyph glyph-name="udieresis" unicode="&#xfc;" horiz-adv-x="853" 
d="M248 778q-49 0 -85.5 33.5t-36.5 78.5q0 44 36.5 77.5t85.5 33.5q48 0 84.5 -33.5t36.5 -77.5q0 -45 -36.5 -78.5t-84.5 -33.5zM618 778q-49 0 -85.5 33.5t-36.5 78.5q0 44 36.5 77.5t85.5 33.5q48 0 84.5 -33.5t36.5 -77.5q0 -45 -36.5 -78.5t-84.5 -33.5zM789 254
q0 -158 29 -231l-2 -23h-172q-29 29 -36 76q-97 -94 -259 -94q-136 0 -219 77.5t-83 238.5v390q45 10 102 9t101 -9v-354q0 -183 141 -183q92 0 143.5 73t51.5 198v266q36 10 106 9t97 -9v-434z" />
    <glyph glyph-name="yacute" unicode="&#xfd;" horiz-adv-x="862" 
d="M698 1037l-218 -250h-130l135 250h213zM839 688q10 -45 11.5 -99.5t-7 -116.5t-25 -125.5t-45 -130t-66.5 -128t-90 -120t-113 -105.5q-154 -116 -354 -118q-63 0 -106 18q-34 74 -2 143l36 21q37 -14 74 -13q115 0 248 117q-81 58 -148 133t-107 143t-70 141.5
t-43 120.5t-20 89l11 30q44 10 99 10.5t97 -10.5q72 -335 304 -520q76 108 102 230.5t17 272.5q61 43 197 17z" />
    <glyph glyph-name="thorn" unicode="&#xfe;" horiz-adv-x="852" 
d="M489 714q149 0 244 -94t95 -246q0 -166 -104.5 -279t-268.5 -113q-114 0 -198 60l1 -284q-104 -24 -211 0v1177q34 11 103.5 11t99.5 -11v-329q95 108 239 108zM424 151q87 0 141.5 64.5t54.5 159.5q0 76 -40.5 123t-107.5 47q-90 0 -153.5 -84t-63.5 -186
q0 -43 49.5 -83.5t119.5 -40.5z" />
    <glyph glyph-name="ydieresis" unicode="&#xff;" horiz-adv-x="862" 
d="M260 779q-49 0 -85.5 33.5t-36.5 78.5q0 44 36.5 77.5t85.5 33.5q48 0 84.5 -33.5t36.5 -77.5q0 -45 -36.5 -78.5t-84.5 -33.5zM630 779q-49 0 -85.5 33.5t-36.5 78.5q0 44 36.5 77.5t85.5 33.5q48 0 84.5 -33.5t36.5 -77.5q0 -45 -36.5 -78.5t-84.5 -33.5zM839 688
q10 -45 11.5 -99.5t-7 -116.5t-25 -125.5t-45 -130t-66.5 -128t-90 -120t-113 -105.5q-154 -116 -354 -118q-63 0 -106 18q-34 74 -2 143l36 21q37 -14 74 -13q115 0 248 117q-81 58 -148 133t-107 143t-70 141.5t-43 120.5t-20 89l11 30q44 10 99 10.5t97 -10.5
q72 -335 304 -520q76 108 102 230.5t17 272.5q61 43 197 17z" />
    <glyph glyph-name="Amacron" unicode="&#x100;" horiz-adv-x="1095" 
d="M803 1120v-135h-536v135h536zM639 906q24 -47 128 -267.5t193 -396.5t124 -212l-13 -30q-164 -3 -227 23q-23 26 -84 159h-446l-76 -182h-227l417 906q37 15 107 14t104 -14zM384 347h305q-24 56 -152 366z" />
    <glyph glyph-name="amacron" unicode="&#x101;" horiz-adv-x="840" 
d="M729 962v-151h-568v151h568zM780 274q1 -113 9 -163t25 -91l-3 -20h-185q-37 31 -44 91q-124 -109 -294 -109q-106 0 -176.5 53.5t-70.5 134.5q0 79 63.5 141.5t168 96.5t229.5 38q36 0 55 -1q-10 54 -48 83t-97 29q-95 0 -238 -77q-29 11 -50 47t-27 88q160 97 323 99
q170 0 263.5 -85t95.5 -245zM557 306l4 12q-47 2 -70 1q-103 -3 -171.5 -37t-68.5 -79q0 -28 21 -45.5t58 -17.5q79 0 145 51t82 115z" />
    <glyph glyph-name="Abreve" unicode="&#x102;" horiz-adv-x="1095" 
d="M536 943q-119 0 -190.5 54.5t-71.5 161.5h140q0 -40 32.5 -67t89.5 -27q58 0 90 28t32 66h140q0 -104 -73.5 -160t-188.5 -56zM639 906q24 -47 128 -267.5t193 -396.5t124 -212l-13 -30q-164 -3 -227 23q-23 26 -84 159h-446l-76 -182h-227l417 906q37 15 107 14t104 -14
zM384 347h305q-24 56 -152 366z" />
    <glyph glyph-name="abreve" unicode="&#x103;" horiz-adv-x="840" 
d="M438 765q-130 0 -211.5 60t-81.5 177h152q0 -43 36 -71t105 -28q71 0 107.5 29t36.5 70h152q0 -113 -85 -175t-211 -62zM780 274q1 -113 9 -163t25 -91l-3 -20h-185q-37 31 -44 91q-124 -109 -294 -109q-106 0 -176.5 53.5t-70.5 134.5q0 79 63.5 141.5t168 96.5
t229.5 38q36 0 55 -1q-10 54 -48 83t-97 29q-95 0 -238 -77q-29 11 -50 47t-27 88q160 97 323 99q170 0 263.5 -85t95.5 -245zM557 306l4 12q-47 2 -70 1q-103 -3 -171.5 -37t-68.5 -79q0 -28 21 -45.5t58 -17.5q79 0 145 51t82 115z" />
    <glyph glyph-name="Aogonek" unicode="&#x104;" horiz-adv-x="1095" 
d="M1003 -175l92 -76q-34 -49 -92.5 -82t-113.5 -33q-74 -2 -122 40t-48 122q0 52 33 119.5t87 113.5q-23 31 -79 153h-446l-76 -182h-227l417 906q37 15 107 14t104 -14q24 -47 128 -267.5t193 -396.5t124 -212l-13 -30q-64 -3 -118 2q-88 -102 -88 -173q0 -24 15.5 -36.5
t39.5 -10.5q22 0 45.5 12t37.5 31zM384 347h305q-24 56 -152 366z" />
    <glyph glyph-name="aogonek" unicode="&#x105;" horiz-adv-x="840" 
d="M787 -191l92 -76q-34 -49 -92.5 -82t-113.5 -33q-74 -2 -122 40t-48 122q0 50 31.5 116t82.5 112q-28 26 -35 83q-124 -109 -294 -109q-106 0 -176.5 53.5t-70.5 134.5q0 79 63.5 141.5t168 96.5t229.5 38q36 0 55 -1q-10 54 -48 83t-97 29q-95 0 -238 -77q-29 11 -50 47
t-27 88q160 97 323 99q170 0 263.5 -85t95.5 -245l1 -110q1 -113 9 -163t25 -91l-3 -20h-61q-101 -109 -101 -187q0 -24 15.5 -36.5t39.5 -10.5q22 0 45.5 12t37.5 31zM557 306l4 12q-47 2 -70 1q-103 -3 -171.5 -37t-68.5 -79q0 -28 21 -45.5t58 -17.5q79 0 145 51t82 115z
" />
    <glyph glyph-name="Cacute" unicode="&#x106;" horiz-adv-x="1010" 
d="M490 992l169 195h199l-238 -195h-130zM562 -21q-111 0 -208.5 33t-170.5 93t-115 150.5t-42 200.5q0 102 43.5 191t117 150.5t172 97t206.5 35.5q195 1 305 -95.5t97 -255.5q-139 -30 -205 -13q4 87 -50.5 139t-148.5 52q-137 -1 -230.5 -91.5t-93.5 -222.5
q0 -126 87 -208t236 -83q155 0 288 76q43 -16 72 -62t31 -77q-83 -54 -190 -82t-201 -28z" />
    <glyph glyph-name="cacute" unicode="&#x107;" horiz-adv-x="808" 
d="M346 786l135 250h213l-218 -250h-130zM414 -18q-106 -1 -193.5 39t-142 121.5t-54.5 192.5q0 162 121.5 270.5t294.5 108.5q163 0 258 -92.5t84 -236.5q-138 -33 -207 -15q4 83 -35 128.5t-112 46.5q-79 0 -137.5 -59.5t-58.5 -151.5q0 -83 53.5 -133.5t135.5 -49.5
q108 2 227 84q39 -12 66 -44t35 -59l8 -26q-160 -122 -343 -124z" />
    <glyph glyph-name="Cdotaccent" unicode="&#x10a;" horiz-adv-x="1010" 
d="M565 1006q-39 0 -68 26.5t-29 61.5t29 62t68 27q38 0 67 -27t29 -62t-29 -61.5t-67 -26.5zM562 -21q-111 0 -208.5 33t-170.5 93t-115 150.5t-42 200.5q0 102 43.5 191t117 150.5t172 97t206.5 35.5q195 1 305 -95.5t97 -255.5q-139 -30 -205 -13q4 87 -50.5 139
t-148.5 52q-137 -1 -230.5 -91.5t-93.5 -222.5q0 -126 87 -208t236 -83q155 0 288 76q43 -16 72 -62t31 -77q-83 -54 -190 -82t-201 -28z" />
    <glyph glyph-name="cdotaccent" unicode="&#x10b;" horiz-adv-x="808" 
d="M428 778q-49 0 -85.5 33.5t-36.5 78.5q0 44 36.5 77.5t85.5 33.5q48 0 84.5 -33.5t36.5 -77.5q0 -45 -36.5 -78.5t-84.5 -33.5zM414 -18q-106 -1 -193.5 39t-142 121.5t-54.5 192.5q0 162 121.5 270.5t294.5 108.5q163 0 258 -92.5t84 -236.5q-138 -33 -207 -15
q4 83 -35 128.5t-112 46.5q-79 0 -137.5 -59.5t-58.5 -151.5q0 -83 53.5 -133.5t135.5 -49.5q108 2 227 84q39 -12 66 -44t35 -59l8 -26q-160 -122 -343 -124z" />
    <glyph glyph-name="Ccaron" unicode="&#x10c;" horiz-adv-x="1010" 
d="M616 982h-103l-235 238h190l97 -104l96 104h189zM967 579q-139 -30 -205 -13q4 87 -50.5 139t-148.5 52q-137 -1 -230.5 -91.5t-93.5 -222.5q0 -126 87 -208t236 -83q155 0 288 76q43 -16 72 -62t31 -77q-83 -54 -190 -82t-201 -28q-111 0 -208.5 33t-170.5 93
t-115 150.5t-42 200.5q0 102 43.5 191t117 150.5t172 97t206.5 35.5q195 1 305 -95.5t97 -255.5z" />
    <glyph glyph-name="ccaron" unicode="&#x10d;" horiz-adv-x="808" 
d="M479 786h-103l-235 244h190l97 -110l96 110h189zM782 385q-138 -33 -207 -15q4 83 -35 128.5t-112 46.5q-79 0 -137.5 -59.5t-58.5 -151.5q0 -83 53.5 -133.5t135.5 -49.5q108 2 227 84q39 -12 66 -44t35 -59l8 -26q-160 -122 -343 -124q-106 -1 -193.5 39t-142 121.5
t-54.5 192.5q0 162 121.5 270.5t294.5 108.5q163 0 258 -92.5t84 -236.5z" />
    <glyph glyph-name="Dcaron" unicode="&#x10e;" horiz-adv-x="999" 
d="M471 982h-103l-235 238h190l97 -104l96 104h189zM419 930q260 0 407 -127t147 -337q0 -221 -142.5 -352.5t-387.5 -132.5q-138 0 -216 9t-176 36v862q161 42 368 42zM434 147q156 0 240.5 84.5t84.5 229.5q0 138 -93.5 221t-255.5 83q-87 0 -153 -9v-595q76 -14 177 -14z
" />
    <glyph glyph-name="dcaron" unicode="&#x10f;" horiz-adv-x="1020" 
d="M984 1089h194l-64 -333h-146zM819 935v-741q0 -105 15 -171v-23h-173q-23 32 -35 85q-95 -103 -246 -103q-155 0 -253 98.5t-98 246.5q0 172 105.5 279.5t277.5 107.5q123 0 204 -78v299q30 11 99.5 11t103.5 -11zM404 151q85 0 139 78t54 205q0 44 -46 77t-102 33
q-93 0 -152.5 -57t-59.5 -149q0 -84 47 -135.5t120 -51.5z" />
    <glyph glyph-name="Dcroat" unicode="&#x110;" horiz-adv-x="1055" 
d="M476 930q260 0 407 -127t147 -337q0 -221 -142.5 -352.5t-387.5 -132.5q-138 0 -216 9t-176 36v362h-71v157h71v343q161 42 368 42zM491 147q155 0 240 84.5t85 229.5q0 138 -93.5 221t-256.5 83q-86 0 -152 -9v-211h236v-157h-236v-227q76 -14 177 -14z" />
    <glyph glyph-name="dcroat" unicode="&#x111;" horiz-adv-x="906" 
d="M912 760h-98v-566q0 -107 16 -171v-23h-173q-22 31 -36 85q-93 -103 -246 -103q-155 0 -253 98.5t-98 246.5q0 172 105.5 279.5t277.5 107.5q123 0 204 -78v124h-243v105h243v70q30 11 99 11t104 -11v-70h98v-105zM399 151q86 0 140 78t54 205q0 44 -46.5 77t-102.5 33
q-93 0 -152.5 -57t-59.5 -149q0 -84 47 -135.5t120 -51.5z" />
    <glyph glyph-name="Emacron" unicode="&#x112;" horiz-adv-x="889" 
d="M719 1120v-135h-536v135h536zM844 166q19 -22 20 -78t-20 -88h-793v885l22 21h748q12 -37 -1.5 -89t-34.5 -77h-528v-217h487q10 -40 -3 -94.5t-34 -71.5h-450v-191h587z" />
    <glyph glyph-name="emacron" unicode="&#x113;" horiz-adv-x="815" 
d="M723 962v-151h-568v151h568zM436 714q162 0 263.5 -92t89.5 -254l-27 -35l-512 -89q25 -45 73 -70t109 -24q115 2 230 77q31 -12 54 -44t31 -54t8 -26q-156 -119 -346 -121q-163 -1 -273.5 91.5t-111.5 255.5q0 164 117.5 274.5t294.5 110.5zM234 383l346 55
q-2 52 -41 85.5t-103 33.5q-70 0 -128 -48.5t-74 -125.5z" />
    <glyph glyph-name="Ebreve" unicode="&#x114;" horiz-adv-x="889" 
d="M452 944q-119 0 -190.5 54t-71.5 161h140q0 -39 32.5 -66t89.5 -27q58 0 90 27.5t32 65.5h140q0 -104 -73.5 -159.5t-188.5 -55.5zM844 166q19 -22 20 -78t-20 -88h-793v885l22 21h748q12 -37 -1.5 -89t-34.5 -77h-528v-217h487q10 -40 -3 -94.5t-34 -71.5h-450v-191h587
z" />
    <glyph glyph-name="ebreve" unicode="&#x115;" horiz-adv-x="815" 
d="M433 765q-130 0 -211.5 60t-81.5 177h152q0 -43 36 -71t105 -28q71 0 107.5 29t36.5 70h152q0 -113 -85 -175t-211 -62zM436 714q162 0 263.5 -92t89.5 -254l-27 -35l-512 -89q25 -45 73 -70t109 -24q115 2 230 77q31 -12 54 -44t31 -54t8 -26q-156 -119 -346 -121
q-163 -1 -273.5 91.5t-111.5 255.5q0 164 117.5 274.5t294.5 110.5zM234 383l346 55q-2 52 -41 85.5t-103 33.5q-70 0 -128 -48.5t-74 -125.5z" />
    <glyph glyph-name="Edotaccent" unicode="&#x116;" horiz-adv-x="889" 
d="M453 982q-39 0 -68 26.5t-29 61.5t29 62t68 27q38 0 67 -27t29 -62t-29 -61.5t-67 -26.5zM844 166q19 -22 20 -78t-20 -88h-793v885l22 21h748q12 -37 -1.5 -89t-34.5 -77h-528v-217h487q10 -40 -3 -94.5t-34 -71.5h-450v-191h587z" />
    <glyph glyph-name="edotaccent" unicode="&#x117;" horiz-adv-x="815" 
d="M435 778q-49 0 -85.5 33.5t-36.5 78.5q0 44 36.5 77.5t85.5 33.5q48 0 84.5 -33.5t36.5 -77.5q0 -45 -36.5 -78.5t-84.5 -33.5zM436 714q162 0 263.5 -92t89.5 -254l-27 -35l-512 -89q25 -45 73 -70t109 -24q115 2 230 77q31 -12 54 -44t31 -54t8 -26
q-156 -119 -346 -121q-163 -1 -273.5 91.5t-111.5 255.5q0 164 117.5 274.5t294.5 110.5zM234 383l346 55q-2 52 -41 85.5t-103 33.5q-70 0 -128 -48.5t-74 -125.5z" />
    <glyph glyph-name="Eogonek" unicode="&#x118;" horiz-adv-x="889" 
d="M844 0h-322q-88 -100 -88 -172q0 -24 15.5 -36.5t39.5 -10.5q22 0 45.5 12t37.5 31l92 -76q-34 -49 -92.5 -82t-113.5 -33q-74 -2 -122 40t-48 122q0 44 24.5 102t66.5 103h-328v885l22 21h748q12 -37 -1.5 -89t-34.5 -77h-528v-217h487q10 -40 -3 -94.5t-34 -71.5h-450
v-191h587q19 -22 20 -78t-20 -88z" />
    <glyph glyph-name="eogonek" unicode="&#x119;" horiz-adv-x="815" 
d="M436 714q162 0 263.5 -92t89.5 -254l-27 -35l-512 -89q25 -45 73 -70t109 -24q115 2 230 77q31 -12 54 -44t31 -54t8 -26q-141 -107 -312 -120q-90 -101 -90 -174q0 -24 15.5 -36.5t39.5 -10.5q22 0 45.5 12t37.5 31l92 -76q-34 -49 -92.5 -82t-113.5 -33q-74 -2 -122 40
t-48 122q0 47 27.5 108.5t74.5 107.5q-126 26 -205 113.5t-80 223.5q0 164 117.5 274.5t294.5 110.5zM234 383l346 55q-2 52 -41 85.5t-103 33.5q-70 0 -128 -48.5t-74 -125.5z" />
    <glyph glyph-name="Ecaron" unicode="&#x11a;" horiz-adv-x="889" 
d="M504 957h-103l-235 238h190l97 -104l96 104h189zM844 166q19 -22 20 -78t-20 -88h-793v885l22 21h748q12 -37 -1.5 -89t-34.5 -77h-528v-217h487q10 -40 -3 -94.5t-34 -71.5h-450v-191h587z" />
    <glyph glyph-name="ecaron" unicode="&#x11b;" horiz-adv-x="815" 
d="M486 786h-103l-235 244h190l97 -110l96 110h189zM436 714q162 0 263.5 -92t89.5 -254l-27 -35l-512 -89q25 -45 73 -70t109 -24q115 2 230 77q31 -12 54 -44t31 -54t8 -26q-156 -119 -346 -121q-163 -1 -273.5 91.5t-111.5 255.5q0 164 117.5 274.5t294.5 110.5zM234 383
l346 55q-2 52 -41 85.5t-103 33.5q-70 0 -128 -48.5t-74 -125.5z" />
    <glyph glyph-name="Gbreve" unicode="&#x11e;" horiz-adv-x="1010" 
d="M537 968q-119 0 -190.5 54.5t-71.5 161.5h140q0 -40 32.5 -67t89.5 -27q58 0 90 28t32 66h140q0 -104 -73.5 -160t-188.5 -56zM542 757q-142 0 -222.5 -87t-80.5 -223q0 -129 84.5 -210.5t232.5 -81.5q117 0 209 32v132h-285q-11 39 2 93.5t33 72.5h427l25 -25v-371
q-70 -52 -185 -79.5t-226 -27.5q-230 0 -380 128t-150 346q0 94 35.5 179.5t99.5 151t162 104.5t215 39q189 0 312.5 -93t118.5 -229q-48 -11 -108.5 -16t-107.5 2q-9 79 -68 121t-143 42z" />
    <glyph glyph-name="gbreve" unicode="&#x11f;" horiz-adv-x="863" 
d="M425 759q-130 0 -211.5 60t-81.5 177h152q0 -43 36 -71t105 -28q71 0 107.5 29t36.5 70h152q0 -113 -85 -175t-211 -62zM639 703q69 7 177 -14v-26q-14 -79 -14 -177v-398q0 -180 -106 -281.5t-282 -102.5q-185 0 -360 113q17 110 79 148q163 -93 262 -92t160.5 57
t62.5 149q-43 -45 -105 -71t-130 -26q-157 0 -258 91.5t-101 247.5q1 175 104 283.5t268 108.5q141 0 227 -79zM396 151q85 0 139 75t55 212q-1 37 -50 72t-105 35q-91 0 -146.5 -60.5t-56.5 -148.5q0 -80 44.5 -132.5t119.5 -52.5z" />
    <glyph glyph-name="Gdotaccent" unicode="&#x120;" horiz-adv-x="1010" 
d="M538 1006q-39 0 -68 26.5t-29 61.5t29 62t68 27q38 0 67 -27t29 -62t-29 -61.5t-67 -26.5zM542 757q-142 0 -222.5 -87t-80.5 -223q0 -129 84.5 -210.5t232.5 -81.5q117 0 209 32v132h-285q-11 39 2 93.5t33 72.5h427l25 -25v-371q-70 -52 -185 -79.5t-226 -27.5
q-230 0 -380 128t-150 346q0 94 35.5 179.5t99.5 151t162 104.5t215 39q189 0 312.5 -93t118.5 -229q-48 -11 -108.5 -16t-107.5 2q-9 79 -68 121t-143 42z" />
    <glyph glyph-name="gdotaccent" unicode="&#x121;" horiz-adv-x="863" 
d="M427 772q-49 0 -85.5 33.5t-36.5 78.5q0 44 36.5 77.5t85.5 33.5q48 0 84.5 -33.5t36.5 -77.5q0 -45 -36.5 -78.5t-84.5 -33.5zM639 703q69 7 177 -14v-26q-14 -79 -14 -177v-398q0 -180 -106 -281.5t-282 -102.5q-185 0 -360 113q17 110 79 148q163 -93 262 -92
t160.5 57t62.5 149q-43 -45 -105 -71t-130 -26q-157 0 -258 91.5t-101 247.5q1 175 104 283.5t268 108.5q141 0 227 -79zM396 151q85 0 139 75t55 212q-1 37 -50 72t-105 35q-91 0 -146.5 -60.5t-56.5 -148.5q0 -80 44.5 -132.5t119.5 -52.5z" />
    <glyph glyph-name="uni0122" unicode="&#x122;" horiz-adv-x="1010" 
d="M542 757q-142 0 -222.5 -87t-80.5 -223q0 -129 84.5 -210.5t232.5 -81.5q117 0 209 32v132h-285q-11 39 2 93.5t33 72.5h427l25 -25v-371q-70 -52 -185 -79.5t-226 -27.5q-230 0 -380 128t-150 346q0 94 35.5 179.5t99.5 151t162 104.5t215 39q189 0 312.5 -93
t118.5 -229q-48 -11 -108.5 -16t-107.5 2q-9 79 -68 121t-143 42zM401 -316l38 237h160l-61 -237h-137z" />
    <glyph glyph-name="uni0123" unicode="&#x123;" horiz-adv-x="863" 
d="M562 1078l-61 -260h-160l84 260h137zM639 703q69 7 177 -14v-26q-14 -79 -14 -177v-398q0 -180 -106 -281.5t-282 -102.5q-185 0 -360 113q17 110 79 148q163 -93 262 -92t160.5 57t62.5 149q-43 -45 -105 -71t-130 -26q-157 0 -258 91.5t-101 247.5q1 175 104 283.5
t268 108.5q141 0 227 -79zM396 151q85 0 139 75t55 212q-1 37 -50 72t-105 35q-91 0 -146.5 -60.5t-56.5 -148.5q0 -80 44.5 -132.5t119.5 -52.5z" />
    <glyph glyph-name="Hcircumflex" unicode="&#x124;" horiz-adv-x="934" 
d="M471 1067l-96 -100h-178l218 223h112l216 -223h-176zM677 906q40 13 107 10.5t99 -10.5v-906h-206v331h-420v-331h-206v906q39 13 107 10.5t99 -10.5v-410h420v410z" />
    <glyph glyph-name="hcircumflex" unicode="&#x125;" horiz-adv-x="841" 
d="M435 1072l-97 -103h-190l235 244h103l234 -244h-189zM507 714q299 0 299 -342v-372h-203v347q0 90 -35 138.5t-105 48.5q-87 0 -150 -78.5t-63 -192.5v-263h-203v935q35 11 103.5 11t99.5 -11v-316q106 95 257 95z" />
    <glyph glyph-name="Hbar" unicode="&#x126;" horiz-adv-x="1031" 
d="M992 756v-153h-58v-603h-206v331h-420v-331h-206v603h-63v153h63v150q39 13 107 10.5t99 -10.5v-150h420v150q40 13 107 10.5t99 -10.5v-150h58zM728 496v107h-420v-107h420z" />
    <glyph glyph-name="hbar" unicode="&#x127;" horiz-adv-x="835" 
d="M500 714q299 0 299 -342v-372h-202v347q0 90 -35.5 138.5t-105.5 48.5q-87 0 -150 -78.5t-63 -192.5v-263h-203v777h-68v100h68v58q34 11 103 11t100 -11v-58h332v-100h-332v-158q106 95 257 95z" />
    <glyph glyph-name="Imacron" unicode="&#x12a;" horiz-adv-x="301" 
d="M-29 985v135h359v-135h-359zM51 0v906q38 13 104 11t95 -11v-906h-199z" />
    <glyph glyph-name="imacron" unicode="&#x12b;" horiz-adv-x="317" 
d="M-84 811v151h493v-151h-493zM57 0v688q33 10 104 10t99 -10v-688h-203z" />
    <glyph glyph-name="Iogonek" unicode="&#x12e;" horiz-adv-x="301" 
d="M243 -164l92 -76q-34 -49 -92.5 -82t-113.5 -33q-74 -2 -122 40t-48 122q0 44 25 102t67 104v893q38 13 104 11t95 -11v-906h-68q-77 -92 -77 -160q0 -24 15.5 -36.5t39.5 -10.5q22 0 45.5 12t37.5 31z" />
    <glyph glyph-name="iogonek" unicode="&#x12f;" horiz-adv-x="317" 
d="M159 778q-49 0 -85.5 33.5t-36.5 78.5q0 44 36.5 77.5t85.5 33.5q48 0 84.5 -33.5t36.5 -77.5q0 -45 -36.5 -78.5t-84.5 -33.5zM300 -195l92 -76q-34 -49 -92.5 -82t-113.5 -33q-74 -2 -122 40t-48 122q0 50 30 114t80 110h-69v688q33 10 104 10t99 -10v-685l9 -1
q-107 -113 -107 -193q0 -24 15.5 -36.5t39.5 -10.5q22 0 45.5 12t37.5 31z" />
    <glyph glyph-name="Idotaccent" unicode="&#x130;" horiz-adv-x="301" 
d="M151 982q-39 0 -68 26.5t-29 61.5t29 62t68 27q38 0 67 -27t29 -62t-29 -61.5t-67 -26.5zM51 0v906q38 13 104 11t95 -11v-906h-199z" />
    <glyph glyph-name="dotlessi" unicode="&#x131;" horiz-adv-x="317" 
d="M57 0v688q33 10 104 10t99 -10v-688h-203z" />
    <glyph glyph-name="IJ" unicode="&#x132;" horiz-adv-x="1210" 
d="M51 0v906q38 13 104 11t95 -11v-906h-199zM713 -18q-120 0 -230 47t-196 130q15 49 49.5 89.5t71.5 51.5q58 -68 134 -106.5t153 -38.5q125 0 189 70.5t64 190.5v490q45 12 111.5 10.5t94.5 -10.5v-535q0 -76 -29.5 -145.5t-84 -124t-139.5 -87t-188 -32.5z" />
    <glyph glyph-name="ij" unicode="&#x133;" horiz-adv-x="686" 
d="M504 779q-49 0 -85.5 33.5t-36.5 77.5t37 78t85 34t84.5 -34t36.5 -78t-36.5 -77.5t-84.5 -33.5zM159 778q-49 0 -85.5 33.5t-36.5 78.5q0 44 36.5 77.5t85.5 33.5q48 0 84.5 -33.5t36.5 -77.5q0 -45 -36.5 -78.5t-84.5 -33.5zM57 0v688q33 10 104 10t99 -10v-688h-203z
M388 -260q-54 0 -115 18q-12 37 2.5 93t41.5 83q31 -9 40 -9q28 0 38.5 35.5t10.5 130.5v597q33 10 104.5 10t98.5 -10v-707q0 -110 -58 -176t-163 -65z" />
    <glyph glyph-name="Jcircumflex" unicode="&#x134;" horiz-adv-x="950" 
d="M795 1067l-96 -100h-178l218 223h112l216 -223h-176zM689 906q44 12 111 10.5t95 -10.5v-535q0 -76 -30 -145.5t-84.5 -124t-139.5 -87t-187 -32.5q-121 0 -231 46.5t-196 130.5q16 49 50.5 89.5t71.5 51.5q57 -68 133.5 -106.5t153.5 -38.5q125 0 189 70.5t64 190.5v490
z" />
    <glyph glyph-name="jcircumflex" unicode="&#x135;" horiz-adv-x="369" 
d="M188 883l-97 -103h-190l235 244h103l234 -244h-189zM89 688q33 10 104.5 10t98.5 -10v-707q0 -110 -58 -176t-163 -65q-53 0 -115 18q-12 37 2.5 93t41.5 83q31 -9 40 -9q28 0 38.5 35.5t10.5 130.5v597z" />
    <glyph glyph-name="uni0136" unicode="&#x136;" horiz-adv-x="1075" 
d="M623 453q16 -17 61 -62.5t63 -63.5t56 -55.5t61.5 -59t57.5 -52.5t66.5 -57t67.5 -53l-2 -32q-30 -10 -100 -21t-128 -11q-41 24 -126.5 108.5t-258.5 262.5q-85 -40 -184 -79v-278h-206v906q39 13 107.5 10.5t98.5 -10.5v-441q151 64 245 121q137 79 206.5 160t63.5 152
q86 32 200 9q18 -90 -54 -205.5t-223 -206.5zM365 -307l38 237h160l-61 -237h-137z" />
    <glyph glyph-name="uni0137" unicode="&#x137;" horiz-adv-x="945" 
d="M599 342q35 -33 83.5 -79.5t70.5 -67t52 -48.5t46.5 -41.5t35.5 -27.5t35 -23v-33q-31 -11 -106.5 -20.5t-142.5 -8.5q-29 13 -89.5 70.5t-169.5 170.5q-79 -40 -164 -73v-161h-203v935q41 13 104 13t99 -13v-581q57 27 143 78q107 62 166.5 120t55.5 122q90 29 233 14
q24 -79 -42.5 -170t-206.5 -176zM320 -306l38 237h160l-61 -237h-137z" />
    <glyph glyph-name="kgreenlandic" unicode="&#x138;" horiz-adv-x="945" 
d="M599 342q35 -33 83.5 -79.5t70.5 -67t52 -48.5t46.5 -41.5t35.5 -27.5t35 -23v-33q-31 -11 -106.5 -20.5t-142.5 -8.5q-29 13 -89.5 70.5t-169.5 170.5q-79 -40 -164 -73v-161h-203v688q41 14 104 13.5t99 -13.5v-334q57 27 143 78q229 133 222 249q86 37 233 16
q24 -82 -42.5 -176.5t-206.5 -178.5z" />
    <glyph glyph-name="Lacute" unicode="&#x139;" horiz-adv-x="876" 
d="M79 959l169 195h199l-238 -195h-130zM91 0l-40 38v868q39 13 106 11t100 -11v-740h578q19 -25 19 -79t-19 -87h-744z" />
    <glyph glyph-name="lacute" unicode="&#x13a;" horiz-adv-x="417" 
d="M95 997l169 195h199l-238 -195h-130zM260 -18q-95 -1 -144.5 56t-49.5 170v727q34 12 98.5 12.5t104.5 -12.5v-671q0 -117 58 -117q22 0 46 7q16 -22 22 -70.5t-4 -77.5q-72 -23 -131 -24z" />
    <glyph glyph-name="uni013B" unicode="&#x13b;" horiz-adv-x="876" 
d="M91 0l-40 38v868q39 13 106 11t100 -11v-740h578q19 -25 19 -79t-19 -87h-744zM332 -306l38 237h160l-61 -237h-137z" />
    <glyph glyph-name="uni013C" unicode="&#x13c;" horiz-adv-x="417" 
d="M260 -18q-95 -1 -144.5 56t-49.5 170v727q34 12 98.5 12.5t104.5 -12.5v-671q0 -117 58 -117q22 0 46 7q16 -22 22 -70.5t-4 -77.5q-72 -23 -131 -24zM124 -317l38 237h160l-61 -237h-137z" />
    <glyph glyph-name="Lcaron" unicode="&#x13d;" horiz-adv-x="876" 
d="M576 798l16 333h194l-64 -333h-146zM91 0l-40 38v868q39 13 106 11t100 -11v-740h578q19 -25 19 -79t-19 -87h-744z" />
    <glyph glyph-name="lcaron" unicode="&#x13e;" horiz-adv-x="417" 
d="M395 860l16 333h194l-64 -333h-146zM260 -18q-95 -1 -144.5 56t-49.5 170v727q34 12 98.5 12.5t104.5 -12.5v-671q0 -117 58 -117q22 0 46 7q16 -22 22 -70.5t-4 -77.5q-72 -23 -131 -24z" />
    <glyph glyph-name="Lslash" unicode="&#x141;" horiz-adv-x="970" 
d="M928 166q19 -25 19 -79t-19 -87h-743l-40 38v279l-114 -40v186l114 39v404q39 13 105.5 11t100.5 -11v-333l277 96v-185l-277 -96v-222h577z" />
    <glyph glyph-name="lslash" unicode="&#x142;" horiz-adv-x="443" 
d="M415 524l-130 -55v-205q0 -117 58 -117q22 0 46 7q16 -22 22 -70.5t-4 -77.5q-72 -23 -131 -24q-95 -1 -144.5 56t-49.5 170v176l-96 -40v164l96 40v387q34 12 98.5 12.5t104.5 -12.5v-302l130 55v-164z" />
    <glyph glyph-name="Nacute" unicode="&#x143;" horiz-adv-x="1052" 
d="M820 1163l-238 -195h-130l169 195h199zM795 906q40 13 107 10.5t99 -10.5v-906h-155l-589 581v-581h-206v864q20 22 75 37.5t81 7.5l588 -592v589z" />
    <glyph glyph-name="nacute" unicode="&#x144;" horiz-adv-x="864" 
d="M740 1036l-218 -250h-130l135 250h213zM503 713q314 0 314 -341v-372h-203v336q0 203 -145 203q-81 0 -143.5 -80t-62.5 -189v-270h-203v498q0 89 -13 162v28q108 22 193 14q11 -44 11 -83v-6q110 100 252 100z" />
    <glyph glyph-name="uni0145" unicode="&#x145;" horiz-adv-x="1052" 
d="M795 906q40 13 107 10.5t99 -10.5v-906h-155l-589 581v-581h-206v864q20 22 75 37.5t81 7.5l588 -592v589zM413 -306l38 237h160l-61 -237h-137z" />
    <glyph glyph-name="uni0146" unicode="&#x146;" horiz-adv-x="864" 
d="M503 713q314 0 314 -341v-372h-203v336q0 203 -145 203q-81 0 -143.5 -80t-62.5 -189v-270h-203v498q0 89 -13 162v28q108 22 193 14q11 -44 11 -83v-6q110 100 252 100zM324 -306l38 237h160l-61 -237h-137z" />
    <glyph glyph-name="Ncaron" unicode="&#x147;" horiz-adv-x="1052" 
d="M578 957h-103l-235 238h190l97 -104l96 104h189zM795 906q40 13 107 10.5t99 -10.5v-906h-155l-589 581v-581h-206v864q20 22 75 37.5t81 7.5l588 -592v589z" />
    <glyph glyph-name="ncaron" unicode="&#x148;" horiz-adv-x="864" 
d="M525 786h-103l-235 244h190l97 -110l96 110h189zM503 713q314 0 314 -341v-372h-203v336q0 203 -145 203q-81 0 -143.5 -80t-62.5 -189v-270h-203v498q0 89 -13 162v28q108 22 193 14q11 -44 11 -83v-6q110 100 252 100z" />
    <glyph glyph-name="Eng" unicode="&#x14a;" horiz-adv-x="1049" 
d="M557 -378q-120 0 -230 45t-196 125q15 49 49.5 89.5t71.5 51.5q61 -65 142.5 -101.5t163.5 -36.5q114 0 183 66t69 171l-553 545v-577h-206v851q20 23 75 38.5t81 6.5l585 -577v569q37 13 106 11t100 -11v-884q0 -75 -30 -143.5t-85 -122t-139.5 -85t-186.5 -31.5z" />
    <glyph glyph-name="eng" unicode="&#x14b;" horiz-adv-x="896" 
d="M817 372l1 -391q0 -110 -58 -176t-163 -65q-53 0 -115 18q-12 37 2.5 93t41.5 83q29 -9 40 -9q26 0 37 31t11 110v270q0 190 -145 190q-78 0 -142 -76.5t-64 -179.5v-270h-203v498q0 89 -13 162v28q108 22 193 14q12 -42 16 -99q93 110 247 110q314 0 314 -341z" />
    <glyph glyph-name="Omacron" unicode="&#x14c;" horiz-adv-x="1052" 
d="M294 996v135h536v-135h-536zM480 -18q-202 0 -328.5 122.5t-125.5 304.5q0 146 73.5 266t200 187.5t279.5 67.5q190 0 318.5 -130t129.5 -313q0 -137 -73.5 -253.5t-200 -184t-273.5 -67.5zM494 155q135 0 227 102t92 240q0 116 -69.5 187.5t-187.5 71.5
q-133 0 -225 -99.5t-92 -242.5q0 -110 66.5 -184.5t188.5 -74.5z" />
    <glyph glyph-name="omacron" unicode="&#x14d;" horiz-adv-x="855" 
d="M155 811v151h568v-151h-568zM405 -18q-178 0 -279.5 97t-101.5 247q0 161 125.5 274.5t308.5 113.5q173 0 271 -92t101 -242q4 -176 -116.5 -287t-308.5 -111zM416 151q87 0 147 64t60 144q0 78 -48 132t-131 54q-88 0 -150 -65t-62 -155q0 -75 48 -124.5t136 -49.5z" />
    <glyph glyph-name="Ohungarumlaut" unicode="&#x150;" horiz-adv-x="1052" 
d="M331 984l144 188h187l-209 -188h-122zM570 984l177 188h206l-257 -188h-126zM480 -18q-202 0 -328.5 122.5t-125.5 304.5q0 146 73.5 266t200 187.5t279.5 67.5q190 0 318.5 -130t129.5 -313q0 -137 -73.5 -253.5t-200 -184t-273.5 -67.5zM494 155q135 0 227 102t92 240
q0 116 -69.5 187.5t-187.5 71.5q-133 0 -225 -99.5t-92 -242.5q0 -110 66.5 -184.5t188.5 -74.5z" />
    <glyph glyph-name="ohungarumlaut" unicode="&#x151;" horiz-adv-x="855" 
d="M232 786l129 250h202l-198 -250h-133zM494 786l149 250h214l-229 -250h-134zM405 -18q-178 0 -279.5 97t-101.5 247q0 161 125.5 274.5t308.5 113.5q173 0 271 -92t101 -242q4 -176 -116.5 -287t-308.5 -111zM416 151q87 0 147 64t60 144q0 78 -48 132t-131 54
q-88 0 -150 -65t-62 -155q0 -75 48 -124.5t136 -49.5z" />
    <glyph glyph-name="OE" unicode="&#x152;" horiz-adv-x="1657" 
d="M1612 166q19 -22 20 -78t-20 -88h-789v96q-154 -114 -346 -114q-202 0 -327 122t-124 305q0 146 74 266t202 187.5t281 67.5q131 0 240 -69v7l22 20h744q11 -37 -2.5 -88.5t-33.5 -77.5h-524v-203h482q11 -39 -2.5 -93t-34.5 -72h-445v-188h583zM813 497q1 115 -68.5 187
t-188.5 72q-133 0 -225 -99.5t-92 -242.5q0 -110 66.5 -184.5t188.5 -74.5q135 0 227 102t92 240z" />
    <glyph glyph-name="oe" unicode="&#x153;" horiz-adv-x="1423" 
d="M1045 714q162 0 263.5 -94t89.5 -256l-28 -36l-508 -90q25 -42 72 -65.5t106 -22.5q116 2 231 77q31 -12 54 -44t31 -54t8 -26q-158 -119 -346 -121q-90 -1 -168 29t-131 87q-119 -116 -314 -116q-178 0 -279.5 97t-101.5 247q0 161 125.5 274.5t308.5 113.5
q190 0 291 -112q117 112 296 112zM843 383l347 55q-2 52 -41.5 85.5t-103.5 33.5q-70 0 -128 -48.5t-74 -125.5zM416 151q87 0 147 64t60 144q0 78 -48 132t-131 54q-88 0 -150 -65t-62 -155q0 -75 48 -124.5t136 -49.5z" />
    <glyph glyph-name="Racute" unicode="&#x154;" horiz-adv-x="1052" 
d="M756 1178l-238 -195h-130l169 195h199zM695 316q164 -166 308 -274l-3 -33q-27 -8 -98.5 -16.5t-131.5 -8.5q-27 14 -93.5 76t-220.5 215h-4q-98 0 -195 19v-294h-206v885q186 45 419 45q217 0 338 -86t121 -237q0 -101 -63 -175.5t-171 -115.5zM257 751v-292
q83 -18 196 -18q115 0 188.5 43.5t73.5 126.5q0 69 -68 111.5t-201 42.5q-105 0 -189 -14z" />
    <glyph glyph-name="racute" unicode="&#x155;" horiz-adv-x="626" 
d="M587 1043l-218 -250h-130l135 250h213zM599 687q11 -33 -9.5 -89t-48.5 -86q-51 18 -94 18q-86 -2 -134 -65.5t-48 -177.5v-287h-205v498q0 89 -13 162v28q101 22 180 14q11 -37 11 -83v-25q36 55 93 87.5t128 32.5q68 0 140 -27z" />
    <glyph glyph-name="uni0156" unicode="&#x156;" horiz-adv-x="1052" 
d="M695 316q164 -166 308 -274l-3 -33q-27 -8 -98.5 -16.5t-131.5 -8.5q-27 14 -93.5 76t-220.5 215h-4q-98 0 -195 19v-294h-206v885q186 45 419 45q217 0 338 -86t121 -237q0 -101 -63 -175.5t-171 -115.5zM257 751v-292q83 -18 196 -18q115 0 188.5 43.5t73.5 126.5
q0 69 -68 111.5t-201 42.5q-105 0 -189 -14zM410 -306l38 237h160l-61 -237h-137z" />
    <glyph glyph-name="uni0157" unicode="&#x157;" horiz-adv-x="626" 
d="M599 687q11 -33 -9.5 -89t-48.5 -86q-51 18 -94 18q-86 -2 -134 -65.5t-48 -177.5v-287h-205v498q0 89 -13 162v28q101 22 180 14q11 -37 11 -83v-25q36 55 93 87.5t128 32.5q68 0 140 -27zM39 -306l38 237h160l-61 -237h-137z" />
    <glyph glyph-name="Rcaron" unicode="&#x158;" horiz-adv-x="1052" 
d="M514 973h-103l-235 238h190l97 -104l96 104h189zM695 316q164 -166 308 -274l-3 -33q-27 -8 -98.5 -16.5t-131.5 -8.5q-27 14 -93.5 76t-220.5 215h-4q-98 0 -195 19v-294h-206v885q186 45 419 45q217 0 338 -86t121 -237q0 -101 -63 -175.5t-171 -115.5zM257 751v-292
q83 -18 196 -18q115 0 188.5 43.5t73.5 126.5q0 69 -68 111.5t-201 42.5q-105 0 -189 -14z" />
    <glyph glyph-name="rcaron" unicode="&#x159;" horiz-adv-x="626" 
d="M372 793h-103l-235 244h190l97 -110l96 110h189zM459 714q68 0 140 -27q11 -33 -9.5 -89t-48.5 -86q-51 18 -94 18q-86 -2 -134 -65.5t-48 -177.5v-287h-205v498q0 89 -13 162v28q101 22 180 14q11 -37 11 -83v-25q36 55 93 87.5t128 32.5z" />
    <glyph glyph-name="Sacute" unicode="&#x15a;" horiz-adv-x="985" 
d="M438 992l169 195h199l-238 -195h-130zM523 -18q-289 0 -497 141q2 14 13.5 43t39.5 65t63 45q177 -128 372 -128q115 0 173.5 34t58.5 87q0 56 -57 84.5t-190 33.5q-177 6 -280.5 72t-102.5 189q0 127 114.5 204.5t281.5 77.5q207 0 320.5 -86.5t113.5 -204.5
q-42 -11 -103 -16.5t-105 3.5q-6 63 -62 101t-166 38q-87 0 -134 -31t-47 -79q-1 -50 57 -75.5t144 -28.5q430 -14 430 -270q0 -142 -121 -220.5t-316 -78.5z" />
    <glyph glyph-name="sacute" unicode="&#x15b;" horiz-adv-x="836" 
d="M346 786l135 250h213l-218 -250h-130zM426 -18q-108 0 -212 29t-180 86q9 36 33 78t60 65q65 -44 142.5 -66.5t148.5 -22.5q80 0 127 19t46 49q0 32 -41 42t-156 16q-158 8 -240.5 59t-82.5 142q0 101 96 168.5t257 67.5q93 0 195.5 -20t176.5 -62q-13 -80 -60 -156
q-61 33 -143 51t-148 18q-82 0 -124.5 -19t-42.5 -46q0 -26 37 -37t122 -14q193 -7 277.5 -58.5t84.5 -150.5q0 -106 -104.5 -172t-268.5 -66z" />
    <glyph glyph-name="Scedilla" unicode="&#x15e;" horiz-adv-x="985" 
d="M960 281q0 -135 -110.5 -213t-291.5 -85q3 -17 14 -31t30 -31t30 -30q46 -51 47 -108q2 -65 -50.5 -112.5t-128.5 -48.5q-95 -2 -172 75l101 94q37 -37 70 -37q16 0 26.5 11t9.5 27q0 15 -11.5 29.5t-31.5 31.5t-30 30q-37 47 -40 104q-229 22 -396 136q2 14 13.5 43
t39.5 65t63 45q177 -128 372 -128q115 0 173.5 34t58.5 87q0 56 -57 84.5t-190 33.5q-177 6 -280.5 72t-102.5 189q0 127 114.5 204.5t281.5 77.5q207 0 320.5 -86.5t113.5 -204.5q-42 -11 -103 -16.5t-105 3.5q-6 63 -62 101t-166 38q-87 0 -134 -31t-47 -79
q-1 -50 57 -75.5t144 -28.5q430 -14 430 -270z" />
    <glyph glyph-name="scedilla" unicode="&#x15f;" horiz-adv-x="836" 
d="M799 220q0 -97 -89 -161t-233 -75q6 -19 35.5 -47t37.5 -38q46 -51 47 -108q2 -65 -50.5 -112.5t-128.5 -48.5q-95 -2 -172 75l101 94q36 -37 70 -37q15 0 25.5 11t10.5 27q0 15 -11.5 29.5t-31.5 31.5t-30 30q-36 45 -39 96q-187 19 -307 110q9 36 33 78t60 65
q65 -44 142.5 -66.5t148.5 -22.5q80 0 127 19t46 49q0 32 -41 42t-156 16q-158 8 -240.5 59t-82.5 142q0 101 96 168.5t257 67.5q93 0 195.5 -20t176.5 -62q-13 -80 -60 -156q-61 33 -143 51t-148 18q-82 0 -124.5 -19t-42.5 -46q0 -26 37 -37t122 -14q193 -7 277.5 -58.5
t84.5 -150.5z" />
    <glyph glyph-name="Scaron" unicode="&#x160;" horiz-adv-x="985" 
d="M564 982h-103l-235 238h190l97 -104l96 104h189zM530 551q430 -14 430 -270q0 -142 -121 -220.5t-316 -78.5q-289 0 -497 141q2 14 13.5 43t39.5 65t63 45q177 -128 372 -128q115 0 173.5 34t58.5 87q0 56 -57 84.5t-190 33.5q-177 6 -280.5 72t-102.5 189
q0 127 114.5 204.5t281.5 77.5q207 0 320.5 -86.5t113.5 -204.5q-42 -11 -103 -16.5t-105 3.5q-6 63 -62 101t-166 38q-87 0 -134 -31t-47 -79q-1 -50 57 -75.5t144 -28.5z" />
    <glyph glyph-name="scaron" unicode="&#x161;" horiz-adv-x="836" 
d="M479 786h-103l-235 244h190l97 -110l96 110h189zM437 429q193 -7 277.5 -58.5t84.5 -150.5q0 -106 -104.5 -172t-268.5 -66q-108 0 -212 29t-180 86q9 36 33 78t60 65q65 -44 142.5 -66.5t148.5 -22.5q80 0 127 19t46 49q0 32 -41 42t-156 16q-158 8 -240.5 59t-82.5 142
q0 101 96 168.5t257 67.5q93 0 195.5 -20t176.5 -62q-13 -80 -60 -156q-61 33 -143 51t-148 18q-82 0 -124.5 -19t-42.5 -46q0 -26 37 -37t122 -14z" />
    <glyph glyph-name="uni0162" unicode="&#x162;" horiz-adv-x="1013" 
d="M605 740v-740h-49q0 -22 10.5 -38t32.5 -36t33 -33q46 -51 47 -108q2 -65 -50.5 -112.5t-128.5 -48.5q-95 -2 -172 75l101 94q37 -37 70 -37q16 0 26.5 11t9.5 27q0 15 -11.5 29.5t-31.5 31.5t-30 30q-40 50 -40 115h-31v740h-363q-9 34 -3 85t23 81h939q9 -37 -3 -91
t-33 -75h-346z" />
    <glyph glyph-name="uni0163" unicode="&#x163;" horiz-adv-x="626" 
d="M581 6q-79 -24 -151 -24h-1q8 -15 33.5 -39t35.5 -36q46 -51 47 -108q2 -65 -50.5 -112.5t-128.5 -48.5q-95 -2 -172 75l101 94q36 -37 70 -37q15 0 25.5 11t10.5 27q0 15 -11.5 29.5t-31.5 31.5t-30 30q-39 49 -40 107q-172 71 -172 314v203h-98v165h98v177q32 19 92 29
t110 -1v-205h258v-165h-258v-189q0 -181 134 -182q40 0 97 17q21 -19 32 -76.5t0 -86.5z" />
    <glyph glyph-name="Tcaron" unicode="&#x164;" horiz-adv-x="1013" 
d="M549 957h-103l-235 238h190l97 -104l96 104h189zM987 906q9 -37 -3 -91t-33 -75h-346v-740h-214v740h-363q-9 34 -3 85t23 81h939z" />
    <glyph glyph-name="tcaron" unicode="&#x165;" horiz-adv-x="626" 
d="M477 1130h194l-64 -333h-146zM549 169q21 -19 32 -76.5t0 -86.5q-79 -24 -151 -24q-146 -3 -230 83.5t-84 254.5v203h-98v165h98v177q32 19 92 29t110 -1v-205h258v-165h-258v-189q0 -181 134 -182q40 0 97 17z" />
    <glyph glyph-name="Tbar" unicode="&#x166;" horiz-adv-x="1020" 
d="M970 740h-346v-246h199v-150h-199v-344h-214v344h-193v150h193v246h-363q-9 34 -3 85t23 81h939q9 -37 -3 -91t-33 -75z" />
    <glyph glyph-name="tbar" unicode="&#x167;" horiz-adv-x="623" 
d="M547 169q21 -19 32 -76.5t0 -86.5q-79 -24 -151 -24q-146 -3 -230.5 83.5t-84.5 254.5v7h-97v142h97v91h-97v142h97v163q33 19 93 29t110 -1v-191h258v-142h-258v-91h258v-142h-258q3 -174 134 -175q40 0 97 17z" />
    <glyph glyph-name="Umacron" unicode="&#x16a;" horiz-adv-x="1050" 
d="M256 989v135h536v-135h-536zM512 -25q-228 0 -344.5 110t-116.5 315v506q36 11 109 9.5t101 -9.5v-514q0 -113 64.5 -178.5t186.5 -65.5q134 0 205 71t71 185v502q39 12 109.5 10t101.5 -10v-504q0 -194 -126 -310.5t-361 -116.5z" />
    <glyph glyph-name="umacron" unicode="&#x16b;" horiz-adv-x="853" 
d="M708 962v-151h-568v151h568zM789 254q0 -158 29 -231l-2 -23h-172q-29 29 -36 76q-97 -94 -259 -94q-136 0 -219 77.5t-83 238.5v390q45 10 102 9t101 -9v-354q0 -183 141 -183q92 0 143.5 73t51.5 198v266q36 10 106 9t97 -9v-434z" />
    <glyph glyph-name="Uring" unicode="&#x16e;" horiz-adv-x="1050" 
d="M527 887q-108 0 -170 42t-62 112q0 67 60.5 110t171.5 43q109 0 168 -42.5t59 -110.5q0 -67 -63 -110.5t-164 -43.5zM524 975q48 0 80 19t32 46q0 30 -31.5 48t-80.5 18t-80 -18t-31 -48q0 -29 31 -47t80 -18zM512 -25q-228 0 -344.5 110t-116.5 315v506q36 11 109 9.5
t101 -9.5v-514q0 -113 64.5 -178.5t186.5 -65.5q134 0 205 71t71 185v502q39 12 109.5 10t101.5 -10v-504q0 -194 -126 -310.5t-361 -116.5z" />
    <glyph glyph-name="uring" unicode="&#x16f;" horiz-adv-x="853" 
d="M422 765q-108 0 -170 42t-62 112q0 68 60.5 111t171.5 43q109 0 168 -42.5t59 -111.5q0 -67 -63 -110.5t-164 -43.5zM419 985q-49 0 -80 -18t-31 -48q0 -29 31 -47.5t80 -18.5q47 0 79.5 19.5t32.5 46.5q0 30 -31.5 48t-80.5 18zM789 254q0 -158 29 -231l-2 -23h-172
q-29 29 -36 76q-97 -94 -259 -94q-136 0 -219 77.5t-83 238.5v390q45 10 102 9t101 -9v-354q0 -183 141 -183q92 0 143.5 73t51.5 198v266q36 10 106 9t97 -9v-434z" />
    <glyph glyph-name="Uhungarumlaut" unicode="&#x170;" horiz-adv-x="1050" 
d="M293 977l144 188h187l-209 -188h-122zM532 977l177 188h206l-257 -188h-126zM512 -25q-228 0 -344.5 110t-116.5 315v506q36 11 109 9.5t101 -9.5v-514q0 -113 64.5 -178.5t186.5 -65.5q134 0 205 71t71 185v502q39 12 109.5 10t101.5 -10v-504q0 -194 -126 -310.5
t-361 -116.5z" />
    <glyph glyph-name="uhungarumlaut" unicode="&#x171;" horiz-adv-x="853" 
d="M548 1036l-198 -250h-133l129 250h202zM613 786h-134l149 250h214zM789 688v-434q0 -158 29 -231l-2 -23h-172q-29 29 -36 76q-97 -94 -259 -94q-136 0 -219 77.5t-83 238.5v390q45 10 102 9t101 -9v-354q0 -183 141 -183q92 0 143.5 73t51.5 198v266q36 10 106 9t97 -9z
" />
    <glyph glyph-name="Uogonek" unicode="&#x172;" horiz-adv-x="1050" 
d="M788 906q39 12 109.5 10t101.5 -10v-504q0 -183 -113 -298t-324 -128q-86 -98 -86 -169q0 -24 15.5 -36.5t39.5 -10.5q22 0 45.5 12t37.5 31l92 -76q-34 -49 -92.5 -82t-113.5 -33q-74 -2 -122 40t-48 122q0 44 25 102t67 104q-184 21 -277.5 128.5t-93.5 291.5v506
q36 11 109 9.5t101 -9.5v-514q0 -113 64.5 -178.5t186.5 -65.5q134 0 205 71t71 185v502z" />
    <glyph glyph-name="uogonek" unicode="&#x173;" horiz-adv-x="853" 
d="M802 -191l92 -76q-34 -49 -92.5 -82t-113.5 -33q-74 -2 -122 40t-48 122q0 51 32 117.5t85 112.5q-21 24 -27 66q-97 -94 -259 -94q-136 0 -219 77.5t-83 238.5v390q45 10 102 9t101 -9v-354q0 -183 141 -183q92 0 143.5 73t51.5 198v266q36 10 106 9t97 -9v-434
q0 -158 29 -231l-2 -23h-51q-101 -109 -101 -187q0 -24 15.5 -36.5t39.5 -10.5q22 0 45.5 12t37.5 31z" />
    <glyph glyph-name="Wcircumflex" unicode="&#x174;" horiz-adv-x="1494" 
d="M751 1067l-96 -100h-178l218 223h112l216 -223h-176zM1450 906q22 -81 25.5 -180.5t-14.5 -216t-75.5 -241.5t-150.5 -231l-67 -37h-225l-32 21q-47 146 -93 268q-19 -55 -64 -137.5t-76 -126.5l-52 -25h-213l-49 25q-100 267 -203 514t-150 334l12 33q40 9 95.5 9.5
t99.5 -9.5q122 -218 304 -733h9q62 85 121 198.5t80 184.5q-8 28 -31 94t-25 72q18 28 77.5 53t113.5 19q35 -60 103 -261t108 -360h12q70 85 113 187.5t55.5 199.5t10.5 178.5t-16 152.5q65 40 197 15z" />
    <glyph glyph-name="wcircumflex" unicode="&#x175;" horiz-adv-x="1247" 
d="M630 878l-97 -103h-190l235 244h103l234 -244h-189zM1231 688q28 -128 -28.5 -320.5t-181.5 -350.5l-33 -17h-205l-39 23q-33 102 -80 203q-16 -37 -54.5 -107t-63.5 -103l-30 -16h-228l-32 22q-59 188 -135 372t-115 264l14 30q43 9 98 10t98 -10q43 -80 101 -225.5
t96 -286.5h13q83 163 134 313l-31 80q18 32 75 57.5t115 19.5q100 -213 168 -470h13q70 122 107.5 255.5t21.5 241.5q72 40 202 15z" />
    <glyph glyph-name="Ycircumflex" unicode="&#x176;" horiz-adv-x="1008" 
d="M508 1067l-96 -100h-178l218 223h112l216 -223h-176zM987 906q8 -32 4 -74t-14 -85.5t-37 -96t-65 -105t-98 -113t-136 -119.5v-313h-206v329q-85 122 -211.5 289.5t-208.5 253.5l14 34q50 9 117 10t117 -10q45 -47 139.5 -175.5t167.5 -235.5q108 87 163.5 207t45.5 188
q69 40 208 16z" />
    <glyph glyph-name="ycircumflex" unicode="&#x177;" horiz-adv-x="862" 
d="M432 883l-97 -103h-190l235 244h103l234 -244h-189zM839 688q10 -45 11.5 -99.5t-7 -116.5t-25 -125.5t-45 -130t-66.5 -128t-90 -120t-113 -105.5q-154 -116 -354 -118q-63 0 -106 18q-34 74 -2 143l36 21q37 -14 74 -13q115 0 248 117q-81 58 -148 133t-107 143
t-70 141.5t-43 120.5t-20 89l11 30q44 10 99 10.5t97 -10.5q72 -335 304 -520q76 108 102 230.5t17 272.5q61 43 197 17z" />
    <glyph glyph-name="Ydieresis" unicode="&#x178;" horiz-adv-x="1008" 
d="M351 983q-38 0 -67 26.5t-29 62.5q0 34 29 61t67 27t67 -27t29 -61q0 -36 -29 -62.5t-67 -26.5zM659 983q-38 0 -67 26.5t-29 62.5q0 34 29 61t67 27t67 -27t29 -61q0 -36 -29 -62.5t-67 -26.5zM987 906q8 -32 4 -74t-14 -85.5t-37 -96t-65 -105t-98 -113t-136 -119.5
v-313h-206v329q-85 122 -211.5 289.5t-208.5 253.5l14 34q50 9 117 10t117 -10q45 -47 139.5 -175.5t167.5 -235.5q108 87 163.5 207t45.5 188q69 40 208 16z" />
    <glyph glyph-name="Zacute" unicode="&#x179;" horiz-adv-x="964" 
d="M776 1163l-238 -195h-130l169 195h199zM918 166q20 -22 20.5 -78t-20.5 -88h-852q-19 16 -31.5 63t-7.5 79q313 423 560 598h-530q-20 21 -21 77.5t21 88.5h826q18 -14 31.5 -71.5t8.5 -91.5q-154 -97 -327.5 -264t-285.5 -313h608z" />
    <glyph glyph-name="zacute" unicode="&#x17a;" horiz-adv-x="839" 
d="M687 1036l-218 -250h-130l135 250h213zM802 169q19 -14 19.5 -74.5t-19.5 -94.5h-740q-21 16 -34 64t-10 85q55 63 91 101t90.5 89t117.5 95t138 86h-395q-20 20 -20 76.5t20 91.5h700q19 -16 32 -79t9 -103q-93 -33 -229 -129.5t-240 -207.5h470z" />
    <glyph glyph-name="Zdotaccent" unicode="&#x17b;" horiz-adv-x="964" 
d="M483 982q-39 0 -68 26.5t-29 61.5t29 62t68 27q38 0 67 -27t29 -62t-29 -61.5t-67 -26.5zM918 166q20 -22 20.5 -78t-20.5 -88h-852q-19 16 -31.5 63t-7.5 79q313 423 560 598h-530q-20 21 -21 77.5t21 88.5h826q18 -14 31.5 -71.5t8.5 -91.5q-154 -97 -327.5 -264
t-285.5 -313h608z" />
    <glyph glyph-name="zdotaccent" unicode="&#x17c;" horiz-adv-x="839" 
d="M420 778q-49 0 -85.5 33.5t-36.5 78.5q0 44 36.5 77.5t85.5 33.5q48 0 84.5 -33.5t36.5 -77.5q0 -45 -36.5 -78.5t-84.5 -33.5zM802 169q19 -14 19.5 -74.5t-19.5 -94.5h-740q-21 16 -34 64t-10 85q55 63 91 101t90.5 89t117.5 95t138 86h-395q-20 20 -20 76.5t20 91.5
h700q19 -16 32 -79t9 -103q-93 -33 -229 -129.5t-240 -207.5h470z" />
    <glyph glyph-name="Zcaron" unicode="&#x17d;" horiz-adv-x="964" 
d="M534 957h-103l-235 238h190l97 -104l96 104h189zM918 166q20 -22 20.5 -78t-20.5 -88h-852q-19 16 -31.5 63t-7.5 79q313 423 560 598h-530q-20 21 -21 77.5t21 88.5h826q18 -14 31.5 -71.5t8.5 -91.5q-154 -97 -327.5 -264t-285.5 -313h608z" />
    <glyph glyph-name="zcaron" unicode="&#x17e;" horiz-adv-x="839" 
d="M472 786h-103l-235 244h190l97 -110l96 110h189zM802 169q19 -14 19.5 -74.5t-19.5 -94.5h-740q-21 16 -34 64t-10 85q55 63 91 101t90.5 89t117.5 95t138 86h-395q-20 20 -20 76.5t20 91.5h700q19 -16 32 -79t9 -103q-93 -33 -229 -129.5t-240 -207.5h470z" />
    <glyph glyph-name="longs" unicode="&#x17f;" horiz-adv-x="447" 
d="M96 0v628q0 167 66 250.5t208 84.5q73 0 173 -20q8 -28 -5 -86t-33 -77q-52 15 -94 15q-61 -1 -86.5 -40t-25.5 -118v-637h-203z" />
    <glyph glyph-name="florin" unicode="&#x192;" horiz-adv-x="528" 
d="M455 459v-168h-92q13 -158 13 -266t-69.5 -169.5t-181.5 -61.5v168q28 0 46.5 21t18.5 59q0 80 -15 249h-102v168h89q-8 102 -8 195q0 111 66 170.5t186 59.5v-169q-30 0 -48 -21.5t-18 -60.5q0 -78 8 -174h107z" />
    <glyph glyph-name="uni01C7" unicode="&#x1c7;" horiz-adv-x="1801" 
d="M91 0l-40 38v868q39 13 106 11t100 -11v-740h578q19 -25 19 -79t-19 -87h-744zM1305 -18q-120 0 -230 47t-196 130q15 49 49.5 89.5t71.5 51.5q57 -68 133.5 -106.5t153.5 -38.5q125 0 189 70.5t64 190.5v490q44 12 111 10.5t95 -10.5v-535q0 -76 -29.5 -145.5t-84 -124
t-139.5 -87t-188 -32.5z" />
    <glyph glyph-name="uni01C8" unicode="&#x1c8;" horiz-adv-x="1220" 
d="M1038 779q-49 0 -85 33.5t-36 77.5t36.5 78t84.5 34t84.5 -34t36.5 -78t-36.5 -77.5t-84.5 -33.5zM91 0l-40 38v868q39 13 106 11t100 -11v-740h578q19 -25 19 -79t-19 -87h-744zM922 -260q-54 0 -115 18q-12 36 3 92.5t41 83.5q31 -9 41 -9q27 0 37.5 35.5t10.5 130.5
v597q33 10 104.5 10t98.5 -10v-707q0 -111 -57.5 -176.5t-163.5 -64.5z" />
    <glyph glyph-name="uni01C9" unicode="&#x1c9;" horiz-adv-x="786" 
d="M604 778q-49 0 -85.5 33.5t-36.5 78.5q0 44 36.5 77.5t85.5 33.5q48 0 84.5 -33.5t36.5 -77.5q0 -45 -36.5 -78.5t-84.5 -33.5zM260 -18q-95 -1 -144.5 56t-49.5 170v727q34 12 98.5 12.5t104.5 -12.5v-671q0 -117 58 -117q22 0 46 7q16 -22 22 -70.5t-4 -77.5
q-72 -23 -131 -24zM488 -260q-54 0 -115 18q-12 37 2.5 93t41.5 83q31 -9 40 -9q28 0 38.5 35.5t10.5 130.5v597q33 10 104.5 10t98.5 -10v-707q0 -110 -58 -176t-163 -65z" />
    <glyph glyph-name="uni01CA" unicode="&#x1ca;" horiz-adv-x="1961" 
d="M795 906q40 13 107 10.5t99 -10.5v-906h-155l-589 581v-581h-206v864q20 22 75 37.5t81 7.5l588 -592v589zM1700 906q44 12 111 10.5t95 -10.5v-535q0 -76 -30 -145.5t-84.5 -124t-139.5 -87t-187 -32.5q-120 0 -230 46.5t-197 130.5q16 49 50.5 89.5t71.5 51.5
q57 -68 133.5 -106.5t153.5 -38.5q125 0 189 70.5t64 190.5v490z" />
    <glyph glyph-name="uni01CB" unicode="&#x1cb;" horiz-adv-x="1390" 
d="M1208 779q-48 0 -84.5 33.5t-36.5 77.5t36.5 78t84.5 34t85 -34t37 -78t-37 -77.5t-85 -33.5zM1001 0h-155l-589 581v-581h-206v864q20 22 75 37.5t81 7.5l588 -592v589q40 13 107 10.5t99 -10.5v-906zM1111 688q33 10 104 10t98 -10v-707q0 -111 -57.5 -176.5
t-163.5 -64.5q-52 0 -115 18q-12 37 3 93t41 83q31 -9 41 -9q27 0 38 36t11 130v597z" />
    <glyph glyph-name="uni01CC" unicode="&#x1cc;" horiz-adv-x="1359" 
d="M1067 778q-49 0 -85 33.5t-36 78.5q0 44 36.5 77.5t84.5 33.5t84.5 -33.5t36.5 -77.5q0 -45 -36.5 -78.5t-84.5 -33.5zM503 713q314 0 314 -341v-372h-203v336q0 203 -145 203q-81 0 -143.5 -80t-62.5 -189v-270h-203v498q0 89 -13 162v28q108 22 193 14q11 -44 11 -83
v-6q110 100 252 100zM970 688q33 10 104 10t98 -10v-707q0 -111 -57.5 -176.5t-163.5 -64.5q-52 0 -115 18q-12 37 3 93t41 83q31 -9 41 -9q27 0 38 36t11 130v597z" />
    <glyph glyph-name="uni01CD" unicode="&#x1cd;" horiz-adv-x="1095" 
d="M588 957h-103l-235 239h190l97 -105l96 105h189zM639 906q24 -47 128 -267.5t193 -396.5t124 -212l-13 -30q-164 -3 -227 23q-23 26 -84 159h-446l-76 -182h-227l417 906q37 15 107 14t104 -14zM384 347h305q-24 56 -152 366z" />
    <glyph glyph-name="uni01CE" unicode="&#x1ce;" horiz-adv-x="840" 
d="M492 786h-103l-235 244h190l97 -110l96 110h189zM780 274q1 -113 9 -163t25 -91l-3 -20h-185q-37 31 -44 91q-124 -109 -294 -109q-106 0 -176.5 53.5t-70.5 134.5q0 79 63.5 141.5t168 96.5t229.5 38q36 0 55 -1q-10 54 -48 83t-97 29q-95 0 -238 -77q-29 11 -50 47
t-27 88q160 97 323 99q170 0 263.5 -85t95.5 -245zM557 306l4 12q-47 2 -70 1q-103 -3 -171.5 -37t-68.5 -79q0 -28 21 -45.5t58 -17.5q79 0 145 51t82 115z" />
    <glyph glyph-name="uni01CF" unicode="&#x1cf;" horiz-adv-x="301" 
d="M202 957h-103l-235 238h190l97 -104l96 104h189zM51 906q38 13 104 11t95 -11v-906h-199v906z" />
    <glyph glyph-name="uni01D0" unicode="&#x1d0;" horiz-adv-x="317" 
d="M210 786h-103l-235 244h190l97 -110l96 110h189zM57 688q33 10 104 10t99 -10v-688h-203v688z" />
    <glyph glyph-name="uni01D2" unicode="&#x1d2;" horiz-adv-x="855" 
d="M486 786h-103l-235 245h190l97 -110l96 110h189zM830 380q4 -176 -116.5 -287t-308.5 -111q-178 0 -279.5 97t-101.5 247q0 161 125.5 274.5t308.5 113.5q173 0 271 -92t101 -242zM416 151q87 0 147 64t60 144q0 78 -48 132t-131 54q-88 0 -150 -65t-62 -155
q0 -75 48 -124.5t136 -49.5z" />
    <glyph glyph-name="uni01D3" unicode="&#x1d3;" horiz-adv-x="1050" 
d="M577 960h-103l-235 239h190l97 -105l96 105h189zM788 906q39 12 109.5 10t101.5 -10v-504q0 -194 -126 -310.5t-361 -116.5q-228 0 -344.5 110t-116.5 315v506q36 11 109 9.5t101 -9.5v-514q0 -113 64.5 -178.5t186.5 -65.5q134 0 205 71t71 185v502z" />
    <glyph glyph-name="uni01D4" unicode="&#x1d4;" horiz-adv-x="853" 
d="M472 786h-104l-235 245h191l96 -110l96 110h189zM789 254q0 -158 29 -231l-2 -23h-172q-29 29 -36 76q-97 -94 -259 -94q-136 0 -219 77.5t-83 238.5v390q45 10 102 9t101 -9v-354q0 -183 141 -183q92 0 143.5 73t51.5 198v266q36 10 106 9t97 -9v-434z" />
    <glyph glyph-name="uni01E2" unicode="&#x1e2;" horiz-adv-x="1597" 
d="M1287 1105v-135h-536v135h536zM1552 166q19 -22 20 -78t-20 -88h-776v182h-364l-135 -182h-266l727 906h791q12 -37 -1.5 -89t-34.5 -77h-511v-213h470q10 -40 -3 -94t-34 -71h-433v-196h570zM535 347l241 -1v326z" />
    <glyph glyph-name="uni01E3" unicode="&#x1e3;" horiz-adv-x="1347" 
d="M970 962v-151h-568v151h568zM968 714q162 0 263.5 -92t89.5 -254l-27 -35l-513 -88q25 -46 73 -71t110 -24q115 2 230 77q31 -12 54 -44t31 -54t8 -26q-156 -119 -346 -121q-95 -1 -175.5 32t-133.5 96q-142 -132 -344 -128q-106 2 -176.5 54.5t-70.5 133.5
q0 118 132 194t323 81h51q-28 106 -135 106q-87 0 -238 -71q-29 11 -50 47t-27 88q160 97 323 99q176 0 266 -99q115 99 282 99zM764 374l348 53q-2 56 -41 93t-103 37q-73 0 -131.5 -51.5t-72.5 -131.5zM548 306l4 12q-40 2 -61 1q-103 -3 -171.5 -37t-68.5 -79
q0 -28 21 -45.5t58 -17.5q76 0 139 50.5t79 115.5z" />
    <glyph glyph-name="Gcaron" unicode="&#x1e6;" horiz-adv-x="1032" 
d="M611 982h-103l-235 238h190l97 -104l96 104h189zM564 757q-142 0 -222.5 -87t-80.5 -223q0 -129 84.5 -210.5t232.5 -81.5q117 0 209 32v132h-285q-11 39 2 93.5t32 72.5h428l25 -25v-371q-70 -52 -185 -79.5t-226 -27.5q-150 0 -270 55.5t-190.5 164.5t-70.5 254
q0 94 35.5 179.5t99.5 151t162 104.5t215 39q189 0 312.5 -93t118.5 -229q-48 -11 -108 -16t-107 2q-10 79 -68.5 121t-142.5 42z" />
    <glyph glyph-name="gcaron" unicode="&#x1e7;" horiz-adv-x="863" 
d="M479 780h-103l-235 244h190l97 -110l96 110h189zM639 703q69 7 177 -14v-26q-14 -79 -14 -177v-398q0 -180 -106 -281.5t-282 -102.5q-185 0 -360 113q17 110 79 148q163 -93 262 -92t160.5 57t62.5 149q-43 -45 -105 -71t-130 -26q-157 0 -258 91.5t-101 247.5
q1 175 104 283.5t268 108.5q141 0 227 -79zM396 151q85 0 139 75t55 212q-1 37 -50 72t-105 35q-91 0 -146.5 -60.5t-56.5 -148.5q0 -80 44.5 -132.5t119.5 -52.5z" />
    <glyph glyph-name="uni01E8" unicode="&#x1e8;" horiz-adv-x="1075" 
d="M597 957h-103l-235 239h190l97 -105l96 105h189zM623 453q16 -17 61 -62.5t63 -63.5t56 -55.5t61.5 -59t57.5 -52.5t66.5 -57t67.5 -53l-2 -32q-30 -10 -100 -21t-128 -11q-41 24 -126.5 108.5t-258.5 262.5q-85 -40 -184 -79v-278h-206v906q39 13 107.5 10.5t98.5 -10.5
v-441q151 64 245 121q137 79 206.5 160t63.5 152q86 32 200 9q18 -90 -54 -205.5t-223 -206.5z" />
    <glyph glyph-name="uni01E9" unicode="&#x1e9;" horiz-adv-x="945" 
d="M530 987h-103l-235 244h190l97 -110l96 110h189zM599 342q35 -33 83.5 -79.5t70.5 -67t52 -48.5t46.5 -41.5t35.5 -27.5t35 -23v-33q-31 -11 -106.5 -20.5t-142.5 -8.5q-29 13 -89.5 70.5t-169.5 170.5q-79 -40 -164 -73v-161h-203v935q41 13 104 13t99 -13v-581
q57 27 143 78q107 62 166.5 120t55.5 122q90 29 233 14q24 -79 -42.5 -170t-206.5 -176z" />
    <glyph glyph-name="uni01EB" unicode="&#x1eb;" horiz-adv-x="855" 
d="M830 380q4 -154 -88.5 -259t-245.5 -131q-95 -107 -95 -180q0 -24 15.5 -36.5t39.5 -10.5q22 0 46 12t38 31l91 -76q-34 -49 -92 -82t-114 -33q-74 -2 -122 40t-48 122q0 45 25.5 103.5t68.5 104.5q-153 15 -239 109t-86 232q0 161 125.5 274.5t308.5 113.5
q173 0 271 -92t101 -242zM232 325q0 -75 48 -124.5t136 -49.5q87 0 147 64t60 144q0 78 -48 132t-131 54q-88 0 -150 -65t-62 -155z" />
    <glyph glyph-name="uni01F0" unicode="&#x1f0;" horiz-adv-x="369" 
d="M239 786h-103l-235 244h190l97 -110l96 110h189zM89 688q33 10 104.5 10t98.5 -10v-707q0 -110 -58 -176t-163 -65q-53 0 -115 18q-12 37 2.5 93t41.5 83q31 -9 40 -9q28 0 38.5 35.5t10.5 130.5v597z" />
    <glyph glyph-name="uni01F4" unicode="&#x1f4;" horiz-adv-x="1010" 
d="M831 1187l-237 -195h-130l169 195h198zM542 757q-142 0 -222.5 -87t-80.5 -223q0 -129 84.5 -210.5t232.5 -81.5q117 0 209 32v132h-285q-11 39 2 93.5t33 72.5h427l25 -25v-371q-70 -52 -185 -79.5t-226 -27.5q-230 0 -380 128t-150 346q0 94 35.5 179.5t99.5 151
t162 104.5t215 39q189 0 312.5 -93t118.5 -229q-48 -11 -108.5 -16t-107.5 2q-9 79 -68 121t-143 42z" />
    <glyph glyph-name="uni01F4" unicode="&#x1f5;" horiz-adv-x="1010" 
d="M831 1187l-237 -195h-130l169 195h198zM542 757q-142 0 -222.5 -87t-80.5 -223q0 -129 84.5 -210.5t232.5 -81.5q117 0 209 32v132h-285q-11 39 2 93.5t33 72.5h427l25 -25v-371q-70 -52 -185 -79.5t-226 -27.5q-230 0 -380 128t-150 346q0 94 35.5 179.5t99.5 151
t162 104.5t215 39q189 0 312.5 -93t118.5 -229q-48 -11 -108.5 -16t-107.5 2q-9 79 -68 121t-143 42z" />
    <glyph glyph-name="uni01F8" unicode="&#x1f8;" horiz-adv-x="1052" 
d="M617 974h-125l-226 191h186zM795 906q40 13 107 10.5t99 -10.5v-906h-155l-589 581v-581h-206v864q20 22 75 37.5t81 7.5l588 -592v589z" />
    <glyph glyph-name="uni01F9" unicode="&#x1f9;" horiz-adv-x="864" 
d="M594 786h-141l-258 251h211zM523 713q314 0 314 -341v-372h-203v336q0 203 -145 203q-82 0 -144 -80t-62 -189v-270h-203v498q0 89 -13 162v28q106 22 192 14q11 -37 11 -83v-6q110 100 253 100z" />
    <glyph glyph-name="Aringacute" unicode="&#x1fa;" horiz-adv-x="1095" 
d="M732 1310l-167 -130h-100l79 130h188zM535 921q-97 0 -153 33t-56 86q0 51 55 85t154 34q100 0 152 -33.5t52 -85.5q0 -51 -56 -85t-148 -34zM532 1090q-43 0 -68 -13.5t-25 -36.5q0 -22 26.5 -36t66.5 -14q43 0 68.5 14t25.5 36q0 23 -24 36.5t-70 13.5zM639 906
q24 -47 128 -267.5t193 -396.5t124 -212l-13 -30q-164 -3 -227 23q-23 26 -84 159h-446l-76 -182h-227l417 906q37 15 107 14t104 -14zM384 347h305q-24 56 -152 366z" />
    <glyph glyph-name="aringacute" unicode="&#x1fb;" horiz-adv-x="840" 
d="M630 1128l-167 -131h-100l80 131h187zM434 739q-97 0 -153.5 33t-56.5 85q0 51 55.5 85t154.5 34t151 -33.5t52 -85.5q0 -51 -55.5 -84.5t-147.5 -33.5zM430 907q-43 0 -68 -13.5t-25 -36.5q0 -22 26.5 -36t66.5 -14q43 0 68.5 14t25.5 36q0 23 -24 36.5t-70 13.5z
M780 274q1 -113 9 -163t25 -91l-3 -20h-185q-37 31 -44 91q-124 -109 -294 -109q-106 0 -176.5 53.5t-70.5 134.5q0 79 63.5 141.5t168 96.5t229.5 38q36 0 55 -1q-10 54 -48 83t-97 29q-95 0 -238 -77q-29 11 -50 47t-27 88q160 97 323 99q170 0 263.5 -85t95.5 -245z
M557 306l4 12q-47 2 -70 1q-103 -3 -171.5 -37t-68.5 -79q0 -28 21 -45.5t58 -17.5q79 0 145 51t82 115z" />
    <glyph glyph-name="AEacute" unicode="&#x1fc;" horiz-adv-x="1597" 
d="M1313 1147l-238 -195h-130l169 195h199zM1552 166q19 -22 20 -78t-20 -88h-776v182h-364l-135 -182h-266l727 906h791q12 -37 -1.5 -89t-34.5 -77h-511v-213h470q10 -40 -3 -94t-34 -71h-433v-196h570zM535 347l241 -1v326z" />
    <glyph glyph-name="aeacute" unicode="&#x1fd;" horiz-adv-x="1347" 
d="M948 1036l-218 -250h-130l135 250h213zM968 714q162 0 263.5 -92t89.5 -254l-27 -35l-513 -88q25 -46 73 -71t110 -24q115 2 230 77q31 -12 54 -44t31 -54t8 -26q-156 -119 -346 -121q-95 -1 -175.5 32t-133.5 96q-142 -132 -344 -128q-106 2 -176.5 54.5t-70.5 133.5
q0 118 132 194t323 81h51q-28 106 -135 106q-87 0 -238 -71q-29 11 -50 47t-27 88q160 97 323 99q176 0 266 -99q115 99 282 99zM764 374l348 53q-2 56 -41 93t-103 37q-73 0 -131.5 -51.5t-72.5 -131.5zM548 306l4 12q-40 2 -61 1q-103 -3 -171.5 -37t-68.5 -79
q0 -28 21 -45.5t58 -17.5q76 0 139 50.5t79 115.5z" />
    <glyph glyph-name="Oslashacute" unicode="&#x1fe;" horiz-adv-x="1177" 
d="M918 1173l-238 -195h-130l169 195h199zM999 754q90 -118 90 -267q0 -137 -73.5 -253.5t-200 -184t-273.5 -67.5q-144 0 -254 66l-49 -48h-200l141 140q-93 113 -93 269q0 146 73.5 266t200.5 187.5t280 67.5q143 0 256 -78l40 39h201zM301 414q0 -70 27 -127l435 431
q-59 38 -145 38q-133 0 -225 -99.5t-92 -242.5zM556 155q135 0 226.5 101.5t92.5 240.5q0 62 -21 113l-428 -425q55 -30 130 -30z" />
    <glyph glyph-name="oslashacute" unicode="&#x1ff;" horiz-adv-x="898" 
d="M717 1036l-218 -250h-130l135 250h213zM783 580q61 -82 64 -200q4 -176 -117 -287t-309 -111q-128 0 -220 54l-38 -36h-133v32l81 81q-70 88 -70 213q0 161 125.5 274.5t307.5 113.5q125 0 214 -50l25 24h155l1 -25zM461 545q-89 0 -151 -65t-62 -155q0 -37 14 -73
l247 232l38 42q-40 19 -86 19zM433 151q87 0 147 64t60 144q0 45 -16 81l-254 -233l-22 -31l-7 -6q41 -19 92 -19z" />
    <glyph glyph-name="uni0202" unicode="&#x202;" horiz-adv-x="1095" 
d="M537 1050q-68 0 -103.5 -29t-35.5 -68h-153q0 112 84 173t208 61q128 0 208.5 -59t80.5 -175h-152q0 42 -35.5 69.5t-101.5 27.5zM639 906q24 -47 128 -267.5t193 -396.5t124 -212l-13 -30q-164 -3 -227 23q-23 26 -84 159h-446l-76 -182h-227l417 906q37 15 107 14
t104 -14zM384 347h305q-24 56 -152 366z" />
    <glyph glyph-name="uni0203" unicode="&#x203;" horiz-adv-x="840" 
d="M441 883q-69 0 -104.5 -29t-35.5 -68h-152q0 112 84 173t208 61q128 0 208.5 -59t80.5 -175h-152q0 42 -35.5 69.5t-101.5 27.5zM780 274q1 -113 9 -163t25 -91l-3 -20h-185q-37 31 -44 91q-124 -109 -294 -109q-106 0 -176.5 53.5t-70.5 134.5q0 79 63.5 141.5t168 96.5
t229.5 38q36 0 55 -1q-10 54 -48 83t-97 29q-95 0 -238 -77q-29 11 -50 47t-27 88q160 97 323 99q170 0 263.5 -85t95.5 -245zM557 306l4 12q-47 2 -70 1q-103 -3 -171.5 -37t-68.5 -79q0 -28 21 -45.5t58 -17.5q79 0 145 51t82 115z" />
    <glyph glyph-name="uni0206" unicode="&#x206;" horiz-adv-x="889" 
d="M453 1050q-69 0 -104 -29t-35 -69h-153q0 112 84 173.5t208 61.5q128 0 208.5 -59t80.5 -176h-152q0 42 -35 70t-102 28zM844 166q19 -22 20 -78t-20 -88h-793v885l22 21h748q12 -37 -1.5 -89t-34.5 -77h-528v-217h487q10 -40 -3 -94.5t-34 -71.5h-450v-191h587z" />
    <glyph glyph-name="uni0207" unicode="&#x207;" horiz-adv-x="815" 
d="M436 883q-69 0 -104.5 -29t-35.5 -68h-152q0 112 84 173t208 61q128 0 208.5 -59t80.5 -175h-152q0 42 -35.5 69.5t-101.5 27.5zM436 714q162 0 263.5 -92t89.5 -254l-27 -35l-512 -89q25 -45 73 -70t109 -24q115 2 230 77q31 -12 54 -44t31 -54t8 -26
q-156 -119 -346 -121q-163 -1 -273.5 91.5t-111.5 255.5q0 164 117.5 274.5t294.5 110.5zM234 383l346 55q-2 52 -41 85.5t-103 33.5q-70 0 -128 -48.5t-74 -125.5z" />
    <glyph glyph-name="uni020A" unicode="&#x20a;" horiz-adv-x="88" 
d="M-253 952q0 112 84 173.5t208 61.5q128 0 208.5 -59t80.5 -176h-152q0 42 -35 70t-102 28q-69 0 -104 -29t-35 -69h-153zM-61 0v906q38 13 104 11t95 -11v-906h-199z" />
    <glyph glyph-name="uni020B" unicode="&#x20b;" horiz-adv-x="317" 
d="M-107 786q0 112 76.5 173t189.5 61q117 0 190.5 -59t73.5 -175h-138q0 42 -32.5 69.5t-93.5 27.5q-62 0 -94.5 -29t-32.5 -68h-139zM57 0v688q33 10 104 10t99 -10v-688h-203z" />
    <glyph glyph-name="uni020E" unicode="&#x20e;" horiz-adv-x="1052" 
d="M272 963q0 112 84 173.5t208 61.5q127 0 208 -59.5t81 -175.5h-152q0 42 -35 69.5t-102 27.5q-69 0 -104.5 -28.5t-35.5 -68.5h-152zM480 -18q-202 0 -328.5 122.5t-125.5 304.5q0 146 73.5 266t200 187.5t279.5 67.5q190 0 318.5 -130t129.5 -313q0 -137 -73.5 -253.5
t-200 -184t-273.5 -67.5zM494 155q135 0 227 102t92 240q0 116 -69.5 187.5t-187.5 71.5q-133 0 -225 -99.5t-92 -242.5q0 -110 66.5 -184.5t188.5 -74.5z" />
    <glyph glyph-name="uni020F" unicode="&#x20f;" horiz-adv-x="855" 
d="M144 786q0 112 83.5 173.5t207.5 61.5q128 0 208.5 -59.5t80.5 -175.5h-152q0 42 -35 69.5t-102 27.5q-69 0 -104 -28.5t-35 -68.5h-152zM405 -18q-178 0 -279.5 97t-101.5 247q0 161 125.5 274.5t308.5 113.5q173 0 271 -92t101 -242q4 -176 -116.5 -287t-308.5 -111z
M416 151q87 0 147 64t60 144q0 78 -48 132t-131 54q-88 0 -150 -65t-62 -155q0 -75 48 -124.5t136 -49.5z" />
    <glyph glyph-name="uni0212" unicode="&#x212;" horiz-adv-x="1052" 
d="M463 1065q-69 0 -104 -28.5t-35 -68.5h-152q0 112 83.5 173.5t207.5 61.5q128 0 208.5 -59.5t80.5 -175.5h-151q0 42 -35.5 69.5t-102.5 27.5zM695 316q164 -166 308 -274l-3 -33q-27 -8 -98.5 -16.5t-131.5 -8.5q-27 14 -93.5 76t-220.5 215h-4q-98 0 -195 19v-294h-206
v885q186 45 419 45q217 0 338 -86t121 -237q0 -101 -63 -175.5t-171 -115.5zM257 751v-292q83 -18 196 -18q115 0 188.5 43.5t73.5 126.5q0 69 -68 111.5t-201 42.5q-105 0 -189 -14z" />
    <glyph glyph-name="uni0213" unicode="&#x213;" horiz-adv-x="631" 
d="M328 890q-65 0 -99 -28.5t-34 -68.5h-146q0 112 80 173.5t199 61.5q123 0 200 -59.5t77 -175.5h-145q0 42 -34 69.5t-98 27.5zM603 687q11 -33 -9.5 -89t-47.5 -86q-52 18 -95 18q-86 -2 -134 -66t-48 -177v-287h-205v498q0 89 -13 162v28q101 22 180 14q11 -37 11 -83
v-25q36 55 93 87.5t128 32.5q69 0 140 -27z" />
    <glyph glyph-name="uni0218" unicode="&#x218;" horiz-adv-x="985" 
d="M523 -18q-289 0 -497 141q2 14 13.5 43t39.5 65t63 45q177 -128 372 -128q115 0 173.5 34t58.5 87q0 56 -57 84.5t-190 33.5q-177 6 -280.5 72t-102.5 189q0 127 114.5 204.5t281.5 77.5q207 0 320.5 -86.5t113.5 -204.5q-42 -11 -103 -16.5t-105 3.5q-6 63 -62 101
t-166 38q-87 0 -134 -31t-47 -79q-1 -50 57 -75.5t144 -28.5q430 -14 430 -270q0 -142 -121 -220.5t-316 -78.5zM385 -306l38 237h160l-61 -237h-137z" />
    <glyph glyph-name="uni0219" unicode="&#x219;" horiz-adv-x="836" 
d="M426 -18q-108 0 -212 29t-180 86q9 36 33 78t60 65q65 -44 142.5 -66.5t148.5 -22.5q80 0 127 19t46 49q0 32 -41 42t-156 16q-158 8 -240.5 59t-82.5 142q0 101 96 168.5t257 67.5q93 0 195.5 -20t176.5 -62q-13 -80 -60 -156q-61 33 -143 51t-148 18q-82 0 -124.5 -19
t-42.5 -46q0 -26 37 -37t122 -14q193 -7 277.5 -58.5t84.5 -150.5q0 -106 -104.5 -172t-268.5 -66zM309 -310l38 237h160l-61 -237h-137z" />
    <glyph glyph-name="uni021A" unicode="&#x21a;" horiz-adv-x="1013" 
d="M987 906q9 -37 -3 -91t-33 -75h-346v-740h-214v740h-363q-9 34 -3 85t23 81h939zM385 -304l38 237h160l-61 -237h-137z" />
    <glyph glyph-name="uni021B" unicode="&#x21b;" horiz-adv-x="626" 
d="M549 169q21 -19 32 -76.5t0 -86.5q-79 -24 -151 -24q-146 -3 -230 83.5t-84 254.5v203h-98v165h98v177q32 19 92 29t110 -1v-205h258v-165h-258v-189q0 -181 134 -182q40 0 97 17zM257 -302l38 237h160l-61 -237h-137z" />
    <glyph glyph-name="uni0237" unicode="&#x237;" horiz-adv-x="369" 
d="M71 -260q-53 0 -115 18q-12 37 2.5 93t41.5 83q31 -9 40 -9q28 0 38.5 35.5t10.5 130.5v597q33 10 104.5 10t98.5 -10v-707q0 -110 -58 -176t-163 -65z" />
    <glyph glyph-name="circumflex" unicode="&#x2c6;" horiz-adv-x="666" 
d="M619 775h-189l-96 110l-97 -110h-190l235 244h103z" />
    <glyph glyph-name="caron" unicode="&#x2c7;" horiz-adv-x="666" 
d="M430 1019h189l-234 -244h-103l-235 244h190l97 -110z" />
    <glyph glyph-name="breve" unicode="&#x2d8;" horiz-adv-x="683" 
d="M340 754q-130 0 -211.5 60t-81.5 177h152q0 -43 36 -71t105 -28q71 0 107.5 29t36.5 70h152q0 -113 -85 -175t-211 -62z" />
    <glyph glyph-name="dotaccent" unicode="&#x2d9;" horiz-adv-x="337" 
d="M169 767q-49 0 -85.5 33.5t-36.5 78.5q0 44 36.5 77.5t85.5 33.5q48 0 84.5 -33.5t36.5 -77.5q0 -45 -36.5 -78.5t-84.5 -33.5z" />
    <glyph glyph-name="ring" unicode="&#x2da;" horiz-adv-x="553" 
d="M279 715q-108 0 -170 42t-62 112q0 68 60.5 111t171.5 43q109 0 168 -42.5t59 -111.5q0 -67 -63 -110.5t-164 -43.5zM276 803q48 0 80 19.5t32 46.5q0 30 -31.5 48t-80.5 18t-80 -18t-31 -48q0 -29 31 -47.5t80 -18.5z" />
    <glyph glyph-name="ogonek" unicode="&#x2db;" horiz-adv-x="470" 
d="M217 -381q-74 -2 -122 40t-48 122q0 54 35 124t93 115l125 -13q-107 -113 -107 -193q0 -24 15.5 -36.5t39.5 -10.5q22 0 45.5 12t37.5 31l92 -76q-34 -49 -92.5 -82t-113.5 -33z" />
    <glyph glyph-name="tilde" unicode="&#x2dc;" horiz-adv-x="625" 
d="M429 779q-39 0 -79.5 17.5t-74 35t-54.5 17.5q-49 0 -49 -65h-125q0 96 39.5 161t108.5 65q49 0 116.5 -35t88.5 -35q23 0 37.5 15.5t14.5 49.5h125q0 -95 -39 -160.5t-109 -65.5z" />
    <glyph glyph-name="hungarumlaut" unicode="&#x2dd;" horiz-adv-x="750" 
d="M78 775l129 250h202l-198 -250h-133zM340 775l149 250h214l-229 -250h-134z" />
    <glyph glyph-name="gravecomb" unicode="&#x300;" 
d="M-189 775l-258 250h212l187 -250h-141z" />
    <glyph glyph-name="acutecomb" unicode="&#x301;" 
d="M-395 775l135 250h213l-218 -250h-130z" />
    <glyph glyph-name="uni0302" unicode="&#x302;" 
d="M-47 775h-189l-96 103l-97 -103h-190l235 244h103z" />
    <glyph glyph-name="tildecomb" unicode="&#x303;" 
d="M-196 779q-39 0 -79.5 17.5t-74 35t-54.5 17.5q-49 0 -49 -65h-125q0 96 39.5 161t108.5 65q49 0 116.5 -35t88.5 -35q23 0 37.5 15.5t14.5 49.5h125q0 -95 -39 -160.5t-109 -65.5z" />
    <glyph glyph-name="uni0304" unicode="&#x304;" 
d="M-646 800v151h568v-151h-568z" />
    <glyph glyph-name="uni0306" unicode="&#x306;" 
d="M-343 754q-130 0 -211.5 60t-81.5 177h152q0 -43 36 -71t105 -28q71 0 107.5 29t36.5 70h152q0 -113 -85 -175t-211 -62z" />
    <glyph glyph-name="uni0307" unicode="&#x307;" 
d="M-168 767q-49 0 -85.5 33.5t-36.5 78.5q0 44 36.5 77.5t85.5 33.5q48 0 84.5 -33.5t36.5 -77.5q0 -45 -36.5 -78.5t-84.5 -33.5z" />
    <glyph glyph-name="uni0308" unicode="&#x308;" 
d="M-569 767q-49 0 -85.5 33.5t-36.5 78.5q0 44 36.5 77.5t85.5 33.5q48 0 84.5 -33.5t36.5 -77.5q0 -45 -36.5 -78.5t-84.5 -33.5zM-199 767q-49 0 -85.5 33.5t-36.5 78.5q0 44 36.5 77.5t85.5 33.5q48 0 84.5 -33.5t36.5 -77.5q0 -45 -36.5 -78.5t-84.5 -33.5z" />
    <glyph glyph-name="uni030A" unicode="&#x30a;" 
d="M-274 754q-108 0 -170 42t-62 112q0 68 60.5 111t171.5 43q109 0 168 -42.5t59 -111.5q0 -67 -63 -110.5t-164 -43.5zM-277 842q47 0 79.5 19.5t32.5 46.5q0 30 -31.5 48t-80.5 18t-80 -18t-31 -48q0 -29 31 -47.5t80 -18.5z" />
    <glyph glyph-name="uni030B" unicode="&#x30b;" 
d="M-672 775l129 250h202l-198 -250h-133zM-410 775l149 250h214l-229 -250h-134z" />
    <glyph glyph-name="uni030C" unicode="&#x30c;" 
d="M-236 1019h189l-234 -244h-103l-235 244h190l97 -110z" />
    <glyph glyph-name="uni0311" unicode="&#x311;" 
d="M-628 775q0 112 84 173t208 61q128 0 208.5 -59t80.5 -175h-152q0 42 -35.5 69.5t-101.5 27.5q-69 0 -104.5 -29t-35.5 -68h-152z" />
    <glyph glyph-name="uni0312" unicode="&#x312;" 
d="M-281 819l84 260h137l-61 -260h-160z" />
    <glyph glyph-name="uni0326" unicode="&#x326;" 
d="M-312 -306l38 237h160l-61 -237h-137z" />
    <glyph glyph-name="uni0327" unicode="&#x327;" 
d="M-226 -366q-95 -2 -172 75l101 94q36 -37 70 -37q15 0 25.5 11t10.5 27q0 15 -11.5 29.5t-31.5 31.5t-30 30q-40 50 -40 115h134q0 -22 10.5 -38t32.5 -36t33 -33q46 -51 47 -108q2 -65 -50.5 -112.5t-128.5 -48.5z" />
    <glyph glyph-name="uni0328" unicode="&#x328;" 
d="M-253 -381q-74 -2 -122 40t-48 122q0 54 35 124t93 115l125 -13q-107 -113 -107 -193q0 -24 15.5 -36.5t39.5 -10.5q22 0 45.5 12t37.5 31l92 -76q-34 -49 -92.5 -82t-113.5 -33z" />
    <glyph glyph-name="uni03BC" unicode="&#x3bc;" horiz-adv-x="864" 
d="M798 309q0 -94 4 -151.5t9 -81t15 -53.5l-2 -23h-171q-32 25 -32 68v32q-84 -118 -245 -118q-80 0 -141 42v-291h-178v955q80 19 203 0v-355q0 -182 140 -182q94 0 144.5 73t50.5 198v267q39 9 110 7t93 -7v-380z" />
    <glyph glyph-name="uni1E02" unicode="&#x1e02;" horiz-adv-x="953" 
d="M425 988q-39 0 -68 26.5t-29 61.5t29 62t68 27q38 0 67 -27t29 -62t-29 -61.5t-67 -26.5zM754 551q173 -67 174 -233q0 -157 -120 -246.5t-338 -90.5q-144 0 -233 9.5t-186 35.5v859q184 45 374 45q95 0 168.5 -14t119 -36.5t75 -54.5t41 -64.5t11.5 -68.5
q0 -84 -86 -141zM430 772q-87 0 -173 -14v-184q108 17 254 17h23q100 17 100 82q0 41 -46.5 70t-157.5 29zM455 147q138 0 204 42t65 116q0 59 -58 89.5t-191 30.5q-109 0 -218 -20v-242q88 -16 198 -16z" />
    <glyph glyph-name="uni1E03" unicode="&#x1e03;" horiz-adv-x="868" 
d="M440 974q-49 0 -85.5 33.5t-36.5 78.5q0 44 36.5 77.5t85.5 33.5q48 0 84.5 -33.5t36.5 -77.5q0 -45 -36.5 -78.5t-84.5 -33.5zM505 714q149 0 244 -94t95 -246q0 -166 -104.5 -279t-268.5 -113q-124 0 -212 70q-9 -31 -19 -52h-193v23q16 64 16 171v741q34 11 103.5 11
t99.5 -11v-329q95 108 239 108zM440 151q87 0 141.5 65t54.5 159q0 76 -40.5 123t-107.5 47q-90 0 -153.5 -84t-63.5 -186q0 -43 49 -83.5t120 -40.5z" />
    <glyph glyph-name="uni1E0A" unicode="&#x1e0a;" horiz-adv-x="999" 
d="M420 1006q-39 0 -68 26.5t-29 61.5t29 62t68 27q38 0 67 -27t29 -62t-29 -61.5t-67 -26.5zM419 930q260 0 407 -127t147 -337q0 -221 -142.5 -352.5t-387.5 -132.5q-138 0 -216 9t-176 36v862q161 42 368 42zM434 147q156 0 240.5 84.5t84.5 229.5q0 138 -93.5 221
t-255.5 83q-87 0 -153 -9v-595q76 -14 177 -14z" />
    <glyph glyph-name="uni1E0B" unicode="&#x1e0b;" horiz-adv-x="877" 
d="M411 975q-49 0 -85.5 33.5t-36.5 78.5q0 44 36.5 77.5t85.5 33.5q48 0 84.5 -33.5t36.5 -77.5q0 -45 -36.5 -78.5t-84.5 -33.5zM814 194q0 -107 16 -171v-23h-173q-22 31 -36 85q-93 -103 -246 -103q-155 0 -253 98.5t-98 246.5q0 172 105.5 279.5t277.5 107.5
q123 0 204 -78v299q30 11 99 11t104 -11v-741zM399 151q86 0 140 78t54 205q0 44 -46.5 77t-102.5 33q-93 0 -152.5 -57t-59.5 -149q0 -84 47 -135.5t120 -51.5z" />
    <glyph glyph-name="uni1E1E" unicode="&#x1e1e;" horiz-adv-x="860" 
d="M437 982q-39 0 -68 26.5t-29 61.5t29 62t68 27q38 0 67 -27t29 -62t-29 -61.5t-67 -26.5zM794 739h-537v-255h503q11 -40 -2 -94t-34 -72h-467v-318h-206v886l21 19h758q11 -37 -2 -90t-34 -76z" />
    <glyph glyph-name="uni1E1F" unicode="&#x1e1f;" horiz-adv-x="521" 
d="M345 1011q-49 0 -85.5 33.5t-36.5 78.5q0 44 36.5 77.5t85.5 33.5q48 0 84.5 -33.5t36.5 -77.5q0 -45 -36.5 -78.5t-84.5 -33.5zM454 795q-96 -1 -110 -107h196v-165h-199v-523h-203v523h-144v165h146q11 138 77 206t196 69q72 0 172 -20q8 -28 -5 -86t-32 -77
q-52 15 -94 15z" />
    <glyph glyph-name="uni1E40" unicode="&#x1e40;" horiz-adv-x="1249" 
d="M625 982q-39 0 -68 26.5t-29 61.5t29 62t68 27q38 0 67 -27t29 -62t-29 -61.5t-67 -26.5zM1223 0h-207l-61 549l-265 -427h-135l-264 425l-59 -547h-206l99 875q24 22 90.5 31.5t89.5 -0.5l318 -533l318 533q27 9 91.5 -0.5t89.5 -31.5z" />
    <glyph glyph-name="uni1E41" unicode="&#x1e41;" horiz-adv-x="1233" 
d="M642 778q-49 0 -85.5 33.5t-36.5 78.5q0 44 36.5 77.5t85.5 33.5q48 0 84.5 -33.5t36.5 -77.5q0 -45 -36.5 -78.5t-84.5 -33.5zM927 714q259 0 259 -331v-383h-203v358q0 186 -100 186q-67 0 -115 -66.5t-48 -172.5l1 -305h-196v356q0 188 -100 188q-69 0 -115.5 -68
t-46.5 -181v-295h-203v498q0 89 -13 162v28q106 22 188 14q9 -34 11 -76q93 88 208 88q156 0 215 -126q47 58 115.5 92t142.5 34z" />
    <glyph glyph-name="uni1E56" unicode="&#x1e56;" horiz-adv-x="953" 
d="M466 1003q-39 0 -68 26.5t-29 61.5t29 62t68 27q38 0 67 -27t29 -62t-29 -61.5t-67 -26.5zM466 930q222 0 342 -99t120 -261q0 -164 -131.5 -260.5t-340.5 -96.5q-99 0 -199 16v-229h-206v885q184 45 415 45zM714 569q1 92 -64.5 144t-198.5 52q-106 0 -194 -18v-346
q86 -22 188 -22q124 0 196.5 49.5t72.5 140.5z" />
    <glyph glyph-name="uni1E57" unicode="&#x1e57;" horiz-adv-x="865" 
d="M457 778q-49 0 -85.5 33.5t-36.5 78.5q0 44 36.5 77.5t85.5 33.5q48 0 84.5 -33.5t36.5 -77.5q0 -45 -36.5 -78.5t-84.5 -33.5zM502 714q154 0 246 -95t92 -236q0 -175 -105 -288t-262 -113q-121 0 -208 78v-317q-25 -10 -97 -10t-105 10v743q0 97 -16 183v27
q96 27 179 14l28 -95q107 99 248 99zM437 151q88 0 142 65t54 158q0 79 -41.5 125t-106.5 46q-85 0 -152 -78.5t-67 -193.5q0 -41 51.5 -81.5t119.5 -40.5z" />
    <glyph glyph-name="uni1E60" unicode="&#x1e60;" horiz-adv-x="985" 
d="M513 1006q-39 0 -68 26.5t-29 61.5t29 62t68 27q38 0 67 -27t29 -62t-29 -61.5t-67 -26.5zM523 -18q-289 0 -497 141q2 14 13.5 43t39.5 65t63 45q177 -128 372 -128q115 0 173.5 34t58.5 87q0 56 -57 84.5t-190 33.5q-177 6 -280.5 72t-102.5 189q0 127 114.5 204.5
t281.5 77.5q207 0 320.5 -86.5t113.5 -204.5q-42 -11 -103 -16.5t-105 3.5q-6 63 -62 101t-166 38q-87 0 -134 -31t-47 -79q-1 -50 57 -75.5t144 -28.5q430 -14 430 -270q0 -142 -121 -220.5t-316 -78.5z" />
    <glyph glyph-name="uni1E61" unicode="&#x1e61;" horiz-adv-x="836" 
d="M427 778q-49 0 -85.5 33.5t-36.5 78.5q0 44 36.5 77.5t85.5 33.5q48 0 84.5 -33.5t36.5 -77.5q0 -45 -36.5 -78.5t-84.5 -33.5zM426 -18q-108 0 -212 29t-180 86q9 36 33 78t60 65q65 -44 142.5 -66.5t148.5 -22.5q80 0 127 19t46 49q0 32 -41 42t-156 16
q-158 8 -240.5 59t-82.5 142q0 101 96 168.5t257 67.5q93 0 195.5 -20t176.5 -62q-13 -80 -60 -156q-61 33 -143 51t-148 18q-82 0 -124.5 -19t-42.5 -46q0 -26 37 -37t122 -14q193 -7 277.5 -58.5t84.5 -150.5q0 -106 -104.5 -172t-268.5 -66z" />
    <glyph glyph-name="uni1E6A" unicode="&#x1e6a;" horiz-adv-x="1013" 
d="M497 982q-39 0 -68 26.5t-29 61.5t29 62t68 27q38 0 67 -27t29 -62t-29 -61.5t-67 -26.5zM987 906q9 -37 -3 -91t-33 -75h-346v-740h-214v740h-363q-9 34 -3 85t23 81h939z" />
    <glyph glyph-name="uni1E6B" unicode="&#x1e6b;" horiz-adv-x="626" 
d="M226 968q-49 0 -85.5 33.5t-36.5 78.5q0 44 36.5 77.5t85.5 33.5q48 0 84.5 -33.5t36.5 -77.5q0 -45 -36.5 -78.5t-84.5 -33.5zM549 169q21 -19 32 -76.5t0 -86.5q-79 -24 -151 -24q-146 -3 -230 83.5t-84 254.5v203h-98v165h98v177q32 19 92 29t110 -1v-205h258v-165
h-258v-189q0 -181 134 -182q40 0 97 17z" />
    <glyph glyph-name="Wgrave" unicode="&#x1e80;" horiz-adv-x="1494" 
d="M713 974l-226 191h186l165 -191h-125zM413 0l-49 25q-100 267 -203 514t-150 334l12 33q40 9 95.5 9.5t99.5 -9.5q122 -218 304 -733h9q62 85 121 198.5t80 184.5q-8 28 -31 94t-25 72q18 28 77.5 53t113.5 19q35 -60 103 -261t108 -360h12q70 85 113 187.5t55.5 199.5
t10.5 178.5t-16 152.5q65 40 197 15q22 -81 25.5 -180.5t-14.5 -216t-75.5 -241.5t-150.5 -231l-67 -37h-225l-32 21q-47 146 -93 268q-19 -55 -64 -137.5t-76 -126.5l-52 -25h-213z" />
    <glyph glyph-name="wgrave" unicode="&#x1e81;" horiz-adv-x="1247" 
d="M589 781l-258 250h212l187 -250h-141zM288 0l-32 22q-59 188 -135 372t-115 264l14 30q43 9 98 10t98 -10q43 -80 101 -225.5t96 -286.5h13q83 163 134 313l-31 80q18 32 75 57.5t115 19.5q100 -213 168 -470h13q70 122 107.5 255.5t21.5 241.5q72 40 202 15
q28 -128 -28.5 -320.5t-181.5 -350.5l-33 -17h-205l-39 23q-33 102 -80 203q-16 -37 -54.5 -107t-63.5 -103l-30 -16h-228z" />
    <glyph glyph-name="Wacute" unicode="&#x1e82;" horiz-adv-x="1494" 
d="M673 968l169 195h199l-238 -195h-130zM413 0l-49 25q-100 267 -203 514t-150 334l12 33q40 9 95.5 9.5t99.5 -9.5q122 -218 304 -733h9q62 85 121 198.5t80 184.5q-8 28 -31 94t-25 72q18 28 77.5 53t113.5 19q35 -60 103 -261t108 -360h12q70 85 113 187.5t55.5 199.5
t10.5 178.5t-16 152.5q65 40 197 15q22 -81 25.5 -180.5t-14.5 -216t-75.5 -241.5t-150.5 -231l-67 -37h-225l-32 21q-47 146 -93 268q-19 -55 -64 -137.5t-76 -126.5l-52 -25h-213z" />
    <glyph glyph-name="wacute" unicode="&#x1e83;" horiz-adv-x="1247" 
d="M548 781l135 250h213l-218 -250h-130zM288 0l-32 22q-59 188 -135 372t-115 264l14 30q43 9 98 10t98 -10q43 -80 101 -225.5t96 -286.5h13q83 163 134 313l-31 80q18 32 75 57.5t115 19.5q100 -213 168 -470h13q70 122 107.5 255.5t21.5 241.5q72 40 202 15
q28 -128 -28.5 -320.5t-181.5 -350.5l-33 -17h-205l-39 23q-33 102 -80 203q-16 -37 -54.5 -107t-63.5 -103l-30 -16h-228z" />
    <glyph glyph-name="Wdieresis" unicode="&#x1e84;" horiz-adv-x="1494" 
d="M595 983q-38 0 -67 26.5t-29 62.5q0 34 29 61t67 27t67 -27t29 -61q0 -36 -29 -62.5t-67 -26.5zM903 983q-38 0 -67 26.5t-29 62.5q0 34 29 61t67 27t67 -27t29 -61q0 -36 -29 -62.5t-67 -26.5zM413 0l-49 25q-100 267 -203 514t-150 334l12 33q40 9 95.5 9.5t99.5 -9.5
q122 -218 304 -733h9q62 85 121 198.5t80 184.5q-8 28 -31 94t-25 72q18 28 77.5 53t113.5 19q35 -60 103 -261t108 -360h12q70 85 113 187.5t55.5 199.5t10.5 178.5t-16 152.5q65 40 197 15q22 -81 25.5 -180.5t-14.5 -216t-75.5 -241.5t-150.5 -231l-67 -37h-225l-32 21
q-47 146 -93 268q-19 -55 -64 -137.5t-76 -126.5l-52 -25h-213z" />
    <glyph glyph-name="wdieresis" unicode="&#x1e85;" horiz-adv-x="1247" 
d="M458 773q-49 0 -85.5 33.5t-36.5 78.5q0 44 36.5 77.5t85.5 33.5q48 0 84.5 -33.5t36.5 -77.5q0 -45 -36.5 -78.5t-84.5 -33.5zM828 773q-49 0 -85.5 33.5t-36.5 78.5q0 44 36.5 77.5t85.5 33.5q48 0 84.5 -33.5t36.5 -77.5q0 -45 -36.5 -78.5t-84.5 -33.5zM288 0l-32 22
q-59 188 -135 372t-115 264l14 30q43 9 98 10t98 -10q43 -80 101 -225.5t96 -286.5h13q83 163 134 313l-31 80q18 32 75 57.5t115 19.5q100 -213 168 -470h13q70 122 107.5 255.5t21.5 241.5q72 40 202 15q28 -128 -28.5 -320.5t-181.5 -350.5l-33 -17h-205l-39 23
q-33 102 -80 203q-16 -37 -54.5 -107t-63.5 -103l-30 -16h-228z" />
    <glyph glyph-name="uni1E9E" unicode="&#x1e9e;" horiz-adv-x="1035" 
d="M667 549q67 -8 122.5 -25.5t107 -49t81 -84.5t29.5 -124q0 -94 -50.5 -160t-127.5 -95t-172 -29q-112 0 -195.5 29.5t-152.5 95.5q7 43 35.5 88t63.5 61q98 -96 235 -96q70 0 112 29t42 77q0 46 -46 82t-114 54.5t-132 27.5t-115 9l-20 58l301 235h-244q-61 0 -100 -34
t-52 -77t-13 -93v-528h-203v544q0 167 84.5 264t265.5 97h520q18 -38 9.5 -93t-30.5 -77z" />
    <glyph glyph-name="Ygrave" unicode="&#x1ef2;" horiz-adv-x="1008" 
d="M595 974h-125l-226 191h186zM987 906q8 -32 4 -74t-14 -85.5t-37 -96t-65 -105t-98 -113t-136 -119.5v-313h-206v329q-85 122 -211.5 289.5t-208.5 253.5l14 34q50 9 117 10t117 -10q45 -47 139.5 -175.5t167.5 -235.5q108 87 163.5 207t45.5 188q69 40 208 16z" />
    <glyph glyph-name="ygrave" unicode="&#x1ef3;" horiz-adv-x="862" 
d="M532 787h-141l-258 250h212zM839 688q10 -45 11.5 -99.5t-7 -116.5t-25 -125.5t-45 -130t-66.5 -128t-90 -120t-113 -105.5q-154 -116 -354 -118q-63 0 -106 18q-34 74 -2 143l36 21q37 -14 74 -13q115 0 248 117q-81 58 -148 133t-107 143t-70 141.5t-43 120.5t-20 89
l11 30q44 10 99 10.5t97 -10.5q72 -335 304 -520q76 108 102 230.5t17 272.5q61 43 197 17z" />
    <glyph glyph-name="endash" unicode="&#x2013;" horiz-adv-x="1164" 
d="M188 289v158h788v-158h-788z" />
    <glyph glyph-name="emdash" unicode="&#x2014;" horiz-adv-x="1295" 
d="M188 289v158h919v-158h-919z" />
    <glyph glyph-name="quoteleft" unicode="&#x2018;" horiz-adv-x="362" 
d="M73 641l65 322h151l-20 -322h-196z" />
    <glyph glyph-name="quoteright" unicode="&#x2019;" horiz-adv-x="363" 
d="M73 640l20 323h197l-66 -323h-151z" />
    <glyph glyph-name="quotesinglbase" unicode="&#x201a;" horiz-adv-x="363" 
d="M73 -154l20 322h197l-66 -322h-151z" />
    <glyph glyph-name="quotedblleft" unicode="&#x201c;" horiz-adv-x="605" 
d="M73 641l65 322h152l-20 -322h-197zM316 641l65 322h152l-20 -322h-197z" />
    <glyph glyph-name="quotedblright" unicode="&#x201d;" horiz-adv-x="604" 
d="M73 640l20 323h197l-66 -323h-151zM315 640l19 323h197l-65 -323h-151z" />
    <glyph glyph-name="quotedblbase" unicode="&#x201e;" horiz-adv-x="604" 
d="M73 -154l20 322h197l-66 -322h-151zM315 -154l20 322h197l-66 -322h-151z" />
    <glyph glyph-name="dagger" unicode="&#x2020;" horiz-adv-x="821" 
d="M743 851v-168h-248v-814h-169v814h-247v168h247v160h169v-160h248z" />
    <glyph glyph-name="daggerdbl" unicode="&#x2021;" horiz-adv-x="823" 
d="M743 683h-248v-505h248v-170h-248v-139h-169v139h-247v170h247v505h-247v168h247v160h169v-160h248v-168z" />
    <glyph glyph-name="bullet" unicode="&#x2022;" horiz-adv-x="887" 
d="M443 197q-96 0 -163.5 64.5t-67.5 155.5q0 88 68 154.5t163 66.5q91 0 161.5 -67t70.5 -154q0 -90 -70 -155t-162 -65z" />
    <glyph glyph-name="ellipsis" unicode="&#x2026;" horiz-adv-x="1090" 
d="M194 0q-49 0 -85 33.5t-36 78.5q0 44 36.5 77.5t84.5 33.5q49 0 85.5 -33.5t36.5 -77.5q0 -45 -36.5 -78.5t-85.5 -33.5zM545 0q-48 0 -84.5 33.5t-36.5 78.5q0 44 36.5 77.5t84.5 33.5q47 0 84.5 -34t37.5 -77q0 -45 -37 -78.5t-85 -33.5zM895 0q-48 0 -84.5 33.5
t-36.5 78.5q0 43 37 77t84 34q48 0 85.5 -34t37.5 -77q0 -45 -37.5 -78.5t-85.5 -33.5z" />
    <glyph glyph-name="perthousand" unicode="&#x2030;" horiz-adv-x="2195" 
d="M394 484q-153 0 -235 53t-82 156q0 100 81 155.5t236 55.5q159 0 239 -54t80 -157q0 -97 -83.5 -153t-235.5 -56zM236 0l790 889h234l-791 -889h-233zM394 614q50 0 84 20.5t34 58.5t-33 59t-85 21q-50 0 -83 -22t-33 -58q0 -38 32.5 -58.5t83.5 -20.5zM1091 -21
q-151 0 -233.5 53.5t-82.5 157.5q0 99 81 154t235 55q320 0 320 -209q0 -98 -83.5 -154.5t-236.5 -56.5zM1799 -21q-152 0 -234.5 53.5t-82.5 157.5q0 99 81.5 154t235.5 55q159 0 239 -53.5t80 -155.5q0 -98 -83 -154.5t-236 -56.5zM1091 110q52 0 86 20.5t34 59.5
q0 37 -33.5 58t-86.5 21q-48 0 -81.5 -22t-33.5 -57q0 -39 33 -59.5t82 -20.5zM1799 110q51 0 85 20.5t34 59.5q0 37 -33.5 58t-85.5 21q-49 0 -82.5 -22t-33.5 -57q0 -39 33 -59.5t83 -20.5z" />
    <glyph glyph-name="guilsinglleft" unicode="&#x2039;" horiz-adv-x="785" 
d="M712 670l-389 -230l389 -221l-57 -136l-582 298v121l577 301z" />
    <glyph glyph-name="guilsinglright" unicode="&#x203a;" horiz-adv-x="785" 
d="M136 803l577 -301v-121l-582 -298l-58 136l389 221l-389 230z" />
    <glyph glyph-name="fraction" unicode="&#x2044;" horiz-adv-x="1287" 
d="M73 -132l964 1193h177l-965 -1193h-176z" />
    <glyph glyph-name="Euro" unicode="&#x20ac;" horiz-adv-x="1054" 
d="M889 244l92 -130q-55 -50 -160.5 -82t-227.5 -32q-177 0 -310 70.5t-184 210.5h-81v133h54q-1 12 -1 36q0 17 1 26h-54v134h82q53 133 187 203.5t306 70.5q228 0 374 -99l-90 -128q-94 58 -260 58q-209 0 -287 -105h329v-134h-373q-1 -8 -1 -26q0 -12 2 -36h334v-133
h-280q91 -112 290 -112q144 0 258 75z" />
    <glyph glyph-name="uni2116" unicode="&#x2116;" horiz-adv-x="1827" 
d="M1411 310q-149 0 -235.5 79t-86.5 204q0 132 102 223.5t250 91.5q146 0 228 -73.5t86 -197.5q4 -146 -94 -236.5t-250 -90.5zM816 890q38 13 107 11t99 -11v-890h-154l-589 581v-581h-206v853q20 23 75 38.5t80 7.5l588 -582v573zM1431 744q-58 0 -100 -43t-42 -105
q0 -54 34.5 -87.5t94.5 -33.5q58 0 98 43t39 101q-1 55 -33.5 90t-90.5 35zM1133 89v150h581v-150h-581z" />
    <glyph glyph-name="trademark" unicode="&#x2122;" horiz-adv-x="1226" 
d="M489 890v-154h-125v-326h-168v326h-123v154h416zM1153 890v-480h-168v210l-89 -180h-111l-97 184v-214h-168v480h189l131 -253l124 253h189z" />
    <glyph glyph-name="estimated" unicode="&#x212e;" horiz-adv-x="961" 
d="M487 895q191 0 301.5 -133t98.5 -370h-589l3 -261q74 -74 203 -74q161 0 274 125q24 -13 33.5 -27t13.5 -35q-56 -61 -143.5 -99.5t-173.5 -38.5q-206 0 -320.5 125.5t-114.5 328.5q0 199 118 329t296 130zM680 468v270q-84 82 -193 82q-57 0 -109 -20.5t-84 -55.5
l3 -276h383z" />
    <glyph glyph-name="partialdiff" unicode="&#x2202;" horiz-adv-x="988" 
d="M442 907q102 0 185.5 -33t135.5 -85t87.5 -119.5t50 -132t14.5 -126.5q0 -204 -116.5 -316.5t-322.5 -112.5q-191 0 -297 86.5t-106 223.5q0 125 98 200.5t256 75.5q153 0 269 -61q-20 101 -85 166t-178 65t-222 -77q-56 64 -52 148q38 42 121.5 70t161.5 28zM475 151
q196 0 224 203q-99 45 -208 45q-205 0 -205 -116q0 -53 51.5 -92.5t137.5 -39.5z" />
    <glyph glyph-name="minus" unicode="&#x2212;" horiz-adv-x="906" 
d="M124 360v169h658v-169h-658z" />
    <glyph glyph-name="radical" unicode="&#x221a;" horiz-adv-x="1208" 
d="M1208 890v-173h-234l-383 -717h-147l-371 480h233l188 -241l338 651h376z" />
    <glyph glyph-name="infinity" unicode="&#x221e;" horiz-adv-x="1124" 
d="M779 759q119 0 195.5 -67.5t76.5 -207.5t-76.5 -207.5t-195.5 -67.5q-136 0 -216 127q-80 -127 -218 -127q-119 0 -195.5 67.5t-76.5 207.5t76.5 207.5t195.5 67.5q137 0 216 -127q75 127 218 127zM348 340q54 0 86 35t59 102q-34 75 -65 112.5t-80 37.5q-47 0 -82.5 -37
t-35.5 -106q0 -71 35 -107.5t83 -36.5zM777 340q49 0 83 36t34 108q0 69 -35 106t-82 37q-48 0 -79 -36.5t-64 -109.5q31 -70 62.5 -105.5t80.5 -35.5z" />
    <glyph glyph-name="approxequal" unicode="&#x2248;" horiz-adv-x="840" 
d="M73 488q0 99 52.5 167t142.5 68q63 0 149.5 -33.5t111.5 -33.5q29 0 49 16t20 51h169q0 -99 -52 -167t-144 -68q-65 0 -152.5 33t-115.5 33t-45 -17t-17 -49h-168zM73 214q0 100 52.5 167.5t142.5 67.5q63 0 149.5 -33t111.5 -33q29 0 49 15.5t20 50.5h169
q0 -99 -52 -167t-144 -68q-65 0 -152.5 33t-115.5 33t-45 -17t-17 -49h-168z" />
    <glyph glyph-name="notequal" unicode="&#x2260;" horiz-adv-x="872" 
d="M799 886l-129 -218h95v-168h-194l-64 -108h258v-169h-358l-114 -192h-215l113 192h-84v169h184l64 108h-248v168h347l129 218h216z" />
    <glyph glyph-name="lessequal" unicode="&#x2264;" horiz-adv-x="785" 
d="M712 278l-67 -142l-572 301v122l577 297l61 -145l-384 -214zM96 -55v146h571v-146h-571z" />
    <glyph glyph-name="greaterequal" unicode="&#x2265;" horiz-adv-x="785" 
d="M135 862l577 -298v-122l-572 -301l-67 142l384 220l-384 213zM93 -54v145h571v-145h-571z" />
    <glyph glyph-name="i.loclTRK" horiz-adv-x="317" 
d="M159 778q-49 0 -85.5 33.5t-36.5 78.5q0 44 36.5 77.5t85.5 33.5q48 0 84.5 -33.5t36.5 -77.5q0 -45 -36.5 -78.5t-84.5 -33.5zM57 0v688q33 10 104 10t99 -10v-688h-203z" />
    <glyph glyph-name="uni00A0.001" horiz-adv-x="449" 
 />
    <glyph glyph-name="uni030C.alt" 
d="M-289 629l16 333h194l-64 -333h-146z" />
    <glyph glyph-name="uni0308.case" 
d="M-482 967q-38 0 -67 26.5t-29 62.5q0 34 29 61t67 27t67 -27t29 -61q0 -36 -29 -62.5t-67 -26.5zM-174 967q-38 0 -67 26.5t-29 62.5q0 34 29 61t67 27t67 -27t29 -61q0 -36 -29 -62.5t-67 -26.5z" />
    <glyph glyph-name="uni0307.case" 
d="M-193 966q-39 0 -68 26.5t-29 61.5t29 62t68 27q38 0 67 -27t29 -62t-29 -61.5t-67 -26.5z" />
    <glyph glyph-name="gravecomb.case" 
d="M-203 959l-226 191h186l165 -191h-125z" />
    <glyph glyph-name="acutecomb.case" 
d="M-387 952l169 195h199l-238 -195h-130z" />
    <glyph glyph-name="uni030B.case" 
d="M-685 958l144 188h187l-209 -188h-122zM-446 958l177 188h206l-257 -188h-126z" />
    <glyph glyph-name="uni0302.case" 
d="M-79 951h-176l-96 100l-96 -100h-178l218 223h112z" />
    <glyph glyph-name="uni030C.case" 
d="M-236 1185h189l-234 -238h-103l-235 238h190l97 -104z" />
    <glyph glyph-name="uni0306.case" 
d="M-341 762q-119 0 -190.5 54.5t-71.5 161.5h140q0 -40 32.5 -67t89.5 -27q58 0 90 28t32 66h140q0 -104 -73.5 -160t-188.5 -56z" />
    <glyph glyph-name="uni030A.case" 
d="M-274 868q-108 0 -170 42t-62 112q0 67 60.5 110t171.5 43q109 0 168 -42.5t59 -110.5q0 -67 -63 -110.5t-164 -43.5zM-277 956q48 0 80 19t32 46q0 30 -31.5 48t-80.5 18t-80 -18t-31 -48q0 -29 31 -47t80 -18z" />
    <glyph glyph-name="tildecomb.case" 
d="M-195 937q-38 0 -76.5 17.5t-70.5 35.5t-53 18q-49 0 -49 -66h-125q0 89 39.5 149t108.5 60q46 0 111 -36t86 -36q51 0 51 66h126q0 -88 -39 -148t-109 -60z" />
    <glyph glyph-name="uni0304.case" 
d="M-614 826v135h536v-135h-536z" />
    <glyph glyph-name="uni0327.case" 
d="M-226 -376q-95 -2 -172 75l101 94q37 -37 70 -37q16 0 26.5 11t9.5 27q0 15 -11.5 29.5t-31.5 31.5t-30 30q-40 50 -40 115h134q0 -22 10.5 -38t32.5 -36t33 -33q46 -51 47 -108q2 -65 -50.5 -112.5t-128.5 -48.5z" />
    <glyph glyph-name="uni0328.case" 
d="M-253 -381q-74 -2 -122 40t-48 122q0 54 35 124t93 115l125 -13q-107 -113 -107 -193q0 -24 15.5 -36.5t39.5 -10.5q22 0 45.5 12t37.5 31l92 -76q-34 -49 -92.5 -82t-113.5 -33z" />
    </font>
</defs>
</svg>
