<?xml version="1.0" standalone="no"?>
<!DOCTYPE svg PUBLIC "-//W3C//DTD SVG 1.1//EN" "http://www.w3.org/Graphics/SVG/1.1/DTD/svg11.dtd" >
<svg xmlns="http://www.w3.org/2000/svg" xmlns:xlink="http://www.w3.org/1999/xlink" version="1.1">
<metadata>
Created by FontForge 20170731 at Mon May 11 15:12:34 2020
 By Aleksey,,,
Copyright (c) 2019 by Mans Greback. All rights reserved.
</metadata>
<defs>
<font id="Quache-MediumCondensed" horiz-adv-x="0" >
  <font-face 
    font-family="Quache Medium Condensed"
    font-weight="500"
    font-stretch="condensed"
    units-per-em="1000"
    panose-1="0 0 6 6 0 0 0 0 0 0"
    ascent="800"
    descent="-200"
    x-height="671"
    cap-height="906.5"
    bbox="-522 -369.031 1588 1310"
    underline-thickness="50"
    underline-position="-200"
    unicode-range="U+000D-2265"
  />
<missing-glyph horiz-adv-x="887" 
d="M0 -18v979h887v-979h-887zM50 32h787v879h-787v-879zM385 300q-13 59 5.5 105t53.5 75t72 54.5t64 57t27 68.5q0 49 -41 82t-120 33q-134 0 -232 -100l-58 56q57 58 134.5 92t159.5 34q124 0 192.5 -53.5t68.5 -136.5q0 -53 -30.5 -95t-72.5 -69.5t-83 -54.5t-65.5 -64
t-16.5 -84h-58zM416 88q-20 0 -36 16t-16 37q0 20 16 36.5t36 16.5q19 0 34.5 -16.5t15.5 -36.5q0 -22 -15 -37.5t-35 -15.5z" />
    <glyph glyph-name="f_i.liga" unicode="fi" horiz-adv-x="676" 
d="M137 0v572h-136v99h137q15 279 214 279q41 0 90 -15q5 -17 0 -50.5t-15 -46.5q-31 12 -53 12q-107 -3 -115 -179h341v-671h-120v572h-223v-572h-120zM540 802q-28 0 -48.5 21t-20.5 50t20.5 50.5t48.5 21.5q27 0 48 -22t21 -50t-21 -49.5t-48 -21.5z" />
    <glyph glyph-name="f_l.liga" unicode="fl" horiz-adv-x="735" 
d="M618 -18q-143 0 -143 201v662q-45 15 -85 15q-122 -3 -131 -189h144v-99h-146v-572h-120v572h-136v99h137q8 142 66.5 210.5t179.5 68.5q103 0 211 -30v-700q0 -139 60 -139q17 0 51 12q8 -18 9.5 -44.5t-4.5 -45.5q-51 -20 -93 -21z" />
    <glyph glyph-name=".notdef" horiz-adv-x="887" 
d="M0 -18v979h887v-979h-887zM50 32h787v879h-787v-879zM385 300q-13 59 5.5 105t53.5 75t72 54.5t64 57t27 68.5q0 49 -41 82t-120 33q-134 0 -232 -100l-58 56q57 58 134.5 92t159.5 34q124 0 192.5 -53.5t68.5 -136.5q0 -53 -30.5 -95t-72.5 -69.5t-83 -54.5t-65.5 -64
t-16.5 -84h-58zM416 88q-20 0 -36 16t-16 37q0 20 16 36.5t36 16.5q19 0 34.5 -16.5t15.5 -36.5q0 -22 -15 -37.5t-35 -15.5z" />
    <glyph glyph-name=".null" 
 />
    <glyph glyph-name="nonmarkingreturn" horiz-adv-x="333" 
 />
    <glyph glyph-name="CR" unicode="&#xd;" horiz-adv-x="600" 
 />
    <glyph glyph-name="space" unicode=" " horiz-adv-x="357" 
 />
    <glyph glyph-name="exclam" unicode="!" horiz-adv-x="399" 
d="M153 289l-9 631h110l-9 -631h-92zM200 0q-25 0 -44 19t-19 45t19 45.5t44 19.5q24 0 43 -20t19 -45t-19 -44.5t-43 -19.5z" />
    <glyph glyph-name="quotedbl" unicode="&#x22;" horiz-adv-x="497" 
d="M92 649l27 307h108l-52 -307h-83zM270 649l27 307h109l-52 -307h-84z" />
    <glyph glyph-name="numbersign" unicode="#" horiz-adv-x="772" 
d="M680 562h-96l-19 -216h87v-91h-94l-13 -147l-93 1l12 146h-189l-13 -146h-94l13 146h-89v91h96l19 216h-86v91h94l11 131h94l-11 -131h189l11 131h94l-11 -131h88v-91zM472 346l18 216h-189l-19 -216h190z" />
    <glyph glyph-name="dollar" unicode="$" horiz-adv-x="861" 
d="M769 243q0 -91 -69.5 -158.5t-207.5 -81.5v-134h-84v131q-97 4 -182 42t-134 98l47 85q110 -125 303 -124q99 0 152 42.5t53 102.5q0 41 -28.5 72t-74.5 51t-101 38t-110 38t-101 46t-74.5 68t-28.5 97q0 87 71 150t207 70v127h83v-128q86 -8 153 -40.5t102 -73.5
l-32 -90q-44 47 -119 76.5t-158 29.5q-96 0 -142 -35t-46 -78q0 -33 22.5 -58t59 -41t83.5 -33t95.5 -31t95.5 -37t83.5 -50t59 -71.5t22.5 -99.5z" />
    <glyph glyph-name="percent" unicode="%" horiz-adv-x="1153" 
d="M187 0l654 890h129l-655 -890h-128zM331 491q-111 0 -175 51t-64 146q0 92 62.5 145t176.5 53q115 0 177.5 -52t62.5 -146q0 -91 -65 -144t-175 -53zM331 570q52 0 88 32.5t36 85.5q0 54 -35 86.5t-89 32.5t-88.5 -33t-34.5 -86q0 -54 34.5 -86t88.5 -32zM811 -9
q-111 0 -175 51t-64 146q0 92 63 144.5t176 52.5q116 0 178.5 -52t62.5 -145q0 -91 -65 -144t-176 -53zM811 70q53 0 89 32t36 86q0 55 -34.5 86.5t-90.5 31.5q-54 0 -88.5 -32.5t-34.5 -85.5q0 -54 34.5 -86t88.5 -32z" />
    <glyph glyph-name="ampersand" unicode="&#x26;" horiz-adv-x="970" 
d="M879 82l-68 -82l-108 92q-113 -110 -296 -110q-149 0 -232 60t-83 168q0 148 183 255q-135 133 -135 240q0 89 74.5 153t220.5 64q137 0 211.5 -62.5t74.5 -142.5q0 -50 -21 -91.5t-63.5 -75t-82.5 -56t-102 -50.5l59 -50l166 -141q46 87 44 177h103q11 -137 -56 -254z
M260 701q0 -75 114 -186q55 27 89 45.5t68.5 43.5t51 51.5t16.5 56.5q0 42 -45 75.5t-124 33.5q-84 0 -127 -35t-43 -85zM413 85q117 0 202 83l-189 161q-47 39 -76 65q-66 -36 -101.5 -76t-35.5 -94q0 -64 53.5 -101.5t146.5 -37.5z" />
    <glyph glyph-name="quotesingle" unicode="'" horiz-adv-x="320" 
d="M92 649l28 307h108l-53 -307h-83z" />
    <glyph glyph-name="parenleft" unicode="(" horiz-adv-x="645" 
d="M511 -255q-163 84 -242.5 245t-79.5 364q0 85 19 171t59 174.5t112 167.5t168 134l27 -61l-6 -18q-142 -97 -209.5 -255t-67.5 -313q0 -376 242 -529l4 -19z" />
    <glyph glyph-name="parenright" unicode=")" horiz-adv-x="663" 
d="M63 -255l-26 61l4 19q242 153 242 529q0 155 -67.5 313t-209.5 255l-5 18l26 61q96 -55 168 -134t112 -167.5t59 -174.5t19 -171q0 -203 -79.5 -364t-242.5 -245z" />
    <glyph glyph-name="asterisk" unicode="*" horiz-adv-x="564" 
d="M472 742l-137 -47l102 -126l-79 -62l-76 144l-76 -144l-79 62l102 126l-137 47l31 88l122 -64l-15 162h102l-14 -162l122 64z" />
    <glyph glyph-name="plus" unicode="+" horiz-adv-x="701" 
d="M609 491v-101h-207v-263h-103v263h-207v101h207v263h103v-263h207z" />
    <glyph glyph-name="comma" unicode="," horiz-adv-x="310" 
d="M48 -181l43 345h101l-52 -345h-92z" />
    <glyph glyph-name="hyphen" unicode="-" horiz-adv-x="917" 
d="M200 316v95h517v-95h-517z" />
    <glyph glyph-name="period" unicode="." horiz-adv-x="413" 
d="M206 0q-28 0 -48.5 21t-20.5 50q0 28 20.5 49.5t48.5 21.5t48.5 -21.5t20.5 -49.5q0 -29 -20.5 -50t-48.5 -21z" />
    <glyph glyph-name="slash" unicode="/" horiz-adv-x="813" 
d="M-20 -131l736 1134h117l-736 -1134h-117z" />
    <glyph glyph-name="zero" unicode="0" horiz-adv-x="773" 
d="M386 -18q-153 0 -243.5 129t-90.5 338q0 220 91 346.5t243 126.5q153 0 244.5 -125.5t91.5 -347.5q0 -201 -92.5 -334t-243.5 -133zM386 83q97 0 155.5 103.5t58.5 262.5q0 173 -57 272.5t-157 99.5q-98 0 -154.5 -101.5t-56.5 -270.5q0 -165 57 -265.5t154 -100.5z" />
    <glyph glyph-name="one" unicode="1" horiz-adv-x="553" 
d="M503 85q5 -36 0 -85h-453q-6 41 0 85l170 18v678l-149 -44q-10 37 -6 86l205 67h72v-788z" />
    <glyph glyph-name="two" unicode="2" horiz-adv-x="747" 
d="M59 0v95q23 55 62.5 104t84.5 85.5t94.5 71t94 66.5t80.5 66t57.5 75.5t21.5 88.5q0 77 -50.5 122.5t-145.5 45.5q-78 0 -142.5 -29.5t-95.5 -70.5q-35 30 -52 74q41 55 122.5 91.5t185.5 36.5q144 0 224 -74t80 -193q0 -70 -36 -131.5t-94 -110.5t-120 -94t-126 -103
t-100 -117h485q12 -49 0 -99h-630z" />
    <glyph glyph-name="three" unicode="3" horiz-adv-x="749" 
d="M506 482q192 -76 192 -237q0 -114 -86.5 -188.5t-245.5 -74.5q-96 0 -184 34t-130 86q3 40 46 89q36 -44 105.5 -76t151.5 -32q99 0 159.5 45t60.5 117q0 86 -83.5 133.5t-220.5 52.5q-13 56 0 105q133 -1 207.5 40.5t74.5 112.5q0 58 -52.5 94t-144.5 36
q-79 0 -154 -28.5t-100 -57.5q-29 30 -37 82q36 42 120 73.5t182 31.5q144 0 226 -63t82 -161q0 -143 -169 -214z" />
    <glyph glyph-name="four" unicode="4" horiz-adv-x="747" 
d="M690 305q10 -48 0 -99h-71v-206h-122v206h-445v95l468 589h99v-585h71zM186 305h318l6 427z" />
    <glyph glyph-name="five" unicode="5" horiz-adv-x="754" 
d="M383 610q153 0 236 -87t83 -227q0 -130 -88.5 -222t-239.5 -92q-110 0 -193 38t-129 95q5 56 42 93q102 -124 261 -124q104 0 162.5 62.5t58.5 150.5q0 98 -66.5 158t-189.5 60q-102 0 -223 -37l36 412h532q5 -56 -8 -99h-410l-20 -200q77 19 156 19z" />
    <glyph glyph-name="six" unicode="6" horiz-adv-x="778" 
d="M421 539q143 0 224.5 -74t81.5 -187q0 -123 -92.5 -209.5t-252.5 -86.5q-152 0 -241 92t-89 249q0 117 46.5 220t153 199t269.5 171q50 -36 57 -89q-133 -68 -225 -146t-137 -183q99 44 205 44zM384 83q96 0 156 57t60 135q0 72 -53 118.5t-160 46.5q-113 0 -201 -46
q-7 -49 -7 -88q0 -97 52 -160t153 -63z" />
    <glyph glyph-name="seven" unicode="7" horiz-adv-x="695" 
d="M31 890h621v-112q-133 -86 -216 -302.5t-86 -475.5h-129q4 256 85.5 462t224.5 329h-500q-13 41 0 99z" />
    <glyph glyph-name="eight" unicode="8" horiz-adv-x="774" 
d="M539 497q82 -37 133 -99.5t51 -144.5q0 -119 -83 -195t-254 -76q-169 0 -251.5 76t-82.5 195q0 87 50.5 148t131.5 96q-161 65 -161 193q0 43 18.5 83t54.5 74t98 54.5t142 20.5q156 0 235.5 -66.5t79.5 -159.5q0 -66 -45 -117t-117 -82zM191 680q0 -101 195 -140
q195 40 195 145q0 56 -47 96.5t-148 40.5q-99 0 -147 -43.5t-48 -98.5zM386 83q105 0 158 50.5t53 123.5q0 75 -54.5 127t-155.5 75q-97 -21 -153 -72.5t-56 -129.5q0 -72 52.5 -123t155.5 -51z" />
    <glyph glyph-name="nine" unicode="9" horiz-adv-x="766" 
d="M383 922q153 0 242 -91t89 -244q0 -387 -470 -603q-23 17 -38.5 41.5t-17.5 47.5q305 153 391 361q-111 -63 -238 -63q-137 0 -214 73.5t-77 187.5q0 121 89.5 205.5t243.5 84.5zM172 636q0 -71 51 -119t159 -48q62 0 121.5 14t93.5 34q2 50 2 77q0 97 -55.5 162
t-161.5 65q-97 0 -153.5 -55t-56.5 -130z" />
    <glyph glyph-name="colon" unicode=":" horiz-adv-x="413" 
d="M206 545q-28 0 -48.5 21t-20.5 50q0 28 20.5 49.5t48.5 21.5t48.5 -21.5t20.5 -49.5q0 -29 -20.5 -50t-48.5 -21zM206 0q-28 0 -48.5 21t-20.5 50q0 28 20.5 49.5t48.5 21.5t48.5 -21.5t20.5 -49.5q0 -29 -20.5 -50t-48.5 -21z" />
    <glyph glyph-name="semicolon" unicode=";" horiz-adv-x="323" 
d="M132 545q-28 0 -48.5 21t-20.5 50q0 28 20.5 49.5t48.5 21.5q27 0 48 -21.5t21 -49.5t-21 -49.5t-48 -21.5zM48 -181l43 345h101l-52 -345h-92z" />
    <glyph glyph-name="less" unicode="&#x3c;" horiz-adv-x="686" 
d="M594 678l-366 -242l365 -244l-41 -85l-460 292v74l464 291z" />
    <glyph glyph-name="equal" unicode="=" horiz-adv-x="701" 
d="M92 502v100h517v-100h-517zM92 277v101h517v-101h-517z" />
    <glyph glyph-name="greater" unicode="&#x3e;" horiz-adv-x="686" 
d="M130 764l464 -291v-74l-461 -292l-40 85l364 244l-365 242z" />
    <glyph glyph-name="question" unicode="?" horiz-adv-x="799" 
d="M328 264q-11 55 -3 94t30.5 72t52 56t61 47t58.5 45t44 49.5t17 60.5q0 58 -47.5 96.5t-140.5 38.5q-158 0 -274 -118l-69 68q66 68 158 108.5t189 40.5q148 0 229 -64t81 -162q0 -46 -19.5 -85t-49.5 -66t-66.5 -51.5t-71 -47.5t-62.5 -48t-41.5 -59t-6.5 -75h-69z
M365 0q-25 0 -44.5 19.5t-19.5 44.5t19.5 45t44.5 20q24 0 42.5 -19.5t18.5 -45.5q0 -25 -18.5 -44.5t-42.5 -19.5z" />
    <glyph glyph-name="at" unicode="@" horiz-adv-x="1166" 
d="M586 -218q-218 0 -356 139.5t-138 380.5q0 242 139 388t363 146q216 0 348 -129.5t132 -350.5q0 -130 -55.5 -211t-152.5 -81q-104 0 -128 86q-22 -34 -63 -60t-96 -26q-108 0 -162.5 71t-54.5 177q0 105 54.5 176t162.5 71q86 0 144 -53l1 38h73v-274q0 -106 73 -106
q47 0 72.5 54.5t25.5 137.5q0 188 -96.5 288t-277.5 100q-183 0 -290 -122t-107 -320q0 -192 106.5 -309t280.5 -117q122 0 205 69l56 -74q-105 -89 -259 -89zM599 154q39 0 71 21.5t47 54.5v187q-44 51 -118 51q-64 0 -98 -45.5t-34 -110.5q0 -69 33 -113.5t99 -44.5z" />
    <glyph glyph-name="A" unicode="A" horiz-adv-x="879" 
d="M492 899q33 -78 113 -275t149 -360.5t112 -246.5l-7 -17q-94 -3 -129 13q-18 30 -82 198h-428l-78 -211h-129l365 899q21 8 58.5 8t55.5 -8zM257 310h354q-4 12 -176 479z" />
    <glyph glyph-name="B" unicode="B" horiz-adv-x="802" 
d="M591 539q176 -59 177 -240q0 -148 -97 -232t-268 -85q-120 0 -187.5 8.5t-147.5 34.5v859q127 38 298 38q77 0 137 -14t96.5 -36.5t60 -53.5t32.5 -61.5t9 -63.5q0 -48 -30 -88.5t-80 -65.5zM371 827q-98 0 -181 -18v-270q97 25 228 25q19 0 51 -2q57 13 86 45t29 74
q0 59 -49.5 102.5t-163.5 43.5zM395 80q126 0 193 57.5t67 153.5q0 174 -249 174q-114 0 -216 -29v-335q87 -21 205 -21z" />
    <glyph glyph-name="C" unicode="C" horiz-adv-x="810" 
d="M450 -22q-178 0 -297 128t-119 346q0 127 53 234t150 171.5t217 64.5q148 0 234.5 -91.5t78.5 -238.5q-81 -19 -123 -8q8 99 -46.5 167t-142.5 67q-127 0 -211 -110t-84 -264q0 -163 80.5 -262.5t209.5 -100.5q61 0 126.5 23t119.5 67q24 -10 39 -35.5t18 -47.5
q-65 -54 -148 -82t-155 -28z" />
    <glyph glyph-name="D" unicode="D" horiz-adv-x="837" 
d="M354 922q212 0 331 -126t119 -334q0 -220 -114 -350t-318 -130q-96 0 -160 9t-144 34v859q128 38 286 38zM677 459q1 161 -84 262.5t-241 101.5q-86 0 -162 -14v-708q82 -21 182 -21q147 0 225.5 103t79.5 276z" />
    <glyph glyph-name="E" unicode="E" horiz-adv-x="749" 
d="M705 99q11 -13 11 -46.5t-11 -52.5h-637v886l12 13h604q7 -22 -0.5 -53t-18.5 -46h-475v-313h423q6 -23 -1 -55.5t-18 -43.5h-404v-289h515z" />
    <glyph glyph-name="F" unicode="F" horiz-adv-x="726" 
d="M670 799h-480v-361h431q6 -24 -1.5 -56t-18.5 -42h-411v-340h-122v886l12 12h609q7 -22 0 -53.5t-19 -45.5z" />
    <glyph glyph-name="G" unicode="G" horiz-adv-x="829" 
d="M444 818q-130 0 -207 -106.5t-77 -265.5q0 -162 81 -261.5t216 -99.5q118 0 211 50v216h-263q-6 23 1 55.5t18 43.5h347l14 -16v-346q-58 -51 -149.5 -78.5t-178.5 -27.5q-184 0 -303.5 127t-119.5 343q0 124 47.5 230t142.5 173t218 67q150 0 249 -88.5t95 -221.5
q-26 -6 -59.5 -9.5t-58.5 1.5q-4 99 -67.5 156.5t-156.5 57.5z" />
    <glyph glyph-name="H" unicode="H" horiz-adv-x="813" 
d="M623 899q24 8 64 7t58 -7v-899h-122v360h-433v-360h-122v899q23 8 63.5 7t58.5 -7v-440h433v440z" />
    <glyph glyph-name="I" unicode="I" horiz-adv-x="249" 
d="M68 0v899q22 9 59 7.5t54 -7.5v-899h-113z" />
    <glyph glyph-name="J" unicode="J" horiz-adv-x="793" 
d="M380 -18q-95 0 -186.5 51t-159.5 138q8 29 27 53t39 31q53 -77 124 -123.5t143 -46.5q114 0 175 83.5t61 219.5v511q27 6 66.5 5.5t55.5 -5.5v-527q0 -106 -38.5 -193t-118.5 -142t-188 -55z" />
    <glyph glyph-name="K" unicode="K" horiz-adv-x="882" 
d="M480 461q187 -235 251 -305q70 -77 132 -126l-1 -19q-57 -19 -122 -19q-86 59 -354 409q-101 -60 -196 -106v-295h-122v899q22 8 63.5 7t58.5 -7v-490q177 89 278 164q226 169 217 319q35 25 113 9q14 -88 -49.5 -190t-189.5 -196q-25 -18 -79 -54z" />
    <glyph glyph-name="L" unicode="L" horiz-adv-x="745" 
d="M90 0l-22 24v875q23 8 62.5 7t59.5 -7v-800h509q11 -14 11.5 -47t-11.5 -52h-609z" />
    <glyph glyph-name="M" unicode="M" horiz-adv-x="1024" 
d="M990 0h-123l-58 660l-261 -519h-76l-261 520l-55 -661h-122l80 879q13 13 50.5 19.5t52.5 0.5l294 -609l294 609q15 6 51.5 -0.5t50.5 -19.5z" />
    <glyph glyph-name="N" unicode="N" horiz-adv-x="894" 
d="M704 899q21 8 63 7t59 -7v-899h-86l-550 684v-684h-122v876q10 14 40.5 23t44.5 4l551 -694v690z" />
    <glyph glyph-name="O" unicode="O" horiz-adv-x="866" 
d="M397 -18q-164 0 -263 123t-100 304q0 139 53.5 255.5t154 187t226.5 70.5q158 0 261.5 -132t103.5 -317q-1 -127 -55.5 -239t-155.5 -182t-225 -70zM402 85q127 0 214.5 118.5t89.5 277.5q2 144 -67 240.5t-180 96.5q-131 0 -215 -120t-84 -292q1 -135 63.5 -228
t178.5 -93z" />
    <glyph glyph-name="P" unicode="P" horiz-adv-x="801" 
d="M398 922q175 0 272 -95t97 -255q0 -140 -100.5 -232t-277.5 -92q-106 0 -199 25v-273h-122v878q139 44 330 44zM640 574q1 117 -64.5 183t-185.5 66q-115 0 -200 -22v-424q87 -30 193 -30q117 0 187 61t70 166z" />
    <glyph glyph-name="Q" unicode="Q" horiz-adv-x="866" 
d="M622 -74q75 0 177 44q14 -17 19.5 -45t-1.5 -56q-88 -24 -165 -25q-204 -3 -288 139q-150 13 -239.5 134t-90.5 292q0 139 53.5 255.5t154 187t226.5 70.5q158 0 261.5 -132t103.5 -317q-1 -175 -102 -314.5t-259 -169.5q52 -65 150 -63zM160 406q1 -135 63.5 -228
t178.5 -93q127 0 214.5 118.5t89.5 277.5q2 144 -67 240.5t-180 96.5q-131 0 -215 -120t-84 -292z" />
    <glyph glyph-name="R" unicode="R" horiz-adv-x="871" 
d="M553 314q85 -105 147 -172t124 -116l-1 -20q-45 -15 -126 -15q-54 31 -274 298q-11 -1 -35 -1q-94 0 -198 27v-315h-122v878q154 44 334 44q171 0 268.5 -84t97.5 -233q0 -104 -57 -180t-158 -111zM388 387q112 -2 182.5 57t70.5 162q0 96 -64.5 156.5t-187.5 60.5
q-113 0 -199 -19v-389q96 -26 198 -28z" />
    <glyph glyph-name="S" unicode="S" horiz-adv-x="813" 
d="M431 -18q-109 0 -213.5 36.5t-183.5 103.5q3 22 21.5 53.5t41.5 37.5q71 -62 159.5 -97t177.5 -35q103 0 160.5 49t57.5 125q0 77 -60.5 114.5t-180.5 44.5q-144 8 -225.5 69.5t-80.5 179.5t95.5 188.5t222.5 70.5q162 0 254 -80t92 -194q-23 -7 -57 -10t-57 2
q-4 84 -65.5 133.5t-168.5 49.5q-80 0 -135 -46t-55 -113q0 -73 54.5 -109.5t143.5 -42.5q183 -10 266.5 -73.5t83.5 -176.5q0 -126 -94.5 -203t-253.5 -77z" />
    <glyph glyph-name="T" unicode="T" horiz-adv-x="800" 
d="M781 899q4 -23 -2.5 -54.5t-17.5 -44.5h-303v-800h-126v800h-312q-5 21 -1.5 51t13.5 48h749z" />
    <glyph glyph-name="U" unicode="U" horiz-adv-x="892" 
d="M437 -22q-179 0 -274 106.5t-95 308.5v506q20 7 63 6t59 -6v-511q0 -148 64.5 -227.5t182.5 -79.5q124 0 194.5 88.5t70.5 230.5v499q22 7 63.5 6t58.5 -6v-501q0 -185 -101.5 -302.5t-285.5 -117.5z" />
    <glyph glyph-name="V" unicode="V" horiz-adv-x="839" 
d="M377 0l-33 21q-77 239 -187.5 522t-143.5 336l5 20q68 12 116 0q57 -106 147 -331t160 -466h4q126 197 200 420t46 368q17 11 50 13.5t65 -4.5q40 -155 -35.5 -395.5t-242.5 -480.5l-39 -23h-112z" />
    <glyph glyph-name="W" unicode="W" horiz-adv-x="1210" 
d="M367 0l-32 17q-74 252 -167.5 498.5t-154.5 363.5l7 20q53 14 114 0q71 -135 154.5 -364t138.5 -433h3q45 83 102.5 218.5t74.5 211.5q-19 70 -62 189q10 18 47 33.5t68 11.5q36 -85 104 -305t101 -359h4q115 180 166.5 403t25.5 385q35 25 113 9q38 -166 -17.5 -417
t-201.5 -458l-38 -24h-122l-22 14q-66 222 -108 348q-17 -66 -67.5 -180.5t-82.5 -166.5l-29 -15h-119z" />
    <glyph glyph-name="X" unicode="X" horiz-adv-x="857" 
d="M519 431q30 -37 157.5 -202t167.5 -214l-4 -15h-130q-33 32 -157.5 194t-138.5 179q-57 -46 -94.5 -80t-81 -82.5t-69.5 -101.5t-34 -109h-122q7 61 30.5 117.5t51.5 98.5t75 89.5t83.5 78t94.5 76.5q-12 15 -314 418l6 20q24 8 64.5 8t64.5 -7q28 -35 82.5 -109
t118.5 -162.5t82 -112.5q131 119 189 203.5t52 171.5q36 25 116 9q9 -68 -9 -129t-86 -147t-195 -192z" />
    <glyph glyph-name="Y" unicode="Y" horiz-adv-x="808" 
d="M788 899q29 -285 -290 -595v-304h-122v315q-54 93 -181 294t-180 270l8 20q72 15 127 0q39 -45 150.5 -225.5t152.5 -261.5q101 100 161 239t54 239q40 24 120 9z" />
    <glyph glyph-name="Z" unicode="Z" horiz-adv-x="793" 
d="M748 99q12 -13 12 -46.5t-12 -52.5h-691q-11 10 -18 37.5t-4 46.5q113 206 258 407.5t275 308.5h-506q-11 13 -11.5 46.5t11.5 52.5h658q11 -8 18.5 -41.5t5.5 -54.5q-138 -105 -295 -312t-258 -392h557z" />
    <glyph glyph-name="bracketleft" unicode="[" horiz-adv-x="491" 
d="M92 -246v1249h307v-92h-214v-1066h214v-91h-307z" />
    <glyph glyph-name="backslash" unicode="\" horiz-adv-x="813" 
d="M833 -131h-117l-736 1134h117z" />
    <glyph glyph-name="bracketright" unicode="]" horiz-adv-x="491" 
d="M399 -246h-307v91h214v1066h-214v92h307v-1249z" />
    <glyph glyph-name="asciicircum" unicode="^" horiz-adv-x="867" 
d="M740 512h-126l-181 250l-183 -250h-123l285 378h48z" />
    <glyph glyph-name="underscore" unicode="_" horiz-adv-x="633" 
d="M92 -87v87h449v-87h-449z" />
    <glyph glyph-name="grave" unicode="`" horiz-adv-x="383" 
d="M247 755l-189 248h116l152 -248h-79z" />
    <glyph glyph-name="a" unicode="a" horiz-adv-x="675" 
d="M613 206q1 -93 7.5 -130t20.5 -63l-1 -13h-102q-34 30 -35 119v20q-50 -74 -121 -115.5t-150 -41.5q-86 0 -138 48t-51 124q0 108 100 181.5t271 80.5q35 1 74 -2q-8 90 -46 141.5t-103 51.5q-89 0 -212 -83q-35 14 -42 81q141 100 268 102q119 1 188.5 -87.5
t70.5 -251.5zM491 326l1 12q-34 3 -73 3q-132 -3 -197 -51.5t-65 -114.5q0 -45 27.5 -72.5t78.5 -27.5q90 0 156.5 80t71.5 171z" />
    <glyph glyph-name="b" unicode="b" horiz-adv-x="718" 
d="M413 707q127 0 200.5 -93t73.5 -240q0 -164 -84 -278t-215 -114q-126 0 -203 116q-7 -57 -26 -98h-101v17q12 61 12 152v765q20 6 61.5 6t58.5 -6v-392q32 71 92.5 118t130.5 47zM364 84q89 0 145 86t55 208q0 98 -45 163t-118 65q-87 0 -149 -99.5t-62 -217.5
q0 -76 51 -140.5t123 -64.5z" />
    <glyph glyph-name="c" unicode="c" horiz-adv-x="660" 
d="M339 -18q-130 -1 -219 94.5t-89 252.5q0 158 96 268t237 110q124 0 198.5 -92.5t64.5 -231.5q-76 -20 -115 -8q3 103 -39.5 167t-114.5 64q-88 0 -146 -81t-58 -198q0 -105 55 -174t138 -70q96 0 197 94q21 -7 36.5 -26.5t20.5 -33t5 -17.5q-127 -116 -267 -118z" />
    <glyph glyph-name="d" unicode="d" horiz-adv-x="723" 
d="M653 169q0 -91 12 -152v-17h-102q-21 42 -27 115q-86 -133 -225 -133q-122 0 -201 96.5t-79 237.5q0 165 87 278t229 113q59 0 108 -34.5t78 -90.5v352q17 6 58.5 6t61.5 -6v-765zM338 84q84 0 139.5 93t55.5 222q0 88 -49.5 147.5t-118.5 59.5q-88 0 -149 -80t-62 -196
q0 -107 51 -176.5t133 -69.5z" />
    <glyph glyph-name="e" unicode="e" horiz-adv-x="665" 
d="M357 707q133 0 211.5 -93t65.5 -250l-17 -23l-470 -84q18 -83 72.5 -129t127.5 -45q104 3 202 94q17 -7 30 -25.5t17.5 -31.5t4.5 -16q-123 -120 -265 -122q-126 -2 -214 89t-91 243q-3 162 89.5 277.5t236.5 115.5zM521 402q4 96 -42 153t-122 57q-90 0 -152 -80.5
t-65 -191.5z" />
    <glyph glyph-name="f" unicode="f" horiz-adv-x="382" 
d="M374 850q-107 -3 -116 -179h183v-99h-184v-572h-120v572h-136v99h137q14 279 214 279q57 0 129 -21q5 -17 -2.5 -50.5t-18.5 -46.5q-46 18 -86 18z" />
    <glyph glyph-name="g" unicode="g" horiz-adv-x="725" 
d="M562 680q48 5 105 -8v-16q-12 -96 -12 -159v-413q0 -173 -86 -272.5t-218 -100.5q-150 0 -292 114q12 68 48 88q130 -103 236 -101q88 1 144 72t56 196v52q-36 -69 -91.5 -109.5t-122.5 -40.5q-129 0 -213.5 90.5t-84.5 243.5q0 106 38 194t111 142t167 54
q63 0 115.5 -38.5t83.5 -100.5v20zM340 84q81 0 136 88t57 237q-3 76 -51 136.5t-117 60.5q-97 0 -154 -84.5t-57 -194.5q0 -104 50 -173.5t136 -69.5z" />
    <glyph glyph-name="h" unicode="h" horiz-adv-x="707" 
d="M421 707q117 0 180 -90t63 -254v-363h-120v349q0 117 -37.5 184t-111.5 67q-85 0 -151 -94.5t-66 -211.5v-294h-120v934q20 6 60.5 6t59.5 -6v-364q44 63 107 100t136 37z" />
    <glyph glyph-name="i" unicode="i" horiz-adv-x="271" 
d="M135 802q-28 0 -48.5 21t-20.5 50t20.5 50t48.5 21q27 0 48 -21.5t21 -49.5t-21 -49.5t-48 -21.5zM76 0v671q19 6 61 6t59 -6v-671h-120z" />
    <glyph glyph-name="j" unicode="j" horiz-adv-x="282" 
d="M145 802q-28 0 -48.5 21t-20.5 50t20.5 50t48.5 21q27 0 48 -21.5t21 -49.5t-21 -49.5t-48 -21.5zM49 -243q-45 2 -87 18q-7 22 0.5 55t21.5 50q32 -13 48 -13q31 0 42.5 39t11.5 134v631q20 6 62 5.5t58 -5.5v-682q0 -106 -40.5 -169t-116.5 -63z" />
    <glyph glyph-name="k" unicode="k" horiz-adv-x="759" 
d="M446 338q79 -94 104.5 -124t70.5 -81t67.5 -70.5t41.5 -30.5v-20q-18 -7 -59 -12.5t-76 -4.5q-14 6 -37 27.5t-60.5 65t-66.5 79.5t-82 102q-80 -54 -171 -98v-171h-120v934q24 8 61.5 8t58.5 -8v-645q93 51 185 121q93 70 136 127t39 124q47 22 128 10
q29 -154 -198 -317z" />
    <glyph glyph-name="l" unicode="l" horiz-adv-x="335" 
d="M218 -18q-144 0 -144 201v751q21 7 59 7t62 -7v-714q0 -139 60 -139q17 0 51 12q8 -18 9.5 -44.5t-4.5 -45.5q-53 -20 -93 -21z" />
    <glyph glyph-name="m" unicode="m" horiz-adv-x="1012" 
d="M767 707q93 0 140.5 -82t47.5 -234v-391h-121v377q0 108 -24.5 168.5t-73.5 60.5q-70 0 -117.5 -86t-47.5 -204l1 -316h-117v377q0 229 -99 229q-69 0 -116.5 -90t-47.5 -212v-304h-121v512q0 81 -13 140v18q65 14 111 9q13 -41 13 -86v-26q36 63 89 101.5t110 38.5
q127 0 169 -144q38 66 95 105t122 39z" />
    <glyph glyph-name="n" unicode="n" horiz-adv-x="734" 
d="M433 707q122 0 183 -89t61 -255v-363h-121v349q0 121 -37 189t-110 68q-56 0 -106.5 -45t-80.5 -115t-30 -142v-304h-121v512q0 81 -13 140v18q65 14 111 9q13 -41 13 -86v-39q42 68 109 110.5t142 42.5z" />
    <glyph glyph-name="o" unicode="o" horiz-adv-x="717" 
d="M332 -18q-141 0 -221 95.5t-80 239.5q0 161 103 275.5t253 114.5q136 0 216.5 -94t82.5 -240q2 -169 -98.5 -280t-255.5 -111zM338 83q97 0 161 83t64 195q0 103 -50.5 174t-132.5 71q-96 0 -161 -85.5t-65 -203.5q0 -99 48 -166.5t136 -67.5z" />
    <glyph glyph-name="p" unicode="p" horiz-adv-x="720" 
d="M420 707q121 0 195 -93.5t74 -238.5q0 -165 -85.5 -279t-215.5 -114q-122 0 -197 120v-348q-16 -6 -58.5 -6t-61.5 6v748q0 73 -13 151v17q55 17 106 9l26 -104v-10q44 66 104 104t126 38zM365 84q89 0 145 86.5t56 201.5q0 107 -46 170.5t-117 63.5q-85 0 -149 -94
t-64 -228q0 -74 52 -137t123 -63z" />
    <glyph glyph-name="q" unicode="q" horiz-adv-x="729" 
d="M561 679q55 7 110 -9v-18q-16 -87 -16 -141v-757q-19 -6 -61 -6t-59 6v368q-40 -63 -97 -101.5t-120 -38.5q-127 0 -207 95.5t-80 237.5q0 176 91 283.5t219 107.5q63 0 116 -36t86 -96v30zM341 84q79 0 135.5 94.5t56.5 218.5q0 83 -47.5 146t-117.5 63
q-91 0 -153 -79.5t-61 -205.5q1 -103 52.5 -170t134.5 -67z" />
    <glyph glyph-name="r" unicode="r" horiz-adv-x="534" 
d="M503 682q7 -20 -5 -54t-29 -51q-48 21 -89 21q-86 -1 -137 -87t-51 -212v-299h-121v512q0 81 -13 140v18q62 14 107 9q12 -43 12 -86v-59q30 77 86 125t124 48q53 0 116 -25z" />
    <glyph glyph-name="s" unicode="s" horiz-adv-x="676" 
d="M354 -18q-91 0 -174 27.5t-141 79.5q18 63 52 85q109 -91 244 -91q76 0 128 30.5t52 79.5q0 54 -46.5 81.5t-152.5 33.5q-249 19 -249 186q0 86 77.5 149.5t194.5 63.5q166 0 287 -80q-5 -46 -33 -93q-111 72 -238 72q-76 0 -121 -33.5t-45 -75.5q0 -92 162 -100
q155 -8 221 -58t66 -146q0 -93 -82.5 -152t-201.5 -59z" />
    <glyph glyph-name="t" unicode="t" horiz-adv-x="495" 
d="M459 572h-243v-258q0 -111 34.5 -170.5t103.5 -59.5q37 0 86 20q11 -12 16.5 -46t-0.5 -53q-66 -23 -121 -23q-111 -1 -175 81t-64 243v266h-82v99h82v179q19 11 54.5 17t65.5 0v-196h243v-99z" />
    <glyph glyph-name="u" unicode="u" horiz-adv-x="728" 
d="M659 195q0 -129 26 -180l-1 -15h-102q-18 18 -25.5 42t-7.5 80q-40 -65 -104 -102.5t-139 -37.5q-113 0 -180.5 75t-67.5 228v386q46 12 120 0v-366q0 -222 153 -222q96 0 152 86t56 222v280q22 5 65 4t55 -4v-476z" />
    <glyph glyph-name="v" unicode="v" horiz-adv-x="676" 
d="M287 0l-20 15q-16 57 -35 113.5t-34.5 99.5t-36.5 95t-33.5 81.5t-34.5 77t-30 63t-29.5 59.5t-23.5 48l8 19q71 13 114 0q44 -70 109 -224t123 -346h12q85 147 132.5 298.5t34.5 262.5q38 25 119 9q20 -124 -42.5 -314t-173.5 -345l-22 -12h-137z" />
    <glyph glyph-name="w" unicode="w" horiz-adv-x="897" 
d="M243 0l-21 14q-69 273 -212 638l9 19q69 13 115 0q109 -248 181 -561h6q67 167 104 336l-41 122q10 19 44 34.5t67 11.5q47 -133 76 -239.5t63 -264.5h7q134 318 119 552q42 23 122 9q16 -122 -33 -316t-139 -343l-21 -12h-115l-20 15q-37 157 -72 255
q-13 -51 -43.5 -132t-54.5 -127l-17 -11h-124z" />
    <glyph glyph-name="x" unicode="x" horiz-adv-x="692" 
d="M429 316q22 -27 70.5 -84t93 -110t83.5 -100v-22h-145q-91 124 -211 267q-104 -91 -141 -146.5t-32 -120.5h-118q-6 36 2 72t20.5 61.5t46 64t52.5 57.5t66 62q7 7 11 10.5t10.5 9.5t11.5 11q-148 192 -235 302l7 19q27 6 64.5 6t62.5 -7q177 -234 204 -271
q93 83 132.5 143t34.5 126q47 19 118 5q12 -79 -36.5 -163.5t-171.5 -191.5z" />
    <glyph glyph-name="y" unicode="y" horiz-adv-x="707" 
d="M687 671q8 -67 7 -145t-23 -170t-55.5 -179t-91 -173t-129.5 -150q-126 -113 -280 -115q-49 0 -80 17q-19 46 -1 86l19 13q29 -15 62 -15q104 -1 226 122q18 18 50 56q-84 58 -154 150t-113 188t-67.5 168t-35.5 128l6 18q57 15 109 1q8 -43 29.5 -105.5t58.5 -146.5
t98 -169t132 -143q132 223 118 554q37 25 115 10z" />
    <glyph glyph-name="z" unicode="z" horiz-adv-x="655" 
d="M629 101q11 -9 11.5 -44.5t-11.5 -56.5h-589q-12 10 -20 38t-6 50q107 170 201 284.5t216 197.5h-380q-11 14 -11.5 47t11.5 54h555q11 -9 18.5 -46t5.5 -60q-215 -99 -454 -464h453z" />
    <glyph glyph-name="braceleft" unicode="{" horiz-adv-x="518" 
d="M221 382q36 -18 58 -46t31.5 -67.5t13 -73t5.5 -86.5t6 -84q17 -140 100 -224l-54 -55q-58 50 -89.5 105.5t-45.5 130.5q-8 38 -12 86.5t-4.5 83.5t-7 71.5t-19 58.5t-40.5 36t-71 14v100q54 0 83.5 19.5t39.5 59.5t12.5 83.5t9 108t21.5 115.5q30 108 124 185l55 -53
q-65 -66 -88 -170q-11 -43 -16 -100t-8 -99t-11.5 -84t-31 -71t-61.5 -44z" />
    <glyph glyph-name="bar" unicode="|" horiz-adv-x="276" 
d="M92 -231v1243h93v-1243h-93z" />
    <glyph glyph-name="braceright" unicode="}" horiz-adv-x="518" 
d="M260 818q15 -51 21.5 -115.5t9 -108t12.5 -83.5t39.5 -59.5t83.5 -19.5v-100q-43 0 -71 -14t-40.5 -36t-19 -58.5t-7.5 -71.5t-4.5 -83.5t-11.5 -86.5q-25 -141 -135 -236l-55 55q45 45 68.5 97.5t32.5 126.5q4 31 6 84t5.5 86.5t13 73t31.5 67.5t58 46q-39 15 -61.5 44
t-31 71t-11.5 84t-8.5 99t-16.5 100q-21 103 -87 170l55 53q94 -77 124 -185z" />
    <glyph glyph-name="asciitilde" unicode="~" horiz-adv-x="699" 
d="M92 292q0 84 36 138.5t96 54.5q39 0 82.5 -23t81.5 -46t64 -23q27 0 44.5 24.5t17.5 67.5h93q0 -83 -35 -138t-97 -55q-40 0 -83.5 23t-82 46.5t-67.5 23.5q-26 0 -41.5 -25.5t-15.5 -67.5h-93z" />
    <glyph glyph-name="exclamdown" unicode="&#xa1;" horiz-adv-x="399" 
d="M199 660q-24 0 -43 20t-19 45t19 44.5t43 19.5q25 0 44 -19t19 -45t-19 -45.5t-44 -19.5zM145 -131l9 631h92l9 -631h-110z" />
    <glyph glyph-name="cent" unicode="&#xa2;" horiz-adv-x="852" 
d="M708 233l48 -77q-35 -29 -101.5 -58t-141.5 -37v-192h-84v190q-161 11 -249 116t-88 271q0 168 96 270.5t241 114.5v180h84v-180q152 -12 247 -101l-53 -81q-88 84 -236 84q-109 0 -183 -76t-74 -211q0 -134 67 -211t184 -77q129 0 243 75z" />
    <glyph glyph-name="sterling" unicode="&#xa3;" horiz-adv-x="884" 
d="M267 99h525v-99h-687v99h9q38 0 58 37.5t19 96.5q0 46 -12 123h-87v99h74q-9 79 -9 140q0 129 81 205.5t226 76.5q192 0 317 -112l-58 -81q-95 93 -244 93q-101 0 -154 -56t-53 -148q0 -53 7 -118h352v-99h-341q9 -69 10 -112q0 -90 -33 -145z" />
    <glyph glyph-name="currency" unicode="&#xa4;" horiz-adv-x="572" 
d="M482 284l-64 -71l-81 82q-25 -11 -52 -11q-26 0 -53 10l-76 -80l-64 70l71 79q-17 36 -17 83q0 45 16 82l-70 72l64 70l74 -72q25 11 55 11q29 0 56 -11l74 74l65 -70l-71 -73q16 -38 16 -83t-18 -83zM214 446q0 -40 19.5 -66t51.5 -26t52.5 27.5t20.5 64.5
q0 40 -19.5 66t-53.5 26q-33 0 -52 -27.5t-19 -64.5z" />
    <glyph glyph-name="yen" unicode="&#xa5;" horiz-adv-x="978" 
d="M886 877l-319 -458h191v-86h-210v-107h210v-86h-210v-140h-122v140h-216v86h216v107h-216v86h197l-315 458h153l243 -366l242 366h156z" />
    <glyph glyph-name="brokenbar" unicode="&#xa6;" horiz-adv-x="276" 
d="M92 481v531h93v-531h-93zM92 -231v534h93v-534h-93z" />
    <glyph glyph-name="section" unicode="&#xa7;" horiz-adv-x="647" 
d="M450 162q73 -70 73 -151q0 -79 -61 -127.5t-163 -48.5q-35 0 -81 11.5t-78 30.5v102q28 -20 75 -32t84 -12q114 0 114 88q0 26 -24 54t-59.5 51t-77 53t-77 60t-59.5 72.5t-24 89.5q0 46 29.5 92t76.5 79q-79 72 -79 162q0 86 61 136t163 50q88 0 159 -37v-102
q-29 17 -75 27.5t-84 10.5q-50 0 -79.5 -22t-29.5 -63q0 -32 24 -62t59.5 -52.5t77 -51.5t77 -58t59.5 -74.5t24 -98.5q0 -55 -27 -101.5t-78 -75.5zM209 399q0 -12 2 -24t8.5 -23t12 -20t17.5 -20t19 -18t24 -18.5t24.5 -17t27 -18.5t26.5 -17q67 51 67 118q0 12 -2.5 22.5
t-8.5 21.5t-11.5 19.5t-17.5 19t-19 17.5t-22.5 18t-23 16.5t-26.5 18t-26 17.5q-68 -48 -71 -112z" />
    <glyph glyph-name="dieresis" unicode="&#xa8;" horiz-adv-x="584" 
d="M127 774q-28 0 -48.5 21t-20.5 50t20.5 50t48.5 21q27 0 48 -21.5t21 -49.5t-21 -49.5t-48 -21.5zM457 774q-28 0 -48.5 21t-20.5 50t20.5 50t48.5 21q27 0 48 -21.5t21 -49.5t-21 -49.5t-48 -21.5z" />
    <glyph glyph-name="copyright" unicode="&#xa9;" horiz-adv-x="1122" 
d="M561 -19q-204 0 -336.5 131.5t-132.5 335.5q0 132 62.5 241t170.5 170.5t236 61.5q204 0 336.5 -133t132.5 -340q0 -205 -132 -336t-337 -131zM561 60q161 0 271.5 103.5t110.5 283.5q0 182 -110 288.5t-272 106.5q-158 0 -270 -112t-112 -283q0 -176 108 -281.5
t274 -105.5zM565 209q-99 0 -167.5 69t-68.5 174q0 106 68.5 172.5t168.5 66.5q54 0 99.5 -19.5t72.5 -47.5l-45 -73q-45 47 -116 47q-60 0 -102.5 -42t-42.5 -109q0 -64 42.5 -104.5t104.5 -40.5q77 0 119 47l50 -68q-24 -29 -73 -50.5t-110 -21.5z" />
    <glyph glyph-name="ordfeminine" unicode="&#xaa;" horiz-adv-x="523" 
d="M362 1074h69v-404h-68v21q-43 -26 -101 -26q-76 0 -123 55.5t-47 143.5q0 87 50 147.5t126 60.5q54 0 94 -29v31zM277 727q51 0 86 37l-1 194q-29 46 -82 46t-85 -41t-32 -99q0 -62 31.5 -99.5t82.5 -37.5z" />
    <glyph glyph-name="guillemotleft" unicode="&#xab;" horiz-adv-x="1091" 
d="M593 686l-381 -250l382 -245l-33 -81l-469 291v72l466 292zM617 436l383 -245l-33 -81l-470 291v72l466 292l36 -79z" />
    <glyph glyph-name="logicalnot" unicode="&#xac;" horiz-adv-x="701" 
d="M506 228v162h-414v101h518v-263h-104z" />
    <glyph glyph-name="uni00AD" unicode="&#xad;" horiz-adv-x="1072" 
d="M200 316v95h673v-95h-673z" />
    <glyph glyph-name="registered" unicode="&#xae;" horiz-adv-x="840" 
d="M421 922q135 0 231.5 -92t96.5 -241q0 -150 -96.5 -239.5t-231.5 -89.5q-148 0 -238.5 91t-90.5 238q0 140 96 236.5t233 96.5zM421 313q113 0 190.5 72t77.5 205q0 131 -77.5 204.5t-190.5 73.5t-191.5 -79.5t-78.5 -198.5q0 -125 74 -201t196 -76zM584 665
q0 -42 -26.5 -72t-67.5 -43l76 -153h-65l-71 145h-84v-145h-59v389h154q62 0 102.5 -34t40.5 -87zM434 587q36 0 62 22t26 56q0 33 -24.5 54t-63.5 21h-88v-153h88z" />
    <glyph glyph-name="macron" unicode="&#xaf;" horiz-adv-x="580" 
d="M58 806v99h464v-99h-464z" />
    <glyph glyph-name="degree" unicode="&#xb0;" horiz-adv-x="550" 
d="M276 537q-84 0 -134 51.5t-50 139.5q0 86 49 140t135 54q85 0 133.5 -53.5t48.5 -140.5q0 -85 -51.5 -138t-130.5 -53zM274 599q48 0 79.5 35.5t32.5 93.5q0 59 -31 95.5t-81 36.5q-51 0 -81.5 -36.5t-31.5 -95.5q0 -59 32.5 -94t80.5 -35z" />
    <glyph glyph-name="plusminus" unicode="&#xb1;" horiz-adv-x="701" 
d="M403 560h207v-100h-207v-236h-104v236h-207v100h207v255h104v-255zM92 46v101h518v-101h-518z" />
    <glyph glyph-name="uni00B2" unicode="&#xb2;" horiz-adv-x="801" 
d="M236 354h473v-94h-605v82q32 69 95.5 128.5t129 100t127.5 78.5t101 83t39 95q0 63 -49 101t-148 38q-150 0 -238 -84l-55 64q94 111 304 111q139 0 216.5 -64.5t77.5 -163.5q0 -56 -25.5 -103t-65 -79.5t-92 -67t-102.5 -63.5t-100.5 -72t-82.5 -90z" />
    <glyph glyph-name="uni00B3" unicode="&#xb3;" horiz-adv-x="805" 
d="M713 481q1 -94 -80 -160t-237 -66q-89 0 -169.5 29t-131.5 76l42 81q102 -92 263 -92q98 0 155 37.5t57 95.5q0 72 -81 107.5t-235 45.5v84q147 0 222.5 35t75.5 96q0 52 -59 82.5t-156 30.5q-75 0 -144 -25.5t-94 -51.5l-41 76q45 37 127.5 65t168.5 28
q145 0 222.5 -55.5t77.5 -141.5q0 -61 -44.5 -109t-132.5 -74q104 -26 149 -74t45 -120z" />
    <glyph glyph-name="acute" unicode="&#xb4;" horiz-adv-x="357" 
d="M58 755l124 248h117l-176 -248h-65z" />
    <glyph glyph-name="uni00B5" unicode="&#xb5;" horiz-adv-x="728" 
d="M659 195q0 -129 26 -180l-1 -15h-102q-29 24 -29 87v76q-28 -80 -92 -130.5t-146 -50.5q-103 0 -151 83v-338h-106v944q46 12 120 0v-366q0 -222 153 -222q96 0 152 86t56 222v280q22 5 65 4t55 -4v-476z" />
    <glyph glyph-name="paragraph" unicode="&#xb6;" horiz-adv-x="719" 
d="M232 -131v699q-62 1 -101 47.5t-39 113.5t37.5 114t102.5 47h395v-83h-126v-938h-90v938h-89v-938h-90z" />
    <glyph glyph-name="periodcentered" unicode="&#xb7;" horiz-adv-x="516" 
d="M258 329q-28 0 -48.5 21t-20.5 50q0 28 20.5 49.5t48.5 21.5q27 0 48 -21.5t21 -49.5t-21 -49.5t-48 -21.5z" />
    <glyph glyph-name="cedilla" unicode="&#xb8;" horiz-adv-x="356" 
d="M178 -337q-64 -2 -120 64l60 60q23 -33 49 -33q17 0 28.5 15t11.5 38q0 34 -34 82q-29 40 -39.5 64t-10.5 61h93q0 -7 0.5 -13.5t1 -12t3 -12t3 -9.5t4.5 -10.5t5 -10t7 -11.5t7.5 -11.5t9 -13.5t9.5 -14q32 -47 32 -101t-34.5 -92.5t-85.5 -39.5z" />
    <glyph glyph-name="uni00B9" unicode="&#xb9;" horiz-adv-x="644" 
d="M386 354h166v-94h-449v94h177v603l-163 -42l-20 80l225 57h64v-698z" />
    <glyph glyph-name="ordmasculine" unicode="&#xba;" horiz-adv-x="554" 
d="M278 667q-74 0 -130 51.5t-56 144.5q0 96 52.5 151.5t133.5 55.5q80 0 132 -55.5t52 -151.5q0 -93 -56 -144.5t-128 -51.5zM278 729q44 0 78 34t34 100t-31 102.5t-81 36.5q-51 0 -83 -36.5t-32 -102.5t34.5 -100t80.5 -34z" />
    <glyph glyph-name="guillemotright" unicode="&#xbb;" horiz-adv-x="1091" 
d="M594 473v-72l-470 -291l-32 81l382 245l-381 250l35 79zM534 765l466 -292v-72l-470 -291l-33 81l382 245l-381 250z" />
    <glyph glyph-name="onequarter" unicode="&#xbc;" horiz-adv-x="1137" 
d="M92 438v95h111v408l-99 -42l-1 101l131 52h67v-519h104v-95h-313zM946 1052h99l-767 -1183h-99zM941 483v-391h53v-95h-53v-128h-90v128h-219v78l219 408h90zM870 92l4 292l-152 -292h148z" />
    <glyph glyph-name="onehalf" unicode="&#xbd;" horiz-adv-x="1136" 
d="M92 438v95h111v408l-99 -42l-1 101l131 52h67v-519h104v-95h-313zM935 1052h99l-767 -1183h-99zM1008 328q0 -48 -22 -99t-49 -87.5t-68 -89t-62 -84.5h209v-99h-313v90q27 49 82 121t88.5 126t33.5 96q0 37 -21.5 60.5t-55.5 23.5q-51 0 -113 -66v92q67 70 142 70
q64 0 106.5 -46t42.5 -108z" />
    <glyph glyph-name="threequarters" unicode="&#xbe;" horiz-adv-x="1100" 
d="M406 614q0 -64 -41 -115t-116 -51q-40 0 -83 20.5t-73 58.5v82q67 -71 138 -71q38 0 64.5 28t27.5 67q-1 43 -36.5 72.5t-101.5 39.5v61q55 3 87 26.5t32 67.5q0 31 -21 53t-54 22q-60 0 -123 -53v75q64 59 142 59q64 0 101 -40.5t37 -99.5q0 -99 -97 -144q55 -24 86 -65
t31 -93zM909 1052h99l-767 -1183h-99zM938 483v-391h52v-95h-52v-128h-90v128h-220v78l219 408h91zM866 92l4 288l-151 -288h147z" />
    <glyph glyph-name="questiondown" unicode="&#xbf;" horiz-adv-x="799" 
d="M434 678q25 0 44.5 -19.5t19.5 -44.5t-19.5 -45t-44.5 -20q-24 0 -42.5 20t-18.5 45t18.5 44.5t42.5 19.5zM471 414q11 -55 3 -94t-30.5 -72t-52 -56t-61 -47t-58.5 -45t-44 -49.5t-17 -60.5q0 -57 48 -95.5t140 -38.5q159 0 274 117l70 -67q-66 -69 -158.5 -109
t-189.5 -40q-147 0 -228.5 63.5t-81.5 161.5q0 46 19.5 85t49.5 66t66.5 51.5t71.5 47.5t62.5 48t41 59t6.5 75h69z" />
    <glyph glyph-name="Agrave" unicode="&#xc0;" horiz-adv-x="879" 
d="M482 962h-75l-202 190h109zM492 899q33 -78 113 -275t149 -360.5t112 -246.5l-7 -17q-94 -3 -129 13q-18 30 -82 198h-428l-78 -211h-129l365 899q21 8 58.5 8t55.5 -8zM257 310h354q-4 12 -176 479z" />
    <glyph glyph-name="Aacute" unicode="&#xc1;" horiz-adv-x="879" 
d="M660 1149l-200 -196h-74l165 196h109zM492 899q33 -78 113 -275t149 -360.5t112 -246.5l-7 -17q-94 -3 -129 13q-18 30 -82 198h-428l-78 -211h-129l365 899q21 8 58.5 8t55.5 -8zM257 310h354q-4 12 -176 479z" />
    <glyph glyph-name="Acircumflex" unicode="&#xc2;" horiz-adv-x="879" 
d="M435 1096l-131 -145h-87l190 222h56l188 -222h-86zM492 899q33 -78 113 -275t149 -360.5t112 -246.5l-7 -17q-94 -3 -129 13q-18 30 -82 198h-428l-78 -211h-129l365 899q21 8 58.5 8t55.5 -8zM257 310h354q-4 12 -176 479z" />
    <glyph glyph-name="Atilde" unicode="&#xc3;" horiz-adv-x="879" 
d="M346 1050q-22 0 -35.5 -24t-13.5 -68h-70q0 78 28.5 126.5t76.5 48.5q26 0 54.5 -15t49.5 -33.5t45.5 -33.5t43.5 -15q23 0 37.5 25t14.5 68l71 -1q0 -75 -28.5 -125t-77.5 -50q-26 0 -55.5 15t-50.5 33.5t-46 33.5t-44 15zM492 899q33 -78 113 -275t149 -360.5
t112 -246.5l-7 -17q-94 -3 -129 13q-18 30 -82 198h-428l-78 -211h-129l365 899q21 8 58.5 8t55.5 -8zM257 310h354q-4 12 -176 479z" />
    <glyph glyph-name="Adieresis" unicode="&#xc4;" horiz-adv-x="879" 
d="M305 984q-22 0 -38 17t-16 40t16 40t38 17t38.5 -17t16.5 -40t-16.5 -40t-38.5 -17zM571 984q-22 0 -38 17t-16 40t16 40t38 17t38.5 -17t16.5 -40t-16.5 -40t-38.5 -17zM492 899q33 -78 113 -275t149 -360.5t112 -246.5l-7 -17q-94 -3 -129 13q-18 30 -82 198h-428
l-78 -211h-129l365 899q21 8 58.5 8t55.5 -8zM257 310h354q-4 12 -176 479z" />
    <glyph glyph-name="Aring" unicode="&#xc5;" horiz-adv-x="879" 
d="M495 892q32 -75 112 -273.5t148 -359t111 -242.5l-7 -17q-94 -3 -129 13q-18 30 -82 198h-428l-78 -211h-129l363 893q-53 14 -84 50.5t-31 86.5q0 63 48 104t130 41q80 0 128.5 -41t48.5 -104q0 -49 -33.5 -86.5t-87.5 -51.5zM329 1030q0 -39 30 -64.5t78 -25.5
q47 0 79 26t32 64q0 40 -31 65.5t-80 25.5t-78.5 -26t-29.5 -65zM257 310h354q-4 12 -176 479z" />
    <glyph glyph-name="AE" unicode="&#xc6;" horiz-adv-x="1343" 
d="M1299 99q11 -13 11 -46.5t-11 -52.5h-615v211h-374l-146 -211h-151l657 899h608q7 -22 -0.5 -53t-18.5 -46h-453v-313h401q6 -24 -1.5 -56.5t-18.5 -42.5h-381v-289h493zM379 310l305 -1v441z" />
    <glyph glyph-name="Ccedilla" unicode="&#xc7;" horiz-adv-x="810" 
d="M767 592q-81 -19 -123 -8q8 99 -46.5 167t-142.5 67q-127 0 -211 -110t-84 -264q0 -163 80.5 -262.5t209.5 -100.5q61 0 126.5 23t119.5 67q24 -10 39 -35.5t18 -47.5q-65 -54 -148 -82t-155 -28h-13q3 -16 11 -29.5t25.5 -35t28.5 -38.5q32 -46 32 -100t-34.5 -93
t-85.5 -39q-65 -2 -120 63l54 59q33 -40 65 -40q19 0 31.5 16t12.5 41q0 15 -6 28t-23.5 35t-21.5 29q-25 33 -33.5 56t-9.5 57q-146 29 -237.5 152.5t-91.5 312.5q0 127 53 234t150 171.5t217 64.5q148 0 234.5 -91.5t78.5 -238.5z" />
    <glyph glyph-name="Egrave" unicode="&#xc8;" horiz-adv-x="749" 
d="M435 962h-75l-202 190h109zM705 99q11 -13 11 -46.5t-11 -52.5h-637v886l12 13h604q7 -22 -0.5 -53t-18.5 -46h-475v-313h423q6 -23 -1 -55.5t-18 -43.5h-404v-289h515z" />
    <glyph glyph-name="Eacute" unicode="&#xc9;" horiz-adv-x="749" 
d="M613 1149l-200 -196h-74l165 196h109zM705 99q11 -13 11 -46.5t-11 -52.5h-637v886l12 13h604q7 -22 -0.5 -53t-18.5 -46h-475v-313h423q6 -23 -1 -55.5t-18 -43.5h-404v-289h515z" />
    <glyph glyph-name="Ecircumflex" unicode="&#xca;" horiz-adv-x="749" 
d="M389 1096l-131 -145h-87l190 222h56l188 -222h-86zM705 99q11 -13 11 -46.5t-11 -52.5h-637v886l12 13h604q7 -22 -0.5 -53t-18.5 -46h-475v-313h423q6 -23 -1 -55.5t-18 -43.5h-404v-289h515z" />
    <glyph glyph-name="Edieresis" unicode="&#xcb;" horiz-adv-x="749" 
d="M258 984q-22 0 -38 17t-16 40t16 40t38 17t38.5 -17t16.5 -40t-16.5 -40t-38.5 -17zM524 984q-22 0 -38 17t-16 40t16 40t38 17t38.5 -17t16.5 -40t-16.5 -40t-38.5 -17zM705 99q11 -13 11 -46.5t-11 -52.5h-637v886l12 13h604q7 -22 -0.5 -53t-18.5 -46h-475v-313h423
q6 -23 -1 -55.5t-18 -43.5h-404v-289h515z" />
    <glyph glyph-name="Igrave" unicode="&#xcc;" horiz-adv-x="249" 
d="M94 962l-202 190h109l168 -190h-75zM68 0v899q22 9 59 7.5t54 -7.5v-899h-113z" />
    <glyph glyph-name="Iacute" unicode="&#xcd;" horiz-adv-x="249" 
d="M73 953l165 196h109l-200 -196h-74zM68 0v899q22 9 59 7.5t54 -7.5v-899h-113z" />
    <glyph glyph-name="Icircumflex" unicode="&#xce;" horiz-adv-x="249" 
d="M151 1173l188 -222h-86l-130 145l-131 -145h-87l190 222h56zM68 899q22 9 59 7.5t54 -7.5v-899h-113v899z" />
    <glyph glyph-name="Idieresis" unicode="&#xcf;" horiz-adv-x="249" 
d="M-8 984q-22 0 -38 17t-16 40t16 40t38 17t38.5 -17t16.5 -40t-16.5 -40t-38.5 -17zM258 984q-22 0 -38 17t-16 40t16 40t38 17t38.5 -17t16.5 -40t-16.5 -40t-38.5 -17zM68 0v899q22 9 59 7.5t54 -7.5v-899h-113z" />
    <glyph glyph-name="Eth" unicode="&#xd0;" horiz-adv-x="908" 
d="M425 922q212 0 330.5 -126t118.5 -334q0 -220 -114 -350t-317 -130q-97 0 -160.5 9t-144.5 34v395h-91v95h91v369q129 38 287 38zM748 459q1 161 -84 262.5t-241 101.5q-89 0 -163 -15v-293h215v-95h-215v-318q82 -22 183 -22q147 0 225.5 103t79.5 276z" />
    <glyph glyph-name="Ntilde" unicode="&#xd1;" horiz-adv-x="894" 
d="M356 1050q-22 0 -35.5 -24t-13.5 -68h-70q0 78 28.5 126.5t76.5 48.5q26 0 54.5 -15t49.5 -33.5t45.5 -33.5t43.5 -15q23 0 37.5 25t14.5 68l71 -1q0 -75 -28.5 -125t-77.5 -50q-26 0 -55.5 15t-50.5 33.5t-46 33.5t-44 15zM704 899q21 8 63 7t59 -7v-899h-86l-550 684
v-684h-122v876q10 14 40.5 23t44.5 4l551 -694v690z" />
    <glyph glyph-name="Ograve" unicode="&#xd2;" horiz-adv-x="866" 
d="M422 975l-202 190h109l168 -190h-75zM397 -18q-164 0 -263 123t-100 304q0 139 53.5 255.5t154 187t226.5 70.5q158 0 261.5 -132t103.5 -317q-1 -127 -55.5 -239t-155.5 -182t-225 -70zM402 85q127 0 214.5 118.5t89.5 277.5q2 144 -67 240.5t-180 96.5
q-131 0 -215 -120t-84 -292q1 -135 63.5 -228t178.5 -93z" />
    <glyph glyph-name="Oacute" unicode="&#xd3;" horiz-adv-x="866" 
d="M401 966l165 196h109l-200 -196h-74zM397 -18q-164 0 -263 123t-100 304q0 139 53.5 255.5t154 187t226.5 70.5q158 0 261.5 -132t103.5 -317q-1 -127 -55.5 -239t-155.5 -182t-225 -70zM402 85q127 0 214.5 118.5t89.5 277.5q2 144 -67 240.5t-180 96.5
q-131 0 -215 -120t-84 -292q1 -135 63.5 -228t178.5 -93z" />
    <glyph glyph-name="Ocircumflex" unicode="&#xd4;" horiz-adv-x="866" 
d="M451 1109l-131 -145h-87l190 222h56l188 -222h-86zM468 922q158 0 261.5 -132t103.5 -317q-1 -127 -55.5 -239t-155.5 -182t-225 -70q-164 0 -263 123t-100 304q0 139 53.5 255.5t154 187t226.5 70.5zM402 85q127 0 214.5 118.5t89.5 277.5q2 144 -67 240.5t-180 96.5
q-131 0 -215 -120t-84 -292q1 -135 63.5 -228t178.5 -93z" />
    <glyph glyph-name="Otilde" unicode="&#xd5;" horiz-adv-x="866" 
d="M557 966q-26 0 -55.5 15t-50.5 33.5t-46 33.5t-44 15q-22 0 -35.5 -24t-13.5 -68h-70q0 78 28.5 126.5t76.5 48.5q26 0 54.5 -15t49.5 -33.5t45.5 -33.5t43.5 -15q23 0 37.5 25t14.5 68l71 -1q0 -75 -28.5 -125t-77.5 -50zM397 -18q-164 0 -263 123t-100 304
q0 139 53.5 255.5t154 187t226.5 70.5q158 0 261.5 -132t103.5 -317q-1 -127 -55.5 -239t-155.5 -182t-225 -70zM402 85q127 0 214.5 118.5t89.5 277.5q2 144 -67 240.5t-180 96.5q-131 0 -215 -120t-84 -292q1 -135 63.5 -228t178.5 -93z" />
    <glyph glyph-name="Odieresis" unicode="&#xd6;" horiz-adv-x="866" 
d="M321 997q-22 0 -38 17t-16 40t16 40t38 17t38.5 -17t16.5 -40t-16.5 -40t-38.5 -17zM587 997q-22 0 -38 17t-16 40t16 40t38 17t38.5 -17t16.5 -40t-16.5 -40t-38.5 -17zM397 -18q-164 0 -263 123t-100 304q0 139 53.5 255.5t154 187t226.5 70.5q158 0 261.5 -132
t103.5 -317q-1 -127 -55.5 -239t-155.5 -182t-225 -70zM402 85q127 0 214.5 118.5t89.5 277.5q2 144 -67 240.5t-180 96.5q-131 0 -215 -120t-84 -292q1 -135 63.5 -228t178.5 -93z" />
    <glyph glyph-name="multiply" unicode="&#xd7;" horiz-adv-x="765" 
d="M673 603l-218 -195l218 -195h-144l-146 131l-147 -131h-144l219 195l-219 195h144l147 -131l146 131h144z" />
    <glyph glyph-name="Oslash" unicode="&#xd8;" horiz-adv-x="938" 
d="M772 781q96 -129 96 -308q0 -127 -54.5 -239t-155.5 -182t-225 -70q-128 0 -220 79l-48 -61h-106l96 124q-86 119 -86 285q0 139 54 255.5t154.5 187t226.5 70.5q117 0 211 -79l38 49h106zM196 406q0 -105 37 -183l413 532q-63 63 -152 63q-131 0 -215 -120t-83 -292z
M742 481q1 115 -44 204l-416 -535q62 -65 156 -65q84 0 154 56t109.5 146.5t40.5 193.5z" />
    <glyph glyph-name="Ugrave" unicode="&#xd9;" horiz-adv-x="892" 
d="M416 973l-202 190h109l168 -190h-75zM437 -22q-179 0 -274 106.5t-95 308.5v506q20 7 63 6t59 -6v-511q0 -148 64.5 -227.5t182.5 -79.5q124 0 194.5 88.5t70.5 230.5v499q22 7 63.5 6t58.5 -6v-501q0 -185 -101.5 -302.5t-285.5 -117.5z" />
    <glyph glyph-name="Uacute" unicode="&#xda;" horiz-adv-x="892" 
d="M395 964l165 196h109l-200 -196h-74zM437 -22q-179 0 -274 106.5t-95 308.5v506q20 7 63 6t59 -6v-511q0 -148 64.5 -227.5t182.5 -79.5q124 0 194.5 88.5t70.5 230.5v499q22 7 63.5 6t58.5 -6v-501q0 -185 -101.5 -302.5t-285.5 -117.5z" />
    <glyph glyph-name="Ucircumflex" unicode="&#xdb;" horiz-adv-x="892" 
d="M444 1107l-131 -145h-87l190 222h56l188 -222h-86zM702 899q22 7 63.5 6t58.5 -6v-501q0 -185 -101.5 -302.5t-285.5 -117.5q-179 0 -274 106.5t-95 308.5v506q20 7 63 6t59 -6v-511q0 -148 64.5 -227.5t182.5 -79.5q124 0 194.5 88.5t70.5 230.5v499z" />
    <glyph glyph-name="Udieresis" unicode="&#xdc;" horiz-adv-x="892" 
d="M314 995q-22 0 -38 17t-16 40t16 40t38 17t38.5 -17t16.5 -40t-16.5 -40t-38.5 -17zM580 995q-22 0 -38 17t-16 40t16 40t38 17t38.5 -17t16.5 -40t-16.5 -40t-38.5 -17zM437 -22q-179 0 -274 106.5t-95 308.5v506q20 7 63 6t59 -6v-511q0 -148 64.5 -227.5t182.5 -79.5
q124 0 194.5 88.5t70.5 230.5v499q22 7 63.5 6t58.5 -6v-501q0 -185 -101.5 -302.5t-285.5 -117.5z" />
    <glyph glyph-name="Yacute" unicode="&#xdd;" horiz-adv-x="808" 
d="M627 1149l-200 -196h-74l165 196h109zM788 899q29 -285 -290 -595v-304h-122v315q-54 93 -181 294t-180 270l8 20q72 15 127 0q39 -45 150.5 -225.5t152.5 -261.5q101 100 161 239t54 239q40 24 120 9z" />
    <glyph glyph-name="Thorn" unicode="&#xde;" horiz-adv-x="786" 
d="M382 804q170 0 270.5 -89.5t99.5 -249.5q0 -160 -104 -253.5t-275 -93.5q-96 0 -183 24v-142h-122v905q22 9 63 7.5t59 -7.5v-118q72 17 192 17zM378 217q115 0 182 66.5t66 182.5q-1 114 -64 176.5t-184 62.5q-109 0 -188 -19v-443q81 -26 188 -26z" />
    <glyph glyph-name="germandbls" unicode="&#xdf;" horiz-adv-x="742" 
d="M710 295q9 -143 -65.5 -228t-186.5 -85q-101 -2 -192 69q-5 62 35 84q61 -50 124 -50q73 1 121.5 60t42.5 150q-4 68 -49.5 111.5t-122.5 42.5q-56 0 -128 -32q-12 12 -12 51t9 53q45 18 82 22q61 21 94 59.5t33 89.5q0 58 -40 97.5t-115 39.5q-76 0 -119 -56t-43 -142
v-631h-120v624q0 143 78.5 224.5t202.5 81.5q133 -1 205 -66t72 -158q0 -126 -126 -186q95 -12 155 -72.5t65 -152.5z" />
    <glyph glyph-name="agrave" unicode="&#xe0;" horiz-adv-x="675" 
d="M416 783h-79l-189 248h116zM613 206q1 -93 7.5 -130t20.5 -63l-1 -13h-102q-34 30 -35 119v20q-50 -74 -121 -115.5t-150 -41.5q-86 0 -138 48t-51 124q0 108 100 181.5t271 80.5q35 1 74 -2q-8 90 -46 141.5t-103 51.5q-89 0 -212 -83q-35 14 -42 81q141 100 268 102
q119 1 188.5 -87.5t70.5 -251.5zM491 326l1 12q-34 3 -73 3q-132 -3 -197 -51.5t-65 -114.5q0 -45 27.5 -72.5t78.5 -27.5q90 0 156.5 80t71.5 171z" />
    <glyph glyph-name="aacute" unicode="&#xe1;" horiz-adv-x="675" 
d="M548 1031l-168 -248h-73l124 248h117zM613 206q1 -93 7.5 -130t20.5 -63l-1 -13h-102q-34 30 -35 119v20q-50 -74 -121 -115.5t-150 -41.5q-86 0 -138 48t-51 124q0 108 100 181.5t271 80.5q35 1 74 -2q-8 90 -46 141.5t-103 51.5q-89 0 -212 -83q-35 14 -42 81
q141 100 268 102q119 1 188.5 -87.5t70.5 -251.5zM491 326l1 12q-34 3 -73 3q-132 -3 -197 -51.5t-65 -114.5q0 -45 27.5 -72.5t78.5 -27.5q90 0 156.5 80t71.5 171z" />
    <glyph glyph-name="acircumflex" unicode="&#xe2;" horiz-adv-x="675" 
d="M367 932l-131 -149h-87l190 234h56l188 -234h-86zM613 206q1 -93 7.5 -130t20.5 -63l-1 -13h-102q-34 30 -35 119v20q-50 -74 -121 -115.5t-150 -41.5q-86 0 -138 48t-51 124q0 108 100 181.5t271 80.5q35 1 74 -2q-8 90 -46 141.5t-103 51.5q-89 0 -212 -83
q-35 14 -42 81q141 100 268 102q119 1 188.5 -87.5t70.5 -251.5zM491 326l1 12q-34 3 -73 3q-132 -3 -197 -51.5t-65 -114.5q0 -45 27.5 -72.5t78.5 -27.5q90 0 156.5 80t71.5 171z" />
    <glyph glyph-name="atilde" unicode="&#xe3;" horiz-adv-x="675" 
d="M274 897q-22 0 -35.5 -24t-13.5 -68h-70q0 83 28.5 136t76.5 53q32 0 68.5 -24.5t69 -49t55.5 -24.5t37.5 25t14.5 68h71q0 -81 -28.5 -135t-77.5 -54q-26 0 -55.5 15t-50.5 33.5t-46 33.5t-44 15zM613 206q1 -93 7.5 -130t20.5 -63l-1 -13h-102q-34 30 -35 119v20
q-50 -74 -121 -115.5t-150 -41.5q-86 0 -138 48t-51 124q0 108 100 181.5t271 80.5q35 1 74 -2q-8 90 -46 141.5t-103 51.5q-89 0 -212 -83q-35 14 -42 81q141 100 268 102q119 1 188.5 -87.5t70.5 -251.5zM491 326l1 12q-34 3 -73 3q-132 -3 -197 -51.5t-65 -114.5
q0 -45 27.5 -72.5t78.5 -27.5q90 0 156.5 80t71.5 171z" />
    <glyph glyph-name="adieresis" unicode="&#xe4;" horiz-adv-x="675" 
d="M223 802q-28 0 -48.5 21t-20.5 50t20.5 50t48.5 21q27 0 48 -21.5t21 -49.5t-21 -49.5t-48 -21.5zM522 802q-28 0 -48.5 21t-20.5 50t20.5 50t48.5 21q27 0 48 -21.5t21 -49.5t-21 -49.5t-48 -21.5zM613 206q1 -93 7.5 -130t20.5 -63l-1 -13h-102q-34 30 -35 119v20
q-50 -74 -121 -115.5t-150 -41.5q-86 0 -138 48t-51 124q0 108 100 181.5t271 80.5q35 1 74 -2q-8 90 -46 141.5t-103 51.5q-89 0 -212 -83q-35 14 -42 81q141 100 268 102q119 1 188.5 -87.5t70.5 -251.5zM491 326l1 12q-34 3 -73 3q-132 -3 -197 -51.5t-65 -114.5
q0 -45 27.5 -72.5t78.5 -27.5q90 0 156.5 80t71.5 171z" />
    <glyph glyph-name="aring" unicode="&#xe5;" horiz-adv-x="675" 
d="M366 769q-79 0 -128.5 40t-49.5 105q0 63 48 104t130 41q80 0 128.5 -41t48.5 -104q0 -62 -51.5 -103.5t-125.5 -41.5zM364 1005q-49 0 -78.5 -26t-29.5 -65t30 -64.5t78 -25.5q47 0 79 26t32 64q0 40 -31 65.5t-80 25.5zM613 206q1 -93 7.5 -130t20.5 -63l-1 -13h-102
q-34 30 -35 119v20q-50 -74 -121 -115.5t-150 -41.5q-86 0 -138 48t-51 124q0 108 100 181.5t271 80.5q35 1 74 -2q-8 90 -46 141.5t-103 51.5q-89 0 -212 -83q-35 14 -42 81q141 100 268 102q119 1 188.5 -87.5t70.5 -251.5zM491 326l1 12q-34 3 -73 3q-132 -3 -197 -51.5
t-65 -114.5q0 -45 27.5 -72.5t78.5 -27.5q90 0 156.5 80t71.5 171z" />
    <glyph glyph-name="ae" unicode="&#xe6;" horiz-adv-x="1126" 
d="M818 707q133 0 211.5 -93t65.5 -250l-17 -23l-470 -84q18 -83 72.5 -129t127.5 -44q103 2 202 93q17 -7 30 -25.5t17.5 -31.5t4.5 -16q-123 -120 -265 -122q-85 -1 -155.5 42t-110.5 121q-51 -77 -130.5 -120.5t-168.5 -42.5q-86 1 -138 49t-51 123q0 108 100 181.5
t271 80.5q35 1 74 -2q-8 90 -46 141.5t-103 51.5q-89 0 -212 -83q-35 14 -42 81q141 100 268 102q71 1 125 -35.5t85 -104.5q96 140 255 140zM982 398q4 97 -42 155.5t-122 58.5q-91 0 -153 -82t-64 -194zM490 326l1 12q-34 3 -72 3q-132 -3 -197 -51.5t-65 -114.5
q0 -45 27.5 -72.5t78.5 -27.5q91 0 157 76t70 175z" />
    <glyph glyph-name="ccedilla" unicode="&#xe7;" horiz-adv-x="660" 
d="M627 383q-76 -20 -115 -8q3 103 -39.5 167t-114.5 64q-88 0 -146 -81t-58 -198q0 -105 55 -174t138 -70q96 0 197 94q21 -7 36.5 -26.5t20.5 -33t5 -17.5q-120 -110 -254 -118q2 -18 10 -32t26.5 -36.5t29.5 -39.5q32 -47 32 -101t-34.5 -92.5t-85.5 -39.5
q-65 -2 -120 64l54 58q33 -40 65 -40q19 0 31.5 16t12.5 41q0 15 -6 28t-23.5 35t-21.5 29q-25 34 -33.5 57t-9.5 59q-108 21 -178 112t-70 229q0 158 96 268t237 110q124 0 198.5 -92.5t64.5 -231.5z" />
    <glyph glyph-name="egrave" unicode="&#xe8;" horiz-adv-x="665" 
d="M411 783h-79l-189 248h116zM357 707q133 0 211.5 -93t65.5 -250l-17 -23l-470 -84q18 -83 72.5 -129t127.5 -45q104 3 202 94q17 -7 30 -25.5t17.5 -31.5t4.5 -16q-123 -120 -265 -122q-126 -2 -214 89t-91 243q-3 162 89.5 277.5t236.5 115.5zM521 402q4 96 -42 153
t-122 57q-90 0 -152 -80.5t-65 -191.5z" />
    <glyph glyph-name="eacute" unicode="&#xe9;" horiz-adv-x="665" 
d="M543 1031l-168 -248h-73l124 248h117zM357 707q133 0 211.5 -93t65.5 -250l-17 -23l-470 -84q18 -83 72.5 -129t127.5 -45q104 3 202 94q17 -7 30 -25.5t17.5 -31.5t4.5 -16q-123 -120 -265 -122q-126 -2 -214 89t-91 243q-3 162 89.5 277.5t236.5 115.5zM521 402
q4 96 -42 153t-122 57q-90 0 -152 -80.5t-65 -191.5z" />
    <glyph glyph-name="ecircumflex" unicode="&#xea;" horiz-adv-x="665" 
d="M362 932l-131 -149h-87l190 234h56l188 -234h-86zM357 707q133 0 211.5 -93t65.5 -250l-17 -23l-470 -84q18 -83 72.5 -129t127.5 -45q104 3 202 94q17 -7 30 -25.5t17.5 -31.5t4.5 -16q-123 -120 -265 -122q-126 -2 -214 89t-91 243q-3 162 89.5 277.5t236.5 115.5z
M521 402q4 96 -42 153t-122 57q-90 0 -152 -80.5t-65 -191.5z" />
    <glyph glyph-name="edieresis" unicode="&#xeb;" horiz-adv-x="665" 
d="M218 802q-28 0 -48.5 21t-20.5 50t20.5 50t48.5 21q27 0 48 -21.5t21 -49.5t-21 -49.5t-48 -21.5zM517 802q-28 0 -48.5 21t-20.5 50t20.5 50t48.5 21q27 0 48 -21.5t21 -49.5t-21 -49.5t-48 -21.5zM357 707q133 0 211.5 -93t65.5 -250l-17 -23l-470 -84
q18 -83 72.5 -129t127.5 -45q104 3 202 94q17 -7 30 -25.5t17.5 -31.5t4.5 -16q-123 -120 -265 -122q-126 -2 -214 89t-91 243q-3 162 89.5 277.5t236.5 115.5zM521 402q4 96 -42 153t-122 57q-90 0 -152 -80.5t-65 -191.5z" />
    <glyph glyph-name="igrave" unicode="&#xec;" horiz-adv-x="271" 
d="M107 783l-189 248h116l152 -248h-79zM76 0v671q19 6 61 6t59 -6v-671h-120z" />
    <glyph glyph-name="iacute" unicode="&#xed;" horiz-adv-x="271" 
d="M77 783l124 248h117l-168 -248h-73zM76 0v671q19 6 61 6t59 -6v-671h-120z" />
    <glyph glyph-name="icircumflex" unicode="&#xee;" horiz-adv-x="271" 
d="M165 1017l188 -234h-86l-130 149l-131 -149h-87l190 234h56zM76 671q19 6 61 6t59 -6v-671h-120v671z" />
    <glyph glyph-name="idieresis" unicode="&#xef;" horiz-adv-x="271" 
d="M-7 802q-28 0 -48.5 21t-20.5 50t20.5 50t48.5 21q27 0 48 -21.5t21 -49.5t-21 -49.5t-48 -21.5zM292 802q-28 0 -48.5 21t-20.5 50t20.5 50t48.5 21q27 0 48 -21.5t21 -49.5t-21 -49.5t-48 -21.5zM76 0v671q19 6 61 6t59 -6v-671h-120z" />
    <glyph glyph-name="eth" unicode="&#xf0;" horiz-adv-x="682" 
d="M446 761q94 -89 149 -197t56 -221q0 -67 -20.5 -130.5t-60 -117t-107.5 -86t-154 -32.5q-127 0 -202.5 86t-75.5 217q0 142 86 239t215 98q84 2 146 -49q-41 77 -118 148q-79 -39 -199 -88q-42 18 -50 69q9 4 74.5 30.5t104.5 44.5q-71 50 -145 85q2 19 16.5 38.5
t38.5 29.5q92 -39 180 -107q93 53 101 96q26 8 57 3t51 -19q-9 -59 -143 -137zM316 76q94 0 153.5 85t58.5 193q-1 78 -45 130t-116 52q-93 0 -154 -75.5t-61 -183.5q0 -88 43 -144.5t121 -56.5z" />
    <glyph glyph-name="ntilde" unicode="&#xf1;" horiz-adv-x="734" 
d="M311 897q-22 0 -35.5 -24t-13.5 -68h-70q0 83 28.5 136t76.5 53q32 0 68.5 -24.5t69 -49t55.5 -24.5t37.5 25t14.5 68h71q0 -81 -28.5 -135t-77.5 -54q-26 0 -55.5 15t-50.5 33.5t-46 33.5t-44 15zM433 707q122 0 183 -89t61 -255v-363h-121v349q0 121 -37 189t-110 68
q-56 0 -106.5 -45t-80.5 -115t-30 -142v-304h-121v512q0 81 -13 140v18q65 14 111 9q13 -41 13 -86v-39q42 68 109 110.5t142 42.5z" />
    <glyph glyph-name="ograve" unicode="&#xf2;" horiz-adv-x="717" 
d="M347 783l-189 248h116l152 -248h-79zM332 -18q-141 0 -221 95.5t-80 239.5q0 161 103 275.5t253 114.5q136 0 216.5 -94t82.5 -240q2 -169 -98.5 -280t-255.5 -111zM338 83q97 0 161 83t64 195q0 103 -50.5 174t-132.5 71q-96 0 -161 -85.5t-65 -203.5q0 -99 48 -166.5
t136 -67.5z" />
    <glyph glyph-name="oacute" unicode="&#xf3;" horiz-adv-x="717" 
d="M317 783l124 248h117l-168 -248h-73zM332 -18q-141 0 -221 95.5t-80 239.5q0 161 103 275.5t253 114.5q136 0 216.5 -94t82.5 -240q2 -169 -98.5 -280t-255.5 -111zM338 83q97 0 161 83t64 195q0 103 -50.5 174t-132.5 71q-96 0 -161 -85.5t-65 -203.5q0 -99 48 -166.5
t136 -67.5z" />
    <glyph glyph-name="ocircumflex" unicode="&#xf4;" horiz-adv-x="717" 
d="M377 932l-131 -149h-87l190 234h56l188 -234h-86zM686 373q2 -169 -98.5 -280t-255.5 -111q-141 0 -221 95.5t-80 239.5q0 161 103 275.5t253 114.5q136 0 216.5 -94t82.5 -240zM338 83q97 0 161 83t64 195q0 103 -50.5 174t-132.5 71q-96 0 -161 -85.5t-65 -203.5
q0 -99 48 -166.5t136 -67.5z" />
    <glyph glyph-name="otilde" unicode="&#xf5;" horiz-adv-x="717" 
d="M480 800q-26 0 -55.5 15t-50.5 33.5t-46 33.5t-44 15q-22 0 -35.5 -24t-13.5 -68h-70q0 83 28.5 136t76.5 53q32 0 68.5 -24.5t69 -49t55.5 -24.5t37.5 25t14.5 68h71q0 -81 -28.5 -135t-77.5 -54zM332 -18q-141 0 -221 95.5t-80 239.5q0 161 103 275.5t253 114.5
q136 0 216.5 -94t82.5 -240q2 -169 -98.5 -280t-255.5 -111zM338 83q97 0 161 83t64 195q0 103 -50.5 174t-132.5 71q-96 0 -161 -85.5t-65 -203.5q0 -99 48 -166.5t136 -67.5z" />
    <glyph glyph-name="odieresis" unicode="&#xf6;" horiz-adv-x="717" 
d="M233 802q-28 0 -48.5 21t-20.5 50t20.5 50t48.5 21q27 0 48 -21.5t21 -49.5t-21 -49.5t-48 -21.5zM532 802q-28 0 -48.5 21t-20.5 50t20.5 50t48.5 21q27 0 48 -21.5t21 -49.5t-21 -49.5t-48 -21.5zM332 -18q-141 0 -221 95.5t-80 239.5q0 161 103 275.5t253 114.5
q136 0 216.5 -94t82.5 -240q2 -169 -98.5 -280t-255.5 -111zM338 83q97 0 161 83t64 195q0 103 -50.5 174t-132.5 71q-96 0 -161 -85.5t-65 -203.5q0 -99 48 -166.5t136 -67.5z" />
    <glyph glyph-name="divide" unicode="&#xf7;" horiz-adv-x="701" 
d="M353 596q-28 0 -48 21t-20 51t20 51t48 21q29 0 49 -21t20 -51t-20 -51t-49 -21zM92 387v100h518v-100h-518zM353 129q-28 0 -48 21t-20 51t20 51t48 21q29 0 49 -21t20 -51t-20 -51t-49 -21z" />
    <glyph glyph-name="oslash" unicode="&#xf8;" horiz-adv-x="730" 
d="M696 373q2 -169 -98.5 -280t-255.5 -111q-115 0 -193 67l-43 -49h-61v12l67 77q-71 91 -71 228q0 161 103 275.5t253 114.5q117 0 194 -71l30 35h70v-12l-60 -68q63 -90 65 -218zM164 317q0 -75 29 -135l27 31l33 34l158 177l19 26l83 97q-49 59 -124 59
q-96 0 -160.5 -85.5t-64.5 -203.5zM348 83q97 0 161 83t64 195q0 76 -27 133l-53 -60l-32 -33l-153 -168l-22 -29l-61 -69q49 -52 123 -52z" />
    <glyph glyph-name="ugrave" unicode="&#xf9;" horiz-adv-x="728" 
d="M413 783h-79l-189 248h116zM659 195q0 -129 26 -180l-1 -15h-102q-18 18 -25.5 42t-7.5 80q-40 -65 -104 -102.5t-139 -37.5q-113 0 -180.5 75t-67.5 228v386q46 12 120 0v-366q0 -222 153 -222q96 0 152 86t56 222v280q22 5 65 4t55 -4v-476z" />
    <glyph glyph-name="uacute" unicode="&#xfa;" horiz-adv-x="728" 
d="M545 1031l-168 -248h-73l124 248h117zM659 195q0 -129 26 -180l-1 -15h-102q-18 18 -25.5 42t-7.5 80q-40 -65 -104 -102.5t-139 -37.5q-113 0 -180.5 75t-67.5 228v386q46 12 120 0v-366q0 -222 153 -222q96 0 152 86t56 222v280q22 5 65 4t55 -4v-476z" />
    <glyph glyph-name="ucircumflex" unicode="&#xfb;" horiz-adv-x="728" 
d="M364 932l-131 -149h-87l190 234h56l188 -234h-86zM659 195q0 -129 26 -180l-1 -15h-102q-18 18 -25.5 42t-7.5 80q-40 -65 -104 -102.5t-139 -37.5q-113 0 -180.5 75t-67.5 228v386q46 12 120 0v-366q0 -222 153 -222q96 0 152 86t56 222v280q22 5 65 4t55 -4v-476z" />
    <glyph glyph-name="udieresis" unicode="&#xfc;" horiz-adv-x="728" 
d="M220 802q-28 0 -48.5 21t-20.5 50t20.5 50t48.5 21q27 0 48 -21.5t21 -49.5t-21 -49.5t-48 -21.5zM519 802q-28 0 -48.5 21t-20.5 50t20.5 50t48.5 21q27 0 48 -21.5t21 -49.5t-21 -49.5t-48 -21.5zM659 195q0 -129 26 -180l-1 -15h-102q-18 18 -25.5 42t-7.5 80
q-40 -65 -104 -102.5t-139 -37.5q-113 0 -180.5 75t-67.5 228v386q46 12 120 0v-366q0 -222 153 -222q96 0 152 86t56 222v280q22 5 65 4t55 -4v-476z" />
    <glyph glyph-name="yacute" unicode="&#xfd;" horiz-adv-x="707" 
d="M541 1032l-168 -248h-73l124 248h117zM687 671q8 -67 7 -145t-23 -170t-55.5 -179t-91 -173t-129.5 -150q-126 -113 -280 -115q-49 0 -80 17q-19 46 -1 86l19 13q29 -15 62 -15q104 -1 226 122q18 18 50 56q-84 58 -154 150t-113 188t-67.5 168t-35.5 128l6 18
q57 15 109 1q8 -43 29.5 -105.5t58.5 -146.5t98 -169t132 -143q132 223 118 554q37 25 115 10z" />
    <glyph glyph-name="thorn" unicode="&#xfe;" horiz-adv-x="706" 
d="M401 707q127 0 200.5 -93t73.5 -240q0 -164 -84.5 -278t-214.5 -114q-124 0 -200 110l1 -338q-63 -11 -119 0v1180q19 6 61 6t59 -6v-392q32 71 92.5 118t130.5 47zM352 84q88 0 144.5 86t55.5 208q0 98 -45 163t-118 65q-87 0 -149 -99.5t-62 -217.5q0 -77 50.5 -141
t123.5 -64z" />
    <glyph glyph-name="ydieresis" unicode="&#xff;" horiz-adv-x="707" 
d="M216 803q-28 0 -48.5 21t-20.5 50t20.5 50t48.5 21q27 0 48 -21.5t21 -49.5t-21 -49.5t-48 -21.5zM515 803q-28 0 -48.5 21t-20.5 50t20.5 50t48.5 21q27 0 48 -21.5t21 -49.5t-21 -49.5t-48 -21.5zM687 671q8 -67 7 -145t-23 -170t-55.5 -179t-91 -173t-129.5 -150
q-126 -113 -280 -115q-49 0 -80 17q-19 46 -1 86l19 13q29 -15 62 -15q104 -1 226 122q18 18 50 56q-84 58 -154 150t-113 188t-67.5 168t-35.5 128l6 18q57 15 109 1q8 -43 29.5 -105.5t58.5 -146.5t98 -169t132 -143q132 223 118 554q37 25 115 10z" />
    <glyph glyph-name="Amacron" unicode="&#x100;" horiz-adv-x="879" 
d="M652 1066v-81h-429v81h429zM492 899q33 -78 113 -275t149 -360.5t112 -246.5l-7 -17q-94 -3 -129 13q-18 30 -82 198h-428l-78 -211h-129l365 899q21 8 58.5 8t55.5 -8zM257 310h354q-4 12 -176 479z" />
    <glyph glyph-name="amacron" unicode="&#x101;" horiz-adv-x="675" 
d="M588 920v-86h-446v86h446zM613 206q1 -93 7.5 -130t20.5 -63l-1 -13h-102q-34 30 -35 119v20q-50 -74 -121 -115.5t-150 -41.5q-86 0 -138 48t-51 124q0 108 100 181.5t271 80.5q35 1 74 -2q-8 90 -46 141.5t-103 51.5q-89 0 -212 -83q-35 14 -42 81q141 100 268 102
q119 1 188.5 -87.5t70.5 -251.5zM491 326l1 12q-34 3 -73 3q-132 -3 -197 -51.5t-65 -114.5q0 -45 27.5 -72.5t78.5 -27.5q90 0 156.5 80t71.5 171z" />
    <glyph glyph-name="Abreve" unicode="&#x102;" horiz-adv-x="879" 
d="M436 948q-94 0 -152 47.5t-58 137.5h84q0 -51 34.5 -83.5t91.5 -32.5t92.5 33.5t35.5 82.5h85q0 -87 -61 -136t-152 -49zM492 899q33 -78 113 -275t149 -360.5t112 -246.5l-7 -17q-94 -3 -129 13q-18 30 -82 198h-428l-78 -211h-129l365 899q21 8 58.5 8t55.5 -8z
M257 310h354q-4 12 -176 479z" />
    <glyph glyph-name="abreve" unicode="&#x103;" horiz-adv-x="675" 
d="M364 769q-96 0 -156 55.5t-60 159.5h84q0 -58 36 -95t96 -37t96.5 37.5t36.5 94.5h85q0 -101 -62 -158t-156 -57zM613 206q1 -93 7.5 -130t20.5 -63l-1 -13h-102q-34 30 -35 119v20q-50 -74 -121 -115.5t-150 -41.5q-86 0 -138 48t-51 124q0 108 100 181.5t271 80.5
q35 1 74 -2q-8 90 -46 141.5t-103 51.5q-89 0 -212 -83q-35 14 -42 81q141 100 268 102q119 1 188.5 -87.5t70.5 -251.5zM491 326l1 12q-34 3 -73 3q-132 -3 -197 -51.5t-65 -114.5q0 -45 27.5 -72.5t78.5 -27.5q90 0 156.5 80t71.5 171z" />
    <glyph glyph-name="Aogonek" unicode="&#x104;" horiz-adv-x="879" 
d="M824 -203l56 -46q-25 -41 -67.5 -68t-82.5 -27q-54 -1 -88.5 30.5t-34.5 92.5q0 55 31.5 123t87.5 119q-21 40 -78 190h-428l-78 -211h-129l365 899q21 8 58.5 8t55.5 -8q33 -78 113 -275t149 -360.5t112 -246.5l-7 -17q-42 0 -66 1q-98 -110 -98 -201q0 -27 15 -41.5
t38 -13.5q20 0 41.5 15t34.5 37zM257 310h354q-4 12 -176 479z" />
    <glyph glyph-name="aogonek" unicode="&#x105;" horiz-adv-x="675" 
d="M629 -214l56 -46q-25 -41 -67.5 -68t-82.5 -27q-54 -1 -88.5 30.5t-34.5 92.5q0 54 31.5 122t86.5 119q-26 31 -27 110v20q-50 -74 -121 -115.5t-150 -41.5q-86 0 -138 48t-51 124q0 108 100 181.5t271 80.5q35 1 74 -2q-8 90 -46 141.5t-103 51.5q-89 0 -212 -83
q-35 14 -42 81q141 100 268 102q119 1 188.5 -87.5t70.5 -251.5l1 -162q1 -93 7.5 -130t20.5 -63l-1 -13h-33q-51 -55 -79 -111t-28 -100q0 -27 15 -41.5t38 -13.5q20 0 41.5 15t34.5 37zM491 326l1 12q-34 3 -73 3q-132 -3 -197 -51.5t-65 -114.5q0 -45 27.5 -72.5
t78.5 -27.5q90 0 156.5 80t71.5 171z" />
    <glyph glyph-name="Cacute" unicode="&#x106;" horiz-adv-x="810" 
d="M403 976l165 196h109l-200 -196h-74zM450 -22q-178 0 -297 128t-119 346q0 127 53 234t150 171.5t217 64.5q148 0 234.5 -91.5t78.5 -238.5q-81 -19 -123 -8q8 99 -46.5 167t-142.5 67q-127 0 -211 -110t-84 -264q0 -163 80.5 -262.5t209.5 -100.5q61 0 126.5 23
t119.5 67q24 -10 39 -35.5t18 -47.5q-65 -54 -148 -82t-155 -28z" />
    <glyph glyph-name="cacute" unicode="&#x107;" horiz-adv-x="660" 
d="M308 783l124 248h117l-168 -248h-73zM339 -18q-130 -1 -219 94.5t-89 252.5q0 158 96 268t237 110q124 0 198.5 -92.5t64.5 -231.5q-76 -20 -115 -8q3 103 -39.5 167t-114.5 64q-88 0 -146 -81t-58 -198q0 -105 55 -174t138 -70q96 0 197 94q21 -7 36.5 -26.5t20.5 -33
t5 -17.5q-127 -116 -267 -118z" />
    <glyph glyph-name="Cdotaccent" unicode="&#x10a;" horiz-adv-x="810" 
d="M453 1007q-22 0 -38.5 17t-16.5 40t16.5 40t38.5 17t38.5 -17t16.5 -40t-16.5 -40t-38.5 -17zM450 -22q-178 0 -297 128t-119 346q0 127 53 234t150 171.5t217 64.5q148 0 234.5 -91.5t78.5 -238.5q-81 -19 -123 -8q8 99 -46.5 167t-142.5 67q-127 0 -211 -110t-84 -264
q0 -163 80.5 -262.5t209.5 -100.5q61 0 126.5 23t119.5 67q24 -10 39 -35.5t18 -47.5q-65 -54 -148 -82t-155 -28z" />
    <glyph glyph-name="cdotaccent" unicode="&#x10b;" horiz-adv-x="660" 
d="M367 802q-28 0 -48.5 21t-20.5 50t20.5 50t48.5 21q27 0 48 -21.5t21 -49.5t-21 -49.5t-48 -21.5zM339 -18q-130 -1 -219 94.5t-89 252.5q0 158 96 268t237 110q124 0 198.5 -92.5t64.5 -231.5q-76 -20 -115 -8q3 103 -39.5 167t-114.5 64q-88 0 -146 -81t-58 -198
q0 -105 55 -174t138 -70q96 0 197 94q21 -7 36.5 -26.5t20.5 -33t5 -17.5q-127 -116 -267 -118z" />
    <glyph glyph-name="Ccaron" unicode="&#x10c;" horiz-adv-x="810" 
d="M483 973h-56l-190 224h87l131 -144l130 144h86zM767 592q-81 -19 -123 -8q8 99 -46.5 167t-142.5 67q-127 0 -211 -110t-84 -264q0 -163 80.5 -262.5t209.5 -100.5q61 0 126.5 23t119.5 67q24 -10 39 -35.5t18 -47.5q-65 -54 -148 -82t-155 -28q-178 0 -297 128t-119 346
q0 127 53 234t150 171.5t217 64.5q148 0 234.5 -91.5t78.5 -238.5z" />
    <glyph glyph-name="ccaron" unicode="&#x10d;" horiz-adv-x="660" 
d="M396 783h-56l-190 234h87l131 -153l130 153h86zM627 383q-76 -20 -115 -8q3 103 -39.5 167t-114.5 64q-88 0 -146 -81t-58 -198q0 -105 55 -174t138 -70q96 0 197 94q21 -7 36.5 -26.5t20.5 -33t5 -17.5q-127 -116 -267 -118q-130 -1 -219 94.5t-89 252.5q0 158 96 268
t237 110q124 0 198.5 -92.5t64.5 -231.5z" />
    <glyph glyph-name="Dcaron" unicode="&#x10e;" horiz-adv-x="837" 
d="M383 973h-56l-190 224h87l131 -144l130 144h86zM354 922q212 0 331 -126t119 -334q0 -220 -114 -350t-318 -130q-96 0 -160 9t-144 34v859q128 38 286 38zM677 459q1 161 -84 262.5t-241 101.5q-86 0 -162 -14v-708q82 -21 182 -21q147 0 225.5 103t79.5 276z" />
    <glyph glyph-name="dcaron" unicode="&#x10f;" horiz-adv-x="837" 
d="M834 1075h115l-44 -333h-87zM653 934v-765q0 -91 12 -152v-17h-102q-21 42 -27 115q-86 -133 -225 -133q-122 0 -201 96.5t-79 237.5q0 165 87 278t229 113q59 0 108 -34.5t78 -90.5v352q17 6 58.5 6t61.5 -6zM338 84q84 0 139.5 93t55.5 222q0 88 -49.5 147.5
t-118.5 59.5q-88 0 -149 -80t-62 -196q0 -107 51 -176.5t133 -69.5z" />
    <glyph glyph-name="Dcroat" unicode="&#x110;" horiz-adv-x="908" 
d="M425 922q212 0 330.5 -126t118.5 -334q0 -220 -114 -350t-317 -130q-97 0 -160.5 9t-144.5 34v395h-91v95h91v369q129 38 287 38zM748 459q1 161 -84 262.5t-241 101.5q-89 0 -163 -15v-293h215v-95h-215v-318q82 -22 183 -22q147 0 225.5 103t79.5 276z" />
    <glyph glyph-name="dcroat" unicode="&#x111;" horiz-adv-x="726" 
d="M742 781h-89v-612q0 -91 12 -152v-17h-102q-21 42 -27 115q-86 -133 -225 -133q-122 0 -201 96.5t-79 237.5q0 165 87 278t229 113q59 0 108 -34.5t78 -90.5v199h-207v63h207v90q17 6 58.5 6t61.5 -6v-90h89v-63zM338 84q84 0 139.5 93t55.5 222q0 88 -49.5 147.5
t-118.5 59.5q-88 0 -149 -80t-62 -196q0 -107 51 -176.5t133 -69.5z" />
    <glyph glyph-name="Emacron" unicode="&#x112;" horiz-adv-x="749" 
d="M605 1066v-81h-429v81h429zM705 99q11 -13 11 -46.5t-11 -52.5h-637v886l12 13h604q7 -22 -0.5 -53t-18.5 -46h-475v-313h423q6 -23 -1 -55.5t-18 -43.5h-404v-289h515z" />
    <glyph glyph-name="emacron" unicode="&#x113;" horiz-adv-x="665" 
d="M584 920v-86h-446v86h446zM357 707q133 0 211.5 -93t65.5 -250l-17 -23l-470 -84q18 -83 72.5 -129t127.5 -45q104 3 202 94q17 -7 30 -25.5t17.5 -31.5t4.5 -16q-123 -120 -265 -122q-126 -2 -214 89t-91 243q-3 162 89.5 277.5t236.5 115.5zM521 402q4 96 -42 153
t-122 57q-90 0 -152 -80.5t-65 -191.5z" />
    <glyph glyph-name="Ebreve" unicode="&#x114;" horiz-adv-x="749" 
d="M389 948q-94 0 -152 47.5t-58 137.5h84q0 -51 34.5 -83.5t91.5 -32.5q58 0 93 33.5t35 82.5h85q0 -87 -60.5 -136t-152.5 -49zM705 99q11 -13 11 -46.5t-11 -52.5h-637v886l12 13h604q7 -22 -0.5 -53t-18.5 -46h-475v-313h423q6 -23 -1 -55.5t-18 -43.5h-404v-289h515z
" />
    <glyph glyph-name="ebreve" unicode="&#x115;" horiz-adv-x="665" 
d="M360 769q-96 0 -156 55.5t-60 159.5h84q0 -58 36 -95t96 -37t96.5 37.5t36.5 94.5h85q0 -101 -62 -158t-156 -57zM357 707q133 0 211.5 -93t65.5 -250l-17 -23l-470 -84q18 -83 72.5 -129t127.5 -45q104 3 202 94q17 -7 30 -25.5t17.5 -31.5t4.5 -16q-123 -120 -265 -122
q-126 -2 -214 89t-91 243q-3 162 89.5 277.5t236.5 115.5zM521 402q4 96 -42 153t-122 57q-90 0 -152 -80.5t-65 -191.5z" />
    <glyph glyph-name="Edotaccent" unicode="&#x116;" horiz-adv-x="749" 
d="M390 984q-22 0 -38.5 17t-16.5 40t16.5 40t38.5 17t38.5 -17t16.5 -40t-16.5 -40t-38.5 -17zM705 99q11 -13 11 -46.5t-11 -52.5h-637v886l12 13h604q7 -22 -0.5 -53t-18.5 -46h-475v-313h423q6 -23 -1 -55.5t-18 -43.5h-404v-289h515z" />
    <glyph glyph-name="edotaccent" unicode="&#x117;" horiz-adv-x="665" 
d="M361 802q-28 0 -48.5 21t-20.5 50t20.5 50t48.5 21q27 0 48 -21.5t21 -49.5t-21 -49.5t-48 -21.5zM357 707q133 0 211.5 -93t65.5 -250l-17 -23l-470 -84q18 -83 72.5 -129t127.5 -45q104 3 202 94q17 -7 30 -25.5t17.5 -31.5t4.5 -16q-123 -120 -265 -122
q-126 -2 -214 89t-91 243q-3 162 89.5 277.5t236.5 115.5zM521 402q4 96 -42 153t-122 57q-90 0 -152 -80.5t-65 -191.5z" />
    <glyph glyph-name="Eogonek" unicode="&#x118;" horiz-adv-x="749" 
d="M705 0h-253q-96 -110 -96 -199q0 -27 15 -41.5t38 -13.5q20 0 41.5 15t34.5 37l56 -46q-25 -41 -67.5 -68t-82.5 -27q-54 -1 -88.5 30.5t-34.5 92.5q0 49 25.5 110t71.5 110h-297v886l12 13h604q7 -22 -0.5 -53t-18.5 -46h-475v-313h423q6 -23 -1 -55.5t-18 -43.5h-404
v-289h515q11 -13 11 -46.5t-11 -52.5z" />
    <glyph glyph-name="eogonek" unicode="&#x119;" horiz-adv-x="665" 
d="M357 707q133 0 211.5 -93t65.5 -250l-17 -23l-470 -84q18 -83 72.5 -129t127.5 -45q104 3 202 94q17 -7 30 -25.5t17.5 -31.5t4.5 -16q-110 -107 -237 -120q-105 -114 -105 -209q0 -27 15 -41.5t38 -13.5q20 0 41.5 15t34.5 37l56 -46q-25 -41 -67.5 -68t-82.5 -27
q-54 -1 -88.5 30.5t-34.5 92.5q0 52 29 117t80 116q-106 19 -176 106t-73 221q-3 162 89.5 277.5t236.5 115.5zM521 402q4 96 -42 153t-122 57q-90 0 -152 -80.5t-65 -191.5z" />
    <glyph glyph-name="Ecaron" unicode="&#x11a;" horiz-adv-x="749" 
d="M419 950h-56l-190 224h87l131 -144l130 144h86zM705 99q11 -13 11 -46.5t-11 -52.5h-637v886l12 13h604q7 -22 -0.5 -53t-18.5 -46h-475v-313h423q6 -23 -1 -55.5t-18 -43.5h-404v-289h515z" />
    <glyph glyph-name="ecaron" unicode="&#x11b;" horiz-adv-x="665" 
d="M390 783h-56l-190 234h87l131 -153l130 153h86zM357 707q133 0 211.5 -93t65.5 -250l-17 -23l-470 -84q18 -83 72.5 -129t127.5 -45q104 3 202 94q17 -7 30 -25.5t17.5 -31.5t4.5 -16q-123 -120 -265 -122q-126 -2 -214 89t-91 243q-3 162 89.5 277.5t236.5 115.5z
M521 402q4 96 -42 153t-122 57q-90 0 -152 -80.5t-65 -191.5z" />
    <glyph glyph-name="Gbreve" unicode="&#x11e;" horiz-adv-x="829" 
d="M441 971q-94 0 -152 47.5t-58 137.5h84q0 -51 34.5 -83.5t91.5 -32.5t92.5 33.5t35.5 82.5h85q0 -87 -61 -136t-152 -49zM444 818q-130 0 -207 -106.5t-77 -265.5q0 -162 81 -261.5t216 -99.5q118 0 211 50v216h-263q-6 23 1 55.5t18 43.5h347l14 -16v-346
q-58 -51 -149.5 -78.5t-178.5 -27.5q-184 0 -303.5 127t-119.5 343q0 124 47.5 230t142.5 173t218 67q150 0 249 -88.5t95 -221.5q-26 -6 -59.5 -9.5t-58.5 1.5q-4 99 -67.5 156.5t-156.5 57.5z" />
    <glyph glyph-name="gbreve" unicode="&#x11f;" horiz-adv-x="725" 
d="M359 769q-96 0 -156 55.5t-60 159.5h84q0 -58 36 -95t96 -37t96.5 37.5t36.5 94.5h85q0 -101 -62 -158t-156 -57zM562 680q48 5 105 -8v-16q-12 -96 -12 -159v-413q0 -173 -86 -272.5t-218 -100.5q-150 0 -292 114q12 68 48 88q130 -103 236 -101q88 1 144 72t56 196v52
q-36 -69 -91.5 -109.5t-122.5 -40.5q-129 0 -213.5 90.5t-84.5 243.5q0 106 38 194t111 142t167 54q63 0 115.5 -38.5t83.5 -100.5v20zM340 84q81 0 136 88t57 237q-3 76 -51 136.5t-117 60.5q-97 0 -154 -84.5t-57 -194.5q0 -104 50 -173.5t136 -69.5z" />
    <glyph glyph-name="Gdotaccent" unicode="&#x120;" horiz-adv-x="829" 
d="M441 1007q-22 0 -38.5 17t-16.5 40t16.5 40t38.5 17t38.5 -17t16.5 -40t-16.5 -40t-38.5 -17zM444 818q-130 0 -207 -106.5t-77 -265.5q0 -162 81 -261.5t216 -99.5q118 0 211 50v216h-263q-6 23 1 55.5t18 43.5h347l14 -16v-346q-58 -51 -149.5 -78.5t-178.5 -27.5
q-184 0 -303.5 127t-119.5 343q0 124 47.5 230t142.5 173t218 67q150 0 249 -88.5t95 -221.5q-26 -6 -59.5 -9.5t-58.5 1.5q-4 99 -67.5 156.5t-156.5 57.5z" />
    <glyph glyph-name="gdotaccent" unicode="&#x121;" horiz-adv-x="725" 
d="M360 802q-28 0 -48.5 21t-20.5 50t20.5 50t48.5 21q27 0 48 -21.5t21 -49.5t-21 -49.5t-48 -21.5zM562 680q48 5 105 -8v-16q-12 -96 -12 -159v-413q0 -173 -86 -272.5t-218 -100.5q-150 0 -292 114q12 68 48 88q130 -103 236 -101q88 1 144 72t56 196v52
q-36 -69 -91.5 -109.5t-122.5 -40.5q-129 0 -213.5 90.5t-84.5 243.5q0 106 38 194t111 142t167 54q63 0 115.5 -38.5t83.5 -100.5v20zM340 84q81 0 136 88t57 237q-3 76 -51 136.5t-117 60.5q-97 0 -154 -84.5t-57 -194.5q0 -104 50 -173.5t136 -69.5z" />
    <glyph glyph-name="uni0122" unicode="&#x122;" horiz-adv-x="829" 
d="M444 818q-130 0 -207 -106.5t-77 -265.5q0 -162 81 -261.5t216 -99.5q118 0 211 50v216h-263q-6 23 1 55.5t18 43.5h347l14 -16v-346q-58 -51 -149.5 -78.5t-178.5 -27.5q-184 0 -303.5 127t-119.5 343q0 124 47.5 230t142.5 173t218 67q150 0 249 -88.5t95 -221.5
q-26 -6 -59.5 -9.5t-58.5 1.5q-4 99 -67.5 156.5t-156.5 57.5zM340 -306l41 221h93l-54 -221h-80z" />
    <glyph glyph-name="uni0123" unicode="&#x123;" horiz-adv-x="725" 
d="M451 1021l-54 -234h-94l68 234h80zM562 680q48 5 105 -8v-16q-12 -96 -12 -159v-413q0 -173 -86 -272.5t-218 -100.5q-150 0 -292 114q12 68 48 88q130 -103 236 -101q88 1 144 72t56 196v52q-36 -69 -91.5 -109.5t-122.5 -40.5q-129 0 -213.5 90.5t-84.5 243.5
q0 106 38 194t111 142t167 54q63 0 115.5 -38.5t83.5 -100.5v20zM340 84q81 0 136 88t57 237q-3 76 -51 136.5t-117 60.5q-97 0 -154 -84.5t-57 -194.5q0 -104 50 -173.5t136 -69.5z" />
    <glyph glyph-name="Hcircumflex" unicode="&#x124;" horiz-adv-x="813" 
d="M405 1096l-131 -145h-87l190 222h56l188 -222h-86zM623 899q24 8 64 7t58 -7v-899h-122v360h-433v-360h-122v899q23 8 63.5 7t58.5 -7v-440h433v440z" />
    <glyph glyph-name="hcircumflex" unicode="&#x125;" horiz-adv-x="707" 
d="M379 1122l-131 -149h-87l190 234h56l188 -234h-86zM421 707q117 0 180 -90t63 -254v-363h-120v349q0 117 -37.5 184t-111.5 67q-85 0 -151 -94.5t-66 -211.5v-294h-120v934q20 6 60.5 6t59.5 -6v-364q44 63 107 100t136 37z" />
    <glyph glyph-name="Hbar" unicode="&#x126;" horiz-adv-x="867" 
d="M812 707v-94h-43v-613h-122v360h-434v-360h-122v613h-36v94h36v192q23 8 63.5 7t58.5 -7v-192h434v192q23 8 63 7t59 -7v-192h43zM647 459v154h-434v-154h434z" />
    <glyph glyph-name="hbar" unicode="&#x127;" horiz-adv-x="697" 
d="M410 707q118 0 180.5 -90t62.5 -254v-363h-120v349q0 117 -37.5 184t-110.5 67q-85 0 -151.5 -94.5t-66.5 -211.5v-294h-120v801h-76v62h76v71q20 6 61 6t59 -6v-71h271v-62h-271v-231q44 63 107 100t136 37z" />
    <glyph glyph-name="Imacron" unicode="&#x12a;" horiz-adv-x="249" 
d="M-24 985v81h296v-81h-296zM68 0v899q22 9 59 7.5t54 -7.5v-899h-113z" />
    <glyph glyph-name="imacron" unicode="&#x12b;" horiz-adv-x="271" 
d="M-63 834v86h397v-86h-397zM76 0v671q19 6 61 6t59 -6v-671h-120z" />
    <glyph glyph-name="Iogonek" unicode="&#x12e;" horiz-adv-x="249" 
d="M180 -195l56 -46q-25 -41 -67.5 -68t-82.5 -27q-54 -1 -88.5 30.5t-34.5 92.5q0 51 28 114.5t77 113.5v884q22 9 59 7.5t54 -7.5v-899h-40q-90 -106 -90 -192q0 -27 15 -41.5t38 -13.5q20 0 41.5 15t34.5 37z" />
    <glyph glyph-name="iogonek" unicode="&#x12f;" horiz-adv-x="271" 
d="M135 802q-28 0 -48.5 21t-20.5 50t20.5 50t48.5 21q27 0 48 -21.5t21 -49.5t-21 -49.5t-48 -21.5zM212 -218l56 -46q-25 -41 -67.5 -68t-82.5 -27q-54 -1 -88.5 30.5t-34.5 92.5q0 53 30 119t83 117h-32v671q19 6 61 6t59 -6v-671h-2q-53 -55 -82 -112.5t-29 -102.5
q0 -27 15 -41.5t38 -13.5q20 0 41.5 15t34.5 37z" />
    <glyph glyph-name="Idotaccent" unicode="&#x130;" horiz-adv-x="249" 
d="M124 984q-22 0 -38.5 17t-16.5 40t16.5 40t38.5 17t38.5 -17t16.5 -40t-16.5 -40t-38.5 -17zM68 0v899q22 9 59 7.5t54 -7.5v-899h-113z" />
    <glyph glyph-name="dotlessi" unicode="&#x131;" horiz-adv-x="271" 
d="M76 0v671q19 6 61 6t59 -6v-671h-120z" />
    <glyph glyph-name="IJ" unicode="&#x132;" horiz-adv-x="985" 
d="M68 0v899q22 9 59 7.5t54 -7.5v-899h-113zM572 -18q-95 0 -186 51t-160 138q8 29 27 53t40 31q52 -77 123 -123.5t143 -46.5q114 0 175 83.5t61 219.5v511q28 6 67.5 5.5t54.5 -5.5v-527q0 -106 -38.5 -193t-118.5 -142t-188 -55z" />
    <glyph glyph-name="ij" unicode="&#x133;" horiz-adv-x="553" 
d="M416 802q-28 0 -48.5 21t-20.5 50t20.5 50.5t48.5 21.5q27 0 48 -22t21 -50t-21 -49.5t-48 -21.5zM135 802q-28 0 -48.5 21t-20.5 50t20.5 50t48.5 21q27 0 48 -21.5t21 -49.5t-21 -49.5t-48 -21.5zM76 0v671q19 6 61 6t59 -6v-671h-120zM320 -243q-45 2 -87 18
q-7 22 0.5 55t21.5 50q33 -13 48 -13q31 0 42.5 39t11.5 134v631q20 6 62 5.5t58 -5.5v-682q0 -106 -40.5 -169t-116.5 -63z" />
    <glyph glyph-name="Jcircumflex" unicode="&#x134;" horiz-adv-x="793" 
d="M693 1173l188 -222h-86l-130 145l-131 -145h-87l190 222h56zM603 899q27 6 66.5 5.5t55.5 -5.5v-527q0 -106 -38.5 -193t-118.5 -142t-188 -55q-95 0 -186.5 51t-159.5 138q8 29 27 53t39 31q53 -77 124 -123.5t143 -46.5q114 0 175 83.5t61 219.5v511z" />
    <glyph glyph-name="jcircumflex" unicode="&#x135;" horiz-adv-x="282" 
d="M174 1017l188 -234h-86l-130 149l-131 -149h-87l190 234h56zM86 671q20 6 62 5.5t58 -5.5v-682q0 -106 -40.5 -169t-116.5 -63q-45 2 -87 18q-7 22 0.5 55t21.5 50q32 -13 48 -13q31 0 42.5 39t11.5 134v631z" />
    <glyph glyph-name="uni0136" unicode="&#x136;" horiz-adv-x="882" 
d="M480 461q187 -235 251 -305q70 -77 132 -126l-1 -19q-57 -19 -122 -19q-86 59 -354 409q-101 -60 -196 -106v-295h-122v899q22 8 63.5 7t58.5 -7v-490q177 89 278 164q226 169 217 319q35 25 113 9q14 -88 -49.5 -190t-189.5 -196q-25 -18 -79 -54zM316 -297l41 221h93
l-54 -221h-80z" />
    <glyph glyph-name="uni0137" unicode="&#x137;" horiz-adv-x="759" 
d="M446 338q79 -94 104.5 -124t70.5 -81t67.5 -70.5t41.5 -30.5v-20q-18 -7 -59 -12.5t-76 -4.5q-14 6 -37 27.5t-60.5 65t-66.5 79.5t-82 102q-80 -54 -171 -98v-171h-120v934q24 8 61.5 8t58.5 -8v-645q93 51 185 121q93 70 136 127t39 124q47 22 128 10
q29 -154 -198 -317zM274 -296l41 221h93l-54 -221h-80z" />
    <glyph glyph-name="kgreenlandic" unicode="&#x138;" horiz-adv-x="759" 
d="M446 338q79 -94 104.5 -124t70.5 -81t67.5 -70.5t41.5 -30.5v-20q-18 -7 -59 -12.5t-76 -4.5q-14 6 -37 27.5t-60.5 65t-66.5 79.5t-82 102q-80 -54 -171 -98v-171h-120v671q25 8 61.5 7.5t58.5 -7.5v-382q93 51 185 121q93 70 136 127t39 124q47 22 128 10
q29 -154 -198 -317z" />
    <glyph glyph-name="Lacute" unicode="&#x139;" horiz-adv-x="745" 
d="M91 953l165 196h109l-200 -196h-74zM90 0l-22 24v875q23 8 62.5 7t59.5 -7v-800h509q11 -14 11.5 -47t-11.5 -52h-609z" />
    <glyph glyph-name="lacute" unicode="&#x13a;" horiz-adv-x="335" 
d="M84 988l165 196h109l-200 -196h-74zM218 -18q-144 0 -144 201v751q21 7 59 7t62 -7v-714q0 -139 60 -139q17 0 51 12q8 -18 9.5 -44.5t-4.5 -45.5q-53 -20 -93 -21z" />
    <glyph glyph-name="uni013B" unicode="&#x13b;" horiz-adv-x="745" 
d="M90 0l-22 24v875q23 8 62.5 7t59.5 -7v-800h509q11 -14 11.5 -47t-11.5 -52h-609zM298 -296l41 221h93l-54 -221h-80z" />
    <glyph glyph-name="uni013C" unicode="&#x13c;" horiz-adv-x="335" 
d="M218 -18q-144 0 -144 201v751q21 7 59 7t62 -7v-714q0 -139 60 -139q17 0 51 12q8 -18 9.5 -44.5t-4.5 -45.5q-53 -20 -93 -21zM121 -306l41 221h93l-54 -221h-80z" />
    <glyph glyph-name="Lcaron" unicode="&#x13d;" horiz-adv-x="745" 
d="M456 836l16 333h114l-43 -333h-87zM90 0l-22 24v875q23 8 62.5 7t59.5 -7v-800h509q11 -14 11.5 -47t-11.5 -52h-609z" />
    <glyph glyph-name="lcaron" unicode="&#x13e;" horiz-adv-x="335" 
d="M321 851l16 333h114l-43 -333h-87zM218 -18q-144 0 -144 201v751q21 7 59 7t62 -7v-714q0 -139 60 -139q17 0 51 12q8 -18 9.5 -44.5t-4.5 -45.5q-53 -20 -93 -21z" />
    <glyph glyph-name="Lslash" unicode="&#x141;" horiz-adv-x="826" 
d="M780 99q12 -14 12 -47t-12 -52h-608l-23 24v300l-101 -41v112l101 40v464q23 8 62.5 7t59.5 -7v-415l202 81v-111l-202 -81v-274h509z" />
    <glyph glyph-name="lslash" unicode="&#x142;" horiz-adv-x="371" 
d="M328 93q8 -18 10 -44t-5 -46q-51 -20 -93 -21q-143 0 -143 201v277l-105 -51v99l105 51v375q20 7 58 7t62 -7v-317l113 54v-98l-113 -55v-298q0 -139 60 -139q17 0 51 12z" />
    <glyph glyph-name="Nacute" unicode="&#x143;" horiz-adv-x="894" 
d="M670 1149l-200 -196h-74l165 196h109zM704 899q21 8 63 7t59 -7v-899h-86l-550 684v-684h-122v876q10 14 40.5 23t44.5 4l551 -694v690z" />
    <glyph glyph-name="nacute" unicode="&#x144;" horiz-adv-x="734" 
d="M584 1031l-168 -248h-73l124 248h117zM433 707q122 0 183 -89t61 -255v-363h-121v349q0 121 -37 189t-110 68q-56 0 -106.5 -45t-80.5 -115t-30 -142v-304h-121v512q0 81 -13 140v18q65 14 111 9q13 -41 13 -86v-39q42 68 109 110.5t142 42.5z" />
    <glyph glyph-name="uni0145" unicode="&#x145;" horiz-adv-x="894" 
d="M704 899q21 8 63 7t59 -7v-899h-86l-550 684v-684h-122v876q10 14 40.5 23t44.5 4l551 -694v690zM364 -296l41 221h93l-54 -221h-80z" />
    <glyph glyph-name="uni0146" unicode="&#x146;" horiz-adv-x="734" 
d="M433 707q122 0 183 -89t61 -255v-363h-121v349q0 121 -37 189t-110 68q-56 0 -106.5 -45t-80.5 -115t-30 -142v-304h-121v512q0 81 -13 140v18q65 14 111 9q13 -41 13 -86v-39q42 68 109 110.5t142 42.5zM285 -296l41 221h93l-54 -221h-80z" />
    <glyph glyph-name="Ncaron" unicode="&#x147;" horiz-adv-x="894" 
d="M476 950h-56l-190 224h87l131 -144l130 144h86zM704 899q21 8 63 7t59 -7v-899h-86l-550 684v-684h-122v876q10 14 40.5 23t44.5 4l551 -694v690z" />
    <glyph glyph-name="ncaron" unicode="&#x148;" horiz-adv-x="734" 
d="M431 783h-56l-190 234h87l131 -153l130 153h86zM433 707q122 0 183 -89t61 -255v-363h-121v349q0 121 -37 189t-110 68q-56 0 -106.5 -45t-80.5 -115t-30 -142v-304h-121v512q0 81 -13 140v18q65 14 111 9q13 -41 13 -86v-39q42 68 109 110.5t142 42.5z" />
    <glyph glyph-name="Eng" unicode="&#x14a;" horiz-adv-x="876" 
d="M462 -361q-96 0 -186.5 46t-159.5 126q9 30 27.5 53t39.5 30q55 -70 129.5 -111t150.5 -41q107 0 173 79t66 202l-512 655v-678h-122v862q10 13 40.5 22.5t44.5 4.5l532 -678v673q20 8 63 7t59 -7l1 -876q0 -158 -96 -263.5t-250 -105.5z" />
    <glyph glyph-name="eng" unicode="&#x14b;" horiz-adv-x="752" 
d="M433 707q122 0 183 -89t61 -255v-374q0 -107 -40.5 -169.5t-117.5 -62.5q-44 2 -87 18q-6 22 1.5 55t20.5 50q33 -13 49 -13q31 0 42 38.5t11 134.5v309q0 113 -37 177.5t-110 64.5q-84 0 -150.5 -91t-66.5 -196v-304h-121v512q0 81 -13 140v18q65 14 111 9
q16 -46 16 -111v-23q42 72 109 117t139 45z" />
    <glyph glyph-name="Omacron" unicode="&#x14c;" horiz-adv-x="866" 
d="M238 997v81h429v-81h-429zM397 -18q-164 0 -263 123t-100 304q0 139 53.5 255.5t154 187t226.5 70.5q158 0 261.5 -132t103.5 -317q-1 -127 -55.5 -239t-155.5 -182t-225 -70zM402 85q127 0 214.5 118.5t89.5 277.5q2 144 -67 240.5t-180 96.5q-131 0 -215 -120t-84 -292
q1 -135 63.5 -228t178.5 -93z" />
    <glyph glyph-name="omacron" unicode="&#x14d;" horiz-adv-x="717" 
d="M152 834v86h446v-86h-446zM332 -18q-141 0 -221 95.5t-80 239.5q0 161 103 275.5t253 114.5q136 0 216.5 -94t82.5 -240q2 -169 -98.5 -280t-255.5 -111zM338 83q97 0 161 83t64 195q0 103 -50.5 174t-132.5 71q-96 0 -161 -85.5t-65 -203.5q0 -99 48 -166.5t136 -67.5z
" />
    <glyph glyph-name="Ohungarumlaut" unicode="&#x150;" horiz-adv-x="866" 
d="M290 981l123 172h96l-154 -172h-65zM473 981l133 172h109l-176 -172h-66zM397 -18q-164 0 -263 123t-100 304q0 139 53.5 255.5t154 187t226.5 70.5q158 0 261.5 -132t103.5 -317q-1 -127 -55.5 -239t-155.5 -182t-225 -70zM402 85q127 0 214.5 118.5t89.5 277.5
q2 144 -67 240.5t-180 96.5q-131 0 -215 -120t-84 -292q1 -135 63.5 -228t178.5 -93z" />
    <glyph glyph-name="ohungarumlaut" unicode="&#x151;" horiz-adv-x="717" 
d="M219 783l119 247h108l-153 -247h-74zM423 783l129 247h117l-172 -247h-74zM332 -18q-141 0 -221 95.5t-80 239.5q0 161 103 275.5t253 114.5q136 0 216.5 -94t82.5 -240q2 -169 -98.5 -280t-255.5 -111zM338 83q97 0 161 83t64 195q0 103 -50.5 174t-132.5 71
q-96 0 -161 -85.5t-65 -203.5q0 -99 48 -166.5t136 -67.5z" />
    <glyph glyph-name="OE" unicode="&#x152;" horiz-adv-x="1397" 
d="M1352 99q11 -13 11.5 -46.5t-11.5 -52.5h-637v140q-61 -74 -143.5 -116t-177.5 -42q-163 0 -261 122.5t-99 304.5q0 138 55 255.5t156.5 187.5t226.5 70q142 0 243 -112v62l13 12h604q6 -22 -1 -53.5t-18 -44.5h-476v-304h424q6 -23 -1.5 -55.5t-18.5 -43.5h-404v-284
h515zM708 481q2 144 -67 240.5t-181 96.5q-132 0 -216 -120t-84 -292q1 -136 64 -228.5t180 -92.5q127 0 214.5 119t89.5 277z" />
    <glyph glyph-name="oe" unicode="&#x153;" horiz-adv-x="1211" 
d="M903 707q133 0 211.5 -94t65.5 -251l-18 -23l-470 -82q18 -83 73 -129t128 -44q103 2 202 93q11 -4 20 -13.5t14.5 -19t9.5 -18.5t6 -16l2 -6q-123 -120 -266 -122q-82 -1 -151 39.5t-109 114.5q-48 -72 -123 -113t-166 -41q-141 0 -221 95.5t-80 239.5q0 161 103 275.5
t253 114.5q87 0 152 -39.5t102 -109.5q45 69 112.5 109t149.5 40zM1066 405q4 95 -41.5 151t-121.5 56q-87 0 -148 -75t-69 -181v-10zM338 83q97 0 161 83t64 195q0 103 -50.5 174t-132.5 71q-96 0 -161 -85.5t-65 -203.5q0 -99 48 -166.5t136 -67.5z" />
    <glyph glyph-name="Racute" unicode="&#x154;" horiz-adv-x="871" 
d="M620 1162l-200 -196h-74l165 196h109zM553 314q85 -105 147 -172t124 -116l-1 -20q-45 -15 -126 -15q-54 31 -274 298q-11 -1 -35 -1q-94 0 -198 27v-315h-122v878q154 44 334 44q171 0 268.5 -84t97.5 -233q0 -104 -57 -180t-158 -111zM388 387q112 -2 182.5 57
t70.5 162q0 96 -64.5 156.5t-187.5 60.5q-113 0 -199 -19v-389q96 -26 198 -28z" />
    <glyph glyph-name="racute" unicode="&#x155;" horiz-adv-x="534" 
d="M457 1049l-168 -248h-73l124 248h117zM503 682q7 -20 -5 -54t-29 -51q-48 21 -89 21q-86 -1 -137 -87t-51 -212v-299h-121v512q0 81 -13 140v18q62 14 107 9q12 -43 12 -86v-59q30 77 86 125t124 48q53 0 116 -25z" />
    <glyph glyph-name="uni0156" unicode="&#x156;" horiz-adv-x="871" 
d="M553 314q85 -105 147 -172t124 -116l-1 -20q-45 -15 -126 -15q-54 31 -274 298q-11 -1 -35 -1q-94 0 -198 27v-315h-122v878q154 44 334 44q171 0 268.5 -84t97.5 -233q0 -104 -57 -180t-158 -111zM388 387q112 -2 182.5 57t70.5 162q0 96 -64.5 156.5t-187.5 60.5
q-113 0 -199 -19v-389q96 -26 198 -28zM358 -296l41 221h93l-54 -221h-80z" />
    <glyph glyph-name="uni0157" unicode="&#x157;" horiz-adv-x="534" 
d="M503 682q7 -20 -5 -54t-29 -51q-48 21 -89 21q-86 -1 -137 -87t-51 -212v-299h-121v512q0 81 -13 140v18q62 14 107 9q12 -43 12 -86v-59q30 77 86 125t124 48q53 0 116 -25zM31 -296l41 221h93l-54 -221h-80z" />
    <glyph glyph-name="Rcaron" unicode="&#x158;" horiz-adv-x="871" 
d="M426 963h-56l-190 224h87l131 -144l130 144h86zM553 314q85 -105 147 -172t124 -116l-1 -20q-45 -15 -126 -15q-54 31 -274 298q-11 -1 -35 -1q-94 0 -198 27v-315h-122v878q154 44 334 44q171 0 268.5 -84t97.5 -233q0 -104 -57 -180t-158 -111zM388 387
q112 -2 182.5 57t70.5 162q0 96 -64.5 156.5t-187.5 60.5q-113 0 -199 -19v-389q96 -26 198 -28z" />
    <glyph glyph-name="rcaron" unicode="&#x159;" horiz-adv-x="534" 
d="M303 801h-56l-190 234h87l131 -153l130 153h86zM503 682q7 -20 -5 -54t-29 -51q-48 21 -89 21q-86 -1 -137 -87t-51 -212v-299h-121v512q0 81 -13 140v18q62 14 107 9q12 -43 12 -86v-59q30 77 86 125t124 48q53 0 116 -25z" />
    <glyph glyph-name="Sacute" unicode="&#x15a;" horiz-adv-x="813" 
d="M371 976l165 196h109l-200 -196h-74zM431 -18q-109 0 -213.5 36.5t-183.5 103.5q3 22 21.5 53.5t41.5 37.5q71 -62 159.5 -97t177.5 -35q103 0 160.5 49t57.5 125q0 77 -60.5 114.5t-180.5 44.5q-144 8 -225.5 69.5t-80.5 179.5t95.5 188.5t222.5 70.5q162 0 254 -80
t92 -194q-23 -7 -57 -10t-57 2q-4 84 -65.5 133.5t-168.5 49.5q-80 0 -135 -46t-55 -113q0 -73 54.5 -109.5t143.5 -42.5q183 -10 266.5 -73.5t83.5 -176.5q0 -126 -94.5 -203t-253.5 -77z" />
    <glyph glyph-name="sacute" unicode="&#x15b;" horiz-adv-x="676" 
d="M281 783l124 248h117l-168 -248h-73zM354 -18q-91 0 -174 27.5t-141 79.5q18 63 52 85q109 -91 244 -91q76 0 128 30.5t52 79.5q0 54 -46.5 81.5t-152.5 33.5q-249 19 -249 186q0 86 77.5 149.5t194.5 63.5q166 0 287 -80q-5 -46 -33 -93q-111 72 -238 72
q-76 0 -121 -33.5t-45 -75.5q0 -92 162 -100q155 -8 221 -58t66 -146q0 -93 -82.5 -152t-201.5 -59z" />
    <glyph glyph-name="Scedilla" unicode="&#x15e;" horiz-adv-x="813" 
d="M779 262q0 -122 -88.5 -198.5t-238.5 -81.5q2 -18 9.5 -31.5t26 -36t29.5 -39.5q32 -46 32 -100t-34.5 -93t-85.5 -39q-65 -2 -120 63l54 59q33 -40 65 -40q19 0 31.5 16t12.5 41q0 15 -6 28t-23.5 35t-21.5 29q-25 32 -33.5 54.5t-9.5 55.5q-200 17 -344 138
q3 22 21.5 53.5t41.5 37.5q71 -62 159.5 -97t177.5 -35q103 0 160.5 49t57.5 125q0 77 -60.5 114.5t-180.5 44.5q-144 8 -225.5 69.5t-80.5 179.5t95.5 188.5t222.5 70.5q162 0 254 -80t92 -194q-23 -7 -57 -10t-57 2q-4 84 -65.5 133.5t-168.5 49.5q-80 0 -135 -46
t-55 -113q0 -73 54.5 -109.5t143.5 -42.5q183 -10 266.5 -73.5t83.5 -176.5z" />
    <glyph glyph-name="scedilla" unicode="&#x15f;" horiz-adv-x="676" 
d="M638 193q0 -89 -77 -147.5t-190 -63.5q2 -18 9.5 -32t26 -36t29.5 -39q32 -47 32 -101t-34.5 -92.5t-85.5 -39.5q-65 -2 -120 64l54 58q33 -40 65 -40q19 0 31.5 16t12.5 41q0 15 -6 28t-23.5 35t-21.5 29q-25 33 -33.5 55.5t-9.5 56.5q-162 17 -258 104q18 63 52 85
q109 -91 244 -91q76 0 128 30.5t52 79.5q0 54 -46.5 81.5t-152.5 33.5q-249 19 -249 186q0 86 77.5 149.5t194.5 63.5q166 0 287 -80q-5 -46 -33 -93q-111 72 -238 72q-76 0 -121 -33.5t-45 -75.5q0 -92 162 -100q155 -8 221 -58t66 -146z" />
    <glyph glyph-name="Scaron" unicode="&#x160;" horiz-adv-x="813" 
d="M451 973h-56l-190 224h87l131 -144l130 144h86zM429 512q183 -10 266.5 -73.5t83.5 -176.5q0 -126 -94.5 -203t-253.5 -77q-109 0 -213.5 36.5t-183.5 103.5q3 22 21.5 53.5t41.5 37.5q71 -62 159.5 -97t177.5 -35q103 0 160.5 49t57.5 125q0 77 -60.5 114.5t-180.5 44.5
q-144 8 -225.5 69.5t-80.5 179.5t95.5 188.5t222.5 70.5q162 0 254 -80t92 -194q-23 -7 -57 -10t-57 2q-4 84 -65.5 133.5t-168.5 49.5q-80 0 -135 -46t-55 -113q0 -73 54.5 -109.5t143.5 -42.5z" />
    <glyph glyph-name="scaron" unicode="&#x161;" horiz-adv-x="676" 
d="M368 783h-56l-190 234h87l131 -153l130 153h86zM351 397q155 -8 221 -58t66 -146q0 -93 -82.5 -152t-201.5 -59q-91 0 -174 27.5t-141 79.5q18 63 52 85q109 -91 244 -91q76 0 128 30.5t52 79.5q0 54 -46.5 81.5t-152.5 33.5q-249 19 -249 186q0 86 77.5 149.5
t194.5 63.5q166 0 287 -80q-5 -46 -33 -93q-111 72 -238 72q-76 0 -121 -33.5t-45 -75.5q0 -92 162 -100z" />
    <glyph glyph-name="uni0162" unicode="&#x162;" horiz-adv-x="800" 
d="M458 800v-800h-35q0 -22 7 -37t27.5 -40t31.5 -42q32 -46 32 -100t-34.5 -93t-85.5 -39q-65 -2 -120 63l54 59q33 -40 65 -40q19 0 31.5 16t12.5 41q0 15 -6 28t-23.5 35t-21.5 29q-26 34 -34.5 58t-8.5 62h-18v800h-312q-5 21 -1.5 51t13.5 48h749q4 -23 -2.5 -54.5
t-17.5 -44.5h-303z" />
    <glyph glyph-name="uni0163" unicode="&#x163;" horiz-adv-x="495" 
d="M459 572h-243v-258q0 -111 34.5 -170.5t103.5 -59.5q37 0 86 20q11 -12 16.5 -46t-0.5 -53q-66 -23 -121 -23q-14 0 -21 1q3 -15 11 -28t25 -34t28 -37q32 -47 32 -101t-34.5 -92.5t-85.5 -39.5q-65 -2 -120 64l54 58q33 -40 65 -40q19 0 31.5 16t12.5 41q0 15 -6 28
t-23.5 35t-21.5 29q-26 34 -34.5 57.5t-8.5 60.5q-143 63 -143 306v266h-82v99h82v179q19 11 54.5 17t65.5 0v-196h243v-99z" />
    <glyph glyph-name="Tcaron" unicode="&#x164;" horiz-adv-x="800" 
d="M419 950h-56l-190 224h87l131 -144l130 144h86zM781 899q4 -23 -2.5 -54.5t-17.5 -44.5h-303v-800h-126v800h-312q-5 21 -1.5 51t13.5 48h749z" />
    <glyph glyph-name="tcaron" unicode="&#x165;" horiz-adv-x="495" 
d="M389 1108h114l-43 -333h-87zM216 867v-196h243v-99h-243v-258q0 -111 34.5 -170.5t103.5 -59.5q37 0 86 20q11 -12 16.5 -46t-0.5 -53q-66 -23 -121 -23q-111 -1 -175 81t-64 243v266h-82v99h82v179q19 11 54.5 17t65.5 0z" />
    <glyph glyph-name="Tbar" unicode="&#x166;" horiz-adv-x="833" 
d="M789 800h-302v-316h186v-90h-186v-394h-127v394h-178v90h178v316h-311q-5 21 -1.5 51t13.5 48h749q4 -23 -2.5 -54.5t-18.5 -44.5z" />
    <glyph glyph-name="tbar" unicode="&#x167;" horiz-adv-x="490" 
d="M454 593h-244v-138h244v-85h-244v-56q0 -110 35 -170t103 -60q36 0 87 20q11 -12 16 -46t-1 -53q-66 -23 -121 -23q-111 -1 -175 81t-64 243v64h-81v85h81v138h-81v86h81v171q19 11 54.5 17t65.5 0v-188h244v-86z" />
    <glyph glyph-name="Umacron" unicode="&#x16a;" horiz-adv-x="892" 
d="M232 996v81h429v-81h-429zM437 -22q-179 0 -274 106.5t-95 308.5v506q20 7 63 6t59 -6v-511q0 -148 64.5 -227.5t182.5 -79.5q124 0 194.5 88.5t70.5 230.5v499q22 7 63.5 6t58.5 -6v-501q0 -185 -101.5 -302.5t-285.5 -117.5z" />
    <glyph glyph-name="umacron" unicode="&#x16b;" horiz-adv-x="728" 
d="M586 920v-86h-446v86h446zM659 195q0 -129 26 -180l-1 -15h-102q-18 18 -25.5 42t-7.5 80q-40 -65 -104 -102.5t-139 -37.5q-113 0 -180.5 75t-67.5 228v386q46 12 120 0v-366q0 -222 153 -222q96 0 152 86t56 222v280q22 5 65 4t55 -4v-476z" />
    <glyph glyph-name="Uring" unicode="&#x16e;" horiz-adv-x="892" 
d="M448 896q-79 0 -128.5 40t-49.5 105q0 63 48 104t130 41q80 0 128.5 -41t48.5 -104q0 -62 -51.5 -103.5t-125.5 -41.5zM446 951q47 0 79 26t32 64q0 40 -31 65.5t-80 25.5t-78.5 -26t-29.5 -65t30 -64.5t78 -25.5zM437 -22q-179 0 -274 106.5t-95 308.5v506q20 7 63 6
t59 -6v-511q0 -148 64.5 -227.5t182.5 -79.5q124 0 194.5 88.5t70.5 230.5v499q22 7 63.5 6t58.5 -6v-501q0 -185 -101.5 -302.5t-285.5 -117.5z" />
    <glyph glyph-name="uring" unicode="&#x16f;" horiz-adv-x="728" 
d="M364 769q-79 0 -128.5 40t-49.5 105q0 63 48 104t130 41q80 0 128.5 -41t48.5 -104q0 -62 -51.5 -103.5t-125.5 -41.5zM362 1005q-49 0 -78.5 -26t-29.5 -65t30 -64.5t78 -25.5q47 0 79 26t32 64q0 40 -31 65.5t-80 25.5zM659 195q0 -129 26 -180l-1 -15h-102
q-18 18 -25.5 42t-7.5 80q-40 -65 -104 -102.5t-139 -37.5q-113 0 -180.5 75t-67.5 228v386q46 12 120 0v-366q0 -222 153 -222q96 0 152 86t56 222v280q22 5 65 4t55 -4v-476z" />
    <glyph glyph-name="Uhungarumlaut" unicode="&#x170;" horiz-adv-x="892" 
d="M283 979l123 172h96l-154 -172h-65zM466 979l133 172h109l-176 -172h-66zM437 -22q-179 0 -274 106.5t-95 308.5v506q20 7 63 6t59 -6v-511q0 -148 64.5 -227.5t182.5 -79.5q124 0 194.5 88.5t70.5 230.5v499q22 7 63.5 6t58.5 -6v-501q0 -185 -101.5 -302.5
t-285.5 -117.5z" />
    <glyph glyph-name="uhungarumlaut" unicode="&#x171;" horiz-adv-x="728" 
d="M433 1030l-153 -247h-74l119 247h108zM484 783h-74l129 247h117zM659 195q0 -129 26 -180l-1 -15h-102q-18 18 -25.5 42t-7.5 80q-40 -65 -104 -102.5t-139 -37.5q-113 0 -180.5 75t-67.5 228v386q46 12 120 0v-366q0 -222 153 -222q96 0 152 86t56 222v280q22 5 65 4
t55 -4v-476z" />
    <glyph glyph-name="Uogonek" unicode="&#x172;" horiz-adv-x="892" 
d="M702 899q22 7 63.5 6t58.5 -6v-501q0 -178 -94.5 -294t-265.5 -125q-101 -110 -101 -204q0 -27 15 -41.5t38 -13.5q20 0 41.5 15t34.5 37l56 -46q-25 -41 -67.5 -68t-82.5 -27q-54 -1 -88.5 30.5t-34.5 92.5q0 50 27.5 113.5t76.5 113.5q-152 17 -231.5 122t-79.5 290
v506q20 7 63 6t59 -6v-511q0 -148 64.5 -227.5t182.5 -79.5q124 0 194.5 88.5t70.5 230.5v499z" />
    <glyph glyph-name="uogonek" unicode="&#x173;" horiz-adv-x="728" 
d="M672 -214l56 -46q-25 -41 -67.5 -68t-82.5 -27q-54 -1 -88.5 30.5t-34.5 92.5q0 54 31.5 122t86.5 119q-24 30 -24 113q-40 -65 -104 -102.5t-139 -37.5q-113 0 -180.5 75t-67.5 228v386q46 12 120 0v-366q0 -222 153 -222q96 0 152 86t56 222v280q22 5 65 4t55 -4v-476
q0 -129 26 -180l-1 -15h-34q-51 -55 -79 -111t-28 -100q0 -27 15 -41.5t38 -13.5q20 0 41.5 15t34.5 37z" />
    <glyph glyph-name="Wcircumflex" unicode="&#x174;" horiz-adv-x="1210" 
d="M604 1096l-131 -145h-87l190 222h56l188 -222h-86zM1174 899q38 -166 -17.5 -417t-201.5 -458l-38 -24h-122l-22 14q-66 222 -108 348q-17 -66 -67.5 -180.5t-82.5 -166.5l-29 -15h-119l-32 17q-74 252 -167.5 498.5t-154.5 363.5l7 20q53 14 114 0q71 -135 154.5 -364
t138.5 -433h3q45 83 102.5 218.5t74.5 211.5q-19 70 -62 189q10 18 47 33.5t68 11.5q36 -85 104 -305t101 -359h4q115 180 166.5 403t25.5 385q35 25 113 9z" />
    <glyph glyph-name="wcircumflex" unicode="&#x175;" horiz-adv-x="897" 
d="M457 904l-131 -149h-87l190 234h56l188 -234h-86zM882 671q16 -122 -33 -316t-139 -343l-21 -12h-115l-20 15q-37 157 -72 255q-13 -51 -43.5 -132t-54.5 -127l-17 -11h-124l-21 14q-69 273 -212 638l9 19q69 13 115 0q109 -248 181 -561h6q67 167 104 336l-41 122
q10 19 44 34.5t67 11.5q47 -133 76 -239.5t63 -264.5h7q134 318 119 552q42 23 122 9z" />
    <glyph glyph-name="Ycircumflex" unicode="&#x176;" horiz-adv-x="808" 
d="M402 1096l-131 -145h-87l190 222h56l188 -222h-86zM788 899q29 -285 -290 -595v-304h-122v315q-54 93 -181 294t-180 270l8 20q72 15 127 0q39 -45 150.5 -225.5t152.5 -261.5q101 100 161 239t54 239q40 24 120 9z" />
    <glyph glyph-name="ycircumflex" unicode="&#x177;" horiz-adv-x="707" 
d="M360 933l-131 -149h-87l190 234h56l188 -234h-86zM687 671q8 -67 7 -145t-23 -170t-55.5 -179t-91 -173t-129.5 -150q-126 -113 -280 -115q-49 0 -80 17q-19 46 -1 86l19 13q29 -15 62 -15q104 -1 226 122q18 18 50 56q-84 58 -154 150t-113 188t-67.5 168t-35.5 128
l6 18q57 15 109 1q8 -43 29.5 -105.5t58.5 -146.5t98 -169t132 -143q132 223 118 554q37 25 115 10z" />
    <glyph glyph-name="Ydieresis" unicode="&#x178;" horiz-adv-x="808" 
d="M272 984q-22 0 -38 17t-16 40t16 40t38 17t38.5 -17t16.5 -40t-16.5 -40t-38.5 -17zM538 984q-22 0 -38 17t-16 40t16 40t38 17t38.5 -17t16.5 -40t-16.5 -40t-38.5 -17zM788 899q29 -285 -290 -595v-304h-122v315q-54 93 -181 294t-180 270l8 20q72 15 127 0
q39 -45 150.5 -225.5t152.5 -261.5q101 100 161 239t54 239q40 24 120 9z" />
    <glyph glyph-name="Zacute" unicode="&#x179;" horiz-adv-x="793" 
d="M620 1149l-200 -196h-74l165 196h109zM748 99q12 -13 12 -46.5t-12 -52.5h-691q-11 10 -18 37.5t-4 46.5q113 206 258 407.5t275 308.5h-506q-11 13 -11.5 46.5t11.5 52.5h658q11 -8 18.5 -41.5t5.5 -54.5q-138 -105 -295 -312t-258 -392h557z" />
    <glyph glyph-name="zacute" unicode="&#x17a;" horiz-adv-x="655" 
d="M510 1031l-168 -248h-73l124 248h117zM629 101q11 -9 11.5 -44.5t-11.5 -56.5h-589q-12 10 -20 38t-6 50q107 170 201 284.5t216 197.5h-380q-11 14 -11.5 47t11.5 54h555q11 -9 18.5 -46t5.5 -60q-215 -99 -454 -464h453z" />
    <glyph glyph-name="Zdotaccent" unicode="&#x17b;" horiz-adv-x="793" 
d="M396 984q-22 0 -38.5 17t-16.5 40t16.5 40t38.5 17t38.5 -17t16.5 -40t-16.5 -40t-38.5 -17zM748 99q12 -13 12 -46.5t-12 -52.5h-691q-11 10 -18 37.5t-4 46.5q113 206 258 407.5t275 308.5h-506q-11 13 -11.5 46.5t11.5 52.5h658q11 -8 18.5 -41.5t5.5 -54.5
q-138 -105 -295 -312t-258 -392h557z" />
    <glyph glyph-name="zdotaccent" unicode="&#x17c;" horiz-adv-x="655" 
d="M328 802q-28 0 -48.5 21t-20.5 50t20.5 50t48.5 21q27 0 48 -21.5t21 -49.5t-21 -49.5t-48 -21.5zM629 101q11 -9 11.5 -44.5t-11.5 -56.5h-589q-12 10 -20 38t-6 50q107 170 201 284.5t216 197.5h-380q-11 14 -11.5 47t11.5 54h555q11 -9 18.5 -46t5.5 -60
q-215 -99 -454 -464h453z" />
    <glyph glyph-name="Zcaron" unicode="&#x17d;" horiz-adv-x="793" 
d="M426 950h-56l-190 224h87l131 -144l130 144h86zM748 99q12 -13 12 -46.5t-12 -52.5h-691q-11 10 -18 37.5t-4 46.5q113 206 258 407.5t275 308.5h-506q-11 13 -11.5 46.5t11.5 52.5h658q11 -8 18.5 -41.5t5.5 -54.5q-138 -105 -295 -312t-258 -392h557z" />
    <glyph glyph-name="zcaron" unicode="&#x17e;" horiz-adv-x="655" 
d="M357 783h-56l-190 234h87l131 -153l130 153h86zM629 101q11 -9 11.5 -44.5t-11.5 -56.5h-589q-12 10 -20 38t-6 50q107 170 201 284.5t216 197.5h-380q-11 14 -11.5 47t11.5 54h555q11 -9 18.5 -46t5.5 -60q-215 -99 -454 -464h453z" />
    <glyph glyph-name="longs" unicode="&#x17f;" horiz-adv-x="345" 
d="M100 0v627q0 323 215 323q57 0 128 -21q5 -17 -2 -50.5t-18 -46.5q-46 18 -87 18q-61 -1 -88.5 -56.5t-27.5 -163.5v-630h-120z" />
    <glyph glyph-name="florin" unicode="&#x192;" horiz-adv-x="469" 
d="M377 421v-99h-89q12 -192 12 -297q0 -107 -44.5 -168t-122.5 -61v100q64 0 64 139q0 92 -13 287h-92v99h86q-7 131 -7 228q0 108 43 168t125 60v-100q-66 0 -66 -140q0 -70 8 -216h96z" />
    <glyph glyph-name="uni01C7" unicode="&#x1c7;" horiz-adv-x="1491" 
d="M90 0l-22 24v875q23 8 62.5 7t59.5 -7v-800h509q11 -14 11.5 -47t-11.5 -52h-609zM1078 -18q-95 0 -186 51t-160 138q9 30 27.5 53.5t39.5 30.5q52 -77 123 -123.5t144 -46.5q114 0 175 83.5t61 219.5v511q27 6 66.5 5.5t55.5 -5.5v-527q0 -106 -38.5 -193t-119 -142
t-188.5 -55z" />
    <glyph glyph-name="uni01C8" unicode="&#x1c8;" horiz-adv-x="980" 
d="M843 802q-28 0 -48.5 21t-20.5 50t20.5 50.5t48.5 21.5q27 0 48 -22t21 -50t-21 -49.5t-48 -21.5zM90 0l-22 24v875q23 8 62.5 7t59.5 -7v-800h509q11 -14 11.5 -47t-11.5 -52h-609zM747 -243q-44 2 -87 18q-6 22 1.5 55t20.5 50q32 -13 49 -13q31 0 42 38.5t11 134.5
v631q21 6 62.5 5.5t58.5 -5.5v-682q0 -107 -40.5 -169.5t-117.5 -62.5z" />
    <glyph glyph-name="uni01C9" unicode="&#x1c9;" horiz-adv-x="617" 
d="M480 802q-28 0 -48.5 21t-20.5 50t20.5 50t48.5 21q27 0 48 -21.5t21 -49.5t-21 -49.5t-48 -21.5zM218 -18q-144 0 -144 201v751q21 7 59 7t62 -7v-714q0 -139 60 -139q17 0 51 12q8 -18 9.5 -44.5t-4.5 -45.5q-53 -20 -93 -21zM384 -243q-45 2 -87 18q-7 22 0.5 55
t21.5 50q33 -13 48 -13q31 0 42.5 39t11.5 134v631q20 6 62 5.5t58 -5.5v-682q0 -106 -40.5 -169t-116.5 -63z" />
    <glyph glyph-name="uni01CA" unicode="&#x1ca;" horiz-adv-x="1623" 
d="M704 899q21 8 63 7t59 -7v-899h-86l-550 684v-684h-122v876q10 14 40.5 23t44.5 4l551 -694v690zM1433 899q27 6 66.5 5.5t55.5 -5.5v-527q0 -106 -38.5 -193t-118.5 -142t-188 -55q-95 0 -186.5 51t-159.5 138q8 29 27 53t39 31q53 -77 124 -123.5t143 -46.5
q114 0 175 83.5t61 219.5v511z" />
    <glyph glyph-name="uni01CB" unicode="&#x1cb;" horiz-adv-x="1125" 
d="M988 802q-28 0 -48.5 21t-20.5 50t20.5 50.5t48.5 21.5q27 0 48 -22t21 -50t-21 -49.5t-48 -21.5zM826 0h-86l-550 684v-684h-122v876q10 14 40.5 23t44.5 4l551 -694v690q21 8 63 7t59 -7v-899zM929 671q21 6 62.5 5.5t57.5 -5.5v-682q0 -107 -40 -169.5t-117 -62.5
q-44 2 -87 18q-7 22 0.5 55t21.5 50q33 -13 49 -13q31 0 42 38.5t11 134.5v631z" />
    <glyph glyph-name="uni01CC" unicode="&#x1cc;" horiz-adv-x="1016" 
d="M879 802q-28 0 -48.5 21t-20.5 50t20.5 50t48.5 21q27 0 48 -21.5t21 -49.5t-21 -49.5t-48 -21.5zM433 707q122 0 183 -89t61 -255v-363h-121v349q0 121 -37 189t-110 68q-56 0 -106.5 -45t-80.5 -115t-30 -142v-304h-121v512q0 81 -13 140v18q65 14 111 9q13 -41 13 -86
v-39q42 68 109 110.5t142 42.5zM820 671q20 6 62 5.5t58 -5.5v-682q0 -106 -40.5 -169t-116.5 -63q-45 2 -87 18q-7 22 0.5 55t21.5 50q32 -13 48 -13q31 0 42.5 39t11.5 134v631z" />
    <glyph glyph-name="uni01CD" unicode="&#x1cd;" horiz-adv-x="879" 
d="M466 950h-56l-190 224h87l131 -143l130 143h86zM492 899q33 -78 113 -275t149 -360.5t112 -246.5l-7 -17q-94 -3 -129 13q-18 30 -82 198h-428l-78 -211h-129l365 899q21 8 58.5 8t55.5 -8zM257 310h354q-4 12 -176 479z" />
    <glyph glyph-name="uni01CE" unicode="&#x1ce;" horiz-adv-x="675" 
d="M395 783h-56l-190 234h87l131 -153l130 153h86zM613 206q1 -93 7.5 -130t20.5 -63l-1 -13h-102q-34 30 -35 119v20q-50 -74 -121 -115.5t-150 -41.5q-86 0 -138 48t-51 124q0 108 100 181.5t271 80.5q35 1 74 -2q-8 90 -46 141.5t-103 51.5q-89 0 -212 -83q-35 14 -42 81
q141 100 268 102q119 1 188.5 -87.5t70.5 -251.5zM491 326l1 12q-34 3 -73 3q-132 -3 -197 -51.5t-65 -114.5q0 -45 27.5 -72.5t78.5 -27.5q90 0 156.5 80t71.5 171z" />
    <glyph glyph-name="uni01CF" unicode="&#x1cf;" horiz-adv-x="249" 
d="M153 950h-56l-190 224h87l131 -144l130 144h86zM68 899q22 9 59 7.5t54 -7.5v-899h-113v899z" />
    <glyph glyph-name="uni01D0" unicode="&#x1d0;" horiz-adv-x="271" 
d="M165 783h-56l-190 234h87l131 -153l130 153h86zM76 671q19 6 61 6t59 -6v-671h-120v671z" />
    <glyph glyph-name="uni01D2" unicode="&#x1d2;" horiz-adv-x="717" 
d="M404 784h-56l-190 233h88l130 -152l131 152h86zM686 373q2 -169 -98.5 -280t-255.5 -111q-141 0 -221 95.5t-80 239.5q0 161 103 275.5t253 114.5q136 0 216.5 -94t82.5 -240zM338 83q97 0 161 83t64 195q0 103 -50.5 174t-132.5 71q-96 0 -161 -85.5t-65 -203.5
q0 -99 48 -166.5t136 -67.5z" />
    <glyph glyph-name="uni01D3" unicode="&#x1d3;" horiz-adv-x="892" 
d="M475 962h-56l-190 223h87l131 -143l130 143h86zM702 899q22 7 63.5 6t58.5 -6v-501q0 -185 -101.5 -302.5t-285.5 -117.5q-179 0 -274 106.5t-95 308.5v506q20 7 63 6t59 -6v-511q0 -148 64.5 -227.5t182.5 -79.5q124 0 194.5 88.5t70.5 230.5v499z" />
    <glyph glyph-name="uni01D4" unicode="&#x1d4;" horiz-adv-x="728" 
d="M392 784h-56l-190 233h87l131 -152l130 152h86zM659 195q0 -129 26 -180l-1 -15h-102q-18 18 -25.5 42t-7.5 80q-40 -65 -104 -102.5t-139 -37.5q-113 0 -180.5 75t-67.5 228v386q46 12 120 0v-366q0 -222 153 -222q96 0 152 86t56 222v280q22 5 65 4t55 -4v-476z" />
    <glyph glyph-name="uni01E2" unicode="&#x1e2;" horiz-adv-x="1343" 
d="M1114 1057v-81h-429v81h429zM1299 99q11 -13 11 -46.5t-11 -52.5h-615v211h-374l-146 -211h-151l657 899h608q7 -22 -0.5 -53t-18.5 -46h-453v-313h401q6 -24 -1.5 -56.5t-18.5 -42.5h-381v-289h493zM379 310l305 -1v441z" />
    <glyph glyph-name="uni01E3" unicode="&#x1e3;" horiz-adv-x="1126" 
d="M782 920v-86h-446v86h446zM818 707q133 0 211.5 -93t65.5 -250l-17 -23l-470 -84q18 -83 72.5 -129t127.5 -44q103 2 202 93q17 -7 30 -25.5t17.5 -31.5t4.5 -16q-123 -120 -265 -122q-85 -1 -155.5 42t-110.5 121q-51 -77 -130.5 -120.5t-168.5 -42.5q-86 1 -138 49
t-51 123q0 108 100 181.5t271 80.5q35 1 74 -2q-8 90 -46 141.5t-103 51.5q-89 0 -212 -83q-35 14 -42 81q141 100 268 102q71 1 125 -35.5t85 -104.5q96 140 255 140zM982 398q4 97 -42 155.5t-122 58.5q-91 0 -153 -82t-64 -194zM490 326l1 12q-34 3 -72 3
q-132 -3 -197 -51.5t-65 -114.5q0 -45 27.5 -72.5t78.5 -27.5q91 0 157 76t70 175z" />
    <glyph glyph-name="Gcaron" unicode="&#x1e6;" horiz-adv-x="841" 
d="M499 973h-56l-190 224h87l131 -143l131 143h86zM473 818q-130 0 -207 -106.5t-77 -265.5q0 -162 81 -261.5t216 -99.5q120 0 211 51v215h-264q-5 23 2 55.5t18 43.5h347l14 -16v-346q-58 -51 -149.5 -78.5t-178.5 -27.5q-184 0 -303.5 127t-119.5 343q0 124 47.5 230
t142.5 173t218 67q150 0 249 -88.5t95 -221.5q-26 -6 -59.5 -9.5t-58.5 1.5q-4 99 -67.5 156.5t-156.5 57.5z" />
    <glyph glyph-name="gcaron" unicode="&#x1e7;" horiz-adv-x="725" 
d="M389 783h-56l-190 234h87l131 -153l130 153h86zM562 680q48 5 105 -8v-16q-12 -96 -12 -159v-413q0 -173 -86 -272.5t-218 -100.5q-150 0 -292 114q12 68 48 88q130 -103 236 -101q88 1 144 72t56 196v52q-36 -69 -91.5 -109.5t-122.5 -40.5q-129 0 -213.5 90.5
t-84.5 243.5q0 106 38 194t111 142t167 54q63 0 115.5 -38.5t83.5 -100.5v20zM340 84q81 0 136 88t57 237q-3 76 -51 136.5t-117 60.5q-97 0 -154 -84.5t-57 -194.5q0 -104 50 -173.5t136 -69.5z" />
    <glyph glyph-name="uni01E8" unicode="&#x1e8;" horiz-adv-x="882" 
d="M481 950h-56l-190 224h87l131 -142l130 142h87zM480 461q187 -235 251 -305q70 -77 132 -126l-1 -19q-57 -19 -122 -19q-86 59 -354 409q-101 -60 -196 -106v-295h-122v899q22 8 63.5 7t58.5 -7v-490q177 89 278 164q226 169 217 319q35 25 113 9q14 -88 -49.5 -190
t-189.5 -196q-25 -18 -79 -54z" />
    <glyph glyph-name="uni01E9" unicode="&#x1e9;" horiz-adv-x="759" 
d="M415 1002h-56l-190 234h87l131 -153l130 153h86zM446 338q79 -94 104.5 -124t70.5 -81t67.5 -70.5t41.5 -30.5v-20q-18 -7 -59 -12.5t-76 -4.5q-14 6 -37 27.5t-60.5 65t-66.5 79.5t-82 102q-80 -54 -171 -98v-171h-120v934q24 8 61.5 8t58.5 -8v-645q93 51 185 121
q93 70 136 127t39 124q47 22 128 10q29 -154 -198 -317z" />
    <glyph glyph-name="uni01EB" unicode="&#x1eb;" horiz-adv-x="717" 
d="M686 373q2 -148 -76.5 -253.5t-206.5 -130.5q-105 -114 -105 -208q0 -27 15 -41.5t38 -13.5q20 0 41.5 14.5t35.5 37.5l55 -46q-25 -41 -67 -68t-82 -27q-54 -1 -89 30.5t-35 92.5q0 49 26.5 111t73.5 112q-131 7 -205 101.5t-74 232.5q0 161 103 275.5t253 114.5
q136 0 216.5 -94t82.5 -240zM154 317q0 -99 48 -166.5t136 -67.5q97 0 161 83t64 195q0 103 -50.5 174t-132.5 71q-96 0 -161 -85.5t-65 -203.5z" />
    <glyph glyph-name="uni01F0" unicode="&#x1f0;" horiz-adv-x="282" 
d="M174 783h-56l-190 234h87l131 -153l130 153h86zM86 671q20 6 62 5.5t58 -5.5v-682q0 -106 -40.5 -169t-116.5 -63q-45 2 -87 18q-7 22 0.5 55t21.5 50q32 -13 48 -13q31 0 42.5 39t11.5 134v631z" />
    <glyph glyph-name="uni01F4" unicode="&#x1f4;" horiz-adv-x="829" 
d="M664 1172l-199 -197h-75l165 197h109zM444 818q-130 0 -207 -106.5t-77 -265.5q0 -162 81 -261.5t216 -99.5q118 0 211 50v216h-263q-6 23 1 55.5t18 43.5h347l14 -16v-346q-58 -51 -149.5 -78.5t-178.5 -27.5q-184 0 -303.5 127t-119.5 343q0 124 47.5 230t142.5 173
t218 67q150 0 249 -88.5t95 -221.5q-26 -6 -59.5 -9.5t-58.5 1.5q-4 99 -67.5 156.5t-156.5 57.5z" />
    <glyph glyph-name="uni01F4" unicode="&#x1f5;" horiz-adv-x="829" 
d="M664 1172l-199 -197h-75l165 197h109zM444 818q-130 0 -207 -106.5t-77 -265.5q0 -162 81 -261.5t216 -99.5q118 0 211 50v216h-263q-6 23 1 55.5t18 43.5h347l14 -16v-346q-58 -51 -149.5 -78.5t-178.5 -27.5q-184 0 -303.5 127t-119.5 343q0 124 47.5 230t142.5 173
t218 67q150 0 249 -88.5t95 -221.5q-26 -6 -59.5 -9.5t-58.5 1.5q-4 99 -67.5 156.5t-156.5 57.5z" />
    <glyph glyph-name="uni01F8" unicode="&#x1f8;" horiz-adv-x="894" 
d="M492 963h-75l-203 189h109zM704 899q21 8 63 7t59 -7v-899h-86l-550 684v-684h-122v876q10 14 40.5 23t44.5 4l551 -694v690z" />
    <glyph glyph-name="uni01F9" unicode="&#x1f9;" horiz-adv-x="740" 
d="M502 784h-79l-189 248h116zM483 707q122 0 183 -89t61 -255v-363h-121v349q0 121 -37 189t-110 68q-56 0 -106.5 -45t-80.5 -115t-30 -142v-304h-121v512q0 81 -13 140v18q65 14 111 9q13 -41 13 -86v-39q42 68 109 110.5t142 42.5z" />
    <glyph glyph-name="Aringacute" unicode="&#x1fa;" horiz-adv-x="879" 
d="M590 1310l-139 -146h-62l88 146h113zM434 918q-69 0 -110 31.5t-41 80.5q0 48 41 80t110 32q68 0 108 -32t40 -80q0 -47 -41.5 -79.5t-106.5 -32.5zM432 1099q-36 0 -58 -19.5t-22 -49.5t22.5 -49t57.5 -19t58 19.5t23 48.5q0 30 -22.5 49.5t-58.5 19.5zM492 899
q33 -78 113 -275t149 -360.5t112 -246.5l-7 -17q-94 -3 -129 13q-18 30 -82 198h-428l-78 -211h-129l365 899q21 8 58.5 8t55.5 -8zM257 310h354q-4 12 -176 479z" />
    <glyph glyph-name="aringacute" unicode="&#x1fb;" horiz-adv-x="675" 
d="M522 1124l-139 -146h-62l88 146h113zM365 732q-68 0 -109 31t-41 80t40.5 81t109.5 32t109 -32t40 -81q0 -47 -42 -79t-107 -32zM364 913q-36 0 -58 -19.5t-22 -50.5q0 -30 22.5 -49t57.5 -19t58 19.5t23 48.5q0 30 -22.5 50t-58.5 20zM613 206q1 -93 7.5 -130t20.5 -63
l-1 -13h-102q-34 30 -35 119v20q-50 -74 -121 -115.5t-150 -41.5q-86 0 -138 48t-51 124q0 108 100 181.5t271 80.5q35 1 74 -2q-8 90 -46 141.5t-103 51.5q-89 0 -212 -83q-35 14 -42 81q141 100 268 102q119 1 188.5 -87.5t70.5 -251.5zM491 326l1 12q-34 3 -73 3
q-132 -3 -197 -51.5t-65 -114.5q0 -45 27.5 -72.5t78.5 -27.5q90 0 156.5 80t71.5 171z" />
    <glyph glyph-name="AEacute" unicode="&#x1fc;" horiz-adv-x="1343" 
d="M1123 1140l-200 -196h-74l165 196h109zM1299 99q11 -13 11 -46.5t-11 -52.5h-615v211h-374l-146 -211h-151l657 899h608q7 -22 -0.5 -53t-18.5 -46h-453v-313h401q6 -24 -1.5 -56.5t-18.5 -42.5h-381v-289h493zM379 310l305 -1v441z" />
    <glyph glyph-name="aeacute" unicode="&#x1fd;" horiz-adv-x="1126" 
d="M742 1031l-168 -248h-73l124 248h117zM818 707q133 0 211.5 -93t65.5 -250l-17 -23l-470 -84q18 -83 72.5 -129t127.5 -44q103 2 202 93q17 -7 30 -25.5t17.5 -31.5t4.5 -16q-123 -120 -265 -122q-85 -1 -155.5 42t-110.5 121q-51 -77 -130.5 -120.5t-168.5 -42.5
q-86 1 -138 49t-51 123q0 108 100 181.5t271 80.5q35 1 74 -2q-8 90 -46 141.5t-103 51.5q-89 0 -212 -83q-35 14 -42 81q141 100 268 102q71 1 125 -35.5t85 -104.5q96 140 255 140zM982 398q4 97 -42 155.5t-122 58.5q-91 0 -153 -82t-64 -194zM490 326l1 12q-34 3 -72 3
q-132 -3 -197 -51.5t-65 -114.5q0 -45 27.5 -72.5t78.5 -27.5q91 0 157 76t70 175z" />
    <glyph glyph-name="Oslashacute" unicode="&#x1fe;" horiz-adv-x="938" 
d="M711 1162l-200 -196h-74l165 196h109zM772 781q96 -129 96 -308q0 -127 -54.5 -239t-155.5 -182t-225 -70q-128 0 -220 79l-48 -61h-106l96 124q-86 119 -86 285q0 139 54 255.5t154.5 187t226.5 70.5q117 0 211 -79l38 49h106zM196 406q0 -105 37 -183l413 532
q-63 63 -152 63q-131 0 -215 -120t-83 -292zM742 481q1 115 -44 204l-416 -535q62 -65 156 -65q84 0 154 56t109.5 146.5t40.5 193.5z" />
    <glyph glyph-name="oslashacute" unicode="&#x1ff;" horiz-adv-x="730" 
d="M568 1031l-168 -248h-73l124 248h117zM696 373q2 -169 -98.5 -280t-255.5 -111q-115 0 -193 67l-43 -49h-61v12l67 77q-71 91 -71 228q0 161 103 275.5t253 114.5q117 0 194 -71l30 35h70v-12l-60 -68q63 -90 65 -218zM164 317q0 -75 29 -135l27 31l33 34l158 177l19 26
l83 97q-49 59 -124 59q-96 0 -160.5 -85.5t-64.5 -203.5zM348 83q97 0 161 83t64 195q0 76 -27 133l-53 -60l-32 -33l-153 -168l-22 -29l-61 -69q49 -52 123 -52z" />
    <glyph glyph-name="uni0202" unicode="&#x202;" horiz-adv-x="879" 
d="M437 1094q-60 0 -96.5 -38t-36.5 -95h-85q0 101 62 158t156 57q97 0 157 -55t60 -160h-85q0 59 -36.5 96t-95.5 37zM492 899q33 -78 113 -275t149 -360.5t112 -246.5l-7 -17q-94 -3 -129 13q-18 30 -82 198h-428l-78 -211h-129l365 899q21 8 58.5 8t55.5 -8zM257 310h354
q-4 12 -176 479z" />
    <glyph glyph-name="uni0203" unicode="&#x203;" horiz-adv-x="675" 
d="M366 916q-60 0 -97 -38t-37 -95h-84q0 101 62 158t156 57q96 0 156 -55.5t60 -159.5h-84q0 59 -36.5 96t-95.5 37zM613 206q1 -93 7.5 -130t20.5 -63l-1 -13h-102q-34 30 -35 119v20q-50 -74 -121 -115.5t-150 -41.5q-86 0 -138 48t-51 124q0 108 100 181.5t271 80.5
q35 1 74 -2q-8 90 -46 141.5t-103 51.5q-89 0 -212 -83q-35 14 -42 81q141 100 268 102q119 1 188.5 -87.5t70.5 -251.5zM491 326l1 12q-34 3 -73 3q-132 -3 -197 -51.5t-65 -114.5q0 -45 27.5 -72.5t78.5 -27.5q90 0 156.5 80t71.5 171z" />
    <glyph glyph-name="uni0206" unicode="&#x206;" horiz-adv-x="749" 
d="M391 1094q-60 0 -97 -38t-37 -95h-84q0 101 62 158t156 57q96 0 156 -55t60 -160h-84q0 59 -36.5 96t-95.5 37zM705 99q11 -13 11 -46.5t-11 -52.5h-637v886l12 13h604q7 -22 -0.5 -53t-18.5 -46h-475v-313h423q6 -23 -1 -55.5t-18 -43.5h-404v-289h515z" />
    <glyph glyph-name="uni0207" unicode="&#x207;" horiz-adv-x="665" 
d="M362 916q-60 0 -97 -38t-37 -95h-84q0 101 62 158t156 57q96 0 156 -55.5t60 -159.5h-84q0 59 -36.5 96t-95.5 37zM357 707q133 0 211.5 -93t65.5 -250l-17 -23l-470 -84q18 -83 72.5 -129t127.5 -45q104 3 202 94q17 -7 30 -25.5t17.5 -31.5t4.5 -16
q-123 -120 -265 -122q-126 -2 -214 89t-91 243q-3 162 89.5 277.5t236.5 115.5zM521 402q4 96 -42 153t-122 57q-90 0 -152 -80.5t-65 -191.5z" />
    <glyph glyph-name="uni020A" unicode="&#x20a;" horiz-adv-x="15" 
d="M-179 961q0 101 62 158t156 57q97 0 156.5 -55t59.5 -160h-84q0 59 -36.5 96t-95.5 37q-60 0 -96.5 -38t-36.5 -95h-85zM-18 0v899q21 9 59 7.5t54 -7.5v-899h-113z" />
    <glyph glyph-name="uni020B" unicode="&#x20b;" horiz-adv-x="271" 
d="M-82 783q0 101 62 158t156 57q96 0 156 -55.5t60 -159.5h-84q0 59 -36.5 96t-95.5 37q-60 0 -97 -38t-37 -95h-84zM76 0v671q19 6 61 6t59 -6v-671h-120z" />
    <glyph glyph-name="uni020E" unicode="&#x20e;" horiz-adv-x="866" 
d="M235 974q0 101 62 158t156 57q96 0 156 -55.5t60 -159.5h-84q0 59 -36.5 95.5t-95.5 36.5q-60 0 -96.5 -37.5t-36.5 -94.5h-85zM397 -18q-164 0 -263 123t-100 304q0 139 53.5 255.5t154 187t226.5 70.5q158 0 261.5 -132t103.5 -317q-1 -127 -55.5 -239t-155.5 -182
t-225 -70zM402 85q127 0 214.5 118.5t89.5 277.5q2 144 -67 240.5t-180 96.5q-131 0 -215 -120t-84 -292q1 -135 63.5 -228t178.5 -93z" />
    <glyph glyph-name="uni020F" unicode="&#x20f;" horiz-adv-x="717" 
d="M158 784q0 101 62 157.5t156 56.5q96 0 156 -55t60 -159h-84q0 59 -36.5 95.5t-95.5 36.5q-60 0 -96.5 -37.5t-36.5 -94.5h-85zM332 -18q-141 0 -221 95.5t-80 239.5q0 161 103 275.5t253 114.5q136 0 216.5 -94t82.5 -240q2 -169 -98.5 -280t-255.5 -111zM338 83
q97 0 161 83t64 195q0 103 -50.5 174t-132.5 71q-96 0 -161 -85.5t-65 -203.5q0 -99 48 -166.5t136 -67.5z" />
    <glyph glyph-name="uni0212" unicode="&#x212;" horiz-adv-x="871" 
d="M398 1106q-60 0 -96.5 -37.5t-36.5 -94.5h-85q0 101 62 158t156 57q96 0 156 -55.5t60 -159.5h-84q0 59 -36.5 95.5t-95.5 36.5zM553 314q85 -105 147 -172t124 -116l-1 -20q-45 -15 -126 -15q-54 31 -274 298q-11 -1 -35 -1q-94 0 -198 27v-315h-122v878q154 44 334 44
q171 0 268.5 -84t97.5 -233q0 -104 -57 -180t-158 -111zM388 387q112 -2 182.5 57t70.5 162q0 96 -64.5 156.5t-187.5 60.5q-113 0 -199 -19v-389q96 -26 198 -28z" />
    <glyph glyph-name="uni0213" unicode="&#x213;" horiz-adv-x="540" 
d="M280 933q-60 0 -96.5 -37.5t-36.5 -94.5h-85q0 101 62 158t156 57q96 0 156 -55.5t60 -159.5h-84q0 59 -36.5 95.5t-95.5 36.5zM508 682q7 -20 -5 -53.5t-28 -51.5q-50 21 -90 21q-85 -1 -136 -87t-51 -212v-299h-121v512q0 76 -14 140v18q62 14 107 9q13 -41 13 -86v-56
q30 76 85.5 123t123.5 47q54 0 116 -25z" />
    <glyph glyph-name="uni0218" unicode="&#x218;" horiz-adv-x="813" 
d="M431 -18q-109 0 -213.5 36.5t-183.5 103.5q3 22 21.5 53.5t41.5 37.5q71 -62 159.5 -97t177.5 -35q103 0 160.5 49t57.5 125q0 77 -60.5 114.5t-180.5 44.5q-144 8 -225.5 69.5t-80.5 179.5t95.5 188.5t222.5 70.5q162 0 254 -80t92 -194q-23 -7 -57 -10t-57 2
q-4 84 -65.5 133.5t-168.5 49.5q-80 0 -135 -46t-55 -113q0 -73 54.5 -109.5t143.5 -42.5q183 -10 266.5 -73.5t83.5 -176.5q0 -126 -94.5 -203t-253.5 -77zM335 -296l41 221h93l-54 -221h-80z" />
    <glyph glyph-name="uni0219" unicode="&#x219;" horiz-adv-x="676" 
d="M354 -18q-91 0 -174 27.5t-141 79.5q18 63 52 85q109 -91 244 -91q76 0 128 30.5t52 79.5q0 54 -46.5 81.5t-152.5 33.5q-249 19 -249 186q0 86 77.5 149.5t194.5 63.5q166 0 287 -80q-5 -46 -33 -93q-111 72 -238 72q-76 0 -121 -33.5t-45 -75.5q0 -92 162 -100
q155 -8 221 -58t66 -146q0 -93 -82.5 -152t-201.5 -59zM265 -306l41 221h93l-54 -221h-80z" />
    <glyph glyph-name="uni021A" unicode="&#x21a;" horiz-adv-x="800" 
d="M781 899q4 -23 -2.5 -54.5t-17.5 -44.5h-303v-800h-126v800h-312q-5 21 -1.5 51t13.5 48h749zM308 -290l41 221h93l-54 -221h-80z" />
    <glyph glyph-name="uni021B" unicode="&#x21b;" horiz-adv-x="495" 
d="M459 572h-243v-258q0 -111 34.5 -170.5t103.5 -59.5q37 0 86 20q11 -12 16.5 -46t-0.5 -53q-66 -23 -121 -23q-111 -1 -175 81t-64 243v266h-82v99h82v179q19 11 54.5 17t65.5 0v-196h243v-99zM208 -297l41 221h93l-54 -221h-80z" />
    <glyph glyph-name="uni0237" unicode="&#x237;" horiz-adv-x="282" 
d="M49 -243q-45 2 -87 18q-7 22 0.5 55t21.5 50q32 -13 48 -13q31 0 42.5 39t11.5 134v631q20 6 62 5.5t58 -5.5v-682q0 -106 -40.5 -169t-116.5 -63z" />
    <glyph glyph-name="circumflex" unicode="&#x2c6;" horiz-adv-x="550" 
d="M492 755h-86l-130 153l-131 -153h-87l190 234h56z" />
    <glyph glyph-name="caron" unicode="&#x2c7;" horiz-adv-x="550" 
d="M406 989h86l-188 -234h-56l-190 234h87l131 -153z" />
    <glyph glyph-name="breve" unicode="&#x2d8;" horiz-adv-x="550" 
d="M274 741q-96 0 -156 55.5t-60 159.5h84q0 -58 36 -95t96 -37t96.5 37.5t36.5 94.5h85q0 -101 -62 -158t-156 -57z" />
    <glyph glyph-name="dotaccent" unicode="&#x2d9;" horiz-adv-x="254" 
d="M127 774q-28 0 -48.5 21t-20.5 50t20.5 50t48.5 21q27 0 48 -21.5t21 -49.5t-21 -49.5t-48 -21.5z" />
    <glyph glyph-name="ring" unicode="&#x2da;" horiz-adv-x="471" 
d="M236 719q-79 0 -128.5 40t-49.5 105q0 63 48 104t130 41q80 0 128.5 -41t48.5 -104t-51.5 -104t-125.5 -41zM234 774q47 0 79 26t32 64q0 39 -31.5 65t-79.5 26q-49 0 -78.5 -26t-29.5 -65t30 -64.5t78 -25.5z" />
    <glyph glyph-name="ogonek" unicode="&#x2db;" horiz-adv-x="388" 
d="M181 -354q-54 -1 -88.5 30.5t-34.5 92.5q0 57 34 128t93 121l74 -11q-54 -56 -83.5 -113.5t-29.5 -103.5q0 -27 15 -41.5t38 -13.5q20 0 41.5 15t34.5 37l56 -46q-25 -41 -67.5 -68t-82.5 -27z" />
    <glyph glyph-name="tilde" unicode="&#x2dc;" horiz-adv-x="536" 
d="M373 772q-26 0 -55.5 15t-50.5 33.5t-46 33.5t-44 15q-22 0 -35.5 -24t-13.5 -68h-70q0 83 28.5 136t76.5 53q32 0 68.5 -24.5t69 -49t55.5 -24.5t37.5 25t14.5 68h71q0 -81 -28.5 -135t-77.5 -54z" />
    <glyph glyph-name="hungarumlaut" unicode="&#x2dd;" horiz-adv-x="584" 
d="M76 755l119 247h108l-153 -247h-74zM280 755l129 247h117l-172 -247h-74z" />
    <glyph glyph-name="gravecomb" unicode="&#x300;" 
d="M-136 755l-189 248h116l152 -248h-79z" />
    <glyph glyph-name="acutecomb" unicode="&#x301;" 
d="M-299 755l124 248h117l-168 -248h-73z" />
    <glyph glyph-name="uni0302" unicode="&#x302;" 
d="M-58 755h-86l-130 149l-131 -149h-87l190 234h56z" />
    <glyph glyph-name="tildecomb" unicode="&#x303;" 
d="M-163 772q-26 0 -55.5 15t-50.5 33.5t-46 33.5t-44 15q-22 0 -35.5 -24t-13.5 -68h-70q0 83 28.5 136t76.5 53q32 0 68.5 -24.5t69 -49t55.5 -24.5t37.5 25t14.5 68h71q0 -81 -28.5 -135t-77.5 -54z" />
    <glyph glyph-name="uni0304" unicode="&#x304;" 
d="M-522 806v86h446v-86h-446z" />
    <glyph glyph-name="uni0306" unicode="&#x306;" 
d="M-276 741q-96 0 -156 55.5t-60 159.5h84q0 -58 36 -95t96 -37t96.5 37.5t36.5 94.5h85q0 -101 -62 -158t-156 -57z" />
    <glyph glyph-name="uni0307" unicode="&#x307;" 
d="M-127 774q-28 0 -48.5 21t-20.5 50t20.5 50t48.5 21q27 0 48 -21.5t21 -49.5t-21 -49.5t-48 -21.5z" />
    <glyph glyph-name="uni0308" unicode="&#x308;" 
d="M-443 774q-28 0 -48.5 21t-20.5 50t20.5 50t48.5 21q27 0 48 -21.5t21 -49.5t-21 -49.5t-48 -21.5zM-144 774q-28 0 -48.5 21t-20.5 50t20.5 50t48.5 21q27 0 48 -21.5t21 -49.5t-21 -49.5t-48 -21.5z" />
    <glyph glyph-name="uni030A" unicode="&#x30a;" 
d="M-235 741q-79 0 -128.5 40t-49.5 105q0 63 48 104t130 41q80 0 128.5 -41t48.5 -104q0 -62 -51.5 -103.5t-125.5 -41.5zM-237 796q47 0 79 26t32 64q0 40 -31 65.5t-80 25.5t-78.5 -26t-29.5 -65t30 -64.5t78 -25.5z" />
    <glyph glyph-name="uni030B" unicode="&#x30b;" 
d="M-508 755l119 247h108l-153 -247h-74zM-304 755l129 247h117l-172 -247h-74z" />
    <glyph glyph-name="uni030C" unicode="&#x30c;" 
d="M-144 989h86l-188 -234h-56l-190 234h87l131 -153z" />
    <glyph glyph-name="uni0311" unicode="&#x311;" 
d="M-492 755q0 101 62 158t156 57q96 0 156 -55.5t60 -159.5h-84q0 59 -36.5 96t-95.5 37q-60 0 -97 -38t-37 -95h-84z" />
    <glyph glyph-name="uni0312" unicode="&#x312;" 
d="M-200 772l68 234h80l-54 -234h-94z" />
    <glyph glyph-name="uni0326" unicode="&#x326;" 
d="M-231 -296l41 221h93l-54 -221h-80z" />
    <glyph glyph-name="uni0327" unicode="&#x327;" 
d="M-178 -348q-65 -2 -120 64l54 58q33 -40 65 -40q19 0 31.5 16t12.5 41q0 15 -6 28t-23.5 35t-21.5 29q-26 35 -34.5 58.5t-8.5 61.5h73q0 -22 7 -37t27.5 -40t31.5 -41q32 -47 32 -101t-34.5 -92.5t-85.5 -39.5z" />
    <glyph glyph-name="uni0328" unicode="&#x328;" 
d="M-207 -354q-54 -1 -88.5 30.5t-34.5 92.5q0 57 34 128t93 121l74 -11q-54 -56 -83.5 -113.5t-29.5 -103.5q0 -27 15 -41.5t38 -13.5q20 0 41.5 15t34.5 37l56 -46q-25 -41 -67.5 -68t-82.5 -27z" />
    <glyph glyph-name="uni03BC" unicode="&#x3bc;" horiz-adv-x="732" 
d="M686 195q0 -129 25 -180l-1 -15h-101q-29 24 -29 87v76q-28 -80 -92 -130.5t-147 -50.5q-105 0 -151 84v-339h-106v944q47 11 121 0v-366q0 -222 153 -222q96 0 151.5 86t55.5 222v280q23 5 66 4t55 -4v-476z" />
    <glyph glyph-name="uni1E02" unicode="&#x1e02;" horiz-adv-x="802" 
d="M366 992q-22 0 -38.5 17t-16.5 40t16.5 40t38.5 17t38.5 -17t16.5 -40t-16.5 -40t-38.5 -17zM591 539q176 -59 177 -240q0 -148 -97 -232t-268 -85q-120 0 -187.5 8.5t-147.5 34.5v859q127 38 298 38q77 0 137 -14t96.5 -36.5t60 -53.5t32.5 -61.5t9 -63.5
q0 -48 -30 -88.5t-80 -65.5zM371 827q-98 0 -181 -18v-270q97 25 228 25q19 0 51 -2q57 13 86 45t29 74q0 59 -49.5 102.5t-163.5 43.5zM395 80q126 0 193 57.5t67 153.5q0 174 -249 174q-114 0 -216 -29v-335q87 -21 205 -21z" />
    <glyph glyph-name="uni1E03" unicode="&#x1e03;" horiz-adv-x="718" 
d="M365 1009q-28 0 -48.5 21t-20.5 50t20.5 50t48.5 21q27 0 48 -21.5t21 -49.5t-21 -49.5t-48 -21.5zM413 707q127 0 200.5 -93t73.5 -240q0 -164 -84 -278t-215 -114q-126 0 -203 116q-7 -57 -26 -98h-101v17q12 61 12 152v765q20 6 61.5 6t58.5 -6v-392q32 71 92.5 118
t130.5 47zM364 84q89 0 145 86t55 208q0 98 -45 163t-118 65q-87 0 -149 -99.5t-62 -217.5q0 -76 51 -140.5t123 -64.5z" />
    <glyph glyph-name="uni1E0A" unicode="&#x1e0a;" horiz-adv-x="837" 
d="M354 1007q-22 0 -38.5 17t-16.5 40t16.5 40t38.5 17t38.5 -17t16.5 -40t-16.5 -40t-38.5 -17zM354 922q212 0 331 -126t119 -334q0 -220 -114 -350t-318 -130q-96 0 -160 9t-144 34v859q128 38 286 38zM677 459q1 161 -84 262.5t-241 101.5q-86 0 -162 -14v-708
q82 -21 182 -21q147 0 225.5 103t79.5 276z" />
    <glyph glyph-name="uni1E0B" unicode="&#x1e0b;" horiz-adv-x="723" 
d="M347 1016q-28 0 -48.5 21t-20.5 50t20.5 50t48.5 21q27 0 48 -21.5t21 -49.5t-21 -49.5t-48 -21.5zM653 169q0 -91 12 -152v-17h-102q-21 42 -27 115q-86 -133 -225 -133q-122 0 -201 96.5t-79 237.5q0 165 87 278t229 113q59 0 108 -34.5t78 -90.5v352q17 6 58.5 6
t61.5 -6v-765zM338 84q84 0 139.5 93t55.5 222q0 88 -49.5 147.5t-118.5 59.5q-88 0 -149 -80t-62 -196q0 -107 51 -176.5t133 -69.5z" />
    <glyph glyph-name="uni1E1E" unicode="&#x1e1e;" horiz-adv-x="726" 
d="M370 984q-22 0 -38.5 17t-16.5 40t16.5 40t38.5 17t38.5 -17t16.5 -40t-16.5 -40t-38.5 -17zM670 799h-480v-361h431q6 -24 -1.5 -56t-18.5 -42h-411v-340h-122v886l12 12h609q7 -22 0 -53.5t-19 -45.5z" />
    <glyph glyph-name="uni1E1F" unicode="&#x1e1f;" horiz-adv-x="382" 
d="M281 1037q-28 0 -48.5 21t-20.5 50t20.5 50t48.5 21q27 0 48 -21.5t21 -49.5t-21 -49.5t-48 -21.5zM374 850q-107 -3 -116 -179h183v-99h-184v-572h-120v572h-136v99h137q14 279 214 279q57 0 129 -21q5 -17 -2.5 -50.5t-18.5 -46.5q-46 18 -86 18z" />
    <glyph glyph-name="uni1E40" unicode="&#x1e40;" horiz-adv-x="1024" 
d="M511 984q-22 0 -38.5 17t-16.5 40t16.5 40t38.5 17t38.5 -17t16.5 -40t-16.5 -40t-38.5 -17zM990 0h-123l-58 660l-261 -519h-76l-261 520l-55 -661h-122l80 879q13 13 50.5 19.5t52.5 0.5l294 -609l294 609q15 6 51.5 -0.5t50.5 -19.5z" />
    <glyph glyph-name="uni1E41" unicode="&#x1e41;" horiz-adv-x="1012" 
d="M548 802q-28 0 -48.5 21t-20.5 50t20.5 50t48.5 21q27 0 48 -21.5t21 -49.5t-21 -49.5t-48 -21.5zM767 707q93 0 140.5 -82t47.5 -234v-391h-121v377q0 108 -24.5 168.5t-73.5 60.5q-70 0 -117.5 -86t-47.5 -204l1 -316h-117v377q0 229 -99 229q-69 0 -116.5 -90
t-47.5 -212v-304h-121v512q0 81 -13 140v18q65 14 111 9q13 -41 13 -86v-26q36 63 89 101.5t110 38.5q127 0 169 -144q38 66 95 105t122 39z" />
    <glyph glyph-name="uni1E56" unicode="&#x1e56;" horiz-adv-x="801" 
d="M398 1007q-22 0 -38.5 17t-16.5 40t16.5 40t38.5 17t38.5 -17t16.5 -40t-16.5 -40t-38.5 -17zM398 922q175 0 272 -95t97 -255q0 -140 -100.5 -232t-277.5 -92q-106 0 -199 25v-273h-122v878q139 44 330 44zM640 574q1 117 -64.5 183t-185.5 66q-115 0 -200 -22v-424
q87 -30 193 -30q117 0 187 61t70 166z" />
    <glyph glyph-name="uni1E57" unicode="&#x1e57;" horiz-adv-x="720" 
d="M394 802q-28 0 -48.5 21t-20.5 50t20.5 50t48.5 21q27 0 48 -21.5t21 -49.5t-21 -49.5t-48 -21.5zM420 707q121 0 195 -93.5t74 -238.5q0 -165 -85.5 -279t-215.5 -114q-122 0 -197 120v-348q-16 -6 -58.5 -6t-61.5 6v748q0 73 -13 151v17q55 17 106 9l26 -104v-10
q44 66 104 104t126 38zM365 84q89 0 145 86.5t56 201.5q0 107 -46 170.5t-117 63.5q-85 0 -149 -94t-64 -228q0 -74 52 -137t123 -63z" />
    <glyph glyph-name="uni1E60" unicode="&#x1e60;" horiz-adv-x="813" 
d="M422 1007q-22 0 -38.5 17t-16.5 40t16.5 40t38.5 17t38.5 -17t16.5 -40t-16.5 -40t-38.5 -17zM431 -18q-109 0 -213.5 36.5t-183.5 103.5q3 22 21.5 53.5t41.5 37.5q71 -62 159.5 -97t177.5 -35q103 0 160.5 49t57.5 125q0 77 -60.5 114.5t-180.5 44.5
q-144 8 -225.5 69.5t-80.5 179.5t95.5 188.5t222.5 70.5q162 0 254 -80t92 -194q-23 -7 -57 -10t-57 2q-4 84 -65.5 133.5t-168.5 49.5q-80 0 -135 -46t-55 -113q0 -73 54.5 -109.5t143.5 -42.5q183 -10 266.5 -73.5t83.5 -176.5q0 -126 -94.5 -203t-253.5 -77z" />
    <glyph glyph-name="uni1E61" unicode="&#x1e61;" horiz-adv-x="676" 
d="M339 802q-28 0 -48.5 21t-20.5 50t20.5 50t48.5 21q27 0 48 -21.5t21 -49.5t-21 -49.5t-48 -21.5zM354 -18q-91 0 -174 27.5t-141 79.5q18 63 52 85q109 -91 244 -91q76 0 128 30.5t52 79.5q0 54 -46.5 81.5t-152.5 33.5q-249 19 -249 186q0 86 77.5 149.5t194.5 63.5
q166 0 287 -80q-5 -46 -33 -93q-111 72 -238 72q-76 0 -121 -33.5t-45 -75.5q0 -92 162 -100q155 -8 221 -58t66 -146q0 -93 -82.5 -152t-201.5 -59z" />
    <glyph glyph-name="uni1E6A" unicode="&#x1e6a;" horiz-adv-x="800" 
d="M389 984q-22 0 -38.5 17t-16.5 40t16.5 40t38.5 17t38.5 -17t16.5 -40t-16.5 -40t-38.5 -17zM781 899q4 -23 -2.5 -54.5t-17.5 -44.5h-303v-800h-126v800h-312q-5 21 -1.5 51t13.5 48h749z" />
    <glyph glyph-name="uni1E6B" unicode="&#x1e6b;" horiz-adv-x="495" 
d="M159 969q-28 0 -48.5 21t-20.5 50t20.5 50t48.5 21q27 0 48 -21.5t21 -49.5t-21 -49.5t-48 -21.5zM459 572h-243v-258q0 -111 34.5 -170.5t103.5 -59.5q37 0 86 20q11 -12 16.5 -46t-0.5 -53q-66 -23 -121 -23q-111 -1 -175 81t-64 243v266h-82v99h82v179q19 11 54.5 17
t65.5 0v-196h243v-99z" />
    <glyph glyph-name="Wgrave" unicode="&#x1e80;" horiz-adv-x="1210" 
d="M575 962l-202 190h109l168 -190h-75zM367 0l-32 17q-74 252 -167.5 498.5t-154.5 363.5l7 20q53 14 114 0q71 -135 154.5 -364t138.5 -433h3q45 83 102.5 218.5t74.5 211.5q-19 70 -62 189q10 18 47 33.5t68 11.5q36 -85 104 -305t101 -359h4q115 180 166.5 403t25.5 385
q35 25 113 9q38 -166 -17.5 -417t-201.5 -458l-38 -24h-122l-22 14q-66 222 -108 348q-17 -66 -67.5 -180.5t-82.5 -166.5l-29 -15h-119z" />
    <glyph glyph-name="wgrave" unicode="&#x1e81;" horiz-adv-x="897" 
d="M428 755l-189 248h116l152 -248h-79zM243 0l-21 14q-69 273 -212 638l9 19q69 13 115 0q109 -248 181 -561h6q67 167 104 336l-41 122q10 19 44 34.5t67 11.5q47 -133 76 -239.5t63 -264.5h7q134 318 119 552q42 23 122 9q16 -122 -33 -316t-139 -343l-21 -12h-115
l-20 15q-37 157 -72 255q-13 -51 -43.5 -132t-54.5 -127l-17 -11h-124z" />
    <glyph glyph-name="Wacute" unicode="&#x1e82;" horiz-adv-x="1210" 
d="M554 953l165 196h109l-200 -196h-74zM367 0l-32 17q-74 252 -167.5 498.5t-154.5 363.5l7 20q53 14 114 0q71 -135 154.5 -364t138.5 -433h3q45 83 102.5 218.5t74.5 211.5q-19 70 -62 189q10 18 47 33.5t68 11.5q36 -85 104 -305t101 -359h4q115 180 166.5 403t25.5 385
q35 25 113 9q38 -166 -17.5 -417t-201.5 -458l-38 -24h-122l-22 14q-66 222 -108 348q-17 -66 -67.5 -180.5t-82.5 -166.5l-29 -15h-119z" />
    <glyph glyph-name="wacute" unicode="&#x1e83;" horiz-adv-x="897" 
d="M398 755l124 248h117l-168 -248h-73zM243 0l-21 14q-69 273 -212 638l9 19q69 13 115 0q109 -248 181 -561h6q67 167 104 336l-41 122q10 19 44 34.5t67 11.5q47 -133 76 -239.5t63 -264.5h7q134 318 119 552q42 23 122 9q16 -122 -33 -316t-139 -343l-21 -12h-115
l-20 15q-37 157 -72 255q-13 -51 -43.5 -132t-54.5 -127l-17 -11h-124z" />
    <glyph glyph-name="Wdieresis" unicode="&#x1e84;" horiz-adv-x="1210" 
d="M473 984q-22 0 -38 17t-16 40t16 40t38 17t38.5 -17t16.5 -40t-16.5 -40t-38.5 -17zM739 984q-22 0 -38 17t-16 40t16 40t38 17t38.5 -17t16.5 -40t-16.5 -40t-38.5 -17zM367 0l-32 17q-74 252 -167.5 498.5t-154.5 363.5l7 20q53 14 114 0q71 -135 154.5 -364
t138.5 -433h3q45 83 102.5 218.5t74.5 211.5q-19 70 -62 189q10 18 47 33.5t68 11.5q36 -85 104 -305t101 -359h4q115 180 166.5 403t25.5 385q35 25 113 9q38 -166 -17.5 -417t-201.5 -458l-38 -24h-122l-22 14q-66 222 -108 348q-17 -66 -67.5 -180.5t-82.5 -166.5
l-29 -15h-119z" />
    <glyph glyph-name="wdieresis" unicode="&#x1e85;" horiz-adv-x="897" 
d="M314 774q-28 0 -48.5 21t-20.5 50t20.5 50t48.5 21q27 0 48 -21.5t21 -49.5t-21 -49.5t-48 -21.5zM613 774q-28 0 -48.5 21t-20.5 50t20.5 50t48.5 21q27 0 48 -21.5t21 -49.5t-21 -49.5t-48 -21.5zM243 0l-21 14q-69 273 -212 638l9 19q69 13 115 0q109 -248 181 -561h6
q67 167 104 336l-41 122q10 19 44 34.5t67 11.5q47 -133 76 -239.5t63 -264.5h7q134 318 119 552q42 23 122 9q16 -122 -33 -316t-139 -343l-21 -12h-115l-20 15q-37 157 -72 255q-13 -51 -43.5 -132t-54.5 -127l-17 -11h-124z" />
    <glyph glyph-name="uni1E9E" unicode="&#x1e9e;" horiz-adv-x="892" 
d="M471 527q52 -4 101 -13.5t101.5 -31t91 -51.5t63.5 -78t25 -107q0 -125 -93 -194.5t-226 -69.5q-170 0 -273 112q12 51 55 86q80 -92 213 -92q87 0 144.5 44t57.5 114q0 58 -44 102.5t-110 67t-126.5 33t-110.5 10.5l-14 37l307 299h-252q-51 0 -89.5 -21.5t-59 -57.5
t-30.5 -77.5t-10 -87.5v-551h-120v560q0 153 72.5 245.5t226.5 92.5h395q11 -21 8 -51t-17 -45z" />
    <glyph glyph-name="Ygrave" unicode="&#x1ef2;" horiz-adv-x="808" 
d="M449 962h-75l-202 190h109zM788 899q29 -285 -290 -595v-304h-122v315q-54 93 -181 294t-180 270l8 20q72 15 127 0q39 -45 150.5 -225.5t152.5 -261.5q101 100 161 239t54 239q40 24 120 9z" />
    <glyph glyph-name="ygrave" unicode="&#x1ef3;" horiz-adv-x="707" 
d="M409 784h-79l-189 248h116zM687 671q8 -67 7 -145t-23 -170t-55.5 -179t-91 -173t-129.5 -150q-126 -113 -280 -115q-49 0 -80 17q-19 46 -1 86l19 13q29 -15 62 -15q104 -1 226 122q18 18 50 56q-84 58 -154 150t-113 188t-67.5 168t-35.5 128l6 18q57 15 109 1
q8 -43 29.5 -105.5t58.5 -146.5t98 -169t132 -143q132 223 118 554q37 25 115 10z" />
    <glyph glyph-name="endash" unicode="&#x2013;" horiz-adv-x="1021" 
d="M200 316v95h621v-95h-621z" />
    <glyph glyph-name="emdash" unicode="&#x2014;" horiz-adv-x="1124" 
d="M200 316v95h725v-95h-725z" />
    <glyph glyph-name="quoteleft" unicode="&#x2018;" horiz-adv-x="318" 
d="M92 649l51 306h83l-28 -306h-106z" />
    <glyph glyph-name="quoteright" unicode="&#x2019;" horiz-adv-x="320" 
d="M92 648l28 307h108l-53 -307h-83z" />
    <glyph glyph-name="quotesinglbase" unicode="&#x201a;" horiz-adv-x="320" 
d="M92 -140l28 307h108l-53 -307h-83z" />
    <glyph glyph-name="quotedblleft" unicode="&#x201c;" horiz-adv-x="494" 
d="M92 649l51 306h84l-27 -306h-108zM267 649l51 306h84l-27 -306h-108z" />
    <glyph glyph-name="quotedblright" unicode="&#x201d;" horiz-adv-x="493" 
d="M92 648l27 307h108l-52 -307h-83zM266 648l27 307h108l-51 -307h-84z" />
    <glyph glyph-name="quotedblbase" unicode="&#x201e;" horiz-adv-x="494" 
d="M92 -140l28 307h108l-53 -307h-83zM266 -140l28 307h108l-52 -307h-84z" />
    <glyph glyph-name="dagger" unicode="&#x2020;" horiz-adv-x="692" 
d="M600 834v-101h-204v-863h-100v863h-204v101h204v169h100v-169h204z" />
    <glyph glyph-name="daggerdbl" unicode="&#x2021;" horiz-adv-x="699" 
d="M603 115v-100h-207v-145h-100v145h-202v100h202v618h-204v101h204v169h100v-169h204v-101h-204v-618h207z" />
    <glyph glyph-name="bullet" unicode="&#x2022;" horiz-adv-x="746" 
d="M373 251q-59 0 -101.5 47.5t-42.5 114.5q0 65 42.5 114.5t101.5 49.5q56 0 100 -50t44 -114q0 -66 -43.5 -114t-100.5 -48z" />
    <glyph glyph-name="ellipsis" unicode="&#x2026;" horiz-adv-x="811" 
d="M161 0q-28 0 -48.5 21t-20.5 50q0 28 20.5 49.5t48.5 21.5t48.5 -21.5t20.5 -49.5q0 -29 -20.5 -50t-48.5 -21zM406 0q-28 0 -48.5 21t-20.5 50q0 28 20.5 49.5t48.5 21.5q26 0 47.5 -21.5t21.5 -49.5t-21 -49.5t-48 -21.5zM650 0q-27 0 -48 21.5t-21 49.5t21 49.5
t48 21.5q28 0 48.5 -21.5t20.5 -49.5q0 -29 -20.5 -50t-48.5 -21z" />
    <glyph glyph-name="perthousand" unicode="&#x2030;" horiz-adv-x="1680" 
d="M187 0l654 890h129l-655 -890h-128zM331 491q-111 0 -175 51t-64 146q0 92 62.5 145t176.5 53q115 0 177.5 -52t62.5 -146q0 -91 -65 -144t-175 -53zM331 570q52 0 88 32.5t36 85.5q0 54 -35 86.5t-89 32.5t-88.5 -33t-34.5 -86q0 -54 34.5 -86t88.5 -32zM811 -9
q-111 0 -175 51t-64 146q0 92 63 144.5t176 52.5q116 0 178.5 -52t62.5 -145q0 -91 -65 -144t-176 -53zM1348 -9q-111 0 -175 51t-64 146q0 92 63 144.5t176 52.5q116 0 178 -51.5t62 -145.5q0 -91 -64.5 -144t-175.5 -53zM811 70q53 0 89 32t36 86q0 55 -34.5 86.5
t-90.5 31.5q-54 0 -88.5 -32.5t-34.5 -85.5q0 -54 34.5 -86t88.5 -32zM1348 70q53 0 89 32t36 86t-35 86t-90 32q-54 0 -88.5 -32.5t-34.5 -85.5q0 -54 34.5 -86t88.5 -32z" />
    <glyph glyph-name="guilsinglleft" unicode="&#x2039;" horiz-adv-x="686" 
d="M232 436l362 -246l-33 -81l-469 292v72l466 292l35 -79z" />
    <glyph glyph-name="guilsinglright" unicode="&#x203a;" horiz-adv-x="686" 
d="M128 765l466 -292v-72l-470 -292l-32 81l362 246l-361 250z" />
    <glyph glyph-name="fraction" unicode="&#x2044;" horiz-adv-x="1049" 
d="M92 -131l767 1183h99l-767 -1183h-99z" />
    <glyph glyph-name="Euro" unicode="&#x20ac;" horiz-adv-x="867" 
d="M721 188l55 -78q-41 -45 -122 -77.5t-181 -32.5q-132 0 -234 80t-135 232h-59v80h47q-2 34 -2 54q0 16 2 44h-47v80h58q33 148 136.5 227.5t233.5 79.5q95 0 170 -28.5t122 -71.5l-55 -75q-33 31 -91.5 52.5t-132.5 21.5q-95 0 -162 -52.5t-93 -153.5h300v-80h-312
q-2 -28 -2 -44q0 -28 3 -54h280v-80h-265q30 -100 99 -155.5t160 -55.5q78 0 136 27t91 60z" />
    <glyph glyph-name="uni2116" unicode="&#x2116;" horiz-adv-x="1579" 
d="M1200 308q-126 0 -200 78.5t-74 206.5q0 132 85 224t208 92q121 0 193 -75t75 -198q4 -145 -78 -236.5t-209 -91.5zM728 890q21 8 63 7t59 -7v-890h-86l-550 684v-684h-122v867q10 14 40.5 23t44.5 4l551 -685v681zM1215 811q-72 0 -122 -62.5t-50 -153.5q0 -85 43 -137
t116 -52q74 0 122.5 63.5t46.5 156.5q-2 82 -44 133.5t-112 51.5zM968 109v90h477v-90h-477z" />
    <glyph glyph-name="trademark" unicode="&#x2122;" horiz-adv-x="970" 
d="M405 890v-92h-110v-384h-93v384h-110v92h313zM878 890v-476h-93v303l-91 -259h-60l-96 248v-292h-93v476h105l114 -309l109 309h105z" />
    <glyph glyph-name="estimated" unicode="&#x212e;" horiz-adv-x="906" 
d="M456 895q159 0 262.5 -135t94.5 -361h-567l2 -258q81 -112 213 -112q68 0 134.5 38.5t114.5 101.5q25 -12 31 -38q-52 -65 -129 -107t-148 -42q-168 0 -270 128t-102 326q0 197 104 328t260 131zM671 446v283q-85 119 -215 119q-64 0 -121 -30.5t-91 -82.5l2 -289h425z
" />
    <glyph glyph-name="partialdiff" unicode="&#x2202;" horiz-adv-x="876" 
d="M406 910q80 0 145 -30.5t108 -80t72 -116t41.5 -136t12.5 -141.5q0 -205 -98 -314.5t-259 -109.5q-158 0 -247 87t-89 210q0 113 82.5 186.5t226.5 73.5q148 0 258 -62q-12 148 -77 240t-181 92q-55 0 -113.5 -26.5t-100.5 -69.5q-32 39 -32 86q34 47 108.5 79t142.5 32z
M428 83q106 0 168 78.5t66 227.5q-96 51 -228 51q-108 0 -162 -47.5t-54 -122.5q0 -77 57 -132t153 -55z" />
    <glyph glyph-name="minus" unicode="&#x2212;" horiz-adv-x="759" 
d="M121 391v100h517v-100h-517z" />
    <glyph glyph-name="radical" unicode="&#x221a;" horiz-adv-x="1025" 
d="M1025 890v-103h-173l-341 -787h-90l-329 481h132l226 -335l311 744h264z" />
    <glyph glyph-name="infinity" unicode="&#x221e;" horiz-adv-x="1042" 
d="M723 724q99 0 163.5 -63.5t64.5 -192.5q0 -128 -64.5 -191.5t-163.5 -63.5q-76 0 -122 40.5t-79 113.5q-33 -73 -79.5 -113.5t-123.5 -40.5q-99 0 -163 63.5t-64 191.5q0 129 64 192.5t163 63.5q78 0 124 -42.5t79 -118.5q31 76 76 118.5t125 42.5zM320 291
q65 0 100.5 43.5t64.5 126.5q-17 45 -29 70.5t-31.5 55.5t-45.5 43.5t-59 13.5q-55 0 -94.5 -44.5t-39.5 -131.5q0 -88 39 -132.5t95 -44.5zM722 292q57 0 96 44t39 132q0 87 -39 131.5t-96 44.5q-33 0 -58.5 -13.5t-44.5 -42.5t-31 -54.5t-28 -69.5q15 -41 27.5 -67
t31.5 -52.5t44.5 -39.5t58.5 -13z" />
    <glyph glyph-name="approxequal" unicode="&#x2248;" horiz-adv-x="699" 
d="M92 471q0 84 36 138.5t96 54.5q39 0 82.5 -23t81.5 -46.5t64 -23.5t44 25t18 68h93q0 -83 -35 -138t-97 -55q-40 0 -83.5 23.5t-82 46.5t-67.5 23q-26 0 -41.5 -25.5t-15.5 -67.5h-93zM92 256q0 84 36 138.5t96 54.5q39 0 82.5 -23t81.5 -46t64 -23q27 0 44.5 24.5
t17.5 67.5h93q0 -83 -35 -138t-97 -55q-40 0 -83.5 23t-82 46.5t-67.5 23.5q-26 0 -41.5 -25.5t-15.5 -67.5h-93z" />
    <glyph glyph-name="notequal" unicode="&#x2260;" horiz-adv-x="718" 
d="M624 886l-128 -284h122v-100h-166l-56 -124h222v-101h-268l-110 -246h-119l110 246h-130v101h175l56 124h-231v100h276l127 284h120z" />
    <glyph glyph-name="lessequal" unicode="&#x2264;" horiz-adv-x="686" 
d="M594 699l-367 -242l366 -244l-41 -85l-460 292v74l464 291zM124 0v88h449v-88h-449z" />
    <glyph glyph-name="greaterequal" unicode="&#x2265;" horiz-adv-x="686" 
d="M130 795l464 -291v-73l-461 -292l-40 84l364 244l-365 242zM101 0v87h450v-87h-450z" />
    <glyph glyph-name="i.loclTRK" horiz-adv-x="271" 
d="M135 802q-28 0 -48.5 21t-20.5 50t20.5 50t48.5 21q27 0 48 -21.5t21 -49.5t-21 -49.5t-48 -21.5zM76 0v671q19 6 61 6t59 -6v-671h-120z" />
    <glyph glyph-name="uni00A0.001" horiz-adv-x="357" 
 />
    <glyph glyph-name="uni030C.alt" 
d="M-208 630l16 333h114l-43 -333h-87z" />
    <glyph glyph-name="uni0308.case" 
d="M-397 975q-22 0 -38 17t-16 40t16 40t38 17t38.5 -17t16.5 -40t-16.5 -40t-38.5 -17zM-131 975q-22 0 -38 17t-16 40t16 40t38 17t38.5 -17t16.5 -40t-16.5 -40t-38.5 -17z" />
    <glyph glyph-name="uni0307.case" 
d="M-141 975q-22 0 -38.5 17t-16.5 40t16.5 40t38.5 17t38.5 -17t16.5 -40t-16.5 -40t-38.5 -17z" />
    <glyph glyph-name="gravecomb.case" 
d="M-151 959l-202 190h109l168 -190h-75z" />
    <glyph glyph-name="acutecomb.case" 
d="M-295 944l165 196h109l-200 -196h-74z" />
    <glyph glyph-name="uni030B.case" 
d="M-492 959l123 172h96l-154 -172h-65zM-309 959l133 172h109l-176 -172h-66z" />
    <glyph glyph-name="uni0302.case" 
d="M-76 942h-86l-130 145l-131 -145h-87l190 222h56z" />
    <glyph glyph-name="uni030C.case" 
d="M-144 1172h86l-188 -224h-56l-190 224h87l131 -144z" />
    <glyph glyph-name="uni0306.case" 
d="M-288 768q-94 0 -152 47.5t-58 137.5h84q0 -51 34.5 -83.5t91.5 -32.5t92.5 33.5t35.5 82.5h85q0 -87 -61 -136t-152 -49z" />
    <glyph glyph-name="uni030A.case" 
d="M-235 876q-79 0 -128.5 40t-49.5 105q0 63 48 104t130 41q80 0 128.5 -41t48.5 -104q0 -62 -51.5 -103.5t-125.5 -41.5zM-237 931q47 0 79 26t32 64q0 40 -31 65.5t-80 25.5t-78.5 -26t-29.5 -65t30 -64.5t78 -25.5z" />
    <glyph glyph-name="tildecomb.case" 
d="M-163 944q-26 0 -55.5 15t-50.5 33.5t-46 33.5t-44 15q-22 0 -35.5 -24t-13.5 -68h-70q0 78 28.5 126.5t76.5 48.5q26 0 54.5 -15t49.5 -33.5t45.5 -33.5t43.5 -15q23 0 37.5 25t14.5 68l71 -1q0 -75 -28.5 -125t-77.5 -50z" />
    <glyph glyph-name="uni0304.case" 
d="M-504 824v81h429v-81h-429z" />
    <glyph glyph-name="uni0327.case" 
d="M-178 -351q-65 -2 -120 63l54 59q33 -40 65 -40q19 0 31.5 16t12.5 41q0 15 -6 28t-23.5 35t-21.5 29q-26 34 -34.5 58t-8.5 62h73q0 -22 7 -37t27.5 -40t31.5 -42q32 -46 32 -100t-34.5 -93t-85.5 -39z" />
    <glyph glyph-name="uni0328.case" 
d="M-207 -354q-54 -1 -88.5 30.5t-34.5 92.5q0 57 34 128t93 121l74 -11q-54 -56 -83.5 -113.5t-29.5 -103.5q0 -27 15 -41.5t38 -13.5q20 0 41.5 15t34.5 37l56 -46q-25 -41 -67.5 -68t-82.5 -27z" />
    </font>
</defs>
</svg>
