<?xml version="1.0" standalone="no"?>
<!DOCTYPE svg PUBLIC "-//W3C//DTD SVG 1.1//EN" "http://www.w3.org/Graphics/SVG/1.1/DTD/svg11.dtd" >
<svg xmlns="http://www.w3.org/2000/svg" xmlns:xlink="http://www.w3.org/1999/xlink" version="1.1">
<metadata>
Created by FontForge 20170731 at Mon May 11 15:12:46 2020
 By Aleksey,,,
Copyright (c) 2019 by Mans Greback. All rights reserved.
</metadata>
<defs>
<font id="Quache-BlackCondensed" horiz-adv-x="0" >
  <font-face 
    font-family="Quache Black Condensed"
    font-weight="900"
    font-stretch="condensed"
    units-per-em="1000"
    panose-1="0 0 10 6 0 0 0 0 0 0"
    ascent="800"
    descent="-200"
    x-height="688"
    cap-height="917"
    bbox="-632 -390.099 1880 1311"
    underline-thickness="50"
    underline-position="-200"
    unicode-range="U+000D-2265"
  />
<missing-glyph horiz-adv-x="917" 
d="M0 -33v1009h917v-1009h-917zM80 47h757v849h-757v-849zM392 317q-16 68 -4.5 107.5t41.5 70.5t61 49t55 43t24 54q0 30 -28 53t-88 23q-64 0 -111.5 -22t-95.5 -61l-95 92q59 58 142 92.5t167 34.5q135 0 209 -56.5t74 -143.5q0 -54 -29.5 -95.5t-70 -66.5t-80.5 -48
t-63.5 -54t-15.5 -72h-92zM442 87q-32 0 -57 24.5t-25 56.5q0 31 25.5 56t56.5 25t55 -25t24 -56q0 -32 -24 -56.5t-55 -24.5z" />
    <glyph glyph-name="f_i.liga" unicode="fi" horiz-adv-x="761" 
d="M602 779q-44 0 -77.5 33t-33.5 78q0 44 33.5 77.5t77.5 33.5q43 0 76.5 -34t33.5 -77q0 -45 -33.5 -78t-76.5 -33zM106 0v523h-112v165h115q10 137 69 205.5t175 69.5q50 0 111 -15q8 -28 -0.5 -85.5t-25.5 -76.5q-25 8 -47 8q-70 -1 -79 -106h391v-688h-203v523h-191
v-523h-203z" />
    <glyph glyph-name="f_l.liga" unicode="fl" horiz-adv-x="809" 
d="M674 -18q-182 0 -182 217v604q-36 9 -71 9q-51 -1 -77 -32.5t-32 -91.5h110v-165h-113v-523h-203v523h-112v165h115q10 140 80 207.5t221 67.5q142 0 285 -33v-666q0 -116 44 -116q11 0 34 7q14 -30 16 -74t-8 -76q-64 -23 -107 -23z" />
    <glyph glyph-name=".notdef" horiz-adv-x="917" 
d="M0 -33v1009h917v-1009h-917zM80 47h757v849h-757v-849zM392 317q-16 68 -4.5 107.5t41.5 70.5t61 49t55 43t24 54q0 30 -28 53t-88 23q-64 0 -111.5 -22t-95.5 -61l-95 92q59 58 142 92.5t167 34.5q135 0 209 -56.5t74 -143.5q0 -54 -29.5 -95.5t-70 -66.5t-80.5 -48
t-63.5 -54t-15.5 -72h-92zM442 87q-32 0 -57 24.5t-25 56.5q0 31 25.5 56t56.5 25t55 -25t24 -56q0 -32 -24 -56.5t-55 -24.5z" />
    <glyph glyph-name=".null" 
 />
    <glyph glyph-name="nonmarkingreturn" horiz-adv-x="333" 
 />
    <glyph glyph-name="CR" unicode="&#xd;" horiz-adv-x="600" 
 />
    <glyph glyph-name="space" unicode=" " horiz-adv-x="374" 
 />
    <glyph glyph-name="exclam" unicode="!" horiz-adv-x="452" 
d="M148 305l-17 623h187l-16 -623h-154zM226 0q-40 0 -69.5 30t-29.5 69t30 69.5t69 30.5q38 0 68.5 -31t30.5 -69q0 -39 -30.5 -69t-68.5 -30z" />
    <glyph glyph-name="quotedbl" unicode="&#x22;" horiz-adv-x="571" 
d="M73 641l11 323h182l-54 -323h-139zM305 641l11 323h182l-54 -323h-139z" />
    <glyph glyph-name="numbersign" unicode="#" horiz-adv-x="788" 
d="M715 533h-77l-14 -152h60v-151h-73l-11 -127h-156l11 127h-151l-11 -127h-157l11 127h-74v151h87l14 152h-70v152h83l10 112h158l-10 -112h149l10 112h157l-10 -112h64v-152zM468 381l13 152h-150l-13 -152h150z" />
    <glyph glyph-name="dollar" unicode="$" horiz-adv-x="881" 
d="M809 251q0 -91 -65 -158.5t-208 -86.5v-138h-139v134q-93 8 -184.5 50.5t-139.5 98.5l79 141q58 -58 141 -91t171 -32q72 0 105.5 25t33.5 63q0 32 -36 57t-89.5 40.5t-116.5 39t-116.5 50.5t-89.5 76.5t-36 115.5q0 98 72.5 166t205.5 80v129h139v-134q82 -12 145.5 -45
t97.5 -69l-52 -151q-45 45 -125.5 74.5t-157.5 29.5q-63 0 -93 -21t-30 -47q0 -30 36 -53t90.5 -37t117.5 -38t117.5 -53.5t90.5 -85t36 -130.5z" />
    <glyph glyph-name="percent" unicode="%" horiz-adv-x="1340" 
d="M353 489q-136 0 -208 51.5t-72 152.5q0 98 71 152.5t209 54.5q280 0 280 -207q0 -95 -72.5 -149.5t-207.5 -54.5zM239 0l652 889h216l-653 -889h-215zM353 619q35 0 60 19.5t25 54.5q0 36 -24 56t-61 20q-36 0 -60 -21t-24 -55q0 -36 23.5 -55t60.5 -19zM981 -16
q-134 0 -206 52t-72 154q0 97 71 151t207 54q282 0 282 -205q0 -96 -73 -151t-209 -55zM981 114q38 0 63 20t25 56q0 34 -25 54t-63 20q-34 0 -58.5 -20.5t-24.5 -53.5q0 -36 24 -56t59 -20z" />
    <glyph glyph-name="ampersand" unicode="&#x26;" horiz-adv-x="1007" 
d="M934 139l-112 -139l-87 67q-115 -85 -308 -85q-174 0 -264 61.5t-90 177.5q0 145 169 249q-107 119 -107 221q0 46 18.5 87.5t54.5 76t97.5 55t140.5 20.5q147 0 225.5 -68.5t78.5 -157.5q0 -93 -55 -155t-154 -112q5 -4 14.5 -11.5t11.5 -8.5l120 -91q18 51 15 111h172
q19 -128 -27 -232zM438 762q-51 0 -76 -23t-25 -55q0 -54 69 -129q68 37 102.5 70.5t34.5 69.5q0 27 -27.5 47t-77.5 20zM438 155q78 0 138 35l-152 117q-54 43 -58 46q-44 -25 -66.5 -50t-21.5 -57q0 -42 42 -66.5t118 -24.5z" />
    <glyph glyph-name="quotesingle" unicode="'" horiz-adv-x="339" 
d="M73 641l12 323h181l-54 -323h-139z" />
    <glyph glyph-name="parenleft" unicode="(" horiz-adv-x="694" 
d="M554 -266q-115 46 -197.5 143.5t-121.5 218t-39 253.5q0 93 21.5 184t66 181t122.5 167.5t181 127.5l43 -101l-9 -30q-129 -87 -191.5 -234t-62.5 -295q0 -164 57 -292.5t165 -188.5l6 -31z" />
    <glyph glyph-name="parenright" unicode=")" horiz-adv-x="725" 
d="M16 -266l-41 103l6 31q108 60 165 188.5t57 292.5q0 148 -62.5 295t-191.5 234l-9 30l43 101q103 -50 181 -127.5t122.5 -167.5t66 -181t21.5 -184q0 -133 -39 -253.5t-121.5 -218t-197.5 -143.5z" />
    <glyph glyph-name="asterisk" unicode="*" horiz-adv-x="615" 
d="M542 731l-138 -39l109 -111l-132 -103l-73 141l-74 -141l-132 103l109 111l-138 39l52 148l116 -65l-21 145h171l-19 -145l117 65z" />
    <glyph glyph-name="plus" unicode="+" horiz-adv-x="714" 
d="M641 529v-169h-198v-246h-173v246h-197v169h197v245h173v-245h198z" />
    <glyph glyph-name="comma" unicode="," horiz-adv-x="372" 
d="M43 -189l39 366h171l-55 -366h-155z" />
    <glyph glyph-name="hyphen" unicode="-" horiz-adv-x="924" 
d="M188 290v158h548v-158h-548z" />
    <glyph glyph-name="period" unicode="." horiz-adv-x="475" 
d="M238 0q-44 0 -77.5 33.5t-33.5 77.5t33.5 77.5t77.5 33.5q43 0 76.5 -33.5t33.5 -77.5t-33 -77.5t-77 -33.5z" />
    <glyph glyph-name="slash" unicode="/" horiz-adv-x="926" 
d="M-20 -132l771 1143h195l-770 -1143h-196z" />
    <glyph glyph-name="zero" unicode="0" horiz-adv-x="825" 
d="M412 -18q-161 0 -258 131.5t-97 341.5q0 222 97.5 348.5t257.5 126.5q161 0 258.5 -125.5t97.5 -349.5q0 -205 -98.5 -339t-257.5 -134zM412 151q69 0 109.5 86.5t40.5 217.5q0 141 -40 224t-110 83q-68 0 -108 -85t-40 -222q0 -135 40 -219.5t108 -84.5z" />
    <glyph glyph-name="one" unicode="1" horiz-adv-x="566" 
d="M514 141q8 -70 0 -141h-460q-10 74 0 141l131 24v541l-118 -30q-13 60 -9 143l214 71h119v-726z" />
    <glyph glyph-name="two" unicode="2" horiz-adv-x="782" 
d="M70 0v162q30 61 86 116.5t112 95.5t108 80t84.5 87.5t32.5 102.5q0 51 -32.5 84t-95.5 33q-69 0 -128 -30t-88 -71q-52 44 -86 123q44 64 134 105.5t199 41.5q146 0 228.5 -78.5t82.5 -202.5q0 -65 -25 -122.5t-71 -105.5t-91.5 -86t-107.5 -86t-98 -83h403
q18 -84 0 -166h-647z" />
    <glyph glyph-name="three" unicode="3" horiz-adv-x="784" 
d="M567 485q160 -83 160 -223q0 -124 -90 -202t-261 -78q-91 0 -189 37t-130 84q7 66 76 149q30 -37 92.5 -69t130.5 -32q76 0 120 31t44 80q0 59 -80 97.5t-202 33.5q-22 94 0 177q128 -2 193 26.5t65 78.5q0 35 -33.5 59t-98.5 24q-75 0 -145.5 -25t-91.5 -46
q-44 49 -60 138q32 39 119 70.5t197 31.5q149 0 233.5 -68t84.5 -173q0 -126 -134 -201z" />
    <glyph glyph-name="four" unicode="4" horiz-adv-x="793" 
d="M728 342q16 -78 0 -165h-57v-177h-206v177h-408v161l447 552h167v-548h57zM278 342h198l9 279z" />
    <glyph glyph-name="five" unicode="5" horiz-adv-x="784" 
d="M421 630q146 0 226 -91t80 -234q0 -134 -92 -228.5t-247 -94.5q-110 0 -196 40.5t-135 97.5q8 89 69 156q110 -123 230 -123q73 0 115.5 44.5t42.5 109.5q0 72 -52.5 118t-149.5 46q-98 0 -212 -37l39 456h537q11 -91 -13 -166h-331l-12 -104q51 10 101 10z" />
    <glyph glyph-name="six" unicode="6" horiz-adv-x="839" 
d="M475 571q133 0 220 -76t87 -200q0 -137 -99 -225t-276 -88q-157 0 -253.5 97.5t-96.5 263.5q0 382 468 587q39 -28 65 -69.5t31 -79.5q-102 -55 -172 -107t-115 -125q71 22 141 22zM410 151q71 0 114.5 41.5t43.5 98.5q0 50 -37.5 82t-114.5 32q-73 0 -141 -24
q-4 -28 -4 -68q0 -67 35 -114.5t104 -47.5z" />
    <glyph glyph-name="seven" unicode="7" horiz-adv-x="690" 
d="M20 890h629v-191q-120 -68 -186 -262.5t-72 -436.5h-218q12 487 279 724h-432q-22 70 0 166z" />
    <glyph glyph-name="eight" unicode="8" horiz-adv-x="832" 
d="M633 495q143 -84 143 -219q0 -130 -88 -212t-274 -82q-182 0 -269.5 82t-87.5 212q0 139 140 220q-119 72 -119 187q0 103 86 175t250 72q167 0 253.5 -71t86.5 -173q0 -114 -121 -191zM414 763q-71 0 -104 -29t-33 -68q0 -70 139 -102q75 16 105.5 42t30.5 62
q0 39 -32.5 67t-105.5 28zM414 151q72 0 110.5 39.5t38.5 92.5q0 110 -149 147q-144 -36 -144 -147q0 -53 37 -92.5t107 -39.5z" />
    <glyph glyph-name="nine" unicode="9" horiz-adv-x="817" 
d="M408 930q159 0 255.5 -96.5t96.5 -259.5q0 -384 -469 -588q-39 28 -65 69t-31 80q116 57 200.5 119t136.5 145q-98 -53 -198 -53q-122 0 -201 76t-79 200q0 134 94.5 221t259.5 87zM260 629q0 -50 34 -84t113 -34q90 0 160 28v48q0 42 -15.5 80t-53 66.5t-91.5 28.5
q-72 0 -109.5 -40t-37.5 -93z" />
    <glyph glyph-name="colon" unicode=":" horiz-adv-x="475" 
d="M238 495q-44 0 -77.5 33.5t-33.5 77.5t33.5 77.5t77.5 33.5q43 0 76.5 -33.5t33.5 -77.5t-33 -77.5t-77 -33.5zM238 0q-44 0 -77.5 33.5t-33.5 77.5t33.5 77.5t77.5 33.5q43 0 76.5 -33.5t33.5 -77.5t-33 -77.5t-77 -33.5z" />
    <glyph glyph-name="semicolon" unicode=";" horiz-adv-x="394" 
d="M163 495q-44 0 -77.5 33.5t-33.5 77.5t33.5 77.5t77.5 33.5q43 0 77 -33.5t34 -77.5t-33.5 -77.5t-77.5 -33.5zM43 -189l39 366h171l-55 -366h-155z" />
    <glyph glyph-name="less" unicode="&#x3c;" horiz-adv-x="681" 
d="M608 653l-310 -214l310 -219l-67 -142l-468 301v122l473 297z" />
    <glyph glyph-name="equal" unicode="=" horiz-adv-x="712" 
d="M73 497v169h567v-169h-567zM73 221v168h567v-168h-567z" />
    <glyph glyph-name="greater" unicode="&#x3e;" horiz-adv-x="681" 
d="M135 798l473 -297v-122l-468 -301l-67 142l310 219l-310 214z" />
    <glyph glyph-name="question" unicode="?" horiz-adv-x="864" 
d="M350 283q-18 64 -9 112.5t32.5 78.5t56 56t62.5 44.5t50.5 44.5t20.5 55q0 36 -33 63.5t-105 27.5q-55 0 -105 -16.5t-78.5 -35t-66.5 -48.5l-116 112q72 69 172 111t201 42q164 0 254 -68.5t90 -173.5q0 -66 -35.5 -115.5t-85 -79.5t-97.5 -58t-76.5 -65.5t-18.5 -86.5
h-113zM411 0q-39 0 -69.5 30t-30.5 69q0 38 31 69t69 31t67.5 -30.5t29.5 -69.5t-29.5 -69t-67.5 -30z" />
    <glyph glyph-name="at" unicode="@" horiz-adv-x="1198" 
d="M588 -246q-229 0 -372 146t-143 394q0 244 149 398t388 154q232 0 374 -138.5t142 -349.5q0 -139 -65 -224.5t-185 -85.5q-103 0 -142 68q-52 -68 -142 -68q-111 0 -166.5 73t-55.5 183t55.5 182t166.5 72q69 0 117 -38l2 23h120v-230q0 -50 10.5 -73t39.5 -23
q67 0 67 141q0 158 -81 246.5t-257 88.5q-171 0 -266 -114t-95 -285q0 -166 91 -274.5t245 -108.5q109 0 199 66l93 -123q-127 -100 -289 -100zM626 199q48 0 72 44v131q-28 33 -72 33q-39 0 -59 -30.5t-20 -72.5q0 -47 19.5 -76t59.5 -29z" />
    <glyph glyph-name="A" unicode="A" horiz-adv-x="917" 
d="M539 906q23 -54 106 -270t155 -388t106 -218l-13 -30q-159 -5 -218 23q-19 25 -65 159h-325l-55 -182h-219l336 906q36 13 98 12.5t94 -12.5zM335 348h221q-3 9 -47 149t-66 209z" />
    <glyph glyph-name="B" unicode="B" horiz-adv-x="807" 
d="M781 316q1 -155 -98.5 -244.5t-281.5 -90.5q-126 0 -197 9t-153 36v862q135 42 311 42q100 0 173 -20t111 -55.5t55 -74.5t17 -86q0 -83 -92 -140q154 -68 155 -238zM370 772q-52 0 -113 -9v-182q83 11 168 11h18q77 19 77 81q0 40 -35 69.5t-115 29.5zM387 147
q101 0 152.5 41.5t51.5 113.5q0 125 -187 125q-66 0 -147 -15v-255q62 -10 130 -10z" />
    <glyph glyph-name="C" unicode="C" horiz-adv-x="859" 
d="M478 -25q-94 0 -176 33t-143.5 93.5t-97 152t-35.5 202.5q0 199 128 336.5t322 137.5q170 0 261.5 -94.5t79.5 -256.5q-141 -30 -208 -13q11 82 -26 136.5t-105 54.5q-100 0 -169.5 -92t-69.5 -222q0 -128 63.5 -211t175.5 -84q125 0 232 79q41 -16 66 -58t30 -80
q-70 -56 -160 -85t-168 -29z" />
    <glyph glyph-name="D" unicode="D" horiz-adv-x="844" 
d="M350 930q224 0 346 -126.5t122 -337.5q0 -224 -118.5 -354.5t-333.5 -130.5q-99 0 -167.5 9.5t-147.5 35.5v862q133 42 299 42zM604 461q1 139 -66.5 221.5t-190.5 82.5q-43 0 -90 -5v-605q51 -8 110 -8q118 0 177.5 83.5t59.5 230.5z" />
    <glyph glyph-name="E" unicode="E" horiz-adv-x="753" 
d="M710 166q18 -22 18.5 -78t-18.5 -88h-659v885l20 21h620q11 -37 -1.5 -89.5t-31.5 -76.5h-401v-213h373q9 -39 -3 -93.5t-31 -71.5h-339v-196h453z" />
    <glyph glyph-name="F" unicode="F" horiz-adv-x="730" 
d="M667 740h-410v-256h389q10 -40 -2 -94.5t-32 -71.5h-355v-318h-206v887l19 18h629q11 -37 -0.5 -90t-31.5 -75z" />
    <glyph glyph-name="G" unicode="G" horiz-adv-x="852" 
d="M457 757q-103 0 -160.5 -87t-57.5 -223q0 -130 60 -211t169 -81q79 0 144 23v142h-211q-9 38 3 93t29 72h354l23 -25v-371q-57 -51 -153.5 -79t-188.5 -28q-191 0 -316.5 128t-125.5 346q0 126 49.5 233t148.5 174t229 67q158 0 260.5 -93t97.5 -229q-44 -11 -100 -16
t-99 2q-9 79 -52 121t-103 42z" />
    <glyph glyph-name="H" unicode="H" horiz-adv-x="809" 
d="M552 906q40 13 107 10.5t99 -10.5v-906h-206v331h-295v-331h-206v906q38 13 107 10.5t99 -10.5v-409h295v409z" />
    <glyph glyph-name="I" unicode="I" horiz-adv-x="293" 
d="M51 0v906q36 13 99 11t92 -11v-906h-191z" />
    <glyph glyph-name="J" unicode="J" horiz-adv-x="799" 
d="M379 -18q-101 0 -192 46.5t-161 130.5q13 49 45 89t66 51q44 -69 102.5 -106.5t117.5 -37.5q94 0 139.5 66.5t45.5 177.5v507q45 10 112 9t94 -9v-535q0 -103 -41.5 -190.5t-127.5 -143t-200 -55.5z" />
    <glyph glyph-name="K" unicode="K" horiz-adv-x="908" 
d="M533 453q85 -111 119 -153.5t101.5 -117t135.5 -133.5l-2 -31q-28 -10 -90.5 -21t-115.5 -11q-75 54 -307 364q-46 -27 -117 -62v-288h-206v906q38 13 107.5 10.5t98.5 -10.5v-427q103 54 176 107q205 153 194 308q29 20 86.5 23t105.5 -8q21 -92 -40 -207t-191 -211
q-36 -26 -55 -38z" />
    <glyph glyph-name="L" unicode="L" horiz-adv-x="746" 
d="M88 0l-37 38v868q39 13 105.5 11t100.5 -11v-740h443q19 -22 20 -78t-20 -88h-612z" />
    <glyph glyph-name="M" unicode="M" horiz-adv-x="1050" 
d="M1024 0h-207l-45 503l-187 -381h-126l-187 381l-40 -503h-206l81 872q22 22 85.5 32.5t88.5 1.5l243 -531l242 531q26 9 88 -1t84 -32z" />
    <glyph glyph-name="N" unicode="N" horiz-adv-x="893" 
d="M636 906q36 13 106.5 10.5t99.5 -10.5v-906h-143l-442 542v-542h-206v869q17 23 68.5 38t74.5 6l442 -556v549z" />
    <glyph glyph-name="O" unicode="O" horiz-adv-x="885" 
d="M408 -18q-112 0 -200.5 58.5t-135 156t-46.5 214.5q0 141 56 259t160.5 189t236.5 71q108 0 195.5 -60.5t135.5 -161.5t49 -221q1 -132 -54.5 -247t-160.5 -186.5t-236 -71.5zM416 155q100 0 164.5 105.5t64.5 240.5q1 114 -48 184.5t-134 70.5q-101 0 -162.5 -101.5
t-61.5 -247.5q1 -108 46 -180t131 -72z" />
    <glyph glyph-name="P" unicode="P" horiz-adv-x="806" 
d="M396 930q188 0 286 -101.5t98 -266.5q0 -151 -103 -249.5t-288 -98.5q-71 0 -132 11v-225h-206v885q148 45 345 45zM566 567q2 93 -44.5 145.5t-139.5 52.5q-65 0 -125 -10v-363q55 -13 121 -13q88 0 138 49.5t50 138.5z" />
    <glyph glyph-name="Q" unicode="Q" horiz-adv-x="885" 
d="M597 -30q83 0 207 59q23 -29 32 -75.5t-2 -92.5q-103 -25 -184 -26q-236 -5 -316 154q-139 27 -224 145.5t-84 276.5q0 141 56 259t160.5 189t236.5 71q108 0 195.5 -60.5t135.5 -161.5t49 -221q2 -173 -93 -312t-250 -179q27 -26 81 -26zM239 407q1 -108 46 -180
t131 -72q100 0 164.5 105.5t64.5 240.5q1 114 -48 184.5t-134 70.5q-101 0 -162.5 -101.5t-61.5 -247.5z" />
    <glyph glyph-name="R" unicode="R" horiz-adv-x="893" 
d="M588 315q134 -168 256 -273l-2 -33q-26 -8 -92 -16.5t-121 -8.5q-46 28 -260 291q-56 1 -112 13v-288h-206v885q175 45 349 45q181 0 281.5 -85t100.5 -236q1 -102 -50.5 -177.5t-143.5 -116.5zM257 757v-303q63 -13 128 -13q84 -1 133.5 44t49.5 126q0 68 -48 111
t-142 43q-63 0 -121 -8z" />
    <glyph glyph-name="S" unicode="S" horiz-adv-x="830" 
d="M440 -18q-115 0 -223.5 37t-190.5 104q5 37 37 90t71 62q66 -59 147.5 -93t163.5 -34q69 0 107 36t38 85q0 54 -40 83.5t-131 35.5q-156 6 -245 74t-88 193q2 124 100.5 199.5t244.5 75.5q89 0 159.5 -25t113.5 -66.5t65.5 -92.5t22.5 -107q-40 -11 -96 -16.5t-96 3.5
q-6 63 -47.5 101t-123.5 38q-57 0 -93.5 -31t-36.5 -75q0 -50 42 -76.5t108 -30.5q355 -20 355 -271q0 -137 -103 -218t-261 -81z" />
    <glyph glyph-name="T" unicode="T" horiz-adv-x="846" 
d="M824 906q8 -38 -3.5 -91.5t-30.5 -74.5h-257v-740h-214v740h-295q-9 35 -3.5 85t22.5 81h781z" />
    <glyph glyph-name="U" unicode="U" horiz-adv-x="891" 
d="M439 -25q-194 0 -291 109.5t-97 315.5v506q34 11 107 9.5t99 -9.5v-514q0 -114 46 -179t136 -65q95 0 145 69.5t50 186.5v502q36 12 106.5 10t99.5 -10v-504q0 -194 -103.5 -310.5t-297.5 -116.5z" />
    <glyph glyph-name="V" unicode="V" horiz-adv-x="876" 
d="M355 0l-55 34q-22 65 -71 212.5t-75 226t-60.5 179.5t-54.5 154t-28 68l9 32q109 19 196 0q84 -174 248 -734h6q118 188 159.5 384.5t8.5 334.5q29 17 84.5 21.5t110.5 -6.5q26 -73 26.5 -171.5t-24.5 -211t-83.5 -240t-143.5 -246.5l-65 -37h-188z" />
    <glyph glyph-name="W" unicode="W" horiz-adv-x="1254" 
d="M326 0l-50 25q-204 708 -265 848l11 33q39 9 94.5 9.5t99.5 -9.5q82 -181 214 -734h4q33 73 79.5 202t59.5 195q-9 50 -39 148q18 29 80 56t114 21q28 -65 82.5 -270.5t80.5 -351.5h7q49 80 80.5 182.5t42.5 200.5t9.5 185t-15.5 151q63 39 191 15q23 -62 28.5 -160.5
t-7.5 -217t-60.5 -251.5t-123.5 -240l-62 -37h-209l-36 21q-28 119 -66 264q-13 -57 -41.5 -137.5t-49.5 -122.5l-48 -25h-205z" />
    <glyph glyph-name="X" unicode="X" horiz-adv-x="883" 
d="M594 421q236 -343 278 -398l-7 -23h-221q-25 23 -67 84t-91.5 139t-67.5 104q-189 -155 -201 -327h-206q4 82 27.5 151.5t66.5 127.5t91.5 103.5t116.5 94.5q-216 311 -282 396l11 32q41 12 110.5 12.5t108.5 -11.5q70 -76 227 -336q93 90 128.5 163t29.5 157
q60 39 195 16q9 -43 11 -77.5t-8.5 -83t-37 -94.5t-80 -106t-132.5 -124z" />
    <glyph glyph-name="Y" unicode="Y" horiz-adv-x="848" 
d="M825 906q46 -293 -262 -589v-317h-206v335q-67 116 -174.5 288t-167.5 249l13 34q46 9 108 10t108 -10q40 -42 123.5 -182.5t121.5 -225.5q72 79 106 200.5t27 191.5q68 42 203 16z" />
    <glyph glyph-name="Z" unicode="Z" horiz-adv-x="812" 
d="M767 166q18 -22 19 -78t-19 -88h-704q-17 16 -29 63t-7 79q96 167 219.5 336t236.5 262h-432q-18 21 -19 77.5t19 88.5h687q17 -14 29.5 -70.5t8.5 -91.5q-119 -87 -262.5 -263.5t-222.5 -314.5h476z" />
    <glyph glyph-name="bracketleft" unicode="[" horiz-adv-x="506" 
d="M73 -257v1268h360v-153h-205v-963h205v-152h-360z" />
    <glyph glyph-name="backslash" unicode="\" horiz-adv-x="926" 
d="M946 -132h-195l-771 1143h196z" />
    <glyph glyph-name="bracketright" unicode="]" horiz-adv-x="506" 
d="M433 -257h-360v152h205v963h-205v153h360v-1268z" />
    <glyph glyph-name="asciicircum" unicode="^" horiz-adv-x="915" 
d="M780 514h-210l-115 161l-115 -161h-205l285 376h80z" />
    <glyph glyph-name="underscore" unicode="_" horiz-adv-x="622" 
d="M73 -145v145h476v-145h-476z" />
    <glyph glyph-name="grave" unicode="`" horiz-adv-x="444" 
d="M267 775l-220 250h194l156 -250h-130z" />
    <glyph glyph-name="a" unicode="a" horiz-adv-x="712" 
d="M657 270q0 -83 5 -135.5t10 -71t15 -43.5l-3 -20h-171q-28 21 -37 78q-96 -96 -233 -96q-86 0 -144.5 51.5t-57.5 128.5q1 108 103 186t256 90q16 1 47 1q-10 52 -35.5 80t-66.5 27q-77 0 -195 -72q-59 21 -72 133q154 105 291 107q130 1 208 -85.5t79 -244.5zM451 303
l2 11q-22 2 -45 0q-81 -4 -127.5 -38t-46.5 -75q0 -28 17.5 -46t46.5 -18q59 0 102 52.5t51 113.5z" />
    <glyph glyph-name="b" unicode="b" horiz-adv-x="755" 
d="M437 714q139 0 216 -92t77 -246q0 -167 -86 -280.5t-222 -113.5q-108 0 -179 76q-11 -37 -23 -58h-173v24q13 64 13 165v746q34 11 103.5 11t99.5 -11v-308q70 87 174 87zM380 154q64 0 103.5 64.5t39.5 164.5q0 71 -29 116.5t-77 45.5q-67 0 -110.5 -84.5t-43.5 -188.5
q0 -41 35.5 -79.5t81.5 -38.5z" />
    <glyph glyph-name="c" unicode="c" horiz-adv-x="688" 
d="M355 -18q-140 -2 -235.5 94.5t-95.5 262.5q0 156 103 265.5t253 109.5q138 0 216.5 -91.5t64.5 -232.5q-130 -32 -195 -14q7 79 -20 124t-77 45q-59 0 -98.5 -59.5t-39.5 -150.5q0 -78 38.5 -130.5t99.5 -53.5q78 0 175 84q36 -12 62 -44t34 -58l7 -26
q-135 -122 -292 -125z" />
    <glyph glyph-name="d" unicode="d" horiz-adv-x="757" 
d="M696 189q0 -101 13 -165v-24h-172q-13 21 -26 67q-80 -85 -198 -85q-126 0 -207.5 99.5t-81.5 238.5q0 173 88 283.5t240 110.5q83 0 141 -61v282q30 11 99.5 11t103.5 -11v-746zM361 154q57 0 94.5 78t37.5 207q0 45 -33.5 75.5t-75.5 30.5q-65 0 -108 -55.5t-43 -145.5
q0 -85 35 -137.5t93 -52.5z" />
    <glyph glyph-name="e" unicode="e" horiz-adv-x="704" 
d="M376 714q149 0 235 -94.5t66 -251.5l-26 -35l-425 -93q20 -44 59.5 -67t90.5 -22q93 3 186 81q28 -12 49.5 -43.5t29 -53.5t7.5 -26q-134 -127 -292 -127q-90 -1 -164.5 39.5t-120.5 119.5t-47 183q-1 165 97.5 277.5t254.5 112.5zM486 433q5 51 -25.5 87t-84.5 36
q-64 0 -110 -51t-56 -129z" />
    <glyph glyph-name="f" unicode="f" horiz-adv-x="437" 
d="M391 794q-38 -1 -56 -27.5t-24 -78.5h155v-165h-157v-523h-203v523h-112v165h114q10 137 69.5 205.5t175.5 69.5q63 0 148 -20q8 -28 -4 -85.5t-30 -77.5q-42 14 -76 14z" />
    <glyph glyph-name="g" unicode="g" horiz-adv-x="760" 
d="M536 703q69 7 177 -14v-26q-14 -86 -14 -177v-398q0 -177 -93 -279.5t-235 -104.5q-163 0 -317 113q17 110 79 148q131 -94 225 -92q65 2 107.5 53t46.5 142q-72 -86 -170 -86q-139 0 -228.5 91.5t-89.5 246.5q0 174 90.5 283.5t237.5 109.5q95 0 168 -80zM362 154
q57 0 93.5 76t37.5 216q-1 36 -34.5 67.5t-74.5 31.5q-72 0 -111.5 -60t-39.5 -145q0 -81 34.5 -133.5t94.5 -52.5z" />
    <glyph glyph-name="h" unicode="h" horiz-adv-x="738" 
d="M446 714q126 0 191.5 -89t65.5 -253v-372h-203v347q0 187 -98 187q-60 0 -106 -72t-46 -173v-289h-203v935q35 11 103.5 11t99.5 -11v-286q82 65 196 65z" />
    <glyph glyph-name="i" unicode="i" horiz-adv-x="317" 
d="M158 778q-44 0 -77.5 33.5t-33.5 78.5q0 43 33.5 76.5t77.5 33.5q43 0 77 -33.5t34 -76.5q0 -45 -33.5 -78.5t-77.5 -33.5zM57 0v688q33 10 104 10t99 -10v-688h-203z" />
    <glyph glyph-name="j" unicode="j" horiz-adv-x="332" 
d="M171 778q-44 0 -77.5 33.5t-33.5 78.5q0 43 33.5 76.5t77.5 33.5q43 0 77 -33.5t34 -76.5q0 -45 -33.5 -78.5t-77.5 -33.5zM68 -260q-52 2 -98 18q-11 36 2.5 92t36.5 83q19 -8 30 -8q20 0 26.5 31.5t6.5 114.5v617q33 10 104 10t98 -10v-707q0 -108 -57 -175t-149 -66z
" />
    <glyph glyph-name="k" unicode="k" horiz-adv-x="808" 
d="M519 344q169 -202 210 -243q30 -29 56 -47v-32q-30 -11 -99 -20.5t-131 -8.5q-13 6 -31 24t-49.5 57t-52 65.5t-67.5 88.5q-52 -31 -105 -57v-171h-203v935q40 13 103.5 13t99.5 -13v-564q24 15 81 56q87 65 134.5 123t43.5 122q81 37 216 16q21 -82 -33.5 -171.5
t-172.5 -172.5z" />
    <glyph glyph-name="l" unicode="l" horiz-adv-x="382" 
d="M247 -18q-181 0 -181 217v736q33 12 98 12t105 -12v-671q0 -116 44 -116q11 0 34 7q13 -30 15.5 -74t-7.5 -76q-64 -23 -108 -23z" />
    <glyph glyph-name="m" unicode="m" horiz-adv-x="1052" 
d="M793 714q212 0 212 -331v-383h-203v358q0 187 -64 187q-46 0 -77 -64.5t-31 -170.5l1 -310h-196v358q0 187 -65 187q-46 0 -76.5 -66t-30.5 -174v-305h-203v498q0 89 -13 162v28q106 22 188 14q8 -27 10 -65q79 77 169 77q119 0 174 -102q86 102 205 102z" />
    <glyph glyph-name="n" unicode="n" horiz-adv-x="762" 
d="M458 714q257 0 257 -342v-372h-203v347q0 198 -98 198q-58 0 -104.5 -73.5t-46.5 -166.5v-305h-203v498q0 89 -13 162v28q106 22 189 14q8 -34 11 -72q87 84 211 84z" />
    <glyph glyph-name="o" unicode="o" horiz-adv-x="748" 
d="M348 -18q-151 0 -237.5 97t-86.5 247q0 161 109 274.5t268 113.5q149 0 233.5 -92t88.5 -242q4 -176 -102.5 -287t-272.5 -111zM360 151q65 0 110.5 64t45.5 144q0 78 -34.5 132t-93.5 54q-65 0 -110.5 -65t-45.5 -155q0 -75 33 -124.5t95 -49.5z" />
    <glyph glyph-name="p" unicode="p" horiz-adv-x="758" 
d="M451 714q128 0 205.5 -94t77.5 -235q0 -177 -87.5 -290t-223.5 -113q-92 0 -158 66v-305q-25 -10 -97 -10t-105 10v743q0 89 -16 175v27q99 28 179 14l23 -79q89 91 202 91zM383 154q64 0 103.5 65.5t39.5 160.5q0 76 -30 120.5t-76 44.5q-62 0 -109 -76t-47 -199
q0 -38 36 -77t83 -39z" />
    <glyph glyph-name="q" unicode="q" horiz-adv-x="768" 
d="M535 702q85 14 186 -14v-29q-20 -76 -20 -156v-760q-33 -10 -104 -10t-99 10v317q-81 -78 -176 -78q-133 0 -215.5 98.5t-82.5 239.5q0 179 92.5 286t222.5 107q102 0 176 -76zM362 154q58 0 94.5 82t36.5 202q0 42 -32 74.5t-76 32.5q-70 0 -112.5 -60.5t-39.5 -153.5
q1 -79 36.5 -128t92.5 -49z" />
    <glyph glyph-name="r" unicode="r" horiz-adv-x="549" 
d="M522 687q11 -33 -9.5 -89t-48.5 -86q-39 18 -73 18q-59 -2 -92.5 -62.5t-33.5 -167.5v-300h-205v498q0 89 -13 162v28q101 22 180 14q11 -37 11 -83v-13q30 49 73.5 78.5t92.5 29.5q58 0 118 -27z" />
    <glyph glyph-name="s" unicode="s" horiz-adv-x="719" 
d="M374 -18q-213 0 -340 105q32 104 87 142q104 -78 221 -78q59 0 97.5 19t38.5 48q0 32 -36.5 45t-118.5 19q-260 23 -260 196q0 95 83.5 165.5t212.5 70.5q181 0 317 -81q-8 -69 -54 -157q-121 69 -235 69q-55 0 -86.5 -18.5t-31.5 -43.5t26 -37.5t88 -15.5
q160 -7 231 -59.5t71 -152.5q0 -102 -88 -169t-223 -67z" />
    <glyph glyph-name="t" unicode="t" horiz-adv-x="533" 
d="M463 171q18 -20 27 -77.5t-1 -87.5q-69 -24 -131 -24q-122 -2 -191 82.5t-69 255.5v203h-80v165h80v177q34 18 93 28t110 0v-205h182v-165h-182v-189q0 -90 21 -135t70 -45q33 0 71 17z" />
    <glyph glyph-name="u" unicode="u" horiz-adv-x="759" 
d="M695 254q0 -156 28 -231l-1 -23h-172q-30 27 -36 73q-85 -91 -204 -91q-118 0 -190.5 77.5t-72.5 238.5v390q45 10 102 9t101 -9v-355q0 -97 25 -139.5t79 -42.5q68 0 103 72.5t35 199.5v265q38 9 110.5 7t92.5 -7v-434z" />
    <glyph glyph-name="v" unicode="v" horiz-adv-x="740" 
d="M264 0l-31 23q-35 133 -80 264.5t-72.5 199.5t-70.5 170l13 31q44 9 97 10t97 -10q62 -109 179 -519h20q128 273 108 504q62 42 200 15q21 -137 -30 -326.5t-162 -342.5l-34 -19h-234z" />
    <glyph glyph-name="w" unicode="w" horiz-adv-x="1013" 
d="M225 0l-32 22q-31 122 -70.5 259.5t-73.5 248.5t-39 128l14 30q43 9 98 10t98 -10q26 -72 63.5 -216.5t65.5 -287.5h9q49 160 77 305l-26 80q17 32 74 57.5t113 19.5q70 -197 121 -462h12q38 143 54 255t6 234q72 40 206 15q21 -126 -19.5 -319.5t-131.5 -351.5l-33 -17
h-194l-32 23q-25 94 -54 170q-30 -98 -70 -177l-26 -16h-210z" />
    <glyph glyph-name="x" unicode="x" horiz-adv-x="777" 
d="M759 0h-249q-29 41 -166 223q-66 -57 -94.5 -109t-19.5 -114h-199q-6 23 -6 46.5t3 44t12.5 42.5t18.5 39t24.5 38t27 34.5t30.5 33t30 30t30 28.5t27 25q-144 198 -210 294l11 33q38 8 109 8t107 -12q57 -95 158 -242q63 58 89.5 114t21.5 124q78 32 199 8
q19 -88 -23.5 -188t-158.5 -197q62 -78 226 -268z" />
    <glyph glyph-name="y" unicode="y" horiz-adv-x="765" 
d="M738 688q13 -54 14.5 -121.5t-8 -142.5t-33.5 -155t-60 -155t-89.5 -146.5t-119.5 -126.5q-129 -107 -301 -109q-56 0 -88 17q-30 77 -2 145l33 20q31 -13 59 -13q87 -1 208 122q-79 57 -140 133.5t-95 143.5t-57.5 145t-31.5 122.5t-13 91.5l10 29q41 10 93 10.5
t91 -10.5q6 -42 10.5 -68t22.5 -92t42.5 -117.5t71.5 -118.5t108 -121q58 105 74 224.5t7 275.5q61 43 194 17z" />
    <glyph glyph-name="z" unicode="z" horiz-adv-x="710" 
d="M673 169q19 -14 19.5 -74.5t-19.5 -94.5h-611q-21 16 -34 64t-10 85q83 125 154 208t180 163h-292q-19 21 -19.5 77t19.5 91h575q19 -15 31.5 -77t9.5 -101q-91 -36 -189.5 -124t-193.5 -217h380z" />
    <glyph glyph-name="braceleft" unicode="{" horiz-adv-x="525" 
d="M358 5q14 -119 84 -185l-90 -91q-110 76 -142 201q-11 39 -15.5 87.5t-4.5 85.5t-4.5 74.5t-14 61.5t-34 38.5t-64.5 14.5v168q48 -1 73.5 18t33.5 56.5t9 78.5t5.5 100.5t17.5 106.5q32 119 141 191l91 -86q-64 -59 -79 -170q-6 -37 -10.5 -133.5t-22.5 -153.5t-67 -93
q30 -28 48 -63t25.5 -75t10.5 -74t4.5 -81.5t4.5 -76.5z" />
    <glyph glyph-name="bar" unicode="|" horiz-adv-x="301" 
d="M73 -231v1243h155v-1243h-155z" />
    <glyph glyph-name="braceright" unicode="}" horiz-adv-x="525" 
d="M313 820q13 -47 17.5 -106.5t5.5 -100.5t9 -78.5t33.5 -56.5t73.5 -18v-168q-40 0 -64.5 -14.5t-34 -38.5t-14 -61.5t-4.5 -74.5t-4.5 -85.5t-15.5 -87.5q-34 -126 -143 -201l-89 91q69 65 83 185q4 30 6.5 95t6.5 103t24 87.5t56 84.5q-38 28 -58 75.5t-23.5 90t-7 109
t-10.5 105.5q-15 110 -80 170l92 86q109 -72 141 -191z" />
    <glyph glyph-name="asciitilde" unicode="~" horiz-adv-x="737" 
d="M73 275q0 99 46 166.5t125 67.5q53 0 122.5 -33t86.5 -33q23 0 39.5 16t16.5 50h155q0 -99 -45 -166.5t-125 -67.5q-43 0 -85 16.5t-76 33t-57 16.5q-21 0 -34.5 -17.5t-13.5 -48.5h-155z" />
    <glyph glyph-name="exclamdown" unicode="&#xa1;" horiz-adv-x="452" 
d="M225 597q-38 0 -68 30.5t-30 69.5t30 69t68 30q40 0 70 -30t30 -69t-30 -69.5t-70 -30.5zM134 -132l16 622h154l16 -622h-186z" />
    <glyph glyph-name="cent" unicode="&#xa2;" horiz-adv-x="891" 
d="M730 280l81 -129q-37 -27 -106.5 -55.5t-139.5 -39.5v-188h-140v187q-119 14 -200.5 74t-116.5 141t-35 180q0 156 99.5 262t252.5 129v185h140v-182q157 -15 253 -106l-88 -136q-31 32 -87.5 54t-133.5 22q-96 0 -163 -63.5t-67 -164.5q0 -98 55 -164.5t166 -66.5
q103 0 230 61z" />
    <glyph glyph-name="sterling" unicode="&#xa3;" horiz-adv-x="909" 
d="M330 166h506v-166h-750v166h11q39 0 60 38.5t20 96.5q0 21 -1 32h-103v165h79q-11 77 -11 128q0 119 88.5 189t242.5 70q207 0 360 -116l-96 -135q-109 82 -237 82q-82 0 -122.5 -35.5t-40.5 -94.5q0 -43 6 -88h321v-165h-304v-13q2 -90 -29 -154z" />
    <glyph glyph-name="currency" unicode="&#xa4;" horiz-adv-x="595" 
d="M461 450q0 -36 -11 -69l73 -68l-106 -119l-87 76q-16 -3 -34 -3q-22 0 -38 4l-79 -76l-106 118l69 71q-9 28 -9 66q0 37 9 67l-69 64l106 118l80 -69q16 4 37 4q23 0 39 -4l81 70l107 -118l-71 -65q9 -32 9 -67zM296 518q-24 0 -38 -21t-14 -47q0 -31 14 -49.5t38 -18.5
q25 0 40 21t15 47q0 29 -14.5 48.5t-40.5 19.5z" />
    <glyph glyph-name="yen" unicode="&#xa5;" horiz-adv-x="1070" 
d="M998 884l-309 -413h153v-142h-208v-79h208v-142h-208v-108h-206v108h-217v142h217v79h-217v142h163l-301 413h259l203 -290l199 290h264z" />
    <glyph glyph-name="brokenbar" unicode="&#xa6;" horiz-adv-x="301" 
d="M73 481v531h155v-531h-155zM73 -231v534h155v-534h-155z" />
    <glyph glyph-name="section" unicode="&#xa7;" horiz-adv-x="687" 
d="M614 331q0 -114 -106 -174q59 -64 59 -150q0 -84 -71 -141t-189 -57q-37 0 -85.5 10.5t-80.5 28.5v169q29 -18 78.5 -29.5t87.5 -11.5q77 0 77 52q0 19 -32 45t-77.5 54.5t-91.5 63t-78 83.5t-32 102q0 45 29 90.5t77 81.5q-68 73 -68 166q0 96 70.5 156t189.5 60
q97 0 166 -37v-169q-30 17 -78 27.5t-88 10.5q-31 0 -48.5 -13t-17.5 -35q0 -28 32 -56t77 -55.5t90.5 -62t77.5 -88.5t32 -121zM271 369q-2 -29 23 -52.5t79 -57.5q41 35 41 75q0 26 -24 49.5t-75 57.5q-40 -35 -44 -72z" />
    <glyph glyph-name="dieresis" unicode="&#xa8;" horiz-adv-x="702" 
d="M158 767q-44 0 -77.5 33.5t-33.5 78.5q0 43 33.5 76.5t77.5 33.5q43 0 77 -33.5t34 -76.5q0 -45 -33.5 -78.5t-77.5 -33.5zM545 767q-45 0 -78 33.5t-33 78.5q0 43 33 76.5t78 33.5q43 0 76.5 -33.5t33.5 -76.5q0 -45 -33.5 -78.5t-76.5 -33.5z" />
    <glyph glyph-name="copyright" unicode="&#xa9;" horiz-adv-x="1129" 
d="M564 -18q-213 0 -352 136t-139 334q0 200 140.5 338.5t350.5 138.5q214 0 353 -137.5t139 -339.5q0 -198 -139 -334t-353 -136zM564 112q147 0 247 92.5t100 244.5q0 158 -100 254t-247 96q-146 0 -246 -98.5t-100 -251.5q0 -151 98.5 -244t247.5 -93zM569 213
q-101 0 -171.5 70.5t-70.5 176.5q0 105 70 170t173 65q50 0 99 -18.5t77 -45.5l-73 -124q-32 32 -85 32q-38 0 -63.5 -25t-25.5 -62q0 -36 26.5 -60.5t69.5 -24.5q50 0 83 29l81 -116q-25 -27 -78 -47t-112 -20z" />
    <glyph glyph-name="ordfeminine" unicode="&#xaa;" horiz-adv-x="525" 
d="M338 1074h115v-404h-113v19q-43 -24 -97 -24q-73 0 -121.5 54t-48.5 144q0 93 51 151t125 58q49 0 89 -25v27zM269 766q41 0 70 38v115q-27 41 -69 41q-36 0 -57.5 -26.5t-21.5 -70.5q0 -46 22.5 -71.5t55.5 -25.5z" />
    <glyph glyph-name="guillemotleft" unicode="&#xab;" horiz-adv-x="1125" 
d="M608 670l-336 -230l336 -221l-52 -135l-483 297v120l478 301zM717 440l336 -221l-53 -135l-483 297v120l478 301l57 -132z" />
    <glyph glyph-name="logicalnot" unicode="&#xac;" horiz-adv-x="714" 
d="M468 217v142h-395v169h568v-311h-173z" />
    <glyph glyph-name="uni00AD" unicode="&#xad;" horiz-adv-x="1088" 
d="M188 290v158h712v-158h-712z" />
    <glyph glyph-name="registered" unicode="&#xae;" horiz-adv-x="832" 
d="M417 930q139 0 241 -95t102 -241q0 -147 -102 -240.5t-241 -93.5q-154 0 -249 93t-95 241q0 144 100 240t244 96zM417 345q104 0 175 65t71 185q0 118 -71.5 184t-174.5 66q-105 0 -176 -70t-71 -180q0 -113 67.5 -181.5t179.5 -68.5zM579 657q0 -38 -22 -66.5t-57 -43.5
l64 -122h-104l-57 109h-32v-109h-95v351h163q59 0 99.5 -34t40.5 -85zM371 703v-97h55q22 0 37 14t15 37q0 20 -14.5 33t-37.5 13h-55z" />
    <glyph glyph-name="macron" unicode="&#xaf;" horiz-adv-x="606" 
d="M47 795v166h512v-166h-512z" />
    <glyph glyph-name="degree" unicode="&#xb0;" horiz-adv-x="543" 
d="M272 528q-95 0 -147 53.5t-52 147.5q0 90 50.5 145.5t148.5 55.5q99 0 149 -54.5t50 -146.5q0 -91 -53.5 -146t-145.5 -55zM270 628q40 0 60.5 27.5t20.5 72.5q0 102 -81 102q-39 0 -61 -26.5t-22 -75.5q0 -47 23 -73.5t60 -26.5z" />
    <glyph glyph-name="plusminus" unicode="&#xb1;" horiz-adv-x="714" 
d="M444 606h197v-169h-197v-198h-174v198h-197v169h197v229h174v-229zM73 14v168h568v-168h-568z" />
    <glyph glyph-name="uni00B2" unicode="&#xb2;" horiz-adv-x="815" 
d="M321 418h422v-158h-649v139q36 60 98 114t122.5 90.5t117.5 70.5t92 70t35 74q0 42 -36 69t-117 27q-140 0 -234 -81l-94 106q47 57 137.5 92t209.5 35q146 0 231 -70.5t85 -173.5q0 -65 -27 -114.5t-75 -85t-98.5 -63.5t-114 -65.5t-105.5 -75.5z" />
    <glyph glyph-name="uni00B3" unicode="&#xb3;" horiz-adv-x="819" 
d="M747 495q0 -46 -19.5 -87.5t-59.5 -76.5t-110 -55.5t-161 -20.5q-90 0 -176 30.5t-142 73.5l69 135q112 -81 256 -81q83 0 128 24.5t45 60.5q0 100 -329 106v140q309 0 309 90q0 34 -50.5 54.5t-132.5 20.5q-76 0 -142 -22t-89 -42l-67 127q53 35 142.5 62.5t184.5 27.5
q159 0 242 -61t83 -153q0 -112 -147 -171q90 -28 127.5 -74t38.5 -108z" />
    <glyph glyph-name="acute" unicode="&#xb4;" horiz-adv-x="397" 
d="M47 775l106 250h196l-197 -250h-105z" />
    <glyph glyph-name="uni00B5" unicode="&#xb5;" horiz-adv-x="759" 
d="M695 254q0 -156 28 -231l-1 -23h-172q-33 22 -33 65v31q-31 -52 -82 -83t-110 -31q-58 0 -100 36v-286h-178v956q45 10 102 9t101 -9v-355q0 -97 25 -139.5t79 -42.5q68 0 103 72.5t35 199.5v265q38 9 110.5 7t92.5 -7v-434z" />
    <glyph glyph-name="paragraph" unicode="&#xb6;" horiz-adv-x="774" 
d="M212 -132v697q-65 1 -102 48t-37 117q0 67 36.5 113.5t102.5 46.5h489v-138h-127v-884h-150v884h-62v-884h-150z" />
    <glyph glyph-name="periodcentered" unicode="&#xb7;" horiz-adv-x="613" 
d="M307 291q-45 0 -78 33.5t-33 77.5t33 77.5t78 33.5q43 0 76.5 -34t33.5 -77q0 -44 -33.5 -77.5t-76.5 -33.5z" />
    <glyph glyph-name="cedilla" unicode="&#xb8;" horiz-adv-x="401" 
d="M197 -355q-83 -2 -150 75l100 99q15 -22 31 -22q10 0 17 8.5t7 21.5q0 7 -1.5 13t-6 15t-6.5 12.5t-10 15.5t-9 14q-37 55 -45 82q-5 20 -5 42h156q0 -17 5 -33.5t9.5 -25t18.5 -29.5t19 -29q27 -46 27 -98q0 -64 -46 -112t-111 -49z" />
    <glyph glyph-name="uni00B9" unicode="&#xb9;" horiz-adv-x="652" 
d="M434 418h145v-158h-487v158h165v486l-150 -39l-32 131l250 65h109v-643z" />
    <glyph glyph-name="ordmasculine" unicode="&#xba;" horiz-adv-x="538" 
d="M270 666q-77 0 -137 52.5t-60 144.5q0 96 56.5 152t140.5 56q83 0 139.5 -56t56.5 -152q0 -92 -59.5 -144.5t-136.5 -52.5zM270 767q30 0 53.5 24.5t23.5 71.5q0 46 -21.5 71t-55.5 25q-35 0 -57 -25t-22 -71q0 -47 24.5 -71.5t54.5 -24.5z" />
    <glyph glyph-name="guillemotright" unicode="&#xbb;" horiz-adv-x="1125" 
d="M608 501v-120l-483 -297l-52 135l336 221l-336 230l57 132zM575 802l478 -301v-120l-483 -297l-53 135l336 221l-336 230z" />
    <glyph glyph-name="onequarter" unicode="&#xbc;" horiz-adv-x="1167" 
d="M73 442v158h84v274l-72 -34l-1 168l124 53h115v-461h78v-158h-328zM929 1061h165l-803 -1193h-165zM987 487v-372h56v-158h-56v-89h-150v89h-206v132l204 398h152zM870 115l7 216l-99 -216h92z" />
    <glyph glyph-name="onehalf" unicode="&#xbd;" horiz-adv-x="1174" 
d="M73 442v158h84v274l-72 -34l-1 168l124 53h115v-461h78v-158h-328zM933 1061h165l-804 -1193h-164zM1034 329q0 -46 -16 -90t-34.5 -71t-51.5 -70t-48 -65h157v-165h-328v153q25 48 66 105.5t64 94.5t23 62q0 18 -11.5 30t-29.5 12q-39 0 -98 -58v149q71 70 149 70
q67 0 112.5 -47t45.5 -110z" />
    <glyph glyph-name="threequarters" unicode="&#xbe;" horiz-adv-x="1134" 
d="M404 625q0 -66 -42 -117t-123 -51q-41 0 -87 21.5t-76 54.5v132q68 -57 130 -57q25 0 41.5 15t17.5 36q-1 29 -32.5 46.5t-76.5 22.5v99q42 5 66 21.5t24 42.5q0 17 -11.5 29t-29.5 12q-51 0 -116 -44v120q66 58 151 58q65 0 103.5 -41t38.5 -106q0 -89 -82 -141
q104 -55 104 -153zM896 1061h165l-804 -1193h-164zM981 487v-372h56v-158h-56v-89h-150v89h-206v132l204 398h152zM864 115l7 209l-99 -209h92z" />
    <glyph glyph-name="questiondown" unicode="&#xbf;" horiz-adv-x="864" 
d="M453 700q39 0 69.5 -30t30.5 -69q0 -38 -31 -68.5t-69 -30.5q-39 0 -68 30t-29 69t29 69t68 30zM514 417q18 -82 4.5 -130t-49 -85t-73 -59t-66.5 -52t-29 -64q0 -36 33 -63.5t105 -27.5q55 0 105 16.5t78.5 34.5t66.5 48l116 -112q-72 -69 -172 -111t-201 -42
q-164 0 -254 68.5t-90 173.5q0 48 19 88t49 66t66 49t70.5 43.5t61.5 42t40.5 51t6.5 65.5h113z" />
    <glyph glyph-name="Agrave" unicode="&#xc0;" horiz-adv-x="917" 
d="M511 970h-121l-220 187h181zM539 906q23 -54 106 -270t155 -388t106 -218l-13 -30q-159 -5 -218 23q-19 25 -65 159h-325l-55 -182h-219l336 906q36 13 98 12.5t94 -12.5zM335 348h221q-3 9 -47 149t-66 209z" />
    <glyph glyph-name="Aacute" unicode="&#xc1;" horiz-adv-x="917" 
d="M710 1156l-218 -188h-121l158 188h181zM539 906q23 -54 106 -270t155 -388t106 -218l-13 -30q-159 -5 -218 23q-19 25 -65 159h-325l-55 -182h-219l336 906q36 13 98 12.5t94 -12.5zM335 348h221q-3 9 -47 149t-66 209z" />
    <glyph glyph-name="Acircumflex" unicode="&#xc2;" horiz-adv-x="917" 
d="M442 1064l-94 -97h-143l190 223h95l188 -223h-141zM539 906q23 -54 106 -270t155 -388t106 -218l-13 -30q-159 -5 -218 23q-19 25 -65 159h-325l-55 -182h-219l336 906q36 13 98 12.5t94 -12.5zM335 348h221q-3 9 -47 149t-66 209z" />
    <glyph glyph-name="Atilde" unicode="&#xc3;" horiz-adv-x="917" 
d="M377 1023q-38 0 -38 -65h-115q0 86 34 144t93 58q40 0 91 -35t68 -35t29 16t12 50l116 -1q0 -85 -34 -143.5t-94 -58.5q-32 0 -64 17.5t-57 35t-41 17.5zM539 906q23 -54 106 -270t155 -388t106 -218l-13 -30q-159 -5 -218 23q-19 25 -65 159h-325l-55 -182h-219l336 906
q36 13 98 12.5t94 -12.5zM335 348h221q-3 9 -47 149t-66 209z" />
    <glyph glyph-name="Adieresis" unicode="&#xc4;" horiz-adv-x="917" 
d="M311 985q-35 0 -60.5 25.5t-25.5 60.5q0 34 26 60t60 26t60 -26t26 -60t-26 -60t-60 -26zM586 985q-34 0 -60 25.5t-26 60.5q0 34 26 60t60 26q33 0 59 -26t26 -60t-26 -60t-59 -26zM539 906q23 -54 106 -270t155 -388t106 -218l-13 -30q-159 -5 -218 23q-19 25 -65 159
h-325l-55 -182h-219l336 906q36 13 98 12.5t94 -12.5zM335 348h221q-3 9 -47 149t-66 209z" />
    <glyph glyph-name="Aring" unicode="&#xc5;" horiz-adv-x="917" 
d="M541 902q21 -51 105.5 -270t155 -387.5t104.5 -214.5l-13 -30q-159 -5 -218 23q-19 25 -65 159h-325l-55 -182h-219l335 903q-91 41 -91 135q0 66 51 110t143 44q91 0 139.5 -43t48.5 -111q0 -45 -25.5 -81t-70.5 -55zM446 1104q-37 0 -58.5 -18.5t-21.5 -47.5
t22.5 -47.5t57.5 -18.5t57.5 19t22.5 47q0 30 -21 48t-59 18zM335 348h221q-3 9 -47 149t-66 209z" />
    <glyph glyph-name="AE" unicode="&#xc6;" horiz-adv-x="1339" 
d="M1295 166q18 -22 18.5 -78t-18.5 -88h-619v182h-293l-116 -182h-256l639 906h627q11 -37 -1.5 -89t-31.5 -77h-362v-213h333q10 -38 -2 -92.5t-31 -72.5h-300v-196h413zM489 347l187 -1v295z" />
    <glyph glyph-name="Ccedilla" unicode="&#xc7;" horiz-adv-x="859" 
d="M817 579q-141 -30 -208 -13q11 82 -26 136.5t-105 54.5q-100 0 -169.5 -92t-69.5 -222q0 -128 63.5 -211t175.5 -84q125 0 232 79q41 -16 66 -58t30 -80q-69 -55 -158.5 -84t-167.5 -30q7 -17 35.5 -46t40.5 -48q27 -46 27 -97q0 -65 -46 -113t-111 -49q-83 -2 -150 75
l91 97q28 -35 57 -35q13 0 22 10.5t9 26.5q0 21 -28.5 49.5t-34.5 38.5q-36 51 -37 106q-147 38 -238 160.5t-91 305.5q0 199 128 336.5t322 137.5q170 0 261.5 -94.5t79.5 -256.5z" />
    <glyph glyph-name="Egrave" unicode="&#xc8;" horiz-adv-x="753" 
d="M451 970h-121l-220 187h181zM710 166q18 -22 18.5 -78t-18.5 -88h-659v885l20 21h620q11 -37 -1.5 -89.5t-31.5 -76.5h-401v-213h373q9 -39 -3 -93.5t-31 -71.5h-339v-196h453z" />
    <glyph glyph-name="Eacute" unicode="&#xc9;" horiz-adv-x="753" 
d="M649 1156l-218 -188h-121l158 188h181zM710 166q18 -22 18.5 -78t-18.5 -88h-659v885l20 21h620q11 -37 -1.5 -89.5t-31.5 -76.5h-401v-213h373q9 -39 -3 -93.5t-31 -71.5h-339v-196h453z" />
    <glyph glyph-name="Ecircumflex" unicode="&#xca;" horiz-adv-x="753" 
d="M382 1064l-94 -97h-143l190 223h95l188 -223h-141zM710 166q18 -22 18.5 -78t-18.5 -88h-659v885l20 21h620q11 -37 -1.5 -89.5t-31.5 -76.5h-401v-213h373q9 -39 -3 -93.5t-31 -71.5h-339v-196h453z" />
    <glyph glyph-name="Edieresis" unicode="&#xcb;" horiz-adv-x="753" 
d="M251 985q-35 0 -60.5 25.5t-25.5 60.5q0 34 26 60t60 26t60 -26t26 -60t-26 -60t-60 -26zM526 985q-34 0 -60 25.5t-26 60.5q0 34 26 60t60 26q33 0 59 -26t26 -60t-26 -60t-59 -26zM710 166q18 -22 18.5 -78t-18.5 -88h-659v885l20 21h620q11 -37 -1.5 -89.5
t-31.5 -76.5h-401v-213h373q9 -39 -3 -93.5t-31 -71.5h-339v-196h453z" />
    <glyph glyph-name="Igrave" unicode="&#xcc;" horiz-adv-x="293" 
d="M91 970l-220 187h181l160 -187h-121zM51 0v906q36 13 99 11t92 -11v-906h-191z" />
    <glyph glyph-name="Iacute" unicode="&#xcd;" horiz-adv-x="293" 
d="M71 968l158 188h181l-218 -188h-121zM51 0v906q36 13 99 11t92 -11v-906h-191z" />
    <glyph glyph-name="Icircumflex" unicode="&#xce;" horiz-adv-x="293" 
d="M238 967l-95 97l-94 -97h-143l190 223h95l188 -223h-141zM51 906q36 13 99 11t92 -11v-906h-191v906z" />
    <glyph glyph-name="Idieresis" unicode="&#xcf;" horiz-adv-x="293" 
d="M12 985q-34 0 -60 25.5t-26 60.5q0 34 26 60t60 26t60 -26t26 -60t-26 -60t-60 -26zM287 985q-35 0 -60.5 25.5t-25.5 60.5q0 34 26 60t60 26q33 0 59 -26t26 -60t-26 -60t-59 -26zM51 0v906q36 13 99 11t92 -11v-906h-191z" />
    <glyph glyph-name="Eth" unicode="&#xd0;" horiz-adv-x="898" 
d="M405 930q223 0 345.5 -126.5t122.5 -337.5q0 -224 -118.5 -354.5t-333.5 -130.5q-99 0 -167.5 9.5t-147.5 35.5v361h-69v158h69v343q133 42 299 42zM659 461q1 139 -66.5 221.5t-191.5 82.5q-44 0 -89 -5v-215h144v-158h-144v-232q51 -8 109 -8q118 0 178 84t60 230z" />
    <glyph glyph-name="Ntilde" unicode="&#xd1;" horiz-adv-x="893" 
d="M378 1023q-38 0 -38 -65h-115q0 86 34 144t93 58q40 0 91 -35t68 -35t29 16t12 50l116 -1q0 -85 -34 -143.5t-94 -58.5q-32 0 -64 17.5t-57 35t-41 17.5zM636 906q36 13 106.5 10.5t99.5 -10.5v-906h-143l-442 542v-542h-206v869q17 23 68.5 38t74.5 6l442 -556v549z" />
    <glyph glyph-name="Ograve" unicode="&#xd2;" horiz-adv-x="885" 
d="M411 985l-220 187h181l160 -187h-121zM408 -18q-112 0 -200.5 58.5t-135 156t-46.5 214.5q0 141 56 259t160.5 189t236.5 71q108 0 195.5 -60.5t135.5 -161.5t49 -221q1 -132 -54.5 -247t-160.5 -186.5t-236 -71.5zM416 155q100 0 164.5 105.5t64.5 240.5
q1 114 -48 184.5t-134 70.5q-101 0 -162.5 -101.5t-61.5 -247.5q1 -108 46 -180t131 -72z" />
    <glyph glyph-name="Oacute" unicode="&#xd3;" horiz-adv-x="885" 
d="M392 982l158 188h181l-218 -188h-121zM408 -18q-112 0 -200.5 58.5t-135 156t-46.5 214.5q0 141 56 259t160.5 189t236.5 71q108 0 195.5 -60.5t135.5 -161.5t49 -221q1 -132 -54.5 -247t-160.5 -186.5t-236 -71.5zM416 155q100 0 164.5 105.5t64.5 240.5
q1 114 -48 184.5t-134 70.5q-101 0 -162.5 -101.5t-61.5 -247.5q1 -108 46 -180t131 -72z" />
    <glyph glyph-name="Ocircumflex" unicode="&#xd4;" horiz-adv-x="885" 
d="M464 1078l-94 -97h-143l190 223h95l188 -223h-141zM859 487q1 -132 -54.5 -247t-160.5 -186.5t-236 -71.5q-112 0 -200.5 58.5t-135 156t-46.5 214.5q0 141 56 259t160.5 189t236.5 71q108 0 195.5 -60.5t135.5 -161.5t49 -221zM645 501q1 114 -48 184.5t-134 70.5
q-101 0 -162.5 -101.5t-61.5 -247.5q1 -108 46 -180t131 -72q100 0 164.5 105.5t64.5 240.5z" />
    <glyph glyph-name="Otilde" unicode="&#xd5;" horiz-adv-x="885" 
d="M560 967q-32 0 -64 17.5t-57 35t-41 17.5q-38 0 -38 -65h-115q0 86 34 144t93 58q40 0 91 -35t68 -35t29 16t12 50l116 -1q0 -85 -34 -143.5t-94 -58.5zM408 -18q-112 0 -200.5 58.5t-135 156t-46.5 214.5q0 141 56 259t160.5 189t236.5 71q108 0 195.5 -60.5
t135.5 -161.5t49 -221q1 -132 -54.5 -247t-160.5 -186.5t-236 -71.5zM416 155q100 0 164.5 105.5t64.5 240.5q1 114 -48 184.5t-134 70.5q-101 0 -162.5 -101.5t-61.5 -247.5q1 -108 46 -180t131 -72z" />
    <glyph glyph-name="Odieresis" unicode="&#xd6;" horiz-adv-x="885" 
d="M333 999q-35 0 -60.5 25.5t-25.5 60.5q0 34 26 60t60 26t60 -26t26 -60t-26 -60t-60 -26zM608 999q-34 0 -60 25.5t-26 60.5q0 34 26 60t60 26q33 0 59 -26t26 -60t-26 -60t-59 -26zM408 -18q-112 0 -200.5 58.5t-135 156t-46.5 214.5q0 141 56 259t160.5 189t236.5 71
q108 0 195.5 -60.5t135.5 -161.5t49 -221q1 -132 -54.5 -247t-160.5 -186.5t-236 -71.5zM416 155q100 0 164.5 105.5t64.5 240.5q1 114 -48 184.5t-134 70.5q-101 0 -162.5 -101.5t-61.5 -247.5q1 -108 46 -180t131 -72z" />
    <glyph glyph-name="multiply" unicode="&#xd7;" horiz-adv-x="857" 
d="M784 616l-235 -206l235 -207h-241l-115 101l-115 -101h-240l235 207l-235 206h240l115 -101l115 101h241z" />
    <glyph glyph-name="Oslash" unicode="&#xd8;" horiz-adv-x="1009" 
d="M848 751q71 -115 73 -264q2 -132 -54 -247t-161 -186.5t-236 -71.5q-120 0 -216 69l-43 -51h-175l126 149q-74 113 -74 262q0 141 56 259t161 189t237 71q122 0 216 -77l32 38h176zM302 407q0 -41 8 -83l328 387q-45 45 -113 45q-101 0 -162.5 -101.5t-60.5 -247.5z
M708 501q0 42 -6 78l-327 -385q42 -39 104 -39q67 0 120 51.5t80.5 130t28.5 164.5z" />
    <glyph glyph-name="Ugrave" unicode="&#xd9;" horiz-adv-x="891" 
d="M390 975l-220 187h181l160 -187h-121zM439 -25q-194 0 -291 109.5t-97 315.5v506q34 11 107 9.5t99 -9.5v-514q0 -114 46 -179t136 -65q95 0 145 69.5t50 186.5v502q36 12 106.5 10t99.5 -10v-504q0 -194 -103.5 -310.5t-297.5 -116.5z" />
    <glyph glyph-name="Uacute" unicode="&#xda;" horiz-adv-x="891" 
d="M370 972l158 188h181l-218 -188h-121zM439 -25q-194 0 -291 109.5t-97 315.5v506q34 11 107 9.5t99 -9.5v-514q0 -114 46 -179t136 -65q95 0 145 69.5t50 186.5v502q36 12 106.5 10t99.5 -10v-504q0 -194 -103.5 -310.5t-297.5 -116.5z" />
    <glyph glyph-name="Ucircumflex" unicode="&#xdb;" horiz-adv-x="891" 
d="M442 1068l-94 -97h-143l190 223h95l188 -223h-141zM634 906q36 12 106.5 10t99.5 -10v-504q0 -194 -103.5 -310.5t-297.5 -116.5t-291 109.5t-97 315.5v506q34 11 107 9.5t99 -9.5v-514q0 -114 46 -179t136 -65q95 0 145 69.5t50 186.5v502z" />
    <glyph glyph-name="Udieresis" unicode="&#xdc;" horiz-adv-x="891" 
d="M311 989q-35 0 -60.5 25.5t-25.5 60.5q0 34 26 60t60 26t60 -26t26 -60t-26 -60t-60 -26zM586 989q-34 0 -60 25.5t-26 60.5q0 34 26 60t60 26q33 0 59 -26t26 -60t-26 -60t-59 -26zM439 -25q-194 0 -291 109.5t-97 315.5v506q34 11 107 9.5t99 -9.5v-514q0 -114 46 -179
t136 -65q95 0 145 69.5t50 186.5v502q36 12 106.5 10t99.5 -10v-504q0 -194 -103.5 -310.5t-297.5 -116.5z" />
    <glyph glyph-name="Yacute" unicode="&#xdd;" horiz-adv-x="848" 
d="M688 1156l-218 -188h-121l158 188h181zM825 906q46 -293 -262 -589v-317h-206v335q-67 116 -174.5 288t-167.5 249l13 34q46 9 108 10t108 -10q40 -42 123.5 -182.5t121.5 -225.5q72 79 106 200.5t27 191.5q68 42 203 16z" />
    <glyph glyph-name="Thorn" unicode="&#xde;" horiz-adv-x="797" 
d="M378 826q183 0 288.5 -95.5t104.5 -267.5q0 -170 -109.5 -271.5t-289.5 -101.5q-60 0 -115 10v-100h-206v924q38 13 107.5 11t98.5 -11v-104q49 6 121 6zM382 255q84 0 131 57t45 153q-2 97 -46 146.5t-140 49.5q-61 0 -115 -9v-387q53 -10 125 -10z" />
    <glyph glyph-name="germandbls" unicode="&#xdf;" horiz-adv-x="776" 
d="M751 297q7 -147 -68.5 -230.5t-189.5 -85.5q-103 -2 -193 66q-5 38 7 79.5t50 60.5q38 -32 78 -32q48 1 81 42t30 101q-2 49 -34.5 82.5t-90.5 33.5q-38 0 -100 -26q-20 23 -19 87t15 87q30 8 53 11q80 38 80 109q0 41 -25 67t-71 26q-52 0 -78 -39t-26 -94v-642h-203
v629q0 146 83 230.5t222 84.5q142 -1 222 -68t80 -168q0 -121 -107 -180q89 -19 144.5 -82t59.5 -149z" />
    <glyph glyph-name="agrave" unicode="&#xe0;" horiz-adv-x="712" 
d="M464 786h-130l-220 250h194zM657 270q0 -83 5 -135.5t10 -71t15 -43.5l-3 -20h-171q-28 21 -37 78q-96 -96 -233 -96q-86 0 -144.5 51.5t-57.5 128.5q1 108 103 186t256 90q16 1 47 1q-10 52 -35.5 80t-66.5 27q-77 0 -195 -72q-59 21 -72 133q154 105 291 107
q130 1 208 -85.5t79 -244.5zM451 303l2 11q-22 2 -45 0q-81 -4 -127.5 -38t-46.5 -75q0 -28 17.5 -46t46.5 -18q59 0 102 52.5t51 113.5z" />
    <glyph glyph-name="aacute" unicode="&#xe1;" horiz-adv-x="712" 
d="M605 1036l-181 -250h-121l106 250h196zM657 270q0 -83 5 -135.5t10 -71t15 -43.5l-3 -20h-171q-28 21 -37 78q-96 -96 -233 -96q-86 0 -144.5 51.5t-57.5 128.5q1 108 103 186t256 90q16 1 47 1q-10 52 -35.5 80t-66.5 27q-77 0 -195 -72q-59 21 -72 133q154 105 291 107
q130 1 208 -85.5t79 -244.5zM451 303l2 11q-22 2 -45 0q-81 -4 -127.5 -38t-46.5 -75q0 -28 17.5 -46t46.5 -18q59 0 102 52.5t51 113.5z" />
    <glyph glyph-name="acircumflex" unicode="&#xe2;" horiz-adv-x="712" 
d="M392 889l-94 -103h-143l190 243h95l188 -243h-142zM657 270q0 -83 5 -135.5t10 -71t15 -43.5l-3 -20h-171q-28 21 -37 78q-96 -96 -233 -96q-86 0 -144.5 51.5t-57.5 128.5q1 108 103 186t256 90q16 1 47 1q-10 52 -35.5 80t-66.5 27q-77 0 -195 -72q-59 21 -72 133
q154 105 291 107q130 1 208 -85.5t79 -244.5zM451 303l2 11q-22 2 -45 0q-81 -4 -127.5 -38t-46.5 -75q0 -28 17.5 -46t46.5 -18q59 0 102 52.5t51 113.5z" />
    <glyph glyph-name="atilde" unicode="&#xe3;" horiz-adv-x="712" 
d="M323 860q-38 0 -38 -65h-115q0 96 34 161t93 65q40 0 91 -35.5t68 -35.5t29 16t12 50h116q0 -95 -34 -160.5t-94 -65.5q-32 0 -64 17.5t-57 35t-41 17.5zM657 270q0 -83 5 -135.5t10 -71t15 -43.5l-3 -20h-171q-28 21 -37 78q-96 -96 -233 -96q-86 0 -144.5 51.5
t-57.5 128.5q1 108 103 186t256 90q16 1 47 1q-10 52 -35.5 80t-66.5 27q-77 0 -195 -72q-59 21 -72 133q154 105 291 107q130 1 208 -85.5t79 -244.5zM451 303l2 11q-22 2 -45 0q-81 -4 -127.5 -38t-46.5 -75q0 -28 17.5 -46t46.5 -18q59 0 102 52.5t51 113.5z" />
    <glyph glyph-name="adieresis" unicode="&#xe4;" horiz-adv-x="712" 
d="M237 778q-44 0 -77.5 33.5t-33.5 78.5q0 43 33.5 76.5t77.5 33.5q43 0 77 -33.5t34 -76.5q0 -45 -33.5 -78.5t-77.5 -33.5zM569 778q-44 0 -77.5 33.5t-33.5 78.5q0 43 33.5 76.5t77.5 33.5q43 0 77 -33.5t34 -76.5q0 -45 -33.5 -78.5t-77.5 -33.5zM657 270
q0 -83 5 -135.5t10 -71t15 -43.5l-3 -20h-171q-28 21 -37 78q-96 -96 -233 -96q-86 0 -144.5 51.5t-57.5 128.5q1 108 103 186t256 90q16 1 47 1q-10 52 -35.5 80t-66.5 27q-77 0 -195 -72q-59 21 -72 133q154 105 291 107q130 1 208 -85.5t79 -244.5zM451 303l2 11
q-22 2 -45 0q-81 -4 -127.5 -38t-46.5 -75q0 -28 17.5 -46t46.5 -18q59 0 102 52.5t51 113.5z" />
    <glyph glyph-name="aring" unicode="&#xe5;" horiz-adv-x="712" 
d="M394 765q-89 0 -141.5 42.5t-52.5 111.5q0 66 51 110t143 44q91 0 139.5 -43t48.5 -111q0 -66 -52.5 -110t-135.5 -44zM391 985q-37 0 -58.5 -18.5t-21.5 -47.5t22.5 -47.5t57.5 -18.5t57.5 19t22.5 47q0 30 -21 48t-59 18zM657 270q0 -83 5 -135.5t10 -71t15 -43.5
l-3 -20h-171q-28 21 -37 78q-96 -96 -233 -96q-86 0 -144.5 51.5t-57.5 128.5q1 108 103 186t256 90q16 1 47 1q-10 52 -35.5 80t-66.5 27q-77 0 -195 -72q-59 21 -72 133q154 105 291 107q130 1 208 -85.5t79 -244.5zM451 303l2 11q-22 2 -45 0q-81 -4 -127.5 -38
t-46.5 -75q0 -28 17.5 -46t46.5 -18q59 0 102 52.5t51 113.5z" />
    <glyph glyph-name="ae" unicode="&#xe6;" horiz-adv-x="1133" 
d="M804 714q149 0 235 -94.5t66 -251.5l-25 -35l-426 -93q42 -90 150 -88q94 2 186 80q29 -12 50.5 -44t28.5 -53t7 -26q-134 -127 -292 -127q-77 -1 -144.5 30.5t-113.5 89.5q-54 -59 -127.5 -91t-155.5 -29q-87 3 -145 53t-57 127q1 108 103 186t256 90q16 1 47 1
q-10 52 -35.5 80t-66.5 27q-77 0 -195 -72q-59 21 -72 133q154 105 291 107q128 2 199 -93q98 93 236 93zM915 426q5 53 -26 91.5t-85 38.5q-65 0 -112 -53.5t-55 -134.5zM450 303l3 11q-22 2 -45 0q-81 -4 -127.5 -38t-46.5 -75q0 -28 17.5 -46t46.5 -18q59 0 102 51.5
t50 114.5z" />
    <glyph glyph-name="ccedilla" unicode="&#xe7;" horiz-adv-x="688" 
d="M661 390q-130 -32 -195 -14q7 79 -20 124t-77 45q-59 0 -98.5 -59.5t-39.5 -150.5q0 -78 38.5 -130.5t99.5 -53.5q78 0 175 84q36 -12 62 -44t34 -58l7 -26q-117 -106 -255 -122q4 -22 36 -54t43 -51q27 -44 27 -97q0 -65 -46 -112.5t-111 -48.5q-83 -2 -150 74l91 97
q28 -35 57 -35q13 0 22 10.5t9 26.5q0 21 -28.5 49.5t-34.5 38.5q-36 53 -37 108q-109 27 -177.5 118t-68.5 230q0 156 103 265.5t253 109.5q138 0 216.5 -91.5t64.5 -232.5z" />
    <glyph glyph-name="egrave" unicode="&#xe8;" horiz-adv-x="704" 
d="M454 786h-130l-220 250h194zM376 714q149 0 235 -94.5t66 -251.5l-26 -35l-425 -93q20 -44 59.5 -67t90.5 -22q93 3 186 81q28 -12 49.5 -43.5t29 -53.5t7.5 -26q-134 -127 -292 -127q-90 -1 -164.5 39.5t-120.5 119.5t-47 183q-1 165 97.5 277.5t254.5 112.5zM486 433
q5 51 -25.5 87t-84.5 36q-64 0 -110 -51t-56 -129z" />
    <glyph glyph-name="eacute" unicode="&#xe9;" horiz-adv-x="704" 
d="M595 1036l-181 -250h-121l106 250h196zM376 714q149 0 235 -94.5t66 -251.5l-26 -35l-425 -93q20 -44 59.5 -67t90.5 -22q93 3 186 81q28 -12 49.5 -43.5t29 -53.5t7.5 -26q-134 -127 -292 -127q-90 -1 -164.5 39.5t-120.5 119.5t-47 183q-1 165 97.5 277.5t254.5 112.5z
M486 433q5 51 -25.5 87t-84.5 36q-64 0 -110 -51t-56 -129z" />
    <glyph glyph-name="ecircumflex" unicode="&#xea;" horiz-adv-x="704" 
d="M383 889l-94 -103h-143l190 243h95l188 -243h-142zM376 714q149 0 235 -94.5t66 -251.5l-26 -35l-425 -93q20 -44 59.5 -67t90.5 -22q93 3 186 81q28 -12 49.5 -43.5t29 -53.5t7.5 -26q-134 -127 -292 -127q-90 -1 -164.5 39.5t-120.5 119.5t-47 183q-1 165 97.5 277.5
t254.5 112.5zM486 433q5 51 -25.5 87t-84.5 36q-64 0 -110 -51t-56 -129z" />
    <glyph glyph-name="edieresis" unicode="&#xeb;" horiz-adv-x="704" 
d="M227 778q-44 0 -77.5 33.5t-33.5 78.5q0 43 33.5 76.5t77.5 33.5q43 0 77 -33.5t34 -76.5q0 -45 -33.5 -78.5t-77.5 -33.5zM559 778q-44 0 -77.5 33.5t-33.5 78.5q0 43 33.5 76.5t77.5 33.5q43 0 77 -33.5t34 -76.5q0 -45 -33.5 -78.5t-77.5 -33.5zM376 714
q149 0 235 -94.5t66 -251.5l-26 -35l-425 -93q20 -44 59.5 -67t90.5 -22q93 3 186 81q28 -12 49.5 -43.5t29 -53.5t7.5 -26q-134 -127 -292 -127q-90 -1 -164.5 39.5t-120.5 119.5t-47 183q-1 165 97.5 277.5t254.5 112.5zM486 433q5 51 -25.5 87t-84.5 36q-64 0 -110 -51
t-56 -129z" />
    <glyph glyph-name="igrave" unicode="&#xec;" horiz-adv-x="317" 
d="M101 786l-220 250h194l156 -250h-130zM57 0v688q33 10 104 10t99 -10v-688h-203z" />
    <glyph glyph-name="iacute" unicode="&#xed;" horiz-adv-x="317" 
d="M70 786l106 250h196l-181 -250h-121zM57 0v688q33 10 104 10t99 -10v-688h-203z" />
    <glyph glyph-name="icircumflex" unicode="&#xee;" horiz-adv-x="317" 
d="M159 889l-94 -103h-143l190 243h95l188 -243h-142zM57 688q33 10 104 10t99 -10v-688h-203v688z" />
    <glyph glyph-name="idieresis" unicode="&#xef;" horiz-adv-x="317" 
d="M4 778q-44 0 -77.5 33.5t-33.5 78.5q0 43 33.5 76.5t77.5 33.5q43 0 77 -33.5t34 -76.5q0 -45 -33.5 -78.5t-77.5 -33.5zM336 778q-44 0 -77.5 33.5t-33.5 78.5q0 43 33.5 76.5t77.5 33.5q43 0 77 -33.5t34 -76.5q0 -45 -33.5 -78.5t-77.5 -33.5zM57 0v688q33 10 104 10
t99 -10v-688h-203z" />
    <glyph glyph-name="eth" unicode="&#xf0;" horiz-adv-x="726" 
d="M510 771q89 -87 139.5 -192.5t51.5 -219.5q0 -74 -22 -141t-66 -123t-118 -89t-169 -33q-136 0 -219 89.5t-83 222.5q0 141 89 242.5t222 103.5q55 2 106 -21q-29 47 -76 89q-110 -47 -193 -73q-34 14 -56 46t-27 69q9 3 36 11.5t53.5 17.5t51.5 18q-40 21 -110 52
q3 31 28 63t66 48q100 -34 182 -90q69 40 78 75q43 13 97 4t86 -32q-14 -60 -147 -137zM338 139q46 0 82.5 38t55 91.5t18.5 108.5q-1 55 -27.5 87t-70.5 32q-72 0 -119.5 -65.5t-47.5 -150.5q0 -61 29 -101t80 -40z" />
    <glyph glyph-name="ntilde" unicode="&#xf1;" horiz-adv-x="762" 
d="M342 860q-38 0 -38 -65h-115q0 96 34 161t93 65q40 0 91 -35.5t68 -35.5t29 16t12 50h116q0 -95 -34 -160.5t-94 -65.5q-32 0 -64 17.5t-57 35t-41 17.5zM458 714q257 0 257 -342v-372h-203v347q0 198 -98 198q-58 0 -104.5 -73.5t-46.5 -166.5v-305h-203v498
q0 89 -13 162v28q106 22 189 14q8 -34 11 -72q87 84 211 84z" />
    <glyph glyph-name="ograve" unicode="&#xf2;" horiz-adv-x="748" 
d="M323 786l-220 250h194l156 -250h-130zM348 -18q-151 0 -237.5 97t-86.5 247q0 161 109 274.5t268 113.5q149 0 233.5 -92t88.5 -242q4 -176 -102.5 -287t-272.5 -111zM360 151q65 0 110.5 64t45.5 144q0 78 -34.5 132t-93.5 54q-65 0 -110.5 -65t-45.5 -155
q0 -75 33 -124.5t95 -49.5z" />
    <glyph glyph-name="oacute" unicode="&#xf3;" horiz-adv-x="748" 
d="M292 786l106 250h196l-181 -250h-121zM348 -18q-151 0 -237.5 97t-86.5 247q0 161 109 274.5t268 113.5q149 0 233.5 -92t88.5 -242q4 -176 -102.5 -287t-272.5 -111zM360 151q65 0 110.5 64t45.5 144q0 78 -34.5 132t-93.5 54q-65 0 -110.5 -65t-45.5 -155
q0 -75 33 -124.5t95 -49.5z" />
    <glyph glyph-name="ocircumflex" unicode="&#xf4;" horiz-adv-x="748" 
d="M381 889l-94 -103h-143l190 243h95l188 -243h-142zM723 380q4 -176 -102.5 -287t-272.5 -111q-151 0 -237.5 97t-86.5 247q0 161 109 274.5t268 113.5q149 0 233.5 -92t88.5 -242zM360 151q65 0 110.5 64t45.5 144q0 78 -34.5 132t-93.5 54q-65 0 -110.5 -65t-45.5 -155
q0 -75 33 -124.5t95 -49.5z" />
    <glyph glyph-name="otilde" unicode="&#xf5;" horiz-adv-x="748" 
d="M474 790q-32 0 -64 17.5t-57 35t-41 17.5q-38 0 -38 -65h-115q0 96 34 161t93 65q40 0 91 -35.5t68 -35.5t29 16t12 50h116q0 -95 -34 -160.5t-94 -65.5zM348 -18q-151 0 -237.5 97t-86.5 247q0 161 109 274.5t268 113.5q149 0 233.5 -92t88.5 -242q4 -176 -102.5 -287
t-272.5 -111zM360 151q65 0 110.5 64t45.5 144q0 78 -34.5 132t-93.5 54q-65 0 -110.5 -65t-45.5 -155q0 -75 33 -124.5t95 -49.5z" />
    <glyph glyph-name="odieresis" unicode="&#xf6;" horiz-adv-x="748" 
d="M226 778q-44 0 -77.5 33.5t-33.5 78.5q0 43 33.5 76.5t77.5 33.5q43 0 77 -33.5t34 -76.5q0 -45 -33.5 -78.5t-77.5 -33.5zM558 778q-44 0 -77.5 33.5t-33.5 78.5q0 43 33.5 76.5t77.5 33.5q43 0 77 -33.5t34 -76.5q0 -45 -33.5 -78.5t-77.5 -33.5zM348 -18
q-151 0 -237.5 97t-86.5 247q0 161 109 274.5t268 113.5q149 0 233.5 -92t88.5 -242q4 -176 -102.5 -287t-272.5 -111zM360 151q65 0 110.5 64t45.5 144q0 78 -34.5 132t-93.5 54q-65 0 -110.5 -65t-45.5 -155q0 -75 33 -124.5t95 -49.5z" />
    <glyph glyph-name="divide" unicode="&#xf7;" horiz-adv-x="714" 
d="M363 585q-46 0 -78 32.5t-32 79.5q0 46 32 78.5t78 32.5q45 0 77.5 -33t32.5 -78q0 -47 -32.5 -79.5t-77.5 -32.5zM73 362v168h568v-168h-568zM363 79q-46 0 -78 32.5t-32 79.5q0 46 32 78.5t78 32.5q45 0 77.5 -33t32.5 -78q0 -47 -32 -79.5t-78 -32.5z" />
    <glyph glyph-name="oslash" unicode="&#xf8;" horiz-adv-x="771" 
d="M743 688v-19l-68 -74q62 -86 65 -215q4 -176 -102.5 -287t-272.5 -111q-117 0 -198 61l-39 -43h-98v20l77 86q-65 89 -65 220q0 161 108.5 274.5t267.5 113.5q111 0 189 -53l24 27h112zM405 545q-65 0 -110.5 -65t-45.5 -155q0 -34 7 -61l186 206l17 26l18 20
q-31 29 -72 29zM377 151q65 0 110.5 64t45.5 144q0 43 -10 76l-207 -224l-18 -26l-1 -2q32 -32 80 -32z" />
    <glyph glyph-name="ugrave" unicode="&#xf9;" horiz-adv-x="759" 
d="M446 786h-130l-220 250h194zM695 254q0 -156 28 -231l-1 -23h-172q-30 27 -36 73q-85 -91 -204 -91q-118 0 -190.5 77.5t-72.5 238.5v390q45 10 102 9t101 -9v-355q0 -97 25 -139.5t79 -42.5q68 0 103 72.5t35 199.5v265q38 9 110.5 7t92.5 -7v-434z" />
    <glyph glyph-name="uacute" unicode="&#xfa;" horiz-adv-x="759" 
d="M587 1036l-181 -250h-121l106 250h196zM695 254q0 -156 28 -231l-1 -23h-172q-30 27 -36 73q-85 -91 -204 -91q-118 0 -190.5 77.5t-72.5 238.5v390q45 10 102 9t101 -9v-355q0 -97 25 -139.5t79 -42.5q68 0 103 72.5t35 199.5v265q38 9 110.5 7t92.5 -7v-434z" />
    <glyph glyph-name="ucircumflex" unicode="&#xfb;" horiz-adv-x="759" 
d="M375 889l-94 -103h-143l190 243h95l188 -243h-142zM695 254q0 -156 28 -231l-1 -23h-172q-30 27 -36 73q-85 -91 -204 -91q-118 0 -190.5 77.5t-72.5 238.5v390q45 10 102 9t101 -9v-355q0 -97 25 -139.5t79 -42.5q68 0 103 72.5t35 199.5v265q38 9 110.5 7t92.5 -7v-434
z" />
    <glyph glyph-name="udieresis" unicode="&#xfc;" horiz-adv-x="759" 
d="M220 778q-44 0 -77.5 33.5t-33.5 78.5q0 43 33.5 76.5t77.5 33.5q43 0 77 -33.5t34 -76.5q0 -45 -33.5 -78.5t-77.5 -33.5zM552 778q-44 0 -77.5 33.5t-33.5 78.5q0 43 33.5 76.5t77.5 33.5q43 0 77 -33.5t34 -76.5q0 -45 -33.5 -78.5t-77.5 -33.5zM695 254
q0 -156 28 -231l-1 -23h-172q-30 27 -36 73q-85 -91 -204 -91q-118 0 -190.5 77.5t-72.5 238.5v390q45 10 102 9t101 -9v-355q0 -97 25 -139.5t79 -42.5q68 0 103 72.5t35 199.5v265q38 9 110.5 7t92.5 -7v-434z" />
    <glyph glyph-name="yacute" unicode="&#xfd;" horiz-adv-x="765" 
d="M597 1037l-181 -250h-121l106 250h196zM738 688q13 -54 14.5 -121.5t-8 -142.5t-33.5 -155t-60 -155t-89.5 -146.5t-119.5 -126.5q-129 -107 -301 -109q-56 0 -88 17q-30 77 -2 145l33 20q31 -13 59 -13q87 -1 208 122q-79 57 -140 133.5t-95 143.5t-57.5 145
t-31.5 122.5t-13 91.5l10 29q41 10 93 10.5t91 -10.5q6 -42 10.5 -68t22.5 -92t42.5 -117.5t71.5 -118.5t108 -121q58 105 74 224.5t7 275.5q61 43 194 17z" />
    <glyph glyph-name="thorn" unicode="&#xfe;" horiz-adv-x="741" 
d="M424 714q139 0 216 -92t77 -246q0 -167 -86.5 -280.5t-222.5 -113.5q-95 0 -161 60l1 -299q-104 -19 -201 0v1192q34 11 103.5 11t99.5 -11v-307q31 38 77 62t97 24zM366 154q65 0 104.5 64.5t38.5 164.5q0 71 -29 116.5t-77 45.5q-67 0 -110 -84.5t-43 -188.5
q0 -40 35.5 -79t80.5 -39z" />
    <glyph glyph-name="ydieresis" unicode="&#xff;" horiz-adv-x="765" 
d="M229 779q-44 0 -77.5 33.5t-33.5 78.5q0 43 33.5 76.5t77.5 33.5q43 0 77 -33.5t34 -76.5q0 -45 -33.5 -78.5t-77.5 -33.5zM561 779q-44 0 -77.5 33.5t-33.5 78.5q0 43 33.5 76.5t77.5 33.5q43 0 77 -33.5t34 -76.5q0 -45 -33.5 -78.5t-77.5 -33.5zM738 688
q13 -54 14.5 -121.5t-8 -142.5t-33.5 -155t-60 -155t-89.5 -146.5t-119.5 -126.5q-129 -107 -301 -109q-56 0 -88 17q-30 77 -2 145l33 20q31 -13 59 -13q87 -1 208 122q-79 57 -140 133.5t-95 143.5t-57.5 145t-31.5 122.5t-13 91.5l10 29q41 10 93 10.5t91 -10.5
q6 -42 10.5 -68t22.5 -92t42.5 -117.5t71.5 -118.5t108 -121q58 105 74 224.5t7 275.5q61 43 194 17z" />
    <glyph glyph-name="Amacron" unicode="&#x100;" horiz-adv-x="917" 
d="M671 1121v-135h-450v135h450zM539 906q23 -54 106 -270t155 -388t106 -218l-13 -30q-159 -5 -218 23q-19 25 -65 159h-325l-55 -182h-219l336 906q36 13 98 12.5t94 -12.5zM335 348h221q-3 9 -47 149t-66 209z" />
    <glyph glyph-name="amacron" unicode="&#x101;" horiz-adv-x="712" 
d="M632 949v-143h-481v143h481zM657 270q0 -83 5 -135.5t10 -71t15 -43.5l-3 -20h-171q-28 21 -37 78q-96 -96 -233 -96q-86 0 -144.5 51.5t-57.5 128.5q1 108 103 186t256 90q16 1 47 1q-10 52 -35.5 80t-66.5 27q-77 0 -195 -72q-59 21 -72 133q154 105 291 107
q130 1 208 -85.5t79 -244.5zM451 303l2 11q-22 2 -45 0q-81 -4 -127.5 -38t-46.5 -75q0 -28 17.5 -46t46.5 -18q59 0 102 52.5t51 113.5z" />
    <glyph glyph-name="Abreve" unicode="&#x102;" horiz-adv-x="917" 
d="M444 939q-107 0 -172 52t-65 155h140q0 -40 26 -67t71 -27q48 0 74 28t26 66h140q0 -99 -67.5 -153t-172.5 -54zM539 906q23 -54 106 -270t155 -388t106 -218l-13 -30q-159 -5 -218 23q-19 25 -65 159h-325l-55 -182h-219l336 906q36 13 98 12.5t94 -12.5zM335 348h221
q-3 9 -47 149t-66 209z" />
    <glyph glyph-name="abreve" unicode="&#x103;" horiz-adv-x="712" 
d="M390 765q-109 0 -174.5 59.5t-65.5 177.5h140q0 -43 26.5 -71.5t73.5 -28.5q49 0 75 29.5t26 70.5h141q0 -114 -68 -175.5t-174 -61.5zM657 270q0 -83 5 -135.5t10 -71t15 -43.5l-3 -20h-171q-28 21 -37 78q-96 -96 -233 -96q-86 0 -144.5 51.5t-57.5 128.5
q1 108 103 186t256 90q16 1 47 1q-10 52 -35.5 80t-66.5 27q-77 0 -195 -72q-59 21 -72 133q154 105 291 107q130 1 208 -85.5t79 -244.5zM451 303l2 11q-22 2 -45 0q-81 -4 -127.5 -38t-46.5 -75q0 -28 17.5 -46t46.5 -18q59 0 102 52.5t51 113.5z" />
    <glyph glyph-name="Aogonek" unicode="&#x104;" horiz-adv-x="917" 
d="M739 -213q17 0 35.5 12t28.5 31l92 -76q-31 -49 -84 -82t-103 -33q-66 -2 -108 36.5t-42 112.5q0 54 30.5 124t81.5 118q-18 30 -60 152h-325l-55 -182h-219l336 906q36 13 98 12.5t94 -12.5q23 -54 106 -270t155 -388t106 -218l-13 -30q-56 -2 -106 2q-83 -109 -83 -178
q0 -19 10 -28.5t25 -8.5zM335 348h221q-3 9 -47 149t-66 209z" />
    <glyph glyph-name="aogonek" unicode="&#x105;" horiz-adv-x="712" 
d="M639 -189l92 -76q-31 -49 -84 -82t-103 -33q-66 -2 -108 36.5t-42 112.5q0 54 30 123t80 117q-22 26 -28 69q-96 -96 -233 -96q-86 0 -144.5 51.5t-57.5 128.5q1 108 103 186t256 90q16 1 47 1q-10 52 -35.5 80t-66.5 27q-77 0 -195 -72q-59 21 -72 133q154 105 291 107
q130 1 208 -85.5t79 -244.5l1 -114q0 -83 5 -135.5t10 -71t15 -43.5l-3 -20h-48q-96 -119 -96 -195q0 -19 10 -28.5t25 -8.5q17 0 35.5 12t28.5 31zM451 303l2 11q-22 2 -45 0q-81 -4 -127.5 -38t-46.5 -75q0 -28 17.5 -46t46.5 -18q59 0 102 52.5t51 113.5z" />
    <glyph glyph-name="Cacute" unicode="&#x106;" horiz-adv-x="859" 
d="M401 992l158 188h181l-218 -188h-121zM478 -25q-94 0 -176 33t-143.5 93.5t-97 152t-35.5 202.5q0 199 128 336.5t322 137.5q170 0 261.5 -94.5t79.5 -256.5q-141 -30 -208 -13q11 82 -26 136.5t-105 54.5q-100 0 -169.5 -92t-69.5 -222q0 -128 63.5 -211t175.5 -84
q125 0 232 79q41 -16 66 -58t30 -80q-70 -56 -160 -85t-168 -29z" />
    <glyph glyph-name="cacute" unicode="&#x107;" horiz-adv-x="688" 
d="M296 786l106 250h196l-181 -250h-121zM355 -18q-140 -2 -235.5 94.5t-95.5 262.5q0 156 103 265.5t253 109.5q138 0 216.5 -91.5t64.5 -232.5q-130 -32 -195 -14q7 79 -20 124t-77 45q-59 0 -98.5 -59.5t-39.5 -150.5q0 -78 38.5 -130.5t99.5 -53.5q78 0 175 84
q36 -12 62 -44t34 -58l7 -26q-135 -122 -292 -125z" />
    <glyph glyph-name="Cdotaccent" unicode="&#x10a;" horiz-adv-x="859" 
d="M476 1009q-34 0 -60 25.5t-26 60.5q0 34 26 60t60 26t60 -26t26 -60t-26 -60t-60 -26zM478 -25q-94 0 -176 33t-143.5 93.5t-97 152t-35.5 202.5q0 199 128 336.5t322 137.5q170 0 261.5 -94.5t79.5 -256.5q-141 -30 -208 -13q11 82 -26 136.5t-105 54.5
q-100 0 -169.5 -92t-69.5 -222q0 -128 63.5 -211t175.5 -84q125 0 232 79q41 -16 66 -58t30 -80q-70 -56 -160 -85t-168 -29z" />
    <glyph glyph-name="cdotaccent" unicode="&#x10b;" horiz-adv-x="688" 
d="M385 778q-44 0 -77.5 33.5t-33.5 78.5q0 43 33.5 76.5t77.5 33.5q43 0 77 -33.5t34 -76.5q0 -45 -33.5 -78.5t-77.5 -33.5zM355 -18q-140 -2 -235.5 94.5t-95.5 262.5q0 156 103 265.5t253 109.5q138 0 216.5 -91.5t64.5 -232.5q-130 -32 -195 -14q7 79 -20 124t-77 45
q-59 0 -98.5 -59.5t-39.5 -150.5q0 -78 38.5 -130.5t99.5 -53.5q78 0 175 84q36 -12 62 -44t34 -58l7 -26q-135 -122 -292 -125z" />
    <glyph glyph-name="Ccaron" unicode="&#x10c;" horiz-adv-x="859" 
d="M525 988h-95l-190 233h143l94 -101l94 101h142zM817 579q-141 -30 -208 -13q11 82 -26 136.5t-105 54.5q-100 0 -169.5 -92t-69.5 -222q0 -128 63.5 -211t175.5 -84q125 0 232 79q41 -16 66 -58t30 -80q-70 -56 -160 -85t-168 -29q-94 0 -176 33t-143.5 93.5t-97 152
t-35.5 202.5q0 199 128 336.5t322 137.5q170 0 261.5 -94.5t79.5 -256.5z" />
    <glyph glyph-name="ccaron" unicode="&#x10d;" horiz-adv-x="688" 
d="M434 786h-95l-190 243h143l94 -110l94 110h142zM661 390q-130 -32 -195 -14q7 79 -20 124t-77 45q-59 0 -98.5 -59.5t-39.5 -150.5q0 -78 38.5 -130.5t99.5 -53.5q78 0 175 84q36 -12 62 -44t34 -58l7 -26q-135 -122 -292 -125q-140 -2 -235.5 94.5t-95.5 262.5
q0 156 103 265.5t253 109.5q138 0 216.5 -91.5t64.5 -232.5z" />
    <glyph glyph-name="Dcaron" unicode="&#x10e;" horiz-adv-x="844" 
d="M398 988h-95l-190 233h143l94 -101l94 101h142zM350 930q224 0 346 -126.5t122 -337.5q0 -224 -118.5 -354.5t-333.5 -130.5q-99 0 -167.5 9.5t-147.5 35.5v862q133 42 299 42zM604 461q1 139 -66.5 221.5t-190.5 82.5q-43 0 -90 -5v-605q51 -8 110 -8q118 0 177.5 83.5
t59.5 230.5z" />
    <glyph glyph-name="dcaron" unicode="&#x10f;" horiz-adv-x="898" 
d="M863 1098h193l-64 -333h-145zM696 935v-746q0 -101 13 -165v-24h-172q-13 21 -26 67q-80 -85 -198 -85q-126 0 -207.5 99.5t-81.5 238.5q0 173 88 283.5t240 110.5q83 0 141 -61v282q30 11 99.5 11t103.5 -11zM361 154q57 0 94.5 78t37.5 207q0 45 -33.5 75.5t-75.5 30.5
q-65 0 -108 -55.5t-43 -145.5q0 -85 35 -137.5t93 -52.5z" />
    <glyph glyph-name="Dcroat" unicode="&#x110;" horiz-adv-x="898" 
d="M405 930q223 0 345.5 -126.5t122.5 -337.5q0 -224 -118.5 -354.5t-333.5 -130.5q-99 0 -167.5 9.5t-147.5 35.5v361h-69v158h69v343q133 42 299 42zM659 461q1 139 -66.5 221.5t-191.5 82.5q-44 0 -89 -5v-215h144v-158h-144v-232q51 -8 109 -8q118 0 178 84t60 230z" />
    <glyph glyph-name="dcroat" unicode="&#x111;" horiz-adv-x="770" 
d="M777 769h-81v-580q0 -101 13 -165v-24h-172q-13 21 -26 67q-80 -85 -198 -85q-126 0 -207.5 99.5t-81.5 238.5q0 173 88 283.5t240 110.5q83 0 141 -61v116h-177v104h177v62q30 11 99.5 11t103.5 -11v-62h81v-104zM361 154q57 0 94.5 78t37.5 207q0 45 -33.5 75.5
t-75.5 30.5q-65 0 -108 -55.5t-43 -145.5q0 -85 35 -137.5t93 -52.5z" />
    <glyph glyph-name="Emacron" unicode="&#x112;" horiz-adv-x="753" 
d="M611 1121v-135h-450v135h450zM710 166q18 -22 18.5 -78t-18.5 -88h-659v885l20 21h620q11 -37 -1.5 -89.5t-31.5 -76.5h-401v-213h373q9 -39 -3 -93.5t-31 -71.5h-339v-196h453z" />
    <glyph glyph-name="emacron" unicode="&#x113;" horiz-adv-x="704" 
d="M622 949v-143h-481v143h481zM376 714q149 0 235 -94.5t66 -251.5l-26 -35l-425 -93q20 -44 59.5 -67t90.5 -22q93 3 186 81q28 -12 49.5 -43.5t29 -53.5t7.5 -26q-134 -127 -292 -127q-90 -1 -164.5 39.5t-120.5 119.5t-47 183q-1 165 97.5 277.5t254.5 112.5zM486 433
q5 51 -25.5 87t-84.5 36q-64 0 -110 -51t-56 -129z" />
    <glyph glyph-name="Ebreve" unicode="&#x114;" horiz-adv-x="753" 
d="M384 939q-107 0 -172 52t-65 155h140q0 -40 26 -67t71 -27q48 0 73.5 28t25.5 66h141q0 -99 -67.5 -153t-172.5 -54zM710 166q18 -22 18.5 -78t-18.5 -88h-659v885l20 21h620q11 -37 -1.5 -89.5t-31.5 -76.5h-401v-213h373q9 -39 -3 -93.5t-31 -71.5h-339v-196h453z" />
    <glyph glyph-name="ebreve" unicode="&#x115;" horiz-adv-x="704" 
d="M381 765q-109 0 -174.5 59.5t-65.5 177.5h140q0 -43 26.5 -71.5t73.5 -28.5q49 0 75 29.5t26 70.5h141q0 -114 -68 -175.5t-174 -61.5zM376 714q149 0 235 -94.5t66 -251.5l-26 -35l-425 -93q20 -44 59.5 -67t90.5 -22q93 3 186 81q28 -12 49.5 -43.5t29 -53.5t7.5 -26
q-134 -127 -292 -127q-90 -1 -164.5 39.5t-120.5 119.5t-47 183q-1 165 97.5 277.5t254.5 112.5zM486 433q5 51 -25.5 87t-84.5 36q-64 0 -110 -51t-56 -129z" />
    <glyph glyph-name="Edotaccent" unicode="&#x116;" horiz-adv-x="753" 
d="M386 985q-34 0 -60 25.5t-26 60.5q0 34 26 60t60 26t60 -26t26 -60t-26 -60t-60 -26zM710 166q18 -22 18.5 -78t-18.5 -88h-659v885l20 21h620q11 -37 -1.5 -89.5t-31.5 -76.5h-401v-213h373q9 -39 -3 -93.5t-31 -71.5h-339v-196h453z" />
    <glyph glyph-name="edotaccent" unicode="&#x117;" horiz-adv-x="704" 
d="M382 778q-44 0 -77.5 33.5t-33.5 78.5q0 43 33.5 76.5t77.5 33.5q43 0 77 -33.5t34 -76.5q0 -45 -33.5 -78.5t-77.5 -33.5zM376 714q149 0 235 -94.5t66 -251.5l-26 -35l-425 -93q20 -44 59.5 -67t90.5 -22q93 3 186 81q28 -12 49.5 -43.5t29 -53.5t7.5 -26
q-134 -127 -292 -127q-90 -1 -164.5 39.5t-120.5 119.5t-47 183q-1 165 97.5 277.5t254.5 112.5zM486 433q5 51 -25.5 87t-84.5 36q-64 0 -110 -51t-56 -129z" />
    <glyph glyph-name="Eogonek" unicode="&#x118;" horiz-adv-x="753" 
d="M710 0h-242q-81 -105 -81 -175q0 -19 10 -28.5t25 -8.5q17 0 35.5 12t28.5 31l92 -76q-31 -49 -84 -82t-103 -33q-66 -2 -108 36.5t-42 112.5q0 46 22.5 104.5t61.5 106.5h-274v885l20 21h620q11 -37 -1.5 -89.5t-31.5 -76.5h-401v-213h373q9 -39 -3 -93.5t-31 -71.5
h-339v-196h453q18 -22 18.5 -78t-18.5 -88z" />
    <glyph glyph-name="eogonek" unicode="&#x119;" horiz-adv-x="704" 
d="M376 714q149 0 235 -94.5t66 -251.5l-26 -35l-425 -93q20 -44 59.5 -67t90.5 -22q93 3 186 81q28 -12 49.5 -43.5t29 -53.5t7.5 -26q-117 -110 -250 -124q-91 -115 -91 -189q0 -19 10 -28.5t25 -8.5q17 0 35.5 12t28.5 31l92 -76q-31 -49 -84 -82t-103 -33
q-66 -2 -108 36.5t-42 112.5q0 52 28 118.5t76 114.5q-106 28 -173 115.5t-68 215.5q-1 165 97.5 277.5t254.5 112.5zM486 433q5 51 -25.5 87t-84.5 36q-64 0 -110 -51t-56 -129z" />
    <glyph glyph-name="Ecaron" unicode="&#x11a;" horiz-adv-x="753" 
d="M434 963h-95l-190 233h143l94 -101l94 101h142zM710 166q18 -22 18.5 -78t-18.5 -88h-659v885l20 21h620q11 -37 -1.5 -89.5t-31.5 -76.5h-401v-213h373q9 -39 -3 -93.5t-31 -71.5h-339v-196h453z" />
    <glyph glyph-name="ecaron" unicode="&#x11b;" horiz-adv-x="704" 
d="M431 786h-95l-190 243h143l94 -110l94 110h142zM376 714q149 0 235 -94.5t66 -251.5l-26 -35l-425 -93q20 -44 59.5 -67t90.5 -22q93 3 186 81q28 -12 49.5 -43.5t29 -53.5t7.5 -26q-134 -127 -292 -127q-90 -1 -164.5 39.5t-120.5 119.5t-47 183q-1 165 97.5 277.5
t254.5 112.5zM486 433q5 51 -25.5 87t-84.5 36q-64 0 -110 -51t-56 -129z" />
    <glyph glyph-name="Gbreve" unicode="&#x11e;" horiz-adv-x="852" 
d="M451 964q-107 0 -172 52t-65 155h140q0 -40 26 -67t71 -27q48 0 74 28t26 66h140q0 -99 -67.5 -153t-172.5 -54zM457 757q-103 0 -160.5 -87t-57.5 -223q0 -130 60 -211t169 -81q79 0 144 23v142h-211q-9 38 3 93t29 72h354l23 -25v-371q-57 -51 -153.5 -79t-188.5 -28
q-191 0 -316.5 128t-125.5 346q0 126 49.5 233t148.5 174t229 67q158 0 260.5 -93t97.5 -229q-44 -11 -100 -16t-99 2q-9 79 -52 121t-103 42z" />
    <glyph glyph-name="gbreve" unicode="&#x11f;" horiz-adv-x="760" 
d="M375 765q-109 0 -174.5 59.5t-65.5 177.5h140q0 -43 26.5 -71.5t73.5 -28.5q49 0 75 29.5t26 70.5h141q0 -114 -68 -175.5t-174 -61.5zM536 703q69 7 177 -14v-26q-14 -86 -14 -177v-398q0 -177 -93 -279.5t-235 -104.5q-163 0 -317 113q17 110 79 148q131 -94 225 -92
q65 2 107.5 53t46.5 142q-72 -86 -170 -86q-139 0 -228.5 91.5t-89.5 246.5q0 174 90.5 283.5t237.5 109.5q95 0 168 -80zM362 154q57 0 93.5 76t37.5 216q-1 36 -34.5 67.5t-74.5 31.5q-72 0 -111.5 -60t-39.5 -145q0 -81 34.5 -133.5t94.5 -52.5z" />
    <glyph glyph-name="Gdotaccent" unicode="&#x120;" horiz-adv-x="852" 
d="M452 1009q-34 0 -60 25.5t-26 60.5q0 34 26 60t60 26t60 -26t26 -60t-26 -60t-60 -26zM457 757q-103 0 -160.5 -87t-57.5 -223q0 -130 60 -211t169 -81q79 0 144 23v142h-211q-9 38 3 93t29 72h354l23 -25v-371q-57 -51 -153.5 -79t-188.5 -28q-191 0 -316.5 128
t-125.5 346q0 126 49.5 233t148.5 174t229 67q158 0 260.5 -93t97.5 -229q-44 -11 -100 -16t-99 2q-9 79 -52 121t-103 42z" />
    <glyph glyph-name="gdotaccent" unicode="&#x121;" horiz-adv-x="760" 
d="M376 778q-44 0 -77.5 33.5t-33.5 78.5q0 43 33.5 76.5t77.5 33.5q43 0 77 -33.5t34 -76.5q0 -45 -33.5 -78.5t-77.5 -33.5zM536 703q69 7 177 -14v-26q-14 -86 -14 -177v-398q0 -177 -93 -279.5t-235 -104.5q-163 0 -317 113q17 110 79 148q131 -94 225 -92
q65 2 107.5 53t46.5 142q-72 -86 -170 -86q-139 0 -228.5 91.5t-89.5 246.5q0 174 90.5 283.5t237.5 109.5q95 0 168 -80zM362 154q57 0 93.5 76t37.5 216q-1 36 -34.5 67.5t-74.5 31.5q-72 0 -111.5 -60t-39.5 -145q0 -81 34.5 -133.5t94.5 -52.5z" />
    <glyph glyph-name="uni0122" unicode="&#x122;" horiz-adv-x="852" 
d="M457 757q-103 0 -160.5 -87t-57.5 -223q0 -130 60 -211t169 -81q79 0 144 23v142h-211q-9 38 3 93t29 72h354l23 -25v-371q-57 -51 -153.5 -79t-188.5 -28q-191 0 -316.5 128t-125.5 346q0 126 49.5 233t148.5 174t229 67q158 0 260.5 -93t97.5 -229q-44 -11 -100 -16
t-99 2q-9 79 -52 121t-103 42zM323 -311l38 232h156l-61 -232h-133z" />
    <glyph glyph-name="uni0123" unicode="&#x123;" horiz-adv-x="760" 
d="M507 1041l-62 -255h-155l84 255h133zM536 703q69 7 177 -14v-26q-14 -86 -14 -177v-398q0 -177 -93 -279.5t-235 -104.5q-163 0 -317 113q17 110 79 148q131 -94 225 -92q65 2 107.5 53t46.5 142q-72 -86 -170 -86q-139 0 -228.5 91.5t-89.5 246.5q0 174 90.5 283.5
t237.5 109.5q95 0 168 -80zM362 154q57 0 93.5 76t37.5 216q-1 36 -34.5 67.5t-74.5 31.5q-72 0 -111.5 -60t-39.5 -145q0 -81 34.5 -133.5t94.5 -52.5z" />
    <glyph glyph-name="Hcircumflex" unicode="&#x124;" horiz-adv-x="809" 
d="M401 1064l-94 -97h-143l190 223h95l188 -223h-141zM552 906q40 13 107 10.5t99 -10.5v-906h-206v331h-295v-331h-206v906q38 13 107 10.5t99 -10.5v-409h295v409z" />
    <glyph glyph-name="hcircumflex" unicode="&#x125;" horiz-adv-x="738" 
d="M397 1077l-94 -103h-143l190 243h95l188 -243h-142zM446 714q126 0 191.5 -89t65.5 -253v-372h-203v347q0 187 -98 187q-60 0 -106 -72t-46 -173v-289h-203v935q35 11 103.5 11t99.5 -11v-286q82 65 196 65z" />
    <glyph glyph-name="Hbar" unicode="&#x126;" horiz-adv-x="863" 
d="M823 769v-158h-40v-611h-206v331h-294v-331h-206v611h-37v158h37v137q38 13 107 10.5t99 -10.5v-137h294v137q41 12 107.5 10.5t98.5 -10.5v-137h40zM577 497v114h-294v-114h294z" />
    <glyph glyph-name="hbar" unicode="&#x127;" horiz-adv-x="732" 
d="M440 714q126 0 191.5 -89t65.5 -253v-372h-203v347q0 187 -98 187q-60 0 -106 -72t-46 -173v-289h-203v781h-65v101h65v53q35 11 103.5 11t99.5 -11v-53h249v-101h-249v-132q79 65 196 65z" />
    <glyph glyph-name="Imacron" unicode="&#x12a;" horiz-adv-x="293" 
d="M-24 986v135h340v-135h-340zM51 0v906q36 13 99 11t92 -11v-906h-191z" />
    <glyph glyph-name="imacron" unicode="&#x12b;" horiz-adv-x="317" 
d="M-71 806v143h459v-143h-459zM57 0v688q33 10 104 10t99 -10v-688h-203z" />
    <glyph glyph-name="Iogonek" unicode="&#x12e;" horiz-adv-x="293" 
d="M209 -155l92 -76q-31 -49 -84 -82t-103 -33q-66 -2 -108 36.5t-42 112.5q0 47 23.5 107t63.5 108v888q36 13 99 11t92 -11v-906h-62q-70 -95 -70 -161q0 -19 10 -28.5t25 -8.5q17 0 35.5 12t28.5 31z" />
    <glyph glyph-name="iogonek" unicode="&#x12f;" horiz-adv-x="317" 
d="M158 778q-44 0 -77.5 33.5t-33.5 78.5q0 43 33.5 76.5t77.5 33.5q43 0 77 -33.5t34 -76.5q0 -45 -33.5 -78.5t-77.5 -33.5zM258 -195l92 -76q-31 -49 -84 -82t-103 -33q-66 -2 -108 36.5t-42 112.5q0 53 29 121t78 116h-63v688q33 10 104 10t99 -10v-686h2
q-103 -124 -103 -203q0 -19 10 -28.5t25 -8.5q17 0 35.5 12t28.5 31z" />
    <glyph glyph-name="Idotaccent" unicode="&#x130;" horiz-adv-x="293" 
d="M146 985q-34 0 -60 25.5t-26 60.5q0 34 26 60t60 26t60 -26t26 -60t-26 -60t-60 -26zM51 0v906q36 13 99 11t92 -11v-906h-191z" />
    <glyph glyph-name="dotlessi" unicode="&#x131;" horiz-adv-x="317" 
d="M57 0v688q33 10 104 10t99 -10v-688h-203z" />
    <glyph glyph-name="IJ" unicode="&#x132;" horiz-adv-x="1056" 
d="M51 0v906q36 13 99 11t92 -11v-906h-191zM636 -18q-101 0 -192 46.5t-162 130.5q14 49 46 89t66 51q44 -69 102.5 -106.5t117.5 -37.5q94 0 139.5 66.5t45.5 177.5v507q45 10 112 9t94 -9v-535q0 -103 -41.5 -190.5t-127.5 -143t-200 -55.5z" />
    <glyph glyph-name="ij" unicode="&#x133;" horiz-adv-x="649" 
d="M488 779q-44 0 -77.5 33t-33.5 78q0 44 33.5 77.5t77.5 33.5t77.5 -33.5t33.5 -77.5q0 -45 -33.5 -78t-77.5 -33zM158 778q-44 0 -77.5 33.5t-33.5 78.5q0 43 33.5 76.5t77.5 33.5q43 0 77 -33.5t34 -76.5q0 -45 -33.5 -78.5t-77.5 -33.5zM57 0v688q33 10 104 10t99 -10
v-688h-203zM385 -260q-52 2 -98 18q-11 36 2.5 92t36.5 83q19 -8 30 -8q20 0 26.5 31.5t6.5 114.5v617q33 10 104 10t98 -10v-707q0 -108 -57 -175t-149 -66z" />
    <glyph glyph-name="Jcircumflex" unicode="&#x134;" horiz-adv-x="799" 
d="M643 1064l-94 -97h-143l190 223h95l188 -223h-141zM542 906q45 10 112 9t94 -9v-535q0 -103 -41.5 -190.5t-127.5 -143t-200 -55.5q-101 0 -192 46.5t-161 130.5q13 49 45 89t66 51q44 -69 102.5 -106.5t117.5 -37.5q94 0 139.5 66.5t45.5 177.5v507z" />
    <glyph glyph-name="jcircumflex" unicode="&#x135;" horiz-adv-x="332" 
d="M172 889l-94 -103h-143l190 243h95l188 -243h-142zM72 688q33 10 104 10t98 -10v-707q0 -108 -57 -175t-149 -66q-52 2 -98 18q-11 36 2.5 92t36.5 83q19 -8 30 -8q20 0 26.5 31.5t6.5 114.5v617z" />
    <glyph glyph-name="uni0136" unicode="&#x136;" horiz-adv-x="908" 
d="M533 453q85 -111 119 -153.5t101.5 -117t135.5 -133.5l-2 -31q-28 -10 -90.5 -21t-115.5 -11q-75 54 -307 364q-46 -27 -117 -62v-288h-206v906q38 13 107.5 10.5t98.5 -10.5v-427q103 54 176 107q205 153 194 308q29 20 86.5 23t105.5 -8q21 -92 -40 -207t-191 -211
q-36 -26 -55 -38zM298 -303l38 232h156l-61 -232h-133z" />
    <glyph glyph-name="uni0137" unicode="&#x137;" horiz-adv-x="808" 
d="M519 344q169 -202 210 -243q30 -29 56 -47v-32q-30 -11 -99 -20.5t-131 -8.5q-13 6 -31 24t-49.5 57t-52 65.5t-67.5 88.5q-52 -31 -105 -57v-171h-203v935q40 13 103.5 13t99.5 -13v-564q24 15 81 56q87 65 134.5 123t43.5 122q81 37 216 16q21 -82 -33.5 -171.5
t-172.5 -172.5zM271 -301l38 232h156l-61 -232h-133z" />
    <glyph glyph-name="kgreenlandic" unicode="&#x138;" horiz-adv-x="808" 
d="M519 344q169 -202 210 -243q30 -29 56 -47v-32q-30 -11 -99 -20.5t-131 -8.5q-13 6 -31 24t-49.5 57t-52 65.5t-67.5 88.5q-52 -31 -105 -57v-171h-203v688q41 14 104 13.5t99 -13.5v-317q24 15 81 56q87 65 134.5 123t43.5 122q81 37 216 16q21 -82 -33.5 -171.5
t-172.5 -172.5z" />
    <glyph glyph-name="Lacute" unicode="&#x139;" horiz-adv-x="746" 
d="M82 968l158 188h181l-218 -188h-121zM88 0l-37 38v868q39 13 105.5 11t100.5 -11v-740h443q19 -22 20 -78t-20 -88h-612z" />
    <glyph glyph-name="lacute" unicode="&#x13a;" horiz-adv-x="382" 
d="M88 997l158 188h181l-218 -188h-121zM247 -18q-181 0 -181 217v736q33 12 98 12t105 -12v-671q0 -116 44 -116q11 0 34 7q13 -30 15.5 -74t-7.5 -76q-64 -23 -108 -23z" />
    <glyph glyph-name="uni013B" unicode="&#x13b;" horiz-adv-x="746" 
d="M88 0l-37 38v868q39 13 105.5 11t100.5 -11v-740h443q19 -22 20 -78t-20 -88h-612zM269 -301l38 232h156l-61 -232h-133z" />
    <glyph glyph-name="uni013C" unicode="&#x13c;" horiz-adv-x="382" 
d="M247 -18q-181 0 -181 217v736q33 12 98 12t105 -12v-671q0 -116 44 -116q11 0 34 7q13 -30 15.5 -74t-7.5 -76q-64 -23 -108 -23zM113 -312l38 232h156l-61 -232h-133z" />
    <glyph glyph-name="Lcaron" unicode="&#x13d;" horiz-adv-x="746" 
d="M463 808l16 333h194l-64 -333h-146zM88 0l-37 38v868q39 13 105.5 11t100.5 -11v-740h443q19 -22 20 -78t-20 -88h-612z" />
    <glyph glyph-name="lcaron" unicode="&#x13e;" horiz-adv-x="382" 
d="M376 853l16 333h194l-64 -333h-146zM247 -18q-181 0 -181 217v736q33 12 98 12t105 -12v-671q0 -116 44 -116q11 0 34 7q13 -30 15.5 -74t-7.5 -76q-64 -23 -108 -23z" />
    <glyph glyph-name="Lslash" unicode="&#x141;" horiz-adv-x="820" 
d="M775 166q18 -22 19 -78t-19 -88h-613l-36 38v274l-95 -37v188l95 36v407q39 13 105.5 11t100.5 -11v-328l166 64v-187l-166 -64v-225h443z" />
    <glyph glyph-name="lslash" unicode="&#x142;" horiz-adv-x="427" 
d="M399 524l-109 -48v-212q0 -116 43 -116q12 0 35 7q13 -30 15.5 -74t-7.5 -76q-64 -23 -108 -23q-181 0 -181 217v187l-96 -42v164l96 42v385q33 12 98 12t105 -12v-295l109 48v-164z" />
    <glyph glyph-name="Nacute" unicode="&#x143;" horiz-adv-x="893" 
d="M711 1156l-218 -188h-121l158 188h181zM636 906q36 13 106.5 10.5t99.5 -10.5v-906h-143l-442 542v-542h-206v869q17 23 68.5 38t74.5 6l442 -556v549z" />
    <glyph glyph-name="nacute" unicode="&#x144;" horiz-adv-x="762" 
d="M623 1036l-181 -250h-121l106 250h196zM458 714q257 0 257 -342v-372h-203v347q0 198 -98 198q-58 0 -104.5 -73.5t-46.5 -166.5v-305h-203v498q0 89 -13 162v28q106 22 189 14q8 -34 11 -72q87 84 211 84z" />
    <glyph glyph-name="uni0145" unicode="&#x145;" horiz-adv-x="893" 
d="M636 906q36 13 106.5 10.5t99.5 -10.5v-906h-143l-442 542v-542h-206v869q17 23 68.5 38t74.5 6l442 -556v549zM337 -301l38 232h156l-61 -232h-133z" />
    <glyph glyph-name="uni0146" unicode="&#x146;" horiz-adv-x="762" 
d="M458 714q257 0 257 -342v-372h-203v347q0 198 -98 198q-58 0 -104.5 -73.5t-46.5 -166.5v-305h-203v498q0 89 -13 162v28q106 22 189 14q8 -34 11 -72q87 84 211 84zM271 -301l38 232h156l-61 -232h-133z" />
    <glyph glyph-name="Ncaron" unicode="&#x147;" horiz-adv-x="893" 
d="M496 963h-95l-190 233h143l94 -101l94 101h142zM636 906q36 13 106.5 10.5t99.5 -10.5v-906h-143l-442 542v-542h-206v869q17 23 68.5 38t74.5 6l442 -556v549z" />
    <glyph glyph-name="ncaron" unicode="&#x148;" horiz-adv-x="762" 
d="M459 786h-95l-190 243h143l94 -110l94 110h142zM458 714q257 0 257 -342v-372h-203v347q0 198 -98 198q-58 0 -104.5 -73.5t-46.5 -166.5v-305h-203v498q0 89 -13 162v28q106 22 189 14q8 -34 11 -72q87 84 211 84z" />
    <glyph glyph-name="Eng" unicode="&#x14a;" horiz-adv-x="887" 
d="M467 -377q-204 0 -353 171q14 49 46 89t66 51q48 -66 112 -101.5t130 -35.5q88 0 139.5 68t51.5 172l-402 504v-541h-206v851q18 23 69 38.5t74 6.5l435 -540v532q35 13 106 11t100 -11l1 -878q0 -104 -43 -191t-128.5 -141.5t-197.5 -54.5z" />
    <glyph glyph-name="eng" unicode="&#x14b;" horiz-adv-x="793" 
d="M458 714q257 0 257 -342v-391q0 -108 -57.5 -175t-149.5 -66q-52 2 -98 18q-11 36 2.5 92t36.5 83q19 -8 30 -8q20 0 26.5 31t6.5 115v276q0 171 -98 171q-58 0 -104.5 -65.5t-46.5 -147.5v-305h-203v498q0 89 -13 162v28q106 22 189 14q10 -31 14 -82q88 94 208 94z" />
    <glyph glyph-name="Omacron" unicode="&#x14c;" horiz-adv-x="885" 
d="M242 1001v135h450v-135h-450zM408 -18q-112 0 -200.5 58.5t-135 156t-46.5 214.5q0 141 56 259t160.5 189t236.5 71q108 0 195.5 -60.5t135.5 -161.5t49 -221q1 -132 -54.5 -247t-160.5 -186.5t-236 -71.5zM416 155q100 0 164.5 105.5t64.5 240.5q1 114 -48 184.5
t-134 70.5q-101 0 -162.5 -101.5t-61.5 -247.5q1 -108 46 -180t131 -72z" />
    <glyph glyph-name="omacron" unicode="&#x14d;" horiz-adv-x="748" 
d="M140 806v143h481v-143h-481zM348 -18q-151 0 -237.5 97t-86.5 247q0 161 109 274.5t268 113.5q149 0 233.5 -92t88.5 -242q4 -176 -102.5 -287t-272.5 -111zM360 151q65 0 110.5 64t45.5 144q0 78 -34.5 132t-93.5 54q-65 0 -110.5 -65t-45.5 -155q0 -75 33 -124.5
t95 -49.5z" />
    <glyph glyph-name="Ohungarumlaut" unicode="&#x150;" horiz-adv-x="885" 
d="M263 988l128 178h159l-181 -178h-106zM475 988l145 178h182l-220 -178h-107zM408 -18q-112 0 -200.5 58.5t-135 156t-46.5 214.5q0 141 56 259t160.5 189t236.5 71q108 0 195.5 -60.5t135.5 -161.5t49 -221q1 -132 -54.5 -247t-160.5 -186.5t-236 -71.5zM416 155
q100 0 164.5 105.5t64.5 240.5q1 114 -48 184.5t-134 70.5q-101 0 -162.5 -101.5t-61.5 -247.5q1 -108 46 -180t131 -72z" />
    <glyph glyph-name="ohungarumlaut" unicode="&#x151;" horiz-adv-x="748" 
d="M201 786l98 249h182l-158 -249h-122zM428 786l115 249h197l-190 -249h-122zM348 -18q-151 0 -237.5 97t-86.5 247q0 161 109 274.5t268 113.5q149 0 233.5 -92t88.5 -242q4 -176 -102.5 -287t-272.5 -111zM360 151q65 0 110.5 64t45.5 144q0 78 -34.5 132t-93.5 54
q-65 0 -110.5 -65t-45.5 -155q0 -75 33 -124.5t95 -49.5z" />
    <glyph glyph-name="OE" unicode="&#x152;" horiz-adv-x="1362" 
d="M1318 166q18 -22 18.5 -78t-18.5 -88h-659v70q-117 -88 -258 -88q-168 0 -272 124t-103 305q0 105 34.5 200t94.5 165.5t146.5 112t185.5 41.5q97 0 180 -54l12 12h621q10 -37 -2.5 -89.5t-30.5 -76.5h-402v-203h373q10 -39 -2.5 -93t-31.5 -72h-339v-188h453zM646 501
q1 114 -48 184.5t-134 70.5q-101 0 -163 -101t-62 -248q1 -108 46 -180t132 -72q100 0 164 105.5t65 240.5z" />
    <glyph glyph-name="oe" unicode="&#x153;" horiz-adv-x="1219" 
d="M890 714q149 0 235 -96.5t66 -253.5l-25 -35l-425 -89q42 -90 150 -88q93 2 185 80q13 -6 25 -15.5t20.5 -21t15.5 -23.5t11.5 -23t8 -20t5.5 -15l1 -5q-136 -127 -293 -127q-73 -1 -138 28t-112 82q-105 -110 -272 -110q-151 0 -237.5 97t-86.5 247q0 161 109 274.5
t268 113.5q157 0 244 -103q98 103 245 103zM1001 437q5 50 -25.5 84.5t-85.5 34.5q-61 0 -106.5 -47.5t-57.5 -122.5zM360 151q65 0 110.5 64t45.5 144q0 78 -34.5 132t-93.5 54q-65 0 -110.5 -65t-45.5 -155q0 -75 33 -124.5t95 -49.5z" />
    <glyph glyph-name="Racute" unicode="&#x154;" horiz-adv-x="893" 
d="M655 1170l-218 -188h-121l158 188h181zM588 315q134 -168 256 -273l-2 -33q-26 -8 -92 -16.5t-121 -8.5q-46 28 -260 291q-56 1 -112 13v-288h-206v885q175 45 349 45q181 0 281.5 -85t100.5 -236q1 -102 -50.5 -177.5t-143.5 -116.5zM257 757v-303q63 -13 128 -13
q84 -1 133.5 44t49.5 126q0 68 -48 111t-142 43q-63 0 -121 -8z" />
    <glyph glyph-name="racute" unicode="&#x155;" horiz-adv-x="549" 
d="M494 1043l-181 -250h-121l106 250h196zM522 687q11 -33 -9.5 -89t-48.5 -86q-39 18 -73 18q-59 -2 -92.5 -62.5t-33.5 -167.5v-300h-205v498q0 89 -13 162v28q101 22 180 14q11 -37 11 -83v-13q30 49 73.5 78.5t92.5 29.5q58 0 118 -27z" />
    <glyph glyph-name="uni0156" unicode="&#x156;" horiz-adv-x="893" 
d="M588 315q134 -168 256 -273l-2 -33q-26 -8 -92 -16.5t-121 -8.5q-46 28 -260 291q-56 1 -112 13v-288h-206v885q175 45 349 45q181 0 281.5 -85t100.5 -236q1 -102 -50.5 -177.5t-143.5 -116.5zM257 757v-303q63 -13 128 -13q84 -1 133.5 44t49.5 126q0 68 -48 111
t-142 43q-63 0 -121 -8zM337 -301l38 232h156l-61 -232h-133z" />
    <glyph glyph-name="uni0157" unicode="&#x157;" horiz-adv-x="549" 
d="M522 687q11 -33 -9.5 -89t-48.5 -86q-39 18 -73 18q-59 -2 -92.5 -62.5t-33.5 -167.5v-300h-205v498q0 89 -13 162v28q101 22 180 14q11 -37 11 -83v-13q30 49 73.5 78.5t92.5 29.5q58 0 118 -27zM26 -301l38 232h156l-61 -232h-133z" />
    <glyph glyph-name="Rcaron" unicode="&#x158;" horiz-adv-x="893" 
d="M440 978h-95l-190 233h143l94 -101l94 101h142zM588 315q134 -168 256 -273l-2 -33q-26 -8 -92 -16.5t-121 -8.5q-46 28 -260 291q-56 1 -112 13v-288h-206v885q175 45 349 45q181 0 281.5 -85t100.5 -236q1 -102 -50.5 -177.5t-143.5 -116.5zM257 757v-303
q63 -13 128 -13q84 -1 133.5 44t49.5 126q0 68 -48 111t-142 43q-63 0 -121 -8z" />
    <glyph glyph-name="rcaron" unicode="&#x159;" horiz-adv-x="549" 
d="M329 793h-95l-190 243h143l94 -110l94 110h142zM522 687q11 -33 -9.5 -89t-48.5 -86q-39 18 -73 18q-59 -2 -92.5 -62.5t-33.5 -167.5v-300h-205v498q0 89 -13 162v28q101 22 180 14q11 -37 11 -83v-13q30 49 73.5 78.5t92.5 29.5q58 0 118 -27z" />
    <glyph glyph-name="Sacute" unicode="&#x15a;" horiz-adv-x="830" 
d="M356 992l158 188h181l-218 -188h-121zM440 -18q-115 0 -223.5 37t-190.5 104q5 37 37 90t71 62q66 -59 147.5 -93t163.5 -34q69 0 107 36t38 85q0 54 -40 83.5t-131 35.5q-156 6 -245 74t-88 193q2 124 100.5 199.5t244.5 75.5q89 0 159.5 -25t113.5 -66.5t65.5 -92.5
t22.5 -107q-40 -11 -96 -16.5t-96 3.5q-6 63 -47.5 101t-123.5 38q-57 0 -93.5 -31t-36.5 -75q0 -50 42 -76.5t108 -30.5q355 -20 355 -271q0 -137 -103 -218t-261 -81z" />
    <glyph glyph-name="sacute" unicode="&#x15b;" horiz-adv-x="719" 
d="M271 786l106 250h196l-181 -250h-121zM374 -18q-213 0 -340 105q32 104 87 142q104 -78 221 -78q59 0 97.5 19t38.5 48q0 32 -36.5 45t-118.5 19q-260 23 -260 196q0 95 83.5 165.5t212.5 70.5q181 0 317 -81q-8 -69 -54 -157q-121 69 -235 69q-55 0 -86.5 -18.5
t-31.5 -43.5t26 -37.5t88 -15.5q160 -7 231 -59.5t71 -152.5q0 -102 -88 -169t-223 -67z" />
    <glyph glyph-name="Scedilla" unicode="&#x15e;" horiz-adv-x="830" 
d="M804 281q0 -129 -93 -209.5t-239 -88.5q5 -21 36 -52t42 -50q27 -46 27 -97q0 -65 -46 -113t-111 -49q-83 -2 -150 75l91 97q28 -35 57 -35q13 0 22 10.5t9 26.5q0 21 -28.5 49.5t-34.5 38.5q-35 52 -37 104q-188 25 -323 135q5 37 37 90t71 62q66 -59 147.5 -93
t163.5 -34q69 0 107 36t38 85q0 54 -40 83.5t-131 35.5q-156 6 -245 74t-88 193q2 124 100.5 199.5t244.5 75.5q89 0 159.5 -25t113.5 -66.5t65.5 -92.5t22.5 -107q-40 -11 -96 -16.5t-96 3.5q-6 63 -47.5 101t-123.5 38q-57 0 -93.5 -31t-36.5 -75q0 -50 42 -76.5
t108 -30.5q355 -20 355 -271z" />
    <glyph glyph-name="scedilla" unicode="&#x15f;" horiz-adv-x="719" 
d="M685 218q0 -94 -76 -159.5t-198 -75.5q5 -21 36 -52t43 -51q27 -44 27 -97q0 -65 -46 -112.5t-111 -48.5q-83 -2 -150 74l91 97q28 -35 57 -35q13 0 22 10.5t9 26.5q0 21 -28.5 49.5t-34.5 38.5q-35 52 -37 104q-157 18 -255 100q32 104 87 142q104 -78 221 -78
q59 0 97.5 19t38.5 48q0 32 -36.5 45t-118.5 19q-260 23 -260 196q0 95 83.5 165.5t212.5 70.5q181 0 317 -81q-8 -69 -54 -157q-121 69 -235 69q-55 0 -86.5 -18.5t-31.5 -43.5t26 -37.5t88 -15.5q160 -7 231 -59.5t71 -152.5z" />
    <glyph glyph-name="Scaron" unicode="&#x160;" horiz-adv-x="830" 
d="M480 988h-95l-190 233h143l94 -101l94 101h142zM449 552q355 -20 355 -271q0 -137 -103 -218t-261 -81q-115 0 -223.5 37t-190.5 104q5 37 37 90t71 62q66 -59 147.5 -93t163.5 -34q69 0 107 36t38 85q0 54 -40 83.5t-131 35.5q-156 6 -245 74t-88 193q2 124 100.5 199.5
t244.5 75.5q89 0 159.5 -25t113.5 -66.5t65.5 -92.5t22.5 -107q-40 -11 -96 -16.5t-96 3.5q-6 63 -47.5 101t-123.5 38q-57 0 -93.5 -31t-36.5 -75q0 -50 42 -76.5t108 -30.5z" />
    <glyph glyph-name="scaron" unicode="&#x161;" horiz-adv-x="719" 
d="M409 786h-95l-190 243h143l94 -110l94 110h142zM383 430q160 -7 231 -59.5t71 -152.5q0 -102 -88 -169t-223 -67q-213 0 -340 105q32 104 87 142q104 -78 221 -78q59 0 97.5 19t38.5 48q0 32 -36.5 45t-118.5 19q-260 23 -260 196q0 95 83.5 165.5t212.5 70.5
q181 0 317 -81q-8 -69 -54 -157q-121 69 -235 69q-55 0 -86.5 -18.5t-31.5 -43.5t26 -37.5t88 -15.5z" />
    <glyph glyph-name="uni0162" unicode="&#x162;" horiz-adv-x="846" 
d="M533 740v-740h-61q0 -22 13 -39t34.5 -38t32.5 -40q27 -46 27 -97q0 -65 -46 -113t-111 -49q-83 -2 -150 75l91 97q28 -35 57 -35q13 0 22 10.5t9 26.5q0 21 -28.5 49.5t-34.5 38.5q-37 54 -37 114h-32v740h-295q-9 35 -3.5 85t22.5 81h781q8 -38 -3.5 -91.5t-30.5 -74.5
h-257z" />
    <glyph glyph-name="uni0163" unicode="&#x163;" horiz-adv-x="533" 
d="M463 171q18 -20 27 -77.5t-1 -87.5q-67 -24 -129 -24q7 -13 33.5 -39.5t38.5 -46.5q27 -44 27 -97q0 -65 -46 -112.5t-111 -48.5q-83 -2 -150 74l91 97q28 -35 57 -35q13 0 22 10.5t9 26.5q0 21 -28.5 49.5t-34.5 38.5q-37 52 -37 112q-133 72 -133 309v203h-80v165h80
v177q34 18 93 28t110 0v-205h182v-165h-182v-189q0 -90 21 -135t70 -45q33 0 71 17z" />
    <glyph glyph-name="Tcaron" unicode="&#x164;" horiz-adv-x="846" 
d="M466 963h-95l-190 233h143l94 -101l94 101h142zM824 906q8 -38 -3.5 -91.5t-30.5 -74.5h-257v-740h-214v740h-295q-9 35 -3.5 85t22.5 81h781z" />
    <glyph glyph-name="tcaron" unicode="&#x165;" horiz-adv-x="533" 
d="M425 1133h194l-64 -333h-146zM392 154q33 0 71 17q18 -20 27 -77.5t-1 -87.5q-69 -24 -131 -24q-122 -2 -191 82.5t-69 255.5v203h-80v165h80v177q34 18 93 28t110 0v-205h182v-165h-182v-189q0 -90 21 -135t70 -45z" />
    <glyph glyph-name="Tbar" unicode="&#x166;" horiz-adv-x="859" 
d="M814 740h-257v-246h168v-150h-168v-344h-214v344h-163v150h163v246h-296q-8 35 -2.5 85.5t21.5 80.5h782q8 -38 -3.5 -91.5t-30.5 -74.5z" />
    <glyph glyph-name="tbar" unicode="&#x167;" horiz-adv-x="531" 
d="M461 171q18 -21 27 -78t-1 -87q-69 -24 -131 -24q-122 -2 -191 82.5t-69 255.5v7h-80v142h80v91h-80v142h80v163q33 18 92.5 28t110.5 0v-191h183v-142h-183v-91h183v-142h-183q1 -86 22 -129.5t68 -43.5q32 0 72 17z" />
    <glyph glyph-name="Umacron" unicode="&#x16a;" horiz-adv-x="891" 
d="M220 991v135h450v-135h-450zM439 -25q-194 0 -291 109.5t-97 315.5v506q34 11 107 9.5t99 -9.5v-514q0 -114 46 -179t136 -65q95 0 145 69.5t50 186.5v502q36 12 106.5 10t99.5 -10v-504q0 -194 -103.5 -310.5t-297.5 -116.5z" />
    <glyph glyph-name="umacron" unicode="&#x16b;" horiz-adv-x="759" 
d="M615 949v-143h-481v143h481zM695 254q0 -156 28 -231l-1 -23h-172q-30 27 -36 73q-85 -91 -204 -91q-118 0 -190.5 77.5t-72.5 238.5v390q45 10 102 9t101 -9v-355q0 -97 25 -139.5t79 -42.5q68 0 103 72.5t35 199.5v265q38 9 110.5 7t92.5 -7v-434z" />
    <glyph glyph-name="Uring" unicode="&#x16e;" horiz-adv-x="891" 
d="M449 888q-89 0 -141.5 42.5t-52.5 111.5q0 66 51 110t143 44q91 0 139.5 -43t48.5 -111q0 -66 -52.5 -110t-135.5 -44zM446 976q35 0 57.5 19t22.5 47q0 30 -21 48t-59 18q-37 0 -58.5 -18.5t-21.5 -47.5t22.5 -47.5t57.5 -18.5zM439 -25q-194 0 -291 109.5t-97 315.5
v506q34 11 107 9.5t99 -9.5v-514q0 -114 46 -179t136 -65q95 0 145 69.5t50 186.5v502q36 12 106.5 10t99.5 -10v-504q0 -194 -103.5 -310.5t-297.5 -116.5z" />
    <glyph glyph-name="uring" unicode="&#x16f;" horiz-adv-x="759" 
d="M377 765q-89 0 -141.5 42.5t-52.5 111.5q0 66 51 110t143 44q91 0 139.5 -43t48.5 -111q0 -66 -52.5 -110t-135.5 -44zM374 985q-37 0 -58.5 -18.5t-21.5 -47.5t22.5 -47.5t57.5 -18.5t57.5 19t22.5 47q0 30 -21 48t-59 18zM695 254q0 -156 28 -231l-1 -23h-172
q-30 27 -36 73q-85 -91 -204 -91q-118 0 -190.5 77.5t-72.5 238.5v390q45 10 102 9t101 -9v-355q0 -97 25 -139.5t79 -42.5q68 0 103 72.5t35 199.5v265q38 9 110.5 7t92.5 -7v-434z" />
    <glyph glyph-name="Uhungarumlaut" unicode="&#x170;" horiz-adv-x="891" 
d="M241 978l128 178h159l-181 -178h-106zM453 978l145 178h182l-220 -178h-107zM439 -25q-194 0 -291 109.5t-97 315.5v506q34 11 107 9.5t99 -9.5v-514q0 -114 46 -179t136 -65q95 0 145 69.5t50 186.5v502q36 12 106.5 10t99.5 -10v-504q0 -194 -103.5 -310.5
t-297.5 -116.5z" />
    <glyph glyph-name="uhungarumlaut" unicode="&#x171;" horiz-adv-x="759" 
d="M474 1035l-158 -249h-122l98 249h182zM543 786h-122l115 249h197zM695 688v-434q0 -156 28 -231l-1 -23h-172q-30 27 -36 73q-85 -91 -204 -91q-118 0 -190.5 77.5t-72.5 238.5v390q45 10 102 9t101 -9v-355q0 -97 25 -139.5t79 -42.5q68 0 103 72.5t35 199.5v265
q38 9 110.5 7t92.5 -7z" />
    <glyph glyph-name="Uogonek" unicode="&#x172;" horiz-adv-x="891" 
d="M634 906q36 12 106.5 10t99.5 -10v-504q0 -182 -91 -296t-263 -129q-86 -110 -86 -182q0 -19 10 -28.5t25 -8.5q17 0 35.5 12t28.5 31l92 -76q-31 -49 -84 -82t-103 -33q-66 -2 -108 36.5t-42 112.5q0 48 25.5 111.5t68.5 111.5q-297 49 -297 418v506q34 11 107 9.5
t99 -9.5v-514q0 -114 46 -179t136 -65q95 0 145 69.5t50 186.5v502z" />
    <glyph glyph-name="uogonek" unicode="&#x173;" horiz-adv-x="759" 
d="M673 -188l92 -76q-31 -49 -84 -82t-103 -33q-66 -2 -108 36.5t-42 112.5q0 54 30 123.5t81 117.5q-20 21 -25 62q-85 -91 -204 -91q-118 0 -190.5 77.5t-72.5 238.5v390q45 10 102 9t101 -9v-355q0 -97 25 -139.5t79 -42.5q68 0 103 72.5t35 199.5v265q38 9 110.5 7
t92.5 -7v-434q0 -156 28 -231l-1 -23h-52q-96 -119 -96 -194q0 -19 10 -28.5t25 -8.5q17 0 35.5 12t28.5 31z" />
    <glyph glyph-name="Wcircumflex" unicode="&#x174;" horiz-adv-x="1254" 
d="M624 1064l-94 -97h-143l190 223h95l188 -223h-141zM1206 906q23 -62 28.5 -160.5t-7.5 -217t-60.5 -251.5t-123.5 -240l-62 -37h-209l-36 21q-28 119 -66 264q-13 -57 -41.5 -137.5t-49.5 -122.5l-48 -25h-205l-50 25q-204 708 -265 848l11 33q39 9 94.5 9.5t99.5 -9.5
q82 -181 214 -734h4q33 73 79.5 202t59.5 195q-9 50 -39 148q18 29 80 56t114 21q28 -65 82.5 -270.5t80.5 -351.5h7q49 80 80.5 182.5t42.5 200.5t9.5 185t-15.5 151q63 39 191 15z" />
    <glyph glyph-name="wcircumflex" unicode="&#x175;" horiz-adv-x="1013" 
d="M521 878l-94 -103h-143l190 243h95l188 -243h-142zM995 688q21 -126 -19.5 -319.5t-131.5 -351.5l-33 -17h-194l-32 23q-25 94 -54 170q-30 -98 -70 -177l-26 -16h-210l-32 22q-31 122 -70.5 259.5t-73.5 248.5t-39 128l14 30q43 9 98 10t98 -10q26 -72 63.5 -216.5
t65.5 -287.5h9q49 160 77 305l-26 80q17 32 74 57.5t113 19.5q70 -197 121 -462h12q38 143 54 255t6 234q72 40 206 15z" />
    <glyph glyph-name="Ycircumflex" unicode="&#x176;" horiz-adv-x="848" 
d="M421 1064l-94 -97h-143l190 223h95l188 -223h-141zM825 906q46 -293 -262 -589v-317h-206v335q-67 116 -174.5 288t-167.5 249l13 34q46 9 108 10t108 -10q40 -42 123.5 -182.5t121.5 -225.5q72 79 106 200.5t27 191.5q68 42 203 16z" />
    <glyph glyph-name="ycircumflex" unicode="&#x177;" horiz-adv-x="765" 
d="M385 890l-94 -103h-143l190 243h95l188 -243h-142zM738 688q13 -54 14.5 -121.5t-8 -142.5t-33.5 -155t-60 -155t-89.5 -146.5t-119.5 -126.5q-129 -107 -301 -109q-56 0 -88 17q-30 77 -2 145l33 20q31 -13 59 -13q87 -1 208 122q-79 57 -140 133.5t-95 143.5t-57.5 145
t-31.5 122.5t-13 91.5l10 29q41 10 93 10.5t91 -10.5q6 -42 10.5 -68t22.5 -92t42.5 -117.5t71.5 -118.5t108 -121q58 105 74 224.5t7 275.5q61 43 194 17z" />
    <glyph glyph-name="Ydieresis" unicode="&#x178;" horiz-adv-x="848" 
d="M290 985q-34 0 -60 25.5t-26 60.5q0 34 26 60t60 26t60 -26t26 -60t-26 -60t-60 -26zM565 985q-35 0 -60.5 25.5t-25.5 60.5q0 34 26 60t60 26q33 0 59 -26t26 -60t-26 -60t-59 -26zM825 906q46 -293 -262 -589v-317h-206v335q-67 116 -174.5 288t-167.5 249l13 34
q46 9 108 10t108 -10q40 -42 123.5 -182.5t121.5 -225.5q72 79 106 200.5t27 191.5q68 42 203 16z" />
    <glyph glyph-name="Zacute" unicode="&#x179;" horiz-adv-x="812" 
d="M670 1156l-218 -188h-121l158 188h181zM767 166q18 -22 19 -78t-19 -88h-704q-17 16 -29 63t-7 79q96 167 219.5 336t236.5 262h-432q-18 21 -19 77.5t19 88.5h687q17 -14 29.5 -70.5t8.5 -91.5q-119 -87 -262.5 -263.5t-222.5 -314.5h476z" />
    <glyph glyph-name="zacute" unicode="&#x17a;" horiz-adv-x="710" 
d="M568 1036l-181 -250h-121l106 250h196zM673 169q19 -14 19.5 -74.5t-19.5 -94.5h-611q-21 16 -34 64t-10 85q83 125 154 208t180 163h-292q-19 21 -19.5 77t19.5 91h575q19 -15 31.5 -77t9.5 -101q-91 -36 -189.5 -124t-193.5 -217h380z" />
    <glyph glyph-name="Zdotaccent" unicode="&#x17b;" horiz-adv-x="812" 
d="M406 985q-34 0 -60 25.5t-26 60.5q0 34 26 60t60 26t60 -26t26 -60t-26 -60t-60 -26zM767 166q18 -22 19 -78t-19 -88h-704q-17 16 -29 63t-7 79q96 167 219.5 336t236.5 262h-432q-18 21 -19 77.5t19 88.5h687q17 -14 29.5 -70.5t8.5 -91.5q-119 -87 -262.5 -263.5
t-222.5 -314.5h476z" />
    <glyph glyph-name="zdotaccent" unicode="&#x17c;" horiz-adv-x="710" 
d="M355 778q-44 0 -77.5 33.5t-33.5 78.5q0 43 33.5 76.5t77.5 33.5q43 0 77 -33.5t34 -76.5q0 -45 -33.5 -78.5t-77.5 -33.5zM673 169q19 -14 19.5 -74.5t-19.5 -94.5h-611q-21 16 -34 64t-10 85q83 125 154 208t180 163h-292q-19 21 -19.5 77t19.5 91h575q19 -15 31.5 -77
t9.5 -101q-91 -36 -189.5 -124t-193.5 -217h380z" />
    <glyph glyph-name="Zcaron" unicode="&#x17d;" horiz-adv-x="812" 
d="M455 963h-95l-190 233h143l94 -101l94 101h142zM767 166q18 -22 19 -78t-19 -88h-704q-17 16 -29 63t-7 79q96 167 219.5 336t236.5 262h-432q-18 21 -19 77.5t19 88.5h687q17 -14 29.5 -70.5t8.5 -91.5q-119 -87 -262.5 -263.5t-222.5 -314.5h476z" />
    <glyph glyph-name="zcaron" unicode="&#x17e;" horiz-adv-x="710" 
d="M404 786h-95l-190 243h143l94 -110l94 110h142zM673 169q19 -14 19.5 -74.5t-19.5 -94.5h-611q-21 16 -34 64t-10 85q83 125 154 208t180 163h-292q-19 21 -19.5 77t19.5 91h575q19 -15 31.5 -77t9.5 -101q-91 -36 -189.5 -124t-193.5 -217h380z" />
    <glyph glyph-name="longs" unicode="&#x17f;" horiz-adv-x="404" 
d="M100 0v628q0 168 59.5 251t187.5 84q62 0 148 -20q8 -28 -4 -85.5t-30 -77.5q-43 14 -76 14q-46 -1 -64 -41t-18 -119v-634h-203z" />
    <glyph glyph-name="florin" unicode="&#x192;" horiz-adv-x="470" 
d="M397 458v-167h-71q11 -156 11 -266q0 -108 -61.5 -169.5t-158.5 -61.5v167q19 0 33.5 21.5t14.5 59.5q0 69 -13 249h-79v167h69q-6 99 -6 196q0 111 58.5 170.5t163.5 59.5v-168q-22 0 -36 -22t-14 -61q0 -70 7 -175h82z" />
    <glyph glyph-name="uni01C7" unicode="&#x1c7;" horiz-adv-x="1501" 
d="M88 0l-37 38v868q39 13 105.5 11t100.5 -11v-740h443q19 -22 20 -78t-20 -88h-612zM1080 -18q-101 0 -191.5 46.5t-161.5 130.5q14 49 46 89t66 51q44 -69 102.5 -106.5t117.5 -37.5q94 0 139.5 66.5t45.5 177.5v507q45 10 112 9t94 -9v-535q0 -61 -15.5 -118t-46.5 -106
t-74.5 -86t-103.5 -58t-130 -21z" />
    <glyph glyph-name="uni01C8" unicode="&#x1c8;" horiz-adv-x="1033" 
d="M873 779q-44 0 -77.5 33t-33.5 78q0 44 33.5 77.5t77.5 33.5q43 0 76.5 -33.5t33.5 -77.5q0 -45 -33 -78t-77 -33zM88 0l-37 38v868q39 13 105.5 11t100.5 -11v-740h443q19 -22 20 -78t-20 -88h-612zM769 -260q-51 2 -97 18q-12 36 1.5 92t36.5 83q21 -8 31 -8
q20 0 26 31t6 115v617q34 10 105 10t98 -10v-707q0 -108 -57 -175t-150 -66z" />
    <glyph glyph-name="uni01C9" unicode="&#x1c9;" horiz-adv-x="714" 
d="M553 778q-44 0 -77.5 33.5t-33.5 78.5q0 43 33.5 76.5t77.5 33.5q43 0 77 -33.5t34 -76.5q0 -45 -33.5 -78.5t-77.5 -33.5zM247 -18q-181 0 -181 217v736q33 12 98 12t105 -12v-671q0 -116 44 -116q11 0 34 7q13 -30 15.5 -74t-7.5 -76q-64 -23 -108 -23zM450 -260
q-52 2 -98 18q-11 36 2.5 92t36.5 83q19 -8 30 -8q20 0 26.5 31.5t6.5 114.5v617q33 10 104 10t98 -10v-707q0 -108 -57 -175t-149 -66z" />
    <glyph glyph-name="uni01CA" unicode="&#x1ca;" horiz-adv-x="1632" 
d="M636 906q36 13 106.5 10.5t99.5 -10.5v-906h-143l-442 542v-542h-206v869q17 23 68.5 38t74.5 6l442 -556v549zM1375 906q45 10 112 9t94 -9v-535q0 -103 -41.5 -190.5t-127.5 -143t-200 -55.5q-101 0 -192 46.5t-161 130.5q13 49 45 89t66 51q44 -69 102.5 -106.5
t117.5 -37.5q94 0 139.5 66.5t45.5 177.5v507z" />
    <glyph glyph-name="uni01CB" unicode="&#x1cb;" horiz-adv-x="1188" 
d="M1028 779q-45 0 -78 33t-33 78q0 44 33 77.5t78 33.5q43 0 76.5 -34t33.5 -77q0 -45 -33.5 -78t-76.5 -33zM842 0h-143l-442 542v-542h-206v869q17 23 68.5 38t74.5 6l442 -556v549q36 13 106.5 10.5t99.5 -10.5v-906zM928 688q33 10 104.5 10t98.5 -10v-707
q0 -108 -57.5 -175t-149.5 -66q-52 2 -97 18q-12 36 1.5 92t36.5 83q21 -8 30 -8q20 0 26.5 31t6.5 115v617z" />
    <glyph glyph-name="uni01CC" unicode="&#x1cc;" horiz-adv-x="1094" 
d="M933 778q-44 0 -77.5 33.5t-33.5 78.5q0 43 33.5 76.5t77.5 33.5q43 0 77 -33.5t34 -76.5q0 -45 -33.5 -78.5t-77.5 -33.5zM458 714q257 0 257 -342v-372h-203v347q0 198 -98 198q-58 0 -104.5 -73.5t-46.5 -166.5v-305h-203v498q0 89 -13 162v28q106 22 189 14
q8 -34 11 -72q87 84 211 84zM834 688q33 10 104 10t98 -10v-707q0 -108 -57 -175t-149 -66q-52 2 -98 18q-11 36 2.5 92t36.5 83q19 -8 30 -8q20 0 26.5 31.5t6.5 114.5v617z" />
    <glyph glyph-name="uni01CD" unicode="&#x1cd;" horiz-adv-x="917" 
d="M495 963h-95l-190 233h143l94 -101l94 101h141zM539 906q23 -54 106 -270t155 -388t106 -218l-13 -30q-159 -5 -218 23q-19 25 -65 159h-325l-55 -182h-219l336 906q36 13 98 12.5t94 -12.5zM335 348h221q-3 9 -47 149t-66 209z" />
    <glyph glyph-name="uni01CE" unicode="&#x1ce;" horiz-adv-x="712" 
d="M440 786h-95l-190 243h143l94 -110l94 110h142zM657 270q0 -83 5 -135.5t10 -71t15 -43.5l-3 -20h-171q-28 21 -37 78q-96 -96 -233 -96q-86 0 -144.5 51.5t-57.5 128.5q1 108 103 186t256 90q16 1 47 1q-10 52 -35.5 80t-66.5 27q-77 0 -195 -72q-59 21 -72 133
q154 105 291 107q130 1 208 -85.5t79 -244.5zM451 303l2 11q-22 2 -45 0q-81 -4 -127.5 -38t-46.5 -75q0 -28 17.5 -46t46.5 -18q59 0 102 52.5t51 113.5z" />
    <glyph glyph-name="uni01CF" unicode="&#x1cf;" horiz-adv-x="293" 
d="M195 963h-95l-190 233h143l94 -101l94 101h142zM51 906q36 13 99 11t92 -11v-906h-191v906z" />
    <glyph glyph-name="uni01D0" unicode="&#x1d0;" horiz-adv-x="317" 
d="M207 786h-95l-190 243h143l94 -110l94 110h142zM57 688q33 10 104 10t99 -10v-688h-203v688z" />
    <glyph glyph-name="uni01D2" unicode="&#x1d2;" horiz-adv-x="748" 
d="M429 786h-95l-190 244h143l95 -109l94 109h141zM723 380q4 -176 -102.5 -287t-272.5 -111q-151 0 -237.5 97t-86.5 247q0 161 109 274.5t268 113.5q149 0 233.5 -92t88.5 -242zM360 151q65 0 110.5 64t45.5 144q0 78 -34.5 132t-93.5 54q-65 0 -110.5 -65t-45.5 -155
q0 -75 33 -124.5t95 -49.5z" />
    <glyph glyph-name="uni01D3" unicode="&#x1d3;" horiz-adv-x="891" 
d="M494 967h-95l-190 234h143l94 -101l94 101h142zM634 906q36 12 106.5 10t99.5 -10v-504q0 -194 -103.5 -310.5t-297.5 -116.5t-291 109.5t-97 315.5v506q34 11 107 9.5t99 -9.5v-514q0 -114 46 -179t136 -65q95 0 145 69.5t50 186.5v502z" />
    <glyph glyph-name="uni01D4" unicode="&#x1d4;" horiz-adv-x="759" 
d="M423 786h-95l-190 244h143l94 -110l94 110h142zM695 254q0 -156 28 -231l-1 -23h-172q-30 27 -36 73q-85 -91 -204 -91q-118 0 -190.5 77.5t-72.5 238.5v390q45 10 102 9t101 -9v-355q0 -97 25 -139.5t79 -42.5q68 0 103 72.5t35 199.5v265q38 9 110.5 7t92.5 -7v-434z
" />
    <glyph glyph-name="uni01E2" unicode="&#x1e2;" horiz-adv-x="1339" 
d="M1115 1106v-135h-450v135h450zM1295 166q18 -22 18.5 -78t-18.5 -88h-619v182h-293l-116 -182h-256l639 906h627q11 -37 -1.5 -89t-31.5 -77h-362v-213h333q10 -38 -2 -92.5t-31 -72.5h-300v-196h413zM489 347l187 -1v295z" />
    <glyph glyph-name="uni01E3" unicode="&#x1e3;" horiz-adv-x="1133" 
d="M808 949v-143h-481v143h481zM804 714q149 0 235 -94.5t66 -251.5l-25 -35l-426 -93q42 -90 150 -88q94 2 186 80q29 -12 50.5 -44t28.5 -53t7 -26q-134 -127 -292 -127q-77 -1 -144.5 30.5t-113.5 89.5q-54 -59 -127.5 -91t-155.5 -29q-87 3 -145 53t-57 127
q1 108 103 186t256 90q16 1 47 1q-10 52 -35.5 80t-66.5 27q-77 0 -195 -72q-59 21 -72 133q154 105 291 107q128 2 199 -93q98 93 236 93zM915 426q5 53 -26 91.5t-85 38.5q-65 0 -112 -53.5t-55 -134.5zM450 303l3 11q-22 2 -45 0q-81 -4 -127.5 -38t-46.5 -75
q0 -28 17.5 -46t46.5 -18q59 0 102 51.5t50 114.5z" />
    <glyph glyph-name="Gcaron" unicode="&#x1e6;" horiz-adv-x="816" 
d="M525 987h-95l-190 234h143l94 -101l94 101h142zM480 757q-103 0 -160 -87t-57 -223q0 -129 60 -210.5t168 -81.5q78 0 144 22v143h-210q-9 39 2.5 93.5t29.5 71.5h354l22 -25v-371q-57 -51 -153.5 -79t-188.5 -28q-191 0 -316.5 128t-125.5 346q0 126 50 233t149 174
t228 67q158 0 260.5 -93t97.5 -229q-44 -11 -99.5 -16t-98.5 2q-9 79 -52.5 121t-103.5 42z" />
    <glyph glyph-name="gcaron" unicode="&#x1e7;" horiz-adv-x="760" 
d="M425 786h-95l-190 243h143l94 -110l94 110h142zM536 703q69 7 177 -14v-26q-14 -86 -14 -177v-398q0 -177 -93 -279.5t-235 -104.5q-163 0 -317 113q17 110 79 148q131 -94 225 -92q65 2 107.5 53t46.5 142q-72 -86 -170 -86q-139 0 -228.5 91.5t-89.5 246.5
q0 174 90.5 283.5t237.5 109.5q95 0 168 -80zM362 154q57 0 93.5 76t37.5 216q-1 36 -34.5 67.5t-74.5 31.5q-72 0 -111.5 -60t-39.5 -145q0 -81 34.5 -133.5t94.5 -52.5z" />
    <glyph glyph-name="uni01E8" unicode="&#x1e8;" horiz-adv-x="908" 
d="M510 963h-95l-190 233h143l95 -101l94 101h141zM533 453q85 -111 119 -153.5t101.5 -117t135.5 -133.5l-2 -31q-28 -10 -90.5 -21t-115.5 -11q-75 54 -307 364q-46 -27 -117 -62v-288h-206v906q38 13 107.5 10.5t98.5 -10.5v-427q103 54 176 107q205 153 194 308
q29 20 86.5 23t105.5 -8q21 -92 -40 -207t-191 -211q-36 -26 -55 -38z" />
    <glyph glyph-name="uni01E9" unicode="&#x1e9;" horiz-adv-x="808" 
d="M459 994h-95l-190 243h143l94 -110l94 110h142zM519 344q169 -202 210 -243q30 -29 56 -47v-32q-30 -11 -99 -20.5t-131 -8.5q-13 6 -31 24t-49.5 57t-52 65.5t-67.5 88.5q-52 -31 -105 -57v-171h-203v935q40 13 103.5 13t99.5 -13v-564q24 15 81 56q87 65 134.5 123
t43.5 122q81 37 216 16q21 -82 -33.5 -171.5t-172.5 -172.5z" />
    <glyph glyph-name="uni01EB" unicode="&#x1eb;" horiz-adv-x="748" 
d="M723 380q4 -150 -74 -254t-208 -134q-92 -113 -92 -188q0 -19 10 -29t24 -9q17 0 35.5 12.5t29.5 31.5l91 -76q-30 -50 -83 -83t-103 -33q-66 -1 -108 37.5t-42 112.5q0 47 24 108.5t66 109.5q-127 18 -198 111.5t-71 228.5q0 161 109 274.5t268 113.5q149 0 233.5 -92
t88.5 -242zM232 325q0 -75 33 -124.5t95 -49.5q65 0 110.5 64t45.5 144q0 78 -34.5 132t-93.5 54q-65 0 -110.5 -65t-45.5 -155z" />
    <glyph glyph-name="uni01F0" unicode="&#x1f0;" horiz-adv-x="332" 
d="M220 786h-95l-190 243h143l94 -110l94 110h142zM72 688q33 10 104 10t98 -10v-707q0 -108 -57 -175t-149 -66q-52 2 -98 18q-11 36 2.5 92t36.5 83q19 -8 30 -8q20 0 26.5 31.5t6.5 114.5v617z" />
    <glyph glyph-name="uni01F4" unicode="&#x1f4;" horiz-adv-x="852" 
d="M716 1180l-218 -188h-121l158 188h181zM457 757q-103 0 -160.5 -87t-57.5 -223q0 -130 60 -211t169 -81q79 0 144 23v142h-211q-9 38 3 93t29 72h354l23 -25v-371q-57 -51 -153.5 -79t-188.5 -28q-191 0 -316.5 128t-125.5 346q0 126 49.5 233t148.5 174t229 67
q158 0 260.5 -93t97.5 -229q-44 -11 -100 -16t-99 2q-9 79 -52 121t-103 42z" />
    <glyph glyph-name="uni01F4" unicode="&#x1f5;" horiz-adv-x="852" 
d="M716 1180l-218 -188h-121l158 188h181zM457 757q-103 0 -160.5 -87t-57.5 -223q0 -130 60 -211t169 -81q79 0 144 23v142h-211q-9 38 3 93t29 72h354l23 -25v-371q-57 -51 -153.5 -79t-188.5 -28q-191 0 -316.5 128t-125.5 346q0 126 49.5 233t148.5 174t229 67
q158 0 260.5 -93t97.5 -229q-44 -11 -100 -16t-99 2q-9 79 -52 121t-103 42z" />
    <glyph glyph-name="uni01F8" unicode="&#x1f8;" horiz-adv-x="893" 
d="M512 971h-121l-220 186h181zM636 906q36 13 106.5 10.5t99.5 -10.5v-906h-143l-442 542v-542h-206v869q17 23 68.5 38t74.5 6l442 -556v549z" />
    <glyph glyph-name="uni01F9" unicode="&#x1f9;" horiz-adv-x="762" 
d="M526 786h-129l-221 251h194zM502 714q257 0 257 -342v-372h-203v347q0 198 -98 198q-58 0 -104.5 -73.5t-46.5 -166.5v-305h-203v498q0 89 -13 162v28q106 22 189 14q8 -34 11 -72q87 84 211 84z" />
    <glyph glyph-name="Aringacute" unicode="&#x1fa;" horiz-adv-x="917" 
d="M639 1311l-168 -131h-100l80 131h188zM442 922q-80 0 -126.5 33t-46.5 85q0 51 45.5 85t127.5 34t124.5 -33.5t42.5 -85.5q0 -50 -46 -84t-121 -34zM439 1091q-27 0 -42 -14t-15 -37q0 -22 16 -36t41 -14q26 0 41.5 14.5t15.5 35.5q0 23 -15 37t-42 14zM539 906
q23 -54 106 -270t155 -388t106 -218l-13 -30q-159 -5 -218 23q-19 25 -65 159h-325l-55 -182h-219l336 906q36 13 98 12.5t94 -12.5zM335 348h221q-3 9 -47 149t-66 209z" />
    <glyph glyph-name="aringacute" unicode="&#x1fb;" horiz-adv-x="712" 
d="M569 1126l-167 -130h-101l80 130h188zM372 737q-80 0 -126.5 33t-46.5 86q0 51 45.5 85t127.5 34t124.5 -33.5t42.5 -85.5q0 -51 -46 -85t-121 -34zM369 906q-27 0 -42 -13.5t-15 -36.5q0 -22 16 -36t41 -14q26 0 41.5 14t15.5 36t-15 36t-42 14zM657 270q0 -83 5 -135.5
t10 -71t15 -43.5l-3 -20h-171q-28 21 -37 78q-96 -96 -233 -96q-86 0 -144.5 51.5t-57.5 128.5q1 108 103 186t256 90q16 1 47 1q-10 52 -35.5 80t-66.5 27q-77 0 -195 -72q-59 21 -72 133q154 105 291 107q130 1 208 -85.5t79 -244.5zM451 303l2 11q-22 2 -45 0
q-81 -4 -127.5 -38t-46.5 -75q0 -28 17.5 -46t46.5 -18q59 0 102 52.5t51 113.5z" />
    <glyph glyph-name="AEacute" unicode="&#x1fc;" horiz-adv-x="1339" 
d="M1154 1140l-218 -188h-121l158 188h181zM1295 166q18 -22 18.5 -78t-18.5 -88h-619v182h-293l-116 -182h-256l639 906h627q11 -37 -1.5 -89t-31.5 -77h-362v-213h333q10 -38 -2 -92.5t-31 -72.5h-300v-196h413zM489 347l187 -1v295z" />
    <glyph glyph-name="aeacute" unicode="&#x1fd;" horiz-adv-x="1133" 
d="M781 1036l-181 -250h-121l106 250h196zM804 714q149 0 235 -94.5t66 -251.5l-25 -35l-426 -93q42 -90 150 -88q94 2 186 80q29 -12 50.5 -44t28.5 -53t7 -26q-134 -127 -292 -127q-77 -1 -144.5 30.5t-113.5 89.5q-54 -59 -127.5 -91t-155.5 -29q-87 3 -145 53t-57 127
q1 108 103 186t256 90q16 1 47 1q-10 52 -35.5 80t-66.5 27q-77 0 -195 -72q-59 21 -72 133q154 105 291 107q128 2 199 -93q98 93 236 93zM915 426q5 53 -26 91.5t-85 38.5q-65 0 -112 -53.5t-55 -134.5zM450 303l3 11q-22 2 -45 0q-81 -4 -127.5 -38t-46.5 -75
q0 -28 17.5 -46t46.5 -18q59 0 102 51.5t50 114.5z" />
    <glyph glyph-name="Oslashacute" unicode="&#x1fe;" horiz-adv-x="1009" 
d="M793 1170l-218 -188h-121l158 188h181zM848 751q71 -115 73 -264q2 -132 -54 -247t-161 -186.5t-236 -71.5q-120 0 -216 69l-43 -51h-175l126 149q-74 113 -74 262q0 141 56 259t161 189t237 71q122 0 216 -77l32 38h176zM302 407q0 -41 8 -83l328 387q-45 45 -113 45
q-101 0 -162.5 -101.5t-60.5 -247.5zM708 501q0 42 -6 78l-327 -385q42 -39 104 -39q67 0 120 51.5t80.5 130t28.5 164.5z" />
    <glyph glyph-name="oslashacute" unicode="&#x1ff;" horiz-adv-x="771" 
d="M611 1036l-181 -250h-121l106 250h196zM743 688v-19l-68 -74q62 -86 65 -215q4 -176 -102.5 -287t-272.5 -111q-117 0 -198 61l-39 -43h-98v20l77 86q-65 89 -65 220q0 161 108.5 274.5t267.5 113.5q111 0 189 -53l24 27h112zM405 545q-65 0 -110.5 -65t-45.5 -155
q0 -34 7 -61l186 206l17 26l18 20q-31 29 -72 29zM377 151q65 0 110.5 64t45.5 144q0 43 -10 76l-207 -224l-18 -26l-1 -2q32 -32 80 -32z" />
    <glyph glyph-name="uni0202" unicode="&#x202;" horiz-adv-x="917" 
d="M447 1054q-49 0 -75.5 -30t-26.5 -71h-140q0 114 68 175.5t174 61.5q109 0 174 -59.5t65 -177.5h-140q0 44 -26.5 72.5t-72.5 28.5zM539 906q23 -54 106 -270t155 -388t106 -218l-13 -30q-159 -5 -218 23q-19 25 -65 159h-325l-55 -182h-219l336 906q36 13 98 12.5
t94 -12.5zM335 348h221q-3 9 -47 149t-66 209z" />
    <glyph glyph-name="uni0203" unicode="&#x203;" horiz-adv-x="712" 
d="M392 886q-49 0 -75 -29.5t-26 -70.5h-141q0 114 68 175.5t174 61.5q109 0 174.5 -59.5t65.5 -177.5h-140q0 43 -27 71.5t-73 28.5zM657 270q0 -83 5 -135.5t10 -71t15 -43.5l-3 -20h-171q-28 21 -37 78q-96 -96 -233 -96q-86 0 -144.5 51.5t-57.5 128.5q1 108 103 186
t256 90q16 1 47 1q-10 52 -35.5 80t-66.5 27q-77 0 -195 -72q-59 21 -72 133q154 105 291 107q130 1 208 -85.5t79 -244.5zM451 303l2 11q-22 2 -45 0q-81 -4 -127.5 -38t-46.5 -75q0 -28 17.5 -46t46.5 -18q59 0 102 52.5t51 113.5z" />
    <glyph glyph-name="uni0206" unicode="&#x206;" horiz-adv-x="753" 
d="M387 1054q-49 0 -75.5 -30t-26.5 -71h-140q0 114 68 175.5t174 61.5q108 0 173.5 -59.5t65.5 -177.5h-140q0 44 -26.5 72.5t-72.5 28.5zM710 166q18 -22 18.5 -78t-18.5 -88h-659v885l20 21h620q11 -37 -1.5 -89.5t-31.5 -76.5h-401v-213h373q9 -39 -3 -93.5t-31 -71.5
h-339v-196h453z" />
    <glyph glyph-name="uni0207" unicode="&#x207;" horiz-adv-x="704" 
d="M383 886q-49 0 -75 -29.5t-26 -70.5h-141q0 114 68 175.5t174 61.5q109 0 174.5 -59.5t65.5 -177.5h-140q0 43 -27 71.5t-73 28.5zM376 714q149 0 235 -94.5t66 -251.5l-26 -35l-425 -93q20 -44 59.5 -67t90.5 -22q93 3 186 81q28 -12 49.5 -43.5t29 -53.5t7.5 -26
q-134 -127 -292 -127q-90 -1 -164.5 39.5t-120.5 119.5t-47 183q-1 165 97.5 277.5t254.5 112.5zM486 433q5 51 -25.5 87t-84.5 36q-64 0 -110 -51t-56 -129z" />
    <glyph glyph-name="uni020A" unicode="&#x20a;" horiz-adv-x="26" 
d="M-192 953q0 114 68 175.5t174 61.5q109 0 174.5 -59.5t65.5 -177.5h-140q0 44 -26.5 72.5t-73.5 28.5q-49 0 -75 -30t-26 -71h-141zM-46 0v906q37 13 99.5 11t91.5 -11v-906h-191z" />
    <glyph glyph-name="uni020B" unicode="&#x20b;" horiz-adv-x="317" 
d="M-83 786q0 114 68 175.5t174 61.5q109 0 174.5 -59.5t65.5 -177.5h-140q0 43 -27 71.5t-73 28.5q-49 0 -75 -29.5t-26 -70.5h-141zM57 0v688q33 10 104 10t99 -10v-688h-203z" />
    <glyph glyph-name="uni020E" unicode="&#x20e;" horiz-adv-x="885" 
d="M226 968q0 114 68 175.5t174 61.5q109 0 174 -59.5t65 -177.5h-139q0 43 -27 71.5t-73 28.5q-49 0 -75 -29.5t-26 -70.5h-141zM408 -18q-112 0 -200.5 58.5t-135 156t-46.5 214.5q0 141 56 259t160.5 189t236.5 71q108 0 195.5 -60.5t135.5 -161.5t49 -221
q1 -132 -54.5 -247t-160.5 -186.5t-236 -71.5zM416 155q100 0 164.5 105.5t64.5 240.5q1 114 -48 184.5t-134 70.5q-101 0 -162.5 -101.5t-61.5 -247.5q1 -108 46 -180t131 -72z" />
    <glyph glyph-name="uni020F" unicode="&#x20f;" horiz-adv-x="748" 
d="M139 786q0 114 68 175.5t174 61.5q109 0 174.5 -59.5t65.5 -177.5h-140q0 44 -26.5 72.5t-73.5 28.5q-49 0 -75 -30t-26 -71h-141zM348 -18q-151 0 -237.5 97t-86.5 247q0 161 109 274.5t268 113.5q149 0 233.5 -92t88.5 -242q4 -176 -102.5 -287t-272.5 -111zM360 151
q65 0 110.5 64t45.5 144q0 78 -34.5 132t-93.5 54q-65 0 -110.5 -65t-45.5 -155q0 -75 33 -124.5t95 -49.5z" />
    <glyph glyph-name="uni0212" unicode="&#x212;" horiz-adv-x="893" 
d="M393 1068q-49 0 -75.5 -29.5t-26.5 -70.5h-140q0 114 68 175.5t174 61.5q108 0 173.5 -59.5t65.5 -177.5h-140q0 43 -26.5 71.5t-72.5 28.5zM588 315q134 -168 256 -273l-2 -33q-26 -8 -92 -16.5t-121 -8.5q-46 28 -260 291q-56 1 -112 13v-288h-206v885q175 45 349 45
q181 0 281.5 -85t100.5 -236q1 -102 -50.5 -177.5t-143.5 -116.5zM257 757v-303q63 -13 128 -13q84 -1 133.5 44t49.5 126q0 68 -48 111t-142 43q-63 0 -121 -8z" />
    <glyph glyph-name="uni0213" unicode="&#x213;" horiz-adv-x="560" 
d="M291 893q-49 0 -75 -29.5t-26 -70.5h-141q0 114 68 175.5t174 61.5q109 0 174 -59.5t65 -177.5h-140q0 43 -26.5 71.5t-72.5 28.5zM531 687q11 -33 -9.5 -89t-47.5 -86q-41 18 -73 18q-60 -2 -93.5 -62.5t-33.5 -167.5v-300h-204v498q0 83 -14 162v28q101 22 181 14
q11 -44 11 -83v-11q30 48 73 77t92 29q58 0 118 -27z" />
    <glyph glyph-name="uni0218" unicode="&#x218;" horiz-adv-x="830" 
d="M440 -18q-115 0 -223.5 37t-190.5 104q5 37 37 90t71 62q66 -59 147.5 -93t163.5 -34q69 0 107 36t38 85q0 54 -40 83.5t-131 35.5q-156 6 -245 74t-88 193q2 124 100.5 199.5t244.5 75.5q89 0 159.5 -25t113.5 -66.5t65.5 -92.5t22.5 -107q-40 -11 -96 -16.5t-96 3.5
q-6 63 -47.5 101t-123.5 38q-57 0 -93.5 -31t-36.5 -75q0 -50 42 -76.5t108 -30.5q355 -20 355 -271q0 -137 -103 -218t-261 -81zM310 -301l38 232h156l-61 -232h-133z" />
    <glyph glyph-name="uni0219" unicode="&#x219;" horiz-adv-x="719" 
d="M374 -18q-213 0 -340 105q32 104 87 142q104 -78 221 -78q59 0 97.5 19t38.5 48q0 32 -36.5 45t-118.5 19q-260 23 -260 196q0 95 83.5 165.5t212.5 70.5q181 0 317 -81q-8 -69 -54 -157q-121 69 -235 69q-55 0 -86.5 -18.5t-31.5 -43.5t26 -37.5t88 -15.5
q160 -7 231 -59.5t71 -152.5q0 -102 -88 -169t-223 -67zM254 -305l38 232h156l-61 -232h-133z" />
    <glyph glyph-name="uni021A" unicode="&#x21a;" horiz-adv-x="846" 
d="M824 906q8 -38 -3.5 -91.5t-30.5 -74.5h-257v-740h-214v740h-295q-9 35 -3.5 85t22.5 81h781zM312 -299l38 232h156l-61 -232h-133z" />
    <glyph glyph-name="uni021B" unicode="&#x21b;" horiz-adv-x="533" 
d="M463 171q18 -20 27 -77.5t-1 -87.5q-69 -24 -131 -24q-122 -2 -191 82.5t-69 255.5v203h-80v165h80v177q34 18 93 28t110 0v-205h182v-165h-182v-189q0 -90 21 -135t70 -45q33 0 71 17zM197 -289l38 232h156l-61 -232h-133z" />
    <glyph glyph-name="uni0237" unicode="&#x237;" horiz-adv-x="332" 
d="M68 -260q-52 2 -98 18q-11 36 2.5 92t36.5 83q19 -8 30 -8q20 0 26.5 31.5t6.5 114.5v617q33 10 104 10t98 -10v-707q0 -108 -57 -175t-149 -66z" />
    <glyph glyph-name="circumflex" unicode="&#x2c6;" horiz-adv-x="567" 
d="M520 775h-142l-94 110l-94 -110h-143l190 243h95z" />
    <glyph glyph-name="caron" unicode="&#x2c7;" horiz-adv-x="567" 
d="M378 1018h142l-188 -243h-95l-190 243h143l94 -110z" />
    <glyph glyph-name="breve" unicode="&#x2d8;" horiz-adv-x="576" 
d="M287 754q-109 0 -174.5 59.5t-65.5 177.5h140q0 -43 26.5 -71.5t73.5 -28.5q49 0 75 29.5t26 70.5h141q0 -114 -68 -175.5t-174 -61.5z" />
    <glyph glyph-name="dotaccent" unicode="&#x2d9;" horiz-adv-x="316" 
d="M158 767q-44 0 -77.5 33.5t-33.5 78.5q0 43 33.5 76.5t77.5 33.5q43 0 77 -33.5t34 -76.5q0 -45 -33.5 -78.5t-77.5 -33.5z" />
    <glyph glyph-name="ring" unicode="&#x2da;" horiz-adv-x="476" 
d="M241 715q-89 0 -141.5 42.5t-52.5 111.5q0 66 51 110t143 44q91 0 139.5 -43t48.5 -111q0 -66 -52.5 -110t-135.5 -44zM238 803q35 0 57.5 19t22.5 47q0 30 -21 48t-59 18q-37 0 -58.5 -18.5t-21.5 -47.5t22.5 -47.5t57.5 -18.5z" />
    <glyph glyph-name="ogonek" unicode="&#x2db;" horiz-adv-x="431" 
d="M197 -381q-66 -2 -108 36.5t-42 112.5q0 58 34 131.5t90 120.5l125 -13q-103 -124 -103 -203q0 -19 10 -28.5t25 -8.5q17 0 35.5 12t28.5 31l92 -76q-31 -49 -84 -82t-103 -33z" />
    <glyph glyph-name="tilde" unicode="&#x2dc;" horiz-adv-x="537" 
d="M362 779q-32 0 -64 17.5t-57 35t-41 17.5q-38 0 -38 -65h-115q0 96 34 161t93 65q40 0 91 -35.5t68 -35.5t29 16t12 50h116q0 -95 -34 -160.5t-94 -65.5z" />
    <glyph glyph-name="hungarumlaut" unicode="&#x2dd;" horiz-adv-x="664" 
d="M78 775l98 249h182l-158 -249h-122zM305 775l115 249h197l-190 -249h-122z" />
    <glyph glyph-name="gravecomb" unicode="&#x300;" 
d="M-177 775l-220 250h194l156 -250h-130z" />
    <glyph glyph-name="acutecomb" unicode="&#x301;" 
d="M-350 775l106 250h196l-181 -250h-121z" />
    <glyph glyph-name="uni0302" unicode="&#x302;" 
d="M-47 775h-142l-94 103l-94 -103h-143l190 243h95z" />
    <glyph glyph-name="tildecomb" unicode="&#x303;" 
d="M-175 779q-32 0 -64 17.5t-57 35t-41 17.5q-38 0 -38 -65h-115q0 96 34 161t93 65q40 0 91 -35.5t68 -35.5t29 16t12 50h116q0 -95 -34 -160.5t-94 -65.5z" />
    <glyph glyph-name="uni0304" unicode="&#x304;" 
d="M-560 795v143h481v-143h-481z" />
    <glyph glyph-name="uni0306" unicode="&#x306;" 
d="M-289 754q-109 0 -174.5 59.5t-65.5 177.5h140q0 -43 26.5 -71.5t73.5 -28.5q49 0 75 29.5t26 70.5h141q0 -114 -68 -175.5t-174 -61.5z" />
    <glyph glyph-name="uni0307" unicode="&#x307;" 
d="M-158 767q-44 0 -77.5 33.5t-33.5 78.5q0 43 33.5 76.5t77.5 33.5q43 0 77 -33.5t34 -76.5q0 -45 -33.5 -78.5t-77.5 -33.5z" />
    <glyph glyph-name="uni0308" unicode="&#x308;" 
d="M-521 767q-44 0 -77.5 33.5t-33.5 78.5q0 43 33.5 76.5t77.5 33.5q43 0 77 -33.5t34 -76.5q0 -45 -33.5 -78.5t-77.5 -33.5zM-189 767q-44 0 -77.5 33.5t-33.5 78.5q0 43 33.5 76.5t77.5 33.5q43 0 77 -33.5t34 -76.5q0 -45 -33.5 -78.5t-77.5 -33.5z" />
    <glyph glyph-name="uni030A" unicode="&#x30a;" 
d="M-235 754q-89 0 -141.5 42.5t-52.5 111.5q0 66 51 110t143 44q91 0 139.5 -43t48.5 -111q0 -66 -52.5 -110t-135.5 -44zM-238 842q35 0 57.5 19t22.5 47q0 30 -21 48t-59 18q-37 0 -58.5 -18.5t-21.5 -47.5t22.5 -47.5t57.5 -18.5z" />
    <glyph glyph-name="uni030B" unicode="&#x30b;" 
d="M-586 775l98 249h182l-158 -249h-122zM-359 775l115 249h197l-190 -249h-122z" />
    <glyph glyph-name="uni030C" unicode="&#x30c;" 
d="M-189 1018h142l-188 -243h-95l-190 243h143l94 -110z" />
    <glyph glyph-name="uni0311" unicode="&#x311;" 
d="M-529 775q0 114 68 175.5t174 61.5q109 0 174.5 -59.5t65.5 -177.5h-140q0 43 -27 71.5t-73 28.5q-49 0 -75 -29.5t-26 -70.5h-141z" />
    <glyph glyph-name="uni0312" unicode="&#x312;" 
d="M-249 780l84 255h133l-62 -255h-155z" />
    <glyph glyph-name="uni0326" unicode="&#x326;" 
d="M-293 -301l38 232h156l-61 -232h-133z" />
    <glyph glyph-name="uni0327" unicode="&#x327;" 
d="M-204 -374q-83 -2 -150 74l91 97q28 -35 57 -35q13 0 22 10.5t9 26.5q0 21 -28.5 49.5t-34.5 38.5q-37 54 -37 114h121q0 -21 13 -38.5t34.5 -38.5t32.5 -40q27 -44 27 -97q0 -65 -46 -112.5t-111 -48.5z" />
    <glyph glyph-name="uni0328" unicode="&#x328;" 
d="M-234 -381q-66 -2 -108 36.5t-42 112.5q0 58 34 131.5t90 120.5l125 -13q-103 -124 -103 -203q0 -19 10 -28.5t25 -8.5q17 0 35.5 12t28.5 31l92 -76q-31 -49 -84 -82t-103 -33z" />
    <glyph glyph-name="uni03BC" unicode="&#x3bc;" horiz-adv-x="754" 
d="M718 254q0 -160 28 -231l-2 -23h-172q-32 22 -32 65v31q-32 -52 -82.5 -83t-109.5 -31q-58 0 -100 36v-286h-178v956q45 10 102 9t101 -9v-355q0 -97 25 -139.5t79 -42.5q67 0 102.5 73t35.5 199v265q38 9 110.5 7t92.5 -7v-434z" />
    <glyph glyph-name="uni1E02" unicode="&#x1e02;" horiz-adv-x="807" 
d="M362 991q-34 0 -60 25.5t-26 60.5q0 34 26 60t60 26t60 -26t26 -60t-26 -60t-60 -26zM781 316q1 -155 -98.5 -244.5t-281.5 -90.5q-126 0 -197 9t-153 36v862q135 42 311 42q100 0 173 -20t111 -55.5t55 -74.5t17 -86q0 -83 -92 -140q154 -68 155 -238zM370 772
q-52 0 -113 -9v-182q83 11 168 11h18q77 19 77 81q0 40 -35 69.5t-115 29.5zM387 147q101 0 152.5 41.5t51.5 113.5q0 125 -187 125q-66 0 -147 -15v-255q62 -10 130 -10z" />
    <glyph glyph-name="uni1E03" unicode="&#x1e03;" horiz-adv-x="755" 
d="M383 981q-44 0 -77.5 33.5t-33.5 78.5q0 43 33.5 76.5t77.5 33.5q43 0 77 -33.5t34 -76.5q0 -45 -33.5 -78.5t-77.5 -33.5zM437 714q139 0 216 -92t77 -246q0 -167 -86 -280.5t-222 -113.5q-108 0 -179 76q-11 -37 -23 -58h-173v24q13 64 13 165v746q34 11 103.5 11
t99.5 -11v-308q70 87 174 87zM380 154q64 0 103.5 64.5t39.5 164.5q0 71 -29 116.5t-77 45.5q-67 0 -110.5 -84.5t-43.5 -188.5q0 -41 35.5 -79.5t81.5 -38.5z" />
    <glyph glyph-name="uni1E0A" unicode="&#x1e0a;" horiz-adv-x="844" 
d="M350 1009q-34 0 -60 25.5t-26 60.5q0 34 26 60t60 26t60 -26t26 -60t-26 -60t-60 -26zM350 930q224 0 346 -126.5t122 -337.5q0 -224 -118.5 -354.5t-333.5 -130.5q-99 0 -167.5 9.5t-147.5 35.5v862q133 42 299 42zM604 461q1 139 -66.5 221.5t-190.5 82.5q-43 0 -90 -5
v-605q51 -8 110 -8q118 0 177.5 83.5t59.5 230.5z" />
    <glyph glyph-name="uni1E0B" unicode="&#x1e0b;" horiz-adv-x="757" 
d="M358 977q-44 0 -77.5 33.5t-33.5 78.5q0 43 33.5 76.5t77.5 33.5q43 0 77 -33.5t34 -76.5q0 -45 -33.5 -78.5t-77.5 -33.5zM696 189q0 -101 13 -165v-24h-172q-13 21 -26 67q-80 -85 -198 -85q-126 0 -207.5 99.5t-81.5 238.5q0 173 88 283.5t240 110.5q83 0 141 -61v282
q30 11 99.5 11t103.5 -11v-746zM361 154q57 0 94.5 78t37.5 207q0 45 -33.5 75.5t-75.5 30.5q-65 0 -108 -55.5t-43 -145.5q0 -85 35 -137.5t93 -52.5z" />
    <glyph glyph-name="uni1E1E" unicode="&#x1e1e;" horiz-adv-x="730" 
d="M371 985q-35 0 -60.5 25.5t-25.5 60.5q0 34 26 60t60 26t60 -26t26 -60t-26 -60t-60 -26zM667 740h-410v-256h389q10 -40 -2 -94.5t-32 -71.5h-355v-318h-206v887l19 18h629q11 -37 -0.5 -90t-31.5 -75z" />
    <glyph glyph-name="uni1E1F" unicode="&#x1e1f;" horiz-adv-x="437" 
d="M290 1010q-44 0 -77.5 33.5t-33.5 78.5q0 43 33.5 76.5t77.5 33.5q43 0 77 -33.5t34 -76.5q0 -45 -33.5 -78.5t-77.5 -33.5zM391 794q-38 -1 -56 -27.5t-24 -78.5h155v-165h-157v-523h-203v523h-112v165h114q10 137 69.5 205.5t175.5 69.5q63 0 148 -20q8 -28 -4 -85.5
t-30 -77.5q-42 14 -76 14z" />
    <glyph glyph-name="uni1E40" unicode="&#x1e40;" horiz-adv-x="1050" 
d="M524 985q-34 0 -60 25.5t-26 60.5q0 34 26 60t60 26t60 -26t26 -60t-26 -60t-60 -26zM1024 0h-207l-45 503l-187 -381h-126l-187 381l-40 -503h-206l81 872q22 22 85.5 32.5t88.5 1.5l243 -531l242 531q26 9 88 -1t84 -32z" />
    <glyph glyph-name="uni1E41" unicode="&#x1e41;" horiz-adv-x="1052" 
d="M577 778q-44 0 -77.5 33.5t-33.5 78.5q0 43 33.5 76.5t77.5 33.5q43 0 77 -33.5t34 -76.5q0 -45 -33.5 -78.5t-77.5 -33.5zM793 714q212 0 212 -331v-383h-203v358q0 187 -64 187q-46 0 -77 -64.5t-31 -170.5l1 -310h-196v358q0 187 -65 187q-46 0 -76.5 -66t-30.5 -174
v-305h-203v498q0 89 -13 162v28q106 22 188 14q8 -27 10 -65q79 77 169 77q119 0 174 -102q86 102 205 102z" />
    <glyph glyph-name="uni1E56" unicode="&#x1e56;" horiz-adv-x="806" 
d="M396 1009q-34 0 -60 25.5t-26 60.5q0 34 26 60t60 26t60 -26t26 -60t-26 -60t-60 -26zM396 930q188 0 286 -101.5t98 -266.5q0 -151 -103 -249.5t-288 -98.5q-71 0 -132 11v-225h-206v885q148 45 345 45zM566 567q2 93 -44.5 145.5t-139.5 52.5q-65 0 -125 -10v-363
q55 -13 121 -13q88 0 138 49.5t50 138.5z" />
    <glyph glyph-name="uni1E57" unicode="&#x1e57;" horiz-adv-x="758" 
d="M421 778q-44 0 -77.5 33.5t-33.5 78.5q0 43 33.5 76.5t77.5 33.5q43 0 77 -33.5t34 -76.5q0 -45 -33.5 -78.5t-77.5 -33.5zM451 714q128 0 205.5 -94t77.5 -235q0 -177 -87.5 -290t-223.5 -113q-92 0 -158 66v-305q-25 -10 -97 -10t-105 10v743q0 89 -16 175v27
q99 28 179 14l23 -79q89 91 202 91zM383 154q64 0 103.5 65.5t39.5 160.5q0 76 -30 120.5t-76 44.5q-62 0 -109 -76t-47 -199q0 -38 36 -77t83 -39z" />
    <glyph glyph-name="uni1E60" unicode="&#x1e60;" horiz-adv-x="830" 
d="M431 1009q-35 0 -60.5 25.5t-25.5 60.5q0 34 26 60t60 26t60 -26t26 -60t-26 -60t-60 -26zM440 -18q-115 0 -223.5 37t-190.5 104q5 37 37 90t71 62q66 -59 147.5 -93t163.5 -34q69 0 107 36t38 85q0 54 -40 83.5t-131 35.5q-156 6 -245 74t-88 193q2 124 100.5 199.5
t244.5 75.5q89 0 159.5 -25t113.5 -66.5t65.5 -92.5t22.5 -107q-40 -11 -96 -16.5t-96 3.5q-6 63 -47.5 101t-123.5 38q-57 0 -93.5 -31t-36.5 -75q0 -50 42 -76.5t108 -30.5q355 -20 355 -271q0 -137 -103 -218t-261 -81z" />
    <glyph glyph-name="uni1E61" unicode="&#x1e61;" horiz-adv-x="719" 
d="M360 778q-44 0 -77.5 33.5t-33.5 78.5q0 43 33.5 76.5t77.5 33.5q43 0 77 -33.5t34 -76.5q0 -45 -33.5 -78.5t-77.5 -33.5zM374 -18q-213 0 -340 105q32 104 87 142q104 -78 221 -78q59 0 97.5 19t38.5 48q0 32 -36.5 45t-118.5 19q-260 23 -260 196q0 95 83.5 165.5
t212.5 70.5q181 0 317 -81q-8 -69 -54 -157q-121 69 -235 69q-55 0 -86.5 -18.5t-31.5 -43.5t26 -37.5t88 -15.5q160 -7 231 -59.5t71 -152.5q0 -102 -88 -169t-223 -67z" />
    <glyph glyph-name="uni1E6A" unicode="&#x1e6a;" horiz-adv-x="846" 
d="M417 985q-35 0 -60.5 25.5t-25.5 60.5q0 34 26 60t60 26t60 -26t26 -60t-26 -60t-60 -26zM824 906q8 -38 -3.5 -91.5t-30.5 -74.5h-257v-740h-214v740h-295q-9 35 -3.5 85t22.5 81h781z" />
    <glyph glyph-name="uni1E6B" unicode="&#x1e6b;" horiz-adv-x="533" 
d="M204 969q-44 0 -77.5 33.5t-33.5 78.5q0 43 33.5 76.5t77.5 33.5q43 0 77 -33.5t34 -76.5q0 -45 -33.5 -78.5t-77.5 -33.5zM463 171q18 -20 27 -77.5t-1 -87.5q-69 -24 -131 -24q-122 -2 -191 82.5t-69 255.5v203h-80v165h80v177q34 18 93 28t110 0v-205h182v-165h-182
v-189q0 -90 21 -135t70 -45q33 0 71 17z" />
    <glyph glyph-name="Wgrave" unicode="&#x1e80;" horiz-adv-x="1254" 
d="M572 970l-220 187h181l160 -187h-121zM326 0l-50 25q-204 708 -265 848l11 33q39 9 94.5 9.5t99.5 -9.5q82 -181 214 -734h4q33 73 79.5 202t59.5 195q-9 50 -39 148q18 29 80 56t114 21q28 -65 82.5 -270.5t80.5 -351.5h7q49 80 80.5 182.5t42.5 200.5t9.5 185
t-15.5 151q63 39 191 15q23 -62 28.5 -160.5t-7.5 -217t-60.5 -251.5t-123.5 -240l-62 -37h-209l-36 21q-28 119 -66 264q-13 -57 -41.5 -137.5t-49.5 -122.5l-48 -25h-205z" />
    <glyph glyph-name="wgrave" unicode="&#x1e81;" horiz-adv-x="1013" 
d="M462 775l-220 250h194l156 -250h-130zM225 0l-32 22q-31 122 -70.5 259.5t-73.5 248.5t-39 128l14 30q43 9 98 10t98 -10q26 -72 63.5 -216.5t65.5 -287.5h9q49 160 77 305l-26 80q17 32 74 57.5t113 19.5q70 -197 121 -462h12q38 143 54 255t6 234q72 40 206 15
q21 -126 -19.5 -319.5t-131.5 -351.5l-33 -17h-194l-32 23q-25 94 -54 170q-30 -98 -70 -177l-26 -16h-210z" />
    <glyph glyph-name="Wacute" unicode="&#x1e82;" horiz-adv-x="1254" 
d="M552 968l158 188h181l-218 -188h-121zM326 0l-50 25q-204 708 -265 848l11 33q39 9 94.5 9.5t99.5 -9.5q82 -181 214 -734h4q33 73 79.5 202t59.5 195q-9 50 -39 148q18 29 80 56t114 21q28 -65 82.5 -270.5t80.5 -351.5h7q49 80 80.5 182.5t42.5 200.5t9.5 185
t-15.5 151q63 39 191 15q23 -62 28.5 -160.5t-7.5 -217t-60.5 -251.5t-123.5 -240l-62 -37h-209l-36 21q-28 119 -66 264q-13 -57 -41.5 -137.5t-49.5 -122.5l-48 -25h-205z" />
    <glyph glyph-name="wacute" unicode="&#x1e83;" horiz-adv-x="1013" 
d="M431 775l106 250h196l-181 -250h-121zM225 0l-32 22q-31 122 -70.5 259.5t-73.5 248.5t-39 128l14 30q43 9 98 10t98 -10q26 -72 63.5 -216.5t65.5 -287.5h9q49 160 77 305l-26 80q17 32 74 57.5t113 19.5q70 -197 121 -462h12q38 143 54 255t6 234q72 40 206 15
q21 -126 -19.5 -319.5t-131.5 -351.5l-33 -17h-194l-32 23q-25 94 -54 170q-30 -98 -70 -177l-26 -16h-210z" />
    <glyph glyph-name="Wdieresis" unicode="&#x1e84;" horiz-adv-x="1254" 
d="M493 985q-35 0 -60.5 25.5t-25.5 60.5q0 34 26 60t60 26t60 -26t26 -60t-26 -60t-60 -26zM768 985q-34 0 -60 25.5t-26 60.5q0 34 26 60t60 26q33 0 59 -26t26 -60t-26 -60t-59 -26zM326 0l-50 25q-204 708 -265 848l11 33q39 9 94.5 9.5t99.5 -9.5q82 -181 214 -734h4
q33 73 79.5 202t59.5 195q-9 50 -39 148q18 29 80 56t114 21q28 -65 82.5 -270.5t80.5 -351.5h7q49 80 80.5 182.5t42.5 200.5t9.5 185t-15.5 151q63 39 191 15q23 -62 28.5 -160.5t-7.5 -217t-60.5 -251.5t-123.5 -240l-62 -37h-209l-36 21q-28 119 -66 264
q-13 -57 -41.5 -137.5t-49.5 -122.5l-48 -25h-205z" />
    <glyph glyph-name="wdieresis" unicode="&#x1e85;" horiz-adv-x="1013" 
d="M366 767q-44 0 -77.5 33.5t-33.5 78.5q0 43 33.5 76.5t77.5 33.5q43 0 77 -33.5t34 -76.5q0 -45 -33.5 -78.5t-77.5 -33.5zM698 767q-44 0 -77.5 33.5t-33.5 78.5q0 43 33.5 76.5t77.5 33.5q43 0 77 -33.5t34 -76.5q0 -45 -33.5 -78.5t-77.5 -33.5zM225 0l-32 22
q-31 122 -70.5 259.5t-73.5 248.5t-39 128l14 30q43 9 98 10t98 -10q26 -72 63.5 -216.5t65.5 -287.5h9q49 160 77 305l-26 80q17 32 74 57.5t113 19.5q70 -197 121 -462h12q38 143 54 255t6 234q72 40 206 15q21 -126 -19.5 -319.5t-131.5 -351.5l-33 -17h-194l-32 23
q-25 94 -54 170q-30 -98 -70 -177l-26 -16h-210z" />
    <glyph glyph-name="uni1E9E" unicode="&#x1e9e;" horiz-adv-x="929" 
d="M605 547q58 -7 106.5 -24.5t93.5 -48.5t70.5 -84.5t25.5 -123.5q0 -94 -46 -160t-116.5 -95t-156.5 -29q-170 0 -273 112q20 87 90 144q71 -78 174 -78q55 0 88.5 29.5t33.5 76.5q0 45 -34.5 80.5t-86.5 53.5t-100 27t-86 9l-21 59l231 236h-171q-46 0 -80 -21.5
t-51.5 -56t-25.5 -70t-8 -72.5v-511h-203v526q0 81 19.5 148t60 119.5t109.5 82t161 29.5h405q19 -36 13.5 -87.5t-29.5 -76.5z" />
    <glyph glyph-name="Ygrave" unicode="&#x1ef2;" horiz-adv-x="848" 
d="M490 970h-121l-220 187h181zM825 906q46 -293 -262 -589v-317h-206v335q-67 116 -174.5 288t-167.5 249l13 34q46 9 108 10t108 -10q40 -42 123.5 -182.5t121.5 -225.5q72 79 106 200.5t27 191.5q68 42 203 16z" />
    <glyph glyph-name="ygrave" unicode="&#x1ef3;" horiz-adv-x="765" 
d="M456 787h-130l-220 250h194zM738 688q13 -54 14.5 -121.5t-8 -142.5t-33.5 -155t-60 -155t-89.5 -146.5t-119.5 -126.5q-129 -107 -301 -109q-56 0 -88 17q-30 77 -2 145l33 20q31 -13 59 -13q87 -1 208 122q-79 57 -140 133.5t-95 143.5t-57.5 145t-31.5 122.5t-13 91.5
l10 29q41 10 93 10.5t91 -10.5q6 -42 10.5 -68t22.5 -92t42.5 -117.5t71.5 -118.5t108 -121q58 105 74 224.5t7 275.5q61 43 194 17z" />
    <glyph glyph-name="endash" unicode="&#x2013;" horiz-adv-x="1034" 
d="M188 290v158h657v-158h-657z" />
    <glyph glyph-name="emdash" unicode="&#x2014;" horiz-adv-x="1143" 
d="M188 290v158h767v-158h-767z" />
    <glyph glyph-name="quoteleft" unicode="&#x2018;" horiz-adv-x="338" 
d="M73 641l54 322h139l-12 -322h-181z" />
    <glyph glyph-name="quoteright" unicode="&#x2019;" horiz-adv-x="339" 
d="M73 640l12 323h181l-54 -323h-139z" />
    <glyph glyph-name="quotesinglbase" unicode="&#x201a;" horiz-adv-x="339" 
d="M73 -154l12 322h181l-54 -322h-139z" />
    <glyph glyph-name="quotedblleft" unicode="&#x201c;" horiz-adv-x="564" 
d="M73 641l54 322h139l-11 -322h-182zM298 641l54 322h139l-11 -322h-182z" />
    <glyph glyph-name="quotedblright" unicode="&#x201d;" horiz-adv-x="563" 
d="M73 640l11 323h182l-54 -323h-139zM297 640l11 323h182l-54 -323h-139z" />
    <glyph glyph-name="quotedblbase" unicode="&#x201e;" horiz-adv-x="563" 
d="M73 -154l12 322h181l-54 -322h-139zM297 -154l11 322h182l-54 -322h-139z" />
    <glyph glyph-name="dagger" unicode="&#x2020;" horiz-adv-x="697" 
d="M624 851v-168h-191v-814h-169v814h-191v168h191v160h169v-160h191z" />
    <glyph glyph-name="daggerdbl" unicode="&#x2021;" horiz-adv-x="700" 
d="M625 150v-169h-192v-112h-169v112h-190v169h190v533h-191v168h191v160h169v-160h191v-168h-191v-533h192z" />
    <glyph glyph-name="bullet" unicode="&#x2022;" horiz-adv-x="830" 
d="M414 197q-84 0 -143 64.5t-59 155.5q0 88 59.5 154.5t142.5 66.5q80 0 142 -67t62 -154q0 -90 -61.5 -155t-142.5 -65z" />
    <glyph glyph-name="ellipsis" unicode="&#x2026;" horiz-adv-x="972" 
d="M184 0q-44 0 -77.5 33.5t-33.5 77.5t33.5 77.5t77.5 33.5t77.5 -33.5t33.5 -77.5t-33.5 -77.5t-77.5 -33.5zM486 0q-44 0 -77.5 33.5t-33.5 77.5t33.5 77.5t77.5 33.5t78 -34t34 -77q0 -44 -34 -77.5t-78 -33.5zM789 0q-44 0 -77.5 33.5t-33.5 77.5t33.5 77.5t77.5 33.5
q43 0 77 -34t34 -77q0 -44 -33.5 -77.5t-77.5 -33.5z" />
    <glyph glyph-name="perthousand" unicode="&#x2030;" horiz-adv-x="1952" 
d="M353 489q-136 0 -208 51.5t-72 152.5q0 98 71 152.5t209 54.5q280 0 280 -207q0 -95 -72.5 -149.5t-207.5 -54.5zM239 0l652 889h216l-653 -889h-215zM353 619q35 0 60 19.5t25 54.5q0 36 -24 56t-61 20q-36 0 -60 -21t-24 -55q0 -36 23.5 -55t60.5 -19zM981 -16
q-134 0 -206 52t-72 154q0 97 71 151t207 54q282 0 282 -205q0 -96 -73 -151t-209 -55zM1598 -16q-135 0 -206.5 52t-71.5 154q0 97 71 151t207 54q282 0 282 -205q0 -96 -73 -151t-209 -55zM981 114q38 0 63 20t25 56q0 34 -25 54t-63 20q-34 0 -58.5 -20.5t-24.5 -53.5
q0 -36 24 -56t59 -20zM1598 114q37 0 62 19.5t25 56.5q0 34 -24.5 54t-62.5 20q-34 0 -58.5 -20.5t-24.5 -53.5q0 -36 24 -56t59 -20z" />
    <glyph glyph-name="guilsinglleft" unicode="&#x2039;" horiz-adv-x="681" 
d="M608 670l-304 -230l304 -221l-52 -136l-483 298v120l478 301z" />
    <glyph glyph-name="guilsinglright" unicode="&#x203a;" horiz-adv-x="681" 
d="M130 802l478 -301v-120l-483 -298l-52 136l304 221l-304 230z" />
    <glyph glyph-name="fraction" unicode="&#x2044;" horiz-adv-x="1113" 
d="M73 -132l803 1193h165l-804 -1193h-164z" />
    <glyph glyph-name="Euro" unicode="&#x20ac;" horiz-adv-x="901" 
d="M737 244l91 -130q-47 -50 -137.5 -82t-194.5 -32q-151 0 -264 70.5t-157 210.5h-57v133h35q-1 12 -1 36q0 17 1 26h-35v134h59q45 133 159 203.5t260 70.5q192 0 313 -94l-89 -128q-71 53 -201 53q-159 0 -218 -105h252v-134h-286q-1 -8 -1 -26q0 -12 2 -36h252v-133
h-210q70 -112 223 -112q114 0 204 75z" />
    <glyph glyph-name="uni2116" unicode="&#x2116;" horiz-adv-x="1616" 
d="M1237 310q-137 0 -216 79t-79 205q0 131 91 222.5t224 91.5t207.5 -73.5t78.5 -197.5q4 -146 -83.5 -236.5t-222.5 -90.5zM658 890q35 13 106 11t100 -11v-890h-144l-441 542v-542h-206v853q18 23 68.5 38t74.5 7l442 -543v535zM1252 744q-47 0 -80.5 -43t-33.5 -104
q0 -54 27 -88t75 -34q46 0 77.5 43t30.5 101q-1 54 -26.5 89.5t-69.5 35.5zM982 86v150h524v-150h-524z" />
    <glyph glyph-name="trademark" unicode="&#x2122;" horiz-adv-x="1076" 
d="M427 890v-153h-100v-327h-156v327h-98v153h354zM1003 890v-480h-154v206l-64 -176h-102l-69 168v-198h-155v480h174l101 -252l95 252h174z" />
    <glyph glyph-name="estimated" unicode="&#x212e;" horiz-adv-x="864" 
d="M437 895q77 0 143 -32.5t115.5 -94t75.5 -158.5t19 -218h-511l3 -259q63 -76 165 -76q120 0 231 125q24 -13 33.5 -27t13.5 -35q-55 -61 -129.5 -99.5t-144.5 -38.5q-177 0 -277.5 127t-100.5 327q0 197 104 328t260 131zM605 468v273q-73 79 -168 79q-48 0 -92 -20
t-70 -54l3 -278h327z" />
    <glyph glyph-name="partialdiff" unicode="&#x2202;" horiz-adv-x="878" 
d="M401 910q86 0 156.5 -30.5t115.5 -80t75.5 -115.5t43.5 -133.5t13 -137.5q0 -203 -102.5 -317t-273.5 -114q-165 0 -260.5 89t-95.5 225q0 124 87 199.5t221 75.5q110 0 209 -45q-16 103 -65.5 159t-131.5 56q-110 0 -193 -72q-55 68 -55 141q30 43 107 71.5t149 28.5z
M429 151q77 0 119.5 58.5t48.5 167.5q-72 28 -157 28q-78 0 -116 -33.5t-38 -91.5q0 -54 40 -91.5t103 -37.5z" />
    <glyph glyph-name="minus" unicode="&#x2212;" horiz-adv-x="815" 
d="M124 360v169h567v-169h-567z" />
    <glyph glyph-name="radical" unicode="&#x221a;" horiz-adv-x="1053" 
d="M1053 890v-173h-190l-324 -717h-147l-319 480h222l145 -228l271 638h342z" />
    <glyph glyph-name="infinity" unicode="&#x221e;" horiz-adv-x="1044" 
d="M716 759q112 0 183.5 -67.5t71.5 -207.5t-71.5 -207.5t-183.5 -67.5q-121 0 -193 128q-74 -128 -196 -128q-112 0 -183 67.5t-71 207.5t71 207.5t183 67.5q124 0 194 -127q66 127 195 127zM330 340q48 0 76.5 35t53.5 102q-30 74 -58.5 112t-71.5 38q-40 0 -70 -37
t-30 -106q0 -71 29.5 -107.5t70.5 -36.5zM715 340q43 0 71 36t28 108q0 69 -29 106t-70 37q-43 0 -71 -36t-58 -109q29 -71 57 -106.5t72 -35.5z" />
    <glyph glyph-name="approxequal" unicode="&#x2248;" horiz-adv-x="737" 
d="M73 485q0 99 46 166.5t125 67.5q53 0 122.5 -33t86.5 -33q23 0 39.5 16t16.5 50h155q0 -98 -45 -166t-125 -68q-43 0 -85 16.5t-76 33t-57 16.5q-21 0 -34.5 -17.5t-13.5 -48.5h-155zM73 212q0 99 46 166.5t125 67.5q53 0 122.5 -33t86.5 -33q23 0 39.5 16t16.5 50h155
q0 -99 -45 -166.5t-125 -67.5q-43 0 -85 16.5t-76 33t-57 16.5q-21 0 -34.5 -17.5t-13.5 -48.5h-155z" />
    <glyph glyph-name="notequal" unicode="&#x2260;" horiz-adv-x="743" 
d="M670 886l-99 -220h84v-169h-160l-48 -108h208v-168h-284l-85 -190h-202l85 190h-81v168h156l49 108h-205v169h280l99 220h203z" />
    <glyph glyph-name="lessequal" unicode="&#x2264;" horiz-adv-x="681" 
d="M608 689l-310 -213l310 -220l-67 -142l-468 301v122l473 298zM98 -64v145h477v-145h-477z" />
    <glyph glyph-name="greaterequal" unicode="&#x2265;" horiz-adv-x="681" 
d="M135 853l473 -298v-122l-468 -301l-67 142l310 220l-310 213zM90 -64v146h477v-146h-477z" />
    <glyph glyph-name="i.loclTRK" horiz-adv-x="317" 
d="M158 778q-44 0 -77.5 33.5t-33.5 78.5q0 43 33.5 76.5t77.5 33.5q43 0 77 -33.5t34 -76.5q0 -45 -33.5 -78.5t-77.5 -33.5zM57 0v688q33 10 104 10t99 -10v-688h-203z" />
    <glyph glyph-name="uni00A0.001" horiz-adv-x="374" 
 />
    <glyph glyph-name="uni030C.alt" 
d="M-289 630l16 333h194l-64 -333h-146z" />
    <glyph glyph-name="uni0308.case" 
d="M-439 969q-35 0 -60.5 25.5t-25.5 60.5q0 34 26 60t60 26t60 -26t26 -60t-26 -60t-60 -26zM-164 969q-34 0 -60 25.5t-26 60.5q0 34 26 60t60 26q33 0 59 -26t26 -60t-26 -60t-59 -26z" />
    <glyph glyph-name="uni0307.case" 
d="M-182 969q-34 0 -60 25.5t-26 60.5q0 34 26 60t60 26t60 -26t26 -60t-26 -60t-60 -26z" />
    <glyph glyph-name="gravecomb.case" 
d="M-199 957l-220 187h181l160 -187h-121z" />
    <glyph glyph-name="acutecomb.case" 
d="M-360 952l158 188h181l-218 -188h-121z" />
    <glyph glyph-name="uni030B.case" 
d="M-602 958l128 178h159l-181 -178h-106zM-390 958l145 178h182l-220 -178h-107z" />
    <glyph glyph-name="uni0302.case" 
d="M-78 951h-141l-95 97l-94 -97h-143l190 223h95z" />
    <glyph glyph-name="uni030C.case" 
d="M-189 1192h142l-188 -233h-95l-190 233h143l94 -101z" />
    <glyph glyph-name="uni0306.case" 
d="M-318 771q-107 0 -172 52t-65 155h140q0 -40 26 -67t71 -27q48 0 74 28t26 66h140q0 -99 -67.5 -153t-172.5 -54z" />
    <glyph glyph-name="uni030A.case" 
d="M-235 868q-89 0 -141.5 42.5t-52.5 111.5q0 66 51 110t143 44q91 0 139.5 -43t48.5 -111q0 -66 -52.5 -110t-135.5 -44zM-238 956q35 0 57.5 19t22.5 47q0 30 -21 48t-59 18q-37 0 -58.5 -18.5t-21.5 -47.5t22.5 -47.5t57.5 -18.5z" />
    <glyph glyph-name="tildecomb.case" 
d="M-175 937q-32 0 -64 17.5t-57 35t-41 17.5q-38 0 -38 -65h-115q0 86 34 144t93 58q40 0 91 -35t68 -35t29 16t12 50l116 -1q0 -85 -34 -143.5t-94 -58.5z" />
    <glyph glyph-name="uni0304.case" 
d="M-528 826v135h450v-135h-450z" />
    <glyph glyph-name="uni0327.case" 
d="M-204 -376q-83 -2 -150 75l91 97q28 -35 57 -35q13 0 22 10.5t9 26.5q0 21 -28.5 49.5t-34.5 38.5q-37 54 -37 114h121q0 -22 13 -39t34.5 -38t32.5 -40q27 -46 27 -97q0 -65 -46 -113t-111 -49z" />
    <glyph glyph-name="uni0328.case" 
d="M-234 -381q-66 -2 -108 36.5t-42 112.5q0 58 34 131.5t90 120.5l125 -13q-103 -124 -103 -203q0 -19 10 -28.5t25 -8.5q17 0 35.5 12t28.5 31l92 -76q-31 -49 -84 -82t-103 -33z" />
    </font>
</defs>
</svg>
