<?xml version="1.0" standalone="no"?>
<!DOCTYPE svg PUBLIC "-//W3C//DTD SVG 1.1//EN" "http://www.w3.org/Graphics/SVG/1.1/DTD/svg11.dtd" >
<svg xmlns="http://www.w3.org/2000/svg" xmlns:xlink="http://www.w3.org/1999/xlink" version="1.1">
<metadata>
Created by FontForge 20170731 at Mon May 11 15:12:36 2020
 By Aleksey,,,
Copyright (c) 2019 by Mans Greback. All rights reserved.
</metadata>
<defs>
<font id="Quache-Bold" horiz-adv-x="0" >
  <font-face 
    font-family="Quache Bold"
    font-weight="700"
    font-stretch="normal"
    units-per-em="1000"
    panose-1="0 0 8 0 0 0 0 0 0 0"
    ascent="800"
    descent="-200"
    x-height="679"
    cap-height="912"
    bbox="-595 -379.027 1826 1311"
    underline-thickness="50"
    underline-position="-200"
    unicode-range="U+000D-2265"
  />
<missing-glyph horiz-adv-x="916" 
d="M0 -26v995h916v-995h-916zM65 40h786v864h-786v-864zM390 307q-14 52 -2.5 92.5t36 66t57 49t61.5 41t49 42t20 52.5q0 40 -38.5 68t-116.5 28q-127 0 -240 -92l-75 76q65 58 149 91.5t172 33.5q138 0 212.5 -55t74.5 -141q0 -46 -23 -83.5t-57 -60t-72.5 -46.5t-70 -44
t-48.5 -50.5t-10 -67.5h-78zM432 86q-27 0 -48 20.5t-21 46.5t21 47t48 21t47.5 -21t20.5 -47t-20.5 -46.5t-47.5 -20.5z" />
    <glyph glyph-name="f_i.liga" unicode="fi" horiz-adv-x="753" 
d="M605 791q-38 0 -65.5 27t-27.5 64q0 36 28 63.5t65 27.5t65 -28t28 -63q0 -37 -28 -64t-65 -27zM135 0v550h-138v132h141q18 275 239 276q47 0 106 -14q6 -25 -1 -70t-20 -60q-30 10 -54 10q-98 -3 -107 -142h385v-682h-161v550h-228v-550h-162z" />
    <glyph glyph-name="f_l.liga" unicode="fl" horiz-adv-x="825" 
d="M691 -18q-167 0 -167 212v624q-51 17 -93 17q-118 -3 -131 -156h148v-132h-151v-547h-162v547h-138v132h140q10 141 77.5 209t208.5 69q127 0 262 -45v-670q0 -128 58 -128q14 0 48 9q11 -21 14 -57t-4 -62q-65 -21 -110 -22z" />
    <glyph glyph-name=".notdef" horiz-adv-x="916" 
d="M0 -26v995h916v-995h-916zM65 40h786v864h-786v-864zM390 307q-14 52 -2.5 92.5t36 66t57 49t61.5 41t49 42t20 52.5q0 40 -38.5 68t-116.5 28q-127 0 -240 -92l-75 76q65 58 149 91.5t172 33.5q138 0 212.5 -55t74.5 -141q0 -46 -23 -83.5t-57 -60t-72.5 -46.5t-70 -44
t-48.5 -50.5t-10 -67.5h-78zM432 86q-27 0 -48 20.5t-21 46.5t21 47t48 21t47.5 -21t20.5 -47t-20.5 -46.5t-47.5 -20.5z" />
    <glyph glyph-name=".null" 
 />
    <glyph glyph-name="nonmarkingreturn" horiz-adv-x="333" 
 />
    <glyph glyph-name="CR" unicode="&#xd;" horiz-adv-x="600" 
 />
    <glyph glyph-name="space" unicode=" " horiz-adv-x="394" 
 />
    <glyph glyph-name="exclam" unicode="!" horiz-adv-x="432" 
d="M152 297l-14 627h154l-13 -627h-127zM216 0q-34 0 -59 25t-25 57t25.5 57t58.5 25q32 0 58 -25.5t26 -56.5q0 -32 -26 -57t-58 -25z" />
    <glyph glyph-name="quotedbl" unicode="&#x22;" horiz-adv-x="551" 
d="M82 645l23 315h150l-58 -315h-115zM297 645l22 315h150l-57 -315h-115z" />
    <glyph glyph-name="numbersign" unicode="#" horiz-adv-x="825" 
d="M743 547h-96l-17 -183h81v-122h-92l-13 -136h-129l13 136h-188l-13 -136h-130l13 136h-90v122h101l18 183h-87v122h98l12 122h130l-12 -122h187l11 122h130l-11 -122h84v-122zM501 364l17 183h-187l-18 -183h188z" />
    <glyph glyph-name="dollar" unicode="$" horiz-adv-x="921" 
d="M839 247q0 -92 -72.5 -159.5t-223.5 -83.5v-136h-112v133q-102 4 -198.5 45t-150.5 100l66 113q59 -59 146.5 -92t189.5 -32q94 0 142.5 34.5t48.5 83.5q0 34 -30 59.5t-78 43t-106 34t-116 37.5t-106 47.5t-78 70.5t-30 100q0 94 76.5 159.5t222.5 74.5v128h113v-131
q91 -10 162 -42.5t108 -71.5l-43 -120q-49 45 -134 74.5t-170 29.5q-89 0 -131.5 -28.5t-42.5 -64.5q0 -31 30 -54t78.5 -38.5t107 -31.5t116.5 -38t106.5 -51.5t78.5 -79t30 -113.5z" />
    <glyph glyph-name="percent" unicode="%" horiz-adv-x="1304" 
d="M358 490q-131 0 -203.5 51t-72.5 149q0 96 71.5 149.5t204.5 53.5q136 0 206 -53t70 -150q0 -93 -73 -146.5t-203 -53.5zM212 0l706 889h178l-707 -889h-177zM358 594q50 0 84.5 26t34.5 70q0 45 -33.5 71.5t-85.5 26.5t-85 -27t-33 -71q0 -45 33 -70.5t85 -25.5z
M938 -13q-130 0 -202.5 52t-72.5 150q0 95 71.5 148t203.5 53q136 0 206.5 -52t70.5 -149q0 -94 -73.5 -148t-203.5 -54zM938 92q51 0 85.5 26t34.5 71t-33.5 70.5t-86.5 25.5q-50 0 -84 -26.5t-34 -69.5q0 -45 33.5 -71t84.5 -26z" />
    <glyph glyph-name="ampersand" unicode="&#x26;" horiz-adv-x="1043" 
d="M961 113l-89 -113l-108 81q-124 -99 -323 -99q-172 0 -265.5 62t-93.5 176q0 140 186 245q-132 125 -132 231q0 94 82 162t244 68q155 0 235.5 -66t80.5 -152q0 -47 -20.5 -87.5t-60 -73t-80.5 -56t-99 -49.5q32 -24 49 -36l162 -120q35 72 32 152h139q16 -136 -45 -247z
M458 792q-79 0 -119 -30t-40 -71q0 -66 107 -160q103 47 155.5 85.5t52.5 83.5q0 36 -41 64t-115 28zM453 120q108 0 185 56l-189 142l-76 58q-62 -32 -95 -65t-32 -75q0 -52 54 -84t153 -32z" />
    <glyph glyph-name="quotesingle" unicode="'" horiz-adv-x="338" 
d="M82 645l24 315h149l-58 -315h-115z" />
    <glyph glyph-name="parenleft" unicode="(" horiz-adv-x="705" 
d="M558 -263q-123 50 -207.5 149t-121.5 217t-37 250q0 89 22 178.5t67.5 179t126 167t187.5 127.5l42 -84l-7 -24q-77 -44 -135.5 -110t-91.5 -140.5t-49 -148t-16 -145.5q0 -172 64 -305t192 -200l5 -26z" />
    <glyph glyph-name="parenright" unicode=")" horiz-adv-x="724" 
d="M71 -263l-40 85l4 26q128 67 192 200t64 305q0 72 -16 145.5t-49 148t-91.5 140.5t-135.5 110l-7 24l42 84q107 -50 187.5 -127.5t126 -167t67.5 -179t22 -178.5q0 -132 -37 -250t-121.5 -217t-207.5 -149z" />
    <glyph glyph-name="asterisk" unicode="*" horiz-adv-x="613" 
d="M531 736l-147 -43l111 -119l-108 -82l-80 143l-80 -143l-109 82l111 119l-147 43l45 119l126 -66l-18 155h140l-17 -155l127 66z" />
    <glyph glyph-name="plus" unicode="+" horiz-adv-x="744" 
d="M662 510v-135h-221v-254h-138v254h-221v135h221v254h138v-254h221z" />
    <glyph glyph-name="comma" unicode="," horiz-adv-x="350" 
d="M45 -185l45 355h141l-57 -355h-129z" />
    <glyph glyph-name="hyphen" unicode="-" horiz-adv-x="962" 
d="M194 303v126h574v-126h-574z" />
    <glyph glyph-name="period" unicode="." horiz-adv-x="451" 
d="M226 0q-38 0 -66 27t-28 64q0 36 28.5 63.5t65.5 27.5t65 -27.5t28 -63.5q0 -37 -28 -64t-65 -27z" />
    <glyph glyph-name="slash" unicode="/" horiz-adv-x="940" 
d="M-16 -132l812 1139h161l-813 -1139h-160z" />
    <glyph glyph-name="zero" unicode="0" horiz-adv-x="852" 
d="M426 -18q-169 0 -270.5 131t-101.5 339q0 221 102 347t270 126q169 0 270.5 -125t101.5 -348q0 -202 -102.5 -336t-269.5 -134zM426 117q95 0 151.5 95t56.5 240q0 156 -55.5 247.5t-152.5 91.5q-95 0 -151 -93.5t-56 -245.5q0 -148 56 -241.5t151 -93.5z" />
    <glyph glyph-name="one" unicode="1" horiz-adv-x="594" 
d="M542 114q8 -57 0 -114h-490q-8 54 0 114l166 22v604l-147 -36q-12 53 -7 114l226 72h94v-755z" />
    <glyph glyph-name="two" unicode="2" horiz-adv-x="815" 
d="M64 0v128q29 59 81 112.5t107 90t113.5 75.5t103.5 71.5t74.5 76.5t29.5 93q0 65 -47 104t-139 39q-82 0 -147 -29t-101 -72q-47 39 -73 100q46 60 137 98t207 38q158 0 245.5 -76t87.5 -197q0 -70 -34 -130.5t-91 -108t-117 -89t-128 -93t-108 -99.5h488q15 -66 0 -132
h-689z" />
    <glyph glyph-name="three" unicode="3" horiz-adv-x="819" 
d="M581 483q183 -78 183 -229q0 -120 -95 -196t-272 -76q-101 0 -201 35.5t-142 84.5q6 53 64 120q37 -40 110.5 -72.5t156.5 -32.5q99 0 156 38t57 99q0 73 -89.5 115t-233.5 43q-19 73 0 141q152 -1 226 33t74 95q0 48 -48.5 79t-143.5 31q-82 0 -160 -27.5t-105 -53.5
q-36 40 -51 113q40 40 132 71.5t201 31.5q159 0 249.5 -66t90.5 -168q0 -136 -159 -209z" />
    <glyph glyph-name="four" unicode="4" horiz-adv-x="827" 
d="M765 323q15 -61 0 -132h-68v-191h-164v191h-479v129l509 570h134v-567h68zM243 323h298l9 364z" />
    <glyph glyph-name="five" unicode="5" horiz-adv-x="822" 
d="M422 618q167 0 256.5 -87.5t89.5 -229.5q0 -132 -97.5 -225.5t-263.5 -93.5q-118 0 -209.5 39.5t-143.5 97.5q6 71 57 124q117 -122 271 -122q103 0 159 52.5t56 128.5q0 84 -67 136t-189 52q-113 -2 -239 -35l39 435h579q10 -70 -10 -132h-416l-17 -156q67 14 145 16z
" />
    <glyph glyph-name="six" unicode="6" horiz-adv-x="854" 
d="M474 554q148 0 236.5 -74.5t88.5 -193.5q0 -131 -100 -217.5t-281 -86.5q-167 0 -265.5 94.5t-98.5 256.5q0 85 27.5 163.5t85.5 154.5t157 145t235 126q32 -22 53.5 -55t25.5 -64q-128 -58 -220 -126t-142 -158q98 35 198 35zM419 117q97 0 153.5 49t56.5 116
q0 60 -50 99t-153 39q-110 0 -196 -37q-5 -37 -5 -70q0 -84 48.5 -140t145.5 -56z" />
    <glyph glyph-name="seven" unicode="7" horiz-adv-x="743" 
d="M26 890h676v-151q-138 -82 -220.5 -287t-86.5 -452h-176q6 245 88 441.5t231 316.5h-512q-19 54 0 132z" />
    <glyph glyph-name="eight" unicode="8" horiz-adv-x="855" 
d="M627 496q78 -38 126 -97t48 -136q0 -123 -92 -202t-283 -79q-189 0 -280.5 79t-91.5 202q0 152 172 233q-147 70 -147 191q0 98 88.5 168.5t258.5 70.5q172 0 260.5 -68.5t88.5 -166.5q0 -62 -41 -112.5t-107 -82.5zM426 792q-95 0 -140.5 -36t-45.5 -83q0 -86 187 -121
q185 35 185 125q0 47 -44.5 81t-141.5 34zM426 117q100 0 152.5 45t52.5 107q0 65 -52 110t-153 66q-98 -19 -150 -64.5t-52 -110.5q0 -63 51.5 -108t150.5 -45z" />
    <glyph glyph-name="nine" unicode="9" horiz-adv-x="843" 
d="M421 926q169 0 268.5 -93.5t99.5 -252.5q0 -384 -509 -595q-32 23 -53.5 55.5t-25.5 63.5q305 136 403 317q-116 -63 -242 -63q-141 0 -225.5 75t-84.5 194q0 129 97.5 214t271.5 85zM217 631q0 -60 48.5 -100.5t152.5 -40.5q121 0 209 39q1 21 1 63q0 82 -52.5 140
t-155.5 58q-93 0 -148 -47t-55 -112z" />
    <glyph glyph-name="colon" unicode=":" horiz-adv-x="451" 
d="M226 520q-38 0 -66 27t-28 64q0 36 28.5 63.5t65.5 27.5t65 -27.5t28 -63.5q0 -37 -28 -64t-65 -27zM226 0q-38 0 -66 27t-28 64q0 36 28.5 63.5t65.5 27.5t65 -27.5t28 -63.5q0 -37 -28 -64t-65 -27z" />
    <glyph glyph-name="semicolon" unicode=";" horiz-adv-x="367" 
d="M152 520q-38 0 -65.5 27t-27.5 64q0 36 28 63.5t65 27.5t65.5 -27.5t28.5 -63.5t-28.5 -63.5t-65.5 -27.5zM45 -185l45 355h141l-57 -355h-129z" />
    <glyph glyph-name="less" unicode="&#x3c;" horiz-adv-x="723" 
d="M640 665l-367 -227l367 -232l-54 -113l-504 296v98l509 294z" />
    <glyph glyph-name="equal" unicode="=" horiz-adv-x="742" 
d="M82 500v135h578v-135h-578zM82 250v135h578v-135h-578z" />
    <glyph glyph-name="greater" unicode="&#x3e;" horiz-adv-x="723" 
d="M132 781l509 -294v-98l-504 -296l-54 113l367 232l-367 227z" />
    <glyph glyph-name="question" unicode="?" horiz-adv-x="870" 
d="M355 274q-16 62 -3.5 110t41.5 78.5t67.5 58.5t72.5 49t58 50t24 61q0 46 -45.5 79.5t-136.5 33.5q-154 0 -284 -109l-91 92q77 69 177.5 109t204.5 40q165 0 254 -66t89 -168q0 -48 -20.5 -87.5t-52.5 -66t-70.5 -50t-75 -45t-65.5 -44.5t-43.5 -55t-6.5 -70h-94zM406 0
q-33 0 -59 25t-26 57t26 57t59 25t57.5 -25t24.5 -57t-24.5 -57t-57.5 -25z" />
    <glyph glyph-name="at" unicode="@" horiz-adv-x="1239" 
d="M616 -231q-238 0 -386 142.5t-148 386.5t150.5 393.5t396.5 149.5q239 0 383.5 -135.5t144.5 -351.5q0 -133 -63 -215.5t-173 -82.5t-143 77q-23 -32 -64.5 -54.5t-97.5 -22.5q-119 0 -178.5 72t-59.5 180t59.5 179t178.5 71q83 0 141 -45l1 30h102v-252q0 -51 15 -75.5
t50 -24.5q46 0 68 46t22 117q0 174 -96 269.5t-290 95.5q-190 0 -296.5 -119.5t-106.5 -301.5q0 -178 104.5 -291.5t283.5 -113.5q122 0 219 68l74 -99q-123 -93 -291 -93zM640 177q34 0 62.5 16.5t43.5 42.5v159q-41 43 -106 43q-58 0 -88.5 -38t-30.5 -92
q0 -58 29.5 -94.5t89.5 -36.5z" />
    <glyph glyph-name="A" unicode="A" horiz-adv-x="966" 
d="M553 902q26 -56 117.5 -269.5t168.5 -382.5t115 -226l-10 -24q-129 -3 -176 18q-19 27 -82 179h-422l-75 -197h-177l382 902q29 12 81 11.5t78 -11.5zM314 329h320q-29 77 -85.5 225.5t-74.5 195.5z" />
    <glyph glyph-name="B" unicode="B" horiz-adv-x="860" 
d="M830 309q1 -153 -105 -240t-297 -88q-129 0 -205 9.5t-164 35.5v859q149 41 329 41q104 0 180 -20.5t115 -56t56.5 -74t17.5 -82.5t-26.5 -82.5t-72.5 -64.5q172 -64 172 -237zM394 800q-94 0 -171 -16v-226q106 20 231 20q25 0 38 -1q51 10 77.5 36.5t26.5 63.5
q0 49 -46.5 86t-155.5 37zM417 114q128 0 193 49.5t65 134.5q-1 72 -58 109.5t-185 37.5q-107 0 -209 -23v-291q83 -17 194 -17z" />
    <glyph glyph-name="C" unicode="C" horiz-adv-x="892" 
d="M496 -22q-130 0 -235 55.5t-168 165t-63 255.5q0 199 134.5 335t333.5 137q169 0 265 -93.5t86 -247.5q-108 -24 -165 -10q7 93 -45.5 153t-140.5 60q-126 -1 -212 -101t-86 -243q0 -145 80.5 -236t215.5 -92q143 0 261 83q33 -13 54 -48t24 -63q-73 -54 -165.5 -82
t-173.5 -28z" />
    <glyph glyph-name="D" unicode="D" horiz-adv-x="900" 
d="M379 926q231 0 361 -126.5t130 -335.5q0 -221 -125.5 -351.5t-346.5 -131.5q-111 0 -181.5 9.5t-157.5 35.5v860q141 40 320 40zM396 114q146 0 224.5 93.5t79.5 252.5q0 150 -86 242t-240 92q-80 0 -151 -11v-653q77 -16 173 -16z" />
    <glyph glyph-name="E" unicode="E" horiz-adv-x="803" 
d="M759 132q15 -17 15 -62t-15 -70h-700v886l17 16h662q8 -29 -2 -71t-26 -61h-487v-264h442q8 -32 -2 -75.5t-26 -57.5h-414v-241h536z" />
    <glyph glyph-name="F" unicode="F" horiz-adv-x="778" 
d="M717 769h-494v-308h454q8 -32 -2 -75t-26 -57h-426v-329h-164v886l17 16h668q9 -30 -1 -72t-26 -61z" />
    <glyph glyph-name="G" unicode="G" horiz-adv-x="901" 
d="M483 788q-131 0 -207 -97t-76 -244q0 -146 80 -236.5t216 -90.5q112 0 203 39v176h-266q-8 31 2 74.5t25 58.5h379l19 -21v-359q-63 -51 -164 -78.5t-198 -27.5q-202 0 -334 127.5t-132 344.5q0 125 52.5 231.5t156.5 173.5t241 67q166 0 274.5 -90.5t104.5 -225.5
q-35 -8 -82.5 -12.5t-81.5 1.5q-7 89 -66 139t-146 50z" />
    <glyph glyph-name="H" unicode="H" horiz-adv-x="860" 
d="M637 902q31 11 84.5 9t79.5 -9v-902h-164v345h-414v-345h-164v902q31 11 85.5 9t78.5 -9v-424h414v424z" />
    <glyph glyph-name="I" unicode="I" horiz-adv-x="273" 
d="M59 0v903q30 11 81 9t74 -9v-903h-155z" />
    <glyph glyph-name="J" unicode="J" horiz-adv-x="856" 
d="M408 -18q-105 0 -203.5 49t-173.5 134q11 39 37.5 71t54.5 41q54 -72 125.5 -114.5t143.5 -42.5q115 0 176 76.5t61 202.5v503q35 9 89 8t75 -8v-531q0 -104 -43.5 -191t-133 -142.5t-208.5 -55.5z" />
    <glyph glyph-name="K" unicode="K" horiz-adv-x="959" 
d="M540 456q11 -12 31 -36q86 -100 130 -149.5t110.5 -115.5t128.5 -115l-2 -25q-23 -8 -75 -17t-96 -9q-78 51 -362 389q-85 -47 -182 -90v-288h-164v902q30 11 85.5 9t78.5 -9v-464q157 74 256 142q242 163 233 314q56 30 155 10q16 -90 -50.5 -198.5t-202.5 -201.5
q-24 -16 -74 -48z" />
    <glyph glyph-name="L" unicode="L" horiz-adv-x="794" 
d="M90 0l-31 31v871q31 11 84.5 9.5t79.5 -9.5v-770h528q15 -18 15.5 -62t-15.5 -70h-661z" />
    <glyph glyph-name="M" unicode="M" horiz-adv-x="1113" 
d="M1083 0h-165l-58 597l-253 -465h-104l-254 465l-55 -597h-164l87 876q18 18 69 25.5t72 0.5l298 -571l297 571q21 7 71 -0.5t69 -25.5z" />
    <glyph glyph-name="N" unicode="N" horiz-adv-x="954" 
d="M731 902q29 11 84.5 9t79.5 -9v-902h-119l-553 627v-627h-164v871q15 18 57 30.5t62 5.5l553 -636v631z" />
    <glyph glyph-name="O" unicode="O" horiz-adv-x="940" 
d="M430 -18q-178 0 -289 123t-111 304q0 142 61.5 260.5t172.5 187.5t248 69q113 0 205 -61t142.5 -162.5t50.5 -221.5q0 -132 -61.5 -246.5t-173 -183.5t-245.5 -69zM439 120q84 0 153.5 52.5t108.5 137.5t39 181q1 129 -66 212.5t-177 83.5q-129 0 -213.5 -110t-83.5 -268
q0 -123 62 -206t177 -83z" />
    <glyph glyph-name="P" unicode="P" horiz-adv-x="860" 
d="M424 926q195 0 300.5 -97.5t105.5 -258.5q0 -151 -112.5 -245t-302.5 -94q-100 0 -192 19v-250h-164v882q159 44 365 44zM660 572q1 104 -62.5 163t-184.5 59q-108 0 -190 -19v-387q83 -25 183 -25q116 0 184.5 55.5t69.5 153.5z" />
    <glyph glyph-name="Q" unicode="Q" horiz-adv-x="940" 
d="M653 -52q88 0 208 52q21 -22 28.5 -60t-1.5 -75q-106 -27 -190 -28q-231 -5 -320 148q-157 19 -252.5 138.5t-95.5 285.5q0 142 61.5 260.5t172.5 187.5t248 69q113 0 205 -61t142.5 -162.5t50.5 -221.5q1 -175 -106 -313t-273 -175q44 -47 122 -45zM200 409
q0 -123 62 -206t177 -83q84 0 153.5 52.5t108.5 137.5t39 181q1 129 -66 212.5t-177 83.5q-129 0 -213.5 -110t-83.5 -268z" />
    <glyph glyph-name="R" unicode="R" horiz-adv-x="943" 
d="M610 315q84 -96 148 -160.5t137 -120.5l-2 -26q-20 -7 -74.5 -14t-100.5 -6q-55 31 -289 294h-17q-92 0 -189 22v-304h-164v882q170 44 369 44q190 0 296.5 -85t106.5 -235q0 -103 -59 -178t-162 -113zM223 778v-342q91 -22 189 -22q109 -1 179 50.5t70 143.5
q0 83 -64 134.5t-187 51.5q-104 0 -187 -16z" />
    <glyph glyph-name="S" unicode="S" horiz-adv-x="881" 
d="M467 -18q-121 0 -235 36.5t-202 104.5q3 27 28.5 69.5t59.5 51.5q75 -61 165.5 -95.5t182.5 -34.5q103 0 159 42.5t56 105.5q0 66 -57.5 99t-177.5 40q-158 6 -249.5 70.5t-90.5 185.5q1 81 50.5 143.5t128.5 94t173 31.5q181 0 281.5 -83t100.5 -199q-33 -10 -79.5 -14
t-79.5 3q-5 73 -62.5 117t-162.5 44q-79 0 -129.5 -38t-50.5 -96q-1 -61 54 -92t140 -36q381 -18 381 -261q0 -132 -105.5 -210.5t-278.5 -78.5z" />
    <glyph glyph-name="T" unicode="T" horiz-adv-x="889" 
d="M866 902q7 -29 -2.5 -71.5t-25.5 -60.5h-313v-770h-170v770h-331q-7 29 -2 68.5t19 63.5h825z" />
    <glyph glyph-name="U" unicode="U" horiz-adv-x="952" 
d="M466 -24q-200 0 -303.5 108.5t-103.5 312.5v505q28 10 86.5 8.5t79.5 -8.5v-512q0 -131 62 -203t179 -72q124 0 192.5 79t68.5 208v500q29 10 85.5 8.5t79.5 -8.5v-502q0 -190 -111 -307t-315 -117z" />
    <glyph glyph-name="V" unicode="V" horiz-adv-x="919" 
d="M397 0l-45 28q-87 247 -199.5 525.5t-140.5 323.5l7 25q84 17 157 0q54 -96 141.5 -309t163.5 -456h12q131 187 197.5 398t38.5 356q24 14 68 17t88 -6q45 -160 -30 -399t-253 -473l-54 -30h-151z" />
    <glyph glyph-name="W" unicode="W" horiz-adv-x="1325" 
d="M380 0l-40 21q-85 260 -180 506t-148 349l9 26q31 8 75.5 8t79.5 -8q65 -123 146 -341.5t142 -423.5h5q48 80 105.5 208t75.5 201q-4 16 -57 174q14 23 62 43.5t91 16.5q34 -73 101 -284.5t102 -358.5h7q118 169 160.5 383t12.5 371q53 32 154 11q20 -75 20.5 -177
t-20.5 -218.5t-75 -243.5t-136 -233l-52 -30h-170l-28 17q-39 133 -98 308q-17 -61 -63 -159t-76 -146l-40 -20h-165z" />
    <glyph glyph-name="X" unicode="X" horiz-adv-x="939" 
d="M597 426q25 -30 154.5 -191t175.5 -216l-6 -19h-183q-27 24 -81 90.5t-118 149t-86 109.5q-78 -55 -130.5 -103t-93.5 -113t-50 -133h-167q9 79 37.5 145t78.5 123.5t101 100.5t130 99q-24 30 -96.5 123t-132.5 169t-95 116l9 26q34 8 91 8.5t90 -8.5q43 -47 277 -358
q129 103 182 183.5t46 162.5q48 32 158 12q12 -44 4.5 -96t-34 -106t-92 -124t-169.5 -150z" />
    <glyph glyph-name="Y" unicode="Y" horiz-adv-x="889" 
d="M868 902q8 -57 -1.5 -118.5t-40.5 -136.5t-98.5 -162t-166.5 -176v-309h-164v323q-69 109 -193.5 292.5t-188.5 259.5l11 27q38 7 88.5 8t88.5 -8q42 -45 146 -202t153 -246q100 92 155.5 222t47.5 214q55 33 163 12z" />
    <glyph glyph-name="Z" unicode="Z" horiz-adv-x="861" 
d="M815 132q15 -17 16 -62t-16 -70h-754q-15 12 -24.5 49.5t-5.5 63.5q122 195 264.5 376t272.5 281h-509q-15 17 -16 62t16 70h725q14 -11 24.5 -55.5t7.5 -73.5q-141 -98 -304 -287.5t-265 -353.5h568z" />
    <glyph glyph-name="bracketleft" unicode="[" horiz-adv-x="511" 
d="M82 -247v1254h347v-123h-219v-1009h219v-122h-347z" />
    <glyph glyph-name="backslash" unicode="\" horiz-adv-x="933" 
d="M953 -132h-161l-812 1139h161z" />
    <glyph glyph-name="bracketright" unicode="]" horiz-adv-x="511" 
d="M429 -247h-347v122h219v1009h-219v123h347v-1254z" />
    <glyph glyph-name="asciicircum" unicode="^" horiz-adv-x="930" 
d="M799 512h-179l-155 210l-157 -210h-177l302 379h69z" />
    <glyph glyph-name="underscore" unicode="_" horiz-adv-x="663" 
d="M82 -116v116h499v-116h-499z" />
    <glyph glyph-name="grave" unicode="`" horiz-adv-x="431" 
d="M271 765l-219 249h161l166 -249h-108z" />
    <glyph glyph-name="a" unicode="a" horiz-adv-x="742" 
d="M681 239q1 -104 8 -147t23 -75l-2 -17h-141q-35 29 -40 110q-113 -128 -275 -128q-93 0 -153 50.5t-59 127.5q0 112 113.5 187t289.5 83q44 0 65 -1q-9 71 -46 111t-97 40q-92 0 -220 -79q-49 19 -59 107q154 102 293 102q138 1 218 -86t81 -248zM512 315l2 12
q-37 3 -68 2q-114 -3 -179.5 -44t-65.5 -96q0 -37 24.5 -59.5t67.5 -22.5q84 0 147 65.5t72 142.5z" />
    <glyph glyph-name="b" unicode="b" horiz-adv-x="781" 
d="M451 710q138 0 220 -93t82 -244q0 -164 -92.5 -277.5t-236.5 -113.5q-122 0 -204 92q-11 -49 -24 -74h-144v20q14 63 14 162v752q27 9 82.5 9t79.5 -9v-355q37 59 96 95t127 36zM395 118q85 0 139 75.5t54 183.5q-1 87 -42.5 143t-109.5 56q-86 0 -146.5 -92t-60.5 -203
q0 -59 48.5 -111t117.5 -52z" />
    <glyph glyph-name="c" unicode="c" horiz-adv-x="719" 
d="M369 -18q-144 -1 -242.5 94t-98.5 257q0 159 107 268t260 109q141 0 223.5 -92t71.5 -233q-104 -27 -159 -11q4 92 -35 146.5t-110 55.5q-81 0 -137 -70t-56 -175q0 -93 52.5 -153.5t132.5 -60.5q99 0 206 89q30 -10 51 -36.5t27.5 -44.5t6.5 -22q-140 -119 -300 -121z
" />
    <glyph glyph-name="d" unicode="d" horiz-adv-x="785" 
d="M719 182q0 -99 14 -162v-20h-137q-20 32 -31 95q-90 -113 -230 -113q-134 0 -220.5 98t-86.5 241q0 168 94 278.5t249 110.5q57 0 106 -26t81 -71v321q23 9 78.5 9t82.5 -9v-752zM365 118q81 0 134 85.5t53 214.5q0 66 -46.5 111.5t-107.5 45.5q-87 0 -145.5 -68
t-59.5 -172q0 -96 48 -156.5t124 -60.5z" />
    <glyph glyph-name="e" unicode="e" horiz-adv-x="727" 
d="M390 710q147 0 235 -92.5t74 -251.5l-22 -29l-485 -88q21 -64 72.5 -98.5t118.5 -33.5q107 2 211 86q24 -10 42 -35t24 -42t6 -21q-138 -123 -300 -123q-141 -1 -239 91t-99 248q-2 163 100.5 276t261.5 113zM541 419q2 74 -39.5 119.5t-111.5 45.5q-81 0 -140.5 -64.5
t-68.5 -160.5z" />
    <glyph glyph-name="f" unicode="f" horiz-adv-x="442" 
d="M406 822q-99 -1 -110 -143h185v-132h-187v-547h-161v547h-136v132h138q8 139 67 208t173 70q66 0 148 -21q6 -23 -4 -68.5t-25 -61.5q-47 16 -88 16z" />
    <glyph glyph-name="g" unicode="g" horiz-adv-x="783" 
d="M589 692q60 6 142 -12v-21q-14 -82 -14 -168v-405q0 -176 -94.5 -276.5t-244.5 -101.5q-163 -2 -321 113q13 88 63 118q143 -99 246 -97q90 2 146.5 65.5t56.5 173.5v23q-38 -57 -95 -89.5t-123 -32.5q-141 0 -232 91t-91 246q0 169 94 280t245 111q128 0 205 -107v1z
M365 118q80 0 132.5 82t53.5 225q-2 55 -48.5 103t-107.5 48q-92 0 -146.5 -72t-55.5 -171q0 -93 46.5 -154t125.5 -61z" />
    <glyph glyph-name="h" unicode="h" horiz-adv-x="763" 
d="M457 710q131 0 199 -88.5t68 -253.5v-368h-162v348q0 104 -35 161.5t-105 57.5q-83 0 -145.5 -85.5t-62.5 -198.5v-283h-162v934q28 9 82.5 9t79.5 -9v-333q99 109 243 109z" />
    <glyph glyph-name="i" unicode="i" horiz-adv-x="294" 
d="M147 791q-38 0 -66 27t-28 64q0 36 28.5 63.5t65.5 27.5t65 -27.5t28 -63.5q0 -37 -28 -64t-65 -27zM66 0v679q26 8 83 8t79 -8v-679h-162z" />
    <glyph glyph-name="j" unicode="j" horiz-adv-x="318" 
d="M163 791q-38 0 -66 27t-28 64q0 36 28.5 63.5t65.5 27.5t65 -27.5t28 -63.5q0 -37 -28 -64t-65 -27zM58 -251q-46 0 -99 18q-9 29 1.5 73.5t30.5 66.5q28 -11 44 -11q28 0 38.5 36.5t10.5 129.5v617q27 8 83.5 8t78.5 -8v-694q0 -108 -49.5 -172.5t-138.5 -63.5z" />
    <glyph glyph-name="k" unicode="k" horiz-adv-x="835" 
d="M512 341q190 -209 238 -252q34 -31 59 -46v-26q-24 -9 -81 -16.5t-107 -6.5q-45 21 -246 256q-77 -45 -161 -82v-168h-162v934q33 11 83 11t79 -11v-611q74 39 158 97q97 66 146.5 123.5t46.5 123.5q67 27 177 12q19 -80 -39 -165.5t-184 -167.5q-1 -1 -3.5 -2.5
t-3.5 -2.5z" />
    <glyph glyph-name="l" unicode="l" horiz-adv-x="372" 
d="M238 -18q-168 0 -168 212v740q27 10 79 10t83 -10v-692q0 -128 58 -128q15 0 47 9q11 -21 14.5 -57t-4.5 -62q-64 -21 -109 -22z" />
    <glyph glyph-name="m" unicode="m" horiz-adv-x="1102" 
d="M832 710q218 0 218 -323v-387h-162v368q0 207 -95 207q-67 0 -112.5 -76t-45.5 -188l1 -311h-156v367q0 208 -96 208q-66 0 -111.5 -78.5t-45.5 -195.5v-301h-161v505q0 84 -14 151v23q87 18 150 11q12 -38 12 -84v-5q39 49 91.5 79t108.5 30q137 0 187 -129
q42 60 102.5 94.5t128.5 34.5z" />
    <glyph glyph-name="n" unicode="n" horiz-adv-x="788" 
d="M464 710q272 0 272 -342v-368h-162v345q0 229 -141 229q-80 0 -143 -86.5t-63 -194.5v-293h-161v505q0 84 -14 151v23q87 18 152 11q12 -38 12 -84v-18q45 55 110.5 88.5t137.5 33.5z" />
    <glyph glyph-name="o" unicode="o" horiz-adv-x="775" 
d="M362 -18q-156 0 -245 96.5t-89 243.5q0 160 112 274t276 114q153 0 241 -93t90 -241q3 -172 -106 -283t-279 -111zM371 117q90 0 150.5 73.5t60.5 169.5q0 91 -48 153.5t-128 62.5q-90 0 -151.5 -75.5t-61.5 -179.5q0 -87 46.5 -145.5t131.5 -58.5z" />
    <glyph glyph-name="p" unicode="p" horiz-adv-x="781" 
d="M456 710q135 0 216 -93.5t81 -237.5q0 -170 -93 -283.5t-234 -113.5q-118 0 -198 96v-330q-21 -8 -78 -8t-83 8v746q0 84 -15 166v21q76 23 143 12l28 -100q99 117 233 117zM395 118q86 0 139.5 76t53.5 180q0 93 -43 147.5t-109 54.5q-83 0 -145.5 -86t-62.5 -212
q0 -57 50 -108.5t117 -51.5z" />
    <glyph glyph-name="q" unicode="q" horiz-adv-x="789" 
d="M588 690q67 11 148 -11v-24q-18 -80 -18 -148v-759q-26 -8 -82 -8t-79 8v344q-95 -110 -216 -110q-139 0 -226 97t-87 238q0 179 97 286t239 107q61 0 114 -27.5t89 -74.5v9zM367 118q79 0 132 87t53 211q0 63 -45 111t-109 48q-91 0 -148.5 -69.5t-56.5 -179.5
q1 -91 49 -149.5t125 -58.5z" />
    <glyph glyph-name="r" unicode="r" horiz-adv-x="571" 
d="M541 684q9 -27 -7 -71.5t-38 -67.5q-47 19 -88 19q-83 -1 -131 -75.5t-48 -192.5v-296h-163v505q0 84 -14 151v23q82 18 144 11q12 -38 12 -84v-38q33 64 87.5 103t121.5 39q63 0 124 -26z" />
    <glyph glyph-name="s" unicode="s" horiz-adv-x="744" 
d="M385 -18q-100 0 -191.5 28t-157.5 81q24 83 72 114q117 -88 260 -88q76 0 124.5 25t48.5 64q0 44 -45 63t-150 25q-278 18 -278 192q0 92 85 158t221 66q192 0 324 -81q-7 -62 -46 -125q-120 72 -258 72q-76 0 -118.5 -26t-42.5 -61t36.5 -53.5t119.5 -22.5
q170 -7 244 -58t74 -148q0 -99 -91.5 -162t-230.5 -63z" />
    <glyph glyph-name="t" unicode="t" horiz-adv-x="550" 
d="M485 137q15 -16 23 -61.5t-1 -69.5q-71 -24 -134 -24q-125 -2 -197 82t-72 249v234h-88v132h88v179q26 15 73 23t88 -1v-201h241v-132h-241v-223q0 -205 131 -205q38 0 89 18z" />
    <glyph glyph-name="u" unicode="u" horiz-adv-x="781" 
d="M715 225q0 -144 27 -206l-2 -19h-137q-16 16 -24 36t-11 60q-43 -53 -106.5 -83.5t-138.5 -30.5q-123 0 -197 76t-74 233v388q66 18 162 0v-360q0 -202 143 -202q92 0 144 79.5t52 209.5v273q30 8 87 6.5t75 -6.5v-454z" />
    <glyph glyph-name="v" unicode="v" horiz-adv-x="757" 
d="M302 0l-26 19q-40 131 -91 257.5t-84 195.5t-78 157q-3 5 -4.5 8.5t-4 8t-4.5 8.5l11 25q35 7 77.5 8t76.5 -8q43 -63 108 -213.5t123 -330.5h17q84 134 128 277t31 255q49 34 159 12q24 -128 -39.5 -318.5t-183.5 -344.5l-29 -16h-187z" />
    <glyph glyph-name="w" unicode="w" horiz-adv-x="1052" 
d="M261 0l-26 18q-73 259 -226 637l11 24q34 7 77.5 8t77.5 -8q39 -80 93 -228.5t92 -306.5h9q74 173 114 324l-37 100q14 26 59 47t90 15q91 -227 150 -486h11q137 306 117 524q56 31 162 11q21 -125 -30.5 -317.5t-154.5 -346.5l-28 -15h-157l-29 19q-31 114 -74 223
q-14 -41 -47.5 -115t-57.5 -113l-23 -14h-173z" />
    <glyph glyph-name="x" unicode="x" horiz-adv-x="783" 
d="M509 315q39 -45 127.5 -142.5t129.5 -144.5l-2 -28h-197q-38 48 -210 248q-93 -75 -133 -130t-35 -118h-158q-5 21 -5 42t5 41t11.5 38.5t19.5 37.5t24.5 35t30 34.5l31.5 31.5t35 31.5t35 29.5t36 29q1 1 2.5 2t2.5 2q-18 23 -243 298l9 27q31 7 88.5 6.5t87.5 -9.5
q59 -79 200 -257q84 70 124 129.5t36 124.5q63 27 160 6q30 -169 -212 -364z" />
    <glyph glyph-name="y" unicode="y" horiz-adv-x="774" 
d="M752 679q10 -67 10 -145t-23 -171t-58.5 -181t-97.5 -175t-140 -152q-138 -114 -311 -116q-57 0 -91 17q-24 61 -2 116l28 16q28 -14 66 -14q110 0 237 125l23 23q-75 52 -138.5 126t-103 143t-70 145t-44 126t-21.5 93l8 24q84 19 150 0q10 -46 26.5 -98.5t51 -134.5
t94.5 -164.5t136 -144.5q131 207 115 529q50 35 155 13z" />
    <glyph glyph-name="z" unicode="z" horiz-adv-x="731" 
d="M699 135q16 -11 16 -59.5t-16 -75.5h-648q-16 13 -26.5 51t-8.5 68q104 147 195.5 246t220.5 180h-376q-16 17 -16 61.5t16 72.5h612q15 -12 25 -61.5t7 -81.5q-104 -43 -226.5 -151.5t-228.5 -249.5h454z" />
    <glyph glyph-name="braceleft" unicode="{" horiz-adv-x="544" 
d="M363 23q16 -130 97 -207l-71 -76q-64 46 -98.5 99.5t-50.5 124.5q-10 43 -14.5 101.5t-7 97t-13.5 75.5t-41 55t-82 18v134q46 0 75 14.5t40.5 38.5t18 62.5t7 76.5t7.5 89.5t20 93.5q35 113 141 187l73 -72q-69 -64 -89 -166q-11 -48 -16.5 -147t-26 -156t-78.5 -88
q33 -23 54 -53t30.5 -69t13 -71.5t6 -82.5t5.5 -79z" />
    <glyph glyph-name="bar" unicode="|" horiz-adv-x="291" 
d="M82 -231v1243h127v-1243h-127z" />
    <glyph glyph-name="braceright" unicode="}" horiz-adv-x="544" 
d="M297 820q13 -42 20 -93.5t8 -89.5t7 -76.5t18 -62.5t40.5 -38.5t74.5 -14.5v-134q-52 0 -82 -18t-41 -55t-13.5 -75.5t-6.5 -97t-14 -101.5q-30 -138 -150 -224l-71 76q81 77 97 207q3 29 5.5 79t6 82t13 71.5t30.5 69.5t55 53q-37 19 -59 50.5t-30.5 72.5t-11.5 81
t-7.5 94t-13.5 93q-20 103 -89 166l73 72q106 -74 141 -187z" />
    <glyph glyph-name="asciitilde" unicode="~" horiz-adv-x="756" 
d="M82 284q0 91 43.5 152t117.5 61q55 0 133.5 -39.5t104.5 -39.5q27 0 46 20.5t19 58.5h128q0 -91 -42.5 -152t-117.5 -61q-44 0 -91 20t-87 39.5t-68 19.5q-25 0 -41.5 -21t-16.5 -58h-128z" />
    <glyph glyph-name="exclamdown" unicode="&#xa1;" horiz-adv-x="432" 
d="M216 628q-32 0 -58 25.5t-26 57.5t25.5 56.5t58.5 24.5q34 0 59 -24.5t25 -56.5q0 -33 -25 -58t-59 -25zM140 -132l13 627h127l13 -627h-153z" />
    <glyph glyph-name="cent" unicode="&#xa2;" horiz-adv-x="921" 
d="M766 257l66 -104q-38 -29 -111.5 -57.5t-152.5 -37.5v-190h-112v188q-122 10 -208 65.5t-126 139t-40 187.5q0 163 106.5 268t267.5 121v182h112v-181q167 -14 271 -104l-74 -109q-84 80 -250 80q-113 0 -191 -70t-78 -187q0 -115 67.5 -187t195.5 -72q131 0 257 68z" />
    <glyph glyph-name="sterling" unicode="&#xa3;" horiz-adv-x="951" 
d="M309 132h560v-132h-773v132h11q43 0 63.5 39.5t20.5 100.5q0 33 -6 72h-103v133h83q-9 72 -9 126q0 129 90 203.5t250 74.5q216 0 362 -116l-78 -106q-109 87 -258 87q-106 0 -157 -46.5t-51 -124.5q0 -34 6 -98h369v-133h-353q4 -44 4 -64q0 -90 -31 -148z" />
    <glyph glyph-name="currency" unicode="&#xa4;" horiz-adv-x="608" 
d="M526 298l-85 -95l-88 81q-26 -8 -51 -8q-26 0 -53 8l-82 -80l-85 94l73 74q-14 34 -14 76q0 38 13 74l-72 69l86 94l79 -71q27 8 55 8q32 0 57 -9l81 73l85 -94l-73 -70q13 -32 13 -74q0 -43 -15 -77zM237 448q0 -35 17.5 -57t47.5 -22t49 24t19 55q0 34 -18 56.5
t-50 22.5q-30 0 -47.5 -24t-17.5 -55z" />
    <glyph glyph-name="yen" unicode="&#xa5;" horiz-adv-x="1076" 
d="M994 880l-337 -435h192v-114h-231v-93h231v-114h-231v-124h-164v124h-238v114h238v93h-238v114h199l-333 435h214l242 -330l241 330h215z" />
    <glyph glyph-name="brokenbar" unicode="&#xa6;" horiz-adv-x="291" 
d="M82 481v531h127v-531h-127zM82 -231v534h127v-534h-127z" />
    <glyph glyph-name="section" unicode="&#xa7;" horiz-adv-x="687" 
d="M497 164q72 -67 72 -154q0 -81 -71 -135t-188 -54q-39 0 -89.5 11.5t-85.5 28.5v136q31 -19 83 -30.5t92 -11.5q100 0 100 72q0 26 -34 55t-82 58t-96 62.5t-82 81.5t-34 102q0 47 29 93t78 79q-77 74 -77 168q0 89 70.5 144.5t187.5 55.5q102 0 176 -37v-136
q-32 18 -83 28.5t-93 10.5q-47 0 -73.5 -18.5t-26.5 -50.5q0 -25 18.5 -48t48 -42.5t65 -40t71 -45.5t65 -53.5t48 -68.5t18.5 -87q0 -113 -107 -174zM243 386q-1 -26 21 -52.5t40 -39t69 -43.5q9 -6 14 -9q56 42 56 93q0 25 -21 50t-40 38.5t-67 43.5q-9 6 -14 9
q-57 -42 -58 -90z" />
    <glyph glyph-name="dieresis" unicode="&#xa8;" horiz-adv-x="656" 
d="M146 771q-38 0 -66 27t-28 64q0 36 28.5 63.5t65.5 27.5t65 -27.5t28 -63.5q0 -37 -28 -64t-65 -27zM511 771q-38 0 -66 27t-28 64q0 36 28.5 63.5t65.5 27.5t65 -27.5t28 -63.5q0 -37 -28 -64t-65 -27z" />
    <glyph glyph-name="copyright" unicode="&#xa9;" horiz-adv-x="1196" 
d="M598 -18q-225 0 -370.5 133t-145.5 334q0 200 149 338t367 138q224 0 370 -135.5t146 -340.5q0 -201 -145.5 -334t-370.5 -133zM598 86q169 0 283 97.5t114 263.5q0 170 -114.5 272t-282.5 102q-166 0 -281.5 -106t-115.5 -268q0 -163 112.5 -262t284.5 -99zM600 211
q-110 0 -185.5 69t-75.5 174q0 107 75 173t187 66q120 0 192 -66l-59 -98q-45 39 -119 39q-55 0 -93 -33t-38 -85q0 -50 38.5 -83t97.5 -33q75 0 119 38l66 -92q-29 -29 -83 -49t-122 -20z" />
    <glyph glyph-name="ordfeminine" unicode="&#xaa;" horiz-adv-x="543" 
d="M367 1074h94v-404h-92v20q-46 -25 -106 -25q-82 0 -131.5 54.5t-49.5 143.5q0 90 53.5 149.5t134.5 59.5q53 0 97 -27v29zM281 747q50 0 87 35v157q-33 43 -84 43q-48 0 -77.5 -34t-29.5 -85q0 -53 29.5 -84.5t74.5 -31.5z" />
    <glyph glyph-name="guillemotleft" unicode="&#xab;" horiz-adv-x="1179" 
d="M640 678l-381 -240l382 -233l-44 -108l-515 294v96l510 297zM715 438l382 -233l-45 -108l-514 294v96l510 297l48 -106z" />
    <glyph glyph-name="logicalnot" unicode="&#xac;" horiz-adv-x="748" 
d="M527 223v152h-445v135h583v-287h-138z" />
    <glyph glyph-name="uni00AD" unicode="&#xad;" horiz-adv-x="1134" 
d="M194 303v126h746v-126h-746z" />
    <glyph glyph-name="registered" unicode="&#xae;" horiz-adv-x="878" 
d="M439 926q145 0 251 -94t106 -240q0 -149 -104.5 -240.5t-252.5 -91.5q-160 0 -258.5 91.5t-98.5 240.5q0 141 104 237.5t253 96.5zM439 329q119 0 198.5 67t79.5 196q0 124 -80.5 194.5t-197.5 70.5t-197.5 -75.5t-80.5 -189.5q0 -120 76 -191.5t202 -71.5zM610 661
q0 -40 -25 -70t-65 -44l74 -136h-84l-70 127h-68v-127h-77v370h169q63 0 104.5 -34t41.5 -86zM455 597q30 0 52 18t22 46q0 27 -21 44t-53 17h-83v-125h83z" />
    <glyph glyph-name="macron" unicode="&#xaf;" horiz-adv-x="629" 
d="M52 801v132h525v-132h-525z" />
    <glyph glyph-name="degree" unicode="&#xb0;" horiz-adv-x="577" 
d="M289 533q-97 0 -152 52.5t-55 143.5q0 87 54.5 142t152.5 55t151.5 -54t53.5 -143q0 -88 -56.5 -142t-148.5 -54zM287 614q49 0 78.5 31.5t29.5 82.5q1 54 -28 85.5t-80 31.5q-49 0 -79 -31.5t-30 -85.5q0 -53 31 -83.5t78 -30.5z" />
    <glyph glyph-name="plusminus" unicode="&#xb1;" horiz-adv-x="743" 
d="M441 587h220v-135h-220v-219h-139v219h-220v135h220v240h139v-240zM82 31v135h579v-135h-579z" />
    <glyph glyph-name="uni00B2" unicode="&#xb2;" horiz-adv-x="852" 
d="M283 386h487v-126h-672v111q35 65 103 122.5t137 96.5t134 75.5t106 76t41 82.5q0 52 -47 84t-145 32q-160 0 -259 -83l-75 88q117 117 347 117q152 0 238.5 -67.5t86.5 -168.5q0 -66 -34.5 -117.5t-91.5 -88.5t-118.5 -68.5t-129 -75t-108.5 -90.5z" />
    <glyph glyph-name="uni00B3" unicode="&#xb3;" horiz-adv-x="860" 
d="M585 677q104 -27 148.5 -74t44.5 -114q0 -98 -90 -166t-268 -68q-98 0 -188.5 30t-144.5 75l57 107q105 -86 276 -86q103 0 160.5 31.5t57.5 79.5q0 61 -83.5 91t-264.5 37v113q160 0 244 29.5t84 80.5q0 43 -58.5 67.5t-160.5 24.5q-82 0 -154 -23t-101 -47l-56 102
q49 36 141 63.5t193 27.5q164 0 250.5 -58t86.5 -147q0 -58 -43 -103.5t-131 -72.5z" />
    <glyph glyph-name="acute" unicode="&#xb4;" horiz-adv-x="393" 
d="M52 765l127 249h162l-201 -249h-88z" />
    <glyph glyph-name="uni00B5" unicode="&#xb5;" horiz-adv-x="781" 
d="M714 242q0 -158 27 -223l-1 -19h-137q-30 24 -30 77v54q-33 -67 -95.5 -108t-141.5 -41q-88 0 -141 59v-309h-142l-1 947q67 17 162 0v-360q0 -202 143 -202q92 0 144 79.5t52 209.5v274q30 7 87 5.5t74 -5.5v-438z" />
    <glyph glyph-name="paragraph" unicode="&#xb6;" horiz-adv-x="784" 
d="M238 -132v699q-73 1 -114.5 47.5t-41.5 115.5q0 67 41 113.5t115 46.5h464v-110h-126v-912h-120v912h-98v-912h-120z" />
    <glyph glyph-name="periodcentered" unicode="&#xb7;" horiz-adv-x="571" 
d="M286 310q-38 0 -66 27t-28 64q0 36 28.5 63.5t65.5 27.5t65 -27.5t28 -63.5q0 -37 -28 -64t-65 -27z" />
    <glyph glyph-name="cedilla" unicode="&#xb8;" horiz-adv-x="395" 
d="M196 -346q-78 -2 -144 69l84 80q22 -27 45 -27q15 0 24.5 11.5t9.5 29.5q0 26 -38 77q-29 37 -40 62t-11 62h129q0 -7 0.5 -14t1 -12t3 -11.5t3.5 -10.5t5 -10.5t5.5 -9.5t7 -11t7 -10.5t9 -12.5t9.5 -13q36 -50 36 -102q1 -60 -42 -103t-104 -44z" />
    <glyph glyph-name="uni00B9" unicode="&#xb9;" horiz-adv-x="683" 
d="M427 386h174v-126h-503v126h188v546l-174 -42l-26 105l255 62h86v-671z" />
    <glyph glyph-name="ordmasculine" unicode="&#xba;" horiz-adv-x="555" 
d="M278 666q-79 0 -140 52.5t-61 144.5q0 96 57.5 152t143.5 56t143 -56t57 -152q0 -92 -61 -144.5t-139 -52.5zM278 748q41 0 73 29t32 86q0 56 -29 87t-76 31t-76.5 -31t-29.5 -87q0 -57 32.5 -86t73.5 -29z" />
    <glyph glyph-name="guillemotright" unicode="&#xbb;" horiz-adv-x="1179" 
d="M641 487v-96l-514 -294l-45 108l382 233l-381 240l48 106zM587 784l510 -297v-96l-515 -294l-44 108l382 233l-381 240z" />
    <glyph glyph-name="onequarter" unicode="&#xbc;" horiz-adv-x="1221" 
d="M82 440v126h109v344l-96 -38v132l138 53h92v-491h103v-126h-346zM1003 1057h136l-847 -1189h-135zM1033 485v-380h59v-125h-59v-112h-126v112h-226v102l223 403h129zM932 105l5 254l-132 -254h127z" />
    <glyph glyph-name="onehalf" unicode="&#xbd;" horiz-adv-x="1227" 
d="M82 441v126h109v343l-96 -37v131l138 53h92v-490h103v-126h-346zM999 1057h136l-847 -1189h-135zM1095 325q0 -45 -21 -92t-46 -79t-65 -79.5t-60 -75.5h200v-131h-346v120q24 40 61.5 88.5t65 81t48.5 69t21 63.5q0 29 -18.5 47t-47.5 18q-49 0 -115 -62v121
q74 70 157 70q71 0 118.5 -47t47.5 -112z" />
    <glyph glyph-name="threequarters" unicode="&#xbe;" horiz-adv-x="1186" 
d="M436 620q0 -66 -44 -117t-128 -51q-43 0 -92 21t-82 57v109q78 -67 150 -67q34 0 56.5 21.5t23.5 51.5q-1 36 -37.5 59.5t-96.5 30.5v82q114 9 114 78q0 24 -18.5 41t-46.5 17q-62 0 -130 -51v98q66 60 152 60q70 0 112 -40.5t42 -102.5q0 -95 -93 -142q55 -24 86.5 -64
t31.5 -91zM966 1053h136l-847 -1188h-136zM1026 485v-380h59v-125h-59v-112h-126v112h-226v102l223 403h129zM925 105l5 248l-132 -248h127z" />
    <glyph glyph-name="questiondown" unicode="&#xbf;" horiz-adv-x="870" 
d="M464 690q33 0 59 -25t26 -57t-26 -57t-59 -25t-58 25t-25 57t25 57t58 25zM515 416q17 -62 4 -110.5t-42 -79t-67.5 -58.5t-72.5 -48.5t-58 -49.5t-24 -61q0 -47 45.5 -80t136.5 -33q154 0 284 109l91 -92q-77 -69 -177.5 -109t-205.5 -40q-164 0 -253.5 65.5
t-89.5 167.5q0 48 20.5 87.5t52.5 66.5t70.5 50.5t75.5 45t66 44.5t43 55t7 70h94z" />
    <glyph glyph-name="Agrave" unicode="&#xc0;" horiz-adv-x="966" 
d="M541 968h-100l-213 189h146zM553 902q26 -56 117.5 -269.5t168.5 -382.5t115 -226l-10 -24q-129 -3 -176 18q-19 27 -82 179h-422l-75 -197h-177l382 902q29 12 81 11.5t78 -11.5zM314 329h320q-29 77 -85.5 225.5t-74.5 195.5z" />
    <glyph glyph-name="Aacute" unicode="&#xc1;" horiz-adv-x="966" 
d="M730 1153l-216 -193h-101l166 193h151zM553 902q26 -56 117.5 -269.5t168.5 -382.5t115 -226l-10 -24q-129 -3 -176 18q-19 27 -82 179h-422l-75 -197h-177l382 902q29 12 81 11.5t78 -11.5zM314 329h320q-29 77 -85.5 225.5t-74.5 195.5z" />
    <glyph glyph-name="Acircumflex" unicode="&#xc2;" horiz-adv-x="966" 
d="M476 1080l-116 -121h-126l202 222h80l200 -222h-125zM553 902q26 -56 117.5 -269.5t168.5 -382.5t115 -226l-10 -24q-129 -3 -176 18q-19 27 -82 179h-422l-75 -197h-177l382 902q29 12 81 11.5t78 -11.5zM314 329h320q-29 77 -85.5 225.5t-74.5 195.5z" />
    <glyph glyph-name="Atilde" unicode="&#xc3;" horiz-adv-x="966" 
d="M387 1036q-21 0 -34.5 -20t-13.5 -58h-96q0 82 33.5 136t90.5 54q34 0 70.5 -21t68.5 -42t53 -21q22 0 36.5 20.5t14.5 58.5h96q0 -81 -33 -135.5t-91 -54.5q-35 0 -72.5 20.5t-69 41.5t-53.5 21zM553 902q26 -56 117.5 -269.5t168.5 -382.5t115 -226l-10 -24
q-129 -3 -176 18q-19 27 -82 179h-422l-75 -197h-177l382 902q29 12 81 11.5t78 -11.5zM314 329h320q-29 77 -85.5 225.5t-74.5 195.5z" />
    <glyph glyph-name="Adieresis" unicode="&#xc4;" horiz-adv-x="966" 
d="M336 983q-30 0 -52 22t-22 51q0 28 22 50t52 22q28 0 50.5 -22t22.5 -50q0 -29 -22 -51t-51 -22zM620 983q-29 0 -51.5 22t-22.5 51q0 28 22.5 50t51.5 22t51.5 -22t22.5 -50q0 -29 -22.5 -51t-51.5 -22zM553 902q26 -56 117.5 -269.5t168.5 -382.5t115 -226l-10 -24
q-129 -3 -176 18q-19 27 -82 179h-422l-75 -197h-177l382 902q29 12 81 11.5t78 -11.5zM314 329h320q-29 77 -85.5 225.5t-74.5 195.5z" />
    <glyph glyph-name="Aring" unicode="&#xc5;" horiz-adv-x="966" 
d="M556 895q25 -54 117.5 -269.5t168 -380t112.5 -221.5l-10 -24q-129 -3 -176 18q-19 27 -82 179h-422l-75 -197h-177l379 896q-54 17 -84 53t-30 85q0 64 53.5 106.5t147.5 42.5q92 0 144.5 -42t52.5 -107q0 -48 -32.5 -85t-86.5 -54zM369 1033q0 -34 29.5 -56t77.5 -22
q45 0 76 22.5t31 55.5q0 35 -30 57t-77 22q-49 0 -78 -22.5t-29 -56.5zM314 329h320q-29 77 -85.5 225.5t-74.5 195.5z" />
    <glyph glyph-name="AE" unicode="&#xc6;" horiz-adv-x="1442" 
d="M1397 132q15 -17 15.5 -62t-15.5 -70h-675v197h-363l-140 -197h-207l686 902h678q9 -29 -1 -70.5t-26 -61.5h-463v-263h417q8 -31 -2 -74t-25 -58h-390v-243h511zM452 328l270 -1v381z" />
    <glyph glyph-name="Ccedilla" unicode="&#xc7;" horiz-adv-x="892" 
d="M849 585q-108 -24 -165 -10q7 93 -45.5 153t-140.5 60q-126 -1 -212 -101t-86 -243q0 -145 80.5 -236t215.5 -92q143 0 261 83q33 -13 54 -48t24 -63q-73 -54 -165.5 -82t-173.5 -28h-8q4 -16 14 -30t28 -32.5t29 -34.5q36 -49 36 -102q1 -60 -42 -103t-104 -44
q-78 -2 -144 70l76 76q34 -38 66 -38q18 0 29.5 13.5t11.5 34.5q0 15 -9.5 29t-26.5 32t-25 30q-41 53 -42 110q-159 34 -257 156.5t-98 308.5q0 199 134.5 335t333.5 137q169 0 265 -93.5t86 -247.5z" />
    <glyph glyph-name="Egrave" unicode="&#xc8;" horiz-adv-x="803" 
d="M477 968h-100l-213 189h146zM759 132q15 -17 15 -62t-15 -70h-700v886l17 16h662q8 -29 -2 -71t-26 -61h-487v-264h442q8 -32 -2 -75.5t-26 -57.5h-414v-241h536z" />
    <glyph glyph-name="Eacute" unicode="&#xc9;" horiz-adv-x="803" 
d="M667 1153l-216 -193h-101l166 193h151zM759 132q15 -17 15 -62t-15 -70h-700v886l17 16h662q8 -29 -2 -71t-26 -61h-487v-264h442q8 -32 -2 -75.5t-26 -57.5h-414v-241h536z" />
    <glyph glyph-name="Ecircumflex" unicode="&#xca;" horiz-adv-x="803" 
d="M412 1080l-116 -121h-126l202 222h80l200 -222h-125zM759 132q15 -17 15 -62t-15 -70h-700v886l17 16h662q8 -29 -2 -71t-26 -61h-487v-264h442q8 -32 -2 -75.5t-26 -57.5h-414v-241h536z" />
    <glyph glyph-name="Edieresis" unicode="&#xcb;" horiz-adv-x="803" 
d="M273 983q-30 0 -52 22t-22 51q0 28 22 50t52 22q28 0 50.5 -22t22.5 -50q0 -29 -22 -51t-51 -22zM557 983q-29 0 -51.5 22t-22.5 51q0 28 22.5 50t51.5 22t51.5 -22t22.5 -50q0 -29 -22.5 -51t-51.5 -22zM759 132q15 -17 15 -62t-15 -70h-700v886l17 16h662q8 -29 -2 -71
t-26 -61h-487v-264h442q8 -32 -2 -75.5t-26 -57.5h-414v-241h536z" />
    <glyph glyph-name="Igrave" unicode="&#xcc;" horiz-adv-x="273" 
d="M101 968l-213 189h146l167 -189h-100zM59 0v903q30 11 81 9t74 -9v-903h-155z" />
    <glyph glyph-name="Iacute" unicode="&#xcd;" horiz-adv-x="273" 
d="M74 960l166 193h151l-216 -193h-101zM59 0v903q30 11 81 9t74 -9v-903h-155z" />
    <glyph glyph-name="Icircumflex" unicode="&#xce;" horiz-adv-x="273" 
d="M176 1181l200 -222h-125l-115 121l-116 -121h-126l202 222h80zM59 903q30 11 81 9t74 -9v-903h-155v903z" />
    <glyph glyph-name="Idieresis" unicode="&#xcf;" horiz-adv-x="273" 
d="M-3 983q-30 0 -52 22t-22 51q0 28 22 50t52 22q28 0 50.5 -22t22.5 -50q0 -29 -22 -51t-51 -22zM281 983q-29 0 -51.5 22t-22.5 51q0 28 22.5 50t51.5 22t51.5 -22t22.5 -50q0 -29 -22.5 -51t-51.5 -22zM59 0v903q30 11 81 9t74 -9v-903h-155z" />
    <glyph glyph-name="Eth" unicode="&#xd0;" horiz-adv-x="962" 
d="M441 926q231 0 361 -126.5t130 -335.5q0 -221 -125.5 -351.5t-346.5 -131.5q-112 0 -182 9.5t-156 35.5v378h-80v126h80v356q139 40 319 40zM762 460q1 150 -85.5 242t-240.5 92q-81 0 -150 -11v-253h216v-126h-216v-274q77 -16 172 -16q146 0 224.5 93.5t79.5 252.5z
" />
    <glyph glyph-name="Ntilde" unicode="&#xd1;" horiz-adv-x="954" 
d="M388 1036q-21 0 -34.5 -20t-13.5 -58h-96q0 82 33.5 136t90.5 54q34 0 70.5 -21t68.5 -42t53 -21q22 0 36.5 20.5t14.5 58.5h96q0 -81 -33 -135.5t-91 -54.5q-35 0 -72.5 20.5t-69 41.5t-53.5 21zM731 902q29 11 84.5 9t79.5 -9v-902h-119l-553 627v-627h-164v871
q15 18 57 30.5t62 5.5l553 -636v631z" />
    <glyph glyph-name="Ograve" unicode="&#xd2;" horiz-adv-x="940" 
d="M461 981l-213 189h146l167 -189h-100zM430 -18q-178 0 -289 123t-111 304q0 142 61.5 260.5t172.5 187.5t248 69q113 0 205 -61t142.5 -162.5t50.5 -221.5q0 -132 -61.5 -246.5t-173 -183.5t-245.5 -69zM439 120q84 0 153.5 52.5t108.5 137.5t39 181q1 129 -66 212.5
t-177 83.5q-129 0 -213.5 -110t-83.5 -268q0 -123 62 -206t177 -83z" />
    <glyph glyph-name="Oacute" unicode="&#xd3;" horiz-adv-x="940" 
d="M434 973l166 193h151l-216 -193h-101zM430 -18q-178 0 -289 123t-111 304q0 142 61.5 260.5t172.5 187.5t248 69q113 0 205 -61t142.5 -162.5t50.5 -221.5q0 -132 -61.5 -246.5t-173 -183.5t-245.5 -69zM439 120q84 0 153.5 52.5t108.5 137.5t39 181q1 129 -66 212.5
t-177 83.5q-129 0 -213.5 -110t-83.5 -268q0 -123 62 -206t177 -83z" />
    <glyph glyph-name="Ocircumflex" unicode="&#xd4;" horiz-adv-x="940" 
d="M496 1093l-116 -121h-126l202 222h80l200 -222h-125zM910 481q0 -132 -61.5 -246.5t-173 -183.5t-245.5 -69q-178 0 -289 123t-111 304q0 142 61.5 260.5t172.5 187.5t248 69q113 0 205 -61t142.5 -162.5t50.5 -221.5zM740 491q1 129 -66 212.5t-177 83.5
q-129 0 -213.5 -110t-83.5 -268q0 -123 62 -206t177 -83q84 0 153.5 52.5t108.5 137.5t39 181z" />
    <glyph glyph-name="Otilde" unicode="&#xd5;" horiz-adv-x="940" 
d="M603 966q-45 0 -108 41.5t-87 41.5q-21 0 -34.5 -20t-13.5 -58h-96q0 82 33.5 136t90.5 54q34 0 70.5 -21t68.5 -42t53 -21q22 0 36.5 20.5t14.5 58.5h96q0 -81 -33 -135.5t-91 -54.5zM430 -18q-178 0 -289 123t-111 304q0 142 61.5 260.5t172.5 187.5t248 69
q113 0 205 -61t142.5 -162.5t50.5 -221.5q0 -132 -61.5 -246.5t-173 -183.5t-245.5 -69zM439 120q84 0 153.5 52.5t108.5 137.5t39 181q1 129 -66 212.5t-177 83.5q-129 0 -213.5 -110t-83.5 -268q0 -123 62 -206t177 -83z" />
    <glyph glyph-name="Odieresis" unicode="&#xd6;" horiz-adv-x="940" 
d="M357 996q-30 0 -52 22t-22 51q0 28 22 50t52 22q28 0 50.5 -22t22.5 -50q0 -29 -22 -51t-51 -22zM641 996q-29 0 -51.5 22t-22.5 51q0 28 22.5 50t51.5 22t51.5 -22t22.5 -50q0 -29 -22.5 -51t-51.5 -22zM430 -18q-178 0 -289 123t-111 304q0 142 61.5 260.5t172.5 187.5
t248 69q113 0 205 -61t142.5 -162.5t50.5 -221.5q0 -132 -61.5 -246.5t-173 -183.5t-245.5 -69zM439 120q84 0 153.5 52.5t108.5 137.5t39 181q1 129 -66 212.5t-177 83.5q-129 0 -213.5 -110t-83.5 -268q0 -123 62 -206t177 -83z" />
    <glyph glyph-name="multiply" unicode="&#xd7;" horiz-adv-x="854" 
d="M772 610l-244 -201l244 -201h-202l-143 118l-144 -118h-201l244 201l-244 201h201l144 -118l143 118h202z" />
    <glyph glyph-name="Oslash" unicode="&#xd8;" horiz-adv-x="1038" 
d="M979 891l-110 -126q90 -123 90 -284q0 -132 -62 -246.5t-173 -183.5t-245 -69q-133 0 -233 73l-48 -55h-148l116 133q-88 116 -88 276q0 142 61.5 260.5t173 187.5t248.5 69q129 0 230 -80l40 45h148zM249 409q0 -82 29 -149l415 474q-61 53 -147 53q-129 0 -213.5 -110
t-83.5 -268zM789 491q0 84 -29 151l-415 -474q59 -48 143 -48t153.5 52.5t108 137.5t39.5 181z" />
    <glyph glyph-name="Ugrave" unicode="&#xd9;" horiz-adv-x="952" 
d="M441 975l-213 189h146l167 -189h-100zM466 -24q-200 0 -303.5 108.5t-103.5 312.5v505q28 10 86.5 8.5t79.5 -8.5v-512q0 -131 62 -203t179 -72q124 0 192.5 79t68.5 208v500q29 10 85.5 8.5t79.5 -8.5v-502q0 -190 -111 -307t-315 -117z" />
    <glyph glyph-name="Uacute" unicode="&#xda;" horiz-adv-x="952" 
d="M413 967l166 193h151l-216 -193h-101zM466 -24q-200 0 -303.5 108.5t-103.5 312.5v505q28 10 86.5 8.5t79.5 -8.5v-512q0 -131 62 -203t179 -72q124 0 192.5 79t68.5 208v500q29 10 85.5 8.5t79.5 -8.5v-502q0 -190 -111 -307t-315 -117z" />
    <glyph glyph-name="Ucircumflex" unicode="&#xdb;" horiz-adv-x="952" 
d="M476 1087l-116 -121h-126l202 222h80l200 -222h-125zM727 902q29 10 85.5 8.5t79.5 -8.5v-502q0 -190 -111 -307t-315 -117q-200 0 -303.5 108.5t-103.5 312.5v505q28 10 86.5 8.5t79.5 -8.5v-512q0 -131 62 -203t179 -72q124 0 192.5 79t68.5 208v500z" />
    <glyph glyph-name="Udieresis" unicode="&#xdc;" horiz-adv-x="952" 
d="M336 990q-30 0 -52 22t-22 51q0 28 22 50t52 22q28 0 50.5 -22t22.5 -50q0 -29 -22 -51t-51 -22zM620 990q-29 0 -51.5 22t-22.5 51q0 28 22.5 50t51.5 22t51.5 -22t22.5 -50q0 -29 -22.5 -51t-51.5 -22zM466 -24q-200 0 -303.5 108.5t-103.5 312.5v505q28 10 86.5 8.5
t79.5 -8.5v-512q0 -131 62 -203t179 -72q124 0 192.5 79t68.5 208v500q29 10 85.5 8.5t79.5 -8.5v-502q0 -190 -111 -307t-315 -117z" />
    <glyph glyph-name="Yacute" unicode="&#xdd;" horiz-adv-x="889" 
d="M699 1153l-216 -193h-101l166 193h151zM868 902q8 -57 -1.5 -118.5t-40.5 -136.5t-98.5 -162t-166.5 -176v-309h-164v323q-69 109 -193.5 292.5t-188.5 259.5l11 27q38 7 88.5 8t88.5 -8q42 -45 146 -202t153 -246q100 92 155.5 222t47.5 214q55 33 163 12z" />
    <glyph glyph-name="Thorn" unicode="&#xde;" horiz-adv-x="846" 
d="M405 815q190 0 301 -92.5t110 -259.5q0 -166 -115.5 -262.5t-304.5 -96.5q-86 0 -169 18v-122h-168v914q31 11 88 9.5t80 -9.5v-111q71 12 178 12zM405 236q112 0 177 61.5t64 167.5q-1 105 -62.5 161.5t-183.5 56.5q-98 0 -173 -15v-413q72 -19 178 -19z" />
    <glyph glyph-name="germandbls" unicode="&#xdf;" horiz-adv-x="812" 
d="M784 291q6 -144 -75 -226t-202 -83q-109 -2 -210 67q-4 32 7 67t41 51q57 -47 122 -47q69 1 113 50t41 124q-2 59 -46.5 99t-119.5 40q-58 -2 -130 -30q-19 19 -18 71t14 68q32 11 68 16q129 37 129 129q0 50 -36.5 82.5t-105.5 32.5q-72 0 -114.5 -51t-42.5 -126v-625
h-161v626q0 145 87.5 228t230.5 83q149 -1 228 -68t79 -162q0 -122 -124 -183q98 -17 159.5 -80t65.5 -153z" />
    <glyph glyph-name="agrave" unicode="&#xe0;" horiz-adv-x="742" 
d="M471 785h-108l-219 249h161zM681 239q1 -104 8 -147t23 -75l-2 -17h-141q-35 29 -40 110q-113 -128 -275 -128q-93 0 -153 50.5t-59 127.5q0 112 113.5 187t289.5 83q44 0 65 -1q-9 71 -46 111t-97 40q-92 0 -220 -79q-49 19 -59 107q154 102 293 102q138 1 218 -86
t81 -248zM512 315l2 12q-37 3 -68 2q-114 -3 -179.5 -44t-65.5 -96q0 -37 24.5 -59.5t67.5 -22.5q84 0 147 65.5t72 142.5z" />
    <glyph glyph-name="aacute" unicode="&#xe1;" horiz-adv-x="742" 
d="M615 1034l-188 -249h-101l127 249h162zM681 239q1 -104 8 -147t23 -75l-2 -17h-141q-35 29 -40 110q-113 -128 -275 -128q-93 0 -153 50.5t-59 127.5q0 112 113.5 187t289.5 83q44 0 65 -1q-9 71 -46 111t-97 40q-92 0 -220 -79q-49 19 -59 107q154 102 293 102
q138 1 218 -86t81 -248zM512 315l2 12q-37 3 -68 2q-114 -3 -179.5 -44t-65.5 -96q0 -37 24.5 -59.5t67.5 -22.5q84 0 147 65.5t72 142.5z" />
    <glyph glyph-name="acircumflex" unicode="&#xe2;" horiz-adv-x="742" 
d="M399 906l-116 -126h-131l208 239h78l205 -239h-129zM681 239q1 -104 8 -147t23 -75l-2 -17h-141q-35 29 -40 110q-113 -128 -275 -128q-93 0 -153 50.5t-59 127.5q0 112 113.5 187t289.5 83q44 0 65 -1q-9 71 -46 111t-97 40q-92 0 -220 -79q-49 19 -59 107
q154 102 293 102q138 1 218 -86t81 -248zM512 315l2 12q-37 3 -68 2q-114 -3 -179.5 -44t-65.5 -96q0 -37 24.5 -59.5t67.5 -22.5q84 0 147 65.5t72 142.5z" />
    <glyph glyph-name="atilde" unicode="&#xe3;" horiz-adv-x="742" 
d="M309 879q-21 0 -34.5 -20t-13.5 -58h-96q0 89 33.5 148t90.5 59q44 0 107.5 -42t87.5 -42q21 0 35.5 20.5t14.5 58.5h97q0 -88 -33 -147.5t-91 -59.5q-35 0 -73 21t-70.5 41.5t-54.5 20.5zM681 239q1 -104 8 -147t23 -75l-2 -17h-141q-35 29 -40 110q-113 -128 -275 -128
q-93 0 -153 50.5t-59 127.5q0 112 113.5 187t289.5 83q44 0 65 -1q-9 71 -46 111t-97 40q-92 0 -220 -79q-49 19 -59 107q154 102 293 102q138 1 218 -86t81 -248zM512 315l2 12q-37 3 -68 2q-114 -3 -179.5 -44t-65.5 -96q0 -37 24.5 -59.5t67.5 -22.5q84 0 147 65.5
t72 142.5z" />
    <glyph glyph-name="adieresis" unicode="&#xe4;" horiz-adv-x="742" 
d="M241 791q-37 0 -65 27t-28 64q0 36 28 63.5t65 27.5t65.5 -27.5t28.5 -63.5q0 -37 -28 -64t-66 -27zM573 791q-38 0 -66 27t-28 64q0 36 28.5 63.5t65.5 27.5t65 -27.5t28 -63.5q0 -37 -28 -64t-65 -27zM681 239q1 -104 8 -147t23 -75l-2 -17h-141q-35 29 -40 110
q-113 -128 -275 -128q-93 0 -153 50.5t-59 127.5q0 112 113.5 187t289.5 83q44 0 65 -1q-9 71 -46 111t-97 40q-92 0 -220 -79q-49 19 -59 107q154 102 293 102q138 1 218 -86t81 -248zM512 315l2 12q-37 3 -68 2q-114 -3 -179.5 -44t-65.5 -96q0 -37 24.5 -59.5t67.5 -22.5
q84 0 147 65.5t72 142.5z" />
    <glyph glyph-name="aring" unicode="&#xe5;" horiz-adv-x="742" 
d="M399 768q-91 0 -146 41t-55 108q0 65 53.5 107.5t147.5 42.5q92 0 144.5 -42t52.5 -108q0 -64 -56.5 -106.5t-140.5 -42.5zM397 996q-49 0 -78 -22.5t-29 -56.5t29.5 -56t77.5 -22q45 0 76 22.5t31 55.5q0 34 -30 56.5t-77 22.5zM681 239q1 -104 8 -147t23 -75l-2 -17
h-141q-35 29 -40 110q-113 -128 -275 -128q-93 0 -153 50.5t-59 127.5q0 112 113.5 187t289.5 83q44 0 65 -1q-9 71 -46 111t-97 40q-92 0 -220 -79q-49 19 -59 107q154 102 293 102q138 1 218 -86t81 -248zM512 315l2 12q-37 3 -68 2q-114 -3 -179.5 -44t-65.5 -96
q0 -37 24.5 -59.5t67.5 -22.5q84 0 147 65.5t72 142.5z" />
    <glyph glyph-name="ae" unicode="&#xe6;" horiz-adv-x="1212" 
d="M875 710q147 0 235 -92.5t74 -251.5l-22 -29l-485 -87q21 -64 72.5 -99t118.5 -34q107 2 211 86q11 -4 20.5 -12t16.5 -17t13 -18.5t10 -18.5t6.5 -16t4.5 -11l1 -5q-139 -123 -300 -123q-87 -1 -161.5 36.5t-119.5 105.5q-58 -68 -140.5 -106t-175.5 -36
q-94 2 -153.5 51.5t-58.5 126.5q0 112 113 187t288 83q43 0 63 -1q-9 70 -45 109.5t-94 39.5q-87 0 -220 -77q-49 19 -59 107q154 102 293 102q154 2 230 -116q103 116 264 116zM1026 412q2 76 -39.5 124t-111.5 48q-83 0 -142.5 -66.5t-66.5 -163.5zM509 315l2 12
q-35 3 -65 2q-114 -3 -179.5 -44t-65.5 -96q0 -37 24.5 -59.5t67.5 -22.5q83 0 145 63.5t71 144.5z" />
    <glyph glyph-name="ccedilla" unicode="&#xe7;" horiz-adv-x="719" 
d="M690 385q-104 -27 -159 -11q4 92 -35 146.5t-110 55.5q-81 0 -137 -70t-56 -175q0 -93 52.5 -153.5t132.5 -60.5q99 0 206 89q30 -10 51 -36.5t27.5 -44.5t6.5 -22q-129 -109 -273 -120q3 -17 12.5 -31.5t28.5 -34.5t31 -36q36 -49 36 -102q1 -60 -42 -103t-104 -44
q-79 0 -144 70l76 77q35 -39 66 -39q17 1 28.5 14t12.5 34q0 15 -9.5 29t-26.5 32t-25 30q-41 53 -42 110q-117 23 -191.5 114t-74.5 230q0 159 107 268t260 109q141 0 223.5 -92t71.5 -233z" />
    <glyph glyph-name="egrave" unicode="&#xe8;" horiz-adv-x="727" 
d="M465 785h-108l-219 249h161zM390 710q147 0 235 -92.5t74 -251.5l-22 -29l-485 -88q21 -64 72.5 -98.5t118.5 -33.5q107 2 211 86q24 -10 42 -35t24 -42t6 -21q-138 -123 -300 -123q-141 -1 -239 91t-99 248q-2 163 100.5 276t261.5 113zM541 419q2 74 -39.5 119.5
t-111.5 45.5q-81 0 -140.5 -64.5t-68.5 -160.5z" />
    <glyph glyph-name="eacute" unicode="&#xe9;" horiz-adv-x="727" 
d="M609 1034l-188 -249h-101l127 249h162zM390 710q147 0 235 -92.5t74 -251.5l-22 -29l-485 -88q21 -64 72.5 -98.5t118.5 -33.5q107 2 211 86q24 -10 42 -35t24 -42t6 -21q-138 -123 -300 -123q-141 -1 -239 91t-99 248q-2 163 100.5 276t261.5 113zM541 419
q2 74 -39.5 119.5t-111.5 45.5q-81 0 -140.5 -64.5t-68.5 -160.5z" />
    <glyph glyph-name="ecircumflex" unicode="&#xea;" horiz-adv-x="727" 
d="M393 906l-116 -126h-131l208 239h78l205 -239h-129zM390 710q147 0 235 -92.5t74 -251.5l-22 -29l-485 -88q21 -64 72.5 -98.5t118.5 -33.5q107 2 211 86q24 -10 42 -35t24 -42t6 -21q-138 -123 -300 -123q-141 -1 -239 91t-99 248q-2 163 100.5 276t261.5 113zM541 419
q2 74 -39.5 119.5t-111.5 45.5q-81 0 -140.5 -64.5t-68.5 -160.5z" />
    <glyph glyph-name="edieresis" unicode="&#xeb;" horiz-adv-x="727" 
d="M236 791q-37 0 -65 27t-28 64q0 36 28 63.5t65 27.5t65.5 -27.5t28.5 -63.5q0 -37 -28 -64t-66 -27zM568 791q-38 0 -66 27t-28 64q0 36 28.5 63.5t65.5 27.5t65 -27.5t28 -63.5q0 -37 -28 -64t-65 -27zM390 710q147 0 235 -92.5t74 -251.5l-22 -29l-485 -88
q21 -64 72.5 -98.5t118.5 -33.5q107 2 211 86q24 -10 42 -35t24 -42t6 -21q-138 -123 -300 -123q-141 -1 -239 91t-99 248q-2 163 100.5 276t261.5 113zM541 419q2 74 -39.5 119.5t-111.5 45.5q-81 0 -140.5 -64.5t-68.5 -160.5z" />
    <glyph glyph-name="igrave" unicode="&#xec;" horiz-adv-x="294" 
d="M112 785l-219 249h161l166 -249h-108zM66 0v679q26 8 83 8t79 -8v-679h-162z" />
    <glyph glyph-name="iacute" unicode="&#xed;" horiz-adv-x="294" 
d="M75 785l127 249h162l-188 -249h-101zM66 0v679q26 8 83 8t79 -8v-679h-162z" />
    <glyph glyph-name="icircumflex" unicode="&#xee;" horiz-adv-x="294" 
d="M187 1019l205 -239h-129l-115 126l-116 -126h-131l208 239h78zM66 679q26 8 83 8t79 -8v-679h-162v679z" />
    <glyph glyph-name="idieresis" unicode="&#xef;" horiz-adv-x="294" 
d="M-9 791q-37 0 -65 27t-28 64q0 36 28 63.5t65 27.5t65.5 -27.5t28.5 -63.5q0 -37 -28 -64t-66 -27zM323 791q-38 0 -66 27t-28 64q0 36 28.5 63.5t65.5 27.5t65 -27.5t28 -63.5q0 -37 -28 -64t-65 -27zM66 0v679q26 8 83 8t79 -8v-679h-162z" />
    <glyph glyph-name="eth" unicode="&#xf0;" horiz-adv-x="742" 
d="M509 767q205 -187 205 -415q0 -71 -23 -136.5t-67 -120.5t-118.5 -87.5t-169.5 -32.5q-140 0 -224 87.5t-84 219.5q0 144 94.5 242.5t232.5 100.5q78 2 139 -37q-39 64 -108 120q-105 -44 -215 -81q-55 22 -66 90q171 61 176 63q-58 35 -138 69q3 27 23.5 52.5t54.5 39.5
q102 -38 195 -100q83 46 92 84q36 11 80.5 4t71.5 -26q-12 -60 -151 -136zM345 108q88 0 146 77.5t58 174.5q-1 67 -41.5 110t-107.5 43q-88 0 -148 -68.5t-61 -163.5q0 -75 40.5 -124t113.5 -49z" />
    <glyph glyph-name="ntilde" unicode="&#xf1;" horiz-adv-x="788" 
d="M342 879q-21 0 -34.5 -20t-13.5 -58h-96q0 89 33.5 148t90.5 59q44 0 107.5 -42t87.5 -42q21 0 35.5 20.5t14.5 58.5h97q0 -88 -33 -147.5t-91 -59.5q-35 0 -73 21t-70.5 41.5t-54.5 20.5zM464 710q272 0 272 -342v-368h-162v345q0 229 -141 229q-80 0 -143 -86.5
t-63 -194.5v-293h-161v505q0 84 -14 151v23q87 18 152 11q12 -38 12 -84v-18q45 55 110.5 88.5t137.5 33.5z" />
    <glyph glyph-name="ograve" unicode="&#xf2;" horiz-adv-x="775" 
d="M365 785l-219 249h161l166 -249h-108zM362 -18q-156 0 -245 96.5t-89 243.5q0 160 112 274t276 114q153 0 241 -93t90 -241q3 -172 -106 -283t-279 -111zM371 117q90 0 150.5 73.5t60.5 169.5q0 91 -48 153.5t-128 62.5q-90 0 -151.5 -75.5t-61.5 -179.5
q0 -87 46.5 -145.5t131.5 -58.5z" />
    <glyph glyph-name="oacute" unicode="&#xf3;" horiz-adv-x="775" 
d="M328 785l127 249h162l-188 -249h-101zM362 -18q-156 0 -245 96.5t-89 243.5q0 160 112 274t276 114q153 0 241 -93t90 -241q3 -172 -106 -283t-279 -111zM371 117q90 0 150.5 73.5t60.5 169.5q0 91 -48 153.5t-128 62.5q-90 0 -151.5 -75.5t-61.5 -179.5
q0 -87 46.5 -145.5t131.5 -58.5z" />
    <glyph glyph-name="ocircumflex" unicode="&#xf4;" horiz-adv-x="775" 
d="M401 906l-116 -126h-131l208 239h78l205 -239h-129zM747 376q3 -172 -106 -283t-279 -111q-156 0 -245 96.5t-89 243.5q0 160 112 274t276 114q153 0 241 -93t90 -241zM371 117q90 0 150.5 73.5t60.5 169.5q0 91 -48 153.5t-128 62.5q-90 0 -151.5 -75.5t-61.5 -179.5
q0 -87 46.5 -145.5t131.5 -58.5z" />
    <glyph glyph-name="otilde" unicode="&#xf5;" horiz-adv-x="775" 
d="M508 796q-35 0 -73 21t-70.5 41.5t-54.5 20.5q-21 0 -34.5 -20t-13.5 -58h-96q0 89 33.5 148t90.5 59q44 0 107.5 -42t87.5 -42q21 0 35.5 20.5t14.5 58.5h97q0 -88 -33 -147.5t-91 -59.5zM362 -18q-156 0 -245 96.5t-89 243.5q0 160 112 274t276 114q153 0 241 -93
t90 -241q3 -172 -106 -283t-279 -111zM371 117q90 0 150.5 73.5t60.5 169.5q0 91 -48 153.5t-128 62.5q-90 0 -151.5 -75.5t-61.5 -179.5q0 -87 46.5 -145.5t131.5 -58.5z" />
    <glyph glyph-name="odieresis" unicode="&#xf6;" horiz-adv-x="775" 
d="M243 791q-37 0 -65 27t-28 64q0 36 28 63.5t65 27.5t65.5 -27.5t28.5 -63.5q0 -37 -28 -64t-66 -27zM575 791q-38 0 -66 27t-28 64q0 36 28.5 63.5t65.5 27.5t65 -27.5t28 -63.5q0 -37 -28 -64t-65 -27zM362 -18q-156 0 -245 96.5t-89 243.5q0 160 112 274t276 114
q153 0 241 -93t90 -241q3 -172 -106 -283t-279 -111zM371 117q90 0 150.5 73.5t60.5 169.5q0 91 -48 153.5t-128 62.5q-90 0 -151.5 -75.5t-61.5 -179.5q0 -87 46.5 -145.5t131.5 -58.5z" />
    <glyph glyph-name="divide" unicode="&#xf7;" horiz-adv-x="745" 
d="M376 591q-38 0 -65.5 27t-27.5 64q0 38 27.5 65t65.5 27t65.5 -27t27.5 -65q0 -37 -27.5 -64t-65.5 -27zM82 374v135h581v-135h-581zM376 104q-38 0 -65.5 27t-27.5 65t27.5 65t65.5 27t65.5 -27.5t27.5 -64.5q0 -38 -27 -65t-66 -27z" />
    <glyph glyph-name="oslash" unicode="&#xf8;" horiz-adv-x="800" 
d="M765 679v-17l-70 -75q63 -87 65 -211q4 -172 -105.5 -283t-279.5 -111q-121 0 -205 62l-42 -44h-90v20l74 80q-71 89 -71 222q0 160 112.5 274t276.5 114q119 0 203 -60l27 29h105zM419 576q-90 0 -151.5 -75.5t-61.5 -179.5q0 -58 20 -101l29 27l199 206l26 32l47 50
q-46 41 -108 41zM385 117q90 0 150 73.5t60 169.5q0 57 -19 102l-39 -34l-203 -206l-22 -29l-38 -39q45 -37 111 -37z" />
    <glyph glyph-name="ugrave" unicode="&#xf9;" horiz-adv-x="781" 
d="M459 785h-108l-219 249h161zM715 225q0 -144 27 -206l-2 -19h-137q-16 16 -24 36t-11 60q-43 -53 -106.5 -83.5t-138.5 -30.5q-123 0 -197 76t-74 233v388q66 18 162 0v-360q0 -202 143 -202q92 0 144 79.5t52 209.5v273q30 8 87 6.5t75 -6.5v-454z" />
    <glyph glyph-name="uacute" unicode="&#xfa;" horiz-adv-x="781" 
d="M603 1034l-188 -249h-101l127 249h162zM715 225q0 -144 27 -206l-2 -19h-137q-16 16 -24 36t-11 60q-43 -53 -106.5 -83.5t-138.5 -30.5q-123 0 -197 76t-74 233v388q66 18 162 0v-360q0 -202 143 -202q92 0 144 79.5t52 209.5v273q30 8 87 6.5t75 -6.5v-454z" />
    <glyph glyph-name="ucircumflex" unicode="&#xfb;" horiz-adv-x="781" 
d="M387 906l-116 -126h-131l208 239h78l205 -239h-129zM715 225q0 -144 27 -206l-2 -19h-137q-16 16 -24 36t-11 60q-43 -53 -106.5 -83.5t-138.5 -30.5q-123 0 -197 76t-74 233v388q66 18 162 0v-360q0 -202 143 -202q92 0 144 79.5t52 209.5v273q30 8 87 6.5t75 -6.5v-454
z" />
    <glyph glyph-name="udieresis" unicode="&#xfc;" horiz-adv-x="781" 
d="M230 791q-37 0 -65 27t-28 64q0 36 28 63.5t65 27.5t65.5 -27.5t28.5 -63.5q0 -37 -28 -64t-66 -27zM562 791q-38 0 -66 27t-28 64q0 36 28.5 63.5t65.5 27.5t65 -27.5t28 -63.5q0 -37 -28 -64t-65 -27zM715 225q0 -144 27 -206l-2 -19h-137q-16 16 -24 36t-11 60
q-43 -53 -106.5 -83.5t-138.5 -30.5q-123 0 -197 76t-74 233v388q66 18 162 0v-360q0 -202 143 -202q92 0 144 79.5t52 209.5v273q30 8 87 6.5t75 -6.5v-454z" />
    <glyph glyph-name="yacute" unicode="&#xfd;" horiz-adv-x="774" 
d="M607 1034l-188 -249h-101l127 249h162zM752 679q10 -67 10 -145t-23 -171t-58.5 -181t-97.5 -175t-140 -152q-138 -114 -311 -116q-57 0 -91 17q-24 61 -2 116l28 16q28 -14 66 -14q110 0 237 125l23 23q-75 52 -138.5 126t-103 143t-70 145t-44 126t-21.5 93l8 24
q84 19 150 0q10 -46 26.5 -98.5t51 -134.5t94.5 -164.5t136 -144.5q131 207 115 529q50 35 155 13z" />
    <glyph glyph-name="thorn" unicode="&#xfe;" horiz-adv-x="767" 
d="M437 710q138 0 220 -93t82 -244q0 -164 -92.5 -277.5t-235.5 -113.5q-116 0 -196 83l1 -312q-81 -17 -164 0v1181q27 9 82.5 9t79.5 -9v-355q37 59 96 95t127 36zM381 118q85 0 139 75.5t54 183.5q0 87 -42 143t-110 56q-86 0 -146 -92t-60 -203q0 -59 48.5 -111
t116.5 -52z" />
    <glyph glyph-name="ydieresis" unicode="&#xff;" horiz-adv-x="774" 
d="M233 791q-37 0 -65 27t-28 64q0 36 28 63.5t65 27.5t65.5 -27.5t28.5 -63.5q0 -37 -28 -64t-66 -27zM565 791q-38 0 -66 27t-28 64q0 36 28.5 63.5t65.5 27.5t65 -27.5t28 -63.5q0 -37 -28 -64t-65 -27zM752 679q10 -67 10 -145t-23 -171t-58.5 -181t-97.5 -175
t-140 -152q-138 -114 -311 -116q-57 0 -91 17q-24 61 -2 116l28 16q28 -14 66 -14q110 0 237 125l23 23q-75 52 -138.5 126t-103 143t-70 145t-44 126t-21.5 93l8 24q84 19 150 0q10 -46 26.5 -98.5t51 -134.5t94.5 -164.5t136 -144.5q131 207 115 529q50 35 155 13z" />
    <glyph glyph-name="Amacron" unicode="&#x100;" horiz-adv-x="966" 
d="M711 1093v-108h-470v108h470zM553 902q26 -56 117.5 -269.5t168.5 -382.5t115 -226l-10 -24q-129 -3 -176 18q-19 27 -82 179h-422l-75 -197h-177l382 902q29 12 81 11.5t78 -11.5zM314 329h320q-29 77 -85.5 225.5t-74.5 195.5z" />
    <glyph glyph-name="amacron" unicode="&#x101;" horiz-adv-x="742" 
d="M648 939v-117h-497v117h497zM681 239q1 -104 8 -147t23 -75l-2 -17h-141q-35 29 -40 110q-113 -128 -275 -128q-93 0 -153 50.5t-59 127.5q0 112 113.5 187t289.5 83q44 0 65 -1q-9 71 -46 111t-97 40q-92 0 -220 -79q-49 19 -59 107q154 102 293 102q138 1 218 -86
t81 -248zM512 315l2 12q-37 3 -68 2q-114 -3 -179.5 -44t-65.5 -96q0 -37 24.5 -59.5t67.5 -22.5q84 0 147 65.5t72 142.5z" />
    <glyph glyph-name="Abreve" unicode="&#x102;" horiz-adv-x="966" 
d="M475 945q-105 0 -169.5 50.5t-64.5 147.5h112q0 -45 33 -74.5t89 -29.5q58 0 91 30.5t33 73.5h112q0 -94 -67 -146t-169 -52zM553 902q26 -56 117.5 -269.5t168.5 -382.5t115 -226l-10 -24q-129 -3 -176 18q-19 27 -82 179h-422l-75 -197h-177l382 902q29 12 81 11.5
t78 -11.5zM314 329h320q-29 77 -85.5 225.5t-74.5 195.5z" />
    <glyph glyph-name="abreve" unicode="&#x103;" horiz-adv-x="742" 
d="M396 768q-110 0 -179 57.5t-69 168.5h116q0 -51 35.5 -83.5t96.5 -32.5q63 0 98 33.5t35 82.5h117q0 -107 -71.5 -166.5t-178.5 -59.5zM681 239q1 -104 8 -147t23 -75l-2 -17h-141q-35 29 -40 110q-113 -128 -275 -128q-93 0 -153 50.5t-59 127.5q0 112 113.5 187
t289.5 83q44 0 65 -1q-9 71 -46 111t-97 40q-92 0 -220 -79q-49 19 -59 107q154 102 293 102q138 1 218 -86t81 -248zM512 315l2 12q-37 3 -68 2q-114 -3 -179.5 -44t-65.5 -96q0 -37 24.5 -59.5t67.5 -22.5q84 0 147 65.5t72 142.5z" />
    <glyph glyph-name="Aogonek" unicode="&#x104;" horiz-adv-x="966" 
d="M890 -189l74 -61q-30 -45 -79.5 -75t-96.5 -30q-63 -1 -104 35t-41 106q0 54 32.5 122.5t88.5 116.5q-20 31 -78 172h-422l-75 -197h-177l382 902q29 12 81 11.5t78 -11.5q26 -56 117.5 -269.5t168.5 -382.5t115 -226l-10 -24q-45 -2 -90 2q-94 -110 -94 -189
q0 -24 15 -37.5t36 -11.5q21 0 43 13.5t36 33.5zM314 329h320q-29 77 -85.5 225.5t-74.5 195.5z" />
    <glyph glyph-name="aogonek" unicode="&#x105;" horiz-adv-x="742" 
d="M690 -203l74 -61q-30 -45 -79.5 -75t-96.5 -30q-63 -1 -104 35t-41 106q0 53 32 120t86 116q-28 30 -32 102q-113 -128 -275 -128q-93 0 -153 50.5t-59 127.5q0 112 113.5 187t289.5 83q44 0 65 -1q-9 71 -46 111t-97 40q-92 0 -220 -79q-49 19 -59 107q154 102 293 102
q138 1 218 -86t81 -248l1 -137q1 -104 8 -147t23 -75l-2 -17h-45q-105 -116 -105 -201q0 -24 15 -37.5t36 -11.5q21 0 43 13.5t36 33.5zM512 315l2 12q-37 3 -68 2q-114 -3 -179.5 -44t-65.5 -96q0 -37 24.5 -59.5t67.5 -22.5q84 0 147 65.5t72 142.5z" />
    <glyph glyph-name="Cacute" unicode="&#x106;" horiz-adv-x="892" 
d="M435 984l166 193h151l-216 -193h-101zM496 -22q-130 0 -235 55.5t-168 165t-63 255.5q0 199 134.5 335t333.5 137q169 0 265 -93.5t86 -247.5q-108 -24 -165 -10q7 93 -45.5 153t-140.5 60q-126 -1 -212 -101t-86 -243q0 -145 80.5 -236t215.5 -92q143 0 261 83
q33 -13 54 -48t24 -63q-73 -54 -165.5 -82t-173.5 -28z" />
    <glyph glyph-name="cacute" unicode="&#x107;" horiz-adv-x="719" 
d="M322 785l127 249h162l-188 -249h-101zM369 -18q-144 -1 -242.5 94t-98.5 257q0 159 107 268t260 109q141 0 223.5 -92t71.5 -233q-104 -27 -159 -11q4 92 -35 146.5t-110 55.5q-81 0 -137 -70t-56 -175q0 -93 52.5 -153.5t132.5 -60.5q99 0 206 89q30 -10 51 -36.5
t27.5 -44.5t6.5 -22q-140 -119 -300 -121z" />
    <glyph glyph-name="Cdotaccent" unicode="&#x10a;" horiz-adv-x="892" 
d="M498 1006q-30 0 -52 22t-22 51q0 28 22 50t52 22q28 0 50.5 -22t22.5 -50q0 -29 -22 -51t-51 -22zM496 -22q-130 0 -235 55.5t-168 165t-63 255.5q0 199 134.5 335t333.5 137q169 0 265 -93.5t86 -247.5q-108 -24 -165 -10q7 93 -45.5 153t-140.5 60q-126 -1 -212 -101
t-86 -243q0 -145 80.5 -236t215.5 -92q143 0 261 83q33 -13 54 -48t24 -63q-73 -54 -165.5 -82t-173.5 -28z" />
    <glyph glyph-name="cdotaccent" unicode="&#x10b;" horiz-adv-x="719" 
d="M393 791q-38 0 -66 27t-28 64q0 36 28.5 63.5t65.5 27.5t65 -27.5t28 -63.5q0 -37 -28 -64t-65 -27zM369 -18q-144 -1 -242.5 94t-98.5 257q0 159 107 268t260 109q141 0 223.5 -92t71.5 -233q-104 -27 -159 -11q4 92 -35 146.5t-110 55.5q-81 0 -137 -70t-56 -175
q0 -93 52.5 -153.5t132.5 -60.5q99 0 206 89q30 -10 51 -36.5t27.5 -44.5t6.5 -22q-140 -119 -300 -121z" />
    <glyph glyph-name="Ccaron" unicode="&#x10c;" horiz-adv-x="892" 
d="M538 979h-78l-208 230h130l116 -123l116 123h129zM849 585q-108 -24 -165 -10q7 93 -45.5 153t-140.5 60q-126 -1 -212 -101t-86 -243q0 -145 80.5 -236t215.5 -92q143 0 261 83q33 -13 54 -48t24 -63q-73 -54 -165.5 -82t-173.5 -28q-130 0 -235 55.5t-168 165
t-63 255.5q0 199 134.5 335t333.5 137q169 0 265 -93.5t86 -247.5z" />
    <glyph glyph-name="ccaron" unicode="&#x10d;" horiz-adv-x="719" 
d="M434 785h-78l-208 239h131l116 -131l115 131h129zM690 385q-104 -27 -159 -11q4 92 -35 146.5t-110 55.5q-81 0 -137 -70t-56 -175q0 -93 52.5 -153.5t132.5 -60.5q99 0 206 89q30 -10 51 -36.5t27.5 -44.5t6.5 -22q-140 -119 -300 -121q-144 -1 -242.5 94t-98.5 257
q0 159 107 268t260 109q141 0 223.5 -92t71.5 -233z" />
    <glyph glyph-name="Dcaron" unicode="&#x10e;" horiz-adv-x="900" 
d="M419 979h-78l-208 230h130l116 -123l116 123h129zM379 926q231 0 361 -126.5t130 -335.5q0 -221 -125.5 -351.5t-346.5 -131.5q-111 0 -181.5 9.5t-157.5 35.5v860q141 40 320 40zM396 114q146 0 224.5 93.5t79.5 252.5q0 150 -86 242t-240 92q-80 0 -151 -11v-653
q77 -16 173 -16z" />
    <glyph glyph-name="dcaron" unicode="&#x10f;" horiz-adv-x="916" 
d="M897 1084h154l-54 -333h-116zM723 934v-752q0 -97 13 -162v-20h-137q-21 34 -30 96q-89 -114 -231 -114q-134 0 -220.5 98t-86.5 241q0 168 94 278.5t249 110.5q116 0 187 -96v320q24 9 79.5 9t82.5 -9zM368 118q81 0 134 85t53 215q0 66 -46.5 111.5t-107.5 45.5
q-88 0 -146 -68t-58 -172q0 -96 47.5 -156.5t123.5 -60.5z" />
    <glyph glyph-name="Dcroat" unicode="&#x110;" horiz-adv-x="962" 
d="M441 926q231 0 361 -126.5t130 -335.5q0 -221 -125.5 -351.5t-346.5 -131.5q-112 0 -182 9.5t-156 35.5v378h-80v126h80v356q139 40 319 40zM762 460q1 150 -85.5 242t-240.5 92q-81 0 -150 -11v-253h216v-126h-216v-274q77 -16 172 -16q146 0 224.5 93.5t79.5 252.5z
" />
    <glyph glyph-name="dcroat" unicode="&#x111;" horiz-adv-x="799" 
d="M810 772h-91v-590q0 -99 14 -162v-20h-137q-20 32 -31 95q-90 -113 -230 -113q-134 0 -220.5 98t-86.5 241q0 168 94 278.5t249 110.5q57 0 106 -26t81 -71v159h-218v84h218v78q23 9 78.5 9t82.5 -9v-78h91v-84zM365 118q81 0 134 85.5t53 214.5q0 66 -46.5 111.5
t-107.5 45.5q-87 0 -145.5 -68t-59.5 -172q0 -96 48 -156.5t124 -60.5z" />
    <glyph glyph-name="Emacron" unicode="&#x112;" horiz-adv-x="803" 
d="M648 1093v-108h-470v108h470zM759 132q15 -17 15 -62t-15 -70h-700v886l17 16h662q8 -29 -2 -71t-26 -61h-487v-264h442q8 -32 -2 -75.5t-26 -57.5h-414v-241h536z" />
    <glyph glyph-name="emacron" unicode="&#x113;" horiz-adv-x="727" 
d="M642 939v-117h-497v117h497zM390 710q147 0 235 -92.5t74 -251.5l-22 -29l-485 -88q21 -64 72.5 -98.5t118.5 -33.5q107 2 211 86q24 -10 42 -35t24 -42t6 -21q-138 -123 -300 -123q-141 -1 -239 91t-99 248q-2 163 100.5 276t261.5 113zM541 419q2 74 -39.5 119.5
t-111.5 45.5q-81 0 -140.5 -64.5t-68.5 -160.5z" />
    <glyph glyph-name="Ebreve" unicode="&#x114;" horiz-adv-x="803" 
d="M412 945q-105 0 -169.5 50.5t-64.5 147.5h112q0 -45 33 -74.5t89 -29.5q57 0 90 30t33 74h113q0 -94 -67 -146t-169 -52zM759 132q15 -17 15 -62t-15 -70h-700v886l17 16h662q8 -29 -2 -71t-26 -61h-487v-264h442q8 -32 -2 -75.5t-26 -57.5h-414v-241h536z" />
    <glyph glyph-name="ebreve" unicode="&#x115;" horiz-adv-x="727" 
d="M391 768q-110 0 -179 57.5t-69 168.5h116q0 -51 35.5 -83.5t96.5 -32.5q63 0 98 33.5t35 82.5h117q0 -107 -71.5 -166.5t-178.5 -59.5zM390 710q147 0 235 -92.5t74 -251.5l-22 -29l-485 -88q21 -64 72.5 -98.5t118.5 -33.5q107 2 211 86q24 -10 42 -35t24 -42t6 -21
q-138 -123 -300 -123q-141 -1 -239 91t-99 248q-2 163 100.5 276t261.5 113zM541 419q2 74 -39.5 119.5t-111.5 45.5q-81 0 -140.5 -64.5t-68.5 -160.5z" />
    <glyph glyph-name="Edotaccent" unicode="&#x116;" horiz-adv-x="803" 
d="M413 982q-30 0 -52 22t-22 51q0 28 22 50t52 22q28 0 50.5 -22t22.5 -50q0 -29 -22 -51t-51 -22zM759 132q15 -17 15 -62t-15 -70h-700v886l17 16h662q8 -29 -2 -71t-26 -61h-487v-264h442q8 -32 -2 -75.5t-26 -57.5h-414v-241h536z" />
    <glyph glyph-name="edotaccent" unicode="&#x117;" horiz-adv-x="727" 
d="M392 791q-38 0 -66 27t-28 64q0 36 28.5 63.5t65.5 27.5t65 -27.5t28 -63.5q0 -37 -28 -64t-65 -27zM390 710q147 0 235 -92.5t74 -251.5l-22 -29l-485 -88q21 -64 72.5 -98.5t118.5 -33.5q107 2 211 86q24 -10 42 -35t24 -42t6 -21q-138 -123 -300 -123q-141 -1 -239 91
t-99 248q-2 163 100.5 276t261.5 113zM541 419q2 74 -39.5 119.5t-111.5 45.5q-81 0 -140.5 -64.5t-68.5 -160.5z" />
    <glyph glyph-name="Eogonek" unicode="&#x118;" horiz-adv-x="803" 
d="M759 0h-278q-93 -107 -93 -187q0 -24 15 -37.5t36 -11.5q21 0 43 13.5t36 33.5l74 -61q-30 -45 -79.5 -75t-96.5 -30q-63 -1 -104 35t-41 106q0 46 25.5 106t69.5 108h-307v886l17 16h662q8 -29 -2 -71t-26 -61h-487v-264h442q8 -32 -2 -75.5t-26 -57.5h-414v-241h536
q15 -17 15 -62t-15 -70z" />
    <glyph glyph-name="eogonek" unicode="&#x119;" horiz-adv-x="727" 
d="M390 710q147 0 235 -92.5t74 -251.5l-22 -29l-485 -88q21 -64 72.5 -98.5t118.5 -33.5q107 2 211 86q24 -10 42 -35t24 -42t6 -21q-122 -109 -267 -122q-99 -110 -99 -193q0 -24 15 -37.5t36 -11.5q21 0 43 13.5t36 33.5l74 -61q-30 -45 -79.5 -75t-96.5 -30
q-63 -1 -104 35t-41 106q0 50 28.5 113.5t78.5 112.5q-114 23 -187.5 111t-74.5 221q-2 163 100.5 276t261.5 113zM541 419q2 74 -39.5 119.5t-111.5 45.5q-81 0 -140.5 -64.5t-68.5 -160.5z" />
    <glyph glyph-name="Ecaron" unicode="&#x11a;" horiz-adv-x="803" 
d="M453 955h-78l-208 230h130l116 -123l116 123h129zM759 132q15 -17 15 -62t-15 -70h-700v886l17 16h662q8 -29 -2 -71t-26 -61h-487v-264h442q8 -32 -2 -75.5t-26 -57.5h-414v-241h536z" />
    <glyph glyph-name="ecaron" unicode="&#x11b;" horiz-adv-x="727" 
d="M432 785h-78l-208 239h131l116 -131l115 131h129zM390 710q147 0 235 -92.5t74 -251.5l-22 -29l-485 -88q21 -64 72.5 -98.5t118.5 -33.5q107 2 211 86q24 -10 42 -35t24 -42t6 -21q-138 -123 -300 -123q-141 -1 -239 91t-99 248q-2 163 100.5 276t261.5 113zM541 419
q2 74 -39.5 119.5t-111.5 45.5q-81 0 -140.5 -64.5t-68.5 -160.5z" />
    <glyph glyph-name="Gbreve" unicode="&#x11e;" horiz-adv-x="901" 
d="M479 969q-105 0 -169.5 50.5t-64.5 147.5h112q0 -45 33 -74.5t89 -29.5q58 0 91 30.5t33 73.5h112q0 -94 -67 -146t-169 -52zM483 788q-131 0 -207 -97t-76 -244q0 -146 80 -236.5t216 -90.5q112 0 203 39v176h-266q-8 31 2 74.5t25 58.5h379l19 -21v-359
q-63 -51 -164 -78.5t-198 -27.5q-202 0 -334 127.5t-132 344.5q0 125 52.5 231.5t156.5 173.5t241 67q166 0 274.5 -90.5t104.5 -225.5q-35 -8 -82.5 -12.5t-81.5 1.5q-7 89 -66 139t-146 50z" />
    <glyph glyph-name="gbreve" unicode="&#x11f;" horiz-adv-x="783" 
d="M386 763q-110 0 -179 57.5t-69 168.5h116q0 -51 35.5 -83.5t96.5 -32.5q63 0 98 33.5t35 82.5h117q0 -107 -71.5 -166.5t-178.5 -59.5zM589 692q60 6 142 -12v-21q-14 -82 -14 -168v-405q0 -176 -94.5 -276.5t-244.5 -101.5q-163 -2 -321 113q13 88 63 118
q143 -99 246 -97q90 2 146.5 65.5t56.5 173.5v23q-38 -57 -95 -89.5t-123 -32.5q-141 0 -232 91t-91 246q0 169 94 280t245 111q128 0 205 -107v1zM365 118q80 0 132.5 82t53.5 225q-2 55 -48.5 103t-107.5 48q-92 0 -146.5 -72t-55.5 -171q0 -93 46.5 -154t125.5 -61z" />
    <glyph glyph-name="Gdotaccent" unicode="&#x120;" horiz-adv-x="901" 
d="M480 1006q-30 0 -52 22t-22 51q0 28 22 50t52 22q28 0 50.5 -22t22.5 -50q0 -29 -22 -51t-51 -22zM483 788q-131 0 -207 -97t-76 -244q0 -146 80 -236.5t216 -90.5q112 0 203 39v176h-266q-8 31 2 74.5t25 58.5h379l19 -21v-359q-63 -51 -164 -78.5t-198 -27.5
q-202 0 -334 127.5t-132 344.5q0 125 52.5 231.5t156.5 173.5t241 67q166 0 274.5 -90.5t104.5 -225.5q-35 -8 -82.5 -12.5t-81.5 1.5q-7 89 -66 139t-146 50z" />
    <glyph glyph-name="gdotaccent" unicode="&#x121;" horiz-adv-x="783" 
d="M388 786q-38 0 -66 27t-28 64q0 36 28.5 63.5t65.5 27.5t65 -27.5t28 -63.5q0 -37 -28 -64t-65 -27zM589 692q60 6 142 -12v-21q-14 -82 -14 -168v-405q0 -176 -94.5 -276.5t-244.5 -101.5q-163 -2 -321 113q13 88 63 118q143 -99 246 -97q90 2 146.5 65.5t56.5 173.5v23
q-38 -57 -95 -89.5t-123 -32.5q-141 0 -232 91t-91 246q0 169 94 280t245 111q128 0 205 -107v1zM365 118q80 0 132.5 82t53.5 225q-2 55 -48.5 103t-107.5 48q-92 0 -146.5 -72t-55.5 -171q0 -93 46.5 -154t125.5 -61z" />
    <glyph glyph-name="uni0122" unicode="&#x122;" horiz-adv-x="901" 
d="M483 788q-131 0 -207 -97t-76 -244q0 -146 80 -236.5t216 -90.5q112 0 203 39v176h-266q-8 31 2 74.5t25 58.5h379l19 -21v-359q-63 -51 -164 -78.5t-198 -27.5q-202 0 -334 127.5t-132 344.5q0 125 52.5 231.5t156.5 173.5t241 67q166 0 274.5 -90.5t104.5 -225.5
q-35 -8 -82.5 -12.5t-81.5 1.5q-7 89 -66 139t-146 50zM364 -310l39 228h126l-58 -228h-107z" />
    <glyph glyph-name="uni0123" unicode="&#x123;" horiz-adv-x="783" 
d="M500 1043l-58 -247h-126l76 247h108zM589 692q60 6 142 -12v-21q-14 -82 -14 -168v-405q0 -176 -94.5 -276.5t-244.5 -101.5q-163 -2 -321 113q13 88 63 118q143 -99 246 -97q90 2 146.5 65.5t56.5 173.5v23q-38 -57 -95 -89.5t-123 -32.5q-141 0 -232 91t-91 246
q0 169 94 280t245 111q128 0 205 -107v1zM365 118q80 0 132.5 82t53.5 225q-2 55 -48.5 103t-107.5 48q-92 0 -146.5 -72t-55.5 -171q0 -93 46.5 -154t125.5 -61z" />
    <glyph glyph-name="Hcircumflex" unicode="&#x124;" horiz-adv-x="860" 
d="M430 1080l-116 -121h-126l202 222h80l200 -222h-125zM637 902q31 11 84.5 9t79.5 -9v-902h-164v345h-414v-345h-164v902q31 11 85.5 9t78.5 -9v-424h414v424z" />
    <glyph glyph-name="hcircumflex" unicode="&#x125;" horiz-adv-x="763" 
d="M404 1096l-116 -126h-131l208 239h78l205 -239h-129zM457 710q131 0 199 -88.5t68 -253.5v-368h-162v348q0 104 -35 161.5t-105 57.5q-83 0 -145.5 -85.5t-62.5 -198.5v-283h-162v934q28 9 82.5 9t79.5 -9v-333q99 109 243 109z" />
    <glyph glyph-name="Hbar" unicode="&#x126;" horiz-adv-x="927" 
d="M880 734v-125h-47v-609h-164v345h-413v-345h-164v609h-45v125h45v168q31 11 85.5 9t78.5 -9v-168h413v168q32 11 85.5 9t78.5 -9v-168h47zM669 478v131h-413v-131h413z" />
    <glyph glyph-name="hbar" unicode="&#x127;" horiz-adv-x="753" 
d="M447 710q131 0 199 -88.5t68 -253.5v-368h-162v348q0 104 -35 161.5t-105 57.5q-83 0 -145.5 -85.5t-62.5 -198.5v-283h-162v790h-71v81h71v63q28 9 82.5 9t79.5 -9v-63h292v-81h-292v-189q99 109 243 109z" />
    <glyph glyph-name="Imacron" unicode="&#x12a;" horiz-adv-x="273" 
d="M-27 985v108h327v-108h-327zM59 0v903q30 11 81 9t74 -9v-903h-155z" />
    <glyph glyph-name="imacron" unicode="&#x12b;" horiz-adv-x="294" 
d="M-74 822v117h445v-117h-445zM66 0v679q26 8 83 8t79 -8v-679h-162z" />
    <glyph glyph-name="Iogonek" unicode="&#x12e;" horiz-adv-x="273" 
d="M207 -178l74 -61q-30 -45 -79.5 -75t-96.5 -30q-63 -1 -104 35t-41 106q0 48 26.5 109t72.5 109v888q30 11 81 9t74 -9v-903h-53q-84 -101 -84 -176q0 -24 15 -37.5t36 -11.5q21 0 43 13.5t36 33.5z" />
    <glyph glyph-name="iogonek" unicode="&#x12f;" horiz-adv-x="294" 
d="M147 791q-38 0 -66 27t-28 64q0 36 28.5 63.5t65.5 27.5t65 -27.5t28 -63.5q0 -37 -28 -64t-65 -27zM250 -207l74 -61q-30 -45 -79.5 -75t-96.5 -30q-63 -1 -104 35t-41 106q0 51 30.5 117t82.5 115h-50v679q26 8 83 8t79 -8v-677h3q-111 -119 -111 -207q0 -24 15 -37.5
t36 -11.5q21 0 43 13.5t36 33.5z" />
    <glyph glyph-name="Idotaccent" unicode="&#x130;" horiz-adv-x="273" 
d="M137 982q-30 0 -52 22t-22 51q0 28 22 50t52 22q28 0 50.5 -22t22.5 -50q0 -29 -22 -51t-51 -22zM59 0v903q30 11 81 9t74 -9v-903h-155z" />
    <glyph glyph-name="dotlessi" unicode="&#x131;" horiz-adv-x="294" 
d="M66 0v679q26 8 83 8t79 -8v-679h-162z" />
    <glyph glyph-name="IJ" unicode="&#x132;" horiz-adv-x="1081" 
d="M59 0v903q30 11 81 9t74 -9v-903h-155zM634 -18q-106 0 -204 49t-173 134q11 39 37.5 71t54.5 41q53 -72 124.5 -114.5t144.5 -42.5q115 0 176 76.5t61 202.5v503q35 9 89 8t75 -8v-531q0 -104 -43.5 -191t-133 -142.5t-208.5 -55.5z" />
    <glyph glyph-name="ij" unicode="&#x133;" horiz-adv-x="612" 
d="M147 791q-38 0 -66 27t-28 64q0 36 28.5 63.5t65.5 27.5t65 -27.5t28 -63.5q0 -37 -28 -64t-65 -27zM457 791q-38 0 -66 27t-28 64q0 35 28.5 63t65.5 28t65 -28t28 -63q0 -37 -28 -64t-65 -27zM66 0v679q26 8 83 8t79 -8v-679h-162zM352 -251q-46 0 -99 18
q-9 29 1.5 73.5t30.5 66.5q28 -11 44 -11q28 0 38.5 36.5t10.5 129.5v617q27 8 83.5 8t78.5 -8v-694q0 -108 -49.5 -172.5t-138.5 -63.5z" />
    <glyph glyph-name="Jcircumflex" unicode="&#x134;" horiz-adv-x="856" 
d="M752 1182l200 -222h-125l-115 121l-116 -121h-126l202 222h80zM629 902q35 9 89 8t75 -8v-531q0 -104 -43.5 -191t-133 -142.5t-208.5 -55.5q-105 0 -203.5 49t-173.5 134q11 39 37.5 71t54.5 41q54 -72 125.5 -114.5t143.5 -42.5q115 0 176 76.5t61 202.5v503z" />
    <glyph glyph-name="jcircumflex" unicode="&#x135;" horiz-adv-x="318" 
d="M203 1019l205 -239h-129l-115 126l-116 -126h-131l208 239h78zM84 679q27 8 83.5 8t78.5 -8v-694q0 -108 -49.5 -172.5t-138.5 -63.5q-46 0 -99 18q-9 29 1.5 73.5t30.5 66.5q28 -11 44 -11q28 0 38.5 36.5t10.5 129.5v617z" />
    <glyph glyph-name="uni0136" unicode="&#x136;" horiz-adv-x="959" 
d="M540 456q11 -12 31 -36q86 -100 130 -149.5t110.5 -115.5t128.5 -115l-2 -25q-23 -8 -75 -17t-96 -9q-78 51 -362 389q-85 -47 -182 -90v-288h-164v902q30 11 85.5 9t78.5 -9v-464q157 74 256 142q242 163 233 314q56 30 155 10q16 -90 -50.5 -198.5t-202.5 -201.5
q-24 -16 -74 -48zM336 -301l39 228h126l-58 -228h-107z" />
    <glyph glyph-name="uni0137" unicode="&#x137;" horiz-adv-x="835" 
d="M512 341q190 -209 238 -252q34 -31 59 -46v-26q-24 -9 -81 -16.5t-107 -6.5q-45 21 -246 256q-77 -45 -161 -82v-168h-162v934q33 11 83 11t79 -11v-611q74 39 158 97q97 66 146.5 123.5t46.5 123.5q67 27 177 12q19 -80 -39 -165.5t-184 -167.5q-1 -1 -3.5 -2.5
t-3.5 -2.5zM293 -300l39 228h126l-58 -228h-107z" />
    <glyph glyph-name="kgreenlandic" unicode="&#x138;" horiz-adv-x="835" 
d="M512 341q190 -209 238 -252q34 -31 59 -46v-26q-24 -9 -81 -16.5t-107 -6.5q-45 21 -246 256q-77 -45 -161 -82v-168h-162v679q33 11 83 11t79 -11v-356q74 39 158 97q96 65 146 124t47 125q65 30 177 13q19 -80 -39 -166.5t-184 -169.5q-1 -1 -3.5 -2.5t-3.5 -2.5z" />
    <glyph glyph-name="Lacute" unicode="&#x139;" horiz-adv-x="794" 
d="M84 958l166 193h151l-216 -193h-101zM90 0l-31 31v871q31 11 84.5 9.5t79.5 -9.5v-770h528q15 -18 15.5 -62t-15.5 -70h-661z" />
    <glyph glyph-name="lacute" unicode="&#x13a;" horiz-adv-x="372" 
d="M88 992l166 193h151l-216 -193h-101zM238 -18q-168 0 -168 212v740q27 10 79 10t83 -10v-692q0 -128 58 -128q15 0 47 9q11 -21 14.5 -57t-4.5 -62q-64 -21 -109 -22z" />
    <glyph glyph-name="uni013B" unicode="&#x13b;" horiz-adv-x="794" 
d="M90 0l-31 31v871q31 11 84.5 9.5t79.5 -9.5v-770h528q15 -18 15.5 -62t-15.5 -70h-661zM308 -300l39 228h126l-58 -228h-107z" />
    <glyph glyph-name="uni013C" unicode="&#x13c;" horiz-adv-x="372" 
d="M238 -18q-168 0 -168 212v740q27 10 79 10t83 -10v-692q0 -128 58 -128q15 0 47 9q11 -21 14.5 -57t-4.5 -62q-64 -21 -109 -22zM123 -311l39 228h126l-58 -228h-107z" />
    <glyph glyph-name="Lcaron" unicode="&#x13d;" horiz-adv-x="794" 
d="M504 818l16 333h154l-54 -333h-116zM90 0l-31 31v871q31 11 84.5 9.5t79.5 -9.5v-770h528q15 -18 15.5 -62t-15.5 -70h-661z" />
    <glyph glyph-name="lcaron" unicode="&#x13e;" horiz-adv-x="372" 
d="M357 853l16 333h154l-54 -333h-116zM238 -18q-168 0 -168 212v740q27 10 79 10t83 -10v-692q0 -128 58 -128q15 0 47 9q11 -21 14.5 -57t-4.5 -62q-64 -21 -109 -22z" />
    <glyph glyph-name="Lslash" unicode="&#x141;" horiz-adv-x="878" 
d="M835 132q15 -18 15.5 -62t-15.5 -70h-661l-31 31v288l-104 -39v149l104 39v434q31 11 84.5 9.5t79.5 -9.5v-372l230 86v-149l-230 -86v-249h528z" />
    <glyph glyph-name="lslash" unicode="&#x142;" horiz-adv-x="405" 
d="M371 548l-121 -54v-252q0 -128 58 -128q14 0 48 9q11 -21 14 -57t-5 -62q-64 -21 -109 -22q-168 0 -168 212v228l-100 -45v131l100 45v381q27 10 79 10t83 -10v-308l121 54v-132z" />
    <glyph glyph-name="Nacute" unicode="&#x143;" horiz-adv-x="954" 
d="M732 1153l-216 -193h-101l166 193h151zM731 902q29 11 84.5 9t79.5 -9v-902h-119l-553 627v-627h-164v871q15 18 57 30.5t62 5.5l553 -636v631z" />
    <glyph glyph-name="nacute" unicode="&#x144;" horiz-adv-x="788" 
d="M648 1034l-188 -249h-101l127 249h162zM464 710q272 0 272 -342v-368h-162v345q0 229 -141 229q-80 0 -143 -86.5t-63 -194.5v-293h-161v505q0 84 -14 151v23q87 18 152 11q12 -38 12 -84v-18q45 55 110.5 88.5t137.5 33.5z" />
    <glyph glyph-name="uni0145" unicode="&#x145;" horiz-adv-x="954" 
d="M731 902q29 11 84.5 9t79.5 -9v-902h-119l-553 627v-627h-164v871q15 18 57 30.5t62 5.5l553 -636v631zM380 -300l39 228h126l-58 -228h-107z" />
    <glyph glyph-name="uni0146" unicode="&#x146;" horiz-adv-x="788" 
d="M464 710q272 0 272 -342v-368h-162v345q0 229 -141 229q-80 0 -143 -86.5t-63 -194.5v-293h-161v505q0 84 -14 151v23q87 18 152 11q12 -38 12 -84v-18q45 55 110.5 88.5t137.5 33.5zM300 -300l39 228h126l-58 -228h-107z" />
    <glyph glyph-name="Ncaron" unicode="&#x147;" horiz-adv-x="954" 
d="M517 955h-78l-208 230h130l116 -123l116 123h129zM731 902q29 11 84.5 9t79.5 -9v-902h-119l-553 627v-627h-164v871q15 18 57 30.5t62 5.5l553 -636v631z" />
    <glyph glyph-name="ncaron" unicode="&#x148;" horiz-adv-x="788" 
d="M471 785h-78l-208 239h131l116 -131l115 131h129zM464 710q272 0 272 -342v-368h-162v345q0 229 -141 229q-80 0 -143 -86.5t-63 -194.5v-293h-161v505q0 84 -14 151v23q87 18 152 11q12 -38 12 -84v-18q45 55 110.5 88.5t137.5 33.5z" />
    <glyph glyph-name="Eng" unicode="&#x14a;" horiz-adv-x="945" 
d="M501 -370q-106 0 -204 45.5t-174 126.5q12 39 38.5 71t53.5 41q57 -68 133 -106.5t153 -38.5q108 0 173.5 73t65.5 186l-517 593v-621h-164v856q15 18 57 30.5t62 5.5l542 -620v614q30 11 85 9t79 -9l1 -879q0 -158 -105 -267.5t-279 -109.5z" />
    <glyph glyph-name="eng" unicode="&#x14b;" horiz-adv-x="813" 
d="M464 710q272 0 272 -342v-383q0 -108 -49 -172.5t-139 -63.5q-45 0 -99 18q-9 29 2 73.5t30 66.5q28 -11 44 -11q28 0 38.5 35t10.5 123v291q0 212 -141 212q-79 0 -142.5 -81.5t-63.5 -182.5v-293h-161v505q0 84 -14 151v23q87 18 152 11q15 -50 16 -111q45 61 109.5 96
t134.5 35z" />
    <glyph glyph-name="Omacron" unicode="&#x14c;" horiz-adv-x="940" 
d="M262 998v108h470v-108h-470zM430 -18q-178 0 -289 123t-111 304q0 142 61.5 260.5t172.5 187.5t248 69q113 0 205 -61t142.5 -162.5t50.5 -221.5q0 -132 -61.5 -246.5t-173 -183.5t-245.5 -69zM439 120q84 0 153.5 52.5t108.5 137.5t39 181q1 129 -66 212.5t-177 83.5
q-129 0 -213.5 -110t-83.5 -268q0 -123 62 -206t177 -83z" />
    <glyph glyph-name="omacron" unicode="&#x14d;" horiz-adv-x="775" 
d="M152 822v117h497v-117h-497zM362 -18q-156 0 -245 96.5t-89 243.5q0 160 112 274t276 114q153 0 241 -93t90 -241q3 -172 -106 -283t-279 -111zM371 117q90 0 150.5 73.5t60.5 169.5q0 91 -48 153.5t-128 62.5q-90 0 -151.5 -75.5t-61.5 -179.5q0 -87 46.5 -145.5
t131.5 -58.5z" />
    <glyph glyph-name="Ohungarumlaut" unicode="&#x150;" horiz-adv-x="940" 
d="M303 983l133 179h136l-179 -179h-90zM513 983l152 179h153l-213 -179h-92zM430 -18q-178 0 -289 123t-111 304q0 142 61.5 260.5t172.5 187.5t248 69q113 0 205 -61t142.5 -162.5t50.5 -221.5q0 -132 -61.5 -246.5t-173 -183.5t-245.5 -69zM439 120q84 0 153.5 52.5
t108.5 137.5t39 181q1 129 -66 212.5t-177 83.5q-129 0 -213.5 -110t-83.5 -268q0 -123 62 -206t177 -83z" />
    <glyph glyph-name="ohungarumlaut" unicode="&#x151;" horiz-adv-x="775" 
d="M222 785l120 248h152l-171 -248h-101zM451 785l135 248h163l-196 -248h-102zM362 -18q-156 0 -245 96.5t-89 243.5q0 160 112 274t276 114q153 0 241 -93t90 -241q3 -172 -106 -283t-279 -111zM371 117q90 0 150.5 73.5t60.5 169.5q0 91 -48 153.5t-128 62.5
q-90 0 -151.5 -75.5t-61.5 -179.5q0 -87 46.5 -145.5t131.5 -58.5z" />
    <glyph glyph-name="OE" unicode="&#x152;" horiz-adv-x="1492" 
d="M1448 132q15 -17 15 -62t-15 -70h-698v111q-139 -129 -323 -129q-179 0 -288 122.5t-109 304.5q0 142 63 260.5t175 187.5t248 69q131 0 234 -84v28l17 16h660q8 -29 -2 -71t-25 -61h-486v-253h440q8 -32 -2 -75t-26 -57h-412v-237h534zM741 491q1 129 -66 212.5
t-177 83.5q-130 0 -214.5 -110t-83.5 -268q0 -122 62.5 -205.5t177.5 -83.5q84 0 153.5 52.5t108.5 137.5t39 181z" />
    <glyph glyph-name="oe" unicode="&#x153;" horiz-adv-x="1296" 
d="M959 710q147 0 235 -94.5t73 -252.5l-22 -30l-484 -86q21 -63 72.5 -97t117.5 -33q108 2 212 86q11 -4 20.5 -12t16.5 -17t13 -18.5t10 -18.5t6.5 -16t4.5 -11l1 -5q-139 -123 -300 -123q-85 -1 -157 33.5t-118 98.5q-110 -132 -298 -132q-156 0 -245 96.5t-89 243.5
q0 160 112 274t276 114q181 0 269 -127q106 127 274 127zM1110 422q3 72 -39 117t-112 45q-80 0 -138.5 -62.5t-69.5 -156.5zM371 117q90 0 150.5 73.5t60.5 169.5q0 91 -48 153.5t-128 62.5q-90 0 -151.5 -75.5t-61.5 -179.5q0 -87 46.5 -145.5t131.5 -58.5z" />
    <glyph glyph-name="Racute" unicode="&#x154;" horiz-adv-x="943" 
d="M676 1167l-216 -193h-101l166 193h151zM610 315q84 -96 148 -160.5t137 -120.5l-2 -26q-20 -7 -74.5 -14t-100.5 -6q-55 31 -289 294h-17q-92 0 -189 22v-304h-164v882q170 44 369 44q190 0 296.5 -85t106.5 -235q0 -103 -59 -178t-162 -113zM223 778v-342
q91 -22 189 -22q109 -1 179 50.5t70 143.5q0 83 -64 134.5t-187 51.5q-104 0 -187 -16z" />
    <glyph glyph-name="racute" unicode="&#x155;" horiz-adv-x="571" 
d="M510 1046l-188 -249h-101l127 249h162zM541 684q9 -27 -7 -71.5t-38 -67.5q-47 19 -88 19q-83 -1 -131 -75.5t-48 -192.5v-296h-163v505q0 84 -14 151v23q82 18 144 11q12 -38 12 -84v-38q33 64 87.5 103t121.5 39q63 0 124 -26z" />
    <glyph glyph-name="uni0156" unicode="&#x156;" horiz-adv-x="943" 
d="M610 315q84 -96 148 -160.5t137 -120.5l-2 -26q-20 -7 -74.5 -14t-100.5 -6q-55 31 -289 294h-17q-92 0 -189 22v-304h-164v882q170 44 369 44q190 0 296.5 -85t106.5 -235q0 -103 -59 -178t-162 -113zM223 778v-342q91 -22 189 -22q109 -1 179 50.5t70 143.5
q0 83 -64 134.5t-187 51.5q-104 0 -187 -16zM375 -300l39 228h126l-58 -228h-107z" />
    <glyph glyph-name="uni0157" unicode="&#x157;" horiz-adv-x="571" 
d="M541 684q9 -27 -7 -71.5t-38 -67.5q-47 19 -88 19q-83 -1 -131 -75.5t-48 -192.5v-296h-163v505q0 84 -14 151v23q82 18 144 11q12 -38 12 -84v-38q33 64 87.5 103t121.5 39q63 0 124 -26zM35 -300l39 228h126l-58 -228h-107z" />
    <glyph glyph-name="Rcaron" unicode="&#x158;" horiz-adv-x="943" 
d="M462 969h-78l-208 230h130l116 -123l116 123h129zM610 315q84 -96 148 -160.5t137 -120.5l-2 -26q-20 -7 -74.5 -14t-100.5 -6q-55 31 -289 294h-17q-92 0 -189 22v-304h-164v882q170 44 369 44q190 0 296.5 -85t106.5 -235q0 -103 -59 -178t-162 -113zM223 778v-342
q91 -22 189 -22q109 -1 179 50.5t70 143.5q0 83 -64 134.5t-187 51.5q-104 0 -187 -16z" />
    <glyph glyph-name="rcaron" unicode="&#x159;" horiz-adv-x="571" 
d="M333 797h-78l-208 239h131l116 -131l115 131h129zM541 684q9 -27 -7 -71.5t-38 -67.5q-47 19 -88 19q-83 -1 -131 -75.5t-48 -192.5v-296h-163v505q0 84 -14 151v23q82 18 144 11q12 -38 12 -84v-38q33 64 87.5 103t121.5 39q63 0 124 -26z" />
    <glyph glyph-name="Sacute" unicode="&#x15a;" horiz-adv-x="881" 
d="M395 984l166 193h151l-216 -193h-101zM467 -18q-121 0 -235 36.5t-202 104.5q3 27 28.5 69.5t59.5 51.5q75 -61 165.5 -95.5t182.5 -34.5q103 0 159 42.5t56 105.5q0 66 -57.5 99t-177.5 40q-158 6 -249.5 70.5t-90.5 185.5q1 81 50.5 143.5t128.5 94t173 31.5
q181 0 281.5 -83t100.5 -199q-33 -10 -79.5 -14t-79.5 3q-5 73 -62.5 117t-162.5 44q-79 0 -129.5 -38t-50.5 -96q-1 -61 54 -92t140 -36q381 -18 381 -261q0 -132 -105.5 -210.5t-278.5 -78.5z" />
    <glyph glyph-name="sacute" unicode="&#x15b;" horiz-adv-x="744" 
d="M304 785l127 249h162l-188 -249h-101zM385 -18q-100 0 -191.5 28t-157.5 81q24 83 72 114q117 -88 260 -88q76 0 124.5 25t48.5 64q0 44 -45 63t-150 25q-278 18 -278 192q0 92 85 158t221 66q192 0 324 -81q-7 -62 -46 -125q-120 72 -258 72q-76 0 -118.5 -26t-42.5 -61
t36.5 -53.5t119.5 -22.5q170 -7 244 -58t74 -148q0 -99 -91.5 -162t-230.5 -63z" />
    <glyph glyph-name="Scedilla" unicode="&#x15e;" horiz-adv-x="881" 
d="M851 271q0 -127 -98 -204.5t-259 -83.5q3 -17 13 -31.5t29 -34.5t30 -36q36 -49 36 -102q1 -60 -42 -103t-104 -44q-78 -2 -144 70l76 76q34 -38 66 -38q18 0 29.5 13.5t11.5 34.5q0 15 -9.5 29t-26.5 32t-25 30q-41 51 -42 107q-211 20 -362 137q3 27 28.5 69.5
t59.5 51.5q75 -61 165.5 -95.5t182.5 -34.5q103 0 159 42.5t56 105.5q0 66 -57.5 99t-177.5 40q-158 6 -249.5 70.5t-90.5 185.5q1 81 50.5 143.5t128.5 94t173 31.5q181 0 281.5 -83t100.5 -199q-33 -10 -79.5 -14t-79.5 3q-5 73 -62.5 117t-162.5 44q-79 0 -129.5 -38
t-50.5 -96q-1 -61 54 -92t140 -36q381 -18 381 -261z" />
    <glyph glyph-name="scedilla" unicode="&#x15f;" horiz-adv-x="744" 
d="M707 207q0 -93 -81.5 -154.5t-209.5 -69.5q3 -17 13 -31t29 -33.5t30 -35.5q36 -49 36 -102q1 -60 -42 -103t-104 -44q-79 0 -144 70l76 77q35 -39 66 -39q17 1 28.5 14t12.5 34q0 15 -9.5 29t-26.5 32t-25 30q-39 50 -42 105q-168 16 -278 105q24 83 72 114
q117 -88 260 -88q76 0 124.5 25t48.5 64q0 44 -45 63t-150 25q-278 18 -278 192q0 92 85 158t221 66q192 0 324 -81q-7 -62 -46 -125q-120 72 -258 72q-76 0 -118.5 -26t-42.5 -61t36.5 -53.5t119.5 -22.5q170 -7 244 -58t74 -148z" />
    <glyph glyph-name="Scaron" unicode="&#x160;" horiz-adv-x="881" 
d="M498 979h-78l-208 230h130l116 -123l116 123h129zM470 532q381 -18 381 -261q0 -132 -105.5 -210.5t-278.5 -78.5q-121 0 -235 36.5t-202 104.5q3 27 28.5 69.5t59.5 51.5q75 -61 165.5 -95.5t182.5 -34.5q103 0 159 42.5t56 105.5q0 66 -57.5 99t-177.5 40
q-158 6 -249.5 70.5t-90.5 185.5q1 81 50.5 143.5t128.5 94t173 31.5q181 0 281.5 -83t100.5 -199q-33 -10 -79.5 -14t-79.5 3q-5 73 -62.5 117t-162.5 44q-79 0 -129.5 -38t-50.5 -96q-1 -61 54 -92t140 -36z" />
    <glyph glyph-name="scaron" unicode="&#x161;" horiz-adv-x="744" 
d="M416 785h-78l-208 239h131l116 -131l115 131h129zM389 413q170 -7 244 -58t74 -148q0 -99 -91.5 -162t-230.5 -63q-100 0 -191.5 28t-157.5 81q24 83 72 114q117 -88 260 -88q76 0 124.5 25t48.5 64q0 44 -45 63t-150 25q-278 18 -278 192q0 92 85 158t221 66
q192 0 324 -81q-7 -62 -46 -125q-120 72 -258 72q-76 0 -118.5 -26t-42.5 -61t36.5 -53.5t119.5 -22.5z" />
    <glyph glyph-name="uni0162" unicode="&#x162;" horiz-adv-x="889" 
d="M525 770v-770h-45q0 -22 9 -38t30.5 -38.5t33.5 -38.5q36 -49 36 -102q1 -60 -42 -103t-104 -44q-78 -2 -144 70l76 76q34 -38 66 -38q18 0 29.5 13.5t11.5 34.5q0 15 -9.5 29t-26.5 32t-25 30q-25 31 -33.5 55.5t-8.5 61.5h-24v770h-331q-7 29 -2 68.5t19 63.5h825
q7 -29 -2.5 -71.5t-25.5 -60.5h-313z" />
    <glyph glyph-name="uni0163" unicode="&#x163;" horiz-adv-x="550" 
d="M373 -18h-14q6 -17 32 -45t37 -43q36 -49 36 -102q1 -60 -42 -103t-104 -44q-79 0 -144 70l76 77q35 -39 66 -39q17 1 28.5 14t12.5 34q0 15 -9.5 29t-26.5 32t-25 30q-41 52 -42 113q-150 68 -150 308v234h-88v132h88v179q26 15 73 23t88 -1v-201h241v-132h-241v-223
q0 -205 131 -205q38 0 89 18q15 -16 23 -61.5t-1 -69.5q-71 -24 -134 -24z" />
    <glyph glyph-name="Tcaron" unicode="&#x164;" horiz-adv-x="889" 
d="M475 955h-78l-208 230h130l116 -123l116 123h129zM866 902q7 -29 -2.5 -71.5t-25.5 -60.5h-313v-770h-170v770h-331q-7 29 -2 68.5t19 63.5h825z" />
    <glyph glyph-name="tcaron" unicode="&#x165;" horiz-adv-x="550" 
d="M432 1119h154l-54 -333h-116zM396 119q38 0 89 18q15 -16 23 -61.5t-1 -69.5q-71 -24 -134 -24q-125 -2 -197 82t-72 249v234h-88v132h88v179q26 15 73 23t88 -1v-201h241v-132h-241v-223q0 -205 131 -205z" />
    <glyph glyph-name="Tbar" unicode="&#x166;" horiz-adv-x="908" 
d="M861 770h-313v-281h188v-120h-188v-369h-170v369h-182v120h182v281h-330q-7 29 -2.5 68.5t18.5 63.5h825q7 -29 -2.5 -71.5t-25.5 -60.5z" />
    <glyph glyph-name="tbar" unicode="&#x167;" horiz-adv-x="546" 
d="M481 137q15 -16 23 -61.5t0 -69.5q-72 -24 -135 -24q-125 -2 -197 82t-72 249v35h-88v114h88v115h-88v113h88v168q26 15 73.5 23t87.5 -1v-190h242v-113h-242v-115h242v-114h-242v-24q0 -205 131 -205q38 0 89 18z" />
    <glyph glyph-name="Umacron" unicode="&#x16a;" horiz-adv-x="952" 
d="M241 992v108h470v-108h-470zM466 -24q-200 0 -303.5 108.5t-103.5 312.5v505q28 10 86.5 8.5t79.5 -8.5v-512q0 -131 62 -203t179 -72q124 0 192.5 79t68.5 208v500q29 10 85.5 8.5t79.5 -8.5v-502q0 -190 -111 -307t-315 -117z" />
    <glyph glyph-name="umacron" unicode="&#x16b;" horiz-adv-x="781" 
d="M636 939v-117h-497v117h497zM715 225q0 -144 27 -206l-2 -19h-137q-16 16 -24 36t-11 60q-43 -53 -106.5 -83.5t-138.5 -30.5q-123 0 -197 76t-74 233v388q66 18 162 0v-360q0 -202 143 -202q92 0 144 79.5t52 209.5v273q30 8 87 6.5t75 -6.5v-454z" />
    <glyph glyph-name="Uring" unicode="&#x16e;" horiz-adv-x="952" 
d="M478 891q-91 0 -146 41t-55 109q0 64 53.5 106.5t147.5 42.5q92 0 144.5 -42t52.5 -107t-56.5 -107.5t-140.5 -42.5zM476 962q45 0 76 22.5t31 55.5q0 35 -30 57t-77 22q-49 0 -78 -22.5t-29 -56.5t29.5 -56t77.5 -22zM466 -24q-200 0 -303.5 108.5t-103.5 312.5v505
q28 10 86.5 8.5t79.5 -8.5v-512q0 -131 62 -203t179 -72q124 0 192.5 79t68.5 208v500q29 10 85.5 8.5t79.5 -8.5v-502q0 -190 -111 -307t-315 -117z" />
    <glyph glyph-name="uring" unicode="&#x16f;" horiz-adv-x="781" 
d="M388 768q-91 0 -146 41t-55 108q0 65 53.5 107.5t147.5 42.5q92 0 144.5 -42t52.5 -108q0 -64 -56.5 -106.5t-140.5 -42.5zM386 996q-49 0 -78 -22.5t-29 -56.5t29.5 -56t77.5 -22q45 0 76 22.5t31 55.5q0 34 -30 56.5t-77 22.5zM715 225q0 -144 27 -206l-2 -19h-137
q-16 16 -24 36t-11 60q-43 -53 -106.5 -83.5t-138.5 -30.5q-123 0 -197 76t-74 233v388q66 18 162 0v-360q0 -202 143 -202q92 0 144 79.5t52 209.5v273q30 8 87 6.5t75 -6.5v-454z" />
    <glyph glyph-name="Uhungarumlaut" unicode="&#x170;" horiz-adv-x="952" 
d="M282 977l133 179h136l-179 -179h-90zM492 977l152 179h153l-213 -179h-92zM466 -24q-200 0 -303.5 108.5t-103.5 312.5v505q28 10 86.5 8.5t79.5 -8.5v-512q0 -131 62 -203t179 -72q124 0 192.5 79t68.5 208v500q29 10 85.5 8.5t79.5 -8.5v-502q0 -190 -111 -307
t-315 -117z" />
    <glyph glyph-name="uhungarumlaut" unicode="&#x171;" horiz-adv-x="781" 
d="M481 1033l-171 -248h-101l120 248h152zM540 785h-102l135 248h163zM715 225q0 -144 27 -206l-2 -19h-137q-16 16 -24 36t-11 60q-43 -53 -106.5 -83.5t-138.5 -30.5q-123 0 -197 76t-74 233v388q66 18 162 0v-360q0 -202 143 -202q92 0 144 79.5t52 209.5v273
q30 8 87 6.5t75 -6.5v-454z" />
    <glyph glyph-name="Uogonek" unicode="&#x172;" horiz-adv-x="952" 
d="M727 902q29 10 85.5 8.5t79.5 -8.5v-502q0 -181 -101.5 -296.5t-288.5 -126.5q-94 -108 -94 -188q0 -24 15 -37.5t36 -11.5q21 0 43 13.5t36 33.5l74 -61q-30 -45 -79.5 -75t-96.5 -30q-63 -1 -104 35t-41 106q0 48 26.5 109t72.5 109q-163 20 -247 126.5t-84 290.5v505
q28 10 86.5 8.5t79.5 -8.5v-512q0 -131 62 -203t179 -72q124 0 192.5 79t68.5 208v500z" />
    <glyph glyph-name="uogonek" unicode="&#x173;" horiz-adv-x="781" 
d="M723 -203l74 -61q-30 -45 -79.5 -75t-96.5 -30q-63 -1 -104 35t-41 106q0 53 32 121t87 116q-23 26 -27 87q-43 -53 -106.5 -83.5t-138.5 -30.5q-123 0 -197 76t-74 233v388q66 18 162 0v-360q0 -202 143 -202q92 0 144 79.5t52 209.5v273q30 8 87 6.5t75 -6.5v-454
q0 -144 27 -206l-2 -19h-42q-105 -116 -105 -201q0 -24 15 -37.5t36 -11.5q21 0 43 13.5t36 33.5z" />
    <glyph glyph-name="Wcircumflex" unicode="&#x174;" horiz-adv-x="1325" 
d="M662 1080l-116 -121h-126l202 222h80l200 -222h-125zM1283 902q20 -75 20.5 -177t-20.5 -218.5t-75 -243.5t-136 -233l-52 -30h-170l-28 17q-39 133 -98 308q-17 -61 -63 -159t-76 -146l-40 -20h-165l-40 21q-85 260 -180 506t-148 349l9 26q31 8 75.5 8t79.5 -8
q65 -123 146 -341.5t142 -423.5h5q48 80 105.5 208t75.5 201q-4 16 -57 174q14 23 62 43.5t91 16.5q34 -73 101 -284.5t102 -358.5h7q118 169 160.5 383t12.5 371q53 32 154 11z" />
    <glyph glyph-name="wcircumflex" unicode="&#x175;" horiz-adv-x="1052" 
d="M535 891l-116 -126h-131l208 239h78l205 -239h-129zM1035 679q21 -125 -30.5 -317.5t-154.5 -346.5l-28 -15h-157l-29 19q-31 114 -74 223q-14 -41 -47.5 -115t-57.5 -113l-23 -14h-173l-26 18q-73 259 -226 637l11 24q34 7 77.5 8t77.5 -8q39 -80 93 -228.5t92 -306.5h9
q74 173 114 324l-37 100q14 26 59 47t90 15q91 -227 150 -486h11q137 306 117 524q56 31 162 11z" />
    <glyph glyph-name="Ycircumflex" unicode="&#x176;" horiz-adv-x="889" 
d="M444 1080l-116 -121h-126l202 222h80l200 -222h-125zM868 902q8 -57 -1.5 -118.5t-40.5 -136.5t-98.5 -162t-166.5 -176v-309h-164v323q-69 109 -193.5 292.5t-188.5 259.5l11 27q38 7 88.5 8t88.5 -8q42 -45 146 -202t153 -246q100 92 155.5 222t47.5 214q55 33 163 12z
" />
    <glyph glyph-name="ycircumflex" unicode="&#x177;" horiz-adv-x="774" 
d="M391 907l-116 -126h-131l208 239h78l205 -239h-129zM752 679q10 -67 10 -145t-23 -171t-58.5 -181t-97.5 -175t-140 -152q-138 -114 -311 -116q-57 0 -91 17q-24 61 -2 116l28 16q28 -14 66 -14q110 0 237 125l23 23q-75 52 -138.5 126t-103 143t-70 145t-44 126
t-21.5 93l8 24q84 19 150 0q10 -46 26.5 -98.5t51 -134.5t94.5 -164.5t136 -144.5q131 207 115 529q50 35 155 13z" />
    <glyph glyph-name="Ydieresis" unicode="&#x178;" horiz-adv-x="889" 
d="M305 983q-30 0 -52 22t-22 51q0 28 22 50t52 22q28 0 50.5 -22t22.5 -50q0 -29 -22 -51t-51 -22zM589 983q-29 0 -51.5 22t-22.5 51q0 28 22.5 50t51.5 22t51.5 -22t22.5 -50q0 -29 -22.5 -51t-51.5 -22zM868 902q8 -57 -1.5 -118.5t-40.5 -136.5t-98.5 -162t-166.5 -176
v-309h-164v323q-69 109 -193.5 292.5t-188.5 259.5l11 27q38 7 88.5 8t88.5 -8q42 -45 146 -202t153 -246q100 92 155.5 222t47.5 214q55 33 163 12z" />
    <glyph glyph-name="Zacute" unicode="&#x179;" horiz-adv-x="861" 
d="M685 1153l-216 -193h-101l166 193h151zM815 132q15 -17 16 -62t-16 -70h-754q-15 12 -24.5 49.5t-5.5 63.5q122 195 264.5 376t272.5 281h-509q-15 17 -16 62t16 70h725q14 -11 24.5 -55.5t7.5 -73.5q-141 -98 -304 -287.5t-265 -353.5h568z" />
    <glyph glyph-name="zacute" unicode="&#x17a;" horiz-adv-x="731" 
d="M583 1034l-188 -249h-101l127 249h162zM699 135q16 -11 16 -59.5t-16 -75.5h-648q-16 13 -26.5 51t-8.5 68q104 147 195.5 246t220.5 180h-376q-16 17 -16 61.5t16 72.5h612q15 -12 25 -61.5t7 -81.5q-104 -43 -226.5 -151.5t-228.5 -249.5h454z" />
    <glyph glyph-name="Zdotaccent" unicode="&#x17b;" horiz-adv-x="861" 
d="M431 982q-30 0 -52 22t-22 51q0 28 22 50t52 22q28 0 50.5 -22t22.5 -50q0 -29 -22 -51t-51 -22zM815 132q15 -17 16 -62t-16 -70h-754q-15 12 -24.5 49.5t-5.5 63.5q122 195 264.5 376t272.5 281h-509q-15 17 -16 62t16 70h725q14 -11 24.5 -55.5t7.5 -73.5
q-141 -98 -304 -287.5t-265 -353.5h568z" />
    <glyph glyph-name="zdotaccent" unicode="&#x17c;" horiz-adv-x="731" 
d="M366 791q-38 0 -66 27t-28 64q0 36 28.5 63.5t65.5 27.5t65 -27.5t28 -63.5q0 -37 -28 -64t-65 -27zM699 135q16 -11 16 -59.5t-16 -75.5h-648q-16 13 -26.5 51t-8.5 68q104 147 195.5 246t220.5 180h-376q-16 17 -16 61.5t16 72.5h612q15 -12 25 -61.5t7 -81.5
q-104 -43 -226.5 -151.5t-228.5 -249.5h454z" />
    <glyph glyph-name="Zcaron" unicode="&#x17d;" horiz-adv-x="861" 
d="M471 955h-78l-208 230h130l116 -123l116 123h129zM815 132q15 -17 16 -62t-16 -70h-754q-15 12 -24.5 49.5t-5.5 63.5q122 195 264.5 376t272.5 281h-509q-15 17 -16 62t16 70h725q14 -11 24.5 -55.5t7.5 -73.5q-141 -98 -304 -287.5t-265 -353.5h568z" />
    <glyph glyph-name="zcaron" unicode="&#x17e;" horiz-adv-x="731" 
d="M406 785h-78l-208 239h131l116 -131l115 131h129zM699 135q16 -11 16 -59.5t-16 -75.5h-648q-16 13 -26.5 51t-8.5 68q104 147 195.5 246t220.5 180h-376q-16 17 -16 61.5t16 72.5h612q15 -12 25 -61.5t7 -81.5q-104 -43 -226.5 -151.5t-228.5 -249.5h454z" />
    <glyph glyph-name="longs" unicode="&#x17f;" horiz-adv-x="391" 
d="M99 0v627q0 165 58.5 247t183.5 83q65 0 147 -21q7 -23 -3 -68.5t-25 -61.5q-47 16 -88 16q-60 -1 -86 -48.5t-26 -140.5v-633h-161z" />
    <glyph glyph-name="florin" unicode="&#x192;" horiz-adv-x="491" 
d="M409 440v-134h-89q13 -167 13 -281q0 -107 -56 -168.5t-149 -61.5v134q29 0 46 29t17 80q0 72 -14 268h-95v134h86q-7 122 -7 211q0 110 53 169.5t152 59.5v-134q-30 0 -47 -29.5t-17 -81.5q0 -89 8 -195h99z" />
    <glyph glyph-name="uni01C7" unicode="&#x1c7;" horiz-adv-x="1613" 
d="M90 0l-31 31v871q31 11 84.5 9.5t79.5 -9.5v-770h528q15 -18 15.5 -62t-15.5 -70h-661zM1166 -18q-106 0 -204 49t-174 134q12 39 38.5 71t54.5 41q53 -72 124.5 -114.5t144.5 -42.5q115 0 176 76.5t61 202.5v503q35 9 89 8t75 -8v-531q0 -104 -43.5 -191t-133 -142.5
t-208.5 -55.5z" />
    <glyph glyph-name="uni01C8" unicode="&#x1c8;" horiz-adv-x="1076" 
d="M921 791q-38 0 -66 27t-28 64q0 35 28.5 63t65.5 28t65 -28t28 -63q0 -37 -28 -64t-65 -27zM90 0l-31 31v871q31 11 84.5 9.5t79.5 -9.5v-770h528q15 -18 15.5 -62t-15.5 -70h-661zM815 -251q-45 0 -98 18q-9 29 1.5 73.5t30.5 66.5q28 -11 43 -11q29 0 39.5 36.5
t10.5 129.5v617q26 8 83 8t78 -8v-694q0 -108 -49 -172.5t-139 -63.5z" />
    <glyph glyph-name="uni01C9" unicode="&#x1c9;" horiz-adv-x="690" 
d="M535 791q-38 0 -66 27t-28 64q0 36 28.5 63.5t65.5 27.5t65 -27.5t28 -63.5q0 -37 -28 -64t-65 -27zM238 -18q-168 0 -168 212v740q27 10 79 10t83 -10v-692q0 -128 58 -128q15 0 47 9q11 -21 14.5 -57t-4.5 -62q-64 -21 -109 -22zM430 -251q-47 0 -99 18q-9 29 1.5 73.5
t30.5 66.5q28 -11 44 -11q28 0 38.5 36.5t10.5 129.5v617q27 8 83.5 8t78.5 -8v-694q0 -108 -49.5 -172.5t-138.5 -63.5z" />
    <glyph glyph-name="uni01CA" unicode="&#x1ca;" horiz-adv-x="1755" 
d="M731 902q29 11 84.5 9t79.5 -9v-902h-119l-553 627v-627h-164v871q15 18 57 30.5t62 5.5l553 -636v631zM1529 902q35 9 89 8t75 -8v-531q0 -104 -43.5 -191t-133 -142.5t-208.5 -55.5q-105 0 -203.5 49t-173.5 134q11 39 37.5 71t54.5 41q54 -72 125.5 -114.5
t143.5 -42.5q115 0 176 76.5t61 202.5v503z" />
    <glyph glyph-name="uni01CB" unicode="&#x1cb;" horiz-adv-x="1233" 
d="M1077 791q-38 0 -65.5 27t-27.5 64q0 36 28 63.5t65 27.5t65.5 -28t28.5 -63q0 -36 -28.5 -63.5t-65.5 -27.5zM895 0h-119l-553 627v-627h-164v871q15 18 57 30.5t62 5.5l553 -636v631q29 11 84.5 9t79.5 -9v-902zM998 679q27 8 83.5 8t78.5 -8v-694q0 -108 -49.5 -172.5
t-138.5 -63.5q-45 0 -99 18q-9 29 2 73.5t30 66.5q28 -11 44 -11q29 0 39 36t10 130v617z" />
    <glyph glyph-name="uni01CC" unicode="&#x1cc;" horiz-adv-x="1172" 
d="M955 791q-37 0 -65 27t-28 64q0 36 28 63.5t65 27.5t65.5 -27.5t28.5 -63.5q0 -37 -28 -64t-66 -27zM464 710q272 0 272 -342v-368h-162v345q0 229 -141 229q-80 0 -143 -86.5t-63 -194.5v-293h-161v505q0 84 -14 151v23q87 18 152 11q12 -38 12 -84v-18
q45 55 110.5 88.5t137.5 33.5zM877 679q26 8 82.5 8t78.5 -8v-694q0 -108 -49 -172.5t-139 -63.5q-45 0 -99 18q-9 29 2 73.5t31 66.5q27 -11 43 -11q29 0 39.5 36.5t10.5 129.5v617z" />
    <glyph glyph-name="uni01CD" unicode="&#x1cd;" horiz-adv-x="966" 
d="M516 955h-78l-207 231h130l116 -124l115 124h129zM553 902q26 -56 117.5 -269.5t168.5 -382.5t115 -226l-10 -24q-129 -3 -176 18q-19 27 -82 179h-422l-75 -197h-177l382 902q29 12 81 11.5t78 -11.5zM314 329h320q-29 77 -85.5 225.5t-74.5 195.5z" />
    <glyph glyph-name="uni01CE" unicode="&#x1ce;" horiz-adv-x="742" 
d="M438 785h-78l-208 239h131l116 -131l115 131h129zM681 239q1 -104 8 -147t23 -75l-2 -17h-141q-35 29 -40 110q-113 -128 -275 -128q-93 0 -153 50.5t-59 127.5q0 112 113.5 187t289.5 83q44 0 65 -1q-9 71 -46 111t-97 40q-92 0 -220 -79q-49 19 -59 107
q154 102 293 102q138 1 218 -86t81 -248zM512 315l2 12q-37 3 -68 2q-114 -3 -179.5 -44t-65.5 -96q0 -37 24.5 -59.5t67.5 -22.5q84 0 147 65.5t72 142.5z" />
    <glyph glyph-name="uni01CF" unicode="&#x1cf;" horiz-adv-x="273" 
d="M177 955h-78l-208 230h130l116 -123l116 123h129zM59 903q30 11 81 9t74 -9v-903h-155v903z" />
    <glyph glyph-name="uni01D0" unicode="&#x1d0;" horiz-adv-x="294" 
d="M187 785h-78l-208 239h131l116 -131l115 131h129zM66 679q26 8 83 8t79 -8v-679h-162v679z" />
    <glyph glyph-name="uni01D2" unicode="&#x1d2;" horiz-adv-x="775" 
d="M439 785h-78l-207 239h130l116 -131l116 131h129zM747 376q3 -172 -106 -283t-279 -111q-156 0 -245 96.5t-89 243.5q0 160 112 274t276 114q153 0 241 -93t90 -241zM371 117q90 0 150.5 73.5t60.5 169.5q0 91 -48 153.5t-128 62.5q-90 0 -151.5 -75.5t-61.5 -179.5
q0 -87 46.5 -145.5t131.5 -58.5z" />
    <glyph glyph-name="uni01D3" unicode="&#x1d3;" horiz-adv-x="952" 
d="M516 962h-78l-207 230h130l116 -123l115 123h129zM727 902q29 10 85.5 8.5t79.5 -8.5v-502q0 -190 -111 -307t-315 -117q-200 0 -303.5 108.5t-103.5 312.5v505q28 10 86.5 8.5t79.5 -8.5v-512q0 -131 62 -203t179 -72q124 0 192.5 79t68.5 208v500z" />
    <glyph glyph-name="uni01D4" unicode="&#x1d4;" horiz-adv-x="781" 
d="M426 785h-78l-207 239h130l116 -131l115 131h129zM715 225q0 -144 27 -206l-2 -19h-137q-16 16 -24 36t-11 60q-43 -53 -106.5 -83.5t-138.5 -30.5q-123 0 -197 76t-74 233v388q66 18 162 0v-360q0 -202 143 -202q92 0 144 79.5t52 209.5v273q30 8 87 6.5t75 -6.5v-454z
" />
    <glyph glyph-name="uni01E2" unicode="&#x1e2;" horiz-adv-x="1442" 
d="M1181 1081v-108h-470v108h470zM1397 132q15 -17 15.5 -62t-15.5 -70h-675v197h-363l-140 -197h-207l686 902h678q9 -29 -1 -70.5t-26 -61.5h-463v-263h417q8 -31 -2 -74t-25 -58h-390v-243h511zM452 328l270 -1v381z" />
    <glyph glyph-name="uni01E3" unicode="&#x1e3;" horiz-adv-x="1212" 
d="M857 939v-117h-497v117h497zM875 710q147 0 235 -92.5t74 -251.5l-22 -29l-485 -87q21 -64 72.5 -99t118.5 -34q107 2 211 86q11 -4 20.5 -12t16.5 -17t13 -18.5t10 -18.5t6.5 -16t4.5 -11l1 -5q-139 -123 -300 -123q-87 -1 -161.5 36.5t-119.5 105.5
q-58 -68 -140.5 -106t-175.5 -36q-94 2 -153.5 51.5t-58.5 126.5q0 112 113 187t288 83q43 0 63 -1q-9 70 -45 109.5t-94 39.5q-87 0 -220 -77q-49 19 -59 107q154 102 293 102q154 2 230 -116q103 116 264 116zM1026 412q2 76 -39.5 124t-111.5 48q-83 0 -142.5 -66.5
t-66.5 -163.5zM509 315l2 12q-35 3 -65 2q-114 -3 -179.5 -44t-65.5 -96q0 -37 24.5 -59.5t67.5 -22.5q83 0 145 63.5t71 144.5z" />
    <glyph glyph-name="Gcaron" unicode="&#x1e6;" horiz-adv-x="918" 
d="M548 979h-78l-208 230h131l116 -123l115 123h129zM511 788q-131 0 -207 -97t-76 -244q0 -146 80 -236.5t216 -90.5q112 0 203 39v176h-266q-7 31 3 75t24 58h379l19 -21v-359q-63 -51 -164 -78.5t-198 -27.5q-202 0 -334 127.5t-132 344.5q0 125 52.5 231.5t156.5 173.5
t241 67q166 0 274.5 -90.5t104.5 -225.5q-35 -8 -81.5 -12.5t-81.5 1.5q-7 89 -66.5 139t-146.5 50z" />
    <glyph glyph-name="gcaron" unicode="&#x1e7;" horiz-adv-x="783" 
d="M428 780h-78l-208 239h131l116 -131l115 131h129zM589 692q60 6 142 -12v-21q-14 -82 -14 -168v-405q0 -176 -94.5 -276.5t-244.5 -101.5q-163 -2 -321 113q13 88 63 118q143 -99 246 -97q90 2 146.5 65.5t56.5 173.5v23q-38 -57 -95 -89.5t-123 -32.5q-141 0 -232 91
t-91 246q0 169 94 280t245 111q128 0 205 -107v1zM365 118q80 0 132.5 82t53.5 225q-2 55 -48.5 103t-107.5 48q-92 0 -146.5 -72t-55.5 -171q0 -93 46.5 -154t125.5 -61z" />
    <glyph glyph-name="uni01E8" unicode="&#x1e8;" horiz-adv-x="959" 
d="M529 955h-78l-207 230h130l116 -123l115 123h129zM540 456q11 -12 31 -36q86 -100 130 -149.5t110.5 -115.5t128.5 -115l-2 -25q-23 -8 -75 -17t-96 -9q-78 51 -362 389q-85 -47 -182 -90v-288h-164v902q30 11 85.5 9t78.5 -9v-464q157 74 256 142q242 163 233 314
q56 30 155 10q16 -90 -50.5 -198.5t-202.5 -201.5q-24 -16 -74 -48z" />
    <glyph glyph-name="uni01E9" unicode="&#x1e9;" horiz-adv-x="835" 
d="M464 996h-78l-208 239h131l116 -131l115 131h129zM512 341q190 -209 238 -252q34 -31 59 -46v-26q-24 -9 -81 -16.5t-107 -6.5q-45 21 -246 256q-77 -45 -161 -82v-168h-162v934q33 11 83 11t79 -11v-611q74 39 158 97q97 66 146.5 123.5t46.5 123.5q67 27 177 12
q19 -80 -39 -165.5t-184 -167.5q-1 -1 -3.5 -2.5t-3.5 -2.5z" />
    <glyph glyph-name="uni01EB" unicode="&#x1eb;" horiz-adv-x="775" 
d="M747 376q3 -150 -81.5 -255t-222.5 -132q-100 -111 -100 -195q0 -24 14.5 -37t36.5 -12q21 0 43.5 13.5t35.5 34.5l74 -61q-29 -45 -79 -75t-98 -30q-63 -2 -103.5 34t-40.5 106q0 48 26 108.5t71 108.5q-138 12 -216.5 106.5t-78.5 231.5q0 160 112 274t276 114
q153 0 241 -93t90 -241zM193 321q0 -87 46.5 -145.5t131.5 -58.5q90 0 150.5 73.5t60.5 169.5q0 91 -48 153.5t-128 62.5q-90 0 -151.5 -75.5t-61.5 -179.5z" />
    <glyph glyph-name="uni01F0" unicode="&#x1f0;" horiz-adv-x="318" 
d="M203 785h-78l-208 239h131l116 -131l115 131h129zM84 679q27 8 83.5 8t78.5 -8v-694q0 -108 -49.5 -172.5t-138.5 -63.5q-46 0 -99 18q-9 29 1.5 73.5t30.5 66.5q28 -11 44 -11q28 0 38.5 36.5t10.5 129.5v617z" />
    <glyph glyph-name="uni01F4" unicode="&#x1f4;" horiz-adv-x="901" 
d="M734 1177l-216 -193h-101l166 193h151zM483 788q-131 0 -207 -97t-76 -244q0 -146 80 -236.5t216 -90.5q112 0 203 39v176h-266q-8 31 2 74.5t25 58.5h379l19 -21v-359q-63 -51 -164 -78.5t-198 -27.5q-202 0 -334 127.5t-132 344.5q0 125 52.5 231.5t156.5 173.5t241 67
q166 0 274.5 -90.5t104.5 -225.5q-35 -8 -82.5 -12.5t-81.5 1.5q-7 89 -66 139t-146 50z" />
    <glyph glyph-name="uni01F4" unicode="&#x1f5;" horiz-adv-x="901" 
d="M734 1177l-216 -193h-101l166 193h151zM483 788q-131 0 -207 -97t-76 -244q0 -146 80 -236.5t216 -90.5q112 0 203 39v176h-266q-8 31 2 74.5t25 58.5h379l19 -21v-359q-63 -51 -164 -78.5t-198 -27.5q-202 0 -334 127.5t-132 344.5q0 125 52.5 231.5t156.5 173.5t241 67
q166 0 274.5 -90.5t104.5 -225.5q-35 -8 -82.5 -12.5t-81.5 1.5q-7 89 -66 139t-146 50z" />
    <glyph glyph-name="uni01F8" unicode="&#x1f8;" horiz-adv-x="954" 
d="M542 968h-100l-213 189h146zM731 902q29 11 84.5 9t79.5 -9v-902h-119l-553 627v-627h-164v871q15 18 57 30.5t62 5.5l553 -636v631z" />
    <glyph glyph-name="uni01F9" unicode="&#x1f9;" horiz-adv-x="791" 
d="M540 785h-107l-219 249h160zM501 710q272 0 272 -342v-368h-162v345q0 110 -35 169.5t-106 59.5q-80 0 -143 -86.5t-63 -194.5v-293h-162v505q0 89 -13 151v23q85 18 151 11q12 -38 12 -84v-18q45 55 111 88.5t138 33.5z" />
    <glyph glyph-name="Aringacute" unicode="&#x1fa;" horiz-adv-x="966" 
d="M650 1311l-153 -139h-81l84 139h150zM473 920q-80 0 -127.5 32t-47.5 83q0 49 46.5 82.5t128.5 33.5t127 -33t45 -83q0 -49 -47.5 -82t-124.5 -33zM471 1095q-37 0 -59.5 -16.5t-22.5 -43.5q0 -26 23 -42.5t59 -16.5q37 0 60 17t23 42q0 26 -22.5 43t-60.5 17zM553 902
q26 -56 117.5 -269.5t168.5 -382.5t115 -226l-10 -24q-129 -3 -176 18q-19 27 -82 179h-422l-75 -197h-177l382 902q29 12 81 11.5t78 -11.5zM314 329h320q-29 77 -85.5 225.5t-74.5 195.5z" />
    <glyph glyph-name="aringacute" unicode="&#x1fb;" horiz-adv-x="742" 
d="M568 1126l-153 -138h-81l84 138h150zM392 736q-80 0 -128 32t-48 82t46.5 83t129.5 33q82 0 126.5 -32.5t44.5 -83.5q0 -48 -47.5 -81t-123.5 -33zM389 910q-37 0 -59.5 -16.5t-22.5 -43.5q0 -26 23 -42.5t59 -16.5q37 0 60 17t23 42q0 27 -22.5 43.5t-60.5 16.5z
M681 239q1 -104 8 -147t23 -75l-2 -17h-141q-35 29 -40 110q-113 -128 -275 -128q-93 0 -153 50.5t-59 127.5q0 112 113.5 187t289.5 83q44 0 65 -1q-9 71 -46 111t-97 40q-92 0 -220 -79q-49 19 -59 107q154 102 293 102q138 1 218 -86t81 -248zM512 315l2 12q-37 3 -68 2
q-114 -3 -179.5 -44t-65.5 -96q0 -37 24.5 -59.5t67.5 -22.5q84 0 147 65.5t72 142.5z" />
    <glyph glyph-name="AEacute" unicode="&#x1fc;" horiz-adv-x="1442" 
d="M1200 1141l-215 -193h-101l166 193h150zM1397 132q15 -17 15.5 -62t-15.5 -70h-675v197h-363l-140 -197h-207l686 902h678q9 -29 -1 -70.5t-26 -61.5h-463v-263h417q8 -31 -2 -74t-25 -58h-390v-243h511zM452 328l270 -1v381z" />
    <glyph glyph-name="aeacute" unicode="&#x1fd;" horiz-adv-x="1212" 
d="M824 1034l-188 -249h-101l127 249h162zM875 710q147 0 235 -92.5t74 -251.5l-22 -29l-485 -87q21 -64 72.5 -99t118.5 -34q107 2 211 86q11 -4 20.5 -12t16.5 -17t13 -18.5t10 -18.5t6.5 -16t4.5 -11l1 -5q-139 -123 -300 -123q-87 -1 -161.5 36.5t-119.5 105.5
q-58 -68 -140.5 -106t-175.5 -36q-94 2 -153.5 51.5t-58.5 126.5q0 112 113 187t288 83q43 0 63 -1q-9 70 -45 109.5t-94 39.5q-87 0 -220 -77q-49 19 -59 107q154 102 293 102q154 2 230 -116q103 116 264 116zM1026 412q2 76 -39.5 124t-111.5 48q-83 0 -142.5 -66.5
t-66.5 -163.5zM509 315l2 12q-35 3 -65 2q-114 -3 -179.5 -44t-65.5 -96q0 -37 24.5 -59.5t67.5 -22.5q83 0 145 63.5t71 144.5z" />
    <glyph glyph-name="Oslashacute" unicode="&#x1fe;" horiz-adv-x="1038" 
d="M800 1166l-216 -193h-101l166 193h151zM979 891l-110 -126q90 -123 90 -284q0 -132 -62 -246.5t-173 -183.5t-245 -69q-133 0 -233 73l-48 -55h-148l116 133q-88 116 -88 276q0 142 61.5 260.5t173 187.5t248.5 69q129 0 230 -80l40 45h148zM249 409q0 -82 29 -149
l415 474q-61 53 -147 53q-129 0 -213.5 -110t-83.5 -268zM789 491q0 84 -29 151l-415 -474q59 -48 143 -48t153.5 52.5t108 137.5t39.5 181z" />
    <glyph glyph-name="oslashacute" unicode="&#x1ff;" horiz-adv-x="800" 
d="M630 1034l-188 -249h-101l127 249h162zM765 679v-17l-70 -75q63 -87 65 -211q4 -172 -105.5 -283t-279.5 -111q-121 0 -205 62l-42 -44h-90v20l74 80q-71 89 -71 222q0 160 112.5 274t276.5 114q119 0 203 -60l27 29h105zM419 576q-90 0 -151.5 -75.5t-61.5 -179.5
q0 -58 20 -101l29 27l199 206l26 32l47 50q-46 41 -108 41zM385 117q90 0 150 73.5t60 169.5q0 57 -19 102l-39 -34l-203 -206l-22 -29l-38 -39q45 -37 111 -37z" />
    <glyph glyph-name="uni0202" unicode="&#x202;" horiz-adv-x="966" 
d="M477 1072q-62 0 -97 -33.5t-35 -81.5h-117q0 107 71 166t178 59q110 0 178 -57t68 -168h-116q0 51 -35 83t-95 32zM553 902q26 -56 117.5 -269.5t168.5 -382.5t115 -226l-10 -24q-129 -3 -176 18q-19 27 -82 179h-422l-75 -197h-177l382 902q29 12 81 11.5t78 -11.5z
M314 329h320q-29 77 -85.5 225.5t-74.5 195.5z" />
    <glyph glyph-name="uni0203" unicode="&#x203;" horiz-adv-x="742" 
d="M399 900q-62 0 -97 -33.5t-35 -81.5h-117q0 107 71 166t178 59q110 0 178 -57t68 -168h-116q0 51 -35 83t-95 32zM681 239q1 -104 8 -147t23 -75l-2 -17h-141q-35 29 -40 110q-113 -128 -275 -128q-93 0 -153 50.5t-59 127.5q0 112 113.5 187t289.5 83q44 0 65 -1
q-9 71 -46 111t-97 40q-92 0 -220 -79q-49 19 -59 107q154 102 293 102q138 1 218 -86t81 -248zM512 315l2 12q-37 3 -68 2q-114 -3 -179.5 -44t-65.5 -96q0 -37 24.5 -59.5t67.5 -22.5q84 0 147 65.5t72 142.5z" />
    <glyph glyph-name="uni0206" unicode="&#x206;" horiz-adv-x="803" 
d="M413 1072q-61 0 -96.5 -33.5t-35.5 -81.5h-116q0 107 71 166t177 59q110 0 178.5 -57t68.5 -168h-116q0 51 -35 83t-96 32zM759 132q15 -17 15 -62t-15 -70h-700v886l17 16h662q8 -29 -2 -71t-26 -61h-487v-264h442q8 -32 -2 -75.5t-26 -57.5h-414v-241h536z" />
    <glyph glyph-name="uni0207" unicode="&#x207;" horiz-adv-x="727" 
d="M393 900q-62 0 -97 -33.5t-35 -81.5h-117q0 107 71 166t178 59q110 0 178 -57t68 -168h-116q0 51 -35 83t-95 32zM390 710q147 0 235 -92.5t74 -251.5l-22 -29l-485 -88q21 -64 72.5 -98.5t118.5 -33.5q107 2 211 86q24 -10 42 -35t24 -42t6 -21q-138 -123 -300 -123
q-141 -1 -239 91t-99 248q-2 163 100.5 276t261.5 113zM541 419q2 74 -39.5 119.5t-111.5 45.5q-81 0 -140.5 -64.5t-68.5 -160.5z" />
    <glyph glyph-name="uni020A" unicode="&#x20a;" horiz-adv-x="40" 
d="M-219 957q0 107 70.5 166t177.5 59q110 0 178 -57t68 -168h-116q0 51 -35 83t-95 32q-62 0 -97 -33.5t-35 -81.5h-116zM-49 0v903q30 11 81 9t74 -9v-903h-155z" />
    <glyph glyph-name="uni020B" unicode="&#x20b;" horiz-adv-x="294" 
d="M-94 785q0 107 69 166t173 59q107 0 173 -57t66 -168h-113q0 51 -33.5 83t-92.5 32q-60 0 -94.5 -33.5t-34.5 -81.5h-113zM66 0v679q26 8 83 8t79 -8v-679h-162z" />
    <glyph glyph-name="uni020E" unicode="&#x20e;" horiz-adv-x="940" 
d="M249 970q0 106 71 165.5t177 59.5q110 0 178.5 -57.5t68.5 -167.5h-116q0 50 -35 82.5t-96 32.5q-62 0 -97 -33.5t-35 -81.5h-116zM430 -18q-178 0 -289 123t-111 304q0 142 61.5 260.5t172.5 187.5t248 69q113 0 205 -61t142.5 -162.5t50.5 -221.5q0 -132 -61.5 -246.5
t-173 -183.5t-245.5 -69zM439 120q84 0 153.5 52.5t108.5 137.5t39 181q1 129 -66 212.5t-177 83.5q-129 0 -213.5 -110t-83.5 -268q0 -123 62 -206t177 -83z" />
    <glyph glyph-name="uni020F" unicode="&#x20f;" horiz-adv-x="775" 
d="M152 785q0 107 71 166t177 59q110 0 178 -57.5t68 -167.5h-115q0 51 -35.5 83t-95.5 32q-62 0 -97 -33.5t-35 -81.5h-116zM362 -18q-156 0 -245 96.5t-89 243.5q0 160 112 274t276 114q153 0 241 -93t90 -241q3 -172 -106 -283t-279 -111zM371 117q90 0 150.5 73.5
t60.5 169.5q0 91 -48 153.5t-128 62.5q-90 0 -151.5 -75.5t-61.5 -179.5q0 -87 46.5 -145.5t131.5 -58.5z" />
    <glyph glyph-name="uni0212" unicode="&#x212;" horiz-adv-x="943" 
d="M422 1086q-62 0 -97 -33.5t-35 -81.5h-116q0 107 71 166t177 59q110 0 178 -57t68 -168h-115q0 51 -35.5 83t-95.5 32zM610 315q84 -96 148 -160.5t137 -120.5l-2 -26q-20 -7 -74.5 -14t-100.5 -6q-55 31 -289 294h-17q-92 0 -189 22v-304h-164v882q170 44 369 44
q190 0 296.5 -85t106.5 -235q0 -103 -59 -178t-162 -113zM223 778v-342q91 -22 189 -22q109 -1 179 50.5t70 143.5q0 83 -64 134.5t-187 51.5q-104 0 -187 -16z" />
    <glyph glyph-name="uni0213" unicode="&#x213;" horiz-adv-x="577" 
d="M301 912q-61 0 -96 -33.5t-35 -81.5h-114q0 107 70 166t175 59q108 0 175 -57.5t67 -167.5h-114q0 51 -34.5 83t-93.5 32zM547 684q9 -27 -7 -71.5t-38 -67.5q-48 19 -89 19q-83 -1 -131 -75.5t-48 -192.5v-296h-162v505q0 84 -14 151v23q81 18 144 11q12 -44 12 -84v-38
q33 64 87.5 103t121.5 39q63 0 124 -26z" />
    <glyph glyph-name="uni0218" unicode="&#x218;" horiz-adv-x="881" 
d="M467 -18q-121 0 -235 36.5t-202 104.5q3 27 28.5 69.5t59.5 51.5q75 -61 165.5 -95.5t182.5 -34.5q103 0 159 42.5t56 105.5q0 66 -57.5 99t-177.5 40q-158 6 -249.5 70.5t-90.5 185.5q1 81 50.5 143.5t128.5 94t173 31.5q181 0 281.5 -83t100.5 -199q-33 -10 -79.5 -14
t-79.5 3q-5 73 -62.5 117t-162.5 44q-79 0 -129.5 -38t-50.5 -96q-1 -61 54 -92t140 -36q381 -18 381 -261q0 -132 -105.5 -210.5t-278.5 -78.5zM352 -300l39 228h126l-58 -228h-107z" />
    <glyph glyph-name="uni0219" unicode="&#x219;" horiz-adv-x="744" 
d="M385 -18q-100 0 -191.5 28t-157.5 81q24 83 72 114q117 -88 260 -88q76 0 124.5 25t48.5 64q0 44 -45 63t-150 25q-278 18 -278 192q0 92 85 158t221 66q192 0 324 -81q-7 -62 -46 -125q-120 72 -258 72q-76 0 -118.5 -26t-42.5 -61t36.5 -53.5t119.5 -22.5
q170 -7 244 -58t74 -148q0 -99 -91.5 -162t-230.5 -63zM282 -307l39 228h126l-58 -228h-107z" />
    <glyph glyph-name="uni021A" unicode="&#x21a;" horiz-adv-x="889" 
d="M866 902q7 -29 -2.5 -71.5t-25.5 -60.5h-313v-770h-170v770h-331q-7 29 -2 68.5t19 63.5h825zM340 -296l39 228h126l-58 -228h-107z" />
    <glyph glyph-name="uni021B" unicode="&#x21b;" horiz-adv-x="550" 
d="M485 137q15 -16 23 -61.5t-1 -69.5q-71 -24 -134 -24q-125 -2 -197 82t-72 249v234h-88v132h88v179q26 15 73 23t88 -1v-201h241v-132h-241v-223q0 -205 131 -205q38 0 89 18zM222 -296l39 228h126l-58 -228h-107z" />
    <glyph glyph-name="uni0237" unicode="&#x237;" horiz-adv-x="318" 
d="M58 -251q-46 0 -99 18q-9 29 1.5 73.5t30.5 66.5q28 -11 44 -11q28 0 38.5 36.5t10.5 129.5v617q27 8 83.5 8t78.5 -8v-694q0 -108 -49.5 -172.5t-138.5 -63.5z" />
    <glyph glyph-name="circumflex" unicode="&#x2c6;" horiz-adv-x="596" 
d="M543 765h-129l-115 131l-116 -131h-131l208 239h78z" />
    <glyph glyph-name="caron" unicode="&#x2c7;" horiz-adv-x="596" 
d="M414 1004h129l-205 -239h-78l-208 239h131l116 -131z" />
    <glyph glyph-name="breve" unicode="&#x2d8;" horiz-adv-x="602" 
d="M300 748q-110 0 -179 57.5t-69 168.5h116q0 -51 35.5 -83.5t96.5 -32.5q63 0 98 33.5t35 82.5h117q0 -107 -71.5 -166.5t-178.5 -59.5z" />
    <glyph glyph-name="dotaccent" unicode="&#x2d9;" horiz-adv-x="292" 
d="M146 771q-38 0 -66 27t-28 64q0 36 28.5 63.5t65.5 27.5t65 -27.5t28 -63.5q0 -37 -28 -64t-65 -27z" />
    <glyph glyph-name="ring" unicode="&#x2da;" horiz-adv-x="502" 
d="M253 717q-91 0 -146 41t-55 109q0 64 53.5 106.5t147.5 42.5q92 0 144.5 -42t52.5 -107t-56.5 -107.5t-140.5 -42.5zM251 788q45 0 76 22.5t31 55.5q0 35 -30 57t-77 22q-49 0 -78 -22.5t-29 -56.5q0 -33 30 -55.5t77 -22.5z" />
    <glyph glyph-name="ogonek" unicode="&#x2db;" horiz-adv-x="425" 
d="M197 -368q-63 -1 -104 35t-41 106q0 56 35 127t94 119l99 -12q-111 -119 -111 -207q0 -24 15 -37.5t36 -11.5q21 0 43 13.5t36 33.5l74 -61q-30 -45 -79.5 -75t-96.5 -30z" />
    <glyph glyph-name="tilde" unicode="&#x2dc;" horiz-adv-x="570" 
d="M394 776q-35 0 -73 21t-70.5 41.5t-54.5 20.5q-21 0 -34.5 -20t-13.5 -58h-96q0 89 33.5 148t90.5 59q44 0 107.5 -42t87.5 -42q21 0 35.5 20.5t14.5 58.5h97q0 -88 -33 -147.5t-91 -59.5z" />
    <glyph glyph-name="hungarumlaut" unicode="&#x2dd;" horiz-adv-x="656" 
d="M77 765l120 248h152l-171 -248h-101zM306 765l135 248h163l-196 -248h-102z" />
    <glyph glyph-name="gravecomb" unicode="&#x300;" 
d="M-160 765l-219 249h161l166 -249h-108z" />
    <glyph glyph-name="acutecomb" unicode="&#x301;" 
d="M-341 765l127 249h162l-188 -249h-101z" />
    <glyph glyph-name="uni0302" unicode="&#x302;" 
d="M-53 765h-129l-115 126l-116 -126h-131l208 239h78z" />
    <glyph glyph-name="tildecomb" unicode="&#x303;" 
d="M-176 776q-35 0 -73 21t-70.5 41.5t-54.5 20.5q-21 0 -34.5 -20t-13.5 -58h-96q0 89 33.5 148t90.5 59q44 0 107.5 -42t87.5 -42q21 0 35.5 20.5t14.5 58.5h97q0 -88 -33 -147.5t-91 -59.5z" />
    <glyph glyph-name="uni0304" unicode="&#x304;" 
d="M-574 802v117h497v-117h-497z" />
    <glyph glyph-name="uni0306" unicode="&#x306;" 
d="M-302 748q-110 0 -179 57.5t-69 168.5h116q0 -51 35.5 -83.5t96.5 -32.5q63 0 98 33.5t35 82.5h117q0 -107 -71.5 -166.5t-178.5 -59.5z" />
    <glyph glyph-name="uni0307" unicode="&#x307;" 
d="M-146 771q-38 0 -66 27t-28 64q0 36 28.5 63.5t65.5 27.5t65 -27.5t28 -63.5q0 -37 -28 -64t-65 -27z" />
    <glyph glyph-name="uni0308" unicode="&#x308;" 
d="M-502 771q-37 0 -65 27t-28 64q0 36 28 63.5t65 27.5t65.5 -27.5t28.5 -63.5q0 -37 -28 -64t-66 -27zM-170 771q-38 0 -66 27t-28 64q0 36 28.5 63.5t65.5 27.5t65 -27.5t28 -63.5q0 -37 -28 -64t-65 -27z" />
    <glyph glyph-name="uni030A" unicode="&#x30a;" 
d="M-249 748q-91 0 -146 41t-55 108q0 65 53.5 107.5t147.5 42.5q92 0 144.5 -42t52.5 -108q0 -64 -56.5 -106.5t-140.5 -42.5zM-251 819q45 0 76 22.5t31 55.5q0 34 -30 56.5t-77 22.5q-49 0 -78 -22.5t-29 -56.5t29.5 -56t77.5 -22z" />
    <glyph glyph-name="uni030B" unicode="&#x30b;" 
d="M-579 765l120 248h152l-171 -248h-101zM-350 765l135 248h163l-196 -248h-102z" />
    <glyph glyph-name="uni030C" unicode="&#x30c;" 
d="M-182 1004h129l-205 -239h-78l-208 239h131l116 -131z" />
    <glyph glyph-name="uni0311" unicode="&#x311;" 
d="M-547 765q0 107 71 166t178 59q110 0 178 -57t68 -168h-116q0 51 -35 83t-95 32q-62 0 -97 -33.5t-35 -81.5h-117z" />
    <glyph glyph-name="uni0312" unicode="&#x312;" 
d="M-245 791l76 247h108l-58 -247h-126z" />
    <glyph glyph-name="uni0326" unicode="&#x326;" 
d="M-275 -300l39 228h126l-58 -228h-107z" />
    <glyph glyph-name="uni0327" unicode="&#x327;" 
d="M-199 -359q-79 0 -144 70l76 77q35 -39 66 -39q17 1 28.5 14t12.5 34q0 15 -9.5 29t-26.5 32t-25 30q-24 31 -33 56t-9 61h101q0 -22 9 -38t30.5 -38.5t33.5 -38.5q36 -49 36 -102q1 -60 -42 -103t-104 -44z" />
    <glyph glyph-name="uni0328" unicode="&#x328;" 
d="M-228 -368q-63 -1 -104 35t-41 106q0 56 35 127t94 119l99 -12q-111 -119 -111 -207q0 -24 15 -37.5t36 -11.5q21 0 43 13.5t36 33.5l74 -61q-30 -45 -79.5 -75t-96.5 -30z" />
    <glyph glyph-name="uni03BC" unicode="&#x3bc;" horiz-adv-x="792" 
d="M738 242q0 -158 27 -223l-1 -19h-137q-30 24 -30 77v54q-33 -67 -95.5 -108t-141.5 -41q-88 0 -141 59v-309h-142l-1 947q67 17 162 0v-360q0 -202 143 -202q92 0 144 79.5t52 209.5v274q30 7 87 5.5t74 -5.5v-438z" />
    <glyph glyph-name="uni1E02" unicode="&#x1e02;" horiz-adv-x="860" 
d="M388 990q-30 0 -52 22t-22 51q0 28 22 50t52 22q28 0 50.5 -22t22.5 -50q0 -29 -22 -51t-51 -22zM830 309q1 -153 -105 -240t-297 -88q-129 0 -205 9.5t-164 35.5v859q149 41 329 41q104 0 180 -20.5t115 -56t56.5 -74t17.5 -82.5t-26.5 -82.5t-72.5 -64.5
q172 -64 172 -237zM394 800q-94 0 -171 -16v-226q106 20 231 20q25 0 38 -1q51 10 77.5 36.5t26.5 63.5q0 49 -46.5 86t-155.5 37zM417 114q128 0 193 49.5t65 134.5q-1 72 -58 109.5t-185 37.5q-107 0 -209 -23v-291q83 -17 194 -17z" />
    <glyph glyph-name="uni1E03" unicode="&#x1e03;" horiz-adv-x="781" 
d="M396 993q-38 0 -66 27t-28 64q0 36 28.5 63.5t65.5 27.5t65 -27.5t28 -63.5q0 -37 -28 -64t-65 -27zM451 710q138 0 220 -93t82 -244q0 -164 -92.5 -277.5t-236.5 -113.5q-122 0 -204 92q-11 -49 -24 -74h-144v20q14 63 14 162v752q27 9 82.5 9t79.5 -9v-355q37 59 96 95
t127 36zM395 118q85 0 139 75.5t54 183.5q-1 87 -42.5 143t-109.5 56q-86 0 -146.5 -92t-60.5 -203q0 -59 48.5 -111t117.5 -52z" />
    <glyph glyph-name="uni1E0A" unicode="&#x1e0a;" horiz-adv-x="900" 
d="M379 1006q-30 0 -52 22t-22 51q0 28 22 50t52 22q28 0 50.5 -22t22.5 -50q0 -29 -22 -51t-51 -22zM379 926q231 0 361 -126.5t130 -335.5q0 -221 -125.5 -351.5t-346.5 -131.5q-111 0 -181.5 9.5t-157.5 35.5v860q141 40 320 40zM396 114q146 0 224.5 93.5t79.5 252.5
q0 150 -86 242t-240 92q-80 0 -151 -11v-653q77 -16 173 -16z" />
    <glyph glyph-name="uni1E0B" unicode="&#x1e0b;" horiz-adv-x="785" 
d="M373 996q-38 0 -66 27t-28 64q0 36 28.5 63.5t65.5 27.5t65 -27.5t28 -63.5q0 -37 -28 -64t-65 -27zM719 182q0 -99 14 -162v-20h-137q-20 32 -31 95q-90 -113 -230 -113q-134 0 -220.5 98t-86.5 241q0 168 94 278.5t249 110.5q57 0 106 -26t81 -71v321q23 9 78.5 9
t82.5 -9v-752zM365 118q81 0 134 85.5t53 214.5q0 66 -46.5 111.5t-107.5 45.5q-87 0 -145.5 -68t-59.5 -172q0 -96 48 -156.5t124 -60.5z" />
    <glyph glyph-name="uni1E1E" unicode="&#x1e1e;" horiz-adv-x="778" 
d="M396 982q-30 0 -52 22t-22 51q0 28 22 50t52 22q28 0 50.5 -22t22.5 -50q0 -29 -22 -51t-51 -22zM717 769h-494v-308h454q8 -32 -2 -75t-26 -57h-426v-329h-164v886l17 16h668q9 -30 -1 -72t-26 -61z" />
    <glyph glyph-name="uni1E1F" unicode="&#x1e1f;" horiz-adv-x="442" 
d="M307 1025q-38 0 -66 27t-28 64q0 36 28.5 63.5t65.5 27.5t65 -27.5t28 -63.5q0 -37 -28 -64t-65 -27zM406 822q-99 -1 -110 -143h185v-132h-187v-547h-161v547h-136v132h138q8 139 67 208t173 70q66 0 148 -21q6 -23 -4 -68.5t-25 -61.5q-47 16 -88 16z" />
    <glyph glyph-name="uni1E40" unicode="&#x1e40;" horiz-adv-x="1113" 
d="M556 982q-30 0 -52 22t-22 51q0 28 22 50t52 22q28 0 50.5 -22t22.5 -50q0 -29 -22 -51t-51 -22zM1083 0h-165l-58 597l-253 -465h-104l-254 465l-55 -597h-164l87 876q18 18 69 25.5t72 0.5l298 -571l297 571q21 7 71 -0.5t69 -25.5z" />
    <glyph glyph-name="uni1E41" unicode="&#x1e41;" horiz-adv-x="1102" 
d="M589 791q-38 0 -66 27t-28 64q0 36 28.5 63.5t65.5 27.5t65 -27.5t28 -63.5q0 -37 -28 -64t-65 -27zM832 710q218 0 218 -323v-387h-162v368q0 207 -95 207q-67 0 -112.5 -76t-45.5 -188l1 -311h-156v367q0 208 -96 208q-66 0 -111.5 -78.5t-45.5 -195.5v-301h-161v505
q0 84 -14 151v23q87 18 150 11q12 -38 12 -84v-5q39 49 91.5 79t108.5 30q137 0 187 -129q42 60 102.5 94.5t128.5 34.5z" />
    <glyph glyph-name="uni1E56" unicode="&#x1e56;" horiz-adv-x="860" 
d="M424 1005q-30 0 -52 22t-22 51q0 28 22 50t52 22q28 0 50.5 -22t22.5 -50q0 -29 -22 -51t-51 -22zM424 926q195 0 300.5 -97.5t105.5 -258.5q0 -151 -112.5 -245t-302.5 -94q-100 0 -192 19v-250h-164v882q159 44 365 44zM660 572q1 104 -62.5 163t-184.5 59
q-108 0 -190 -19v-387q83 -25 183 -25q116 0 184.5 55.5t69.5 153.5z" />
    <glyph glyph-name="uni1E57" unicode="&#x1e57;" horiz-adv-x="781" 
d="M423 791q-38 0 -66 27t-28 64q0 36 28.5 63.5t65.5 27.5t65 -27.5t28 -63.5q0 -37 -28 -64t-65 -27zM456 710q135 0 216 -93.5t81 -237.5q0 -170 -93 -283.5t-234 -113.5q-118 0 -198 96v-330q-21 -8 -78 -8t-83 8v746q0 84 -15 166v21q76 23 143 12l28 -100
q99 117 233 117zM395 118q86 0 139.5 76t53.5 180q0 93 -43 147.5t-109 54.5q-83 0 -145.5 -86t-62.5 -212q0 -57 50 -108.5t117 -51.5z" />
    <glyph glyph-name="uni1E60" unicode="&#x1e60;" horiz-adv-x="881" 
d="M458 1006q-30 0 -52 22t-22 51q0 28 22 50t52 22q28 0 50.5 -22t22.5 -50q0 -29 -22 -51t-51 -22zM467 -18q-121 0 -235 36.5t-202 104.5q3 27 28.5 69.5t59.5 51.5q75 -61 165.5 -95.5t182.5 -34.5q103 0 159 42.5t56 105.5q0 66 -57.5 99t-177.5 40q-158 6 -249.5 70.5
t-90.5 185.5q1 81 50.5 143.5t128.5 94t173 31.5q181 0 281.5 -83t100.5 -199q-33 -10 -79.5 -14t-79.5 3q-5 73 -62.5 117t-162.5 44q-79 0 -129.5 -38t-50.5 -96q-1 -61 54 -92t140 -36q381 -18 381 -261q0 -132 -105.5 -210.5t-278.5 -78.5z" />
    <glyph glyph-name="uni1E61" unicode="&#x1e61;" horiz-adv-x="744" 
d="M375 791q-38 0 -66 27t-28 64q0 36 28.5 63.5t65.5 27.5t65 -27.5t28 -63.5q0 -37 -28 -64t-65 -27zM385 -18q-100 0 -191.5 28t-157.5 81q24 83 72 114q117 -88 260 -88q76 0 124.5 25t48.5 64q0 44 -45 63t-150 25q-278 18 -278 192q0 92 85 158t221 66q192 0 324 -81
q-7 -62 -46 -125q-120 72 -258 72q-76 0 -118.5 -26t-42.5 -61t36.5 -53.5t119.5 -22.5q170 -7 244 -58t74 -148q0 -99 -91.5 -162t-230.5 -63z" />
    <glyph glyph-name="uni1E6A" unicode="&#x1e6a;" horiz-adv-x="889" 
d="M435 982q-30 0 -52 22t-22 51q0 28 22 50t52 22q28 0 50.5 -22t22.5 -50q0 -29 -22 -51t-51 -22zM866 902q7 -29 -2.5 -71.5t-25.5 -60.5h-313v-770h-170v770h-331q-7 29 -2 68.5t19 63.5h825z" />
    <glyph glyph-name="uni1E6B" unicode="&#x1e6b;" horiz-adv-x="550" 
d="M189 969q-38 0 -66 27t-28 64q0 36 28.5 63.5t65.5 27.5t65 -27.5t28 -63.5q0 -37 -28 -64t-65 -27zM485 137q15 -16 23 -61.5t-1 -69.5q-71 -24 -134 -24q-125 -2 -197 82t-72 249v234h-88v132h88v179q26 15 73 23t88 -1v-201h241v-132h-241v-223q0 -205 131 -205
q38 0 89 18z" />
    <glyph glyph-name="Wgrave" unicode="&#x1e80;" horiz-adv-x="1325" 
d="M627 968l-213 189h146l167 -189h-100zM380 0l-40 21q-85 260 -180 506t-148 349l9 26q31 8 75.5 8t79.5 -8q65 -123 146 -341.5t142 -423.5h5q48 80 105.5 208t75.5 201q-4 16 -57 174q14 23 62 43.5t91 16.5q34 -73 101 -284.5t102 -358.5h7q118 169 160.5 383t12.5 371
q53 32 154 11q20 -75 20.5 -177t-20.5 -218.5t-75 -243.5t-136 -233l-52 -30h-170l-28 17q-39 133 -98 308q-17 -61 -63 -159t-76 -146l-40 -20h-165z" />
    <glyph glyph-name="wgrave" unicode="&#x1e81;" horiz-adv-x="1052" 
d="M499 769l-219 249h161l166 -249h-108zM261 0l-26 18q-73 259 -226 637l11 24q34 7 77.5 8t77.5 -8q39 -80 93 -228.5t92 -306.5h9q74 173 114 324l-37 100q14 26 59 47t90 15q91 -227 150 -486h11q137 306 117 524q56 31 162 11q21 -125 -30.5 -317.5t-154.5 -346.5
l-28 -15h-157l-29 19q-31 114 -74 223q-14 -41 -47.5 -115t-57.5 -113l-23 -14h-173z" />
    <glyph glyph-name="Wacute" unicode="&#x1e82;" horiz-adv-x="1325" 
d="M600 960l166 193h151l-216 -193h-101zM380 0l-40 21q-85 260 -180 506t-148 349l9 26q31 8 75.5 8t79.5 -8q65 -123 146 -341.5t142 -423.5h5q48 80 105.5 208t75.5 201q-4 16 -57 174q14 23 62 43.5t91 16.5q34 -73 101 -284.5t102 -358.5h7q118 169 160.5 383t12.5 371
q53 32 154 11q20 -75 20.5 -177t-20.5 -218.5t-75 -243.5t-136 -233l-52 -30h-170l-28 17q-39 133 -98 308q-17 -61 -63 -159t-76 -146l-40 -20h-165z" />
    <glyph glyph-name="wacute" unicode="&#x1e83;" horiz-adv-x="1052" 
d="M462 769l127 249h162l-188 -249h-101zM261 0l-26 18q-73 259 -226 637l11 24q34 7 77.5 8t77.5 -8q39 -80 93 -228.5t92 -306.5h9q74 173 114 324l-37 100q14 26 59 47t90 15q91 -227 150 -486h11q137 306 117 524q56 31 162 11q21 -125 -30.5 -317.5t-154.5 -346.5
l-28 -15h-157l-29 19q-31 114 -74 223q-14 -41 -47.5 -115t-57.5 -113l-23 -14h-173z" />
    <glyph glyph-name="Wdieresis" unicode="&#x1e84;" horiz-adv-x="1325" 
d="M522 983q-30 0 -52 22t-22 51q0 28 22 50t52 22q28 0 50.5 -22t22.5 -50q0 -29 -22 -51t-51 -22zM806 983q-29 0 -51.5 22t-22.5 51q0 28 22.5 50t51.5 22t51.5 -22t22.5 -50q0 -29 -22.5 -51t-51.5 -22zM380 0l-40 21q-85 260 -180 506t-148 349l9 26q31 8 75.5 8
t79.5 -8q65 -123 146 -341.5t142 -423.5h5q48 80 105.5 208t75.5 201q-4 16 -57 174q14 23 62 43.5t91 16.5q34 -73 101 -284.5t102 -358.5h7q118 169 160.5 383t12.5 371q53 32 154 11q20 -75 20.5 -177t-20.5 -218.5t-75 -243.5t-136 -233l-52 -30h-170l-28 17
q-39 133 -98 308q-17 -61 -63 -159t-76 -146l-40 -20h-165z" />
    <glyph glyph-name="wdieresis" unicode="&#x1e85;" horiz-adv-x="1052" 
d="M378 775q-37 0 -65 27t-28 64q0 36 28 63.5t65 27.5t65.5 -27.5t28.5 -63.5q0 -37 -28 -64t-66 -27zM710 775q-38 0 -66 27t-28 64q0 36 28.5 63.5t65.5 27.5t65 -27.5t28 -63.5q0 -37 -28 -64t-65 -27zM261 0l-26 18q-73 259 -226 637l11 24q34 7 77.5 8t77.5 -8
q39 -80 93 -228.5t92 -306.5h9q74 173 114 324l-37 100q14 26 59 47t90 15q91 -227 150 -486h11q137 306 117 524q56 31 162 11q21 -125 -30.5 -317.5t-154.5 -346.5l-28 -15h-157l-29 19q-31 114 -74 223q-14 -41 -47.5 -115t-57.5 -113l-23 -14h-173z" />
    <glyph glyph-name="uni1E9E" unicode="&#x1e9e;" horiz-adv-x="951" 
d="M559 540q52 -5 99 -16t96 -32.5t84 -52t57.5 -78t22.5 -105.5q0 -132 -96 -203t-235 -71q-97 0 -169.5 27.5t-132.5 88.5q7 34 27.5 66.5t47.5 50.5q86 -91 218 -91q77 0 126 36.5t49 95.5q0 42 -29.5 77t-74 55.5t-99 35t-101 20t-83.5 5.5l-17 48l297 266h-242
q-49 0 -85 -20.5t-55 -55t-28 -72t-9 -79.5v-536h-161v548q0 161 78 257.5t246 96.5h444q14 -30 9.5 -72t-23.5 -61z" />
    <glyph glyph-name="Ygrave" unicode="&#x1ef2;" horiz-adv-x="889" 
d="M509 968h-100l-213 189h146zM868 902q8 -57 -1.5 -118.5t-40.5 -136.5t-98.5 -162t-166.5 -176v-309h-164v323q-69 109 -193.5 292.5t-188.5 259.5l11 27q38 7 88.5 8t88.5 -8q42 -45 146 -202t153 -246q100 92 155.5 222t47.5 214q55 33 163 12z" />
    <glyph glyph-name="ygrave" unicode="&#x1ef3;" horiz-adv-x="774" 
d="M463 785h-108l-219 249h161zM752 679q10 -67 10 -145t-23 -171t-58.5 -181t-97.5 -175t-140 -152q-138 -114 -311 -116q-57 0 -91 17q-24 61 -2 116l28 16q28 -14 66 -14q110 0 237 125l23 23q-75 52 -138.5 126t-103 143t-70 145t-44 126t-21.5 93l8 24q84 19 150 0
q10 -46 26.5 -98.5t51 -134.5t94.5 -164.5t136 -144.5q131 207 115 529q50 35 155 13z" />
    <glyph glyph-name="endash" unicode="&#x2013;" horiz-adv-x="1077" 
d="M194 303v126h689v-126h-689z" />
    <glyph glyph-name="emdash" unicode="&#x2014;" horiz-adv-x="1191" 
d="M194 303v126h804v-126h-804z" />
    <glyph glyph-name="quoteleft" unicode="&#x2018;" horiz-adv-x="337" 
d="M82 645l57 314h115l-23 -314h-149z" />
    <glyph glyph-name="quoteright" unicode="&#x2019;" horiz-adv-x="338" 
d="M82 644l24 315h149l-58 -315h-115z" />
    <glyph glyph-name="quotesinglbase" unicode="&#x201a;" horiz-adv-x="338" 
d="M82 -147l24 314h149l-58 -314h-115z" />
    <glyph glyph-name="quotedblleft" unicode="&#x201c;" horiz-adv-x="544" 
d="M82 645l57 314h116l-23 -314h-150zM290 645l57 314h115l-23 -314h-149z" />
    <glyph glyph-name="quotedblright" unicode="&#x201d;" horiz-adv-x="543" 
d="M82 644l23 315h150l-58 -315h-115zM289 644l22 315h150l-57 -315h-115z" />
    <glyph glyph-name="quotedblbase" unicode="&#x201e;" horiz-adv-x="544" 
d="M82 -147l24 314h149l-58 -314h-115zM289 -147l23 314h150l-58 -314h-115z" />
    <glyph glyph-name="dagger" unicode="&#x2020;" horiz-adv-x="745" 
d="M658 843v-135h-218v-839h-135v839h-219v135h219v164h135v-164h218z" />
    <glyph glyph-name="daggerdbl" unicode="&#x2021;" horiz-adv-x="749" 
d="M660 141v-135h-220v-137h-135v137h-217v135h217v567h-219v135h219v164h135v-164h218v-135h-218v-567h220z" />
    <glyph glyph-name="bullet" unicode="&#x2022;" horiz-adv-x="808" 
d="M403 224q-76 0 -129.5 56t-53.5 135q0 77 54 135t129 58q72 0 128.5 -58.5t56.5 -134.5q0 -78 -56 -134.5t-129 -56.5z" />
    <glyph glyph-name="ellipsis" unicode="&#x2026;" horiz-adv-x="934" 
d="M176 0q-38 0 -66 27t-28 64q0 36 28.5 63.5t65.5 27.5t65.5 -27.5t28.5 -63.5q0 -37 -28 -64t-66 -27zM467 0q-38 0 -65.5 27t-27.5 64q0 36 28 63.5t65 27.5t65.5 -27.5t28.5 -63.5t-28.5 -63.5t-65.5 -27.5zM758 0q-37 0 -65 27t-28 64q0 36 28 63.5t65 27.5
t65.5 -27.5t28.5 -63.5q0 -37 -28 -64t-66 -27z" />
    <glyph glyph-name="perthousand" unicode="&#x2030;" horiz-adv-x="1909" 
d="M358 488q-130 0 -202 52t-72 150q0 96 70.5 150t203.5 54q135 0 204.5 -53t69.5 -151q0 -94 -72.5 -148t-201.5 -54zM212 0l706 889h178l-707 -889h-177zM358 593q49 0 83 26t34 71q0 46 -32.5 72.5t-84.5 26.5q-51 0 -84 -27.5t-33 -71.5q0 -45 32.5 -71t84.5 -26z
M938 -14q-130 0 -202 52t-72 151q0 95 71 148.5t203 53.5q135 0 205.5 -52t70.5 -150q0 -94 -73 -148.5t-203 -54.5zM1550 -14q-130 0 -202 52t-72 151q0 95 71 148.5t203 53.5q135 0 205.5 -52t70.5 -150q0 -94 -73 -148.5t-203 -54.5zM938 91q51 0 85 26t34 72
q0 45 -33.5 71.5t-85.5 26.5q-50 0 -83 -27t-33 -71q0 -46 33 -72t83 -26zM1550 91q51 0 85 26t34 72q0 45 -33.5 71.5t-85.5 26.5q-50 0 -83 -27t-33 -71q0 -46 33 -72t83 -26z" />
    <glyph glyph-name="guilsinglleft" unicode="&#x2039;" horiz-adv-x="723" 
d="M275 439l366 -234l-45 -109l-514 295v96l510 297l48 -106z" />
    <glyph glyph-name="guilsinglright" unicode="&#x203a;" horiz-adv-x="723" 
d="M131 784l510 -297v-96l-514 -295l-45 109l366 234l-365 239z" />
    <glyph glyph-name="fraction" unicode="&#x2044;" horiz-adv-x="1147" 
d="M82 -132l847 1189h136l-847 -1189h-136z" />
    <glyph glyph-name="Euro" unicode="&#x20ac;" horiz-adv-x="941" 
d="M786 216l73 -104q-46 -47 -137.5 -79.5t-200.5 -32.5q-152 0 -267.5 75t-156.5 222h-66v106h49q-2 30 -2 45q0 24 1 35h-48v107h66q42 140 158.5 215t265.5 75q200 0 325 -98l-72 -102q-85 66 -235 66q-205 0 -267 -156h310v-107h-333q-1 -11 -1 -35q0 -15 2 -45h297
v-106h-268q35 -77 105.5 -119.5t165.5 -42.5q138 0 236 81z" />
    <glyph glyph-name="uni2116" unicode="&#x2116;" horiz-adv-x="1680" 
d="M1287 309q-137 0 -216 78.5t-79 205.5q0 132 92 224t226 92q133 0 209 -74t79 -198q4 -146 -85 -237t-226 -91zM753 890q29 10 85 8.5t79 -8.5v-890h-118l-553 627v-627h-164v860q15 18 57 30.5t61 5.5l553 -626v620zM1304 778q-64 0 -109.5 -53.5t-45.5 -129.5
q0 -69 38 -111.5t104 -42.5q65 0 108.5 53t41.5 128q-1 68 -38 112t-99 44zM1034 100v120h524v-120h-524z" />
    <glyph glyph-name="trademark" unicode="&#x2122;" horiz-adv-x="1081" 
d="M439 890v-123h-115v-355h-128v355h-114v123h357zM999 890v-478h-128v255l-89 -218h-84l-95 214v-251h-128v478h144l121 -280l114 280h145z" />
    <glyph glyph-name="estimated" unicode="&#x212e;" horiz-adv-x="919" 
d="M464 895q171 0 276.5 -133t95.5 -366h-567l2 -260q77 -93 203 -93q72 0 139 36t118 96q33 -16 39 -50q-55 -63 -135.5 -103t-157.5 -40q-182 0 -288.5 126.5t-106.5 327.5q0 198 109 328.5t273 130.5zM665 457v278q-82 99 -201 99q-59 0 -112.5 -25t-85.5 -68l2 -284h397
z" />
    <glyph glyph-name="partialdiff" unicode="&#x2202;" horiz-adv-x="919" 
d="M420 909q89 0 161.5 -31.5t119 -82t78 -117.5t45 -134t13.5 -135q0 -204 -106 -315.5t-285 -111.5q-171 0 -267.5 87t-96.5 217q0 119 89.5 193.5t238.5 74.5q145 0 256 -58q-15 124 -79 201t-174 77q-117 0 -216 -85q-44 53 -42 115q34 45 113 75t152 30zM446 117
q102 0 159 67t65 192q-94 44 -213 44q-104 0 -154.5 -39.5t-50.5 -104.5q0 -66 52.5 -112.5t141.5 -46.5z" />
    <glyph glyph-name="minus" unicode="&#x2212;" horiz-adv-x="822" 
d="M123 375v135h577v-135h-577z" />
    <glyph glyph-name="radical" unicode="&#x221a;" horiz-adv-x="1102" 
d="M1102 890v-138h-199l-358 -752h-119l-344 480h181l202 -286l319 696h318z" />
    <glyph glyph-name="infinity" unicode="&#x221e;" horiz-adv-x="1076" 
d="M745 741q109 0 179 -65.5t70 -199.5t-70 -199.5t-179 -65.5q-75 0 -123 37t-83 103q-35 -66 -83.5 -103t-124.5 -37q-109 0 -179 65.5t-70 199.5t70 199.5t179 65.5q76 0 124.5 -37.5t82.5 -104.5q32 67 80 104.5t127 37.5zM333 316q59 0 92 39t62 114q-33 83 -66 124.5
t-88 41.5q-51 0 -88 -40.5t-37 -118.5q0 -80 36.5 -120t88.5 -40zM744 316q52 0 88 40t36 120q0 78 -36 118.5t-88 40.5q-55 0 -87 -41t-66 -122q32 -77 64.5 -116.5t88.5 -39.5z" />
    <glyph glyph-name="approxequal" unicode="&#x2248;" horiz-adv-x="756" 
d="M82 479q0 92 43.5 153t117.5 61q55 0 133.5 -40t104.5 -40q28 0 46.5 20.5t18.5 59.5h128q0 -91 -42.5 -152.5t-117.5 -61.5q-44 0 -91 19.5t-87 39.5t-68 20q-25 0 -41.5 -21t-16.5 -58h-128zM82 235q0 92 43.5 152.5t117.5 60.5q55 0 133.5 -39.5t104.5 -39.5
q27 0 46 20.5t19 58.5h128q0 -91 -42.5 -152t-117.5 -61q-44 0 -91 19.5t-87 39.5t-68 20q-25 0 -41.5 -21t-16.5 -58h-128z" />
    <glyph glyph-name="notequal" unicode="&#x2260;" horiz-adv-x="779" 
d="M696 886l-127 -251h109v-135h-177l-59 -115h236v-135h-304l-111 -219h-165l111 219h-109v135h177l58 115h-235v135h303l127 251h166z" />
    <glyph glyph-name="lessequal" unicode="&#x2264;" horiz-adv-x="723" 
d="M640 702l-367 -227l367 -233l-54 -113l-504 297v97l509 295zM110 -29v116h499v-116h-499z" />
    <glyph glyph-name="greaterequal" unicode="&#x2265;" horiz-adv-x="723" 
d="M132 827l509 -295v-97l-504 -297l-54 113l368 233l-368 227zM97 -30v116h499v-116h-499z" />
    <glyph glyph-name="i.loclTRK" horiz-adv-x="294" 
d="M147 791q-38 0 -66 27t-28 64q0 36 28.5 63.5t65.5 27.5t65 -27.5t28 -63.5q0 -37 -28 -64t-65 -27zM66 0v679q26 8 83 8t79 -8v-679h-162z" />
    <glyph glyph-name="uni00A0.001" horiz-adv-x="394" 
 />
    <glyph glyph-name="uni030C.alt" 
d="M-249 629l16 333h154l-54 -333h-116z" />
    <glyph glyph-name="uni0308.case" 
d="M-435 971q-30 0 -52 22t-22 51q0 28 22 50t52 22q28 0 50.5 -22t22.5 -50q0 -29 -22 -51t-51 -22zM-151 971q-29 0 -51.5 22t-22.5 51q0 28 22.5 50t51.5 22t51.5 -22t22.5 -50q0 -29 -22.5 -51t-51.5 -22z" />
    <glyph glyph-name="uni0307.case" 
d="M-165 970q-30 0 -52 22t-22 51q0 28 22 50t52 22q28 0 50.5 -22t22.5 -50q0 -29 -22 -51t-51 -22z" />
    <glyph glyph-name="gravecomb.case" 
d="M-177 959l-213 189h146l167 -189h-100z" />
    <glyph glyph-name="acutecomb.case" 
d="M-337 948l166 193h151l-216 -193h-101z" />
    <glyph glyph-name="uni030B.case" 
d="M-580 958l133 179h136l-179 -179h-90zM-370 958l152 179h153l-213 -179h-92z" />
    <glyph glyph-name="uni0302.case" 
d="M-77 947h-125l-115 121l-116 -121h-126l202 222h80z" />
    <glyph glyph-name="uni030C.case" 
d="M-182 1180h129l-205 -230h-78l-208 230h130l116 -123z" />
    <glyph glyph-name="uni0306.case" 
d="M-313 767q-105 0 -169.5 50.5t-64.5 147.5h112q0 -45 33 -74.5t89 -29.5q58 0 91 30.5t33 73.5h112q0 -94 -67 -146t-169 -52z" />
    <glyph glyph-name="uni030A.case" 
d="M-249 872q-91 0 -146 41t-55 109q0 64 53.5 106.5t147.5 42.5q92 0 144.5 -42t52.5 -107t-56.5 -107.5t-140.5 -42.5zM-251 943q45 0 76 22.5t31 55.5q0 35 -30 57t-77 22q-49 0 -78 -22.5t-29 -56.5t29.5 -56t77.5 -22z" />
    <glyph glyph-name="tildecomb.case" 
d="M-176 941q-35 0 -72.5 20.5t-69 41.5t-53.5 21q-21 0 -34.5 -20t-13.5 -58h-96q0 82 33.5 136t90.5 54q34 0 70.5 -21t68.5 -42t53 -21q22 0 36.5 20.5t14.5 58.5h96q0 -81 -33 -135.5t-91 -54.5z" />
    <glyph glyph-name="uni0304.case" 
d="M-547 825v108h470v-108h-470z" />
    <glyph glyph-name="uni0327.case" 
d="M-199 -364q-78 -2 -144 70l76 76q34 -38 66 -38q18 0 29.5 13.5t11.5 34.5q0 15 -9.5 29t-26.5 32t-25 30q-25 31 -33.5 55.5t-8.5 61.5h101q0 -22 9 -38t30.5 -38.5t33.5 -38.5q36 -49 36 -102q1 -60 -42 -103t-104 -44z" />
    <glyph glyph-name="uni0328.case" 
d="M-228 -368q-63 -1 -104 35t-41 106q0 56 35 127t94 119l99 -12q-111 -119 -111 -207q0 -24 15 -37.5t36 -11.5q21 0 43 13.5t36 33.5l74 -61q-30 -45 -79.5 -75t-96.5 -30z" />
    </font>
</defs>
</svg>
