<?xml version="1.0" standalone="no"?>
<!DOCTYPE svg PUBLIC "-//W3C//DTD SVG 1.1//EN" "http://www.w3.org/Graphics/SVG/1.1/DTD/svg11.dtd" >
<svg xmlns="http://www.w3.org/2000/svg" xmlns:xlink="http://www.w3.org/1999/xlink" version="1.1">
<metadata>
Created by FontForge 20170731 at Mon May 11 15:12:32 2020
 By Aleksey,,,
Copyright (c) 2019 by Mans Greback. All rights reserved.
</metadata>
<defs>
<font id="Quache-ThinCondensed" horiz-adv-x="0" >
  <font-face 
    font-family="Quache Thin Condensed"
    font-weight="100"
    font-stretch="condensed"
    units-per-em="1000"
    panose-1="0 0 2 6 0 0 0 0 0 0"
    ascent="800"
    descent="-200"
    x-height="647"
    cap-height="890"
    bbox="-473 -341.043 1521 1310"
    underline-thickness="50"
    underline-position="-200"
    unicode-range="U+000D-2265"
  />
<missing-glyph horiz-adv-x="847" 
d="M0 2v939h847v-939h-847zM10 12h827v919h-827v-919zM377 277q-7 48 11 89t49.5 68.5t69.5 57t72 55t56.5 62t22.5 77.5q0 75 -58 121t-163 46q-78 0 -150.5 -34t-115.5 -89l-7 8q50 58 122 91.5t151 33.5q111 0 171 -49.5t60 -127.5q0 -38 -17 -70.5t-44 -57t-59 -48
t-62.5 -47.5t-55 -50t-37 -60.5t-6.5 -75.5h-10zM381 89q-13 0 -13 16q0 15 13 15q5 0 8.5 -4.5t3.5 -10.5q0 -16 -12 -16z" />
    <glyph glyph-name="f_i.liga" unicode="fi" horiz-adv-x="563" 
d="M178 0v637h-169v10h169q4 143 48 215t124 72q29 0 64 -16q0 -6 -2 -10q-31 16 -62 16q-156 -3 -162 -277h275v-647h-10v637h-265v-637h-10zM457 834q-13 0 -13 17q0 19 13 19q14 0 14 -19q0 -17 -14 -17z" />
    <glyph glyph-name="f_l.liga" unicode="fl" horiz-adv-x="636" 
d="M543 -18q-48 0 -70 42.5t-22 137.5v739q-50 23 -101 23q-156 -3 -162 -277h189v-10h-189v-637h-10v637h-169v10h169q4 143 48 215t124 72q51 0 111 -26v-746q0 -92 19.5 -131t62.5 -39q20 0 74 18q2 -5 1 -10q-44 -16 -75 -18z" />
    <glyph glyph-name=".notdef" horiz-adv-x="847" 
d="M0 2v939h847v-939h-847zM10 12h827v919h-827v-919zM377 277q-7 48 11 89t49.5 68.5t69.5 57t72 55t56.5 62t22.5 77.5q0 75 -58 121t-163 46q-78 0 -150.5 -34t-115.5 -89l-7 8q50 58 122 91.5t151 33.5q111 0 171 -49.5t60 -127.5q0 -38 -17 -70.5t-44 -57t-59 -48
t-62.5 -47.5t-55 -50t-37 -60.5t-6.5 -75.5h-10zM381 89q-13 0 -13 16q0 15 13 15q5 0 8.5 -4.5t3.5 -10.5q0 -16 -12 -16z" />
    <glyph glyph-name=".null" 
 />
    <glyph glyph-name="nonmarkingreturn" horiz-adv-x="333" 
 />
    <glyph glyph-name="CR" unicode="&#xd;" horiz-adv-x="600" 
 />
    <glyph glyph-name="space" unicode=" " horiz-adv-x="335" 
 />
    <glyph glyph-name="exclam" unicode="!" horiz-adv-x="329" 
d="M161 268v642h7l1 -642h-8zM165 0q-14 0 -14 18t14 18q13 0 13 -18t-13 -18z" />
    <glyph glyph-name="quotedbl" unicode="&#x22;" horiz-adv-x="399" 
d="M117 660l48 285h10l-48 -285h-10zM224 660l48 285h10l-48 -285h-10z" />
    <glyph glyph-name="numbersign" unicode="#" horiz-adv-x="751" 
d="M634 600h-121l-25 -302h120v-10h-121l-14 -172l-10 1l14 171h-243l-14 -171h-10l14 171h-107v10h108l26 302h-107v10h108l13 157h9l-13 -157h243l13 157h10l-13 -157h120v-10zM478 298l25 302h-243l-25 -302h243z" />
    <glyph glyph-name="dollar" unicode="$" horiz-adv-x="834" 
d="M717 232q0 -93 -77.5 -159.5t-207.5 -72.5v-130h-10v130h-10q-199 0 -295 125l5 11q87 -126 291 -126q135 0 214.5 66t79.5 156q0 59 -31 102.5t-81 69t-110.5 45.5t-120.5 39t-110 42t-81 61.5t-31 91.5q0 33 15 64t46 58.5t87 44t130 17.5v124h10v-124
q91 -1 161.5 -31.5t108.5 -77.5l-5 -8q-95 107 -270 107q-141 0 -207.5 -53t-66.5 -120q0 -45 24.5 -79.5t64 -55t90.5 -40t104 -33.5t104 -35.5t90.5 -47t64 -67t24.5 -94.5z" />
    <glyph glyph-name="percent" unicode="%" horiz-adv-x="904" 
d="M117 0l658 890h12l-657 -890h-13zM302 494q-79 0 -132 50t-53 136q0 84 51.5 135.5t133.5 51.5t134 -51t52 -136q0 -84 -55 -135t-131 -51zM302 504q75 0 125.5 49.5t50.5 126.5q0 80 -48.5 128.5t-127.5 48.5q-78 0 -126.5 -49t-48.5 -128t48.5 -127.5t126.5 -48.5z
M584 0q-80 0 -133 50t-53 136q0 84 52 135.5t134 51.5q81 0 133.5 -51.5t52.5 -135.5t-55 -135t-131 -51zM584 11q75 0 125.5 48.5t50.5 126.5q0 81 -48.5 128.5t-127.5 47.5q-80 0 -128 -48.5t-48 -127.5t48.5 -127t127.5 -48z" />
    <glyph glyph-name="ampersand" unicode="&#x26;" horiz-adv-x="922" 
d="M805 6l-8 -6l-141 137q-111 -155 -276 -155q-117 0 -190 57.5t-73 155.5q0 86 54.5 148.5t150.5 114.5q-87 83 -130.5 143t-43.5 123q0 76 68 131t204 55q123 0 193 -54.5t70 -120.5q0 -42 -20.5 -76.5t-68.5 -67.5t-82 -51t-105 -51q-7 -3 -11.5 -5.5t-9.5 -4.5
q-5 -3 -21.5 -10.5t-25.5 -12.5q16 -16 48.5 -46t48.5 -46l218 -212q43 63 67 136.5t25 132.5h10q-2 -65 -26.5 -139t-67.5 -137zM158 724q0 -59 44.5 -120t128.5 -141l49 24q143 68 184 95q109 70 109 153q0 63 -68.5 114t-184.5 51q-129 0 -195.5 -51.5t-66.5 -124.5z
M380 -8q161 0 269 152l-220 213q-18 17 -51 48.5t-48 45.5q-95 -51 -149 -112t-54 -144q0 -93 69 -148t184 -55z" />
    <glyph glyph-name="quotesingle" unicode="'" horiz-adv-x="294" 
d="M117 660l50 285h10l-50 -285h-10z" />
    <glyph glyph-name="parenleft" unicode="(" horiz-adv-x="580" 
d="M454 -240q-150 103 -212 251t-62 349q0 75 16 154.5t50 166t98 168t150 141.5l5 -6l-1 -3q-83 -58 -145.5 -137.5t-96.5 -164.5t-50 -164.5t-16 -154.5q0 -200 61 -344t208 -248l1 -2z" />
    <glyph glyph-name="parenright" unicode=")" horiz-adv-x="580" 
d="M126 -240l-6 6l1 2q147 104 208 248t61 344q0 75 -16 154.5t-50 164.5t-96.5 164.5t-145.5 137.5l-1 3l5 6q86 -60 150 -141.5t98 -168t50 -166t16 -154.5q0 -201 -62 -349t-212 -251z" />
    <glyph glyph-name="asterisk" unicode="*" horiz-adv-x="496" 
d="M379 756l-124 -58l80 -145l-8 -6l-79 143l-80 -143l-8 6l80 144l-123 59l4 9l121 -56l1 178h9l1 -179l122 57z" />
    <glyph glyph-name="plus" unicode="+" horiz-adv-x="684" 
d="M567 440v-10h-220v-286h-10v286h-220v10h220v288h10v-288h220z" />
    <glyph glyph-name="comma" unicode="," horiz-adv-x="228" 
d="M54 -169l49 316h8l-48 -316h-9z" />
    <glyph glyph-name="hyphen" unicode="-" horiz-adv-x="909" 
d="M216 352v10h477v-10h-477z" />
    <glyph glyph-name="period" unicode="." horiz-adv-x="329" 
d="M164 0q-13 0 -13 17q0 19 13 19q14 0 14 -19q0 -17 -14 -17z" />
    <glyph glyph-name="slash" unicode="/" horiz-adv-x="661" 
d="M-20 -130l689 1121h12l-689 -1121h-12z" />
    <glyph glyph-name="zero" unicode="0" horiz-adv-x="705" 
d="M351 -18q-142 0 -224 126t-82 333q0 217 82 343t224 126q144 0 226.5 -125t82.5 -344q0 -127 -36 -230.5t-107 -166t-166 -62.5zM351 -8q134 0 216.5 126t82.5 323q0 215 -80 337t-219 122q-137 0 -216.5 -123.5t-79.5 -335.5q0 -205 80 -327t216 -122z" />
    <glyph glyph-name="one" unicode="1" horiz-adv-x="535" 
d="M489 10q2 -3 0 -10h-443q-2 3 0 10h220v870l-191 -62q-3 4 -1 10l194 62h8v-880h213z" />
    <glyph glyph-name="two" unicode="2" horiz-adv-x="699" 
d="M45 0v6q22 67 67 125.5t98 101.5t112.5 83t114.5 77.5t99.5 76.5t71 88t26.5 105q0 110 -74.5 173.5t-210.5 63.5q-91 0 -163 -29t-106 -71q-6 6 -6 10q38 42 108 71t167 29q143 0 219 -67.5t76 -179.5q0 -57 -26.5 -107.5t-71 -90t-99 -77t-114 -77.5t-112.5 -81.5
t-97.5 -98.5t-66.5 -121h596q2 -5 0 -10h-608z" />
    <glyph glyph-name="three" unicode="3" horiz-adv-x="703" 
d="M365 484q146 -27 219.5 -89.5t73.5 -171.5q0 -102 -81 -171.5t-224 -69.5q-201 0 -308 118q0 6 6 10q94 -118 303 -118q129 0 211.5 63.5t82.5 167.5q0 119 -87.5 178.5t-245.5 80.5v10q140 0 227 57.5t87 158.5q0 88 -77.5 140t-205.5 52q-83 0 -164.5 -33t-113.5 -72
q-7 3 -7 8q41 43 122 75t163 32q139 0 216 -56.5t77 -145.5q0 -92 -73 -153t-201 -71z" />
    <glyph glyph-name="four" unicode="4" horiz-adv-x="685" 
d="M639 255q1 -1 1 -5t-1 -5h-89v-245h-10v245h-495v6l495 639h10v-635h89zM61 255h479v619z" />
    <glyph glyph-name="five" unicode="5" horiz-adv-x="714" 
d="M332 584q162 0 249.5 -82t87.5 -218q0 -125 -84 -213.5t-231 -88.5q-109 0 -187.5 35t-121.5 91q0 8 6 9q95 -125 303 -125q144 0 224.5 86.5t80.5 205.5q0 132 -85.5 211t-241.5 79q-107 0 -239 -37l32 353h525v-5t-1 -5h-515l-29 -329q122 33 227 33z" />
    <glyph glyph-name="six" unicode="6" horiz-adv-x="698" 
d="M349 497q155 0 229.5 -71t74.5 -171q0 -65 -33.5 -126t-105 -104t-165.5 -43q-145 0 -224.5 84.5t-79.5 230.5q0 181 120.5 332t350.5 261q4 -4 4 -9q-383 -187 -451 -466q41 32 117.5 57t162.5 25zM349 -8q128 0 211 79t83 184q0 99 -73.5 165.5t-220.5 66.5
q-87 0 -164.5 -25.5t-119.5 -61.5q-10 -55 -10 -103q0 -139 75 -222t219 -83z" />
    <glyph glyph-name="seven" unicode="7" horiz-adv-x="701" 
d="M46 890h610v-7q-151 -112 -256 -354t-105 -529h-10q0 282 100 520.5t251 359.5h-590q-2 3 0 10z" />
    <glyph glyph-name="eight" unicode="8" horiz-adv-x="697" 
d="M374 504q121 -27 199.5 -102t78.5 -180q0 -104 -76.5 -172t-227.5 -68q-150 0 -226.5 68t-76.5 172q0 51 18 94.5t46 73t67 53.5t75.5 38t76.5 23q-124 26 -193.5 70.5t-69.5 124.5q0 81 70.5 146t212.5 65q74 0 130.5 -18t88.5 -48t47.5 -64t15.5 -71q0 -77 -69.5 -129
t-186.5 -76zM75 699q0 -43 21.5 -76t62.5 -54.5t85.5 -35t104.5 -24.5h1q270 53 270 200q0 76 -67.5 133.5t-204.5 57.5q-72 0 -127 -19t-85.5 -49.5t-45.5 -64t-15 -68.5zM348 -8q149 0 221.5 65.5t72.5 164.5q0 107 -82 179t-209 99q-56 -11 -106 -32t-94 -54t-70 -82.5
t-26 -109.5q0 -97 72.5 -163.5t220.5 -66.5z" />
    <glyph glyph-name="nine" unicode="9" horiz-adv-x="698" 
d="M349 910q144 0 224 -82.5t80 -224.5q0 -191 -120 -348.5t-351 -272.5q-4 4 -4 8q381 197 450 483q-41 -27 -118.5 -48.5t-160.5 -21.5q-155 0 -229.5 71t-74.5 171q0 104 82.5 184.5t221.5 80.5zM55 645q0 -99 73.5 -165.5t220.5 -66.5q85 0 163 22t119 53q12 56 12 115
q0 136 -76 216.5t-218 80.5q-130 0 -212 -75.5t-82 -179.5z" />
    <glyph glyph-name="colon" unicode=":" horiz-adv-x="329" 
d="M164 611q-13 0 -13 17q0 19 13 19q14 0 14 -19q0 -17 -14 -17zM164 0q-13 0 -13 17q0 19 13 19q14 0 14 -19q0 -17 -14 -17z" />
    <glyph glyph-name="semicolon" unicode=";" horiz-adv-x="228" 
d="M90 611q-13 0 -13 17q0 19 13 19q14 0 14 -19q0 -17 -14 -17zM54 -169l49 316h8l-48 -316h-9z" />
    <glyph glyph-name="less" unicode="&#x3c;" horiz-adv-x="692" 
d="M575 711l-446 -279l444 -277l-6 -8l-450 280v9l452 283z" />
    <glyph glyph-name="equal" unicode="=" horiz-adv-x="685" 
d="M117 508v10h451v-10h-451zM117 353v10h451v-10h-451z" />
    <glyph glyph-name="greater" unicode="&#x3e;" horiz-adv-x="692" 
d="M123 719l452 -283v-9l-450 -280l-6 8l444 277l-446 279z" />
    <glyph glyph-name="question" unicode="?" horiz-adv-x="713" 
d="M299 239q-6 47 8 88t42 71t63.5 58t72.5 55t67.5 54.5t50 64t19.5 77.5q0 86 -67 139.5t-188 53.5q-90 0 -174 -39.5t-132 -102.5l-7 9q57 66 139.5 104.5t173.5 38.5q127 0 196 -57t69 -146q0 -43 -19.5 -80.5t-50.5 -65.5t-67.5 -55t-72 -54t-63.5 -57t-42.5 -70
t-7.5 -86h-10zM303 0q-6 0 -10.5 5.5t-4.5 12.5t4.5 12.5t10.5 5.5q5 0 9.5 -5.5t4.5 -12.5t-4.5 -12.5t-9.5 -5.5z" />
    <glyph glyph-name="at" unicode="@" horiz-adv-x="1123" 
d="M583 -181q-205 0 -335.5 131t-130.5 363q0 239 126 374t330 135q194 0 313.5 -118t119.5 -351q0 -118 -43 -193.5t-109 -75.5q-44 0 -74.5 26t-36.5 85q-19 -41 -68 -76t-112 -35q-105 0 -158.5 69t-53.5 169q0 99 53.5 168.5t158.5 69.5q108 0 179 -73v58h10v-333
q0 -58 27.5 -88t74.5 -30q62 0 102 71.5t40 187.5q0 230 -117 344.5t-306 114.5q-200 0 -323 -132.5t-123 -366.5q0 -228 127.5 -356t328.5 -128q64 0 123.5 21t89.5 52l6 -8q-32 -32 -92 -53.5t-127 -21.5zM563 94q60 0 110 34.5t69 84.5v260q-32 38 -73.5 57.5
t-105.5 19.5q-99 0 -150.5 -65t-51.5 -163q0 -99 51 -163.5t151 -64.5z" />
    <glyph glyph-name="A" unicode="A" horiz-adv-x="829" 
d="M430 890l384 -889v-1h-10q-6 13 -21.5 49t-40 93t-46.5 108h-557l-113 -250h-11l404 890q1 1 5 1t6 -1zM144 260h548q-106 246 -268 618z" />
    <glyph glyph-name="B" unicode="B" horiz-adv-x="795" 
d="M522 518q228 -37 228 -242q0 -139 -93.5 -216t-250.5 -78q-112 0 -176 9t-140 34v854q115 31 282 31q71 0 127 -14.5t89 -37t54 -52.5t29 -57.5t8 -55.5q0 -61 -41 -109.5t-116 -65.5zM669 693q0 36 -14 70t-45.5 66t-92.5 51.5t-145 19.5q-164 0 -272 -29v-401
q49 25 137 40.5t172 15.5q52 0 86 -5q83 14 128.5 62t45.5 110zM406 -8q159 0 246.5 78t87.5 206q0 118 -79.5 179t-251.5 61q-83 0 -167.5 -15t-141.5 -41v-428q113 -40 306 -40z" />
    <glyph glyph-name="C" unicode="C" horiz-adv-x="745" 
d="M413 -18q-158 0 -263 125.5t-105 338.5q0 123 46.5 228.5t134.5 170.5t198 65q120 0 200 -87.5t76 -213.5l-2 -1h-4h-4q4 123 -73.5 208t-192.5 84q-162 -1 -265.5 -134.5t-103.5 -319.5q0 -211 103.5 -332.5t254.5 -121.5q64 0 135.5 26t128.5 78l5 -9
q-58 -52 -131 -78.5t-138 -26.5z" />
    <glyph glyph-name="D" unicode="D" horiz-adv-x="829" 
d="M360 910q196 0 310 -125t114 -329q0 -214 -108 -344t-296 -130q-93 0 -149 9t-141 34v854q116 31 270 31zM380 -8q185 0 288.5 128t105.5 336q1 92 -25.5 172t-77 141t-131 96t-180.5 35q-163 0 -260 -29v-838q126 -41 280 -41z" />
    <glyph glyph-name="E" unicode="E" horiz-adv-x="744" 
d="M698 10q2 -2 2 -5t-2 -5h-608v887l2 3h583q2 -7 -1 -10h-574v-447h491q2 -5 -1 -10h-490v-413h598z" />
    <glyph glyph-name="F" unicode="F" horiz-adv-x="721" 
d="M674 879h-574v-501h487v-4t-1 -4v-2h-486v-368h-10v885l3 4h583q1 -2 -2 -10z" />
    <glyph glyph-name="G" unicode="G" horiz-adv-x="798" 
d="M753 618q-4 -3 -10 -1q2 126 -88 204.5t-228 78.5q-111 0 -197 -63t-130.5 -166t-44.5 -225q0 -208 109 -331t279 -123q76 0 157 25t143 74v302h-334q0 4 3 10h338l3 -5v-311q-61 -51 -145 -78t-165 -27q-173 0 -285.5 125.5t-112.5 338.5q0 122 44.5 226.5t133.5 171
t204 66.5q140 0 235 -81.5t91 -210.5z" />
    <glyph glyph-name="H" unicode="H" horiz-adv-x="819" 
d="M719 890q1 2 5 2t5 -2v-890h-10v398h-619v-398h-10v890q6 3 10 0v-482h619v482z" />
    <glyph glyph-name="I" unicode="I" horiz-adv-x="190" 
d="M90 0v890q6 4 10 0v-890h-10z" />
    <glyph glyph-name="J" unicode="J" horiz-adv-x="785" 
d="M381 -18q-89 0 -179.5 57t-156.5 148q1 6 6 9q65 -89 152.5 -146.5t177.5 -57.5q141 0 222.5 106t81.5 276v516q6 2 10 0v-518q0 -109 -34.5 -196t-107 -140.5t-172.5 -53.5z" />
    <glyph glyph-name="K" unicode="K" horiz-adv-x="847" 
d="M407 472q171 -212 271 -324.5t151 -143.5v-2q-2 -2 -10 -2q-105 67 -418 468q-141 -86 -301 -166v-302h-10v890q2 1 5.5 1t4.5 -1v-578q290 151 415 244q254 187 246 334q5 2 9 0q6 -82 -59.5 -165.5t-191.5 -177.5q-57 -42 -112 -75z" />
    <glyph glyph-name="L" unicode="L" horiz-adv-x="744" 
d="M94 0l-4 5v885q1 1 4.5 1t5.5 -1v-880h598q3 -4 0 -10h-604z" />
    <glyph glyph-name="M" unicode="M" horiz-adv-x="989" 
d="M944 0h-10l-77 869l-358 -703h-9l-360 706l-75 -872h-10l77 888q2 2 5.5 2.5t4.5 -0.5l363 -711l362 711q4 2 9 -3z" />
    <glyph glyph-name="N" unicode="N" horiz-adv-x="894" 
d="M794 890q6 4 10 0v-890h-9l-695 871v-871h-10v886q3 6 8 4l696 -873v873z" />
    <glyph glyph-name="O" unicode="O" horiz-adv-x="842" 
d="M383 -18q-106 0 -183.5 58.5t-115.5 153t-39 211.5q-1 136 50.5 251.5t146 184.5t211.5 69q102 0 182.5 -64t122 -168t39.5 -224q-2 -121 -55 -229t-148.5 -175.5t-210.5 -67.5zM383 -8q164 0 282.5 136t121.5 326q3 185 -92.5 315.5t-241.5 130.5q-171 0 -285 -144
t-113 -351q1 -111 36 -202.5t111 -151t181 -59.5z" />
    <glyph glyph-name="P" unicode="P" horiz-adv-x="794" 
d="M401 910q159 0 253.5 -86t94.5 -240q0 -126 -96.5 -208t-263.5 -82q-165 0 -289 54v-348h-10v869q127 41 311 41zM389 304q156 0 253 76.5t97 203.5q0 148 -91 232t-247 84q-191 0 -301 -40v-500q116 -56 289 -56z" />
    <glyph glyph-name="Q" unicode="Q" horiz-adv-x="842" 
d="M797 454q-2 -116 -51 -220t-137.5 -173t-197.5 -78q89 -119 244 -117q64 0 137 25q3 -5 2 -11q-70 -22 -139 -24q-166 -3 -255 126h-17q-106 0 -183.5 58.5t-115.5 153t-39 211.5q-1 136 50.5 251.5t146 184.5t211.5 69q102 0 182.5 -64t122 -168t39.5 -224zM383 -8
q164 0 282.5 136t121.5 326q3 185 -92.5 315.5t-241.5 130.5q-171 0 -285 -144t-113 -351q1 -111 36 -202.5t111 -151t181 -59.5z" />
    <glyph glyph-name="R" unicode="R" horiz-adv-x="843" 
d="M503 316q221 -269 295 -312v-2q-2 -2 -9 -2q-19 10 -39.5 26t-87.5 89t-170 199q-46 -9 -100 -9q-75 1 -160.5 17t-131.5 33v-355h-10v869q74 24 142.5 32.5t172.5 8.5q158 0 250.5 -82t92.5 -229q0 -107 -65.5 -182.5t-179.5 -100.5zM392 315q150 -2 248 75t98 209
q0 135 -86 218t-247 83q-191 0 -305 -38v-496q139 -49 292 -51z" />
    <glyph glyph-name="S" unicode="S" horiz-adv-x="790" 
d="M419 -18q-102 0 -200.5 36t-173.5 103q0 5 4 9q75 -66 173 -102t197 -36q150 0 233 66t83 178q0 57 -24.5 97.5t-72 64t-104 35.5t-134.5 17q-270 18 -270 223q0 57 27 104t69.5 75t90.5 43t94 15q150 0 238.5 -70.5t88.5 -179.5q-6 -2 -10 -2q-1 113 -89 177.5
t-228 64.5q-110 0 -190.5 -65t-80.5 -163q0 -196 262 -212q184 -11 263.5 -66.5t79.5 -157.5q0 -111 -82.5 -182.5t-243.5 -71.5z" />
    <glyph glyph-name="T" unicode="T" horiz-adv-x="738" 
d="M723 890q1 -5 -2 -10h-363v-880h-10v880h-333q-2 5 3 10h705z" />
    <glyph glyph-name="U" unicode="U" horiz-adv-x="893" 
d="M435 -18q-161 0 -253 102t-92 300v506q6 4 10 0v-507q0 -193 89.5 -292t245.5 -99q161 0 259.5 112.5t98.5 290.5v495q7 2 10 0v-497q0 -174 -99 -292.5t-269 -118.5z" />
    <glyph glyph-name="V" unicode="V" horiz-adv-x="789" 
d="M407 0l-4 4q-65 212 -199.5 506.5t-188.5 376.5l1 3q4 2 9 0q74 -126 200.5 -401t185.5 -479h2q64 96 124 200.5t119 229t88.5 244t16.5 205.5q1 1 4.5 1.5t4.5 -0.5q22 -157 -77 -391.5t-273 -495.5l-3 -3h-10z" />
    <glyph glyph-name="W" unicode="W" horiz-adv-x="1151" 
d="M422 0l-7 5q-70 227 -185.5 471t-214.5 411l1 3q5 2 9 0q113 -195 223 -430.5t175 -449.5h2q62 100 133.5 242.5t93.5 229.5q-13 39 -92 243q1 5 8 5q45 -110 132 -350t129 -370h2q150 220 231.5 453.5t58.5 426.5q3 3 10 0q23 -190 -58 -427t-234 -457l-7 -6h-6l-5 4
q-123 360 -163 461q-22 -80 -102.5 -240t-124.5 -222l-5 -3h-4z" />
    <glyph glyph-name="X" unicode="X" horiz-adv-x="822" 
d="M414 440q17 -18 186.5 -207.5t206.5 -228.5l-1 -4h-8q-47 48 -391 434q-25 -22 -83 -68.5t-96 -80t-84 -81t-76 -99t-43 -105.5h-10q13 55 40.5 105t73 98t80 79t99 83t91.5 76q-74 83 -191 225.5t-170 219.5v3q3 3 9 1q92 -134 360 -443q13 12 39 34q164 145 219 210
q95 110 90 199q6 4 10 0q1 -48 -16 -92t-65.5 -100.5t-105.5 -110t-164 -147.5z" />
    <glyph glyph-name="Y" unicode="Y" horiz-adv-x="754" 
d="M739 890q10 -270 -329 -603v-287h-10v287q-42 71 -191.5 307t-193.5 293l1 3q2 1 5 1t4 -1q37 -47 184 -278t197 -315q333 324 323 593q4 1 10 0z" />
    <glyph glyph-name="Z" unicode="Z" horiz-adv-x="769" 
d="M723 10q1 -2 1 -5t-1 -5h-674q-4 1 -4 7q139 260 311 504t325 369h-605q-3 4 0 10h620q5 -3 5 -8q-161 -128 -330.5 -368t-313.5 -504h666z" />
    <glyph glyph-name="bracketleft" unicode="[" horiz-adv-x="471" 
d="M117 -231v1222h237v-10h-227v-1202h227v-10h-237z" />
    <glyph glyph-name="backslash" unicode="\" horiz-adv-x="661" 
d="M681 -130h-12l-689 1121h12z" />
    <glyph glyph-name="bracketright" unicode="]" horiz-adv-x="471" 
d="M354 -231h-237v10h227v1202h-227v10h237v-1222z" />
    <glyph glyph-name="asciicircum" unicode="^" horiz-adv-x="803" 
d="M686 509h-13l-269 367l-274 -367h-13l285 381h5z" />
    <glyph glyph-name="underscore" unicode="_" horiz-adv-x="647" 
d="M117 -10v10h413v-10h-413z" />
    <glyph glyph-name="grave" unicode="`" horiz-adv-x="303" 
d="M220 729l-148 245h12l147 -245h-11z" />
    <glyph glyph-name="a" unicode="a" horiz-adv-x="625" 
d="M554 121q0 -57 6 -80.5t20 -36.5v-4h-9q-27 24 -27 121v159q-20 -110 -115 -204t-212 -94q-84 0 -128 43.5t-44 116.5q0 109 96.5 177t290.5 68q58 0 111 -6q-5 141 -60 223.5t-152 83.5q-106 2 -235 -97q-4 3 -2 11q127 96 237 96q103 0 163 -90.5t60 -260.5v-226z
M217 -8q87 0 164 56t120 140t43 169v13q-61 7 -110 7q-104 0 -181 -20.5t-119 -55.5t-61 -74.5t-19 -85.5q0 -69 41.5 -109t121.5 -40z" />
    <glyph glyph-name="b" unicode="b" horiz-adv-x="670" 
d="M381 698q112 0 180.5 -94.5t68.5 -232.5q0 -160 -82 -274.5t-205 -114.5q-52 0 -96.5 22.5t-75 59t-50 78t-28.5 84.5v-84q0 -80 -14 -142h-7v8q11 59 11 133v791q1 1 5 1t5 -1v-531q26 121 107.5 209t180.5 88zM343 -8q80 0 144.5 54.5t99 140.5t33.5 184
q-1 136 -67.5 226.5t-171.5 90.5q-76 0 -143.5 -57t-106 -144t-38.5 -175q0 -125 71 -222.5t179 -97.5z" />
    <glyph glyph-name="c" unicode="c" horiz-adv-x="622" 
d="M318 -18q-116 0 -197 94t-81 240q0 160 87 271t215 111q106 0 175 -94t65 -231q-1 -1 -5 -1t-5 1q0 135 -64 225t-166 90q-125 0 -208.5 -109.5t-83.5 -262.5q0 -141 77.5 -232.5t190.5 -91.5q117 0 226 107q6 -4 6 -8q-113 -109 -232 -109z" />
    <glyph glyph-name="d" unicode="d" horiz-adv-x="678" 
d="M595 141q0 -74 11 -133v-8h-7q-14 40 -14 142v119q-10 -46 -31.5 -93t-55.5 -89.5t-84 -69.5t-107 -27q-116 0 -191.5 93t-75.5 236q0 99 38 187.5t107.5 144t153.5 55.5q90 0 158.5 -71.5t87.5 -179.5v485q1 1 5 1t5 -1v-791zM307 -8q80 0 145.5 55.5t99 136t33.5 162.5
q0 147 -70.5 244.5t-175.5 97.5q-79 0 -146 -52.5t-105 -139t-38 -185.5q-1 -136 71 -227.5t186 -91.5z" />
    <glyph glyph-name="e" unicode="e" horiz-adv-x="613" 
d="M333 698q112 0 180 -91t64 -248l-6 -7l-520 -67q11 -134 84 -213.5t174 -79.5q117 2 223 112q4 -1 7 -7q-109 -113 -230 -115q-109 -2 -186.5 85.5t-82.5 233.5q-4 102 32.5 193t106 147.5t154.5 56.5zM567 362q4 155 -62.5 240.5t-171.5 85.5q-83 0 -150.5 -57
t-102 -145.5t-30.5 -184.5v-6z" />
    <glyph glyph-name="f" unicode="f" horiz-adv-x="309" 
d="M350 924q-156 -3 -162 -277h219v-10h-219v-12v-625h-10v625v12h-169v10h169q4 143 48 215t124 72q48 0 103 -23q0 -6 -2 -10q-50 23 -101 23z" />
    <glyph glyph-name="g" unicode="g" horiz-adv-x="679" 
d="M598 650q7 0 9 -1v-3q-12 -111 -12 -134v-433q0 -167 -77 -263t-195 -96q-131 0 -256 115q0 7 5 9q126 -114 251 -114q114 0 188 93.5t74 256.5v184q-23 -121 -98 -201.5t-175 -80.5q-116 0 -194 89.5t-78 239.5q0 94 35 181.5t105 146.5t159 59q91 0 157 -72t89 -183
v104zM312 -8q111 0 190 103.5t83 265.5q-3 82 -32 155t-85.5 122.5t-128.5 49.5q-87 0 -155 -59t-101 -144t-33 -174q0 -135 70.5 -227t191.5 -92z" />
    <glyph glyph-name="h" unicode="h" horiz-adv-x="666" 
d="M387 698q107 0 166 -92t59 -255v-351h-10v353q0 152 -55 243.5t-160 91.5q-59 0 -116.5 -36t-98 -91.5t-65.5 -124.5t-25 -134v-302h-10v932q8 2 10 0v-544q28 122 115 216t190 94z" />
    <glyph glyph-name="i" unicode="i" horiz-adv-x="210" 
d="M104 834q-13 0 -13 17q0 19 13 19q14 0 14 -19q0 -17 -14 -17zM100 0v647q6 4 10 0v-647h-10z" />
    <glyph glyph-name="j" unicode="j" horiz-adv-x="215" 
d="M109 834q-13 0 -13 17q0 19 13 19q14 0 14 -19q0 -17 -14 -17zM24 -219q-33 0 -74 17q-2 7 1 10q45 -17 73 -17q45 0 63 48t18 161v647q6 2 10 0v-648q0 -54 -3.5 -89.5t-12.5 -66.5t-27.5 -46.5t-47.5 -15.5z" />
    <glyph glyph-name="k" unicode="k" horiz-adv-x="693" 
d="M347 330q197 -230 251 -283q40 -37 59 -44v-3q-2 -2 -10 -2q-50 16 -307 327q-139 -96 -258 -155v-170h-10v932q5 2 10 0v-751q185 97 325 205q101 77 137.5 132.5t32.5 128.5q4 1 10 0q6 -73 -32.5 -133t-141.5 -136z" />
    <glyph glyph-name="l" unicode="l" horiz-adv-x="271" 
d="M178 -18q-48 0 -70 42.5t-22 137.5v770q5 2 10 0v-770q0 -92 19.5 -131t62.5 -39q20 0 74 18q2 -5 1 -10q-43 -16 -75 -18z" />
    <glyph glyph-name="m" unicode="m" horiz-adv-x="960" 
d="M733 698q73 0 114 -78.5t41 -218.5v-401h-10v403q0 130 -37 207.5t-108 77.5q-69 0 -125.5 -57.5t-86 -140t-29.5 -166.5v-324h-10v403q0 285 -145 285q-66 0 -123 -60.5t-87.5 -149t-30.5 -176.5v-302h-10v531q0 65 -14 111v4q6 3 9 1q15 -40 15 -88v-162
q23 122 89 211.5t152 89.5q148 0 155 -283q23 117 87.5 200t153.5 83z" />
    <glyph glyph-name="n" unicode="n" horiz-adv-x="698" 
d="M401 698q107 0 166 -92t59 -255v-351h-10v353q0 152 -55 243.5t-160 91.5q-59 0 -116.5 -36t-98 -91.5t-65.5 -124.5t-25 -134v-302h-10v531q0 65 -14 111v4q6 3 9 1q15 -40 15 -88v-171q28 122 115 216t190 94z" />
    <glyph glyph-name="o" unicode="o" horiz-adv-x="676" 
d="M310 -18q-126 0 -198 93.5t-72 229.5q0 161 95 277t234 116q118 0 192.5 -97.5t74.5 -237.5q0 -158 -92.5 -269.5t-233.5 -111.5zM310 -8q138 0 227 109t89 262q0 138 -72 231.5t-185 93.5q-137 0 -228 -114t-91 -269q0 -130 68 -221.5t192 -91.5z" />
    <glyph glyph-name="p" unicode="p" horiz-adv-x="669" 
d="M380 698q112 0 180.5 -93t68.5 -244q0 -97 -36.5 -183.5t-103.5 -141t-148 -54.5q-90 0 -158 69.5t-91 169.5v-453q-7 -2 -10 0v754q0 58 -10 120v4q2 1 9 1l11 -71v-178q26 126 108.5 213t179.5 87zM341 -8q81 0 146 56t98.5 139.5t33.5 173.5q0 149 -67.5 238
t-171.5 89q-76 0 -143.5 -55.5t-106 -144.5t-38.5 -186q0 -121 73 -215.5t176 -94.5z" />
    <glyph glyph-name="q" unicode="q" horiz-adv-x="677" 
d="M605 646v-4q-10 -62 -10 -120v-754q-3 -2 -10 0v490q-24 -110 -101 -193t-171 -83q-119 0 -196 91t-77 235q0 170 89.5 280t214.5 110q88 0 153.5 -73t87.5 -184v135l11 71q7 0 9 -1zM313 -8q71 0 134.5 52.5t100.5 133.5t37 164q0 138 -67.5 242t-173.5 104
q-118 0 -206 -105.5t-88 -274.5q0 -136 72.5 -226t190.5 -90z" />
    <glyph glyph-name="r" unicode="r" horiz-adv-x="514" 
d="M478 674q1 -7 -2 -10q-60 24 -112 24q-80 0 -143 -58.5t-94 -146.5t-31 -185v-298h-10v531q0 65 -14 111v4q6 3 9 1q15 -40 15 -88v-157q21 126 95 211t173 85q54 0 114 -24z" />
    <glyph glyph-name="s" unicode="s" horiz-adv-x="620" 
d="M326 -18q-71 0 -148.5 29t-131.5 82q0 7 5 9q52 -51 126.5 -80.5t148.5 -29.5q99 0 168.5 47t69.5 120q0 87 -57.5 132t-200.5 52q-234 14 -234 172q0 75 69 129t171 54q144 0 247 -79q0 -3 -5 -8q-103 77 -242 77q-104 0 -167 -53.5t-63 -119.5q0 -150 225 -162
q148 -8 207.5 -55t59.5 -138q0 -83 -75.5 -130.5t-172.5 -47.5z" />
    <glyph glyph-name="t" unicode="t" horiz-adv-x="445" 
d="M427 637h-325v-349q0 -140 53 -218.5t148 -77.5q47 0 107 23q2 -2 2 -10q-60 -23 -109 -23q-97 0 -154 79.5t-57 226.5v349h-82v10h82v183q3 3 10 3v-186h325v-10z" />
    <glyph glyph-name="u" unicode="u" horiz-adv-x="687" 
d="M611 116q0 -53 4 -73.5t18 -37.5v-5h-8q-14 16 -19 37.5t-5 78.5v137q-22 -117 -104 -194t-196 -77q-106 0 -167.5 71.5t-61.5 214.5v379q4 2 10 0v-379q0 -142 59 -209t160 -67q132 0 216 102.5t84 252.5v300q1 1 5 1t5 -1v-531z" />
    <glyph glyph-name="v" unicode="v" horiz-adv-x="591" 
d="M317 0l-5 4q-105 337 -302 641l1 2q7 2 9 0q188 -276 300 -637h3q117 172 190 351.5t55 284.5q1 1 4.5 1.5t5.5 -0.5q19 -108 -57.5 -295t-190.5 -348l-5 -4h-8z" />
    <glyph glyph-name="w" unicode="w" horiz-adv-x="742" 
d="M267 0l-6 4q-88 344 -251 640l1 3q4 1 8 0q154 -263 251 -637h2q40 80 80 187.5t60 190.5l-62 180q2 7 9 4q57 -159 88 -264.5t75 -297.5h2q86 140 144.5 318t52.5 319q4 2 9 0q11 -117 -49 -309.5t-149 -332.5l-5 -5h-9l-5 4q-56 248 -95 368q-18 -73 -60 -186t-78 -181
l-5 -5h-8z" />
    <glyph glyph-name="x" unicode="x" horiz-adv-x="578" 
d="M292 331q115 -121 276 -327l-2 -4h-7q-47 60 -140 170.5t-134 154.5q-155 -140 -201.5 -200t-48.5 -125h-9q-1 67 47.5 129.5t204.5 203.5q-109 136 -268 309v3q8 2 9 2q169 -185 267 -308q12 11 35 32q64 58 92 85t60.5 65t43.5 66.5t9 59.5q4 1 10 0q3 -61 -40.5 -115
t-176.5 -176q-18 -16 -27 -25z" />
    <glyph glyph-name="y" unicode="y" horiz-adv-x="630" 
d="M619 647q6 -113 -18.5 -244.5t-94 -280t-174.5 -252.5q-60 -59 -128 -90.5t-125 -31.5q-36 0 -68 16q-2 7 0 10l2 1q29 -17 66 -17q55 0 123.5 32.5t124.5 88.5q59 59 110 137q-63 41 -133 129t-124 184t-93.5 179.5t-56.5 134.5l1 3q3 1 9 1q17 -62 76 -182
t152.5 -254.5t174.5 -186.5q89 141 130.5 307.5t35.5 315.5q7 3 10 0z" />
    <glyph glyph-name="z" unicode="z" horiz-adv-x="581" 
d="M570 10q1 -6 0 -10h-559q-2 4 -1 7q89 150 166 261.5t175.5 214t193.5 154.5h-506q-1 4 0 10h527q4 -4 2 -9q-144 -74 -274.5 -233t-270.5 -395h547z" />
    <glyph glyph-name="braceleft" unicode="{" horiz-adv-x="509" 
d="M162 390q37 -3 62 -19t38 -37.5t20.5 -57t9.5 -66t5 -78.5t7 -80q12 -93 40.5 -155t82.5 -121l-8 -7q-56 63 -85 126t-40 155q-4 33 -7 85t-4.5 82t-11 66.5t-26 56t-48.5 32.5t-80 13v10q53 0 86 16.5t47.5 42.5t23 68.5t10.5 84.5t10.5 101t24.5 108q28 90 102 175
l7 -8q-70 -78 -99 -169q-17 -53 -26 -121t-12.5 -115t-14 -91t-38 -68.5t-76.5 -28.5z" />
    <glyph glyph-name="bar" unicode="|" horiz-adv-x="244" 
d="M117 -231v1243h10v-1243h-10z" />
    <glyph glyph-name="braceright" unicode="}" horiz-adv-x="509" 
d="M190 816q16 -49 24.5 -108t10.5 -101t10.5 -84.5t23 -68.5t47.5 -42.5t86 -16.5v-10q-48 0 -80 -13t-48.5 -32.5t-26 -56t-11 -66.5t-4.5 -82t-7 -85q-11 -92 -40 -155t-85 -126l-8 7q54 59 82.5 121t40.5 155q4 32 7 80t5 78.5t9.5 66t20.5 57t38 37.5t62 19
q-49 4 -76.5 28.5t-38 68.5t-14 91t-12.5 115t-26 121q-29 91 -99 169l7 8q74 -85 102 -175z" />
    <glyph glyph-name="asciitilde" unicode="~" horiz-adv-x="648" 
d="M117 316q0 63 23 100t57 37q30 0 65.5 -20t62.5 -43.5t62 -43.5t64 -20q33 0 51.5 36t18.5 91h10q0 -61 -22 -99t-59 -38q-29 0 -64 20t-63 43.5t-63 43.5t-63 20q-31 0 -50.5 -35t-19.5 -92h-10z" />
    <glyph glyph-name="exclamdown" unicode="&#xa1;" horiz-adv-x="329" 
d="M164 744q-13 0 -13 18t13 18q14 0 14 -18t-14 -18zM161 -130l-1 642h8v-642h-7z" />
    <glyph glyph-name="cent" unicode="&#xa2;" horiz-adv-x="800" 
d="M419 76q90 0 158 29.5t101 64.5l5 -7q-29 -33 -91 -62.5t-148 -33.5v-197h-10v196h-15q-132 0 -217 95t-85 280q0 94 24.5 167t66.5 117.5t95.5 67t115.5 22.5h15v176h10v-177q146 -7 239 -95l-7 -6q-106 92 -257 92q-125 0 -208.5 -91.5t-83.5 -272.5q0 -182 83 -273.5
t209 -91.5z" />
    <glyph glyph-name="sterling" unicode="&#xa3;" horiz-adv-x="850" 
d="M733 10v-10h-593h-3h-8v10h8q37 0 55.5 35.5t17.5 96.5q0 30 -4 67t-10.5 90t-10.5 89h-68v10h67q-7 82 -7 157q0 140 71.5 226t204.5 86q92 0 158 -31t102 -77l-7 -7q-36 45 -100 75t-154 30q-127 0 -196 -83t-69 -219q0 -80 8 -157h393v-10h-392q3 -36 9.5 -87.5
t10.5 -89.5t4 -69q2 -101 -46 -132h559z" />
    <glyph glyph-name="currency" unicode="&#xa4;" horiz-adv-x="541" 
d="M426 245l-7 -7l-78 101q-29 -31 -71 -31q-43 0 -71 30l-75 -99l-7 7l75 100q-28 36 -28 95q0 54 26 91l-73 94l8 6l71 -92q30 35 74 35q47 0 75 -33l70 94l8 -6l-72 -96q26 -35 26 -93q0 -57 -29 -94zM270 318q42 0 69.5 35.5t27.5 87.5q0 56 -25.5 90t-71.5 34
q-43 0 -69.5 -36.5t-26.5 -87.5q0 -55 26 -89t70 -34z" />
    <glyph glyph-name="yen" unicode="&#xa5;" horiz-adv-x="854" 
d="M432 385v-36h214v-10h-214v-145h214v-10h-214v-184h-10v184h-214v10h214v145h-214v10h214v36l-305 482h12l298 -470l298 470h12z" />
    <glyph glyph-name="brokenbar" unicode="&#xa6;" horiz-adv-x="244" 
d="M117 481v531h10v-531h-10zM117 -231v534h10v-534h-10z" />
    <glyph glyph-name="section" unicode="&#xa7;" horiz-adv-x="593" 
d="M368 166q95 -74 95 -150q0 -72 -47 -109t-127 -37q-34 0 -77 13t-74 33v13q28 -22 72 -35.5t79 -13.5q75 0 119.5 33.5t44.5 102.5q0 39 -25 75.5t-62 63t-81 58.5t-81 62t-62 73t-25 91q0 46 31 95t77 76q-95 70 -95 154q0 73 47.5 109.5t127.5 36.5q82 0 149 -36v-12
q-26 17 -70 27.5t-79 10.5q-75 0 -120 -33.5t-45 -102.5q0 -51 34.5 -93.5t84 -74t99 -63.5t84 -78.5t34.5 -104.5q0 -59 -30 -109.5t-78 -74.5zM127 439q0 -36 13 -67.5t42 -60.5t51 -47t65.5 -48t60.5 -43q49 23 78.5 72t29.5 105q0 36 -13.5 66.5t-41.5 57t-52 44.5
t-65 44.5t-61 40.5q-47 -24 -77 -72t-30 -92z" />
    <glyph glyph-name="dieresis" unicode="&#xa8;" horiz-adv-x="426" 
d="M85 783q-13 0 -13 17q0 19 13 19q14 0 14 -19q0 -17 -14 -17zM340 783q-13 0 -13 17q0 19 13 19q14 0 14 -19q0 -17 -14 -17z" />
    <glyph glyph-name="copyright" unicode="&#xa9;" horiz-adv-x="1113" 
d="M557 -19q-193 0 -316.5 125t-123.5 337q0 100 36.5 188.5t97.5 148.5t141 95t165 35q190 0 314.5 -127t124.5 -340t-123 -337.5t-316 -124.5zM557 -9q68 0 131 17.5t117.5 54.5t94.5 89.5t63 127.5t23 163q0 144 -60.5 250t-156.5 156.5t-212 50.5q-84 0 -162.5 -34.5
t-137.5 -94t-94.5 -145.5t-35.5 -183q0 -209 121 -330.5t309 -121.5zM560 205q-96 0 -162 66t-66 170q0 108 66 176.5t164 68.5q103 0 165 -71l-7 -6q-63 67 -158 67q-91 0 -155.5 -64t-64.5 -171q0 -102 64 -164t152 -62q110 0 167 70l8 -4q-53 -76 -173 -76z" />
    <glyph glyph-name="ordfeminine" unicode="&#xaa;" horiz-adv-x="519" 
d="M394 1074h8v-404h-8v23q-36 -28 -106 -28q-81 0 -126 57.5t-45 141.5q0 81 48.5 144.5t127.5 63.5q66 0 101 -39v41zM287 675q70 0 107 30v313q-34 44 -101 44q-75 0 -120.5 -60t-45.5 -138q0 -83 42.5 -136t117.5 -53z" />
    <glyph glyph-name="guillemotleft" unicode="&#xab;" horiz-adv-x="1046" 
d="M573 708l-445 -277l447 -278l-6 -8l-452 282v9l450 280zM482 431l447 -278l-6 -8l-452 282v9l450 280l6 -8z" />
    <glyph glyph-name="logicalnot" unicode="&#xac;" horiz-adv-x="685" 
d="M558 244v187h-441v10h451v-197h-10z" />
    <glyph glyph-name="uni00AD" unicode="&#xad;" horiz-adv-x="1052" 
d="M216 352v10h620v-10h-620z" />
    <glyph glyph-name="registered" unicode="&#xae;" horiz-adv-x="851" 
d="M426 910q129 0 218.5 -87.5t89.5 -240.5t-89.5 -237.5t-218.5 -84.5q-139 0 -224 88.5t-85 233.5q0 136 90.5 232t218.5 96zM426 270q126 0 212 81t86 231t-86 234t-212 84q-124 0 -211.5 -93t-87.5 -225q0 -140 82 -226t217 -86zM591 676q0 -47 -32.5 -79t-81.5 -41
l91 -197h-11l-90 195q-8 -1 -22 -1h-132v-194h-10v440h142q66 0 106 -34.5t40 -88.5zM445 563q56 0 96 31.5t40 81.5t-38 81.5t-98 31.5h-132v-226h132z" />
    <glyph glyph-name="macron" unicode="&#xaf;" horiz-adv-x="545" 
d="M72 821v10h401v-10h-401z" />
    <glyph glyph-name="degree" unicode="&#xb0;" horiz-adv-x="559" 
d="M280 549q-69 0 -116 49t-47 130q0 79 46.5 130.5t116.5 51.5q68 0 115 -51.5t47 -130.5t-49.5 -129t-112.5 -50zM280 559q58 0 104.5 46.5t47.5 122.5q1 73 -43.5 122.5t-108.5 49.5q-68 0 -110 -49t-43 -123q-1 -76 44 -122.5t109 -46.5z" />
    <glyph glyph-name="plusminus" unicode="&#xb1;" horiz-adv-x="685" 
d="M348 500h220v-10h-220v-286h-10v286h-221v10h221v288h10v-288zM117 90v10h451v-10h-451z" />
    <glyph glyph-name="uni00B2" unicode="&#xb2;" horiz-adv-x="781" 
d="M128 270h536v-10h-547v6q23 68 74 127t108 98t119.5 80.5t112 76.5t82 84.5t32.5 106.5q0 92 -67 144t-188 52q-167 0 -243 -89l-4 9q80 90 247 90q130 0 197.5 -56t67.5 -150q0 -50 -23.5 -93.5t-63 -78t-88 -67t-102 -67.5t-101 -71.5t-88 -86t-61.5 -105.5z" />
    <glyph glyph-name="uni00B3" unicode="&#xb3;" horiz-adv-x="786" 
d="M409 678q132 -21 196 -73t64 -144q0 -87 -73 -146.5t-201 -59.5q-184 0 -278 106l5 9q41 -47 111 -76t162 -29q116 0 190 54t74 142q0 99 -78.5 148.5t-220.5 66.5v9q125 0 204 50.5t79 135.5q0 77 -70.5 120.5t-185.5 43.5q-74 0 -147 -30t-102 -65l-6 9q36 39 108 67.5
t147 28.5q126 0 196 -48.5t70 -125.5q0 -79 -65 -131t-179 -62z" />
    <glyph glyph-name="acute" unicode="&#xb4;" horiz-adv-x="304" 
d="M72 729l148 245h12l-149 -245h-11z" />
    <glyph glyph-name="uni00B5" unicode="&#xb5;" horiz-adv-x="687" 
d="M611 116q0 -53 4 -73.5t18 -37.5v-5h-8q-14 16 -19 37.5t-5 78.5v137q-22 -117 -104 -194t-196 -77q-85 0 -142 45.5t-77 137.5v-445h-10v927q4 2 10 0v-379q0 -142 59 -209t160 -67q132 0 216 102.5t84 252.5v300q1 1 5 1t5 -1v-531z" />
    <glyph glyph-name="paragraph" unicode="&#xb6;" horiz-adv-x="646" 
d="M260 -130v702q-59 0 -101 46.5t-42 110.5q0 66 39.5 113.5t103.5 47.5h269v-10h-126v-1010h-10v1010h-123v-1010h-10z" />
    <glyph glyph-name="periodcentered" unicode="&#xb7;" horiz-adv-x="387" 
d="M193 379q-13 0 -13 17q0 19 13 19q14 0 14 -19q0 -17 -14 -17z" />
    <glyph glyph-name="cedilla" unicode="&#xb8;" horiz-adv-x="296" 
d="M153 -313q-40 -2 -81 49l6 8q37 -47 75 -47q26 0 43.5 23.5t17.5 59.5q0 52 -35 98q-35 45 -43 66t-8 62h10q0 -38 7 -57t41 -64q38 -51 38 -105q0 -40 -20 -66.5t-51 -26.5z" />
    <glyph glyph-name="uni00B9" unicode="&#xb9;" horiz-adv-x="633" 
d="M322 270h194v-10h-399v10h195v758l-183 -45l-2 10l191 47h4v-770z" />
    <glyph glyph-name="ordmasculine" unicode="&#xba;" horiz-adv-x="574" 
d="M288 668q-68 0 -119.5 50.5t-51.5 144.5q0 96 47 151t124 55q76 0 122.5 -55t46.5 -151q0 -94 -51 -144.5t-118 -50.5zM288 678q64 0 111.5 47t47.5 138q0 92 -44 144t-115 52q-72 0 -116.5 -52t-44.5 -144q0 -91 48 -138t113 -47z" />
    <glyph glyph-name="guillemotright" unicode="&#xbb;" horiz-adv-x="1046" 
d="M575 436v-9l-452 -282l-6 8l447 278l-445 277l6 8zM479 716l450 -280v-9l-452 -282l-6 8l447 278l-445 277z" />
    <glyph glyph-name="onequarter" unicode="&#xbc;" horiz-adv-x="1097" 
d="M117 433v10h146v584l-133 -49l-2 10l140 52h5v-597h137v-10h-293zM969 1040h11l-718 -1170h-12zM880 478v-417h48v-10h-48v-181h-10v181h-238v5l239 422h9zM870 61v394l-223 -394h223z" />
    <glyph glyph-name="onehalf" unicode="&#xbd;" horiz-adv-x="1084" 
d="M117 433v10h146v584l-133 -49l-2 10l140 52h5v-597h137v-10h-293zM938 1040h11l-718 -1170h-12zM703 -120h281v-10h-294v6q25 44 76.5 110t92 116t72.5 112.5t32 113.5q0 61 -36 100t-91 39q-68 0 -133 -75v15q63 70 132 70q61 0 99.5 -43.5t38.5 -105.5
q0 -50 -30.5 -111.5t-68.5 -110t-91 -115.5t-80 -111z" />
    <glyph glyph-name="threequarters" unicode="&#xbe;" horiz-adv-x="1055" 
d="M410 598q0 -61 -41 -111.5t-106 -50.5q-87 0 -146 83v14q64 -87 147 -87q56 0 96 45.5t40 106.5q0 140 -176 170v10q71 0 114 33.5t43 100.5q0 49 -33 85t-87 36q-70 0 -132 -66v14q61 62 131 62q61 0 96 -40.5t35 -90.5q0 -61 -35 -97t-96 -45q150 -38 150 -172z
M927 1040h11l-718 -1170h-12zM880 478v-417h48v-10h-48v-181h-10v181h-238v5l239 422h9zM870 61v394l-223 -394h223z" />
    <glyph glyph-name="questiondown" unicode="&#xbf;" horiz-adv-x="713" 
d="M410 649q6 0 10.5 -5.5t4.5 -12.5t-4.5 -12.5t-10.5 -5.5q-5 0 -9.5 5.5t-4.5 12.5t4.5 12.5t9.5 5.5zM414 410q6 -47 -8 -88t-42 -71t-63.5 -58t-72.5 -55t-67.5 -54.5t-50 -64t-19.5 -77.5q0 -86 67 -139.5t188 -53.5q90 0 174 39.5t132 102.5l7 -9
q-57 -66 -139.5 -104.5t-173.5 -38.5q-127 0 -196 57t-69 146q0 43 19.5 80.5t50.5 65.5t67.5 55t72 54t63.5 57t42.5 70t7.5 86h10z" />
    <glyph glyph-name="Agrave" unicode="&#xc0;" horiz-adv-x="829" 
d="M442 952h-13l-180 194h13zM430 890l384 -889v-1h-10q-6 13 -21.5 49t-40 93t-46.5 108h-557l-113 -250h-11l404 890q1 1 5 1t6 -1zM144 260h548q-106 246 -268 618z" />
    <glyph glyph-name="Aacute" unicode="&#xc1;" horiz-adv-x="829" 
d="M593 1140l-174 -208h-13l174 208h13zM430 890l384 -889v-1h-10q-6 13 -21.5 49t-40 93t-46.5 108h-557l-113 -250h-11l404 890q1 1 5 1t6 -1zM144 260h548q-106 246 -268 618z" />
    <glyph glyph-name="Acircumflex" unicode="&#xc2;" horiz-adv-x="829" 
d="M424 1139l-179 -209h-13l190 221h4l190 -221h-13zM430 890l384 -889v-1h-10q-6 13 -21.5 49t-40 93t-46.5 108h-557l-113 -250h-11l404 890q1 1 5 1t6 -1zM144 260h548q-106 246 -268 618z" />
    <glyph glyph-name="Atilde" unicode="&#xc3;" horiz-adv-x="829" 
d="M304 1087q-29 0 -47 -35t-18 -93h-10q0 65 21.5 101.5t54.5 36.5q28 0 61.5 -21t60 -45.5t59.5 -45.5t59 -21q31 0 48.5 36.5t17.5 92.5l10 -1q0 -61 -21 -99.5t-55 -38.5q-27 0 -61 21t-61 45.5t-60 45.5t-59 21zM430 890l384 -889v-1h-10q-6 13 -21.5 49t-40 93
t-46.5 108h-557l-113 -250h-11l404 890q1 1 5 1t6 -1zM144 260h548q-106 246 -268 618z" />
    <glyph glyph-name="Adieresis" unicode="&#xc4;" horiz-adv-x="829" 
d="M297 983q-13 0 -13 17q0 19 13 19q14 0 14 -19q0 -17 -14 -17zM552 983q-13 0 -13 17q0 19 13 19q14 0 14 -19q0 -17 -14 -17zM430 890l384 -889v-1h-10q-6 13 -21.5 49t-40 93t-46.5 108h-557l-113 -250h-11l404 890q1 1 5 1t6 -1zM144 260h548q-106 246 -268 618z" />
    <glyph glyph-name="Aring" unicode="&#xc5;" horiz-adv-x="829" 
d="M431 887q64 -147 191.5 -442.5t191.5 -443.5v-1h-10q-6 13 -21.5 49t-40 93t-46.5 108h-557l-113 -250h-11l403 887q-64 2 -107.5 38t-43.5 95q0 58 44.5 96t113.5 38q66 0 113.5 -38t47.5 -96q0 -57 -47.5 -94t-107.5 -39zM277 1020q0 -52 40.5 -87.5t107.5 -35.5
q62 0 106.5 36.5t44.5 86.5q0 52 -44.5 88t-106.5 36q-66 0 -107 -36.5t-41 -87.5zM144 260h548q-106 246 -268 618z" />
    <glyph glyph-name="AE" unicode="&#xc6;" horiz-adv-x="1349" 
d="M1303 10q1 -2 1 -5t-1 -5h-608v250h-476l-192 -250h-12l682 890h583q2 -7 -1 -10h-574v-447h491q2 -5 -1 -10h-490v-413h598zM227 260h468v610z" />
    <glyph glyph-name="Ccedilla" unicode="&#xc7;" horiz-adv-x="745" 
d="M424 910q120 0 200 -87.5t76 -213.5l-2 -1h-4h-4q4 123 -73.5 208t-192.5 84q-162 -1 -265.5 -134.5t-103.5 -319.5q0 -211 103.5 -332.5t254.5 -121.5q64 0 135.5 26t128.5 78l5 -9q-58 -52 -131 -78.5t-138 -26.5q-20 0 -30 1q0 -33 7.5 -52t40.5 -62q38 -51 38 -105
q0 -40 -20 -66.5t-51 -26.5q-40 -2 -81 49l6 8q37 -47 75 -47q26 0 43.5 23.5t17.5 59.5q0 52 -35 98q-34 44 -42.5 65t-8.5 57q-143 16 -235.5 139.5t-92.5 322.5q0 123 46.5 228.5t134.5 170.5t198 65z" />
    <glyph glyph-name="Egrave" unicode="&#xc8;" horiz-adv-x="744" 
d="M413 952h-13l-180 194h13zM698 10q2 -2 2 -5t-2 -5h-608v887l2 3h583q2 -7 -1 -10h-574v-447h491q2 -5 -1 -10h-490v-413h598z" />
    <glyph glyph-name="Eacute" unicode="&#xc9;" horiz-adv-x="744" 
d="M564 1140l-174 -208h-13l174 208h13zM698 10q2 -2 2 -5t-2 -5h-608v887l2 3h583q2 -7 -1 -10h-574v-447h491q2 -5 -1 -10h-490v-413h598z" />
    <glyph glyph-name="Ecircumflex" unicode="&#xca;" horiz-adv-x="744" 
d="M395 1139l-179 -209h-13l190 221h4l190 -221h-13zM698 10q2 -2 2 -5t-2 -5h-608v887l2 3h583q2 -7 -1 -10h-574v-447h491q2 -5 -1 -10h-490v-413h598z" />
    <glyph glyph-name="Edieresis" unicode="&#xcb;" horiz-adv-x="744" 
d="M268 983q-13 0 -13 17q0 19 13 19q14 0 14 -19q0 -17 -14 -17zM523 983q-13 0 -13 17q0 19 13 19q14 0 14 -19q0 -17 -14 -17zM698 10q2 -2 2 -5t-2 -5h-608v887l2 3h583q2 -7 -1 -10h-574v-447h491q2 -5 -1 -10h-490v-413h598z" />
    <glyph glyph-name="Igrave" unicode="&#xcc;" horiz-adv-x="190" 
d="M99 952l-180 194h13l180 -194h-13zM90 0v890q6 4 10 0v-890h-10z" />
    <glyph glyph-name="Iacute" unicode="&#xcd;" horiz-adv-x="190" 
d="M76 932l174 208h13l-174 -208h-13zM90 0v890q6 4 10 0v-890h-10z" />
    <glyph glyph-name="Icircumflex" unicode="&#xce;" horiz-adv-x="190" 
d="M96 1151l190 -221h-13l-179 209l-179 -209h-13l190 221h4zM90 890q6 4 10 0v-890h-10v890z" />
    <glyph glyph-name="Idieresis" unicode="&#xcf;" horiz-adv-x="190" 
d="M-33 983q-13 0 -13 17q0 19 13 19q14 0 14 -19q0 -17 -14 -17zM222 983q-13 0 -13 17q0 19 13 19q14 0 14 -19q0 -17 -14 -17zM90 0v890q6 4 10 0v-890h-10z" />
    <glyph glyph-name="Eth" unicode="&#xd0;" horiz-adv-x="921" 
d="M452 910q196 0 310 -125t114 -329q0 -214 -108 -344t-296 -130q-93 0 -149 9t-141 34v439h-122v11h122v404q116 31 270 31zM472 -8q185 0 288.5 128t105.5 336q1 92 -25.5 172t-77 141t-131 96t-180.5 35q-163 0 -260 -29v-396h308v-11h-308v-431q126 -41 280 -41z" />
    <glyph glyph-name="Ntilde" unicode="&#xd1;" horiz-adv-x="894" 
d="M326 1087q-29 0 -47 -35t-18 -93h-10q0 65 21.5 101.5t54.5 36.5q28 0 61.5 -21t60 -45.5t59.5 -45.5t59 -21q31 0 48.5 36.5t17.5 92.5l10 -1q0 -61 -21 -99.5t-55 -38.5q-27 0 -61 21t-61 45.5t-60 45.5t-59 21zM794 890q6 4 10 0v-890h-9l-695 871v-871h-10v886
q3 6 8 4l696 -873v873z" />
    <glyph glyph-name="Ograve" unicode="&#xd2;" horiz-adv-x="842" 
d="M437 962l-180 194h13l180 -194h-13zM383 -18q-106 0 -183.5 58.5t-115.5 153t-39 211.5q-1 136 50.5 251.5t146 184.5t211.5 69q102 0 182.5 -64t122 -168t39.5 -224q-2 -121 -55 -229t-148.5 -175.5t-210.5 -67.5zM383 -8q164 0 282.5 136t121.5 326q3 185 -92.5 315.5
t-241.5 130.5q-171 0 -285 -144t-113 -351q1 -111 36 -202.5t111 -151t181 -59.5z" />
    <glyph glyph-name="Oacute" unicode="&#xd3;" horiz-adv-x="842" 
d="M414 942l174 208h13l-174 -208h-13zM383 -18q-106 0 -183.5 58.5t-115.5 153t-39 211.5q-1 136 50.5 251.5t146 184.5t211.5 69q102 0 182.5 -64t122 -168t39.5 -224q-2 -121 -55 -229t-148.5 -175.5t-210.5 -67.5zM383 -8q164 0 282.5 136t121.5 326q3 185 -92.5 315.5
t-241.5 130.5q-171 0 -285 -144t-113 -351q1 -111 36 -202.5t111 -151t181 -59.5z" />
    <glyph glyph-name="Ocircumflex" unicode="&#xd4;" horiz-adv-x="842" 
d="M432 1149l-179 -209h-13l190 221h4l190 -221h-13zM453 910q102 0 182.5 -64t122 -168t39.5 -224q-2 -121 -55 -229t-148.5 -175.5t-210.5 -67.5q-106 0 -183.5 58.5t-115.5 153t-39 211.5q-1 136 50.5 251.5t146 184.5t211.5 69zM787 454q3 185 -92.5 315.5t-241.5 130.5
q-171 0 -285 -144t-113 -351q1 -111 36 -202.5t111 -151t181 -59.5q164 0 282.5 136t121.5 326z" />
    <glyph glyph-name="Otilde" unicode="&#xd5;" horiz-adv-x="842" 
d="M553 964q-27 0 -61 21t-61 45.5t-60 45.5t-59 21q-29 0 -47 -35t-18 -93h-10q0 65 21.5 101.5t54.5 36.5q28 0 61.5 -21t60 -45.5t59.5 -45.5t59 -21q31 0 48.5 36.5t17.5 92.5l10 -1q0 -61 -21 -99.5t-55 -38.5zM383 -18q-106 0 -183.5 58.5t-115.5 153t-39 211.5
q-1 136 50.5 251.5t146 184.5t211.5 69q102 0 182.5 -64t122 -168t39.5 -224q-2 -121 -55 -229t-148.5 -175.5t-210.5 -67.5zM383 -8q164 0 282.5 136t121.5 326q3 185 -92.5 315.5t-241.5 130.5q-171 0 -285 -144t-113 -351q1 -111 36 -202.5t111 -151t181 -59.5z" />
    <glyph glyph-name="Odieresis" unicode="&#xd6;" horiz-adv-x="842" 
d="M305 993q-13 0 -13 17q0 19 13 19q14 0 14 -19q0 -17 -14 -17zM560 993q-13 0 -13 17q0 19 13 19q14 0 14 -19q0 -17 -14 -17zM383 -18q-106 0 -183.5 58.5t-115.5 153t-39 211.5q-1 136 50.5 251.5t146 184.5t211.5 69q102 0 182.5 -64t122 -168t39.5 -224
q-2 -121 -55 -229t-148.5 -175.5t-210.5 -67.5zM383 -8q164 0 282.5 136t121.5 326q3 185 -92.5 315.5t-241.5 130.5q-171 0 -285 -144t-113 -351q1 -111 36 -202.5t111 -151t181 -59.5z" />
    <glyph glyph-name="multiply" unicode="&#xd7;" horiz-adv-x="642" 
d="M525 586l-196 -180l196 -180h-15l-189 173l-189 -173h-15l197 180l-197 180h15l189 -173l189 173h15z" />
    <glyph glyph-name="Oslash" unicode="&#xd8;" horiz-adv-x="842" 
d="M666 819q64 -64 98.5 -160.5t32.5 -204.5q-2 -121 -55 -229t-148.5 -175.5t-210.5 -67.5q-138 0 -226 96l-54 -78h-12l59 86q-103 119 -105 319q-1 136 50.5 251.5t146 184.5t211.5 69q116 0 206 -84l46 67h12zM55 405q2 -195 101 -311l497 723q-88 83 -200 83
q-171 0 -285 -144t-113 -351zM787 454q1 107 -32.5 200.5t-94.5 155.5l-497 -723q85 -95 220 -95q164 0 282.5 136t121.5 326z" />
    <glyph glyph-name="Ugrave" unicode="&#xd9;" horiz-adv-x="893" 
d="M451 972l-180 194h13l180 -194h-13zM435 -18q-161 0 -253 102t-92 300v506q6 4 10 0v-507q0 -193 89.5 -292t245.5 -99q161 0 259.5 112.5t98.5 290.5v495q7 2 10 0v-497q0 -174 -99 -292.5t-269 -118.5z" />
    <glyph glyph-name="Uacute" unicode="&#xda;" horiz-adv-x="893" 
d="M428 952l174 208h13l-174 -208h-13zM435 -18q-161 0 -253 102t-92 300v506q6 4 10 0v-507q0 -193 89.5 -292t245.5 -99q161 0 259.5 112.5t98.5 290.5v495q7 2 10 0v-497q0 -174 -99 -292.5t-269 -118.5z" />
    <glyph glyph-name="Ucircumflex" unicode="&#xdb;" horiz-adv-x="893" 
d="M446 1159l-179 -209h-13l190 221h4l190 -221h-13zM793 890q7 2 10 0v-497q0 -174 -99 -292.5t-269 -118.5q-161 0 -253 102t-92 300v506q6 4 10 0v-507q0 -193 89.5 -292t245.5 -99q161 0 259.5 112.5t98.5 290.5v495z" />
    <glyph glyph-name="Udieresis" unicode="&#xdc;" horiz-adv-x="893" 
d="M319 1003q-13 0 -13 17q0 19 13 19q14 0 14 -19q0 -17 -14 -17zM574 1003q-13 0 -13 17q0 19 13 19q14 0 14 -19q0 -17 -14 -17zM435 -18q-161 0 -253 102t-92 300v506q6 4 10 0v-507q0 -193 89.5 -292t245.5 -99q161 0 259.5 112.5t98.5 290.5v495q7 2 10 0v-497
q0 -174 -99 -292.5t-269 -118.5z" />
    <glyph glyph-name="Yacute" unicode="&#xdd;" horiz-adv-x="754" 
d="M545 1140l-174 -208h-13l174 208h13zM739 890q10 -270 -329 -603v-287h-10v287q-42 71 -191.5 307t-193.5 293l1 3q2 1 5 1t4 -1q37 -47 184 -278t197 -315q333 324 323 593q4 1 10 0z" />
    <glyph glyph-name="Thorn" unicode="&#xde;" horiz-adv-x="772" 
d="M386 774q154 0 247.5 -81t93.5 -226q0 -147 -96.5 -229t-256.5 -82q-152 0 -274 54v-210h-10v880q2 2 5 2t5 -2v-146q70 23 129.5 31.5t156.5 8.5zM374 166q155 0 249 78.5t94 222.5q0 139 -88 218t-243 79q-95 0 -159 -9t-127 -33v-501q123 -55 274 -55z" />
    <glyph glyph-name="germandbls" unicode="&#xdf;" horiz-adv-x="697" 
d="M656 291q12 -136 -61 -222.5t-183 -86.5q-99 0 -190 73q0 6 4 10q91 -73 186 -73q106 0 175 83t59 216q-7 93 -70 150t-164 56q-82 -2 -167 -40q-3 7 -1 10q63 28 122 36q91 25 140 79t49 122q0 82 -59.5 139.5t-174.5 57.5q-108 0 -173.5 -79t-65.5 -206v-616h-10v616
q0 142 72.5 218.5t176.5 76.5q122 -1 183 -62t61 -145q0 -66 -43 -118.5t-116 -79.5q104 4 173 -54t77 -161z" />
    <glyph glyph-name="agrave" unicode="&#xe0;" horiz-adv-x="625" 
d="M352 780h-11l-148 245h12zM554 121q0 -57 6 -80.5t20 -36.5v-4h-9q-27 24 -27 121v159q-20 -110 -115 -204t-212 -94q-84 0 -128 43.5t-44 116.5q0 109 96.5 177t290.5 68q58 0 111 -6q-5 141 -60 223.5t-152 83.5q-106 2 -235 -97q-4 3 -2 11q127 96 237 96
q103 0 163 -90.5t60 -260.5v-226zM217 -8q87 0 164 56t120 140t43 169v13q-61 7 -110 7q-104 0 -181 -20.5t-119 -55.5t-61 -74.5t-19 -85.5q0 -69 41.5 -109t121.5 -40z" />
    <glyph glyph-name="aacute" unicode="&#xe1;" horiz-adv-x="625" 
d="M472 1025l-149 -245h-11l148 245h12zM554 121q0 -57 6 -80.5t20 -36.5v-4h-9q-27 24 -27 121v159q-20 -110 -115 -204t-212 -94q-84 0 -128 43.5t-44 116.5q0 109 96.5 177t290.5 68q58 0 111 -6q-5 141 -60 223.5t-152 83.5q-106 2 -235 -97q-4 3 -2 11q127 96 237 96
q103 0 163 -90.5t60 -260.5v-226zM217 -8q87 0 164 56t120 140t43 169v13q-61 7 -110 7q-104 0 -181 -20.5t-119 -55.5t-61 -74.5t-19 -85.5q0 -69 41.5 -109t121.5 -40z" />
    <glyph glyph-name="acircumflex" unicode="&#xe2;" horiz-adv-x="625" 
d="M331 989l-179 -209h-13l190 221h4l190 -221h-13zM554 121q0 -57 6 -80.5t20 -36.5v-4h-9q-27 24 -27 121v159q-20 -110 -115 -204t-212 -94q-84 0 -128 43.5t-44 116.5q0 109 96.5 177t290.5 68q58 0 111 -6q-5 141 -60 223.5t-152 83.5q-106 2 -235 -97q-4 3 -2 11
q127 96 237 96q103 0 163 -90.5t60 -260.5v-226zM217 -8q87 0 164 56t120 140t43 169v13q-61 7 -110 7q-104 0 -181 -20.5t-119 -55.5t-61 -74.5t-19 -85.5q0 -69 41.5 -109t121.5 -40z" />
    <glyph glyph-name="atilde" unicode="&#xe3;" horiz-adv-x="625" 
d="M210 948q-29 0 -47 -35t-18 -93h-10q0 65 21.5 101.5t54.5 36.5q28 0 61.5 -21t60 -45.5t59.5 -45.5t59 -21q31 0 48.5 36.5t17.5 92.5l10 -1q0 -61 -21 -99.5t-55 -38.5q-27 0 -61 21t-61 45.5t-60 45.5t-59 21zM554 121q0 -57 6 -80.5t20 -36.5v-4h-9q-27 24 -27 121
v159q-20 -110 -115 -204t-212 -94q-84 0 -128 43.5t-44 116.5q0 109 96.5 177t290.5 68q58 0 111 -6q-5 141 -60 223.5t-152 83.5q-106 2 -235 -97q-4 3 -2 11q127 96 237 96q103 0 163 -90.5t60 -260.5v-226zM217 -8q87 0 164 56t120 140t43 169v13q-61 7 -110 7
q-104 0 -181 -20.5t-119 -55.5t-61 -74.5t-19 -85.5q0 -69 41.5 -109t121.5 -40z" />
    <glyph glyph-name="adieresis" unicode="&#xe4;" horiz-adv-x="625" 
d="M203 834q-13 0 -13 17q0 19 13 19q14 0 14 -19q0 -17 -14 -17zM458 834q-13 0 -13 17q0 19 13 19q14 0 14 -19q0 -17 -14 -17zM554 121q0 -57 6 -80.5t20 -36.5v-4h-9q-27 24 -27 121v159q-20 -110 -115 -204t-212 -94q-84 0 -128 43.5t-44 116.5q0 109 96.5 177
t290.5 68q58 0 111 -6q-5 141 -60 223.5t-152 83.5q-106 2 -235 -97q-4 3 -2 11q127 96 237 96q103 0 163 -90.5t60 -260.5v-226zM217 -8q87 0 164 56t120 140t43 169v13q-61 7 -110 7q-104 0 -181 -20.5t-119 -55.5t-61 -74.5t-19 -85.5q0 -69 41.5 -109t121.5 -40z" />
    <glyph glyph-name="aring" unicode="&#xe5;" horiz-adv-x="625" 
d="M329 775q-66 0 -112 36.5t-46 96.5q0 58 44.5 96t113.5 38q66 0 113.5 -38t47.5 -96t-50 -95.5t-111 -37.5zM329 1032q-66 0 -107 -36.5t-41 -87.5q0 -52 40.5 -87.5t107.5 -35.5q62 0 106.5 36.5t44.5 86.5q0 52 -44.5 88t-106.5 36zM554 121q0 -57 6 -80.5t20 -36.5v-4
h-9q-27 24 -27 121v159q-20 -110 -115 -204t-212 -94q-84 0 -128 43.5t-44 116.5q0 109 96.5 177t290.5 68q58 0 111 -6q-5 141 -60 223.5t-152 83.5q-106 2 -235 -97q-4 3 -2 11q127 96 237 96q103 0 163 -90.5t60 -260.5v-226zM217 -8q87 0 164 56t120 140t43 169v13
q-61 7 -110 7q-104 0 -181 -20.5t-119 -55.5t-61 -74.5t-19 -85.5q0 -69 41.5 -109t121.5 -40z" />
    <glyph glyph-name="ae" unicode="&#xe6;" horiz-adv-x="1117" 
d="M837 698q112 0 180 -91t64 -248l-6 -7l-520 -67q11 -134 84 -213.5t174 -78.5q116 0 223 111q4 -1 7 -7q-109 -113 -230 -115q-105 -2 -181.5 80t-86.5 219q-26 -133 -121 -216t-207 -83q-84 0 -128 43.5t-44 116.5q0 109 96.5 177t290.5 68q58 0 111 -6
q-5 141 -60 223.5t-152 83.5q-106 2 -235 -97q-4 3 -2 11q127 96 237 96q95 0 153.5 -78t67.5 -213q23 125 101 208t184 83zM1071 362q4 155 -62.5 240.5t-171.5 85.5q-83 0 -150.5 -57t-102 -145.5t-30.5 -184.5v-6zM543 357v13q-61 7 -109 7q-104 0 -181 -20.5t-119 -55.5
t-61 -74.5t-19 -85.5q0 -69 41.5 -109t121.5 -40q132 0 229 109t97 256z" />
    <glyph glyph-name="ccedilla" unicode="&#xe7;" horiz-adv-x="622" 
d="M342 698q106 0 175 -94t65 -231q-1 -1 -5 -1t-5 1q0 135 -64 225t-166 90q-125 0 -208.5 -109.5t-83.5 -262.5q0 -141 77.5 -232.5t190.5 -91.5q117 0 226 107q6 -4 6 -8q-113 -109 -232 -109q-11 0 -17 1q0 -36 7.5 -55.5t40.5 -62.5q38 -51 38 -105q0 -40 -20 -66.5
t-51 -26.5q-40 -2 -81 49l6 8q37 -47 75 -47q26 0 43.5 23.5t17.5 59.5q0 52 -35 98q-34 44 -42.5 65.5t-8.5 59.5q-107 12 -179 104t-72 229q0 160 87 271t215 111z" />
    <glyph glyph-name="egrave" unicode="&#xe8;" horiz-adv-x="613" 
d="M354 780h-11l-148 245h12zM333 698q112 0 180 -91t64 -248l-6 -7l-520 -67q11 -134 84 -213.5t174 -79.5q117 2 223 112q4 -1 7 -7q-109 -113 -230 -115q-109 -2 -186.5 85.5t-82.5 233.5q-4 102 32.5 193t106 147.5t154.5 56.5zM567 362q4 155 -62.5 240.5t-171.5 85.5
q-83 0 -150.5 -57t-102 -145.5t-30.5 -184.5v-6z" />
    <glyph glyph-name="eacute" unicode="&#xe9;" horiz-adv-x="613" 
d="M474 1025l-149 -245h-11l148 245h12zM333 698q112 0 180 -91t64 -248l-6 -7l-520 -67q11 -134 84 -213.5t174 -79.5q117 2 223 112q4 -1 7 -7q-109 -113 -230 -115q-109 -2 -186.5 85.5t-82.5 233.5q-4 102 32.5 193t106 147.5t154.5 56.5zM567 362q4 155 -62.5 240.5
t-171.5 85.5q-83 0 -150.5 -57t-102 -145.5t-30.5 -184.5v-6z" />
    <glyph glyph-name="ecircumflex" unicode="&#xea;" horiz-adv-x="613" 
d="M333 989l-179 -209h-13l190 221h4l190 -221h-13zM333 698q112 0 180 -91t64 -248l-6 -7l-520 -67q11 -134 84 -213.5t174 -79.5q117 2 223 112q4 -1 7 -7q-109 -113 -230 -115q-109 -2 -186.5 85.5t-82.5 233.5q-4 102 32.5 193t106 147.5t154.5 56.5zM567 362
q4 155 -62.5 240.5t-171.5 85.5q-83 0 -150.5 -57t-102 -145.5t-30.5 -184.5v-6z" />
    <glyph glyph-name="edieresis" unicode="&#xeb;" horiz-adv-x="613" 
d="M205 834q-13 0 -13 17q0 19 13 19q14 0 14 -19q0 -17 -14 -17zM460 834q-13 0 -13 17q0 19 13 19q14 0 14 -19q0 -17 -14 -17zM333 698q112 0 180 -91t64 -248l-6 -7l-520 -67q11 -134 84 -213.5t174 -79.5q117 2 223 112q4 -1 7 -7q-109 -113 -230 -115
q-109 -2 -186.5 85.5t-82.5 233.5q-4 102 32.5 193t106 147.5t154.5 56.5zM567 362q4 155 -62.5 240.5t-171.5 85.5q-83 0 -150.5 -57t-102 -145.5t-30.5 -184.5v-6z" />
    <glyph glyph-name="igrave" unicode="&#xec;" horiz-adv-x="210" 
d="M115 780l-148 245h12l147 -245h-11zM100 0v647q6 4 10 0v-647h-10z" />
    <glyph glyph-name="iacute" unicode="&#xed;" horiz-adv-x="210" 
d="M86 780l148 245h12l-149 -245h-11zM100 0v647q6 4 10 0v-647h-10z" />
    <glyph glyph-name="icircumflex" unicode="&#xee;" horiz-adv-x="210" 
d="M107 1001l190 -221h-13l-179 209l-179 -209h-13l190 221h4zM100 647q6 4 10 0v-647h-10v647z" />
    <glyph glyph-name="idieresis" unicode="&#xef;" horiz-adv-x="210" 
d="M-23 834q-13 0 -13 17q0 19 13 19q14 0 14 -19q0 -17 -14 -17zM232 834q-13 0 -13 17q0 19 13 19q14 0 14 -19q0 -17 -14 -17zM100 0v647q6 4 10 0v-647h-10z" />
    <glyph glyph-name="eth" unicode="&#xf0;" horiz-adv-x="624" 
d="M366 748q99 -96 158.5 -206.5t59.5 -219.5q0 -58 -17.5 -116t-52 -109t-93.5 -83t-134 -32q-116 0 -181.5 81.5t-65.5 209.5q0 145 81.5 235t206.5 90q150 0 222 -138q-49 142 -194 282q-30 -18 -210 -111q-3 2 -5 8q16 9 91 47.5t117 62.5q-80 79 -171 131q0 7 3 10
q94 -55 178 -135q130 79 131 131q4 1 9 -2q-3 -59 -133 -136zM287 -8q129 0 208.5 97t78.5 233q-2 109 -69.5 187.5t-175.5 78.5q-123 0 -201 -87.5t-78 -227.5q0 -123 62.5 -202t174.5 -79z" />
    <glyph glyph-name="ntilde" unicode="&#xf1;" horiz-adv-x="698" 
d="M270 948q-29 0 -47 -35t-18 -93h-10q0 65 21.5 101.5t54.5 36.5q28 0 61.5 -21t60 -45.5t59.5 -45.5t59 -21q31 0 48.5 36.5t17.5 92.5l10 -1q0 -61 -21 -99.5t-55 -38.5q-27 0 -61 21t-61 45.5t-60 45.5t-59 21zM401 698q107 0 166 -92t59 -255v-351h-10v353
q0 152 -55 243.5t-160 91.5q-59 0 -116.5 -36t-98 -91.5t-65.5 -124.5t-25 -134v-302h-10v531q0 65 -14 111v4q6 3 9 1q15 -40 15 -88v-171q28 122 115 216t190 94z" />
    <glyph glyph-name="ograve" unicode="&#xf2;" horiz-adv-x="676" 
d="M379 780l-148 245h12l147 -245h-11zM310 -18q-126 0 -198 93.5t-72 229.5q0 161 95 277t234 116q118 0 192.5 -97.5t74.5 -237.5q0 -158 -92.5 -269.5t-233.5 -111.5zM310 -8q138 0 227 109t89 262q0 138 -72 231.5t-185 93.5q-137 0 -228 -114t-91 -269
q0 -130 68 -221.5t192 -91.5z" />
    <glyph glyph-name="oacute" unicode="&#xf3;" horiz-adv-x="676" 
d="M350 780l148 245h12l-149 -245h-11zM310 -18q-126 0 -198 93.5t-72 229.5q0 161 95 277t234 116q118 0 192.5 -97.5t74.5 -237.5q0 -158 -92.5 -269.5t-233.5 -111.5zM310 -8q138 0 227 109t89 262q0 138 -72 231.5t-185 93.5q-137 0 -228 -114t-91 -269
q0 -130 68 -221.5t192 -91.5z" />
    <glyph glyph-name="ocircumflex" unicode="&#xf4;" horiz-adv-x="676" 
d="M369 989l-179 -209h-13l190 221h4l190 -221h-13zM369 698q118 0 192.5 -97.5t74.5 -237.5q0 -158 -92.5 -269.5t-233.5 -111.5q-126 0 -198 93.5t-72 229.5q0 161 95 277t234 116zM310 -8q138 0 227 109t89 262q0 138 -72 231.5t-185 93.5q-137 0 -228 -114t-91 -269
q0 -130 68 -221.5t192 -91.5z" />
    <glyph glyph-name="otilde" unicode="&#xf5;" horiz-adv-x="676" 
d="M489 815q-27 0 -61 21t-61 45.5t-60 45.5t-59 21q-29 0 -47 -35t-18 -93h-10q0 65 21.5 101.5t54.5 36.5q28 0 61.5 -21t60 -45.5t59.5 -45.5t59 -21q31 0 48.5 36.5t17.5 92.5l10 -1q0 -61 -21 -99.5t-55 -38.5zM310 -18q-126 0 -198 93.5t-72 229.5q0 161 95 277
t234 116q118 0 192.5 -97.5t74.5 -237.5q0 -158 -92.5 -269.5t-233.5 -111.5zM310 -8q138 0 227 109t89 262q0 138 -72 231.5t-185 93.5q-137 0 -228 -114t-91 -269q0 -130 68 -221.5t192 -91.5z" />
    <glyph glyph-name="odieresis" unicode="&#xf6;" horiz-adv-x="676" 
d="M241 834q-13 0 -13 17q0 19 13 19q14 0 14 -19q0 -17 -14 -17zM496 834q-13 0 -13 17q0 19 13 19q14 0 14 -19q0 -17 -14 -17zM310 -18q-126 0 -198 93.5t-72 229.5q0 161 95 277t234 116q118 0 192.5 -97.5t74.5 -237.5q0 -158 -92.5 -269.5t-233.5 -111.5zM310 -8
q138 0 227 109t89 262q0 138 -72 231.5t-185 93.5q-137 0 -228 -114t-91 -269q0 -130 68 -221.5t192 -91.5z" />
    <glyph glyph-name="divide" unicode="&#xf7;" horiz-adv-x="685" 
d="M341 610q-5 0 -9 6t-4 13q0 19 13 19t13 -19t-13 -19zM117 420v10h451v-10h-451zM341 195q-5 0 -9 6t-4 13q0 19 13 19t13 -19t-13 -19z" />
    <glyph glyph-name="oslash" unicode="&#xf8;" horiz-adv-x="676" 
d="M571 587q65 -93 65 -224q0 -158 -92.5 -269.5t-233.5 -111.5q-112 0 -183 77l-50 -59h-12v2l55 64q-80 92 -80 239q0 161 95 277t234 116q120 0 196 -102l43 51h13v-1zM50 305q0 -143 76 -231l131 155l25 30l87 103l22 27l168 199q-74 100 -190 100q-137 0 -228 -114
t-91 -269zM310 -8q138 0 227 109t89 262q0 127 -61 216l-158 -187l-30 -36l-244 -290q69 -74 177 -74z" />
    <glyph glyph-name="ugrave" unicode="&#xf9;" horiz-adv-x="687" 
d="M369 780h-11l-148 245h12zM611 116q0 -53 4 -73.5t18 -37.5v-5h-8q-14 16 -19 37.5t-5 78.5v137q-22 -117 -104 -194t-196 -77q-106 0 -167.5 71.5t-61.5 214.5v379q4 2 10 0v-379q0 -142 59 -209t160 -67q132 0 216 102.5t84 252.5v300q1 1 5 1t5 -1v-531z" />
    <glyph glyph-name="uacute" unicode="&#xfa;" horiz-adv-x="687" 
d="M489 1025l-149 -245h-11l148 245h12zM611 116q0 -53 4 -73.5t18 -37.5v-5h-8q-14 16 -19 37.5t-5 78.5v137q-22 -117 -104 -194t-196 -77q-106 0 -167.5 71.5t-61.5 214.5v379q4 2 10 0v-379q0 -142 59 -209t160 -67q132 0 216 102.5t84 252.5v300q1 1 5 1t5 -1v-531z
" />
    <glyph glyph-name="ucircumflex" unicode="&#xfb;" horiz-adv-x="687" 
d="M348 989l-179 -209h-13l190 221h4l190 -221h-13zM611 116q0 -53 4 -73.5t18 -37.5v-5h-8q-14 16 -19 37.5t-5 78.5v137q-22 -117 -104 -194t-196 -77q-106 0 -167.5 71.5t-61.5 214.5v379q4 2 10 0v-379q0 -142 59 -209t160 -67q132 0 216 102.5t84 252.5v300q1 1 5 1
t5 -1v-531z" />
    <glyph glyph-name="udieresis" unicode="&#xfc;" horiz-adv-x="687" 
d="M220 834q-13 0 -13 17q0 19 13 19q14 0 14 -19q0 -17 -14 -17zM475 834q-13 0 -13 17q0 19 13 19q14 0 14 -19q0 -17 -14 -17zM611 116q0 -53 4 -73.5t18 -37.5v-5h-8q-14 16 -19 37.5t-5 78.5v137q-22 -117 -104 -194t-196 -77q-106 0 -167.5 71.5t-61.5 214.5v379
q4 2 10 0v-379q0 -142 59 -209t160 -67q132 0 216 102.5t84 252.5v300q1 1 5 1t5 -1v-531z" />
    <glyph glyph-name="yacute" unicode="&#xfd;" horiz-adv-x="630" 
d="M466 1027l-149 -245h-11l148 245h12zM619 647q6 -113 -18.5 -244.5t-94 -280t-174.5 -252.5q-60 -59 -128 -90.5t-125 -31.5q-36 0 -68 16q-2 7 0 10l2 1q29 -17 66 -17q55 0 123.5 32.5t124.5 88.5q59 59 110 137q-63 41 -133 129t-124 184t-93.5 179.5t-56.5 134.5l1 3
q3 1 9 1q17 -62 76 -182t152.5 -254.5t174.5 -186.5q89 141 130.5 307.5t35.5 315.5q7 3 10 0z" />
    <glyph glyph-name="thorn" unicode="&#xfe;" horiz-adv-x="659" 
d="M370 698q112 0 180.5 -94.5t68.5 -232.5q0 -160 -82 -274.5t-205 -114.5q-52 0 -96.5 22.5t-75 59t-50 78t-28.5 84.5v-457q-4 -1 -10 0v1163q2 1 5.5 1t4.5 -1v-531q26 121 107.5 209t180.5 88zM332 -8q80 0 144.5 54.5t99 140.5t33.5 184q-1 136 -67.5 226.5
t-171.5 90.5q-76 0 -143.5 -57t-106 -144t-38.5 -175q0 -125 71 -222.5t179 -97.5z" />
    <glyph glyph-name="ydieresis" unicode="&#xff;" horiz-adv-x="630" 
d="M197 836q-13 0 -13 17q0 19 13 19q14 0 14 -19q0 -17 -14 -17zM452 836q-13 0 -13 17q0 19 13 19q14 0 14 -19q0 -17 -14 -17zM619 647q6 -113 -18.5 -244.5t-94 -280t-174.5 -252.5q-60 -59 -128 -90.5t-125 -31.5q-36 0 -68 16q-2 7 0 10l2 1q29 -17 66 -17
q55 0 123.5 32.5t124.5 88.5q59 59 110 137q-63 41 -133 129t-124 184t-93.5 179.5t-56.5 134.5l1 3q3 1 9 1q17 -62 76 -182t152.5 -254.5t174.5 -186.5q89 141 130.5 307.5t35.5 315.5q7 3 10 0z" />
    <glyph glyph-name="Amacron" unicode="&#x100;" horiz-adv-x="829" 
d="M625 992v-10h-401v10h401zM430 890l384 -889v-1h-10q-6 13 -21.5 49t-40 93t-46.5 108h-557l-113 -250h-11l404 890q1 1 5 1t6 -1zM144 260h548q-106 246 -268 618z" />
    <glyph glyph-name="amacron" unicode="&#x101;" horiz-adv-x="625" 
d="M531 882v-10h-401v10h401zM554 121q0 -57 6 -80.5t20 -36.5v-4h-9q-27 24 -27 121v159q-20 -110 -115 -204t-212 -94q-84 0 -128 43.5t-44 116.5q0 109 96.5 177t290.5 68q58 0 111 -6q-5 141 -60 223.5t-152 83.5q-106 2 -235 -97q-4 3 -2 11q127 96 237 96
q103 0 163 -90.5t60 -260.5v-226zM217 -8q87 0 164 56t120 140t43 169v13q-61 7 -110 7q-104 0 -181 -20.5t-119 -55.5t-61 -74.5t-19 -85.5q0 -69 41.5 -109t121.5 -40z" />
    <glyph glyph-name="Abreve" unicode="&#x102;" horiz-adv-x="829" 
d="M425 960q-75 0 -125 41.5t-50 113.5h10q0 -66 46 -105.5t119 -39.5q71 0 118.5 40t47.5 105h10q0 -70 -51.5 -112.5t-124.5 -42.5zM430 890l384 -889v-1h-10q-6 13 -21.5 49t-40 93t-46.5 108h-557l-113 -250h-11l404 890q1 1 5 1t6 -1zM144 260h548q-106 246 -268 618z
" />
    <glyph glyph-name="abreve" unicode="&#x103;" horiz-adv-x="625" 
d="M330 775q-79 0 -132 49.5t-53 135.5h10q0 -79 48.5 -127t126.5 -48q75 0 125.5 48.5t50.5 126.5h10q0 -84 -54.5 -134.5t-131.5 -50.5zM554 121q0 -57 6 -80.5t20 -36.5v-4h-9q-27 24 -27 121v159q-20 -110 -115 -204t-212 -94q-84 0 -128 43.5t-44 116.5q0 109 96.5 177
t290.5 68q58 0 111 -6q-5 141 -60 223.5t-152 83.5q-106 2 -235 -97q-4 3 -2 11q127 96 237 96q103 0 163 -90.5t60 -260.5v-226zM217 -8q87 0 164 56t120 140t43 169v13q-61 7 -110 7q-104 0 -181 -20.5t-119 -55.5t-61 -74.5t-19 -85.5q0 -69 41.5 -109t121.5 -40z" />
    <glyph glyph-name="Aogonek" unicode="&#x104;" horiz-adv-x="829" 
d="M851 -248l8 -6q-17 -29 -45 -48t-55 -19q-38 -1 -63 21.5t-25 66.5q0 54 33.5 120t95.5 122q-43 97 -104 241h-557l-113 -250h-11l404 890q1 1 5 1t6 -1l384 -889v-1h-9q-60 -54 -92 -117t-32 -116q0 -39 22 -59t56 -19q24 0 50 18t42 45zM144 260h548q-106 246 -268 618
z" />
    <glyph glyph-name="aogonek" unicode="&#x105;" horiz-adv-x="625" 
d="M615 -250l8 -6q-17 -29 -45 -48t-55 -19q-38 -1 -63 21.5t-25 66.5q0 54 33.5 120t95.5 122q-20 25 -20 114v159q-20 -110 -115 -204t-212 -94q-84 0 -128 43.5t-44 116.5q0 109 96.5 177t290.5 68q58 0 111 -6q-5 141 -60 223.5t-152 83.5q-106 2 -235 -97q-4 3 -2 11
q127 96 237 96q103 0 163 -90.5t60 -260.5v-226q0 -57 6 -80.5t20 -36.5v-4h-8q-62 -54 -94.5 -118t-32.5 -117q0 -39 22 -59t56 -19q24 0 50 18t42 45zM217 -8q87 0 164 56t120 140t43 169v13q-61 7 -110 7q-104 0 -181 -20.5t-119 -55.5t-61 -74.5t-19 -85.5
q0 -69 41.5 -109t121.5 -40z" />
    <glyph glyph-name="Cacute" unicode="&#x106;" horiz-adv-x="745" 
d="M405 952l174 208h13l-174 -208h-13zM413 -18q-158 0 -263 125.5t-105 338.5q0 123 46.5 228.5t134.5 170.5t198 65q120 0 200 -87.5t76 -213.5l-2 -1h-4h-4q4 123 -73.5 208t-192.5 84q-162 -1 -265.5 -134.5t-103.5 -319.5q0 -211 103.5 -332.5t254.5 -121.5
q64 0 135.5 26t128.5 78l5 -9q-58 -52 -131 -78.5t-138 -26.5z" />
    <glyph glyph-name="cacute" unicode="&#x107;" horiz-adv-x="622" 
d="M323 780l148 245h12l-149 -245h-11zM318 -18q-116 0 -197 94t-81 240q0 160 87 271t215 111q106 0 175 -94t65 -231q-1 -1 -5 -1t-5 1q0 135 -64 225t-166 90q-125 0 -208.5 -109.5t-83.5 -262.5q0 -141 77.5 -232.5t190.5 -91.5q117 0 226 107q6 -4 6 -8
q-113 -109 -232 -109z" />
    <glyph glyph-name="Cdotaccent" unicode="&#x10a;" horiz-adv-x="745" 
d="M423 1003q-13 0 -13 17q0 19 13 19q14 0 14 -19q0 -17 -14 -17zM413 -18q-158 0 -263 125.5t-105 338.5q0 123 46.5 228.5t134.5 170.5t198 65q120 0 200 -87.5t76 -213.5l-2 -1h-4h-4q4 123 -73.5 208t-192.5 84q-162 -1 -265.5 -134.5t-103.5 -319.5
q0 -211 103.5 -332.5t254.5 -121.5q64 0 135.5 26t128.5 78l5 -9q-58 -52 -131 -78.5t-138 -26.5z" />
    <glyph glyph-name="cdotaccent" unicode="&#x10b;" horiz-adv-x="622" 
d="M341 834q-13 0 -13 17q0 19 13 19q14 0 14 -19q0 -17 -14 -17zM318 -18q-116 0 -197 94t-81 240q0 160 87 271t215 111q106 0 175 -94t65 -231q-1 -1 -5 -1t-5 1q0 135 -64 225t-166 90q-125 0 -208.5 -109.5t-83.5 -262.5q0 -141 77.5 -232.5t190.5 -91.5q117 0 226 107
q6 -4 6 -8q-113 -109 -232 -109z" />
    <glyph glyph-name="Ccaron" unicode="&#x10c;" horiz-adv-x="745" 
d="M426 954h-4l-190 211h13l179 -200l179 200h13zM424 910q120 0 200 -87.5t76 -213.5l-2 -1h-4h-4q4 123 -73.5 208t-192.5 84q-162 -1 -265.5 -134.5t-103.5 -319.5q0 -211 103.5 -332.5t254.5 -121.5q64 0 135.5 26t128.5 78l5 -9q-58 -52 -131 -78.5t-138 -26.5
q-158 0 -263 125.5t-105 338.5q0 123 46.5 228.5t134.5 170.5t198 65z" />
    <glyph glyph-name="ccaron" unicode="&#x10d;" horiz-adv-x="622" 
d="M344 780h-4l-190 221h13l179 -209l179 209h13zM342 698q106 0 175 -94t65 -231q-1 -1 -5 -1t-5 1q0 135 -64 225t-166 90q-125 0 -208.5 -109.5t-83.5 -262.5q0 -141 77.5 -232.5t190.5 -91.5q117 0 226 107q6 -4 6 -8q-113 -109 -232 -109q-116 0 -197 94t-81 240
q0 160 87 271t215 111z" />
    <glyph glyph-name="Dcaron" unicode="&#x10e;" horiz-adv-x="829" 
d="M362 954h-4l-190 211h13l179 -200l179 200h13zM360 910q196 0 310 -125t114 -329q0 -214 -108 -344t-296 -130q-93 0 -149 9t-141 34v854q116 31 270 31zM380 -8q185 0 288.5 128t105.5 336q1 92 -25.5 172t-77 141t-131 96t-180.5 35q-163 0 -260 -29v-838
q126 -41 280 -41z" />
    <glyph glyph-name="dcaron" unicode="&#x10f;" horiz-adv-x="757" 
d="M795 1045h10l-16 -333h-10zM595 932v-791q0 -74 11 -133v-8h-7q-14 40 -14 142v119q-10 -46 -31.5 -93t-55.5 -89.5t-84 -69.5t-107 -27q-116 0 -191.5 93t-75.5 236q0 99 38 187.5t107.5 144t153.5 55.5q90 0 158.5 -71.5t87.5 -179.5v485q1 1 5 1t5 -1zM307 -8
q80 0 145.5 55.5t99 136t33.5 162.5q0 147 -70.5 244.5t-175.5 97.5q-79 0 -146 -52.5t-105 -139t-38 -185.5q-1 -136 71 -227.5t186 -91.5z" />
    <glyph glyph-name="Dcroat" unicode="&#x110;" horiz-adv-x="921" 
d="M452 910q196 0 310 -125t114 -329q0 -214 -108 -344t-296 -130q-93 0 -149 9t-141 34v439h-122v11h122v404q116 31 270 31zM472 -8q185 0 288.5 128t105.5 336q1 92 -25.5 172t-77 141t-131 96t-180.5 35q-163 0 -260 -29v-396h308v-11h-308v-431q126 -41 280 -41z" />
    <glyph glyph-name="dcroat" unicode="&#x111;" horiz-adv-x="667" 
d="M695 797h-100v-656q0 -74 11 -133v-8h-7q-14 40 -14 142v119q-10 -46 -31.5 -93t-55.5 -89.5t-84 -69.5t-107 -27q-116 0 -191.5 93t-75.5 236q0 99 38 187.5t107.5 144t153.5 55.5q90 0 158.5 -71.5t87.5 -179.5v350h-247v9h247v126q1 1 5 1t5 -1v-126h100v-9zM307 -8
q80 0 145.5 55.5t99 136t33.5 162.5q0 147 -70.5 244.5t-175.5 97.5q-79 0 -146 -52.5t-105 -139t-38 -185.5q-1 -136 71 -227.5t186 -91.5z" />
    <glyph glyph-name="Emacron" unicode="&#x112;" horiz-adv-x="744" 
d="M596 992v-10h-401v10h401zM698 10q2 -2 2 -5t-2 -5h-608v887l2 3h583q2 -7 -1 -10h-574v-447h491q2 -5 -1 -10h-490v-413h598z" />
    <glyph glyph-name="emacron" unicode="&#x113;" horiz-adv-x="613" 
d="M533 882v-10h-401v10h401zM333 698q112 0 180 -91t64 -248l-6 -7l-520 -67q11 -134 84 -213.5t174 -79.5q117 2 223 112q4 -1 7 -7q-109 -113 -230 -115q-109 -2 -186.5 85.5t-82.5 233.5q-4 102 32.5 193t106 147.5t154.5 56.5zM567 362q4 155 -62.5 240.5t-171.5 85.5
q-83 0 -150.5 -57t-102 -145.5t-30.5 -184.5v-6z" />
    <glyph glyph-name="Ebreve" unicode="&#x114;" horiz-adv-x="744" 
d="M396 960q-75 0 -125 41.5t-50 113.5h10q0 -66 46 -105.5t119 -39.5q71 0 118.5 40t47.5 105h10q0 -70 -51.5 -112.5t-124.5 -42.5zM698 10q2 -2 2 -5t-2 -5h-608v887l2 3h583q2 -7 -1 -10h-574v-447h491q2 -5 -1 -10h-490v-413h598z" />
    <glyph glyph-name="ebreve" unicode="&#x115;" horiz-adv-x="613" 
d="M332 775q-79 0 -132 49.5t-53 135.5h10q0 -79 48.5 -127t126.5 -48q75 0 125.5 48.5t50.5 126.5h10q0 -84 -54.5 -134.5t-131.5 -50.5zM333 698q112 0 180 -91t64 -248l-6 -7l-520 -67q11 -134 84 -213.5t174 -79.5q117 2 223 112q4 -1 7 -7q-109 -113 -230 -115
q-109 -2 -186.5 85.5t-82.5 233.5q-4 102 32.5 193t106 147.5t154.5 56.5zM567 362q4 155 -62.5 240.5t-171.5 85.5q-83 0 -150.5 -57t-102 -145.5t-30.5 -184.5v-6z" />
    <glyph glyph-name="Edotaccent" unicode="&#x116;" horiz-adv-x="744" 
d="M395 983q-13 0 -13 17q0 19 13 19q14 0 14 -19q0 -17 -14 -17zM698 10q2 -2 2 -5t-2 -5h-608v887l2 3h583q2 -7 -1 -10h-574v-447h491q2 -5 -1 -10h-490v-413h598z" />
    <glyph glyph-name="edotaccent" unicode="&#x117;" horiz-adv-x="613" 
d="M332 834q-13 0 -13 17q0 19 13 19q14 0 14 -19q0 -17 -14 -17zM333 698q112 0 180 -91t64 -248l-6 -7l-520 -67q11 -134 84 -213.5t174 -79.5q117 2 223 112q4 -1 7 -7q-109 -113 -230 -115q-109 -2 -186.5 85.5t-82.5 233.5q-4 102 32.5 193t106 147.5t154.5 56.5z
M567 362q4 155 -62.5 240.5t-171.5 85.5q-83 0 -150.5 -57t-102 -145.5t-30.5 -184.5v-6z" />
    <glyph glyph-name="Eogonek" unicode="&#x118;" horiz-adv-x="744" 
d="M437 0q-60 -54 -92 -117t-32 -116q0 -39 22 -59t56 -19q24 0 50 18t42 45l8 -6q-17 -29 -45 -48t-55 -19q-38 -1 -63 21.5t-25 66.5q0 52 31 115t89 118h-333v887l2 3h583q2 -7 -1 -10h-574v-447h491q2 -5 -1 -10h-490v-413h334l2 2l2 -2h260q2 -2 2 -5t-2 -5h-261z" />
    <glyph glyph-name="eogonek" unicode="&#x119;" horiz-adv-x="613" 
d="M333 698q112 0 180 -91t64 -248l-6 -7l-520 -67q11 -134 84 -213.5t174 -79.5q117 2 223 112q4 -1 7 -7q-103 -107 -218 -115q-62 -53 -94.5 -117t-32.5 -118q0 -39 22 -59t56 -19q24 0 50 18t42 45l8 -6q-17 -29 -45 -48t-55 -19q-38 -1 -63 21.5t-25 66.5
q0 53 31.5 117t90.5 118q-108 0 -184.5 87t-81.5 232q-4 102 32.5 193t106 147.5t154.5 56.5zM567 362q4 155 -62.5 240.5t-171.5 85.5q-83 0 -150.5 -57t-102 -145.5t-30.5 -184.5v-6z" />
    <glyph glyph-name="Ecaron" unicode="&#x11a;" horiz-adv-x="744" 
d="M398 934h-4l-190 211h13l179 -200l179 200h13zM698 10q2 -2 2 -5t-2 -5h-608v887l2 3h583q2 -7 -1 -10h-574v-447h491q2 -5 -1 -10h-490v-413h598z" />
    <glyph glyph-name="ecaron" unicode="&#x11b;" horiz-adv-x="613" 
d="M335 780h-4l-190 221h13l179 -209l179 209h13zM333 698q112 0 180 -91t64 -248l-6 -7l-520 -67q11 -134 84 -213.5t174 -79.5q117 2 223 112q4 -1 7 -7q-109 -113 -230 -115q-109 -2 -186.5 85.5t-82.5 233.5q-4 102 32.5 193t106 147.5t154.5 56.5zM567 362
q4 155 -62.5 240.5t-171.5 85.5q-83 0 -150.5 -57t-102 -145.5t-30.5 -184.5v-6z" />
    <glyph glyph-name="Gbreve" unicode="&#x11e;" horiz-adv-x="798" 
d="M427 980q-75 0 -125 41.5t-50 113.5h10q0 -66 46 -105.5t119 -39.5q71 0 118.5 40t47.5 105h10q0 -70 -51.5 -112.5t-124.5 -42.5zM753 618q-4 -3 -10 -1q2 126 -88 204.5t-228 78.5q-111 0 -197 -63t-130.5 -166t-44.5 -225q0 -208 109 -331t279 -123q76 0 157 25
t143 74v302h-334q0 4 3 10h338l3 -5v-311q-61 -51 -145 -78t-165 -27q-173 0 -285.5 125.5t-112.5 338.5q0 122 44.5 226.5t133.5 171t204 66.5q140 0 235 -81.5t91 -210.5z" />
    <glyph glyph-name="gbreve" unicode="&#x11f;" horiz-adv-x="679" 
d="M338 775q-79 0 -132 49.5t-53 135.5h10q0 -79 48.5 -127t126.5 -48q75 0 125.5 48.5t50.5 126.5h10q0 -84 -54.5 -134.5t-131.5 -50.5zM598 650q7 0 9 -1v-3q-12 -111 -12 -134v-433q0 -167 -77 -263t-195 -96q-131 0 -256 115q0 7 5 9q126 -114 251 -114q114 0 188 93.5
t74 256.5v184q-23 -121 -98 -201.5t-175 -80.5q-116 0 -194 89.5t-78 239.5q0 94 35 181.5t105 146.5t159 59q91 0 157 -72t89 -183v104zM312 -8q111 0 190 103.5t83 265.5q-3 82 -32 155t-85.5 122.5t-128.5 49.5q-87 0 -155 -59t-101 -144t-33 -174q0 -135 70.5 -227
t191.5 -92z" />
    <glyph glyph-name="Gdotaccent" unicode="&#x120;" horiz-adv-x="798" 
d="M426 1003q-13 0 -13 17q0 19 13 19q14 0 14 -19q0 -17 -14 -17zM753 618q-4 -3 -10 -1q2 126 -88 204.5t-228 78.5q-111 0 -197 -63t-130.5 -166t-44.5 -225q0 -208 109 -331t279 -123q76 0 157 25t143 74v302h-334q0 4 3 10h338l3 -5v-311q-61 -51 -145 -78t-165 -27
q-173 0 -285.5 125.5t-112.5 338.5q0 122 44.5 226.5t133.5 171t204 66.5q140 0 235 -81.5t91 -210.5z" />
    <glyph glyph-name="gdotaccent" unicode="&#x121;" horiz-adv-x="679" 
d="M338 834q-13 0 -13 17q0 19 13 19q14 0 14 -19q0 -17 -14 -17zM598 650q7 0 9 -1v-3q-12 -111 -12 -134v-433q0 -167 -77 -263t-195 -96q-131 0 -256 115q0 7 5 9q126 -114 251 -114q114 0 188 93.5t74 256.5v184q-23 -121 -98 -201.5t-175 -80.5q-116 0 -194 89.5
t-78 239.5q0 94 35 181.5t105 146.5t159 59q91 0 157 -72t89 -183v104zM312 -8q111 0 190 103.5t83 265.5q-3 82 -32 155t-85.5 122.5t-128.5 49.5q-87 0 -155 -59t-101 -144t-33 -174q0 -135 70.5 -227t191.5 -92z" />
    <glyph glyph-name="uni0122" unicode="&#x122;" horiz-adv-x="798" 
d="M753 618q-4 -3 -10 -1q2 126 -88 204.5t-228 78.5q-111 0 -197 -63t-130.5 -166t-44.5 -225q0 -208 109 -331t279 -123q76 0 157 25t143 74v302h-334q0 4 3 10h338l3 -5v-311q-61 -51 -145 -78t-165 -27q-173 0 -285.5 125.5t-112.5 338.5q0 122 44.5 226.5t133.5 171
t204 66.5q140 0 235 -81.5t91 -210.5zM362 -299l45 206h10l-45 -206h-10z" />
    <glyph glyph-name="uni0123" unicode="&#x123;" horiz-adv-x="679" 
d="M378 994l-45 -206h-10l45 206h10zM598 650q7 0 9 -1v-3q-12 -111 -12 -134v-433q0 -167 -77 -263t-195 -96q-131 0 -256 115q0 7 5 9q126 -114 251 -114q114 0 188 93.5t74 256.5v184q-23 -121 -98 -201.5t-175 -80.5q-116 0 -194 89.5t-78 239.5q0 94 35 181.5
t105 146.5t159 59q91 0 157 -72t89 -183v104zM312 -8q111 0 190 103.5t83 265.5q-3 82 -32 155t-85.5 122.5t-128.5 49.5q-87 0 -155 -59t-101 -144t-33 -174q0 -135 70.5 -227t191.5 -92z" />
    <glyph glyph-name="Hcircumflex" unicode="&#x124;" horiz-adv-x="819" 
d="M409 1139l-179 -209h-13l190 221h4l190 -221h-13zM719 890q1 2 5 2t5 -2v-890h-10v398h-619v-398h-10v890q6 3 10 0v-482h619v482z" />
    <glyph glyph-name="hcircumflex" unicode="&#x125;" horiz-adv-x="666" 
d="M355 1181l-179 -209h-13l190 221h4l190 -221h-13zM387 698q107 0 166 -92t59 -255v-351h-10v353q0 152 -55 243.5t-160 91.5q-59 0 -116.5 -36t-98 -91.5t-65.5 -124.5t-25 -134v-302h-10v932q8 2 10 0v-544q28 122 115 216t190 94z" />
    <glyph glyph-name="Hbar" unicode="&#x126;" horiz-adv-x="872" 
d="M797 625v-10h-48v-615h-10v398h-619v-398h-10v615h-35v10h35v265q6 3 10 0v-265h619v265q1 2 5 2t5 -2v-265h48zM739 408v207h-619v-207h619z" />
    <glyph glyph-name="hbar" unicode="&#x127;" horiz-adv-x="649" 
d="M370 698q107 0 166 -92t59 -255v-351h-10v353q0 152 -55 243.5t-160 91.5q-59 0 -116.5 -36t-98 -91.5t-65.5 -124.5t-25 -134v-302h-10v828h-91v10h91v94q8 2 10 0v-94h300v-10h-300v-440q28 122 115 216t190 94z" />
    <glyph glyph-name="Imacron" unicode="&#x12a;" horiz-adv-x="190" 
d="M-26 982v10h241v-10h-241zM90 0v890q6 4 10 0v-890h-10z" />
    <glyph glyph-name="imacron" unicode="&#x12b;" horiz-adv-x="210" 
d="M-55 872v10h320v-10h-320zM100 0v647q6 4 10 0v-647h-10z" />
    <glyph glyph-name="Iogonek" unicode="&#x12e;" horiz-adv-x="190" 
d="M141 -250l8 -6q-17 -29 -45 -48t-55 -19q-38 -1 -63 21.5t-25 66.5q0 54 33.5 120t95.5 121v884q6 4 10 0v-890h-2q-62 -54 -94.5 -118t-32.5 -117q0 -39 22 -59t56 -19q24 0 50 18t42 45z" />
    <glyph glyph-name="iogonek" unicode="&#x12f;" horiz-adv-x="210" 
d="M104 834q-13 0 -13 17q0 19 13 19q14 0 14 -19q0 -17 -14 -17zM151 -250l8 -6q-17 -29 -45 -48t-55 -19q-38 -1 -63 21.5t-25 66.5q0 54 33.5 120t95.5 121v641q6 4 10 0v-647h-2q-62 -54 -94.5 -118t-32.5 -117q0 -39 22 -59t56 -19q24 0 50 18t42 45z" />
    <glyph glyph-name="Idotaccent" unicode="&#x130;" horiz-adv-x="190" 
d="M94 983q-13 0 -13 17q0 19 13 19q14 0 14 -19q0 -17 -14 -17zM90 0v890q6 4 10 0v-890h-10z" />
    <glyph glyph-name="dotlessi" unicode="&#x131;" horiz-adv-x="210" 
d="M100 0v647q6 4 10 0v-647h-10z" />
    <glyph glyph-name="IJ" unicode="&#x132;" horiz-adv-x="891" 
d="M90 0v890q6 4 10 0v-890h-10zM487 -18q-89 0 -179.5 57t-156.5 148q1 6 6 9q65 -89 152.5 -146.5t177.5 -57.5q141 0 222.5 106t81.5 276v516q6 2 10 0v-518q0 -109 -34.5 -196t-107 -140.5t-172.5 -53.5z" />
    <glyph glyph-name="ij" unicode="&#x133;" horiz-adv-x="425" 
d="M104 834q-13 0 -13 17q0 19 13 19q14 0 14 -19q0 -17 -14 -17zM319 834q-13 0 -13 17q0 19 13 19q14 0 14 -19q0 -17 -14 -17zM100 0v647q6 4 10 0v-647h-10zM234 -219q-33 0 -74 17q-2 7 1 10q45 -17 73 -17q45 0 63 48t18 161v647q6 2 10 0v-648q0 -54 -3.5 -89.5
t-12.5 -66.5t-27.5 -46.5t-47.5 -15.5z" />
    <glyph glyph-name="Jcircumflex" unicode="&#x134;" horiz-adv-x="785" 
d="M694 1152l190 -221h-13l-179 209l-179 -209h-13l190 221h4zM685 890q6 2 10 0v-518q0 -109 -34.5 -196t-107 -140.5t-172.5 -53.5q-89 0 -179.5 57t-156.5 148q1 6 6 9q65 -89 152.5 -146.5t177.5 -57.5q141 0 222.5 106t81.5 276v516z" />
    <glyph glyph-name="jcircumflex" unicode="&#x135;" horiz-adv-x="215" 
d="M112 1001l190 -221h-13l-179 209l-179 -209h-13l190 221h4zM105 647q6 2 10 0v-648q0 -54 -3.5 -89.5t-12.5 -66.5t-27.5 -46.5t-47.5 -15.5q-33 0 -74 17q-2 7 1 10q45 -17 73 -17q45 0 63 48t18 161v647z" />
    <glyph glyph-name="uni0136" unicode="&#x136;" horiz-adv-x="847" 
d="M407 472q171 -212 271 -324.5t151 -143.5v-2q-2 -2 -10 -2q-105 67 -418 468q-141 -86 -301 -166v-302h-10v890q2 1 5.5 1t4.5 -1v-578q290 151 415 244q254 187 246 334q5 2 9 0q6 -82 -59.5 -165.5t-191.5 -177.5q-57 -42 -112 -75zM340 -289l45 206h10l-45 -206h-10z
" />
    <glyph glyph-name="uni0137" unicode="&#x137;" horiz-adv-x="693" 
d="M347 330q197 -230 251 -283q40 -37 59 -44v-3q-2 -2 -10 -2q-50 16 -307 327q-139 -96 -258 -155v-170h-10v932q5 2 10 0v-751q185 97 325 205q101 77 137.5 132.5t32.5 128.5q4 1 10 0q6 -73 -32.5 -133t-141.5 -136zM279 -289l45 206h10l-45 -206h-10z" />
    <glyph glyph-name="kgreenlandic" unicode="&#x138;" horiz-adv-x="693" 
d="M347 330q197 -230 251 -283q40 -37 59 -44v-3q-2 -2 -10 -2q-50 16 -307 327q-139 -96 -258 -155v-170h-10v647q5 3 10 0v-466q185 97 325 205q101 77 137.5 132.5t32.5 128.5q4 1 10 0q6 -73 -32.5 -133t-141.5 -136z" />
    <glyph glyph-name="Lacute" unicode="&#x139;" horiz-adv-x="744" 
d="M104 932l174 208h13l-174 -208h-13zM94 0l-4 5v885q1 1 4.5 1t5.5 -1v-880h598q3 -4 0 -10h-604z" />
    <glyph glyph-name="lacute" unicode="&#x13a;" horiz-adv-x="271" 
d="M77 974l174 208h13l-174 -208h-13zM178 -18q-48 0 -70 42.5t-22 137.5v770q5 2 10 0v-770q0 -92 19.5 -131t62.5 -39q20 0 74 18q2 -5 1 -10q-43 -16 -75 -18z" />
    <glyph glyph-name="uni013B" unicode="&#x13b;" horiz-adv-x="744" 
d="M94 0l-4 5v885q1 1 4.5 1t5.5 -1v-880h598q3 -4 0 -10h-604zM335 -289l45 206h10l-45 -206h-10z" />
    <glyph glyph-name="uni013C" unicode="&#x13c;" horiz-adv-x="271" 
d="M178 -18q-48 0 -70 42.5t-22 137.5v770q5 2 10 0v-770q0 -92 19.5 -131t62.5 -39q20 0 74 18q2 -5 1 -10q-43 -16 -75 -18zM131 -297l45 206h10l-45 -206h-10z" />
    <glyph glyph-name="Lcaron" unicode="&#x13d;" horiz-adv-x="744" 
d="M445 873l16 333h10l-16 -333h-10zM94 0l-4 5v885q1 1 4.5 1t5.5 -1v-880h598q3 -4 0 -10h-604z" />
    <glyph glyph-name="lcaron" unicode="&#x13e;" horiz-adv-x="271" 
d="M246 849l16 333h10l-16 -333h-10zM178 -18q-48 0 -70 42.5t-22 137.5v770q5 2 10 0v-770q0 -92 19.5 -131t62.5 -39q20 0 74 18q2 -5 1 -10q-43 -16 -75 -18z" />
    <glyph glyph-name="Lslash" unicode="&#x141;" horiz-adv-x="834" 
d="M788 10q3 -4 0 -10h-604l-4 5v336l-110 -47v10l110 47v539q1 1 4.5 1t5.5 -1v-535l249 107v-10l-249 -107v-335h598z" />
    <glyph glyph-name="lslash" unicode="&#x142;" horiz-adv-x="295" 
d="M276 10q2 -5 1 -10q-43 -16 -75 -18q-48 0 -70 42.5t-22 137.5v402l-116 -67v11l116 67v357q5 2 10 0v-352l118 68v-11l-118 -68v-407q0 -92 19.5 -131t62.5 -39q20 0 74 18z" />
    <glyph glyph-name="Nacute" unicode="&#x143;" horiz-adv-x="894" 
d="M615 1140l-174 -208h-13l174 208h13zM794 890q6 4 10 0v-890h-9l-695 871v-871h-10v886q3 6 8 4l696 -873v873z" />
    <glyph glyph-name="nacute" unicode="&#x144;" horiz-adv-x="698" 
d="M532 1025l-149 -245h-11l148 245h12zM401 698q107 0 166 -92t59 -255v-351h-10v353q0 152 -55 243.5t-160 91.5q-59 0 -116.5 -36t-98 -91.5t-65.5 -124.5t-25 -134v-302h-10v531q0 65 -14 111v4q6 3 9 1q15 -40 15 -88v-171q28 122 115 216t190 94z" />
    <glyph glyph-name="uni0145" unicode="&#x145;" horiz-adv-x="894" 
d="M794 890q6 4 10 0v-890h-9l-695 871v-871h-10v886q3 6 8 4l696 -873v873zM400 -289l45 206h10l-45 -206h-10z" />
    <glyph glyph-name="uni0146" unicode="&#x146;" horiz-adv-x="698" 
d="M401 698q107 0 166 -92t59 -255v-351h-10v353q0 152 -55 243.5t-160 91.5q-59 0 -116.5 -36t-98 -91.5t-65.5 -124.5t-25 -134v-302h-10v531q0 65 -14 111v4q6 3 9 1q15 -40 15 -88v-171q28 122 115 216t190 94zM302 -289l45 206h10l-45 -206h-10z" />
    <glyph glyph-name="Ncaron" unicode="&#x147;" horiz-adv-x="894" 
d="M449 934h-4l-190 211h13l179 -200l179 200h13zM794 890q6 4 10 0v-890h-9l-695 871v-871h-10v886q3 6 8 4l696 -873v873z" />
    <glyph glyph-name="ncaron" unicode="&#x148;" horiz-adv-x="698" 
d="M393 780h-4l-190 221h13l179 -209l179 209h13zM401 698q107 0 166 -92t59 -255v-351h-10v353q0 152 -55 243.5t-160 91.5q-59 0 -116.5 -36t-98 -91.5t-65.5 -124.5t-25 -134v-302h-10v531q0 65 -14 111v4q6 3 9 1q15 -40 15 -88v-171q28 122 115 216t190 94z" />
    <glyph glyph-name="Eng" unicode="&#x14a;" horiz-adv-x="860" 
d="M456 -341q-89 0 -179.5 48.5t-156.5 126.5q1 5 6 8q65 -76 152.5 -124.5t177.5 -48.5q133 0 218.5 94t85.5 241l-660 857v-861h-10v876q3 6 8 4l662 -862v862q6 4 10 0v-876q0 -153 -90 -249t-224 -96z" />
    <glyph glyph-name="eng" unicode="&#x14b;" horiz-adv-x="698" 
d="M401 698q107 0 166 -92t59 -255v-352q0 -54 -3.5 -89.5t-12.5 -66.5t-27.5 -46.5t-47.5 -15.5q-33 0 -74 17q-2 7 1 10q45 -17 73 -17q45 0 63 48t18 161v353q0 152 -55 243.5t-160 91.5q-59 0 -116.5 -36t-98 -91.5t-65.5 -124.5t-25 -134v-302h-10v531q0 65 -14 111v4
q6 3 9 1q15 -40 15 -88v-172q28 123 114.5 217t190.5 94z" />
    <glyph glyph-name="Omacron" unicode="&#x14c;" horiz-adv-x="842" 
d="M232 992v10h401v-10h-401zM383 -18q-106 0 -183.5 58.5t-115.5 153t-39 211.5q-1 136 50.5 251.5t146 184.5t211.5 69q102 0 182.5 -64t122 -168t39.5 -224q-2 -121 -55 -229t-148.5 -175.5t-210.5 -67.5zM383 -8q164 0 282.5 136t121.5 326q3 185 -92.5 315.5
t-241.5 130.5q-171 0 -285 -144t-113 -351q1 -111 36 -202.5t111 -151t181 -59.5z" />
    <glyph glyph-name="omacron" unicode="&#x14d;" horiz-adv-x="676" 
d="M168 872v10h401v-10h-401zM310 -18q-126 0 -198 93.5t-72 229.5q0 161 95 277t234 116q118 0 192.5 -97.5t74.5 -237.5q0 -158 -92.5 -269.5t-233.5 -111.5zM310 -8q138 0 227 109t89 262q0 138 -72 231.5t-185 93.5q-137 0 -228 -114t-91 -269q0 -130 68 -221.5
t192 -91.5z" />
    <glyph glyph-name="Ohungarumlaut" unicode="&#x150;" horiz-adv-x="842" 
d="M325 969l117 165h12l-118 -165h-11zM470 969l117 165h12l-118 -165h-11zM383 -18q-106 0 -183.5 58.5t-115.5 153t-39 211.5q-1 136 50.5 251.5t146 184.5t211.5 69q102 0 182.5 -64t122 -168t39.5 -224q-2 -121 -55 -229t-148.5 -175.5t-210.5 -67.5zM383 -8
q164 0 282.5 136t121.5 326q3 185 -92.5 315.5t-241.5 130.5q-171 0 -285 -144t-113 -351q1 -111 36 -202.5t111 -151t181 -59.5z" />
    <glyph glyph-name="ohungarumlaut" unicode="&#x151;" horiz-adv-x="676" 
d="M242 780l147 245h12l-148 -245h-11zM417 780l147 245h12l-148 -245h-11zM310 -18q-126 0 -198 93.5t-72 229.5q0 161 95 277t234 116q118 0 192.5 -97.5t74.5 -237.5q0 -158 -92.5 -269.5t-233.5 -111.5zM310 -8q138 0 227 109t89 262q0 138 -72 231.5t-185 93.5
q-137 0 -228 -114t-91 -269q0 -130 68 -221.5t192 -91.5z" />
    <glyph glyph-name="OE" unicode="&#x152;" horiz-adv-x="1444" 
d="M1398 10q2 -2 2 -5t-2 -5h-608v360q-31 -159 -142.5 -268.5t-261.5 -109.5q-158 0 -248.5 120.5t-92.5 302.5q-1 136 51 251.5t146 184.5t210 69q129 0 220 -95t118 -241v303l2 3h583q2 -7 -1 -10h-574v-396v-20v-21h491q2 -5 -1 -10h-490v-413h598zM386 -8
q164 0 282.5 136t121.5 326v20q-3 178 -97.5 302t-236.5 124q-114 0 -206.5 -66.5t-143.5 -180t-51 -248.5q1 -111 36.5 -202.5t112 -151t182.5 -59.5z" />
    <glyph glyph-name="oe" unicode="&#x153;" horiz-adv-x="1200" 
d="M920 698q112 0 180 -91t64 -248l-6 -7l-520 -67q11 -134 84 -213.5t174 -78.5q116 0 223 111q4 -1 7 -7q-109 -113 -230 -115q-105 -2 -181 79t-87 217q-24 -129 -110.5 -212.5t-207.5 -83.5q-126 0 -198 93.5t-72 229.5q0 161 95 277t234 116q109 0 181 -83.5t84 -210.5
q22 125 101 209.5t185 84.5zM310 -8q138 0 227 109t89 262q0 138 -72 231.5t-185 93.5q-137 0 -228 -114t-91 -269q0 -130 68 -221.5t192 -91.5zM1154 362q4 155 -62.5 240.5t-171.5 85.5q-83 0 -150.5 -57t-102 -145.5t-30.5 -184.5v-6z" />
    <glyph glyph-name="Racute" unicode="&#x154;" horiz-adv-x="843" 
d="M573 1150l-174 -208h-13l174 208h13zM503 316q221 -269 295 -312v-2q-2 -2 -9 -2q-19 10 -39.5 26t-87.5 89t-170 199q-46 -9 -100 -9q-75 1 -160.5 17t-131.5 33v-355h-10v869q74 24 142.5 32.5t172.5 8.5q158 0 250.5 -82t92.5 -229q0 -107 -65.5 -182.5t-179.5 -100.5
zM392 315q150 -2 248 75t98 209q0 135 -86 218t-247 83q-191 0 -305 -38v-496q139 -49 292 -51z" />
    <glyph glyph-name="racute" unicode="&#x155;" horiz-adv-x="514" 
d="M407 1056l-149 -245h-11l148 245h12zM478 674q1 -7 -2 -10q-60 24 -112 24q-80 0 -143 -58.5t-94 -146.5t-31 -185v-298h-10v531q0 65 -14 111v4q6 3 9 1q15 -40 15 -88v-157q21 126 95 211t173 85q54 0 114 -24z" />
    <glyph glyph-name="uni0156" unicode="&#x156;" horiz-adv-x="843" 
d="M503 316q221 -269 295 -312v-2q-2 -2 -9 -2q-19 10 -39.5 26t-87.5 89t-170 199q-46 -9 -100 -9q-75 1 -160.5 17t-131.5 33v-355h-10v869q74 24 142.5 32.5t172.5 8.5q158 0 250.5 -82t92.5 -229q0 -107 -65.5 -182.5t-179.5 -100.5zM392 315q150 -2 248 75t98 209
q0 135 -86 218t-247 83q-191 0 -305 -38v-496q139 -49 292 -51zM385 -289l45 206h10l-45 -206h-10z" />
    <glyph glyph-name="uni0157" unicode="&#x157;" horiz-adv-x="514" 
d="M478 674q1 -7 -2 -10q-60 24 -112 24q-80 0 -143 -58.5t-94 -146.5t-31 -185v-298h-10v531q0 65 -14 111v4q6 3 9 1q15 -40 15 -88v-157q21 126 95 211t173 85q54 0 114 -24zM36 -289l45 206h10l-45 -206h-10z" />
    <glyph glyph-name="Rcaron" unicode="&#x158;" horiz-adv-x="843" 
d="M407 944h-4l-190 211h13l179 -200l179 200h13zM503 316q221 -269 295 -312v-2q-2 -2 -9 -2q-19 10 -39.5 26t-87.5 89t-170 199q-46 -9 -100 -9q-75 1 -160.5 17t-131.5 33v-355h-10v869q74 24 142.5 32.5t172.5 8.5q158 0 250.5 -82t92.5 -229q0 -107 -65.5 -182.5
t-179.5 -100.5zM392 315q150 -2 248 75t98 209q0 135 -86 218t-247 83q-191 0 -305 -38v-496q139 -49 292 -51z" />
    <glyph glyph-name="rcaron" unicode="&#x159;" horiz-adv-x="514" 
d="M268 811h-4l-190 221h13l179 -209l179 209h13zM478 674q1 -7 -2 -10q-60 24 -112 24q-80 0 -143 -58.5t-94 -146.5t-31 -185v-298h-10v531q0 65 -14 111v4q6 3 9 1q15 -40 15 -88v-157q21 126 95 211t173 85q54 0 114 -24z" />
    <glyph glyph-name="Sacute" unicode="&#x15a;" horiz-adv-x="790" 
d="M392 952l174 208h13l-174 -208h-13zM419 -18q-102 0 -200.5 36t-173.5 103q0 5 4 9q75 -66 173 -102t197 -36q150 0 233 66t83 178q0 57 -24.5 97.5t-72 64t-104 35.5t-134.5 17q-270 18 -270 223q0 57 27 104t69.5 75t90.5 43t94 15q150 0 238.5 -70.5t88.5 -179.5
q-6 -2 -10 -2q-1 113 -89 177.5t-228 64.5q-110 0 -190.5 -65t-80.5 -163q0 -196 262 -212q184 -11 263.5 -66.5t79.5 -157.5q0 -111 -82.5 -182.5t-243.5 -71.5z" />
    <glyph glyph-name="sacute" unicode="&#x15b;" horiz-adv-x="620" 
d="M293 780l148 245h12l-149 -245h-11zM326 -18q-71 0 -148.5 29t-131.5 82q0 7 5 9q52 -51 126.5 -80.5t148.5 -29.5q99 0 168.5 47t69.5 120q0 87 -57.5 132t-200.5 52q-234 14 -234 172q0 75 69 129t171 54q144 0 247 -79q0 -3 -5 -8q-103 77 -242 77q-104 0 -167 -53.5
t-63 -119.5q0 -150 225 -162q148 -8 207.5 -55t59.5 -138q0 -83 -75.5 -130.5t-172.5 -47.5z" />
    <glyph glyph-name="Scedilla" unicode="&#x15e;" horiz-adv-x="790" 
d="M745 236q0 -110 -80.5 -181.5t-239.5 -72.5q0 -32 8 -51.5t40 -61.5q38 -51 38 -105q0 -40 -20 -66.5t-51 -26.5q-40 -2 -81 49l6 8q37 -47 75 -47q26 0 43.5 23.5t17.5 59.5q0 52 -35 98q-34 44 -42.5 64.5t-8.5 55.5q-102 1 -199 37t-171 102q0 5 4 9q75 -66 173 -102
t197 -36q150 0 233 66t83 178q0 57 -24.5 97.5t-72 64t-104 35.5t-134.5 17q-270 18 -270 223q0 57 27 104t69.5 75t90.5 43t94 15q150 0 238.5 -70.5t88.5 -179.5q-6 -2 -10 -2q-1 113 -89 177.5t-228 64.5q-110 0 -190.5 -65t-80.5 -163q0 -196 262 -212
q184 -11 263.5 -66.5t79.5 -157.5z" />
    <glyph glyph-name="scedilla" unicode="&#x15f;" horiz-adv-x="620" 
d="M574 160q0 -83 -75.5 -130.5t-172.5 -47.5h-9q0 -34 7.5 -53t40.5 -62q38 -51 38 -105q0 -40 -20 -66.5t-51 -26.5q-40 -2 -81 49l6 8q37 -47 75 -47q26 0 43.5 23.5t17.5 59.5q0 52 -35 98q-34 44 -42.5 65t-8.5 58q-68 3 -139 31.5t-122 78.5q0 7 5 9
q52 -51 126.5 -80.5t148.5 -29.5q99 0 168.5 47t69.5 120q0 87 -57.5 132t-200.5 52q-234 14 -234 172q0 75 69 129t171 54q144 0 247 -79q0 -3 -5 -8q-103 77 -242 77q-104 0 -167 -53.5t-63 -119.5q0 -150 225 -162q148 -8 207.5 -55t59.5 -138z" />
    <glyph glyph-name="Scaron" unicode="&#x160;" horiz-adv-x="790" 
d="M413 954h-4l-190 211h13l179 -200l179 200h13zM402 460q184 -11 263.5 -66.5t79.5 -157.5q0 -111 -82.5 -182.5t-243.5 -71.5q-102 0 -200.5 36t-173.5 103q0 5 4 9q75 -66 173 -102t197 -36q150 0 233 66t83 178q0 57 -24.5 97.5t-72 64t-104 35.5t-134.5 17
q-270 18 -270 223q0 57 27 104t69.5 75t90.5 43t94 15q150 0 238.5 -70.5t88.5 -179.5q-6 -2 -10 -2q-1 113 -89 177.5t-228 64.5q-110 0 -190.5 -65t-80.5 -163q0 -196 262 -212z" />
    <glyph glyph-name="scaron" unicode="&#x161;" horiz-adv-x="620" 
d="M314 780h-4l-190 221h13l179 -209l179 209h13zM307 353q148 -8 207.5 -55t59.5 -138q0 -83 -75.5 -130.5t-172.5 -47.5q-71 0 -148.5 29t-131.5 82q0 7 5 9q52 -51 126.5 -80.5t148.5 -29.5q99 0 168.5 47t69.5 120q0 87 -57.5 132t-200.5 52q-234 14 -234 172
q0 75 69 129t171 54q144 0 247 -79q0 -3 -5 -8q-103 77 -242 77q-104 0 -167 -53.5t-63 -119.5q0 -150 225 -162z" />
    <glyph glyph-name="uni0162" unicode="&#x162;" horiz-adv-x="738" 
d="M721 880h-363v-880q0 -38 7 -57t41 -64q38 -51 38 -105q0 -40 -20 -66.5t-51 -26.5q-40 -2 -81 49l6 8q37 -47 75 -47q26 0 43.5 23.5t17.5 59.5q0 52 -35 98q-35 45 -43 66t-8 62v880h-333q-2 5 3 10h705q1 -5 -2 -10z" />
    <glyph glyph-name="uni0163" unicode="&#x163;" horiz-adv-x="445" 
d="M427 637h-325v-349q0 -140 53 -218.5t148 -77.5q47 0 107 23q2 -2 2 -10q-60 -23 -109 -23q-21 0 -44 5q0 -36 7.5 -55.5t40.5 -63.5q38 -51 38 -105q0 -40 -20 -66.5t-51 -26.5q-40 -2 -81 49l6 8q37 -47 75 -47q26 0 43.5 23.5t17.5 59.5q0 52 -35 98q-35 45 -43 66
t-8 62h1q-74 21 -116 97.5t-42 201.5v349h-82v10h82v183q3 3 10 3v-186h325v-10z" />
    <glyph glyph-name="Tcaron" unicode="&#x164;" horiz-adv-x="738" 
d="M356 934h-4l-190 211h13l179 -200l179 200h13zM723 890q1 -5 -2 -10h-363v-880h-10v880h-333q-2 5 3 10h705z" />
    <glyph glyph-name="tcaron" unicode="&#x165;" horiz-adv-x="445" 
d="M350 1076l-16 -333h-10l16 333h10zM427 637h-325v-349q0 -140 53 -218.5t148 -77.5q47 0 107 23q2 -2 2 -10q-60 -23 -109 -23q-97 0 -154 79.5t-57 226.5v349h-82v10h82v183q3 3 10 3v-186h325v-10z" />
    <glyph glyph-name="Tbar" unicode="&#x166;" horiz-adv-x="798" 
d="M757 880h-363v-409h211v-10h-211v-461h-10v461h-199v10h199v409h-333q-2 5 3 10h705q1 -5 -2 -10z" />
    <glyph glyph-name="tbar" unicode="&#x167;" horiz-adv-x="435" 
d="M417 637h-325v-200h325v-10h-325v-139q0 -140 53 -218.5t148 -77.5q47 0 107 23q2 -2 2 -10q-60 -23 -109 -23q-97 0 -154 79.5t-57 226.5v139h-82v10h82v200h-82v10h82v183q3 3 10 3v-186h325v-10z" />
    <glyph glyph-name="Umacron" unicode="&#x16a;" horiz-adv-x="893" 
d="M246 1002v10h401v-10h-401zM435 -18q-161 0 -253 102t-92 300v506q6 4 10 0v-507q0 -193 89.5 -292t245.5 -99q161 0 259.5 112.5t98.5 290.5v495q7 2 10 0v-497q0 -174 -99 -292.5t-269 -118.5z" />
    <glyph glyph-name="umacron" unicode="&#x16b;" horiz-adv-x="687" 
d="M548 882v-10h-401v10h401zM611 116q0 -53 4 -73.5t18 -37.5v-5h-8q-14 16 -19 37.5t-5 78.5v137q-22 -117 -104 -194t-196 -77q-106 0 -167.5 71.5t-61.5 214.5v379q4 2 10 0v-379q0 -142 59 -209t160 -67q132 0 216 102.5t84 252.5v300q1 1 5 1t5 -1v-531z" />
    <glyph glyph-name="Uring" unicode="&#x16e;" horiz-adv-x="893" 
d="M447 907q-66 0 -112 36.5t-46 96.5q0 58 44.5 96t113.5 38q66 0 113.5 -38t47.5 -96t-50 -95.5t-111 -37.5zM447 917q62 0 106.5 36.5t44.5 86.5q0 52 -44.5 88t-106.5 36q-66 0 -107 -36.5t-41 -87.5q0 -52 40.5 -87.5t107.5 -35.5zM435 -18q-161 0 -253 102t-92 300
v506q6 4 10 0v-507q0 -193 89.5 -292t245.5 -99q161 0 259.5 112.5t98.5 290.5v495q7 2 10 0v-497q0 -174 -99 -292.5t-269 -118.5z" />
    <glyph glyph-name="uring" unicode="&#x16f;" horiz-adv-x="687" 
d="M346 775q-66 0 -112 36.5t-46 96.5q0 58 44.5 96t113.5 38q66 0 113.5 -38t47.5 -96t-50 -95.5t-111 -37.5zM346 1032q-66 0 -107 -36.5t-41 -87.5q0 -52 40.5 -87.5t107.5 -35.5q62 0 106.5 36.5t44.5 86.5q0 52 -44.5 88t-106.5 36zM611 116q0 -53 4 -73.5t18 -37.5v-5
h-8q-14 16 -19 37.5t-5 78.5v137q-22 -117 -104 -194t-196 -77q-106 0 -167.5 71.5t-61.5 214.5v379q4 2 10 0v-379q0 -142 59 -209t160 -67q132 0 216 102.5t84 252.5v300q1 1 5 1t5 -1v-531z" />
    <glyph glyph-name="Uhungarumlaut" unicode="&#x170;" horiz-adv-x="893" 
d="M339 979l117 165h12l-118 -165h-11zM484 979l117 165h12l-118 -165h-11zM435 -18q-161 0 -253 102t-92 300v506q6 4 10 0v-507q0 -193 89.5 -292t245.5 -99q161 0 259.5 112.5t98.5 290.5v495q7 2 10 0v-497q0 -174 -99 -292.5t-269 -118.5z" />
    <glyph glyph-name="uhungarumlaut" unicode="&#x171;" horiz-adv-x="687" 
d="M380 1025l-148 -245h-11l147 245h12zM555 1025l-148 -245h-11l147 245h12zM611 116q0 -53 4 -73.5t18 -37.5v-5h-8q-14 16 -19 37.5t-5 78.5v137q-22 -117 -104 -194t-196 -77q-106 0 -167.5 71.5t-61.5 214.5v379q4 2 10 0v-379q0 -142 59 -209t160 -67q132 0 216 102.5
t84 252.5v300q1 1 5 1t5 -1v-531z" />
    <glyph glyph-name="Uogonek" unicode="&#x172;" horiz-adv-x="893" 
d="M793 890q7 2 10 0v-497q0 -112 -41.5 -203.5t-125.5 -149t-197 -58.5q-62 -54 -94.5 -118t-32.5 -117q0 -39 22 -59t56 -19q24 0 50 18t42 45l8 -6q-17 -29 -45 -48t-55 -19q-38 -1 -63 21.5t-25 66.5q0 53 31.5 117t90.5 118q-157 4 -245.5 105.5t-88.5 296.5v506
q6 4 10 0v-507q0 -193 89.5 -292t245.5 -99q161 0 259.5 112.5t98.5 290.5v495z" />
    <glyph glyph-name="uogonek" unicode="&#x173;" horiz-adv-x="687" 
d="M671 -250l8 -6q-17 -29 -45 -48t-55 -19q-38 -1 -63 21.5t-25 66.5q0 54 33.5 120t95.5 121q-19 26 -19 110v137q-22 -117 -104 -194t-196 -77q-106 0 -167.5 71.5t-61.5 214.5v379q4 2 10 0v-379q0 -142 59 -209t160 -67q132 0 216 102.5t84 252.5v300q1 1 5 1t5 -1
v-531q0 -53 4 -73.5t18 -37.5v-5h-5q-62 -54 -94.5 -118t-32.5 -117q0 -39 22 -59t56 -19q24 0 50 18t42 45z" />
    <glyph glyph-name="Wcircumflex" unicode="&#x174;" horiz-adv-x="1151" 
d="M575 1139l-179 -209h-13l190 221h4l190 -221h-13zM1131 890q23 -190 -58 -427t-234 -457l-7 -6h-6l-5 4q-123 360 -163 461q-22 -80 -102.5 -240t-124.5 -222l-5 -3h-4l-7 5q-70 227 -185.5 471t-214.5 411l1 3q5 2 9 0q113 -195 223 -430.5t175 -449.5h2
q62 100 133.5 242.5t93.5 229.5q-13 39 -92 243q1 5 8 5q45 -110 132 -350t129 -370h2q150 220 231.5 453.5t58.5 426.5q3 3 10 0z" />
    <glyph glyph-name="wcircumflex" unicode="&#x175;" horiz-adv-x="742" 
d="M371 938l-179 -209h-13l190 221h4l190 -221h-13zM730 647q11 -117 -49 -309.5t-149 -332.5l-5 -5h-9l-5 4q-56 248 -95 368q-18 -73 -60 -186t-78 -181l-5 -5h-8l-6 4q-88 344 -251 640l1 3q4 1 8 0q154 -263 251 -637h2q40 80 80 187.5t60 190.5l-62 180q2 7 9 4
q57 -159 88 -264.5t75 -297.5h2q86 140 144.5 318t52.5 319q4 2 9 0z" />
    <glyph glyph-name="Ycircumflex" unicode="&#x176;" horiz-adv-x="754" 
d="M376 1139l-179 -209h-13l190 221h4l190 -221h-13zM739 890q10 -270 -329 -603v-287h-10v287q-42 71 -191.5 307t-193.5 293l1 3q2 1 5 1t4 -1q37 -47 184 -278t197 -315q333 324 323 593q4 1 10 0z" />
    <glyph glyph-name="ycircumflex" unicode="&#x177;" horiz-adv-x="630" 
d="M325 991l-179 -209h-13l190 221h4l190 -221h-13zM619 647q6 -113 -18.5 -244.5t-94 -280t-174.5 -252.5q-60 -59 -128 -90.5t-125 -31.5q-36 0 -68 16q-2 7 0 10l2 1q29 -17 66 -17q55 0 123.5 32.5t124.5 88.5q59 59 110 137q-63 41 -133 129t-124 184t-93.5 179.5
t-56.5 134.5l1 3q3 1 9 1q17 -62 76 -182t152.5 -254.5t174.5 -186.5q89 141 130.5 307.5t35.5 315.5q7 3 10 0z" />
    <glyph glyph-name="Ydieresis" unicode="&#x178;" horiz-adv-x="754" 
d="M249 983q-13 0 -13 17q0 19 13 19q14 0 14 -19q0 -17 -14 -17zM504 983q-13 0 -13 17q0 19 13 19q14 0 14 -19q0 -17 -14 -17zM739 890q10 -270 -329 -603v-287h-10v287q-42 71 -191.5 307t-193.5 293l1 3q2 1 5 1t4 -1q37 -47 184 -278t197 -315q333 324 323 593
q4 1 10 0z" />
    <glyph glyph-name="Zacute" unicode="&#x179;" horiz-adv-x="769" 
d="M553 1140l-174 -208h-13l174 208h13zM723 10q1 -2 1 -5t-1 -5h-674q-4 1 -4 7q139 260 311 504t325 369h-605q-3 4 0 10h620q5 -3 5 -8q-161 -128 -330.5 -368t-313.5 -504h666z" />
    <glyph glyph-name="zacute" unicode="&#x17a;" horiz-adv-x="581" 
d="M432 1025l-149 -245h-11l148 245h12zM570 10q1 -6 0 -10h-559q-2 4 -1 7q89 150 166 261.5t175.5 214t193.5 154.5h-506q-1 4 0 10h527q4 -4 2 -9q-144 -74 -274.5 -233t-270.5 -395h547z" />
    <glyph glyph-name="Zdotaccent" unicode="&#x17b;" horiz-adv-x="769" 
d="M384 983q-13 0 -13 17q0 19 13 19q14 0 14 -19q0 -17 -14 -17zM723 10q1 -2 1 -5t-1 -5h-674q-4 1 -4 7q139 260 311 504t325 369h-605q-3 4 0 10h620q5 -3 5 -8q-161 -128 -330.5 -368t-313.5 -504h666z" />
    <glyph glyph-name="zdotaccent" unicode="&#x17c;" horiz-adv-x="581" 
d="M290 834q-13 0 -13 17q0 19 13 19q14 0 14 -19q0 -17 -14 -17zM570 10q1 -6 0 -10h-559q-2 4 -1 7q89 150 166 261.5t175.5 214t193.5 154.5h-506q-1 4 0 10h527q4 -4 2 -9q-144 -74 -274.5 -233t-270.5 -395h547z" />
    <glyph glyph-name="Zcaron" unicode="&#x17d;" horiz-adv-x="769" 
d="M387 934h-4l-190 211h13l179 -200l179 200h13zM723 10q1 -2 1 -5t-1 -5h-674q-4 1 -4 7q139 260 311 504t325 369h-605q-3 4 0 10h620q5 -3 5 -8q-161 -128 -330.5 -368t-313.5 -504h666z" />
    <glyph glyph-name="zcaron" unicode="&#x17e;" horiz-adv-x="581" 
d="M293 780h-4l-190 221h13l179 -209l179 209h13zM570 10q1 -6 0 -10h-559q-2 4 -1 7q89 150 166 261.5t175.5 214t193.5 154.5h-506q-1 4 0 10h527q4 -4 2 -9q-144 -74 -274.5 -233t-270.5 -395h547z" />
    <glyph glyph-name="longs" unicode="&#x17f;" horiz-adv-x="267" 
d="M100 0v625q0 154 44.5 231.5t127.5 77.5q48 0 103 -23q0 -6 -2 -10q-50 23 -101 23q-162 -3 -162 -299v-625h-10z" />
    <glyph glyph-name="florin" unicode="&#x192;" horiz-adv-x="467" 
d="M350 372v-10h-113q14 -218 14 -337q0 -112 -21.5 -169.5t-74.5 -57.5v10q48 0 67 56t19 161q0 109 -14 337h-110v10h109q-9 158 -9 269q0 109 22 167.5t75 58.5v-10q-48 0 -67.5 -56t-19.5 -160q0 -93 10 -269h113z" />
    <glyph glyph-name="uni01C7" unicode="&#x1c7;" horiz-adv-x="1479" 
d="M94 0l-4 5v885q1 1 4.5 1t5.5 -1v-880h598q3 -4 0 -10h-604zM1075 -18q-89 0 -179.5 57t-156.5 148q1 6 6 9q65 -89 152.5 -146.5t177.5 -57.5q141 0 222.5 106t81.5 276v516q6 2 10 0v-518q0 -109 -34.5 -196t-107 -140.5t-172.5 -53.5z" />
    <glyph glyph-name="uni01C8" unicode="&#x1c8;" horiz-adv-x="909" 
d="M94 0l-4 5v885q1 1 4.5 1t5.5 -1v-880h598q3 -4 0 -10h-604zM803 834q-13 0 -13 17q0 19 13 19q14 0 14 -19q0 -17 -14 -17zM718 -219q-33 0 -74 17q-2 7 1 10q45 -17 73 -17q45 0 63 48t18 161v647q6 2 10 0v-648q0 -54 -3.5 -89.5t-12.5 -66.5t-27.5 -46.5t-47.5 -15.5
z" />
    <glyph glyph-name="uni01C9" unicode="&#x1c9;" horiz-adv-x="486" 
d="M178 -18q-48 0 -70 42.5t-22 137.5v770q5 2 10 0v-770q0 -92 19.5 -131t62.5 -39q20 0 74 18q2 -5 1 -10q-43 -16 -75 -18zM380 834q-13 0 -13 17q0 19 13 19q14 0 14 -19q0 -17 -14 -17zM295 -219q-33 0 -74 17q-2 7 1 10q45 -17 73 -17q45 0 63 48t18 161v647q6 2 10 0
v-648q0 -54 -3.5 -89.5t-12.5 -66.5t-27.5 -46.5t-47.5 -15.5z" />
    <glyph glyph-name="uni01CA" unicode="&#x1ca;" horiz-adv-x="1611" 
d="M794 890q6 4 10 0v-890h-9l-695 871v-871h-10v886q3 6 8 4l696 -873v873zM1511 890q6 2 10 0v-518q0 -109 -34.5 -196t-107 -140.5t-172.5 -53.5q-89 0 -179.5 57t-156.5 148q1 6 6 9q65 -89 152.5 -146.5t177.5 -57.5q141 0 222.5 106t81.5 276v516z" />
    <glyph glyph-name="uni01CB" unicode="&#x1cb;" horiz-adv-x="1041" 
d="M795 0l-695 871v-871h-10v886q3 6 8 4l696 -873v873q6 4 10 0v-890h-9zM935 870q14 0 14 -19q0 -17 -14 -17q-13 0 -13 17q0 19 13 19zM931 647q6 2 10 0v-648q0 -54 -3.5 -89.5t-12.5 -66.5t-27.5 -46.5t-47.5 -15.5q-33 0 -74 17q-2 7 1 10q45 -17 73 -17q45 0 63 48
t18 161v647z" />
    <glyph glyph-name="uni01CC" unicode="&#x1cc;" horiz-adv-x="913" 
d="M807 870q14 0 14 -19q0 -17 -14 -17q-13 0 -13 17q0 19 13 19zM401 698q107 0 166 -92t59 -255v-351h-10v353q0 152 -55 243.5t-160 91.5q-59 0 -116.5 -36t-98 -91.5t-65.5 -124.5t-25 -134v-302h-10v531q0 65 -14 111v4q6 3 9 1q15 -40 15 -88v-171q28 122 115 216
t190 94zM803 647q6 2 10 0v-648q0 -54 -3.5 -89.5t-12.5 -66.5t-27.5 -46.5t-47.5 -15.5q-33 0 -74 17q-2 7 1 10q45 -17 73 -17q45 0 63 48t18 161v647z" />
    <glyph glyph-name="uni01CD" unicode="&#x1cd;" horiz-adv-x="829" 
d="M427 934h-4l-190 211h13l179 -200l179 200h13zM430 890l384 -889v-1h-10q-6 13 -21.5 49t-40 93t-46.5 108h-557l-113 -250h-11l404 890q1 1 5 1t6 -1zM144 260h548q-106 246 -268 618z" />
    <glyph glyph-name="uni01CE" unicode="&#x1ce;" horiz-adv-x="625" 
d="M333 780h-4l-190 221h13l179 -209l179 209h13zM554 121q0 -57 6 -80.5t20 -36.5v-4h-9q-27 24 -27 121v159q-20 -110 -115 -204t-212 -94q-84 0 -128 43.5t-44 116.5q0 109 96.5 177t290.5 68q58 0 111 -6q-5 141 -60 223.5t-152 83.5q-106 2 -235 -97q-4 3 -2 11
q127 96 237 96q103 0 163 -90.5t60 -260.5v-226zM217 -8q87 0 164 56t120 140t43 169v13q-61 7 -110 7q-104 0 -181 -20.5t-119 -55.5t-61 -74.5t-19 -85.5q0 -69 41.5 -109t121.5 -40z" />
    <glyph glyph-name="uni01CF" unicode="&#x1cf;" horiz-adv-x="190" 
d="M97 934h-4l-190 211h13l179 -200l179 200h13zM90 890q6 4 10 0v-890h-10v890z" />
    <glyph glyph-name="uni01D0" unicode="&#x1d0;" horiz-adv-x="210" 
d="M107 780h-4l-190 221h13l179 -209l179 209h13zM100 647q6 4 10 0v-647h-10v647z" />
    <glyph glyph-name="uni01D2" unicode="&#x1d2;" horiz-adv-x="676" 
d="M371 780h-4l-190 221h13l179 -209l179 209h13zM369 698q118 0 192.5 -97.5t74.5 -237.5q0 -158 -92.5 -269.5t-233.5 -111.5q-126 0 -198 93.5t-72 229.5q0 161 95 277t234 116zM310 -8q138 0 227 109t89 262q0 138 -72 231.5t-185 93.5q-137 0 -228 -114t-91 -269
q0 -130 68 -221.5t192 -91.5z" />
    <glyph glyph-name="uni01D3" unicode="&#x1d3;" horiz-adv-x="893" 
d="M449 954h-4l-190 211h13l179 -200l179 200h13zM793 890q7 2 10 0v-497q0 -174 -99 -292.5t-269 -118.5q-161 0 -253 102t-92 300v506q6 4 10 0v-507q0 -193 89.5 -292t245.5 -99q161 0 259.5 112.5t98.5 290.5v495z" />
    <glyph glyph-name="uni01D4" unicode="&#x1d4;" horiz-adv-x="687" 
d="M350 780h-4l-190 221h13l179 -209l179 209h13zM611 116q0 -53 4 -73.5t18 -37.5v-5h-8q-14 16 -19 37.5t-5 78.5v137q-22 -117 -104 -194t-196 -77q-106 0 -167.5 71.5t-61.5 214.5v379q4 2 10 0v-379q0 -142 59 -209t160 -67q132 0 216 102.5t84 252.5v300q1 1 5 1t5 -1
v-531z" />
    <glyph glyph-name="uni01E2" unicode="&#x1e2;" horiz-adv-x="1349" 
d="M1113 992v-10h-401v10h401zM1303 10q1 -2 1 -5t-1 -5h-608v250h-476l-192 -250h-12l682 890h583q2 -7 -1 -10h-574v-447h491q2 -5 -1 -10h-490v-413h598zM227 260h468v610z" />
    <glyph glyph-name="uni01E3" unicode="&#x1e3;" horiz-adv-x="1117" 
d="M748 882v-10h-401v10h401zM837 698q112 0 180 -91t64 -248l-6 -7l-520 -67q11 -134 84 -213.5t174 -78.5q116 0 223 111q4 -1 7 -7q-109 -113 -230 -115q-105 -2 -181.5 80t-86.5 219q-26 -133 -121 -216t-207 -83q-84 0 -128 43.5t-44 116.5q0 109 96.5 177t290.5 68
q58 0 111 -6q-5 141 -60 223.5t-152 83.5q-106 2 -235 -97q-4 3 -2 11q127 96 237 96q95 0 153.5 -78t67.5 -213q23 125 101 208t184 83zM1071 362q4 155 -62.5 240.5t-171.5 85.5q-83 0 -150.5 -57t-102 -145.5t-30.5 -184.5v-6zM543 357v13q-61 7 -109 7
q-104 0 -181 -20.5t-119 -55.5t-61 -74.5t-19 -85.5q0 -69 41.5 -109t121.5 -40q132 0 229 109t97 256z" />
    <glyph glyph-name="Gcaron" unicode="&#x1e6;" horiz-adv-x="874" 
d="M465 954h-4l-190 211h13l179 -200l179 200h13zM789 618q-4 -3 -10 -1q2 126 -88 204.5t-228 78.5q-111 0 -197 -63t-130.5 -166t-44.5 -225q0 -208 109 -331t279 -123q76 0 157 25t143 74v302h-334q0 4 3 10h338l3 -5v-311q-61 -51 -145 -78t-165 -27
q-173 0 -285.5 125.5t-112.5 338.5q0 122 44.5 226.5t133.5 171t204 66.5q140 0 235 -81.5t91 -210.5z" />
    <glyph glyph-name="gcaron" unicode="&#x1e7;" horiz-adv-x="679" 
d="M341 780h-4l-190 221h13l179 -209l179 209h13zM598 650q7 0 9 -1v-3q-12 -111 -12 -134v-433q0 -167 -77 -263t-195 -96q-131 0 -256 115q0 7 5 9q126 -114 251 -114q114 0 188 93.5t74 256.5v184q-23 -121 -98 -201.5t-175 -80.5q-116 0 -194 89.5t-78 239.5
q0 94 35 181.5t105 146.5t159 59q91 0 157 -72t89 -183v104zM312 -8q111 0 190 103.5t83 265.5q-3 82 -32 155t-85.5 122.5t-128.5 49.5q-87 0 -155 -59t-101 -144t-33 -174q0 -135 70.5 -227t191.5 -92z" />
    <glyph glyph-name="uni01E8" unicode="&#x1e8;" horiz-adv-x="847" 
d="M442 934h-4l-190 211h13l179 -200l179 200h13zM407 472q171 -212 271 -324.5t151 -143.5v-2q-2 -2 -10 -2q-105 67 -418 468q-141 -86 -301 -166v-302h-10v890q2 1 5.5 1t4.5 -1v-578q290 151 415 244q254 187 246 334q5 2 9 0q6 -82 -59.5 -165.5t-191.5 -177.5
q-57 -42 -112 -75z" />
    <glyph glyph-name="uni01E9" unicode="&#x1e9;" horiz-adv-x="693" 
d="M357 1014h-4l-190 221h13l179 -209l179 209h13zM347 330q197 -230 251 -283q40 -37 59 -44v-3q-2 -2 -10 -2q-50 16 -307 327q-139 -96 -258 -155v-170h-10v932q5 2 10 0v-751q185 97 325 205q101 77 137.5 132.5t32.5 128.5q4 1 10 0q6 -73 -32.5 -133t-141.5 -136z" />
    <glyph glyph-name="uni01EB" unicode="&#x1eb;" horiz-adv-x="676" 
d="M357 -14q-62 -54 -94.5 -118.5t-32.5 -117.5q0 -39 22 -59t56 -19q24 0 50 18t42 45l8 -6q-17 -29 -45 -48t-55 -19q-38 -1 -63 21.5t-25 66.5q0 53 31 116t89 117q-10 -1 -30 -1q-126 0 -198 93.5t-72 229.5q0 161 95 277t234 116q118 0 192.5 -97.5t74.5 -237.5
q0 -144 -77.5 -251t-201.5 -126zM50 305q0 -130 68 -221.5t192 -91.5q138 0 227 109t89 262q0 138 -72 231.5t-185 93.5q-137 0 -228 -114t-91 -269z" />
    <glyph glyph-name="uni01F0" unicode="&#x1f0;" horiz-adv-x="215" 
d="M112 780h-4l-190 221h13l179 -209l179 209h13zM105 647q6 2 10 0v-648q0 -54 -3.5 -89.5t-12.5 -66.5t-27.5 -46.5t-47.5 -15.5q-33 0 -74 17q-2 7 1 10q45 -17 73 -17q45 0 63 48t18 161v647z" />
    <glyph glyph-name="uni01F4" unicode="&#x1f4;" horiz-adv-x="798" 
d="M595 1160l-174 -208h-13l174 208h13zM753 618q-4 -3 -10 -1q2 126 -88 204.5t-228 78.5q-111 0 -197 -63t-130.5 -166t-44.5 -225q0 -208 109 -331t279 -123q76 0 157 25t143 74v302h-334q0 4 3 10h338l3 -5v-311q-61 -51 -145 -78t-165 -27q-173 0 -285.5 125.5
t-112.5 338.5q0 122 44.5 226.5t133.5 171t204 66.5q140 0 235 -81.5t91 -210.5z" />
    <glyph glyph-name="uni01F4" unicode="&#x1f5;" horiz-adv-x="798" 
d="M595 1160l-174 -208h-13l174 208h13zM753 618q-4 -3 -10 -1q2 126 -88 204.5t-228 78.5q-111 0 -197 -63t-130.5 -166t-44.5 -225q0 -208 109 -331t279 -123q76 0 157 25t143 74v302h-334q0 4 3 10h338l3 -5v-311q-61 -51 -145 -78t-165 -27q-173 0 -285.5 125.5
t-112.5 338.5q0 122 44.5 226.5t133.5 171t204 66.5q140 0 235 -81.5t91 -210.5z" />
    <glyph glyph-name="uni01F8" unicode="&#x1f8;" horiz-adv-x="894" 
d="M464 952h-13l-180 194h13zM794 890q6 4 10 0v-890h-9l-695 871v-871h-10v886q3 6 8 4l696 -873v873z" />
    <glyph glyph-name="uni01F9" unicode="&#x1f9;" horiz-adv-x="711" 
d="M470 780h-11l-148 245h12zM459 698q107 0 166 -92t59 -255v-351h-10v353q0 152 -55 243.5t-160 91.5q-59 0 -116.5 -36t-98 -91.5t-65.5 -124.5t-25 -134v-302h-10v531q0 65 -14 111v4q6 3 9 1q15 -40 15 -88v-171q28 122 115 216t190 94z" />
    <glyph glyph-name="Aringacute" unicode="&#x1fa;" horiz-adv-x="829" 
d="M525 1310l-101 -167h-11l100 167h12zM423 914q-52 0 -86.5 29t-34.5 73t34.5 74t86.5 30q51 0 87 -30.5t36 -73.5t-36 -72.5t-87 -29.5zM423 1110q-48 0 -79.5 -26.5t-31.5 -67.5q0 -40 31 -66t80 -26q47 0 80 27t33 65q0 39 -33 66.5t-80 27.5zM430 890l384 -889v-1h-10
q-6 13 -21.5 49t-40 93t-46.5 108h-557l-113 -250h-11l404 890q1 1 5 1t6 -1zM144 260h548q-106 246 -268 618z" />
    <glyph glyph-name="aringacute" unicode="&#x1fb;" horiz-adv-x="625" 
d="M459 1121l-101 -167h-11l100 167h12zM357 725q-52 0 -86.5 29t-34.5 73t34.5 74t86.5 30q51 0 87 -30.5t36 -73.5t-36 -72.5t-87 -29.5zM357 921q-48 0 -79.5 -26.5t-31.5 -67.5q0 -40 31 -66t80 -26q47 0 80 27t33 65q0 39 -33 66.5t-80 27.5zM554 121q0 -57 6 -80.5
t20 -36.5v-4h-9q-27 24 -27 121v159q-20 -110 -115 -204t-212 -94q-84 0 -128 43.5t-44 116.5q0 109 96.5 177t290.5 68q58 0 111 -6q-5 141 -60 223.5t-152 83.5q-106 2 -235 -97q-4 3 -2 11q127 96 237 96q103 0 163 -90.5t60 -260.5v-226zM217 -8q87 0 164 56t120 140
t43 169v13q-61 7 -110 7q-104 0 -181 -20.5t-119 -55.5t-61 -74.5t-19 -85.5q0 -69 41.5 -109t121.5 -40z" />
    <glyph glyph-name="AEacute" unicode="&#x1fc;" horiz-adv-x="1349" 
d="M1081 1140l-174 -208h-13l174 208h13zM1303 10q1 -2 1 -5t-1 -5h-608v250h-476l-192 -250h-12l682 890h583q2 -7 -1 -10h-574v-447h491q2 -5 -1 -10h-490v-413h598zM227 260h468v610z" />
    <glyph glyph-name="aeacute" unicode="&#x1fd;" horiz-adv-x="1117" 
d="M689 1025l-149 -245h-11l148 245h12zM837 698q112 0 180 -91t64 -248l-6 -7l-520 -67q11 -134 84 -213.5t174 -78.5q116 0 223 111q4 -1 7 -7q-109 -113 -230 -115q-105 -2 -181.5 80t-86.5 219q-26 -133 -121 -216t-207 -83q-84 0 -128 43.5t-44 116.5q0 109 96.5 177
t290.5 68q58 0 111 -6q-5 141 -60 223.5t-152 83.5q-106 2 -235 -97q-4 3 -2 11q127 96 237 96q95 0 153.5 -78t67.5 -213q23 125 101 208t184 83zM1071 362q4 155 -62.5 240.5t-171.5 85.5q-83 0 -150.5 -57t-102 -145.5t-30.5 -184.5v-6zM543 357v13q-61 7 -109 7
q-104 0 -181 -20.5t-119 -55.5t-61 -74.5t-19 -85.5q0 -69 41.5 -109t121.5 -40q132 0 229 109t97 256z" />
    <glyph glyph-name="Oslashacute" unicode="&#x1fe;" horiz-adv-x="842" 
d="M601 1150l-174 -208h-13l174 208h13zM666 819q64 -64 98.5 -160.5t32.5 -204.5q-2 -121 -55 -229t-148.5 -175.5t-210.5 -67.5q-138 0 -226 96l-54 -78h-12l59 86q-103 119 -105 319q-1 136 50.5 251.5t146 184.5t211.5 69q116 0 206 -84l46 67h12zM55 405
q2 -195 101 -311l497 723q-88 83 -200 83q-171 0 -285 -144t-113 -351zM787 454q1 107 -32.5 200.5t-94.5 155.5l-497 -723q85 -95 220 -95q164 0 282.5 136t121.5 326z" />
    <glyph glyph-name="oslashacute" unicode="&#x1ff;" horiz-adv-x="676" 
d="M510 1025l-149 -245h-11l148 245h12zM571 587q65 -93 65 -224q0 -158 -92.5 -269.5t-233.5 -111.5q-112 0 -183 77l-50 -59h-12v2l55 64q-80 92 -80 239q0 161 95 277t234 116q120 0 196 -102l43 51h13v-1zM50 305q0 -143 76 -231l131 155l25 30l87 103l22 27l168 199
q-74 100 -190 100q-137 0 -228 -114t-91 -269zM310 -8q138 0 227 109t89 262q0 127 -61 216l-158 -187l-30 -36l-244 -290q69 -74 177 -74z" />
    <glyph glyph-name="uni0202" unicode="&#x202;" horiz-adv-x="829" 
d="M425 1147q-75 0 -125.5 -48.5t-50.5 -126.5h-10q0 84 54.5 134.5t131.5 50.5q79 0 132 -49.5t53 -135.5h-10q0 81 -49.5 128t-125.5 47zM430 890l384 -889v-1h-10q-6 13 -21.5 49t-40 93t-46.5 108h-557l-113 -250h-11l404 890q1 1 5 1t6 -1zM144 260h548
q-106 246 -268 618z" />
    <glyph glyph-name="uni0203" unicode="&#x203;" horiz-adv-x="625" 
d="M331 955q-75 0 -125.5 -48.5t-50.5 -126.5h-10q0 84 54.5 134.5t131.5 50.5q79 0 132 -49.5t53 -135.5h-10q0 81 -49.5 128t-125.5 47zM554 121q0 -57 6 -80.5t20 -36.5v-4h-9q-27 24 -27 121v159q-20 -110 -115 -204t-212 -94q-84 0 -128 43.5t-44 116.5q0 109 96.5 177
t290.5 68q58 0 111 -6q-5 141 -60 223.5t-152 83.5q-106 2 -235 -97q-4 3 -2 11q127 96 237 96q103 0 163 -90.5t60 -260.5v-226zM217 -8q87 0 164 56t120 140t43 169v13q-61 7 -110 7q-104 0 -181 -20.5t-119 -55.5t-61 -74.5t-19 -85.5q0 -69 41.5 -109t121.5 -40z" />
    <glyph glyph-name="uni0206" unicode="&#x206;" horiz-adv-x="744" 
d="M396 1147q-75 0 -125.5 -48.5t-50.5 -126.5h-10q0 84 54.5 134.5t131.5 50.5q79 0 132 -49.5t53 -135.5h-10q0 81 -49.5 128t-125.5 47zM698 10q2 -2 2 -5t-2 -5h-608v887l2 3h583q2 -7 -1 -10h-574v-447h491q2 -5 -1 -10h-490v-413h598z" />
    <glyph glyph-name="uni0207" unicode="&#x207;" horiz-adv-x="613" 
d="M333 955q-75 0 -125.5 -48.5t-50.5 -126.5h-10q0 84 54.5 134.5t131.5 50.5q79 0 132 -49.5t53 -135.5h-10q0 81 -49.5 128t-125.5 47zM333 698q112 0 180 -91t64 -248l-6 -7l-520 -67q11 -134 84 -213.5t174 -79.5q117 2 223 112q4 -1 7 -7q-109 -113 -230 -115
q-109 -2 -186.5 85.5t-82.5 233.5q-4 102 32.5 193t106 147.5t154.5 56.5zM567 362q4 155 -62.5 240.5t-171.5 85.5q-83 0 -150.5 -57t-102 -145.5t-30.5 -184.5v-6z" />
    <glyph glyph-name="uni020A" unicode="&#x20a;" 
d="M-162 972q0 84 54.5 134.5t131.5 50.5q79 0 132 -49.5t53 -135.5h-10q0 81 -49.5 128t-125.5 47q-75 0 -125.5 -48.5t-50.5 -126.5h-10zM19 0v890q6 4 10 0v-890h-10z" />
    <glyph glyph-name="uni020B" unicode="&#x20b;" horiz-adv-x="210" 
d="M-81 780q0 84 54.5 134.5t131.5 50.5q79 0 132 -49.5t53 -135.5h-10q0 81 -49.5 128t-125.5 47q-75 0 -125.5 -48.5t-50.5 -126.5h-10zM100 0v647q6 4 10 0v-647h-10z" />
    <glyph glyph-name="uni020E" unicode="&#x20e;" horiz-adv-x="842" 
d="M247 982q0 84 54.5 134.5t131.5 50.5q79 0 132 -49.5t53 -135.5h-10q0 81 -49.5 128t-125.5 47q-75 0 -125.5 -48.5t-50.5 -126.5h-10zM383 -18q-106 0 -183.5 58.5t-115.5 153t-39 211.5q-1 136 50.5 251.5t146 184.5t211.5 69q102 0 182.5 -64t122 -168t39.5 -224
q-2 -121 -55 -229t-148.5 -175.5t-210.5 -67.5zM383 -8q164 0 282.5 136t121.5 326q3 185 -92.5 315.5t-241.5 130.5q-171 0 -285 -144t-113 -351q1 -111 36 -202.5t111 -151t181 -59.5z" />
    <glyph glyph-name="uni020F" unicode="&#x20f;" horiz-adv-x="676" 
d="M183 780q0 84 54.5 134.5t131.5 50.5q79 0 132 -49.5t53 -135.5h-10q0 81 -49.5 128t-125.5 47q-75 0 -125.5 -48.5t-50.5 -126.5h-10zM310 -18q-126 0 -198 93.5t-72 229.5q0 161 95 277t234 116q118 0 192.5 -97.5t74.5 -237.5q0 -158 -92.5 -269.5t-233.5 -111.5z
M310 -8q138 0 227 109t89 262q0 138 -72 231.5t-185 93.5q-137 0 -228 -114t-91 -269q0 -130 68 -221.5t192 -91.5z" />
    <glyph glyph-name="uni0212" unicode="&#x212;" horiz-adv-x="843" 
d="M405 1157q-75 0 -125.5 -48.5t-50.5 -126.5h-10q0 84 54.5 134.5t131.5 50.5q79 0 132 -49.5t53 -135.5h-10q0 81 -49.5 128t-125.5 47zM503 316q221 -269 295 -312v-2q-2 -2 -9 -2q-19 10 -39.5 26t-87.5 89t-170 199q-46 -9 -100 -9q-75 1 -160.5 17t-131.5 33v-355
h-10v869q74 24 142.5 32.5t172.5 8.5q158 0 250.5 -82t92.5 -229q0 -107 -65.5 -182.5t-179.5 -100.5zM392 315q150 -2 248 75t98 209q0 135 -86 218t-247 83q-191 0 -305 -38v-496q139 -49 292 -51z" />
    <glyph glyph-name="uni0213" unicode="&#x213;" horiz-adv-x="514" 
d="M266 986q-75 0 -125.5 -48.5t-50.5 -126.5h-10q0 84 54.5 134.5t131.5 50.5q79 0 132 -49.5t53 -135.5h-10q0 81 -49.5 128t-125.5 47zM478 674q1 -7 -2 -10q-60 24 -112 24q-80 0 -143 -58.5t-94 -146.5t-31 -185v-298h-10v531q0 65 -14 111v4q6 3 9 1q15 -40 15 -88
v-157q21 126 95 211t173 85q54 0 114 -24z" />
    <glyph glyph-name="uni0218" unicode="&#x218;" horiz-adv-x="790" 
d="M419 -18q-102 0 -200.5 36t-173.5 103q0 5 4 9q75 -66 173 -102t197 -36q150 0 233 66t83 178q0 57 -24.5 97.5t-72 64t-104 35.5t-134.5 17q-270 18 -270 223q0 57 27 104t69.5 75t90.5 43t94 15q150 0 238.5 -70.5t88.5 -179.5q-6 -2 -10 -2q-1 113 -89 177.5
t-228 64.5q-110 0 -190.5 -65t-80.5 -163q0 -196 262 -212q184 -11 263.5 -66.5t79.5 -157.5q0 -111 -82.5 -182.5t-243.5 -71.5zM368 -289l45 206h10l-45 -206h-10z" />
    <glyph glyph-name="uni0219" unicode="&#x219;" horiz-adv-x="620" 
d="M326 -18q-71 0 -148.5 29t-131.5 82q0 7 5 9q52 -51 126.5 -80.5t148.5 -29.5q99 0 168.5 47t69.5 120q0 87 -57.5 132t-200.5 52q-234 14 -234 172q0 75 69 129t171 54q144 0 247 -79q0 -3 -5 -8q-103 77 -242 77q-104 0 -167 -53.5t-63 -119.5q0 -150 225 -162
q148 -8 207.5 -55t59.5 -138q0 -83 -75.5 -130.5t-172.5 -47.5zM280 -307l45 206h10l-45 -206h-10z" />
    <glyph glyph-name="uni021A" unicode="&#x21a;" horiz-adv-x="738" 
d="M723 890q1 -5 -2 -10h-363v-880h-10v880h-333q-2 5 3 10h705zM301 -279l45 206h10l-45 -206h-10z" />
    <glyph glyph-name="uni021B" unicode="&#x21b;" horiz-adv-x="445" 
d="M427 637h-325v-349q0 -140 53 -218.5t148 -77.5q47 0 107 23q2 -2 2 -10q-60 -23 -109 -23q-97 0 -154 79.5t-57 226.5v349h-82v10h82v183q3 3 10 3v-186h325v-10zM222 -306l45 206h10l-45 -206h-10z" />
    <glyph glyph-name="uni0237" unicode="&#x237;" horiz-adv-x="215" 
d="M24 -219q-33 0 -74 17q-2 7 1 10q45 -17 73 -17q45 0 63 48t18 161v647q6 2 10 0v-648q0 -54 -3.5 -89.5t-12.5 -66.5t-27.5 -46.5t-47.5 -15.5z" />
    <glyph glyph-name="circumflex" unicode="&#x2c6;" horiz-adv-x="528" 
d="M456 729h-13l-179 209l-179 -209h-13l190 221h4z" />
    <glyph glyph-name="caron" unicode="&#x2c7;" horiz-adv-x="528" 
d="M443 950h13l-190 -221h-4l-190 221h13l179 -209z" />
    <glyph glyph-name="breve" unicode="&#x2d8;" horiz-adv-x="515" 
d="M257 724q-79 0 -132 49.5t-53 135.5h10q0 -79 48.5 -127t126.5 -48q75 0 125.5 48.5t50.5 126.5h10q0 -84 -54.5 -134.5t-131.5 -50.5z" />
    <glyph glyph-name="dotaccent" unicode="&#x2d9;" horiz-adv-x="171" 
d="M85 783q-13 0 -13 17q0 19 13 19q14 0 14 -19q0 -17 -14 -17z" />
    <glyph glyph-name="ring" unicode="&#x2da;" horiz-adv-x="463" 
d="M230 724q-66 0 -112 36.5t-46 96.5q0 58 44.5 96t113.5 38q66 0 113.5 -38t47.5 -96t-50 -95.5t-111 -37.5zM230 734q62 0 106.5 36.5t44.5 86.5q0 52 -44.5 88t-106.5 36q-66 0 -107 -36.5t-41 -87.5q0 -52 40.5 -87.5t107.5 -35.5z" />
    <glyph glyph-name="ogonek" unicode="&#x2db;" horiz-adv-x="332" 
d="M160 -318q-38 -1 -63 21.5t-25 66.5q0 55 34.5 122t98.5 123l6 -8q-63 -54 -96 -118.5t-33 -118.5q0 -39 22 -59t56 -19q24 0 50 18t42 45l8 -6q-17 -29 -45 -48t-55 -19z" />
    <glyph glyph-name="tilde" unicode="&#x2dc;" horiz-adv-x="536" 
d="M388 764q-27 0 -61 21t-61 45.5t-60 45.5t-59 21q-29 0 -47 -35t-18 -93h-10q0 65 21.5 101.5t54.5 36.5q28 0 61.5 -21t60 -45.5t59.5 -45.5t59 -21q31 0 48.5 36.5t17.5 92.5l10 -1q0 -61 -21 -99.5t-55 -38.5z" />
    <glyph glyph-name="hungarumlaut" unicode="&#x2dd;" horiz-adv-x="478" 
d="M72 729l147 245h12l-148 -245h-11zM247 729l147 245h12l-148 -245h-11z" />
    <glyph glyph-name="gravecomb" unicode="&#x300;" 
d="M-83 729l-148 245h12l147 -245h-11z" />
    <glyph glyph-name="acutecomb" unicode="&#x301;" 
d="M-232 729l148 245h12l-149 -245h-11z" />
    <glyph glyph-name="uni0302" unicode="&#x302;" 
d="M-72 729h-13l-179 209l-179 -209h-13l190 221h4z" />
    <glyph glyph-name="tildecomb" unicode="&#x303;" 
d="M-148 764q-27 0 -61 21t-61 45.5t-60 45.5t-59 21q-29 0 -47 -35t-18 -93h-10q0 65 21.5 101.5t54.5 36.5q28 0 61.5 -21t60 -45.5t59.5 -45.5t59 -21q31 0 48.5 36.5t17.5 92.5l10 -1q0 -61 -21 -99.5t-55 -38.5z" />
    <glyph glyph-name="uni0304" unicode="&#x304;" 
d="M-473 821v10h401v-10h-401z" />
    <glyph glyph-name="uni0306" unicode="&#x306;" 
d="M-258 724q-79 0 -132 49.5t-53 135.5h10q0 -79 48.5 -127t126.5 -48q75 0 125.5 48.5t50.5 126.5h10q0 -84 -54.5 -134.5t-131.5 -50.5z" />
    <glyph glyph-name="uni0307" unicode="&#x307;" 
d="M-86 783q-13 0 -13 17q0 19 13 19q14 0 14 -19q0 -17 -14 -17z" />
    <glyph glyph-name="uni0308" unicode="&#x308;" 
d="M-341 783q-13 0 -13 17q0 19 13 19q14 0 14 -19q0 -17 -14 -17zM-86 783q-13 0 -13 17q0 19 13 19q14 0 14 -19q0 -17 -14 -17z" />
    <glyph glyph-name="uni030A" unicode="&#x30a;" 
d="M-233 724q-66 0 -112 36.5t-46 96.5q0 58 44.5 96t113.5 38q66 0 113.5 -38t47.5 -96t-50 -95.5t-111 -37.5zM-233 734q62 0 106.5 36.5t44.5 86.5q0 52 -44.5 88t-106.5 36q-66 0 -107 -36.5t-41 -87.5q0 -52 40.5 -87.5t107.5 -35.5z" />
    <glyph glyph-name="uni030B" unicode="&#x30b;" 
d="M-406 729l147 245h12l-148 -245h-11zM-231 729l147 245h12l-148 -245h-11z" />
    <glyph glyph-name="uni030C" unicode="&#x30c;" 
d="M-85 950h13l-190 -221h-4l-190 221h13l179 -209z" />
    <glyph glyph-name="uni0311" unicode="&#x311;" 
d="M-443 729q0 84 54.5 134.5t131.5 50.5q79 0 132 -49.5t53 -135.5h-10q0 81 -49.5 128t-125.5 47q-75 0 -125.5 -48.5t-50.5 -126.5h-10z" />
    <glyph glyph-name="uni0312" unicode="&#x312;" 
d="M-132 761l45 206h10l-45 -206h-10z" />
    <glyph glyph-name="uni0326" unicode="&#x326;" 
d="M-149 -289l45 206h10l-45 -206h-10z" />
    <glyph glyph-name="uni0327" unicode="&#x327;" 
d="M-143 -313q-40 -2 -81 49l6 8q37 -47 75 -47q26 0 43.5 23.5t17.5 59.5q0 52 -35 98q-35 45 -43 66t-8 62h10q0 -38 7 -57t41 -64q38 -51 38 -105q0 -40 -20 -66.5t-51 -26.5z" />
    <glyph glyph-name="uni0328" unicode="&#x328;" 
d="M-172 -318q-38 -1 -63 21.5t-25 66.5q0 55 34.5 122t98.5 123l6 -8q-63 -54 -96 -118.5t-33 -118.5q0 -39 22 -59t56 -19q24 0 50 18t42 45l8 -6q-17 -29 -45 -48t-55 -19z" />
    <glyph glyph-name="uni03BC" unicode="&#x3bc;" horiz-adv-x="703" 
d="M643 116q0 -53 4 -73.5t18 -37.5v-5h-8q-14 16 -19 37.5t-5 78.5v137q-22 -117 -104 -194t-196 -77q-85 0 -142 45.5t-77 137.5v-445h-10v927q4 2 10 0v-379q0 -142 59 -209t160 -67q132 0 216 102.5t84 252.5v300q1 1 5 1t5 -1v-531z" />
    <glyph glyph-name="uni1E02" unicode="&#x1e02;" horiz-adv-x="795" 
d="M371 993q-13 0 -13 17q0 19 13 19q14 0 14 -19q0 -17 -14 -17zM522 518q228 -37 228 -242q0 -139 -93.5 -216t-250.5 -78q-112 0 -176 9t-140 34v854q115 31 282 31q71 0 127 -14.5t89 -37t54 -52.5t29 -57.5t8 -55.5q0 -61 -41 -109.5t-116 -65.5zM669 693q0 36 -14 70
t-45.5 66t-92.5 51.5t-145 19.5q-164 0 -272 -29v-401q49 25 137 40.5t172 15.5q52 0 86 -5q83 14 128.5 62t45.5 110zM406 -8q159 0 246.5 78t87.5 206q0 118 -79.5 179t-251.5 61q-83 0 -167.5 -15t-141.5 -41v-428q113 -40 306 -40z" />
    <glyph glyph-name="uni1E03" unicode="&#x1e03;" horiz-adv-x="670" 
d="M341 1046q-13 0 -13 17q0 19 13 19q14 0 14 -19q0 -17 -14 -17zM381 698q112 0 180.5 -94.5t68.5 -232.5q0 -160 -82 -274.5t-205 -114.5q-52 0 -96.5 22.5t-75 59t-50 78t-28.5 84.5v-84q0 -80 -14 -142h-7v8q11 59 11 133v791q1 1 5 1t5 -1v-531q26 121 107.5 209
t180.5 88zM343 -8q80 0 144.5 54.5t99 140.5t33.5 184q-1 136 -67.5 226.5t-171.5 90.5q-76 0 -143.5 -57t-106 -144t-38.5 -175q0 -125 71 -222.5t179 -97.5z" />
    <glyph glyph-name="uni1E0A" unicode="&#x1e0a;" horiz-adv-x="829" 
d="M359 1003q-13 0 -13 17q0 19 13 19q14 0 14 -19q0 -17 -14 -17zM360 910q196 0 310 -125t114 -329q0 -214 -108 -344t-296 -130q-93 0 -149 9t-141 34v854q116 31 270 31zM380 -8q185 0 288.5 128t105.5 336q1 92 -25.5 172t-77 141t-131 96t-180.5 35q-163 0 -260 -29
v-838q126 -41 280 -41z" />
    <glyph glyph-name="uni1E0B" unicode="&#x1e0b;" horiz-adv-x="678" 
d="M331 1068q-13 0 -13 17q0 19 13 19q14 0 14 -19q0 -17 -14 -17zM595 141q0 -74 11 -133v-8h-7q-14 40 -14 142v119q-10 -46 -31.5 -93t-55.5 -89.5t-84 -69.5t-107 -27q-116 0 -191.5 93t-75.5 236q0 99 38 187.5t107.5 144t153.5 55.5q90 0 158.5 -71.5t87.5 -179.5v485
q1 1 5 1t5 -1v-791zM307 -8q80 0 145.5 55.5t99 136t33.5 162.5q0 147 -70.5 244.5t-175.5 97.5q-79 0 -146 -52.5t-105 -139t-38 -185.5q-1 -136 71 -227.5t186 -91.5z" />
    <glyph glyph-name="uni1E1E" unicode="&#x1e1e;" horiz-adv-x="721" 
d="M370 983q-13 0 -13 17q0 19 13 19q14 0 14 -19q0 -17 -14 -17zM674 879h-574v-501h487v-4t-1 -4v-2h-486v-368h-10v885l3 4h583q1 -2 -2 -10z" />
    <glyph glyph-name="uni1E1F" unicode="&#x1e1f;" horiz-adv-x="309" 
d="M267 1073q-13 0 -13 17q0 19 13 19q14 0 14 -19q0 -17 -14 -17zM350 924q-156 -3 -162 -277h219v-10h-219v-12v-625h-10v625v12h-169v10h169q4 143 48 215t124 72q48 0 103 -23q0 -6 -2 -10q-50 23 -101 23z" />
    <glyph glyph-name="uni1E40" unicode="&#x1e40;" horiz-adv-x="989" 
d="M494 983q-13 0 -13 17q0 19 13 19q14 0 14 -19q0 -17 -14 -17zM944 0h-10l-77 869l-358 -703h-9l-360 706l-75 -872h-10l77 888q2 2 5.5 2.5t4.5 -0.5l363 -711l362 711q4 2 9 -3z" />
    <glyph glyph-name="uni1E41" unicode="&#x1e41;" horiz-adv-x="960" 
d="M509 834q-13 0 -13 17q0 19 13 19q14 0 14 -19q0 -17 -14 -17zM733 698q73 0 114 -78.5t41 -218.5v-401h-10v403q0 130 -37 207.5t-108 77.5q-69 0 -125.5 -57.5t-86 -140t-29.5 -166.5v-324h-10v403q0 285 -145 285q-66 0 -123 -60.5t-87.5 -149t-30.5 -176.5v-302h-10
v531q0 65 -14 111v4q6 3 9 1q15 -40 15 -88v-162q23 122 89 211.5t152 89.5q148 0 155 -283q23 117 87.5 200t153.5 83z" />
    <glyph glyph-name="uni1E56" unicode="&#x1e56;" horiz-adv-x="794" 
d="M400 1003q-13 0 -13 17q0 19 13 19q14 0 14 -19q0 -17 -14 -17zM401 910q159 0 253.5 -86t94.5 -240q0 -126 -96.5 -208t-263.5 -82q-165 0 -289 54v-348h-10v869q127 41 311 41zM389 304q156 0 253 76.5t97 203.5q0 148 -91 232t-247 84q-191 0 -301 -40v-500
q116 -56 289 -56z" />
    <glyph glyph-name="uni1E57" unicode="&#x1e57;" horiz-adv-x="669" 
d="M356 834q-13 0 -13 17q0 19 13 19q14 0 14 -19q0 -17 -14 -17zM380 698q112 0 180.5 -93t68.5 -244q0 -97 -36.5 -183.5t-103.5 -141t-148 -54.5q-90 0 -158 69.5t-91 169.5v-453q-7 -2 -10 0v754q0 58 -10 120v4q2 1 9 1l11 -71v-178q26 126 108.5 213t179.5 87zM341 -8
q81 0 146 56t98.5 139.5t33.5 173.5q0 149 -67.5 238t-171.5 89q-76 0 -143.5 -55.5t-106 -144.5t-38.5 -186q0 -121 73 -215.5t176 -94.5z" />
    <glyph glyph-name="uni1E60" unicode="&#x1e60;" horiz-adv-x="790" 
d="M410 1003q-13 0 -13 17q0 19 13 19q14 0 14 -19q0 -17 -14 -17zM419 -18q-102 0 -200.5 36t-173.5 103q0 5 4 9q75 -66 173 -102t197 -36q150 0 233 66t83 178q0 57 -24.5 97.5t-72 64t-104 35.5t-134.5 17q-270 18 -270 223q0 57 27 104t69.5 75t90.5 43t94 15
q150 0 238.5 -70.5t88.5 -179.5q-6 -2 -10 -2q-1 113 -89 177.5t-228 64.5q-110 0 -190.5 -65t-80.5 -163q0 -196 262 -212q184 -11 263.5 -66.5t79.5 -157.5q0 -111 -82.5 -182.5t-243.5 -71.5z" />
    <glyph glyph-name="uni1E61" unicode="&#x1e61;" horiz-adv-x="620" 
d="M311 834q-13 0 -13 17q0 19 13 19q14 0 14 -19q0 -17 -14 -17zM326 -18q-71 0 -148.5 29t-131.5 82q0 7 5 9q52 -51 126.5 -80.5t148.5 -29.5q99 0 168.5 47t69.5 120q0 87 -57.5 132t-200.5 52q-234 14 -234 172q0 75 69 129t171 54q144 0 247 -79q0 -3 -5 -8
q-103 77 -242 77q-104 0 -167 -53.5t-63 -119.5q0 -150 225 -162q148 -8 207.5 -55t59.5 -138q0 -83 -75.5 -130.5t-172.5 -47.5z" />
    <glyph glyph-name="uni1E6A" unicode="&#x1e6a;" horiz-adv-x="738" 
d="M353 983q-13 0 -13 17q0 19 13 19q14 0 14 -19q0 -17 -14 -17zM723 890q1 -5 -2 -10h-363v-880h-10v880h-333q-2 5 3 10h705z" />
    <glyph glyph-name="uni1E6B" unicode="&#x1e6b;" horiz-adv-x="445" 
d="M98 969q-13 0 -13 17q0 19 13 19q14 0 14 -19q0 -17 -14 -17zM427 637h-325v-349q0 -140 53 -218.5t148 -77.5q47 0 107 23q2 -2 2 -10q-60 -23 -109 -23q-97 0 -154 79.5t-57 226.5v349h-82v10h82v183q3 3 10 3v-186h325v-10z" />
    <glyph glyph-name="Wgrave" unicode="&#x1e80;" horiz-adv-x="1151" 
d="M580 952l-180 194h13l180 -194h-13zM422 0l-7 5q-70 227 -185.5 471t-214.5 411l1 3q5 2 9 0q113 -195 223 -430.5t175 -449.5h2q62 100 133.5 242.5t93.5 229.5q-13 39 -92 243q1 5 8 5q45 -110 132 -350t129 -370h2q150 220 231.5 453.5t58.5 426.5q3 3 10 0
q23 -190 -58 -427t-234 -457l-7 -6h-6l-5 4q-123 360 -163 461q-22 -80 -102.5 -240t-124.5 -222l-5 -3h-4z" />
    <glyph glyph-name="wgrave" unicode="&#x1e81;" horiz-adv-x="742" 
d="M381 729l-148 245h12l147 -245h-11zM267 0l-6 4q-88 344 -251 640l1 3q4 1 8 0q154 -263 251 -637h2q40 80 80 187.5t60 190.5l-62 180q2 7 9 4q57 -159 88 -264.5t75 -297.5h2q86 140 144.5 318t52.5 319q4 2 9 0q11 -117 -49 -309.5t-149 -332.5l-5 -5h-9l-5 4
q-56 248 -95 368q-18 -73 -60 -186t-78 -181l-5 -5h-8z" />
    <glyph glyph-name="Wacute" unicode="&#x1e82;" horiz-adv-x="1151" 
d="M557 932l174 208h13l-174 -208h-13zM422 0l-7 5q-70 227 -185.5 471t-214.5 411l1 3q5 2 9 0q113 -195 223 -430.5t175 -449.5h2q62 100 133.5 242.5t93.5 229.5q-13 39 -92 243q1 5 8 5q45 -110 132 -350t129 -370h2q150 220 231.5 453.5t58.5 426.5q3 3 10 0
q23 -190 -58 -427t-234 -457l-7 -6h-6l-5 4q-123 360 -163 461q-22 -80 -102.5 -240t-124.5 -222l-5 -3h-4z" />
    <glyph glyph-name="wacute" unicode="&#x1e83;" horiz-adv-x="742" 
d="M352 729l148 245h12l-149 -245h-11zM267 0l-6 4q-88 344 -251 640l1 3q4 1 8 0q154 -263 251 -637h2q40 80 80 187.5t60 190.5l-62 180q2 7 9 4q57 -159 88 -264.5t75 -297.5h2q86 140 144.5 318t52.5 319q4 2 9 0q11 -117 -49 -309.5t-149 -332.5l-5 -5h-9l-5 4
q-56 248 -95 368q-18 -73 -60 -186t-78 -181l-5 -5h-8z" />
    <glyph glyph-name="Wdieresis" unicode="&#x1e84;" horiz-adv-x="1151" 
d="M448 983q-13 0 -13 17q0 19 13 19q14 0 14 -19q0 -17 -14 -17zM703 983q-13 0 -13 17q0 19 13 19q14 0 14 -19q0 -17 -14 -17zM422 0l-7 5q-70 227 -185.5 471t-214.5 411l1 3q5 2 9 0q113 -195 223 -430.5t175 -449.5h2q62 100 133.5 242.5t93.5 229.5q-13 39 -92 243
q1 5 8 5q45 -110 132 -350t129 -370h2q150 220 231.5 453.5t58.5 426.5q3 3 10 0q23 -190 -58 -427t-234 -457l-7 -6h-6l-5 4q-123 360 -163 461q-22 -80 -102.5 -240t-124.5 -222l-5 -3h-4z" />
    <glyph glyph-name="wdieresis" unicode="&#x1e85;" horiz-adv-x="742" 
d="M243 783q-13 0 -13 17q0 19 13 19q14 0 14 -19q0 -17 -14 -17zM498 783q-13 0 -13 17q0 19 13 19q14 0 14 -19q0 -17 -14 -17zM267 0l-6 4q-88 344 -251 640l1 3q4 1 8 0q154 -263 251 -637h2q40 80 80 187.5t60 190.5l-62 180q2 7 9 4q57 -159 88 -264.5t75 -297.5h2
q86 140 144.5 318t52.5 319q4 2 9 0q11 -117 -49 -309.5t-149 -332.5l-5 -5h-9l-5 4q-56 248 -95 368q-18 -73 -60 -186t-78 -181l-5 -5h-8z" />
    <glyph glyph-name="uni1E9E" unicode="&#x1e9e;" horiz-adv-x="843" 
d="M286 499q53 -1 112.5 -8.5t131.5 -28t127.5 -50t93.5 -80t38 -113.5q0 -107 -94 -172t-225 -65q-170 0 -273 112q1 4 7 8q94 -110 266 -110q131 0 220 63.5t89 164.5q0 61 -38.5 110.5t-96 78t-129 47.5t-130.5 26t-109 7l-5 9l414 382h-365q-115 0 -167.5 -75
t-52.5 -201v-604h-10v604q0 131 55.5 208.5t174.5 77.5h382q1 -3 0 -7z" />
    <glyph glyph-name="Ygrave" unicode="&#x1ef2;" horiz-adv-x="754" 
d="M394 952h-13l-180 194h13zM739 890q10 -270 -329 -603v-287h-10v287q-42 71 -191.5 307t-193.5 293l1 3q2 1 5 1t4 -1q37 -47 184 -278t197 -315q333 324 323 593q4 1 10 0z" />
    <glyph glyph-name="ygrave" unicode="&#x1ef3;" horiz-adv-x="630" 
d="M346 782h-11l-148 245h12zM619 647q6 -113 -18.5 -244.5t-94 -280t-174.5 -252.5q-60 -59 -128 -90.5t-125 -31.5q-36 0 -68 16q-2 7 0 10l2 1q29 -17 66 -17q55 0 123.5 32.5t124.5 88.5q59 59 110 137q-63 41 -133 129t-124 184t-93.5 179.5t-56.5 134.5l1 3q3 1 9 1
q17 -62 76 -182t152.5 -254.5t174.5 -186.5q89 141 130.5 307.5t35.5 315.5q7 3 10 0z" />
    <glyph glyph-name="endash" unicode="&#x2013;" horiz-adv-x="1005" 
d="M216 352v10h573v-10h-573z" />
    <glyph glyph-name="emdash" unicode="&#x2014;" horiz-adv-x="1100" 
d="M216 352v10h668v-10h-668z" />
    <glyph glyph-name="quoteleft" unicode="&#x2018;" horiz-adv-x="291" 
d="M117 659l48 285h9l-50 -285h-7z" />
    <glyph glyph-name="quoteright" unicode="&#x2019;" horiz-adv-x="294" 
d="M117 659l50 285h10l-50 -285h-10z" />
    <glyph glyph-name="quotesinglbase" unicode="&#x201a;" horiz-adv-x="294" 
d="M117 -120l50 285h10l-50 -285h-10z" />
    <glyph glyph-name="quotedblleft" unicode="&#x201c;" horiz-adv-x="400" 
d="M117 659l48 285h10l-48 -285h-10zM225 659l48 285h10l-48 -285h-10z" />
    <glyph glyph-name="quotedblright" unicode="&#x201d;" horiz-adv-x="400" 
d="M117 659l48 285h10l-48 -285h-10zM225 659l48 285h10l-48 -285h-10z" />
    <glyph glyph-name="quotedblbase" unicode="&#x201e;" horiz-adv-x="402" 
d="M117 -120l50 285h10l-50 -285h-10zM225 -120l50 285h10l-50 -285h-10z" />
    <glyph glyph-name="dagger" unicode="&#x2020;" horiz-adv-x="685" 
d="M568 811v-10h-220v-930h-10v930h-221v10h221v181h10v-181h220z" />
    <glyph glyph-name="daggerdbl" unicode="&#x2021;" horiz-adv-x="699" 
d="M573 69v-10h-225v-188h-10v188h-216v10h216v732h-221v10h221v181h10v-181h220v-10h-220v-732h225z" />
    <glyph glyph-name="bullet" unicode="&#x2022;" horiz-adv-x="634" 
d="M317 323q-26 0 -45.5 25.5t-19.5 60.5q0 34 19.5 60.5t45.5 26.5q25 0 45 -26.5t20 -60.5q0 -35 -19.5 -60.5t-45.5 -25.5z" />
    <glyph glyph-name="ellipsis" unicode="&#x2026;" horiz-adv-x="596" 
d="M130 0q-13 0 -13 17q0 19 13 19q14 0 14 -19q0 -17 -14 -17zM298 0q-13 0 -13 17q0 19 13 19t13 -19q0 -17 -13 -17zM465 0q-13 0 -13 17q0 19 13 19q14 0 14 -19q0 -17 -14 -17z" />
    <glyph glyph-name="perthousand" unicode="&#x2030;" horiz-adv-x="1317" 
d="M117 0l658 890h12l-657 -890h-13zM302 494q-79 0 -132 50t-53 136q0 84 51.5 135.5t133.5 51.5t134 -51t52 -136q0 -84 -55 -135t-131 -51zM302 504q75 0 125.5 49.5t50.5 126.5q0 80 -48.5 128.5t-127.5 48.5q-78 0 -126.5 -49t-48.5 -128t48.5 -127.5t126.5 -48.5z
M584 0q-80 0 -133 50t-53 136q0 84 52 135.5t134 51.5q81 0 133.5 -51.5t52.5 -135.5t-55 -135t-131 -51zM1014 0q-80 0 -133 50t-53 136q0 84 52 135.5t134 51.5q81 0 133.5 -51.5t52.5 -135.5t-55 -135t-131 -51zM584 11q75 0 125.5 48.5t50.5 126.5q0 81 -48.5 128.5
t-127.5 47.5q-80 0 -128 -48.5t-48 -127.5t48.5 -127t127.5 -48zM1014 11q75 0 125.5 48.5t50.5 126.5q0 81 -48.5 128.5t-127.5 47.5q-80 0 -128 -48.5t-48 -127.5t48.5 -127t127.5 -48z" />
    <glyph glyph-name="guilsinglleft" unicode="&#x2039;" horiz-adv-x="692" 
d="M129 431l446 -279l-6 -8l-452 283v9l450 280l6 -8z" />
    <glyph glyph-name="guilsinglright" unicode="&#x203a;" horiz-adv-x="692" 
d="M125 716l450 -280v-9l-452 -283l-6 8l446 279l-444 277z" />
    <glyph glyph-name="fraction" unicode="&#x2044;" horiz-adv-x="964" 
d="M117 -130l719 1170h11l-718 -1170h-12z" />
    <glyph glyph-name="Euro" unicode="&#x20ac;" horiz-adv-x="823" 
d="M442 10q92 0 157.5 31t100.5 72l6 -7q-31 -40 -99 -73t-164 -33q-102 0 -188.5 94.5t-107.5 258.5h-66v10h65q-4 33 -4 78q0 35 3 67h-64v10h65q9 85 39 153t71.5 110t89.5 64t97 22q83 0 153.5 -32t109.5 -75l-8 -5q-41 43 -109.5 72.5t-146.5 29.5q-46 0 -92 -21
t-86 -61t-69.5 -106.5t-38.5 -150.5h346v-10h-347q-3 -32 -3 -67q0 -45 4 -78h317v-10h-316q21 -160 105 -251.5t180 -91.5z" />
    <glyph glyph-name="uni2116" unicode="&#x2116;" horiz-adv-x="1530" 
d="M1151 304q-112 0 -179 78.5t-67 209.5q0 134 76 226t186 92q108 0 175.5 -76t70.5 -199q4 -144 -71.5 -237.5t-190.5 -93.5zM1167 900q-106 0 -179 -89t-73 -219q0 -127 64.5 -202.5t171.5 -75.5q111 0 183.5 90.5t68.5 230.5q-3 118 -67.5 191.5t-168.5 73.5zM821 890
q6 4 10 0v-890h-9l-695 871v-871h-10v886q3 6 8 4l696 -873v873zM949 140v10h415v-10h-415z" />
    <glyph glyph-name="trademark" unicode="&#x2122;" horiz-adv-x="828" 
d="M376 890v-10h-124v-461h-10v461h-125v10h259zM711 890v-471h-10v444l-128 -381h-5l-132 382v-445h-10v471h12l132 -384l129 384h12z" />
    <glyph glyph-name="estimated" unicode="&#x212e;" horiz-adv-x="962" 
d="M845 408h-642v-255q107 -161 278 -161q71 0 149 45.5t124 113.5q6 0 8 -6q-46 -70 -126.5 -116.5t-154.5 -46.5q-156 0 -260 130t-104 324q0 197 104 328t260 131q157 0 261 -138.5t103 -348.5zM481 885q-84 0 -158.5 -44t-119.5 -122v-301h556v295q-51 85 -123 128.5
t-155 43.5z" />
    <glyph glyph-name="partialdiff" unicode="&#x2202;" horiz-adv-x="874" 
d="M412 910q71 0 130 -30t98 -80t66 -117t39 -139t12 -147q0 -206 -92 -310.5t-239 -104.5q-77 0 -138 25t-97 66t-55 88t-19 96q0 100 76 170t234 70q98 0 186.5 -26.5t133.5 -61.5q-1 93 -21.5 178t-59.5 156.5t-104.5 114t-149.5 42.5q-66 0 -134 -38t-108 -91
q-4 5 -2 12q40 53 110.5 90t133.5 37zM426 -8q145 0 233 102.5t88 302.5q-44 36 -133.5 63t-187.5 27q-149 0 -224 -65.5t-75 -164.5q0 -107 79.5 -186t219.5 -79z" />
    <glyph glyph-name="minus" unicode="&#x2212;" horiz-adv-x="685" 
d="M117 431v10h451v-10h-451z" />
    <glyph glyph-name="radical" unicode="&#x221a;" horiz-adv-x="987" 
d="M987 890v-10h-152l-362 -880h-12l-344 482h12l337 -472l362 880h159z" />
    <glyph glyph-name="infinity" unicode="&#x221e;" horiz-adv-x="1040" 
d="M732 677q83 0 137 -58t54 -172q0 -113 -54.5 -171t-136.5 -58q-48 0 -83.5 16t-59.5 49t-38 63t-30 78q-16 -48 -30 -78.5t-38 -63t-60 -48.5t-85 -16q-82 0 -136.5 58t-54.5 171q0 114 54 172t137 58q40 0 71.5 -13.5t51.5 -31.5t38.5 -52t28 -58t23.5 -67q14 43 23 67
t27 58t38 52t51.5 31.5t71.5 13.5zM308 227q38 0 69 12.5t51 30t38 49t27.5 56t22.5 64.5l-16.5 49.5t-17.5 44.5t-22 44.5t-25.5 35t-33.5 30.5t-41 16.5t-52 7.5q-76 0 -128.5 -54.5t-52.5 -165.5t52.5 -165.5t128.5 -54.5zM732 228q76 0 128.5 54t52.5 165t-52 165.5
t-129 54.5q-28 0 -52.5 -8t-41 -16.5t-33.5 -31t-25 -34t-21 -45t-16.5 -44l-16.5 -49.5q13 -40 22.5 -64.5t27.5 -56t37.5 -48.5t50 -29.5t68.5 -12.5z" />
    <glyph glyph-name="approxequal" unicode="&#x2248;" horiz-adv-x="648" 
d="M117 453q0 63 23 100t57 37q30 0 65.5 -20t62.5 -43.5t62 -43.5t64 -20q33 0 51.5 36t18.5 91h10q0 -61 -22 -99t-59 -38q-29 0 -64 20t-63 43.5t-63 43.5t-63 20q-31 0 -50.5 -35t-19.5 -92h-10zM117 316q0 63 23 100t57 37q30 0 65.5 -20t62.5 -43.5t62 -43.5t64 -20
q33 0 51.5 36t18.5 91h10q0 -61 -22 -99t-59 -38q-29 0 -64 20t-63 43.5t-63 43.5t-63 20q-31 0 -50.5 -35t-19.5 -92h-10z" />
    <glyph glyph-name="notequal" unicode="&#x2260;" horiz-adv-x="685" 
d="M568 508h-175l-65 -145h240v-10h-244l-145 -322h-10l144 322h-196v10h201l65 145h-266v10h270l165 368h11l-165 -368h170v-10z" />
    <glyph glyph-name="lessequal" unicode="&#x2264;" horiz-adv-x="692" 
d="M575 711l-446 -279l444 -277l-6 -8l-450 280v9l452 283zM158 86v10h413v-10h-413z" />
    <glyph glyph-name="greaterequal" unicode="&#x2265;" horiz-adv-x="692" 
d="M123 719l452 -283v-9l-450 -280l-6 8l444 277l-446 279zM117 84v10h413v-10h-413z" />
    <glyph glyph-name="i.loclTRK" horiz-adv-x="210" 
d="M104 834q-13 0 -13 17q0 19 13 19q14 0 14 -19q0 -17 -14 -17zM100 0v647q6 4 10 0v-647h-10z" />
    <glyph glyph-name="uni00A0.001" horiz-adv-x="335" 
 />
    <glyph glyph-name="uni030C.alt" 
d="M-102 630l16 333h10l-16 -333h-10z" />
    <glyph glyph-name="uni0308.case" 
d="M-341 983q-13 0 -13 17q0 19 13 19q14 0 14 -19q0 -17 -14 -17zM-86 983q-13 0 -13 17q0 19 13 19q14 0 14 -19q0 -17 -14 -17z" />
    <glyph glyph-name="uni0307.case" 
d="M-86 983q-13 0 -13 17q0 19 13 19q14 0 14 -19q0 -17 -14 -17z" />
    <glyph glyph-name="gravecomb.case" 
d="M-85 962l-180 194h13l180 -194h-13z" />
    <glyph glyph-name="acutecomb.case" 
d="M-209 932l174 208h13l-174 -208h-13z" />
    <glyph glyph-name="uni030B.case" 
d="M-346 959l117 165h12l-118 -165h-11zM-201 959l117 165h12l-118 -165h-11z" />
    <glyph glyph-name="uni0302.case" 
d="M-72 930h-13l-179 209l-179 -209h-13l190 221h4z" />
    <glyph glyph-name="uni030C.case" 
d="M-85 1145h13l-190 -211h-4l-190 211h13l179 -200z" />
    <glyph glyph-name="uni0306.case" 
d="M-248 764q-75 0 -125 41.5t-50 113.5h10q0 -66 46 -105.5t119 -39.5q71 0 118.5 40t47.5 105h10q0 -70 -51.5 -112.5t-124.5 -42.5z" />
    <glyph glyph-name="uni030A.case" 
d="M-233 887q-66 0 -112 36.5t-46 96.5q0 58 44.5 96t113.5 38q66 0 113.5 -38t47.5 -96t-50 -95.5t-111 -37.5zM-233 897q62 0 106.5 36.5t44.5 86.5q0 52 -44.5 88t-106.5 36q-66 0 -107 -36.5t-41 -87.5q0 -52 40.5 -87.5t107.5 -35.5z" />
    <glyph glyph-name="tildecomb.case" 
d="M-148 954q-27 0 -61 21t-61 45.5t-60 45.5t-59 21q-29 0 -47 -35t-18 -93h-10q0 65 21.5 101.5t54.5 36.5q28 0 61.5 -21t60 -45.5t59.5 -45.5t59 -21q31 0 48.5 36.5t17.5 92.5l10 -1q0 -61 -21 -99.5t-55 -38.5z" />
    <glyph glyph-name="uni0304.case" 
d="M-473 821v10h401v-10h-401z" />
    <glyph glyph-name="uni0327.case" 
d="M-143 -319q-40 -2 -81 49l6 8q37 -47 75 -47q26 0 43.5 23.5t17.5 59.5q0 52 -35 98q-35 45 -43 66t-8 62h10q0 -38 7 -57t41 -64q38 -51 38 -105q0 -40 -20 -66.5t-51 -26.5z" />
    <glyph glyph-name="uni0328.case" 
d="M-172 -318q-38 -1 -63 21.5t-25 66.5q0 55 34.5 122t98.5 123l6 -8q-63 -54 -96 -118.5t-33 -118.5q0 -39 22 -59t56 -19q24 0 50 18t42 45l8 -6q-17 -29 -45 -48t-55 -19z" />
    </font>
</defs>
</svg>
