<?xml version="1.0" standalone="no"?>
<!DOCTYPE svg PUBLIC "-//W3C//DTD SVG 1.1//EN" "http://www.w3.org/Graphics/SVG/1.1/DTD/svg11.dtd" >
<svg xmlns="http://www.w3.org/2000/svg" xmlns:xlink="http://www.w3.org/1999/xlink" version="1.1">
<metadata>
Created by FontForge 20170731 at Mon May 11 15:12:43 2020
 By Aleksey,,,
Copyright (c) 2019 by Mans Greback. All rights reserved.
</metadata>
<defs>
<font id="Quache-RegularExtraExpanded" horiz-adv-x="0" >
  <font-face 
    font-family="Quache Extra Expanded"
    font-weight="400"
    font-stretch="extra-expanded"
    units-per-em="1000"
    panose-1="0 0 5 7 0 0 0 0 0 0"
    ascent="800"
    descent="-200"
    x-height="662"
    cap-height="900.5"
    bbox="-641 -358.031 2057 1311"
    underline-thickness="50"
    underline-position="-200"
    unicode-range="U+000D-2265"
  />
<missing-glyph horiz-adv-x="900" 
d="M0 -11v965h900v-965h-900zM35 25h830v894h-830v-894zM378 280q-10 43 3 80t42.5 63.5t67.5 50t78 44.5t73.5 42t55 48t21.5 57q0 59 -68.5 98.5t-194.5 39.5q-93 0 -181.5 -31t-153.5 -80l-35 42q168 124 374 124q157 0 241.5 -53t84.5 -136q0 -40 -22 -73.5t-56.5 -57.5
t-76.5 -46t-81.5 -43.5t-71 -44.5t-47 -54.5t-7.5 -69.5h-46zM402 80q-17 0 -31 12t-14 28t14 28t31 12q18 0 31.5 -12t13.5 -28t-13.5 -28t-31.5 -12z" />
    <glyph glyph-name="f_i.liga" unicode="fi" horiz-adv-x="781" 
d="M209 0v601h-205v66h207q15 280 251 280q42 0 109 -13q2 -16 -2 -36.5t-11 -27.5q-43 11 -81 11q-173 0 -185 -214h404v-667h-79v601h-329v-601h-79zM657 814q-24 0 -41 15.5t-17 35.5q0 21 17 36.5t41 15.5q23 0 40.5 -15.5t17.5 -36.5q0 -20 -17.5 -35.5t-40.5 -15.5z
" />
    <glyph glyph-name="f_l.liga" unicode="fl" horiz-adv-x="925" 
d="M787 -18q-77 -1 -114 48t-37 151v670q-77 30 -148 30q-184 0 -198 -219h256v-66h-258v-596h-79v596h-205v66h206q17 282 273 282q117 0 232 -58v-687q0 -81 23.5 -117t73.5 -35q32 0 82 14q7 -6 11 -26.5t0 -32.5q-65 -18 -118 -20z" />
    <glyph glyph-name=".notdef" horiz-adv-x="900" 
d="M0 -11v965h900v-965h-900zM35 25h830v894h-830v-894zM378 280q-10 43 3 80t42.5 63.5t67.5 50t78 44.5t73.5 42t55 48t21.5 57q0 59 -68.5 98.5t-194.5 39.5q-93 0 -181.5 -31t-153.5 -80l-35 42q168 124 374 124q157 0 241.5 -53t84.5 -136q0 -40 -22 -73.5t-56.5 -57.5
t-76.5 -46t-81.5 -43.5t-71 -44.5t-47 -54.5t-7.5 -69.5h-46zM402 80q-17 0 -31 12t-14 28t14 28t31 12q18 0 31.5 -12t13.5 -28t-13.5 -28t-31.5 -12z" />
    <glyph glyph-name=".null" 
 />
    <glyph glyph-name="nonmarkingreturn" horiz-adv-x="333" 
 />
    <glyph glyph-name="CR" unicode="&#xd;" horiz-adv-x="600" 
 />
    <glyph glyph-name="space" unicode=" " horiz-adv-x="465" 
 />
    <glyph glyph-name="exclam" unicode="!" horiz-adv-x="391" 
d="M160 281l-7 635h84l-6 -635h-71zM195 0q-21 0 -37 14t-16 33t16 33.5t37 14.5t37 -14.5t16 -33.5t-16 -33t-37 -14z" />
    <glyph glyph-name="quotedbl" unicode="&#x22;" horiz-adv-x="524" 
d="M101 653l52 299h81l-69 -299h-64zM290 653l51 299h81l-68 -299h-64z" />
    <glyph glyph-name="numbersign" unicode="#" horiz-adv-x="946" 
d="M845 576h-145l-28 -248h136v-61h-143l-18 -155h-71l18 155h-289l-18 -155h-71l18 155h-133v61h140l28 248h-131v61h138l16 141h71l-16 -141h289l16 141h71l-16 -141h138v-61zM601 328l28 248h-289l-28 -248h289z" />
    <glyph glyph-name="dollar" unicode="$" horiz-adv-x="1058" 
d="M957 239q0 -92 -97.5 -159.5t-276.5 -77.5v-133h-59v131q-137 0 -246 35.5t-177 98.5l39 56q133 -123 405 -123q155 0 243 52t88 124q0 46 -40 81t-103.5 56t-140.5 39t-154 37t-140.5 43.5t-103.5 65t-40 94.5q0 30 11 58t38 56t68 49.5t106.5 35.5t147.5 15v125h58
v-126q117 -5 209 -36.5t142 -75.5l-26 -60q-59 48 -157 77t-213 29q-155 0 -229.5 -43.5t-74.5 -102.5q0 -40 40 -69t103.5 -47t140.5 -34t154.5 -36.5t141 -48t103.5 -75t40 -111.5z" />
    <glyph glyph-name="percent" unicode="%" horiz-adv-x="1288" 
d="M159 0l873 890h98l-874 -890h-97zM384 492q-128 0 -205.5 50.5t-77.5 142.5q0 89 76.5 141.5t206.5 52.5q133 0 209 -52t76 -142q0 -89 -79.5 -141t-205.5 -52zM384 545q87 0 146 38t59 102t-57 102.5t-148 38.5q-90 0 -146.5 -39.5t-56.5 -101.5q0 -64 56.5 -102
t146.5 -38zM891 -6q-127 0 -205 51t-78 142q0 89 76.5 141.5t206.5 52.5q132 0 208.5 -51.5t76.5 -142.5q0 -88 -80 -140.5t-205 -52.5zM891 47q87 0 146.5 38.5t59.5 101.5q0 64 -57 102.5t-149 38.5q-90 0 -146.5 -39.5t-56.5 -101.5q0 -64 57 -102t146 -38z" />
    <glyph glyph-name="ampersand" unicode="&#x26;" horiz-adv-x="1183" 
d="M1082 58l-45 -58l-166 111q-141 -129 -369 -129q-179 0 -290 62.5t-111 168.5q0 79 66.5 137.5t181.5 106.5q-98 66 -151 123.5t-53 122.5q0 89 94 151.5t286 62.5q180 0 273.5 -62t93.5 -141q0 -33 -23 -64.5t-55.5 -55t-88.5 -51t-99 -45t-111 -42.5q-4 -2 -11.5 -4.5
l-10.5 -3.5q20 -12 56.5 -35t46.5 -30l263 -176q81 108 81 228h72q7 -146 -91 -270zM227 700q0 -49 51.5 -98.5t150.5 -112.5q6 2 19.5 7t20.5 7q56 20 90 32.5t79.5 31t72.5 33.5t53 33t38 37t12 39q0 53 -76 97.5t-211 44.5q-148 0 -224 -43.5t-76 -107.5zM513 50
q177 0 295 103l-275 185q-23 16 -67.5 44t-53.5 34q-109 -45 -169.5 -92.5t-60.5 -107.5q0 -71 90 -118.5t241 -47.5z" />
    <glyph glyph-name="quotesingle" unicode="'" horiz-adv-x="335" 
d="M101 653l52 299h81l-69 -299h-64z" />
    <glyph glyph-name="parenleft" unicode="(" horiz-adv-x="741" 
d="M577 -253q-87 31 -155.5 84t-112 115.5t-72 137t-40 145t-11.5 143.5q0 83 24 170.5t73.5 176t140 163t209.5 115.5l33 -46l-4 -13q-104 -37 -183 -103.5t-122.5 -145.5t-64.5 -158.5t-21 -158.5q0 -87 17.5 -168.5t55 -158.5t105 -139.5t158.5 -98.5l3 -13z" />
    <glyph glyph-name="parenright" unicode=")" horiz-adv-x="741" 
d="M164 -253l-33 47l3 13q91 36 158.5 98.5t105 139.5t55 158.5t17.5 168.5q0 79 -21 158.5t-64.5 158.5t-122 145.5t-182.5 103.5l-5 13l33 46q96 -33 174.5 -89t128 -120.5t83.5 -139t48 -142.5t14 -134q0 -92 -20 -181t-63 -177t-122 -158.5t-187 -108.5z" />
    <glyph glyph-name="asterisk" unicode="*" horiz-adv-x="631" 
d="M529 747l-171 -51l119 -134l-59 -41l-103 147l-102 -147l-59 41l119 134l-172 51l28 59l159 -65l-11 172h76l-11 -172l160 65z" />
    <glyph glyph-name="plus" unicode="+" horiz-adv-x="847" 
d="M745 471v-66h-288v-272h-68v272h-288v66h288v274h68v-274h288z" />
    <glyph glyph-name="comma" unicode="," horiz-adv-x="307" 
d="M50 -176l61 334h78l-67 -334h-72z" />
    <glyph glyph-name="hyphen" unicode="-" horiz-adv-x="1081" 
d="M206 329v63h669v-63h-669z" />
    <glyph glyph-name="period" unicode="." horiz-adv-x="401" 
d="M200 0q-23 0 -40.5 15.5t-17.5 35.5q0 21 17.5 36.5t40.5 15.5q24 0 41 -15.5t17 -36.5q0 -20 -17 -35.5t-41 -15.5z" />
    <glyph glyph-name="slash" unicode="/" horiz-adv-x="1020" 
d="M-12 -131l957 1129h88l-958 -1129h-87z" />
    <glyph glyph-name="zero" unicode="0" horiz-adv-x="963" 
d="M480 -18q-130 0 -229.5 63.5t-150.5 168.5t-51 232q0 220 116.5 345t314.5 125q200 0 317 -124.5t117 -345.5q0 -127 -51.5 -232t-151.5 -168.5t-231 -63.5zM480 49q159 0 256.5 113t97.5 284q0 189 -94.5 296.5t-259.5 107.5q-162 0 -256.5 -109t-94.5 -295
q0 -169 96.5 -283t254.5 -114z" />
    <glyph glyph-name="one" unicode="1" horiz-adv-x="692" 
d="M643 58q6 -25 0 -58h-594q-5 23 0 58l259 13v741l-226 -50q-8 27 -5 58l269 70h44v-819z" />
    <glyph glyph-name="two" unicode="2" horiz-adv-x="937" 
d="M52 0v62q31 61 89 115.5t125 94t140.5 76.5t141 70.5t121.5 68t86.5 77t32.5 90.5q0 91 -83.5 143t-245.5 52q-221 0 -340 -100q-29 21 -42 51q124 116 391 116q195 0 299 -71t104 -187q0 -57 -30 -107t-81 -88.5t-114 -74t-134 -71t-135.5 -71t-123.5 -82.5t-93 -98h724
q8 -33 0 -66h-832z" />
    <glyph glyph-name="three" unicode="3" horiz-adv-x="944" 
d="M613 481q150 -36 216 -95.5t66 -148.5q0 -110 -112.5 -182.5t-315.5 -72.5q-127 0 -240.5 33.5t-177.5 85.5q3 24 36 59q58 -45 159.5 -78t223.5 -33q155 0 249.5 52t94.5 137q0 186 -437 212q-9 35 0 70q203 0 307.5 48t104.5 135q0 73 -87.5 118t-248.5 45
q-101 0 -202.5 -30.5t-148.5 -66.5q-23 21 -30 59q54 42 166 73.5t226 31.5q190 0 299 -62t109 -160q0 -168 -257 -230z" />
    <glyph glyph-name="four" unicode="4" horiz-adv-x="985" 
d="M932 286q8 -31 0 -66h-102v-220h-80v220h-701v62l714 608h67v-604h102zM166 286h587l4 509z" />
    <glyph glyph-name="five" unicode="5" horiz-adv-x="955" 
d="M452 595q221 1 337.5 -80.5t116.5 -222.5q0 -130 -114.5 -220t-315.5 -90q-145 0 -256 40.5t-171 102.5q3 35 33 62q60 -60 160.5 -96t220.5 -36q178 0 269 69t91 168q0 109 -105.5 174t-294.5 64q-154 -2 -313 -33l44 393h711q6 -32 -6 -66h-631l-31 -254q131 25 255 25
z" />
    <glyph glyph-name="six" unicode="6" horiz-adv-x="945" 
d="M499 521q194 0 295.5 -71.5t101.5 -180.5q0 -117 -111 -202t-314 -85q-201 0 -311.5 90t-110.5 247q0 176 155.5 326.5t469.5 260.5q41 -25 44 -59q-207 -69 -353.5 -167.5t-202.5 -224.5q137 66 337 66zM470 49q161 0 252 65.5t91 152.5q0 81 -83.5 134t-254.5 53
q-104 0 -195 -21t-141 -49q-7 -31 -7 -69q0 -120 85.5 -193t252.5 -73z" />
    <glyph glyph-name="seven" unicode="7" horiz-adv-x="907" 
d="M37 890h826v-72q-190 -106 -315 -329t-126 -489h-89q5 260 124.5 483.5t308.5 340.5h-729q-10 30 0 66z" />
    <glyph glyph-name="eight" unicode="8" horiz-adv-x="955" 
d="M625 498q126 -34 203.5 -99.5t77.5 -159.5q0 -112 -106.5 -184.5t-322.5 -72.5q-214 0 -321 72.5t-107 184.5q0 51 23 94.5t63.5 74.5t87.5 52.5t103 37.5q-244 58 -244 194q0 90 99 157.5t296 67.5q199 0 297.5 -64t98.5 -154q0 -71 -68 -122.5t-180 -78.5zM165 685
q0 -44 43 -76.5t106.5 -50t156.5 -31.5q319 44 319 165q0 64 -77 111.5t-236 47.5q-82 0 -145 -15.5t-98 -40.5t-52 -53t-17 -57zM477 49q172 0 259 56t87 136q0 92 -96.5 151t-250.5 82q-156 -22 -250 -80t-94 -151q0 -81 86 -137.5t259 -56.5z" />
    <glyph glyph-name="nine" unicode="9" horiz-adv-x="950" 
d="M474 917q203 0 315 -86.5t112 -237.5q0 -183 -157 -340t-473 -270q-41 25 -44 59q210 74 361.5 179.5t206.5 234.5q-148 -73 -349 -73q-194 0 -295.5 72.5t-101.5 181.5q0 114 111 197t314 83zM131 637q0 -81 84.5 -134.5t254.5 -53.5q104 0 194.5 19t142.5 45q6 43 6 88
q0 111 -85 178.5t-253 67.5q-151 0 -247.5 -60.5t-96.5 -149.5z" />
    <glyph glyph-name="colon" unicode=":" horiz-adv-x="401" 
d="M200 569q-23 0 -40.5 15.5t-17.5 35.5q0 21 17.5 36.5t40.5 15.5q24 0 41 -15.5t17 -36.5q0 -20 -17 -35.5t-41 -15.5zM200 0q-23 0 -40.5 15.5t-17.5 35.5q0 21 17.5 36.5t40.5 15.5q24 0 41 -15.5t17 -36.5q0 -20 -17 -35.5t-41 -15.5z" />
    <glyph glyph-name="semicolon" unicode=";" horiz-adv-x="316" 
d="M132 569q-23 0 -40 15.5t-17 35.5q0 21 17 36.5t40 15.5q24 0 41.5 -15.5t17.5 -36.5q0 -20 -17.5 -35.5t-41.5 -15.5zM50 -176l61 334h78l-67 -334h-72z" />
    <glyph glyph-name="less" unicode="&#x3c;" horiz-adv-x="845" 
d="M743 690l-534 -256l533 -256l-27 -56l-614 288v49l617 288z" />
    <glyph glyph-name="equal" unicode="=" horiz-adv-x="845" 
d="M101 506v66h642v-66h-642zM101 307v67h642v-67h-642z" />
    <glyph glyph-name="greater" unicode="&#x3e;" horiz-adv-x="845" 
d="M127 747l617 -288v-49l-614 -288l-27 56l533 256l-535 256z" />
    <glyph glyph-name="question" unicode="?" horiz-adv-x="945" 
d="M392 255q-12 50 3 92.5t48.5 72.5t77 57t89 51t84 48t63 54.5t24.5 64.5q0 68 -78 112.5t-222 44.5q-107 0 -211.5 -36t-172.5 -91l-41 50q190 142 430 142q181 0 278.5 -61t97.5 -156q0 -53 -34 -97t-84 -72.5t-107 -59t-103.5 -57.5t-72.5 -68.5t-15 -90.5h-54zM420 0
q-20 0 -36.5 14t-16.5 33t16.5 33.5t36.5 14.5q22 0 38 -14.5t16 -33.5t-16 -33t-38 -14z" />
    <glyph glyph-name="at" unicode="@" horiz-adv-x="1407" 
d="M703 -203q-270 0 -436 136t-166 373q0 242 167.5 383.5t444.5 141.5q267 0 430 -137.5t163 -367.5q0 -119 -60 -187t-159 -68q-131 0 -158 96q-27 -37 -86 -66.5t-137 -29.5q-142 0 -214 70.5t-72 174.5q0 103 72 173t214 70q127 0 211 -60l1 45h60v-296q0 -110 111 -110
q68 0 107.5 48t39.5 140q0 208 -139.5 326t-383.5 118q-248 0 -392.5 -128.5t-144.5 -335.5q0 -203 144 -325.5t383 -122.5q89 0 169.5 20.5t129.5 51.5l37 -50q-55 -34 -146 -58.5t-190 -24.5zM713 132q64 0 117.5 26.5t77.5 65.5v214q-74 61 -195 61q-107 0 -162.5 -53
t-55.5 -130q0 -81 54.5 -132.5t163.5 -51.5z" />
    <glyph glyph-name="A" unicode="A" horiz-adv-x="1137" 
d="M616 896q29 -48 248 -438t259 -446l-4 -12q-69 0 -91 8q-28 42 -125 218h-670l-128 -226h-91l514 896q15 6 44.5 5.5t43.5 -5.5zM270 291h597q-30 55 -292 538z" />
    <glyph glyph-name="B" unicode="B" horiz-adv-x="1027" 
d="M747 529q242 -53 242 -231q0 -150 -127.5 -233t-348.5 -83q-150 -1 -241.5 8t-195.5 35v855q99 21 179.5 29t209.5 8q98 0 174.5 -14.5t122 -37t75.5 -53t41 -59t11 -58.5q0 -52 -36 -96.5t-106 -69.5zM466 854q-190 0 -310 -25v-321q156 41 378 41q46 0 86 -3
q89 12 138 51t49 91q0 22 -9 43.5t-33 44.5t-61 39.5t-98.5 27.5t-139.5 11zM507 47q196 0 298 66t101 181q0 189 -389 189q-200 0 -361 -43v-360q139 -33 351 -33z" />
    <glyph glyph-name="C" unicode="C" horiz-adv-x="1016" 
d="M565 -18q-147 0 -265.5 54.5t-190 162.5t-71.5 251q0 133 73.5 240.5t195 166.5t264.5 60q180 2 295 -89t106 -230q-54 -11 -79 -5q2 114 -90 186t-234 70q-190 -3 -319 -117.5t-129 -286.5q0 -180 126 -287t318 -108q84 0 176 23.5t166 69.5q17 -7 29.5 -26.5
t12.5 -28.5q-82 -52 -187 -79t-197 -27z" />
    <glyph glyph-name="D" unicode="D" horiz-adv-x="1074" 
d="M465 917q258 0 414.5 -126.5t156.5 -330.5q0 -215 -149.5 -346t-394.5 -132q-148 0 -224 8.5t-192 34.5v857q167 35 389 35zM486 47q212 0 339.5 113.5t127.5 297.5q0 172 -134 283t-359 111q-190 0 -304 -22v-749q132 -34 330 -34z" />
    <glyph glyph-name="E" unicode="E" horiz-adv-x="958" 
d="M912 66q8 -9 8.5 -31.5t-8.5 -34.5h-836v886l10 10h797q5 -15 0 -35.5t-14 -30.5h-713v-366h624q4 -16 -1.5 -37t-14.5 -29h-608v-332h756z" />
    <glyph glyph-name="F" unicode="F" horiz-adv-x="926" 
d="M872 829h-716v-413h626q5 -16 -0.5 -37.5t-13.5 -28.5h-612v-350h-80v885l11 10h799q5 -15 -0.5 -35.5t-13.5 -30.5z" />
    <glyph glyph-name="G" unicode="G" horiz-adv-x="1064" 
d="M571 849q-203 0 -326.5 -116.5t-123.5 -286.5q0 -181 129.5 -288.5t339.5 -107.5q200 0 349 75v242h-408q-4 15 1.5 36t14.5 29h459l13 -12v-332q-81 -51 -198.5 -78.5t-230.5 -27.5q-158 0 -282.5 55t-197 162t-72.5 251q0 92 37 176t103.5 149t168 103.5t222.5 38.5
q195 0 325.5 -85.5t125.5 -217.5q-56 -13 -88 -5q-2 109 -104.5 174.5t-256.5 65.5z" />
    <glyph glyph-name="H" unicode="H" horiz-adv-x="1025" 
d="M868 896q16 5 42 4.5t38 -4.5v-896h-80v374h-712v-374h-80v896q17 5 42 4.5t38 -4.5v-457h712v457z" />
    <glyph glyph-name="I" unicode="I" horiz-adv-x="232" 
d="M76 0v896q16 5 42 4.5t38 -4.5v-896h-80z" />
    <glyph glyph-name="J" unicode="J" horiz-adv-x="1049" 
d="M504 -18q-121 0 -241 54.5t-215 141.5q6 19 20 35t30 20q82 -79 188.5 -131t211.5 -52q167 0 268 96t101 248v502q17 5 42.5 4.5t37.5 -4.5v-524q0 -77 -30.5 -147t-86 -124t-140.5 -86.5t-186 -32.5z" />
    <glyph glyph-name="K" unicode="K" horiz-adv-x="1127" 
d="M574 465q200 -184 320.5 -286t213.5 -159l-1 -12q-34 -13 -94 -13q-128 66 -516 434q-158 -72 -341 -138v-291h-80v896q16 5 42 4.5t38 -4.5v-532q289 109 462 203q337 178 325 327q43 10 80 2q10 -84 -75.5 -181t-247.5 -186q-72 -39 -126 -64z" />
    <glyph glyph-name="L" unicode="L" horiz-adv-x="935" 
d="M95 0l-19 17v879q14 5 41 4.5t39 -4.5v-830h752q9 -12 8.5 -32.5t-8.5 -33.5h-813z" />
    <glyph glyph-name="M" unicode="M" horiz-adv-x="1322" 
d="M1284 0h-81l-92 771l-421 -621h-58l-421 619l-93 -769h-80l107 884q10 9 37 12.5t37 -0.5l442 -650l441 650q12 3 38.5 -1t36.5 -12z" />
    <glyph glyph-name="N" unicode="N" horiz-adv-x="1141" 
d="M985 896q17 5 41.5 4.5t38.5 -4.5v-896h-65l-844 781v-781h-80v877q8 9 31.5 15.5t34.5 3.5l843 -783v783z" />
    <glyph glyph-name="O" unicode="O" horiz-adv-x="1118" 
d="M508 -18q-209 0 -339.5 121t-130.5 300q0 146 78.5 264.5t211.5 184t291 65.5q128 0 234.5 -59.5t166.5 -160t60 -218.5q0 -138 -80 -253.5t-211 -179.5t-281 -64zM515 50q197 0 339.5 126t142.5 305q0 157 -111 262.5t-277 105.5q-134 0 -246 -57.5t-177 -159
t-65 -225.5q0 -149 107 -253t287 -104z" />
    <glyph glyph-name="P" unicode="P" horiz-adv-x="1027" 
d="M989 593q1 -107 -69 -183t-180 -110.5t-247 -34.5q-187 0 -337 39v-304h-80v875q180 42 432 42q220 0 350.5 -87t130.5 -237zM489 331q182 0 299.5 67t118.5 194q0 120 -107.5 190t-297.5 70q-204 0 -346 -35v-441q151 -45 333 -45z" />
    <glyph glyph-name="Q" unicode="Q" horiz-adv-x="1118" 
d="M1039 -58q12 -11 17.5 -30.5t-0.5 -38.5q-133 -30 -211 -30q-242 -3 -356 139q-201 6 -326 126t-125 295q0 146 78.5 264.5t211.5 184t291 65.5q128 0 234.5 -59.5t166.5 -160t60 -218.5q0 -127 -68 -235.5t-181 -175t-249 -82.5q88 -86 237 -84q93 0 220 40zM121 407
q0 -149 107 -253t287 -104q197 0 339.5 126t142.5 305q0 157 -111 262.5t-277 105.5q-134 0 -246 -57.5t-177 -159t-65 -225.5z" />
    <glyph glyph-name="R" unicode="R" horiz-adv-x="1110" 
d="M687 314q251 -227 374 -296l-1 -13q-29 -11 -94 -11q-50 22 -135.5 92.5t-241.5 211.5q-41 -4 -95 -4q-166 1 -338 41v-335h-80v875q101 24 196.5 33t240.5 9q218 0 346.5 -84t128.5 -231q0 -110 -82.5 -183t-218.5 -105zM494 360q110 -1 201 24t150.5 82t59.5 138
q0 111 -104 179.5t-297 68.5q-207 0 -348 -31v-420q155 -40 338 -41z" />
    <glyph glyph-name="S" unicode="S" horiz-adv-x="1046" 
d="M556 -18q-301 0 -518 140q17 50 47 60q210 -134 463 -134q181 0 279 54t98 142q0 50 -29.5 85t-87 55t-123 30t-154.5 14q-170 7 -275.5 63.5t-105.5 169.5q0 62 35 112t92.5 80.5t126 47t140.5 16.5q214 0 333.5 -76t119.5 -188q-53 -15 -86 -6q-3 95 -101 150t-266 55
q-129 0 -220.5 -51t-91.5 -138q0 -44 26.5 -77t73 -52t98.5 -29t114 -12q224 -9 344 -66.5t120 -178.5q0 -118 -119.5 -192t-332.5 -74z" />
    <glyph glyph-name="T" unicode="T" horiz-adv-x="1067" 
d="M1027 896q4 -15 -0.5 -36t-13.5 -30h-459v-830h-82v830h-432q-4 14 -1 34.5t11 31.5h977z" />
    <glyph glyph-name="U" unicode="U" horiz-adv-x="1139" 
d="M553 -21q-227 0 -352 105t-125 306v506q15 5 43 4.5t40 -4.5v-510q0 -165 104.5 -251.5t289.5 -86.5q196 0 311.5 97.5t115.5 252.5v498q17 5 43 4t40 -4v-500q0 -181 -135.5 -299t-374.5 -118z" />
    <glyph glyph-name="V" unicode="V" horiz-adv-x="1077" 
d="M520 0l-26 15q-93 222 -259.5 512.5t-220.5 354.5l4 14q44 8 77 0q86 -116 234 -373.5t227 -454.5h18q81 88 155.5 190.5t137 214t94 222.5t18.5 195q29 16 77 6q32 -166 -88.5 -402t-342.5 -479l-29 -15h-76z" />
    <glyph glyph-name="W" unicode="W" horiz-adv-x="1572" 
d="M528 0l-22 12q-96 231 -242 479.5t-250 390.5l5 14q38 9 76 0q128 -178 259 -401.5t215 -426.5h9q85 103 169.5 230t110.5 205q-30 71 -104 222q7 12 29 21t44 7q52 -91 154 -316t157 -369h8q181 196 265 419t53 403q25 16 79 6q36 -194 -52.5 -431.5t-286.5 -447.5
l-32 -17h-89l-14 10q-24 58 -87.5 197.5t-91.5 196.5q-27 -71 -116 -204t-140 -189l-24 -11h-82z" />
    <glyph glyph-name="X" unicode="X" horiz-adv-x="1122" 
d="M630 433q49 -43 478 -422l-4 -11h-100q-32 24 -121 102t-196 174t-131 117q-92 -54 -139 -82.5t-113.5 -74t-100.5 -78t-63.5 -74.5t-38.5 -84h-87q13 54 40.5 101.5t68.5 89t94 81t117.5 81t139.5 87.5q6 3 10.5 5.5t8.5 5.5q-44 42 -220 212t-228 218l5 14q53 9 101 1
q51 -54 195.5 -193.5t220.5 -208.5q212 125 311 220t89 176q27 15 83 5q11 -97 -80 -200.5t-340 -261.5z" />
    <glyph glyph-name="Y" unicode="Y" horiz-adv-x="1035" 
d="M1018 896q26 -274 -427 -602v-294h-80v299q-68 90 -244.5 300.5t-251.5 282.5l6 14q57 10 95 0q50 -49 201.5 -230.5t245.5 -298.5q173 120 278.5 264t95.5 259q27 14 81 6z" />
    <glyph glyph-name="Z" unicode="Z" horiz-adv-x="1019" 
d="M972 66q9 -9 9.5 -31.5t-9.5 -34.5h-916q-9 6 -14 24t-3 32q172 234 380.5 448.5t385.5 325.5h-729q-8 9 -8.5 30.5t8.5 35.5h860q9 -6 15 -28t4 -36q-194 -111 -416.5 -329t-386.5 -437h820z" />
    <glyph glyph-name="bracketleft" unicode="[" horiz-adv-x="549" 
d="M101 -231v1229h347v-62h-276v-1105h276v-62h-347z" />
    <glyph glyph-name="backslash" unicode="\" horiz-adv-x="1005" 
d="M1025 -131h-87l-958 1129h87z" />
    <glyph glyph-name="bracketright" unicode="]" horiz-adv-x="549" 
d="M448 -231h-347v62h276v1105h-276v62h347v-1229z" />
    <glyph glyph-name="asciicircum" unicode="^" horiz-adv-x="990" 
d="M867 510h-107l-264 311l-265 -311h-108l350 389h47z" />
    <glyph glyph-name="underscore" unicode="_" horiz-adv-x="783" 
d="M101 -58v58h581v-58h-581z" />
    <glyph glyph-name="grave" unicode="`" horiz-adv-x="415" 
d="M291 745l-228 247h89l200 -247h-61z" />
    <glyph glyph-name="a" unicode="a" horiz-adv-x="847" 
d="M775 172q0 -73 7.5 -104t26.5 -59l-2 -9h-76q-14 14 -21 23.5t-13 36.5t-6 72v60q-62 -95 -169.5 -152.5t-230.5 -57.5q-113 0 -180 48t-67 122q0 66 43.5 117t118 81t167 45.5t196.5 14.5q64 0 115 -5q-8 113 -75 176t-176 63q-129 0 -290 -91q-27 12 -32 56
q169 95 320 95q161 0 251.5 -89.5t91.5 -254.5zM683 340l2 13q-73 5 -125 5q-120 0 -215 -20.5t-155 -66t-60 -109.5q0 -53 45.5 -84.5t126.5 -31.5q78 0 149.5 27.5t119.5 71t78 95t34 100.5z" />
    <glyph glyph-name="b" unicode="b" horiz-adv-x="886" 
d="M506 704q150 0 248 -94.5t98 -247.5q0 -99 -49.5 -185.5t-141.5 -140.5t-204 -54q-95 0 -170.5 39t-123.5 106q-1 -77 -19 -127h-81v11q16 58 16 174v748q14 5 40.5 5t37.5 -5v-461q43 107 140.5 169.5t208.5 62.5zM449 48q140 0 231 95.5t91 216.5q0 127 -75.5 202
t-194.5 75q-134 0 -237 -101.5t-103 -240.5q0 -94 83.5 -170.5t204.5 -76.5z" />
    <glyph glyph-name="c" unicode="c" horiz-adv-x="826" 
d="M414 -18q-100 0 -185.5 39.5t-140 120t-54.5 186.5q0 107 60.5 194.5t155.5 134.5t202 47q164 0 254 -92t85 -236q-55 -14 -84 -5q2 120 -64.5 193t-195.5 73q-130 0 -231 -89t-101 -220q0 -127 87.5 -203.5t211.5 -75.5q176 0 300 99q15 -5 26 -18t14.5 -22t3.5 -12
q-73 -58 -154 -86t-190 -28z" />
    <glyph glyph-name="d" unicode="d" horiz-adv-x="891" 
d="M813 185q0 -119 15 -174v-11h-67q-27 52 -27 145v39q-46 -91 -135.5 -146.5t-204.5 -55.5q-159 0 -259.5 93.5t-100.5 246.5q0 163 114 272.5t289 109.5q100 0 180 -50t117 -134v413q12 5 38.5 5t40.5 -5v-748zM397 48q142 0 233.5 98.5t91.5 235.5q0 106 -79.5 180
t-190.5 74q-144 0 -240.5 -90t-96.5 -224q0 -122 78 -198t204 -76z" />
    <glyph glyph-name="e" unicode="e" horiz-adv-x="825" 
d="M444 704q162 0 259.5 -90t90.5 -252l-15 -17l-656 -76q15 -103 96.5 -161.5t198.5 -59.5q153 0 291 99q13 -5 22.5 -17t13 -21t3.5 -11q-157 -116 -339 -116q-161 0 -268 87.5t-107 242.5q0 166 119 279t291 113zM707 390q1 120 -69.5 185.5t-193.5 65.5
q-129 0 -223.5 -90.5t-100.5 -223.5z" />
    <glyph glyph-name="f" unicode="f" horiz-adv-x="480" 
d="M596 922q3 -12 -2.5 -34.5t-14.5 -29.5q-67 20 -123 20q-177 0 -188 -216h269v-66h-270v-596h-79v596h-184v66h185q14 282 251 282q71 0 156 -22z" />
    <glyph glyph-name="g" unicode="g" horiz-adv-x="882" 
d="M749 669q31 3 70 -6v-11q-14 -78 -14 -149v-421q0 -173 -106.5 -270.5t-278.5 -97.5q-184 0 -358 115q6 43 31 58q172 -106 318 -106q142 0 232 81t91 219l1 114q-41 -95 -136 -154t-212 -59q-98 0 -177.5 39t-127.5 116.5t-48 180.5q1 166 113.5 275.5t282.5 109.5
q109 0 188.5 -50.5t115.5 -127.5v58zM389 48q139 0 235.5 93.5t96.5 244.5q0 89 -79 170t-196 81q-141 0 -235.5 -91t-95.5 -224q-1 -119 75 -196.5t199 -77.5z" />
    <glyph glyph-name="h" unicode="h" horiz-adv-x="867" 
d="M505 704q155 0 235 -90t80 -255v-359h-79v351q0 130 -64 206t-187 76q-138 0 -243 -110t-105 -242v-281h-79v933q13 5 40 5t39 -5v-452q52 95 151 159t212 64z" />
    <glyph glyph-name="i" unicode="i" horiz-adv-x="248" 
d="M124 814q-23 0 -40.5 15.5t-17.5 35.5q0 21 17.5 36.5t40.5 15.5t40.5 -15.5t17.5 -36.5q0 -20 -17.5 -35.5t-40.5 -15.5zM85 0v662q14 4 40 4t39 -4v-662h-79z" />
    <glyph glyph-name="j" unicode="j" horiz-adv-x="282" 
d="M144 814q-23 0 -40.5 15.5t-17.5 35.5q0 21 17.5 36.5t40.5 15.5t40.5 -15.5t17.5 -36.5q0 -20 -17.5 -35.5t-40.5 -15.5zM23 -234q-45 0 -107 18q-5 15 1 37t17 32q48 -14 78 -14q52 -1 73 43.5t21 155.5v624q13 4 40 4t39 -4v-669q0 -109 -36.5 -168t-125.5 -59z" />
    <glyph glyph-name="k" unicode="k" horiz-adv-x="941" 
d="M515 334q22 -19 60.5 -51.5t58.5 -50t52.5 -44.5t51 -42.5t44 -36t41.5 -32.5t34 -24.5t30.5 -19.5t22.5 -11v-14q-34 -12 -102 -12q-64 22 -370 298q-149 -76 -296 -129v-165h-79v933q40 14 79 0v-694q157 62 346 165q130 71 185.5 127.5t49.5 125.5q37 9 95 5
q14 -76 -46 -147t-205 -152q-8 -5 -26 -14.5t-26 -14.5z" />
    <glyph glyph-name="l" unicode="l" horiz-adv-x="368" 
d="M230 -18q-77 -1 -114 48t-37 151v752q14 5 38.5 5.5t40.5 -5.5v-734q0 -81 23 -117t73 -35q33 0 83 14q7 -6 10.5 -26t0.5 -33q-65 -18 -118 -20z" />
    <glyph glyph-name="m" unicode="m" horiz-adv-x="1289" 
d="M977 704q122 0 185.5 -80.5t63.5 -228.5v-395h-79v387q0 115 -46 182.5t-137 67.5q-117 0 -199 -99t-82 -222v-316h-77v378q0 259 -170 259q-116 0 -198 -104.5t-82 -235.5v-297h-79v519q0 74 -14 129v13q43 9 73 6q14 -40 14 -87v-80q43 87 121.5 145.5t170.5 58.5
q188 0 223 -212q42 92 126 152t186 60z" />
    <glyph glyph-name="n" unicode="n" horiz-adv-x="896" 
d="M508 703q158 0 241.5 -90t83.5 -254v-359h-79v344q0 136 -64.5 212.5t-190.5 76.5q-89 0 -169 -52.5t-127 -134t-47 -165.5v-281h-79v519q0 74 -14 129v13q43 9 76 6q13 -38 13 -87v-96q53 92 150.5 155.5t205.5 63.5z" />
    <glyph glyph-name="o" unicode="o" horiz-adv-x="893" 
d="M421 -18q-181 0 -284 95t-103 236q0 160 128 275.5t316 115.5q172 0 275.5 -95.5t104.5 -239.5q1 -108 -54.5 -196.5t-156 -139.5t-226.5 -51zM425 49q153 0 253 92.5t100 220.5q0 116 -84.5 195.5t-220.5 79.5q-152 0 -255 -96.5t-103 -228.5q0 -111 81 -187t229 -76z
" />
    <glyph glyph-name="p" unicode="p" horiz-adv-x="881" 
d="M496 704q158 0 254.5 -94t96.5 -242q0 -159 -112 -272.5t-275 -113.5q-101 0 -181 47t-125 124v-394q-10 -4 -38 -4t-41 4v750q0 74 -12 145v12q35 11 70 6l20 -93v-81q52 92 144.5 149t198.5 57zM449 48q93 0 167 47t112 118.5t38 150.5q0 125 -76.5 199t-195.5 74
q-134 0 -236.5 -105t-102.5 -239q0 -94 86.5 -169.5t207.5 -75.5z" />
    <glyph glyph-name="q" unicode="q" horiz-adv-x="881" 
d="M746 667q36 5 72 -6v-13q-13 -71 -13 -133v-756q-13 -4 -40.5 -4t-38.5 4v415q-47 -84 -137 -138t-191 -54q-160 0 -262 94t-102 236q0 176 113.5 284t281.5 108q103 0 183.5 -48t117.5 -124v67zM402 48q133 0 226.5 96t93.5 237q0 107 -79 181t-201 74q-137 0 -232 -89
t-95 -231q0 -116 79.5 -192t207.5 -76z" />
    <glyph glyph-name="r" unicode="r" horiz-adv-x="640" 
d="M607 679q5 -14 -2.5 -35.5t-18.5 -33.5q-64 22 -112 22q-144 -1 -231 -101t-87 -240v-291h-79v519q0 74 -14 129v13q41 9 70 6q14 -40 14 -87v-106q38 99 124.5 164.5t206.5 65.5q60 0 129 -25z" />
    <glyph glyph-name="s" unicode="s" horiz-adv-x="858" 
d="M445 -18q-105 0 -213.5 28t-189.5 87q7 38 38 58q72 -51 171 -78.5t197 -27.5q134 0 210 39.5t76 100.5q0 68 -69.5 95.5t-243.5 33.5q-341 15 -341 186q0 86 93 143t263 57q84 0 186.5 -22.5t180.5 -66.5q-4 -27 -25 -61q-72 40 -167 61.5t-170 21.5q-142 0 -211.5 -40
t-69.5 -93q0 -58 66.5 -88t206.5 -36q207 -7 294.5 -51.5t87.5 -138.5q0 -95 -103 -151.5t-267 -56.5z" />
    <glyph glyph-name="t" unicode="t" horiz-adv-x="621" 
d="M592 596h-392v-291q0 -121 59.5 -188.5t171.5 -67.5q59 0 134 20q10 -7 15 -29t0 -35q-84 -23 -154 -23q-140 -2 -222.5 81t-82.5 236v297h-108v66h108v181q42 21 79 12v-193h392v-66z" />
    <glyph glyph-name="u" unicode="u" horiz-adv-x="882" 
d="M810 165q0 -67 5.5 -98.5t19.5 -55.5l-1 -11h-67q-15 18 -22 41.5t-7 78.5v50q-45 -85 -143.5 -136.5t-226.5 -51.5q-140 0 -222.5 73.5t-82.5 223.5v383q35 8 79 0v-370q0 -123 65 -183t175 -60q152 0 250.5 90.5t98.5 226.5v296q13 4 40 4t39 -4v-497z" />
    <glyph glyph-name="v" unicode="v" horiz-adv-x="845" 
d="M409 0l-15 11q-31 78 -69.5 154.5t-69 130t-74 118.5t-64.5 93t-62 82t-45 60l5 13q48 9 78 0q244 -288 365 -595h11q140 152 222.5 318t60.5 271q24 17 77 6q28 -116 -65.5 -305t-244.5 -348l-19 -9h-91z" />
    <glyph glyph-name="w" unicode="w" horiz-adv-x="1298" 
d="M395 0l-15 10q-44 116 -103.5 230t-116 198.5t-92 132t-61.5 78.5l6 13q46 9 76 0l26 -34q26 -33 37.5 -48.5t42 -58t50 -73t50 -80t53 -93t48 -99t45.5 -109.5h10q58 71 125.5 176t102.5 183l-78 141q8 13 30.5 23t44.5 7q163 -278 249 -530h10q121 138 204.5 302.5
t70.5 286.5q28 16 76 6q19 -129 -69 -314t-232 -339l-17 -9h-83l-19 11q-43 121 -144 322q-23 -53 -96 -162t-122 -162l-17 -9h-92z" />
    <glyph glyph-name="x" unicode="x" horiz-adv-x="880" 
d="M503 331q3 -3 150.5 -127.5t213.5 -188.5l-6 -15h-94q-84 82 -343 294q-74 -47 -113.5 -73.5t-84.5 -60t-66 -56.5t-35.5 -50t-15.5 -54h-77q-6 43 15.5 85.5t72 86t107 81t143.5 87.5q-33 30 -159 136.5t-198 170.5l4 13q50 10 92 0q56 -50 174 -148.5t160 -137.5
q161 110 195 138q103 83 99 147q29 14 80 3q9 -67 -67 -142t-247 -189z" />
    <glyph glyph-name="y" unicode="y" horiz-adv-x="848" 
d="M833 662q13 -107 -17.5 -238t-116.5 -278t-216 -259q-169 -142 -360 -143q-61 0 -103 17q-15 29 -1 57l15 8q35 -17 90 -15q167 1 320 143q32 29 68 67q-91 50 -179.5 138.5t-152 183t-106 172t-64.5 133.5l5 13q42 9 79 1q21 -51 58 -119.5t96 -159t141 -175t168 -134.5
q108 135 157.5 286.5t40.5 295.5q27 17 78 6z" />
    <glyph glyph-name="z" unicode="z" horiz-adv-x="821" 
d="M800 67q8 -6 8.5 -29.5t-8.5 -37.5h-771q-8 7 -13 25t-3 33q337 412 631 537h-597q-8 8 -8 30.5t8 36.5h734q7 -7 12.5 -31.5t3.5 -40.5q-142 -44 -326 -196.5t-329 -326.5h658z" />
    <glyph glyph-name="braceleft" unicode="{" horiz-adv-x="612" 
d="M381 52q13 -83 44 -140t92 -108l-36 -44q-75 55 -113.5 115.5t-56.5 148.5q-7 33 -12.5 81t-9 77t-14.5 63.5t-30 53.5t-55 31.5t-89 12.5v69q58 0 95.5 15.5t55 40t29 65t15.5 80t15.5 95t28.5 101.5q42 104 157 189l34 -42q-93 -79 -124 -171q-16 -49 -26.5 -110.5
t-16 -103.5t-19 -84t-43 -69t-79.5 -40q37 -10 63 -30t40.5 -40.5t24 -55t13 -60t8.5 -70t9 -70.5z" />
    <glyph glyph-name="bar" unicode="|" horiz-adv-x="269" 
d="M101 -231v1243h67v-1243h-67z" />
    <glyph glyph-name="braceright" unicode="}" horiz-adv-x="612" 
d="M298 809q17 -46 28.5 -101.5t15.5 -95t15.5 -80t29 -65t55 -40t95.5 -15.5v-69q-53 0 -89 -12.5t-55 -31.5t-30 -53.5t-14.5 -63.5t-9 -77t-12.5 -81q-18 -88 -56.5 -148.5t-113.5 -115.5l-36 44q61 51 92 108t44 140q4 26 9 70.5t8.5 70t13 60t24 55t40.5 40.5t63 30
q-50 13 -79.5 40t-43 69t-19 84t-16 103.5t-26.5 110.5q-31 92 -124 171l35 42q114 -85 156 -189z" />
    <glyph glyph-name="asciitilde" unicode="~" horiz-adv-x="829" 
d="M101 301q0 76 40.5 124t104.5 48q62 0 168 -52.5t154 -52.5q40 0 65 29t25 76h70q0 -75 -38.5 -123.5t-106.5 -48.5q-51 0 -111 26.5t-116.5 52.5t-96.5 26q-38 0 -63 -28.5t-25 -76.5h-70z" />
    <glyph glyph-name="exclamdown" unicode="&#xa1;" horiz-adv-x="391" 
d="M195 691q-20 0 -36.5 14.5t-16.5 32.5q0 19 16 33.5t37 14.5q22 0 37.5 -14t15.5 -34q0 -18 -16 -32.5t-37 -14.5zM154 -131l6 635h71l6 -635h-83z" />
    <glyph glyph-name="cent" unicode="&#xa2;" horiz-adv-x="1031" 
d="M889 210l37 -51q-41 -31 -128 -60.5t-195 -36.5v-193h-58v192q-203 2 -323.5 104.5t-120.5 278.5q0 120 61 208t160 130t223 44v178h58v-179q201 -9 326 -99l-40 -53q-121 87 -335 87q-160 0 -266.5 -82t-106.5 -234q0 -149 100.5 -233t272.5 -84q109 0 197 25.5
t138 57.5z" />
    <glyph glyph-name="sterling" unicode="&#xa3;" horiz-adv-x="1089" 
d="M267 66h720v-66h-869v66h12q54 0 72 37.5t18 107.5q0 29 -17 157h-102v66h94q-7 66 -7 126q0 142 101.5 227.5t285.5 85.5q249 0 389 -114l-42 -49q-117 96 -328 96q-161 0 -242 -70t-81 -183q0 -54 7 -119h503v-66h-496q15 -109 15 -165q0 -90 -33 -137z" />
    <glyph glyph-name="currency" unicode="&#xa4;" horiz-adv-x="661" 
d="M560 266l-43 -46l-101 94q-39 -21 -87 -21q-46 0 -86 19l-99 -92l-43 47l92 86q-29 37 -29 91q0 47 25 85l-88 81l43 47l92 -84q38 23 93 23q54 0 95 -22l93 86l42 -47l-87 -83q24 -36 24 -86q0 -51 -30 -89zM222 444q0 -44 29 -73t78 -29q47 0 77.5 29.5t30.5 72.5
q0 46 -28.5 74.5t-79.5 28.5q-49 0 -78 -30t-29 -73z" />
    <glyph glyph-name="yen" unicode="&#xa5;" horiz-adv-x="1145" 
d="M1044 873l-428 -480h296v-58h-298v-121h298v-57h-298v-157h-80v157h-300v57h300v121h-300v58h298l-431 480h116l356 -408l357 408h114z" />
    <glyph glyph-name="brokenbar" unicode="&#xa6;" horiz-adv-x="269" 
d="M101 481v531h67v-531h-67zM101 -231v534h67v-534h-67z" />
    <glyph glyph-name="section" unicode="&#xa7;" horiz-adv-x="729" 
d="M502 179q107 -70 107 -159q0 -75 -74 -124t-196 -49q-113 0 -208 36v68q39 -16 100 -26.5t108 -10.5q78 0 125.5 30.5t47.5 84.5q0 41 -42.5 78t-102.5 66.5t-120.5 61t-103 75.5t-42.5 96q0 50 30.5 96t89.5 75q-102 73 -102 175q0 72 74.5 118.5t194.5 46.5t208 -36
v-69q-38 18 -98.5 28.5t-109.5 10.5q-87 0 -137 -29t-50 -76q0 -42 31.5 -78t79 -60t103 -52t103 -54.5t79 -68.5t31.5 -92q0 -49 -34 -92t-92 -70zM184 414q0 -21 11.5 -41.5t28 -35.5t45.5 -32.5t52.5 -29t61 -30t59.5 -30.5q46 18 74.5 50.5t28.5 66.5q0 28 -14.5 52
t-45 45.5t-57.5 36t-73.5 37t-72.5 36.5q-48 -22 -73 -56t-25 -69z" />
    <glyph glyph-name="dieresis" unicode="&#xa8;" horiz-adv-x="601" 
d="M121 777q-23 0 -40.5 15.5t-17.5 35.5q0 21 17.5 36.5t40.5 15.5t40.5 -15.5t17.5 -36.5q0 -20 -17.5 -35.5t-40.5 -15.5zM480 777q-23 0 -40.5 15.5t-17.5 35.5q0 21 17.5 36.5t40.5 15.5t40.5 -15.5t17.5 -36.5q0 -20 -17.5 -35.5t-40.5 -15.5z" />
    <glyph glyph-name="copyright" unicode="&#xa9;" horiz-adv-x="1383" 
d="M692 -19q-258 0 -424.5 128t-166.5 335q0 132 80.5 241.5t216 170.5t294.5 61q255 0 422.5 -132t167.5 -341q0 -207 -165.5 -335t-424.5 -128zM692 34q144 0 261 45t191 139.5t74 224.5q0 131 -73 228t-191 145t-262 48q-141 0 -261.5 -53.5t-193 -151t-72.5 -216.5
q0 -125 70 -219t188.5 -142t268.5 -48zM690 208q-134 0 -225.5 66.5t-91.5 170.5q0 107 92 175.5t226 68.5q152 0 245 -68l-30 -48q-82 54 -208 54q-100 0 -170 -50t-70 -132q0 -79 69.5 -127.5t170.5 -48.5q137 0 213 56l34 -44q-81 -73 -255 -73z" />
    <glyph glyph-name="ordfeminine" unicode="&#xaa;" horiz-adv-x="616" 
d="M463 1074h52v-404h-51v24q-68 -29 -143 -29q-106 0 -163 56.5t-57 142.5q0 84 62.5 146t165.5 62q75 0 134 -34v36zM325 708q73 0 139 31l-1 245q-57 42 -134 42q-81 0 -130 -48t-49 -114q0 -70 47.5 -113t127.5 -43z" />
    <glyph glyph-name="guillemotleft" unicode="&#xab;" horiz-adv-x="1356" 
d="M746 694l-531 -260l532 -257l-26 -54l-620 288v49l616 287zM723 435l531 -258l-26 -54l-620 288v49l617 287l28 -53z" />
    <glyph glyph-name="logicalnot" unicode="&#xac;" horiz-adv-x="855" 
d="M685 234v172h-584v66h652v-238h-68z" />
    <glyph glyph-name="uni00AD" unicode="&#xad;" horiz-adv-x="1282" 
d="M206 329v63h870v-63h-870z" />
    <glyph glyph-name="registered" unicode="&#xae;" horiz-adv-x="1027" 
d="M514 917q109 0 202 -38.5t151.5 -115.5t58.5 -177q0 -103 -57.5 -178.5t-149.5 -111.5t-205 -36q-185 0 -299 89.5t-114 236.5q0 138 120.5 234.5t292.5 96.5zM514 297q101 0 183 29.5t135 96.5t53 163q0 137 -107.5 215.5t-263.5 78.5q-155 0 -263.5 -85t-108.5 -209
q0 -133 101.5 -211t270.5 -78zM715 669q0 -46 -35 -78t-87 -41l107 -167h-44l-104 163h-164v-163h-41v408h205q74 0 118.5 -34t44.5 -88zM549 578q51 0 87.5 25.5t36.5 65.5t-34.5 64.5t-89.5 24.5h-161v-180h161z" />
    <glyph glyph-name="macron" unicode="&#xaf;" horiz-adv-x="710" 
d="M63 812v65h584v-65h-584z" />
    <glyph glyph-name="degree" unicode="&#xb0;" horiz-adv-x="669" 
d="M335 544q-105 0 -169.5 50.5t-64.5 135.5q0 82 65.5 134.5t168.5 52.5q102 0 167 -52t65 -135t-66.5 -134.5t-165.5 -51.5zM334 586q75 0 126.5 40t51.5 104t-50.5 104.5t-127.5 40.5q-75 0 -126.5 -40.5t-51.5 -104.5q0 -67 50 -105.5t128 -38.5z" />
    <glyph glyph-name="plusminus" unicode="&#xb1;" horiz-adv-x="845" 
d="M456 545h287v-67h-287v-259h-68v259h-287v67h287v263h68v-263zM101 65v67h642v-67h-642z" />
    <glyph glyph-name="uni00B2" unicode="&#xb2;" horiz-adv-x="972" 
d="M206 323h665v-63h-765v54q39 74 125 138.5t179 108t180.5 85t144.5 89t57 100.5q0 72 -76.5 114t-223.5 42q-218 0 -327 -86l-39 50q137 98 369 98q177 0 273.5 -62t96.5 -158q0 -66 -53 -121t-136.5 -96.5t-171.5 -81t-172.5 -94.5t-125.5 -117z" />
    <glyph glyph-name="uni00B3" unicode="&#xb3;" horiz-adv-x="991" 
d="M592 677q157 -22 227.5 -71.5t70.5 -129.5q0 -95 -103 -158t-295 -63q-127 0 -228.5 28t-160.5 77l33 54q45 -40 136.5 -68t209.5 -28q153 0 242 44.5t89 116.5q0 81 -97 120t-318 51v58q171 0 281.5 41.5t110.5 109.5q0 61 -83.5 94t-231.5 33q-101 0 -194 -26t-135 -58
l-31 52q48 37 151.5 65.5t220.5 28.5q182 0 281 -52.5t99 -132.5q0 -69 -68.5 -117.5t-206.5 -68.5z" />
    <glyph glyph-name="acute" unicode="&#xb4;" horiz-adv-x="396" 
d="M63 745l181 247h89l-218 -247h-52z" />
    <glyph glyph-name="uni00B5" unicode="&#xb5;" horiz-adv-x="881" 
d="M810 200q0 -96 4.5 -128.5t19.5 -60.5l-1 -11h-66q-26 28 -26 100v102q-34 -95 -133.5 -157.5t-232.5 -62.5q-170 0 -242 117v-343h-70v906q36 7 79 0v-371q0 -124 65 -183t175 -59q153 0 251 90.5t98 226.5v296q16 4 42 3t37 -3v-462z" />
    <glyph glyph-name="paragraph" unicode="&#xb6;" horiz-adv-x="874" 
d="M313 -131v701q-104 0 -158 45t-54 114q0 70 51.5 115.5t160.5 45.5h460v-56h-126v-965h-60v965h-214v-965h-60z" />
    <glyph glyph-name="periodcentered" unicode="&#xb7;" horiz-adv-x="487" 
d="M243 347q-23 0 -40 15.5t-17 35.5q0 21 17 36.5t40 15.5q24 0 41.5 -15.5t17.5 -36.5q0 -20 -17.5 -35.5t-41.5 -15.5z" />
    <glyph glyph-name="cedilla" unicode="&#xb8;" horiz-adv-x="393" 
d="M200 -328q-73 0 -137 58l47 40q41 -37 84 -37q28 1 46.5 19t17.5 45q-1 37 -52 89q-40 40 -50.5 63.5t-10.5 61.5h70q0 -36 10 -55t49 -58q54 -53 56 -108q2 -49 -36 -83.5t-94 -34.5z" />
    <glyph glyph-name="uni00B9" unicode="&#xb9;" horiz-adv-x="780" 
d="M432 323h247v-63h-570v63h254v663l-240 -46l-12 54l279 54h42v-725z" />
    <glyph glyph-name="ordmasculine" unicode="&#xba;" horiz-adv-x="565" 
d="M283 667q-90 0 -158.5 51.5t-68.5 144.5q0 96 63.5 151.5t163.5 55.5t163 -55t63 -152q0 -93 -68 -144.5t-158 -51.5zM283 710q71 0 124 39t53 114q0 76 -49 118t-128 42q-80 0 -129.5 -42t-49.5 -118q0 -75 54 -114t125 -39z" />
    <glyph glyph-name="guillemotright" unicode="&#xbb;" horiz-adv-x="1356" 
d="M747 460v-49l-619 -288l-27 54l532 258l-530 259l28 53zM638 747l616 -287v-49l-619 -288l-26 54l531 258l-530 259z" />
    <glyph glyph-name="onequarter" unicode="&#xbc;" horiz-adv-x="1389" 
d="M101 436v63h174v479l-158 -44l-1 61l182 53h47v-549h164v-63h-408zM1212 1048h75l-999 -1179h-75zM1182 481v-397h73v-61h-73v-154h-71v154h-293v45l292 413h72zM1121 84l1 329l-231 -329h230z" />
    <glyph glyph-name="onehalf" unicode="&#xbd;" horiz-adv-x="1423" 
d="M101 441v63h174v479l-158 -44l-1 61l182 53h47v-549h164v-63h-408zM1208 1048h75l-999 -1179h-75zM987 -68h318v-63h-408v56q36 46 121.5 122t139.5 137.5t54 111.5q0 53 -37.5 86.5t-95.5 33.5q-76 0 -165 -68v62q89 70 186 70q86 0 139.5 -49t53.5 -120
q0 -44 -33.5 -96.5t-75 -92.5t-103.5 -97.5t-94 -92.5z" />
    <glyph glyph-name="threequarters" unicode="&#xbe;" horiz-adv-x="1362" 
d="M521 615q0 -68 -53.5 -120t-147.5 -52q-111 0 -206 83v59q103 -81 199 -81q61 0 102 36t41 86q0 102 -206 126v45q81 2 131.5 28t50.5 76q0 39 -38.5 68t-95.5 29q-82 0 -167 -65v53q80 65 169 65q86 0 137.5 -42t51.5 -98q0 -53 -35 -88.5t-96 -51.5q82 -23 122.5 -63.5
t40.5 -92.5zM1180 1036h75l-999 -1178h-75zM1162 481v-397h72v-61h-72v-154h-72v154h-293v45l292 413h73zM1100 84l1 326l-230 -326h229z" />
    <glyph glyph-name="questiondown" unicode="&#xbf;" horiz-adv-x="945" 
d="M525 669q20 0 36.5 -14t16.5 -33t-16.5 -33.5t-36.5 -14.5q-22 0 -38 14.5t-16 33.5t16 33t38 14zM553 414q12 -50 -3 -92.5t-48.5 -72.5t-77 -57t-89 -51t-84 -48t-63 -54.5t-24.5 -64.5q0 -67 78 -112t222 -45q107 0 211.5 36t172.5 91l42 -50q-192 -142 -431 -142
q-180 0 -277.5 61t-97.5 156q0 46 25.5 84.5t65 66t87 53t93.5 49.5t82 50.5t53.5 62.5t8.5 79h54z" />
    <glyph glyph-name="Agrave" unicode="&#xc0;" horiz-adv-x="1137" 
d="M643 967h-54l-206 190h76zM616 896q29 -48 248 -438t259 -446l-4 -12q-69 0 -91 8q-28 42 -125 218h-670l-128 -226h-91l514 896q15 6 44.5 5.5t43.5 -5.5zM270 291h597q-30 55 -292 538z" />
    <glyph glyph-name="Aacute" unicode="&#xc1;" horiz-adv-x="1137" 
d="M816 1139l-212 -194h-57l185 194h84zM616 896q29 -48 248 -438t259 -446l-4 -12q-69 0 -91 8q-28 42 -125 218h-670l-128 -226h-91l514 896q15 6 44.5 5.5t43.5 -5.5zM270 291h597q-30 55 -292 538z" />
    <glyph glyph-name="Acircumflex" unicode="&#xc2;" horiz-adv-x="1137" 
d="M578 1117l-187 -173h-84l247 222h48l247 -222h-84zM616 896q29 -48 248 -438t259 -446l-4 -12q-69 0 -91 8q-28 42 -125 218h-670l-128 -226h-91l514 896q15 6 44.5 5.5t43.5 -5.5zM270 291h597q-30 55 -292 538z" />
    <glyph glyph-name="Atilde" unicode="&#xc3;" horiz-adv-x="1137" 
d="M433 1065q-34 0 -56 -28.5t-22 -77.5h-54q0 73 34.5 119t88.5 46t148.5 -55.5t136.5 -55.5q36 -1 57 28t21 77h54q0 -71 -33 -117.5t-90 -46.5q-44 0 -96.5 28t-102 55.5t-86.5 27.5zM616 896q29 -48 248 -438t259 -446l-4 -12q-69 0 -91 8q-28 42 -125 218h-670
l-128 -226h-91l514 896q15 6 44.5 5.5t43.5 -5.5zM270 291h597q-30 55 -292 538z" />
    <glyph glyph-name="Adieresis" unicode="&#xc4;" horiz-adv-x="1137" 
d="M407 983q-20 0 -34.5 13t-14.5 30q0 18 14.5 31t34.5 13t34.5 -13t14.5 -31q0 -17 -14.5 -30t-34.5 -13zM742 983q-20 0 -34.5 13t-14.5 30q0 18 14.5 31t34.5 13t34.5 -13t14.5 -31q0 -17 -14.5 -30t-34.5 -13zM616 896q29 -48 248 -438t259 -446l-4 -12q-69 0 -91 8
q-28 42 -125 218h-670l-128 -226h-91l514 896q15 6 44.5 5.5t43.5 -5.5zM270 291h597q-30 55 -292 538z" />
    <glyph glyph-name="Aring" unicode="&#xc5;" horiz-adv-x="1137" 
d="M621 888q37 -62 153 -270t217.5 -386t131.5 -220l-4 -12q-69 0 -91 8q-28 42 -125 218h-670l-128 -226h-91l509 888q-81 9 -129 45t-48 93q0 62 62 101.5t168 39.5q98 0 161.5 -39.5t63.5 -101.5q0 -54 -51.5 -91.5t-128.5 -46.5zM397 1026q0 -45 48 -74t130 -29
q71 0 123.5 30.5t52.5 72.5q0 45 -52 74t-124 29q-79 0 -128.5 -29t-49.5 -74zM270 291h597q-30 55 -292 538z" />
    <glyph glyph-name="AE" unicode="&#xc6;" horiz-adv-x="1775" 
d="M1729 66q8 -9 8.5 -31.5t-8.5 -34.5h-836v226h-559l-214 -226h-106l863 896h823q5 -15 0 -35.5t-14 -30.5h-713v-363h623q5 -16 -0.5 -37.5t-14.5 -28.5h-608v-335h756zM395 291h498v527z" />
    <glyph glyph-name="Ccedilla" unicode="&#xc7;" horiz-adv-x="1016" 
d="M972 598q-54 -11 -79 -5q2 114 -90 186t-234 70q-190 -3 -319 -117.5t-129 -286.5q0 -180 126 -287t318 -108q84 0 176 23.5t166 69.5q17 -7 29.5 -26.5t12.5 -28.5q-82 -52 -187 -79t-197 -27q-21 0 -31 1q1 -20 9 -36t18 -27t41 -41q54 -54 56 -109q2 -48 -36 -82.5
t-94 -35.5q-72 0 -137 59l43 37q47 -43 94 -43q29 0 48.5 19.5t19.5 48.5q-1 21 -15.5 42t-44.5 53q-38 39 -48.5 61.5t-10.5 57.5q-194 25 -316.5 147.5t-122.5 315.5q0 133 73.5 240.5t195 166.5t264.5 60q180 2 295 -89t106 -230z" />
    <glyph glyph-name="Egrave" unicode="&#xc8;" horiz-adv-x="958" 
d="M556 967h-54l-206 190h76zM912 66q8 -9 8.5 -31.5t-8.5 -34.5h-836v886l10 10h797q5 -15 0 -35.5t-14 -30.5h-713v-366h624q4 -16 -1.5 -37t-14.5 -29h-608v-332h756z" />
    <glyph glyph-name="Eacute" unicode="&#xc9;" horiz-adv-x="958" 
d="M729 1139l-212 -194h-57l185 194h84zM912 66q8 -9 8.5 -31.5t-8.5 -34.5h-836v886l10 10h797q5 -15 0 -35.5t-14 -30.5h-713v-366h624q4 -16 -1.5 -37t-14.5 -29h-608v-332h756z" />
    <glyph glyph-name="Ecircumflex" unicode="&#xca;" horiz-adv-x="958" 
d="M491 1117l-187 -173h-84l247 222h48l247 -222h-84zM912 66q8 -9 8.5 -31.5t-8.5 -34.5h-836v886l10 10h797q5 -15 0 -35.5t-14 -30.5h-713v-366h624q4 -16 -1.5 -37t-14.5 -29h-608v-332h756z" />
    <glyph glyph-name="Edieresis" unicode="&#xcb;" horiz-adv-x="958" 
d="M320 983q-20 0 -34.5 13t-14.5 30q0 18 14.5 31t34.5 13t34.5 -13t14.5 -31q0 -17 -14.5 -30t-34.5 -13zM655 983q-20 0 -34.5 13t-14.5 30q0 18 14.5 31t34.5 13t34.5 -13t14.5 -31q0 -17 -14.5 -30t-34.5 -13zM912 66q8 -9 8.5 -31.5t-8.5 -34.5h-836v886l10 10h797
q5 -15 0 -35.5t-14 -30.5h-713v-366h624q4 -16 -1.5 -37t-14.5 -29h-608v-332h756z" />
    <glyph glyph-name="Igrave" unicode="&#xcc;" horiz-adv-x="232" 
d="M131 967l-206 190h76l184 -190h-54zM76 0v896q16 5 42 4.5t38 -4.5v-896h-80z" />
    <glyph glyph-name="Iacute" unicode="&#xcd;" horiz-adv-x="232" 
d="M88 945l185 194h84l-212 -194h-57zM76 0v896q16 5 42 4.5t38 -4.5v-896h-80z" />
    <glyph glyph-name="Icircumflex" unicode="&#xce;" horiz-adv-x="232" 
d="M143 1166l247 -222h-84l-187 173l-187 -173h-84l247 222h48zM76 896q16 5 42 4.5t38 -4.5v-896h-80v896z" />
    <glyph glyph-name="Idieresis" unicode="&#xcf;" horiz-adv-x="232" 
d="M-51 983q-20 0 -34.5 13t-14.5 30q0 18 14.5 31t34.5 13t34.5 -13t14.5 -31q0 -17 -14.5 -30t-34.5 -13zM284 983q-20 0 -34.5 13t-14.5 30q0 18 14.5 31t34.5 13t34.5 -13t14.5 -31q0 -17 -14.5 -30t-34.5 -13zM76 0v896q16 5 42 4.5t38 -4.5v-896h-80z" />
    <glyph glyph-name="Eth" unicode="&#xd0;" horiz-adv-x="1140" 
d="M531 917q258 0 414.5 -126.5t156.5 -330.5q0 -215 -149.5 -346t-394.5 -132q-148 0 -224 8.5t-192 34.5v413h-90v62h90v382q167 35 389 35zM552 47q212 0 339.5 113.5t127.5 297.5q0 172 -134 283t-359 111q-186 0 -304 -21v-331h411v-62h-411v-357q132 -34 330 -34z" />
    <glyph glyph-name="Ntilde" unicode="&#xd1;" horiz-adv-x="1141" 
d="M429 1065q-34 0 -56 -28.5t-22 -77.5h-54q0 73 34.5 119t88.5 46t148.5 -55.5t136.5 -55.5q36 -1 57 28t21 77h54q0 -71 -33 -117.5t-90 -46.5q-44 0 -96.5 28t-102 55.5t-86.5 27.5zM985 896q17 5 41.5 4.5t38.5 -4.5v-896h-65l-844 781v-781h-80v877q8 9 31.5 15.5
t34.5 3.5l843 -783v783z" />
    <glyph glyph-name="Ograve" unicode="&#xd2;" horiz-adv-x="1118" 
d="M614 978l-206 190h76l184 -190h-54zM508 -18q-209 0 -339.5 121t-130.5 300q0 146 78.5 264.5t211.5 184t291 65.5q128 0 234.5 -59.5t166.5 -160t60 -218.5q0 -138 -80 -253.5t-211 -179.5t-281 -64zM515 50q197 0 339.5 126t142.5 305q0 157 -111 262.5t-277 105.5
q-134 0 -246 -57.5t-177 -159t-65 -225.5q0 -149 107 -253t287 -104z" />
    <glyph glyph-name="Oacute" unicode="&#xd3;" horiz-adv-x="1118" 
d="M571 956l185 194h84l-212 -194h-57zM508 -18q-209 0 -339.5 121t-130.5 300q0 146 78.5 264.5t211.5 184t291 65.5q128 0 234.5 -59.5t166.5 -160t60 -218.5q0 -138 -80 -253.5t-211 -179.5t-281 -64zM515 50q197 0 339.5 126t142.5 305q0 157 -111 262.5t-277 105.5
q-134 0 -246 -57.5t-177 -159t-65 -225.5q0 -149 107 -253t287 -104z" />
    <glyph glyph-name="Ocircumflex" unicode="&#xd4;" horiz-adv-x="1118" 
d="M602 1128l-187 -173h-84l247 222h48l247 -222h-84zM619 917q128 0 234.5 -59.5t166.5 -160t60 -218.5q0 -138 -80 -253.5t-211 -179.5t-281 -64q-209 0 -339.5 121t-130.5 300q0 146 78.5 264.5t211.5 184t291 65.5zM515 50q197 0 339.5 126t142.5 305q0 157 -111 262.5
t-277 105.5q-134 0 -246 -57.5t-177 -159t-65 -225.5q0 -149 107 -253t287 -104z" />
    <glyph glyph-name="Otilde" unicode="&#xd5;" horiz-adv-x="1118" 
d="M743 965q-44 0 -96.5 28t-102 55.5t-86.5 27.5q-34 0 -56 -28.5t-22 -77.5h-54q0 73 34.5 119t88.5 46t148.5 -55.5t136.5 -55.5q36 -1 57 28t21 77h54q0 -71 -33 -117.5t-90 -46.5zM508 -18q-209 0 -339.5 121t-130.5 300q0 146 78.5 264.5t211.5 184t291 65.5
q128 0 234.5 -59.5t166.5 -160t60 -218.5q0 -138 -80 -253.5t-211 -179.5t-281 -64zM515 50q197 0 339.5 126t142.5 305q0 157 -111 262.5t-277 105.5q-134 0 -246 -57.5t-177 -159t-65 -225.5q0 -149 107 -253t287 -104z" />
    <glyph glyph-name="Odieresis" unicode="&#xd6;" horiz-adv-x="1118" 
d="M432 994q-20 0 -34.5 13t-14.5 30q0 18 14.5 31t34.5 13t34.5 -13t14.5 -31q0 -17 -14.5 -30t-34.5 -13zM767 994q-20 0 -34.5 13t-14.5 30q0 18 14.5 31t34.5 13t34.5 -13t14.5 -31q0 -17 -14.5 -30t-34.5 -13zM508 -18q-209 0 -339.5 121t-130.5 300q0 146 78.5 264.5
t211.5 184t291 65.5q128 0 234.5 -59.5t166.5 -160t60 -218.5q0 -138 -80 -253.5t-211 -179.5t-281 -64zM515 50q197 0 339.5 126t142.5 305q0 157 -111 262.5t-277 105.5q-134 0 -246 -57.5t-177 -159t-65 -225.5q0 -149 107 -253t287 -104z" />
    <glyph glyph-name="multiply" unicode="&#xd7;" horiz-adv-x="876" 
d="M774 597l-278 -189l278 -190h-115l-221 150l-221 -150h-116l279 190l-279 189h116l221 -150l221 150h115z" />
    <glyph glyph-name="Oslash" unicode="&#xd8;" horiz-adv-x="1163" 
d="M976 781q126 -126 126 -302q0 -138 -80 -253.5t-211 -179.5t-281 -64q-165 0 -287 80l-64 -62h-87l102 100q-134 120 -134 303q0 146 78.5 264.5t211.5 184t291 65.5q164 0 289 -96l72 71h88zM143 407q0 -152 107 -253l627 615q-104 80 -246 80q-134 0 -246 -57.5
t-177 -159t-65 -225.5zM537 50q197 0 339.5 126t142.5 305q0 145 -96 247l-625 -612q100 -66 239 -66z" />
    <glyph glyph-name="Ugrave" unicode="&#xd9;" horiz-adv-x="1139" 
d="M584 974l-206 190h76l184 -190h-54zM553 -21q-227 0 -352 105t-125 306v506q15 5 43 4.5t40 -4.5v-510q0 -165 104.5 -251.5t289.5 -86.5q196 0 311.5 97.5t115.5 252.5v498q17 5 43 4t40 -4v-500q0 -181 -135.5 -299t-374.5 -118z" />
    <glyph glyph-name="Uacute" unicode="&#xda;" horiz-adv-x="1139" 
d="M542 952l185 194h84l-212 -194h-57zM553 -21q-227 0 -352 105t-125 306v506q15 5 43 4.5t40 -4.5v-510q0 -165 104.5 -251.5t289.5 -86.5q196 0 311.5 97.5t115.5 252.5v498q17 5 43 4t40 -4v-500q0 -181 -135.5 -299t-374.5 -118z" />
    <glyph glyph-name="Ucircumflex" unicode="&#xdb;" horiz-adv-x="1139" 
d="M573 1124l-187 -173h-84l247 222h48l247 -222h-84zM980 896q17 5 43 4t40 -4v-500q0 -181 -135.5 -299t-374.5 -118q-227 0 -352 105t-125 306v506q15 5 43 4.5t40 -4.5v-510q0 -165 104.5 -251.5t289.5 -86.5q196 0 311.5 97.5t115.5 252.5v498z" />
    <glyph glyph-name="Udieresis" unicode="&#xdc;" horiz-adv-x="1139" 
d="M402 990q-20 0 -34.5 13t-14.5 30q0 18 14.5 31t34.5 13t34.5 -13t14.5 -31q0 -17 -14.5 -30t-34.5 -13zM737 990q-20 0 -34.5 13t-14.5 30q0 18 14.5 31t34.5 13t34.5 -13t14.5 -31q0 -17 -14.5 -30t-34.5 -13zM553 -21q-227 0 -352 105t-125 306v506q15 5 43 4.5
t40 -4.5v-510q0 -165 104.5 -251.5t289.5 -86.5q196 0 311.5 97.5t115.5 252.5v498q17 5 43 4t40 -4v-500q0 -181 -135.5 -299t-374.5 -118z" />
    <glyph glyph-name="Yacute" unicode="&#xdd;" horiz-adv-x="1035" 
d="M759 1139l-212 -194h-57l185 194h84zM1018 896q26 -274 -427 -602v-294h-80v299q-68 90 -244.5 300.5t-251.5 282.5l6 14q57 10 95 0q50 -49 201.5 -230.5t245.5 -298.5q173 120 278.5 264t95.5 259q27 14 81 6z" />
    <glyph glyph-name="Thorn" unicode="&#xde;" horiz-adv-x="1003" 
d="M486 793q219 0 349 -87.5t130 -244.5q0 -107 -67 -182.5t-176.5 -111t-249.5 -35.5q-171 0 -308 38v-170h-88v893q16 6 46 5t42 -5v-129q133 29 322 29zM476 198q179 0 292.5 69t113.5 196q0 125 -104 194.5t-295 69.5q-195 0 -319 -30v-458q126 -41 312 -41z" />
    <glyph glyph-name="germandbls" unicode="&#xdf;" horiz-adv-x="969" 
d="M626 515q132 -8 220.5 -75t88.5 -168q0 -135 -98.5 -212t-247.5 -78q-136 0 -252 70q-3 17 5 38.5t23 29.5q99 -70 213 -70q124 1 200.5 62t76.5 165q0 85 -82 139t-211 53q-82 0 -177 -37q-13 9 -11.5 36.5t9.5 32.5q49 21 97 27q250 42 250 168q0 68 -65.5 113.5
t-195.5 45.5q-122 0 -201.5 -70.5t-79.5 -181.5v-603h-79v621q0 143 103.5 222t259.5 79q175 -1 258 -65.5t83 -151.5q0 -64 -48 -113t-139 -77z" />
    <glyph glyph-name="agrave" unicode="&#xe0;" horiz-adv-x="847" 
d="M538 782h-61l-228 247h89zM775 172q0 -73 7.5 -104t26.5 -59l-2 -9h-76q-14 14 -21 23.5t-13 36.5t-6 72v60q-62 -95 -169.5 -152.5t-230.5 -57.5q-113 0 -180 48t-67 122q0 66 43.5 117t118 81t167 45.5t196.5 14.5q64 0 115 -5q-8 113 -75 176t-176 63q-129 0 -290 -91
q-27 12 -32 56q169 95 320 95q161 0 251.5 -89.5t91.5 -254.5zM683 340l2 13q-73 5 -125 5q-120 0 -215 -20.5t-155 -66t-60 -109.5q0 -53 45.5 -84.5t126.5 -31.5q78 0 149.5 27.5t119.5 71t78 95t34 100.5z" />
    <glyph glyph-name="aacute" unicode="&#xe1;" horiz-adv-x="847" 
d="M669 1029l-213 -247h-57l181 247h89zM775 172q0 -73 7.5 -104t26.5 -59l-2 -9h-76q-14 14 -21 23.5t-13 36.5t-6 72v60q-62 -95 -169.5 -152.5t-230.5 -57.5q-113 0 -180 48t-67 122q0 66 43.5 117t118 81t167 45.5t196.5 14.5q64 0 115 -5q-8 113 -75 176t-176 63
q-129 0 -290 -91q-27 12 -32 56q169 95 320 95q161 0 251.5 -89.5t91.5 -254.5zM683 340l2 13q-73 5 -125 5q-120 0 -215 -20.5t-155 -66t-60 -109.5q0 -53 45.5 -84.5t126.5 -31.5q78 0 149.5 27.5t119.5 71t78 95t34 100.5z" />
    <glyph glyph-name="acircumflex" unicode="&#xe2;" horiz-adv-x="847" 
d="M439 917l-188 -172h-92l258 231h42l258 -231h-91zM775 172q0 -73 7.5 -104t26.5 -59l-2 -9h-76q-14 14 -21 23.5t-13 36.5t-6 72v60q-62 -95 -169.5 -152.5t-230.5 -57.5q-113 0 -180 48t-67 122q0 66 43.5 117t118 81t167 45.5t196.5 14.5q64 0 115 -5q-8 113 -75 176
t-176 63q-129 0 -290 -91q-27 12 -32 56q169 95 320 95q161 0 251.5 -89.5t91.5 -254.5zM683 340l2 13q-73 5 -125 5q-120 0 -215 -20.5t-155 -66t-60 -109.5q0 -53 45.5 -84.5t126.5 -31.5q78 0 149.5 27.5t119.5 71t78 95t34 100.5z" />
    <glyph glyph-name="atilde" unicode="&#xe3;" horiz-adv-x="847" 
d="M296 917q-34 0 -56 -28.5t-22 -77.5h-54q0 75 34.5 122.5t88.5 47.5q55 0 151.5 -55.5t138.5 -55.5q36 0 57.5 29t21.5 77h54q0 -74 -33 -122t-90 -48q-45 0 -99 28t-104.5 55.5t-87.5 27.5zM775 172q0 -73 7.5 -104t26.5 -59l-2 -9h-76q-14 14 -21 23.5t-13 36.5t-6 72
v60q-62 -95 -169.5 -152.5t-230.5 -57.5q-113 0 -180 48t-67 122q0 66 43.5 117t118 81t167 45.5t196.5 14.5q64 0 115 -5q-8 113 -75 176t-176 63q-129 0 -290 -91q-27 12 -32 56q169 95 320 95q161 0 251.5 -89.5t91.5 -254.5zM683 340l2 13q-73 5 -125 5
q-120 0 -215 -20.5t-155 -66t-60 -109.5q0 -53 45.5 -84.5t126.5 -31.5q78 0 149.5 27.5t119.5 71t78 95t34 100.5z" />
    <glyph glyph-name="adieresis" unicode="&#xe4;" horiz-adv-x="847" 
d="M263 814q-23 0 -40.5 15.5t-17.5 35.5q0 21 17.5 36.5t40.5 15.5t40.5 -15.5t17.5 -36.5q0 -20 -17.5 -35.5t-40.5 -15.5zM622 814q-23 0 -40.5 15.5t-17.5 35.5q0 21 17.5 36.5t40.5 15.5t40.5 -15.5t17.5 -36.5q0 -20 -17.5 -35.5t-40.5 -15.5zM775 172q0 -73 7.5 -104
t26.5 -59l-2 -9h-76q-14 14 -21 23.5t-13 36.5t-6 72v60q-62 -95 -169.5 -152.5t-230.5 -57.5q-113 0 -180 48t-67 122q0 66 43.5 117t118 81t167 45.5t196.5 14.5q64 0 115 -5q-8 113 -75 176t-176 63q-129 0 -290 -91q-27 12 -32 56q169 95 320 95q161 0 251.5 -89.5
t91.5 -254.5zM683 340l2 13q-73 5 -125 5q-120 0 -215 -20.5t-155 -66t-60 -109.5q0 -53 45.5 -84.5t126.5 -31.5q78 0 149.5 27.5t119.5 71t78 95t34 100.5z" />
    <glyph glyph-name="aring" unicode="&#xe5;" horiz-adv-x="847" 
d="M440 772q-103 0 -166.5 37.5t-63.5 102.5q0 62 62 101.5t168 39.5q98 0 161.5 -39.5t63.5 -101.5t-67 -101t-158 -39zM439 1016q-79 0 -128.5 -29.5t-49.5 -74.5t48 -73.5t130 -28.5q70 0 123 30t53 72q0 45 -52 74.5t-124 29.5zM775 172q0 -73 7.5 -104t26.5 -59l-2 -9
h-76q-14 14 -21 23.5t-13 36.5t-6 72v60q-62 -95 -169.5 -152.5t-230.5 -57.5q-113 0 -180 48t-67 122q0 66 43.5 117t118 81t167 45.5t196.5 14.5q64 0 115 -5q-8 113 -75 176t-176 63q-129 0 -290 -91q-27 12 -32 56q169 95 320 95q161 0 251.5 -89.5t91.5 -254.5z
M683 340l2 13q-73 5 -125 5q-120 0 -215 -20.5t-155 -66t-60 -109.5q0 -53 45.5 -84.5t126.5 -31.5q78 0 149.5 27.5t119.5 71t78 95t34 100.5z" />
    <glyph glyph-name="ae" unicode="&#xe6;" horiz-adv-x="1473" 
d="M1091 704q162 0 259.5 -90t90.5 -252l-15 -17l-655 -75q15 -103 96 -162t199 -60q151 0 291 99q13 -5 22.5 -17t13 -21t3.5 -11q-157 -116 -339 -116q-124 0 -218.5 52.5t-133.5 150.5q-64 -91 -175 -147.5t-239 -55.5q-113 1 -180 48.5t-67 121.5q0 87 75.5 147t190 86
t255.5 25q47 0 112 -5q-10 111 -74 173t-170 62q-122 0 -290 -87q-27 12 -32 56q169 95 320 95q114 0 194.5 -47t116.5 -136q55 85 147 134t202 49zM1355 385q1 122 -70 189t-194 67q-130 0 -224.5 -91.5t-98.5 -225.5zM678 340l1 13q-70 5 -119 5q-120 0 -215 -20.5
t-155 -66t-60 -109.5q0 -53 45.5 -84.5t126.5 -31.5q150 0 258.5 92t117.5 202z" />
    <glyph glyph-name="ccedilla" unicode="&#xe7;" horiz-adv-x="826" 
d="M791 376q-55 -14 -84 -5q2 120 -64.5 193t-195.5 73q-130 0 -231 -89t-101 -220q0 -127 87.5 -203.5t211.5 -75.5q176 0 300 99q15 -5 26 -18t14.5 -22t3.5 -12q-71 -57 -150 -85t-184 -29q2 -15 11.5 -29.5t18 -24t37.5 -37.5q54 -54 56 -109q2 -48 -36 -82.5t-94 -35.5
q-72 0 -137 59l43 37q46 -43 93 -43q30 0 49.5 19t19.5 48q-1 34 -61 96q-33 35 -44.5 56t-13.5 48q-140 15 -236 107t-96 237q0 107 60.5 194.5t155.5 134.5t202 47q164 0 254 -92t85 -236z" />
    <glyph glyph-name="egrave" unicode="&#xe8;" horiz-adv-x="825" 
d="M541 782h-61l-228 247h89zM444 704q162 0 259.5 -90t90.5 -252l-15 -17l-656 -76q15 -103 96.5 -161.5t198.5 -59.5q153 0 291 99q13 -5 22.5 -17t13 -21t3.5 -11q-157 -116 -339 -116q-161 0 -268 87.5t-107 242.5q0 166 119 279t291 113zM707 390q1 120 -69.5 185.5
t-193.5 65.5q-129 0 -223.5 -90.5t-100.5 -223.5z" />
    <glyph glyph-name="eacute" unicode="&#xe9;" horiz-adv-x="825" 
d="M672 1029l-213 -247h-57l181 247h89zM444 704q162 0 259.5 -90t90.5 -252l-15 -17l-656 -76q15 -103 96.5 -161.5t198.5 -59.5q153 0 291 99q13 -5 22.5 -17t13 -21t3.5 -11q-157 -116 -339 -116q-161 0 -268 87.5t-107 242.5q0 166 119 279t291 113zM707 390
q1 120 -69.5 185.5t-193.5 65.5q-129 0 -223.5 -90.5t-100.5 -223.5z" />
    <glyph glyph-name="ecircumflex" unicode="&#xea;" horiz-adv-x="825" 
d="M442 917l-188 -172h-92l258 231h42l258 -231h-91zM444 704q162 0 259.5 -90t90.5 -252l-15 -17l-656 -76q15 -103 96.5 -161.5t198.5 -59.5q153 0 291 99q13 -5 22.5 -17t13 -21t3.5 -11q-157 -116 -339 -116q-161 0 -268 87.5t-107 242.5q0 166 119 279t291 113z
M707 390q1 120 -69.5 185.5t-193.5 65.5q-129 0 -223.5 -90.5t-100.5 -223.5z" />
    <glyph glyph-name="edieresis" unicode="&#xeb;" horiz-adv-x="825" 
d="M267 814q-23 0 -40.5 15.5t-17.5 35.5q0 21 17.5 36.5t40.5 15.5t40.5 -15.5t17.5 -36.5q0 -20 -17.5 -35.5t-40.5 -15.5zM626 814q-23 0 -40.5 15.5t-17.5 35.5q0 21 17.5 36.5t40.5 15.5t40.5 -15.5t17.5 -36.5q0 -20 -17.5 -35.5t-40.5 -15.5zM444 704
q162 0 259.5 -90t90.5 -252l-15 -17l-656 -76q15 -103 96.5 -161.5t198.5 -59.5q153 0 291 99q13 -5 22.5 -17t13 -21t3.5 -11q-157 -116 -339 -116q-161 0 -268 87.5t-107 242.5q0 166 119 279t291 113zM707 390q1 120 -69.5 185.5t-193.5 65.5q-129 0 -223.5 -90.5
t-100.5 -223.5z" />
    <glyph glyph-name="igrave" unicode="&#xec;" horiz-adv-x="248" 
d="M163 782l-228 247h89l200 -247h-61zM85 0v662q14 4 40 4t39 -4v-662h-79z" />
    <glyph glyph-name="iacute" unicode="&#xed;" horiz-adv-x="248" 
d="M85 782l181 247h89l-213 -247h-57zM85 0v662q14 4 40 4t39 -4v-662h-79z" />
    <glyph glyph-name="icircumflex" unicode="&#xee;" horiz-adv-x="248" 
d="M145 976l258 -231h-91l-187 172l-188 -172h-92l258 231h42zM85 662q14 4 40 4t39 -4v-662h-79v662z" />
    <glyph glyph-name="idieresis" unicode="&#xef;" horiz-adv-x="248" 
d="M-50 814q-23 0 -40.5 15.5t-17.5 35.5q0 21 17.5 36.5t40.5 15.5t40.5 -15.5t17.5 -36.5q0 -20 -17.5 -35.5t-40.5 -15.5zM309 814q-23 0 -40.5 15.5t-17.5 35.5q0 21 17.5 36.5t40.5 15.5t40.5 -15.5t17.5 -36.5q0 -20 -17.5 -35.5t-40.5 -15.5zM85 0v662q14 4 40 4
t39 -4v-662h-79z" />
    <glyph glyph-name="eth" unicode="&#xf0;" horiz-adv-x="830" 
d="M534 759q262 -192 261 -421q0 -66 -24.5 -128t-72 -114.5t-128.5 -84.5t-183 -32q-163 0 -258 84t-95 214q1 149 113 242t272 93t253 -96q-62 110 -211 212q-114 -45 -280 -99q-27 10 -32 43q215 75 258 92q-100 62 -206 102q3 34 43 51q133 -53 238 -121q136 61 143 109
q18 5 43.5 1.5t40.5 -13.5q-8 -59 -175 -134zM392 46q143 0 233 82t90 202q0 91 -78.5 155.5t-202.5 64.5q-137 0 -227.5 -75.5t-91.5 -193.5q-1 -102 72 -168.5t205 -66.5z" />
    <glyph glyph-name="ntilde" unicode="&#xf1;" horiz-adv-x="896" 
d="M362 917q-34 0 -56 -28.5t-22 -77.5h-54q0 75 34.5 122.5t88.5 47.5q55 0 151.5 -55.5t138.5 -55.5q36 0 57.5 29t21.5 77h54q0 -74 -33 -122t-90 -48q-45 0 -99 28t-104.5 55.5t-87.5 27.5zM508 703q158 0 241.5 -90t83.5 -254v-359h-79v344q0 136 -64.5 212.5
t-190.5 76.5q-89 0 -169 -52.5t-127 -134t-47 -165.5v-281h-79v519q0 74 -14 129v13q43 9 76 6q13 -38 13 -87v-96q53 92 150.5 155.5t205.5 63.5z" />
    <glyph glyph-name="ograve" unicode="&#xf2;" horiz-adv-x="893" 
d="M508 782l-228 247h89l200 -247h-61zM421 -18q-181 0 -284 95t-103 236q0 160 128 275.5t316 115.5q172 0 275.5 -95.5t104.5 -239.5q1 -108 -54.5 -196.5t-156 -139.5t-226.5 -51zM425 49q153 0 253 92.5t100 220.5q0 116 -84.5 195.5t-220.5 79.5q-152 0 -255 -96.5
t-103 -228.5q0 -111 81 -187t229 -76z" />
    <glyph glyph-name="oacute" unicode="&#xf3;" horiz-adv-x="893" 
d="M430 782l181 247h89l-213 -247h-57zM421 -18q-181 0 -284 95t-103 236q0 160 128 275.5t316 115.5q172 0 275.5 -95.5t104.5 -239.5q1 -108 -54.5 -196.5t-156 -139.5t-226.5 -51zM425 49q153 0 253 92.5t100 220.5q0 116 -84.5 195.5t-220.5 79.5q-152 0 -255 -96.5
t-103 -228.5q0 -111 81 -187t229 -76z" />
    <glyph glyph-name="ocircumflex" unicode="&#xf4;" horiz-adv-x="893" 
d="M469 917l-188 -172h-92l258 231h42l258 -231h-91zM858 369q1 -108 -54.5 -196.5t-156 -139.5t-226.5 -51q-181 0 -284 95t-103 236q0 160 128 275.5t316 115.5q172 0 275.5 -95.5t104.5 -239.5zM425 49q153 0 253 92.5t100 220.5q0 116 -84.5 195.5t-220.5 79.5
q-152 0 -255 -96.5t-103 -228.5q0 -111 81 -187t229 -76z" />
    <glyph glyph-name="otilde" unicode="&#xf5;" horiz-adv-x="893" 
d="M618 806q-45 0 -99 28t-104.5 55.5t-87.5 27.5q-34 0 -56 -28.5t-22 -77.5h-54q0 75 34.5 122.5t88.5 47.5q55 0 151.5 -55.5t138.5 -55.5q36 0 57.5 29t21.5 77h54q0 -74 -33 -122t-90 -48zM421 -18q-181 0 -284 95t-103 236q0 160 128 275.5t316 115.5
q172 0 275.5 -95.5t104.5 -239.5q1 -108 -54.5 -196.5t-156 -139.5t-226.5 -51zM425 49q153 0 253 92.5t100 220.5q0 116 -84.5 195.5t-220.5 79.5q-152 0 -255 -96.5t-103 -228.5q0 -111 81 -187t229 -76z" />
    <glyph glyph-name="odieresis" unicode="&#xf6;" horiz-adv-x="893" 
d="M294 814q-23 0 -40.5 15.5t-17.5 35.5q0 21 17.5 36.5t40.5 15.5t40.5 -15.5t17.5 -36.5q0 -20 -17.5 -35.5t-40.5 -15.5zM653 814q-23 0 -40.5 15.5t-17.5 35.5q0 21 17.5 36.5t40.5 15.5t40.5 -15.5t17.5 -36.5q0 -20 -17.5 -35.5t-40.5 -15.5zM421 -18q-181 0 -284 95
t-103 236q0 160 128 275.5t316 115.5q172 0 275.5 -95.5t104.5 -239.5q1 -108 -54.5 -196.5t-156 -139.5t-226.5 -51zM425 49q153 0 253 92.5t100 220.5q0 116 -84.5 195.5t-220.5 79.5q-152 0 -255 -96.5t-103 -228.5q0 -111 81 -187t229 -76z" />
    <glyph glyph-name="divide" unicode="&#xf7;" horiz-adv-x="850" 
d="M424 602q-23 0 -41 16t-18 36q0 21 18 36.5t41 15.5q24 0 41.5 -15.5t17.5 -36.5q0 -20 -17.5 -36t-41.5 -16zM101 399v67h648v-67h-648zM424 155q-23 0 -41 15.5t-18 35.5q0 21 18 36.5t41 15.5q24 0 41.5 -15.5t17.5 -36.5q0 -20 -17.5 -35.5t-41.5 -15.5z" />
    <glyph glyph-name="oslash" unicode="&#xf8;" horiz-adv-x="914" 
d="M864 369q1 -108 -54.5 -196.5t-156 -139.5t-226.5 -51q-150 0 -251 69l-57 -51h-66v16l79 71q-92 90 -92 226q0 160 128 275.5t315 115.5q153 0 256 -79l42 37h77v-12l-75 -66q79 -89 81 -215zM121 312q0 -103 67 -173l111 100l49 39l181 156l47 45l105 94
q-82 64 -202 64q-153 0 -255.5 -96t-102.5 -229zM431 49q153 0 253 93t100 220q0 98 -60 170l-67 -60l-55 -44l-197 -170l-39 -39l-133 -118q81 -52 198 -52z" />
    <glyph glyph-name="ugrave" unicode="&#xf9;" horiz-adv-x="882" 
d="M529 782h-61l-228 247h89zM810 165q0 -67 5.5 -98.5t19.5 -55.5l-1 -11h-67q-15 18 -22 41.5t-7 78.5v50q-45 -85 -143.5 -136.5t-226.5 -51.5q-140 0 -222.5 73.5t-82.5 223.5v383q35 8 79 0v-370q0 -123 65 -183t175 -60q152 0 250.5 90.5t98.5 226.5v296q13 4 40 4
t39 -4v-497z" />
    <glyph glyph-name="uacute" unicode="&#xfa;" horiz-adv-x="882" 
d="M660 1029l-213 -247h-57l181 247h89zM810 165q0 -67 5.5 -98.5t19.5 -55.5l-1 -11h-67q-15 18 -22 41.5t-7 78.5v50q-45 -85 -143.5 -136.5t-226.5 -51.5q-140 0 -222.5 73.5t-82.5 223.5v383q35 8 79 0v-370q0 -123 65 -183t175 -60q152 0 250.5 90.5t98.5 226.5v296
q13 4 40 4t39 -4v-497z" />
    <glyph glyph-name="ucircumflex" unicode="&#xfb;" horiz-adv-x="882" 
d="M430 917l-188 -172h-92l258 231h42l258 -231h-91zM810 165q0 -67 5.5 -98.5t19.5 -55.5l-1 -11h-67q-15 18 -22 41.5t-7 78.5v50q-45 -85 -143.5 -136.5t-226.5 -51.5q-140 0 -222.5 73.5t-82.5 223.5v383q35 8 79 0v-370q0 -123 65 -183t175 -60q152 0 250.5 90.5
t98.5 226.5v296q13 4 40 4t39 -4v-497z" />
    <glyph glyph-name="udieresis" unicode="&#xfc;" horiz-adv-x="882" 
d="M255 814q-23 0 -40.5 15.5t-17.5 35.5q0 21 17.5 36.5t40.5 15.5t40.5 -15.5t17.5 -36.5q0 -20 -17.5 -35.5t-40.5 -15.5zM614 814q-23 0 -40.5 15.5t-17.5 35.5q0 21 17.5 36.5t40.5 15.5t40.5 -15.5t17.5 -36.5q0 -20 -17.5 -35.5t-40.5 -15.5zM810 165
q0 -67 5.5 -98.5t19.5 -55.5l-1 -11h-67q-15 18 -22 41.5t-7 78.5v50q-45 -85 -143.5 -136.5t-226.5 -51.5q-140 0 -222.5 73.5t-82.5 223.5v383q35 8 79 0v-370q0 -123 65 -183t175 -60q152 0 250.5 90.5t98.5 226.5v296q13 4 40 4t39 -4v-497z" />
    <glyph glyph-name="yacute" unicode="&#xfd;" horiz-adv-x="848" 
d="M655 1029l-213 -247h-57l181 247h89zM833 662q13 -107 -17.5 -238t-116.5 -278t-216 -259q-169 -142 -360 -143q-61 0 -103 17q-15 29 -1 57l15 8q35 -17 90 -15q167 1 320 143q32 29 68 67q-91 50 -179.5 138.5t-152 183t-106 172t-64.5 133.5l5 13q42 9 79 1
q21 -51 58 -119.5t96 -159t141 -175t168 -134.5q108 135 157.5 286.5t40.5 295.5q27 17 78 6z" />
    <glyph glyph-name="thorn" unicode="&#xfe;" horiz-adv-x="871" 
d="M491 704q150 0 247.5 -94.5t97.5 -247.5t-112.5 -266.5t-281.5 -113.5q-95 0 -170.5 39t-123.5 106v-358q-38 -11 -85 0v1164q14 5 40.5 5t38.5 -5v-459q44 106 141 168t208 62zM434 48q93 0 168.5 46.5t114.5 117t39 148.5q0 127 -75.5 202t-194.5 75
q-134 0 -237.5 -102t-103.5 -240q0 -94 84 -170.5t205 -76.5z" />
    <glyph glyph-name="ydieresis" unicode="&#xff;" horiz-adv-x="848" 
d="M250 814q-23 0 -40.5 15.5t-17.5 35.5q0 21 17.5 36.5t40.5 15.5t40.5 -15.5t17.5 -36.5q0 -20 -17.5 -35.5t-40.5 -15.5zM609 814q-23 0 -40.5 15.5t-17.5 35.5q0 21 17.5 36.5t40.5 15.5t40.5 -15.5t17.5 -36.5q0 -20 -17.5 -35.5t-40.5 -15.5zM833 662
q13 -107 -17.5 -238t-116.5 -278t-216 -259q-169 -142 -360 -143q-61 0 -103 17q-15 29 -1 57l15 8q35 -17 90 -15q167 1 320 143q32 29 68 67q-91 50 -179.5 138.5t-152 183t-106 172t-64.5 133.5l5 13q42 9 79 1q21 -51 58 -119.5t96 -159t141 -175t168 -134.5
q108 135 157.5 286.5t40.5 295.5q27 17 78 6z" />
    <glyph glyph-name="Amacron" unicode="&#x100;" horiz-adv-x="1137" 
d="M833 1038v-54h-517v54h517zM616 896q29 -48 248 -438t259 -446l-4 -12q-69 0 -91 8q-28 42 -125 218h-670l-128 -226h-91l514 896q15 6 44.5 5.5t43.5 -5.5zM270 291h597q-30 55 -292 538z" />
    <glyph glyph-name="amacron" unicode="&#x101;" horiz-adv-x="847" 
d="M724 914v-62h-567v62h567zM775 172q0 -73 7.5 -104t26.5 -59l-2 -9h-76q-14 14 -21 23.5t-13 36.5t-6 72v60q-62 -95 -169.5 -152.5t-230.5 -57.5q-113 0 -180 48t-67 122q0 66 43.5 117t118 81t167 45.5t196.5 14.5q64 0 115 -5q-8 113 -75 176t-176 63q-129 0 -290 -91
q-27 12 -32 56q169 95 320 95q161 0 251.5 -89.5t91.5 -254.5zM683 340l2 13q-73 5 -125 5q-120 0 -215 -20.5t-155 -66t-60 -109.5q0 -53 45.5 -84.5t126.5 -31.5q78 0 149.5 27.5t119.5 71t78 95t34 100.5z" />
    <glyph glyph-name="Abreve" unicode="&#x102;" horiz-adv-x="1137" 
d="M576 954q-111 0 -181.5 46.5t-70.5 132.5h57q0 -57 53.5 -92t141.5 -35q85 0 140 36t55 91h57q0 -83 -72.5 -131t-179.5 -48zM616 896q29 -48 248 -438t259 -446l-4 -12q-69 0 -91 8q-28 42 -125 218h-670l-128 -226h-91l514 896q15 6 44.5 5.5t43.5 -5.5zM270 291h597
q-30 55 -292 538z" />
    <glyph glyph-name="abreve" unicode="&#x103;" horiz-adv-x="847" 
d="M436 772q-119 0 -197.5 53t-78.5 150h64q0 -66 58 -107t154 -41t155.5 41.5t59.5 106.5h64q0 -94 -81 -148.5t-198 -54.5zM775 172q0 -73 7.5 -104t26.5 -59l-2 -9h-76q-14 14 -21 23.5t-13 36.5t-6 72v60q-62 -95 -169.5 -152.5t-230.5 -57.5q-113 0 -180 48t-67 122
q0 66 43.5 117t118 81t167 45.5t196.5 14.5q64 0 115 -5q-8 113 -75 176t-176 63q-129 0 -290 -91q-27 12 -32 56q169 95 320 95q161 0 251.5 -89.5t91.5 -254.5zM683 340l2 13q-73 5 -125 5q-120 0 -215 -20.5t-155 -66t-60 -109.5q0 -53 45.5 -84.5t126.5 -31.5
q78 0 149.5 27.5t119.5 71t78 95t34 100.5z" />
    <glyph glyph-name="Aogonek" unicode="&#x104;" horiz-adv-x="1137" 
d="M1150 -227l38 -31q-30 -36 -79 -60.5t-96 -24.5q-60 -1 -98.5 30t-38.5 91q0 51 39.5 117.5t109.5 117.5q-28 43 -122 213h-670l-128 -226h-91l514 896q15 6 44.5 5.5t43.5 -5.5q29 -48 248 -438t259 -446l-4 -12h-48q-67 -53 -101.5 -109t-34.5 -102q0 -37 25 -55.5
t63 -16.5q34 0 70 16t57 40zM270 291h597q-30 55 -292 538z" />
    <glyph glyph-name="aogonek" unicode="&#x105;" horiz-adv-x="847" 
d="M856 -229l38 -31q-30 -36 -79 -60.5t-96 -24.5q-60 -1 -98.5 30t-38.5 91q0 50 38 115t105 115q-17 17 -25 42t-9 84v60q-62 -95 -169.5 -152.5t-230.5 -57.5q-113 0 -180 48t-67 122q0 66 43.5 117t118 81t167 45.5t196.5 14.5q64 0 115 -5q-8 113 -75 176t-176 63
q-129 0 -290 -91q-27 12 -32 56q169 95 320 95q161 0 251.5 -89.5t91.5 -254.5l1 -188q0 -73 7.5 -104t26.5 -59l-2 -9h-28q-68 -54 -103 -110.5t-35 -102.5q0 -37 25 -55.5t63 -16.5q34 0 70 16t57 40zM683 340l2 13q-73 5 -125 5q-120 0 -215 -20.5t-155 -66t-60 -109.5
q0 -53 45.5 -84.5t126.5 -31.5q78 0 149.5 27.5t119.5 71t78 95t34 100.5z" />
    <glyph glyph-name="Cacute" unicode="&#x106;" horiz-adv-x="1016" 
d="M543 966l185 194h84l-212 -194h-57zM565 -18q-147 0 -265.5 54.5t-190 162.5t-71.5 251q0 133 73.5 240.5t195 166.5t264.5 60q180 2 295 -89t106 -230q-54 -11 -79 -5q2 114 -90 186t-234 70q-190 -3 -319 -117.5t-129 -286.5q0 -180 126 -287t318 -108q84 0 176 23.5
t166 69.5q17 -7 29.5 -26.5t12.5 -28.5q-82 -52 -187 -79t-197 -27z" />
    <glyph glyph-name="cacute" unicode="&#x107;" horiz-adv-x="826" 
d="M403 782l181 247h89l-213 -247h-57zM414 -18q-100 0 -185.5 39.5t-140 120t-54.5 186.5q0 107 60.5 194.5t155.5 134.5t202 47q164 0 254 -92t85 -236q-55 -14 -84 -5q2 120 -64.5 193t-195.5 73q-130 0 -231 -89t-101 -220q0 -127 87.5 -203.5t211.5 -75.5q176 0 300 99
q15 -5 26 -18t14.5 -22t3.5 -12q-73 -58 -154 -86t-190 -28z" />
    <glyph glyph-name="Cdotaccent" unicode="&#x10a;" horiz-adv-x="1016" 
d="M571 996q-19 0 -34 13.5t-15 30.5q0 18 14.5 31t34.5 13t34.5 -13t14.5 -31q0 -17 -15 -30.5t-34 -13.5zM565 -18q-147 0 -265.5 54.5t-190 162.5t-71.5 251q0 133 73.5 240.5t195 166.5t264.5 60q180 2 295 -89t106 -230q-54 -11 -79 -5q2 114 -90 186t-234 70
q-190 -3 -319 -117.5t-129 -286.5q0 -180 126 -287t318 -108q84 0 176 23.5t166 69.5q17 -7 29.5 -26.5t12.5 -28.5q-82 -52 -187 -79t-197 -27z" />
    <glyph glyph-name="cdotaccent" unicode="&#x10b;" horiz-adv-x="826" 
d="M442 814q-23 0 -40.5 15.5t-17.5 35.5q0 21 17.5 36.5t40.5 15.5t40.5 -15.5t17.5 -36.5q0 -20 -17.5 -35.5t-40.5 -15.5zM414 -18q-100 0 -185.5 39.5t-140 120t-54.5 186.5q0 107 60.5 194.5t155.5 134.5t202 47q164 0 254 -92t85 -236q-55 -14 -84 -5q2 120 -64.5 193
t-195.5 73q-130 0 -231 -89t-101 -220q0 -127 87.5 -203.5t211.5 -75.5q176 0 300 99q15 -5 26 -18t14.5 -22t3.5 -12q-73 -58 -154 -86t-190 -28z" />
    <glyph glyph-name="Ccaron" unicode="&#x10c;" horiz-adv-x="1016" 
d="M592 965h-42l-258 223h91l188 -167l188 167h91zM972 598q-54 -11 -79 -5q2 114 -90 186t-234 70q-190 -3 -319 -117.5t-129 -286.5q0 -180 126 -287t318 -108q84 0 176 23.5t166 69.5q17 -7 29.5 -26.5t12.5 -28.5q-82 -52 -187 -79t-197 -27q-147 0 -265.5 54.5
t-190 162.5t-71.5 251q0 133 73.5 240.5t195 166.5t264.5 60q180 2 295 -89t106 -230z" />
    <glyph glyph-name="ccaron" unicode="&#x10d;" horiz-adv-x="826" 
d="M463 782h-42l-258 231h92l188 -176l187 176h91zM791 376q-55 -14 -84 -5q2 120 -64.5 193t-195.5 73q-130 0 -231 -89t-101 -220q0 -127 87.5 -203.5t211.5 -75.5q176 0 300 99q15 -5 26 -18t14.5 -22t3.5 -12q-73 -58 -154 -86t-190 -28q-100 0 -185.5 39.5t-140 120
t-54.5 186.5q0 107 60.5 194.5t155.5 134.5t202 47q164 0 254 -92t85 -236z" />
    <glyph glyph-name="Dcaron" unicode="&#x10e;" horiz-adv-x="1074" 
d="M486 965h-42l-258 223h91l188 -167l188 167h91zM465 917q258 0 414.5 -126.5t156.5 -330.5q0 -215 -149.5 -346t-394.5 -132q-148 0 -224 8.5t-192 34.5v857q167 35 389 35zM486 47q212 0 339.5 113.5t127.5 297.5q0 172 -134 283t-359 111q-190 0 -304 -22v-749
q132 -34 330 -34z" />
    <glyph glyph-name="dcaron" unicode="&#x10f;" horiz-adv-x="1023" 
d="M1034 1062h76l-33 -333h-59zM841 933v-748q0 -114 15 -174v-11h-67q-27 52 -27 145v39q-46 -91 -135 -146.5t-204 -55.5q-160 0 -260 93.5t-100 246.5q0 163 113.5 272.5t288.5 109.5q100 0 180 -50t117 -134v413q12 5 38.5 5t40.5 -5zM425 48q142 0 233.5 98.5
t91.5 235.5q0 107 -79 180.5t-191 73.5q-144 0 -240.5 -90t-96.5 -224q0 -122 78 -198t204 -76z" />
    <glyph glyph-name="Dcroat" unicode="&#x110;" horiz-adv-x="1140" 
d="M531 917q258 0 414.5 -126.5t156.5 -330.5q0 -215 -149.5 -346t-394.5 -132q-148 0 -224 8.5t-192 34.5v413h-90v62h90v382q167 35 389 35zM552 47q212 0 339.5 113.5t127.5 297.5q0 172 -134 283t-359 111q-186 0 -304 -21v-331h411v-62h-411v-357q132 -34 330 -34z" />
    <glyph glyph-name="dcroat" unicode="&#x111;" horiz-adv-x="907" 
d="M927 781h-114v-596q0 -119 15 -174v-11h-67q-27 52 -27 145v39q-46 -91 -135.5 -146.5t-204.5 -55.5q-159 0 -259.5 93.5t-100.5 246.5q0 163 114 272.5t289 109.5q100 0 180 -50t117 -134v261h-328v44h328v108q12 5 38.5 5t40.5 -5v-108h114v-44zM397 48
q142 0 233.5 98.5t91.5 235.5q0 106 -79.5 180t-190.5 74q-144 0 -240.5 -90t-96.5 -224q0 -122 78 -198t204 -76z" />
    <glyph glyph-name="Emacron" unicode="&#x112;" horiz-adv-x="958" 
d="M746 1037v-54h-517v54h517zM912 66q8 -9 8.5 -31.5t-8.5 -34.5h-836v886l10 10h797q5 -15 0 -35.5t-14 -30.5h-713v-366h624q4 -16 -1.5 -37t-14.5 -29h-608v-332h756z" />
    <glyph glyph-name="emacron" unicode="&#x113;" horiz-adv-x="825" 
d="M727 914v-62h-567v62h567zM444 704q162 0 259.5 -90t90.5 -252l-15 -17l-656 -76q15 -103 96.5 -161.5t198.5 -59.5q153 0 291 99q13 -5 22.5 -17t13 -21t3.5 -11q-157 -116 -339 -116q-161 0 -268 87.5t-107 242.5q0 166 119 279t291 113zM707 390q1 120 -69.5 185.5
t-193.5 65.5q-129 0 -223.5 -90.5t-100.5 -223.5z" />
    <glyph glyph-name="Ebreve" unicode="&#x114;" horiz-adv-x="958" 
d="M489 953q-111 0 -181.5 46.5t-70.5 132.5h56q0 -57 54 -92t142 -35q85 0 140 36t55 91h57q0 -83 -72.5 -131t-179.5 -48zM912 66q8 -9 8.5 -31.5t-8.5 -34.5h-836v886l10 10h797q5 -15 0 -35.5t-14 -30.5h-713v-366h624q4 -16 -1.5 -37t-14.5 -29h-608v-332h756z" />
    <glyph glyph-name="ebreve" unicode="&#x115;" horiz-adv-x="825" 
d="M439 772q-119 0 -197.5 53t-78.5 150h64q0 -66 58 -107t154 -41t155.5 41.5t59.5 106.5h64q0 -94 -81 -148.5t-198 -54.5zM444 704q162 0 259.5 -90t90.5 -252l-15 -17l-656 -76q15 -103 96.5 -161.5t198.5 -59.5q153 0 291 99q13 -5 22.5 -17t13 -21t3.5 -11
q-157 -116 -339 -116q-161 0 -268 87.5t-107 242.5q0 166 119 279t291 113zM707 390q1 120 -69.5 185.5t-193.5 65.5q-129 0 -223.5 -90.5t-100.5 -223.5z" />
    <glyph glyph-name="Edotaccent" unicode="&#x116;" horiz-adv-x="958" 
d="M488 975q-19 0 -34 13.5t-15 30.5q0 18 14.5 31t34.5 13t34.5 -13t14.5 -31q0 -17 -15 -30.5t-34 -13.5zM912 66q8 -9 8.5 -31.5t-8.5 -34.5h-836v886l10 10h797q5 -15 0 -35.5t-14 -30.5h-713v-366h624q4 -16 -1.5 -37t-14.5 -29h-608v-332h756z" />
    <glyph glyph-name="edotaccent" unicode="&#x117;" horiz-adv-x="825" 
d="M441 814q-23 0 -40.5 15.5t-17.5 35.5q0 21 17.5 36.5t40.5 15.5t40.5 -15.5t17.5 -36.5q0 -20 -17.5 -35.5t-40.5 -15.5zM444 704q162 0 259.5 -90t90.5 -252l-15 -17l-656 -76q15 -103 96.5 -161.5t198.5 -59.5q153 0 291 99q13 -5 22.5 -17t13 -21t3.5 -11
q-157 -116 -339 -116q-161 0 -268 87.5t-107 242.5q0 166 119 279t291 113zM707 390q1 120 -69.5 185.5t-193.5 65.5q-129 0 -223.5 -90.5t-100.5 -223.5z" />
    <glyph glyph-name="Eogonek" unicode="&#x118;" horiz-adv-x="958" 
d="M545 0q-67 -54 -101.5 -110t-34.5 -101q0 -37 25 -55.5t63 -16.5q34 0 70 16t57 40l38 -31q-30 -36 -79 -60.5t-96 -24.5q-60 -1 -98.5 30t-38.5 91q0 48 34.5 109.5t97.5 112.5h-406v886l10 10h797q5 -15 0 -35.5t-14 -30.5h-713v-366h624q4 -16 -1.5 -37t-14.5 -29
h-608v-332h756q8 -9 8.5 -31.5t-8.5 -34.5h-367z" />
    <glyph glyph-name="eogonek" unicode="&#x119;" horiz-adv-x="825" 
d="M444 704q162 0 259.5 -90t90.5 -252l-15 -17l-656 -76q15 -103 96.5 -161.5t198.5 -59.5q153 0 291 99q13 -5 22.5 -17t13 -21t3.5 -11q-144 -107 -312 -115q-64 -53 -97 -108t-33 -99q0 -37 25 -55.5t63 -16.5q34 0 70 16t57 40l38 -31q-30 -36 -79 -60.5t-96 -24.5
q-60 -1 -98.5 30t-38.5 91q0 47 33.5 107.5t93.5 110.5q-149 9 -244.5 96t-95.5 233q0 166 119 279t291 113zM707 390q1 120 -69.5 185.5t-193.5 65.5q-129 0 -223.5 -90.5t-100.5 -223.5z" />
    <glyph glyph-name="Ecaron" unicode="&#x11a;" horiz-adv-x="958" 
d="M509 944h-42l-258 223h91l188 -167l188 167h91zM912 66q8 -9 8.5 -31.5t-8.5 -34.5h-836v886l10 10h797q5 -15 0 -35.5t-14 -30.5h-713v-366h624q4 -16 -1.5 -37t-14.5 -29h-608v-332h756z" />
    <glyph glyph-name="ecaron" unicode="&#x11b;" horiz-adv-x="825" 
d="M462 782h-42l-258 231h92l188 -176l187 176h91zM444 704q162 0 259.5 -90t90.5 -252l-15 -17l-656 -76q15 -103 96.5 -161.5t198.5 -59.5q153 0 291 99q13 -5 22.5 -17t13 -21t3.5 -11q-157 -116 -339 -116q-161 0 -268 87.5t-107 242.5q0 166 119 279t291 113zM707 390
q1 120 -69.5 185.5t-193.5 65.5q-129 0 -223.5 -90.5t-100.5 -223.5z" />
    <glyph glyph-name="Gbreve" unicode="&#x11e;" horiz-adv-x="1064" 
d="M570 975q-111 0 -181.5 46.5t-70.5 132.5h57q0 -57 53.5 -92t141.5 -35q85 0 140 36t55 91h57q0 -83 -72.5 -131t-179.5 -48zM571 849q-203 0 -326.5 -116.5t-123.5 -286.5q0 -181 129.5 -288.5t339.5 -107.5q200 0 349 75v242h-408q-4 15 1.5 36t14.5 29h459l13 -12
v-332q-81 -51 -198.5 -78.5t-230.5 -27.5q-158 0 -282.5 55t-197 162t-72.5 251q0 92 37 176t103.5 149t168 103.5t222.5 38.5q195 0 325.5 -85.5t125.5 -217.5q-56 -13 -88 -5q-2 109 -104.5 174.5t-256.5 65.5z" />
    <glyph glyph-name="gbreve" unicode="&#x11f;" horiz-adv-x="882" 
d="M433 735q-119 0 -197.5 53t-78.5 150h64q0 -66 58 -107t154 -41t155.5 41.5t59.5 106.5h64q0 -94 -81 -148.5t-198 -54.5zM749 669q31 3 70 -6v-11q-14 -78 -14 -149v-421q0 -173 -106.5 -270.5t-278.5 -97.5q-184 0 -358 115q6 43 31 58q172 -106 318 -106q142 0 232 81
t91 219l1 114q-41 -95 -136 -154t-212 -59q-98 0 -177.5 39t-127.5 116.5t-48 180.5q1 166 113.5 275.5t282.5 109.5q109 0 188.5 -50.5t115.5 -127.5v58zM389 48q139 0 235.5 93.5t96.5 244.5q0 89 -79 170t-196 81q-141 0 -235.5 -91t-95.5 -224q-1 -119 75 -196.5
t199 -77.5z" />
    <glyph glyph-name="Gdotaccent" unicode="&#x120;" horiz-adv-x="1064" 
d="M569 996q-19 0 -34 13.5t-15 30.5q0 18 14.5 31t34.5 13t34.5 -13t14.5 -31q0 -17 -15 -30.5t-34 -13.5zM571 849q-203 0 -326.5 -116.5t-123.5 -286.5q0 -181 129.5 -288.5t339.5 -107.5q200 0 349 75v242h-408q-4 15 1.5 36t14.5 29h459l13 -12v-332
q-81 -51 -198.5 -78.5t-230.5 -27.5q-158 0 -282.5 55t-197 162t-72.5 251q0 92 37 176t103.5 149t168 103.5t222.5 38.5q195 0 325.5 -85.5t125.5 -217.5q-56 -13 -88 -5q-2 109 -104.5 174.5t-256.5 65.5z" />
    <glyph glyph-name="gdotaccent" unicode="&#x121;" horiz-adv-x="882" 
d="M435 777q-23 0 -40.5 15.5t-17.5 35.5q0 21 17.5 36.5t40.5 15.5t40.5 -15.5t17.5 -36.5q0 -20 -17.5 -35.5t-40.5 -15.5zM749 669q31 3 70 -6v-11q-14 -78 -14 -149v-421q0 -173 -106.5 -270.5t-278.5 -97.5q-184 0 -358 115q6 43 31 58q172 -106 318 -106q142 0 232 81
t91 219l1 114q-41 -95 -136 -154t-212 -59q-98 0 -177.5 39t-127.5 116.5t-48 180.5q1 166 113.5 275.5t282.5 109.5q109 0 188.5 -50.5t115.5 -127.5v58zM389 48q139 0 235.5 93.5t96.5 244.5q0 89 -79 170t-196 81q-141 0 -235.5 -91t-95.5 -224q-1 -119 75 -196.5
t199 -77.5z" />
    <glyph glyph-name="uni0122" unicode="&#x122;" horiz-adv-x="1064" 
d="M571 849q-203 0 -326.5 -116.5t-123.5 -286.5q0 -181 129.5 -288.5t339.5 -107.5q200 0 349 75v242h-408q-4 15 1.5 36t14.5 29h459l13 -12v-332q-81 -51 -198.5 -78.5t-230.5 -27.5q-158 0 -282.5 55t-197 162t-72.5 251q0 92 37 176t103.5 149t168 103.5t222.5 38.5
q195 0 325.5 -85.5t125.5 -217.5q-56 -13 -88 -5q-2 109 -104.5 174.5t-256.5 65.5zM498 -306l42 218h65l-51 -218h-56z" />
    <glyph glyph-name="uni0123" unicode="&#x123;" horiz-adv-x="882" 
d="M510 1040l-50 -226h-65l59 226h56zM749 669q31 3 70 -6v-11q-14 -78 -14 -149v-421q0 -173 -106.5 -270.5t-278.5 -97.5q-184 0 -358 115q6 43 31 58q172 -106 318 -106q142 0 232 81t91 219l1 114q-41 -95 -136 -154t-212 -59q-98 0 -177.5 39t-127.5 116.5t-48 180.5
q1 166 113.5 275.5t282.5 109.5q109 0 188.5 -50.5t115.5 -127.5v58zM389 48q139 0 235.5 93.5t96.5 244.5q0 89 -79 170t-196 81q-141 0 -235.5 -91t-95.5 -224q-1 -119 75 -196.5t199 -77.5z" />
    <glyph glyph-name="Hcircumflex" unicode="&#x124;" horiz-adv-x="1025" 
d="M516 1117l-187 -173h-84l247 222h48l247 -222h-84zM868 896q16 5 42 4.5t38 -4.5v-896h-80v374h-712v-374h-80v896q17 5 42 4.5t38 -4.5v-457h712v457z" />
    <glyph glyph-name="hcircumflex" unicode="&#x125;" horiz-adv-x="867" 
d="M438 1121l-188 -172h-92l258 231h42l258 -231h-91zM505 704q155 0 235 -90t80 -255v-359h-79v351q0 130 -64 206t-187 76q-138 0 -243 -110t-105 -242v-281h-79v933q13 5 40 5t39 -5v-452q52 95 151 159t212 64z" />
    <glyph glyph-name="Hbar" unicode="&#x126;" horiz-adv-x="1097" 
d="M1038 668v-60h-46v-608h-80v374h-712v-374h-80v608h-61v60h61v228q16 5 41 4.5t39 -4.5v-228h712v228q15 5 41.5 4.5t38.5 -4.5v-228h46zM912 439v169h-712v-169h712z" />
    <glyph glyph-name="hbar" unicode="&#x127;" horiz-adv-x="835" 
d="M473 704q155 0 235 -90t80 -255v-359h-79v351q0 130 -64.5 206t-187.5 76q-91 0 -172 -52t-128 -133.5t-47 -166.5v-281h-79v809h-89v43h89v81q14 5 40.5 5t38.5 -5v-81h412v-43h-412v-327q53 95 152 158.5t211 63.5z" />
    <glyph glyph-name="Imacron" unicode="&#x12a;" horiz-adv-x="232" 
d="M-39 983v54h310v-54h-310zM76 0v896q16 5 42 4.5t38 -4.5v-896h-80z" />
    <glyph glyph-name="imacron" unicode="&#x12b;" horiz-adv-x="248" 
d="M-101 852v62h454v-62h-454zM85 0v662q14 4 40 4t39 -4v-662h-79z" />
    <glyph glyph-name="Iogonek" unicode="&#x12e;" horiz-adv-x="232" 
d="M212 -222l38 -31q-30 -36 -79 -60.5t-96 -24.5q-60 -1 -98.5 30t-38.5 91q0 49 36.5 113t101.5 114v886q16 5 42 4.5t38 -4.5v-896h-30q-64 -52 -96.5 -107t-32.5 -99q0 -37 25 -55.5t63 -16.5q34 0 70 16t57 40z" />
    <glyph glyph-name="iogonek" unicode="&#x12f;" horiz-adv-x="248" 
d="M124 814q-23 0 -40.5 15.5t-17.5 35.5q0 21 17.5 36.5t40.5 15.5t40.5 -15.5t17.5 -36.5q0 -20 -17.5 -35.5t-40.5 -15.5zM240 -231l38 -31q-30 -36 -79 -60.5t-96 -24.5q-60 -1 -98.5 30t-38.5 91q0 49 36 112t101 114h-18v662q14 4 40 4t39 -4v-660l3 -1
q-70 -54 -106 -112t-36 -104q0 -37 25 -55.5t63 -16.5q34 0 70 16t57 40z" />
    <glyph glyph-name="Idotaccent" unicode="&#x130;" horiz-adv-x="232" 
d="M116 975q-19 0 -34 13.5t-15 30.5q0 18 14.5 31t34.5 13t34.5 -13t14.5 -31q0 -17 -15 -30.5t-34 -13.5zM76 0v896q16 5 42 4.5t38 -4.5v-896h-80z" />
    <glyph glyph-name="dotlessi" unicode="&#x131;" horiz-adv-x="248" 
d="M85 0v662q14 4 40 4t39 -4v-662h-79z" />
    <glyph glyph-name="IJ" unicode="&#x132;" horiz-adv-x="1213" 
d="M76 0v896q16 5 42 4.5t38 -4.5v-896h-80zM668 -18q-121 0 -241 54.5t-215 141.5q6 19 20 35t30 20q82 -79 188.5 -131t211.5 -52q167 0 268 96t101 248v502q17 5 42.5 4.5t37.5 -4.5v-524q0 -77 -30.5 -147t-86 -124t-140.5 -86.5t-186 -32.5z" />
    <glyph glyph-name="ij" unicode="&#x133;" horiz-adv-x="530" 
d="M124 814q-23 0 -40.5 15.5t-17.5 35.5q0 21 17.5 36.5t40.5 15.5t40.5 -15.5t17.5 -36.5q0 -20 -17.5 -35.5t-40.5 -15.5zM392 814q-23 0 -40.5 15.5t-17.5 35.5q0 21 17.5 36.5t40.5 15.5t40.5 -15.5t17.5 -36.5q0 -20 -17.5 -35.5t-40.5 -15.5zM85 0v662q14 4 40 4
t39 -4v-662h-79zM271 -234q-45 0 -107 18q-5 15 1.5 37t17.5 32q47 -14 77 -14q52 -1 73 43.5t21 155.5v624q13 4 40 4t39 -4v-669q0 -109 -36.5 -168t-125.5 -59z" />
    <glyph glyph-name="Jcircumflex" unicode="&#x134;" horiz-adv-x="1049" 
d="M933 1166l247 -222h-84l-187 173l-187 -173h-84l247 222h48zM867 896q17 5 42.5 4.5t37.5 -4.5v-524q0 -77 -30.5 -147t-86 -124t-140.5 -86.5t-186 -32.5q-121 0 -241 54.5t-215 141.5q6 19 20 35t30 20q82 -79 188.5 -131t211.5 -52q167 0 268 96t101 248v502z" />
    <glyph glyph-name="jcircumflex" unicode="&#x135;" horiz-adv-x="282" 
d="M165 976l258 -231h-91l-187 172l-188 -172h-92l258 231h42zM106 662q13 4 40 4t39 -4v-669q0 -109 -36.5 -168t-125.5 -59q-45 0 -107 18q-5 15 1 37t17 32q48 -14 78 -14q52 -1 73 43.5t21 155.5v624z" />
    <glyph glyph-name="uni0136" unicode="&#x136;" horiz-adv-x="1127" 
d="M574 465q200 -184 320.5 -286t213.5 -159l-1 -12q-34 -13 -94 -13q-128 66 -516 434q-158 -72 -341 -138v-291h-80v896q16 5 42 4.5t38 -4.5v-532q289 109 462 203q337 178 325 327q43 10 80 2q10 -84 -75.5 -181t-247.5 -186q-72 -39 -126 -64zM469 -296l42 218h65
l-51 -218h-56z" />
    <glyph glyph-name="uni0137" unicode="&#x137;" horiz-adv-x="941" 
d="M515 334q22 -19 60.5 -51.5t58.5 -50t52.5 -44.5t51 -42.5t44 -36t41.5 -32.5t34 -24.5t30.5 -19.5t22.5 -11v-14q-34 -12 -102 -12q-64 22 -370 298q-149 -76 -296 -129v-165h-79v933q40 14 79 0v-694q157 62 346 165q130 71 185.5 127.5t49.5 125.5q37 9 95 5
q14 -76 -46 -147t-205 -152q-8 -5 -26 -14.5t-26 -14.5zM376 -296l42 218h65l-51 -218h-56z" />
    <glyph glyph-name="kgreenlandic" unicode="&#x138;" horiz-adv-x="941" 
d="M515 334q22 -19 60.5 -51.5t58.5 -50t52.5 -44.5t51 -42.5t44 -36t41.5 -32.5t34 -24.5t30.5 -19.5t22.5 -11v-14q-34 -12 -102 -12q-64 22 -370 298q-149 -76 -296 -129v-165h-79v662q37 13 79 0v-423q157 62 346 165q128 70 184.5 129t50.5 129q35 13 95 6
q14 -77 -46.5 -151t-204.5 -154q-8 -5 -26 -14.5t-26 -14.5z" />
    <glyph glyph-name="Lacute" unicode="&#x139;" horiz-adv-x="935" 
d="M83 939l185 194h84l-212 -194h-57zM95 0l-19 17v879q14 5 41 4.5t39 -4.5v-830h752q9 -12 8.5 -32.5t-8.5 -33.5h-813z" />
    <glyph glyph-name="lacute" unicode="&#x13a;" horiz-adv-x="368" 
d="M96 982l185 194h84l-212 -194h-57zM230 -18q-77 -1 -114 48t-37 151v752q14 5 38.5 5.5t40.5 -5.5v-734q0 -81 23 -117t73 -35q33 0 83 14q7 -6 10.5 -26t0.5 -33q-65 -18 -118 -20z" />
    <glyph glyph-name="uni013B" unicode="&#x13b;" horiz-adv-x="935" 
d="M95 0l-19 17v879q14 5 41 4.5t39 -4.5v-830h752q9 -12 8.5 -32.5t-8.5 -33.5h-813zM410 -296l42 218h65l-51 -218h-56z" />
    <glyph glyph-name="uni013C" unicode="&#x13c;" horiz-adv-x="368" 
d="M230 -18q-77 -1 -114 48t-37 151v752q14 5 38.5 5.5t40.5 -5.5v-734q0 -81 23 -117t73 -35q33 0 83 14q7 -6 10.5 -26t0.5 -33q-65 -18 -118 -20zM171 -312l42 218h65l-51 -218h-56z" />
    <glyph glyph-name="Lcaron" unicode="&#x13d;" horiz-adv-x="935" 
d="M636 837l16 333h76l-33 -333h-59zM95 0l-19 17v879q14 5 41 4.5t39 -4.5v-830h752q9 -12 8.5 -32.5t-8.5 -33.5h-813z" />
    <glyph glyph-name="lcaron" unicode="&#x13e;" horiz-adv-x="368" 
d="M339 847l16 333h76l-33 -333h-59zM230 -18q-77 -1 -114 48t-37 151v752q14 5 38.5 5.5t40.5 -5.5v-734q0 -81 23 -117t73 -35q33 0 83 14q7 -6 10.5 -26t0.5 -33q-65 -18 -118 -20z" />
    <glyph glyph-name="Lslash" unicode="&#x141;" horiz-adv-x="1033" 
d="M1006 66q9 -12 8.5 -32.5t-8.5 -33.5h-813l-18 17v315l-119 -43v72l119 43v492q14 5 40.5 4.5t39.5 -4.5v-464l437 157v-72l-437 -157v-294h751z" />
    <glyph glyph-name="lslash" unicode="&#x142;" horiz-adv-x="364" 
d="M333 61q7 -6 11 -26.5t0 -32.5q-65 -18 -118 -20q-76 -1 -113.5 48t-37.5 151v308l-108 -47v66l108 47v378q15 5 39 5.5t40 -5.5v-344l167 73v-65l-167 -73v-325q0 -81 23.5 -117t73.5 -35q32 0 82 14z" />
    <glyph glyph-name="Nacute" unicode="&#x143;" horiz-adv-x="1141" 
d="M812 1139l-212 -194h-57l185 194h84zM985 896q17 5 41.5 4.5t38.5 -4.5v-896h-65l-844 781v-781h-80v877q8 9 31.5 15.5t34.5 3.5l843 -783v783z" />
    <glyph glyph-name="nacute" unicode="&#x144;" horiz-adv-x="896" 
d="M734 1029l-213 -247h-57l181 247h89zM508 703q158 0 241.5 -90t83.5 -254v-359h-79v344q0 136 -64.5 212.5t-190.5 76.5q-89 0 -169 -52.5t-127 -134t-47 -165.5v-281h-79v519q0 74 -14 129v13q43 9 76 6q13 -38 13 -87v-96q53 92 150.5 155.5t205.5 63.5z" />
    <glyph glyph-name="uni0145" unicode="&#x145;" horiz-adv-x="1141" 
d="M985 896q17 5 41.5 4.5t38.5 -4.5v-896h-65l-844 781v-781h-80v877q8 9 31.5 15.5t34.5 3.5l843 -783v783zM500 -296l42 218h65l-51 -218h-56z" />
    <glyph glyph-name="uni0146" unicode="&#x146;" horiz-adv-x="896" 
d="M508 703q158 0 241.5 -90t83.5 -254v-359h-79v344q0 136 -64.5 212.5t-190.5 76.5q-89 0 -169 -52.5t-127 -134t-47 -165.5v-281h-79v519q0 74 -14 129v13q43 9 76 6q13 -38 13 -87v-96q53 92 150.5 155.5t205.5 63.5zM404 -296l42 218h65l-51 -218h-56z" />
    <glyph glyph-name="Ncaron" unicode="&#x147;" horiz-adv-x="1141" 
d="M591 944h-42l-258 223h91l188 -167l188 167h91zM985 896q17 5 41.5 4.5t38.5 -4.5v-896h-65l-844 781v-781h-80v877q8 9 31.5 15.5t34.5 3.5l843 -783v783z" />
    <glyph glyph-name="ncaron" unicode="&#x148;" horiz-adv-x="896" 
d="M524 782h-42l-258 231h92l188 -176l187 176h91zM508 703q158 0 241.5 -90t83.5 -254v-359h-79v344q0 136 -64.5 212.5t-190.5 76.5q-89 0 -169 -52.5t-127 -134t-47 -165.5v-281h-79v519q0 74 -14 129v13q43 9 76 6q13 -38 13 -87v-96q53 92 150.5 155.5t205.5 63.5z" />
    <glyph glyph-name="Eng" unicode="&#x14a;" horiz-adv-x="1141" 
d="M622 -355q-121 0 -241 48.5t-214 125.5q6 19 20 35t30 20q83 -70 190.5 -115.5t214.5 -45.5q161 0 263.5 83.5t102.5 213.5l-832 763v-773h-80v867q8 9 31.5 16t34.5 3l843 -774v771q16 5 41.5 4.5t38.5 -4.5v-885q0 -145 -120.5 -249t-322.5 -104z" />
    <glyph glyph-name="eng" unicode="&#x14b;" horiz-adv-x="907" 
d="M508 703q158 0 241.5 -90t83.5 -254v-366q0 -109 -36.5 -168t-124.5 -59q-46 0 -107 18q-5 15 1 37t17 32q48 -14 77 -14q52 -1 73 41t21 143v321q0 135 -64.5 211.5t-190.5 76.5q-87 0 -167 -52t-128 -133.5t-48 -165.5v-281h-79v519q0 74 -14 129v13q43 9 76 6
q16 -48 16 -110v-88q47 103 144.5 168.5t208.5 65.5z" />
    <glyph glyph-name="Omacron" unicode="&#x14c;" horiz-adv-x="1118" 
d="M340 994v54h517v-54h-517zM508 -18q-209 0 -339.5 121t-130.5 300q0 146 78.5 264.5t211.5 184t291 65.5q128 0 234.5 -59.5t166.5 -160t60 -218.5q0 -138 -80 -253.5t-211 -179.5t-281 -64zM515 50q197 0 339.5 126t142.5 305q0 157 -111 262.5t-277 105.5
q-134 0 -246 -57.5t-177 -159t-65 -225.5q0 -149 107 -253t287 -104z" />
    <glyph glyph-name="omacron" unicode="&#x14d;" horiz-adv-x="893" 
d="M188 852v62h567v-62h-567zM421 -18q-181 0 -284 95t-103 236q0 160 128 275.5t316 115.5q172 0 275.5 -95.5t104.5 -239.5q1 -108 -54.5 -196.5t-156 -139.5t-226.5 -51zM425 49q153 0 253 92.5t100 220.5q0 116 -84.5 195.5t-220.5 79.5q-152 0 -255 -96.5t-103 -228.5
q0 -111 81 -187t229 -76z" />
    <glyph glyph-name="Ohungarumlaut" unicode="&#x150;" horiz-adv-x="1118" 
d="M405 976l168 182h84l-195 -182h-57zM649 976l184 182h90l-215 -182h-59zM508 -18q-209 0 -339.5 121t-130.5 300q0 146 78.5 264.5t211.5 184t291 65.5q128 0 234.5 -59.5t166.5 -160t60 -218.5q0 -138 -80 -253.5t-211 -179.5t-281 -64zM515 50q197 0 339.5 126
t142.5 305q0 157 -111 262.5t-277 105.5q-134 0 -246 -57.5t-177 -159t-65 -225.5q0 -149 107 -253t287 -104z" />
    <glyph glyph-name="ohungarumlaut" unicode="&#x151;" horiz-adv-x="893" 
d="M280 782l180 247h86l-208 -247h-58zM535 782l187 247h89l-218 -247h-58zM421 -18q-181 0 -284 95t-103 236q0 160 128 275.5t316 115.5q172 0 275.5 -95.5t104.5 -239.5q1 -108 -54.5 -196.5t-156 -139.5t-226.5 -51zM425 49q153 0 253 92.5t100 220.5q0 116 -84.5 195.5
t-220.5 79.5q-152 0 -255 -96.5t-103 -228.5q0 -111 81 -187t229 -76z" />
    <glyph glyph-name="OE" unicode="&#x152;" horiz-adv-x="1879" 
d="M1833 66q8 -9 8.5 -31.5t-8.5 -34.5h-833v226q-77 -112 -209 -178t-283 -66q-209 0 -339.5 121t-130.5 300q0 146 78.5 264.5t211.5 184t291 65.5q119 0 218.5 -51t162.5 -139v147l10 9h794q5 -15 0 -35t-14 -31h-710v-353h620q4 -16 -1 -37t-14 -29h-605v-332h753z
M515 50q197 0 339.5 126t142.5 305q0 157 -111 262.5t-277 105.5q-134 0 -246 -57.5t-177 -159t-65 -225.5q0 -149 107 -253t287 -104z" />
    <glyph glyph-name="oe" unicode="&#x153;" horiz-adv-x="1568" 
d="M1186 704q162 0 259.5 -91t90.5 -253l-15 -17l-654 -78q16 -101 97 -158.5t197 -58.5q152 0 290 99q13 -5 22.5 -17t13 -21t3.5 -11q-156 -116 -338 -116q-120 0 -213.5 50t-134.5 143q-55 -89 -155.5 -141t-227.5 -52q-181 0 -284 95t-103 236q0 160 128 275.5
t316 115.5q126 0 217.5 -54t132.5 -144q53 91 148 144.5t210 53.5zM1450 390q1 119 -70.5 185t-193.5 66q-130 0 -224 -91.5t-99 -225.5zM425 49q153 0 253 92.5t100 220.5q0 116 -84.5 195.5t-220.5 79.5q-152 0 -255 -96.5t-103 -228.5q0 -111 81 -187t229 -76z" />
    <glyph glyph-name="Racute" unicode="&#x154;" horiz-adv-x="1110" 
d="M751 1151l-212 -194h-57l185 194h84zM687 314q251 -227 374 -296l-1 -13q-29 -11 -94 -11q-50 22 -135.5 92.5t-241.5 211.5q-41 -4 -95 -4q-166 1 -338 41v-335h-80v875q101 24 196.5 33t240.5 9q218 0 346.5 -84t128.5 -231q0 -110 -82.5 -183t-218.5 -105zM494 360
q110 -1 201 24t150.5 82t59.5 138q0 111 -104 179.5t-297 68.5q-207 0 -348 -31v-420q155 -40 338 -41z" />
    <glyph glyph-name="racute" unicode="&#x155;" horiz-adv-x="640" 
d="M566 1051l-213 -247h-57l181 247h89zM607 679q5 -14 -2.5 -35.5t-18.5 -33.5q-64 22 -112 22q-144 -1 -231 -101t-87 -240v-291h-79v519q0 74 -14 129v13q41 9 70 6q14 -40 14 -87v-106q38 99 124.5 164.5t206.5 65.5q60 0 129 -25z" />
    <glyph glyph-name="uni0156" unicode="&#x156;" horiz-adv-x="1110" 
d="M687 314q251 -227 374 -296l-1 -13q-29 -11 -94 -11q-50 22 -135.5 92.5t-241.5 211.5q-41 -4 -95 -4q-166 1 -338 41v-335h-80v875q101 24 196.5 33t240.5 9q218 0 346.5 -84t128.5 -231q0 -110 -82.5 -183t-218.5 -105zM494 360q110 -1 201 24t150.5 82t59.5 138
q0 111 -104 179.5t-297 68.5q-207 0 -348 -31v-420q155 -40 338 -41zM473 -296l42 218h65l-51 -218h-56z" />
    <glyph glyph-name="uni0157" unicode="&#x157;" horiz-adv-x="640" 
d="M607 679q5 -14 -2.5 -35.5t-18.5 -33.5q-64 22 -112 22q-144 -1 -231 -101t-87 -240v-291h-79v519q0 74 -14 129v13q41 9 70 6q14 -40 14 -87v-106q38 99 124.5 164.5t206.5 65.5q60 0 129 -25zM73 -296l42 218h65l-51 -218h-56z" />
    <glyph glyph-name="Rcaron" unicode="&#x158;" horiz-adv-x="1110" 
d="M531 956h-42l-258 223h91l188 -167l188 167h91zM687 314q251 -227 374 -296l-1 -13q-29 -11 -94 -11q-50 22 -135.5 92.5t-241.5 211.5q-41 -4 -95 -4q-166 1 -338 41v-335h-80v875q101 24 196.5 33t240.5 9q218 0 346.5 -84t128.5 -231q0 -110 -82.5 -183t-218.5 -105z
M494 360q110 -1 201 24t150.5 82t59.5 138q0 111 -104 179.5t-297 68.5q-207 0 -348 -31v-420q155 -40 338 -41z" />
    <glyph glyph-name="rcaron" unicode="&#x159;" horiz-adv-x="640" 
d="M356 804h-42l-258 231h92l188 -176l187 176h91zM478 704q60 0 129 -25q5 -14 -2.5 -35.5t-18.5 -33.5q-64 22 -112 22q-144 -1 -231 -101t-87 -240v-291h-79v519q0 74 -14 129v13q41 9 70 6q14 -40 14 -87v-106q38 99 124.5 164.5t206.5 65.5z" />
    <glyph glyph-name="Sacute" unicode="&#x15a;" horiz-adv-x="1046" 
d="M516 966l185 194h84l-212 -194h-57zM556 -18q-301 0 -518 140q17 50 47 60q210 -134 463 -134q181 0 279 54t98 142q0 50 -29.5 85t-87 55t-123 30t-154.5 14q-170 7 -275.5 63.5t-105.5 169.5q0 62 35 112t92.5 80.5t126 47t140.5 16.5q214 0 333.5 -76t119.5 -188
q-53 -15 -86 -6q-3 95 -101 150t-266 55q-129 0 -220.5 -51t-91.5 -138q0 -44 26.5 -77t73 -52t98.5 -29t114 -12q224 -9 344 -66.5t120 -178.5q0 -118 -119.5 -192t-332.5 -74z" />
    <glyph glyph-name="sacute" unicode="&#x15b;" horiz-adv-x="858" 
d="M398 782l181 247h89l-213 -247h-57zM445 -18q-105 0 -213.5 28t-189.5 87q7 38 38 58q72 -51 171 -78.5t197 -27.5q134 0 210 39.5t76 100.5q0 68 -69.5 95.5t-243.5 33.5q-341 15 -341 186q0 86 93 143t263 57q84 0 186.5 -22.5t180.5 -66.5q-4 -27 -25 -61
q-72 40 -167 61.5t-170 21.5q-142 0 -211.5 -40t-69.5 -93q0 -58 66.5 -88t206.5 -36q207 -7 294.5 -51.5t87.5 -138.5q0 -95 -103 -151.5t-267 -56.5z" />
    <glyph glyph-name="Scedilla" unicode="&#x15e;" horiz-adv-x="1046" 
d="M1008 248q0 -116 -114.5 -189t-320.5 -77q1 -28 13.5 -45t54.5 -58q54 -54 56 -109q2 -48 -36 -82.5t-94 -35.5q-72 0 -137 59l43 37q47 -43 94 -43q29 0 48.5 19.5t19.5 48.5q-1 21 -15.5 42t-44.5 53q-36 38 -47 60t-12 55q-276 10 -478 139q17 50 47 60
q210 -134 463 -134q181 0 279 54t98 142q0 50 -29.5 85t-87 55t-123 30t-154.5 14q-170 7 -275.5 63.5t-105.5 169.5q0 62 35 112t92.5 80.5t126 47t140.5 16.5q214 0 333.5 -76t119.5 -188q-53 -15 -86 -6q-3 95 -101 150t-266 55q-129 0 -220.5 -51t-91.5 -138
q0 -44 26.5 -77t73 -52t98.5 -29t114 -12q224 -9 344 -66.5t120 -178.5z" />
    <glyph glyph-name="scedilla" unicode="&#x15f;" horiz-adv-x="858" 
d="M815 190q0 -93 -100 -149.5t-259 -58.5q2 -25 14.5 -42t52.5 -56q54 -54 56 -109q2 -48 -36 -82.5t-94 -35.5q-72 0 -137 59l43 37q46 -43 93 -43q30 0 49.5 19t19.5 48q-1 34 -61 96q-35 36 -46 58t-12 52q-219 13 -356 114q7 38 38 58q72 -51 171 -78.5t197 -27.5
q134 0 210 39.5t76 100.5q0 68 -69.5 95.5t-243.5 33.5q-341 15 -341 186q0 86 93 143t263 57q84 0 186.5 -22.5t180.5 -66.5q-4 -27 -25 -61q-72 40 -167 61.5t-170 21.5q-142 0 -211.5 -40t-69.5 -93q0 -58 66.5 -88t206.5 -36q207 -7 294.5 -51.5t87.5 -138.5z" />
    <glyph glyph-name="Scaron" unicode="&#x160;" horiz-adv-x="1046" 
d="M565 965h-42l-258 223h91l188 -167l188 167h91zM544 493q224 -9 344 -66.5t120 -178.5q0 -118 -119.5 -192t-332.5 -74q-301 0 -518 140q17 50 47 60q210 -134 463 -134q181 0 279 54t98 142q0 50 -29.5 85t-87 55t-123 30t-154.5 14q-170 7 -275.5 63.5t-105.5 169.5
q0 62 35 112t92.5 80.5t126 47t140.5 16.5q214 0 333.5 -76t119.5 -188q-53 -15 -86 -6q-3 95 -101 150t-266 55q-129 0 -220.5 -51t-91.5 -138q0 -44 26.5 -77t73 -52t98.5 -29t114 -12z" />
    <glyph glyph-name="scaron" unicode="&#x161;" horiz-adv-x="858" 
d="M458 782h-42l-258 231h92l188 -176l187 176h91zM433 380q207 -7 294.5 -51.5t87.5 -138.5q0 -95 -103 -151.5t-267 -56.5q-105 0 -213.5 28t-189.5 87q7 38 38 58q72 -51 171 -78.5t197 -27.5q134 0 210 39.5t76 100.5q0 68 -69.5 95.5t-243.5 33.5q-341 15 -341 186
q0 86 93 143t263 57q84 0 186.5 -22.5t180.5 -66.5q-4 -27 -25 -61q-72 40 -167 61.5t-170 21.5q-142 0 -211.5 -40t-69.5 -93q0 -58 66.5 -88t206.5 -36z" />
    <glyph glyph-name="uni0162" unicode="&#x162;" horiz-adv-x="1067" 
d="M554 830v-830h-15q0 -34 12 -52t56 -61q54 -54 56 -109q2 -48 -36 -82.5t-94 -35.5q-72 0 -137 59l43 37q47 -43 94 -43q29 0 48.5 19.5t19.5 48.5q-1 21 -15.5 42t-44.5 53q-39 40 -49 63t-10 61h-10v830h-432q-4 14 -1 34.5t11 31.5h977q4 -15 -0.5 -36t-13.5 -30h-459
z" />
    <glyph glyph-name="uni0163" unicode="&#x163;" horiz-adv-x="621" 
d="M592 596h-392v-291q0 -121 59.5 -188.5t171.5 -67.5q59 0 134 20q10 -7 15 -29t0 -35q-84 -23 -154 -23q-43 0 -78 7q3 -23 16 -39t51 -54q54 -54 56 -109q2 -48 -36 -82.5t-94 -35.5q-72 0 -137 59l43 37q46 -43 93 -43q30 0 49.5 19t19.5 48q-1 34 -61 96
q-38 40 -48 62.5t-10 58.5q-80 32 -124.5 107t-44.5 186v297h-108v66h108v181q42 21 79 12v-193h392v-66z" />
    <glyph glyph-name="Tcaron" unicode="&#x164;" horiz-adv-x="1067" 
d="M539 944h-42l-258 223h91l188 -167l188 167h91zM1027 896q4 -15 -0.5 -36t-13.5 -30h-459v-830h-82v830h-432q-4 14 -1 34.5t11 31.5h977z" />
    <glyph glyph-name="tcaron" unicode="&#x165;" horiz-adv-x="621" 
d="M595 1086l-33 -333h-59l16 333h76zM200 855v-193h392v-66h-392v-291q0 -121 59.5 -188.5t171.5 -67.5q59 0 134 20q10 -7 15 -29t0 -35q-84 -23 -154 -23q-140 -2 -222.5 81t-82.5 236v297h-108v66h108v181q42 21 79 12z" />
    <glyph glyph-name="Tbar" unicode="&#x166;" horiz-adv-x="1073" 
d="M1018 830h-458v-351h237v-60h-237v-419h-83v419h-235v60h235v351h-431q-4 14 -1 34t10 32h978q4 -15 -1 -36t-14 -30z" />
    <glyph glyph-name="tbar" unicode="&#x167;" horiz-adv-x="614" 
d="M584 610h-391v-162h391v-57h-391v-86q0 -121 59.5 -188.5t170.5 -67.5q58 0 135 20q10 -7 14.5 -29t-0.5 -35q-83 -23 -153 -23q-141 -2 -223 81t-82 236v92h-108v57h108v162h-108v57h108v176q42 21 79 12v-188h391v-57z" />
    <glyph glyph-name="Umacron" unicode="&#x16a;" horiz-adv-x="1139" 
d="M311 990v54h517v-54h-517zM553 -21q-227 0 -352 105t-125 306v506q15 5 43 4.5t40 -4.5v-510q0 -165 104.5 -251.5t289.5 -86.5q196 0 311.5 97.5t115.5 252.5v498q17 5 43 4t40 -4v-500q0 -181 -135.5 -299t-374.5 -118z" />
    <glyph glyph-name="umacron" unicode="&#x16b;" horiz-adv-x="882" 
d="M716 914v-62h-567v62h567zM810 165q0 -67 5.5 -98.5t19.5 -55.5l-1 -11h-67q-15 18 -22 41.5t-7 78.5v50q-45 -85 -143.5 -136.5t-226.5 -51.5q-140 0 -222.5 73.5t-82.5 223.5v383q35 8 79 0v-370q0 -123 65 -183t175 -60q152 0 250.5 90.5t98.5 226.5v296q13 4 40 4
t39 -4v-497z" />
    <glyph glyph-name="Uring" unicode="&#x16e;" horiz-adv-x="1139" 
d="M571 892q-103 0 -166.5 37.5t-63.5 103.5q0 62 62 101.5t168 39.5q98 0 161.5 -39.5t63.5 -101.5t-67 -101.5t-158 -39.5zM570 930q71 0 123.5 30.5t52.5 72.5q0 45 -52 74t-124 29q-79 0 -128.5 -29t-49.5 -74t48 -74t130 -29zM553 -21q-227 0 -352 105t-125 306v506
q15 5 43 4.5t40 -4.5v-510q0 -165 104.5 -251.5t289.5 -86.5q196 0 311.5 97.5t115.5 252.5v498q17 5 43 4t40 -4v-500q0 -181 -135.5 -299t-374.5 -118z" />
    <glyph glyph-name="uring" unicode="&#x16f;" horiz-adv-x="882" 
d="M431 772q-103 0 -166.5 37.5t-63.5 102.5q0 62 62 101.5t168 39.5q98 0 161.5 -39.5t63.5 -101.5t-67 -101t-158 -39zM430 1016q-79 0 -128.5 -29.5t-49.5 -74.5t48 -73.5t130 -28.5q70 0 123 30t53 72q0 45 -52 74.5t-124 29.5zM810 165q0 -67 5.5 -98.5t19.5 -55.5
l-1 -11h-67q-15 18 -22 41.5t-7 78.5v50q-45 -85 -143.5 -136.5t-226.5 -51.5q-140 0 -222.5 73.5t-82.5 223.5v383q35 8 79 0v-370q0 -123 65 -183t175 -60q152 0 250.5 90.5t98.5 226.5v296q13 4 40 4t39 -4v-497z" />
    <glyph glyph-name="Uhungarumlaut" unicode="&#x170;" horiz-adv-x="1139" 
d="M375 972l168 182h84l-195 -182h-57zM619 972l184 182h90l-215 -182h-59zM553 -21q-227 0 -352 105t-125 306v506q15 5 43 4.5t40 -4.5v-510q0 -165 104.5 -251.5t289.5 -86.5q196 0 311.5 97.5t115.5 252.5v498q17 5 43 4t40 -4v-500q0 -181 -135.5 -299t-374.5 -118z
" />
    <glyph glyph-name="uhungarumlaut" unicode="&#x171;" horiz-adv-x="882" 
d="M507 1029l-208 -247h-58l180 247h86zM554 782h-58l187 247h89zM810 165q0 -67 5.5 -98.5t19.5 -55.5l-1 -11h-67q-15 18 -22 41.5t-7 78.5v50q-45 -85 -143.5 -136.5t-226.5 -51.5q-140 0 -222.5 73.5t-82.5 223.5v383q35 8 79 0v-370q0 -123 65 -183t175 -60
q152 0 250.5 90.5t98.5 226.5v296q13 4 40 4t39 -4v-497z" />
    <glyph glyph-name="Uogonek" unicode="&#x172;" horiz-adv-x="1139" 
d="M980 896q17 5 43 4t40 -4v-500q0 -177 -130 -294.5t-360 -122.5q-64 -52 -96.5 -106.5t-32.5 -98.5q0 -37 25 -55.5t63 -16.5q34 0 70 16t57 40l38 -31q-30 -36 -79 -60.5t-96 -24.5q-60 -1 -98.5 30t-38.5 91q0 47 33 107t93 110q-208 10 -321.5 114t-113.5 296v506
q15 5 43 4.5t40 -4.5v-510q0 -165 104.5 -251.5t289.5 -86.5q196 0 311.5 97.5t115.5 252.5v498z" />
    <glyph glyph-name="uogonek" unicode="&#x173;" horiz-adv-x="882" 
d="M889 -230l38 -31q-30 -36 -79 -60.5t-96 -24.5q-60 -1 -98.5 30t-38.5 91q0 51 38.5 116.5t107.5 116.5q-23 31 -23 112v50q-45 -85 -143.5 -136.5t-226.5 -51.5q-140 0 -222.5 73.5t-82.5 223.5v383q35 8 79 0v-370q0 -123 65 -183t175 -60q152 0 250.5 90.5t98.5 226.5
v296q13 4 40 4t39 -4v-497q0 -67 5.5 -98.5t19.5 -55.5l-1 -11h-21q-68 -53 -103.5 -110.5t-35.5 -103.5q0 -37 25 -55.5t63 -16.5q34 0 70 16t57 40z" />
    <glyph glyph-name="Wcircumflex" unicode="&#x174;" horiz-adv-x="1572" 
d="M789 1117l-187 -173h-84l247 222h48l247 -222h-84zM1543 896q36 -194 -52.5 -431.5t-286.5 -447.5l-32 -17h-89l-14 10q-24 58 -87.5 197.5t-91.5 196.5q-27 -71 -116 -204t-140 -189l-24 -11h-82l-22 12q-96 231 -242 479.5t-250 390.5l5 14q38 9 76 0
q128 -178 259 -401.5t215 -426.5h9q85 103 169.5 230t110.5 205q-30 71 -104 222q7 12 29 21t44 7q52 -91 154 -316t157 -369h8q181 196 265 419t53 403q25 16 79 6z" />
    <glyph glyph-name="wcircumflex" unicode="&#x175;" horiz-adv-x="1298" 
d="M650 917l-188 -172h-92l258 231h42l258 -231h-91zM1286 662q19 -129 -69 -314t-232 -339l-17 -9h-83l-19 11q-43 121 -144 322q-23 -53 -96 -162t-122 -162l-17 -9h-92l-15 10q-44 116 -103.5 230t-116 198.5t-92 132t-61.5 78.5l6 13q46 9 76 0l26 -34
q26 -33 37.5 -48.5t42 -58t50 -73t50 -80t53 -93t48 -99t45.5 -109.5h10q58 71 125.5 176t102.5 183l-78 141q8 13 30.5 23t44.5 7q163 -278 249 -530h10q121 138 204.5 302.5t70.5 286.5q28 16 76 6z" />
    <glyph glyph-name="Ycircumflex" unicode="&#x176;" horiz-adv-x="1035" 
d="M521 1117l-187 -173h-84l247 222h48l247 -222h-84zM1018 896q26 -274 -427 -602v-294h-80v299q-68 90 -244.5 300.5t-251.5 282.5l6 14q57 10 95 0q50 -49 201.5 -230.5t245.5 -298.5q173 120 278.5 264t95.5 259q27 14 81 6z" />
    <glyph glyph-name="ycircumflex" unicode="&#x177;" horiz-adv-x="848" 
d="M425 917l-188 -172h-92l258 231h42l258 -231h-91zM833 662q13 -107 -17.5 -238t-116.5 -278t-216 -259q-169 -142 -360 -143q-61 0 -103 17q-15 29 -1 57l15 8q35 -17 90 -15q167 1 320 143q32 29 68 67q-91 50 -179.5 138.5t-152 183t-106 172t-64.5 133.5l5 13
q42 9 79 1q21 -51 58 -119.5t96 -159t141 -175t168 -134.5q108 135 157.5 286.5t40.5 295.5q27 17 78 6z" />
    <glyph glyph-name="Ydieresis" unicode="&#x178;" horiz-adv-x="1035" 
d="M350 983q-20 0 -34.5 13t-14.5 30q0 18 14.5 31t34.5 13t34.5 -13t14.5 -31q0 -17 -14.5 -30t-34.5 -13zM685 983q-20 0 -34.5 13t-14.5 30q0 18 14.5 31t34.5 13t34.5 -13t14.5 -31q0 -17 -14.5 -30t-34.5 -13zM1018 896q26 -274 -427 -602v-294h-80v299
q-68 90 -244.5 300.5t-251.5 282.5l6 14q57 10 95 0q50 -49 201.5 -230.5t245.5 -298.5q173 120 278.5 264t95.5 259q27 14 81 6z" />
    <glyph glyph-name="Zacute" unicode="&#x179;" horiz-adv-x="1019" 
d="M751 1139l-212 -194h-57l185 194h84zM972 66q9 -9 9.5 -31.5t-9.5 -34.5h-916q-9 6 -14 24t-3 32q172 234 380.5 448.5t385.5 325.5h-729q-8 9 -8.5 30.5t8.5 35.5h860q9 -6 15 -28t4 -36q-194 -111 -416.5 -329t-386.5 -437h820z" />
    <glyph glyph-name="zacute" unicode="&#x17a;" horiz-adv-x="821" 
d="M642 1029l-213 -247h-57l181 247h89zM800 67q8 -6 8.5 -29.5t-8.5 -37.5h-771q-8 7 -13 25t-3 33q337 412 631 537h-597q-8 8 -8 30.5t8 36.5h734q7 -7 12.5 -31.5t3.5 -40.5q-142 -44 -326 -196.5t-329 -326.5h658z" />
    <glyph glyph-name="Zdotaccent" unicode="&#x17b;" horiz-adv-x="1019" 
d="M510 975q-19 0 -34 13.5t-15 30.5q0 18 14.5 31t34.5 13t34.5 -13t14.5 -31q0 -17 -15 -30.5t-34 -13.5zM972 66q9 -9 9.5 -31.5t-9.5 -34.5h-916q-9 6 -14 24t-3 32q172 234 380.5 448.5t385.5 325.5h-729q-8 9 -8.5 30.5t8.5 35.5h860q9 -6 15 -28t4 -36
q-194 -111 -416.5 -329t-386.5 -437h820z" />
    <glyph glyph-name="zdotaccent" unicode="&#x17c;" horiz-adv-x="821" 
d="M411 814q-23 0 -40.5 15.5t-17.5 35.5q0 21 17.5 36.5t40.5 15.5t40.5 -15.5t17.5 -36.5q0 -20 -17.5 -35.5t-40.5 -15.5zM800 67q8 -6 8.5 -29.5t-8.5 -37.5h-771q-8 7 -13 25t-3 33q337 412 631 537h-597q-8 8 -8 30.5t8 36.5h734q7 -7 12.5 -31.5t3.5 -40.5
q-142 -44 -326 -196.5t-329 -326.5h658z" />
    <glyph glyph-name="Zcaron" unicode="&#x17d;" horiz-adv-x="1019" 
d="M530 944h-42l-258 223h91l188 -167l188 167h91zM972 66q9 -9 9.5 -31.5t-9.5 -34.5h-916q-9 6 -14 24t-3 32q172 234 380.5 448.5t385.5 325.5h-729q-8 9 -8.5 30.5t8.5 35.5h860q9 -6 15 -28t4 -36q-194 -111 -416.5 -329t-386.5 -437h820z" />
    <glyph glyph-name="zcaron" unicode="&#x17e;" horiz-adv-x="821" 
d="M432 782h-42l-258 231h92l188 -176l187 176h91zM800 67q8 -6 8.5 -29.5t-8.5 -37.5h-771q-8 7 -13 25t-3 33q337 412 631 537h-597q-8 8 -8 30.5t8 36.5h734q7 -7 12.5 -31.5t3.5 -40.5q-142 -44 -326 -196.5t-329 -326.5h658z" />
    <glyph glyph-name="longs" unicode="&#x17f;" horiz-adv-x="377" 
d="M97 0v626q0 318 253 318q70 0 155 -22q3 -11 -2.5 -34t-13.5 -30q-67 20 -124 20q-189 0 -189 -248v-630h-79z" />
    <glyph glyph-name="florin" unicode="&#x192;" horiz-adv-x="553" 
d="M452 403v-67h-136q18 -200 18 -311q0 -107 -45.5 -167.5t-133.5 -60.5v66q102 0 102 168q0 113 -19 305h-137v67h131q-12 158 -12 243q0 108 44.5 167.5t136.5 59.5v-67q-104 0 -104 -168q0 -88 13 -235h142z" />
    <glyph glyph-name="uni01C7" unicode="&#x1c7;" horiz-adv-x="1984" 
d="M95 0l-19 17v879q14 5 41 4.5t39 -4.5v-830h752q9 -12 8.5 -32.5t-8.5 -33.5h-813zM1438 -18q-121 0 -241 54.5t-215 141.5q6 19 20.5 34.5t29.5 20.5q83 -80 189 -131.5t212 -51.5q166 0 267 96t101 248v502q17 5 43 4.5t37 -4.5v-524q0 -77 -30.5 -147t-86 -124
t-140.5 -86.5t-186 -32.5z" />
    <glyph glyph-name="uni01C8" unicode="&#x1c8;" horiz-adv-x="1216" 
d="M1078 814q-23 0 -40.5 15.5t-17.5 35.5q0 21 17.5 36.5t40.5 15.5t40.5 -15.5t17.5 -36.5q0 -20 -17.5 -35.5t-40.5 -15.5zM95 0l-19 17v879q14 5 41 4.5t39 -4.5v-830h752q9 -12 8.5 -32.5t-8.5 -33.5h-813zM957 -234q-45 0 -107 18q-5 15 1.5 37t17.5 32q48 -14 77 -14
q52 -1 73 43.5t21 155.5v624q13 4 40.5 4t38.5 -4v-669q0 -109 -36.5 -168t-125.5 -59z" />
    <glyph glyph-name="uni01C9" unicode="&#x1c9;" horiz-adv-x="650" 
d="M230 -18q-77 -1 -114 48t-37 151v752q14 5 38.5 5.5t40.5 -5.5v-734q0 -81 23 -117t73 -35q33 0 83 14q7 -6 10.5 -26t0.5 -33q-65 -18 -118 -20zM512 814q-23 0 -40.5 15.5t-17.5 35.5q0 21 17.5 36.5t40.5 15.5t40.5 -15.5t17.5 -36.5q0 -20 -17.5 -35.5t-40.5 -15.5z
M391 -234q-45 0 -107 18q-5 15 1.5 37t17.5 32q47 -14 77 -14q52 -1 73 43.5t21 155.5v624q13 4 40 4t39 -4v-669q0 -109 -36.5 -168t-125.5 -59z" />
    <glyph glyph-name="uni01CA" unicode="&#x1ca;" horiz-adv-x="2159" 
d="M985 896q17 5 41.5 4.5t38.5 -4.5v-896h-65l-844 781v-781h-80v877q8 9 31.5 15.5t34.5 3.5l843 -783v783zM1977 896q17 5 42.5 4.5t37.5 -4.5v-524q0 -77 -30.5 -147t-86 -124t-140.5 -86.5t-186 -32.5q-121 0 -241 54.5t-215 141.5q6 19 20 35t30 20q82 -79 188.5 -131
t211.5 -52q167 0 268 96t101 248v502z" />
    <glyph glyph-name="uni01CB" unicode="&#x1cb;" horiz-adv-x="1392" 
d="M1254 917q23 0 40.5 -15.5t17.5 -36.5q0 -20 -17.5 -35.5t-40.5 -15.5t-40.5 15.5t-17.5 35.5q0 21 17.5 36.5t40.5 15.5zM1065 0h-65l-844 781v-781h-80v877q8 9 31.5 15.5t34.5 3.5l843 -783v783q17 5 41.5 4.5t38.5 -4.5v-896zM1216 662q13 4 40 4t39 -4v-669
q0 -109 -36.5 -168t-125.5 -59q-45 0 -107 18q-5 15 1.5 37t17.5 32q48 -14 77 -14q52 -1 73 43.5t21 155.5v624z" />
    <glyph glyph-name="uni01CC" unicode="&#x1cc;" horiz-adv-x="1601" 
d="M1035 917q23 0 40.5 -15.5t17.5 -36.5q0 -20 -17.5 -35.5t-40.5 -15.5t-40.5 15.5t-17.5 35.5q0 21 17.5 36.5t40.5 15.5zM833 0h-79v344q0 136 -64.5 212.5t-190.5 76.5q-89 0 -169 -52.5t-127 -134t-47 -165.5v-281h-79v519q0 74 -14 129v13q43 9 76 6q13 -38 13 -87
v-96q53 92 150.5 155.5t205.5 63.5q158 0 241.5 -90t83.5 -254v-359zM997 662q13 4 40 4t38 -4v-669q0 -109 -36.5 -168t-124.5 -59q-46 0 -107 18q-5 15 1 37t17 32q48 -14 78 -14q52 -1 73 43.5t21 155.5v624z" />
    <glyph glyph-name="uni01CD" unicode="&#x1cd;" horiz-adv-x="1137" 
d="M596 944h-42l-258 224h91l188 -168l188 168h90zM616 896q29 -48 248 -438t259 -446l-4 -12q-69 0 -91 8q-28 42 -125 218h-670l-128 -226h-91l514 896q15 6 44.5 5.5t43.5 -5.5zM270 291h597q-30 55 -292 538z" />
    <glyph glyph-name="uni01CE" unicode="&#x1ce;" horiz-adv-x="847" 
d="M459 782h-42l-258 231h92l188 -176l187 176h91zM775 172q0 -73 7.5 -104t26.5 -59l-2 -9h-76q-14 14 -21 23.5t-13 36.5t-6 72v60q-62 -95 -169.5 -152.5t-230.5 -57.5q-113 0 -180 48t-67 122q0 66 43.5 117t118 81t167 45.5t196.5 14.5q64 0 115 -5q-8 113 -75 176
t-176 63q-129 0 -290 -91q-27 12 -32 56q169 95 320 95q161 0 251.5 -89.5t91.5 -254.5zM683 340l2 13q-73 5 -125 5q-120 0 -215 -20.5t-155 -66t-60 -109.5q0 -53 45.5 -84.5t126.5 -31.5q78 0 149.5 27.5t119.5 71t78 95t34 100.5z" />
    <glyph glyph-name="uni01CF" unicode="&#x1cf;" horiz-adv-x="232" 
d="M137 944h-42l-258 223h91l188 -167l188 167h91zM76 896q16 5 42 4.5t38 -4.5v-896h-80v896z" />
    <glyph glyph-name="uni01D0" unicode="&#x1d0;" horiz-adv-x="248" 
d="M145 782h-42l-258 231h92l188 -176l187 176h91zM85 662q14 4 40 4t39 -4v-662h-79v662z" />
    <glyph glyph-name="uni01D2" unicode="&#x1d2;" horiz-adv-x="893" 
d="M490 782h-42l-258 231h91l188 -176l187 176h92zM858 369q1 -108 -54.5 -196.5t-156 -139.5t-226.5 -51q-181 0 -284 95t-103 236q0 160 128 275.5t316 115.5q172 0 275.5 -95.5t104.5 -239.5zM425 49q153 0 253 92.5t100 220.5q0 116 -84.5 195.5t-220.5 79.5
q-152 0 -255 -96.5t-103 -228.5q0 -111 81 -187t229 -76z" />
    <glyph glyph-name="uni01D3" unicode="&#x1d3;" horiz-adv-x="1139" 
d="M590 951h-41l-259 223h92l188 -168l188 168h90zM980 896q17 5 43 4t40 -4v-500q0 -181 -135.5 -299t-374.5 -118q-227 0 -352 105t-125 306v506q15 5 43 4.5t40 -4.5v-510q0 -165 104.5 -251.5t289.5 -86.5q196 0 311.5 97.5t115.5 252.5v498z" />
    <glyph glyph-name="uni01D4" unicode="&#x1d4;" horiz-adv-x="882" 
d="M450 782h-41l-259 231h92l188 -176l187 176h91zM810 165q0 -67 5.5 -98.5t19.5 -55.5l-1 -11h-67q-15 18 -22 41.5t-7 78.5v50q-45 -85 -143.5 -136.5t-226.5 -51.5q-140 0 -222.5 73.5t-82.5 223.5v383q35 8 79 0v-370q0 -123 65 -183t175 -60q152 0 250.5 90.5
t98.5 226.5v296q13 4 40 4t39 -4v-497z" />
    <glyph glyph-name="uni01E2" unicode="&#x1e2;" horiz-adv-x="1775" 
d="M1385 1032v-54h-516v54h516zM1729 66q8 -9 8.5 -31.5t-8.5 -34.5h-836v226h-559l-214 -226h-106l863 896h823q5 -15 0 -35.5t-14 -30.5h-713v-363h623q5 -16 -0.5 -37.5t-14.5 -28.5h-608v-335h756zM395 291h498v527z" />
    <glyph glyph-name="uni01E3" unicode="&#x1e3;" horiz-adv-x="1473" 
d="M1021 914v-62h-567v62h567zM1091 704q162 0 259.5 -90t90.5 -252l-15 -17l-655 -75q15 -103 96 -162t199 -60q151 0 291 99q13 -5 22.5 -17t13 -21t3.5 -11q-157 -116 -339 -116q-124 0 -218.5 52.5t-133.5 150.5q-64 -91 -175 -147.5t-239 -55.5q-113 1 -180 48.5
t-67 121.5q0 87 75.5 147t190 86t255.5 25q47 0 112 -5q-10 111 -74 173t-170 62q-122 0 -290 -87q-27 12 -32 56q169 95 320 95q114 0 194.5 -47t116.5 -136q55 85 147 134t202 49zM1355 385q1 122 -70 189t-194 67q-130 0 -224.5 -91.5t-98.5 -225.5zM678 340l1 13
q-70 5 -119 5q-120 0 -215 -20.5t-155 -66t-60 -109.5q0 -53 45.5 -84.5t126.5 -31.5q150 0 258.5 92t117.5 202z" />
    <glyph glyph-name="Gcaron" unicode="&#x1e6;" horiz-adv-x="1285" 
d="M655 965h-42l-258 224h91l188 -168l188 168h91zM636 849q-203 0 -326.5 -116.5t-123.5 -286.5q0 -181 129.5 -288.5t339.5 -107.5q200 0 349 75v242h-408q-4 15 1.5 36t14.5 29h459l13 -12v-332q-81 -51 -198.5 -78.5t-230.5 -27.5q-158 0 -282.5 55t-197 162t-72.5 251
q0 92 37 176t103.5 149t168 103.5t222.5 38.5q195 0 325.5 -85.5t125.5 -217.5q-56 -13 -88 -5q-2 109 -104.5 174.5t-256.5 65.5z" />
    <glyph glyph-name="gcaron" unicode="&#x1e7;" horiz-adv-x="882" 
d="M456 745h-42l-258 231h92l188 -176l187 176h91zM749 669q31 3 70 -6v-11q-14 -78 -14 -149v-421q0 -173 -106.5 -270.5t-278.5 -97.5q-184 0 -358 115q6 43 31 58q172 -106 318 -106q142 0 232 81t91 219l1 114q-41 -95 -136 -154t-212 -59q-98 0 -177.5 39t-127.5 116.5
t-48 180.5q1 166 113.5 275.5t282.5 109.5q109 0 188.5 -50.5t115.5 -127.5v58zM389 48q139 0 235.5 93.5t96.5 244.5q0 89 -79 170t-196 81q-141 0 -235.5 -91t-95.5 -224q-1 -119 75 -196.5t199 -77.5z" />
    <glyph glyph-name="uni01E8" unicode="&#x1e8;" horiz-adv-x="1127" 
d="M598 944h-42l-258 223h91l188 -168l188 168h91zM574 465q200 -184 320.5 -286t213.5 -159l-1 -12q-34 -13 -94 -13q-128 66 -516 434q-158 -72 -341 -138v-291h-80v896q16 5 42 4.5t38 -4.5v-532q289 109 462 203q337 178 325 327q43 10 80 2q10 -84 -75.5 -181
t-247.5 -186q-72 -39 -126 -64z" />
    <glyph glyph-name="uni01E9" unicode="&#x1e9;" horiz-adv-x="941" 
d="M499 1002h-42l-258 231h92l188 -176l187 176h91zM515 334q22 -19 60.5 -51.5t58.5 -50t52.5 -44.5t51 -42.5t44 -36t41.5 -32.5t34 -24.5t30.5 -19.5t22.5 -11v-14q-34 -12 -102 -12q-64 22 -370 298q-149 -76 -296 -129v-165h-79v933q40 14 79 0v-694q157 62 346 165
q130 71 185.5 127.5t49.5 125.5q37 9 95 5q14 -76 -46 -147t-205 -152q-8 -5 -26 -14.5t-26 -14.5z" />
    <glyph glyph-name="uni01EB" unicode="&#x1eb;" horiz-adv-x="893" 
d="M484 -14q-66 -54 -100 -109.5t-34 -100.5q0 -37 25 -55.5t64 -17.5q33 0 69 16t57 40l38 -31q-29 -36 -78.5 -60t-96.5 -24q-60 -1 -98.5 30t-38.5 91q0 47 33 107t93 110q-179 1 -281 96t-102 235q0 160 128 275.5t316 115.5q172 0 275.5 -95.5t104.5 -239.5
q2 -150 -103 -257t-271 -126zM115 312q0 -111 81 -187t229 -76q153 0 253 92.5t100 220.5q0 116 -84.5 195.5t-220.5 79.5q-152 0 -255 -96.5t-103 -228.5z" />
    <glyph glyph-name="uni01F0" unicode="&#x1f0;" horiz-adv-x="282" 
d="M165 782h-42l-258 231h92l188 -176l187 176h91zM106 662q13 4 40 4t39 -4v-669q0 -109 -36.5 -168t-125.5 -59q-45 0 -107 18q-5 15 1 37t17 32q48 -14 78 -14q52 -1 73 43.5t21 155.5v624z" />
    <glyph glyph-name="uni01F4" unicode="&#x1f4;" horiz-adv-x="1064" 
d="M811 1161l-212 -195h-57l184 195h85zM571 849q-203 0 -326.5 -116.5t-123.5 -286.5q0 -181 129.5 -288.5t339.5 -107.5q200 0 349 75v242h-408q-4 15 1.5 36t14.5 29h459l13 -12v-332q-81 -51 -198.5 -78.5t-230.5 -27.5q-158 0 -282.5 55t-197 162t-72.5 251
q0 92 37 176t103.5 149t168 103.5t222.5 38.5q195 0 325.5 -85.5t125.5 -217.5q-56 -13 -88 -5q-2 109 -104.5 174.5t-256.5 65.5z" />
    <glyph glyph-name="uni01F4" unicode="&#x1f5;" horiz-adv-x="1064" 
d="M811 1161l-212 -195h-57l184 195h85zM571 849q-203 0 -326.5 -116.5t-123.5 -286.5q0 -181 129.5 -288.5t339.5 -107.5q200 0 349 75v242h-408q-4 15 1.5 36t14.5 29h459l13 -12v-332q-81 -51 -198.5 -78.5t-230.5 -27.5q-158 0 -282.5 55t-197 162t-72.5 251
q0 92 37 176t103.5 149t168 103.5t222.5 38.5q195 0 325.5 -85.5t125.5 -217.5q-56 -13 -88 -5q-2 109 -104.5 174.5t-256.5 65.5z" />
    <glyph glyph-name="uni01F8" unicode="&#x1f8;" horiz-adv-x="1141" 
d="M639 967h-54l-206 189h76zM985 896q17 5 41.5 4.5t38.5 -4.5v-896h-65l-844 781v-781h-80v877q8 9 31.5 15.5t34.5 3.5l843 -783v783z" />
    <glyph glyph-name="uni01F9" unicode="&#x1f9;" horiz-adv-x="896" 
d="M603 782h-61l-228 247h89zM508 703q158 0 241.5 -90t83.5 -254v-359h-79v344q0 136 -64.5 212.5t-190.5 76.5q-89 0 -169 -52.5t-127 -134t-47 -165.5v-281h-79v519q0 74 -14 129v13q43 9 76 6q13 -38 13 -87v-96q53 92 150.5 155.5t205.5 63.5z" />
    <glyph glyph-name="Aringacute" unicode="&#x1fa;" horiz-adv-x="1137" 
d="M711 1311l-125 -154h-43l93 154h75zM575 917q-87 0 -141 30.5t-54 77.5t53.5 78t141.5 31q87 0 140.5 -31t53.5 -78q0 -45 -55.5 -76.5t-138.5 -31.5zM574 1104q-65 0 -106 -22.5t-41 -56.5t41.5 -55.5t105.5 -21.5t106 22t42 55q0 34 -41.5 56.5t-106.5 22.5zM616 896
q29 -48 248 -438t259 -446l-4 -12q-69 0 -91 8q-28 42 -125 218h-670l-128 -226h-91l514 896q15 6 44.5 5.5t43.5 -5.5zM270 291h597q-30 55 -292 538z" />
    <glyph glyph-name="aringacute" unicode="&#x1fb;" horiz-adv-x="847" 
d="M589 1130l-124 -154h-43l93 154h74zM453 737q-87 0 -141 30t-54 78q0 46 54 77.5t141 31.5t141 -31.5t54 -77.5t-55.5 -77t-139.5 -31zM452 923q-65 0 -106 -22t-41 -56t41.5 -55.5t105.5 -21.5t106.5 22t42.5 55t-42 55.5t-107 22.5zM775 172q0 -73 7.5 -104t26.5 -59
l-2 -9h-76q-14 14 -21 23.5t-13 36.5t-6 72v60q-62 -95 -169.5 -152.5t-230.5 -57.5q-113 0 -180 48t-67 122q0 66 43.5 117t118 81t167 45.5t196.5 14.5q64 0 115 -5q-8 113 -75 176t-176 63q-129 0 -290 -91q-27 12 -32 56q169 95 320 95q161 0 251.5 -89.5t91.5 -254.5z
M683 340l2 13q-73 5 -125 5q-120 0 -215 -20.5t-155 -66t-60 -109.5q0 -53 45.5 -84.5t126.5 -31.5q78 0 149.5 27.5t119.5 71t78 95t34 100.5z" />
    <glyph glyph-name="AEacute" unicode="&#x1fc;" horiz-adv-x="1775" 
d="M1368 1133l-211 -194h-57l184 194h84zM1729 66q8 -9 8.5 -31.5t-8.5 -34.5h-836v226h-559l-214 -226h-106l863 896h823q5 -15 0 -35.5t-14 -30.5h-713v-363h623q5 -16 -0.5 -37.5t-14.5 -28.5h-608v-335h756zM395 291h498v527z" />
    <glyph glyph-name="aeacute" unicode="&#x1fd;" horiz-adv-x="1473" 
d="M966 1029l-213 -247h-57l181 247h89zM1091 704q162 0 259.5 -90t90.5 -252l-15 -17l-655 -75q15 -103 96 -162t199 -60q151 0 291 99q13 -5 22.5 -17t13 -21t3.5 -11q-157 -116 -339 -116q-124 0 -218.5 52.5t-133.5 150.5q-64 -91 -175 -147.5t-239 -55.5
q-113 1 -180 48.5t-67 121.5q0 87 75.5 147t190 86t255.5 25q47 0 112 -5q-10 111 -74 173t-170 62q-122 0 -290 -87q-27 12 -32 56q169 95 320 95q114 0 194.5 -47t116.5 -136q55 85 147 134t202 49zM1355 385q1 122 -70 189t-194 67q-130 0 -224.5 -91.5t-98.5 -225.5z
M678 340l1 13q-70 5 -119 5q-120 0 -215 -20.5t-155 -66t-60 -109.5q0 -53 45.5 -84.5t126.5 -31.5q150 0 258.5 92t117.5 202z" />
    <glyph glyph-name="Oslashacute" unicode="&#x1fe;" horiz-adv-x="1163" 
d="M862 1150l-212 -194h-57l185 194h84zM976 781q126 -126 126 -302q0 -138 -80 -253.5t-211 -179.5t-281 -64q-165 0 -287 80l-64 -62h-87l102 100q-134 120 -134 303q0 146 78.5 264.5t211.5 184t291 65.5q164 0 289 -96l72 71h88zM143 407q0 -152 107 -253l627 615
q-104 80 -246 80q-134 0 -246 -57.5t-177 -159t-65 -225.5zM537 50q197 0 339.5 126t142.5 305q0 145 -96 247l-625 -612q100 -66 239 -66z" />
    <glyph glyph-name="oslashacute" unicode="&#x1ff;" horiz-adv-x="914" 
d="M705 1029l-213 -247h-57l181 247h89zM864 369q1 -108 -54.5 -196.5t-156 -139.5t-226.5 -51q-150 0 -251 69l-57 -51h-66v16l79 71q-92 90 -92 226q0 160 128 275.5t315 115.5q153 0 256 -79l42 37h77v-12l-75 -66q79 -89 81 -215zM121 312q0 -103 67 -173l111 100l49 39
l181 156l47 45l105 94q-82 64 -202 64q-153 0 -255.5 -96t-102.5 -229zM431 49q153 0 253 93t100 220q0 98 -60 170l-67 -60l-55 -44l-197 -170l-39 -39l-133 -118q81 -52 198 -52z" />
    <glyph glyph-name="uni0202" unicode="&#x202;" horiz-adv-x="1137" 
d="M576 1111q-94 0 -153 -42t-59 -103h-64q0 93 80 147t196 54q118 0 195.5 -52.5t77.5 -148.5h-64q0 63 -57 104t-152 41zM616 896q29 -48 248 -438t259 -446l-4 -12q-69 0 -91 8q-28 42 -125 218h-670l-128 -226h-91l514 896q15 6 44.5 5.5t43.5 -5.5zM270 291h597
q-30 55 -292 538z" />
    <glyph glyph-name="uni0203" unicode="&#x203;" horiz-adv-x="847" 
d="M439 928q-94 0 -153 -42t-59 -104h-64q0 94 80.5 148t195.5 54q118 0 196 -53t78 -149h-65q0 64 -57 105t-152 41zM775 172q0 -73 7.5 -104t26.5 -59l-2 -9h-76q-14 14 -21 23.5t-13 36.5t-6 72v60q-62 -95 -169.5 -152.5t-230.5 -57.5q-113 0 -180 48t-67 122
q0 66 43.5 117t118 81t167 45.5t196.5 14.5q64 0 115 -5q-8 113 -75 176t-176 63q-129 0 -290 -91q-27 12 -32 56q169 95 320 95q161 0 251.5 -89.5t91.5 -254.5zM683 340l2 13q-73 5 -125 5q-120 0 -215 -20.5t-155 -66t-60 -109.5q0 -53 45.5 -84.5t126.5 -31.5
q78 0 149.5 27.5t119.5 71t78 95t34 100.5z" />
    <glyph glyph-name="uni0206" unicode="&#x206;" horiz-adv-x="958" 
d="M489 1110q-94 0 -153 -42t-59 -103h-64q0 94 80 148t196 54q118 0 195.5 -53t77.5 -149h-64q0 63 -57 104t-152 41zM912 66q8 -9 8.5 -31.5t-8.5 -34.5h-836v886l10 10h797q5 -15 0 -35.5t-14 -30.5h-713v-366h624q4 -16 -1.5 -37t-14.5 -29h-608v-332h756z" />
    <glyph glyph-name="uni0207" unicode="&#x207;" horiz-adv-x="825" 
d="M442 928q-94 0 -153 -42t-59 -104h-64q0 94 80.5 148t195.5 54q118 0 196 -53t78 -149h-65q0 64 -57 105t-152 41zM444 704q162 0 259.5 -90t90.5 -252l-15 -17l-656 -76q15 -103 96.5 -161.5t198.5 -59.5q153 0 291 99q13 -5 22.5 -17t13 -21t3.5 -11
q-157 -116 -339 -116q-161 0 -268 87.5t-107 242.5q0 166 119 279t291 113zM707 390q1 120 -69.5 185.5t-193.5 65.5q-129 0 -223.5 -90.5t-100.5 -223.5z" />
    <glyph glyph-name="uni020A" unicode="&#x20a;" horiz-adv-x="49" 
d="M-415 965q0 94 80.5 148t195.5 54q118 0 195.5 -53t77.5 -149h-64q0 63 -57 104t-152 41q-94 0 -153 -42t-59 -103h-64zM-180 0v896q16 5 42 4.5t38 -4.5v-896h-80z" />
    <glyph glyph-name="uni020B" unicode="&#x20b;" horiz-adv-x="248" 
d="M-135 782q0 94 75.5 148t184.5 54q112 0 185 -52.5t73 -149.5h-61q0 64 -53.5 105t-143.5 41q-88 0 -144 -42t-56 -104h-60zM85 0v662q14 4 40 4t39 -4v-662h-79z" />
    <glyph glyph-name="uni020E" unicode="&#x20e;" horiz-adv-x="1118" 
d="M324 976q0 94 80.5 148t195.5 54q118 0 196 -53t78 -149h-65q0 63 -57 104.5t-152 41.5q-93 0 -152 -42.5t-59 -103.5h-65zM508 -18q-209 0 -339.5 121t-130.5 300q0 146 78.5 264.5t211.5 184t291 65.5q128 0 234.5 -59.5t166.5 -160t60 -218.5q0 -138 -80 -253.5
t-211 -179.5t-281 -64zM515 50q197 0 339.5 126t142.5 305q0 157 -111 262.5t-277 105.5q-134 0 -246 -57.5t-177 -159t-65 -225.5q0 -149 107 -253t287 -104z" />
    <glyph glyph-name="uni020F" unicode="&#x20f;" horiz-adv-x="893" 
d="M194 782q0 94 80 148t196 54q118 0 195.5 -52.5t77.5 -149.5h-64q0 63 -57 104.5t-152 41.5q-94 0 -153 -42t-59 -104h-64zM421 -18q-181 0 -284 95t-103 236q0 160 128 275.5t316 115.5q172 0 275.5 -95.5t104.5 -239.5q1 -108 -54.5 -196.5t-156 -139.5t-226.5 -51z
M425 49q153 0 253 92.5t100 220.5q0 116 -84.5 195.5t-220.5 79.5q-152 0 -255 -96.5t-103 -228.5q0 -111 81 -187t229 -76z" />
    <glyph glyph-name="uni0212" unicode="&#x212;" horiz-adv-x="1110" 
d="M511 1123q-94 0 -153 -42t-59 -104h-64q0 94 80.5 148t195.5 54q118 0 196 -53t78 -149h-65q0 63 -57 104.5t-152 41.5zM687 314q251 -227 374 -296l-1 -13q-29 -11 -94 -11q-50 22 -135.5 92.5t-241.5 211.5q-41 -4 -95 -4q-166 1 -338 41v-335h-80v875q101 24 196.5 33
t240.5 9q218 0 346.5 -84t128.5 -231q0 -110 -82.5 -183t-218.5 -105zM494 360q110 -1 201 24t150.5 82t59.5 138q0 111 -104 179.5t-297 68.5q-207 0 -348 -31v-420q155 -40 338 -41z" />
    <glyph glyph-name="uni0213" unicode="&#x213;" horiz-adv-x="640" 
d="M338 950q-91 0 -148.5 -42t-57.5 -103h-62q0 93 78 147.5t190 54.5q115 0 190.5 -53t75.5 -149h-63q0 63 -55 104t-148 41zM607 679q5 -14 -2.5 -35.5t-18.5 -33.5q-64 22 -112 22q-144 -1 -231 -101t-87 -240v-291h-79v519q0 74 -14 129v13q41 9 70 6q14 -40 14 -87
v-106q38 99 124.5 164.5t206.5 65.5q60 0 129 -25z" />
    <glyph glyph-name="uni0218" unicode="&#x218;" horiz-adv-x="1046" 
d="M556 -18q-301 0 -518 140q17 50 47 60q210 -134 463 -134q181 0 279 54t98 142q0 50 -29.5 85t-87 55t-123 30t-154.5 14q-170 7 -275.5 63.5t-105.5 169.5q0 62 35 112t92.5 80.5t126 47t140.5 16.5q214 0 333.5 -76t119.5 -188q-53 -15 -86 -6q-3 95 -101 150t-266 55
q-129 0 -220.5 -51t-91.5 -138q0 -44 26.5 -77t73 -52t98.5 -29t114 -12q224 -9 344 -66.5t120 -178.5q0 -118 -119.5 -192t-332.5 -74zM474 -296l42 218h65l-51 -218h-56z" />
    <glyph glyph-name="uni0219" unicode="&#x219;" horiz-adv-x="858" 
d="M445 -18q-105 0 -213.5 28t-189.5 87q7 38 38 58q72 -51 171 -78.5t197 -27.5q134 0 210 39.5t76 100.5q0 68 -69.5 95.5t-243.5 33.5q-341 15 -341 186q0 86 93 143t263 57q84 0 186.5 -22.5t180.5 -66.5q-4 -27 -25 -61q-72 40 -167 61.5t-170 21.5q-142 0 -211.5 -40
t-69.5 -93q0 -58 66.5 -88t206.5 -36q207 -7 294.5 -51.5t87.5 -138.5q0 -95 -103 -151.5t-267 -56.5zM375 -309l42 218h65l-51 -218h-56z" />
    <glyph glyph-name="uni021A" unicode="&#x21a;" horiz-adv-x="1067" 
d="M1027 896q4 -15 -0.5 -36t-13.5 -30h-459v-830h-82v830h-432q-4 14 -1 34.5t11 31.5h977zM440 -288l42 218h65l-51 -218h-56z" />
    <glyph glyph-name="uni021B" unicode="&#x21b;" horiz-adv-x="621" 
d="M592 596h-392v-291q0 -121 59.5 -188.5t171.5 -67.5q59 0 134 20q10 -7 15 -29t0 -35q-84 -23 -154 -23q-140 -2 -222.5 81t-82.5 236v297h-108v66h108v181q42 21 79 12v-193h392v-66zM266 -297l42 218h65l-51 -218h-56z" />
    <glyph glyph-name="uni0237" unicode="&#x237;" horiz-adv-x="282" 
d="M23 -234q-45 0 -107 18q-5 15 1 37t17 32q48 -14 78 -14q52 -1 73 43.5t21 155.5v624q13 4 40 4t39 -4v-669q0 -109 -36.5 -168t-125.5 -59z" />
    <glyph glyph-name="circumflex" unicode="&#x2c6;" horiz-adv-x="684" 
d="M621 745h-91l-187 176l-188 -176h-92l258 231h42z" />
    <glyph glyph-name="caron" unicode="&#x2c7;" horiz-adv-x="684" 
d="M530 976h91l-258 -231h-42l-258 231h92l188 -176z" />
    <glyph glyph-name="breve" unicode="&#x2d8;" horiz-adv-x="681" 
d="M339 735q-119 0 -197.5 53t-78.5 150h64q0 -66 58 -107t154 -41t155.5 41.5t59.5 106.5h64q0 -94 -81 -148.5t-198 -54.5z" />
    <glyph glyph-name="dotaccent" unicode="&#x2d9;" horiz-adv-x="242" 
d="M121 777q-23 0 -40.5 15.5t-17.5 35.5q0 21 17.5 36.5t40.5 15.5t40.5 -15.5t17.5 -36.5q0 -20 -17.5 -35.5t-40.5 -15.5z" />
    <glyph glyph-name="ring" unicode="&#x2da;" horiz-adv-x="581" 
d="M293 721q-103 0 -166.5 37.5t-63.5 102.5q0 62 62 101.5t168 39.5q98 0 161.5 -39.5t63.5 -101.5t-67 -101t-158 -39zM292 759q70 0 123 30t53 72q0 45 -52 74.5t-124 29.5q-79 0 -128.5 -29.5t-49.5 -74.5t48 -73.5t130 -28.5z" />
    <glyph glyph-name="ogonek" unicode="&#x2db;" horiz-adv-x="438" 
d="M200 -341q-60 -1 -98.5 30t-38.5 91q0 52 40 119t112 118l49 -10q-70 -54 -106 -112t-36 -104q0 -37 25 -55.5t63 -16.5q34 0 70 16t57 40l38 -31q-30 -36 -79 -60.5t-96 -24.5z" />
    <glyph glyph-name="tilde" unicode="&#x2dc;" horiz-adv-x="672" 
d="M486 769q-45 0 -99 28t-104.5 55.5t-87.5 27.5q-34 0 -56 -28.5t-22 -77.5h-54q0 75 34.5 122.5t88.5 47.5q55 0 151.5 -55.5t138.5 -55.5q36 0 57.5 29t21.5 77h54q0 -74 -33 -122t-90 -48z" />
    <glyph glyph-name="hungarumlaut" unicode="&#x2dd;" horiz-adv-x="668" 
d="M74 745l180 247h86l-208 -247h-58zM329 745l187 247h89l-218 -247h-58z" />
    <glyph glyph-name="gravecomb" unicode="&#x300;" 
d="M-124 745l-228 247h89l200 -247h-61z" />
    <glyph glyph-name="acutecomb" unicode="&#x301;" 
d="M-333 745l181 247h89l-213 -247h-57z" />
    <glyph glyph-name="uni0302" unicode="&#x302;" 
d="M-63 745h-91l-187 172l-188 -172h-92l258 231h42z" />
    <glyph glyph-name="tildecomb" unicode="&#x303;" 
d="M-186 769q-45 0 -99 28t-104.5 55.5t-87.5 27.5q-34 0 -56 -28.5t-22 -77.5h-54q0 75 34.5 122.5t88.5 47.5q55 0 151.5 -55.5t138.5 -55.5q36 0 57.5 29t21.5 77h54q0 -74 -33 -122t-90 -48z" />
    <glyph glyph-name="uni0304" unicode="&#x304;" 
d="M-641 815v62h567v-62h-567z" />
    <glyph glyph-name="uni0306" unicode="&#x306;" 
d="M-342 735q-119 0 -197.5 53t-78.5 150h64q0 -66 58 -107t154 -41t155.5 41.5t59.5 106.5h64q0 -94 -81 -148.5t-198 -54.5z" />
    <glyph glyph-name="uni0307" unicode="&#x307;" 
d="M-121 777q-23 0 -40.5 15.5t-17.5 35.5q0 21 17.5 36.5t40.5 15.5t40.5 -15.5t17.5 -36.5q0 -20 -17.5 -35.5t-40.5 -15.5z" />
    <glyph glyph-name="uni0308" unicode="&#x308;" 
d="M-492 777q-23 0 -40.5 15.5t-17.5 35.5q0 21 17.5 36.5t40.5 15.5t40.5 -15.5t17.5 -36.5q0 -20 -17.5 -35.5t-40.5 -15.5zM-133 777q-23 0 -40.5 15.5t-17.5 35.5q0 21 17.5 36.5t40.5 15.5t40.5 -15.5t17.5 -36.5q0 -20 -17.5 -35.5t-40.5 -15.5z" />
    <glyph glyph-name="uni030A" unicode="&#x30a;" 
d="M-288 735q-103 0 -166.5 37.5t-63.5 102.5q0 62 62 101.5t168 39.5q98 0 161.5 -39.5t63.5 -101.5t-67 -101t-158 -39zM-289 773q70 0 123 30t53 72q0 45 -52 74.5t-124 29.5q-79 0 -128.5 -29.5t-49.5 -74.5t48 -73.5t130 -28.5z" />
    <glyph glyph-name="uni030B" unicode="&#x30b;" 
d="M-594 745l180 247h86l-208 -247h-58zM-339 745l187 247h89l-218 -247h-58z" />
    <glyph glyph-name="uni030C" unicode="&#x30c;" 
d="M-154 976h91l-258 -231h-42l-258 231h92l188 -176z" />
    <glyph glyph-name="uni0311" unicode="&#x311;" 
d="M-613 745q0 94 80.5 148t195.5 54q118 0 196 -53t78 -149h-65q0 64 -57 105t-152 41q-94 0 -153 -42t-59 -104h-64z" />
    <glyph glyph-name="uni0312" unicode="&#x312;" 
d="M-337 838l59 226h56l-50 -226h-65z" />
    <glyph glyph-name="uni0326" unicode="&#x326;" 
d="M-315 -296l42 218h65l-51 -218h-56z" />
    <glyph glyph-name="uni0327" unicode="&#x327;" 
d="M-193 -330q-72 0 -137 59l43 37q46 -43 93 -43q30 0 49.5 19t19.5 48q-1 34 -61 96q-38 40 -48 63t-10 61h57q0 -34 12 -52t56 -61q54 -54 56 -109q2 -48 -36 -82.5t-94 -35.5z" />
    <glyph glyph-name="uni0328" unicode="&#x328;" 
d="M-238 -341q-60 -1 -98.5 30t-38.5 91q0 52 40 119t112 118l49 -10q-70 -54 -106 -112t-36 -104q0 -37 25 -55.5t63 -16.5q34 0 70 16t57 40l38 -31q-30 -36 -79 -60.5t-96 -24.5z" />
    <glyph glyph-name="uni03BC" unicode="&#x3bc;" horiz-adv-x="986" 
d="M876 200q0 -96 4.5 -128.5t19.5 -60.5v-11h-66q-27 27 -27 100v102q-33 -95 -132.5 -157.5t-233.5 -62.5q-170 0 -241 116v-342h-70v906q34 7 79 0v-371q0 -124 64.5 -183t174.5 -59q153 0 251 90.5t98 226.5v296q16 4 42.5 3t36.5 -3v-462z" />
    <glyph glyph-name="uni1E02" unicode="&#x1e02;" horiz-adv-x="1027" 
d="M465 983q-19 0 -34 13.5t-15 30.5q0 18 14.5 31t34.5 13t34.5 -13t14.5 -31q0 -17 -15 -30.5t-34 -13.5zM747 529q242 -53 242 -231q0 -150 -127.5 -233t-348.5 -83q-150 -1 -241.5 8t-195.5 35v855q99 21 179.5 29t209.5 8q98 0 174.5 -14.5t122 -37t75.5 -53t41 -59
t11 -58.5q0 -52 -36 -96.5t-106 -69.5zM466 854q-190 0 -310 -25v-321q156 41 378 41q46 0 86 -3q89 12 138 51t49 91q0 22 -9 43.5t-33 44.5t-61 39.5t-98.5 27.5t-139.5 11zM507 47q196 0 298 66t101 181q0 189 -389 189q-200 0 -361 -43v-360q139 -33 351 -33z" />
    <glyph glyph-name="uni1E03" unicode="&#x1e03;" horiz-adv-x="886" 
d="M448 1018q-23 0 -40.5 15.5t-17.5 35.5q0 21 17.5 36.5t40.5 15.5t40.5 -15.5t17.5 -36.5q0 -20 -17.5 -35.5t-40.5 -15.5zM506 704q150 0 248 -94.5t98 -247.5q0 -99 -49.5 -185.5t-141.5 -140.5t-204 -54q-95 0 -170.5 39t-123.5 106q-1 -77 -19 -127h-81v11
q16 58 16 174v748q14 5 40.5 5t37.5 -5v-461q43 107 140.5 169.5t208.5 62.5zM449 48q140 0 231 95.5t91 216.5q0 127 -75.5 202t-194.5 75q-134 0 -237 -101.5t-103 -240.5q0 -94 83.5 -170.5t204.5 -76.5z" />
    <glyph glyph-name="uni1E0A" unicode="&#x1e0a;" horiz-adv-x="1074" 
d="M465 996q-19 0 -34 13.5t-15 30.5q0 18 14.5 31t34.5 13t34.5 -13t14.5 -31q0 -17 -15 -30.5t-34 -13.5zM465 917q258 0 414.5 -126.5t156.5 -330.5q0 -215 -149.5 -346t-394.5 -132q-148 0 -224 8.5t-192 34.5v857q167 35 389 35zM486 47q212 0 339.5 113.5t127.5 297.5
q0 172 -134 283t-359 111q-190 0 -304 -22v-749q132 -34 330 -34z" />
    <glyph glyph-name="uni1E0B" unicode="&#x1e0b;" horiz-adv-x="891" 
d="M429 1034q-23 0 -40.5 15.5t-17.5 35.5q0 21 17.5 36.5t40.5 15.5t40.5 -15.5t17.5 -36.5q0 -20 -17.5 -35.5t-40.5 -15.5zM813 185q0 -119 15 -174v-11h-67q-27 52 -27 145v39q-46 -91 -135.5 -146.5t-204.5 -55.5q-159 0 -259.5 93.5t-100.5 246.5q0 163 114 272.5
t289 109.5q100 0 180 -50t117 -134v413q12 5 38.5 5t40.5 -5v-748zM397 48q142 0 233.5 98.5t91.5 235.5q0 106 -79.5 180t-190.5 74q-144 0 -240.5 -90t-96.5 -224q0 -122 78 -198t204 -76z" />
    <glyph glyph-name="uni1E1E" unicode="&#x1e1e;" horiz-adv-x="926" 
d="M472 975q-19 0 -34 13.5t-15 30.5q0 18 14.5 31t34.5 13t34.5 -13t14.5 -31q0 -17 -15 -30.5t-34 -13.5zM872 829h-716v-413h626q5 -16 -0.5 -37.5t-13.5 -28.5h-612v-350h-80v885l11 10h799q5 -15 -0.5 -35.5t-13.5 -30.5z" />
    <glyph glyph-name="uni1E1F" unicode="&#x1e1f;" horiz-adv-x="480" 
d="M375 1059q-23 0 -40.5 15.5t-17.5 35.5q0 21 17.5 36.5t40.5 15.5t40.5 -15.5t17.5 -36.5q0 -20 -17.5 -35.5t-40.5 -15.5zM596 922q3 -12 -2.5 -34.5t-14.5 -29.5q-67 20 -123 20q-177 0 -188 -216h269v-66h-270v-596h-79v596h-184v66h185q14 282 251 282q71 0 156 -22z
" />
    <glyph glyph-name="uni1E40" unicode="&#x1e40;" horiz-adv-x="1322" 
d="M661 975q-19 0 -34 13.5t-15 30.5q0 18 14.5 31t34.5 13t34.5 -13t14.5 -31q0 -17 -15 -30.5t-34 -13.5zM1284 0h-81l-92 771l-421 -621h-58l-421 619l-93 -769h-80l107 884q10 9 37 12.5t37 -0.5l442 -650l441 650q12 3 38.5 -1t36.5 -12z" />
    <glyph glyph-name="uni1E41" unicode="&#x1e41;" horiz-adv-x="1289" 
d="M656 814q-23 0 -40.5 15.5t-17.5 35.5q0 21 17.5 36.5t40.5 15.5t40.5 -15.5t17.5 -36.5q0 -20 -17.5 -35.5t-40.5 -15.5zM977 704q122 0 185.5 -80.5t63.5 -228.5v-395h-79v387q0 115 -46 182.5t-137 67.5q-117 0 -199 -99t-82 -222v-316h-77v378q0 259 -170 259
q-116 0 -198 -104.5t-82 -235.5v-297h-79v519q0 74 -14 129v13q43 9 73 6q14 -40 14 -87v-80q43 87 121.5 145.5t170.5 58.5q188 0 223 -212q42 92 126 152t186 60z" />
    <glyph glyph-name="uni1E56" unicode="&#x1e56;" horiz-adv-x="1027" 
d="M508 994q-19 0 -34 13.5t-15 30.5q0 18 14.5 31t34.5 13t34.5 -13t14.5 -31q0 -17 -15 -30.5t-34 -13.5zM989 593q1 -107 -69 -183t-180 -110.5t-247 -34.5q-187 0 -337 39v-304h-80v875q180 42 432 42q220 0 350.5 -87t130.5 -237zM489 331q182 0 299.5 67t118.5 194
q0 120 -107.5 190t-297.5 70q-204 0 -346 -35v-441q151 -45 333 -45z" />
    <glyph glyph-name="uni1E57" unicode="&#x1e57;" horiz-adv-x="881" 
d="M460 813q-23 0 -40.5 15.5t-17.5 35.5q0 21 17.5 36.5t40.5 15.5t40.5 -15.5t17.5 -36.5q0 -20 -17.5 -35.5t-40.5 -15.5zM496 704q158 0 254.5 -94t96.5 -242q0 -159 -112 -272.5t-275 -113.5q-101 0 -181 47t-125 124v-394q-10 -4 -38 -4t-41 4v750q0 74 -12 145v12
q35 11 70 6l20 -93v-81q52 92 144.5 149t198.5 57zM449 48q93 0 167 47t112 118.5t38 150.5q0 125 -76.5 199t-195.5 74q-134 0 -236.5 -105t-102.5 -239q0 -94 86.5 -169.5t207.5 -75.5z" />
    <glyph glyph-name="uni1E60" unicode="&#x1e60;" horiz-adv-x="1046" 
d="M544 996q-19 0 -34 13.5t-15 30.5q0 18 14.5 31t34.5 13t34.5 -13t14.5 -31q0 -17 -15 -30.5t-34 -13.5zM556 -18q-301 0 -518 140q17 50 47 60q210 -134 463 -134q181 0 279 54t98 142q0 50 -29.5 85t-87 55t-123 30t-154.5 14q-170 7 -275.5 63.5t-105.5 169.5
q0 62 35 112t92.5 80.5t126 47t140.5 16.5q214 0 333.5 -76t119.5 -188q-53 -15 -86 -6q-3 95 -101 150t-266 55q-129 0 -220.5 -51t-91.5 -138q0 -44 26.5 -77t73 -52t98.5 -29t114 -12q224 -9 344 -66.5t120 -178.5q0 -118 -119.5 -192t-332.5 -74z" />
    <glyph glyph-name="uni1E61" unicode="&#x1e61;" horiz-adv-x="858" 
d="M437 814q-23 0 -40.5 15.5t-17.5 35.5q0 21 17.5 36.5t40.5 15.5t40.5 -15.5t17.5 -36.5q0 -20 -17.5 -35.5t-40.5 -15.5zM445 -18q-105 0 -213.5 28t-189.5 87q7 38 38 58q72 -51 171 -78.5t197 -27.5q134 0 210 39.5t76 100.5q0 68 -69.5 95.5t-243.5 33.5
q-341 15 -341 186q0 86 93 143t263 57q84 0 186.5 -22.5t180.5 -66.5q-4 -27 -25 -61q-72 40 -167 61.5t-170 21.5q-142 0 -211.5 -40t-69.5 -93q0 -58 66.5 -88t206.5 -36q207 -7 294.5 -51.5t87.5 -138.5q0 -95 -103 -151.5t-267 -56.5z" />
    <glyph glyph-name="uni1E6A" unicode="&#x1e6a;" horiz-adv-x="1067" 
d="M518 975q-19 0 -34 13.5t-15 30.5q0 18 14.5 31t34.5 13t34.5 -13t14.5 -31q0 -17 -15 -30.5t-34 -13.5zM1027 896q4 -15 -0.5 -36t-13.5 -30h-459v-830h-82v830h-432q-4 14 -1 34.5t11 31.5h977z" />
    <glyph glyph-name="uni1E6B" unicode="&#x1e6b;" horiz-adv-x="621" 
d="M166 968q-23 0 -40.5 15.5t-17.5 35.5q0 21 17.5 36.5t40.5 15.5t40.5 -15.5t17.5 -36.5q0 -20 -17.5 -35.5t-40.5 -15.5zM592 596h-392v-291q0 -121 59.5 -188.5t171.5 -67.5q59 0 134 20q10 -7 15 -29t0 -35q-84 -23 -154 -23q-140 -2 -222.5 81t-82.5 236v297h-108v66
h108v181q42 21 79 12v-193h392v-66z" />
    <glyph glyph-name="Wgrave" unicode="&#x1e80;" horiz-adv-x="1572" 
d="M801 967l-206 190h76l184 -190h-54zM528 0l-22 12q-96 231 -242 479.5t-250 390.5l5 14q38 9 76 0q128 -178 259 -401.5t215 -426.5h9q85 103 169.5 230t110.5 205q-30 71 -104 222q7 12 29 21t44 7q52 -91 154 -316t157 -369h8q181 196 265 419t53 403q25 16 79 6
q36 -194 -52.5 -431.5t-286.5 -447.5l-32 -17h-89l-14 10q-24 58 -87.5 197.5t-91.5 196.5q-27 -71 -116 -204t-140 -189l-24 -11h-82z" />
    <glyph glyph-name="wgrave" unicode="&#x1e81;" horiz-adv-x="1298" 
d="M688 782l-228 247h89l200 -247h-61zM395 0l-15 10q-44 116 -103.5 230t-116 198.5t-92 132t-61.5 78.5l6 13q46 9 76 0l26 -34q26 -33 37.5 -48.5t42 -58t50 -73t50 -80t53 -93t48 -99t45.5 -109.5h10q58 71 125.5 176t102.5 183l-78 141q8 13 30.5 23t44.5 7
q163 -278 249 -530h10q121 138 204.5 302.5t70.5 286.5q28 16 76 6q19 -129 -69 -314t-232 -339l-17 -9h-83l-19 11q-43 121 -144 322q-23 -53 -96 -162t-122 -162l-17 -9h-92z" />
    <glyph glyph-name="Wacute" unicode="&#x1e82;" horiz-adv-x="1572" 
d="M758 945l185 194h84l-212 -194h-57zM528 0l-22 12q-96 231 -242 479.5t-250 390.5l5 14q38 9 76 0q128 -178 259 -401.5t215 -426.5h9q85 103 169.5 230t110.5 205q-30 71 -104 222q7 12 29 21t44 7q52 -91 154 -316t157 -369h8q181 196 265 419t53 403q25 16 79 6
q36 -194 -52.5 -431.5t-286.5 -447.5l-32 -17h-89l-14 10q-24 58 -87.5 197.5t-91.5 196.5q-27 -71 -116 -204t-140 -189l-24 -11h-82z" />
    <glyph glyph-name="wacute" unicode="&#x1e83;" horiz-adv-x="1298" 
d="M610 782l181 247h89l-213 -247h-57zM395 0l-15 10q-44 116 -103.5 230t-116 198.5t-92 132t-61.5 78.5l6 13q46 9 76 0l26 -34q26 -33 37.5 -48.5t42 -58t50 -73t50 -80t53 -93t48 -99t45.5 -109.5h10q58 71 125.5 176t102.5 183l-78 141q8 13 30.5 23t44.5 7
q163 -278 249 -530h10q121 138 204.5 302.5t70.5 286.5q28 16 76 6q19 -129 -69 -314t-232 -339l-17 -9h-83l-19 11q-43 121 -144 322q-23 -53 -96 -162t-122 -162l-17 -9h-92z" />
    <glyph glyph-name="Wdieresis" unicode="&#x1e84;" horiz-adv-x="1572" 
d="M618 983q-20 0 -34.5 13t-14.5 30q0 18 14.5 31t34.5 13t34.5 -13t14.5 -31q0 -17 -14.5 -30t-34.5 -13zM953 983q-20 0 -34.5 13t-14.5 30q0 18 14.5 31t34.5 13t34.5 -13t14.5 -31q0 -17 -14.5 -30t-34.5 -13zM528 0l-22 12q-96 231 -242 479.5t-250 390.5l5 14
q38 9 76 0q128 -178 259 -401.5t215 -426.5h9q85 103 169.5 230t110.5 205q-30 71 -104 222q7 12 29 21t44 7q52 -91 154 -316t157 -369h8q181 196 265 419t53 403q25 16 79 6q36 -194 -52.5 -431.5t-286.5 -447.5l-32 -17h-89l-14 10q-24 58 -87.5 197.5t-91.5 196.5
q-27 -71 -116 -204t-140 -189l-24 -11h-82z" />
    <glyph glyph-name="wdieresis" unicode="&#x1e85;" horiz-adv-x="1298" 
d="M475 814q-23 0 -40.5 15.5t-17.5 35.5q0 21 17.5 36.5t40.5 15.5t40.5 -15.5t17.5 -36.5q0 -20 -17.5 -35.5t-40.5 -15.5zM834 814q-23 0 -40.5 15.5t-17.5 35.5q0 21 17.5 36.5t40.5 15.5t40.5 -15.5t17.5 -36.5q0 -20 -17.5 -35.5t-40.5 -15.5zM395 0l-15 10
q-44 116 -103.5 230t-116 198.5t-92 132t-61.5 78.5l6 13q46 9 76 0l26 -34q26 -33 37.5 -48.5t42 -58t50 -73t50 -80t53 -93t48 -99t45.5 -109.5h10q58 71 125.5 176t102.5 183l-78 141q8 13 30.5 23t44.5 7q163 -278 249 -530h10q121 138 204.5 302.5t70.5 286.5
q28 16 76 6q19 -129 -69 -314t-232 -339l-17 -9h-83l-19 11q-43 121 -144 322q-23 -53 -96 -162t-122 -162l-17 -9h-92z" />
    <glyph glyph-name="uni1E9E" unicode="&#x1e9e;" horiz-adv-x="1045" 
d="M457 532q57 -3 113 -10.5t119.5 -21.5t117 -37.5t98 -54t70 -75t25.5 -97.5q0 -80 -53 -139t-136 -87t-182 -28q-126 0 -220 28.5t-172 91.5q3 17 15.5 37t26.5 23q130 -110 344 -110q126 0 210 51t84 133q0 69 -66 121t-165.5 78t-190 38t-165.5 12l-10 26l480 316h-442
q-105 0 -152.5 -68t-47.5 -177v-582h-79v587q0 144 65.5 226.5t207.5 82.5h567q6 -16 2.5 -37t-11.5 -31z" />
    <glyph glyph-name="Ygrave" unicode="&#x1ef2;" horiz-adv-x="1035" 
d="M586 967h-54l-206 190h76zM1018 896q26 -274 -427 -602v-294h-80v299q-68 90 -244.5 300.5t-251.5 282.5l6 14q57 10 95 0q50 -49 201.5 -230.5t245.5 -298.5q173 120 278.5 264t95.5 259q27 14 81 6z" />
    <glyph glyph-name="ygrave" unicode="&#x1ef3;" horiz-adv-x="848" 
d="M524 782h-61l-228 247h89zM833 662q13 -107 -17.5 -238t-116.5 -278t-216 -259q-169 -142 -360 -143q-61 0 -103 17q-15 29 -1 57l15 8q35 -17 90 -15q167 1 320 143q32 29 68 67q-91 50 -179.5 138.5t-152 183t-106 172t-64.5 133.5l5 13q42 9 79 1q21 -51 58 -119.5
t96 -159t141 -175t168 -134.5q108 135 157.5 286.5t40.5 295.5q27 17 78 6z" />
    <glyph glyph-name="endash" unicode="&#x2013;" horiz-adv-x="1215" 
d="M206 329v63h803v-63h-803z" />
    <glyph glyph-name="emdash" unicode="&#x2014;" horiz-adv-x="1349" 
d="M206 329v63h937v-63h-937z" />
    <glyph glyph-name="quoteleft" unicode="&#x2018;" horiz-adv-x="334" 
d="M101 653l68 298h64l-51 -298h-81z" />
    <glyph glyph-name="quoteright" unicode="&#x2019;" horiz-adv-x="335" 
d="M101 652l52 299h81l-69 -299h-64z" />
    <glyph glyph-name="quotesinglbase" unicode="&#x201a;" horiz-adv-x="335" 
d="M101 -132l52 298h81l-69 -298h-64z" />
    <glyph glyph-name="quotedblleft" unicode="&#x201c;" horiz-adv-x="517" 
d="M101 653l68 298h64l-51 -298h-81zM284 653l68 298h64l-51 -298h-81z" />
    <glyph glyph-name="quotedblright" unicode="&#x201d;" horiz-adv-x="517" 
d="M101 652l51 299h81l-68 -299h-64zM284 652l51 299h81l-68 -299h-64z" />
    <glyph glyph-name="quotedblbase" unicode="&#x201e;" horiz-adv-x="518" 
d="M101 -132l52 298h81l-69 -298h-64zM284 -132l51 298h82l-69 -298h-64z" />
    <glyph glyph-name="dagger" unicode="&#x2020;" horiz-adv-x="924" 
d="M787 825v-67h-294v-888h-68v888h-288v67h288v174h68v-174h294z" />
    <glyph glyph-name="daggerdbl" unicode="&#x2021;" horiz-adv-x="924" 
d="M787 758h-294v-642h294v-67h-294v-179h-68v179h-288v67h288v642h-288v67h288v174h68v-174h294v-67z" />
    <glyph glyph-name="bullet" unicode="&#x2022;" horiz-adv-x="768" 
d="M384 278q-61 0 -103.5 39t-42.5 95q0 53 43 94t103 41q57 0 101.5 -41t44.5 -94q0 -55 -44 -94.5t-102 -39.5z" />
    <glyph glyph-name="ellipsis" unicode="&#x2026;" horiz-adv-x="880" 
d="M158 0q-23 0 -40 15.5t-17 35.5q0 21 17 36.5t40 15.5q24 0 41.5 -15.5t17.5 -36.5q0 -20 -17.5 -35.5t-41.5 -15.5zM440 0q-23 0 -40.5 15.5t-17.5 35.5q0 21 17.5 36.5t40.5 15.5t40.5 -15.5t17.5 -36.5q0 -20 -17.5 -35.5t-40.5 -15.5zM720 0q-23 0 -40 15.5t-17 35.5
q0 21 17 36.5t40 15.5q24 0 41.5 -15.5t17.5 -36.5q0 -20 -17.5 -35.5t-41.5 -15.5z" />
    <glyph glyph-name="perthousand" unicode="&#x2030;" horiz-adv-x="1922" 
d="M159 0l873 890h98l-874 -890h-97zM384 489q-126 0 -203 51.5t-77 144.5q0 90 75.5 143t204.5 53q131 0 206.5 -52.5t75.5 -143.5q0 -90 -78.5 -143t-203.5 -53zM384 542q87 0 145 39t58 104t-56.5 104t-146.5 39q-89 0 -144.5 -40t-55.5 -103q0 -65 56 -104t144 -39z
M891 -9q-126 0 -203 51.5t-77 144.5q0 90 75.5 143.5t204.5 53.5q131 0 207 -52.5t76 -144.5q0 -90 -79.5 -143t-203.5 -53zM1536 -9q-126 0 -203 51.5t-77 144.5q0 90 75.5 143.5t204.5 53.5q131 0 207 -52.5t76 -144.5q0 -90 -79.5 -143t-203.5 -53zM891 44q87 0 145 39
t58 104t-56.5 104.5t-146.5 39.5q-89 0 -144.5 -40t-55.5 -104q0 -66 55.5 -104.5t144.5 -38.5zM1536 44q87 0 145 39t58 104t-56.5 104.5t-146.5 39.5q-89 0 -144.5 -40t-55.5 -104q0 -66 55.5 -104.5t144.5 -38.5z" />
    <glyph glyph-name="guilsinglleft" unicode="&#x2039;" horiz-adv-x="847" 
d="M746 694l-542 -260l541 -258l-26 -54l-618 288v50l616 287z" />
    <glyph glyph-name="guilsinglright" unicode="&#x203a;" horiz-adv-x="847" 
d="M130 747l616 -287v-50l-618 -288l-26 54l541 258l-542 260z" />
    <glyph glyph-name="fraction" unicode="&#x2044;" horiz-adv-x="1277" 
d="M101 -131l999 1179h76l-1000 -1179h-75z" />
    <glyph glyph-name="Euro" unicode="&#x20ac;" horiz-adv-x="1070" 
d="M931 159l38 -50q-47 -43 -143.5 -76t-220.5 -33q-106 0 -198.5 35.5t-163 111t-95.5 180.5h-89v54h80q-4 27 -4 63q0 28 3 53h-79v54h88q24 104 94 178.5t163.5 109t200.5 34.5q115 0 209 -30.5t151 -74.5l-36 -51q-51 38 -133 63.5t-183 25.5q-145 0 -248 -65t-135 -190
h444v-54h-454q-3 -25 -3 -53q0 -36 4 -63h413v-54h-401q36 -124 141 -192t244 -68q107 0 189 28.5t124 63.5z" />
    <glyph glyph-name="uni2116" unicode="&#x2116;" horiz-adv-x="1922" 
d="M1480 306q-143 0 -228 77.5t-85 202.5q0 136 100 229.5t243 93.5q142 0 224.5 -74.5t86.5 -198.5q4 -145 -93.5 -237.5t-247.5 -92.5zM1010 890q16 5 41.5 4.5t38.5 -4.5v-890h-65l-844 781v-781h-80v874q8 10 31.5 16.5t34.5 2.5l843 -781v778zM1506 844
q-107 0 -183.5 -74t-76.5 -183q0 -96 64.5 -155.5t173.5 -59.5q113 0 186.5 73t71.5 184q-2 96 -65.5 155.5t-170.5 59.5zM1212 142v60h561v-60h-561z" />
    <glyph glyph-name="trademark" unicode="&#x2122;" horiz-adv-x="1160" 
d="M486 890v-61h-157v-413h-71v413h-157v61h385zM1058 890v-474h-70v358l-167 -307h-46l-175 310v-361h-71v474h79l190 -341l181 341h79z" />
    <glyph glyph-name="estimated" unicode="&#x212e;" horiz-adv-x="1043" 
d="M532 895q190 0 302 -128.5t108 -364.5h-690l1 -266q104 -121 281 -121q91 0 183 41t148 106q18 -8 22 -26q-58 -67 -157 -110.5t-195 -43.5q-191 0 -312.5 122.5t-121.5 331.5t121.5 334t309.5 125zM805 436v292q-101 134 -273 134q-85 0 -160.5 -32.5t-121.5 -89.5
l2 -304h553z" />
    <glyph glyph-name="partialdiff" unicode="&#x2202;" horiz-adv-x="1049" 
d="M479 908q98 0 180 -34.5t134 -88.5t88 -122.5t51.5 -134.5t15.5 -127q0 -205 -121 -312t-325 -107q-192 0 -296.5 84.5t-104.5 202.5q0 109 101.5 180.5t295.5 71.5q110 0 208.5 -23.5t157.5 -60.5q-4 67 -28.5 134.5t-69 129.5t-120 101t-170.5 39q-77 0 -153.5 -31
t-134.5 -80q-23 26 -19 62q49 49 138.5 82.5t171.5 33.5zM502 49q162 0 257.5 85t104.5 241q-53 31 -145.5 55t-196.5 24q-171 0 -254.5 -53t-83.5 -134q0 -87 85.5 -152.5t232.5 -65.5z" />
    <glyph glyph-name="minus" unicode="&#x2212;" horiz-adv-x="881" 
d="M120 406v66h642v-66h-642z" />
    <glyph glyph-name="radical" unicode="&#x221a;" horiz-adv-x="1310" 
d="M1310 890v-68h-257l-477 -822h-61l-414 481h95l341 -391l463 800h310z" />
    <glyph glyph-name="infinity" unicode="&#x221e;" horiz-adv-x="1196" 
d="M844 706q109 0 180 -61.5t71 -184.5t-71 -184t-180 -61q-97 0 -152 45t-94 126q-38 -81 -93 -126t-153 -45q-109 0 -180 61t-71 184t71 184.5t180 61.5q52 0 93 -14t69.5 -42.5t46.5 -56.5t37 -70q18 41 36 70t46.5 57t69.5 42t94 14zM353 267q38 0 69 10.5t51.5 26
t39.5 42t30.5 49.5t25.5 57q-22 50 -35.5 76.5t-39.5 60.5t-60.5 49t-80.5 15q-78 0 -133.5 -48.5t-55.5 -144.5q0 -97 55 -145t134 -48zM843 268q79 0 134 48t55 144t-55 144.5t-134 48.5q-38 0 -68.5 -12t-50.5 -27.5t-39.5 -46.5t-29.5 -52.5t-27 -61.5q18 -44 33.5 -71
t40.5 -56.5t60 -43.5t81 -14z" />
    <glyph glyph-name="approxequal" unicode="&#x2248;" horiz-adv-x="829" 
d="M101 466q0 76 40.5 124t104.5 48q62 0 168 -52.5t154 -52.5q40 0 65 29t25 76h70q0 -75 -38.5 -123.5t-106.5 -48.5q-51 0 -111 26t-116.5 52.5t-96.5 26.5q-38 0 -63 -28.5t-25 -76.5h-70zM101 280q0 76 40.5 124t104.5 48q62 0 168 -52.5t154 -52.5q40 0 65 29t25 76
h70q0 -75 -38.5 -123.5t-106.5 -48.5q-51 0 -111 26.5t-116.5 53t-96.5 26.5q-38 0 -63 -29t-25 -77h-70z" />
    <glyph glyph-name="notequal" unicode="&#x2260;" horiz-adv-x="896" 
d="M795 886l-222 -314h188v-66h-234l-94 -132h328v-67h-375l-195 -276h-88l195 276h-179v67h226l93 132h-319v66h366l221 314h89z" />
    <glyph glyph-name="lessequal" unicode="&#x2264;" horiz-adv-x="845" 
d="M743 733l-533 -256l532 -257l-27 -55l-614 287v49l617 289zM129 33v59h581v-59h-581z" />
    <glyph glyph-name="greaterequal" unicode="&#x2265;" horiz-adv-x="845" 
d="M127 773l617 -289v-49l-614 -287l-27 55l532 257l-534 255zM112 26v58h580v-58h-580z" />
    <glyph glyph-name="i.loclTRK" horiz-adv-x="248" 
d="M124 814q-23 0 -40.5 15.5t-17.5 35.5q0 21 17.5 36.5t40.5 15.5t40.5 -15.5t17.5 -36.5q0 -20 -17.5 -35.5t-40.5 -15.5zM85 0v662q14 4 40 4t39 -4v-662h-79z" />
    <glyph glyph-name="uni00A0.001" horiz-adv-x="465" 
 />
    <glyph glyph-name="uni030C.alt" 
d="M-169 623l16 333h76l-33 -333h-59z" />
    <glyph glyph-name="uni0308.case" 
d="M-458 977q-20 0 -34.5 13t-14.5 30q0 18 14.5 31t34.5 13t34.5 -13t14.5 -31q0 -17 -14.5 -30t-34.5 -13zM-123 977q-20 0 -34.5 13t-14.5 30q0 18 14.5 31t34.5 13t34.5 -13t14.5 -31q0 -17 -14.5 -30t-34.5 -13z" />
    <glyph glyph-name="uni0307.case" 
d="M-130 969q-19 0 -34 13.5t-15 30.5q0 18 14.5 31t34.5 13t34.5 -13t14.5 -31q0 -17 -15 -30.5t-34 -13.5z" />
    <glyph glyph-name="gravecomb.case" 
d="M-128 961l-206 190h76l184 -190h-54z" />
    <glyph glyph-name="acutecomb.case" 
d="M-285 939l185 194h84l-212 -194h-57z" />
    <glyph glyph-name="uni030B.case" 
d="M-586 959l168 182h84l-195 -182h-57zM-342 959l184 182h90l-215 -182h-59z" />
    <glyph glyph-name="uni0302.case" 
d="M-74 938h-84l-187 173l-187 -173h-84l247 222h48z" />
    <glyph glyph-name="uni030C.case" 
d="M-154 1161h91l-258 -223h-42l-258 223h91l188 -167z" />
    <glyph glyph-name="uni0306.case" 
d="M-326 761q-111 0 -181.5 46.5t-70.5 132.5h57q0 -57 53.5 -92t141.5 -35q85 0 140 36t55 91h57q0 -83 -72.5 -131t-179.5 -48z" />
    <glyph glyph-name="uni030A.case" 
d="M-288 879q-103 0 -166.5 37.5t-63.5 103.5q0 62 62 101.5t168 39.5q98 0 161.5 -39.5t63.5 -101.5t-67 -101.5t-158 -39.5zM-289 917q71 0 123.5 30.5t52.5 72.5q0 45 -52 74t-124 29q-79 0 -128.5 -29t-49.5 -74t48 -74t130 -29z" />
    <glyph glyph-name="tildecomb.case" 
d="M-186 948q-44 0 -96.5 28t-102 55.5t-86.5 27.5q-34 0 -56 -28.5t-22 -77.5h-54q0 73 34.5 119t88.5 46t148.5 -55.5t136.5 -55.5q36 -1 57 28t21 77h54q0 -71 -33 -117.5t-90 -46.5z" />
    <glyph glyph-name="uni0304.case" 
d="M-591 823v54h517v-54h-517z" />
    <glyph glyph-name="uni0327.case" 
d="M-193 -340q-72 0 -137 59l43 37q47 -43 94 -43q29 0 48.5 19.5t19.5 48.5q-1 21 -15.5 42t-44.5 53q-39 40 -49 63t-10 61h57q0 -34 12 -52t56 -61q54 -54 56 -109q2 -48 -36 -82.5t-94 -35.5z" />
    <glyph glyph-name="uni0328.case" 
d="M-238 -341q-60 -1 -98.5 30t-38.5 91q0 52 40 119t112 118l49 -10q-70 -54 -106 -112t-36 -104q0 -37 25 -55.5t63 -16.5q34 0 70 16t57 40l38 -31q-30 -36 -79 -60.5t-96 -24.5z" />
    </font>
</defs>
</svg>
