<?xml version="1.0" standalone="no"?>
<!DOCTYPE svg PUBLIC "-//W3C//DTD SVG 1.1//EN" "http://www.w3.org/Graphics/SVG/1.1/DTD/svg11.dtd" >
<svg xmlns="http://www.w3.org/2000/svg" xmlns:xlink="http://www.w3.org/1999/xlink" version="1.1">
<metadata>
Created by FontForge 20170731 at Mon May 11 15:12:40 2020
 By Aleksey,,,
Copyright (c) 2019 by Mans Greback. All rights reserved.
</metadata>
<defs>
<font id="Quache-MediumExpanded" horiz-adv-x="0" >
  <font-face 
    font-family="Quache Medium Expanded"
    font-weight="500"
    font-stretch="expanded"
    units-per-em="1000"
    panose-1="0 0 6 5 0 0 0 0 0 0"
    ascent="800"
    descent="-200"
    x-height="671"
    cap-height="906"
    bbox="-602 -368.029 1854 1311"
    underline-thickness="50"
    underline-position="-200"
    unicode-range="U+000D-2265"
  />
<missing-glyph horiz-adv-x="912" 
d="M0 -18v979h912v-979h-912zM50 32h812v879h-812v-879zM387 295q-15 60 8 106.5t66 76.5t88 55.5t78.5 57t33.5 67.5q0 50 -52 83.5t-151 33.5q-157 0 -283 -101l-54 59q152 124 342 124q145 0 223 -54t78 -138q0 -54 -36 -97t-85.5 -70.5t-97.5 -54t-77 -64t-19 -84.5h-62
zM420 84q-23 0 -40.5 16t-17.5 38q0 20 18 36.5t40 16.5t39 -16.5t17 -36.5q0 -22 -16.5 -38t-39.5 -16z" />
    <glyph glyph-name="f_i.liga" unicode="fi" horiz-adv-x="760" 
d="M170 0v576h-169v99h171q18 277 242 278q46 0 105 -14q4 -21 -1.5 -53t-15.5 -44q-37 11 -65 11q-131 -1 -143 -178h390v-675h-120v576h-274v-576h-120zM624 802q-31 0 -53.5 21.5t-22.5 49.5q0 29 22.5 50.5t53.5 21.5q30 0 53 -22t23 -50t-23 -49.5t-53 -21.5z" />
    <glyph glyph-name="f_l.liga" unicode="fl" horiz-adv-x="865" 
d="M730 -18q-79 -1 -118.5 50t-39.5 156v646q-60 23 -118 23q-147 -1 -161 -186h197v-99h-200v-572h-120v572h-169v99h171q8 140 75 209.5t200 69.5q126 0 245 -54v-676q0 -74 18.5 -107t57.5 -33q22 0 63 12q10 -13 13.5 -41.5t-1.5 -47.5q-65 -20 -113 -21z" />
    <glyph glyph-name=".notdef" horiz-adv-x="912" 
d="M0 -18v979h912v-979h-912zM50 32h812v879h-812v-879zM387 295q-15 60 8 106.5t66 76.5t88 55.5t78.5 57t33.5 67.5q0 50 -52 83.5t-151 33.5q-157 0 -283 -101l-54 59q152 124 342 124q145 0 223 -54t78 -138q0 -54 -36 -97t-85.5 -70.5t-97.5 -54t-77 -64t-19 -84.5h-62
zM420 84q-23 0 -40.5 16t-17.5 38q0 20 18 36.5t40 16.5t39 -16.5t17 -36.5q0 -22 -16.5 -38t-39.5 -16z" />
    <glyph glyph-name=".null" 
 />
    <glyph glyph-name="nonmarkingreturn" horiz-adv-x="333" 
 />
    <glyph glyph-name="CR" unicode="&#xd;" horiz-adv-x="600" 
 />
    <glyph glyph-name="space" unicode=" " horiz-adv-x="425" 
 />
    <glyph glyph-name="exclam" unicode="!" horiz-adv-x="412" 
d="M156 289l-10 631h119l-9 -631h-100zM206 0q-28 0 -48.5 19t-20.5 45t20.5 45.5t48.5 19.5q27 0 48 -20t21 -45t-21 -44.5t-48 -19.5z" />
    <glyph glyph-name="quotedbl" unicode="&#x22;" horiz-adv-x="536" 
d="M92 649l36 307h117l-63 -307h-90zM292 649l36 307h117l-62 -307h-91z" />
    <glyph glyph-name="numbersign" unicode="#" horiz-adv-x="879" 
d="M788 562h-119l-22 -216h107v-92h-116l-15 -145h-102l15 145h-234l-15 -145h-101l15 145h-109v92h118l22 216h-106v91h116l13 131h102l-14 -131h234l13 131h102l-13 -131h109v-91zM545 346l22 216h-233l-22 -216h233z" />
    <glyph glyph-name="dollar" unicode="$" horiz-adv-x="981" 
d="M890 243q0 -92 -83.5 -159.5t-246.5 -80.5v-134h-86v131q-118 2 -220 40.5t-162 99.5l52 85q130 -125 368 -124q123 0 189 43t66 104q0 40 -34.5 70t-89.5 49.5t-121 36.5t-132.5 37.5t-121.5 46t-89.5 67.5t-34.5 98q0 89 81.5 153t248.5 70v127h86v-128
q102 -8 182 -40.5t124 -73.5l-35 -90q-54 47 -144 76t-189 29q-120 0 -177 -36t-57 -83q0 -35 34.5 -61t89.5 -43t122 -32.5t134 -37t122 -50.5t89.5 -77.5t34.5 -112.5z" />
    <glyph glyph-name="percent" unicode="%" horiz-adv-x="1288" 
d="M185 0l781 890h140l-782 -890h-139zM369 491q-128 0 -202.5 51t-74.5 146q0 92 73 145t204 53q133 0 205.5 -52t72.5 -146q0 -91 -75.5 -144t-202.5 -53zM369 570q67 0 113 32t46 86t-44.5 86.5t-114.5 32.5q-69 0 -113.5 -33.5t-44.5 -85.5q0 -54 44 -86t114 -32z
M909 -9q-128 0 -202.5 51.5t-74.5 145.5q0 92 73 144.5t204 52.5q133 0 206 -52t73 -145q0 -91 -76 -144t-203 -53zM909 70q68 0 114 32t46 86t-44.5 86.5t-115.5 32.5q-69 0 -113.5 -33t-44.5 -86q0 -54 44.5 -86t113.5 -32z" />
    <glyph glyph-name="ampersand" unicode="&#x26;" horiz-adv-x="1103" 
d="M1011 86l-67 -86l-134 96q-132 -114 -344 -114q-174 0 -274 62t-100 174q0 139 210 243q-163 129 -163 239q0 91 87 156.5t262 65.5q166 0 251.5 -64t85.5 -146q0 -36 -19.5 -70t-47 -59t-74.5 -51.5t-85 -44t-96 -41.5l74 -52l209 -148q57 89 55 192h106
q12 -144 -66 -260zM488 821q-113 0 -169.5 -36.5t-56.5 -88.5q0 -42 38.5 -87t112.5 -100q75 30 114 47t87.5 43.5t69.5 52t21 53.5q0 44 -57 80t-160 36zM479 85q141 0 236 79l-229 164l-97 69q-84 -38 -129.5 -79t-45.5 -92q0 -62 70 -101.5t195 -39.5z" />
    <glyph glyph-name="quotesingle" unicode="'" horiz-adv-x="337" 
d="M92 649l36 307h117l-63 -307h-90z" />
    <glyph glyph-name="parenleft" unicode="(" horiz-adv-x="723" 
d="M567 -259q-100 39 -175 106.5t-118 152t-64 174.5t-21 186q0 86 23 174t70 177.5t132 166.5t197 123l40 -66l-6 -18q-90 -42 -157.5 -108.5t-105.5 -143t-56.5 -153t-18.5 -152.5q0 -180 72 -321t223 -212l4 -19z" />
    <glyph glyph-name="parenright" unicode=")" horiz-adv-x="731" 
d="M124 -259l-39 67l4 19q151 71 223 212t72 321q0 76 -18.5 152.5t-56.5 153t-105.5 143t-157.5 108.5l-6 18l40 66q112 -46 197 -123t132 -166.5t70 -177.5t23 -174q0 -96 -20.5 -186t-64 -174.5t-118.5 -152t-175 -106.5z" />
    <glyph glyph-name="asterisk" unicode="*" horiz-adv-x="619" 
d="M527 742l-157 -47l114 -127l-85 -62l-89 145l-90 -145l-85 62l115 127l-158 47l37 89l141 -66l-16 164h110l-15 -164l141 66z" />
    <glyph glyph-name="plus" unicode="+" horiz-adv-x="789" 
d="M697 490v-100h-251v-263h-103v263h-251v100h251v264h103v-264h251z" />
    <glyph glyph-name="comma" unicode="," horiz-adv-x="329" 
d="M48 -181l52 345h110l-61 -345h-101z" />
    <glyph glyph-name="hyphen" unicode="-" horiz-adv-x="1015" 
d="M200 316v94h615v-94h-615z" />
    <glyph glyph-name="period" unicode="." horiz-adv-x="427" 
d="M213 0q-30 0 -53 21.5t-23 49.5t23 50t53 22q31 0 54 -21.5t23 -50.5q0 -28 -23 -49.5t-54 -21.5z" />
    <glyph glyph-name="slash" unicode="/" horiz-adv-x="975" 
d="M-13 -131l875 1134h126l-876 -1134h-125z" />
    <glyph glyph-name="zero" unicode="0" horiz-adv-x="900" 
d="M449 -18q-180 0 -288.5 131.5t-108.5 335.5q0 220 108 346t289 126q182 0 290.5 -125t108.5 -347q0 -130 -48 -236t-140 -168.5t-211 -62.5zM449 83q125 0 201 104t76 262q0 172 -74 271.5t-203 99.5q-127 0 -201 -101t-74 -270q0 -160 75 -263t200 -103z" />
    <glyph glyph-name="one" unicode="1" horiz-adv-x="636" 
d="M586 86q6 -43 0 -86h-535q-8 41 0 86l208 19v670l-183 -43q-10 38 -6 87l245 71h69v-786z" />
    <glyph glyph-name="two" unicode="2" horiz-adv-x="868" 
d="M58 0v95q33 65 94.5 123.5t128 97.5t137.5 80.5t126.5 75.5t91.5 80.5t36 97.5q0 78 -64 124t-189 46q-188 0 -290 -102q-38 30 -58 76q49 56 141.5 91.5t222.5 35.5q174 0 269 -73.5t95 -192.5q0 -63 -32.5 -118.5t-82.5 -95t-116.5 -82t-129 -77.5t-125 -84t-99.5 -99
h596q12 -49 0 -99h-752z" />
    <glyph glyph-name="three" unicode="3" horiz-adv-x="873" 
d="M601 482q117 -39 169 -97.5t52 -139.5q0 -114 -103 -188.5t-291 -74.5q-114 0 -219.5 34.5t-156.5 85.5q5 40 50 89q47 -43 133.5 -75.5t187.5 -32.5q126 0 200 45t74 118q0 59 -50 100t-132.5 61t-193.5 24q-14 55 0 106q352 -1 352 153q0 61 -66.5 99t-193.5 38
q-91 0 -179.5 -29.5t-123.5 -60.5q-30 29 -42 86q48 42 148.5 73.5t210.5 31.5q173 0 272 -64t99 -164q0 -150 -197 -218z" />
    <glyph glyph-name="four" unicode="4" horiz-adv-x="890" 
d="M833 305q11 -48 0 -99h-83v-206h-122v206h-576v95l597 589h101v-585h83zM207 305h426l7 439z" />
    <glyph glyph-name="five" unicode="5" horiz-adv-x="880" 
d="M432 606q193 0 294.5 -84t101.5 -225q0 -131 -105 -223t-286 -92q-130 0 -230 40t-155 99q5 53 45 92q57 -57 140.5 -91t180.5 -34q138 0 210.5 61t72.5 148q0 96 -85 154t-237 57q-129 0 -274 -33l41 415h638q8 -52 -8 -99h-517l-23 -206q108 21 196 21z" />
    <glyph glyph-name="six" unicode="6" horiz-adv-x="889" 
d="M482 537q168 0 262 -73t94 -187q0 -124 -104.5 -209.5t-293.5 -85.5q-182 0 -285 92t-103 251q0 176 136 327t421 262q56 -36 63 -89q-351 -134 -452 -338q119 50 262 50zM440 83q126 0 198.5 57t72.5 134q0 71 -65 117t-200 46q-155 0 -261 -53q-6 -34 -6 -71
q0 -101 65.5 -165.5t195.5 -64.5z" />
    <glyph glyph-name="seven" unicode="7" horiz-adv-x="817" 
d="M32 890h742v-112q-161 -95 -263 -308.5t-105 -469.5h-133q6 251 105 461.5t265 329.5h-611q-16 45 0 99z" />
    <glyph glyph-name="eight" unicode="8" horiz-adv-x="897" 
d="M627 497q98 -37 158 -100t60 -147q0 -117 -98 -192.5t-299 -75.5q-200 0 -298 75.5t-98 192.5q0 166 216 247q-187 64 -187 193q0 94 92.5 163t274.5 69q183 0 275 -66t92 -160q0 -67 -52 -117.5t-136 -81.5zM204 680q0 -101 242 -141q246 41 246 146q0 55 -59 95.5
t-185 40.5q-124 0 -184 -42.5t-60 -98.5zM448 83q134 0 202 50t69 122q0 78 -72.5 130.5t-198.5 74.5q-126 -20 -198 -72t-72 -132q0 -71 68 -122t202 -51z" />
    <glyph glyph-name="nine" unicode="9" horiz-adv-x="888" 
d="M443 922q185 0 289.5 -90t104.5 -245q0 -181 -137 -336t-426 -267q-55 36 -62 89q376 150 479 367q-127 -69 -291 -69q-166 0 -257.5 73.5t-91.5 187.5q0 122 103 206t289 84zM175 634q0 -71 65 -118t199 -47q156 0 269 52q3 37 3 76q0 97 -67.5 159t-199.5 62
q-119 0 -194 -53.5t-75 -130.5z" />
    <glyph glyph-name="colon" unicode=":" horiz-adv-x="427" 
d="M213 545q-30 0 -53 21.5t-23 49.5t23 49.5t53 21.5q31 0 54 -21.5t23 -49.5t-23 -49.5t-54 -21.5zM213 0q-30 0 -53 21.5t-23 49.5t23 50t53 22q31 0 54 -21.5t23 -50.5q0 -28 -23 -49.5t-54 -21.5z" />
    <glyph glyph-name="semicolon" unicode=";" horiz-adv-x="342" 
d="M142 545q-30 0 -53 21.5t-23 49.5t23 49.5t53 21.5q31 0 54 -21.5t23 -49.5t-23 -49.5t-54 -21.5zM48 -181l52 345h110l-61 -345h-101z" />
    <glyph glyph-name="less" unicode="&#x3c;" horiz-adv-x="778" 
d="M686 678l-441 -242l441 -244l-41 -85l-553 292v74l557 291z" />
    <glyph glyph-name="equal" unicode="=" horiz-adv-x="786" 
d="M92 503v101h603v-101h-603zM92 279v101h603v-101h-603z" />
    <glyph glyph-name="greater" unicode="&#x3e;" horiz-adv-x="778" 
d="M130 764l557 -291v-74l-554 -292l-40 85l441 244l-442 242z" />
    <glyph glyph-name="question" unicode="?" horiz-adv-x="897" 
d="M369 265q-12 55 -2 94t38 72.5t63.5 56.5t74.5 47.5t71 45t53 48.5t21 59q0 57 -60.5 96t-175.5 39q-93 0 -180 -33t-150 -85l-65 72q83 68 187 106.5t215 38.5q170 0 261.5 -63.5t91.5 -162.5q0 -54 -30 -98.5t-74.5 -72t-95 -57t-92 -55t-64 -63.5t-12.5 -85h-75z
M409 0q-27 0 -48 19.5t-21 44.5t21 45t48 20t47.5 -19.5t20.5 -45.5q0 -25 -20.5 -44.5t-47.5 -19.5z" />
    <glyph glyph-name="at" unicode="@" horiz-adv-x="1308" 
d="M655 -217q-252 0 -407.5 139.5t-155.5 379.5q0 243 156.5 388.5t415.5 145.5q250 0 401 -134.5t151 -357.5q0 -126 -61 -203t-164 -77q-117 0 -148 86q-25 -34 -74.5 -60t-114.5 -26q-130 0 -195 71t-65 177q0 105 65 176t195 71q103 0 172 -53l1 38h83v-274
q0 -106 84 -106q56 0 86 49t30 131q0 190 -114.5 295t-331.5 105t-339.5 -124t-122.5 -318q0 -190 122.5 -308t329.5 -118q150 0 252 70l55 -75q-54 -38 -135 -63t-171 -25zM669 154q47 0 87 21.5t59 54.5v187q-56 51 -146 51q-81 0 -123 -45t-42 -111q0 -69 41 -113.5
t124 -44.5z" />
    <glyph glyph-name="A" unicode="A" horiz-adv-x="1041" 
d="M580 899q26 -50 132 -267t192.5 -386.5t123.5 -227.5l-7 -18q-101 0 -134 13q-22 31 -102 198h-539l-99 -211h-134l442 899q21 9 63 8.5t62 -8.5zM293 310h445q-84 179 -219 480z" />
    <glyph glyph-name="B" unicode="B" horiz-adv-x="935" 
d="M700 537q201 -59 201 -235q0 -150 -115.5 -234.5t-319.5 -85.5q-137 -1 -220.5 8t-177.5 35v857q161 40 355 40q90 0 160 -14.5t113 -37t70.5 -53.5t38 -61t10.5 -63q0 -47 -30 -88.5t-85 -67.5zM426 827q-134 0 -236 -21v-272q127 29 301 29q22 0 60 -2q68 12 105 44.5
t37 76.5q0 26 -12.5 49.5t-40.5 46t-83 36t-131 13.5zM458 80q159 0 241 58t82 157q-1 82 -74.5 125.5t-236.5 43.5q-150 0 -280 -33v-325q112 -26 268 -26z" />
    <glyph glyph-name="C" unicode="C" horiz-adv-x="946" 
d="M526 -20q-137 0 -248 55t-177.5 163.5t-66.5 253.5q0 132 67 240t180.5 168.5t249.5 61.5q172 1 276.5 -92t94.5 -238q-81 -19 -121 -8q4 103 -67 169.5t-184 64.5q-157 -1 -263.5 -109t-106.5 -265q0 -162 102.5 -261t263.5 -99q74 0 153.5 22t143.5 65
q25 -10 42.5 -37.5t18.5 -45.5q-76 -53 -174.5 -80.5t-183.5 -27.5z" />
    <glyph glyph-name="D" unicode="D" horiz-adv-x="978" 
d="M418 922q243 0 384.5 -126.5t141.5 -333.5q0 -218 -136 -349t-367 -131q-130 0 -202.5 8.5t-170.5 34.5v859q152 38 350 38zM817 459q1 161 -107.5 262.5t-297.5 101.5q-123 0 -222 -16v-702q103 -25 246 -25q178 0 279.5 104t101.5 275z" />
    <glyph glyph-name="E" unicode="E" horiz-adv-x="873" 
d="M827 99q12 -13 12 -46.5t-12 -52.5h-759v886l13 13h722q7 -22 -1 -52.5t-20 -46.5h-592v-316h526q6 -23 -1.5 -55.5t-20.5 -43.5h-504v-286h637z" />
    <glyph glyph-name="F" unicode="F" horiz-adv-x="844" 
d="M787 799h-597v-361h533q6 -24 -1 -56t-20 -42h-512v-340h-122v886l13 12h727q7 -22 -1 -53.5t-20 -45.5z" />
    <glyph glyph-name="G" unicode="G" horiz-adv-x="973" 
d="M522 818q-166 0 -264 -106.5t-98 -265.5q0 -163 103.5 -262t274.5 -99q154 0 271 57v209h-332q-6 24 2 56t20 43h414l16 -17v-345q-71 -51 -179 -78.5t-212 -27.5q-219 0 -361.5 127t-142.5 343q0 92 33.5 176.5t94.5 150t153.5 104.5t203.5 39q178 0 296.5 -88.5
t114.5 -221.5q-28 -6 -64.5 -9.5t-63.5 1.5q-4 99 -83 156.5t-197 57.5z" />
    <glyph glyph-name="H" unicode="H" horiz-adv-x="932" 
d="M743 899q23 8 63 7t59 -7v-899h-122v360h-553v-360h-122v899q24 8 64 7t58 -7v-441h553v441z" />
    <glyph glyph-name="I" unicode="I" horiz-adv-x="254" 
d="M68 0v899q22 8 61.5 7t56.5 -7v-899h-118z" />
    <glyph glyph-name="J" unicode="J" horiz-adv-x="939" 
d="M450 -18q-112 0 -220 51.5t-192 137.5q9 30 29.5 53.5t42.5 30.5q66 -76 154 -123t176 -47q140 0 219.5 86.5t79.5 226.5v501q26 7 65 6t57 -6v-527q0 -162 -111 -276t-300 -114z" />
    <glyph glyph-name="K" unicode="K" horiz-adv-x="1033" 
d="M554 461q124 -128 177.5 -182.5t135.5 -128.5t147 -120l-1 -19q-60 -19 -134 -19q-96 56 -432 412q-123 -61 -257 -116v-288h-122v899q23 8 64 7t58 -7v-500q229 100 350 174q288 172 278 322q50 19 118 5q13 -87 -62 -190t-222 -193q-49 -30 -98 -56z" />
    <glyph glyph-name="L" unicode="L" horiz-adv-x="859" 
d="M93 0l-25 24v875q22 8 62.5 7t59.5 -7v-800h631q12 -15 12 -47.5t-12 -51.5h-728z" />
    <glyph glyph-name="M" unicode="M" horiz-adv-x="1205" 
d="M1172 0h-123l-74 688l-332 -547h-82l-332 546l-73 -687h-122l96 880q14 13 54 19t53 0l365 -610l364 610q17 6 55 0t53 -19z" />
    <glyph glyph-name="N" unicode="N" horiz-adv-x="1038" 
d="M848 899q24 8 64 7t58 -7v-899h-92l-688 707v-707h-122v873q12 14 44.5 23.5t48.5 4.5l687 -713v711z" />
    <glyph glyph-name="O" unicode="O" horiz-adv-x="1019" 
d="M464 -18q-192 0 -311 122t-119 302q0 144 69.5 262.5t190 186t265.5 67.5q120 0 218.5 -61t153 -162.5t54.5 -220.5q0 -134 -70 -248.5t-190 -181t-261 -66.5zM472 85q160 0 273 118t114 280q1 144 -87 239.5t-226 95.5q-163 0 -274.5 -118.5t-111.5 -290.5
q1 -136 83.5 -230t228.5 -94z" />
    <glyph glyph-name="P" unicode="P" horiz-adv-x="935" 
d="M901 580q1 -153 -125.5 -242.5t-325.5 -89.5q-142 0 -260 29v-277h-122v878q170 44 393 44q206 0 323 -93t117 -249zM774 580q1 113 -83 178t-238 65q-145 0 -263 -27v-414q117 -35 254 -35q147 0 238.5 61.5t91.5 171.5z" />
    <glyph glyph-name="Q" unicode="Q" horiz-adv-x="1019" 
d="M728 -75q89 0 213 47q17 -17 23.5 -46t-0.5 -57q-122 -29 -200 -30q-233 -3 -334 144q-178 12 -287 132t-109 291q0 144 69.5 262.5t190 186t265.5 67.5q120 0 218.5 -61t153 -162.5t54.5 -220.5q0 -181 -123 -319t-307 -169q63 -67 173 -65zM160 409q1 -136 83.5 -230
t228.5 -94q160 0 273 118t114 280q1 144 -87 239.5t-226 95.5q-163 0 -274.5 -118.5t-111.5 -290.5z" />
    <glyph glyph-name="R" unicode="R" horiz-adv-x="1017" 
d="M645 314q195 -200 323 -288l-1 -20q-47 -15 -136 -15q-69 35 -328 299q-18 -2 -54 -2q-125 0 -259 32v-320h-122v878q172 44 398 44q202 0 318.5 -84.5t116.5 -233.5q0 -105 -69.5 -180t-186.5 -110zM449 387q139 -1 232.5 56.5t92.5 162.5q0 97 -83 157t-239 60
q-152 0 -262 -24v-380q117 -31 259 -32z" />
    <glyph glyph-name="S" unicode="S" horiz-adv-x="954" 
d="M507 -18q-275 0 -473 140q3 19 21.5 51t46.5 40q182 -132 399 -132q141 0 217 48t76 124q0 81 -78.5 117.5t-232.5 43.5q-162 7 -259 67.5t-96 176.5q0 81 54.5 143t136.5 91.5t177 29.5q195 0 304 -80t109 -194q-25 -7 -61 -10t-63 2q-4 84 -80 133.5t-210 49.5
q-103 0 -172 -45t-69 -116q0 -50 37 -84t89.5 -48.5t121.5 -17.5q418 -16 418 -252q0 -126 -111 -202t-302 -76z" />
    <glyph glyph-name="T" unicode="T" horiz-adv-x="963" 
d="M934 899q6 -22 -1.5 -54t-19.5 -45h-381v-800h-127v800h-376q-5 21 -1 51t14 48h892z" />
    <glyph glyph-name="U" unicode="U" horiz-adv-x="1036" 
d="M505 -22q-212 0 -324.5 106.5t-112.5 308.5v506q21 7 64 6t60 -6v-511q0 -148 82 -227.5t231 -79.5q157 0 248 88.5t91 230.5v499q23 7 64.5 6t59.5 -6v-501q0 -185 -121.5 -302.5t-341.5 -117.5z" />
    <glyph glyph-name="V" unicode="V" horiz-adv-x="987" 
d="M453 0l-36 21q-89 231 -227 517.5t-177 340.5l5 20q69 12 117 0q69 -106 185.5 -343.5t191.5 -452.5h17q150 187 245 410t70 377q18 11 51.5 13.5t65.5 -4.5q36 -164 -60.5 -401.5t-291.5 -474.5l-42 -23h-114z" />
    <glyph glyph-name="W" unicode="W" horiz-adv-x="1432" 
d="M448 0l-31 17q-89 240 -208.5 489.5t-195.5 372.5l7 20q56 14 115 0q92 -146 198 -370t178 -426h7q65 89 135.5 216.5t92.5 204.5q-7 22 -22 60t-33 82t-23 57q10 18 45 32.5t68 11.5q42 -81 124.5 -299t127.5 -365h8q148 182 208.5 399t31.5 388q37 24 117 9
q12 -71 13.5 -149.5t-17 -172t-51 -184.5t-88 -187.5t-127.5 -181.5l-42 -24h-131l-21 14q-69 193 -136 350q-21 -65 -87 -180t-107 -169l-32 -15h-124z" />
    <glyph glyph-name="X" unicode="X" horiz-adv-x="1020" 
d="M611 430q30 -31 188.5 -197.5t208.5 -217.5l-5 -15h-144q-29 24 -98.5 96.5t-152.5 161t-108 113.5q-79 -51 -130.5 -87.5t-105 -84.5t-84 -97t-39.5 -102h-128q11 61 37.5 115t58 94.5t87 87.5t100.5 79t123 83q-31 33 -179.5 199.5t-200.5 219.5l7 20q27 6 72 6.5
t72 -5.5q25 -28 160 -180t179 -200q170 114 243.5 201.5t65.5 169.5q36 23 122 9q10 -68 -13 -130t-104.5 -147.5t-231.5 -191.5z" />
    <glyph glyph-name="Y" unicode="Y" horiz-adv-x="953" 
d="M934 899q14 -124 -69 -275.5t-295 -322.5v-301h-122v311q-67 97 -215 295t-218 273l8 20q79 15 138 0q45 -47 171 -217t196 -272q134 106 213 243t70 237q41 23 123 9z" />
    <glyph glyph-name="Z" unicode="Z" horiz-adv-x="931" 
d="M885 99q12 -13 12.5 -46.5t-12.5 -52.5h-826q-12 10 -19.5 37.5t-4.5 46.5q146 216 317 412.5t323 303.5h-608q-12 13 -12.5 46.5t12.5 52.5h784q12 -9 20 -42t6 -55q-167 -107 -355.5 -309t-320.5 -394h684z" />
    <glyph glyph-name="bracketleft" unicode="[" horiz-adv-x="525" 
d="M92 -238v1241h341v-93h-241v-1056h241v-92h-341z" />
    <glyph glyph-name="backslash" unicode="\" horiz-adv-x="961" 
d="M981 -131h-125l-876 1134h125z" />
    <glyph glyph-name="bracketright" unicode="]" horiz-adv-x="525" 
d="M433 -238h-341v92h241v1056h-241v93h341v-1241z" />
    <glyph glyph-name="asciicircum" unicode="^" horiz-adv-x="957" 
d="M830 511h-147l-204 260l-206 -260h-146l325 383h57z" />
    <glyph glyph-name="underscore" unicode="_" horiz-adv-x="718" 
d="M92 -87v87h534v-87h-534z" />
    <glyph glyph-name="grave" unicode="`" horiz-adv-x="423" 
d="M280 755l-222 248h126l181 -248h-85z" />
    <glyph glyph-name="a" unicode="a" horiz-adv-x="788" 
d="M722 206q1 -87 8 -124.5t24 -68.5l-2 -13h-110q-13 12 -20 23t-13.5 39t-6.5 71v15q-60 -77 -148 -121.5t-183 -44.5q-102 0 -165 49t-63 126q0 118 130.5 189.5t329.5 74.5q43 0 86 -3q-8 92 -58.5 143.5t-132.5 51.5q-110 0 -253 -85q-38 14 -46 81q159 98 303 98
q149 0 233.5 -87.5t85.5 -251.5zM590 328l2 13q-48 3 -95 3q-149 -1 -239.5 -48t-90.5 -120q0 -45 33.5 -72t94.5 -27q115 0 200 79t95 172z" />
    <glyph glyph-name="b" unicode="b" horiz-adv-x="825" 
d="M475 707q141 0 230 -94t89 -244q0 -160 -101 -273.5t-257 -113.5q-148 0 -242 113q-5 -53 -23 -95h-113v16q14 60 14 164v754q20 6 61.5 6t58.5 -6v-408q41 82 117.5 131.5t165.5 49.5zM419 83q110 0 181 85.5t71 201.5q0 105 -57.5 170.5t-148.5 65.5q-108 0 -189 -97.5
t-81 -219.5q0 -77 65 -141.5t159 -64.5z" />
    <glyph glyph-name="c" unicode="c" horiz-adv-x="766" 
d="M390 -18q-150 -1 -254.5 93.5t-104.5 253.5q0 161 114.5 269.5t273.5 108.5q150 0 236.5 -92.5t78.5 -234.5q-80 -21 -122 -8q2 106 -50.5 170t-149.5 64q-104 0 -181 -80t-77 -198q0 -109 69 -177.5t170 -67.5q131 0 249 94q23 -8 39 -27.5t21 -33t5 -17.5
q-144 -117 -317 -117z" />
    <glyph glyph-name="d" unicode="d" horiz-adv-x="832" 
d="M759 180q0 -105 15 -164v-16h-103q-28 52 -31 134q-45 -69 -116.5 -110.5t-160.5 -41.5q-146 0 -239 96t-93 244q0 165 103 275t266 110q76 0 139.5 -37.5t99.5 -100.5v365q18 6 59 6t61 -6v-754zM377 83q110 0 181 92t71 224q0 86 -62 146.5t-147 60.5
q-113 0 -189.5 -80t-76.5 -198q0 -108 62 -176.5t161 -68.5z" />
    <glyph glyph-name="e" unicode="e" horiz-adv-x="769" 
d="M413 707q151 0 243 -91.5t83 -251.5l-19 -23l-561 -82q19 -83 84 -130t154 -47q127 2 247 92q18 -7 32 -25.5t19 -31.5t5 -16q-145 -119 -316 -119q-96 -1 -175 37.5t-128 116t-50 181.5q-2 163 108 276.5t274 113.5zM614 405q1 97 -53.5 152.5t-147.5 55.5
q-102 0 -177 -78t-83 -191z" />
    <glyph glyph-name="f" unicode="f" horiz-adv-x="457" 
d="M428 850q-134 -1 -146 -179h224v-99h-225v-572h-120v572h-160v99h161q15 279 243 279q66 0 150 -21q5 -17 -3 -51t-19 -46q-57 18 -105 18z" />
    <glyph glyph-name="g" unicode="g" horiz-adv-x="824" 
d="M661 680q48 5 105 -8v-16q-13 -85 -13 -159v-413q0 -175 -99 -273.5t-260 -99.5q-173 0 -335 114q4 28 16.5 52.5t31.5 35.5q157 -103 276 -101q115 0 187.5 72.5t72.5 196.5v64q-40 -74 -114 -118.5t-162 -44.5q-145 0 -241 91t-95 245q0 166 102 277t260 111
q86 0 151 -38.5t101 -100.5v25zM374 83q107 0 179.5 87.5t73.5 234.5q-1 73 -62.5 137t-148.5 64q-115 0 -188 -82.5t-74 -196.5q0 -105 60 -174.5t160 -69.5z" />
    <glyph glyph-name="h" unicode="h" horiz-adv-x="807" 
d="M477 707q141 0 213.5 -89.5t72.5 -254.5v-363h-120v349q0 117 -48.5 184t-142.5 67q-109 0 -191.5 -98.5t-82.5 -221.5v-280h-120v934q20 6 60.5 6t59.5 -6v-390q51 73 130 118t169 45z" />
    <glyph glyph-name="i" unicode="i" horiz-adv-x="271" 
d="M135 802q-31 0 -53.5 21t-22.5 50t22.5 50.5t53.5 21.5t53.5 -21.5t22.5 -50.5t-22.5 -50t-53.5 -21zM76 0v671q19 6 61 6t59 -6v-671h-120z" />
    <glyph glyph-name="j" unicode="j" horiz-adv-x="303" 
d="M154 802q-31 0 -53.5 21t-22.5 50t22.5 50.5t53.5 21.5t53.5 -21.5t22.5 -50.5t-22.5 -50t-53.5 -21zM44 -243q-50 2 -103 18q-7 23 1.5 56t24.5 49q36 -12 59 -12q40 -1 55 40t15 144v619q20 6 62 6t59 -6v-682q0 -108 -42.5 -170t-130.5 -62z" />
    <glyph glyph-name="k" unicode="k" horiz-adv-x="881" 
d="M512 337q93 -91 124 -120.5t86 -81t82 -72t48 -30.5v-21q-19 -7 -63.5 -12.5t-82.5 -4.5q-53 21 -303 278q-99 -55 -225 -108v-165h-120v934q24 8 61.5 8t58.5 -8v-654q107 47 246 132q112 68 164.5 125.5t48.5 124.5q56 18 137 9q32 -153 -235 -317z" />
    <glyph glyph-name="l" unicode="l" horiz-adv-x="367" 
d="M232 -18q-79 -1 -118.5 50t-39.5 156v746q21 7 59 7t62 -7v-714q0 -74 18 -107t57 -33q21 0 64 12q10 -13 13.5 -41.5t-2.5 -47.5q-65 -20 -113 -21z" />
    <glyph glyph-name="m" unicode="m" horiz-adv-x="1183" 
d="M894 707q115 0 173 -81.5t58 -234.5v-391h-120v377q0 107 -34 168t-102 61q-90 0 -153 -88t-63 -205l1 -313h-117v374q0 232 -131 232q-89 0 -151.5 -92t-62.5 -216v-298h-121v512q0 81 -13 140v18q65 14 111 9q13 -41 13 -86v-38q42 67 106 109.5t135 42.5
q160 0 205 -165q43 74 113.5 119.5t152.5 45.5z" />
    <glyph glyph-name="n" unicode="n" horiz-adv-x="834" 
d="M481 707q146 0 220.5 -89.5t74.5 -254.5v-363h-120v343q0 123 -49 191.5t-145 68.5q-106 0 -188 -99t-82 -220v-284h-121v512q0 81 -13 140v18q65 14 114 9q12 -38 12 -86v-56q50 74 129.5 122t167.5 48z" />
    <glyph glyph-name="o" unicode="o" horiz-adv-x="823" 
d="M387 -18q-166 0 -261 95.5t-95 239.5q0 161 118.5 275.5t292.5 114.5q160 0 254 -94t96 -240q2 -169 -112.5 -280t-292.5 -111zM393 83q119 0 198 83t79 195q0 104 -64.5 174.5t-170.5 70.5q-119 0 -200 -85.5t-81 -203.5q0 -99 62.5 -166.5t176.5 -67.5z" />
    <glyph glyph-name="p" unicode="p" horiz-adv-x="822" 
d="M471 707q145 0 232.5 -94t87.5 -240q0 -164 -101.5 -277.5t-251.5 -113.5q-77 0 -141 35t-106 96v-359q-16 -6 -58.5 -6t-61.5 6v748q0 78 -13 156v16q55 17 106 9l26 -104v-27q51 71 124 113t157 42zM417 83q111 0 181 86t70 200q0 109 -58 173t-149 64
q-107 0 -188 -95.5t-81 -224.5q0 -76 67 -139.5t158 -63.5z" />
    <glyph glyph-name="q" unicode="q" horiz-adv-x="827" 
d="M659 679q55 7 110 -9v-18q-16 -85 -16 -141v-757q-19 -6 -61 -6t-59 6v375q-46 -66 -117.5 -106.5t-148.5 -40.5q-149 0 -242.5 95.5t-93.5 237.5q0 177 104.5 284.5t258.5 107.5q79 0 144.5 -37t102.5 -98v36zM380 83q104 0 176 92t72 222q0 84 -60.5 146.5t-149.5 62.5
q-113 0 -189 -79.5t-75 -205.5q0 -104 63 -171t163 -67z" />
    <glyph glyph-name="r" unicode="r" horiz-adv-x="602" 
d="M571 682q7 -20 -5 -54t-29 -51q-56 21 -102 21q-111 -1 -177 -88.5t-66 -217.5v-292h-121v512q0 81 -13 140v18q62 14 107 9q12 -43 12 -86v-71q36 82 105.5 133.5t159.5 51.5q60 0 129 -25z" />
    <glyph glyph-name="s" unicode="s" horiz-adv-x="791" 
d="M408 -18q-99 0 -197.5 28.5t-171.5 84.5q5 21 19.5 46.5t35.5 39.5q64 -48 146.5 -73t163.5 -25q101 0 162 32t61 81q0 56 -56 80t-191 29q-306 16 -306 190q0 90 88.5 151t237.5 61q82 0 175.5 -20.5t165.5 -63.5q-8 -49 -36 -92q-65 38 -145.5 56.5t-147.5 18.5
q-105 0 -160.5 -33t-55.5 -77q0 -46 50 -70.5t159 -28.5q186 -8 265.5 -56.5t79.5 -143.5q0 -97 -97 -156t-245 -59z" />
    <glyph glyph-name="t" unicode="t" horiz-adv-x="580" 
d="M543 572h-311v-258q0 -110 44.5 -170t132.5 -60q50 0 111 19q12 -12 18.5 -45.5t0.5 -52.5q-78 -23 -142 -23q-132 -2 -209 81.5t-77 242.5v266h-97v99h97v179q20 11 55 17t66 0v-196h311v-99z" />
    <glyph glyph-name="u" unicode="u" horiz-adv-x="822" 
d="M753 195q0 -126 26 -180l-1 -15h-102q-17 19 -25 43.5t-8 79.5v5q-45 -68 -123.5 -107t-176.5 -39q-131 0 -208 74.5t-77 228.5v386q46 12 120 0v-365q0 -114 50 -168.5t139 -54.5q119 0 192.5 85.5t73.5 218.5v284q21 6 62.5 5t57.5 -5v-476z" />
    <glyph glyph-name="v" unicode="v" horiz-adv-x="793" 
d="M350 0l-20 15q-27 76 -59.5 151.5t-55.5 125t-61.5 118.5t-51.5 91.5t-52 86.5l-40 64l8 19q70 13 116 0q62 -83 145.5 -236.5t148.5 -333.5h13q111 143 172.5 297.5t44.5 263.5q39 25 118 9q27 -122 -50 -312t-211 -347l-25 -12h-140z" />
    <glyph glyph-name="w" unicode="w" horiz-adv-x="1145" 
d="M317 0l-21 14q-102 319 -288 638l8 19q70 13 116 0q173 -288 257 -566h10q45 75 91.5 171.5t72.5 169.5l-54 122q11 19 45 34.5t67 11.5q125 -262 193 -509h9q90 134 146 285t43 272q42 23 119 9q20 -126 -47 -316t-188 -343l-22 -12h-121l-24 15q-42 136 -105 275
q-18 -48 -68 -139.5t-85 -139.5l-20 -11h-134z" />
    <glyph glyph-name="x" unicode="x" horiz-adv-x="817" 
d="M500 325q27 -28 136 -135.5t166 -167.5l-5 -22h-145q-92 100 -269 272q-129 -93 -182.5 -151t-52.5 -121h-117q-7 39 5 78t34.5 71t64 69t78.5 64t93 65q-40 43 -143 149t-149 154l7 19q28 6 68 6t67 -7q47 -51 137 -144.5t121 -127.5q116 88 170.5 148t49.5 122
q46 20 121 5q11 -74 -51.5 -158t-203.5 -188z" />
    <glyph glyph-name="y" unicode="y" horiz-adv-x="802" 
d="M784 671q7 -66 4 -141t-28 -164.5t-62.5 -174t-100 -169.5t-140.5 -151q-152 -125 -331 -127q-59 0 -96 17q-20 44 -2 86l22 12q34 -15 77 -14q136 0 274 131q24 22 45 45q-90 57 -169.5 148.5t-131.5 186t-83.5 168.5t-46.5 128l7 18q60 15 115 1q15 -48 41 -109
t71 -147t115 -170.5t150 -140.5q172 241 153 557q37 25 117 10z" />
    <glyph glyph-name="z" unicode="z" horiz-adv-x="770" 
d="M743 101q12 -9 12.5 -45t-12.5 -56h-703q-12 10 -20 38t-6 50q127 167 246.5 285t268.5 197h-478q-11 12 -11.5 46t11.5 55h667q11 -10 18.5 -47t5.5 -61q-121 -46 -271.5 -176t-273.5 -286h546z" />
    <glyph glyph-name="braceleft" unicode="{" horiz-adv-x="574" 
d="M372 40q10 -76 36 -129t78 -99l-53 -61q-70 51 -107 108.5t-52 136.5q-8 36 -12.5 83t-6.5 79.5t-10.5 67t-24 55t-47.5 34t-81 13.5v101q52 0 85 15t47.5 40t22.5 64.5t10.5 78.5t11.5 92.5t24 97.5q39 107 147 186l53 -58q-78 -70 -103 -165q-15 -51 -23 -126t-13 -121
t-32.5 -90.5t-80.5 -64.5q38 -17 62.5 -42.5t36 -63.5t16 -68t8.5 -83t8 -81z" />
    <glyph glyph-name="bar" unicode="|" horiz-adv-x="281" 
d="M92 -231v1243h97v-1243h-97z" />
    <glyph glyph-name="braceright" unicode="}" horiz-adv-x="574" 
d="M291 817q14 -39 22 -84.5t11 -80.5t7.5 -71.5t13.5 -62.5t25.5 -47t47 -31.5t75.5 -10.5v-101q-49 0 -81 -13.5t-47.5 -34t-24 -55t-10.5 -67t-6.5 -79.5t-12.5 -83q-16 -79 -52.5 -136.5t-106.5 -108.5l-53 61q51 45 77 98.5t37 129.5q4 28 8 81t8.5 83t16 68t36 63.5
t62.5 42.5q-44 17 -69.5 46.5t-35.5 71t-14 83t-11 99.5t-19 102q-24 93 -103 165l53 58q109 -81 146 -186z" />
    <glyph glyph-name="asciitilde" unicode="~" horiz-adv-x="788" 
d="M92 292q0 84 41.5 138.5t110.5 54.5q46 0 98.5 -23t99 -46t78.5 -23q33 0 54.5 24.5t21.5 67.5h101q0 -83 -40.5 -138t-112.5 -55q-37 0 -79 14.5t-72.5 32t-66.5 32t-63 14.5q-31 0 -51 -25t-20 -68h-100z" />
    <glyph glyph-name="exclamdown" unicode="&#xa1;" horiz-adv-x="412" 
d="M206 660q-27 0 -48 19.5t-21 44.5q0 26 21 45.5t48 19.5q28 0 48.5 -19.5t20.5 -45.5q0 -25 -20.5 -44.5t-48.5 -19.5zM147 -131l9 631h100l10 -631h-119z" />
    <glyph glyph-name="cent" unicode="&#xa2;" horiz-adv-x="969" 
d="M820 233l52 -77q-40 -30 -119.5 -59t-170.5 -37v-191h-86v190q-191 8 -297.5 113.5t-106.5 273.5q0 115 55 202t145.5 132.5t203.5 51.5v179h86v-180q180 -11 295 -101l-57 -81q-105 84 -290 84q-134 0 -225 -76t-91 -211q0 -132 82.5 -210t231.5 -78q160 0 292 75z" />
    <glyph glyph-name="sterling" unicode="&#xa3;" horiz-adv-x="1012" 
d="M290 99h630v-99h-813v99h11q89 0 87 144q0 36 -11 113h-102v99h88q-8 62 -8 126q0 136 94.5 216t264.5 80q231 0 372 -115l-60 -77q-111 91 -288 91q-132 0 -196.5 -58t-64.5 -154q0 -39 6 -109h429v-99h-417q9 -70 9 -115q0 -89 -31 -142z" />
    <glyph glyph-name="currency" unicode="&#xa4;" horiz-adv-x="630" 
d="M539 282l-64 -70l-93 86q-33 -14 -69 -14q-35 0 -69 13l-88 -85l-64 71l79 80q-20 35 -20 83q0 45 18 81l-77 73l64 71l84 -77q32 15 73 15q43 0 76 -15l84 79l65 -71l-79 -75q18 -36 18 -81q0 -46 -21 -83zM230 446q0 -39 22.5 -65t60.5 -26q37 0 61 27t24 64
q0 40 -22.5 65.5t-62.5 25.5q-38 0 -60.5 -27t-22.5 -64z" />
    <glyph glyph-name="yen" unicode="&#xa5;" horiz-adv-x="1102" 
d="M1011 877l-377 -458h240v-86h-262v-107h262v-86h-262v-140h-122v140h-266v86h266v107h-266v86h244l-376 458h166l293 -369l294 369h166z" />
    <glyph glyph-name="brokenbar" unicode="&#xa6;" horiz-adv-x="281" 
d="M92 481v531h97v-531h-97zM92 -231v534h97v-534h-97z" />
    <glyph glyph-name="section" unicode="&#xa7;" horiz-adv-x="700" 
d="M495 171q87 -70 87 -157q0 -79 -71.5 -129.5t-190.5 -50.5q-42 0 -97 11t-93 28v102q35 -18 91 -29t99 -11q61 0 96 23.5t35 68.5q0 33 -37 66t-89.5 62.5t-105.5 62t-90 79t-37 99.5q0 48 29.5 94t81.5 78q-89 73 -89 171q0 81 72 132t190 51q44 0 98.5 -10t91.5 -27
v-103q-35 18 -90 28.5t-100 10.5q-67 0 -104 -23.5t-37 -64.5q0 -40 38.5 -75t93 -64t109.5 -60.5t93.5 -81t38.5 -110.5q0 -52 -29.5 -97t-83.5 -74zM214 401q0 -16 5 -30t17.5 -28t23.5 -24.5t33 -24t35.5 -21.5t41 -23.5t40.5 -22.5q75 44 75 108q0 18 -9 35.5t-19.5 30
t-34 29.5t-38 25.5t-47.5 27t-47 26.5q-74 -44 -76 -108z" />
    <glyph glyph-name="dieresis" unicode="&#xa8;" horiz-adv-x="622" 
d="M134 774q-31 0 -53.5 21t-22.5 50t22.5 50.5t53.5 21.5t53.5 -21.5t22.5 -50.5t-22.5 -50t-53.5 -21zM488 774q-31 0 -53.5 21t-22.5 50t22.5 50.5t53.5 21.5q30 0 53 -22t23 -50t-23 -49.5t-53 -21.5z" />
    <glyph glyph-name="copyright" unicode="&#xa9;" horiz-adv-x="1284" 
d="M642 -19q-241 0 -395.5 130.5t-154.5 334.5q0 132 73.5 241t200 171.5t276.5 62.5q238 0 394 -134t156 -341q0 -204 -154.5 -334.5t-395.5 -130.5zM642 60q126 0 228.5 43.5t166 132t63.5 208.5q0 122 -63 214t-166 138t-229 46q-92 0 -176 -30t-146 -81.5t-99 -126.5
t-37 -160q0 -175 129.5 -279.5t328.5 -104.5zM641 209q-121 0 -204 68t-83 172q0 107 83 174.5t205 67.5q136 0 215 -67l-44 -73q-62 47 -160 47q-76 0 -129 -42t-53 -109q0 -64 52.5 -104.5t131.5 -40.5q104 0 163 47l50 -68q-74 -72 -227 -72z" />
    <glyph glyph-name="ordfeminine" unicode="&#xaa;" horiz-adv-x="573" 
d="M408 1074h74v-404h-73v21q-52 -26 -120 -26q-93 0 -145 55.5t-52 143.5q0 87 57 147.5t148 60.5q62 0 111 -30v32zM299 727q62 0 110 34l-1 200q-43 43 -105 43q-63 0 -101.5 -41t-38.5 -99q0 -62 38 -99.5t98 -37.5z" />
    <glyph glyph-name="guillemotleft" unicode="&#xab;" horiz-adv-x="1258" 
d="M687 686l-445 -250l446 -245l-36 -81l-560 291v73l557 292zM720 436l446 -245l-36 -81l-561 291v73l557 292l39 -80z" />
    <glyph glyph-name="logicalnot" unicode="&#xac;" horiz-adv-x="796" 
d="M601 228v162h-509v101h612v-263h-103z" />
    <glyph glyph-name="uni00AD" unicode="&#xad;" horiz-adv-x="1200" 
d="M200 316v94h800v-94h-800z" />
    <glyph glyph-name="registered" unicode="&#xae;" horiz-adv-x="943" 
d="M472 922q155 0 267 -92.5t112 -240.5q0 -152 -110 -240.5t-269 -88.5q-171 0 -275.5 90.5t-104.5 238.5q0 139 111 236t269 97zM472 313q87 0 157.5 28t116 92t45.5 156q0 131 -92 205t-227 74q-134 0 -227.5 -80t-93.5 -199q0 -127 87.5 -201.5t233.5 -74.5zM655 665
q0 -43 -29.5 -74t-74.5 -43l89 -151h-65l-85 145h-112v-145h-59v389h183q68 0 110.5 -34t42.5 -87zM496 587q40 0 68.5 22t28.5 56q0 33 -27 54t-70 21h-118v-153h118z" />
    <glyph glyph-name="macron" unicode="&#xaf;" horiz-adv-x="665" 
d="M58 806v99h549v-99h-549z" />
    <glyph glyph-name="degree" unicode="&#xb0;" horiz-adv-x="619" 
d="M311 538q-100 0 -159.5 51.5t-59.5 139.5q0 85 59.5 139t159.5 54q99 0 158 -53.5t59 -139.5q0 -85 -61.5 -138t-155.5 -53zM309 600q61 0 100.5 35.5t40.5 93.5q0 59 -39 95t-102 36q-61 0 -100.5 -36t-40.5 -95q0 -60 40 -94.5t101 -34.5z" />
    <glyph glyph-name="plusminus" unicode="&#xb1;" horiz-adv-x="787" 
d="M445 567h250v-101h-250v-240h-103v240h-250v101h250v251h103v-251zM92 48v101h603v-101h-603z" />
    <glyph glyph-name="uni00B2" unicode="&#xb2;" horiz-adv-x="905" 
d="M245 354h569v-94h-713v82q31 60 90.5 113t124 89t133.5 73t123.5 67t89.5 68t35 78q0 62 -60.5 98.5t-180.5 36.5q-186 0 -290 -84l-57 70q126 106 355 106q163 0 253 -64.5t90 -163.5q0 -66 -43 -119t-112 -92t-143 -75t-148.5 -85t-115.5 -104z" />
    <glyph glyph-name="uni00B3" unicode="&#xb3;" horiz-adv-x="919" 
d="M590 677q127 -25 182 -72.5t55 -121.5q0 -97 -95.5 -162.5t-279.5 -65.5q-111 0 -207 29t-151 76l46 81q42 -38 122.5 -64.5t183.5 -26.5q128 0 199.5 38t71.5 98q0 71 -87.5 105t-289.5 44v86q163 0 259.5 35t96.5 95q0 53 -69 81.5t-194 28.5q-90 0 -171 -24.5
t-117 -52.5l-44 77q47 36 144 64t206 28q171 0 263 -55t92 -140q0 -133 -216 -181z" />
    <glyph glyph-name="acute" unicode="&#xb4;" horiz-adv-x="394" 
d="M58 755l151 248h127l-208 -248h-70z" />
    <glyph glyph-name="uni00B5" unicode="&#xb5;" horiz-adv-x="822" 
d="M753 226q0 -100 5.5 -139t19.5 -72l-1 -15h-101q-29 26 -29 89v78q-33 -82 -111.5 -133.5t-182.5 -51.5q-125 0 -189 85v-328h-106v932q46 11 120 0v-366q0 -115 50 -168.5t138 -53.5q121 0 193.5 85t72.5 219v284q23 5 65.5 4t55.5 -4v-445z" />
    <glyph glyph-name="paragraph" unicode="&#xb6;" horiz-adv-x="817" 
d="M271 -131v699q-84 1 -131.5 47t-47.5 114q0 69 45.5 115t133.5 46h455v-83h-127v-938h-90v938h-148v-938h-90z" />
    <glyph glyph-name="periodcentered" unicode="&#xb7;" horiz-adv-x="530" 
d="M265 329q-31 0 -53.5 21t-22.5 50q0 28 22.5 49.5t53.5 21.5t53.5 -21.5t22.5 -49.5q0 -29 -22.5 -50t-53.5 -21z" />
    <glyph glyph-name="cedilla" unicode="&#xb8;" horiz-adv-x="393" 
d="M197 -337q-73 -2 -139 64l66 60q31 -32 63 -32q21 0 34 14.5t13 37.5q0 29 -45 83q-33 38 -43.5 62.5t-10.5 61.5h101q0 -34 9.5 -54t42.5 -59q47 -51 47 -106q1 -54 -39 -93t-99 -39z" />
    <glyph glyph-name="uni00B9" unicode="&#xb9;" horiz-adv-x="727" 
d="M427 354h208v-94h-532v94h219v605l-205 -44l-19 80l265 57h64v-698z" />
    <glyph glyph-name="ordmasculine" unicode="&#xba;" horiz-adv-x="565" 
d="M284 667q-84 0 -148 51.5t-64 144.5q0 96 60 151.5t152 55.5q91 0 150 -55.5t59 -151.5q0 -93 -63.5 -144.5t-145.5 -51.5zM284 729q54 0 95.5 34t41.5 100t-38.5 102.5t-98.5 36.5q-62 0 -101 -36.5t-39 -102.5t42.5 -100t97.5 -34z" />
    <glyph glyph-name="guillemotright" unicode="&#xbb;" horiz-adv-x="1258" 
d="M688 474v-73l-560 -291l-36 81l446 245l-445 250l38 80zM609 766l557 -292v-73l-561 -291l-35 81l445 245l-444 250z" />
    <glyph glyph-name="onequarter" unicode="&#xbc;" horiz-adv-x="1298" 
d="M92 438v95h138v412l-124 -41l-1 96l158 52h70v-519h131v-95h-372zM1099 1052h107l-914 -1183h-106zM1100 483v-388h64v-93h-64v-133h-100v133h-255v73l252 408h103zM1017 95l3 291l-175 -291h172z" />
    <glyph glyph-name="onehalf" unicode="&#xbd;" horiz-adv-x="1311" 
d="M92 440v95h138v412l-124 -41l-1 96l158 52h70v-519h131v-95h-372zM1092 1052h107l-914 -1183h-106zM1182 320q0 -45 -26.5 -95t-59 -86t-82.5 -89t-75 -85h253v-96h-373v87q27 40 74.5 92.5t84 89t64 79.5t27.5 77q0 40 -27 65.5t-69 25.5q-62 0 -138 -65v92
q81 70 170 70q78 0 127.5 -47.5t49.5 -114.5z" />
    <glyph glyph-name="threequarters" unicode="&#xbe;" horiz-adv-x="1264" 
d="M476 616q0 -66 -47.5 -117.5t-136.5 -51.5q-45 0 -97.5 21.5t-90.5 59.5v84q89 -74 174 -74q45 0 75.5 28t30.5 68q0 42 -42.5 70.5t-122.5 38.5v64q65 2 104.5 25t39.5 66q0 31 -27.5 54t-68.5 23q-72 0 -148 -59v76q72 63 159 63q77 0 123 -41t46 -100q0 -51 -29 -87
t-78 -55q65 -23 100.5 -63.5t35.5 -92.5zM1062 1044h106l-914 -1183h-106zM1089 483v-388h64v-93h-64v-133h-100v133h-255v73l252 408h103zM1006 95l3 287l-175 -287h172z" />
    <glyph glyph-name="questiondown" unicode="&#xbf;" horiz-adv-x="897" 
d="M488 679q27 0 48 -19.5t21 -44.5t-21 -45t-48 -20q-28 0 -48.5 19.5t-20.5 45.5t20.5 45t48.5 19zM528 415q15 -59 -2 -108t-53 -79.5t-81.5 -60.5t-86 -53t-68.5 -55t-28 -68q0 -57 60 -95.5t176 -38.5q93 0 179.5 32.5t149.5 85.5l66 -73q-178 -144 -402 -144
q-171 0 -262 63t-91 162q0 64 42 114t99.5 82t114 63.5t90 74.5t22.5 98h75z" />
    <glyph glyph-name="Agrave" unicode="&#xc0;" horiz-adv-x="1041" 
d="M586 967h-78l-208 191h111zM580 899q26 -50 132 -267t192.5 -386.5t123.5 -227.5l-7 -18q-101 0 -134 13q-22 31 -102 198h-539l-99 -211h-134l442 899q21 9 63 8.5t62 -8.5zM293 310h445q-84 179 -219 480z" />
    <glyph glyph-name="Aacute" unicode="&#xc1;" horiz-adv-x="1041" 
d="M767 1149l-214 -196h-80l175 196h119zM580 899q26 -50 132 -267t192.5 -386.5t123.5 -227.5l-7 -18q-101 0 -134 13q-22 31 -102 198h-539l-99 -211h-134l442 899q21 9 63 8.5t62 -8.5zM293 310h445q-84 179 -219 480z" />
    <glyph glyph-name="Acircumflex" unicode="&#xc2;" horiz-adv-x="1041" 
d="M522 1098l-146 -147h-107l220 223h66l219 -223h-107zM580 899q26 -50 132 -267t192.5 -386.5t123.5 -227.5l-7 -18q-101 0 -134 13q-22 31 -102 198h-539l-99 -211h-134l442 899q21 9 63 8.5t62 -8.5zM293 310h445q-84 179 -219 480z" />
    <glyph glyph-name="Atilde" unicode="&#xc3;" horiz-adv-x="1041" 
d="M407 1051q-27 0 -44.5 -24.5t-17.5 -68.5h-75q0 78 33.5 128.5t89.5 50.5q38 0 81.5 -24.5t83.5 -49t68 -24.5t45.5 24.5t17.5 67.5h76q0 -77 -33 -127.5t-90 -50.5q-38 0 -82.5 24.5t-84.5 49t-68 24.5zM580 899q26 -50 132 -267t192.5 -386.5t123.5 -227.5l-7 -18
q-101 0 -134 13q-22 31 -102 198h-539l-99 -211h-134l442 899q21 9 63 8.5t62 -8.5zM293 310h445q-84 179 -219 480z" />
    <glyph glyph-name="Adieresis" unicode="&#xc4;" horiz-adv-x="1041" 
d="M368 983q-25 0 -43 17.5t-18 40.5t18 40.5t43 17.5t43.5 -17.5t18.5 -40.5t-18.5 -40.5t-43.5 -17.5zM673 983q-25 0 -43.5 17.5t-18.5 40.5t18.5 40.5t43.5 17.5q24 0 42.5 -17.5t18.5 -40.5t-18.5 -40.5t-42.5 -17.5zM580 899q26 -50 132 -267t192.5 -386.5
t123.5 -227.5l-7 -18q-101 0 -134 13q-22 31 -102 198h-539l-99 -211h-134l442 899q21 9 63 8.5t62 -8.5zM293 310h445q-84 179 -219 480z" />
    <glyph glyph-name="Aring" unicode="&#xc5;" horiz-adv-x="1041" 
d="M584 891q24 -47 131.5 -267t191.5 -384.5t121 -221.5l-7 -18q-101 0 -134 13q-22 31 -102 198h-539l-99 -211h-134l438 891q-66 13 -104 49.5t-38 89.5q0 63 57 104t156 41q95 0 152 -40.5t57 -104.5q0 -51 -41 -88.5t-106 -50.5zM381 1029q0 -39 38 -64.5t101 -25.5
q58 0 99 26.5t41 63.5q0 40 -40.5 65.5t-99.5 25.5q-62 0 -100.5 -26t-38.5 -65zM293 310h445q-84 179 -219 480z" />
    <glyph glyph-name="AE" unicode="&#xc6;" horiz-adv-x="1589" 
d="M1543 99q12 -13 12 -46.5t-12 -52.5h-750v211h-452l-171 -211h-157l759 899h746q7 -22 -0.5 -53t-20.5 -46h-582v-313h517q6 -24 -2 -56.5t-20 -42.5h-495v-289h628zM422 310l371 -1v458z" />
    <glyph glyph-name="Ccedilla" unicode="&#xc7;" horiz-adv-x="946" 
d="M902 592q-81 -19 -121 -8q4 103 -67 169.5t-184 64.5q-157 -1 -263.5 -109t-106.5 -265q0 -162 102.5 -261t263.5 -99q74 0 153.5 22t143.5 65q25 -10 42.5 -37.5t18.5 -45.5q-76 -53 -174.5 -80.5t-183.5 -27.5h-19q1 -13 7.5 -25.5t12.5 -20t21.5 -24.5t25.5 -29
q47 -51 47 -107q1 -54 -39 -92.5t-99 -39.5q-75 0 -139 64l60 57q40 -41 78 -41q23 0 38 16.5t15 41.5q0 11 -6.5 24t-13 21.5t-20.5 24t-20 23.5q-30 35 -39 57.5t-10 57.5q-174 30 -283 152.5t-109 311.5q0 132 67 240t180.5 168.5t249.5 61.5q172 1 276.5 -92t94.5 -238z
" />
    <glyph glyph-name="Egrave" unicode="&#xc8;" horiz-adv-x="873" 
d="M514 966h-78l-208 191h111zM827 99q12 -13 12 -46.5t-12 -52.5h-759v886l13 13h722q7 -22 -1 -52.5t-20 -46.5h-592v-316h526q6 -23 -1.5 -55.5t-20.5 -43.5h-504v-286h637z" />
    <glyph glyph-name="Eacute" unicode="&#xc9;" horiz-adv-x="873" 
d="M695 1149l-214 -196h-80l175 196h119zM827 99q12 -13 12 -46.5t-12 -52.5h-759v886l13 13h722q7 -22 -1 -52.5t-20 -46.5h-592v-316h526q6 -23 -1.5 -55.5t-20.5 -43.5h-504v-286h637z" />
    <glyph glyph-name="Ecircumflex" unicode="&#xca;" horiz-adv-x="873" 
d="M450 1098l-146 -147h-107l220 223h66l219 -223h-107zM827 99q12 -13 12 -46.5t-12 -52.5h-759v886l13 13h722q7 -22 -1 -52.5t-20 -46.5h-592v-316h526q6 -23 -1.5 -55.5t-20.5 -43.5h-504v-286h637z" />
    <glyph glyph-name="Edieresis" unicode="&#xcb;" horiz-adv-x="873" 
d="M296 983q-25 0 -43 17.5t-18 40.5t18 40.5t43 17.5t43.5 -17.5t18.5 -40.5t-18.5 -40.5t-43.5 -17.5zM601 983q-25 0 -43.5 17.5t-18.5 40.5t18.5 40.5t43.5 17.5q24 0 42.5 -17.5t18.5 -40.5t-18.5 -40.5t-42.5 -17.5zM827 99q12 -13 12 -46.5t-12 -52.5h-759v886l13 13
h722q7 -22 -1 -52.5t-20 -46.5h-592v-316h526q6 -23 -1.5 -55.5t-20.5 -43.5h-504v-286h637z" />
    <glyph glyph-name="Igrave" unicode="&#xcc;" horiz-adv-x="254" 
d="M115 966l-208 191h111l175 -191h-78zM68 0v899q22 8 61.5 7t56.5 -7v-899h-118z" />
    <glyph glyph-name="Iacute" unicode="&#xcd;" horiz-adv-x="254" 
d="M80 953l175 196h119l-214 -196h-80zM68 0v899q22 8 61.5 7t56.5 -7v-899h-118z" />
    <glyph glyph-name="Icircumflex" unicode="&#xce;" horiz-adv-x="254" 
d="M162 1174l219 -223h-107l-145 147l-146 -147h-107l220 223h66zM68 899q22 8 61.5 7t56.5 -7v-899h-118v899z" />
    <glyph glyph-name="Idieresis" unicode="&#xcf;" horiz-adv-x="254" 
d="M-25 983q-25 0 -43 17.5t-18 40.5t18 40.5t43 17.5t43.5 -17.5t18.5 -40.5t-18.5 -40.5t-43.5 -17.5zM280 983q-25 0 -43.5 17.5t-18.5 40.5t18.5 40.5t43.5 17.5q24 0 42.5 -17.5t18.5 -40.5t-18.5 -40.5t-42.5 -17.5zM68 0v899q22 8 61.5 7t56.5 -7v-899h-118z" />
    <glyph glyph-name="Eth" unicode="&#xd0;" horiz-adv-x="1044" 
d="M484 922q244 0 385.5 -126.5t141.5 -333.5q0 -218 -136 -349t-367 -131q-130 0 -203 8.5t-171 34.5v396h-87v94h87v369q153 38 350 38zM884 459q1 160 -108 262t-297 102q-124 0 -223 -16v-292h305v-94h-305v-316q103 -25 247 -25q178 0 279.5 104t101.5 275z" />
    <glyph glyph-name="Ntilde" unicode="&#xd1;" horiz-adv-x="1038" 
d="M406 1051q-27 0 -44.5 -24.5t-17.5 -68.5h-75q0 78 33.5 128.5t89.5 50.5q38 0 81.5 -24.5t83.5 -49t68 -24.5t45.5 24.5t17.5 67.5h76q0 -77 -33 -127.5t-90 -50.5q-38 0 -82.5 24.5t-84.5 49t-68 24.5zM848 899q24 8 64 7t58 -7v-899h-92l-688 707v-707h-122v873
q12 14 44.5 23.5t48.5 4.5l687 -713v711z" />
    <glyph glyph-name="Ograve" unicode="&#xd2;" horiz-adv-x="1019" 
d="M530 978l-208 191h111l175 -191h-78zM464 -18q-192 0 -311 122t-119 302q0 144 69.5 262.5t190 186t265.5 67.5q120 0 218.5 -61t153 -162.5t54.5 -220.5q0 -134 -70 -248.5t-190 -181t-261 -66.5zM472 85q160 0 273 118t114 280q1 144 -87 239.5t-226 95.5
q-163 0 -274.5 -118.5t-111.5 -290.5q1 -136 83.5 -230t228.5 -94z" />
    <glyph glyph-name="Oacute" unicode="&#xd3;" horiz-adv-x="1019" 
d="M495 964l175 196h119l-214 -196h-80zM464 -18q-192 0 -311 122t-119 302q0 144 69.5 262.5t190 186t265.5 67.5q120 0 218.5 -61t153 -162.5t54.5 -220.5q0 -134 -70 -248.5t-190 -181t-261 -66.5zM472 85q160 0 273 118t114 280q1 144 -87 239.5t-226 95.5
q-163 0 -274.5 -118.5t-111.5 -290.5q1 -136 83.5 -230t228.5 -94z" />
    <glyph glyph-name="Ocircumflex" unicode="&#xd4;" horiz-adv-x="1019" 
d="M543 1109l-146 -147h-107l220 223h66l219 -223h-107zM559 922q120 0 218.5 -61t153 -162.5t54.5 -220.5q0 -134 -70 -248.5t-190 -181t-261 -66.5q-192 0 -311 122t-119 302q0 144 69.5 262.5t190 186t265.5 67.5zM472 85q160 0 273 118t114 280q1 144 -87 239.5
t-226 95.5q-163 0 -274.5 -118.5t-111.5 -290.5q1 -136 83.5 -230t228.5 -94z" />
    <glyph glyph-name="Otilde" unicode="&#xd5;" horiz-adv-x="1019" 
d="M663 964q-38 0 -82.5 24.5t-84.5 49t-68 24.5q-27 0 -44.5 -24.5t-17.5 -68.5h-75q0 78 33.5 128.5t89.5 50.5q38 0 81.5 -24.5t83.5 -49t68 -24.5t45.5 24.5t17.5 67.5h76q0 -77 -33 -127.5t-90 -50.5zM464 -18q-192 0 -311 122t-119 302q0 144 69.5 262.5t190 186
t265.5 67.5q120 0 218.5 -61t153 -162.5t54.5 -220.5q0 -134 -70 -248.5t-190 -181t-261 -66.5zM472 85q160 0 273 118t114 280q1 144 -87 239.5t-226 95.5q-163 0 -274.5 -118.5t-111.5 -290.5q1 -136 83.5 -230t228.5 -94z" />
    <glyph glyph-name="Odieresis" unicode="&#xd6;" horiz-adv-x="1019" 
d="M390 994q-25 0 -43 17.5t-18 40.5t18 40.5t43 17.5t43.5 -17.5t18.5 -40.5t-18.5 -40.5t-43.5 -17.5zM695 994q-25 0 -43.5 17.5t-18.5 40.5t18.5 40.5t43.5 17.5q24 0 42.5 -17.5t18.5 -40.5t-18.5 -40.5t-42.5 -17.5zM464 -18q-192 0 -311 122t-119 302
q0 144 69.5 262.5t190 186t265.5 67.5q120 0 218.5 -61t153 -162.5t54.5 -220.5q0 -134 -70 -248.5t-190 -181t-261 -66.5zM472 85q160 0 273 118t114 280q1 144 -87 239.5t-226 95.5q-163 0 -274.5 -118.5t-111.5 -290.5q1 -136 83.5 -230t228.5 -94z" />
    <glyph glyph-name="multiply" unicode="&#xd7;" horiz-adv-x="862" 
d="M770 603l-258 -195l258 -195h-160l-179 135l-178 -135h-161l259 195l-259 195h161l178 -135l179 135h160z" />
    <glyph glyph-name="Oslash" unicode="&#xd8;" horiz-adv-x="1090" 
d="M1022 892l-109 -117q107 -124 107 -297q0 -134 -70 -248.5t-190 -181t-260 -66.5q-149 0 -258 76l-54 -58h-120l109 116q-108 119 -108 290q0 144 69.5 262.5t190 186t266.5 67.5q143 0 254 -86l52 56h121zM196 409q0 -119 63 -205l513 550q-80 64 -191 64
q-163 0 -274.5 -118.5t-110.5 -290.5zM894 483q0 119 -61 207l-512 -548q76 -57 187 -57q159 0 272 118t114 280z" />
    <glyph glyph-name="Ugrave" unicode="&#xd9;" horiz-adv-x="1036" 
d="M507 974l-208 191h111l175 -191h-78zM505 -22q-212 0 -324.5 106.5t-112.5 308.5v506q21 7 64 6t60 -6v-511q0 -148 82 -227.5t231 -79.5q157 0 248 88.5t91 230.5v499q23 7 64.5 6t59.5 -6v-501q0 -185 -121.5 -302.5t-341.5 -117.5z" />
    <glyph glyph-name="Uacute" unicode="&#xda;" horiz-adv-x="1036" 
d="M472 961l175 196h119l-214 -196h-80zM505 -22q-212 0 -324.5 106.5t-112.5 308.5v506q21 7 64 6t60 -6v-511q0 -148 82 -227.5t231 -79.5q157 0 248 88.5t91 230.5v499q23 7 64.5 6t59.5 -6v-501q0 -185 -121.5 -302.5t-341.5 -117.5z" />
    <glyph glyph-name="Ucircumflex" unicode="&#xdb;" horiz-adv-x="1036" 
d="M520 1106l-146 -147h-107l220 223h66l219 -223h-107zM844 899q23 7 64.5 6t59.5 -6v-501q0 -185 -121.5 -302.5t-341.5 -117.5q-212 0 -324.5 106.5t-112.5 308.5v506q21 7 64 6t60 -6v-511q0 -148 82 -227.5t231 -79.5q157 0 248 88.5t91 230.5v499z" />
    <glyph glyph-name="Udieresis" unicode="&#xdc;" horiz-adv-x="1036" 
d="M367 991q-25 0 -43 17.5t-18 40.5t18 40.5t43 17.5t43.5 -17.5t18.5 -40.5t-18.5 -40.5t-43.5 -17.5zM672 991q-25 0 -43.5 17.5t-18.5 40.5t18.5 40.5t43.5 17.5q24 0 42.5 -17.5t18.5 -40.5t-18.5 -40.5t-42.5 -17.5zM505 -22q-212 0 -324.5 106.5t-112.5 308.5v506
q21 7 64 6t60 -6v-511q0 -148 82 -227.5t231 -79.5q157 0 248 88.5t91 230.5v499q23 7 64.5 6t59.5 -6v-501q0 -185 -121.5 -302.5t-341.5 -117.5z" />
    <glyph glyph-name="Yacute" unicode="&#xdd;" horiz-adv-x="953" 
d="M724 1149l-214 -196h-80l175 196h119zM934 899q14 -124 -69 -275.5t-295 -322.5v-301h-122v311q-67 97 -215 295t-218 273l8 20q79 15 138 0q45 -47 171 -217t196 -272q134 106 213 243t70 237q41 23 123 9z" />
    <glyph glyph-name="Thorn" unicode="&#xde;" horiz-adv-x="916" 
d="M442 804q202 0 321 -90t119 -252q0 -163 -125 -253.5t-327 -90.5q-121 0 -233 27v-145h-129v904q23 9 67 7.5t62 -7.5v-120q94 20 245 20zM437 217q144 0 231.5 65.5t87.5 182.5q-1 115 -82.5 177.5t-235.5 62.5q-139 0 -241 -22v-436q96 -30 240 -30z" />
    <glyph glyph-name="germandbls" unicode="&#xdf;" horiz-adv-x="876" 
d="M844 283q4 -139 -84 -219.5t-221 -81.5q-118 -2 -231 69q-4 24 6 53t33 41q78 -60 167 -60q95 1 153.5 57t55.5 146q-2 71 -62 117.5t-158 45.5q-73 0 -159 -34q-16 14 -14.5 54t12.5 50q45 18 82 22q187 39 187 149q0 58 -50.5 97.5t-147.5 39.5q-95 0 -155.5 -62
t-60.5 -156v-611h-120v624q0 143 95 224t244 81q159 -1 239.5 -67t80.5 -156q0 -60 -37.5 -108.5t-112.5 -78.5q112 -12 184 -76.5t74 -159.5z" />
    <glyph glyph-name="agrave" unicode="&#xe0;" horiz-adv-x="788" 
d="M495 783h-85l-222 248h126zM722 206q1 -87 8 -124.5t24 -68.5l-2 -13h-110q-13 12 -20 23t-13.5 39t-6.5 71v15q-60 -77 -148 -121.5t-183 -44.5q-102 0 -165 49t-63 126q0 118 130.5 189.5t329.5 74.5q43 0 86 -3q-8 92 -58.5 143.5t-132.5 51.5q-110 0 -253 -85
q-38 14 -46 81q159 98 303 98q149 0 233.5 -87.5t85.5 -251.5zM590 328l2 13q-48 3 -95 3q-149 -1 -239.5 -48t-90.5 -120q0 -45 33.5 -72t94.5 -27q115 0 200 79t95 172z" />
    <glyph glyph-name="aacute" unicode="&#xe1;" horiz-adv-x="788" 
d="M637 1031l-199 -248h-79l151 248h127zM722 206q1 -87 8 -124.5t24 -68.5l-2 -13h-110q-13 12 -20 23t-13.5 39t-6.5 71v15q-60 -77 -148 -121.5t-183 -44.5q-102 0 -165 49t-63 126q0 118 130.5 189.5t329.5 74.5q43 0 86 -3q-8 92 -58.5 143.5t-132.5 51.5
q-110 0 -253 -85q-38 14 -46 81q159 98 303 98q149 0 233.5 -87.5t85.5 -251.5zM590 328l2 13q-48 3 -95 3q-149 -1 -239.5 -48t-90.5 -120q0 -45 33.5 -72t94.5 -27q115 0 200 79t95 172z" />
    <glyph glyph-name="acircumflex" unicode="&#xe2;" horiz-adv-x="788" 
d="M414 916l-146 -148h-115l230 235h61l229 -235h-114zM722 206q1 -87 8 -124.5t24 -68.5l-2 -13h-110q-13 12 -20 23t-13.5 39t-6.5 71v15q-60 -77 -148 -121.5t-183 -44.5q-102 0 -165 49t-63 126q0 118 130.5 189.5t329.5 74.5q43 0 86 -3q-8 92 -58.5 143.5t-132.5 51.5
q-110 0 -253 -85q-38 14 -46 81q159 98 303 98q149 0 233.5 -87.5t85.5 -251.5zM590 328l2 13q-48 3 -95 3q-149 -1 -239.5 -48t-90.5 -120q0 -45 33.5 -72t94.5 -27q115 0 200 79t95 172z" />
    <glyph glyph-name="atilde" unicode="&#xe3;" horiz-adv-x="788" 
d="M300 898q-27 0 -44.5 -24.5t-17.5 -68.5h-75q0 82 34 135.5t89 53.5q38 0 83 -24t85.5 -48.5t69.5 -24.5q28 -1 45.5 24t17.5 68h76q0 -81 -33 -135t-90 -54q-31 0 -66.5 15.5t-62 34t-57.5 33.5t-54 15zM722 206q1 -87 8 -124.5t24 -68.5l-2 -13h-110q-13 12 -20 23
t-13.5 39t-6.5 71v15q-60 -77 -148 -121.5t-183 -44.5q-102 0 -165 49t-63 126q0 118 130.5 189.5t329.5 74.5q43 0 86 -3q-8 92 -58.5 143.5t-132.5 51.5q-110 0 -253 -85q-38 14 -46 81q159 98 303 98q149 0 233.5 -87.5t85.5 -251.5zM590 328l2 13q-48 3 -95 3
q-149 -1 -239.5 -48t-90.5 -120q0 -45 33.5 -72t94.5 -27q115 0 200 79t95 172z" />
    <glyph glyph-name="adieresis" unicode="&#xe4;" horiz-adv-x="788" 
d="M251 802q-31 0 -53.5 21t-22.5 50t22.5 50.5t53.5 21.5q30 0 53 -22t23 -50t-23 -49.5t-53 -21.5zM591 802q-31 0 -53.5 21t-22.5 50t22.5 50.5t53.5 21.5q30 0 53 -22t23 -50t-23 -49.5t-53 -21.5zM722 206q1 -87 8 -124.5t24 -68.5l-2 -13h-110q-13 12 -20 23t-13.5 39
t-6.5 71v15q-60 -77 -148 -121.5t-183 -44.5q-102 0 -165 49t-63 126q0 118 130.5 189.5t329.5 74.5q43 0 86 -3q-8 92 -58.5 143.5t-132.5 51.5q-110 0 -253 -85q-38 14 -46 81q159 98 303 98q149 0 233.5 -87.5t85.5 -251.5zM590 328l2 13q-48 3 -95 3q-149 -1 -239.5 -48
t-90.5 -120q0 -45 33.5 -72t94.5 -27q115 0 200 79t95 172z" />
    <glyph glyph-name="aring" unicode="&#xe5;" horiz-adv-x="788" 
d="M415 769q-96 0 -154.5 39.5t-58.5 105.5q0 63 57 104t156 41q95 0 152 -40.5t57 -104.5q0 -63 -61 -104t-148 -41zM413 1005q-62 0 -100.5 -26t-38.5 -65q0 -40 38 -65t101 -25q58 0 99 26.5t41 63.5q0 40 -40.5 65.5t-99.5 25.5zM722 206q1 -87 8 -124.5t24 -68.5
l-2 -13h-110q-13 12 -20 23t-13.5 39t-6.5 71v15q-60 -77 -148 -121.5t-183 -44.5q-102 0 -165 49t-63 126q0 118 130.5 189.5t329.5 74.5q43 0 86 -3q-8 92 -58.5 143.5t-132.5 51.5q-110 0 -253 -85q-38 14 -46 81q159 98 303 98q149 0 233.5 -87.5t85.5 -251.5zM590 328
l2 13q-48 3 -95 3q-149 -1 -239.5 -48t-90.5 -120q0 -45 33.5 -72t94.5 -27q115 0 200 79t95 172z" />
    <glyph glyph-name="ae" unicode="&#xe6;" horiz-adv-x="1327" 
d="M972 707q151 0 242.5 -91.5t82.5 -251.5l-18 -23l-561 -81q18 -83 83.5 -130.5t154.5 -46.5q125 0 247 91q11 -4 21 -13.5t16 -19t10.5 -18.5t6.5 -15l2 -7q-147 -119 -316 -119q-102 -1 -185.5 43.5t-127.5 125.5q-62 -79 -156.5 -124.5t-202.5 -44.5q-103 1 -165.5 50
t-62.5 125q0 118 129.5 189.5t327.5 73.5q55 0 84 -2q-11 90 -59 141t-127 51q-103 0 -253 -82q-38 14 -46 81q159 98 303 98q191 0 268 -146q53 68 131 107t171 39zM1173 399q1 99 -54 156.5t-147 57.5q-104 0 -179.5 -79.5t-81.5 -194.5zM585 328l2 13q-47 3 -90 3
q-149 -1 -239.5 -48t-90.5 -120q0 -45 33.5 -72t94.5 -27q112 0 196.5 76.5t93.5 174.5z" />
    <glyph glyph-name="ccedilla" unicode="&#xe7;" horiz-adv-x="766" 
d="M734 380q-80 -21 -122 -8q2 106 -50.5 170t-149.5 64q-104 0 -181 -80t-77 -198q0 -109 69 -177.5t170 -67.5q131 0 249 94q23 -8 39 -27.5t21 -33t5 -17.5q-137 -111 -299 -117q2 -13 8 -25t12.5 -19.5t21.5 -24t25 -28.5q47 -51 47 -106q1 -54 -39 -93t-99 -39
q-74 -2 -139 63l60 58q39 -42 78 -42q23 1 38 17t15 41q0 12 -6.5 24.5t-13.5 21t-20.5 24.5t-20.5 24q-28 33 -37.5 55.5t-10.5 52.5q-128 20 -212 111t-84 232q0 161 114.5 269.5t273.5 108.5q150 0 236.5 -92.5t78.5 -234.5z" />
    <glyph glyph-name="egrave" unicode="&#xe8;" horiz-adv-x="769" 
d="M494 783h-85l-222 248h126zM413 707q151 0 243 -91.5t83 -251.5l-19 -23l-561 -82q19 -83 84 -130t154 -47q127 2 247 92q18 -7 32 -25.5t19 -31.5t5 -16q-145 -119 -316 -119q-96 -1 -175 37.5t-128 116t-50 181.5q-2 163 108 276.5t274 113.5zM614 405
q1 97 -53.5 152.5t-147.5 55.5q-102 0 -177 -78t-83 -191z" />
    <glyph glyph-name="eacute" unicode="&#xe9;" horiz-adv-x="769" 
d="M636 1031l-199 -248h-79l151 248h127zM413 707q151 0 243 -91.5t83 -251.5l-19 -23l-561 -82q19 -83 84 -130t154 -47q127 2 247 92q18 -7 32 -25.5t19 -31.5t5 -16q-145 -119 -316 -119q-96 -1 -175 37.5t-128 116t-50 181.5q-2 163 108 276.5t274 113.5zM614 405
q1 97 -53.5 152.5t-147.5 55.5q-102 0 -177 -78t-83 -191z" />
    <glyph glyph-name="ecircumflex" unicode="&#xea;" horiz-adv-x="769" 
d="M413 916l-146 -148h-115l230 235h61l229 -235h-114zM413 707q151 0 243 -91.5t83 -251.5l-19 -23l-561 -82q19 -83 84 -130t154 -47q127 2 247 92q18 -7 32 -25.5t19 -31.5t5 -16q-145 -119 -316 -119q-96 -1 -175 37.5t-128 116t-50 181.5q-2 163 108 276.5t274 113.5z
M614 405q1 97 -53.5 152.5t-147.5 55.5q-102 0 -177 -78t-83 -191z" />
    <glyph glyph-name="edieresis" unicode="&#xeb;" horiz-adv-x="769" 
d="M250 802q-31 0 -53.5 21t-22.5 50t22.5 50.5t53.5 21.5q30 0 53 -22t23 -50t-23 -49.5t-53 -21.5zM590 802q-31 0 -53.5 21t-22.5 50t22.5 50.5t53.5 21.5q30 0 53 -22t23 -50t-23 -49.5t-53 -21.5zM413 707q151 0 243 -91.5t83 -251.5l-19 -23l-561 -82q19 -83 84 -130
t154 -47q127 2 247 92q18 -7 32 -25.5t19 -31.5t5 -16q-145 -119 -316 -119q-96 -1 -175 37.5t-128 116t-50 181.5q-2 163 108 276.5t274 113.5zM614 405q1 97 -53.5 152.5t-147.5 55.5q-102 0 -177 -78t-83 -191z" />
    <glyph glyph-name="igrave" unicode="&#xec;" horiz-adv-x="271" 
d="M133 783l-222 248h126l181 -248h-85zM76 0v671q19 6 61 6t59 -6v-671h-120z" />
    <glyph glyph-name="iacute" unicode="&#xed;" horiz-adv-x="271" 
d="M81 783l151 248h127l-199 -248h-79zM76 0v671q19 6 61 6t59 -6v-671h-120z" />
    <glyph glyph-name="icircumflex" unicode="&#xee;" horiz-adv-x="271" 
d="M167 1003l229 -235h-114l-145 148l-146 -148h-115l230 235h61zM76 671q19 6 61 6t59 -6v-671h-120v671z" />
    <glyph glyph-name="idieresis" unicode="&#xef;" horiz-adv-x="271" 
d="M-26 802q-31 0 -53.5 21t-22.5 50t22.5 50.5t53.5 21.5q30 0 53 -22t23 -50t-23 -49.5t-53 -21.5zM314 802q-31 0 -53.5 21t-22.5 50t22.5 50.5t53.5 21.5q30 0 53 -22t23 -50t-23 -49.5t-53 -21.5zM76 0v671q19 6 61 6t59 -6v-671h-120z" />
    <glyph glyph-name="eth" unicode="&#xf0;" horiz-adv-x="776" 
d="M518 764q228 -189 227 -419q0 -68 -23.5 -131.5t-69 -117.5t-122.5 -86.5t-174 -32.5q-149 0 -237 86t-88 216q0 147 103 243t250 97q111 0 187 -61q-54 86 -153 160q-84 -35 -244 -90q-41 16 -50 66q156 54 216 78q-81 50 -169 86q4 47 61 71q107 -41 213 -110
q105 53 113 96q28 8 63.5 2.5t56.5 -19.5q-10 -60 -160 -134zM363 77q113 0 186 79.5t73 186.5q0 80 -58.5 134t-151.5 54q-110 0 -184 -71.5t-75 -177.5q0 -89 55 -147t155 -58z" />
    <glyph glyph-name="ntilde" unicode="&#xf1;" horiz-adv-x="834" 
d="M349 898q-27 0 -44.5 -24.5t-17.5 -68.5h-75q0 82 34 135.5t89 53.5q39 0 83.5 -24t85 -48.5t69.5 -24.5q28 -1 45.5 24t17.5 68h76q0 -81 -33 -135t-90 -54q-31 0 -66.5 15.5t-62 34t-57.5 33.5t-54 15zM481 707q146 0 220.5 -89.5t74.5 -254.5v-363h-120v343
q0 123 -49 191.5t-145 68.5q-106 0 -188 -99t-82 -220v-284h-121v512q0 81 -13 140v18q65 14 114 9q12 -38 12 -86v-56q50 74 129.5 122t167.5 48z" />
    <glyph glyph-name="ograve" unicode="&#xf2;" horiz-adv-x="823" 
d="M426 783l-222 248h126l181 -248h-85zM387 -18q-166 0 -261 95.5t-95 239.5q0 161 118.5 275.5t292.5 114.5q160 0 254 -94t96 -240q2 -169 -112.5 -280t-292.5 -111zM393 83q119 0 198 83t79 195q0 104 -64.5 174.5t-170.5 70.5q-119 0 -200 -85.5t-81 -203.5
q0 -99 62.5 -166.5t176.5 -67.5z" />
    <glyph glyph-name="oacute" unicode="&#xf3;" horiz-adv-x="823" 
d="M375 783l151 248h127l-199 -248h-79zM387 -18q-166 0 -261 95.5t-95 239.5q0 161 118.5 275.5t292.5 114.5q160 0 254 -94t96 -240q2 -169 -112.5 -280t-292.5 -111zM393 83q119 0 198 83t79 195q0 104 -64.5 174.5t-170.5 70.5q-119 0 -200 -85.5t-81 -203.5
q0 -99 62.5 -166.5t176.5 -67.5z" />
    <glyph glyph-name="ocircumflex" unicode="&#xf4;" horiz-adv-x="823" 
d="M430 916l-146 -148h-115l230 235h61l229 -235h-114zM792 373q2 -169 -112.5 -280t-292.5 -111q-166 0 -261 95.5t-95 239.5q0 161 118.5 275.5t292.5 114.5q160 0 254 -94t96 -240zM393 83q119 0 198 83t79 195q0 104 -64.5 174.5t-170.5 70.5q-119 0 -200 -85.5
t-81 -203.5q0 -99 62.5 -166.5t176.5 -67.5z" />
    <glyph glyph-name="otilde" unicode="&#xf5;" horiz-adv-x="823" 
d="M556 800q-31 0 -66.5 15.5t-62 34t-57.5 33.5t-54 15q-27 0 -44.5 -24.5t-17.5 -68.5h-75q0 82 34 135.5t89 53.5q38 0 83 -24t85.5 -48.5t69.5 -24.5q28 -1 45.5 24t17.5 68h76q0 -81 -33 -135t-90 -54zM387 -18q-166 0 -261 95.5t-95 239.5q0 161 118.5 275.5
t292.5 114.5q160 0 254 -94t96 -240q2 -169 -112.5 -280t-292.5 -111zM393 83q119 0 198 83t79 195q0 104 -64.5 174.5t-170.5 70.5q-119 0 -200 -85.5t-81 -203.5q0 -99 62.5 -166.5t176.5 -67.5z" />
    <glyph glyph-name="odieresis" unicode="&#xf6;" horiz-adv-x="823" 
d="M267 802q-31 0 -53.5 21t-22.5 50t22.5 50.5t53.5 21.5q30 0 53 -22t23 -50t-23 -49.5t-53 -21.5zM607 802q-31 0 -53.5 21t-22.5 50t22.5 50.5t53.5 21.5q30 0 53 -22t23 -50t-23 -49.5t-53 -21.5zM387 -18q-166 0 -261 95.5t-95 239.5q0 161 118.5 275.5t292.5 114.5
q160 0 254 -94t96 -240q2 -169 -112.5 -280t-292.5 -111zM393 83q119 0 198 83t79 195q0 104 -64.5 174.5t-170.5 70.5q-119 0 -200 -85.5t-81 -203.5q0 -99 62.5 -166.5t176.5 -67.5z" />
    <glyph glyph-name="divide" unicode="&#xf7;" horiz-adv-x="792" 
d="M397 597q-31 0 -54 21.5t-23 49.5q0 29 23 50.5t54 21.5t53.5 -21.5t22.5 -50.5t-22.5 -50t-53.5 -21zM92 386v101h608v-101h-608zM397 129q-31 0 -54 21.5t-23 50.5t23 50.5t54 21.5t53.5 -21.5t22.5 -50.5t-22.5 -50.5t-53.5 -21.5z" />
    <glyph glyph-name="oslash" unicode="&#xf8;" horiz-adv-x="848" 
d="M804 671v-15l-72 -72q68 -89 70 -211q2 -169 -113 -280t-293 -111q-131 0 -222 64l-47 -46h-82v19l75 75q-80 89 -80 223q0 161 119 275.5t293 114.5q132 0 225 -69l33 33h94zM163 317q0 -80 41 -139l46 46l43 37l189 180l37 38l75 76q-62 51 -150 51q-119 0 -200 -85.5
t-81 -203.5zM679 361q0 76 -35 135l-31 -31l-48 -39l-202 -190l-28 -33l-80 -78q61 -42 148 -42q119 0 197.5 83t78.5 195z" />
    <glyph glyph-name="ugrave" unicode="&#xf9;" horiz-adv-x="822" 
d="M487 783h-85l-222 248h126zM753 195q0 -126 26 -180l-1 -15h-102q-17 19 -25 43.5t-8 79.5v5q-45 -68 -123.5 -107t-176.5 -39q-131 0 -208 74.5t-77 228.5v386q46 12 120 0v-365q0 -114 50 -168.5t139 -54.5q119 0 192.5 85.5t73.5 218.5v284q21 6 62.5 5t57.5 -5v-476z
" />
    <glyph glyph-name="uacute" unicode="&#xfa;" horiz-adv-x="822" 
d="M628 1031l-199 -248h-79l151 248h127zM753 195q0 -126 26 -180l-1 -15h-102q-17 19 -25 43.5t-8 79.5v5q-45 -68 -123.5 -107t-176.5 -39q-131 0 -208 74.5t-77 228.5v386q46 12 120 0v-365q0 -114 50 -168.5t139 -54.5q119 0 192.5 85.5t73.5 218.5v284q21 6 62.5 5
t57.5 -5v-476z" />
    <glyph glyph-name="ucircumflex" unicode="&#xfb;" horiz-adv-x="822" 
d="M406 916l-146 -148h-115l230 235h61l229 -235h-114zM753 195q0 -126 26 -180l-1 -15h-102q-17 19 -25 43.5t-8 79.5v5q-45 -68 -123.5 -107t-176.5 -39q-131 0 -208 74.5t-77 228.5v386q46 12 120 0v-365q0 -114 50 -168.5t139 -54.5q119 0 192.5 85.5t73.5 218.5v284
q21 6 62.5 5t57.5 -5v-476z" />
    <glyph glyph-name="udieresis" unicode="&#xfc;" horiz-adv-x="822" 
d="M243 802q-31 0 -53.5 21t-22.5 50t22.5 50.5t53.5 21.5q30 0 53 -22t23 -50t-23 -49.5t-53 -21.5zM583 802q-31 0 -53.5 21t-22.5 50t22.5 50.5t53.5 21.5q30 0 53 -22t23 -50t-23 -49.5t-53 -21.5zM753 195q0 -126 26 -180l-1 -15h-102q-17 19 -25 43.5t-8 79.5v5
q-45 -68 -123.5 -107t-176.5 -39q-131 0 -208 74.5t-77 228.5v386q46 12 120 0v-365q0 -114 50 -168.5t139 -54.5q119 0 192.5 85.5t73.5 218.5v284q21 6 62.5 5t57.5 -5v-476z" />
    <glyph glyph-name="yacute" unicode="&#xfd;" horiz-adv-x="802" 
d="M627 1032l-199 -248h-79l151 248h127zM784 671q7 -66 4 -141t-28 -164.5t-62.5 -174t-100 -169.5t-140.5 -151q-152 -125 -331 -127q-59 0 -96 17q-20 44 -2 86l22 12q34 -15 77 -14q136 0 274 131q24 22 45 45q-90 57 -169.5 148.5t-131.5 186t-83.5 168.5t-46.5 128
l7 18q60 15 115 1q15 -48 41 -109t71 -147t115 -170.5t150 -140.5q172 241 153 557q37 25 117 10z" />
    <glyph glyph-name="thorn" unicode="&#xfe;" horiz-adv-x="811" 
d="M460 707q141 0 230.5 -94t89.5 -244q0 -160 -101.5 -273.5t-256.5 -113.5q-148 0 -240 111l1 -331q-62 -13 -125 0v1172q20 6 61 6t59 -6v-407q41 81 118 130.5t164 49.5zM404 83q111 0 182 85.5t71 201.5q-1 106 -58 171t-148 65q-108 0 -189 -97.5t-81 -219.5
q0 -77 64.5 -141.5t158.5 -64.5z" />
    <glyph glyph-name="ydieresis" unicode="&#xff;" horiz-adv-x="802" 
d="M241 803q-31 0 -53.5 21t-22.5 50t22.5 50.5t53.5 21.5q30 0 53 -22t23 -50t-23 -49.5t-53 -21.5zM581 803q-31 0 -53.5 21t-22.5 50t22.5 50.5t53.5 21.5q30 0 53 -22t23 -50t-23 -49.5t-53 -21.5zM784 671q7 -66 4 -141t-28 -164.5t-62.5 -174t-100 -169.5t-140.5 -151
q-152 -125 -331 -127q-59 0 -96 17q-20 44 -2 86l22 12q34 -15 77 -14q136 0 274 131q24 22 45 45q-90 57 -169.5 148.5t-131.5 186t-83.5 168.5t-46.5 128l7 18q60 15 115 1q15 -48 41 -109t71 -147t115 -170.5t150 -140.5q172 241 153 557q37 25 117 10z" />
    <glyph glyph-name="Amacron" unicode="&#x100;" horiz-adv-x="1041" 
d="M767 1065v-81h-494v81h494zM580 899q26 -50 132 -267t192.5 -386.5t123.5 -227.5l-7 -18q-101 0 -134 13q-22 31 -102 198h-539l-99 -211h-134l442 899q21 9 63 8.5t62 -8.5zM293 310h445q-84 179 -219 480z" />
    <glyph glyph-name="amacron" unicode="&#x101;" horiz-adv-x="788" 
d="M679 927v-90h-526v90h526zM722 206q1 -87 8 -124.5t24 -68.5l-2 -13h-110q-13 12 -20 23t-13.5 39t-6.5 71v15q-60 -77 -148 -121.5t-183 -44.5q-102 0 -165 49t-63 126q0 118 130.5 189.5t329.5 74.5q43 0 86 -3q-8 92 -58.5 143.5t-132.5 51.5q-110 0 -253 -85
q-38 14 -46 81q159 98 303 98q149 0 233.5 -87.5t85.5 -251.5zM590 328l2 13q-48 3 -95 3q-149 -1 -239.5 -48t-90.5 -120q0 -45 33.5 -72t94.5 -27q115 0 200 79t95 172z" />
    <glyph glyph-name="Abreve" unicode="&#x102;" horiz-adv-x="1041" 
d="M520 950q-107 0 -173 48.5t-66 141.5h84q0 -51 42 -83.5t113 -32.5q69 0 111.5 33.5t42.5 82.5h85q0 -90 -68 -140t-171 -50zM580 899q26 -50 132 -267t192.5 -386.5t123.5 -227.5l-7 -18q-101 0 -134 13q-22 31 -102 198h-539l-99 -211h-134l442 899q21 9 63 8.5
t62 -8.5zM293 310h445q-84 179 -219 480z" />
    <glyph glyph-name="abreve" unicode="&#x103;" horiz-adv-x="788" 
d="M411 769q-114 0 -187 55.5t-73 159.5h91q0 -59 45.5 -95.5t123.5 -36.5q79 0 125.5 37.5t46.5 94.5h91q0 -101 -76 -158t-187 -57zM722 206q1 -87 8 -124.5t24 -68.5l-2 -13h-110q-13 12 -20 23t-13.5 39t-6.5 71v15q-60 -77 -148 -121.5t-183 -44.5q-102 0 -165 49
t-63 126q0 118 130.5 189.5t329.5 74.5q43 0 86 -3q-8 92 -58.5 143.5t-132.5 51.5q-110 0 -253 -85q-38 14 -46 81q159 98 303 98q149 0 233.5 -87.5t85.5 -251.5zM590 328l2 13q-48 3 -95 3q-149 -1 -239.5 -48t-90.5 -120q0 -45 33.5 -72t94.5 -27q115 0 200 79t95 172z
" />
    <glyph glyph-name="Aogonek" unicode="&#x104;" horiz-adv-x="1041" 
d="M1008 -207l56 -46q-29 -41 -77.5 -68t-94.5 -27q-61 -1 -100.5 32.5t-39.5 98.5q0 53 35 120t96 116q-22 34 -98 192h-539l-99 -211h-134l442 899q21 9 63 8.5t62 -8.5q26 -50 132 -267t192.5 -386.5t123.5 -227.5l-7 -18q-57 0 -70 1q-111 -107 -111 -199
q0 -31 19.5 -47t49.5 -14q26 0 54.5 15t44.5 37zM293 310h445q-84 179 -219 480z" />
    <glyph glyph-name="aogonek" unicode="&#x105;" horiz-adv-x="788" 
d="M764 -215l56 -46q-29 -41 -77.5 -68t-94.5 -27q-61 -1 -100.5 32.5t-39.5 98.5q0 52 33.5 118t92.5 114q-31 34 -32 126v15q-60 -77 -148 -121.5t-183 -44.5q-102 0 -165 49t-63 126q0 118 130.5 189.5t329.5 74.5q43 0 86 -3q-8 92 -58.5 143.5t-132.5 51.5
q-110 0 -253 -85q-38 14 -46 81q159 98 303 98q149 0 233.5 -87.5t85.5 -251.5l1 -162q1 -87 8 -124.5t24 -68.5l-2 -13h-38q-118 -109 -118 -206q0 -31 19.5 -47t49.5 -14q26 0 54.5 15t44.5 37zM590 328l2 13q-48 3 -95 3q-149 -1 -239.5 -48t-90.5 -120q0 -45 33.5 -72
t94.5 -27q115 0 200 79t95 172z" />
    <glyph glyph-name="Cacute" unicode="&#x106;" horiz-adv-x="946" 
d="M484 976l175 196h119l-214 -196h-80zM526 -20q-137 0 -248 55t-177.5 163.5t-66.5 253.5q0 132 67 240t180.5 168.5t249.5 61.5q172 1 276.5 -92t94.5 -238q-81 -19 -121 -8q4 103 -67 169.5t-184 64.5q-157 -1 -263.5 -109t-106.5 -265q0 -162 102.5 -261t263.5 -99
q74 0 153.5 22t143.5 65q25 -10 42.5 -37.5t18.5 -45.5q-76 -53 -174.5 -80.5t-183.5 -27.5z" />
    <glyph glyph-name="cacute" unicode="&#x107;" horiz-adv-x="766" 
d="M358 783l151 248h127l-199 -248h-79zM390 -18q-150 -1 -254.5 93.5t-104.5 253.5q0 161 114.5 269.5t273.5 108.5q150 0 236.5 -92.5t78.5 -234.5q-80 -21 -122 -8q2 106 -50.5 170t-149.5 64q-104 0 -181 -80t-77 -198q0 -109 69 -177.5t170 -67.5q131 0 249 94
q23 -8 39 -27.5t21 -33t5 -17.5q-144 -117 -317 -117z" />
    <glyph glyph-name="Cdotaccent" unicode="&#x10a;" horiz-adv-x="946" 
d="M530 1003q-25 0 -43.5 17.5t-18.5 40.5t18.5 40.5t43.5 17.5t43.5 -17.5t18.5 -40.5t-18.5 -40.5t-43.5 -17.5zM526 -20q-137 0 -248 55t-177.5 163.5t-66.5 253.5q0 132 67 240t180.5 168.5t249.5 61.5q172 1 276.5 -92t94.5 -238q-81 -19 -121 -8q4 103 -67 169.5
t-184 64.5q-157 -1 -263.5 -109t-106.5 -265q0 -162 102.5 -261t263.5 -99q74 0 153.5 22t143.5 65q25 -10 42.5 -37.5t18.5 -45.5q-76 -53 -174.5 -80.5t-183.5 -27.5z" />
    <glyph glyph-name="cdotaccent" unicode="&#x10b;" horiz-adv-x="766" 
d="M412 802q-31 0 -53.5 21t-22.5 50t22.5 50.5t53.5 21.5t53.5 -21.5t22.5 -50.5t-22.5 -50t-53.5 -21zM390 -18q-150 -1 -254.5 93.5t-104.5 253.5q0 161 114.5 269.5t273.5 108.5q150 0 236.5 -92.5t78.5 -234.5q-80 -21 -122 -8q2 106 -50.5 170t-149.5 64
q-104 0 -181 -80t-77 -198q0 -109 69 -177.5t170 -67.5q131 0 249 94q23 -8 39 -27.5t21 -33t5 -17.5q-144 -117 -317 -117z" />
    <glyph glyph-name="Ccaron" unicode="&#x10c;" horiz-adv-x="946" 
d="M562 971h-61l-230 228h115l146 -146l145 146h114zM902 592q-81 -19 -121 -8q4 103 -67 169.5t-184 64.5q-157 -1 -263.5 -109t-106.5 -265q0 -162 102.5 -261t263.5 -99q74 0 153.5 22t143.5 65q25 -10 42.5 -37.5t18.5 -45.5q-76 -53 -174.5 -80.5t-183.5 -27.5
q-137 0 -248 55t-177.5 163.5t-66.5 253.5q0 132 67 240t180.5 168.5t249.5 61.5q172 1 276.5 -92t94.5 -238z" />
    <glyph glyph-name="ccaron" unicode="&#x10d;" horiz-adv-x="766" 
d="M443 783h-61l-230 235h115l146 -154l145 154h114zM734 380q-80 -21 -122 -8q2 106 -50.5 170t-149.5 64q-104 0 -181 -80t-77 -198q0 -109 69 -177.5t170 -67.5q131 0 249 94q23 -8 39 -27.5t21 -33t5 -17.5q-144 -117 -317 -117q-150 -1 -254.5 93.5t-104.5 253.5
q0 161 114.5 269.5t273.5 108.5q150 0 236.5 -92.5t78.5 -234.5z" />
    <glyph glyph-name="Dcaron" unicode="&#x10e;" horiz-adv-x="978" 
d="M449 971h-61l-230 228h115l146 -146l145 146h114zM418 922q243 0 384.5 -126.5t141.5 -333.5q0 -218 -136 -349t-367 -131q-130 0 -202.5 8.5t-170.5 34.5v859q152 38 350 38zM817 459q1 161 -107.5 262.5t-297.5 101.5q-123 0 -222 -16v-702q103 -25 246 -25
q178 0 279.5 104t101.5 275z" />
    <glyph glyph-name="dcaron" unicode="&#x10f;" horiz-adv-x="958" 
d="M954 1071h115l-44 -333h-87zM771 934v-754q0 -105 15 -164v-16h-102q-29 50 -32 134q-45 -69 -116.5 -110.5t-160.5 -41.5q-146 0 -239 96t-93 244q0 165 103 275t266 110q76 0 139.5 -37.5t99.5 -100.5v365q18 6 59 6t61 -6zM389 83q110 0 181 92t71 224q0 86 -62 146.5
t-147 60.5q-113 0 -189.5 -80t-76.5 -198q0 -108 62 -176.5t161 -68.5z" />
    <glyph glyph-name="Dcroat" unicode="&#x110;" horiz-adv-x="1044" 
d="M484 922q244 0 385.5 -126.5t141.5 -333.5q0 -218 -136 -349t-367 -131q-130 0 -203 8.5t-171 34.5v396h-87v94h87v369q153 38 350 38zM884 459q1 160 -108 262t-297 102q-124 0 -223 -16v-292h305v-94h-305v-316q103 -25 247 -25q178 0 279.5 104t101.5 275z" />
    <glyph glyph-name="dcroat" unicode="&#x111;" horiz-adv-x="846" 
d="M862 776h-103v-596q0 -105 15 -164v-16h-103q-28 52 -31 134q-45 -69 -116.5 -110.5t-160.5 -41.5q-146 0 -239 96t-93 244q0 165 103 275t266 110q76 0 139.5 -37.5t99.5 -100.5v207h-268v64h268v94q18 6 59 6t61 -6v-94h103v-64zM377 83q110 0 181 92t71 224
q0 86 -62 146.5t-147 60.5q-113 0 -189.5 -80t-76.5 -198q0 -108 62 -176.5t161 -68.5z" />
    <glyph glyph-name="Emacron" unicode="&#x112;" horiz-adv-x="873" 
d="M695 1065v-81h-494v81h494zM827 99q12 -13 12 -46.5t-12 -52.5h-759v886l13 13h722q7 -22 -1 -52.5t-20 -46.5h-592v-316h526q6 -23 -1.5 -55.5t-20.5 -43.5h-504v-286h637z" />
    <glyph glyph-name="emacron" unicode="&#x113;" horiz-adv-x="769" 
d="M678 927v-90h-526v90h526zM413 707q151 0 243 -91.5t83 -251.5l-19 -23l-561 -82q19 -83 84 -130t154 -47q127 2 247 92q18 -7 32 -25.5t19 -31.5t5 -16q-145 -119 -316 -119q-96 -1 -175 37.5t-128 116t-50 181.5q-2 163 108 276.5t274 113.5zM614 405q1 97 -53.5 152.5
t-147.5 55.5q-102 0 -177 -78t-83 -191z" />
    <glyph glyph-name="Ebreve" unicode="&#x114;" horiz-adv-x="873" 
d="M448 950q-106 0 -172.5 48.5t-66.5 140.5h84q0 -50 42.5 -82.5t112.5 -32.5t112.5 33t42.5 82h84q0 -89 -68 -139t-171 -50zM827 99q12 -13 12 -46.5t-12 -52.5h-759v886l13 13h722q7 -22 -1 -52.5t-20 -46.5h-592v-316h526q6 -23 -1.5 -55.5t-20.5 -43.5h-504v-286h637z
" />
    <glyph glyph-name="ebreve" unicode="&#x115;" horiz-adv-x="769" 
d="M410 769q-114 0 -187 55.5t-73 159.5h91q0 -59 45.5 -95.5t123.5 -36.5q79 0 125.5 37.5t46.5 94.5h91q0 -101 -76 -158t-187 -57zM413 707q151 0 243 -91.5t83 -251.5l-19 -23l-561 -82q19 -83 84 -130t154 -47q127 2 247 92q18 -7 32 -25.5t19 -31.5t5 -16
q-145 -119 -316 -119q-96 -1 -175 37.5t-128 116t-50 181.5q-2 163 108 276.5t274 113.5zM614 405q1 97 -53.5 152.5t-147.5 55.5q-102 0 -177 -78t-83 -191z" />
    <glyph glyph-name="Edotaccent" unicode="&#x116;" horiz-adv-x="873" 
d="M447 980q-25 0 -43.5 17.5t-18.5 40.5t18.5 40.5t43.5 17.5t43.5 -17.5t18.5 -40.5t-18.5 -40.5t-43.5 -17.5zM827 99q12 -13 12 -46.5t-12 -52.5h-759v886l13 13h722q7 -22 -1 -52.5t-20 -46.5h-592v-316h526q6 -23 -1.5 -55.5t-20.5 -43.5h-504v-286h637z" />
    <glyph glyph-name="edotaccent" unicode="&#x117;" horiz-adv-x="769" 
d="M412 802q-31 0 -53.5 21t-22.5 50t22.5 50.5t53.5 21.5t53.5 -21.5t22.5 -50.5t-22.5 -50t-53.5 -21zM413 707q151 0 243 -91.5t83 -251.5l-19 -23l-561 -82q19 -83 84 -130t154 -47q127 2 247 92q18 -7 32 -25.5t19 -31.5t5 -16q-145 -119 -316 -119q-96 -1 -175 37.5
t-128 116t-50 181.5q-2 163 108 276.5t274 113.5zM614 405q1 97 -53.5 152.5t-147.5 55.5q-102 0 -177 -78t-83 -191z" />
    <glyph glyph-name="Eogonek" unicode="&#x118;" horiz-adv-x="873" 
d="M507 0q-110 -107 -110 -199q0 -31 19.5 -47t49.5 -14q26 0 54.5 15t44.5 37l56 -46q-29 -41 -77.5 -68t-94.5 -27q-61 -1 -100.5 32.5t-39.5 98.5q0 48 29 108.5t81 109.5h-351v886l13 13h722q7 -22 -1 -52.5t-20 -46.5h-592v-316h526q6 -23 -1.5 -55.5t-20.5 -43.5h-504
v-286h637q12 -13 12 -46.5t-12 -52.5h-320z" />
    <glyph glyph-name="eogonek" unicode="&#x119;" horiz-adv-x="769" 
d="M413 707q151 0 243 -91.5t83 -251.5l-19 -23l-561 -82q19 -83 84 -130t154 -47q127 2 247 92q18 -7 32 -25.5t19 -31.5t5 -16q-132 -108 -288 -118q-111 -107 -111 -200q0 -31 19.5 -47t49.5 -14q26 0 54.5 15t44.5 37l56 -46q-29 -41 -77.5 -68t-94.5 -27
q-61 -1 -100.5 32.5t-39.5 98.5q0 49 30 110.5t84 110.5q-128 17 -211.5 104.5t-84.5 227.5q-2 163 108 276.5t274 113.5zM614 405q1 97 -53.5 152.5t-147.5 55.5q-102 0 -177 -78t-83 -191z" />
    <glyph glyph-name="Ecaron" unicode="&#x11a;" horiz-adv-x="873" 
d="M478 948h-61l-230 228h115l146 -146l145 146h114zM827 99q12 -13 12 -46.5t-12 -52.5h-759v886l13 13h722q7 -22 -1 -52.5t-20 -46.5h-592v-316h526q6 -23 -1.5 -55.5t-20.5 -43.5h-504v-286h637z" />
    <glyph glyph-name="ecaron" unicode="&#x11b;" horiz-adv-x="769" 
d="M443 783h-61l-230 235h115l146 -154l145 154h114zM413 707q151 0 243 -91.5t83 -251.5l-19 -23l-561 -82q19 -83 84 -130t154 -47q127 2 247 92q18 -7 32 -25.5t19 -31.5t5 -16q-145 -119 -316 -119q-96 -1 -175 37.5t-128 116t-50 181.5q-2 163 108 276.5t274 113.5z
M614 405q1 97 -53.5 152.5t-147.5 55.5q-102 0 -177 -78t-83 -191z" />
    <glyph glyph-name="Gbreve" unicode="&#x11e;" horiz-adv-x="973" 
d="M520 972q-107 0 -173 48.5t-66 141.5h84q0 -51 42 -83.5t113 -32.5q69 0 111.5 33.5t42.5 82.5h85q0 -90 -68 -140t-171 -50zM522 818q-166 0 -264 -106.5t-98 -265.5q0 -163 103.5 -262t274.5 -99q154 0 271 57v209h-332q-6 24 2 56t20 43h414l16 -17v-345
q-71 -51 -179 -78.5t-212 -27.5q-219 0 -361.5 127t-142.5 343q0 92 33.5 176.5t94.5 150t153.5 104.5t203.5 39q178 0 296.5 -88.5t114.5 -221.5q-28 -6 -64.5 -9.5t-63.5 1.5q-4 99 -83 156.5t-197 57.5z" />
    <glyph glyph-name="gbreve" unicode="&#x11f;" horiz-adv-x="824" 
d="M406 754q-114 0 -187 55.5t-73 159.5h91q0 -59 45.5 -95.5t123.5 -36.5q79 0 125.5 37.5t46.5 94.5h91q0 -101 -76 -158t-187 -57zM661 680q48 5 105 -8v-16q-13 -85 -13 -159v-413q0 -175 -99 -273.5t-260 -99.5q-173 0 -335 114q4 28 16.5 52.5t31.5 35.5
q157 -103 276 -101q115 0 187.5 72.5t72.5 196.5v64q-40 -74 -114 -118.5t-162 -44.5q-145 0 -241 91t-95 245q0 166 102 277t260 111q86 0 151 -38.5t101 -100.5v25zM374 83q107 0 179.5 87.5t73.5 234.5q-1 73 -62.5 137t-148.5 64q-115 0 -188 -82.5t-74 -196.5
q0 -105 60 -174.5t160 -69.5z" />
    <glyph glyph-name="Gdotaccent" unicode="&#x120;" horiz-adv-x="973" 
d="M519 1003q-25 0 -43.5 17.5t-18.5 40.5t18.5 40.5t43.5 17.5t43.5 -17.5t18.5 -40.5t-18.5 -40.5t-43.5 -17.5zM522 818q-166 0 -264 -106.5t-98 -265.5q0 -163 103.5 -262t274.5 -99q154 0 271 57v209h-332q-6 24 2 56t20 43h414l16 -17v-345q-71 -51 -179 -78.5
t-212 -27.5q-219 0 -361.5 127t-142.5 343q0 92 33.5 176.5t94.5 150t153.5 104.5t203.5 39q178 0 296.5 -88.5t114.5 -221.5q-28 -6 -64.5 -9.5t-63.5 1.5q-4 99 -83 156.5t-197 57.5z" />
    <glyph glyph-name="gdotaccent" unicode="&#x121;" horiz-adv-x="824" 
d="M408 787q-31 0 -53.5 21t-22.5 50t22.5 50.5t53.5 21.5t53.5 -21.5t22.5 -50.5t-22.5 -50t-53.5 -21zM661 680q48 5 105 -8v-16q-13 -85 -13 -159v-413q0 -175 -99 -273.5t-260 -99.5q-173 0 -335 114q4 28 16.5 52.5t31.5 35.5q157 -103 276 -101q115 0 187.5 72.5
t72.5 196.5v64q-40 -74 -114 -118.5t-162 -44.5q-145 0 -241 91t-95 245q0 166 102 277t260 111q86 0 151 -38.5t101 -100.5v25zM374 83q107 0 179.5 87.5t73.5 234.5q-1 73 -62.5 137t-148.5 64q-115 0 -188 -82.5t-74 -196.5q0 -105 60 -174.5t160 -69.5z" />
    <glyph glyph-name="uni0122" unicode="&#x122;" horiz-adv-x="973" 
d="M522 818q-166 0 -264 -106.5t-98 -265.5q0 -163 103.5 -262t274.5 -99q154 0 271 57v209h-332q-6 24 2 56t20 43h414l16 -17v-345q-71 -51 -179 -78.5t-212 -27.5q-219 0 -361.5 127t-142.5 343q0 92 33.5 176.5t94.5 150t153.5 104.5t203.5 39q178 0 296.5 -88.5
t114.5 -221.5q-28 -6 -64.5 -9.5t-63.5 1.5q-4 99 -83 156.5t-197 57.5zM422 -309l41 224h95l-54 -224h-82z" />
    <glyph glyph-name="uni0123" unicode="&#x123;" horiz-adv-x="824" 
d="M502 1043l-54 -236h-96l68 236h82zM661 680q48 5 105 -8v-16q-13 -85 -13 -159v-413q0 -175 -99 -273.5t-260 -99.5q-173 0 -335 114q4 28 16.5 52.5t31.5 35.5q157 -103 276 -101q115 0 187.5 72.5t72.5 196.5v64q-40 -74 -114 -118.5t-162 -44.5q-145 0 -241 91
t-95 245q0 166 102 277t260 111q86 0 151 -38.5t101 -100.5v25zM374 83q107 0 179.5 87.5t73.5 234.5q-1 73 -62.5 137t-148.5 64q-115 0 -188 -82.5t-74 -196.5q0 -105 60 -174.5t160 -69.5z" />
    <glyph glyph-name="Hcircumflex" unicode="&#x124;" horiz-adv-x="932" 
d="M469 1098l-146 -147h-107l220 223h66l219 -223h-107zM743 899q23 8 63 7t59 -7v-899h-122v360h-553v-360h-122v899q24 8 64 7t58 -7v-441h553v441z" />
    <glyph glyph-name="hcircumflex" unicode="&#x125;" horiz-adv-x="807" 
d="M417 1111l-146 -148h-115l230 235h61l229 -235h-114zM477 707q141 0 213.5 -89.5t72.5 -254.5v-363h-120v349q0 117 -48.5 184t-142.5 67q-109 0 -191.5 -98.5t-82.5 -221.5v-280h-120v934q20 6 60.5 6t59.5 -6v-390q51 73 130 118t169 45z" />
    <glyph glyph-name="Hbar" unicode="&#x126;" horiz-adv-x="1008" 
d="M954 700v-92h-50v-608h-122v360h-553v-360h-122v608h-54v92h54v199q24 8 64 7t58 -7v-199h553v199q24 8 64 7t58 -7v-199h50zM782 458v150h-553v-150h553z" />
    <glyph glyph-name="hbar" unicode="&#x127;" horiz-adv-x="789" 
d="M459 707q141 0 213.5 -89.5t72.5 -254.5v-363h-120v349q0 117 -48.5 184t-142.5 67q-109 0 -191.5 -98.5t-82.5 -221.5v-280h-120v799h-80v62h80v73q20 6 60.5 6t59.5 -6v-73h347v-62h-347v-255q51 73 130 118t169 45z" />
    <glyph glyph-name="Imacron" unicode="&#x12a;" horiz-adv-x="254" 
d="M-32 984v81h316v-81h-316zM68 0v899q22 8 61.5 7t56.5 -7v-899h-118z" />
    <glyph glyph-name="imacron" unicode="&#x12b;" horiz-adv-x="271" 
d="M-84 837v90h442v-90h-442zM76 0v671q19 6 61 6t59 -6v-671h-120z" />
    <glyph glyph-name="Iogonek" unicode="&#x12e;" horiz-adv-x="254" 
d="M209 -200l56 -46q-29 -41 -77.5 -68t-94.5 -27q-61 -1 -100.5 32.5t-39.5 98.5q0 49 30.5 111.5t84.5 111.5v886q22 8 61.5 7t56.5 -7v-899h-43q-102 -102 -102 -191q0 -31 19.5 -47t49.5 -14q26 0 54.5 15t44.5 37z" />
    <glyph glyph-name="iogonek" unicode="&#x12f;" horiz-adv-x="271" 
d="M135 802q-31 0 -53.5 21t-22.5 50t22.5 50.5t53.5 21.5t53.5 -21.5t22.5 -50.5t-22.5 -50t-53.5 -21zM245 -219l56 -46q-29 -41 -77.5 -68t-94.5 -27q-61 -1 -100.5 32.5t-39.5 98.5q0 51 32.5 115.5t89.5 113.5h-35v671q19 6 61 6t59 -6v-669l4 -1q-123 -113 -123 -211
q0 -31 19.5 -47t49.5 -14q26 0 54.5 15t44.5 37z" />
    <glyph glyph-name="Idotaccent" unicode="&#x130;" horiz-adv-x="254" 
d="M126 980q-25 0 -43.5 17.5t-18.5 40.5t18.5 40.5t43.5 17.5t43.5 -17.5t18.5 -40.5t-18.5 -40.5t-43.5 -17.5zM68 0v899q22 8 61.5 7t56.5 -7v-899h-118z" />
    <glyph glyph-name="dotlessi" unicode="&#x131;" horiz-adv-x="271" 
d="M76 0v671q19 6 61 6t59 -6v-671h-120z" />
    <glyph glyph-name="IJ" unicode="&#x132;" horiz-adv-x="1134" 
d="M68 0v899q22 8 61.5 7t56.5 -7v-899h-118zM645 -18q-112 0 -220 51.5t-192 137.5q9 30 29.5 53.5t42.5 30.5q67 -76 154.5 -123t175.5 -47q140 0 219 86.5t79 226.5v501q27 7 66 6t56 -6v-527q0 -104 -46.5 -191.5t-142 -143t-221.5 -55.5z" />
    <glyph glyph-name="ij" unicode="&#x133;" horiz-adv-x="574" 
d="M135 802q-31 0 -53.5 21t-22.5 50t22.5 50.5t53.5 21.5t53.5 -21.5t22.5 -50.5t-22.5 -50t-53.5 -21zM425 802q-30 0 -53 21.5t-23 49.5t23 50t53 22q31 0 54 -21.5t23 -50.5q0 -28 -23 -49.5t-54 -21.5zM76 0v671q19 6 61 6t59 -6v-671h-120zM315 -243q-50 2 -103 18
q-7 23 1.5 56t24.5 49q36 -12 59 -12q40 -1 55 40t15 144v619q20 6 62.5 6t58.5 -6v-682q0 -108 -42.5 -170t-130.5 -62z" />
    <glyph glyph-name="Jcircumflex" unicode="&#x134;" horiz-adv-x="939" 
d="M835 1174l219 -223h-107l-145 147l-146 -147h-107l220 223h66zM739 899q26 7 65 6t57 -6v-527q0 -162 -111 -276t-300 -114q-112 0 -220 51.5t-192 137.5q9 30 29.5 53.5t42.5 30.5q66 -76 154 -123t176 -47q140 0 219.5 86.5t79.5 226.5v501z" />
    <glyph glyph-name="jcircumflex" unicode="&#x135;" horiz-adv-x="303" 
d="M186 1003l229 -235h-114l-145 148l-146 -148h-115l230 235h61zM96 671q20 6 62 6t59 -6v-682q0 -108 -42.5 -170t-130.5 -62q-50 2 -103 18q-7 23 1.5 56t24.5 49q36 -12 59 -12q40 -1 55 40t15 144v619z" />
    <glyph glyph-name="uni0136" unicode="&#x136;" horiz-adv-x="1033" 
d="M554 461q124 -128 177.5 -182.5t135.5 -128.5t147 -120l-1 -19q-60 -19 -134 -19q-96 56 -432 412q-123 -61 -257 -116v-288h-122v899q23 8 64 7t58 -7v-500q229 100 350 174q288 172 278 322q50 19 118 5q13 -87 -62 -190t-222 -193q-49 -30 -98 -56zM392 -300l41 224
h95l-54 -224h-82z" />
    <glyph glyph-name="uni0137" unicode="&#x137;" horiz-adv-x="881" 
d="M512 337q93 -91 124 -120.5t86 -81t82 -72t48 -30.5v-21q-19 -7 -63.5 -12.5t-82.5 -4.5q-53 21 -303 278q-99 -55 -225 -108v-165h-120v934q24 8 61.5 8t58.5 -8v-654q107 47 246 132q112 68 164.5 125.5t48.5 124.5q56 18 137 9q32 -153 -235 -317zM328 -299l41 224h95
l-54 -224h-82z" />
    <glyph glyph-name="kgreenlandic" unicode="&#x138;" horiz-adv-x="881" 
d="M512 337q93 -91 124 -120.5t86 -81t82 -72t48 -30.5v-21q-19 -7 -63.5 -12.5t-82.5 -4.5q-53 21 -303 278q-99 -55 -225 -108v-165h-120v671q25 8 61.5 7.5t58.5 -7.5v-391q107 47 246 132q111 68 164 127t49 127q53 23 137 10q33 -159 -235 -322z" />
    <glyph glyph-name="Lacute" unicode="&#x139;" horiz-adv-x="859" 
d="M86 948l175 196h119l-214 -196h-80zM93 0l-25 24v875q22 8 62.5 7t59.5 -7v-800h631q12 -15 12 -47.5t-12 -51.5h-728z" />
    <glyph glyph-name="lacute" unicode="&#x13a;" horiz-adv-x="367" 
d="M91 988l175 196h119l-214 -196h-80zM232 -18q-79 -1 -118.5 50t-39.5 156v746q21 7 59 7t62 -7v-714q0 -74 18 -107t57 -33q21 0 64 12q10 -13 13.5 -41.5t-2.5 -47.5q-65 -20 -113 -21z" />
    <glyph glyph-name="uni013B" unicode="&#x13b;" horiz-adv-x="859" 
d="M93 0l-25 24v875q22 8 62.5 7t59.5 -7v-800h631q12 -15 12 -47.5t-12 -51.5h-728zM355 -299l41 224h95l-54 -224h-82z" />
    <glyph glyph-name="uni013C" unicode="&#x13c;" horiz-adv-x="367" 
d="M232 -18q-79 -1 -118.5 50t-39.5 156v746q21 7 59 7t62 -7v-714q0 -74 18 -107t57 -33q21 0 64 12q10 -13 13.5 -41.5t-2.5 -47.5q-65 -20 -113 -21zM142 -311l41 224h95l-54 -224h-82z" />
    <glyph glyph-name="Lcaron" unicode="&#x13d;" horiz-adv-x="859" 
d="M562 828l16 333h114l-43 -333h-87zM93 0l-25 24v875q22 8 62.5 7t59.5 -7v-800h631q12 -15 12 -47.5t-12 -51.5h-728z" />
    <glyph glyph-name="lcaron" unicode="&#x13e;" horiz-adv-x="367" 
d="M344 852l16 333h114l-43 -333h-87zM232 -18q-79 -1 -118.5 50t-39.5 156v746q21 7 59 7t62 -7v-714q0 -74 18 -107t57 -33q21 0 64 12q10 -13 13.5 -41.5t-2.5 -47.5q-65 -20 -113 -21z" />
    <glyph glyph-name="Lslash" unicode="&#x141;" horiz-adv-x="951" 
d="M914 99q12 -15 11.5 -47.5t-11.5 -51.5h-729l-25 24v302l-112 -41v110l112 41v463q23 8 63 7t59 -7v-419l320 117v-110l-320 -117v-271h632z" />
    <glyph glyph-name="lslash" unicode="&#x142;" horiz-adv-x="384" 
d="M345 92q9 -13 12.5 -41.5t-1.5 -47.5q-65 -20 -113 -21q-79 -1 -118.5 50t-39.5 156v268l-104 -47v99l104 47v379q21 7 59 7t62 -7v-325l139 62v-98l-139 -63v-290q0 -74 18 -107t57 -33q21 0 64 12z" />
    <glyph glyph-name="Nacute" unicode="&#x143;" horiz-adv-x="1038" 
d="M767 1149l-214 -196h-80l175 196h119zM848 899q24 8 64 7t58 -7v-899h-92l-688 707v-707h-122v873q12 14 44.5 23.5t48.5 4.5l687 -713v711z" />
    <glyph glyph-name="nacute" unicode="&#x144;" horiz-adv-x="834" 
d="M686 1031l-199 -248h-79l151 248h127zM481 707q146 0 220.5 -89.5t74.5 -254.5v-363h-120v343q0 123 -49 191.5t-145 68.5q-106 0 -188 -99t-82 -220v-284h-121v512q0 81 -13 140v18q65 14 114 9q12 -38 12 -86v-56q50 74 129.5 122t167.5 48z" />
    <glyph glyph-name="uni0145" unicode="&#x145;" horiz-adv-x="1038" 
d="M848 899q24 8 64 7t58 -7v-899h-92l-688 707v-707h-122v873q12 14 44.5 23.5t48.5 4.5l687 -713v711zM435 -299l41 224h95l-54 -224h-82z" />
    <glyph glyph-name="uni0146" unicode="&#x146;" horiz-adv-x="834" 
d="M481 707q146 0 220.5 -89.5t74.5 -254.5v-363h-120v343q0 123 -49 191.5t-145 68.5q-106 0 -188 -99t-82 -220v-284h-121v512q0 81 -13 140v18q65 14 114 9q12 -38 12 -86v-56q50 74 129.5 122t167.5 48zM344 -299l41 224h95l-54 -224h-82z" />
    <glyph glyph-name="Ncaron" unicode="&#x147;" horiz-adv-x="1038" 
d="M550 948h-61l-230 228h115l146 -146l145 146h114zM848 899q24 8 64 7t58 -7v-899h-92l-688 707v-707h-122v873q12 14 44.5 23.5t48.5 4.5l687 -713v711z" />
    <glyph glyph-name="ncaron" unicode="&#x148;" horiz-adv-x="834" 
d="M493 783h-61l-230 235h115l146 -154l145 154h114zM481 707q146 0 220.5 -89.5t74.5 -254.5v-363h-120v343q0 123 -49 191.5t-145 68.5q-106 0 -188 -99t-82 -220v-284h-121v512q0 81 -13 140v18q65 14 114 9q12 -38 12 -86v-56q50 74 129.5 122t167.5 48z" />
    <glyph glyph-name="Eng" unicode="&#x14a;" horiz-adv-x="1030" 
d="M552 -362q-112 0 -220.5 47t-191.5 125q9 29 29.5 53t42.5 31q68 -69 159 -111t182 -42q132 0 214.5 78t82.5 200l-660 681v-700h-122v862q12 13 44.5 22.5t48.5 4.5l679 -700v695q23 8 63.5 7t58.5 -7v-882q0 -152 -112.5 -258t-297.5 -106z" />
    <glyph glyph-name="eng" unicode="&#x14b;" horiz-adv-x="852" 
d="M481 707q146 0 220.5 -89.5t74.5 -254.5v-374q0 -109 -42 -170.5t-131 -61.5q-50 2 -102 18q-7 23 1.5 56t24.5 49q36 -12 59 -12q38 -1 54 37.5t16 132.5v305q0 120 -49 186t-145 66q-104 0 -187 -97t-83 -214v-284h-121v512q0 81 -13 140v18q65 14 114 9
q16 -52 16 -118v-34q48 82 127 131t166 49z" />
    <glyph glyph-name="Omacron" unicode="&#x14c;" horiz-adv-x="1019" 
d="M294 995v81h494v-81h-494zM464 -18q-192 0 -311 122t-119 302q0 144 69.5 262.5t190 186t265.5 67.5q120 0 218.5 -61t153 -162.5t54.5 -220.5q0 -134 -70 -248.5t-190 -181t-261 -66.5zM472 85q160 0 273 118t114 280q1 144 -87 239.5t-226 95.5q-163 0 -274.5 -118.5
t-111.5 -290.5q1 -136 83.5 -230t228.5 -94z" />
    <glyph glyph-name="omacron" unicode="&#x14d;" horiz-adv-x="823" 
d="M169 837v90h526v-90h-526zM387 -18q-166 0 -261 95.5t-95 239.5q0 161 118.5 275.5t292.5 114.5q160 0 254 -94t96 -240q2 -169 -112.5 -280t-292.5 -111zM393 83q119 0 198 83t79 195q0 104 -64.5 174.5t-170.5 70.5q-119 0 -200 -85.5t-81 -203.5q0 -99 62.5 -166.5
t176.5 -67.5z" />
    <glyph glyph-name="Ohungarumlaut" unicode="&#x150;" horiz-adv-x="1019" 
d="M350 979l146 180h113l-184 -180h-75zM570 979l165 180h123l-211 -180h-77zM464 -18q-192 0 -311 122t-119 302q0 144 69.5 262.5t190 186t265.5 67.5q120 0 218.5 -61t153 -162.5t54.5 -220.5q0 -134 -70 -248.5t-190 -181t-261 -66.5zM472 85q160 0 273 118t114 280
q1 144 -87 239.5t-226 95.5q-163 0 -274.5 -118.5t-111.5 -290.5q1 -136 83.5 -230t228.5 -94z" />
    <glyph glyph-name="ohungarumlaut" unicode="&#x151;" horiz-adv-x="823" 
d="M249 783l147 248h121l-188 -248h-80zM487 783l160 248h127l-206 -248h-81zM387 -18q-166 0 -261 95.5t-95 239.5q0 161 118.5 275.5t292.5 114.5q160 0 254 -94t96 -240q2 -169 -112.5 -280t-292.5 -111zM393 83q119 0 198 83t79 195q0 104 -64.5 174.5t-170.5 70.5
q-119 0 -200 -85.5t-81 -203.5q0 -99 62.5 -166.5t176.5 -67.5z" />
    <glyph glyph-name="OE" unicode="&#x152;" horiz-adv-x="1667" 
d="M1622 99q12 -13 12 -46.5t-12 -52.5h-757v163q-74 -84 -179 -132.5t-223 -48.5q-192 0 -310.5 121.5t-118.5 302.5q0 218 153 367t374 149q180 0 304 -132v82l13 12h719q7 -22 -1 -53t-20 -45h-589v-304h523q6 -23 -1.5 -55.5t-19.5 -43.5h-502v-284h635zM859 483
q1 144 -86.5 239.5t-225.5 95.5q-163 0 -275 -118.5t-112 -290.5q1 -136 84 -230t229 -94q159 0 272 118t114 280z" />
    <glyph glyph-name="oe" unicode="&#x153;" horiz-adv-x="1413" 
d="M1057 707q151 0 243 -92.5t83 -252.5l-19 -24l-559 -82q19 -82 83.5 -128t153.5 -45q125 0 246 91q18 -7 32 -25.5t19 -31.5t5 -16q-145 -119 -315 -119q-99 -1 -180.5 40.5t-127.5 118.5q-54 -75 -141 -117t-193 -42q-166 0 -261 95.5t-95 239.5q0 161 118.5 275.5
t292.5 114.5q105 0 183 -42t121 -117q52 74 133 116.5t178 42.5zM1259 406q1 96 -54.5 151.5t-147.5 55.5q-102 0 -177 -78t-82 -191zM393 83q119 0 198 83t79 195q0 104 -64.5 174.5t-170.5 70.5q-119 0 -200 -85.5t-81 -203.5q0 -99 62.5 -166.5t176.5 -67.5z" />
    <glyph glyph-name="Racute" unicode="&#x154;" horiz-adv-x="1017" 
d="M709 1162l-214 -196h-80l175 196h119zM645 314q195 -200 323 -288l-1 -20q-47 -15 -136 -15q-69 35 -328 299q-18 -2 -54 -2q-125 0 -259 32v-320h-122v878q172 44 398 44q202 0 318.5 -84.5t116.5 -233.5q0 -105 -69.5 -180t-186.5 -110zM449 387q139 -1 232.5 56.5
t92.5 162.5q0 97 -83 157t-239 60q-152 0 -262 -24v-380q117 -31 259 -32z" />
    <glyph glyph-name="racute" unicode="&#x155;" horiz-adv-x="602" 
d="M535 1049l-199 -248h-79l151 248h127zM571 682q7 -20 -5 -54t-29 -51q-56 21 -102 21q-111 -1 -177 -88.5t-66 -217.5v-292h-121v512q0 81 -13 140v18q62 14 107 9q12 -43 12 -86v-71q36 82 105.5 133.5t159.5 51.5q60 0 129 -25z" />
    <glyph glyph-name="uni0156" unicode="&#x156;" horiz-adv-x="1017" 
d="M645 314q195 -200 323 -288l-1 -20q-47 -15 -136 -15q-69 35 -328 299q-18 -2 -54 -2q-125 0 -259 32v-320h-122v878q172 44 398 44q202 0 318.5 -84.5t116.5 -233.5q0 -105 -69.5 -180t-186.5 -110zM449 387q139 -1 232.5 56.5t92.5 162.5q0 97 -83 157t-239 60
q-152 0 -262 -24v-380q117 -31 259 -32zM421 -299l41 224h95l-54 -224h-82z" />
    <glyph glyph-name="uni0157" unicode="&#x157;" horiz-adv-x="602" 
d="M571 682q7 -20 -5 -54t-29 -51q-56 21 -102 21q-111 -1 -177 -88.5t-66 -217.5v-292h-121v512q0 81 -13 140v18q62 14 107 9q12 -43 12 -86v-71q36 82 105.5 133.5t159.5 51.5q60 0 129 -25zM50 -299l41 224h95l-54 -224h-82z" />
    <glyph glyph-name="Rcaron" unicode="&#x158;" horiz-adv-x="1017" 
d="M493 961h-61l-230 228h115l146 -146l145 146h114zM645 314q195 -200 323 -288l-1 -20q-47 -15 -136 -15q-69 35 -328 299q-18 -2 -54 -2q-125 0 -259 32v-320h-122v878q172 44 398 44q202 0 318.5 -84.5t116.5 -233.5q0 -105 -69.5 -180t-186.5 -110zM449 387
q139 -1 232.5 56.5t92.5 162.5q0 97 -83 157t-239 60q-152 0 -262 -24v-380q117 -31 259 -32z" />
    <glyph glyph-name="rcaron" unicode="&#x159;" horiz-adv-x="602" 
d="M342 801h-61l-230 235h115l146 -154l145 154h114zM571 682q7 -20 -5 -54t-29 -51q-56 21 -102 21q-111 -1 -177 -88.5t-66 -217.5v-292h-121v512q0 81 -13 140v18q62 14 107 9q12 -43 12 -86v-71q36 82 105.5 133.5t159.5 51.5q60 0 129 -25z" />
    <glyph glyph-name="Sacute" unicode="&#x15a;" horiz-adv-x="954" 
d="M450 976l175 196h119l-214 -196h-80zM507 -18q-275 0 -473 140q3 19 21.5 51t46.5 40q182 -132 399 -132q141 0 217 48t76 124q0 81 -78.5 117.5t-232.5 43.5q-162 7 -259 67.5t-96 176.5q0 81 54.5 143t136.5 91.5t177 29.5q195 0 304 -80t109 -194q-25 -7 -61 -10
t-63 2q-4 84 -80 133.5t-210 49.5q-103 0 -172 -45t-69 -116q0 -50 37 -84t89.5 -48.5t121.5 -17.5q418 -16 418 -252q0 -126 -111 -202t-302 -76z" />
    <glyph glyph-name="sacute" unicode="&#x15b;" horiz-adv-x="791" 
d="M348 783l151 248h127l-199 -248h-79zM408 -18q-99 0 -197.5 28.5t-171.5 84.5q5 21 19.5 46.5t35.5 39.5q64 -48 146.5 -73t163.5 -25q101 0 162 32t61 81q0 56 -56 80t-191 29q-306 16 -306 190q0 90 88.5 151t237.5 61q82 0 175.5 -20.5t165.5 -63.5q-8 -49 -36 -92
q-65 38 -145.5 56.5t-147.5 18.5q-105 0 -160.5 -33t-55.5 -77q0 -46 50 -70.5t159 -28.5q186 -8 265.5 -56.5t79.5 -143.5q0 -97 -97 -156t-245 -59z" />
    <glyph glyph-name="Scedilla" unicode="&#x15e;" horiz-adv-x="954" 
d="M920 260q0 -122 -104.5 -198t-286.5 -80q1 -14 7.5 -26.5t13 -20.5t21.5 -24.5t25 -29.5q47 -51 47 -107q1 -54 -39 -92.5t-99 -39.5q-75 0 -139 64l60 57q40 -41 78 -41q23 0 38 16.5t15 41.5q0 11 -6.5 24t-13 21.5t-20.5 24t-20 23.5q-29 33 -38.5 55.5t-10.5 55.5
q-240 14 -414 138q3 19 21.5 51t46.5 40q182 -132 399 -132q141 0 217 48t76 124q0 81 -78.5 117.5t-232.5 43.5q-162 7 -259 67.5t-96 176.5q0 81 54.5 143t136.5 91.5t177 29.5q195 0 304 -80t109 -194q-25 -7 -61 -10t-63 2q-4 84 -80 133.5t-210 49.5q-103 0 -172 -45
t-69 -116q0 -50 37 -84t89.5 -48.5t121.5 -17.5q418 -16 418 -252z" />
    <glyph glyph-name="scedilla" unicode="&#x15f;" horiz-adv-x="791" 
d="M750 197q0 -93 -89.5 -151.5t-229.5 -63.5q2 -13 8 -25t12.5 -19.5t21.5 -24t25 -28.5q47 -51 47 -106q1 -54 -39 -93t-99 -39q-74 -2 -139 63l60 58q39 -42 78 -42q23 1 38 17t15 41q0 12 -6.5 24.5t-13.5 21t-20.5 24.5t-20.5 24q-27 32 -36.5 54t-11.5 52
q-189 16 -311 111q5 21 19.5 46.5t35.5 39.5q64 -48 146.5 -73t163.5 -25q101 0 162 32t61 81q0 56 -56 80t-191 29q-306 16 -306 190q0 90 88.5 151t237.5 61q82 0 175.5 -20.5t165.5 -63.5q-8 -49 -36 -92q-65 38 -145.5 56.5t-147.5 18.5q-105 0 -160.5 -33t-55.5 -77
q0 -46 50 -70.5t159 -28.5q186 -8 265.5 -56.5t79.5 -143.5z" />
    <glyph glyph-name="Scaron" unicode="&#x160;" horiz-adv-x="954" 
d="M527 971h-61l-230 228h115l146 -146l145 146h114zM502 512q418 -16 418 -252q0 -126 -111 -202t-302 -76q-275 0 -473 140q3 19 21.5 51t46.5 40q182 -132 399 -132q141 0 217 48t76 124q0 81 -78.5 117.5t-232.5 43.5q-162 7 -259 67.5t-96 176.5q0 81 54.5 143
t136.5 91.5t177 29.5q195 0 304 -80t109 -194q-25 -7 -61 -10t-63 2q-4 84 -80 133.5t-210 49.5q-103 0 -172 -45t-69 -116q0 -50 37 -84t89.5 -48.5t121.5 -17.5z" />
    <glyph glyph-name="scaron" unicode="&#x161;" horiz-adv-x="791" 
d="M433 783h-61l-230 235h115l146 -154l145 154h114zM405 397q186 -8 265.5 -56.5t79.5 -143.5q0 -97 -97 -156t-245 -59q-99 0 -197.5 28.5t-171.5 84.5q5 21 19.5 46.5t35.5 39.5q64 -48 146.5 -73t163.5 -25q101 0 162 32t61 81q0 56 -56 80t-191 29q-306 16 -306 190
q0 90 88.5 151t237.5 61q82 0 175.5 -20.5t165.5 -63.5q-8 -49 -36 -92q-65 38 -145.5 56.5t-147.5 18.5q-105 0 -160.5 -33t-55.5 -77q0 -46 50 -70.5t159 -28.5z" />
    <glyph glyph-name="uni0162" unicode="&#x162;" horiz-adv-x="963" 
d="M532 800v-800h-29q0 -17 5.5 -31.5t11.5 -22.5t23.5 -27.5t27.5 -31.5q47 -51 47 -107q1 -54 -39 -92.5t-99 -39.5q-75 0 -139 64l60 57q40 -41 78 -41q23 0 38 16.5t15 41.5q0 11 -6.5 24t-13 21.5t-20.5 24t-20 23.5q-31 36 -40 59.5t-9 61.5h-18v800h-376q-5 21 -1 51
t14 48h892q6 -22 -1.5 -54t-19.5 -45h-381z" />
    <glyph glyph-name="uni0163" unicode="&#x163;" horiz-adv-x="580" 
d="M543 572h-311v-258q0 -110 44.5 -170t132.5 -60q50 0 111 19q12 -12 18.5 -45.5t0.5 -52.5q-78 -23 -142 -23q-27 0 -39 2q3 -14 10.5 -25.5t26 -32t28.5 -32.5q47 -51 47 -106q1 -54 -39 -93t-99 -39q-74 -2 -139 63l60 58q39 -42 78 -42q23 1 38 17t15 41
q0 12 -6.5 24.5t-13.5 21t-20.5 24.5t-20.5 24q-30 35 -39 58t-9 58q-164 68 -164 303v266h-97v99h97v179q20 11 55 17t66 0v-196h311v-99z" />
    <glyph glyph-name="Tcaron" unicode="&#x164;" horiz-adv-x="963" 
d="M500 948h-61l-230 228h115l146 -146l145 146h114zM934 899q6 -22 -1.5 -54t-19.5 -45h-381v-800h-127v800h-376q-5 21 -1 51t14 48h892z" />
    <glyph glyph-name="tcaron" unicode="&#x165;" horiz-adv-x="580" 
d="M576 1104l-43 -333h-87l16 333h114zM232 867v-196h311v-99h-311v-258q0 -110 44.5 -170t132.5 -60q50 0 111 19q12 -12 18.5 -45.5t0.5 -52.5q-78 -23 -142 -23q-132 -2 -209 81.5t-77 242.5v266h-97v99h97v179q20 11 55 17t66 0z" />
    <glyph glyph-name="Tbar" unicode="&#x166;" horiz-adv-x="981" 
d="M931 800h-382v-316h213v-90h-213v-394h-126v394h-207v90h207v316h-376q-5 21 -1 51t14 48h892q6 -22 -1.5 -54t-19.5 -45z" />
    <glyph glyph-name="tbar" unicode="&#x167;" horiz-adv-x="574" 
d="M538 593h-312v-138h312v-85h-312v-56q0 -110 45 -170t133 -60q50 0 110 19q13 -12 19.5 -45.5t-0.5 -52.5q-77 -23 -142 -23q-131 -2 -208 82t-77 242v64h-97v85h97v138h-97v86h97v171q20 11 55 17t65 0v-188h312v-86z" />
    <glyph glyph-name="Umacron" unicode="&#x16a;" horiz-adv-x="1036" 
d="M271 992v81h494v-81h-494zM505 -22q-212 0 -324.5 106.5t-112.5 308.5v506q21 7 64 6t60 -6v-511q0 -148 82 -227.5t231 -79.5q157 0 248 88.5t91 230.5v499q23 7 64.5 6t59.5 -6v-501q0 -185 -121.5 -302.5t-341.5 -117.5z" />
    <glyph glyph-name="umacron" unicode="&#x16b;" horiz-adv-x="822" 
d="M671 927v-90h-526v90h526zM753 195q0 -126 26 -180l-1 -15h-102q-17 19 -25 43.5t-8 79.5v5q-45 -68 -123.5 -107t-176.5 -39q-131 0 -208 74.5t-77 228.5v386q46 12 120 0v-365q0 -114 50 -168.5t139 -54.5q119 0 192.5 85.5t73.5 218.5v284q21 6 62.5 5t57.5 -5v-476z
" />
    <glyph glyph-name="Uring" unicode="&#x16e;" horiz-adv-x="1036" 
d="M520 893q-96 0 -154.5 39.5t-58.5 105.5q0 63 57 104t156 41q95 0 152 -40.5t57 -104.5q0 -63 -61 -104t-148 -41zM518 947q58 0 99 26.5t41 63.5q0 40 -40.5 65.5t-99.5 25.5q-62 0 -100.5 -26t-38.5 -65t38 -64.5t101 -25.5zM505 -22q-212 0 -324.5 106.5t-112.5 308.5
v506q21 7 64 6t60 -6v-511q0 -148 82 -227.5t231 -79.5q157 0 248 88.5t91 230.5v499q23 7 64.5 6t59.5 -6v-501q0 -185 -121.5 -302.5t-341.5 -117.5z" />
    <glyph glyph-name="uring" unicode="&#x16f;" horiz-adv-x="822" 
d="M406 769q-96 0 -154.5 39.5t-58.5 105.5q0 63 57 104t156 41q95 0 152 -40.5t57 -104.5q0 -63 -61 -104t-148 -41zM404 1005q-62 0 -100.5 -26t-38.5 -65q0 -40 38 -65t101 -25q58 0 99 26.5t41 63.5q0 40 -40.5 65.5t-99.5 25.5zM753 195q0 -126 26 -180l-1 -15h-102
q-17 19 -25 43.5t-8 79.5v5q-45 -68 -123.5 -107t-176.5 -39q-131 0 -208 74.5t-77 228.5v386q46 12 120 0v-365q0 -114 50 -168.5t139 -54.5q119 0 192.5 85.5t73.5 218.5v284q21 6 62.5 5t57.5 -5v-476z" />
    <glyph glyph-name="Uhungarumlaut" unicode="&#x170;" horiz-adv-x="1036" 
d="M327 976l146 180h113l-184 -180h-75zM547 976l165 180h123l-211 -180h-77zM505 -22q-212 0 -324.5 106.5t-112.5 308.5v506q21 7 64 6t60 -6v-511q0 -148 82 -227.5t231 -79.5q157 0 248 88.5t91 230.5v499q23 7 64.5 6t59.5 -6v-501q0 -185 -121.5 -302.5t-341.5 -117.5
z" />
    <glyph glyph-name="uhungarumlaut" unicode="&#x171;" horiz-adv-x="822" 
d="M493 1031l-188 -248h-80l147 248h121zM544 783h-81l160 248h127zM753 195q0 -126 26 -180l-1 -15h-102q-17 19 -25 43.5t-8 79.5v5q-45 -68 -123.5 -107t-176.5 -39q-131 0 -208 74.5t-77 228.5v386q46 12 120 0v-365q0 -114 50 -168.5t139 -54.5q119 0 192.5 85.5
t73.5 218.5v284q21 6 62.5 5t57.5 -5v-476z" />
    <glyph glyph-name="Uogonek" unicode="&#x172;" horiz-adv-x="1036" 
d="M844 899q23 7 64.5 6t59.5 -6v-501q0 -179 -114 -295.5t-321 -123.5q-108 -107 -108 -197q0 -31 19.5 -47t49.5 -14q26 0 54.5 15t44.5 37l56 -46q-29 -41 -77.5 -68t-94.5 -27q-61 -1 -100.5 32.5t-39.5 98.5q0 48 29 108.5t80 108.5q-184 14 -281 119.5t-97 293.5v506
q21 7 64 6t60 -6v-511q0 -148 82 -227.5t231 -79.5q157 0 248 88.5t91 230.5v499z" />
    <glyph glyph-name="uogonek" unicode="&#x173;" horiz-adv-x="822" 
d="M796 -216l56 -46q-29 -41 -77.5 -68t-94.5 -27q-61 -1 -100.5 32.5t-39.5 98.5q0 53 34.5 119.5t94.5 114.5q-26 32 -26 115v5q-45 -68 -123.5 -107t-176.5 -39q-131 0 -208 74.5t-77 228.5v386q46 12 120 0v-365q0 -114 50 -168.5t139 -54.5q119 0 192.5 85.5
t73.5 218.5v284q21 6 62.5 5t57.5 -5v-476q0 -126 26 -180l-1 -15h-31q-119 -112 -119 -207q0 -31 19.5 -47t49.5 -14q26 0 54.5 15t44.5 37z" />
    <glyph glyph-name="Wcircumflex" unicode="&#x174;" horiz-adv-x="1432" 
d="M718 1098l-146 -147h-107l220 223h66l219 -223h-107zM1398 899q12 -71 13.5 -149.5t-17 -172t-51 -184.5t-88 -187.5t-127.5 -181.5l-42 -24h-131l-21 14q-69 193 -136 350q-21 -65 -87 -180t-107 -169l-32 -15h-124l-31 17q-89 240 -208.5 489.5t-195.5 372.5l7 20
q56 14 115 0q92 -146 198 -370t178 -426h7q65 89 135.5 216.5t92.5 204.5q-7 22 -22 60t-33 82t-23 57q10 18 45 32.5t68 11.5q42 -81 124.5 -299t127.5 -365h8q148 182 208.5 399t31.5 388q37 24 117 9z" />
    <glyph glyph-name="wcircumflex" unicode="&#x175;" horiz-adv-x="1145" 
d="M577 903l-146 -148h-115l230 235h61l229 -235h-114zM1131 671q20 -126 -47 -316t-188 -343l-22 -12h-121l-24 15q-42 136 -105 275q-18 -48 -68 -139.5t-85 -139.5l-20 -11h-134l-21 14q-102 319 -288 638l8 19q70 13 116 0q173 -288 257 -566h10q45 75 91.5 171.5
t72.5 169.5l-54 122q11 19 45 34.5t67 11.5q125 -262 193 -509h9q90 134 146 285t43 272q42 23 119 9z" />
    <glyph glyph-name="Ycircumflex" unicode="&#x176;" horiz-adv-x="953" 
d="M478 1098l-146 -147h-107l220 223h66l219 -223h-107zM934 899q14 -124 -69 -275.5t-295 -322.5v-301h-122v311q-67 97 -215 295t-218 273l8 20q79 15 138 0q45 -47 171 -217t196 -272q134 106 213 243t70 237q41 23 123 9z" />
    <glyph glyph-name="ycircumflex" unicode="&#x177;" horiz-adv-x="802" 
d="M404 916l-146 -148h-115l230 235h61l229 -235h-114zM784 671q7 -66 4 -141t-28 -164.5t-62.5 -174t-100 -169.5t-140.5 -151q-152 -125 -331 -127q-59 0 -96 17q-20 44 -2 86l22 12q34 -15 77 -14q136 0 274 131q24 22 45 45q-90 57 -169.5 148.5t-131.5 186t-83.5 168.5
t-46.5 128l7 18q60 15 115 1q15 -48 41 -109t71 -147t115 -170.5t150 -140.5q172 241 153 557q37 25 117 10z" />
    <glyph glyph-name="Ydieresis" unicode="&#x178;" horiz-adv-x="953" 
d="M325 983q-25 0 -43 17.5t-18 40.5t18 40.5t43 17.5t43.5 -17.5t18.5 -40.5t-18.5 -40.5t-43.5 -17.5zM630 983q-25 0 -43.5 17.5t-18.5 40.5t18.5 40.5t43.5 17.5q24 0 42.5 -17.5t18.5 -40.5t-18.5 -40.5t-42.5 -17.5zM934 899q14 -124 -69 -275.5t-295 -322.5v-301
h-122v311q-67 97 -215 295t-218 273l8 20q79 15 138 0q45 -47 171 -217t196 -272q134 106 213 243t70 237q41 23 123 9z" />
    <glyph glyph-name="Zacute" unicode="&#x179;" horiz-adv-x="931" 
d="M713 1149l-214 -196h-80l175 196h119zM885 99q12 -13 12.5 -46.5t-12.5 -52.5h-826q-12 10 -19.5 37.5t-4.5 46.5q146 216 317 412.5t323 303.5h-608q-12 13 -12.5 46.5t12.5 52.5h784q12 -9 20 -42t6 -55q-167 -107 -355.5 -309t-320.5 -394h684z" />
    <glyph glyph-name="zacute" unicode="&#x17a;" horiz-adv-x="770" 
d="M609 1031l-199 -248h-79l151 248h127zM743 101q12 -9 12.5 -45t-12.5 -56h-703q-12 10 -20 38t-6 50q127 167 246.5 285t268.5 197h-478q-11 12 -11.5 46t11.5 55h667q11 -10 18.5 -47t5.5 -61q-121 -46 -271.5 -176t-273.5 -286h546z" />
    <glyph glyph-name="Zdotaccent" unicode="&#x17b;" horiz-adv-x="931" 
d="M465 980q-25 0 -43.5 17.5t-18.5 40.5t18.5 40.5t43.5 17.5t43.5 -17.5t18.5 -40.5t-18.5 -40.5t-43.5 -17.5zM885 99q12 -13 12.5 -46.5t-12.5 -52.5h-826q-12 10 -19.5 37.5t-4.5 46.5q146 216 317 412.5t323 303.5h-608q-12 13 -12.5 46.5t12.5 52.5h784q12 -9 20 -42
t6 -55q-167 -107 -355.5 -309t-320.5 -394h684z" />
    <glyph glyph-name="zdotaccent" unicode="&#x17c;" horiz-adv-x="770" 
d="M385 802q-31 0 -53.5 21t-22.5 50t22.5 50.5t53.5 21.5t53.5 -21.5t22.5 -50.5t-22.5 -50t-53.5 -21zM743 101q12 -9 12.5 -45t-12.5 -56h-703q-12 10 -20 38t-6 50q127 167 246.5 285t268.5 197h-478q-11 12 -11.5 46t11.5 55h667q11 -10 18.5 -47t5.5 -61
q-121 -46 -271.5 -176t-273.5 -286h546z" />
    <glyph glyph-name="Zcaron" unicode="&#x17d;" horiz-adv-x="931" 
d="M497 948h-61l-230 228h115l146 -146l145 146h114zM885 99q12 -13 12.5 -46.5t-12.5 -52.5h-826q-12 10 -19.5 37.5t-4.5 46.5q146 216 317 412.5t323 303.5h-608q-12 13 -12.5 46.5t12.5 52.5h784q12 -9 20 -42t6 -55q-167 -107 -355.5 -309t-320.5 -394h684z" />
    <glyph glyph-name="zcaron" unicode="&#x17e;" horiz-adv-x="770" 
d="M416 783h-61l-230 235h115l146 -154l145 154h114zM743 101q12 -9 12.5 -45t-12.5 -56h-703q-12 10 -20 38t-6 50q127 167 246.5 285t268.5 197h-478q-11 12 -11.5 46t11.5 55h667q11 -10 18.5 -47t5.5 -61q-121 -46 -271.5 -176t-273.5 -286h546z" />
    <glyph glyph-name="longs" unicode="&#x17f;" horiz-adv-x="383" 
d="M98 0v627q0 323 243 323q67 0 151 -21q5 -17 -3 -51t-20 -46q-55 18 -104 18q-147 -1 -147 -218v-632h-120z" />
    <glyph glyph-name="florin" unicode="&#x192;" horiz-adv-x="519" 
d="M428 422v-101h-111q15 -178 15 -296q0 -107 -50.5 -168t-140.5 -61v100q81 0 81 139q0 86 -16 286h-114v101h106q-9 133 -9 227q0 108 49 168t143 60v-101q-82 0 -82 -139q0 -95 10 -215h119z" />
    <glyph glyph-name="uni01C7" unicode="&#x1c7;" horiz-adv-x="1776" 
d="M93 0l-25 24v875q22 8 62.5 7t59.5 -7v-800h631q12 -15 12 -47.5t-12 -51.5h-728zM1287 -18q-112 0 -220.5 51.5t-192.5 137.5q9 29 29.5 53t42.5 31q66 -76 154 -123t176 -47q140 0 219.5 86.5t79.5 226.5v501q26 7 65.5 6t56.5 -6v-527q0 -104 -46.5 -191.5t-142 -143
t-221.5 -55.5z" />
    <glyph glyph-name="uni01C8" unicode="&#x1c8;" horiz-adv-x="1139" 
d="M991 802q-31 0 -54 21.5t-23 49.5q0 29 23 50.5t54 21.5q30 0 53 -22t23 -50t-23 -49.5t-53 -21.5zM93 0l-25 24v875q22 8 62.5 7t59.5 -7v-800h631q12 -15 12 -47.5t-12 -51.5h-728zM880 -243q-50 2 -102 18q-7 23 1.5 56.5t24.5 48.5q35 -12 59 -12q39 -1 54.5 40
t15.5 144v619q19 6 61.5 6t58.5 -6v-682q0 -108 -42.5 -170t-130.5 -62z" />
    <glyph glyph-name="uni01C9" unicode="&#x1c9;" horiz-adv-x="670" 
d="M521 802q-31 0 -53.5 21t-22.5 50t22.5 50.5t53.5 21.5t53.5 -21.5t22.5 -50.5t-22.5 -50t-53.5 -21zM232 -18q-79 -1 -118.5 50t-39.5 156v746q21 7 59 7t62 -7v-714q0 -74 18 -107t57 -33q21 0 64 12q10 -13 13.5 -41.5t-2.5 -47.5q-65 -20 -113 -21zM411 -243
q-50 2 -103 18q-7 23 1.5 56t24.5 49q36 -12 59 -12q40 -1 55 40t15 144v619q20 6 62.5 6t58.5 -6v-682q0 -108 -42.5 -170t-130.5 -62z" />
    <glyph glyph-name="uni01CA" unicode="&#x1ca;" horiz-adv-x="1933" 
d="M848 899q24 8 64 7t58 -7v-899h-92l-688 707v-707h-122v873q12 14 44.5 23.5t48.5 4.5l687 -713v711zM1732 899q27 7 66 6t56 -6v-527q0 -104 -46.5 -191.5t-142 -143t-221.5 -55.5q-112 0 -220 51.5t-192 137.5q9 30 29.5 53.5t42.5 30.5q67 -76 154.5 -123t175.5 -47
q140 0 219 86.5t79 226.5v501z" />
    <glyph glyph-name="uni01CB" unicode="&#x1cb;" horiz-adv-x="1303" 
d="M1154 802q-31 0 -53.5 21.5t-22.5 49.5q0 29 22.5 50.5t53.5 21.5t53.5 -21.5t22.5 -50.5q0 -28 -22.5 -49.5t-53.5 -21.5zM970 0h-92l-688 707v-707h-122v873q12 14 44.5 23.5t48.5 4.5l687 -713v711q24 8 64 7t58 -7v-899zM1096 671q20 6 62 6t58 -6v-682
q0 -109 -42 -170.5t-130 -61.5q-51 2 -103 18q-7 23 1.5 56t24.5 49q36 -12 59 -12q40 -1 55 40t15 144v619z" />
    <glyph glyph-name="uni01CC" unicode="&#x1cc;" horiz-adv-x="1335" 
d="M991 802q-31 0 -53.5 21t-22.5 50t22.5 50.5t53.5 21.5t53.5 -21.5t22.5 -50.5t-22.5 -50t-53.5 -21zM776 0h-120v343q0 123 -49 191.5t-145 68.5q-106 0 -188 -99t-82 -220v-284h-121v512q0 81 -13 140v18q65 14 114 9q12 -38 12 -86v-56q50 74 129.5 122t167.5 48
q146 0 220.5 -89.5t74.5 -254.5v-363zM933 671q20 6 62.5 6t58.5 -6v-682q0 -108 -42.5 -170t-130.5 -62q-50 2 -103 18q-7 23 2 56.5t24 48.5q36 -12 59 -12q40 -1 55 40t15 144v619z" />
    <glyph glyph-name="uni01CD" unicode="&#x1cd;" horiz-adv-x="1041" 
d="M550 949h-60l-231 227h115l146 -146l146 146h114zM580 899q26 -50 132 -267t192.5 -386.5t123.5 -227.5l-7 -18q-101 0 -134 13q-22 31 -102 198h-539l-99 -211h-134l442 899q21 9 63 8.5t62 -8.5zM293 310h445q-84 179 -219 480z" />
    <glyph glyph-name="uni01CE" unicode="&#x1ce;" horiz-adv-x="788" 
d="M444 783h-61l-230 235h115l146 -154l145 154h114zM722 206q1 -87 8 -124.5t24 -68.5l-2 -13h-110q-13 12 -20 23t-13.5 39t-6.5 71v15q-60 -77 -148 -121.5t-183 -44.5q-102 0 -165 49t-63 126q0 118 130.5 189.5t329.5 74.5q43 0 86 -3q-8 92 -58.5 143.5t-132.5 51.5
q-110 0 -253 -85q-38 14 -46 81q159 98 303 98q149 0 233.5 -87.5t85.5 -251.5zM590 328l2 13q-48 3 -95 3q-149 -1 -239.5 -48t-90.5 -120q0 -45 33.5 -72t94.5 -27q115 0 200 79t95 172z" />
    <glyph glyph-name="uni01CF" unicode="&#x1cf;" horiz-adv-x="254" 
d="M158 948h-61l-230 228h115l146 -146l145 146h114zM68 899q22 8 61.5 7t56.5 -7v-899h-118v899z" />
    <glyph glyph-name="uni01D0" unicode="&#x1d0;" horiz-adv-x="271" 
d="M167 783h-61l-230 235h115l146 -154l145 154h114zM76 671q19 6 61 6t59 -6v-671h-120v671z" />
    <glyph glyph-name="uni01D2" unicode="&#x1d2;" horiz-adv-x="823" 
d="M460 784h-61l-230 234h115l146 -153l145 153h114zM792 373q2 -169 -112.5 -280t-292.5 -111q-166 0 -261 95.5t-95 239.5q0 161 118.5 275.5t292.5 114.5q160 0 254 -94t96 -240zM393 83q119 0 198 83t79 195q0 104 -64.5 174.5t-170.5 70.5q-119 0 -200 -85.5
t-81 -203.5q0 -99 62.5 -166.5t176.5 -67.5z" />
    <glyph glyph-name="uni01D3" unicode="&#x1d3;" horiz-adv-x="1036" 
d="M549 956h-61l-230 227h115l146 -145l145 145h114zM844 899q23 7 64.5 6t59.5 -6v-501q0 -185 -121.5 -302.5t-341.5 -117.5q-212 0 -324.5 106.5t-112.5 308.5v506q21 7 64 6t60 -6v-511q0 -148 82 -227.5t231 -79.5q157 0 248 88.5t91 230.5v499z" />
    <glyph glyph-name="uni01D4" unicode="&#x1d4;" horiz-adv-x="822" 
d="M435 784h-60l-231 234h115l146 -153l145 153h115zM753 195q0 -126 26 -180l-1 -15h-102q-17 19 -25 43.5t-8 79.5v5q-45 -68 -123.5 -107t-176.5 -39q-131 0 -208 74.5t-77 228.5v386q46 12 120 0v-365q0 -114 50 -168.5t139 -54.5q119 0 192.5 85.5t73.5 218.5v284
q21 6 62.5 5t57.5 -5v-476z" />
    <glyph glyph-name="uni01E2" unicode="&#x1e2;" horiz-adv-x="1589" 
d="M1272 1056v-81h-494v81h494zM1543 99q12 -13 12 -46.5t-12 -52.5h-750v211h-452l-171 -211h-157l759 899h746q7 -22 -0.5 -53t-20.5 -46h-582v-313h517q6 -24 -2 -56.5t-20 -42.5h-495v-289h628zM422 310l371 -1v458z" />
    <glyph glyph-name="uni01E3" unicode="&#x1e3;" horiz-adv-x="1327" 
d="M930 927v-90h-526v90h526zM972 707q151 0 242.5 -91.5t82.5 -251.5l-18 -23l-561 -81q18 -83 83.5 -130.5t154.5 -46.5q125 0 247 91q11 -4 21 -13.5t16 -19t10.5 -18.5t6.5 -15l2 -7q-147 -119 -316 -119q-102 -1 -185.5 43.5t-127.5 125.5q-62 -79 -156.5 -124.5
t-202.5 -44.5q-103 1 -165.5 50t-62.5 125q0 118 129.5 189.5t327.5 73.5q55 0 84 -2q-11 90 -59 141t-127 51q-103 0 -253 -82q-38 14 -46 81q159 98 303 98q191 0 268 -146q53 68 131 107t171 39zM1173 399q1 99 -54 156.5t-147 57.5q-104 0 -179.5 -79.5t-81.5 -194.5z
M585 328l2 13q-47 3 -90 3q-149 -1 -239.5 -48t-90.5 -120q0 -45 33.5 -72t94.5 -27q112 0 196.5 76.5t93.5 174.5z" />
    <glyph glyph-name="Gcaron" unicode="&#x1e6;" horiz-adv-x="1072" 
d="M591 971h-61l-230 227h114l146 -146l146 146h114zM562 818q-165 0 -263 -106.5t-98 -265.5q0 -163 103 -262t274 -99q153 0 271 56v210h-331q-6 23 1.5 55t19.5 44h414l17 -17v-345q-71 -51 -179.5 -78.5t-212.5 -27.5q-219 0 -361 127t-142 343q0 92 33.5 176.5
t94.5 150t153.5 104.5t203.5 39q178 0 296.5 -88.5t114.5 -221.5q-28 -6 -64.5 -9.5t-63.5 1.5q-4 99 -83.5 156.5t-197.5 57.5z" />
    <glyph glyph-name="gcaron" unicode="&#x1e7;" horiz-adv-x="824" 
d="M439 768h-61l-230 235h115l146 -154l145 154h114zM661 680q48 5 105 -8v-16q-13 -85 -13 -159v-413q0 -175 -99 -273.5t-260 -99.5q-173 0 -335 114q4 28 16.5 52.5t31.5 35.5q157 -103 276 -101q115 0 187.5 72.5t72.5 196.5v64q-40 -74 -114 -118.5t-162 -44.5
q-145 0 -241 91t-95 245q0 166 102 277t260 111q86 0 151 -38.5t101 -100.5v25zM374 83q107 0 179.5 87.5t73.5 234.5q-1 73 -62.5 137t-148.5 64q-115 0 -188 -82.5t-74 -196.5q0 -105 60 -174.5t160 -69.5z" />
    <glyph glyph-name="uni01E8" unicode="&#x1e8;" horiz-adv-x="1033" 
d="M559 948h-61l-230 227h114l146 -146l146 146h114zM554 461q124 -128 177.5 -182.5t135.5 -128.5t147 -120l-1 -19q-60 -19 -134 -19q-96 56 -432 412q-123 -61 -257 -116v-288h-122v899q23 8 64 7t58 -7v-500q229 100 350 174q288 172 278 322q50 19 118 5
q13 -87 -62 -190t-222 -193q-49 -30 -98 -56z" />
    <glyph glyph-name="uni01E9" unicode="&#x1e9;" horiz-adv-x="881" 
d="M478 998h-61l-230 235h115l146 -154l145 154h114zM512 337q93 -91 124 -120.5t86 -81t82 -72t48 -30.5v-21q-19 -7 -63.5 -12.5t-82.5 -4.5q-53 21 -303 278q-99 -55 -225 -108v-165h-120v934q24 8 61.5 8t58.5 -8v-654q107 47 246 132q112 68 164.5 125.5t48.5 124.5
q56 18 137 9q32 -153 -235 -317z" />
    <glyph glyph-name="uni01EB" unicode="&#x1eb;" horiz-adv-x="823" 
d="M459 -13q-115 -108 -115 -202q0 -31 20 -47t50 -14q26 0 54 14.5t45 37.5l55 -46q-28 -41 -77 -68t-95 -27q-61 -1 -100.5 32.5t-39.5 98.5q0 47 29 107.5t80 108.5q-156 7 -245 101.5t-89 233.5q0 161 118.5 275.5t292.5 114.5q160 0 254 -94t96 -240q2 -151 -90.5 -257
t-242.5 -129zM154 317q0 -99 62.5 -166.5t176.5 -67.5q119 0 198 83t79 195q0 104 -64.5 174.5t-170.5 70.5q-119 0 -200 -85.5t-81 -203.5z" />
    <glyph glyph-name="uni01F0" unicode="&#x1f0;" horiz-adv-x="303" 
d="M186 783h-61l-230 235h115l146 -154l145 154h114zM96 671q20 6 62 6t59 -6v-682q0 -108 -42.5 -170t-130.5 -62q-50 2 -103 18q-7 23 1.5 56t24.5 49q36 -12 59 -12q40 -1 55 40t15 144v619z" />
    <glyph glyph-name="uni01F4" unicode="&#x1f4;" horiz-adv-x="973" 
d="M766 1171l-213 -196h-80l174 196h119zM522 818q-166 0 -264 -106.5t-98 -265.5q0 -163 103.5 -262t274.5 -99q154 0 271 57v209h-332q-6 24 2 56t20 43h414l16 -17v-345q-71 -51 -179 -78.5t-212 -27.5q-219 0 -361.5 127t-142.5 343q0 92 33.5 176.5t94.5 150
t153.5 104.5t203.5 39q178 0 296.5 -88.5t114.5 -221.5q-28 -6 -64.5 -9.5t-63.5 1.5q-4 99 -83 156.5t-197 57.5z" />
    <glyph glyph-name="uni01F4" unicode="&#x1f5;" horiz-adv-x="973" 
d="M766 1171l-213 -196h-80l174 196h119zM522 818q-166 0 -264 -106.5t-98 -265.5q0 -163 103.5 -262t274.5 -99q154 0 271 57v209h-332q-6 24 2 56t20 43h414l16 -17v-345q-71 -51 -179 -78.5t-212 -27.5q-219 0 -361.5 127t-142.5 343q0 92 33.5 176.5t94.5 150
t153.5 104.5t203.5 39q178 0 296.5 -88.5t114.5 -221.5q-28 -6 -64.5 -9.5t-63.5 1.5q-4 99 -83 156.5t-197 57.5z" />
    <glyph glyph-name="uni01F8" unicode="&#x1f8;" horiz-adv-x="1038" 
d="M585 967h-77l-209 190h112zM848 899q24 8 64 7t58 -7v-899h-92l-688 707v-707h-122v873q12 14 44.5 23.5t48.5 4.5l687 -713v711z" />
    <glyph glyph-name="uni01F9" unicode="&#x1f9;" horiz-adv-x="836" 
d="M566 784h-85l-222 248h126zM503 707q146 0 220.5 -89.5t74.5 -254.5v-363h-120v343q0 123 -49 191.5t-145 68.5q-106 0 -188 -99t-82 -220v-284h-120v512q0 76 -14 140v18q67 14 114 9q13 -41 13 -86v-54q51 73 130 120.5t166 47.5z" />
    <glyph glyph-name="Aringacute" unicode="&#x1fa;" horiz-adv-x="1041" 
d="M675 1311l-139 -147h-62l88 147h113zM519 919q-84 0 -134 31t-50 80q0 48 49.5 80t134.5 32q84 0 132.5 -32t48.5 -80q0 -47 -51 -79t-130 -32zM517 1099q-51 0 -82 -19.5t-31 -49.5t32 -49t81 -19q50 0 82 19.5t32 48.5q0 30 -31.5 49.5t-82.5 19.5zM580 899
q26 -50 132 -267t192.5 -386.5t123.5 -227.5l-7 -18q-101 0 -134 13q-22 31 -102 198h-539l-99 -211h-134l442 899q21 9 63 8.5t62 -8.5zM293 310h445q-84 179 -219 480z" />
    <glyph glyph-name="aringacute" unicode="&#x1fb;" horiz-adv-x="788" 
d="M576 1127l-139 -146h-62l89 146h112zM420 735q-84 0 -134 31.5t-50 80.5q0 48 49.5 80t134.5 32q84 0 132.5 -32t48.5 -80q0 -47 -51 -79.5t-130 -32.5zM418 916q-51 0 -82 -19.5t-31 -49.5t32 -49t81 -19q50 0 82 19.5t32 48.5q0 30 -31.5 49.5t-82.5 19.5zM722 206
q1 -87 8 -124.5t24 -68.5l-2 -13h-110q-13 12 -20 23t-13.5 39t-6.5 71v15q-60 -77 -148 -121.5t-183 -44.5q-102 0 -165 49t-63 126q0 118 130.5 189.5t329.5 74.5q43 0 86 -3q-8 92 -58.5 143.5t-132.5 51.5q-110 0 -253 -85q-38 14 -46 81q159 98 303 98
q149 0 233.5 -87.5t85.5 -251.5zM590 328l2 13q-48 3 -95 3q-149 -1 -239.5 -48t-90.5 -120q0 -45 33.5 -72t94.5 -27q115 0 200 79t95 172z" />
    <glyph glyph-name="AEacute" unicode="&#x1fc;" horiz-adv-x="1589" 
d="M1272 1140l-213 -196h-80l175 196h118zM1543 99q12 -13 12 -46.5t-12 -52.5h-750v211h-452l-171 -211h-157l759 899h746q7 -22 -0.5 -53t-20.5 -46h-582v-313h517q6 -24 -2 -56.5t-20 -42.5h-495v-289h628zM422 310l371 -1v458z" />
    <glyph glyph-name="aeacute" unicode="&#x1fd;" horiz-adv-x="1327" 
d="M888 1031l-199 -248h-79l151 248h127zM972 707q151 0 242.5 -91.5t82.5 -251.5l-18 -23l-561 -81q18 -83 83.5 -130.5t154.5 -46.5q125 0 247 91q11 -4 21 -13.5t16 -19t10.5 -18.5t6.5 -15l2 -7q-147 -119 -316 -119q-102 -1 -185.5 43.5t-127.5 125.5
q-62 -79 -156.5 -124.5t-202.5 -44.5q-103 1 -165.5 50t-62.5 125q0 118 129.5 189.5t327.5 73.5q55 0 84 -2q-11 90 -59 141t-127 51q-103 0 -253 -82q-38 14 -46 81q159 98 303 98q191 0 268 -146q53 68 131 107t171 39zM1173 399q1 99 -54 156.5t-147 57.5
q-104 0 -179.5 -79.5t-81.5 -194.5zM585 328l2 13q-47 3 -90 3q-149 -1 -239.5 -48t-90.5 -120q0 -45 33.5 -72t94.5 -27q112 0 196.5 76.5t93.5 174.5z" />
    <glyph glyph-name="Oslashacute" unicode="&#x1fe;" horiz-adv-x="1090" 
d="M824 1160l-214 -196h-80l175 196h119zM1022 892l-109 -117q107 -124 107 -297q0 -134 -70 -248.5t-190 -181t-260 -66.5q-149 0 -258 76l-54 -58h-120l109 116q-108 119 -108 290q0 144 69.5 262.5t190 186t266.5 67.5q143 0 254 -86l52 56h121zM196 409q0 -119 63 -205
l513 550q-80 64 -191 64q-163 0 -274.5 -118.5t-110.5 -290.5zM894 483q0 119 -61 207l-512 -548q76 -57 187 -57q159 0 272 118t114 280z" />
    <glyph glyph-name="oslashacute" unicode="&#x1ff;" horiz-adv-x="848" 
d="M662 1031l-199 -248h-79l151 248h127zM804 671v-15l-72 -72q68 -89 70 -211q2 -169 -113 -280t-293 -111q-131 0 -222 64l-47 -46h-82v19l75 75q-80 89 -80 223q0 161 119 275.5t293 114.5q132 0 225 -69l33 33h94zM163 317q0 -80 41 -139l46 46l43 37l189 180l37 38
l75 76q-62 51 -150 51q-119 0 -200 -85.5t-81 -203.5zM679 361q0 76 -35 135l-31 -31l-48 -39l-202 -190l-28 -33l-80 -78q61 -42 148 -42q119 0 197.5 83t78.5 195z" />
    <glyph glyph-name="uni0202" unicode="&#x202;" horiz-adv-x="1041" 
d="M520 1091q-77 0 -123 -37.5t-46 -92.5h-91q0 100 75 156.5t185 56.5q114 0 186.5 -55t72.5 -158h-92q0 57 -45 93.5t-122 36.5zM580 899q26 -50 132 -267t192.5 -386.5t123.5 -227.5l-7 -18q-101 0 -134 13q-22 31 -102 198h-539l-99 -211h-134l442 899q21 9 63 8.5
t62 -8.5zM293 310h445q-84 179 -219 480z" />
    <glyph glyph-name="uni0203" unicode="&#x203;" horiz-adv-x="788" 
d="M414 914q-77 0 -123 -38t-46 -93h-91q0 100 75 157t185 57q113 0 185.5 -55.5t72.5 -158.5h-91q0 58 -45 94.5t-122 36.5zM722 206q1 -87 8 -124.5t24 -68.5l-2 -13h-110q-13 12 -20 23t-13.5 39t-6.5 71v15q-60 -77 -148 -121.5t-183 -44.5q-102 0 -165 49t-63 126
q0 118 130.5 189.5t329.5 74.5q43 0 86 -3q-8 92 -58.5 143.5t-132.5 51.5q-110 0 -253 -85q-38 14 -46 81q159 98 303 98q149 0 233.5 -87.5t85.5 -251.5zM590 328l2 13q-48 3 -95 3q-149 -1 -239.5 -48t-90.5 -120q0 -45 33.5 -72t94.5 -27q115 0 200 79t95 172z" />
    <glyph glyph-name="uni0206" unicode="&#x206;" horiz-adv-x="873" 
d="M448 1091q-77 0 -123 -37.5t-46 -92.5h-91q0 100 75 156.5t185 56.5q114 0 186.5 -55t72.5 -158h-92q0 57 -45 93.5t-122 36.5zM827 99q12 -13 12 -46.5t-12 -52.5h-759v886l13 13h722q7 -22 -1 -52.5t-20 -46.5h-592v-316h526q6 -23 -1.5 -55.5t-20.5 -43.5h-504v-286
h637z" />
    <glyph glyph-name="uni0207" unicode="&#x207;" horiz-adv-x="769" 
d="M413 914q-77 0 -123 -38t-46 -93h-91q0 100 75 157t185 57q113 0 185.5 -55.5t72.5 -158.5h-91q0 58 -45 94.5t-122 36.5zM413 707q151 0 243 -91.5t83 -251.5l-19 -23l-561 -82q19 -83 84 -130t154 -47q127 2 247 92q18 -7 32 -25.5t19 -31.5t5 -16q-145 -119 -316 -119
q-96 -1 -175 37.5t-128 116t-50 181.5q-2 163 108 276.5t274 113.5zM614 405q1 97 -53.5 152.5t-147.5 55.5q-102 0 -177 -78t-83 -191z" />
    <glyph glyph-name="uni020A" unicode="&#x20a;" horiz-adv-x="50" 
d="M-289 961q0 100 75 156.5t185 56.5q114 0 186.5 -55t72.5 -158h-92q0 57 -45 93.5t-122 36.5t-123 -37.5t-46 -92.5h-91zM-88 0v899q22 8 61.5 7t56.5 -7v-899h-118z" />
    <glyph glyph-name="uni020B" unicode="&#x20b;" horiz-adv-x="271" 
d="M-111 783q0 100 71.5 157t175.5 57q108 0 177 -55.5t69 -158.5h-87q0 58 -43 94.5t-116 36.5t-116.5 -38t-43.5 -93h-87zM76 0v671q19 6 61 6t59 -6v-671h-120z" />
    <glyph glyph-name="uni020E" unicode="&#x20e;" horiz-adv-x="1019" 
d="M282 972q0 100 75 156.5t185 56.5q113 0 185.5 -55t72.5 -158h-91q0 57 -45 93.5t-122 36.5t-123 -37.5t-46 -92.5h-91zM464 -18q-192 0 -311 122t-119 302q0 144 69.5 262.5t190 186t265.5 67.5q120 0 218.5 -61t153 -162.5t54.5 -220.5q0 -134 -70 -248.5t-190 -181
t-261 -66.5zM472 85q160 0 273 118t114 280q1 144 -87 239.5t-226 95.5q-163 0 -274.5 -118.5t-111.5 -290.5q1 -136 83.5 -230t228.5 -94z" />
    <glyph glyph-name="uni020F" unicode="&#x20f;" horiz-adv-x="823" 
d="M169 784q0 100 75 156.5t186 56.5q113 0 185.5 -55t72.5 -158h-91q0 57 -45.5 93.5t-121.5 36.5q-77 0 -123 -37.5t-46 -92.5h-92zM387 -18q-166 0 -261 95.5t-95 239.5q0 161 118.5 275.5t292.5 114.5q160 0 254 -94t96 -240q2 -169 -112.5 -280t-292.5 -111zM393 83
q119 0 198 83t79 195q0 104 -64.5 174.5t-170.5 70.5q-119 0 -200 -85.5t-81 -203.5q0 -99 62.5 -166.5t176.5 -67.5z" />
    <glyph glyph-name="uni0212" unicode="&#x212;" horiz-adv-x="1017" 
d="M462 1104q-77 0 -123 -37.5t-46 -92.5h-91q0 100 75 156.5t185 56.5q114 0 186.5 -55t72.5 -158h-92q0 57 -45 93.5t-122 36.5zM645 314q195 -200 323 -288l-1 -20q-47 -15 -136 -15q-69 35 -328 299q-18 -2 -54 -2q-125 0 -259 32v-320h-122v878q172 44 398 44
q202 0 318.5 -84.5t116.5 -233.5q0 -105 -69.5 -180t-186.5 -110zM449 387q139 -1 232.5 56.5t92.5 162.5q0 97 -83 157t-239 60q-152 0 -262 -24v-380q117 -31 259 -32z" />
    <glyph glyph-name="uni0213" unicode="&#x213;" horiz-adv-x="605" 
d="M317 931q-76 0 -120.5 -37.5t-44.5 -92.5h-89q0 100 73 156.5t181 56.5q110 0 180.5 -55t70.5 -158h-88q0 57 -44 93.5t-119 36.5zM573 682q7 -20 -5 -53.5t-28 -51.5q-57 21 -103 21q-111 -1 -176.5 -88.5t-65.5 -217.5v-292h-121v512q0 76 -14 140v18q62 14 107 9
q13 -41 13 -86v-69q37 81 106 132t159 51q59 0 128 -25z" />
    <glyph glyph-name="uni0218" unicode="&#x218;" horiz-adv-x="954" 
d="M507 -18q-275 0 -473 140q3 19 21.5 51t46.5 40q182 -132 399 -132q141 0 217 48t76 124q0 81 -78.5 117.5t-232.5 43.5q-162 7 -259 67.5t-96 176.5q0 81 54.5 143t136.5 91.5t177 29.5q195 0 304 -80t109 -194q-25 -7 -61 -10t-63 2q-4 84 -80 133.5t-210 49.5
q-103 0 -172 -45t-69 -116q0 -50 37 -84t89.5 -48.5t121.5 -17.5q418 -16 418 -252q0 -126 -111 -202t-302 -76zM407 -299l41 224h95l-54 -224h-82z" />
    <glyph glyph-name="uni0219" unicode="&#x219;" horiz-adv-x="791" 
d="M408 -18q-99 0 -197.5 28.5t-171.5 84.5q5 21 19.5 46.5t35.5 39.5q64 -48 146.5 -73t163.5 -25q101 0 162 32t61 81q0 56 -56 80t-191 29q-306 16 -306 190q0 90 88.5 151t237.5 61q82 0 175.5 -20.5t165.5 -63.5q-8 -49 -36 -92q-65 38 -145.5 56.5t-147.5 18.5
q-105 0 -160.5 -33t-55.5 -77q0 -46 50 -70.5t159 -28.5q186 -8 265.5 -56.5t79.5 -143.5q0 -97 -97 -156t-245 -59zM322 -309l41 224h95l-54 -224h-82z" />
    <glyph glyph-name="uni021A" unicode="&#x21a;" horiz-adv-x="963" 
d="M934 899q6 -22 -1.5 -54t-19.5 -45h-381v-800h-127v800h-376q-5 21 -1 51t14 48h892zM382 -293l41 224h95l-54 -224h-82z" />
    <glyph glyph-name="uni021B" unicode="&#x21b;" horiz-adv-x="580" 
d="M543 572h-311v-258q0 -110 44.5 -170t132.5 -60q50 0 111 19q12 -12 18.5 -45.5t0.5 -52.5q-78 -23 -142 -23q-132 -2 -209 81.5t-77 242.5v266h-97v99h97v179q20 11 55 17t66 0v-196h311v-99zM248 -300l41 224h95l-54 -224h-82z" />
    <glyph glyph-name="uni0237" unicode="&#x237;" horiz-adv-x="303" 
d="M44 -243q-50 2 -103 18q-7 23 1.5 56t24.5 49q36 -12 59 -12q40 -1 55 40t15 144v619q20 6 62 6t59 -6v-682q0 -108 -42.5 -170t-130.5 -62z" />
    <glyph glyph-name="circumflex" unicode="&#x2c6;" horiz-adv-x="636" 
d="M578 755h-114l-145 154l-146 -154h-115l230 235h61z" />
    <glyph glyph-name="caron" unicode="&#x2c7;" horiz-adv-x="636" 
d="M464 990h114l-229 -235h-61l-230 235h115l146 -154z" />
    <glyph glyph-name="breve" unicode="&#x2d8;" horiz-adv-x="639" 
d="M318 741q-114 0 -187 55.5t-73 159.5h91q0 -59 45.5 -95.5t123.5 -36.5q79 0 125.5 37.5t46.5 94.5h91q0 -101 -76 -158t-187 -57z" />
    <glyph glyph-name="dotaccent" unicode="&#x2d9;" horiz-adv-x="268" 
d="M134 774q-31 0 -53.5 21t-22.5 50t22.5 50.5t53.5 21.5t53.5 -21.5t22.5 -50.5t-22.5 -50t-53.5 -21z" />
    <glyph glyph-name="ring" unicode="&#x2da;" horiz-adv-x="538" 
d="M271 719q-96 0 -154.5 39.5t-58.5 105.5q0 63 57 104t156 41q95 0 152 -40.5t57 -104.5q0 -63 -61 -104t-148 -41zM269 774q58 0 99 26.5t41 63.5q0 40 -40.5 65.5t-99.5 25.5q-62 0 -100.5 -26t-38.5 -65q0 -40 38 -65t101 -25z" />
    <glyph glyph-name="ogonek" unicode="&#x2db;" horiz-adv-x="428" 
d="M198 -354q-61 -1 -100.5 32.5t-39.5 98.5q0 54 36.5 123t100.5 118l74 -11q-123 -113 -123 -211q0 -31 19.5 -47t49.5 -14q26 0 54.5 15t44.5 37l56 -46q-29 -41 -77.5 -68t-94.5 -27z" />
    <glyph glyph-name="tilde" unicode="&#x2dc;" horiz-adv-x="616" 
d="M435 772q-31 0 -66.5 15.5t-62 34t-57.5 33.5t-54 15q-27 0 -44.5 -24.5t-17.5 -68.5h-75q0 82 34 135.5t89 53.5q38 0 83 -24t85.5 -48.5t69.5 -24.5q28 -1 45.5 24t17.5 68h76q0 -81 -33 -135t-90 -54z" />
    <glyph glyph-name="hungarumlaut" unicode="&#x2dd;" horiz-adv-x="659" 
d="M76 755l147 248h121l-188 -248h-80zM314 755l160 248h127l-206 -248h-81z" />
    <glyph glyph-name="gravecomb" unicode="&#x300;" 
d="M-143 755l-222 248h126l181 -248h-85z" />
    <glyph glyph-name="acutecomb" unicode="&#x301;" 
d="M-336 755l151 248h127l-199 -248h-79z" />
    <glyph glyph-name="uni0302" unicode="&#x302;" 
d="M-58 755h-114l-145 148l-146 -148h-115l230 235h61z" />
    <glyph glyph-name="tildecomb" unicode="&#x303;" 
d="M-181 772q-31 0 -66.5 15.5t-62 34t-57.5 33.5t-54 15q-27 0 -44.5 -24.5t-17.5 -68.5h-75q0 82 34 135.5t89 53.5q39 0 83.5 -24t85 -48.5t69.5 -24.5q28 -1 45.5 24t17.5 68h76q0 -81 -33 -135t-90 -54z" />
    <glyph glyph-name="uni0304" unicode="&#x304;" 
d="M-602 809v90h526v-90h-526z" />
    <glyph glyph-name="uni0306" unicode="&#x306;" 
d="M-321 741q-114 0 -187 55.5t-73 159.5h91q0 -59 45.5 -95.5t123.5 -36.5q79 0 125.5 37.5t46.5 94.5h91q0 -101 -76 -158t-187 -57z" />
    <glyph glyph-name="uni0307" unicode="&#x307;" 
d="M-134 774q-31 0 -53.5 21t-22.5 50t22.5 50.5t53.5 21.5t53.5 -21.5t22.5 -50.5t-22.5 -50t-53.5 -21z" />
    <glyph glyph-name="uni0308" unicode="&#x308;" 
d="M-492 774q-31 0 -53.5 21t-22.5 50t22.5 50.5t53.5 21.5q30 0 53 -22t23 -50t-23 -49.5t-53 -21.5zM-152 774q-31 0 -53.5 21t-22.5 50t22.5 50.5t53.5 21.5q30 0 53 -22t23 -50t-23 -49.5t-53 -21.5z" />
    <glyph glyph-name="uni030A" unicode="&#x30a;" 
d="M-267 741q-96 0 -154.5 39.5t-58.5 105.5q0 63 57 104t156 41q95 0 152 -40.5t57 -104.5q0 -63 -61 -104t-148 -41zM-269 796q58 0 99 26.5t41 63.5q0 40 -40.5 65.5t-99.5 25.5q-62 0 -100.5 -26t-38.5 -65q0 -40 38 -65t101 -25z" />
    <glyph glyph-name="uni030B" unicode="&#x30b;" 
d="M-583 755l147 248h121l-188 -248h-80zM-345 755l160 248h127l-206 -248h-81z" />
    <glyph glyph-name="uni030C" unicode="&#x30c;" 
d="M-172 990h114l-229 -235h-61l-230 235h115l146 -154z" />
    <glyph glyph-name="uni0311" unicode="&#x311;" 
d="M-576 755q0 100 75 157t185 57q113 0 185.5 -55.5t72.5 -158.5h-91q0 58 -45 94.5t-122 36.5t-123 -38t-46 -93h-91z" />
    <glyph glyph-name="uni0312" unicode="&#x312;" 
d="M-271 811l68 236h82l-54 -236h-96z" />
    <glyph glyph-name="uni0326" unicode="&#x326;" 
d="M-280 -299l41 224h95l-54 -224h-82z" />
    <glyph glyph-name="uni0327" unicode="&#x327;" 
d="M-196 -343q-74 -2 -139 63l60 58q39 -42 78 -42q23 1 38 17t15 41q0 12 -6.5 24.5t-13.5 21t-20.5 24.5t-20.5 24q-30 35 -39 59t-9 61h80q0 -17 5.5 -31.5t11.5 -22.5t23.5 -27.5t27.5 -31.5q47 -51 47 -106q1 -54 -39 -93t-99 -39z" />
    <glyph glyph-name="uni0328" unicode="&#x328;" 
d="M-230 -354q-61 -1 -100.5 32.5t-39.5 98.5q0 54 36.5 123t100.5 118l74 -11q-123 -113 -123 -211q0 -31 19.5 -47t49.5 -14q26 0 54.5 15t44.5 37l56 -46q-29 -41 -77.5 -68t-94.5 -27z" />
    <glyph glyph-name="uni03BC" unicode="&#x3bc;" horiz-adv-x="867" 
d="M789 226q0 -100 5.5 -139t19.5 -72l-1 -15h-101q-28 26 -28 89v78q-34 -82 -112 -133.5t-183 -51.5q-125 0 -189 85v-328h-106v932q47 10 120 0v-366q0 -222 189 -222q120 0 193 85t73 219v284q23 5 65 4t55 -4v-445z" />
    <glyph glyph-name="uni1E02" unicode="&#x1e02;" horiz-adv-x="935" 
d="M423 988q-25 0 -43.5 17.5t-18.5 40.5t18.5 40.5t43.5 17.5t43.5 -17.5t18.5 -40.5t-18.5 -40.5t-43.5 -17.5zM700 537q201 -59 201 -235q0 -150 -115.5 -234.5t-319.5 -85.5q-137 -1 -220.5 8t-177.5 35v857q161 40 355 40q90 0 160 -14.5t113 -37t70.5 -53.5t38 -61
t10.5 -63q0 -47 -30 -88.5t-85 -67.5zM426 827q-134 0 -236 -21v-272q127 29 301 29q22 0 60 -2q68 12 105 44.5t37 76.5q0 26 -12.5 49.5t-40.5 46t-83 36t-131 13.5zM458 80q159 0 241 58t82 157q-1 82 -74.5 125.5t-236.5 43.5q-150 0 -280 -33v-325q112 -26 268 -26z
" />
    <glyph glyph-name="uni1E03" unicode="&#x1e03;" horiz-adv-x="825" 
d="M418 1005q-31 0 -53.5 21t-22.5 50t22.5 50.5t53.5 21.5t53.5 -21.5t22.5 -50.5t-22.5 -50t-53.5 -21zM475 707q141 0 230 -94t89 -244q0 -160 -101 -273.5t-257 -113.5q-148 0 -242 113q-5 -53 -23 -95h-113v16q14 60 14 164v754q20 6 61.5 6t58.5 -6v-408
q41 82 117.5 131.5t165.5 49.5zM419 83q110 0 181 85.5t71 201.5q0 105 -57.5 170.5t-148.5 65.5q-108 0 -189 -97.5t-81 -219.5q0 -77 65 -141.5t159 -64.5z" />
    <glyph glyph-name="uni1E0A" unicode="&#x1e0a;" horiz-adv-x="978" 
d="M417 1003q-25 0 -43.5 17.5t-18.5 40.5t18.5 40.5t43.5 17.5t43.5 -17.5t18.5 -40.5t-18.5 -40.5t-43.5 -17.5zM418 922q243 0 384.5 -126.5t141.5 -333.5q0 -218 -136 -349t-367 -131q-130 0 -202.5 8.5t-170.5 34.5v859q152 38 350 38zM817 459q1 161 -107.5 262.5
t-297.5 101.5q-123 0 -222 -16v-702q103 -25 246 -25q178 0 279.5 104t101.5 275z" />
    <glyph glyph-name="uni1E0B" unicode="&#x1e0b;" horiz-adv-x="832" 
d="M396 1015q-31 0 -53.5 21t-22.5 50t22.5 50.5t53.5 21.5t53.5 -21.5t22.5 -50.5t-22.5 -50t-53.5 -21zM759 180q0 -105 15 -164v-16h-103q-28 52 -31 134q-45 -69 -116.5 -110.5t-160.5 -41.5q-146 0 -239 96t-93 244q0 165 103 275t266 110q76 0 139.5 -37.5
t99.5 -100.5v365q18 6 59 6t61 -6v-754zM377 83q110 0 181 92t71 224q0 86 -62 146.5t-147 60.5q-113 0 -189.5 -80t-76.5 -198q0 -108 62 -176.5t161 -68.5z" />
    <glyph glyph-name="uni1E1E" unicode="&#x1e1e;" horiz-adv-x="844" 
d="M430 980q-25 0 -43.5 17.5t-18.5 40.5t18.5 40.5t43.5 17.5t43.5 -17.5t18.5 -40.5t-18.5 -40.5t-43.5 -17.5zM787 799h-597v-361h533q6 -24 -1 -56t-20 -42h-512v-340h-122v886l13 12h727q7 -22 -1 -53.5t-20 -45.5z" />
    <glyph glyph-name="uni1E1F" unicode="&#x1e1f;" horiz-adv-x="457" 
d="M336 1041q-31 0 -53.5 21t-22.5 50t22.5 50.5t53.5 21.5t53.5 -21.5t22.5 -50.5t-22.5 -50t-53.5 -21zM428 850q-134 -1 -146 -179h224v-99h-225v-572h-120v572h-160v99h161q15 279 243 279q66 0 150 -21q5 -17 -3 -51t-19 -46q-57 18 -105 18z" />
    <glyph glyph-name="uni1E40" unicode="&#x1e40;" horiz-adv-x="1205" 
d="M602 980q-25 0 -43.5 17.5t-18.5 40.5t18.5 40.5t43.5 17.5t43.5 -17.5t18.5 -40.5t-18.5 -40.5t-43.5 -17.5zM1172 0h-123l-74 688l-332 -547h-82l-332 546l-73 -687h-122l96 880q14 13 54 19t53 0l365 -610l364 610q17 6 55 0t53 -19z" />
    <glyph glyph-name="uni1E41" unicode="&#x1e41;" horiz-adv-x="1183" 
d="M615 802q-31 0 -53.5 21t-22.5 50t22.5 50.5t53.5 21.5t53.5 -21.5t22.5 -50.5t-22.5 -50t-53.5 -21zM894 707q115 0 173 -81.5t58 -234.5v-391h-120v377q0 107 -34 168t-102 61q-90 0 -153 -88t-63 -205l1 -313h-117v374q0 232 -131 232q-89 0 -151.5 -92t-62.5 -216
v-298h-121v512q0 81 -13 140v18q65 14 111 9q13 -41 13 -86v-38q42 67 106 109.5t135 42.5q160 0 205 -165q43 74 113.5 119.5t152.5 45.5z" />
    <glyph glyph-name="uni1E56" unicode="&#x1e56;" horiz-adv-x="935" 
d="M461 1001q-25 0 -43.5 17.5t-18.5 40.5t18.5 40.5t43.5 17.5t43.5 -17.5t18.5 -40.5t-18.5 -40.5t-43.5 -17.5zM901 580q1 -153 -125.5 -242.5t-325.5 -89.5q-142 0 -260 29v-277h-122v878q170 44 393 44q206 0 323 -93t117 -249zM774 580q1 113 -83 178t-238 65
q-145 0 -263 -27v-414q117 -35 254 -35q147 0 238.5 61.5t91.5 171.5z" />
    <glyph glyph-name="uni1E57" unicode="&#x1e57;" horiz-adv-x="822" 
d="M435 802q-31 0 -53.5 21t-22.5 50t22.5 50.5t53.5 21.5t53.5 -21.5t22.5 -50.5t-22.5 -50t-53.5 -21zM471 707q145 0 232.5 -94t87.5 -240q0 -164 -101.5 -277.5t-251.5 -113.5q-77 0 -141 35t-106 96v-359q-16 -6 -58.5 -6t-61.5 6v748q0 78 -13 156v16q55 17 106 9
l26 -104v-27q51 71 124 113t157 42zM417 83q111 0 181 86t70 200q0 109 -58 173t-149 64q-107 0 -188 -95.5t-81 -224.5q0 -76 67 -139.5t158 -63.5z" />
    <glyph glyph-name="uni1E60" unicode="&#x1e60;" horiz-adv-x="954" 
d="M496 1003q-25 0 -43.5 17.5t-18.5 40.5t18.5 40.5t43.5 17.5t43.5 -17.5t18.5 -40.5t-18.5 -40.5t-43.5 -17.5zM507 -18q-275 0 -473 140q3 19 21.5 51t46.5 40q182 -132 399 -132q141 0 217 48t76 124q0 81 -78.5 117.5t-232.5 43.5q-162 7 -259 67.5t-96 176.5
q0 81 54.5 143t136.5 91.5t177 29.5q195 0 304 -80t109 -194q-25 -7 -61 -10t-63 2q-4 84 -80 133.5t-210 49.5q-103 0 -172 -45t-69 -116q0 -50 37 -84t89.5 -48.5t121.5 -17.5q418 -16 418 -252q0 -126 -111 -202t-302 -76z" />
    <glyph glyph-name="uni1E61" unicode="&#x1e61;" horiz-adv-x="791" 
d="M402 802q-31 0 -53.5 21t-22.5 50t22.5 50.5t53.5 21.5t53.5 -21.5t22.5 -50.5t-22.5 -50t-53.5 -21zM408 -18q-99 0 -197.5 28.5t-171.5 84.5q5 21 19.5 46.5t35.5 39.5q64 -48 146.5 -73t163.5 -25q101 0 162 32t61 81q0 56 -56 80t-191 29q-306 16 -306 190
q0 90 88.5 151t237.5 61q82 0 175.5 -20.5t165.5 -63.5q-8 -49 -36 -92q-65 38 -145.5 56.5t-147.5 18.5q-105 0 -160.5 -33t-55.5 -77q0 -46 50 -70.5t159 -28.5q186 -8 265.5 -56.5t79.5 -143.5q0 -97 -97 -156t-245 -59z" />
    <glyph glyph-name="uni1E6A" unicode="&#x1e6a;" horiz-adv-x="963" 
d="M469 980q-25 0 -43.5 17.5t-18.5 40.5t18.5 40.5t43.5 17.5t43.5 -17.5t18.5 -40.5t-18.5 -40.5t-43.5 -17.5zM934 899q6 -22 -1.5 -54t-19.5 -45h-381v-800h-127v800h-376q-5 21 -1 51t14 48h892z" />
    <glyph glyph-name="uni1E6B" unicode="&#x1e6b;" horiz-adv-x="580" 
d="M177 968q-31 0 -53.5 21t-22.5 50t22.5 50.5t53.5 21.5t53.5 -21.5t22.5 -50.5t-22.5 -50t-53.5 -21zM543 572h-311v-258q0 -110 44.5 -170t132.5 -60q50 0 111 19q12 -12 18.5 -45.5t0.5 -52.5q-78 -23 -142 -23q-132 -2 -209 81.5t-77 242.5v266h-97v99h97v179
q20 11 55 17t66 0v-196h311v-99z" />
    <glyph glyph-name="Wgrave" unicode="&#x1e80;" horiz-adv-x="1432" 
d="M705 966l-208 191h111l175 -191h-78zM448 0l-31 17q-89 240 -208.5 489.5t-195.5 372.5l7 20q56 14 115 0q92 -146 198 -370t178 -426h7q65 89 135.5 216.5t92.5 204.5q-7 22 -22 60t-33 82t-23 57q10 18 45 32.5t68 11.5q42 -81 124.5 -299t127.5 -365h8
q148 182 208.5 399t31.5 388q37 24 117 9q12 -71 13.5 -149.5t-17 -172t-51 -184.5t-88 -187.5t-127.5 -181.5l-42 -24h-131l-21 14q-69 193 -136 350q-21 -65 -87 -180t-107 -169l-32 -15h-124z" />
    <glyph glyph-name="wgrave" unicode="&#x1e81;" horiz-adv-x="1145" 
d="M573 771l-222 248h126l181 -248h-85zM317 0l-21 14q-102 319 -288 638l8 19q70 13 116 0q173 -288 257 -566h10q45 75 91.5 171.5t72.5 169.5l-54 122q11 19 45 34.5t67 11.5q125 -262 193 -509h9q90 134 146 285t43 272q42 23 119 9q20 -126 -47 -316t-188 -343l-22 -12
h-121l-24 15q-42 136 -105 275q-18 -48 -68 -139.5t-85 -139.5l-20 -11h-134z" />
    <glyph glyph-name="Wacute" unicode="&#x1e82;" horiz-adv-x="1432" 
d="M670 953l175 196h119l-214 -196h-80zM448 0l-31 17q-89 240 -208.5 489.5t-195.5 372.5l7 20q56 14 115 0q92 -146 198 -370t178 -426h7q65 89 135.5 216.5t92.5 204.5q-7 22 -22 60t-33 82t-23 57q10 18 45 32.5t68 11.5q42 -81 124.5 -299t127.5 -365h8
q148 182 208.5 399t31.5 388q37 24 117 9q12 -71 13.5 -149.5t-17 -172t-51 -184.5t-88 -187.5t-127.5 -181.5l-42 -24h-131l-21 14q-69 193 -136 350q-21 -65 -87 -180t-107 -169l-32 -15h-124z" />
    <glyph glyph-name="wacute" unicode="&#x1e83;" horiz-adv-x="1145" 
d="M522 771l151 248h127l-199 -248h-79zM317 0l-21 14q-102 319 -288 638l8 19q70 13 116 0q173 -288 257 -566h10q45 75 91.5 171.5t72.5 169.5l-54 122q11 19 45 34.5t67 11.5q125 -262 193 -509h9q90 134 146 285t43 272q42 23 119 9q20 -126 -47 -316t-188 -343l-22 -12
h-121l-24 15q-42 136 -105 275q-18 -48 -68 -139.5t-85 -139.5l-20 -11h-134z" />
    <glyph glyph-name="Wdieresis" unicode="&#x1e84;" horiz-adv-x="1432" 
d="M565 983q-25 0 -43 17.5t-18 40.5t18 40.5t43 17.5t43.5 -17.5t18.5 -40.5t-18.5 -40.5t-43.5 -17.5zM870 983q-25 0 -43.5 17.5t-18.5 40.5t18.5 40.5t43.5 17.5q24 0 42.5 -17.5t18.5 -40.5t-18.5 -40.5t-42.5 -17.5zM448 0l-31 17q-89 240 -208.5 489.5t-195.5 372.5
l7 20q56 14 115 0q92 -146 198 -370t178 -426h7q65 89 135.5 216.5t92.5 204.5q-7 22 -22 60t-33 82t-23 57q10 18 45 32.5t68 11.5q42 -81 124.5 -299t127.5 -365h8q148 182 208.5 399t31.5 388q37 24 117 9q12 -71 13.5 -149.5t-17 -172t-51 -184.5t-88 -187.5
t-127.5 -181.5l-42 -24h-131l-21 14q-69 193 -136 350q-21 -65 -87 -180t-107 -169l-32 -15h-124z" />
    <glyph glyph-name="wdieresis" unicode="&#x1e85;" horiz-adv-x="1145" 
d="M414 790q-31 0 -53.5 21t-22.5 50t22.5 50.5t53.5 21.5q30 0 53 -22t23 -50t-23 -49.5t-53 -21.5zM754 790q-31 0 -53.5 21t-22.5 50t22.5 50.5t53.5 21.5q30 0 53 -22t23 -50t-23 -49.5t-53 -21.5zM317 0l-21 14q-102 319 -288 638l8 19q70 13 116 0q173 -288 257 -566
h10q45 75 91.5 171.5t72.5 169.5l-54 122q11 19 45 34.5t67 11.5q125 -262 193 -509h9q90 134 146 285t43 272q42 23 119 9q20 -126 -47 -316t-188 -343l-22 -12h-121l-24 15q-42 136 -105 275q-18 -48 -68 -139.5t-85 -139.5l-20 -11h-134z" />
    <glyph glyph-name="uni1E9E" unicode="&#x1e9e;" horiz-adv-x="991" 
d="M511 533q60 -4 116 -14t117 -32t105.5 -52.5t73.5 -79t29 -109.5q0 -125 -102 -194.5t-247 -69.5q-110 0 -192 28t-150 91q4 25 21 52t38 37q107 -102 275 -102q101 0 166.5 44t65.5 114q0 60 -54 105.5t-135.5 68.5t-156 34t-135.5 11l-13 37l378 293h-330
q-51 0 -89.5 -19.5t-59 -54t-30.5 -74.5t-10 -86v-561h-120v569q0 152 72 241t227 89h499q10 -23 5.5 -55t-17.5 -46z" />
    <glyph glyph-name="Ygrave" unicode="&#x1ef2;" horiz-adv-x="953" 
d="M543 966h-78l-208 191h111zM934 899q14 -124 -69 -275.5t-295 -322.5v-301h-122v311q-67 97 -215 295t-218 273l8 20q79 15 138 0q45 -47 171 -217t196 -272q134 106 213 243t70 237q41 23 123 9z" />
    <glyph glyph-name="ygrave" unicode="&#x1ef3;" horiz-adv-x="802" 
d="M486 784h-85l-222 248h126zM784 671q7 -66 4 -141t-28 -164.5t-62.5 -174t-100 -169.5t-140.5 -151q-152 -125 -331 -127q-59 0 -96 17q-20 44 -2 86l22 12q34 -15 77 -14q136 0 274 131q24 22 45 45q-90 57 -169.5 148.5t-131.5 186t-83.5 168.5t-46.5 128l7 18
q60 15 115 1q15 -48 41 -109t71 -147t115 -170.5t150 -140.5q172 241 153 557q37 25 117 10z" />
    <glyph glyph-name="endash" unicode="&#x2013;" horiz-adv-x="1139" 
d="M200 316v94h739v-94h-739z" />
    <glyph glyph-name="emdash" unicode="&#x2014;" horiz-adv-x="1262" 
d="M200 316v94h862v-94h-862z" />
    <glyph glyph-name="quoteleft" unicode="&#x2018;" horiz-adv-x="336" 
d="M92 649l62 306h90l-36 -306h-116z" />
    <glyph glyph-name="quoteright" unicode="&#x2019;" horiz-adv-x="337" 
d="M92 648l36 307h117l-63 -307h-90z" />
    <glyph glyph-name="quotesinglbase" unicode="&#x201a;" horiz-adv-x="337" 
d="M92 -140l36 307h117l-63 -307h-90z" />
    <glyph glyph-name="quotedblleft" unicode="&#x201c;" horiz-adv-x="529" 
d="M92 649l62 306h90l-35 -306h-117zM285 649l62 306h91l-36 -306h-117z" />
    <glyph glyph-name="quotedblright" unicode="&#x201d;" horiz-adv-x="529" 
d="M92 648l35 307h117l-62 -307h-90zM284 648l36 307h117l-62 -307h-91z" />
    <glyph glyph-name="quotedblbase" unicode="&#x201e;" horiz-adv-x="529" 
d="M92 -140l36 307h117l-63 -307h-90zM284 -140l37 307h117l-63 -307h-91z" />
    <glyph glyph-name="dagger" unicode="&#x2020;" horiz-adv-x="820" 
d="M713 834v-101h-254v-863h-101v863h-251v101h251v169h101v-169h254z" />
    <glyph glyph-name="daggerdbl" unicode="&#x2021;" horiz-adv-x="824" 
d="M715 131v-101h-256v-160h-101v160h-250v101h250v602h-251v101h251v169h101v-169h254v-101h-254v-602h256z" />
    <glyph glyph-name="bullet" unicode="&#x2022;" horiz-adv-x="789" 
d="M394 251q-68 0 -116.5 47.5t-48.5 114.5q0 65 49 114.5t116 49.5q65 0 115.5 -50t50.5 -114q0 -66 -50.5 -114t-115.5 -48z" />
    <glyph glyph-name="ellipsis" unicode="&#x2026;" horiz-adv-x="906" 
d="M168 0q-31 0 -53.5 21t-22.5 50t22.5 50.5t53.5 21.5t53.5 -21.5t22.5 -50.5t-22.5 -50t-53.5 -21zM453 0q-31 0 -53.5 21t-22.5 50t22.5 50.5t53.5 21.5q30 0 53 -22t23 -50t-23 -49.5t-53 -21.5zM737 0q-30 0 -53 21.5t-23 49.5t23.5 50t52.5 22q31 0 54 -21.5
t23 -50.5q0 -28 -23 -49.5t-54 -21.5z" />
    <glyph glyph-name="perthousand" unicode="&#x2030;" horiz-adv-x="1901" 
d="M185 0l781 890h140l-782 -890h-139zM369 488q-128 0 -201.5 51.5t-73.5 148.5q0 93 72.5 146.5t202.5 53.5q132 0 203.5 -53t71.5 -147q0 -92 -75 -146t-200 -54zM369 567q66 0 111 33t45 88t-43.5 88t-112.5 33q-68 0 -111.5 -33.5t-43.5 -87.5q0 -56 43 -88.5
t112 -32.5zM909 -12q-127 0 -200.5 52t-73.5 148q0 93 72.5 146.5t201.5 53.5q132 0 204 -52.5t72 -147.5q0 -92 -75 -146t-201 -54zM1531 -12q-127 0 -200.5 52t-73.5 148q0 93 72.5 146.5t201.5 53.5q132 0 204 -52.5t72 -147.5q0 -92 -75 -146t-201 -54zM909 67
q67 0 112.5 33t45.5 88t-44 88t-114 33q-68 0 -111.5 -33.5t-43.5 -87.5q0 -56 43.5 -88.5t111.5 -32.5zM1531 67q67 0 112.5 33t45.5 88t-44 88t-114 33q-68 0 -111.5 -33.5t-43.5 -87.5q0 -56 43.5 -88.5t111.5 -32.5z" />
    <glyph glyph-name="guilsinglleft" unicode="&#x2039;" horiz-adv-x="779" 
d="M687 686l-445 -250l445 -246l-35 -81l-560 292v73l557 292z" />
    <glyph glyph-name="guilsinglright" unicode="&#x203a;" horiz-adv-x="779" 
d="M131 766l557 -292v-73l-560 -292l-36 81l445 246l-445 250z" />
    <glyph glyph-name="fraction" unicode="&#x2044;" horiz-adv-x="1203" 
d="M92 -131l913 1183h107l-914 -1183h-106z" />
    <glyph glyph-name="Euro" unicode="&#x20ac;" horiz-adv-x="1000" 
d="M853 188l55 -78q-47 -45 -140.5 -77.5t-208.5 -32.5q-156 0 -276.5 80t-160.5 232h-77v80h63q-2 34 -2 54q0 16 2 44h-63v80h76q38 148 159.5 227.5t278.5 79.5q110 0 197.5 -29.5t143.5 -73.5l-54 -75q-104 77 -275 77q-122 0 -205.5 -52t-115.5 -154h373v-80h-388
q-2 -28 -2 -44q0 -28 3 -54h351v-80h-332q36 -100 122 -155.5t202 -55.5q94 0 164.5 27t109.5 60z" />
    <glyph glyph-name="uni2116" unicode="&#x2116;" horiz-adv-x="1783" 
d="M1369 308q-139 0 -220.5 78t-81.5 204q0 134 95.5 226.5t232.5 92.5q136 0 214.5 -74.5t82.5 -198.5q4 -145 -88.5 -236.5t-234.5 -91.5zM872 890q24 8 64 7t58 -7v-890h-92l-688 707v-707h-122v867q11 14 44 23.5t49 4.5l687 -707v702zM1390 811q-85 0 -144.5 -63.5
t-59.5 -155.5q0 -83 50.5 -134.5t136.5 -51.5q87 0 144.5 63.5t55.5 156.5q-2 82 -51 133.5t-132 51.5zM1111 118v90h536v-90h-536z" />
    <glyph glyph-name="trademark" unicode="&#x2122;" horiz-adv-x="1110" 
d="M460 890v-92h-134v-384h-101v384h-133v92h368zM1018 890v-476h-100v306l-123 -262h-66l-129 260v-304h-101v476h113l150 -310l143 310h113z" />
    <glyph glyph-name="estimated" unicode="&#x212e;" horiz-adv-x="981" 
d="M497 895q181 0 290 -132.5t102 -363.5h-629l2 -262q90 -108 243 -108q81 0 159.5 39t130.5 101q25 -13 30 -38q-54 -65 -143.5 -107t-174.5 -42q-188 0 -301.5 125t-113.5 329q0 202 115 330.5t290 128.5zM733 446v284q-92 118 -236 118q-71 0 -135.5 -29.5t-103.5 -80.5
l2 -292h473z" />
    <glyph glyph-name="partialdiff" unicode="&#x2202;" horiz-adv-x="977" 
d="M446 908q93 0 169.5 -32.5t125.5 -85t83 -120t48 -134t14 -131.5q0 -205 -112.5 -314t-302.5 -109q-180 0 -279.5 85.5t-99.5 209.5q0 114 93.5 187t263.5 73q88 0 170 -19.5t138 -52.5q-5 52 -19 99.5t-39.5 92.5t-60.5 78t-86 53t-111 20q-64 0 -129 -27t-118 -73
q-34 38 -31 90q41 47 124 78.5t159 31.5zM471 83q131 0 205 75.5t83 215.5q-115 63 -274 63q-136 0 -201.5 -46t-65.5 -119q0 -76 68 -132.5t185 -56.5z" />
    <glyph glyph-name="minus" unicode="&#x2212;" horiz-adv-x="845" 
d="M121 391v100h603v-100h-603z" />
    <glyph glyph-name="radical" unicode="&#x221a;" horiz-adv-x="1187" 
d="M1187 890v-103h-221l-409 -787h-89l-376 481h138l269 -340l382 749h306z" />
    <glyph glyph-name="infinity" unicode="&#x221e;" horiz-adv-x="1126" 
d="M787 724q108 0 178 -63.5t70 -192.5q0 -128 -70 -191.5t-178 -63.5q-84 0 -135.5 41t-87.5 114q-36 -73 -88 -114t-137 -41q-108 0 -177.5 63.5t-69.5 191.5q0 129 69.5 192.5t177.5 63.5q86 0 137 -43t87 -119q34 77 84.5 119.5t139.5 42.5zM340 291q72 0 111 43.5
t72 126.5q-19 45 -32 70.5t-35 55.5t-50.5 43.5t-65.5 13.5q-63 0 -108.5 -44.5t-45.5 -131.5q0 -88 45 -132.5t109 -44.5zM786 292q65 0 110 44t45 132q0 87 -45 131.5t-110 44.5q-37 0 -65.5 -13.5t-50 -43t-34.5 -55t-31 -69.5q35 -84 73.5 -127.5t107.5 -43.5z" />
    <glyph glyph-name="approxequal" unicode="&#x2248;" horiz-adv-x="788" 
d="M92 473q0 84 41.5 138.5t110.5 54.5q46 0 98.5 -23t99 -46.5t78.5 -23.5q33 0 54.5 25t21.5 68h101q0 -83 -40.5 -138t-112.5 -55q-47 0 -100 23t-100.5 46t-80.5 23q-31 0 -51 -24.5t-20 -67.5h-100zM92 258q0 84 41.5 138.5t110.5 54.5q46 0 98.5 -23.5t99 -46.5
t78.5 -23q33 0 54.5 25t21.5 68h101q0 -83 -40.5 -138t-112.5 -55q-47 0 -100 23t-100.5 46t-80.5 23q-31 0 -51 -24.5t-20 -67.5h-100z" />
    <glyph glyph-name="notequal" unicode="&#x2260;" horiz-adv-x="832" 
d="M739 886l-167 -282h142v-101h-202l-73 -123h275v-101h-335l-147 -248h-127l146 248h-140v101h200l73 123h-273v101h332l167 282h129z" />
    <glyph glyph-name="lessequal" unicode="&#x2264;" horiz-adv-x="778" 
d="M686 717l-442 -242l442 -244l-41 -85l-553 292v74l557 291zM120 4v87h535v-87h-535z" />
    <glyph glyph-name="greaterequal" unicode="&#x2265;" horiz-adv-x="778" 
d="M130 801l557 -292v-73l-554 -292l-40 84l441 244l-442 242zM104 1v87h534v-87h-534z" />
    <glyph glyph-name="i.loclTRK" horiz-adv-x="271" 
d="M135 802q-31 0 -53.5 21t-22.5 50t22.5 50.5t53.5 21.5t53.5 -21.5t22.5 -50.5t-22.5 -50t-53.5 -21zM76 0v671q19 6 61 6t59 -6v-671h-120z" />
    <glyph glyph-name="uni00A0.001" horiz-adv-x="425" 
 />
    <glyph glyph-name="uni030C.alt" 
d="M-208 627l16 333h114l-43 -333h-87z" />
    <glyph glyph-name="uni0308.case" 
d="M-442 974q-25 0 -43 17.5t-18 40.5t18 40.5t43 17.5t43.5 -17.5t18.5 -40.5t-18.5 -40.5t-43.5 -17.5zM-137 974q-25 0 -43.5 17.5t-18.5 40.5t18.5 40.5t43.5 17.5q24 0 42.5 -17.5t18.5 -40.5t-18.5 -40.5t-42.5 -17.5z" />
    <glyph glyph-name="uni0307.case" 
d="M-148 971q-25 0 -43.5 17.5t-18.5 40.5t18.5 40.5t43.5 17.5t43.5 -17.5t18.5 -40.5t-18.5 -40.5t-43.5 -17.5z" />
    <glyph glyph-name="gravecomb.case" 
d="M-153 960l-208 191h111l175 -191h-78z" />
    <glyph glyph-name="acutecomb.case" 
d="M-312 944l175 196h119l-214 -196h-80z" />
    <glyph glyph-name="uni030B.case" 
d="M-575 959l146 180h113l-184 -180h-75zM-355 959l165 180h123l-211 -180h-77z" />
    <glyph glyph-name="uni0302.case" 
d="M-76 942h-107l-145 147l-146 -147h-107l220 223h66z" />
    <glyph glyph-name="uni030C.case" 
d="M-172 1170h114l-229 -228h-61l-230 228h115l146 -146z" />
    <glyph glyph-name="uni0306.case" 
d="M-315 763q-107 0 -173 48.5t-66 141.5h84q0 -51 42 -83.5t113 -32.5q69 0 111.5 33.5t42.5 82.5h85q0 -90 -68 -140t-171 -50z" />
    <glyph glyph-name="uni030A.case" 
d="M-267 876q-96 0 -154.5 39.5t-58.5 105.5q0 63 57 104t156 41q95 0 152 -40.5t57 -104.5q0 -63 -61 -104t-148 -41zM-269 930q58 0 99 26.5t41 63.5q0 40 -40.5 65.5t-99.5 25.5q-62 0 -100.5 -26t-38.5 -65t38 -64.5t101 -25.5z" />
    <glyph glyph-name="tildecomb.case" 
d="M-181 944q-38 0 -82.5 24.5t-84.5 49t-68 24.5q-27 0 -44.5 -24.5t-17.5 -68.5h-75q0 78 33.5 128.5t89.5 50.5q38 0 81.5 -24.5t83.5 -49t68 -24.5t45.5 24.5t17.5 67.5h76q0 -77 -33 -127.5t-90 -50.5z" />
    <glyph glyph-name="uni0304.case" 
d="M-569 824v81h494v-81h-494z" />
    <glyph glyph-name="uni0327.case" 
d="M-196 -352q-75 0 -139 64l60 57q40 -41 78 -41q23 0 38 16.5t15 41.5q0 11 -6.5 24t-13 21.5t-20.5 24t-20 23.5q-31 36 -40 59.5t-9 61.5h80q0 -17 5.5 -31.5t11.5 -22.5t23.5 -27.5t27.5 -31.5q47 -51 47 -107q1 -54 -39 -92.5t-99 -39.5z" />
    <glyph glyph-name="uni0328.case" 
d="M-230 -354q-61 -1 -100.5 32.5t-39.5 98.5q0 54 36.5 123t100.5 118l74 -11q-123 -113 -123 -211q0 -31 19.5 -47t49.5 -14q26 0 54.5 15t44.5 37l56 -46q-29 -41 -77.5 -68t-94.5 -27z" />
    </font>
</defs>
</svg>
